<?xml version="1.0" encoding="utf-8" standalone="no"?>
<!DOCTYPE svg PUBLIC "-//W3C//DTD SVG 1.1//EN"
  "http://www.w3.org/Graphics/SVG/1.1/DTD/svg11.dtd">
<!-- Created with matplotlib (http://matplotlib.org/) -->
<svg height="407pt" version="1.1" viewBox="0 0 460 407" width="460pt" xmlns="http://www.w3.org/2000/svg" xmlns:xlink="http://www.w3.org/1999/xlink">
 <defs>
  <style type="text/css">
*{stroke-linecap:butt;stroke-linejoin:round;stroke-miterlimit:100000;}
  </style>
 </defs>
 <g id="figure_1">
  <g id="patch_1">
   <path d="M 0 407.7125 
L 460.8 407.7125 
L 460.8 0 
L 0 0 
z
" style="fill:#ffffff;"/>
  </g>
  <g id="axes_1">
   <g id="patch_2">
    <path d="M 7.2 352.8 
L 453.6 352.8 
L 453.6 7.2 
L 7.2 7.2 
z
" style="fill:#ffffff;"/>
   </g>
   <g id="line2d_1">
    <path clip-path="url(#p061633292a)" d="M 191.394675 352.8 
L 191.394675 348.237624 
L 196.040843 348.237624 
L 196.040843 343.675248 
L 202.687979 343.675248 
L 202.687979 339.112871 
L 210.69392 339.112871 
L 210.69392 334.550495 
L 212.172521 334.550495 
L 212.172521 329.988119 
L 212.365778 329.988119 
L 212.365778 325.425743 
L 212.885521 325.425743 
L 212.947417 316.30099 
L 213.29035 316.30099 
L 213.33995 307.176238 
L 213.69397 307.176238 
L 213.69397 302.613861 
L 214.698428 302.613861 
L 214.698428 298.051485 
L 215.358786 298.051485 
L 215.441833 288.926733 
L 216.001796 288.926733 
L 216.001796 284.364356 
L 216.696879 284.364356 
L 216.696879 279.80198 
L 216.962126 279.80198 
L 216.962126 275.239604 
L 217.357313 275.239604 
L 217.357313 270.677228 
L 217.514894 270.677228 
L 217.514894 266.114851 
L 217.63892 266.114851 
L 217.746918 252.427723 
L 217.836461 252.427723 
L 217.836461 247.865347 
L 217.962118 247.865347 
L 217.962118 243.30297 
L 218.133409 243.30297 
L 218.227505 234.178218 
L 218.260825 234.178218 
L 218.319784 225.053465 
L 218.46568 225.053465 
L 218.570109 202.241584 
L 218.749317 202.241584 
L 218.749317 197.679208 
L 218.896235 197.679208 
L 218.896235 193.116832 
L 219.105589 193.116832 
L 219.105589 188.554455 
L 219.553959 188.554455 
L 219.553959 183.992079 
L 220.26584 183.992079 
L 220.314516 170.30495 
L 220.519502 170.30495 
L 220.519502 165.742574 
L 220.632807 165.742574 
L 220.632807 161.180198 
L 220.852832 161.180198 
L 220.852832 156.617822 
L 221.810562 156.617822 
L 221.810562 152.055446 
L 223.406907 152.055446 
L 223.406907 147.493069 
L 223.561419 147.493069 
L 223.561419 142.930693 
L 223.761373 142.930693 
L 223.761373 138.368317 
L 224.916144 138.368317 
L 224.916144 133.805941 
L 225.110399 133.805941 
L 225.110399 129.243564 
L 227.149136 129.243564 
L 227.149136 124.681188 
L 228.004776 124.681188 
L 228.004776 120.118812 
L 230.896596 120.118812 
L 230.896596 115.556436 
L 231.671372 115.556436 
L 231.671372 110.994059 
L 234.83115 110.994059 
L 234.83115 106.431683 
L 234.983239 106.431683 
L 234.983239 101.869307 
L 236.872085 101.869307 
L 236.872085 97.306931 
L 237.578328 97.306931 
L 237.578328 92.744554 
L 238.824989 92.744554 
L 238.824989 88.182178 
L 240.789531 88.182178 
L 240.789531 83.619802 
L 244.222169 83.619802 
L 244.222169 79.057426 
L 256.066227 79.057426 
L 256.066227 74.49505 
L 257.12346 74.49505 
L 257.12346 69.932673 
L 257.573188 69.932673 
L 257.573188 65.370297 
L 257.808027 65.370297 
L 257.82553 56.245545 
L 258.367155 56.245545 
L 258.367155 51.683168 
L 258.500424 51.683168 
L 258.500424 47.120792 
L 258.647334 47.120792 
L 258.647334 42.558416 
L 258.807541 42.558416 
L 258.807541 37.99604 
L 258.996042 37.99604 
L 259.046162 28.871287 
L 259.344509 28.871287 
L 259.344509 24.308911 
L 260.210208 24.308911 
L 260.303956 15.184158 
L 260.467408 15.184158 
L 260.467408 10.621782 
L 260.467408 10.621782 
L 453.6 10.621782 
L 453.6 10.621782 
" style="fill:none;stroke:#ff0000;stroke-linecap:square;stroke-width:3.0;"/>
   </g>
   <g id="line2d_2">
    <path clip-path="url(#p061633292a)" d="M 218.42703 352.8 
L 218.42703 348.237624 
L 232.209601 348.237624 
L 232.209601 343.675248 
L 233.346413 343.675248 
L 233.448875 334.550495 
L 233.788027 334.550495 
L 233.898575 325.425743 
L 234.430517 325.425743 
L 234.430517 320.863366 
L 234.824812 320.863366 
L 234.824812 316.30099 
L 235.630166 316.30099 
L 235.630166 311.738614 
L 235.791541 311.738614 
L 235.791541 307.176238 
L 237.771026 307.176238 
L 237.771026 302.613861 
L 237.954098 302.613861 
L 237.957743 293.489109 
L 239.402039 293.489109 
L 239.402039 288.926733 
L 240.076638 288.926733 
L 240.076638 284.364356 
L 253.11225 284.364356 
L 253.20306 270.677228 
L 253.266671 270.677228 
L 253.355236 247.865347 
L 253.438637 247.865347 
L 253.54126 220.491089 
L 253.582348 220.491089 
L 253.647506 197.679208 
L 253.721006 197.679208 
L 253.767583 183.992079 
L 253.852937 183.992079 
L 253.852937 179.429703 
L 254.016115 179.429703 
L 254.069851 161.180198 
L 254.326277 161.180198 
L 254.326277 156.617822 
L 254.522476 156.617822 
L 254.522476 152.055446 
L 254.723346 152.055446 
L 254.723346 147.493069 
L 276.056878 147.493069 
L 276.056878 142.930693 
L 278.436083 142.930693 
L 278.436083 138.368317 
L 284.317761 138.368317 
L 284.317761 133.805941 
L 294.816339 133.805941 
L 294.816339 129.243564 
L 304.020432 129.243564 
L 304.020432 124.681188 
L 307.954624 124.681188 
L 307.954624 120.118812 
L 310.294457 120.118812 
L 310.294457 115.556436 
L 312.971458 115.556436 
L 312.971458 110.994059 
L 314.47474 110.994059 
L 314.47474 106.431683 
L 317.150058 106.431683 
L 317.205204 97.306931 
L 318.906051 97.306931 
L 318.906051 92.744554 
L 326.027962 92.744554 
L 326.027962 88.182178 
L 327.469769 88.182178 
L 327.469769 83.619802 
L 329.059057 83.619802 
L 329.113921 74.49505 
L 330.161807 74.49505 
L 330.161807 69.932673 
L 331.775658 69.932673 
L 331.87424 60.807921 
L 332.263476 60.807921 
L 332.263476 56.245545 
L 334.238818 56.245545 
L 334.238818 51.683168 
L 335.190637 51.683168 
L 335.190637 47.120792 
L 335.520601 47.120792 
L 335.520601 42.558416 
L 336.779102 42.558416 
L 336.779102 37.99604 
L 338.168308 37.99604 
L 338.168308 33.433663 
L 338.619557 33.433663 
L 338.619557 28.871287 
L 339.772128 28.871287 
L 339.772128 24.308911 
L 340.669329 24.308911 
L 340.767579 15.184158 
L 342.160126 15.184158 
L 342.160126 10.621782 
L 342.160126 10.621782 
L 453.6 10.621782 
L 453.6 10.621782 
" style="fill:none;stroke:#00bfbf;stroke-linecap:square;"/>
   </g>
   <g id="line2d_3">
    <path clip-path="url(#p061633292a)" d="M 218.42703 352.8 
L 218.42703 348.237624 
L 228.267519 348.237624 
L 228.267519 343.675248 
L 228.717286 343.675248 
L 228.717286 339.112871 
L 229.719232 339.112871 
L 229.770716 329.988119 
L 230.114616 329.988119 
L 230.114616 325.425743 
L 231.608272 325.425743 
L 231.608272 320.863366 
L 232.116278 320.863366 
L 232.209601 311.738614 
L 232.951114 311.738614 
L 232.951114 307.176238 
L 233.216046 307.176238 
L 233.216046 302.613861 
L 233.346413 302.613861 
L 233.346413 298.051485 
L 233.718746 298.051485 
L 233.718746 293.489109 
L 234.824812 293.489109 
L 234.824812 288.926733 
L 239.402039 288.926733 
L 239.402039 284.364356 
L 252.606345 284.364356 
L 252.606345 279.80198 
L 253.11225 279.80198 
L 253.20306 266.114851 
L 253.266671 266.114851 
L 253.355236 243.30297 
L 253.438637 243.30297 
L 253.54126 202.241584 
L 253.582348 202.241584 
L 253.664011 174.867327 
L 253.724614 174.867327 
L 253.767583 165.742574 
L 253.852937 165.742574 
L 253.852937 161.180198 
L 254.016115 161.180198 
L 254.016115 156.617822 
L 254.135281 156.617822 
L 254.135281 152.055446 
L 254.326277 152.055446 
L 254.326277 147.493069 
L 276.056878 147.493069 
L 276.056878 142.930693 
L 276.780037 142.930693 
L 276.780037 138.368317 
L 278.436083 138.368317 
L 278.436083 133.805941 
L 284.317761 133.805941 
L 284.317761 129.243564 
L 290.56603 129.243564 
L 290.56603 124.681188 
L 293.249492 124.681188 
L 293.249492 120.118812 
L 293.463272 120.118812 
L 293.463272 115.556436 
L 299.776207 115.556436 
L 299.776207 110.994059 
L 302.224866 110.994059 
L 302.224866 106.431683 
L 304.020432 106.431683 
L 304.020432 101.869307 
L 306.380991 101.869307 
L 306.380991 97.306931 
L 307.954624 97.306931 
L 307.954624 92.744554 
L 310.294457 92.744554 
L 310.294457 88.182178 
L 313.073118 88.182178 
L 313.073118 83.619802 
L 317.150058 83.619802 
L 317.150058 79.057426 
L 320.686055 79.057426 
L 320.686055 74.49505 
L 329.059057 74.49505 
L 329.142191 65.370297 
L 330.012144 65.370297 
L 330.012144 60.807921 
L 330.161807 60.807921 
L 330.161807 56.245545 
L 331.214642 56.245545 
L 331.214642 51.683168 
L 331.775658 51.683168 
L 331.775658 47.120792 
L 332.359903 47.120792 
L 332.359903 42.558416 
L 333.555216 42.558416 
L 333.555216 37.99604 
L 335.190637 37.99604 
L 335.190637 33.433663 
L 336.403388 33.433663 
L 336.403388 28.871287 
L 338.168308 28.871287 
L 338.168308 24.308911 
L 339.380847 24.308911 
L 339.402517 15.184158 
L 340.669329 15.184158 
L 340.669329 10.621782 
L 340.669329 10.621782 
L 453.6 10.621782 
L 453.6 10.621782 
" style="fill:none;stroke:#bf00bf;stroke-linecap:square;"/>
   </g>
   <g id="line2d_4">
    <path clip-path="url(#p061633292a)" d="M 218.42703 352.8 
L 218.42703 348.237624 
L 225.652928 348.237624 
L 225.681319 339.112871 
L 226.875128 339.112871 
L 226.875128 334.550495 
L 227.639476 334.550495 
L 227.639476 329.988119 
L 228.267519 329.988119 
L 228.267519 325.425743 
L 228.717286 325.425743 
L 228.717286 320.863366 
L 229.416697 320.863366 
L 229.477182 311.738614 
L 229.770716 311.738614 
L 229.770716 307.176238 
L 230.175788 307.176238 
L 230.175788 302.613861 
L 232.116278 302.613861 
L 232.116278 298.051485 
L 233.216046 298.051485 
L 233.216046 293.489109 
L 233.344935 293.489109 
L 233.346413 284.364356 
L 252.606345 284.364356 
L 252.606345 279.80198 
L 252.745821 279.80198 
L 252.745821 275.239604 
L 252.889964 275.239604 
L 252.889964 270.677228 
L 253.11225 270.677228 
L 253.20306 252.427723 
L 253.239393 252.427723 
L 253.318065 225.053465 
L 253.355236 225.053465 
L 253.465772 197.679208 
L 253.4717 197.679208 
L 253.582797 165.742574 
L 253.609232 165.742574 
L 253.622904 152.055446 
L 253.724614 152.055446 
L 253.724614 147.493069 
L 275.770994 147.493069 
L 275.770994 142.930693 
L 276.056878 142.930693 
L 276.056878 138.368317 
L 276.17088 138.368317 
L 276.17088 133.805941 
L 276.499628 133.805941 
L 276.499628 129.243564 
L 277.290341 129.243564 
L 277.290341 124.681188 
L 278.097178 124.681188 
L 278.097178 120.118812 
L 278.436083 120.118812 
L 278.436083 115.556436 
L 279.601742 115.556436 
L 279.601742 110.994059 
L 288.945065 110.994059 
L 288.945065 106.431683 
L 290.56603 106.431683 
L 290.56603 101.869307 
L 290.927352 101.869307 
L 290.927352 97.306931 
L 293.249492 97.306931 
L 293.249492 92.744554 
L 294.943386 92.744554 
L 294.943386 88.182178 
L 305.851829 88.182178 
L 305.851829 83.619802 
L 307.504334 83.619802 
L 307.504334 79.057426 
L 318.429739 79.057426 
L 318.429739 74.49505 
L 324.256672 74.49505 
L 324.256672 69.932673 
L 325.491939 69.932673 
L 325.491939 65.370297 
L 327.214636 65.370297 
L 327.214636 60.807921 
L 328.230383 60.807921 
L 328.230383 56.245545 
L 328.604761 56.245545 
L 328.604761 51.683168 
L 329.272463 51.683168 
L 329.364561 42.558416 
L 330.161807 42.558416 
L 330.161807 37.99604 
L 331.214642 37.99604 
L 331.214642 33.433663 
L 333.301694 33.433663 
L 333.301694 28.871287 
L 333.49645 28.871287 
L 333.49645 24.308911 
L 333.791775 24.308911 
L 333.791775 19.746535 
L 335.106301 19.746535 
L 335.106301 15.184158 
L 340.669329 15.184158 
L 340.669329 10.621782 
L 340.669329 10.621782 
L 453.6 10.621782 
L 453.6 10.621782 
" style="fill:none;stroke:#000000;stroke-linecap:square;"/>
   </g>
   <g id="line2d_5">
    <path clip-path="url(#p061633292a)" d="M 218.42703 352.8 
L 218.42703 348.237624 
L 222.289892 348.237624 
L 222.289892 343.675248 
L 225.652928 343.675248 
L 225.681319 334.550495 
L 226.875128 334.550495 
L 226.875128 329.988119 
L 227.206055 329.988119 
L 227.206055 325.425743 
L 227.639476 325.425743 
L 227.639476 320.863366 
L 228.122089 320.863366 
L 228.122089 316.30099 
L 228.267519 316.30099 
L 228.267519 311.738614 
L 228.73915 311.738614 
L 228.820758 302.613861 
L 229.770716 302.613861 
L 229.78655 293.489109 
L 230.193034 293.489109 
L 230.193034 288.926733 
L 231.346153 288.926733 
L 231.346153 284.364356 
L 251.932548 284.364356 
L 252.036744 275.239604 
L 252.190969 275.239604 
L 252.190969 270.677228 
L 252.363506 270.677228 
L 252.363506 266.114851 
L 252.496464 266.114851 
L 252.606345 247.865347 
L 252.720445 247.865347 
L 252.720445 243.30297 
L 252.877431 243.30297 
L 252.955204 215.928713 
L 253.207216 215.928713 
L 253.29976 193.116832 
L 253.35471 193.116832 
L 253.421096 161.180198 
L 253.468205 161.180198 
L 253.493659 152.055446 
L 253.582905 152.055446 
L 253.582905 147.493069 
L 272.622109 147.493069 
L 272.622109 142.930693 
L 273.202938 142.930693 
L 273.219821 133.805941 
L 273.586703 133.805941 
L 273.586703 129.243564 
L 273.742774 129.243564 
L 273.742774 124.681188 
L 273.861864 124.681188 
L 273.861864 120.118812 
L 274.074362 120.118812 
L 274.172186 110.994059 
L 274.468255 110.994059 
L 274.548615 101.869307 
L 275.794186 101.869307 
L 275.794186 97.306931 
L 276.460329 97.306931 
L 276.460329 92.744554 
L 276.620996 92.744554 
L 276.620996 88.182178 
L 276.91976 88.182178 
L 276.91976 83.619802 
L 280.428248 83.619802 
L 280.428248 79.057426 
L 311.357616 79.057426 
L 311.357616 74.49505 
L 318.144307 74.49505 
L 318.144307 69.932673 
L 318.429739 69.932673 
L 318.429739 65.370297 
L 318.60211 65.370297 
L 318.60211 60.807921 
L 318.88321 60.807921 
L 318.88321 56.245545 
L 321.99618 56.245545 
L 321.99618 51.683168 
L 323.241378 51.683168 
L 323.241378 47.120792 
L 323.593112 47.120792 
L 323.593112 42.558416 
L 324.256672 42.558416 
L 324.256672 37.99604 
L 324.407787 37.99604 
L 324.407787 33.433663 
L 326.644653 33.433663 
L 326.644653 28.871287 
L 327.728929 28.871287 
L 327.728929 24.308911 
L 328.679059 24.308911 
L 328.679059 19.746535 
L 331.201391 19.746535 
L 331.201391 15.184158 
L 332.878241 15.184158 
L 332.878241 10.621782 
L 332.878241 10.621782 
L 453.6 10.621782 
L 453.6 10.621782 
" style="fill:none;stroke:#00bfbf;stroke-linecap:square;"/>
   </g>
   <g id="line2d_6">
    <path clip-path="url(#p061633292a)" d="M 214.698428 352.8 
L 214.698428 348.237624 
L 215.358786 348.237624 
L 215.358786 343.675248 
L 216.001796 343.675248 
L 216.001796 339.112871 
L 217.746918 339.112871 
L 217.746918 334.550495 
L 218.227505 334.550495 
L 218.227505 329.988119 
L 218.839282 329.988119 
L 218.896235 320.863366 
L 219.105589 320.863366 
L 219.123735 311.738614 
L 219.536136 311.738614 
L 219.591778 298.051485 
L 219.685389 298.051485 
L 219.765418 288.926733 
L 219.836938 288.926733 
L 219.92793 279.80198 
L 220.271865 279.80198 
L 220.360849 256.990099 
L 220.632807 256.990099 
L 220.68218 247.865347 
L 220.852832 247.865347 
L 220.852832 243.30297 
L 221.134559 243.30297 
L 221.134559 238.740594 
L 221.810562 238.740594 
L 221.810562 234.178218 
L 222.12875 234.178218 
L 222.12875 229.615842 
L 222.396306 229.615842 
L 222.396306 225.053465 
L 223.872629 225.053465 
L 223.872629 220.491089 
L 224.773444 220.491089 
L 224.773444 215.928713 
L 226.034756 215.928713 
L 226.034756 211.366337 
L 226.774399 211.366337 
L 226.774399 206.80396 
L 227.306327 206.80396 
L 227.306327 202.241584 
L 227.666241 202.241584 
L 227.666241 197.679208 
L 228.545589 197.679208 
L 228.640624 188.554455 
L 229.008774 188.554455 
L 229.008774 183.992079 
L 229.596726 183.992079 
L 229.596726 179.429703 
L 230.246951 179.429703 
L 230.284914 170.30495 
L 230.83807 170.30495 
L 230.83807 165.742574 
L 234.352276 165.742574 
L 234.352276 161.180198 
L 234.492489 161.180198 
L 234.492489 156.617822 
L 235.520944 156.617822 
L 235.520944 152.055446 
L 236.451295 152.055446 
L 236.451295 147.493069 
L 237.756935 147.493069 
L 237.862329 138.368317 
L 238.195498 138.368317 
L 238.195498 133.805941 
L 238.414573 133.805941 
L 238.414573 129.243564 
L 239.123664 129.243564 
L 239.123664 124.681188 
L 240.006153 124.681188 
L 240.006153 120.118812 
L 241.797155 120.118812 
L 241.797155 115.556436 
L 242.109408 115.556436 
L 242.109408 110.994059 
L 242.268018 110.994059 
L 242.268018 106.431683 
L 242.848928 106.431683 
L 242.848928 101.869307 
L 244.908252 101.869307 
L 244.908252 97.306931 
L 245.187374 97.306931 
L 245.187374 92.744554 
L 247.90421 92.744554 
L 247.90421 88.182178 
L 249.036547 88.182178 
L 249.036547 83.619802 
L 249.301896 83.619802 
L 249.301896 79.057426 
L 259.95919 79.057426 
L 259.95919 74.49505 
L 260.158909 74.49505 
L 260.158909 69.932673 
L 261.669906 69.932673 
L 261.669906 65.370297 
L 262.095038 65.370297 
L 262.095038 60.807921 
L 262.291382 60.807921 
L 262.291382 56.245545 
L 262.422534 56.245545 
L 262.474253 47.120792 
L 262.717066 47.120792 
L 262.717066 42.558416 
L 262.851057 42.558416 
L 262.851057 37.99604 
L 263.007193 37.99604 
L 263.091232 28.871287 
L 263.272143 28.871287 
L 263.299928 19.746535 
L 264.033241 19.746535 
L 264.033241 15.184158 
L 264.269944 15.184158 
L 264.269944 10.621782 
L 264.269944 10.621782 
L 453.6 10.621782 
L 453.6 10.621782 
" style="fill:none;stroke:#bf00bf;stroke-linecap:square;"/>
   </g>
   <g id="patch_3">
    <path d="M 7.2 7.2 
L 453.6 7.2 
" style="fill:none;stroke:#000000;stroke-linecap:square;stroke-linejoin:miter;"/>
   </g>
   <g id="patch_4">
    <path d="M 453.6 352.8 
L 453.6 7.2 
" style="fill:none;stroke:#000000;stroke-linecap:square;stroke-linejoin:miter;"/>
   </g>
   <g id="patch_5">
    <path d="M 7.2 352.8 
L 453.6 352.8 
" style="fill:none;stroke:#000000;stroke-linecap:square;stroke-linejoin:miter;"/>
   </g>
   <g id="patch_6">
    <path d="M 7.2 352.8 
L 7.2 7.2 
" style="fill:none;stroke:#000000;stroke-linecap:square;stroke-linejoin:miter;"/>
   </g>
   <g id="matplotlib.axis_1">
    <g id="xtick_1"/>
    <g id="xtick_2">
     <g id="line2d_7">
      <path clip-path="url(#p061633292a)" d="M 56.704715 352.8 
L 56.704715 7.2 
" style="fill:none;stroke:#000000;stroke-dasharray:1.000000,3.000000;stroke-dashoffset:0.0;stroke-width:0.5;"/>
     </g>
     <g id="line2d_8">
      <defs>
       <path d="M 0 0 
L 0 -4 
" id="ma8fa9b7bda" style="stroke:#000000;stroke-width:0.5;"/>
      </defs>
      <g>
       <use style="stroke:#000000;stroke-width:0.5;" x="56.70471484" xlink:href="#ma8fa9b7bda" y="352.8"/>
      </g>
     </g>
     <g id="line2d_9">
      <defs>
       <path d="M 0 0 
L 0 4 
" id="m7d9881f672" style="stroke:#000000;stroke-width:0.5;"/>
      </defs>
      <g>
       <use style="stroke:#000000;stroke-width:0.5;" x="56.70471484" xlink:href="#m7d9881f672" y="7.2"/>
      </g>
     </g>
     <g id="text_1">
      <!-- -6 -->
      <defs>
       <path d="M 33.015625 40.375 
Q 26.375 40.375 22.484375 35.828125 
Q 18.609375 31.296875 18.609375 23.390625 
Q 18.609375 15.53125 22.484375 10.953125 
Q 26.375 6.390625 33.015625 6.390625 
Q 39.65625 6.390625 43.53125 10.953125 
Q 47.40625 15.53125 47.40625 23.390625 
Q 47.40625 31.296875 43.53125 35.828125 
Q 39.65625 40.375 33.015625 40.375 
M 52.59375 71.296875 
L 52.59375 62.3125 
Q 48.875 64.0625 45.09375 64.984375 
Q 41.3125 65.921875 37.59375 65.921875 
Q 27.828125 65.921875 22.671875 59.328125 
Q 17.53125 52.734375 16.796875 39.40625 
Q 19.671875 43.65625 24.015625 45.921875 
Q 28.375 48.1875 33.59375 48.1875 
Q 44.578125 48.1875 50.953125 41.515625 
Q 57.328125 34.859375 57.328125 23.390625 
Q 57.328125 12.15625 50.6875 5.359375 
Q 44.046875 -1.421875 33.015625 -1.421875 
Q 20.359375 -1.421875 13.671875 8.265625 
Q 6.984375 17.96875 6.984375 36.375 
Q 6.984375 53.65625 15.1875 63.9375 
Q 23.390625 74.21875 37.203125 74.21875 
Q 40.921875 74.21875 44.703125 73.484375 
Q 48.484375 72.75 52.59375 71.296875 
" id="BitstreamVeraSans-Roman-36"/>
       <path d="M 4.890625 31.390625 
L 31.203125 31.390625 
L 31.203125 23.390625 
L 4.890625 23.390625 
z
" id="BitstreamVeraSans-Roman-2d"/>
      </defs>
      <g transform="translate(46.73440234 371.996875)scale(0.2 -0.2)">
       <use xlink:href="#BitstreamVeraSans-Roman-2d"/>
       <use x="36.083984375" xlink:href="#BitstreamVeraSans-Roman-36"/>
      </g>
     </g>
    </g>
    <g id="xtick_3">
     <g id="line2d_10">
      <path clip-path="url(#p061633292a)" d="M 106.316625 352.8 
L 106.316625 7.2 
" style="fill:none;stroke:#000000;stroke-dasharray:1.000000,3.000000;stroke-dashoffset:0.0;stroke-width:0.5;"/>
     </g>
     <g id="line2d_11">
      <g>
       <use style="stroke:#000000;stroke-width:0.5;" x="106.316625485" xlink:href="#ma8fa9b7bda" y="352.8"/>
      </g>
     </g>
     <g id="line2d_12">
      <g>
       <use style="stroke:#000000;stroke-width:0.5;" x="106.316625485" xlink:href="#m7d9881f672" y="7.2"/>
      </g>
     </g>
     <g id="text_2">
      <!-- -4 -->
      <defs>
       <path d="M 37.796875 64.3125 
L 12.890625 25.390625 
L 37.796875 25.390625 
z
M 35.203125 72.90625 
L 47.609375 72.90625 
L 47.609375 25.390625 
L 58.015625 25.390625 
L 58.015625 17.1875 
L 47.609375 17.1875 
L 47.609375 0 
L 37.796875 0 
L 37.796875 17.1875 
L 4.890625 17.1875 
L 4.890625 26.703125 
z
" id="BitstreamVeraSans-Roman-34"/>
      </defs>
      <g transform="translate(96.346312985 371.996875)scale(0.2 -0.2)">
       <use xlink:href="#BitstreamVeraSans-Roman-2d"/>
       <use x="36.083984375" xlink:href="#BitstreamVeraSans-Roman-34"/>
      </g>
     </g>
    </g>
    <g id="xtick_4">
     <g id="line2d_13">
      <path clip-path="url(#p061633292a)" d="M 155.928536 352.8 
L 155.928536 7.2 
" style="fill:none;stroke:#000000;stroke-dasharray:1.000000,3.000000;stroke-dashoffset:0.0;stroke-width:0.5;"/>
     </g>
     <g id="line2d_14">
      <g>
       <use style="stroke:#000000;stroke-width:0.5;" x="155.92853613" xlink:href="#ma8fa9b7bda" y="352.8"/>
      </g>
     </g>
     <g id="line2d_15">
      <g>
       <use style="stroke:#000000;stroke-width:0.5;" x="155.92853613" xlink:href="#m7d9881f672" y="7.2"/>
      </g>
     </g>
     <g id="text_3">
      <!-- -2 -->
      <defs>
       <path d="M 19.1875 8.296875 
L 53.609375 8.296875 
L 53.609375 0 
L 7.328125 0 
L 7.328125 8.296875 
Q 12.9375 14.109375 22.625 23.890625 
Q 32.328125 33.6875 34.8125 36.53125 
Q 39.546875 41.84375 41.421875 45.53125 
Q 43.3125 49.21875 43.3125 52.78125 
Q 43.3125 58.59375 39.234375 62.25 
Q 35.15625 65.921875 28.609375 65.921875 
Q 23.96875 65.921875 18.8125 64.3125 
Q 13.671875 62.703125 7.8125 59.421875 
L 7.8125 69.390625 
Q 13.765625 71.78125 18.9375 73 
Q 24.125 74.21875 28.421875 74.21875 
Q 39.75 74.21875 46.484375 68.546875 
Q 53.21875 62.890625 53.21875 53.421875 
Q 53.21875 48.921875 51.53125 44.890625 
Q 49.859375 40.875 45.40625 35.40625 
Q 44.1875 33.984375 37.640625 27.21875 
Q 31.109375 20.453125 19.1875 8.296875 
" id="BitstreamVeraSans-Roman-32"/>
      </defs>
      <g transform="translate(145.95822363 371.996875)scale(0.2 -0.2)">
       <use xlink:href="#BitstreamVeraSans-Roman-2d"/>
       <use x="36.083984375" xlink:href="#BitstreamVeraSans-Roman-32"/>
      </g>
     </g>
    </g>
    <g id="xtick_5">
     <g id="line2d_16">
      <path clip-path="url(#p061633292a)" d="M 205.540447 352.8 
L 205.540447 7.2 
" style="fill:none;stroke:#000000;stroke-dasharray:1.000000,3.000000;stroke-dashoffset:0.0;stroke-width:0.5;"/>
     </g>
     <g id="line2d_17">
      <g>
       <use style="stroke:#000000;stroke-width:0.5;" x="205.540446775" xlink:href="#ma8fa9b7bda" y="352.8"/>
      </g>
     </g>
     <g id="line2d_18">
      <g>
       <use style="stroke:#000000;stroke-width:0.5;" x="205.540446775" xlink:href="#m7d9881f672" y="7.2"/>
      </g>
     </g>
     <g id="text_4">
      <!-- 0 -->
      <defs>
       <path d="M 31.78125 66.40625 
Q 24.171875 66.40625 20.328125 58.90625 
Q 16.5 51.421875 16.5 36.375 
Q 16.5 21.390625 20.328125 13.890625 
Q 24.171875 6.390625 31.78125 6.390625 
Q 39.453125 6.390625 43.28125 13.890625 
Q 47.125 21.390625 47.125 36.375 
Q 47.125 51.421875 43.28125 58.90625 
Q 39.453125 66.40625 31.78125 66.40625 
M 31.78125 74.21875 
Q 44.046875 74.21875 50.515625 64.515625 
Q 56.984375 54.828125 56.984375 36.375 
Q 56.984375 17.96875 50.515625 8.265625 
Q 44.046875 -1.421875 31.78125 -1.421875 
Q 19.53125 -1.421875 13.0625 8.265625 
Q 6.59375 17.96875 6.59375 36.375 
Q 6.59375 54.828125 13.0625 64.515625 
Q 19.53125 74.21875 31.78125 74.21875 
" id="BitstreamVeraSans-Roman-30"/>
      </defs>
      <g transform="translate(199.177946775 371.996875)scale(0.2 -0.2)">
       <use xlink:href="#BitstreamVeraSans-Roman-30"/>
      </g>
     </g>
    </g>
    <g id="xtick_6">
     <g id="line2d_19">
      <path clip-path="url(#p061633292a)" d="M 255.152357 352.8 
L 255.152357 7.2 
" style="fill:none;stroke:#000000;stroke-dasharray:1.000000,3.000000;stroke-dashoffset:0.0;stroke-width:0.5;"/>
     </g>
     <g id="line2d_20">
      <g>
       <use style="stroke:#000000;stroke-width:0.5;" x="255.15235742" xlink:href="#ma8fa9b7bda" y="352.8"/>
      </g>
     </g>
     <g id="line2d_21">
      <g>
       <use style="stroke:#000000;stroke-width:0.5;" x="255.15235742" xlink:href="#m7d9881f672" y="7.2"/>
      </g>
     </g>
     <g id="text_5">
      <!-- 2 -->
      <g transform="translate(248.78985742 371.996875)scale(0.2 -0.2)">
       <use xlink:href="#BitstreamVeraSans-Roman-32"/>
      </g>
     </g>
    </g>
    <g id="xtick_7">
     <g id="line2d_22">
      <path clip-path="url(#p061633292a)" d="M 304.764268 352.8 
L 304.764268 7.2 
" style="fill:none;stroke:#000000;stroke-dasharray:1.000000,3.000000;stroke-dashoffset:0.0;stroke-width:0.5;"/>
     </g>
     <g id="line2d_23">
      <g>
       <use style="stroke:#000000;stroke-width:0.5;" x="304.764268065" xlink:href="#ma8fa9b7bda" y="352.8"/>
      </g>
     </g>
     <g id="line2d_24">
      <g>
       <use style="stroke:#000000;stroke-width:0.5;" x="304.764268065" xlink:href="#m7d9881f672" y="7.2"/>
      </g>
     </g>
     <g id="text_6">
      <!-- 4 -->
      <g transform="translate(298.401768065 371.996875)scale(0.2 -0.2)">
       <use xlink:href="#BitstreamVeraSans-Roman-34"/>
      </g>
     </g>
    </g>
    <g id="xtick_8">
     <g id="line2d_25">
      <path clip-path="url(#p061633292a)" d="M 354.376179 352.8 
L 354.376179 7.2 
" style="fill:none;stroke:#000000;stroke-dasharray:1.000000,3.000000;stroke-dashoffset:0.0;stroke-width:0.5;"/>
     </g>
     <g id="line2d_26">
      <g>
       <use style="stroke:#000000;stroke-width:0.5;" x="354.37617871" xlink:href="#ma8fa9b7bda" y="352.8"/>
      </g>
     </g>
     <g id="line2d_27">
      <g>
       <use style="stroke:#000000;stroke-width:0.5;" x="354.37617871" xlink:href="#m7d9881f672" y="7.2"/>
      </g>
     </g>
     <g id="text_7">
      <!-- 6 -->
      <g transform="translate(348.01367871 371.996875)scale(0.2 -0.2)">
       <use xlink:href="#BitstreamVeraSans-Roman-36"/>
      </g>
     </g>
    </g>
    <g id="xtick_9">
     <g id="line2d_28">
      <path clip-path="url(#p061633292a)" d="M 403.988089 352.8 
L 403.988089 7.2 
" style="fill:none;stroke:#000000;stroke-dasharray:1.000000,3.000000;stroke-dashoffset:0.0;stroke-width:0.5;"/>
     </g>
     <g id="line2d_29">
      <g>
       <use style="stroke:#000000;stroke-width:0.5;" x="403.988089355" xlink:href="#ma8fa9b7bda" y="352.8"/>
      </g>
     </g>
     <g id="line2d_30">
      <g>
       <use style="stroke:#000000;stroke-width:0.5;" x="403.988089355" xlink:href="#m7d9881f672" y="7.2"/>
      </g>
     </g>
     <g id="text_8">
      <!-- 8 -->
      <defs>
       <path d="M 31.78125 34.625 
Q 24.75 34.625 20.71875 30.859375 
Q 16.703125 27.09375 16.703125 20.515625 
Q 16.703125 13.921875 20.71875 10.15625 
Q 24.75 6.390625 31.78125 6.390625 
Q 38.8125 6.390625 42.859375 10.171875 
Q 46.921875 13.96875 46.921875 20.515625 
Q 46.921875 27.09375 42.890625 30.859375 
Q 38.875 34.625 31.78125 34.625 
M 21.921875 38.8125 
Q 15.578125 40.375 12.03125 44.71875 
Q 8.5 49.078125 8.5 55.328125 
Q 8.5 64.0625 14.71875 69.140625 
Q 20.953125 74.21875 31.78125 74.21875 
Q 42.671875 74.21875 48.875 69.140625 
Q 55.078125 64.0625 55.078125 55.328125 
Q 55.078125 49.078125 51.53125 44.71875 
Q 48 40.375 41.703125 38.8125 
Q 48.828125 37.15625 52.796875 32.3125 
Q 56.78125 27.484375 56.78125 20.515625 
Q 56.78125 9.90625 50.3125 4.234375 
Q 43.84375 -1.421875 31.78125 -1.421875 
Q 19.734375 -1.421875 13.25 4.234375 
Q 6.78125 9.90625 6.78125 20.515625 
Q 6.78125 27.484375 10.78125 32.3125 
Q 14.796875 37.15625 21.921875 38.8125 
M 18.3125 54.390625 
Q 18.3125 48.734375 21.84375 45.5625 
Q 25.390625 42.390625 31.78125 42.390625 
Q 38.140625 42.390625 41.71875 45.5625 
Q 45.3125 48.734375 45.3125 54.390625 
Q 45.3125 60.0625 41.71875 63.234375 
Q 38.140625 66.40625 31.78125 66.40625 
Q 25.390625 66.40625 21.84375 63.234375 
Q 18.3125 60.0625 18.3125 54.390625 
" id="BitstreamVeraSans-Roman-38"/>
      </defs>
      <g transform="translate(397.625589355 371.996875)scale(0.2 -0.2)">
       <use xlink:href="#BitstreamVeraSans-Roman-38"/>
      </g>
     </g>
    </g>
    <g id="xtick_10">
     <g id="line2d_31">
      <path clip-path="url(#p061633292a)" d="M 453.6 352.8 
L 453.6 7.2 
" style="fill:none;stroke:#000000;stroke-dasharray:1.000000,3.000000;stroke-dashoffset:0.0;stroke-width:0.5;"/>
     </g>
     <g id="line2d_32">
      <g>
       <use style="stroke:#000000;stroke-width:0.5;" x="453.6" xlink:href="#ma8fa9b7bda" y="352.8"/>
      </g>
     </g>
     <g id="line2d_33">
      <g>
       <use style="stroke:#000000;stroke-width:0.5;" x="453.6" xlink:href="#m7d9881f672" y="7.2"/>
      </g>
     </g>
    </g>
    <g id="xtick_11"/>
    <g id="xtick_12">
     <g id="line2d_34">
      <defs>
       <path d="M 0 0 
L 0 -2 
" id="mb43237be6b" style="stroke:#000000;stroke-width:0.5;"/>
      </defs>
      <g>
       <use style="stroke:#000000;stroke-width:0.5;" x="56.70471484" xlink:href="#mb43237be6b" y="352.8"/>
      </g>
     </g>
     <g id="line2d_35">
      <defs>
       <path d="M 0 0 
L 0 2 
" id="m1ee756b6f0" style="stroke:#000000;stroke-width:0.5;"/>
      </defs>
      <g>
       <use style="stroke:#000000;stroke-width:0.5;" x="56.70471484" xlink:href="#m1ee756b6f0" y="7.2"/>
      </g>
     </g>
    </g>
    <g id="xtick_13">
     <g id="line2d_36">
      <g>
       <use style="stroke:#000000;stroke-width:0.5;" x="106.316625485" xlink:href="#mb43237be6b" y="352.8"/>
      </g>
     </g>
     <g id="line2d_37">
      <g>
       <use style="stroke:#000000;stroke-width:0.5;" x="106.316625485" xlink:href="#m1ee756b6f0" y="7.2"/>
      </g>
     </g>
    </g>
    <g id="xtick_14">
     <g id="line2d_38">
      <g>
       <use style="stroke:#000000;stroke-width:0.5;" x="155.92853613" xlink:href="#mb43237be6b" y="352.8"/>
      </g>
     </g>
     <g id="line2d_39">
      <g>
       <use style="stroke:#000000;stroke-width:0.5;" x="155.92853613" xlink:href="#m1ee756b6f0" y="7.2"/>
      </g>
     </g>
    </g>
    <g id="xtick_15">
     <g id="line2d_40">
      <g>
       <use style="stroke:#000000;stroke-width:0.5;" x="205.540446775" xlink:href="#mb43237be6b" y="352.8"/>
      </g>
     </g>
     <g id="line2d_41">
      <g>
       <use style="stroke:#000000;stroke-width:0.5;" x="205.540446775" xlink:href="#m1ee756b6f0" y="7.2"/>
      </g>
     </g>
    </g>
    <g id="xtick_16">
     <g id="line2d_42">
      <g>
       <use style="stroke:#000000;stroke-width:0.5;" x="255.15235742" xlink:href="#mb43237be6b" y="352.8"/>
      </g>
     </g>
     <g id="line2d_43">
      <g>
       <use style="stroke:#000000;stroke-width:0.5;" x="255.15235742" xlink:href="#m1ee756b6f0" y="7.2"/>
      </g>
     </g>
    </g>
    <g id="xtick_17">
     <g id="line2d_44">
      <g>
       <use style="stroke:#000000;stroke-width:0.5;" x="304.764268065" xlink:href="#mb43237be6b" y="352.8"/>
      </g>
     </g>
     <g id="line2d_45">
      <g>
       <use style="stroke:#000000;stroke-width:0.5;" x="304.764268065" xlink:href="#m1ee756b6f0" y="7.2"/>
      </g>
     </g>
    </g>
    <g id="xtick_18">
     <g id="line2d_46">
      <g>
       <use style="stroke:#000000;stroke-width:0.5;" x="354.37617871" xlink:href="#mb43237be6b" y="352.8"/>
      </g>
     </g>
     <g id="line2d_47">
      <g>
       <use style="stroke:#000000;stroke-width:0.5;" x="354.37617871" xlink:href="#m1ee756b6f0" y="7.2"/>
      </g>
     </g>
    </g>
    <g id="xtick_19">
     <g id="line2d_48">
      <g>
       <use style="stroke:#000000;stroke-width:0.5;" x="403.988089355" xlink:href="#mb43237be6b" y="352.8"/>
      </g>
     </g>
     <g id="line2d_49">
      <g>
       <use style="stroke:#000000;stroke-width:0.5;" x="403.988089355" xlink:href="#m1ee756b6f0" y="7.2"/>
      </g>
     </g>
    </g>
    <g id="xtick_20">
     <g id="line2d_50">
      <g>
       <use style="stroke:#000000;stroke-width:0.5;" x="453.6" xlink:href="#mb43237be6b" y="352.8"/>
      </g>
     </g>
     <g id="line2d_51">
      <g>
       <use style="stroke:#000000;stroke-width:0.5;" x="453.6" xlink:href="#m1ee756b6f0" y="7.2"/>
      </g>
     </g>
    </g>
    <g id="text_9">
     <!-- log10 of Df -->
     <defs>
      <path id="BitstreamVeraSans-Roman-20"/>
      <path d="M 12.40625 8.296875 
L 28.515625 8.296875 
L 28.515625 63.921875 
L 10.984375 60.40625 
L 10.984375 69.390625 
L 28.421875 72.90625 
L 38.28125 72.90625 
L 38.28125 8.296875 
L 54.390625 8.296875 
L 54.390625 0 
L 12.40625 0 
z
" id="BitstreamVeraSans-Roman-31"/>
      <path d="M 30.609375 48.390625 
Q 23.390625 48.390625 19.1875 42.75 
Q 14.984375 37.109375 14.984375 27.296875 
Q 14.984375 17.484375 19.15625 11.84375 
Q 23.34375 6.203125 30.609375 6.203125 
Q 37.796875 6.203125 41.984375 11.859375 
Q 46.1875 17.53125 46.1875 27.296875 
Q 46.1875 37.015625 41.984375 42.703125 
Q 37.796875 48.390625 30.609375 48.390625 
M 30.609375 56 
Q 42.328125 56 49.015625 48.375 
Q 55.71875 40.765625 55.71875 27.296875 
Q 55.71875 13.875 49.015625 6.21875 
Q 42.328125 -1.421875 30.609375 -1.421875 
Q 18.84375 -1.421875 12.171875 6.21875 
Q 5.515625 13.875 5.515625 27.296875 
Q 5.515625 40.765625 12.171875 48.375 
Q 18.84375 56 30.609375 56 
" id="BitstreamVeraSans-Roman-6f"/>
      <path d="M 9.421875 75.984375 
L 18.40625 75.984375 
L 18.40625 0 
L 9.421875 0 
z
" id="BitstreamVeraSans-Roman-6c"/>
      <path d="M 19.671875 64.796875 
L 19.671875 8.109375 
L 31.59375 8.109375 
Q 46.6875 8.109375 53.6875 14.9375 
Q 60.6875 21.78125 60.6875 36.53125 
Q 60.6875 51.171875 53.6875 57.984375 
Q 46.6875 64.796875 31.59375 64.796875 
z
M 9.8125 72.90625 
L 30.078125 72.90625 
Q 51.265625 72.90625 61.171875 64.09375 
Q 71.09375 55.28125 71.09375 36.53125 
Q 71.09375 17.671875 61.125 8.828125 
Q 51.171875 0 30.078125 0 
L 9.8125 0 
z
" id="BitstreamVeraSans-Roman-44"/>
      <path d="M 45.40625 27.984375 
Q 45.40625 37.75 41.375 43.109375 
Q 37.359375 48.484375 30.078125 48.484375 
Q 22.859375 48.484375 18.828125 43.109375 
Q 14.796875 37.75 14.796875 27.984375 
Q 14.796875 18.265625 18.828125 12.890625 
Q 22.859375 7.515625 30.078125 7.515625 
Q 37.359375 7.515625 41.375 12.890625 
Q 45.40625 18.265625 45.40625 27.984375 
M 54.390625 6.78125 
Q 54.390625 -7.171875 48.1875 -13.984375 
Q 42 -20.796875 29.203125 -20.796875 
Q 24.46875 -20.796875 20.265625 -20.09375 
Q 16.0625 -19.390625 12.109375 -17.921875 
L 12.109375 -9.1875 
Q 16.0625 -11.328125 19.921875 -12.34375 
Q 23.78125 -13.375 27.78125 -13.375 
Q 36.625 -13.375 41.015625 -8.765625 
Q 45.40625 -4.15625 45.40625 5.171875 
L 45.40625 9.625 
Q 42.625 4.78125 38.28125 2.390625 
Q 33.9375 0 27.875 0 
Q 17.828125 0 11.671875 7.65625 
Q 5.515625 15.328125 5.515625 27.984375 
Q 5.515625 40.671875 11.671875 48.328125 
Q 17.828125 56 27.875 56 
Q 33.9375 56 38.28125 53.609375 
Q 42.625 51.21875 45.40625 46.390625 
L 45.40625 54.6875 
L 54.390625 54.6875 
z
" id="BitstreamVeraSans-Roman-67"/>
      <path d="M 37.109375 75.984375 
L 37.109375 68.5 
L 28.515625 68.5 
Q 23.6875 68.5 21.796875 66.546875 
Q 19.921875 64.59375 19.921875 59.515625 
L 19.921875 54.6875 
L 34.71875 54.6875 
L 34.71875 47.703125 
L 19.921875 47.703125 
L 19.921875 0 
L 10.890625 0 
L 10.890625 47.703125 
L 2.296875 47.703125 
L 2.296875 54.6875 
L 10.890625 54.6875 
L 10.890625 58.5 
Q 10.890625 67.625 15.140625 71.796875 
Q 19.390625 75.984375 28.609375 75.984375 
z
" id="BitstreamVeraSans-Roman-66"/>
     </defs>
     <g transform="translate(175.2140625 396.353125)scale(0.2 -0.2)">
      <use xlink:href="#BitstreamVeraSans-Roman-6c"/>
      <use x="27.783203125" xlink:href="#BitstreamVeraSans-Roman-6f"/>
      <use x="88.96484375" xlink:href="#BitstreamVeraSans-Roman-67"/>
      <use x="152.44140625" xlink:href="#BitstreamVeraSans-Roman-31"/>
      <use x="216.064453125" xlink:href="#BitstreamVeraSans-Roman-30"/>
      <use x="279.6875" xlink:href="#BitstreamVeraSans-Roman-20"/>
      <use x="311.474609375" xlink:href="#BitstreamVeraSans-Roman-6f"/>
      <use x="372.65625" xlink:href="#BitstreamVeraSans-Roman-66"/>
      <use x="407.861328125" xlink:href="#BitstreamVeraSans-Roman-20"/>
      <use x="439.6484375" xlink:href="#BitstreamVeraSans-Roman-44"/>
      <use x="516.650390625" xlink:href="#BitstreamVeraSans-Roman-66"/>
     </g>
    </g>
   </g>
   <g id="matplotlib.axis_2">
    <g id="ytick_1">
     <g id="line2d_52">
      <path clip-path="url(#p061633292a)" d="M 7.2 352.8 
L 453.6 352.8 
" style="fill:none;stroke:#000000;stroke-dasharray:1.000000,3.000000;stroke-dashoffset:0.0;stroke-width:0.5;"/>
     </g>
     <g id="line2d_53">
      <defs>
       <path d="M 0 0 
L 4 0 
" id="m43450da6bc" style="stroke:#000000;stroke-width:0.5;"/>
      </defs>
      <g>
       <use style="stroke:#000000;stroke-width:0.5;" x="7.2" xlink:href="#m43450da6bc" y="352.8"/>
      </g>
     </g>
     <g id="line2d_54">
      <defs>
       <path d="M 0 0 
L -4 0 
" id="m59db118e02" style="stroke:#000000;stroke-width:0.5;"/>
      </defs>
      <g>
       <use style="stroke:#000000;stroke-width:0.5;" x="453.6" xlink:href="#m59db118e02" y="352.8"/>
      </g>
     </g>
    </g>
    <g id="ytick_2">
     <g id="line2d_55">
      <path clip-path="url(#p061633292a)" d="M 7.2 284.364356 
L 453.6 284.364356 
" style="fill:none;stroke:#000000;stroke-dasharray:1.000000,3.000000;stroke-dashoffset:0.0;stroke-width:0.5;"/>
     </g>
     <g id="line2d_56">
      <g>
       <use style="stroke:#000000;stroke-width:0.5;" x="7.2" xlink:href="#m43450da6bc" y="284.364356436"/>
      </g>
     </g>
     <g id="line2d_57">
      <g>
       <use style="stroke:#000000;stroke-width:0.5;" x="453.6" xlink:href="#m59db118e02" y="284.364356436"/>
      </g>
     </g>
    </g>
    <g id="ytick_3">
     <g id="line2d_58">
      <path clip-path="url(#p061633292a)" d="M 7.2 215.928713 
L 453.6 215.928713 
" style="fill:none;stroke:#000000;stroke-dasharray:1.000000,3.000000;stroke-dashoffset:0.0;stroke-width:0.5;"/>
     </g>
     <g id="line2d_59">
      <g>
       <use style="stroke:#000000;stroke-width:0.5;" x="7.2" xlink:href="#m43450da6bc" y="215.928712871"/>
      </g>
     </g>
     <g id="line2d_60">
      <g>
       <use style="stroke:#000000;stroke-width:0.5;" x="453.6" xlink:href="#m59db118e02" y="215.928712871"/>
      </g>
     </g>
    </g>
    <g id="ytick_4">
     <g id="line2d_61">
      <path clip-path="url(#p061633292a)" d="M 7.2 147.493069 
L 453.6 147.493069 
" style="fill:none;stroke:#000000;stroke-dasharray:1.000000,3.000000;stroke-dashoffset:0.0;stroke-width:0.5;"/>
     </g>
     <g id="line2d_62">
      <g>
       <use style="stroke:#000000;stroke-width:0.5;" x="7.2" xlink:href="#m43450da6bc" y="147.493069307"/>
      </g>
     </g>
     <g id="line2d_63">
      <g>
       <use style="stroke:#000000;stroke-width:0.5;" x="453.6" xlink:href="#m59db118e02" y="147.493069307"/>
      </g>
     </g>
    </g>
    <g id="ytick_5">
     <g id="line2d_64">
      <path clip-path="url(#p061633292a)" d="M 7.2 79.057426 
L 453.6 79.057426 
" style="fill:none;stroke:#000000;stroke-dasharray:1.000000,3.000000;stroke-dashoffset:0.0;stroke-width:0.5;"/>
     </g>
     <g id="line2d_65">
      <g>
       <use style="stroke:#000000;stroke-width:0.5;" x="7.2" xlink:href="#m43450da6bc" y="79.0574257426"/>
      </g>
     </g>
     <g id="line2d_66">
      <g>
       <use style="stroke:#000000;stroke-width:0.5;" x="453.6" xlink:href="#m59db118e02" y="79.0574257426"/>
      </g>
     </g>
    </g>
    <g id="ytick_6">
     <g id="line2d_67">
      <path clip-path="url(#p061633292a)" d="M 7.2 10.621782 
L 453.6 10.621782 
" style="fill:none;stroke:#000000;stroke-dasharray:1.000000,3.000000;stroke-dashoffset:0.0;stroke-width:0.5;"/>
     </g>
     <g id="line2d_68">
      <g>
       <use style="stroke:#000000;stroke-width:0.5;" x="7.2" xlink:href="#m43450da6bc" y="10.6217821782"/>
      </g>
     </g>
     <g id="line2d_69">
      <g>
       <use style="stroke:#000000;stroke-width:0.5;" x="453.6" xlink:href="#m59db118e02" y="10.6217821782"/>
      </g>
     </g>
    </g>
   </g>
   <g id="text_10">
    <!-- {f20-f24}, 20-D -->
    <defs>
     <path d="M 12.5 -9.28125 
L 15.921875 -9.28125 
Q 22.75 -9.28125 24.828125 -7.171875 
Q 26.90625 -5.078125 26.90625 1.90625 
L 26.90625 14.015625 
Q 26.90625 21.625 29.09375 25.09375 
Q 31.296875 28.5625 36.71875 29.890625 
Q 31.296875 31.109375 29.09375 34.5625 
Q 26.90625 38.03125 26.90625 45.703125 
L 26.90625 57.8125 
Q 26.90625 64.75 24.828125 66.875 
Q 22.75 69 15.921875 69 
L 12.5 69 
L 12.5 75.984375 
L 15.578125 75.984375 
Q 27.734375 75.984375 31.8125 72.390625 
Q 35.890625 68.796875 35.890625 58.015625 
L 35.890625 46.296875 
Q 35.890625 39.015625 38.515625 36.203125 
Q 41.15625 33.40625 48.09375 33.40625 
L 51.125 33.40625 
L 51.125 26.421875 
L 48.09375 26.421875 
Q 41.15625 26.421875 38.515625 23.578125 
Q 35.890625 20.75 35.890625 13.375 
L 35.890625 1.703125 
Q 35.890625 -9.078125 31.8125 -12.6875 
Q 27.734375 -16.3125 15.578125 -16.3125 
L 12.5 -16.3125 
z
" id="BitstreamVeraSans-Roman-7d"/>
     <path d="M 51.125 -9.28125 
L 51.125 -16.3125 
L 48.09375 -16.3125 
Q 35.9375 -16.3125 31.8125 -12.6875 
Q 27.6875 -9.078125 27.6875 1.703125 
L 27.6875 13.375 
Q 27.6875 20.75 25.046875 23.578125 
Q 22.40625 26.421875 15.484375 26.421875 
L 12.5 26.421875 
L 12.5 33.40625 
L 15.484375 33.40625 
Q 22.46875 33.40625 25.078125 36.203125 
Q 27.6875 39.015625 27.6875 46.296875 
L 27.6875 58.015625 
Q 27.6875 68.796875 31.8125 72.390625 
Q 35.9375 75.984375 48.09375 75.984375 
L 51.125 75.984375 
L 51.125 69 
L 47.796875 69 
Q 40.921875 69 38.8125 66.84375 
Q 36.71875 64.703125 36.71875 57.8125 
L 36.71875 45.703125 
Q 36.71875 38.03125 34.5 34.5625 
Q 32.28125 31.109375 26.90625 29.890625 
Q 32.328125 28.5625 34.515625 25.09375 
Q 36.71875 21.625 36.71875 14.015625 
L 36.71875 1.90625 
Q 36.71875 -4.984375 38.8125 -7.125 
Q 40.921875 -9.28125 47.796875 -9.28125 
z
" id="BitstreamVeraSans-Roman-7b"/>
     <path d="M 11.71875 12.40625 
L 22.015625 12.40625 
L 22.015625 4 
L 14.015625 -11.625 
L 7.71875 -11.625 
L 11.71875 4 
z
" id="BitstreamVeraSans-Roman-2c"/>
    </defs>
    <g transform="translate(286.247 345.888)scale(0.2 -0.2)">
     <use xlink:href="#BitstreamVeraSans-Roman-7b"/>
     <use x="63.623046875" xlink:href="#BitstreamVeraSans-Roman-66"/>
     <use x="98.828125" xlink:href="#BitstreamVeraSans-Roman-32"/>
     <use x="162.451171875" xlink:href="#BitstreamVeraSans-Roman-30"/>
     <use x="226.07421875" xlink:href="#BitstreamVeraSans-Roman-2d"/>
     <use x="262.158203125" xlink:href="#BitstreamVeraSans-Roman-66"/>
     <use x="297.36328125" xlink:href="#BitstreamVeraSans-Roman-32"/>
     <use x="360.986328125" xlink:href="#BitstreamVeraSans-Roman-34"/>
     <use x="424.609375" xlink:href="#BitstreamVeraSans-Roman-7d"/>
     <use x="488.232421875" xlink:href="#BitstreamVeraSans-Roman-2c"/>
     <use x="520.01953125" xlink:href="#BitstreamVeraSans-Roman-20"/>
     <use x="551.806640625" xlink:href="#BitstreamVeraSans-Roman-32"/>
     <use x="615.4296875" xlink:href="#BitstreamVeraSans-Roman-30"/>
     <use x="679.052734375" xlink:href="#BitstreamVeraSans-Roman-2d"/>
     <use x="715.13671875" xlink:href="#BitstreamVeraSans-Roman-44"/>
    </g>
   </g>
   <g id="text_11">
    <!-- 0.0.0 -->
    <defs>
     <path d="M 10.6875 12.40625 
L 21 12.40625 
L 21 0 
L 10.6875 0 
z
" id="BitstreamVeraSans-Roman-2e"/>
    </defs>
    <g style="fill:#808080;" transform="translate(217.678125 347.2643125)scale(0.1 -0.1)">
     <use xlink:href="#BitstreamVeraSans-Roman-30"/>
     <use x="63.623046875" xlink:href="#BitstreamVeraSans-Roman-2e"/>
     <use x="95.41015625" xlink:href="#BitstreamVeraSans-Roman-30"/>
     <use x="159.033203125" xlink:href="#BitstreamVeraSans-Roman-2e"/>
     <use x="190.8203125" xlink:href="#BitstreamVeraSans-Roman-30"/>
    </g>
   </g>
  </g>
 </g>
 <defs>
  <clipPath id="p061633292a">
   <rect height="345.6" width="446.4" x="7.2" y="7.2"/>
  </clipPath>
 </defs>
</svg>
