<?xml version="1.0" encoding="utf-8" standalone="no"?>
<!DOCTYPE svg PUBLIC "-//W3C//DTD SVG 1.1//EN"
  "http://www.w3.org/Graphics/SVG/1.1/DTD/svg11.dtd">
<!-- Created with matplotlib (http://matplotlib.org/) -->
<svg height="413pt" version="1.1" viewBox="0 0 520 413" width="520pt" xmlns="http://www.w3.org/2000/svg" xmlns:xlink="http://www.w3.org/1999/xlink">
 <defs>
  <style type="text/css">
*{stroke-linecap:butt;stroke-linejoin:round;stroke-miterlimit:100000;}
  </style>
 </defs>
 <g id="figure_1">
  <g id="patch_1">
   <path d="M 0 413.968843 
L 520.9625 413.968843 
L 520.9625 0 
L 0 0 
z
" style="fill:#ffffff;"/>
  </g>
  <g id="axes_1">
   <g id="patch_2">
    <path d="M 67.3625 359.056343 
L 513.7625 359.056343 
L 513.7625 13.456343 
L 67.3625 13.456343 
z
" style="fill:#ffffff;"/>
   </g>
   <g id="line2d_1">
    <path clip-path="url(#p2b45133d38)" d="M 306.809837 359.056343 
L 306.809837 358.105848 
L 306.809837 358.105848 
L 306.809837 358.105848 
L 306.809837 357.155353 
L 306.809837 357.155353 
L 306.809837 357.155353 
L 306.809837 356.204858 
L 306.809837 356.204858 
L 306.809837 356.204858 
L 306.809837 355.254363 
L 306.809837 355.254363 
L 306.809837 355.254363 
L 306.809837 354.303868 
L 306.809837 354.303868 
L 306.809837 354.303868 
L 306.809837 353.353373 
L 306.809837 353.353373 
L 306.809837 353.353373 
L 306.809837 352.402877 
L 306.809837 352.402877 
L 306.809837 352.402877 
L 306.809837 351.452382 
L 306.809837 351.452382 
L 306.809837 351.452382 
L 306.809837 350.501887 
L 306.809837 350.501887 
L 306.809837 350.501887 
L 306.809837 349.551392 
L 306.809837 349.551392 
L 306.809837 349.551392 
L 306.809837 348.600897 
L 306.809837 348.600897 
L 306.809837 348.600897 
L 306.809837 347.650402 
L 306.809837 347.650402 
L 306.809837 347.650402 
L 306.809837 346.699907 
L 306.809837 346.699907 
L 306.809837 346.699907 
L 306.809837 345.749412 
L 306.809837 345.749412 
L 306.809837 345.749412 
L 306.809837 344.798917 
L 316.542163 344.798917 
L 316.542163 343.848422 
L 321.016834 343.848422 
L 321.016834 341.947432 
L 325.265793 341.947432 
L 325.265793 338.145452 
L 329.310722 338.145452 
L 329.310722 335.293967 
L 333.17032 335.293967 
L 333.17032 331.491986 
L 336.86083 331.491986 
L 336.86083 330.541491 
L 510.081421 330.541491 
L 510.081421 329.590996 
L 516.742294 329.590996 
L 516.742294 328.640501 
L 519.265872 328.640501 
L 519.265872 326.739511 
L 520.49987 326.739511 
L 520.49987 325.789016 
L 520.907219 325.789016 
L 520.907219 324.838521 
L 521.312608 324.838521 
L 521.312608 323.888026 
L 521.9625 323.888026 
L 521.9625 323.888026 
" style="fill:none;stroke:#f5deb3;stroke-linecap:square;"/>
   </g>
   <g id="line2d_2">
    <path clip-path="url(#p2b45133d38)" d="M 583.625781 359.056343 
" style="fill:none;stroke:#f5deb3;stroke-linecap:square;"/>
   </g>
   <g id="line2d_3">
    <path clip-path="url(#p2b45133d38)" d="M 274.229813 359.056343 
L 274.229813 358.105848 
L 274.229813 358.105848 
L 274.229813 358.105848 
L 274.229813 357.155353 
L 274.229813 357.155353 
L 274.229813 357.155353 
L 274.229813 356.204858 
L 274.229813 356.204858 
L 274.229813 356.204858 
L 274.229813 355.254363 
L 274.590641 355.254363 
L 274.590641 354.303868 
L 274.94993 354.303868 
L 274.94993 345.749412 
L 275.307694 345.749412 
L 275.307694 344.798917 
L 275.663944 344.798917 
L 275.663944 343.848422 
L 276.371958 343.848422 
L 276.371958 342.897927 
L 279.82544 342.897927 
L 279.82544 341.947432 
L 281.168149 341.947432 
L 281.168149 340.996937 
L 283.791027 340.996937 
L 283.791027 339.095947 
L 284.753931 339.095947 
L 284.753931 338.145452 
L 285.072469 338.145452 
L 285.072469 337.194957 
L 285.389807 337.194957 
L 285.389807 336.244462 
L 286.958812 336.244462 
L 286.958812 335.293967 
L 287.269137 335.293967 
L 287.269137 334.343472 
L 288.193313 334.343472 
L 288.193313 333.392976 
L 290.906529 333.392976 
L 290.906529 332.442481 
L 295.524297 332.442481 
L 295.524297 331.491986 
L 299.098376 331.491986 
L 299.098376 330.541491 
L 453.143094 330.541491 
L 453.143094 329.590996 
L 511.43474 329.590996 
L 511.43474 328.640501 
L 521.9625 328.640501 
L 521.9625 328.640501 
" style="fill:none;stroke:#f5deb3;stroke-linecap:square;"/>
   </g>
   <g id="line2d_4">
    <path clip-path="url(#p2b45133d38)" d="M 213.259958 359.056343 
L 213.259958 358.105848 
L 214.738122 358.105848 
L 214.738122 357.155353 
L 216.907851 357.155353 
L 216.907851 356.204858 
L 219.71655 356.204858 
L 219.71655 355.254363 
L 222.434629 355.254363 
L 222.434629 354.303868 
L 231.911255 354.303868 
L 231.911255 352.402877 
L 232.506687 352.402877 
L 232.506687 351.452382 
L 236.560885 351.452382 
L 236.560885 349.551392 
L 241.502226 349.551392 
L 241.502226 348.600897 
L 247.172774 348.600897 
L 247.172774 347.650402 
L 248.164 347.650402 
L 248.164 346.699907 
L 250.112136 346.699907 
L 250.112136 345.749412 
L 283.791027 345.749412 
L 283.791027 344.798917 
L 436.877465 344.798917 
L 436.877465 343.848422 
L 440.672833 343.848422 
L 440.672833 342.897927 
L 441.222692 342.897927 
L 441.222692 341.947432 
L 441.867933 341.947432 
L 441.867933 340.996937 
L 442.802177 340.996937 
L 442.802177 340.046442 
L 444.974392 340.046442 
L 444.974392 339.095947 
L 445.259835 339.095947 
L 445.259835 338.145452 
L 445.402195 338.145452 
L 445.402195 337.194957 
L 445.544314 337.194957 
L 445.544314 336.244462 
L 446.063378 336.244462 
L 446.063378 335.293967 
L 446.345161 335.293967 
L 446.43888 333.392976 
L 448.566131 333.392976 
L 448.566131 332.442481 
L 448.930667 332.442481 
L 448.930667 331.491986 
L 449.338893 331.491986 
L 449.338893 330.541491 
L 521.9625 330.541491 
L 521.9625 330.541491 
" style="fill:none;stroke:#f5deb3;stroke-linecap:square;"/>
   </g>
   <g id="line2d_5">
    <path clip-path="url(#p2b45133d38)" d="M 367.630914 359.056343 
L 367.630914 358.105848 
L 367.630914 358.105848 
L 367.630914 358.105848 
L 367.630914 357.155353 
L 373.507405 357.155353 
L 373.507405 356.204858 
L 375.921073 356.204858 
L 375.921073 355.254363 
L 379.10482 355.254363 
L 379.10482 354.303868 
L 395.518196 354.303868 
L 395.518196 353.353373 
L 403.913803 353.353373 
L 403.991349 351.452382 
L 404.455129 351.452382 
L 404.455129 350.501887 
L 408.00236 350.501887 
L 408.00236 349.551392 
L 413.923554 349.551392 
L 413.923554 348.600897 
L 422.185143 348.600897 
L 422.185143 347.650402 
L 428.500322 347.650402 
L 428.500322 346.699907 
L 429.135327 346.699907 
L 429.135327 345.749412 
L 435.821648 345.749412 
L 435.821648 344.798917 
L 450.685536 344.798917 
L 450.685536 343.848422 
L 457.36085 343.848422 
L 457.36085 342.897927 
L 463.965345 342.897927 
L 463.965345 341.947432 
L 464.30699 341.947432 
L 464.30699 340.996937 
L 464.684977 340.996937 
L 464.684977 340.046442 
L 464.910957 340.046442 
L 464.910957 339.095947 
L 465.136334 339.095947 
L 465.136334 337.194957 
L 465.398513 337.194957 
L 465.398513 336.244462 
L 465.957594 336.244462 
L 465.957594 335.293967 
L 466.217234 335.293967 
L 466.217234 334.343472 
L 466.586766 334.343472 
L 466.586766 333.392976 
L 468.446574 333.392976 
L 468.518678 331.491986 
L 469.236341 331.491986 
L 469.236341 330.541491 
L 470.758923 330.541491 
L 470.758923 329.590996 
L 521.9625 329.590996 
L 521.9625 329.590996 
" style="fill:none;stroke:#f5deb3;stroke-linecap:square;"/>
   </g>
   <g id="line2d_6"/>
   <g id="line2d_7">
    <path clip-path="url(#p2b45133d38)" d="M 272.402124 359.056343 
L 272.402124 358.105848 
L 289.711429 358.105848 
L 289.711429 357.155353 
L 291.202674 357.155353 
L 291.202674 356.204858 
L 292.376953 356.204858 
L 292.376953 355.254363 
L 292.667984 355.254363 
L 292.667984 354.303868 
L 293.535091 354.303868 
L 293.535091 353.353373 
L 294.960728 353.353373 
L 294.960728 351.452382 
L 295.524297 351.452382 
L 295.524297 350.501887 
L 303.042302 350.501887 
L 303.042302 349.551392 
L 305.572617 349.551392 
L 305.572617 348.600897 
L 307.786696 348.600897 
L 307.786696 347.650402 
L 309.944079 347.650402 
L 309.944079 346.699907 
L 321.842852 346.699907 
L 321.842852 344.798917 
L 464.910957 344.798917 
L 464.910957 343.848422 
L 479.072547 343.848422 
L 479.072547 342.897927 
L 480.115259 342.897927 
L 480.115259 341.947432 
L 482.224023 341.947432 
L 482.224023 340.996937 
L 482.74307 340.996937 
L 482.74307 340.046442 
L 482.986225 340.046442 
L 482.986225 339.095947 
L 483.379861 339.095947 
L 483.379861 338.145452 
L 483.59106 338.145452 
L 483.59106 337.194957 
L 484.131724 337.194957 
L 484.161659 335.293967 
L 485.409437 335.293967 
L 485.409437 334.343472 
L 486.231139 334.343472 
L 486.231139 333.392976 
L 487.015977 333.392976 
L 487.015977 332.442481 
L 489.073823 332.442481 
L 489.073823 331.491986 
L 489.832739 331.491986 
L 489.832739 330.541491 
L 490.223576 330.541491 
L 490.223576 329.590996 
L 521.9625 329.590996 
L 521.9625 329.590996 
" style="fill:none;stroke:#f5deb3;stroke-linecap:square;"/>
   </g>
   <g id="line2d_8">
    <path clip-path="url(#p2b45133d38)" d="M 609.951959 359.056343 
" style="fill:none;stroke:#f5deb3;stroke-linecap:square;"/>
   </g>
   <g id="line2d_9">
    <path clip-path="url(#p2b45133d38)" d="M 263.853001 359.056343 
L 263.853001 358.105848 
L 266.668405 358.105848 
L 266.668405 357.155353 
L 272.03178 357.155353 
L 272.03178 356.204858 
L 273.503488 356.204858 
L 273.503488 355.254363 
L 273.867434 355.254363 
L 273.867434 354.303868 
L 274.94993 354.303868 
L 274.94993 353.353373 
L 277.074072 353.353373 
L 277.074072 352.402877 
L 277.422947 352.402877 
L 277.422947 351.452382 
L 279.486393 351.452382 
L 279.486393 350.501887 
L 286.020919 350.501887 
L 286.020919 349.551392 
L 287.578324 349.551392 
L 287.578324 348.600897 
L 293.535091 348.600897 
L 293.535091 347.650402 
L 295.524297 347.650402 
L 295.524297 346.699907 
L 299.098376 346.699907 
L 299.098376 345.749412 
L 302.008508 345.749412 
L 302.008508 344.798917 
L 464.533985 344.798917 
L 464.533985 343.848422 
L 467.247867 343.848422 
L 467.247867 342.897927 
L 473.757818 342.897927 
L 473.757818 341.947432 
L 478.177589 341.947432 
L 478.177589 340.996937 
L 478.722089 340.996937 
L 478.722089 340.046442 
L 479.516487 340.046442 
L 479.516487 339.095947 
L 479.863663 339.095947 
L 479.863663 338.145452 
L 481.269216 338.145452 
L 481.362091 336.244462 
L 482.162748 336.244462 
L 482.162748 335.293967 
L 482.803924 335.293967 
L 482.803924 334.343472 
L 483.651305 334.343472 
L 483.651305 333.392976 
L 484.071821 333.392976 
L 484.071821 332.442481 
L 484.787858 332.442481 
L 484.787858 331.491986 
L 485.879962 331.491986 
L 485.879962 330.541491 
L 485.997184 330.541491 
L 485.997184 329.590996 
L 491.192809 329.590996 
L 491.192809 328.640501 
L 521.9625 328.640501 
L 521.9625 328.640501 
" style="fill:none;stroke:#f5deb3;stroke-linecap:square;"/>
   </g>
   <g id="line2d_10">
    <path clip-path="url(#p2b45133d38)" d="M 327.792606 359.056343 
L 327.792606 358.105848 
L 330.431623 358.105848 
L 330.431623 357.155353 
L 342.02931 357.155353 
L 342.02931 355.254363 
L 348.26159 355.254363 
L 348.26159 354.303868 
L 358.034865 354.303868 
L 358.034865 353.353373 
L 364.71697 353.353373 
L 364.71697 352.402877 
L 521.9625 352.402877 
L 521.9625 352.402877 
" style="fill:none;stroke:#f5deb3;stroke-linecap:square;"/>
   </g>
   <g id="line2d_11">
    <path clip-path="url(#p2b45133d38)" d="M 199.523354 359.056343 
L 199.523354 358.105848 
L 212.511036 358.105848 
L 212.511036 357.155353 
L 214.738122 357.155353 
L 214.738122 356.204858 
L 216.190798 356.204858 
L 216.190798 355.254363 
L 218.323904 355.254363 
L 218.323904 354.303868 
L 220.404334 354.303868 
L 220.404334 353.353373 
L 225.713376 353.353373 
L 225.713376 352.402877 
L 231.311586 352.402877 
L 231.311586 351.452382 
L 231.911255 351.452382 
L 231.911255 350.501887 
L 235.422312 350.501887 
L 235.422312 349.551392 
L 242.562028 349.551392 
L 242.562028 348.600897 
L 250.112136 348.600897 
L 250.112136 347.650402 
L 250.592213 347.650402 
L 250.592213 346.699907 
L 265.07114 346.699907 
L 265.07114 345.749412 
L 277.422947 345.749412 
L 277.422947 344.798917 
L 422.060138 344.798917 
L 422.060138 343.848422 
L 423.240261 343.848422 
L 423.240261 342.897927 
L 425.191217 342.897927 
L 425.191217 341.947432 
L 425.371824 341.947432 
L 425.371824 340.996937 
L 427.50944 340.996937 
L 427.50944 340.046442 
L 427.977189 340.046442 
L 427.977189 339.095947 
L 429.70848 339.095947 
L 429.70848 338.145452 
L 430.504399 338.145452 
L 430.504399 337.194957 
L 430.67398 337.194957 
L 430.67398 336.244462 
L 432.351271 336.244462 
L 432.351271 335.293967 
L 432.958007 335.293967 
L 432.958007 334.343472 
L 433.396541 334.343472 
L 433.396541 333.392976 
L 434.590871 333.392976 
L 434.590871 332.442481 
L 436.033872 332.442481 
L 436.033872 331.491986 
L 437.504663 331.491986 
L 437.504663 330.541491 
L 521.9625 330.541491 
L 521.9625 330.541491 
" style="fill:none;stroke:#f5deb3;stroke-linecap:square;"/>
   </g>
   <g id="line2d_12">
    <path clip-path="url(#p2b45133d38)" d="M 131.855587 359.056343 
L 131.855587 358.105848 
L 131.855587 358.105848 
L 131.855587 358.105848 
L 131.855587 357.155353 
L 131.855587 357.155353 
L 131.855587 357.155353 
L 131.855587 356.204858 
L 131.855587 356.204858 
L 131.855587 356.204858 
L 131.855587 355.254363 
L 131.855587 355.254363 
L 131.855587 355.254363 
L 131.855587 354.303868 
L 131.855587 354.303868 
L 131.855587 354.303868 
L 131.855587 353.353373 
L 131.855587 353.353373 
L 131.855587 353.353373 
L 131.855587 352.402877 
L 131.855587 352.402877 
L 131.855587 352.402877 
L 131.855587 351.452382 
L 131.855587 351.452382 
L 131.855587 351.452382 
L 131.855587 350.501887 
L 131.855587 350.501887 
L 131.855587 350.501887 
L 131.855587 349.551392 
L 131.855587 349.551392 
L 131.855587 349.551392 
L 131.855587 348.600897 
L 131.855587 348.600897 
L 131.855587 348.600897 
L 131.855587 347.650402 
L 131.855587 347.650402 
L 131.855587 347.650402 
L 131.855587 346.699907 
L 131.855587 346.699907 
L 131.855587 346.699907 
L 131.855587 345.749412 
L 131.855587 345.749412 
L 131.855587 345.749412 
L 131.855587 344.798917 
L 189.270002 344.798917 
L 189.270002 343.848422 
L 207.872076 343.848422 
L 207.872076 335.293967 
L 223.100666 335.293967 
L 223.100666 331.491986 
L 247.172774 331.491986 
L 247.172774 330.541491 
L 516.620217 330.541491 
L 516.620217 329.590996 
L 521.9625 329.590996 
L 521.9625 329.590996 
" style="fill:none;stroke:#f5deb3;stroke-linecap:square;"/>
   </g>
   <g id="line2d_13">
    <path clip-path="url(#p2b45133d38)" d="M 449.157703 359.056343 
L 449.157703 358.105848 
L 449.157703 358.105848 
L 449.157703 357.155353 
L 450.507222 357.155353 
L 450.507222 356.204858 
L 450.507222 356.204858 
L 450.507222 355.254363 
L 452.535392 355.254363 
L 452.535392 354.303868 
L 452.752932 354.303868 
L 452.752932 353.353373 
L 452.752932 353.353373 
L 452.752932 352.402877 
L 452.752932 352.402877 
L 452.752932 351.452382 
L 453.918039 351.452382 
L 453.918039 350.501887 
L 457.36085 350.501887 
L 457.36085 349.551392 
L 457.36085 349.551392 
L 457.36085 348.600897 
L 457.36085 348.600897 
L 457.36085 347.650402 
L 457.525246 347.650402 
L 457.525246 346.699907 
L 457.525246 346.699907 
L 457.525246 345.749412 
L 457.525246 345.749412 
L 457.525246 344.798917 
L 457.525246 344.798917 
L 457.525246 344.798917 
L 513.7625 344.798917 
" style="fill:none;stroke:#f5deb3;stroke-linecap:square;"/>
   </g>
   <g id="line2d_14">
    <path clip-path="url(#p2b45133d38)" d="M 243.086972 359.056343 
L 243.086972 358.105848 
L 245.663722 358.105848 
L 245.663722 357.155353 
L 247.172774 357.155353 
L 247.172774 356.204858 
L 249.143698 356.204858 
L 249.143698 355.254363 
L 249.629309 355.254363 
L 249.629309 353.353373 
L 250.112136 353.353373 
L 250.112136 352.402877 
L 250.592213 352.402877 
L 250.592213 351.452382 
L 251.544236 351.452382 
L 251.544236 347.650402 
L 252.016244 347.650402 
L 252.016244 346.699907 
L 252.485622 346.699907 
L 252.485622 344.798917 
L 371.022548 344.798917 
L 371.022548 343.848422 
L 372.72469 343.848422 
L 372.72469 342.897927 
L 375.160562 342.897927 
L 375.160562 341.947432 
L 376.029159 341.947432 
L 376.029159 340.996937 
L 376.781904 340.996937 
L 376.781904 340.046442 
L 380.754874 340.046442 
L 380.754874 339.095947 
L 381.060693 339.095947 
L 381.060693 338.145452 
L 381.263958 338.145452 
L 381.263958 337.194957 
L 382.072148 337.194957 
L 382.072148 336.244462 
L 383.27008 336.244462 
L 383.27008 335.293967 
L 383.566921 335.293967 
L 383.566921 334.343472 
L 383.764235 334.343472 
L 383.764235 333.392976 
L 385.808606 333.392976 
L 385.808606 332.442481 
L 386.383716 332.442481 
L 386.383716 331.491986 
L 386.764952 331.491986 
L 386.764952 330.541491 
L 401.473793 330.541491 
L 401.473793 329.590996 
L 406.511115 329.590996 
L 406.511115 328.640501 
L 407.110784 328.640501 
L 407.110784 327.690006 
L 409.54027 327.690006 
L 409.54027 326.739511 
L 410.190877 326.739511 
L 410.190877 325.789016 
L 410.9793 325.789016 
L 410.9793 324.838521 
L 412.323982 324.838521 
L 412.323982 323.888026 
L 413.78566 323.888026 
L 413.78566 322.937531 
L 414.404413 322.937531 
L 414.404413 321.987036 
L 417.761557 321.987036 
L 417.761557 321.036541 
L 418.612937 321.036541 
L 418.612937 320.086046 
L 428.210094 320.086046 
L 428.210094 319.135551 
L 432.185037 319.135551 
L 432.185037 318.185056 
L 438.127226 318.185056 
L 438.127226 317.234561 
L 488.136878 317.234561 
L 488.136878 316.284066 
L 521.9625 316.284066 
L 521.9625 316.284066 
" style="fill:none;stroke:#f5deb3;stroke-linecap:square;"/>
   </g>
   <g id="line2d_15"/>
   <g id="line2d_16">
    <path clip-path="url(#p2b45133d38)" d="M 466.881229 359.056343 
L 466.881229 358.105848 
L 467.576482 358.105848 
L 467.576482 357.155353 
L 469.164849 357.155353 
L 469.164849 356.204858 
L 469.877053 356.204858 
L 469.877053 355.254363 
L 476.1614 355.254363 
L 476.1614 354.303868 
L 481.485765 354.303868 
L 481.485765 353.353373 
L 484.876936 353.353373 
L 484.876936 352.402877 
L 487.477639 352.402877 
L 487.477639 351.452382 
L 488.73432 351.452382 
L 488.73432 350.501887 
L 489.158485 350.501887 
L 489.158485 349.551392 
L 490.751114 349.551392 
L 490.751114 348.600897 
L 491.35785 348.600897 
L 491.35785 347.650402 
L 496.81088 347.650402 
L 496.81088 346.699907 
L 498.468708 346.699907 
L 498.468708 345.749412 
L 515.09988 345.749412 
L 515.09988 344.798917 
L 521.9625 344.798917 
L 521.9625 344.798917 
" style="fill:none;stroke:#f5deb3;stroke-linecap:square;"/>
   </g>
   <g id="line2d_17">
    <path clip-path="url(#p2b45133d38)" d="M 507.806581 359.056343 
L 507.806581 358.105848 
L 517.551648 358.105848 
L 517.551648 356.204858 
L 517.752778 356.204858 
L 517.752778 355.254363 
L 521.907497 355.254363 
L 521.907497 354.303868 
L 521.9625 354.303868 
" style="fill:none;stroke:#f5deb3;stroke-linecap:square;"/>
   </g>
   <g id="line2d_18">
    <path clip-path="url(#p2b45133d38)" d="M 131.855587 359.056343 
L 131.855587 358.105848 
L 131.855587 358.105848 
L 131.855587 358.105848 
L 131.855587 357.155353 
L 131.855587 357.155353 
L 131.855587 357.155353 
L 131.855587 356.204858 
L 131.855587 356.204858 
L 131.855587 356.204858 
L 131.855587 355.254363 
L 131.855587 355.254363 
L 131.855587 355.254363 
L 131.855587 354.303868 
L 131.855587 354.303868 
L 131.855587 354.303868 
L 131.855587 353.353373 
L 131.855587 353.353373 
L 131.855587 353.353373 
L 131.855587 352.402877 
L 131.855587 352.402877 
L 131.855587 352.402877 
L 131.855587 351.452382 
L 133.792527 351.452382 
L 133.792527 345.749412 
L 137.537729 345.749412 
L 137.537729 344.798917 
L 139.349694 344.798917 
L 139.349694 342.897927 
L 144.562893 342.897927 
L 144.562893 341.947432 
L 146.231327 341.947432 
L 146.231327 340.996937 
L 149.472233 340.996937 
L 149.472233 340.046442 
L 158.508008 340.046442 
L 158.508008 339.095947 
L 159.924061 339.095947 
L 159.924061 337.194957 
L 164.034787 337.194957 
L 164.034787 336.244462 
L 180.941928 336.244462 
L 180.941928 335.293967 
L 182.02908 335.293967 
L 182.02908 333.392976 
L 188.272911 333.392976 
L 188.272911 332.442481 
L 190.25543 332.442481 
L 190.25543 331.491986 
L 193.144393 331.491986 
L 193.144393 330.541491 
L 399.207481 330.541491 
L 399.207481 329.590996 
L 465.061275 329.590996 
L 465.061275 328.640501 
L 484.191584 328.640501 
L 484.191584 327.690006 
L 484.520057 327.690006 
L 484.520057 326.739511 
L 485.791938 326.739511 
L 485.791938 325.789016 
L 486.260338 325.789016 
L 486.260338 324.838521 
L 491.878355 324.838521 
L 491.878355 323.888026 
L 492.069313 323.888026 
L 492.069313 322.937531 
L 492.259839 322.937531 
L 492.368517 321.036541 
L 493.259808 321.036541 
L 493.259808 320.086046 
L 493.928806 320.086046 
L 493.928806 319.135551 
L 494.194925 319.135551 
L 494.274597 317.234561 
L 494.671831 317.234561 
L 494.671831 316.284066 
L 495.329753 316.284066 
L 495.329753 315.333571 
L 495.643741 315.333571 
L 495.643741 314.383075 
L 497.962073 314.383075 
L 497.962073 313.43258 
L 498.670512 313.43258 
L 498.720887 311.53159 
L 498.846695 311.53159 
L 498.846695 310.581095 
L 500.662405 310.581095 
L 500.662405 309.6306 
L 505.259172 309.6306 
L 505.259172 308.680105 
L 505.83967 308.680105 
L 505.83967 307.72961 
L 511.823601 307.72961 
L 511.823601 306.779115 
L 516.252923 306.779115 
L 516.252923 305.82862 
L 521.9625 305.82862 
L 521.9625 305.82862 
" style="fill:none;stroke:#f5deb3;stroke-linecap:square;"/>
   </g>
   <g id="line2d_19">
    <path clip-path="url(#p2b45133d38)" d="M 585.722801 359.056343 
" style="fill:none;stroke:#f5deb3;stroke-linecap:square;"/>
   </g>
   <g id="line2d_20">
    <path clip-path="url(#p2b45133d38)" d="M 239.34177 359.056343 
L 239.34177 358.105848 
L 250.112136 358.105848 
L 250.112136 357.155353 
L 251.069569 357.155353 
L 251.069569 356.204858 
L 257.483231 356.204858 
L 257.483231 355.254363 
L 269.774864 355.254363 
L 269.774864 354.303868 
L 274.590641 354.303868 
L 274.590641 353.353373 
L 276.723747 353.353373 
L 276.723747 352.402877 
L 277.770383 352.402877 
L 277.770383 351.452382 
L 287.269137 351.452382 
L 287.269137 350.501887 
L 291.202674 350.501887 
L 291.202674 349.551392 
L 293.822155 349.551392 
L 293.822155 348.600897 
L 297.741613 348.600897 
L 297.741613 347.650402 
L 301.486815 347.650402 
L 301.486815 346.699907 
L 307.299682 346.699907 
L 307.299682 345.749412 
L 321.637106 345.749412 
L 321.637106 344.798917 
L 435.555613 344.798917 
L 435.555613 343.848422 
L 437.504663 343.848422 
L 437.504663 342.897927 
L 441.172853 342.897927 
L 441.172853 341.947432 
L 442.016136 341.947432 
L 442.016136 340.996937 
L 447.647831 340.996937 
L 447.647831 340.046442 
L 451.129676 340.046442 
L 451.129676 338.145452 
L 451.571487 338.145452 
L 451.571487 336.244462 
L 451.791526 336.244462 
L 451.791526 335.293967 
L 452.448219 335.293967 
L 452.448219 334.343472 
L 456.94845 334.343472 
L 456.94845 333.392976 
L 457.893969 333.392976 
L 457.893969 332.442481 
L 460.391139 332.442481 
L 460.391139 331.491986 
L 472.529815 331.491986 
L 472.529815 330.541491 
L 483.289185 330.541491 
L 483.289185 329.590996 
L 497.298859 329.590996 
L 497.298859 328.640501 
L 521.9625 328.640501 
L 521.9625 328.640501 
" style="fill:none;stroke:#f5deb3;stroke-linecap:square;"/>
   </g>
   <g id="line2d_21">
    <path clip-path="url(#p2b45133d38)" d="M 555.467906 359.056343 
" style="fill:none;stroke:#f5deb3;stroke-linecap:square;"/>
   </g>
   <g id="line2d_22">
    <path clip-path="url(#p2b45133d38)" d="M 279.145976 359.056343 
L 279.145976 358.105848 
L 285.389807 358.105848 
L 285.389807 357.155353 
L 293.822155 357.155353 
L 293.822155 356.204858 
L 298.828766 356.204858 
L 298.828766 355.254363 
L 304.82147 355.254363 
L 304.82147 354.303868 
L 310.416086 354.303868 
L 310.416086 353.353373 
L 310.651102 353.353373 
L 310.651102 352.402877 
L 311.816448 352.402877 
L 311.816448 351.452382 
L 313.874294 351.452382 
L 313.874294 350.501887 
L 314.549223 350.501887 
L 314.549223 349.551392 
L 320.600768 349.551392 
L 320.600768 348.600897 
L 321.016834 348.600897 
L 321.016834 347.650402 
L 322.457094 347.650402 
L 322.457094 346.699907 
L 329.686015 346.699907 
L 329.686015 345.749412 
L 357.766969 345.749412 
L 357.766969 344.798917 
L 442.557326 344.798917 
L 442.557326 343.848422 
L 457.607324 343.848422 
L 457.607324 341.947432 
L 458.950195 341.947432 
L 458.950195 340.996937 
L 460.232246 340.996937 
L 460.232246 340.046442 
L 461.53424 340.046442 
L 461.53424 339.095947 
L 466.62363 339.095947 
L 466.62363 338.145452 
L 467.064747 338.145452 
L 467.064747 337.194957 
L 467.540032 337.194957 
L 467.540032 336.244462 
L 468.770556 336.244462 
L 468.770556 335.293967 
L 471.492627 335.293967 
L 471.492627 334.343472 
L 478.048958 334.343472 
L 478.048958 333.392976 
L 478.658213 333.392976 
L 478.658213 332.442481 
L 482.468679 332.442481 
L 482.468679 331.491986 
L 487.56392 331.491986 
L 487.56392 330.541491 
L 514.559127 330.541491 
L 514.559127 329.590996 
L 518.293442 329.590996 
L 518.293442 328.640501 
L 521.9625 328.640501 
L 521.9625 328.640501 
" style="fill:none;stroke:#f5deb3;stroke-linecap:square;"/>
   </g>
   <g id="line2d_23">
    <path clip-path="url(#p2b45133d38)" d="M 364.963685 359.056343 
L 364.963685 358.105848 
L 379.312853 358.105848 
L 379.312853 357.155353 
L 382.373232 357.155353 
L 382.373232 356.204858 
L 383.862719 356.204858 
L 383.862719 355.254363 
L 386.383716 355.254363 
L 386.383716 354.303868 
L 390.394308 354.303868 
L 390.394308 353.353373 
L 393.61115 353.353373 
L 393.61115 352.402877 
L 412.394164 352.402877 
L 412.394164 351.452382 
L 521.9625 351.452382 
" style="fill:none;stroke:#f5deb3;stroke-linecap:square;"/>
   </g>
   <g id="line2d_24">
    <path clip-path="url(#p2b45133d38)" d="M 456.61707 359.056343 
L 456.61707 358.105848 
L 467.503567 358.105848 
L 467.503567 357.155353 
L 484.96592 357.155353 
L 485.054811 355.254363 
L 485.08442 355.254363 
L 485.08442 354.303868 
L 489.972531 354.303868 
L 489.972531 353.353373 
L 493.071533 353.353373 
L 493.071533 352.402877 
L 493.232937 352.402877 
L 493.232937 351.452382 
L 500.317206 351.452382 
L 500.317206 350.501887 
L 500.736193 350.501887 
L 500.736193 349.551392 
L 507.057256 349.551392 
L 507.057256 348.600897 
L 507.216762 348.600897 
L 507.216762 347.650402 
L 513.319006 347.650402 
L 513.319006 346.699907 
L 519.127638 346.699907 
L 519.206657 344.798917 
L 521.9625 344.798917 
L 521.9625 344.798917 
" style="fill:none;stroke:#f5deb3;stroke-linecap:square;"/>
   </g>
   <g id="line2d_25">
    <path clip-path="url(#p2b45133d38)" d="M 374.282917 359.056343 
L 374.282917 358.105848 
L 379.416677 358.105848 
L 379.416677 357.155353 
L 380.44794 357.155353 
L 380.44794 356.204858 
L 382.072148 356.204858 
L 382.072148 355.254363 
L 401.153743 355.254363 
L 401.153743 354.303868 
L 403.290857 354.303868 
L 403.290857 353.353373 
L 403.758498 353.353373 
L 403.758498 352.402877 
L 409.757698 352.402877 
L 409.757698 351.452382 
L 421.243055 351.452382 
L 421.243055 350.501887 
L 429.020227 350.501887 
L 429.020227 349.551392 
L 430.786844 349.551392 
L 430.786844 348.600897 
L 438.950219 348.600897 
L 438.950219 347.650402 
L 440.270669 347.650402 
L 440.270669 346.699907 
L 445.591634 346.699907 
L 445.591634 345.749412 
L 521.9625 345.749412 
L 521.9625 345.749412 
" style="fill:none;stroke:#f5deb3;stroke-linecap:square;"/>
   </g>
   <g id="line2d_26">
    <path clip-path="url(#p2b45133d38)" d="M 437.712696 359.056343 
L 437.712696 358.141428 
L 439.05253 358.141428 
L 439.05253 357.226513 
L 443.822851 357.226513 
L 443.822851 356.311598 
L 444.974392 356.311598 
L 444.974392 355.396683 
L 445.164795 355.396683 
L 445.164795 354.481768 
L 445.591634 354.481768 
L 445.638928 352.651938 
L 446.905917 352.651938 
L 446.905917 350.822108 
L 448.520453 350.822108 
L 448.520453 349.907193 
L 450.149459 349.907193 
L 450.149459 348.992278 
L 450.996679 348.992278 
L 450.996679 348.077363 
L 452.92656 348.077363 
L 452.92656 347.162448 
L 453.315921 347.162448 
L 453.315921 346.247533 
L 474.365173 346.247533 
L 474.365173 345.332618 
L 521.9625 345.332618 
L 521.9625 345.332618 
" style="fill:none;stroke:#f5deb3;stroke-linecap:square;"/>
   </g>
   <g id="line2d_27">
    <path clip-path="url(#p2b45133d38)" d="M 567.318063 359.056343 
" style="fill:none;stroke:#f5deb3;stroke-linecap:square;"/>
   </g>
   <g id="line2d_28">
    <path clip-path="url(#p2b45133d38)" d="M 317.413005 359.056343 
L 317.413005 358.105848 
L 317.629316 358.105848 
L 317.629316 357.155353 
L 317.845073 357.155353 
L 317.845073 356.204858 
L 318.060279 356.204858 
L 318.060279 355.254363 
L 326.246633 355.254363 
L 326.246633 351.452382 
L 326.441438 351.452382 
L 326.441438 350.501887 
L 334.241349 350.501887 
L 334.241349 348.600897 
L 334.771801 348.600897 
L 334.771801 347.650402 
L 342.35212 347.650402 
L 342.35212 346.699907 
L 348.41164 346.699907 
L 348.41164 345.749412 
L 360.797511 345.749412 
L 360.797511 344.798917 
L 521.9625 344.798917 
L 521.9625 344.798917 
" style="fill:none;stroke:#f5deb3;stroke-linecap:square;"/>
   </g>
   <g id="line2d_29">
    <path clip-path="url(#p2b45133d38)" d="M 125.762343 359.056343 
L 125.762343 358.105848 
L 125.762343 358.105848 
L 125.762343 357.155353 
L 125.762343 357.155353 
L 125.762343 356.204858 
L 125.762343 356.204858 
L 125.762343 355.254363 
L 125.762343 355.254363 
L 125.762343 354.303868 
L 125.762343 354.303868 
L 125.762343 353.353373 
L 127.842774 353.353373 
L 127.842774 352.402877 
L 127.842774 352.402877 
L 127.842774 351.452382 
L 127.842774 351.452382 
L 127.842774 350.501887 
L 127.842774 350.501887 
L 127.842774 349.551392 
L 127.842774 349.551392 
L 127.842774 348.600897 
L 127.842774 348.600897 
L 127.842774 347.650402 
L 127.842774 347.650402 
L 127.842774 346.699907 
L 127.842774 346.699907 
L 127.842774 345.749412 
L 127.842774 345.749412 
L 127.842774 344.798917 
L 167.954245 344.798917 
L 167.954245 343.848422 
L 167.954245 343.848422 
L 167.954245 342.897927 
L 167.954245 342.897927 
L 167.954245 341.947432 
L 308.752359 341.947432 
L 308.752359 340.996937 
L 308.752359 340.996937 
L 308.752359 340.046442 
L 308.752359 340.046442 
L 308.752359 339.095947 
L 309.944079 339.095947 
L 309.944079 338.145452 
L 309.944079 338.145452 
L 309.944079 337.194957 
L 309.944079 337.194957 
L 309.944079 336.244462 
L 310.885465 336.244462 
L 310.885465 335.293967 
L 310.885465 335.293967 
L 310.885465 334.343472 
L 310.885465 334.343472 
L 310.885465 333.392976 
L 311.352242 333.392976 
L 311.352242 332.442481 
L 311.352242 332.442481 
L 311.352242 331.491986 
L 311.352242 331.491986 
L 311.352242 330.541491 
L 478.498309 330.541491 
L 478.498309 329.590996 
L 478.498309 329.590996 
L 478.498309 328.640501 
L 478.498309 328.640501 
L 478.498309 327.690006 
L 502.872371 327.690006 
L 502.872371 326.739511 
L 502.872371 326.739511 
L 502.872371 325.789016 
L 502.872371 325.789016 
L 502.872371 324.838521 
L 521.9625 324.838521 
" style="fill:none;stroke:#f5deb3;stroke-linecap:square;"/>
   </g>
   <g id="line2d_30">
    <path clip-path="url(#p2b45133d38)" d="M 311.119177 359.056343 
L 311.119177 358.105848 
L 311.119177 358.105848 
L 311.119177 357.155353 
L 312.278111 357.155353 
L 312.278111 356.204858 
L 314.324847 356.204858 
L 314.324847 355.254363 
L 315.218788 355.254363 
L 315.218788 354.303868 
L 315.218788 354.303868 
L 315.218788 353.353373 
L 316.542163 353.353373 
L 316.542163 352.402877 
L 316.978709 352.402877 
L 316.978709 351.452382 
L 317.196137 351.452382 
L 317.196137 350.501887 
L 317.413005 350.501887 
L 317.413005 349.551392 
L 318.060279 349.551392 
L 318.060279 348.600897 
L 319.340099 348.600897 
L 319.340099 347.650402 
L 320.391962 347.650402 
L 320.391962 346.699907 
L 320.600768 346.699907 
L 320.600768 345.749412 
L 322.457094 345.749412 
L 322.457094 344.798917 
L 322.864115 344.798917 
L 322.864115 343.848422 
L 323.470983 343.848422 
L 323.470983 342.897927 
L 324.870238 342.897927 
L 324.870238 341.947432 
L 325.462877 341.947432 
L 325.462877 340.996937 
L 326.246633 340.996937 
L 326.246633 340.046442 
L 327.600903 340.046442 
L 327.600903 339.095947 
L 328.174707 339.095947 
L 328.174707 338.145452 
L 330.059644 338.145452 
L 330.059644 337.194957 
L 332.0855 337.194957 
L 332.0855 336.244462 
L 332.629656 336.244462 
L 332.629656 335.293967 
L 332.990484 335.293967 
L 332.990484 334.343472 
L 334.418538 334.343472 
L 334.418538 333.392976 
L 335.473915 333.392976 
L 335.473915 332.442481 
L 335.82279 332.442481 
L 335.82279 331.491986 
L 354.483963 331.491986 
L 354.483963 330.541491 
L 360.926833 330.541491 
L 360.926833 329.590996 
L 360.926833 329.590996 
L 360.926833 328.640501 
L 360.926833 328.640501 
L 360.926833 327.690006 
L 360.926833 327.690006 
L 360.926833 326.739511 
L 360.926833 326.739511 
L 360.926833 325.789016 
L 360.926833 325.789016 
L 360.926833 324.838521 
L 360.926833 324.838521 
L 360.926833 323.888026 
L 360.926833 323.888026 
L 360.926833 322.937531 
L 360.926833 322.937531 
L 360.926833 321.987036 
L 360.926833 321.987036 
L 360.926833 321.036541 
L 360.926833 321.036541 
L 360.926833 320.086046 
L 360.926833 320.086046 
L 360.926833 319.135551 
L 360.926833 319.135551 
L 360.926833 318.185056 
L 360.926833 318.185056 
L 360.926833 317.234561 
L 360.926833 317.234561 
L 360.926833 316.284066 
L 521.9625 316.284066 
" style="fill:none;stroke:#f5deb3;stroke-linecap:square;"/>
   </g>
   <g id="line2d_31">
    <path clip-path="url(#p2b45133d38)" d="M -1 358.105848 
L 43.124375 358.105848 
L 43.124375 357.155353 
L 58.485543 357.155353 
L 58.485543 356.204858 
L 63.040878 356.204858 
L 63.040878 355.254363 
L 67.3625 355.254363 
L 67.3625 354.303868 
L 75.392684 354.303868 
L 75.392684 353.353373 
L 98.667905 353.353373 
L 98.667905 352.402877 
L 104.286864 352.402877 
L 104.286864 351.452382 
L 139.349694 351.452382 
L 139.349694 350.501887 
L 147.867362 350.501887 
L 147.867362 349.551392 
L 151.047104 349.551392 
L 151.047104 348.600897 
L 209.446947 348.600897 
L 209.446947 347.650402 
L 215.467591 347.650402 
L 215.467591 346.699907 
L 235.993522 346.699907 
L 235.993522 345.749412 
L 268.235951 345.749412 
L 268.235951 344.798917 
L 307.786696 344.798917 
L 307.786696 343.848422 
L 318.060279 343.848422 
L 318.060279 342.897927 
L 327.023165 342.897927 
L 327.023165 341.947432 
L 345.978166 341.947432 
L 345.978166 340.996937 
L 351.791034 340.996937 
L 351.791034 340.046442 
L 357.363522 340.046442 
L 357.363522 339.095947 
L 357.498219 339.095947 
L 357.498219 338.145452 
L 360.017384 338.145452 
L 360.017384 337.194957 
L 362.336425 337.194957 
L 362.336425 336.244462 
L 364.46953 336.244462 
L 364.46953 335.293967 
L 368.933519 335.293967 
L 368.933519 334.343472 
L 369.635633 334.343472 
L 369.635633 333.392976 
L 371.593758 333.392976 
L 371.593758 332.442481 
L 371.821162 332.442481 
L 371.821162 331.491986 
L 372.274137 331.491986 
L 372.274137 330.541491 
L 375.59598 330.541491 
L 375.59598 328.640501 
L 379.312853 328.640501 
L 379.416677 326.739511 
L 379.933886 326.739511 
L 379.933886 325.789016 
L 380.550376 325.789016 
L 380.550376 324.838521 
L 381.567938 324.838521 
L 381.567938 323.888026 
L 382.27299 323.888026 
L 382.27299 322.937531 
L 383.27008 322.937531 
L 383.27008 321.987036 
L 383.566921 321.987036 
L 383.566921 321.036541 
L 384.353421 321.036541 
L 384.451219 319.135551 
L 384.548904 319.135551 
L 384.548904 318.185056 
L 386.479187 318.185056 
L 386.479187 317.234561 
L 387.522289 317.234561 
L 387.522289 316.284066 
L 389.109376 316.284066 
L 389.109376 315.333571 
L 390.211942 315.333571 
L 390.211942 314.383075 
L 391.300265 314.383075 
L 391.300265 312.482085 
L 391.928687 312.482085 
L 391.928687 311.53159 
L 392.818381 311.53159 
L 392.818381 310.581095 
L 393.698777 310.581095 
L 393.698777 309.6306 
L 394.309626 309.6306 
L 394.309626 308.680105 
L 395.088551 308.680105 
L 395.174656 306.779115 
L 395.432442 306.779115 
L 395.432442 305.82862 
L 395.774935 305.82862 
L 395.774935 304.878125 
L 397.634158 304.878125 
L 397.634158 303.92763 
L 398.217227 303.92763 
L 398.217227 302.977135 
L 398.38308 302.977135 
L 398.38308 302.02664 
L 398.631248 302.02664 
L 398.631248 301.076145 
L 399.7798 301.076145 
L 399.7798 300.12565 
L 400.023894 300.12565 
L 400.023894 299.175155 
L 402.26864 299.175155 
L 402.26864 298.22466 
L 404.686065 298.22466 
L 404.686065 297.274165 
L 405.98288 297.274165 
L 405.98288 296.32367 
L 408.223788 296.32367 
L 408.223788 295.373175 
L 409.685284 295.373175 
L 409.685284 294.422679 
L 411.40626 294.422679 
L 411.40626 293.472184 
L 413.023183 293.472184 
L 413.023183 292.521689 
L 415.357976 292.521689 
L 415.357976 291.571194 
L 415.763365 291.571194 
L 415.763365 290.620699 
L 420.736268 290.620699 
L 420.736268 289.670204 
L 421.49531 289.670204 
L 421.49531 288.719709 
L 422.122664 288.719709 
L 422.122664 287.769214 
L 423.486615 287.769214 
L 423.486615 286.818719 
L 424.221386 286.818719 
L 424.221386 285.868224 
L 424.889342 285.868224 
L 424.889342 284.917729 
L 425.371824 284.917729 
L 425.371824 283.967234 
L 425.671978 283.967234 
L 425.671978 282.066244 
L 425.971067 282.066244 
L 425.971067 281.115749 
L 427.215772 281.115749 
L 427.215772 280.165254 
L 427.977189 280.165254 
L 427.977189 279.214759 
L 428.210094 279.214759 
L 428.210094 278.264264 
L 429.536943 278.264264 
L 429.536943 277.313769 
L 429.70848 277.313769 
L 429.70848 276.363274 
L 431.348909 276.363274 
L 431.348909 275.412778 
L 431.795876 275.412778 
L 431.795876 274.462283 
L 431.962879 274.462283 
L 431.962879 273.511788 
L 433.177559 273.511788 
L 433.177559 272.561293 
L 435.02101 272.561293 
L 435.02101 271.610798 
L 435.288735 271.610798 
L 435.288735 270.660303 
L 436.509432 270.660303 
L 436.509432 269.709808 
L 436.667358 269.709808 
L 436.667358 268.759313 
L 439.815928 268.759313 
L 439.815928 267.808818 
L 441.172853 267.808818 
L 441.172853 266.858323 
L 441.768986 266.858323 
L 441.768986 265.907828 
L 442.360931 265.907828 
L 442.360931 264.957333 
L 442.50827 264.957333 
L 442.50827 263.056343 
L 442.997547 263.056343 
L 442.997547 262.105848 
L 443.532489 262.105848 
L 443.532489 261.155353 
L 444.448555 261.155353 
L 444.448555 260.204858 
L 447.184901 260.204858 
L 447.231309 258.303868 
L 447.324047 258.303868 
L 447.324047 257.353373 
L 450.462585 257.353373 
L 450.462585 256.402877 
L 450.863473 256.402877 
L 450.863473 255.452382 
L 451.350871 255.452382 
L 451.350871 254.501887 
L 451.571487 254.501887 
L 451.571487 253.551392 
L 453.186334 253.551392 
L 453.186334 252.600897 
L 453.359072 252.600897 
L 453.359072 251.650402 
L 453.703491 251.650402 
L 453.703491 250.699907 
L 454.813224 250.699907 
L 454.897986 248.798917 
L 455.530995 248.798917 
L 455.530995 247.848422 
L 456.534021 247.848422 
L 456.534021 246.897927 
L 456.98978 246.897927 
L 456.98978 245.947432 
L 463.008999 245.947432 
L 463.008999 244.996937 
L 463.584109 244.996937 
L 463.584109 244.046442 
L 464.496195 244.046442 
L 464.496195 243.095947 
L 468.302181 243.095947 
L 468.302181 242.145452 
L 468.626718 242.145452 
L 468.6627 240.244462 
L 469.699565 240.244462 
L 469.699565 239.293967 
L 470.124908 239.293967 
L 470.124908 238.343472 
L 470.477728 238.343472 
L 470.477728 237.392976 
L 474.834551 237.392976 
L 474.834551 236.442481 
L 479.611313 236.442481 
L 479.674471 234.541491 
L 479.895153 234.541491 
L 479.895153 233.590996 
L 483.681412 233.590996 
L 483.681412 232.640501 
L 488.308008 232.640501 
L 488.308008 231.690006 
L 491.247859 231.690006 
L 491.247859 230.739511 
L 492.341361 230.739511 
L 492.341361 229.789016 
L 493.206058 229.789016 
L 493.206058 228.838521 
L 500.24305 228.838521 
L 500.24305 227.888026 
L 500.391296 227.888026 
L 500.391296 226.937531 
L 500.883574 226.937531 
L 500.883574 225.987036 
L 501.835322 225.987036 
L 501.835322 225.036541 
L 502.704417 225.036541 
L 502.704417 224.086046 
L 502.704417 224.086046 
L 513.7625 224.086046 
L 513.7625 224.086046 
" style="fill:none;stroke:#000000;stroke-linecap:square;"/>
   </g>
   <g id="line2d_32"/>
   <g id="line2d_33">
    <path clip-path="url(#p2b45133d38)" d="M 391.570163 359.056343 
L 391.570163 358.105848 
L 405.146047 358.105848 
L 405.146047 357.155353 
L 406.134142 357.155353 
L 406.134142 356.204858 
L 406.435855 356.204858 
L 406.435855 355.254363 
L 407.334564 355.254363 
L 407.334564 354.303868 
L 410.62184 354.303868 
L 410.62184 353.353373 
L 411.618931 353.353373 
L 411.618931 352.402877 
L 412.464287 352.402877 
L 412.464287 351.452382 
L 413.231816 351.452382 
L 413.231816 350.501887 
L 414.129973 350.501887 
L 414.129973 349.551392 
L 415.898062 349.551392 
L 415.898062 348.600897 
L 419.970325 348.600897 
L 419.970325 347.650402 
L 421.053367 347.650402 
L 421.053367 346.699907 
L 421.30619 346.699907 
L 421.30619 345.749412 
L 421.809571 345.749412 
L 421.809571 344.798917 
L 498.139742 344.798917 
L 498.139742 343.848422 
L 498.190435 343.848422 
L 498.190435 342.897927 
L 499.920953 342.897927 
L 499.920953 341.947432 
L 502.656368 341.947432 
L 502.656368 340.996937 
L 503.23115 340.996937 
L 503.23115 340.046442 
L 503.588408 340.046442 
L 503.588408 339.095947 
L 504.109661 339.095947 
L 504.109661 338.145452 
L 504.51025 338.145452 
L 504.51025 337.194957 
L 505.677533 337.194957 
L 505.677533 336.244462 
L 506.070754 336.244462 
L 506.070754 335.293967 
L 506.851732 335.293967 
L 506.851732 334.343472 
L 508.279978 334.343472 
L 508.279978 333.392976 
L 510.345056 333.392976 
L 510.345056 332.442481 
L 511.326403 332.442481 
L 511.326403 331.491986 
L 512.017361 331.491986 
L 512.017361 330.541491 
L 512.017361 330.541491 
L 512.017361 330.541491 
L 513.7625 330.541491 
" style="fill:none;stroke:#00bfbf;stroke-linecap:square;"/>
   </g>
   <g id="line2d_34"/>
   <g id="line2d_35">
    <path clip-path="url(#p2b45133d38)" d="M 391.570163 359.056343 
L 391.570163 358.105848 
L 405.98288 358.105848 
L 405.98288 357.155353 
L 406.134142 357.155353 
L 406.134142 356.204858 
L 406.435855 356.204858 
L 406.435855 355.254363 
L 407.334564 355.254363 
L 407.334564 354.303868 
L 411.618931 354.303868 
L 411.618931 353.353373 
L 412.464287 353.353373 
L 412.464287 352.402877 
L 413.231816 352.402877 
L 413.231816 351.452382 
L 414.129973 351.452382 
L 414.129973 350.501887 
L 415.898062 350.501887 
L 415.898062 349.551392 
L 415.96533 349.551392 
L 415.96533 348.600897 
L 419.970325 348.600897 
L 419.970325 347.650402 
L 421.053367 347.650402 
L 421.053367 346.699907 
L 421.30619 346.699907 
L 421.30619 345.749412 
L 421.809571 345.749412 
L 421.809571 344.798917 
L 421.809571 344.798917 
L 421.809571 344.798917 
L 513.7625 344.798917 
" style="fill:none;stroke:#bf00bf;stroke-linecap:square;"/>
   </g>
   <g id="line2d_36"/>
   <g id="line2d_37">
    <path clip-path="url(#p2b45133d38)" d="M 391.570163 359.056343 
L 391.570163 358.105848 
L 405.98288 358.105848 
L 405.98288 357.155353 
L 406.134142 357.155353 
L 406.134142 356.204858 
L 406.435855 356.204858 
L 406.435855 355.254363 
L 407.334564 355.254363 
L 407.334564 354.303868 
L 411.618931 354.303868 
L 411.618931 353.353373 
L 412.464287 353.353373 
L 412.464287 352.402877 
L 413.231816 352.402877 
L 413.231816 351.452382 
L 414.129973 351.452382 
L 414.129973 350.501887 
L 415.898062 350.501887 
L 415.898062 349.551392 
L 415.96533 349.551392 
L 415.96533 348.600897 
L 419.970325 348.600897 
L 419.970325 347.650402 
L 421.053367 347.650402 
L 421.053367 346.699907 
L 421.30619 346.699907 
L 421.30619 345.749412 
L 421.809571 345.749412 
L 421.809571 344.798917 
L 421.809571 344.798917 
L 421.809571 344.798917 
L 513.7625 344.798917 
" style="fill:none;stroke:#ff0000;stroke-linecap:square;stroke-width:3.0;"/>
   </g>
   <g id="line2d_38"/>
   <g id="line2d_39">
    <path clip-path="url(#p2b45133d38)" d="M 513.7625 359.056343 
L 513.7625 13.456343 
" style="fill:none;stroke:#000000;stroke-linecap:square;"/>
   </g>
   <g id="patch_3">
    <path d="M 67.3625 13.456343 
L 513.7625 13.456343 
" style="fill:none;stroke:#000000;stroke-linecap:square;stroke-linejoin:miter;"/>
   </g>
   <g id="patch_4">
    <path d="M 513.7625 359.056343 
L 513.7625 13.456343 
" style="fill:none;stroke:#000000;stroke-linecap:square;stroke-linejoin:miter;"/>
   </g>
   <g id="patch_5">
    <path d="M 67.3625 359.056343 
L 513.7625 359.056343 
" style="fill:none;stroke:#000000;stroke-linecap:square;stroke-linejoin:miter;"/>
   </g>
   <g id="patch_6">
    <path d="M 67.3625 359.056343 
L 67.3625 13.456343 
" style="fill:none;stroke:#000000;stroke-linecap:square;stroke-linejoin:miter;"/>
   </g>
   <g id="matplotlib.axis_1">
    <g id="xtick_1">
     <g id="line2d_40">
      <path clip-path="url(#p2b45133d38)" d="M 67.3625 359.056343 
L 67.3625 13.456343 
" style="fill:none;stroke:#000000;stroke-dasharray:1.000000,3.000000;stroke-dashoffset:0.0;stroke-width:0.5;"/>
     </g>
     <g id="line2d_41">
      <defs>
       <path d="M 0 0 
L 0 -4 
" id="mf5cbe5fa34" style="stroke:#000000;stroke-width:0.5;"/>
      </defs>
      <g>
       <use style="stroke:#000000;stroke-width:0.5;" x="67.3625" xlink:href="#mf5cbe5fa34" y="359.056342822"/>
      </g>
     </g>
     <g id="line2d_42">
      <defs>
       <path d="M 0 0 
L 0 4 
" id="m371b8d328c" style="stroke:#000000;stroke-width:0.5;"/>
      </defs>
      <g>
       <use style="stroke:#000000;stroke-width:0.5;" x="67.3625" xlink:href="#m371b8d328c" y="13.4563428218"/>
      </g>
     </g>
     <g id="text_1">
      <!-- 0 -->
      <defs>
       <path d="M 31.78125 66.40625 
Q 24.171875 66.40625 20.328125 58.90625 
Q 16.5 51.421875 16.5 36.375 
Q 16.5 21.390625 20.328125 13.890625 
Q 24.171875 6.390625 31.78125 6.390625 
Q 39.453125 6.390625 43.28125 13.890625 
Q 47.125 21.390625 47.125 36.375 
Q 47.125 51.421875 43.28125 58.90625 
Q 39.453125 66.40625 31.78125 66.40625 
M 31.78125 74.21875 
Q 44.046875 74.21875 50.515625 64.515625 
Q 56.984375 54.828125 56.984375 36.375 
Q 56.984375 17.96875 50.515625 8.265625 
Q 44.046875 -1.421875 31.78125 -1.421875 
Q 19.53125 -1.421875 13.0625 8.265625 
Q 6.59375 17.96875 6.59375 36.375 
Q 6.59375 54.828125 13.0625 64.515625 
Q 19.53125 74.21875 31.78125 74.21875 
" id="BitstreamVeraSans-Roman-30"/>
      </defs>
      <g transform="translate(61.0 378.253217822)scale(0.2 -0.2)">
       <use xlink:href="#BitstreamVeraSans-Roman-30"/>
      </g>
     </g>
    </g>
    <g id="xtick_2">
     <g id="line2d_43">
      <path clip-path="url(#p2b45133d38)" d="M 261.362579 359.056343 
L 261.362579 13.456343 
" style="fill:none;stroke:#000000;stroke-dasharray:1.000000,3.000000;stroke-dashoffset:0.0;stroke-width:0.5;"/>
     </g>
     <g id="line2d_44">
      <g>
       <use style="stroke:#000000;stroke-width:0.5;" x="261.362578591" xlink:href="#mf5cbe5fa34" y="359.056342822"/>
      </g>
     </g>
     <g id="line2d_45">
      <g>
       <use style="stroke:#000000;stroke-width:0.5;" x="261.362578591" xlink:href="#m371b8d328c" y="13.4563428218"/>
      </g>
     </g>
     <g id="text_2">
      <!-- 1 -->
      <defs>
       <path d="M 12.40625 8.296875 
L 28.515625 8.296875 
L 28.515625 63.921875 
L 10.984375 60.40625 
L 10.984375 69.390625 
L 28.421875 72.90625 
L 38.28125 72.90625 
L 38.28125 8.296875 
L 54.390625 8.296875 
L 54.390625 0 
L 12.40625 0 
z
" id="BitstreamVeraSans-Roman-31"/>
      </defs>
      <g transform="translate(255.000078591 378.253217822)scale(0.2 -0.2)">
       <use xlink:href="#BitstreamVeraSans-Roman-31"/>
      </g>
     </g>
    </g>
    <g id="xtick_3">
     <g id="line2d_46">
      <path clip-path="url(#p2b45133d38)" d="M 455.362657 359.056343 
L 455.362657 13.456343 
" style="fill:none;stroke:#000000;stroke-dasharray:1.000000,3.000000;stroke-dashoffset:0.0;stroke-width:0.5;"/>
     </g>
     <g id="line2d_47">
      <g>
       <use style="stroke:#000000;stroke-width:0.5;" x="455.362657183" xlink:href="#mf5cbe5fa34" y="359.056342822"/>
      </g>
     </g>
     <g id="line2d_48">
      <g>
       <use style="stroke:#000000;stroke-width:0.5;" x="455.362657183" xlink:href="#m371b8d328c" y="13.4563428218"/>
      </g>
     </g>
     <g id="text_3">
      <!-- 2 -->
      <defs>
       <path d="M 19.1875 8.296875 
L 53.609375 8.296875 
L 53.609375 0 
L 7.328125 0 
L 7.328125 8.296875 
Q 12.9375 14.109375 22.625 23.890625 
Q 32.328125 33.6875 34.8125 36.53125 
Q 39.546875 41.84375 41.421875 45.53125 
Q 43.3125 49.21875 43.3125 52.78125 
Q 43.3125 58.59375 39.234375 62.25 
Q 35.15625 65.921875 28.609375 65.921875 
Q 23.96875 65.921875 18.8125 64.3125 
Q 13.671875 62.703125 7.8125 59.421875 
L 7.8125 69.390625 
Q 13.765625 71.78125 18.9375 73 
Q 24.125 74.21875 28.421875 74.21875 
Q 39.75 74.21875 46.484375 68.546875 
Q 53.21875 62.890625 53.21875 53.421875 
Q 53.21875 48.921875 51.53125 44.890625 
Q 49.859375 40.875 45.40625 35.40625 
Q 44.1875 33.984375 37.640625 27.21875 
Q 31.109375 20.453125 19.1875 8.296875 
" id="BitstreamVeraSans-Roman-32"/>
      </defs>
      <g transform="translate(449.000157183 378.253217822)scale(0.2 -0.2)">
       <use xlink:href="#BitstreamVeraSans-Roman-32"/>
      </g>
     </g>
    </g>
    <g id="xtick_4">
     <g id="line2d_49">
      <defs>
       <path d="M 0 0 
L 0 -2 
" id="mcc3abab627" style="stroke:#000000;stroke-width:0.5;"/>
      </defs>
      <g>
       <use style="stroke:#000000;stroke-width:0.5;" x="125.762342817" xlink:href="#mcc3abab627" y="359.056342822"/>
      </g>
     </g>
     <g id="line2d_50">
      <defs>
       <path d="M 0 0 
L 0 2 
" id="m316434c7f5" style="stroke:#000000;stroke-width:0.5;"/>
      </defs>
      <g>
       <use style="stroke:#000000;stroke-width:0.5;" x="125.762342817" xlink:href="#m316434c7f5" y="13.4563428218"/>
      </g>
     </g>
    </g>
    <g id="xtick_5">
     <g id="line2d_51">
      <g>
       <use style="stroke:#000000;stroke-width:0.5;" x="159.924060913" xlink:href="#mcc3abab627" y="359.056342822"/>
      </g>
     </g>
     <g id="line2d_52">
      <g>
       <use style="stroke:#000000;stroke-width:0.5;" x="159.924060913" xlink:href="#m316434c7f5" y="13.4563428218"/>
      </g>
     </g>
    </g>
    <g id="xtick_6">
     <g id="line2d_53">
      <g>
       <use style="stroke:#000000;stroke-width:0.5;" x="184.162185634" xlink:href="#mcc3abab627" y="359.056342822"/>
      </g>
     </g>
     <g id="line2d_54">
      <g>
       <use style="stroke:#000000;stroke-width:0.5;" x="184.162185634" xlink:href="#m316434c7f5" y="13.4563428218"/>
      </g>
     </g>
    </g>
    <g id="xtick_7">
     <g id="line2d_55">
      <g>
       <use style="stroke:#000000;stroke-width:0.5;" x="202.962735774" xlink:href="#mcc3abab627" y="359.056342822"/>
      </g>
     </g>
     <g id="line2d_56">
      <g>
       <use style="stroke:#000000;stroke-width:0.5;" x="202.962735774" xlink:href="#m316434c7f5" y="13.4563428218"/>
      </g>
     </g>
    </g>
    <g id="xtick_8">
     <g id="line2d_57">
      <g>
       <use style="stroke:#000000;stroke-width:0.5;" x="218.32390373" xlink:href="#mcc3abab627" y="359.056342822"/>
      </g>
     </g>
     <g id="line2d_58">
      <g>
       <use style="stroke:#000000;stroke-width:0.5;" x="218.32390373" xlink:href="#m316434c7f5" y="13.4563428218"/>
      </g>
     </g>
    </g>
    <g id="xtick_9">
     <g id="line2d_59">
      <g>
       <use style="stroke:#000000;stroke-width:0.5;" x="231.31158618" xlink:href="#mcc3abab627" y="359.056342822"/>
      </g>
     </g>
     <g id="line2d_60">
      <g>
       <use style="stroke:#000000;stroke-width:0.5;" x="231.31158618" xlink:href="#m316434c7f5" y="13.4563428218"/>
      </g>
     </g>
    </g>
    <g id="xtick_10">
     <g id="line2d_61">
      <g>
       <use style="stroke:#000000;stroke-width:0.5;" x="242.562028452" xlink:href="#mcc3abab627" y="359.056342822"/>
      </g>
     </g>
     <g id="line2d_62">
      <g>
       <use style="stroke:#000000;stroke-width:0.5;" x="242.562028452" xlink:href="#m316434c7f5" y="13.4563428218"/>
      </g>
     </g>
    </g>
    <g id="xtick_11">
     <g id="line2d_63">
      <g>
       <use style="stroke:#000000;stroke-width:0.5;" x="252.485621826" xlink:href="#mcc3abab627" y="359.056342822"/>
      </g>
     </g>
     <g id="line2d_64">
      <g>
       <use style="stroke:#000000;stroke-width:0.5;" x="252.485621826" xlink:href="#m316434c7f5" y="13.4563428218"/>
      </g>
     </g>
    </g>
    <g id="xtick_12">
     <g id="line2d_65">
      <g>
       <use style="stroke:#000000;stroke-width:0.5;" x="319.762421409" xlink:href="#mcc3abab627" y="359.056342822"/>
      </g>
     </g>
     <g id="line2d_66">
      <g>
       <use style="stroke:#000000;stroke-width:0.5;" x="319.762421409" xlink:href="#m316434c7f5" y="13.4563428218"/>
      </g>
     </g>
    </g>
    <g id="xtick_13">
     <g id="line2d_67">
      <g>
       <use style="stroke:#000000;stroke-width:0.5;" x="353.924139505" xlink:href="#mcc3abab627" y="359.056342822"/>
      </g>
     </g>
     <g id="line2d_68">
      <g>
       <use style="stroke:#000000;stroke-width:0.5;" x="353.924139505" xlink:href="#m316434c7f5" y="13.4563428218"/>
      </g>
     </g>
    </g>
    <g id="xtick_14">
     <g id="line2d_69">
      <g>
       <use style="stroke:#000000;stroke-width:0.5;" x="378.162264226" xlink:href="#mcc3abab627" y="359.056342822"/>
      </g>
     </g>
     <g id="line2d_70">
      <g>
       <use style="stroke:#000000;stroke-width:0.5;" x="378.162264226" xlink:href="#m316434c7f5" y="13.4563428218"/>
      </g>
     </g>
    </g>
    <g id="xtick_15">
     <g id="line2d_71">
      <g>
       <use style="stroke:#000000;stroke-width:0.5;" x="396.962814366" xlink:href="#mcc3abab627" y="359.056342822"/>
      </g>
     </g>
     <g id="line2d_72">
      <g>
       <use style="stroke:#000000;stroke-width:0.5;" x="396.962814366" xlink:href="#m316434c7f5" y="13.4563428218"/>
      </g>
     </g>
    </g>
    <g id="xtick_16">
     <g id="line2d_73">
      <g>
       <use style="stroke:#000000;stroke-width:0.5;" x="412.323982322" xlink:href="#mcc3abab627" y="359.056342822"/>
      </g>
     </g>
     <g id="line2d_74">
      <g>
       <use style="stroke:#000000;stroke-width:0.5;" x="412.323982322" xlink:href="#m316434c7f5" y="13.4563428218"/>
      </g>
     </g>
    </g>
    <g id="xtick_17">
     <g id="line2d_75">
      <g>
       <use style="stroke:#000000;stroke-width:0.5;" x="425.311664772" xlink:href="#mcc3abab627" y="359.056342822"/>
      </g>
     </g>
     <g id="line2d_76">
      <g>
       <use style="stroke:#000000;stroke-width:0.5;" x="425.311664772" xlink:href="#m316434c7f5" y="13.4563428218"/>
      </g>
     </g>
    </g>
    <g id="xtick_18">
     <g id="line2d_77">
      <g>
       <use style="stroke:#000000;stroke-width:0.5;" x="436.562107043" xlink:href="#mcc3abab627" y="359.056342822"/>
      </g>
     </g>
     <g id="line2d_78">
      <g>
       <use style="stroke:#000000;stroke-width:0.5;" x="436.562107043" xlink:href="#m316434c7f5" y="13.4563428218"/>
      </g>
     </g>
    </g>
    <g id="xtick_19">
     <g id="line2d_79">
      <g>
       <use style="stroke:#000000;stroke-width:0.5;" x="446.485700418" xlink:href="#mcc3abab627" y="359.056342822"/>
      </g>
     </g>
     <g id="line2d_80">
      <g>
       <use style="stroke:#000000;stroke-width:0.5;" x="446.485700418" xlink:href="#m316434c7f5" y="13.4563428218"/>
      </g>
     </g>
    </g>
    <g id="xtick_20">
     <g id="line2d_81">
      <g>
       <use style="stroke:#000000;stroke-width:0.5;" x="513.7625" xlink:href="#mcc3abab627" y="359.056342822"/>
      </g>
     </g>
     <g id="line2d_82">
      <g>
       <use style="stroke:#000000;stroke-width:0.5;" x="513.7625" xlink:href="#m316434c7f5" y="13.4563428218"/>
      </g>
     </g>
    </g>
    <g id="text_4">
     <!-- log10 of FEvals / DIM -->
     <defs>
      <path id="BitstreamVeraSans-Roman-20"/>
      <path d="M 9.8125 72.90625 
L 24.515625 72.90625 
L 43.109375 23.296875 
L 61.8125 72.90625 
L 76.515625 72.90625 
L 76.515625 0 
L 66.890625 0 
L 66.890625 64.015625 
L 48.09375 14.015625 
L 38.1875 14.015625 
L 19.390625 64.015625 
L 19.390625 0 
L 9.8125 0 
z
" id="BitstreamVeraSans-Roman-4d"/>
      <path d="M 30.609375 48.390625 
Q 23.390625 48.390625 19.1875 42.75 
Q 14.984375 37.109375 14.984375 27.296875 
Q 14.984375 17.484375 19.15625 11.84375 
Q 23.34375 6.203125 30.609375 6.203125 
Q 37.796875 6.203125 41.984375 11.859375 
Q 46.1875 17.53125 46.1875 27.296875 
Q 46.1875 37.015625 41.984375 42.703125 
Q 37.796875 48.390625 30.609375 48.390625 
M 30.609375 56 
Q 42.328125 56 49.015625 48.375 
Q 55.71875 40.765625 55.71875 27.296875 
Q 55.71875 13.875 49.015625 6.21875 
Q 42.328125 -1.421875 30.609375 -1.421875 
Q 18.84375 -1.421875 12.171875 6.21875 
Q 5.515625 13.875 5.515625 27.296875 
Q 5.515625 40.765625 12.171875 48.375 
Q 18.84375 56 30.609375 56 
" id="BitstreamVeraSans-Roman-6f"/>
      <path d="M 9.421875 75.984375 
L 18.40625 75.984375 
L 18.40625 0 
L 9.421875 0 
z
" id="BitstreamVeraSans-Roman-6c"/>
      <path d="M 9.8125 72.90625 
L 51.703125 72.90625 
L 51.703125 64.59375 
L 19.671875 64.59375 
L 19.671875 43.109375 
L 48.578125 43.109375 
L 48.578125 34.8125 
L 19.671875 34.8125 
L 19.671875 0 
L 9.8125 0 
z
" id="BitstreamVeraSans-Roman-46"/>
      <path d="M 9.8125 72.90625 
L 55.90625 72.90625 
L 55.90625 64.59375 
L 19.671875 64.59375 
L 19.671875 43.015625 
L 54.390625 43.015625 
L 54.390625 34.71875 
L 19.671875 34.71875 
L 19.671875 8.296875 
L 56.78125 8.296875 
L 56.78125 0 
L 9.8125 0 
z
" id="BitstreamVeraSans-Roman-45"/>
      <path d="M 19.671875 64.796875 
L 19.671875 8.109375 
L 31.59375 8.109375 
Q 46.6875 8.109375 53.6875 14.9375 
Q 60.6875 21.78125 60.6875 36.53125 
Q 60.6875 51.171875 53.6875 57.984375 
Q 46.6875 64.796875 31.59375 64.796875 
z
M 9.8125 72.90625 
L 30.078125 72.90625 
Q 51.265625 72.90625 61.171875 64.09375 
Q 71.09375 55.28125 71.09375 36.53125 
Q 71.09375 17.671875 61.125 8.828125 
Q 51.171875 0 30.078125 0 
L 9.8125 0 
z
" id="BitstreamVeraSans-Roman-44"/>
      <path d="M 25.390625 72.90625 
L 33.6875 72.90625 
L 8.296875 -9.28125 
L 0 -9.28125 
z
" id="BitstreamVeraSans-Roman-2f"/>
      <path d="M 2.984375 54.6875 
L 12.5 54.6875 
L 29.59375 8.796875 
L 46.6875 54.6875 
L 56.203125 54.6875 
L 35.6875 0 
L 23.484375 0 
z
" id="BitstreamVeraSans-Roman-76"/>
      <path d="M 45.40625 27.984375 
Q 45.40625 37.75 41.375 43.109375 
Q 37.359375 48.484375 30.078125 48.484375 
Q 22.859375 48.484375 18.828125 43.109375 
Q 14.796875 37.75 14.796875 27.984375 
Q 14.796875 18.265625 18.828125 12.890625 
Q 22.859375 7.515625 30.078125 7.515625 
Q 37.359375 7.515625 41.375 12.890625 
Q 45.40625 18.265625 45.40625 27.984375 
M 54.390625 6.78125 
Q 54.390625 -7.171875 48.1875 -13.984375 
Q 42 -20.796875 29.203125 -20.796875 
Q 24.46875 -20.796875 20.265625 -20.09375 
Q 16.0625 -19.390625 12.109375 -17.921875 
L 12.109375 -9.1875 
Q 16.0625 -11.328125 19.921875 -12.34375 
Q 23.78125 -13.375 27.78125 -13.375 
Q 36.625 -13.375 41.015625 -8.765625 
Q 45.40625 -4.15625 45.40625 5.171875 
L 45.40625 9.625 
Q 42.625 4.78125 38.28125 2.390625 
Q 33.9375 0 27.875 0 
Q 17.828125 0 11.671875 7.65625 
Q 5.515625 15.328125 5.515625 27.984375 
Q 5.515625 40.671875 11.671875 48.328125 
Q 17.828125 56 27.875 56 
Q 33.9375 56 38.28125 53.609375 
Q 42.625 51.21875 45.40625 46.390625 
L 45.40625 54.6875 
L 54.390625 54.6875 
z
" id="BitstreamVeraSans-Roman-67"/>
      <path d="M 37.109375 75.984375 
L 37.109375 68.5 
L 28.515625 68.5 
Q 23.6875 68.5 21.796875 66.546875 
Q 19.921875 64.59375 19.921875 59.515625 
L 19.921875 54.6875 
L 34.71875 54.6875 
L 34.71875 47.703125 
L 19.921875 47.703125 
L 19.921875 0 
L 10.890625 0 
L 10.890625 47.703125 
L 2.296875 47.703125 
L 2.296875 54.6875 
L 10.890625 54.6875 
L 10.890625 58.5 
Q 10.890625 67.625 15.140625 71.796875 
Q 19.390625 75.984375 28.609375 75.984375 
z
" id="BitstreamVeraSans-Roman-66"/>
      <path d="M 34.28125 27.484375 
Q 23.390625 27.484375 19.1875 25 
Q 14.984375 22.515625 14.984375 16.5 
Q 14.984375 11.71875 18.140625 8.90625 
Q 21.296875 6.109375 26.703125 6.109375 
Q 34.1875 6.109375 38.703125 11.40625 
Q 43.21875 16.703125 43.21875 25.484375 
L 43.21875 27.484375 
z
M 52.203125 31.203125 
L 52.203125 0 
L 43.21875 0 
L 43.21875 8.296875 
Q 40.140625 3.328125 35.546875 0.953125 
Q 30.953125 -1.421875 24.3125 -1.421875 
Q 15.921875 -1.421875 10.953125 3.296875 
Q 6 8.015625 6 15.921875 
Q 6 25.140625 12.171875 29.828125 
Q 18.359375 34.515625 30.609375 34.515625 
L 43.21875 34.515625 
L 43.21875 35.40625 
Q 43.21875 41.609375 39.140625 45 
Q 35.0625 48.390625 27.6875 48.390625 
Q 23 48.390625 18.546875 47.265625 
Q 14.109375 46.140625 10.015625 43.890625 
L 10.015625 52.203125 
Q 14.9375 54.109375 19.578125 55.046875 
Q 24.21875 56 28.609375 56 
Q 40.484375 56 46.34375 49.84375 
Q 52.203125 43.703125 52.203125 31.203125 
" id="BitstreamVeraSans-Roman-61"/>
      <path d="M 44.28125 53.078125 
L 44.28125 44.578125 
Q 40.484375 46.53125 36.375 47.5 
Q 32.28125 48.484375 27.875 48.484375 
Q 21.1875 48.484375 17.84375 46.4375 
Q 14.5 44.390625 14.5 40.28125 
Q 14.5 37.15625 16.890625 35.375 
Q 19.28125 33.59375 26.515625 31.984375 
L 29.59375 31.296875 
Q 39.15625 29.25 43.1875 25.515625 
Q 47.21875 21.78125 47.21875 15.09375 
Q 47.21875 7.46875 41.1875 3.015625 
Q 35.15625 -1.421875 24.609375 -1.421875 
Q 20.21875 -1.421875 15.453125 -0.5625 
Q 10.6875 0.296875 5.421875 2 
L 5.421875 11.28125 
Q 10.40625 8.6875 15.234375 7.390625 
Q 20.0625 6.109375 24.8125 6.109375 
Q 31.15625 6.109375 34.5625 8.28125 
Q 37.984375 10.453125 37.984375 14.40625 
Q 37.984375 18.0625 35.515625 20.015625 
Q 33.0625 21.96875 24.703125 23.78125 
L 21.578125 24.515625 
Q 13.234375 26.265625 9.515625 29.90625 
Q 5.8125 33.546875 5.8125 39.890625 
Q 5.8125 47.609375 11.28125 51.796875 
Q 16.75 56 26.8125 56 
Q 31.78125 56 36.171875 55.265625 
Q 40.578125 54.546875 44.28125 53.078125 
" id="BitstreamVeraSans-Roman-73"/>
      <path d="M 9.8125 72.90625 
L 19.671875 72.90625 
L 19.671875 0 
L 9.8125 0 
z
" id="BitstreamVeraSans-Roman-49"/>
     </defs>
     <g transform="translate(185.4890625 402.609467822)scale(0.2 -0.2)">
      <use xlink:href="#BitstreamVeraSans-Roman-6c"/>
      <use x="27.783203125" xlink:href="#BitstreamVeraSans-Roman-6f"/>
      <use x="88.96484375" xlink:href="#BitstreamVeraSans-Roman-67"/>
      <use x="152.44140625" xlink:href="#BitstreamVeraSans-Roman-31"/>
      <use x="216.064453125" xlink:href="#BitstreamVeraSans-Roman-30"/>
      <use x="279.6875" xlink:href="#BitstreamVeraSans-Roman-20"/>
      <use x="311.474609375" xlink:href="#BitstreamVeraSans-Roman-6f"/>
      <use x="372.65625" xlink:href="#BitstreamVeraSans-Roman-66"/>
      <use x="407.861328125" xlink:href="#BitstreamVeraSans-Roman-20"/>
      <use x="439.6484375" xlink:href="#BitstreamVeraSans-Roman-46"/>
      <use x="497.16796875" xlink:href="#BitstreamVeraSans-Roman-45"/>
      <use x="560.3515625" xlink:href="#BitstreamVeraSans-Roman-76"/>
      <use x="619.53125" xlink:href="#BitstreamVeraSans-Roman-61"/>
      <use x="680.810546875" xlink:href="#BitstreamVeraSans-Roman-6c"/>
      <use x="708.59375" xlink:href="#BitstreamVeraSans-Roman-73"/>
      <use x="760.693359375" xlink:href="#BitstreamVeraSans-Roman-20"/>
      <use x="792.48046875" xlink:href="#BitstreamVeraSans-Roman-2f"/>
      <use x="826.171875" xlink:href="#BitstreamVeraSans-Roman-20"/>
      <use x="857.958984375" xlink:href="#BitstreamVeraSans-Roman-44"/>
      <use x="934.9609375" xlink:href="#BitstreamVeraSans-Roman-49"/>
      <use x="964.453125" xlink:href="#BitstreamVeraSans-Roman-4d"/>
     </g>
    </g>
   </g>
   <g id="matplotlib.axis_2">
    <g id="ytick_1">
     <g id="line2d_83">
      <path clip-path="url(#p2b45133d38)" d="M 67.3625 359.056343 
L 513.7625 359.056343 
" style="fill:none;stroke:#000000;stroke-dasharray:1.000000,3.000000;stroke-dashoffset:0.0;stroke-width:0.5;"/>
     </g>
     <g id="line2d_84">
      <defs>
       <path d="M 0 0 
L 4 0 
" id="m69026c0a5c" style="stroke:#000000;stroke-width:0.5;"/>
      </defs>
      <g>
       <use style="stroke:#000000;stroke-width:0.5;" x="67.3625" xlink:href="#m69026c0a5c" y="359.056342822"/>
      </g>
     </g>
     <g id="line2d_85">
      <defs>
       <path d="M 0 0 
L -4 0 
" id="m86dcce6737" style="stroke:#000000;stroke-width:0.5;"/>
      </defs>
      <g>
       <use style="stroke:#000000;stroke-width:0.5;" x="513.7625" xlink:href="#m86dcce6737" y="359.056342822"/>
      </g>
     </g>
     <g id="text_5">
      <!-- 0.0 -->
      <defs>
       <path d="M 10.6875 12.40625 
L 21 12.40625 
L 21 0 
L 10.6875 0 
z
" id="BitstreamVeraSans-Roman-2e"/>
      </defs>
      <g transform="translate(31.55625 364.575092822)scale(0.2 -0.2)">
       <use xlink:href="#BitstreamVeraSans-Roman-30"/>
       <use x="63.623046875" xlink:href="#BitstreamVeraSans-Roman-2e"/>
       <use x="95.41015625" xlink:href="#BitstreamVeraSans-Roman-30"/>
      </g>
     </g>
    </g>
    <g id="ytick_2">
     <g id="line2d_86">
      <path clip-path="url(#p2b45133d38)" d="M 67.3625 290.620699 
L 513.7625 290.620699 
" style="fill:none;stroke:#000000;stroke-dasharray:1.000000,3.000000;stroke-dashoffset:0.0;stroke-width:0.5;"/>
     </g>
     <g id="line2d_87">
      <g>
       <use style="stroke:#000000;stroke-width:0.5;" x="67.3625" xlink:href="#m69026c0a5c" y="290.620699257"/>
      </g>
     </g>
     <g id="line2d_88">
      <g>
       <use style="stroke:#000000;stroke-width:0.5;" x="513.7625" xlink:href="#m86dcce6737" y="290.620699257"/>
      </g>
     </g>
     <g id="text_6">
      <!-- 0.2 -->
      <g transform="translate(31.55625 296.139449257)scale(0.2 -0.2)">
       <use xlink:href="#BitstreamVeraSans-Roman-30"/>
       <use x="63.623046875" xlink:href="#BitstreamVeraSans-Roman-2e"/>
       <use x="95.41015625" xlink:href="#BitstreamVeraSans-Roman-32"/>
      </g>
     </g>
    </g>
    <g id="ytick_3">
     <g id="line2d_89">
      <path clip-path="url(#p2b45133d38)" d="M 67.3625 222.185056 
L 513.7625 222.185056 
" style="fill:none;stroke:#000000;stroke-dasharray:1.000000,3.000000;stroke-dashoffset:0.0;stroke-width:0.5;"/>
     </g>
     <g id="line2d_90">
      <g>
       <use style="stroke:#000000;stroke-width:0.5;" x="67.3625" xlink:href="#m69026c0a5c" y="222.185055693"/>
      </g>
     </g>
     <g id="line2d_91">
      <g>
       <use style="stroke:#000000;stroke-width:0.5;" x="513.7625" xlink:href="#m86dcce6737" y="222.185055693"/>
      </g>
     </g>
     <g id="text_7">
      <!-- 0.4 -->
      <defs>
       <path d="M 37.796875 64.3125 
L 12.890625 25.390625 
L 37.796875 25.390625 
z
M 35.203125 72.90625 
L 47.609375 72.90625 
L 47.609375 25.390625 
L 58.015625 25.390625 
L 58.015625 17.1875 
L 47.609375 17.1875 
L 47.609375 0 
L 37.796875 0 
L 37.796875 17.1875 
L 4.890625 17.1875 
L 4.890625 26.703125 
z
" id="BitstreamVeraSans-Roman-34"/>
      </defs>
      <g transform="translate(31.55625 227.703805693)scale(0.2 -0.2)">
       <use xlink:href="#BitstreamVeraSans-Roman-30"/>
       <use x="63.623046875" xlink:href="#BitstreamVeraSans-Roman-2e"/>
       <use x="95.41015625" xlink:href="#BitstreamVeraSans-Roman-34"/>
      </g>
     </g>
    </g>
    <g id="ytick_4">
     <g id="line2d_92">
      <path clip-path="url(#p2b45133d38)" d="M 67.3625 153.749412 
L 513.7625 153.749412 
" style="fill:none;stroke:#000000;stroke-dasharray:1.000000,3.000000;stroke-dashoffset:0.0;stroke-width:0.5;"/>
     </g>
     <g id="line2d_93">
      <g>
       <use style="stroke:#000000;stroke-width:0.5;" x="67.3625" xlink:href="#m69026c0a5c" y="153.749412129"/>
      </g>
     </g>
     <g id="line2d_94">
      <g>
       <use style="stroke:#000000;stroke-width:0.5;" x="513.7625" xlink:href="#m86dcce6737" y="153.749412129"/>
      </g>
     </g>
     <g id="text_8">
      <!-- 0.6 -->
      <defs>
       <path d="M 33.015625 40.375 
Q 26.375 40.375 22.484375 35.828125 
Q 18.609375 31.296875 18.609375 23.390625 
Q 18.609375 15.53125 22.484375 10.953125 
Q 26.375 6.390625 33.015625 6.390625 
Q 39.65625 6.390625 43.53125 10.953125 
Q 47.40625 15.53125 47.40625 23.390625 
Q 47.40625 31.296875 43.53125 35.828125 
Q 39.65625 40.375 33.015625 40.375 
M 52.59375 71.296875 
L 52.59375 62.3125 
Q 48.875 64.0625 45.09375 64.984375 
Q 41.3125 65.921875 37.59375 65.921875 
Q 27.828125 65.921875 22.671875 59.328125 
Q 17.53125 52.734375 16.796875 39.40625 
Q 19.671875 43.65625 24.015625 45.921875 
Q 28.375 48.1875 33.59375 48.1875 
Q 44.578125 48.1875 50.953125 41.515625 
Q 57.328125 34.859375 57.328125 23.390625 
Q 57.328125 12.15625 50.6875 5.359375 
Q 44.046875 -1.421875 33.015625 -1.421875 
Q 20.359375 -1.421875 13.671875 8.265625 
Q 6.984375 17.96875 6.984375 36.375 
Q 6.984375 53.65625 15.1875 63.9375 
Q 23.390625 74.21875 37.203125 74.21875 
Q 40.921875 74.21875 44.703125 73.484375 
Q 48.484375 72.75 52.59375 71.296875 
" id="BitstreamVeraSans-Roman-36"/>
      </defs>
      <g transform="translate(31.55625 159.268162129)scale(0.2 -0.2)">
       <use xlink:href="#BitstreamVeraSans-Roman-30"/>
       <use x="63.623046875" xlink:href="#BitstreamVeraSans-Roman-2e"/>
       <use x="95.41015625" xlink:href="#BitstreamVeraSans-Roman-36"/>
      </g>
     </g>
    </g>
    <g id="ytick_5">
     <g id="line2d_95">
      <path clip-path="url(#p2b45133d38)" d="M 67.3625 85.313769 
L 513.7625 85.313769 
" style="fill:none;stroke:#000000;stroke-dasharray:1.000000,3.000000;stroke-dashoffset:0.0;stroke-width:0.5;"/>
     </g>
     <g id="line2d_96">
      <g>
       <use style="stroke:#000000;stroke-width:0.5;" x="67.3625" xlink:href="#m69026c0a5c" y="85.3137685644"/>
      </g>
     </g>
     <g id="line2d_97">
      <g>
       <use style="stroke:#000000;stroke-width:0.5;" x="513.7625" xlink:href="#m86dcce6737" y="85.3137685644"/>
      </g>
     </g>
     <g id="text_9">
      <!-- 0.8 -->
      <defs>
       <path d="M 31.78125 34.625 
Q 24.75 34.625 20.71875 30.859375 
Q 16.703125 27.09375 16.703125 20.515625 
Q 16.703125 13.921875 20.71875 10.15625 
Q 24.75 6.390625 31.78125 6.390625 
Q 38.8125 6.390625 42.859375 10.171875 
Q 46.921875 13.96875 46.921875 20.515625 
Q 46.921875 27.09375 42.890625 30.859375 
Q 38.875 34.625 31.78125 34.625 
M 21.921875 38.8125 
Q 15.578125 40.375 12.03125 44.71875 
Q 8.5 49.078125 8.5 55.328125 
Q 8.5 64.0625 14.71875 69.140625 
Q 20.953125 74.21875 31.78125 74.21875 
Q 42.671875 74.21875 48.875 69.140625 
Q 55.078125 64.0625 55.078125 55.328125 
Q 55.078125 49.078125 51.53125 44.71875 
Q 48 40.375 41.703125 38.8125 
Q 48.828125 37.15625 52.796875 32.3125 
Q 56.78125 27.484375 56.78125 20.515625 
Q 56.78125 9.90625 50.3125 4.234375 
Q 43.84375 -1.421875 31.78125 -1.421875 
Q 19.734375 -1.421875 13.25 4.234375 
Q 6.78125 9.90625 6.78125 20.515625 
Q 6.78125 27.484375 10.78125 32.3125 
Q 14.796875 37.15625 21.921875 38.8125 
M 18.3125 54.390625 
Q 18.3125 48.734375 21.84375 45.5625 
Q 25.390625 42.390625 31.78125 42.390625 
Q 38.140625 42.390625 41.71875 45.5625 
Q 45.3125 48.734375 45.3125 54.390625 
Q 45.3125 60.0625 41.71875 63.234375 
Q 38.140625 66.40625 31.78125 66.40625 
Q 25.390625 66.40625 21.84375 63.234375 
Q 18.3125 60.0625 18.3125 54.390625 
" id="BitstreamVeraSans-Roman-38"/>
      </defs>
      <g transform="translate(31.55625 90.8325185644)scale(0.2 -0.2)">
       <use xlink:href="#BitstreamVeraSans-Roman-30"/>
       <use x="63.623046875" xlink:href="#BitstreamVeraSans-Roman-2e"/>
       <use x="95.41015625" xlink:href="#BitstreamVeraSans-Roman-38"/>
      </g>
     </g>
    </g>
    <g id="ytick_6">
     <g id="line2d_98">
      <path clip-path="url(#p2b45133d38)" d="M 67.3625 16.878125 
L 513.7625 16.878125 
" style="fill:none;stroke:#000000;stroke-dasharray:1.000000,3.000000;stroke-dashoffset:0.0;stroke-width:0.5;"/>
     </g>
     <g id="line2d_99">
      <g>
       <use style="stroke:#000000;stroke-width:0.5;" x="67.3625" xlink:href="#m69026c0a5c" y="16.878125"/>
      </g>
     </g>
     <g id="line2d_100">
      <g>
       <use style="stroke:#000000;stroke-width:0.5;" x="513.7625" xlink:href="#m86dcce6737" y="16.878125"/>
      </g>
     </g>
     <g id="text_10">
      <!-- 1.0 -->
      <g transform="translate(31.55625 22.396875)scale(0.2 -0.2)">
       <use xlink:href="#BitstreamVeraSans-Roman-31"/>
       <use x="63.623046875" xlink:href="#BitstreamVeraSans-Roman-2e"/>
       <use x="95.41015625" xlink:href="#BitstreamVeraSans-Roman-30"/>
      </g>
     </g>
    </g>
    <g id="text_11">
     <!-- proportion of trials -->
     <defs>
      <path d="M 54.890625 33.015625 
L 54.890625 0 
L 45.90625 0 
L 45.90625 32.71875 
Q 45.90625 40.484375 42.875 44.328125 
Q 39.84375 48.1875 33.796875 48.1875 
Q 26.515625 48.1875 22.3125 43.546875 
Q 18.109375 38.921875 18.109375 30.90625 
L 18.109375 0 
L 9.078125 0 
L 9.078125 54.6875 
L 18.109375 54.6875 
L 18.109375 46.1875 
Q 21.34375 51.125 25.703125 53.5625 
Q 30.078125 56 35.796875 56 
Q 45.21875 56 50.046875 50.171875 
Q 54.890625 44.34375 54.890625 33.015625 
" id="BitstreamVeraSans-Roman-6e"/>
      <path d="M 9.421875 54.6875 
L 18.40625 54.6875 
L 18.40625 0 
L 9.421875 0 
z
M 9.421875 75.984375 
L 18.40625 75.984375 
L 18.40625 64.59375 
L 9.421875 64.59375 
z
" id="BitstreamVeraSans-Roman-69"/>
      <path d="M 18.3125 70.21875 
L 18.3125 54.6875 
L 36.8125 54.6875 
L 36.8125 47.703125 
L 18.3125 47.703125 
L 18.3125 18.015625 
Q 18.3125 11.328125 20.140625 9.421875 
Q 21.96875 7.515625 27.59375 7.515625 
L 36.8125 7.515625 
L 36.8125 0 
L 27.59375 0 
Q 17.1875 0 13.234375 3.875 
Q 9.28125 7.765625 9.28125 18.015625 
L 9.28125 47.703125 
L 2.6875 47.703125 
L 2.6875 54.6875 
L 9.28125 54.6875 
L 9.28125 70.21875 
z
" id="BitstreamVeraSans-Roman-74"/>
      <path d="M 41.109375 46.296875 
Q 39.59375 47.171875 37.8125 47.578125 
Q 36.03125 48 33.890625 48 
Q 26.265625 48 22.1875 43.046875 
Q 18.109375 38.09375 18.109375 28.8125 
L 18.109375 0 
L 9.078125 0 
L 9.078125 54.6875 
L 18.109375 54.6875 
L 18.109375 46.1875 
Q 20.953125 51.171875 25.484375 53.578125 
Q 30.03125 56 36.53125 56 
Q 37.453125 56 38.578125 55.875 
Q 39.703125 55.765625 41.0625 55.515625 
z
" id="BitstreamVeraSans-Roman-72"/>
      <path d="M 18.109375 8.203125 
L 18.109375 -20.796875 
L 9.078125 -20.796875 
L 9.078125 54.6875 
L 18.109375 54.6875 
L 18.109375 46.390625 
Q 20.953125 51.265625 25.265625 53.625 
Q 29.59375 56 35.59375 56 
Q 45.5625 56 51.78125 48.09375 
Q 58.015625 40.1875 58.015625 27.296875 
Q 58.015625 14.40625 51.78125 6.484375 
Q 45.5625 -1.421875 35.59375 -1.421875 
Q 29.59375 -1.421875 25.265625 0.953125 
Q 20.953125 3.328125 18.109375 8.203125 
M 48.6875 27.296875 
Q 48.6875 37.203125 44.609375 42.84375 
Q 40.53125 48.484375 33.40625 48.484375 
Q 26.265625 48.484375 22.1875 42.84375 
Q 18.109375 37.203125 18.109375 27.296875 
Q 18.109375 17.390625 22.1875 11.75 
Q 26.265625 6.109375 33.40625 6.109375 
Q 40.53125 6.109375 44.609375 11.75 
Q 48.6875 17.390625 48.6875 27.296875 
" id="BitstreamVeraSans-Roman-70"/>
     </defs>
     <g transform="translate(22.396875 279.484467822)rotate(-90.0)scale(0.2 -0.2)">
      <use xlink:href="#BitstreamVeraSans-Roman-70"/>
      <use x="63.4765625" xlink:href="#BitstreamVeraSans-Roman-72"/>
      <use x="104.55859375" xlink:href="#BitstreamVeraSans-Roman-6f"/>
      <use x="165.740234375" xlink:href="#BitstreamVeraSans-Roman-70"/>
      <use x="229.216796875" xlink:href="#BitstreamVeraSans-Roman-6f"/>
      <use x="290.3984375" xlink:href="#BitstreamVeraSans-Roman-72"/>
      <use x="331.51171875" xlink:href="#BitstreamVeraSans-Roman-74"/>
      <use x="370.720703125" xlink:href="#BitstreamVeraSans-Roman-69"/>
      <use x="398.50390625" xlink:href="#BitstreamVeraSans-Roman-6f"/>
      <use x="459.685546875" xlink:href="#BitstreamVeraSans-Roman-6e"/>
      <use x="523.064453125" xlink:href="#BitstreamVeraSans-Roman-20"/>
      <use x="554.8515625" xlink:href="#BitstreamVeraSans-Roman-6f"/>
      <use x="616.033203125" xlink:href="#BitstreamVeraSans-Roman-66"/>
      <use x="651.23828125" xlink:href="#BitstreamVeraSans-Roman-20"/>
      <use x="683.025390625" xlink:href="#BitstreamVeraSans-Roman-74"/>
      <use x="722.234375" xlink:href="#BitstreamVeraSans-Roman-72"/>
      <use x="763.34765625" xlink:href="#BitstreamVeraSans-Roman-69"/>
      <use x="791.130859375" xlink:href="#BitstreamVeraSans-Roman-61"/>
      <use x="852.41015625" xlink:href="#BitstreamVeraSans-Roman-6c"/>
      <use x="880.193359375" xlink:href="#BitstreamVeraSans-Roman-73"/>
     </g>
    </g>
   </g>
   <g id="text_12">
    <!-- {f1-f24}, 20-D -->
    <defs>
     <path d="M 11.71875 12.40625 
L 22.015625 12.40625 
L 22.015625 4 
L 14.015625 -11.625 
L 7.71875 -11.625 
L 11.71875 4 
z
" id="BitstreamVeraSans-Roman-2c"/>
     <path d="M 12.5 -9.28125 
L 15.921875 -9.28125 
Q 22.75 -9.28125 24.828125 -7.171875 
Q 26.90625 -5.078125 26.90625 1.90625 
L 26.90625 14.015625 
Q 26.90625 21.625 29.09375 25.09375 
Q 31.296875 28.5625 36.71875 29.890625 
Q 31.296875 31.109375 29.09375 34.5625 
Q 26.90625 38.03125 26.90625 45.703125 
L 26.90625 57.8125 
Q 26.90625 64.75 24.828125 66.875 
Q 22.75 69 15.921875 69 
L 12.5 69 
L 12.5 75.984375 
L 15.578125 75.984375 
Q 27.734375 75.984375 31.8125 72.390625 
Q 35.890625 68.796875 35.890625 58.015625 
L 35.890625 46.296875 
Q 35.890625 39.015625 38.515625 36.203125 
Q 41.15625 33.40625 48.09375 33.40625 
L 51.125 33.40625 
L 51.125 26.421875 
L 48.09375 26.421875 
Q 41.15625 26.421875 38.515625 23.578125 
Q 35.890625 20.75 35.890625 13.375 
L 35.890625 1.703125 
Q 35.890625 -9.078125 31.8125 -12.6875 
Q 27.734375 -16.3125 15.578125 -16.3125 
L 12.5 -16.3125 
z
" id="BitstreamVeraSans-Roman-7d"/>
     <path d="M 51.125 -9.28125 
L 51.125 -16.3125 
L 48.09375 -16.3125 
Q 35.9375 -16.3125 31.8125 -12.6875 
Q 27.6875 -9.078125 27.6875 1.703125 
L 27.6875 13.375 
Q 27.6875 20.75 25.046875 23.578125 
Q 22.40625 26.421875 15.484375 26.421875 
L 12.5 26.421875 
L 12.5 33.40625 
L 15.484375 33.40625 
Q 22.46875 33.40625 25.078125 36.203125 
Q 27.6875 39.015625 27.6875 46.296875 
L 27.6875 58.015625 
Q 27.6875 68.796875 31.8125 72.390625 
Q 35.9375 75.984375 48.09375 75.984375 
L 51.125 75.984375 
L 51.125 69 
L 47.796875 69 
Q 40.921875 69 38.8125 66.84375 
Q 36.71875 64.703125 36.71875 57.8125 
L 36.71875 45.703125 
Q 36.71875 38.03125 34.5 34.5625 
Q 32.28125 31.109375 26.90625 29.890625 
Q 32.328125 28.5625 34.515625 25.09375 
Q 36.71875 21.625 36.71875 14.015625 
L 36.71875 1.90625 
Q 36.71875 -4.984375 38.8125 -7.125 
Q 40.921875 -9.28125 47.796875 -9.28125 
z
" id="BitstreamVeraSans-Roman-7b"/>
     <path d="M 4.890625 31.390625 
L 31.203125 31.390625 
L 31.203125 23.390625 
L 4.890625 23.390625 
z
" id="BitstreamVeraSans-Roman-2d"/>
    </defs>
    <g transform="translate(217.7125 35.5652178218)scale(0.2 -0.2)">
     <use xlink:href="#BitstreamVeraSans-Roman-7b"/>
     <use x="63.623046875" xlink:href="#BitstreamVeraSans-Roman-66"/>
     <use x="98.828125" xlink:href="#BitstreamVeraSans-Roman-31"/>
     <use x="162.451171875" xlink:href="#BitstreamVeraSans-Roman-2d"/>
     <use x="198.53515625" xlink:href="#BitstreamVeraSans-Roman-66"/>
     <use x="233.740234375" xlink:href="#BitstreamVeraSans-Roman-32"/>
     <use x="297.36328125" xlink:href="#BitstreamVeraSans-Roman-34"/>
     <use x="360.986328125" xlink:href="#BitstreamVeraSans-Roman-7d"/>
     <use x="424.609375" xlink:href="#BitstreamVeraSans-Roman-2c"/>
     <use x="456.396484375" xlink:href="#BitstreamVeraSans-Roman-20"/>
     <use x="488.18359375" xlink:href="#BitstreamVeraSans-Roman-32"/>
     <use x="551.806640625" xlink:href="#BitstreamVeraSans-Roman-30"/>
     <use x="615.4296875" xlink:href="#BitstreamVeraSans-Roman-2d"/>
     <use x="651.513671875" xlink:href="#BitstreamVeraSans-Roman-44"/>
    </g>
   </g>
   <g id="text_13">
    <!-- absolute targets -->
    <defs>
     <path d="M 56.203125 29.59375 
L 56.203125 25.203125 
L 14.890625 25.203125 
Q 15.484375 15.921875 20.484375 11.0625 
Q 25.484375 6.203125 34.421875 6.203125 
Q 39.59375 6.203125 44.453125 7.46875 
Q 49.3125 8.734375 54.109375 11.28125 
L 54.109375 2.78125 
Q 49.265625 0.734375 44.1875 -0.34375 
Q 39.109375 -1.421875 33.890625 -1.421875 
Q 20.796875 -1.421875 13.15625 6.1875 
Q 5.515625 13.8125 5.515625 26.8125 
Q 5.515625 40.234375 12.765625 48.109375 
Q 20.015625 56 32.328125 56 
Q 43.359375 56 49.78125 48.890625 
Q 56.203125 41.796875 56.203125 29.59375 
M 47.21875 32.234375 
Q 47.125 39.59375 43.09375 43.984375 
Q 39.0625 48.390625 32.421875 48.390625 
Q 24.90625 48.390625 20.390625 44.140625 
Q 15.875 39.890625 15.1875 32.171875 
z
" id="BitstreamVeraSans-Roman-65"/>
     <path d="M 8.5 21.578125 
L 8.5 54.6875 
L 17.484375 54.6875 
L 17.484375 21.921875 
Q 17.484375 14.15625 20.5 10.265625 
Q 23.53125 6.390625 29.59375 6.390625 
Q 36.859375 6.390625 41.078125 11.03125 
Q 45.3125 15.671875 45.3125 23.6875 
L 45.3125 54.6875 
L 54.296875 54.6875 
L 54.296875 0 
L 45.3125 0 
L 45.3125 8.40625 
Q 42.046875 3.421875 37.71875 1 
Q 33.40625 -1.421875 27.6875 -1.421875 
Q 18.265625 -1.421875 13.375 4.4375 
Q 8.5 10.296875 8.5 21.578125 
" id="BitstreamVeraSans-Roman-75"/>
     <path d="M 48.6875 27.296875 
Q 48.6875 37.203125 44.609375 42.84375 
Q 40.53125 48.484375 33.40625 48.484375 
Q 26.265625 48.484375 22.1875 42.84375 
Q 18.109375 37.203125 18.109375 27.296875 
Q 18.109375 17.390625 22.1875 11.75 
Q 26.265625 6.109375 33.40625 6.109375 
Q 40.53125 6.109375 44.609375 11.75 
Q 48.6875 17.390625 48.6875 27.296875 
M 18.109375 46.390625 
Q 20.953125 51.265625 25.265625 53.625 
Q 29.59375 56 35.59375 56 
Q 45.5625 56 51.78125 48.09375 
Q 58.015625 40.1875 58.015625 27.296875 
Q 58.015625 14.40625 51.78125 6.484375 
Q 45.5625 -1.421875 35.59375 -1.421875 
Q 29.59375 -1.421875 25.265625 0.953125 
Q 20.953125 3.328125 18.109375 8.203125 
L 18.109375 0 
L 9.078125 0 
L 9.078125 75.984375 
L 18.109375 75.984375 
z
" id="BitstreamVeraSans-Roman-62"/>
    </defs>
    <g transform="translate(67.3625 359.056342822)scale(0.14 -0.14)">
     <use xlink:href="#BitstreamVeraSans-Roman-61"/>
     <use x="61.279296875" xlink:href="#BitstreamVeraSans-Roman-62"/>
     <use x="124.755859375" xlink:href="#BitstreamVeraSans-Roman-73"/>
     <use x="176.85546875" xlink:href="#BitstreamVeraSans-Roman-6f"/>
     <use x="238.037109375" xlink:href="#BitstreamVeraSans-Roman-6c"/>
     <use x="265.8203125" xlink:href="#BitstreamVeraSans-Roman-75"/>
     <use x="329.19921875" xlink:href="#BitstreamVeraSans-Roman-74"/>
     <use x="368.408203125" xlink:href="#BitstreamVeraSans-Roman-65"/>
     <use x="429.931640625" xlink:href="#BitstreamVeraSans-Roman-20"/>
     <use x="461.71875" xlink:href="#BitstreamVeraSans-Roman-74"/>
     <use x="500.927734375" xlink:href="#BitstreamVeraSans-Roman-61"/>
     <use x="562.20703125" xlink:href="#BitstreamVeraSans-Roman-72"/>
     <use x="603.3046875" xlink:href="#BitstreamVeraSans-Roman-67"/>
     <use x="666.78125" xlink:href="#BitstreamVeraSans-Roman-65"/>
     <use x="728.3046875" xlink:href="#BitstreamVeraSans-Roman-74"/>
     <use x="767.513671875" xlink:href="#BitstreamVeraSans-Roman-73"/>
    </g>
   </g>
   <g id="text_14">
    <!-- 0.0.0 -->
    <g style="fill:#808080;" transform="translate(277.840625 353.520655322)scale(0.1 -0.1)">
     <use xlink:href="#BitstreamVeraSans-Roman-30"/>
     <use x="63.623046875" xlink:href="#BitstreamVeraSans-Roman-2e"/>
     <use x="95.41015625" xlink:href="#BitstreamVeraSans-Roman-30"/>
     <use x="159.033203125" xlink:href="#BitstreamVeraSans-Roman-2e"/>
     <use x="190.8203125" xlink:href="#BitstreamVeraSans-Roman-30"/>
    </g>
   </g>
   <g id="legend_1">
    <g id="patch_7">
     <path d="M 348.30625 146.881343 
L 503.7625 146.881343 
L 503.7625 23.456343 
L 348.30625 23.456343 
z
" style="fill:#ffffff;opacity:0.2;stroke:#000000;stroke-linejoin:miter;"/>
    </g>
    <g id="line2d_101">
     <path d="M 362.30625 39.653218 
L 390.30625 39.653218 
" style="fill:none;stroke:#000000;stroke-linecap:square;"/>
    </g>
    <g id="line2d_102"/>
    <g id="text_15">
     <!-- 1: 11/24 -->
     <defs>
      <path d="M 11.71875 12.40625 
L 22.015625 12.40625 
L 22.015625 0 
L 11.71875 0 
z
M 11.71875 51.703125 
L 22.015625 51.703125 
L 22.015625 39.3125 
L 11.71875 39.3125 
z
" id="BitstreamVeraSans-Roman-3a"/>
     </defs>
     <g transform="translate(412.30625 46.6532178218)scale(0.2 -0.2)">
      <use xlink:href="#BitstreamVeraSans-Roman-31"/>
      <use x="63.623046875" xlink:href="#BitstreamVeraSans-Roman-3a"/>
      <use x="97.314453125" xlink:href="#BitstreamVeraSans-Roman-20"/>
      <use x="129.1015625" xlink:href="#BitstreamVeraSans-Roman-31"/>
      <use x="192.724609375" xlink:href="#BitstreamVeraSans-Roman-31"/>
      <use x="256.34765625" xlink:href="#BitstreamVeraSans-Roman-2f"/>
      <use x="290.0390625" xlink:href="#BitstreamVeraSans-Roman-32"/>
      <use x="353.662109375" xlink:href="#BitstreamVeraSans-Roman-34"/>
     </g>
    </g>
    <g id="line2d_103">
     <path d="M 362.30625 69.009468 
L 390.30625 69.009468 
" style="fill:none;stroke:#00bfbf;stroke-linecap:square;"/>
    </g>
    <g id="line2d_104"/>
    <g id="text_16">
     <!-- -1: 3/24 -->
     <defs>
      <path d="M 40.578125 39.3125 
Q 47.65625 37.796875 51.625 33 
Q 55.609375 28.21875 55.609375 21.1875 
Q 55.609375 10.40625 48.1875 4.484375 
Q 40.765625 -1.421875 27.09375 -1.421875 
Q 22.515625 -1.421875 17.65625 -0.515625 
Q 12.796875 0.390625 7.625 2.203125 
L 7.625 11.71875 
Q 11.71875 9.328125 16.59375 8.109375 
Q 21.484375 6.890625 26.8125 6.890625 
Q 36.078125 6.890625 40.9375 10.546875 
Q 45.796875 14.203125 45.796875 21.1875 
Q 45.796875 27.640625 41.28125 31.265625 
Q 36.765625 34.90625 28.71875 34.90625 
L 20.21875 34.90625 
L 20.21875 43.015625 
L 29.109375 43.015625 
Q 36.375 43.015625 40.234375 45.921875 
Q 44.09375 48.828125 44.09375 54.296875 
Q 44.09375 59.90625 40.109375 62.90625 
Q 36.140625 65.921875 28.71875 65.921875 
Q 24.65625 65.921875 20.015625 65.03125 
Q 15.375 64.15625 9.8125 62.3125 
L 9.8125 71.09375 
Q 15.4375 72.65625 20.34375 73.4375 
Q 25.25 74.21875 29.59375 74.21875 
Q 40.828125 74.21875 47.359375 69.109375 
Q 53.90625 64.015625 53.90625 55.328125 
Q 53.90625 49.265625 50.4375 45.09375 
Q 46.96875 40.921875 40.578125 39.3125 
" id="BitstreamVeraSans-Roman-33"/>
     </defs>
     <g transform="translate(412.30625 76.0094678218)scale(0.2 -0.2)">
      <use xlink:href="#BitstreamVeraSans-Roman-2d"/>
      <use x="36.083984375" xlink:href="#BitstreamVeraSans-Roman-31"/>
      <use x="99.70703125" xlink:href="#BitstreamVeraSans-Roman-3a"/>
      <use x="133.3984375" xlink:href="#BitstreamVeraSans-Roman-20"/>
      <use x="165.185546875" xlink:href="#BitstreamVeraSans-Roman-33"/>
      <use x="228.80859375" xlink:href="#BitstreamVeraSans-Roman-2f"/>
      <use x="262.5" xlink:href="#BitstreamVeraSans-Roman-32"/>
      <use x="326.123046875" xlink:href="#BitstreamVeraSans-Roman-34"/>
     </g>
    </g>
    <g id="line2d_105">
     <path d="M 362.30625 98.365718 
L 390.30625 98.365718 
" style="fill:none;stroke:#bf00bf;stroke-linecap:square;"/>
    </g>
    <g id="line2d_106"/>
    <g id="text_17">
     <!-- -4: 1/24 -->
     <g transform="translate(412.30625 105.365717822)scale(0.2 -0.2)">
      <use xlink:href="#BitstreamVeraSans-Roman-2d"/>
      <use x="36.083984375" xlink:href="#BitstreamVeraSans-Roman-34"/>
      <use x="99.70703125" xlink:href="#BitstreamVeraSans-Roman-3a"/>
      <use x="133.3984375" xlink:href="#BitstreamVeraSans-Roman-20"/>
      <use x="165.185546875" xlink:href="#BitstreamVeraSans-Roman-31"/>
      <use x="228.80859375" xlink:href="#BitstreamVeraSans-Roman-2f"/>
      <use x="262.5" xlink:href="#BitstreamVeraSans-Roman-32"/>
      <use x="326.123046875" xlink:href="#BitstreamVeraSans-Roman-34"/>
     </g>
    </g>
    <g id="line2d_107">
     <path d="M 362.30625 127.721968 
L 390.30625 127.721968 
" style="fill:none;stroke:#ff0000;stroke-linecap:square;stroke-width:3.0;"/>
    </g>
    <g id="line2d_108"/>
    <g id="text_18">
     <!-- -8: 1/24 -->
     <g transform="translate(412.30625 134.721967822)scale(0.2 -0.2)">
      <use xlink:href="#BitstreamVeraSans-Roman-2d"/>
      <use x="36.083984375" xlink:href="#BitstreamVeraSans-Roman-38"/>
      <use x="99.70703125" xlink:href="#BitstreamVeraSans-Roman-3a"/>
      <use x="133.3984375" xlink:href="#BitstreamVeraSans-Roman-20"/>
      <use x="165.185546875" xlink:href="#BitstreamVeraSans-Roman-31"/>
      <use x="228.80859375" xlink:href="#BitstreamVeraSans-Roman-2f"/>
      <use x="262.5" xlink:href="#BitstreamVeraSans-Roman-32"/>
      <use x="326.123046875" xlink:href="#BitstreamVeraSans-Roman-34"/>
     </g>
    </g>
   </g>
  </g>
 </g>
 <defs>
  <clipPath id="p2b45133d38">
   <rect height="345.6" width="446.4" x="67.3625" y="13.4563428218"/>
  </clipPath>
 </defs>
</svg>
