<?xml version="1.0" encoding="utf-8" standalone="no"?>
<!DOCTYPE svg PUBLIC "-//W3C//DTD SVG 1.1//EN"
  "http://www.w3.org/Graphics/SVG/1.1/DTD/svg11.dtd">
<!-- Created with matplotlib (http://matplotlib.org/) -->
<svg height="413pt" version="1.1" viewBox="0 0 520 413" width="520pt" xmlns="http://www.w3.org/2000/svg" xmlns:xlink="http://www.w3.org/1999/xlink">
 <defs>
  <style type="text/css">
*{stroke-linecap:butt;stroke-linejoin:round;stroke-miterlimit:100000;}
  </style>
 </defs>
 <g id="figure_1">
  <g id="patch_1">
   <path d="M 0 413.968843 
L 520.9625 413.968843 
L 520.9625 0 
L 0 0 
z
" style="fill:#ffffff;"/>
  </g>
  <g id="axes_1">
   <g id="patch_2">
    <path d="M 67.3625 359.056343 
L 513.7625 359.056343 
L 513.7625 13.456343 
L 67.3625 13.456343 
z
" style="fill:#ffffff;"/>
   </g>
   <g id="line2d_1">
    <path clip-path="url(#pc2978a4fcb)" d="M 306.809837 359.056343 
L 306.809837 354.493967 
L 306.809837 354.493967 
L 306.809837 349.93159 
L 306.809837 349.93159 
L 306.809837 345.369214 
L 306.809837 345.369214 
L 306.809837 340.806838 
L 306.809837 340.806838 
L 306.809837 336.244462 
L 306.809837 336.244462 
L 306.809837 331.682085 
L 306.809837 331.682085 
L 306.809837 327.119709 
L 306.809837 327.119709 
L 306.809837 322.557333 
L 306.809837 322.557333 
L 306.809837 317.994957 
L 306.809837 317.994957 
L 306.809837 313.43258 
L 306.809837 313.43258 
L 306.809837 308.870204 
L 306.809837 308.870204 
L 306.809837 304.307828 
L 306.809837 304.307828 
L 306.809837 299.745452 
L 306.809837 299.745452 
L 306.809837 295.183075 
L 306.809837 295.183075 
L 306.809837 290.620699 
L 316.542163 290.620699 
L 316.542163 286.058323 
L 321.016834 286.058323 
L 321.016834 281.495947 
L 321.016834 281.495947 
L 321.016834 276.933571 
L 325.265793 276.933571 
L 325.265793 272.371194 
L 325.265793 272.371194 
L 325.265793 267.808818 
L 325.265793 267.808818 
L 325.265793 263.246442 
L 325.265793 263.246442 
L 325.265793 258.684066 
L 329.310722 258.684066 
L 329.310722 254.121689 
L 329.310722 254.121689 
L 329.310722 249.559313 
L 329.310722 249.559313 
L 329.310722 244.996937 
L 333.17032 244.996937 
L 333.17032 240.434561 
L 333.17032 240.434561 
L 333.17032 235.872184 
L 333.17032 235.872184 
L 333.17032 231.309808 
L 333.17032 231.309808 
L 333.17032 226.747432 
L 336.86083 226.747432 
L 336.86083 222.185056 
L 521.9625 222.185056 
" style="fill:none;stroke:#f5deb3;stroke-linecap:square;"/>
   </g>
   <g id="line2d_2">
    <path clip-path="url(#pc2978a4fcb)" d="M 583.625781 359.056343 
" style="fill:none;stroke:#f5deb3;stroke-linecap:square;"/>
   </g>
   <g id="line2d_3">
    <path clip-path="url(#pc2978a4fcb)" d="M 274.229813 359.056343 
L 274.229813 354.493967 
L 274.229813 354.493967 
L 274.229813 349.93159 
L 274.229813 349.93159 
L 274.229813 345.369214 
L 274.229813 345.369214 
L 274.229813 340.806838 
L 274.590641 340.806838 
L 274.590641 336.244462 
L 274.94993 336.244462 
L 274.94993 331.682085 
L 274.94993 331.682085 
L 274.94993 327.119709 
L 274.94993 327.119709 
L 274.94993 322.557333 
L 274.94993 322.557333 
L 274.94993 317.994957 
L 274.94993 317.994957 
L 274.94993 313.43258 
L 274.94993 313.43258 
L 274.94993 308.870204 
L 274.94993 308.870204 
L 274.94993 304.307828 
L 274.94993 304.307828 
L 274.94993 299.745452 
L 274.94993 299.745452 
L 274.94993 295.183075 
L 275.307694 295.183075 
L 275.307694 290.620699 
L 275.663944 290.620699 
L 275.663944 286.058323 
L 276.371958 286.058323 
L 276.371958 281.495947 
L 279.82544 281.495947 
L 279.82544 276.933571 
L 281.168149 276.933571 
L 281.168149 272.371194 
L 283.791027 272.371194 
L 283.791027 267.808818 
L 283.791027 267.808818 
L 283.791027 263.246442 
L 284.753931 263.246442 
L 284.753931 258.684066 
L 285.072469 258.684066 
L 285.072469 254.121689 
L 285.389807 254.121689 
L 285.389807 249.559313 
L 286.958812 249.559313 
L 286.958812 244.996937 
L 287.269137 244.996937 
L 287.269137 240.434561 
L 288.193313 240.434561 
L 288.193313 235.872184 
L 290.906529 235.872184 
L 290.906529 231.309808 
L 295.524297 231.309808 
L 295.524297 226.747432 
L 299.098376 226.747432 
L 299.098376 222.185056 
L 299.098376 222.185056 
L 299.098376 222.185056 
L 513.7625 222.185056 
" style="fill:none;stroke:#f5deb3;stroke-linecap:square;"/>
   </g>
   <g id="line2d_4">
    <path clip-path="url(#pc2978a4fcb)" d="M 213.259958 359.056343 
L 213.259958 354.493967 
L 214.738122 354.493967 
L 214.738122 349.93159 
L 216.907851 349.93159 
L 216.907851 345.369214 
L 219.71655 345.369214 
L 219.71655 340.806838 
L 222.434629 340.806838 
L 222.434629 336.244462 
L 231.911255 336.244462 
L 231.911255 331.682085 
L 231.911255 331.682085 
L 231.911255 327.119709 
L 232.506687 327.119709 
L 232.506687 322.557333 
L 236.560885 322.557333 
L 236.560885 317.994957 
L 236.560885 317.994957 
L 236.560885 313.43258 
L 241.502226 313.43258 
L 241.502226 308.870204 
L 247.172774 308.870204 
L 247.172774 304.307828 
L 248.164 304.307828 
L 248.164 299.745452 
L 250.112136 299.745452 
L 250.112136 295.183075 
L 283.791027 295.183075 
L 283.791027 290.620699 
L 436.877465 290.620699 
L 436.877465 286.058323 
L 440.672833 286.058323 
L 440.672833 281.495947 
L 441.222692 281.495947 
L 441.222692 276.933571 
L 441.867933 276.933571 
L 441.867933 272.371194 
L 442.802177 272.371194 
L 442.802177 267.808818 
L 444.974392 267.808818 
L 444.974392 263.246442 
L 445.259835 263.246442 
L 445.259835 258.684066 
L 445.402195 258.684066 
L 445.402195 254.121689 
L 445.544314 254.121689 
L 445.544314 249.559313 
L 446.063378 249.559313 
L 446.063378 244.996937 
L 446.345161 244.996937 
L 446.345161 240.434561 
L 446.43888 240.434561 
L 446.43888 235.872184 
L 448.566131 235.872184 
L 448.566131 231.309808 
L 448.930667 231.309808 
L 448.930667 226.747432 
L 449.338893 226.747432 
L 449.338893 222.185056 
L 521.9625 222.185056 
" style="fill:none;stroke:#f5deb3;stroke-linecap:square;"/>
   </g>
   <g id="line2d_5">
    <path clip-path="url(#pc2978a4fcb)" d="M 367.630914 359.056343 
L 367.630914 354.493967 
L 367.630914 354.493967 
L 367.630914 349.93159 
L 373.507405 349.93159 
L 373.507405 345.369214 
L 375.921073 345.369214 
L 375.921073 340.806838 
L 379.10482 340.806838 
L 379.10482 336.244462 
L 395.518196 336.244462 
L 395.518196 331.682085 
L 403.913803 331.682085 
L 403.913803 327.119709 
L 403.991349 327.119709 
L 403.991349 322.557333 
L 404.455129 322.557333 
L 404.455129 317.994957 
L 408.00236 317.994957 
L 408.00236 313.43258 
L 413.923554 313.43258 
L 413.923554 308.870204 
L 422.185143 308.870204 
L 422.185143 304.307828 
L 428.500322 304.307828 
L 428.500322 299.745452 
L 429.135327 299.745452 
L 429.135327 295.183075 
L 435.821648 295.183075 
L 435.821648 290.620699 
L 457.36085 290.620699 
L 457.36085 286.058323 
L 463.965345 286.058323 
L 463.965345 281.495947 
L 464.30699 281.495947 
L 464.30699 276.933571 
L 464.684977 276.933571 
L 464.684977 272.371194 
L 464.910957 272.371194 
L 464.910957 267.808818 
L 465.136334 267.808818 
L 465.136334 263.246442 
L 465.136334 263.246442 
L 465.136334 258.684066 
L 465.398513 258.684066 
L 465.398513 254.121689 
L 465.957594 254.121689 
L 465.957594 249.559313 
L 466.217234 249.559313 
L 466.217234 244.996937 
L 466.586766 244.996937 
L 466.586766 240.434561 
L 468.446574 240.434561 
L 468.446574 235.872184 
L 468.518678 235.872184 
L 468.518678 231.309808 
L 469.236341 231.309808 
L 469.236341 226.747432 
L 470.758923 226.747432 
L 470.758923 222.185056 
L 521.9625 222.185056 
" style="fill:none;stroke:#f5deb3;stroke-linecap:square;"/>
   </g>
   <g id="line2d_6"/>
   <g id="line2d_7">
    <path clip-path="url(#pc2978a4fcb)" d="M 272.402124 359.056343 
L 272.402124 354.493967 
L 289.711429 354.493967 
L 289.711429 349.93159 
L 291.202674 349.93159 
L 291.202674 345.369214 
L 292.376953 345.369214 
L 292.376953 340.806838 
L 292.667984 340.806838 
L 292.667984 336.244462 
L 293.535091 336.244462 
L 293.535091 331.682085 
L 294.960728 331.682085 
L 294.960728 327.119709 
L 294.960728 327.119709 
L 294.960728 322.557333 
L 295.524297 322.557333 
L 295.524297 317.994957 
L 303.042302 317.994957 
L 303.042302 313.43258 
L 305.572617 313.43258 
L 305.572617 308.870204 
L 307.786696 308.870204 
L 307.786696 304.307828 
L 309.944079 304.307828 
L 309.944079 299.745452 
L 321.842852 299.745452 
L 321.842852 295.183075 
L 321.842852 295.183075 
L 321.842852 290.620699 
L 479.072547 290.620699 
L 479.072547 286.058323 
L 480.115259 286.058323 
L 480.115259 281.495947 
L 482.224023 281.495947 
L 482.224023 276.933571 
L 482.74307 276.933571 
L 482.74307 272.371194 
L 482.986225 272.371194 
L 482.986225 267.808818 
L 483.379861 267.808818 
L 483.379861 263.246442 
L 483.59106 263.246442 
L 483.59106 258.684066 
L 484.131724 258.684066 
L 484.131724 254.121689 
L 484.161659 254.121689 
L 484.161659 249.559313 
L 485.409437 249.559313 
L 485.409437 244.996937 
L 486.231139 244.996937 
L 486.231139 240.434561 
L 487.015977 240.434561 
L 487.015977 235.872184 
L 489.073823 235.872184 
L 489.073823 231.309808 
L 489.832739 231.309808 
L 489.832739 226.747432 
L 490.223576 226.747432 
L 490.223576 222.185056 
L 521.9625 222.185056 
" style="fill:none;stroke:#f5deb3;stroke-linecap:square;"/>
   </g>
   <g id="line2d_8">
    <path clip-path="url(#pc2978a4fcb)" d="M 609.951959 359.056343 
" style="fill:none;stroke:#f5deb3;stroke-linecap:square;"/>
   </g>
   <g id="line2d_9">
    <path clip-path="url(#pc2978a4fcb)" d="M 263.853001 359.056343 
L 263.853001 354.493967 
L 266.668405 354.493967 
L 266.668405 349.93159 
L 272.03178 349.93159 
L 272.03178 345.369214 
L 273.503488 345.369214 
L 273.503488 340.806838 
L 273.867434 340.806838 
L 273.867434 336.244462 
L 274.94993 336.244462 
L 274.94993 331.682085 
L 277.074072 331.682085 
L 277.074072 327.119709 
L 277.422947 327.119709 
L 277.422947 322.557333 
L 279.486393 322.557333 
L 279.486393 317.994957 
L 286.020919 317.994957 
L 286.020919 313.43258 
L 287.578324 313.43258 
L 287.578324 308.870204 
L 293.535091 308.870204 
L 293.535091 304.307828 
L 295.524297 304.307828 
L 295.524297 299.745452 
L 299.098376 299.745452 
L 299.098376 295.183075 
L 302.008508 295.183075 
L 302.008508 290.620699 
L 473.757818 290.620699 
L 473.757818 286.058323 
L 478.177589 286.058323 
L 478.177589 281.495947 
L 478.722089 281.495947 
L 478.722089 276.933571 
L 479.516487 276.933571 
L 479.516487 272.371194 
L 479.863663 272.371194 
L 479.863663 267.808818 
L 481.269216 267.808818 
L 481.269216 263.246442 
L 481.362091 263.246442 
L 481.362091 258.684066 
L 482.162748 258.684066 
L 482.162748 254.121689 
L 482.803924 254.121689 
L 482.803924 249.559313 
L 483.651305 249.559313 
L 483.651305 244.996937 
L 484.071821 244.996937 
L 484.071821 240.434561 
L 484.787858 240.434561 
L 484.787858 235.872184 
L 485.879962 235.872184 
L 485.879962 231.309808 
L 485.997184 231.309808 
L 485.997184 226.747432 
L 491.192809 226.747432 
L 491.192809 222.185056 
L 521.9625 222.185056 
" style="fill:none;stroke:#f5deb3;stroke-linecap:square;"/>
   </g>
   <g id="line2d_10">
    <path clip-path="url(#pc2978a4fcb)" d="M 327.792606 359.056343 
L 327.792606 354.493967 
L 330.431623 354.493967 
L 330.431623 349.93159 
L 342.02931 349.93159 
L 342.02931 345.369214 
L 342.02931 345.369214 
L 342.02931 340.806838 
L 348.26159 340.806838 
L 348.26159 336.244462 
L 358.034865 336.244462 
L 358.034865 331.682085 
L 364.71697 331.682085 
L 364.71697 327.119709 
L 521.9625 327.119709 
" style="fill:none;stroke:#f5deb3;stroke-linecap:square;"/>
   </g>
   <g id="line2d_11">
    <path clip-path="url(#pc2978a4fcb)" d="M 199.523354 359.056343 
L 199.523354 354.493967 
L 212.511036 354.493967 
L 212.511036 349.93159 
L 214.738122 349.93159 
L 214.738122 345.369214 
L 216.190798 345.369214 
L 216.190798 340.806838 
L 218.323904 340.806838 
L 218.323904 336.244462 
L 220.404334 336.244462 
L 220.404334 331.682085 
L 225.713376 331.682085 
L 225.713376 327.119709 
L 231.311586 327.119709 
L 231.311586 322.557333 
L 231.911255 322.557333 
L 231.911255 317.994957 
L 235.422312 317.994957 
L 235.422312 313.43258 
L 242.562028 313.43258 
L 242.562028 308.870204 
L 250.112136 308.870204 
L 250.112136 304.307828 
L 250.592213 304.307828 
L 250.592213 299.745452 
L 265.07114 299.745452 
L 265.07114 295.183075 
L 277.422947 295.183075 
L 277.422947 290.620699 
L 422.060138 290.620699 
L 422.060138 286.058323 
L 423.240261 286.058323 
L 423.240261 281.495947 
L 425.191217 281.495947 
L 425.191217 276.933571 
L 425.371824 276.933571 
L 425.371824 272.371194 
L 427.50944 272.371194 
L 427.50944 267.808818 
L 427.977189 267.808818 
L 427.977189 263.246442 
L 429.70848 263.246442 
L 429.70848 258.684066 
L 430.504399 258.684066 
L 430.504399 254.121689 
L 430.67398 254.121689 
L 430.67398 249.559313 
L 432.351271 249.559313 
L 432.351271 244.996937 
L 432.958007 244.996937 
L 432.958007 240.434561 
L 433.396541 240.434561 
L 433.396541 235.872184 
L 434.590871 235.872184 
L 434.590871 231.309808 
L 436.033872 231.309808 
L 436.033872 226.747432 
L 437.504663 226.747432 
L 437.504663 222.185056 
L 437.504663 222.185056 
L 437.504663 222.185056 
L 513.7625 222.185056 
" style="fill:none;stroke:#f5deb3;stroke-linecap:square;"/>
   </g>
   <g id="line2d_12">
    <path clip-path="url(#pc2978a4fcb)" d="M 131.855587 359.056343 
L 131.855587 354.493967 
L 131.855587 354.493967 
L 131.855587 349.93159 
L 131.855587 349.93159 
L 131.855587 345.369214 
L 131.855587 345.369214 
L 131.855587 340.806838 
L 131.855587 340.806838 
L 131.855587 336.244462 
L 131.855587 336.244462 
L 131.855587 331.682085 
L 131.855587 331.682085 
L 131.855587 327.119709 
L 131.855587 327.119709 
L 131.855587 322.557333 
L 131.855587 322.557333 
L 131.855587 317.994957 
L 131.855587 317.994957 
L 131.855587 313.43258 
L 131.855587 313.43258 
L 131.855587 308.870204 
L 131.855587 308.870204 
L 131.855587 304.307828 
L 131.855587 304.307828 
L 131.855587 299.745452 
L 131.855587 299.745452 
L 131.855587 295.183075 
L 131.855587 295.183075 
L 131.855587 290.620699 
L 189.270002 290.620699 
L 189.270002 286.058323 
L 207.872076 286.058323 
L 207.872076 281.495947 
L 207.872076 281.495947 
L 207.872076 276.933571 
L 207.872076 276.933571 
L 207.872076 272.371194 
L 207.872076 272.371194 
L 207.872076 267.808818 
L 207.872076 267.808818 
L 207.872076 263.246442 
L 207.872076 263.246442 
L 207.872076 258.684066 
L 207.872076 258.684066 
L 207.872076 254.121689 
L 207.872076 254.121689 
L 207.872076 249.559313 
L 207.872076 249.559313 
L 207.872076 244.996937 
L 223.100666 244.996937 
L 223.100666 240.434561 
L 223.100666 240.434561 
L 223.100666 235.872184 
L 223.100666 235.872184 
L 223.100666 231.309808 
L 223.100666 231.309808 
L 223.100666 226.747432 
L 247.172774 226.747432 
L 247.172774 222.185056 
L 521.9625 222.185056 
" style="fill:none;stroke:#f5deb3;stroke-linecap:square;"/>
   </g>
   <g id="line2d_13">
    <path clip-path="url(#pc2978a4fcb)" d="M 449.157703 359.056343 
L 449.157703 354.493967 
L 449.157703 354.493967 
L 449.157703 349.93159 
L 450.507222 349.93159 
L 450.507222 345.369214 
L 450.507222 345.369214 
L 450.507222 340.806838 
L 452.535392 340.806838 
L 452.535392 336.244462 
L 452.752932 336.244462 
L 452.752932 331.682085 
L 452.752932 331.682085 
L 452.752932 327.119709 
L 452.752932 327.119709 
L 452.752932 322.557333 
L 453.918039 322.557333 
L 453.918039 317.994957 
L 457.36085 317.994957 
L 457.36085 313.43258 
L 457.36085 313.43258 
L 457.36085 308.870204 
L 457.36085 308.870204 
L 457.36085 304.307828 
L 457.525246 304.307828 
L 457.525246 299.745452 
L 457.525246 299.745452 
L 457.525246 295.183075 
L 457.525246 295.183075 
L 457.525246 290.620699 
L 457.525246 290.620699 
L 457.525246 290.620699 
L 513.7625 290.620699 
" style="fill:none;stroke:#f5deb3;stroke-linecap:square;"/>
   </g>
   <g id="line2d_14">
    <path clip-path="url(#pc2978a4fcb)" d="M 243.086972 359.056343 
L 243.086972 354.493967 
L 245.663722 354.493967 
L 245.663722 349.93159 
L 247.172774 349.93159 
L 247.172774 345.369214 
L 249.143698 345.369214 
L 249.143698 340.806838 
L 249.629309 340.806838 
L 249.629309 336.244462 
L 249.629309 336.244462 
L 249.629309 331.682085 
L 250.112136 331.682085 
L 250.112136 327.119709 
L 250.592213 327.119709 
L 250.592213 322.557333 
L 251.544236 322.557333 
L 251.544236 317.994957 
L 251.544236 317.994957 
L 251.544236 313.43258 
L 251.544236 313.43258 
L 251.544236 308.870204 
L 251.544236 308.870204 
L 251.544236 304.307828 
L 252.016244 304.307828 
L 252.016244 299.745452 
L 252.485622 299.745452 
L 252.485622 295.183075 
L 252.485622 295.183075 
L 252.485622 290.620699 
L 371.022548 290.620699 
L 371.022548 286.058323 
L 372.72469 286.058323 
L 372.72469 281.495947 
L 375.160562 281.495947 
L 375.160562 276.933571 
L 376.029159 276.933571 
L 376.029159 272.371194 
L 376.781904 272.371194 
L 376.781904 267.808818 
L 380.754874 267.808818 
L 380.754874 263.246442 
L 381.060693 263.246442 
L 381.060693 258.684066 
L 381.263958 258.684066 
L 381.263958 254.121689 
L 382.072148 254.121689 
L 382.072148 249.559313 
L 383.27008 249.559313 
L 383.27008 244.996937 
L 383.566921 244.996937 
L 383.566921 240.434561 
L 383.764235 240.434561 
L 383.764235 235.872184 
L 385.808606 235.872184 
L 385.808606 231.309808 
L 386.383716 231.309808 
L 386.383716 226.747432 
L 386.764952 226.747432 
L 386.764952 222.185056 
L 401.473793 222.185056 
L 401.473793 217.622679 
L 406.511115 217.622679 
L 406.511115 213.060303 
L 407.110784 213.060303 
L 407.110784 208.497927 
L 409.54027 208.497927 
L 409.54027 203.935551 
L 410.190877 203.935551 
L 410.190877 199.373175 
L 410.9793 199.373175 
L 410.9793 194.810798 
L 412.323982 194.810798 
L 412.323982 190.248422 
L 413.78566 190.248422 
L 413.78566 185.686046 
L 414.404413 185.686046 
L 414.404413 181.12367 
L 417.761557 181.12367 
L 417.761557 176.561293 
L 428.210094 176.561293 
L 428.210094 171.998917 
L 432.185037 171.998917 
L 432.185037 167.436541 
L 438.127226 167.436541 
L 438.127226 162.874165 
L 521.9625 162.874165 
" style="fill:none;stroke:#f5deb3;stroke-linecap:square;"/>
   </g>
   <g id="line2d_15"/>
   <g id="line2d_16">
    <path clip-path="url(#pc2978a4fcb)" d="M 466.881229 359.056343 
L 466.881229 354.493967 
L 467.576482 354.493967 
L 467.576482 349.93159 
L 469.164849 349.93159 
L 469.164849 345.369214 
L 469.877053 345.369214 
L 469.877053 340.806838 
L 476.1614 340.806838 
L 476.1614 336.244462 
L 481.485765 336.244462 
L 481.485765 331.682085 
L 484.876936 331.682085 
L 484.876936 327.119709 
L 487.477639 327.119709 
L 487.477639 322.557333 
L 488.73432 322.557333 
L 488.73432 317.994957 
L 489.158485 317.994957 
L 489.158485 313.43258 
L 490.751114 313.43258 
L 490.751114 308.870204 
L 491.35785 308.870204 
L 491.35785 304.307828 
L 496.81088 304.307828 
L 496.81088 299.745452 
L 498.468708 299.745452 
L 498.468708 295.183075 
L 515.09988 295.183075 
L 515.09988 290.620699 
L 521.9625 290.620699 
L 521.9625 290.620699 
" style="fill:none;stroke:#f5deb3;stroke-linecap:square;"/>
   </g>
   <g id="line2d_17">
    <path clip-path="url(#pc2978a4fcb)" d="M 507.806581 359.056343 
L 507.806581 354.493967 
L 517.551648 354.493967 
L 517.551648 349.93159 
L 517.551648 349.93159 
L 517.551648 345.369214 
L 517.752778 345.369214 
L 517.752778 340.806838 
L 521.907497 340.806838 
L 521.907497 336.244462 
L 521.9625 336.244462 
" style="fill:none;stroke:#f5deb3;stroke-linecap:square;"/>
   </g>
   <g id="line2d_18">
    <path clip-path="url(#pc2978a4fcb)" d="M 131.855587 359.056343 
L 131.855587 354.493967 
L 131.855587 354.493967 
L 131.855587 349.93159 
L 131.855587 349.93159 
L 131.855587 345.369214 
L 131.855587 345.369214 
L 131.855587 340.806838 
L 131.855587 340.806838 
L 131.855587 336.244462 
L 131.855587 336.244462 
L 131.855587 331.682085 
L 131.855587 331.682085 
L 131.855587 327.119709 
L 131.855587 327.119709 
L 131.855587 322.557333 
L 133.792527 322.557333 
L 133.792527 317.994957 
L 133.792527 317.994957 
L 133.792527 313.43258 
L 133.792527 313.43258 
L 133.792527 308.870204 
L 133.792527 308.870204 
L 133.792527 304.307828 
L 133.792527 304.307828 
L 133.792527 299.745452 
L 133.792527 299.745452 
L 133.792527 295.183075 
L 137.537729 295.183075 
L 137.537729 290.620699 
L 139.349694 290.620699 
L 139.349694 286.058323 
L 139.349694 286.058323 
L 139.349694 281.495947 
L 144.562893 281.495947 
L 144.562893 276.933571 
L 146.231327 276.933571 
L 146.231327 272.371194 
L 149.472233 272.371194 
L 149.472233 267.808818 
L 158.508008 267.808818 
L 158.508008 263.246442 
L 159.924061 263.246442 
L 159.924061 258.684066 
L 159.924061 258.684066 
L 159.924061 254.121689 
L 164.034787 254.121689 
L 164.034787 249.559313 
L 180.941928 249.559313 
L 180.941928 244.996937 
L 182.02908 244.996937 
L 182.02908 240.434561 
L 182.02908 240.434561 
L 182.02908 235.872184 
L 188.272911 235.872184 
L 188.272911 231.309808 
L 190.25543 231.309808 
L 190.25543 226.747432 
L 193.144393 226.747432 
L 193.144393 222.185056 
L 521.9625 222.185056 
" style="fill:none;stroke:#f5deb3;stroke-linecap:square;"/>
   </g>
   <g id="line2d_19">
    <path clip-path="url(#pc2978a4fcb)" d="M 585.722801 359.056343 
" style="fill:none;stroke:#f5deb3;stroke-linecap:square;"/>
   </g>
   <g id="line2d_20">
    <path clip-path="url(#pc2978a4fcb)" d="M 239.34177 359.056343 
L 239.34177 354.493967 
L 250.112136 354.493967 
L 250.112136 349.93159 
L 251.069569 349.93159 
L 251.069569 345.369214 
L 257.483231 345.369214 
L 257.483231 340.806838 
L 269.774864 340.806838 
L 269.774864 336.244462 
L 274.590641 336.244462 
L 274.590641 331.682085 
L 276.723747 331.682085 
L 276.723747 327.119709 
L 277.770383 327.119709 
L 277.770383 322.557333 
L 287.269137 322.557333 
L 287.269137 317.994957 
L 291.202674 317.994957 
L 291.202674 313.43258 
L 293.822155 313.43258 
L 293.822155 308.870204 
L 297.741613 308.870204 
L 297.741613 304.307828 
L 301.486815 304.307828 
L 301.486815 299.745452 
L 307.299682 299.745452 
L 307.299682 295.183075 
L 321.637106 295.183075 
L 321.637106 290.620699 
L 435.555613 290.620699 
L 435.555613 286.058323 
L 437.504663 286.058323 
L 437.504663 281.495947 
L 441.172853 281.495947 
L 441.172853 276.933571 
L 442.016136 276.933571 
L 442.016136 272.371194 
L 447.647831 272.371194 
L 447.647831 267.808818 
L 451.129676 267.808818 
L 451.129676 263.246442 
L 451.129676 263.246442 
L 451.129676 258.684066 
L 451.571487 258.684066 
L 451.571487 254.121689 
L 451.571487 254.121689 
L 451.571487 249.559313 
L 451.791526 249.559313 
L 451.791526 244.996937 
L 452.448219 244.996937 
L 452.448219 240.434561 
L 456.94845 240.434561 
L 456.94845 235.872184 
L 457.893969 235.872184 
L 457.893969 231.309808 
L 460.391139 231.309808 
L 460.391139 226.747432 
L 472.529815 226.747432 
L 472.529815 222.185056 
L 521.9625 222.185056 
" style="fill:none;stroke:#f5deb3;stroke-linecap:square;"/>
   </g>
   <g id="line2d_21">
    <path clip-path="url(#pc2978a4fcb)" d="M 555.467906 359.056343 
" style="fill:none;stroke:#f5deb3;stroke-linecap:square;"/>
   </g>
   <g id="line2d_22">
    <path clip-path="url(#pc2978a4fcb)" d="M 279.145976 359.056343 
L 279.145976 354.493967 
L 285.389807 354.493967 
L 285.389807 349.93159 
L 293.822155 349.93159 
L 293.822155 345.369214 
L 298.828766 345.369214 
L 298.828766 340.806838 
L 304.82147 340.806838 
L 304.82147 336.244462 
L 310.416086 336.244462 
L 310.416086 331.682085 
L 310.651102 331.682085 
L 310.651102 327.119709 
L 311.816448 327.119709 
L 311.816448 322.557333 
L 313.874294 322.557333 
L 313.874294 317.994957 
L 314.549223 317.994957 
L 314.549223 313.43258 
L 320.600768 313.43258 
L 320.600768 308.870204 
L 321.016834 308.870204 
L 321.016834 304.307828 
L 322.457094 304.307828 
L 322.457094 299.745452 
L 329.686015 299.745452 
L 329.686015 295.183075 
L 357.766969 295.183075 
L 357.766969 290.620699 
L 442.557326 290.620699 
L 442.557326 286.058323 
L 457.607324 286.058323 
L 457.607324 281.495947 
L 457.607324 281.495947 
L 457.607324 276.933571 
L 458.950195 276.933571 
L 458.950195 272.371194 
L 460.232246 272.371194 
L 460.232246 267.808818 
L 461.53424 267.808818 
L 461.53424 263.246442 
L 466.62363 263.246442 
L 466.62363 258.684066 
L 467.064747 258.684066 
L 467.064747 254.121689 
L 467.540032 254.121689 
L 467.540032 249.559313 
L 468.770556 249.559313 
L 468.770556 244.996937 
L 471.492627 244.996937 
L 471.492627 240.434561 
L 478.048958 240.434561 
L 478.048958 235.872184 
L 478.658213 235.872184 
L 478.658213 231.309808 
L 482.468679 231.309808 
L 482.468679 226.747432 
L 487.56392 226.747432 
L 487.56392 222.185056 
L 514.559127 222.185056 
L 514.559127 217.622679 
L 518.293442 217.622679 
L 518.293442 213.060303 
L 521.9625 213.060303 
" style="fill:none;stroke:#f5deb3;stroke-linecap:square;"/>
   </g>
   <g id="line2d_23">
    <path clip-path="url(#pc2978a4fcb)" d="M 364.963685 359.056343 
L 364.963685 354.493967 
L 379.312853 354.493967 
L 379.312853 349.93159 
L 382.373232 349.93159 
L 382.373232 345.369214 
L 383.862719 345.369214 
L 383.862719 340.806838 
L 386.383716 340.806838 
L 386.383716 336.244462 
L 390.394308 336.244462 
L 390.394308 331.682085 
L 393.61115 331.682085 
L 393.61115 327.119709 
L 412.394164 327.119709 
L 412.394164 322.557333 
L 521.9625 322.557333 
" style="fill:none;stroke:#f5deb3;stroke-linecap:square;"/>
   </g>
   <g id="line2d_24">
    <path clip-path="url(#pc2978a4fcb)" d="M 456.61707 359.056343 
L 456.61707 354.493967 
L 467.503567 354.493967 
L 467.503567 349.93159 
L 484.96592 349.93159 
L 484.96592 345.369214 
L 485.054811 345.369214 
L 485.054811 340.806838 
L 485.08442 340.806838 
L 485.08442 336.244462 
L 489.972531 336.244462 
L 489.972531 331.682085 
L 493.071533 331.682085 
L 493.071533 327.119709 
L 493.232937 327.119709 
L 493.232937 322.557333 
L 500.317206 322.557333 
L 500.317206 317.994957 
L 500.736193 317.994957 
L 500.736193 313.43258 
L 507.057256 313.43258 
L 507.057256 308.870204 
L 507.216762 308.870204 
L 507.216762 304.307828 
L 513.319006 304.307828 
L 513.319006 299.745452 
L 519.127638 299.745452 
L 519.127638 295.183075 
L 519.206657 295.183075 
L 519.206657 290.620699 
L 521.9625 290.620699 
" style="fill:none;stroke:#f5deb3;stroke-linecap:square;"/>
   </g>
   <g id="line2d_25">
    <path clip-path="url(#pc2978a4fcb)" d="M 374.282917 359.056343 
L 374.282917 354.493967 
L 379.416677 354.493967 
L 379.416677 349.93159 
L 380.44794 349.93159 
L 380.44794 345.369214 
L 382.072148 345.369214 
L 382.072148 340.806838 
L 401.153743 340.806838 
L 401.153743 336.244462 
L 403.290857 336.244462 
L 403.290857 331.682085 
L 403.758498 331.682085 
L 403.758498 327.119709 
L 409.757698 327.119709 
L 409.757698 322.557333 
L 421.243055 322.557333 
L 421.243055 317.994957 
L 429.020227 317.994957 
L 429.020227 313.43258 
L 430.786844 313.43258 
L 430.786844 308.870204 
L 438.950219 308.870204 
L 438.950219 304.307828 
L 440.270669 304.307828 
L 440.270669 299.745452 
L 445.591634 299.745452 
L 445.591634 295.183075 
L 521.9625 295.183075 
" style="fill:none;stroke:#f5deb3;stroke-linecap:square;"/>
   </g>
   <g id="line2d_26">
    <path clip-path="url(#pc2978a4fcb)" d="M 437.712696 359.056343 
L 437.712696 354.493967 
L 439.05253 354.493967 
L 439.05253 349.93159 
L 443.822851 349.93159 
L 443.822851 345.369214 
L 444.974392 345.369214 
L 444.974392 340.806838 
L 445.164795 340.806838 
L 445.164795 336.244462 
L 445.591634 336.244462 
L 445.591634 331.682085 
L 445.638928 331.682085 
L 445.638928 327.119709 
L 446.905917 327.119709 
L 446.905917 322.557333 
L 446.905917 322.557333 
L 446.905917 317.994957 
L 448.520453 317.994957 
L 448.520453 313.43258 
L 450.149459 313.43258 
L 450.149459 308.870204 
L 450.996679 308.870204 
L 450.996679 304.307828 
L 452.92656 304.307828 
L 452.92656 299.745452 
L 453.315921 299.745452 
L 453.315921 295.183075 
L 474.365173 295.183075 
L 474.365173 290.620699 
L 521.9625 290.620699 
" style="fill:none;stroke:#f5deb3;stroke-linecap:square;"/>
   </g>
   <g id="line2d_27">
    <path clip-path="url(#pc2978a4fcb)" d="M 567.318063 359.056343 
" style="fill:none;stroke:#f5deb3;stroke-linecap:square;"/>
   </g>
   <g id="line2d_28">
    <path clip-path="url(#pc2978a4fcb)" d="M 317.413005 359.056343 
L 317.413005 354.493967 
L 317.629316 354.493967 
L 317.629316 349.93159 
L 317.845073 349.93159 
L 317.845073 345.369214 
L 318.060279 345.369214 
L 318.060279 340.806838 
L 326.246633 340.806838 
L 326.246633 336.244462 
L 326.246633 336.244462 
L 326.246633 331.682085 
L 326.246633 331.682085 
L 326.246633 327.119709 
L 326.246633 327.119709 
L 326.246633 322.557333 
L 326.441438 322.557333 
L 326.441438 317.994957 
L 334.241349 317.994957 
L 334.241349 313.43258 
L 334.241349 313.43258 
L 334.241349 308.870204 
L 334.771801 308.870204 
L 334.771801 304.307828 
L 342.35212 304.307828 
L 342.35212 299.745452 
L 348.41164 299.745452 
L 348.41164 295.183075 
L 360.797511 295.183075 
L 360.797511 290.620699 
L 521.9625 290.620699 
" style="fill:none;stroke:#f5deb3;stroke-linecap:square;"/>
   </g>
   <g id="line2d_29">
    <path clip-path="url(#pc2978a4fcb)" d="M 125.762343 359.056343 
L 125.762343 354.493967 
L 125.762343 354.493967 
L 125.762343 349.93159 
L 125.762343 349.93159 
L 125.762343 345.369214 
L 125.762343 345.369214 
L 125.762343 340.806838 
L 125.762343 340.806838 
L 125.762343 336.244462 
L 125.762343 336.244462 
L 125.762343 331.682085 
L 127.842774 331.682085 
L 127.842774 327.119709 
L 127.842774 327.119709 
L 127.842774 322.557333 
L 127.842774 322.557333 
L 127.842774 317.994957 
L 127.842774 317.994957 
L 127.842774 313.43258 
L 127.842774 313.43258 
L 127.842774 308.870204 
L 127.842774 308.870204 
L 127.842774 304.307828 
L 127.842774 304.307828 
L 127.842774 299.745452 
L 127.842774 299.745452 
L 127.842774 295.183075 
L 127.842774 295.183075 
L 127.842774 290.620699 
L 167.954245 290.620699 
L 167.954245 286.058323 
L 167.954245 286.058323 
L 167.954245 281.495947 
L 167.954245 281.495947 
L 167.954245 276.933571 
L 308.752359 276.933571 
L 308.752359 272.371194 
L 308.752359 272.371194 
L 308.752359 267.808818 
L 308.752359 267.808818 
L 308.752359 263.246442 
L 309.944079 263.246442 
L 309.944079 258.684066 
L 309.944079 258.684066 
L 309.944079 254.121689 
L 309.944079 254.121689 
L 309.944079 249.559313 
L 310.885465 249.559313 
L 310.885465 244.996937 
L 310.885465 244.996937 
L 310.885465 240.434561 
L 310.885465 240.434561 
L 310.885465 235.872184 
L 311.352242 235.872184 
L 311.352242 231.309808 
L 311.352242 231.309808 
L 311.352242 226.747432 
L 311.352242 226.747432 
L 311.352242 222.185056 
L 311.352242 222.185056 
L 311.352242 222.185056 
L 513.7625 222.185056 
" style="fill:none;stroke:#f5deb3;stroke-linecap:square;"/>
   </g>
   <g id="line2d_30">
    <path clip-path="url(#pc2978a4fcb)" d="M 311.119177 359.056343 
L 311.119177 354.493967 
L 311.119177 354.493967 
L 311.119177 349.93159 
L 312.278111 349.93159 
L 312.278111 345.369214 
L 314.324847 345.369214 
L 314.324847 340.806838 
L 315.218788 340.806838 
L 315.218788 336.244462 
L 315.218788 336.244462 
L 315.218788 331.682085 
L 316.542163 331.682085 
L 316.542163 327.119709 
L 316.978709 327.119709 
L 316.978709 322.557333 
L 317.196137 322.557333 
L 317.196137 317.994957 
L 317.413005 317.994957 
L 317.413005 313.43258 
L 318.060279 313.43258 
L 318.060279 308.870204 
L 319.340099 308.870204 
L 319.340099 304.307828 
L 320.391962 304.307828 
L 320.391962 299.745452 
L 320.600768 299.745452 
L 320.600768 295.183075 
L 322.457094 295.183075 
L 322.457094 290.620699 
L 322.864115 290.620699 
L 322.864115 286.058323 
L 323.470983 286.058323 
L 323.470983 281.495947 
L 324.870238 281.495947 
L 324.870238 276.933571 
L 325.462877 276.933571 
L 325.462877 272.371194 
L 326.246633 272.371194 
L 326.246633 267.808818 
L 327.600903 267.808818 
L 327.600903 263.246442 
L 328.174707 263.246442 
L 328.174707 258.684066 
L 330.059644 258.684066 
L 330.059644 254.121689 
L 332.0855 254.121689 
L 332.0855 249.559313 
L 332.629656 249.559313 
L 332.629656 244.996937 
L 332.990484 244.996937 
L 332.990484 240.434561 
L 334.418538 240.434561 
L 334.418538 235.872184 
L 335.473915 235.872184 
L 335.473915 231.309808 
L 335.82279 231.309808 
L 335.82279 226.747432 
L 354.483963 226.747432 
L 354.483963 222.185056 
L 360.926833 222.185056 
L 360.926833 217.622679 
L 360.926833 217.622679 
L 360.926833 213.060303 
L 360.926833 213.060303 
L 360.926833 208.497927 
L 360.926833 208.497927 
L 360.926833 203.935551 
L 360.926833 203.935551 
L 360.926833 199.373175 
L 360.926833 199.373175 
L 360.926833 194.810798 
L 360.926833 194.810798 
L 360.926833 190.248422 
L 360.926833 190.248422 
L 360.926833 185.686046 
L 360.926833 185.686046 
L 360.926833 181.12367 
L 360.926833 181.12367 
L 360.926833 176.561293 
L 360.926833 176.561293 
L 360.926833 171.998917 
L 360.926833 171.998917 
L 360.926833 167.436541 
L 360.926833 167.436541 
L 360.926833 162.874165 
L 360.926833 162.874165 
L 360.926833 158.311788 
L 360.926833 158.311788 
L 360.926833 153.749412 
L 360.926833 153.749412 
L 360.926833 153.749412 
L 513.7625 153.749412 
" style="fill:none;stroke:#f5deb3;stroke-linecap:square;"/>
   </g>
   <g id="line2d_31">
    <path clip-path="url(#pc2978a4fcb)" d="M 375.59598 359.056343 
L 375.59598 354.493967 
L 375.59598 354.493967 
L 375.59598 349.93159 
L 383.566921 349.93159 
L 383.566921 345.369214 
L 384.451219 345.369214 
L 384.451219 340.806838 
L 386.479187 340.806838 
L 386.479187 336.244462 
L 387.522289 336.244462 
L 387.522289 331.682085 
L 390.211942 331.682085 
L 390.211942 327.119709 
L 391.300265 327.119709 
L 391.300265 322.557333 
L 394.309626 322.557333 
L 394.309626 317.994957 
L 395.432442 317.994957 
L 395.432442 313.43258 
L 395.774935 313.43258 
L 395.774935 308.870204 
L 397.634158 308.870204 
L 397.634158 304.307828 
L 398.217227 304.307828 
L 398.217227 299.745452 
L 398.38308 299.745452 
L 398.38308 295.183075 
L 400.023894 295.183075 
L 400.023894 290.620699 
L 408.223788 290.620699 
L 408.223788 286.058323 
L 409.685284 286.058323 
L 409.685284 281.495947 
L 411.40626 281.495947 
L 411.40626 276.933571 
L 413.023183 276.933571 
L 413.023183 272.371194 
L 415.357976 272.371194 
L 415.357976 267.808818 
L 420.736268 267.808818 
L 420.736268 263.246442 
L 421.49531 263.246442 
L 421.49531 258.684066 
L 424.221386 258.684066 
L 424.221386 254.121689 
L 425.671978 254.121689 
L 425.671978 249.559313 
L 425.971067 249.559313 
L 425.971067 244.996937 
L 427.977189 244.996937 
L 427.977189 240.434561 
L 428.210094 240.434561 
L 428.210094 235.872184 
L 435.288735 235.872184 
L 435.288735 231.309808 
L 436.667358 231.309808 
L 436.667358 226.747432 
L 442.997547 226.747432 
L 442.997547 222.185056 
L 442.997547 222.185056 
L 442.997547 222.185056 
L 513.7625 222.185056 
" style="fill:none;stroke:#000000;stroke-linecap:square;"/>
   </g>
   <g id="line2d_32"/>
   <g id="line2d_33">
    <path clip-path="url(#pc2978a4fcb)" d="M 391.570163 359.056343 
L 391.570163 354.493967 
L 405.146047 354.493967 
L 405.146047 349.93159 
L 406.134142 349.93159 
L 406.134142 345.369214 
L 406.435855 345.369214 
L 406.435855 340.806838 
L 407.334564 340.806838 
L 407.334564 336.244462 
L 410.62184 336.244462 
L 410.62184 331.682085 
L 411.618931 331.682085 
L 411.618931 327.119709 
L 412.464287 327.119709 
L 412.464287 322.557333 
L 413.231816 322.557333 
L 413.231816 317.994957 
L 414.129973 317.994957 
L 414.129973 313.43258 
L 415.898062 313.43258 
L 415.898062 308.870204 
L 419.970325 308.870204 
L 419.970325 304.307828 
L 421.053367 304.307828 
L 421.053367 299.745452 
L 421.30619 299.745452 
L 421.30619 295.183075 
L 421.809571 295.183075 
L 421.809571 290.620699 
L 498.139742 290.620699 
L 498.139742 286.058323 
L 499.920953 286.058323 
L 499.920953 281.495947 
L 502.656368 281.495947 
L 502.656368 276.933571 
L 503.23115 276.933571 
L 503.23115 272.371194 
L 503.588408 272.371194 
L 503.588408 267.808818 
L 504.109661 267.808818 
L 504.109661 263.246442 
L 504.51025 263.246442 
L 504.51025 258.684066 
L 505.677533 258.684066 
L 505.677533 254.121689 
L 506.070754 254.121689 
L 506.070754 249.559313 
L 506.851732 249.559313 
L 506.851732 244.996937 
L 508.279978 244.996937 
L 508.279978 240.434561 
L 510.345056 240.434561 
L 510.345056 235.872184 
L 511.326403 235.872184 
L 511.326403 231.309808 
L 512.017361 231.309808 
L 512.017361 226.747432 
L 512.017361 226.747432 
L 512.017361 226.747432 
L 513.7625 226.747432 
" style="fill:none;stroke:#00bfbf;stroke-linecap:square;"/>
   </g>
   <g id="line2d_34"/>
   <g id="line2d_35">
    <path clip-path="url(#pc2978a4fcb)" d="M 391.570163 359.056343 
L 391.570163 354.493967 
L 405.98288 354.493967 
L 405.98288 349.93159 
L 406.134142 349.93159 
L 406.134142 345.369214 
L 406.435855 345.369214 
L 406.435855 340.806838 
L 407.334564 340.806838 
L 407.334564 336.244462 
L 411.618931 336.244462 
L 411.618931 331.682085 
L 412.464287 331.682085 
L 412.464287 327.119709 
L 413.231816 327.119709 
L 413.231816 322.557333 
L 414.129973 322.557333 
L 414.129973 317.994957 
L 415.898062 317.994957 
L 415.898062 313.43258 
L 415.96533 313.43258 
L 415.96533 308.870204 
L 419.970325 308.870204 
L 419.970325 304.307828 
L 421.053367 304.307828 
L 421.053367 299.745452 
L 421.30619 299.745452 
L 421.30619 295.183075 
L 421.809571 295.183075 
L 421.809571 290.620699 
L 421.809571 290.620699 
L 421.809571 290.620699 
L 513.7625 290.620699 
" style="fill:none;stroke:#bf00bf;stroke-linecap:square;"/>
   </g>
   <g id="line2d_36"/>
   <g id="line2d_37">
    <path clip-path="url(#pc2978a4fcb)" d="M 391.570163 359.056343 
L 391.570163 354.493967 
L 405.98288 354.493967 
L 405.98288 349.93159 
L 406.134142 349.93159 
L 406.134142 345.369214 
L 406.435855 345.369214 
L 406.435855 340.806838 
L 407.334564 340.806838 
L 407.334564 336.244462 
L 411.618931 336.244462 
L 411.618931 331.682085 
L 412.464287 331.682085 
L 412.464287 327.119709 
L 413.231816 327.119709 
L 413.231816 322.557333 
L 414.129973 322.557333 
L 414.129973 317.994957 
L 415.898062 317.994957 
L 415.898062 313.43258 
L 415.96533 313.43258 
L 415.96533 308.870204 
L 419.970325 308.870204 
L 419.970325 304.307828 
L 421.053367 304.307828 
L 421.053367 299.745452 
L 421.30619 299.745452 
L 421.30619 295.183075 
L 421.809571 295.183075 
L 421.809571 290.620699 
L 421.809571 290.620699 
L 421.809571 290.620699 
L 513.7625 290.620699 
" style="fill:none;stroke:#ff0000;stroke-linecap:square;stroke-width:3.0;"/>
   </g>
   <g id="line2d_38"/>
   <g id="line2d_39">
    <path clip-path="url(#pc2978a4fcb)" d="M 513.7625 359.056343 
L 513.7625 13.456343 
" style="fill:none;stroke:#000000;stroke-linecap:square;"/>
   </g>
   <g id="patch_3">
    <path d="M 67.3625 13.456343 
L 513.7625 13.456343 
" style="fill:none;stroke:#000000;stroke-linecap:square;stroke-linejoin:miter;"/>
   </g>
   <g id="patch_4">
    <path d="M 513.7625 359.056343 
L 513.7625 13.456343 
" style="fill:none;stroke:#000000;stroke-linecap:square;stroke-linejoin:miter;"/>
   </g>
   <g id="patch_5">
    <path d="M 67.3625 359.056343 
L 513.7625 359.056343 
" style="fill:none;stroke:#000000;stroke-linecap:square;stroke-linejoin:miter;"/>
   </g>
   <g id="patch_6">
    <path d="M 67.3625 359.056343 
L 67.3625 13.456343 
" style="fill:none;stroke:#000000;stroke-linecap:square;stroke-linejoin:miter;"/>
   </g>
   <g id="matplotlib.axis_1">
    <g id="xtick_1">
     <g id="line2d_40">
      <path clip-path="url(#pc2978a4fcb)" d="M 67.3625 359.056343 
L 67.3625 13.456343 
" style="fill:none;stroke:#000000;stroke-dasharray:1.000000,3.000000;stroke-dashoffset:0.0;stroke-width:0.5;"/>
     </g>
     <g id="line2d_41">
      <defs>
       <path d="M 0 0 
L 0 -4 
" id="m344631bb35" style="stroke:#000000;stroke-width:0.5;"/>
      </defs>
      <g>
       <use style="stroke:#000000;stroke-width:0.5;" x="67.3625" xlink:href="#m344631bb35" y="359.056342822"/>
      </g>
     </g>
     <g id="line2d_42">
      <defs>
       <path d="M 0 0 
L 0 4 
" id="m93cc5b5d66" style="stroke:#000000;stroke-width:0.5;"/>
      </defs>
      <g>
       <use style="stroke:#000000;stroke-width:0.5;" x="67.3625" xlink:href="#m93cc5b5d66" y="13.4563428218"/>
      </g>
     </g>
     <g id="text_1">
      <!-- 0 -->
      <defs>
       <path d="M 31.78125 66.40625 
Q 24.171875 66.40625 20.328125 58.90625 
Q 16.5 51.421875 16.5 36.375 
Q 16.5 21.390625 20.328125 13.890625 
Q 24.171875 6.390625 31.78125 6.390625 
Q 39.453125 6.390625 43.28125 13.890625 
Q 47.125 21.390625 47.125 36.375 
Q 47.125 51.421875 43.28125 58.90625 
Q 39.453125 66.40625 31.78125 66.40625 
M 31.78125 74.21875 
Q 44.046875 74.21875 50.515625 64.515625 
Q 56.984375 54.828125 56.984375 36.375 
Q 56.984375 17.96875 50.515625 8.265625 
Q 44.046875 -1.421875 31.78125 -1.421875 
Q 19.53125 -1.421875 13.0625 8.265625 
Q 6.59375 17.96875 6.59375 36.375 
Q 6.59375 54.828125 13.0625 64.515625 
Q 19.53125 74.21875 31.78125 74.21875 
" id="BitstreamVeraSans-Roman-30"/>
      </defs>
      <g transform="translate(61.0 378.253217822)scale(0.2 -0.2)">
       <use xlink:href="#BitstreamVeraSans-Roman-30"/>
      </g>
     </g>
    </g>
    <g id="xtick_2">
     <g id="line2d_43">
      <path clip-path="url(#pc2978a4fcb)" d="M 261.362579 359.056343 
L 261.362579 13.456343 
" style="fill:none;stroke:#000000;stroke-dasharray:1.000000,3.000000;stroke-dashoffset:0.0;stroke-width:0.5;"/>
     </g>
     <g id="line2d_44">
      <g>
       <use style="stroke:#000000;stroke-width:0.5;" x="261.362578591" xlink:href="#m344631bb35" y="359.056342822"/>
      </g>
     </g>
     <g id="line2d_45">
      <g>
       <use style="stroke:#000000;stroke-width:0.5;" x="261.362578591" xlink:href="#m93cc5b5d66" y="13.4563428218"/>
      </g>
     </g>
     <g id="text_2">
      <!-- 1 -->
      <defs>
       <path d="M 12.40625 8.296875 
L 28.515625 8.296875 
L 28.515625 63.921875 
L 10.984375 60.40625 
L 10.984375 69.390625 
L 28.421875 72.90625 
L 38.28125 72.90625 
L 38.28125 8.296875 
L 54.390625 8.296875 
L 54.390625 0 
L 12.40625 0 
z
" id="BitstreamVeraSans-Roman-31"/>
      </defs>
      <g transform="translate(255.000078591 378.253217822)scale(0.2 -0.2)">
       <use xlink:href="#BitstreamVeraSans-Roman-31"/>
      </g>
     </g>
    </g>
    <g id="xtick_3">
     <g id="line2d_46">
      <path clip-path="url(#pc2978a4fcb)" d="M 455.362657 359.056343 
L 455.362657 13.456343 
" style="fill:none;stroke:#000000;stroke-dasharray:1.000000,3.000000;stroke-dashoffset:0.0;stroke-width:0.5;"/>
     </g>
     <g id="line2d_47">
      <g>
       <use style="stroke:#000000;stroke-width:0.5;" x="455.362657183" xlink:href="#m344631bb35" y="359.056342822"/>
      </g>
     </g>
     <g id="line2d_48">
      <g>
       <use style="stroke:#000000;stroke-width:0.5;" x="455.362657183" xlink:href="#m93cc5b5d66" y="13.4563428218"/>
      </g>
     </g>
     <g id="text_3">
      <!-- 2 -->
      <defs>
       <path d="M 19.1875 8.296875 
L 53.609375 8.296875 
L 53.609375 0 
L 7.328125 0 
L 7.328125 8.296875 
Q 12.9375 14.109375 22.625 23.890625 
Q 32.328125 33.6875 34.8125 36.53125 
Q 39.546875 41.84375 41.421875 45.53125 
Q 43.3125 49.21875 43.3125 52.78125 
Q 43.3125 58.59375 39.234375 62.25 
Q 35.15625 65.921875 28.609375 65.921875 
Q 23.96875 65.921875 18.8125 64.3125 
Q 13.671875 62.703125 7.8125 59.421875 
L 7.8125 69.390625 
Q 13.765625 71.78125 18.9375 73 
Q 24.125 74.21875 28.421875 74.21875 
Q 39.75 74.21875 46.484375 68.546875 
Q 53.21875 62.890625 53.21875 53.421875 
Q 53.21875 48.921875 51.53125 44.890625 
Q 49.859375 40.875 45.40625 35.40625 
Q 44.1875 33.984375 37.640625 27.21875 
Q 31.109375 20.453125 19.1875 8.296875 
" id="BitstreamVeraSans-Roman-32"/>
      </defs>
      <g transform="translate(449.000157183 378.253217822)scale(0.2 -0.2)">
       <use xlink:href="#BitstreamVeraSans-Roman-32"/>
      </g>
     </g>
    </g>
    <g id="xtick_4">
     <g id="line2d_49">
      <defs>
       <path d="M 0 0 
L 0 -2 
" id="mad49d1ec34" style="stroke:#000000;stroke-width:0.5;"/>
      </defs>
      <g>
       <use style="stroke:#000000;stroke-width:0.5;" x="125.762342817" xlink:href="#mad49d1ec34" y="359.056342822"/>
      </g>
     </g>
     <g id="line2d_50">
      <defs>
       <path d="M 0 0 
L 0 2 
" id="m8730fc5e2e" style="stroke:#000000;stroke-width:0.5;"/>
      </defs>
      <g>
       <use style="stroke:#000000;stroke-width:0.5;" x="125.762342817" xlink:href="#m8730fc5e2e" y="13.4563428218"/>
      </g>
     </g>
    </g>
    <g id="xtick_5">
     <g id="line2d_51">
      <g>
       <use style="stroke:#000000;stroke-width:0.5;" x="159.924060913" xlink:href="#mad49d1ec34" y="359.056342822"/>
      </g>
     </g>
     <g id="line2d_52">
      <g>
       <use style="stroke:#000000;stroke-width:0.5;" x="159.924060913" xlink:href="#m8730fc5e2e" y="13.4563428218"/>
      </g>
     </g>
    </g>
    <g id="xtick_6">
     <g id="line2d_53">
      <g>
       <use style="stroke:#000000;stroke-width:0.5;" x="184.162185634" xlink:href="#mad49d1ec34" y="359.056342822"/>
      </g>
     </g>
     <g id="line2d_54">
      <g>
       <use style="stroke:#000000;stroke-width:0.5;" x="184.162185634" xlink:href="#m8730fc5e2e" y="13.4563428218"/>
      </g>
     </g>
    </g>
    <g id="xtick_7">
     <g id="line2d_55">
      <g>
       <use style="stroke:#000000;stroke-width:0.5;" x="202.962735774" xlink:href="#mad49d1ec34" y="359.056342822"/>
      </g>
     </g>
     <g id="line2d_56">
      <g>
       <use style="stroke:#000000;stroke-width:0.5;" x="202.962735774" xlink:href="#m8730fc5e2e" y="13.4563428218"/>
      </g>
     </g>
    </g>
    <g id="xtick_8">
     <g id="line2d_57">
      <g>
       <use style="stroke:#000000;stroke-width:0.5;" x="218.32390373" xlink:href="#mad49d1ec34" y="359.056342822"/>
      </g>
     </g>
     <g id="line2d_58">
      <g>
       <use style="stroke:#000000;stroke-width:0.5;" x="218.32390373" xlink:href="#m8730fc5e2e" y="13.4563428218"/>
      </g>
     </g>
    </g>
    <g id="xtick_9">
     <g id="line2d_59">
      <g>
       <use style="stroke:#000000;stroke-width:0.5;" x="231.31158618" xlink:href="#mad49d1ec34" y="359.056342822"/>
      </g>
     </g>
     <g id="line2d_60">
      <g>
       <use style="stroke:#000000;stroke-width:0.5;" x="231.31158618" xlink:href="#m8730fc5e2e" y="13.4563428218"/>
      </g>
     </g>
    </g>
    <g id="xtick_10">
     <g id="line2d_61">
      <g>
       <use style="stroke:#000000;stroke-width:0.5;" x="242.562028452" xlink:href="#mad49d1ec34" y="359.056342822"/>
      </g>
     </g>
     <g id="line2d_62">
      <g>
       <use style="stroke:#000000;stroke-width:0.5;" x="242.562028452" xlink:href="#m8730fc5e2e" y="13.4563428218"/>
      </g>
     </g>
    </g>
    <g id="xtick_11">
     <g id="line2d_63">
      <g>
       <use style="stroke:#000000;stroke-width:0.5;" x="252.485621826" xlink:href="#mad49d1ec34" y="359.056342822"/>
      </g>
     </g>
     <g id="line2d_64">
      <g>
       <use style="stroke:#000000;stroke-width:0.5;" x="252.485621826" xlink:href="#m8730fc5e2e" y="13.4563428218"/>
      </g>
     </g>
    </g>
    <g id="xtick_12">
     <g id="line2d_65">
      <g>
       <use style="stroke:#000000;stroke-width:0.5;" x="319.762421409" xlink:href="#mad49d1ec34" y="359.056342822"/>
      </g>
     </g>
     <g id="line2d_66">
      <g>
       <use style="stroke:#000000;stroke-width:0.5;" x="319.762421409" xlink:href="#m8730fc5e2e" y="13.4563428218"/>
      </g>
     </g>
    </g>
    <g id="xtick_13">
     <g id="line2d_67">
      <g>
       <use style="stroke:#000000;stroke-width:0.5;" x="353.924139505" xlink:href="#mad49d1ec34" y="359.056342822"/>
      </g>
     </g>
     <g id="line2d_68">
      <g>
       <use style="stroke:#000000;stroke-width:0.5;" x="353.924139505" xlink:href="#m8730fc5e2e" y="13.4563428218"/>
      </g>
     </g>
    </g>
    <g id="xtick_14">
     <g id="line2d_69">
      <g>
       <use style="stroke:#000000;stroke-width:0.5;" x="378.162264226" xlink:href="#mad49d1ec34" y="359.056342822"/>
      </g>
     </g>
     <g id="line2d_70">
      <g>
       <use style="stroke:#000000;stroke-width:0.5;" x="378.162264226" xlink:href="#m8730fc5e2e" y="13.4563428218"/>
      </g>
     </g>
    </g>
    <g id="xtick_15">
     <g id="line2d_71">
      <g>
       <use style="stroke:#000000;stroke-width:0.5;" x="396.962814366" xlink:href="#mad49d1ec34" y="359.056342822"/>
      </g>
     </g>
     <g id="line2d_72">
      <g>
       <use style="stroke:#000000;stroke-width:0.5;" x="396.962814366" xlink:href="#m8730fc5e2e" y="13.4563428218"/>
      </g>
     </g>
    </g>
    <g id="xtick_16">
     <g id="line2d_73">
      <g>
       <use style="stroke:#000000;stroke-width:0.5;" x="412.323982322" xlink:href="#mad49d1ec34" y="359.056342822"/>
      </g>
     </g>
     <g id="line2d_74">
      <g>
       <use style="stroke:#000000;stroke-width:0.5;" x="412.323982322" xlink:href="#m8730fc5e2e" y="13.4563428218"/>
      </g>
     </g>
    </g>
    <g id="xtick_17">
     <g id="line2d_75">
      <g>
       <use style="stroke:#000000;stroke-width:0.5;" x="425.311664772" xlink:href="#mad49d1ec34" y="359.056342822"/>
      </g>
     </g>
     <g id="line2d_76">
      <g>
       <use style="stroke:#000000;stroke-width:0.5;" x="425.311664772" xlink:href="#m8730fc5e2e" y="13.4563428218"/>
      </g>
     </g>
    </g>
    <g id="xtick_18">
     <g id="line2d_77">
      <g>
       <use style="stroke:#000000;stroke-width:0.5;" x="436.562107043" xlink:href="#mad49d1ec34" y="359.056342822"/>
      </g>
     </g>
     <g id="line2d_78">
      <g>
       <use style="stroke:#000000;stroke-width:0.5;" x="436.562107043" xlink:href="#m8730fc5e2e" y="13.4563428218"/>
      </g>
     </g>
    </g>
    <g id="xtick_19">
     <g id="line2d_79">
      <g>
       <use style="stroke:#000000;stroke-width:0.5;" x="446.485700418" xlink:href="#mad49d1ec34" y="359.056342822"/>
      </g>
     </g>
     <g id="line2d_80">
      <g>
       <use style="stroke:#000000;stroke-width:0.5;" x="446.485700418" xlink:href="#m8730fc5e2e" y="13.4563428218"/>
      </g>
     </g>
    </g>
    <g id="xtick_20">
     <g id="line2d_81">
      <g>
       <use style="stroke:#000000;stroke-width:0.5;" x="513.7625" xlink:href="#mad49d1ec34" y="359.056342822"/>
      </g>
     </g>
     <g id="line2d_82">
      <g>
       <use style="stroke:#000000;stroke-width:0.5;" x="513.7625" xlink:href="#m8730fc5e2e" y="13.4563428218"/>
      </g>
     </g>
    </g>
    <g id="text_4">
     <!-- log10 of FEvals / DIM -->
     <defs>
      <path id="BitstreamVeraSans-Roman-20"/>
      <path d="M 9.8125 72.90625 
L 24.515625 72.90625 
L 43.109375 23.296875 
L 61.8125 72.90625 
L 76.515625 72.90625 
L 76.515625 0 
L 66.890625 0 
L 66.890625 64.015625 
L 48.09375 14.015625 
L 38.1875 14.015625 
L 19.390625 64.015625 
L 19.390625 0 
L 9.8125 0 
z
" id="BitstreamVeraSans-Roman-4d"/>
      <path d="M 30.609375 48.390625 
Q 23.390625 48.390625 19.1875 42.75 
Q 14.984375 37.109375 14.984375 27.296875 
Q 14.984375 17.484375 19.15625 11.84375 
Q 23.34375 6.203125 30.609375 6.203125 
Q 37.796875 6.203125 41.984375 11.859375 
Q 46.1875 17.53125 46.1875 27.296875 
Q 46.1875 37.015625 41.984375 42.703125 
Q 37.796875 48.390625 30.609375 48.390625 
M 30.609375 56 
Q 42.328125 56 49.015625 48.375 
Q 55.71875 40.765625 55.71875 27.296875 
Q 55.71875 13.875 49.015625 6.21875 
Q 42.328125 -1.421875 30.609375 -1.421875 
Q 18.84375 -1.421875 12.171875 6.21875 
Q 5.515625 13.875 5.515625 27.296875 
Q 5.515625 40.765625 12.171875 48.375 
Q 18.84375 56 30.609375 56 
" id="BitstreamVeraSans-Roman-6f"/>
      <path d="M 9.421875 75.984375 
L 18.40625 75.984375 
L 18.40625 0 
L 9.421875 0 
z
" id="BitstreamVeraSans-Roman-6c"/>
      <path d="M 9.8125 72.90625 
L 51.703125 72.90625 
L 51.703125 64.59375 
L 19.671875 64.59375 
L 19.671875 43.109375 
L 48.578125 43.109375 
L 48.578125 34.8125 
L 19.671875 34.8125 
L 19.671875 0 
L 9.8125 0 
z
" id="BitstreamVeraSans-Roman-46"/>
      <path d="M 9.8125 72.90625 
L 55.90625 72.90625 
L 55.90625 64.59375 
L 19.671875 64.59375 
L 19.671875 43.015625 
L 54.390625 43.015625 
L 54.390625 34.71875 
L 19.671875 34.71875 
L 19.671875 8.296875 
L 56.78125 8.296875 
L 56.78125 0 
L 9.8125 0 
z
" id="BitstreamVeraSans-Roman-45"/>
      <path d="M 19.671875 64.796875 
L 19.671875 8.109375 
L 31.59375 8.109375 
Q 46.6875 8.109375 53.6875 14.9375 
Q 60.6875 21.78125 60.6875 36.53125 
Q 60.6875 51.171875 53.6875 57.984375 
Q 46.6875 64.796875 31.59375 64.796875 
z
M 9.8125 72.90625 
L 30.078125 72.90625 
Q 51.265625 72.90625 61.171875 64.09375 
Q 71.09375 55.28125 71.09375 36.53125 
Q 71.09375 17.671875 61.125 8.828125 
Q 51.171875 0 30.078125 0 
L 9.8125 0 
z
" id="BitstreamVeraSans-Roman-44"/>
      <path d="M 25.390625 72.90625 
L 33.6875 72.90625 
L 8.296875 -9.28125 
L 0 -9.28125 
z
" id="BitstreamVeraSans-Roman-2f"/>
      <path d="M 2.984375 54.6875 
L 12.5 54.6875 
L 29.59375 8.796875 
L 46.6875 54.6875 
L 56.203125 54.6875 
L 35.6875 0 
L 23.484375 0 
z
" id="BitstreamVeraSans-Roman-76"/>
      <path d="M 45.40625 27.984375 
Q 45.40625 37.75 41.375 43.109375 
Q 37.359375 48.484375 30.078125 48.484375 
Q 22.859375 48.484375 18.828125 43.109375 
Q 14.796875 37.75 14.796875 27.984375 
Q 14.796875 18.265625 18.828125 12.890625 
Q 22.859375 7.515625 30.078125 7.515625 
Q 37.359375 7.515625 41.375 12.890625 
Q 45.40625 18.265625 45.40625 27.984375 
M 54.390625 6.78125 
Q 54.390625 -7.171875 48.1875 -13.984375 
Q 42 -20.796875 29.203125 -20.796875 
Q 24.46875 -20.796875 20.265625 -20.09375 
Q 16.0625 -19.390625 12.109375 -17.921875 
L 12.109375 -9.1875 
Q 16.0625 -11.328125 19.921875 -12.34375 
Q 23.78125 -13.375 27.78125 -13.375 
Q 36.625 -13.375 41.015625 -8.765625 
Q 45.40625 -4.15625 45.40625 5.171875 
L 45.40625 9.625 
Q 42.625 4.78125 38.28125 2.390625 
Q 33.9375 0 27.875 0 
Q 17.828125 0 11.671875 7.65625 
Q 5.515625 15.328125 5.515625 27.984375 
Q 5.515625 40.671875 11.671875 48.328125 
Q 17.828125 56 27.875 56 
Q 33.9375 56 38.28125 53.609375 
Q 42.625 51.21875 45.40625 46.390625 
L 45.40625 54.6875 
L 54.390625 54.6875 
z
" id="BitstreamVeraSans-Roman-67"/>
      <path d="M 37.109375 75.984375 
L 37.109375 68.5 
L 28.515625 68.5 
Q 23.6875 68.5 21.796875 66.546875 
Q 19.921875 64.59375 19.921875 59.515625 
L 19.921875 54.6875 
L 34.71875 54.6875 
L 34.71875 47.703125 
L 19.921875 47.703125 
L 19.921875 0 
L 10.890625 0 
L 10.890625 47.703125 
L 2.296875 47.703125 
L 2.296875 54.6875 
L 10.890625 54.6875 
L 10.890625 58.5 
Q 10.890625 67.625 15.140625 71.796875 
Q 19.390625 75.984375 28.609375 75.984375 
z
" id="BitstreamVeraSans-Roman-66"/>
      <path d="M 34.28125 27.484375 
Q 23.390625 27.484375 19.1875 25 
Q 14.984375 22.515625 14.984375 16.5 
Q 14.984375 11.71875 18.140625 8.90625 
Q 21.296875 6.109375 26.703125 6.109375 
Q 34.1875 6.109375 38.703125 11.40625 
Q 43.21875 16.703125 43.21875 25.484375 
L 43.21875 27.484375 
z
M 52.203125 31.203125 
L 52.203125 0 
L 43.21875 0 
L 43.21875 8.296875 
Q 40.140625 3.328125 35.546875 0.953125 
Q 30.953125 -1.421875 24.3125 -1.421875 
Q 15.921875 -1.421875 10.953125 3.296875 
Q 6 8.015625 6 15.921875 
Q 6 25.140625 12.171875 29.828125 
Q 18.359375 34.515625 30.609375 34.515625 
L 43.21875 34.515625 
L 43.21875 35.40625 
Q 43.21875 41.609375 39.140625 45 
Q 35.0625 48.390625 27.6875 48.390625 
Q 23 48.390625 18.546875 47.265625 
Q 14.109375 46.140625 10.015625 43.890625 
L 10.015625 52.203125 
Q 14.9375 54.109375 19.578125 55.046875 
Q 24.21875 56 28.609375 56 
Q 40.484375 56 46.34375 49.84375 
Q 52.203125 43.703125 52.203125 31.203125 
" id="BitstreamVeraSans-Roman-61"/>
      <path d="M 44.28125 53.078125 
L 44.28125 44.578125 
Q 40.484375 46.53125 36.375 47.5 
Q 32.28125 48.484375 27.875 48.484375 
Q 21.1875 48.484375 17.84375 46.4375 
Q 14.5 44.390625 14.5 40.28125 
Q 14.5 37.15625 16.890625 35.375 
Q 19.28125 33.59375 26.515625 31.984375 
L 29.59375 31.296875 
Q 39.15625 29.25 43.1875 25.515625 
Q 47.21875 21.78125 47.21875 15.09375 
Q 47.21875 7.46875 41.1875 3.015625 
Q 35.15625 -1.421875 24.609375 -1.421875 
Q 20.21875 -1.421875 15.453125 -0.5625 
Q 10.6875 0.296875 5.421875 2 
L 5.421875 11.28125 
Q 10.40625 8.6875 15.234375 7.390625 
Q 20.0625 6.109375 24.8125 6.109375 
Q 31.15625 6.109375 34.5625 8.28125 
Q 37.984375 10.453125 37.984375 14.40625 
Q 37.984375 18.0625 35.515625 20.015625 
Q 33.0625 21.96875 24.703125 23.78125 
L 21.578125 24.515625 
Q 13.234375 26.265625 9.515625 29.90625 
Q 5.8125 33.546875 5.8125 39.890625 
Q 5.8125 47.609375 11.28125 51.796875 
Q 16.75 56 26.8125 56 
Q 31.78125 56 36.171875 55.265625 
Q 40.578125 54.546875 44.28125 53.078125 
" id="BitstreamVeraSans-Roman-73"/>
      <path d="M 9.8125 72.90625 
L 19.671875 72.90625 
L 19.671875 0 
L 9.8125 0 
z
" id="BitstreamVeraSans-Roman-49"/>
     </defs>
     <g transform="translate(185.4890625 402.609467822)scale(0.2 -0.2)">
      <use xlink:href="#BitstreamVeraSans-Roman-6c"/>
      <use x="27.783203125" xlink:href="#BitstreamVeraSans-Roman-6f"/>
      <use x="88.96484375" xlink:href="#BitstreamVeraSans-Roman-67"/>
      <use x="152.44140625" xlink:href="#BitstreamVeraSans-Roman-31"/>
      <use x="216.064453125" xlink:href="#BitstreamVeraSans-Roman-30"/>
      <use x="279.6875" xlink:href="#BitstreamVeraSans-Roman-20"/>
      <use x="311.474609375" xlink:href="#BitstreamVeraSans-Roman-6f"/>
      <use x="372.65625" xlink:href="#BitstreamVeraSans-Roman-66"/>
      <use x="407.861328125" xlink:href="#BitstreamVeraSans-Roman-20"/>
      <use x="439.6484375" xlink:href="#BitstreamVeraSans-Roman-46"/>
      <use x="497.16796875" xlink:href="#BitstreamVeraSans-Roman-45"/>
      <use x="560.3515625" xlink:href="#BitstreamVeraSans-Roman-76"/>
      <use x="619.53125" xlink:href="#BitstreamVeraSans-Roman-61"/>
      <use x="680.810546875" xlink:href="#BitstreamVeraSans-Roman-6c"/>
      <use x="708.59375" xlink:href="#BitstreamVeraSans-Roman-73"/>
      <use x="760.693359375" xlink:href="#BitstreamVeraSans-Roman-20"/>
      <use x="792.48046875" xlink:href="#BitstreamVeraSans-Roman-2f"/>
      <use x="826.171875" xlink:href="#BitstreamVeraSans-Roman-20"/>
      <use x="857.958984375" xlink:href="#BitstreamVeraSans-Roman-44"/>
      <use x="934.9609375" xlink:href="#BitstreamVeraSans-Roman-49"/>
      <use x="964.453125" xlink:href="#BitstreamVeraSans-Roman-4d"/>
     </g>
    </g>
   </g>
   <g id="matplotlib.axis_2">
    <g id="ytick_1">
     <g id="line2d_83">
      <path clip-path="url(#pc2978a4fcb)" d="M 67.3625 359.056343 
L 513.7625 359.056343 
" style="fill:none;stroke:#000000;stroke-dasharray:1.000000,3.000000;stroke-dashoffset:0.0;stroke-width:0.5;"/>
     </g>
     <g id="line2d_84">
      <defs>
       <path d="M 0 0 
L 4 0 
" id="m0c3307d73c" style="stroke:#000000;stroke-width:0.5;"/>
      </defs>
      <g>
       <use style="stroke:#000000;stroke-width:0.5;" x="67.3625" xlink:href="#m0c3307d73c" y="359.056342822"/>
      </g>
     </g>
     <g id="line2d_85">
      <defs>
       <path d="M 0 0 
L -4 0 
" id="m4fc745ebee" style="stroke:#000000;stroke-width:0.5;"/>
      </defs>
      <g>
       <use style="stroke:#000000;stroke-width:0.5;" x="513.7625" xlink:href="#m4fc745ebee" y="359.056342822"/>
      </g>
     </g>
     <g id="text_5">
      <!-- 0.0 -->
      <defs>
       <path d="M 10.6875 12.40625 
L 21 12.40625 
L 21 0 
L 10.6875 0 
z
" id="BitstreamVeraSans-Roman-2e"/>
      </defs>
      <g transform="translate(31.55625 364.575092822)scale(0.2 -0.2)">
       <use xlink:href="#BitstreamVeraSans-Roman-30"/>
       <use x="63.623046875" xlink:href="#BitstreamVeraSans-Roman-2e"/>
       <use x="95.41015625" xlink:href="#BitstreamVeraSans-Roman-30"/>
      </g>
     </g>
    </g>
    <g id="ytick_2">
     <g id="line2d_86">
      <path clip-path="url(#pc2978a4fcb)" d="M 67.3625 290.620699 
L 513.7625 290.620699 
" style="fill:none;stroke:#000000;stroke-dasharray:1.000000,3.000000;stroke-dashoffset:0.0;stroke-width:0.5;"/>
     </g>
     <g id="line2d_87">
      <g>
       <use style="stroke:#000000;stroke-width:0.5;" x="67.3625" xlink:href="#m0c3307d73c" y="290.620699257"/>
      </g>
     </g>
     <g id="line2d_88">
      <g>
       <use style="stroke:#000000;stroke-width:0.5;" x="513.7625" xlink:href="#m4fc745ebee" y="290.620699257"/>
      </g>
     </g>
     <g id="text_6">
      <!-- 0.2 -->
      <g transform="translate(31.55625 296.139449257)scale(0.2 -0.2)">
       <use xlink:href="#BitstreamVeraSans-Roman-30"/>
       <use x="63.623046875" xlink:href="#BitstreamVeraSans-Roman-2e"/>
       <use x="95.41015625" xlink:href="#BitstreamVeraSans-Roman-32"/>
      </g>
     </g>
    </g>
    <g id="ytick_3">
     <g id="line2d_89">
      <path clip-path="url(#pc2978a4fcb)" d="M 67.3625 222.185056 
L 513.7625 222.185056 
" style="fill:none;stroke:#000000;stroke-dasharray:1.000000,3.000000;stroke-dashoffset:0.0;stroke-width:0.5;"/>
     </g>
     <g id="line2d_90">
      <g>
       <use style="stroke:#000000;stroke-width:0.5;" x="67.3625" xlink:href="#m0c3307d73c" y="222.185055693"/>
      </g>
     </g>
     <g id="line2d_91">
      <g>
       <use style="stroke:#000000;stroke-width:0.5;" x="513.7625" xlink:href="#m4fc745ebee" y="222.185055693"/>
      </g>
     </g>
     <g id="text_7">
      <!-- 0.4 -->
      <defs>
       <path d="M 37.796875 64.3125 
L 12.890625 25.390625 
L 37.796875 25.390625 
z
M 35.203125 72.90625 
L 47.609375 72.90625 
L 47.609375 25.390625 
L 58.015625 25.390625 
L 58.015625 17.1875 
L 47.609375 17.1875 
L 47.609375 0 
L 37.796875 0 
L 37.796875 17.1875 
L 4.890625 17.1875 
L 4.890625 26.703125 
z
" id="BitstreamVeraSans-Roman-34"/>
      </defs>
      <g transform="translate(31.55625 227.703805693)scale(0.2 -0.2)">
       <use xlink:href="#BitstreamVeraSans-Roman-30"/>
       <use x="63.623046875" xlink:href="#BitstreamVeraSans-Roman-2e"/>
       <use x="95.41015625" xlink:href="#BitstreamVeraSans-Roman-34"/>
      </g>
     </g>
    </g>
    <g id="ytick_4">
     <g id="line2d_92">
      <path clip-path="url(#pc2978a4fcb)" d="M 67.3625 153.749412 
L 513.7625 153.749412 
" style="fill:none;stroke:#000000;stroke-dasharray:1.000000,3.000000;stroke-dashoffset:0.0;stroke-width:0.5;"/>
     </g>
     <g id="line2d_93">
      <g>
       <use style="stroke:#000000;stroke-width:0.5;" x="67.3625" xlink:href="#m0c3307d73c" y="153.749412129"/>
      </g>
     </g>
     <g id="line2d_94">
      <g>
       <use style="stroke:#000000;stroke-width:0.5;" x="513.7625" xlink:href="#m4fc745ebee" y="153.749412129"/>
      </g>
     </g>
     <g id="text_8">
      <!-- 0.6 -->
      <defs>
       <path d="M 33.015625 40.375 
Q 26.375 40.375 22.484375 35.828125 
Q 18.609375 31.296875 18.609375 23.390625 
Q 18.609375 15.53125 22.484375 10.953125 
Q 26.375 6.390625 33.015625 6.390625 
Q 39.65625 6.390625 43.53125 10.953125 
Q 47.40625 15.53125 47.40625 23.390625 
Q 47.40625 31.296875 43.53125 35.828125 
Q 39.65625 40.375 33.015625 40.375 
M 52.59375 71.296875 
L 52.59375 62.3125 
Q 48.875 64.0625 45.09375 64.984375 
Q 41.3125 65.921875 37.59375 65.921875 
Q 27.828125 65.921875 22.671875 59.328125 
Q 17.53125 52.734375 16.796875 39.40625 
Q 19.671875 43.65625 24.015625 45.921875 
Q 28.375 48.1875 33.59375 48.1875 
Q 44.578125 48.1875 50.953125 41.515625 
Q 57.328125 34.859375 57.328125 23.390625 
Q 57.328125 12.15625 50.6875 5.359375 
Q 44.046875 -1.421875 33.015625 -1.421875 
Q 20.359375 -1.421875 13.671875 8.265625 
Q 6.984375 17.96875 6.984375 36.375 
Q 6.984375 53.65625 15.1875 63.9375 
Q 23.390625 74.21875 37.203125 74.21875 
Q 40.921875 74.21875 44.703125 73.484375 
Q 48.484375 72.75 52.59375 71.296875 
" id="BitstreamVeraSans-Roman-36"/>
      </defs>
      <g transform="translate(31.55625 159.268162129)scale(0.2 -0.2)">
       <use xlink:href="#BitstreamVeraSans-Roman-30"/>
       <use x="63.623046875" xlink:href="#BitstreamVeraSans-Roman-2e"/>
       <use x="95.41015625" xlink:href="#BitstreamVeraSans-Roman-36"/>
      </g>
     </g>
    </g>
    <g id="ytick_5">
     <g id="line2d_95">
      <path clip-path="url(#pc2978a4fcb)" d="M 67.3625 85.313769 
L 513.7625 85.313769 
" style="fill:none;stroke:#000000;stroke-dasharray:1.000000,3.000000;stroke-dashoffset:0.0;stroke-width:0.5;"/>
     </g>
     <g id="line2d_96">
      <g>
       <use style="stroke:#000000;stroke-width:0.5;" x="67.3625" xlink:href="#m0c3307d73c" y="85.3137685644"/>
      </g>
     </g>
     <g id="line2d_97">
      <g>
       <use style="stroke:#000000;stroke-width:0.5;" x="513.7625" xlink:href="#m4fc745ebee" y="85.3137685644"/>
      </g>
     </g>
     <g id="text_9">
      <!-- 0.8 -->
      <defs>
       <path d="M 31.78125 34.625 
Q 24.75 34.625 20.71875 30.859375 
Q 16.703125 27.09375 16.703125 20.515625 
Q 16.703125 13.921875 20.71875 10.15625 
Q 24.75 6.390625 31.78125 6.390625 
Q 38.8125 6.390625 42.859375 10.171875 
Q 46.921875 13.96875 46.921875 20.515625 
Q 46.921875 27.09375 42.890625 30.859375 
Q 38.875 34.625 31.78125 34.625 
M 21.921875 38.8125 
Q 15.578125 40.375 12.03125 44.71875 
Q 8.5 49.078125 8.5 55.328125 
Q 8.5 64.0625 14.71875 69.140625 
Q 20.953125 74.21875 31.78125 74.21875 
Q 42.671875 74.21875 48.875 69.140625 
Q 55.078125 64.0625 55.078125 55.328125 
Q 55.078125 49.078125 51.53125 44.71875 
Q 48 40.375 41.703125 38.8125 
Q 48.828125 37.15625 52.796875 32.3125 
Q 56.78125 27.484375 56.78125 20.515625 
Q 56.78125 9.90625 50.3125 4.234375 
Q 43.84375 -1.421875 31.78125 -1.421875 
Q 19.734375 -1.421875 13.25 4.234375 
Q 6.78125 9.90625 6.78125 20.515625 
Q 6.78125 27.484375 10.78125 32.3125 
Q 14.796875 37.15625 21.921875 38.8125 
M 18.3125 54.390625 
Q 18.3125 48.734375 21.84375 45.5625 
Q 25.390625 42.390625 31.78125 42.390625 
Q 38.140625 42.390625 41.71875 45.5625 
Q 45.3125 48.734375 45.3125 54.390625 
Q 45.3125 60.0625 41.71875 63.234375 
Q 38.140625 66.40625 31.78125 66.40625 
Q 25.390625 66.40625 21.84375 63.234375 
Q 18.3125 60.0625 18.3125 54.390625 
" id="BitstreamVeraSans-Roman-38"/>
      </defs>
      <g transform="translate(31.55625 90.8325185644)scale(0.2 -0.2)">
       <use xlink:href="#BitstreamVeraSans-Roman-30"/>
       <use x="63.623046875" xlink:href="#BitstreamVeraSans-Roman-2e"/>
       <use x="95.41015625" xlink:href="#BitstreamVeraSans-Roman-38"/>
      </g>
     </g>
    </g>
    <g id="ytick_6">
     <g id="line2d_98">
      <path clip-path="url(#pc2978a4fcb)" d="M 67.3625 16.878125 
L 513.7625 16.878125 
" style="fill:none;stroke:#000000;stroke-dasharray:1.000000,3.000000;stroke-dashoffset:0.0;stroke-width:0.5;"/>
     </g>
     <g id="line2d_99">
      <g>
       <use style="stroke:#000000;stroke-width:0.5;" x="67.3625" xlink:href="#m0c3307d73c" y="16.878125"/>
      </g>
     </g>
     <g id="line2d_100">
      <g>
       <use style="stroke:#000000;stroke-width:0.5;" x="513.7625" xlink:href="#m4fc745ebee" y="16.878125"/>
      </g>
     </g>
     <g id="text_10">
      <!-- 1.0 -->
      <g transform="translate(31.55625 22.396875)scale(0.2 -0.2)">
       <use xlink:href="#BitstreamVeraSans-Roman-31"/>
       <use x="63.623046875" xlink:href="#BitstreamVeraSans-Roman-2e"/>
       <use x="95.41015625" xlink:href="#BitstreamVeraSans-Roman-30"/>
      </g>
     </g>
    </g>
    <g id="text_11">
     <!-- proportion of trials -->
     <defs>
      <path d="M 54.890625 33.015625 
L 54.890625 0 
L 45.90625 0 
L 45.90625 32.71875 
Q 45.90625 40.484375 42.875 44.328125 
Q 39.84375 48.1875 33.796875 48.1875 
Q 26.515625 48.1875 22.3125 43.546875 
Q 18.109375 38.921875 18.109375 30.90625 
L 18.109375 0 
L 9.078125 0 
L 9.078125 54.6875 
L 18.109375 54.6875 
L 18.109375 46.1875 
Q 21.34375 51.125 25.703125 53.5625 
Q 30.078125 56 35.796875 56 
Q 45.21875 56 50.046875 50.171875 
Q 54.890625 44.34375 54.890625 33.015625 
" id="BitstreamVeraSans-Roman-6e"/>
      <path d="M 9.421875 54.6875 
L 18.40625 54.6875 
L 18.40625 0 
L 9.421875 0 
z
M 9.421875 75.984375 
L 18.40625 75.984375 
L 18.40625 64.59375 
L 9.421875 64.59375 
z
" id="BitstreamVeraSans-Roman-69"/>
      <path d="M 18.3125 70.21875 
L 18.3125 54.6875 
L 36.8125 54.6875 
L 36.8125 47.703125 
L 18.3125 47.703125 
L 18.3125 18.015625 
Q 18.3125 11.328125 20.140625 9.421875 
Q 21.96875 7.515625 27.59375 7.515625 
L 36.8125 7.515625 
L 36.8125 0 
L 27.59375 0 
Q 17.1875 0 13.234375 3.875 
Q 9.28125 7.765625 9.28125 18.015625 
L 9.28125 47.703125 
L 2.6875 47.703125 
L 2.6875 54.6875 
L 9.28125 54.6875 
L 9.28125 70.21875 
z
" id="BitstreamVeraSans-Roman-74"/>
      <path d="M 41.109375 46.296875 
Q 39.59375 47.171875 37.8125 47.578125 
Q 36.03125 48 33.890625 48 
Q 26.265625 48 22.1875 43.046875 
Q 18.109375 38.09375 18.109375 28.8125 
L 18.109375 0 
L 9.078125 0 
L 9.078125 54.6875 
L 18.109375 54.6875 
L 18.109375 46.1875 
Q 20.953125 51.171875 25.484375 53.578125 
Q 30.03125 56 36.53125 56 
Q 37.453125 56 38.578125 55.875 
Q 39.703125 55.765625 41.0625 55.515625 
z
" id="BitstreamVeraSans-Roman-72"/>
      <path d="M 18.109375 8.203125 
L 18.109375 -20.796875 
L 9.078125 -20.796875 
L 9.078125 54.6875 
L 18.109375 54.6875 
L 18.109375 46.390625 
Q 20.953125 51.265625 25.265625 53.625 
Q 29.59375 56 35.59375 56 
Q 45.5625 56 51.78125 48.09375 
Q 58.015625 40.1875 58.015625 27.296875 
Q 58.015625 14.40625 51.78125 6.484375 
Q 45.5625 -1.421875 35.59375 -1.421875 
Q 29.59375 -1.421875 25.265625 0.953125 
Q 20.953125 3.328125 18.109375 8.203125 
M 48.6875 27.296875 
Q 48.6875 37.203125 44.609375 42.84375 
Q 40.53125 48.484375 33.40625 48.484375 
Q 26.265625 48.484375 22.1875 42.84375 
Q 18.109375 37.203125 18.109375 27.296875 
Q 18.109375 17.390625 22.1875 11.75 
Q 26.265625 6.109375 33.40625 6.109375 
Q 40.53125 6.109375 44.609375 11.75 
Q 48.6875 17.390625 48.6875 27.296875 
" id="BitstreamVeraSans-Roman-70"/>
     </defs>
     <g transform="translate(22.396875 279.484467822)rotate(-90.0)scale(0.2 -0.2)">
      <use xlink:href="#BitstreamVeraSans-Roman-70"/>
      <use x="63.4765625" xlink:href="#BitstreamVeraSans-Roman-72"/>
      <use x="104.55859375" xlink:href="#BitstreamVeraSans-Roman-6f"/>
      <use x="165.740234375" xlink:href="#BitstreamVeraSans-Roman-70"/>
      <use x="229.216796875" xlink:href="#BitstreamVeraSans-Roman-6f"/>
      <use x="290.3984375" xlink:href="#BitstreamVeraSans-Roman-72"/>
      <use x="331.51171875" xlink:href="#BitstreamVeraSans-Roman-74"/>
      <use x="370.720703125" xlink:href="#BitstreamVeraSans-Roman-69"/>
      <use x="398.50390625" xlink:href="#BitstreamVeraSans-Roman-6f"/>
      <use x="459.685546875" xlink:href="#BitstreamVeraSans-Roman-6e"/>
      <use x="523.064453125" xlink:href="#BitstreamVeraSans-Roman-20"/>
      <use x="554.8515625" xlink:href="#BitstreamVeraSans-Roman-6f"/>
      <use x="616.033203125" xlink:href="#BitstreamVeraSans-Roman-66"/>
      <use x="651.23828125" xlink:href="#BitstreamVeraSans-Roman-20"/>
      <use x="683.025390625" xlink:href="#BitstreamVeraSans-Roman-74"/>
      <use x="722.234375" xlink:href="#BitstreamVeraSans-Roman-72"/>
      <use x="763.34765625" xlink:href="#BitstreamVeraSans-Roman-69"/>
      <use x="791.130859375" xlink:href="#BitstreamVeraSans-Roman-61"/>
      <use x="852.41015625" xlink:href="#BitstreamVeraSans-Roman-6c"/>
      <use x="880.193359375" xlink:href="#BitstreamVeraSans-Roman-73"/>
     </g>
    </g>
   </g>
   <g id="text_12">
    <!-- {f1-f5}, 20-D -->
    <defs>
     <path d="M 11.71875 12.40625 
L 22.015625 12.40625 
L 22.015625 4 
L 14.015625 -11.625 
L 7.71875 -11.625 
L 11.71875 4 
z
" id="BitstreamVeraSans-Roman-2c"/>
     <path d="M 12.5 -9.28125 
L 15.921875 -9.28125 
Q 22.75 -9.28125 24.828125 -7.171875 
Q 26.90625 -5.078125 26.90625 1.90625 
L 26.90625 14.015625 
Q 26.90625 21.625 29.09375 25.09375 
Q 31.296875 28.5625 36.71875 29.890625 
Q 31.296875 31.109375 29.09375 34.5625 
Q 26.90625 38.03125 26.90625 45.703125 
L 26.90625 57.8125 
Q 26.90625 64.75 24.828125 66.875 
Q 22.75 69 15.921875 69 
L 12.5 69 
L 12.5 75.984375 
L 15.578125 75.984375 
Q 27.734375 75.984375 31.8125 72.390625 
Q 35.890625 68.796875 35.890625 58.015625 
L 35.890625 46.296875 
Q 35.890625 39.015625 38.515625 36.203125 
Q 41.15625 33.40625 48.09375 33.40625 
L 51.125 33.40625 
L 51.125 26.421875 
L 48.09375 26.421875 
Q 41.15625 26.421875 38.515625 23.578125 
Q 35.890625 20.75 35.890625 13.375 
L 35.890625 1.703125 
Q 35.890625 -9.078125 31.8125 -12.6875 
Q 27.734375 -16.3125 15.578125 -16.3125 
L 12.5 -16.3125 
z
" id="BitstreamVeraSans-Roman-7d"/>
     <path d="M 51.125 -9.28125 
L 51.125 -16.3125 
L 48.09375 -16.3125 
Q 35.9375 -16.3125 31.8125 -12.6875 
Q 27.6875 -9.078125 27.6875 1.703125 
L 27.6875 13.375 
Q 27.6875 20.75 25.046875 23.578125 
Q 22.40625 26.421875 15.484375 26.421875 
L 12.5 26.421875 
L 12.5 33.40625 
L 15.484375 33.40625 
Q 22.46875 33.40625 25.078125 36.203125 
Q 27.6875 39.015625 27.6875 46.296875 
L 27.6875 58.015625 
Q 27.6875 68.796875 31.8125 72.390625 
Q 35.9375 75.984375 48.09375 75.984375 
L 51.125 75.984375 
L 51.125 69 
L 47.796875 69 
Q 40.921875 69 38.8125 66.84375 
Q 36.71875 64.703125 36.71875 57.8125 
L 36.71875 45.703125 
Q 36.71875 38.03125 34.5 34.5625 
Q 32.28125 31.109375 26.90625 29.890625 
Q 32.328125 28.5625 34.515625 25.09375 
Q 36.71875 21.625 36.71875 14.015625 
L 36.71875 1.90625 
Q 36.71875 -4.984375 38.8125 -7.125 
Q 40.921875 -9.28125 47.796875 -9.28125 
z
" id="BitstreamVeraSans-Roman-7b"/>
     <path d="M 4.890625 31.390625 
L 31.203125 31.390625 
L 31.203125 23.390625 
L 4.890625 23.390625 
z
" id="BitstreamVeraSans-Roman-2d"/>
     <path d="M 10.796875 72.90625 
L 49.515625 72.90625 
L 49.515625 64.59375 
L 19.828125 64.59375 
L 19.828125 46.734375 
Q 21.96875 47.46875 24.109375 47.828125 
Q 26.265625 48.1875 28.421875 48.1875 
Q 40.625 48.1875 47.75 41.5 
Q 54.890625 34.8125 54.890625 23.390625 
Q 54.890625 11.625 47.5625 5.09375 
Q 40.234375 -1.421875 26.90625 -1.421875 
Q 22.3125 -1.421875 17.546875 -0.640625 
Q 12.796875 0.140625 7.71875 1.703125 
L 7.71875 11.625 
Q 12.109375 9.234375 16.796875 8.0625 
Q 21.484375 6.890625 26.703125 6.890625 
Q 35.15625 6.890625 40.078125 11.328125 
Q 45.015625 15.765625 45.015625 23.390625 
Q 45.015625 31 40.078125 35.4375 
Q 35.15625 39.890625 26.703125 39.890625 
Q 22.75 39.890625 18.8125 39.015625 
Q 14.890625 38.140625 10.796875 36.28125 
z
" id="BitstreamVeraSans-Roman-35"/>
    </defs>
    <g transform="translate(224.075 35.5652178218)scale(0.2 -0.2)">
     <use xlink:href="#BitstreamVeraSans-Roman-7b"/>
     <use x="63.623046875" xlink:href="#BitstreamVeraSans-Roman-66"/>
     <use x="98.828125" xlink:href="#BitstreamVeraSans-Roman-31"/>
     <use x="162.451171875" xlink:href="#BitstreamVeraSans-Roman-2d"/>
     <use x="198.53515625" xlink:href="#BitstreamVeraSans-Roman-66"/>
     <use x="233.740234375" xlink:href="#BitstreamVeraSans-Roman-35"/>
     <use x="297.36328125" xlink:href="#BitstreamVeraSans-Roman-7d"/>
     <use x="360.986328125" xlink:href="#BitstreamVeraSans-Roman-2c"/>
     <use x="392.7734375" xlink:href="#BitstreamVeraSans-Roman-20"/>
     <use x="424.560546875" xlink:href="#BitstreamVeraSans-Roman-32"/>
     <use x="488.18359375" xlink:href="#BitstreamVeraSans-Roman-30"/>
     <use x="551.806640625" xlink:href="#BitstreamVeraSans-Roman-2d"/>
     <use x="587.890625" xlink:href="#BitstreamVeraSans-Roman-44"/>
    </g>
   </g>
   <g id="text_13">
    <!-- absolute targets -->
    <defs>
     <path d="M 56.203125 29.59375 
L 56.203125 25.203125 
L 14.890625 25.203125 
Q 15.484375 15.921875 20.484375 11.0625 
Q 25.484375 6.203125 34.421875 6.203125 
Q 39.59375 6.203125 44.453125 7.46875 
Q 49.3125 8.734375 54.109375 11.28125 
L 54.109375 2.78125 
Q 49.265625 0.734375 44.1875 -0.34375 
Q 39.109375 -1.421875 33.890625 -1.421875 
Q 20.796875 -1.421875 13.15625 6.1875 
Q 5.515625 13.8125 5.515625 26.8125 
Q 5.515625 40.234375 12.765625 48.109375 
Q 20.015625 56 32.328125 56 
Q 43.359375 56 49.78125 48.890625 
Q 56.203125 41.796875 56.203125 29.59375 
M 47.21875 32.234375 
Q 47.125 39.59375 43.09375 43.984375 
Q 39.0625 48.390625 32.421875 48.390625 
Q 24.90625 48.390625 20.390625 44.140625 
Q 15.875 39.890625 15.1875 32.171875 
z
" id="BitstreamVeraSans-Roman-65"/>
     <path d="M 8.5 21.578125 
L 8.5 54.6875 
L 17.484375 54.6875 
L 17.484375 21.921875 
Q 17.484375 14.15625 20.5 10.265625 
Q 23.53125 6.390625 29.59375 6.390625 
Q 36.859375 6.390625 41.078125 11.03125 
Q 45.3125 15.671875 45.3125 23.6875 
L 45.3125 54.6875 
L 54.296875 54.6875 
L 54.296875 0 
L 45.3125 0 
L 45.3125 8.40625 
Q 42.046875 3.421875 37.71875 1 
Q 33.40625 -1.421875 27.6875 -1.421875 
Q 18.265625 -1.421875 13.375 4.4375 
Q 8.5 10.296875 8.5 21.578125 
" id="BitstreamVeraSans-Roman-75"/>
     <path d="M 48.6875 27.296875 
Q 48.6875 37.203125 44.609375 42.84375 
Q 40.53125 48.484375 33.40625 48.484375 
Q 26.265625 48.484375 22.1875 42.84375 
Q 18.109375 37.203125 18.109375 27.296875 
Q 18.109375 17.390625 22.1875 11.75 
Q 26.265625 6.109375 33.40625 6.109375 
Q 40.53125 6.109375 44.609375 11.75 
Q 48.6875 17.390625 48.6875 27.296875 
M 18.109375 46.390625 
Q 20.953125 51.265625 25.265625 53.625 
Q 29.59375 56 35.59375 56 
Q 45.5625 56 51.78125 48.09375 
Q 58.015625 40.1875 58.015625 27.296875 
Q 58.015625 14.40625 51.78125 6.484375 
Q 45.5625 -1.421875 35.59375 -1.421875 
Q 29.59375 -1.421875 25.265625 0.953125 
Q 20.953125 3.328125 18.109375 8.203125 
L 18.109375 0 
L 9.078125 0 
L 9.078125 75.984375 
L 18.109375 75.984375 
z
" id="BitstreamVeraSans-Roman-62"/>
    </defs>
    <g transform="translate(67.3625 359.056342822)scale(0.14 -0.14)">
     <use xlink:href="#BitstreamVeraSans-Roman-61"/>
     <use x="61.279296875" xlink:href="#BitstreamVeraSans-Roman-62"/>
     <use x="124.755859375" xlink:href="#BitstreamVeraSans-Roman-73"/>
     <use x="176.85546875" xlink:href="#BitstreamVeraSans-Roman-6f"/>
     <use x="238.037109375" xlink:href="#BitstreamVeraSans-Roman-6c"/>
     <use x="265.8203125" xlink:href="#BitstreamVeraSans-Roman-75"/>
     <use x="329.19921875" xlink:href="#BitstreamVeraSans-Roman-74"/>
     <use x="368.408203125" xlink:href="#BitstreamVeraSans-Roman-65"/>
     <use x="429.931640625" xlink:href="#BitstreamVeraSans-Roman-20"/>
     <use x="461.71875" xlink:href="#BitstreamVeraSans-Roman-74"/>
     <use x="500.927734375" xlink:href="#BitstreamVeraSans-Roman-61"/>
     <use x="562.20703125" xlink:href="#BitstreamVeraSans-Roman-72"/>
     <use x="603.3046875" xlink:href="#BitstreamVeraSans-Roman-67"/>
     <use x="666.78125" xlink:href="#BitstreamVeraSans-Roman-65"/>
     <use x="728.3046875" xlink:href="#BitstreamVeraSans-Roman-74"/>
     <use x="767.513671875" xlink:href="#BitstreamVeraSans-Roman-73"/>
    </g>
   </g>
   <g id="text_14">
    <!-- 0.0.0 -->
    <g style="fill:#808080;" transform="translate(277.840625 353.520655322)scale(0.1 -0.1)">
     <use xlink:href="#BitstreamVeraSans-Roman-30"/>
     <use x="63.623046875" xlink:href="#BitstreamVeraSans-Roman-2e"/>
     <use x="95.41015625" xlink:href="#BitstreamVeraSans-Roman-30"/>
     <use x="159.033203125" xlink:href="#BitstreamVeraSans-Roman-2e"/>
     <use x="190.8203125" xlink:href="#BitstreamVeraSans-Roman-30"/>
    </g>
   </g>
   <g id="legend_1">
    <g id="patch_7">
     <path d="M 366.540625 146.881343 
L 503.7625 146.881343 
L 503.7625 23.456343 
L 366.540625 23.456343 
z
" style="fill:#ffffff;opacity:0.2;stroke:#000000;stroke-linejoin:miter;"/>
    </g>
    <g id="line2d_101">
     <path d="M 380.540625 39.653218 
L 408.540625 39.653218 
" style="fill:none;stroke:#000000;stroke-linecap:square;"/>
    </g>
    <g id="line2d_102"/>
    <g id="text_15">
     <!-- 1: 2/5 -->
     <defs>
      <path d="M 11.71875 12.40625 
L 22.015625 12.40625 
L 22.015625 0 
L 11.71875 0 
z
M 11.71875 51.703125 
L 22.015625 51.703125 
L 22.015625 39.3125 
L 11.71875 39.3125 
z
" id="BitstreamVeraSans-Roman-3a"/>
     </defs>
     <g transform="translate(430.540625 46.6532178218)scale(0.2 -0.2)">
      <use xlink:href="#BitstreamVeraSans-Roman-31"/>
      <use x="63.623046875" xlink:href="#BitstreamVeraSans-Roman-3a"/>
      <use x="97.314453125" xlink:href="#BitstreamVeraSans-Roman-20"/>
      <use x="129.1015625" xlink:href="#BitstreamVeraSans-Roman-32"/>
      <use x="192.724609375" xlink:href="#BitstreamVeraSans-Roman-2f"/>
      <use x="226.416015625" xlink:href="#BitstreamVeraSans-Roman-35"/>
     </g>
    </g>
    <g id="line2d_103">
     <path d="M 380.540625 69.009468 
L 408.540625 69.009468 
" style="fill:none;stroke:#00bfbf;stroke-linecap:square;"/>
    </g>
    <g id="line2d_104"/>
    <g id="text_16">
     <!-- -1: 2/5 -->
     <g transform="translate(430.540625 76.0094678218)scale(0.2 -0.2)">
      <use xlink:href="#BitstreamVeraSans-Roman-2d"/>
      <use x="36.083984375" xlink:href="#BitstreamVeraSans-Roman-31"/>
      <use x="99.70703125" xlink:href="#BitstreamVeraSans-Roman-3a"/>
      <use x="133.3984375" xlink:href="#BitstreamVeraSans-Roman-20"/>
      <use x="165.185546875" xlink:href="#BitstreamVeraSans-Roman-32"/>
      <use x="228.80859375" xlink:href="#BitstreamVeraSans-Roman-2f"/>
      <use x="262.5" xlink:href="#BitstreamVeraSans-Roman-35"/>
     </g>
    </g>
    <g id="line2d_105">
     <path d="M 380.540625 98.365718 
L 408.540625 98.365718 
" style="fill:none;stroke:#bf00bf;stroke-linecap:square;"/>
    </g>
    <g id="line2d_106"/>
    <g id="text_17">
     <!-- -4: 1/5 -->
     <g transform="translate(430.540625 105.365717822)scale(0.2 -0.2)">
      <use xlink:href="#BitstreamVeraSans-Roman-2d"/>
      <use x="36.083984375" xlink:href="#BitstreamVeraSans-Roman-34"/>
      <use x="99.70703125" xlink:href="#BitstreamVeraSans-Roman-3a"/>
      <use x="133.3984375" xlink:href="#BitstreamVeraSans-Roman-20"/>
      <use x="165.185546875" xlink:href="#BitstreamVeraSans-Roman-31"/>
      <use x="228.80859375" xlink:href="#BitstreamVeraSans-Roman-2f"/>
      <use x="262.5" xlink:href="#BitstreamVeraSans-Roman-35"/>
     </g>
    </g>
    <g id="line2d_107">
     <path d="M 380.540625 127.721968 
L 408.540625 127.721968 
" style="fill:none;stroke:#ff0000;stroke-linecap:square;stroke-width:3.0;"/>
    </g>
    <g id="line2d_108"/>
    <g id="text_18">
     <!-- -8: 1/5 -->
     <g transform="translate(430.540625 134.721967822)scale(0.2 -0.2)">
      <use xlink:href="#BitstreamVeraSans-Roman-2d"/>
      <use x="36.083984375" xlink:href="#BitstreamVeraSans-Roman-38"/>
      <use x="99.70703125" xlink:href="#BitstreamVeraSans-Roman-3a"/>
      <use x="133.3984375" xlink:href="#BitstreamVeraSans-Roman-20"/>
      <use x="165.185546875" xlink:href="#BitstreamVeraSans-Roman-31"/>
      <use x="228.80859375" xlink:href="#BitstreamVeraSans-Roman-2f"/>
      <use x="262.5" xlink:href="#BitstreamVeraSans-Roman-35"/>
     </g>
    </g>
   </g>
  </g>
 </g>
 <defs>
  <clipPath id="pc2978a4fcb">
   <rect height="345.6" width="446.4" x="67.3625" y="13.4563428218"/>
  </clipPath>
 </defs>
</svg>
