<?xml version="1.0" encoding="utf-8" standalone="no"?>
<!DOCTYPE svg PUBLIC "-//W3C//DTD SVG 1.1//EN"
  "http://www.w3.org/Graphics/SVG/1.1/DTD/svg11.dtd">
<!-- Created with matplotlib (http://matplotlib.org/) -->
<svg height="407pt" version="1.1" viewBox="0 0 460 407" width="460pt" xmlns="http://www.w3.org/2000/svg" xmlns:xlink="http://www.w3.org/1999/xlink">
 <defs>
  <style type="text/css">
*{stroke-linecap:butt;stroke-linejoin:round;stroke-miterlimit:100000;}
  </style>
 </defs>
 <g id="figure_1">
  <g id="patch_1">
   <path d="M 0 407.7125 
L 460.8 407.7125 
L 460.8 0 
L 0 0 
z
" style="fill:#ffffff;"/>
  </g>
  <g id="axes_1">
   <g id="patch_2">
    <path d="M 7.2 352.8 
L 453.6 352.8 
L 453.6 7.2 
L 7.2 7.2 
z
" style="fill:#ffffff;"/>
   </g>
   <g id="line2d_1">
    <path clip-path="url(#pab59480b71)" d="M 218.906192 352.8 
L 218.906192 351.849505 
L 219.04192 351.849505 
L 219.04192 350.89901 
L 219.418177 350.89901 
L 219.418177 349.948515 
L 220.668994 349.948515 
L 220.668994 348.99802 
L 221.04968 348.99802 
L 221.04968 348.047525 
L 221.638394 348.047525 
L 221.638394 347.09703 
L 223.52854 347.09703 
L 223.52854 346.146535 
L 223.6441 346.146535 
L 223.6441 345.19604 
L 223.881837 345.19604 
L 223.881837 344.245545 
L 224.289606 344.245545 
L 224.289606 343.29505 
L 224.43067 343.29505 
L 224.43067 342.344554 
L 224.722117 342.344554 
L 224.722117 341.394059 
L 225.111191 341.394059 
L 225.111191 340.443564 
L 225.280331 340.443564 
L 225.280331 339.493069 
L 225.694913 339.493069 
L 225.755295 337.592079 
L 226.144996 337.592079 
L 226.144996 336.641584 
L 226.284181 336.641584 
L 226.284181 335.691089 
L 226.456903 335.691089 
L 226.456903 334.740594 
L 227.029963 334.740594 
L 227.029963 333.790099 
L 228.477949 333.790099 
L 228.477949 332.839604 
L 228.789541 332.839604 
L 228.789541 331.889109 
L 228.960421 331.889109 
L 229.044681 329.988119 
L 229.262875 329.988119 
L 229.262875 329.037624 
L 229.461895 329.037624 
L 229.56124 327.136634 
L 229.632752 327.136634 
L 229.731007 325.235644 
L 229.812799 325.235644 
L 229.812799 324.285149 
L 229.938346 324.285149 
L 229.938346 323.334653 
L 230.21835 323.334653 
L 230.21835 322.384158 
L 230.505037 322.384158 
L 230.597398 318.582178 
L 230.86109 318.582178 
L 230.86109 317.631683 
L 231.122009 317.631683 
L 231.122009 316.681188 
L 231.263042 316.681188 
L 231.263042 315.730693 
L 231.572021 315.730693 
L 231.632281 312.879208 
L 231.774093 312.879208 
L 231.877851 309.077228 
L 232.191884 309.077228 
L 232.191884 308.126733 
L 233.561174 308.126733 
L 233.561174 307.176238 
L 234.145738 307.176238 
L 234.188405 305.275248 
L 234.428343 305.275248 
L 234.428343 304.324752 
L 234.720716 304.324752 
L 234.720716 303.374257 
L 235.218003 303.374257 
L 235.285536 301.473267 
L 235.676361 301.473267 
L 235.710149 299.572277 
L 235.946001 299.572277 
L 235.946001 298.621782 
L 236.243517 298.621782 
L 236.292259 296.720792 
L 237.125865 296.720792 
L 237.18307 294.819802 
L 238.137847 294.819802 
L 238.137847 293.869307 
L 238.263366 293.869307 
L 238.263366 292.918812 
L 238.575605 292.918812 
L 238.575605 291.968317 
L 238.70353 291.968317 
L 238.70353 291.017822 
L 239.505365 291.017822 
L 239.557529 289.116832 
L 239.707766 289.116832 
L 239.707766 288.166337 
L 239.991439 288.166337 
L 239.991439 287.215842 
L 240.258863 287.215842 
L 240.258863 286.265347 
L 240.40344 286.265347 
L 240.477563 283.413861 
L 240.671404 283.413861 
L 240.726103 281.512871 
L 240.844844 281.512871 
L 240.953053 279.611881 
L 241.157265 279.611881 
L 241.157265 278.661386 
L 241.509482 278.661386 
L 241.618944 275.809901 
L 241.717857 275.809901 
L 241.717857 274.859406 
L 241.866228 274.859406 
L 241.866228 273.908911 
L 242.060865 273.908911 
L 242.170194 270.106931 
L 242.37914 270.106931 
L 242.386827 268.205941 
L 242.533096 268.205941 
L 242.585267 264.40396 
L 242.972536 264.40396 
L 243.025049 262.50297 
L 243.157564 262.50297 
L 243.262218 257.750495 
L 243.389408 257.750495 
L 243.389408 256.8 
L 243.606097 256.8 
L 243.606097 255.849505 
L 243.788646 255.849505 
L 243.788646 254.89901 
L 243.904954 254.89901 
L 243.939583 252.99802 
L 244.126779 252.99802 
L 244.126779 252.047525 
L 244.34365 252.047525 
L 244.34365 251.09703 
L 244.500589 251.09703 
L 244.584271 248.245545 
L 244.672682 248.245545 
L 244.672682 247.29505 
L 244.865209 247.29505 
L 244.870111 245.394059 
L 246.237673 245.394059 
L 246.237673 244.443564 
L 247.04201 244.443564 
L 247.142569 242.542574 
L 247.235893 242.542574 
L 247.235893 241.592079 
L 247.482718 241.592079 
L 247.494988 239.691089 
L 248.359551 239.691089 
L 248.359551 238.740594 
L 249.384857 238.740594 
L 249.396833 236.839604 
L 249.654473 236.839604 
L 249.654473 235.889109 
L 250.448164 235.889109 
L 250.448164 234.938614 
L 251.160894 234.938614 
L 251.160894 233.988119 
L 251.321693 233.988119 
L 251.321693 233.037624 
L 251.587989 233.037624 
L 251.691461 230.186139 
L 251.823733 230.186139 
L 251.9137 227.334653 
L 251.953729 227.334653 
L 252.044154 224.483168 
L 252.167286 224.483168 
L 252.202865 221.631683 
L 252.287102 221.631683 
L 252.359456 219.730693 
L 252.411319 219.730693 
L 252.499184 216.879208 
L 252.587716 216.879208 
L 252.643919 212.126733 
L 252.748261 212.126733 
L 252.822954 210.225743 
L 259.453695 210.225743 
L 259.453695 209.275248 
L 260.134117 209.275248 
L 260.134117 208.324752 
L 263.026994 208.324752 
L 263.026994 207.374257 
L 263.227862 207.374257 
L 263.227862 206.423762 
L 263.445401 206.423762 
L 263.445401 205.473267 
L 263.825644 205.473267 
L 263.825644 204.522772 
L 264.817194 204.522772 
L 264.817194 203.572277 
L 265.160069 203.572277 
L 265.160069 202.621782 
L 265.339116 202.621782 
L 265.339116 201.671287 
L 265.65099 201.671287 
L 265.684319 199.770297 
L 266.064272 199.770297 
L 266.117297 197.869307 
L 266.288173 197.869307 
L 266.299121 195.968317 
L 266.710396 195.968317 
L 266.798194 194.067327 
L 266.996385 194.067327 
L 266.996385 193.116832 
L 267.329438 193.116832 
L 267.438664 190.265347 
L 267.677214 190.265347 
L 267.725793 188.364356 
L 267.851031 188.364356 
L 267.925982 184.562376 
L 268.044393 184.562376 
L 268.087754 182.661386 
L 268.308824 182.661386 
L 268.356674 179.809901 
L 268.43313 179.809901 
L 268.47774 177.908911 
L 268.6262 177.908911 
L 268.6262 176.958416 
L 268.74223 176.958416 
L 268.74223 176.007921 
L 268.97338 176.007921 
L 269.070998 171.255446 
L 269.14754 171.255446 
L 269.14754 170.30495 
L 269.482935 170.30495 
L 269.482935 169.354455 
L 269.734846 169.354455 
L 269.76147 167.453465 
L 269.950149 167.453465 
L 270.022162 164.60198 
L 270.088885 164.60198 
L 270.088885 163.651485 
L 270.377751 163.651485 
L 270.434056 161.750495 
L 270.772403 161.750495 
L 270.852934 158.89901 
L 270.966091 158.89901 
L 271.015283 156.99802 
L 271.089681 156.99802 
L 271.194198 155.09703 
L 271.244021 155.09703 
L 271.352864 152.245545 
L 271.416826 152.245545 
L 271.468142 150.344554 
L 271.56701 150.344554 
L 271.608546 146.542574 
L 271.74875 146.542574 
L 271.74875 145.592079 
L 271.979656 145.592079 
L 271.979656 144.641584 
L 272.107151 144.641584 
L 272.107151 143.691089 
L 272.294507 143.691089 
L 272.294507 142.740594 
L 272.482094 142.740594 
L 272.482094 141.790099 
L 272.816313 141.790099 
L 272.816313 140.839604 
L 272.953046 140.839604 
L 272.953046 139.889109 
L 273.103838 139.889109 
L 273.103838 138.938614 
L 273.465919 138.938614 
L 273.465919 137.988119 
L 273.638921 137.988119 
L 273.638921 137.037624 
L 274.940983 137.037624 
L 275.024976 135.136634 
L 275.207894 135.136634 
L 275.2665 133.235644 
L 275.41738 133.235644 
L 275.5177 131.334653 
L 275.871273 131.334653 
L 275.980861 127.532673 
L 276.171428 127.532673 
L 276.188648 125.631683 
L 276.289802 125.631683 
L 276.289802 124.681188 
L 276.679197 124.681188 
L 276.727755 122.780198 
L 277.147616 122.780198 
L 277.147616 121.829703 
L 277.410371 121.829703 
L 277.422313 119.928713 
L 277.522633 119.928713 
L 277.522633 118.978218 
L 277.640695 118.978218 
L 277.706556 117.077228 
L 278.573704 117.077228 
L 278.668613 115.176238 
L 278.896828 115.176238 
L 278.896828 114.225743 
L 279.337545 114.225743 
L 279.391298 112.324752 
L 279.777249 112.324752 
L 279.777249 111.374257 
L 280.163744 111.374257 
L 280.205468 109.473267 
L 280.499867 109.473267 
L 280.547358 106.621782 
L 281.560773 106.621782 
L 281.560773 105.671287 
L 282.07637 105.671287 
L 282.07637 104.720792 
L 282.675936 104.720792 
L 282.675936 103.770297 
L 282.93629 103.770297 
L 282.978633 101.869307 
L 283.498464 101.869307 
L 283.590081 99.968317 
L 284.078417 99.968317 
L 284.078417 99.017822 
L 286.562598 99.017822 
L 286.562598 98.067327 
L 290.288348 98.067327 
L 290.288348 97.116832 
L 292.453418 97.116832 
L 292.453418 96.166337 
L 293.70707 96.166337 
L 293.70707 95.215842 
L 293.905462 95.215842 
L 293.905462 94.265347 
L 294.23821 94.265347 
L 294.23821 93.314851 
L 295.933109 93.314851 
L 295.933109 92.364356 
L 296.130274 92.364356 
L 296.130274 91.413861 
L 298.068864 91.413861 
L 298.068864 90.463366 
L 298.247725 90.463366 
L 298.247725 89.512871 
L 298.902873 89.512871 
L 298.902873 88.562376 
L 299.267113 88.562376 
L 299.267113 87.611881 
L 299.845724 87.611881 
L 299.845724 86.661386 
L 300.458288 86.661386 
L 300.546145 84.760396 
L 301.482272 84.760396 
L 301.482272 83.809901 
L 301.817901 83.809901 
L 301.817901 82.859406 
L 302.191731 82.859406 
L 302.191731 81.908911 
L 302.435716 81.908911 
L 302.473259 80.007921 
L 305.421606 80.007921 
L 305.421606 79.057426 
L 305.764867 79.057426 
L 305.841697 77.156436 
L 306.267266 77.156436 
L 306.333415 74.30495 
L 306.580572 74.30495 
L 306.580572 73.354455 
L 307.017513 73.354455 
L 307.017513 72.40396 
L 307.826028 72.40396 
L 307.826028 71.453465 
L 309.547361 71.453465 
L 309.547361 70.50297 
L 309.784464 70.50297 
L 309.784464 69.552475 
L 309.935182 69.552475 
L 309.967257 67.651485 
L 311.090069 67.651485 
L 311.090069 66.70099 
L 311.523165 66.70099 
L 311.523165 65.750495 
L 311.829507 65.750495 
L 311.829507 64.8 
L 312.479285 64.8 
L 312.479285 63.849505 
L 312.819031 63.849505 
L 312.819031 62.89901 
L 313.333352 62.89901 
L 313.333352 61.948515 
L 314.353942 61.948515 
L 314.353942 60.99802 
L 314.576193 60.99802 
L 314.576193 60.047525 
L 315.281721 60.047525 
L 315.281721 59.09703 
L 316.627058 59.09703 
L 316.627058 58.146535 
L 316.862786 58.146535 
L 316.862786 57.19604 
L 318.023045 57.19604 
L 318.023045 56.245545 
L 318.898621 56.245545 
L 318.898621 55.29505 
L 323.924861 55.29505 
L 323.977271 53.394059 
L 336.110777 53.394059 
L 336.110777 52.443564 
L 340.34346 52.443564 
L 340.34346 51.493069 
L 341.192763 51.493069 
L 341.192763 50.542574 
L 341.341464 50.542574 
L 341.341464 49.592079 
L 342.102002 49.592079 
L 342.179596 47.691089 
L 344.224257 47.691089 
L 344.224257 46.740594 
L 346.020106 46.740594 
L 346.020106 45.790099 
L 346.753684 45.790099 
L 346.753684 44.839604 
L 346.882883 44.839604 
L 346.984913 42.938614 
L 347.107449 42.938614 
L 347.107449 41.988119 
L 348.357318 41.988119 
L 348.37182 40.087129 
L 349.404917 40.087129 
L 349.420545 38.186139 
L 349.825891 38.186139 
L 349.825891 37.235644 
L 350.8502 37.235644 
L 350.8502 36.285149 
L 351.60574 36.285149 
L 351.60574 35.334653 
L 352.712305 35.334653 
L 352.712305 34.384158 
L 353.223825 34.384158 
L 353.223825 33.433663 
L 353.443012 33.433663 
L 353.443012 32.483168 
L 353.990026 32.483168 
L 353.990026 31.532673 
L 354.257971 31.532673 
L 354.257971 30.582178 
L 356.404794 30.582178 
L 356.404794 29.631683 
L 357.36765 29.631683 
L 357.36765 28.681188 
L 358.928361 28.681188 
L 359.013605 26.780198 
L 360.173854 26.780198 
L 360.173854 25.829703 
L 362.312677 25.829703 
L 362.312677 24.879208 
L 394.981726 24.879208 
L 394.981726 23.928713 
L 396.094072 23.928713 
L 396.156562 21.077228 
L 396.295003 21.077228 
L 396.295003 20.126733 
L 400.712912 20.126733 
L 400.712912 19.176238 
L 400.838827 19.176238 
L 400.838827 18.225743 
L 401.309445 18.225743 
L 401.309445 17.275248 
L 401.525797 17.275248 
L 401.525797 16.324752 
L 401.730389 16.324752 
L 401.730389 15.374257 
L 402.435116 15.374257 
L 402.435116 14.423762 
L 403.033054 14.423762 
L 403.033054 13.473267 
L 405.23658 13.473267 
L 405.23658 12.522772 
L 405.983328 12.522772 
L 405.983328 11.572277 
L 409.013554 11.572277 
L 409.013554 10.621782 
L 409.013554 10.621782 
L 453.6 10.621782 
L 453.6 10.621782 
" style="fill:none;stroke:#ff0000;stroke-linecap:square;stroke-width:3.0;"/>
   </g>
   <g id="line2d_2">
    <path clip-path="url(#pab59480b71)" d="M 225.522917 352.8 
L 225.522917 351.849505 
L 229.848399 351.849505 
L 229.848399 350.89901 
L 230.259347 350.89901 
L 230.259347 349.948515 
L 232.020795 349.948515 
L 232.020795 348.99802 
L 232.291196 348.99802 
L 232.397299 347.09703 
L 232.48265 347.09703 
L 232.48265 346.146535 
L 233.954016 346.146535 
L 233.96008 344.245545 
L 234.913721 344.245545 
L 234.913721 343.29505 
L 237.816944 343.29505 
L 237.915676 341.394059 
L 239.441169 341.394059 
L 239.441169 340.443564 
L 240.761582 340.443564 
L 240.761582 339.493069 
L 240.938632 339.493069 
L 241.00455 337.592079 
L 243.367788 337.592079 
L 243.367788 336.641584 
L 244.100997 336.641584 
L 244.100997 335.691089 
L 245.100406 335.691089 
L 245.100406 334.740594 
L 245.63101 334.740594 
L 245.63101 333.790099 
L 245.840865 333.790099 
L 245.927569 331.889109 
L 246.120878 331.889109 
L 246.120878 330.938614 
L 246.831915 330.938614 
L 246.831915 329.988119 
L 247.376037 329.988119 
L 247.396823 328.087129 
L 247.736322 328.087129 
L 247.736322 327.136634 
L 247.951737 327.136634 
L 248.009054 325.235644 
L 248.325571 325.235644 
L 248.41998 323.334653 
L 248.667263 323.334653 
L 248.667263 322.384158 
L 248.818209 322.384158 
L 248.882962 320.483168 
L 249.044882 320.483168 
L 249.044882 319.532673 
L 249.203528 319.532673 
L 249.300407 317.631683 
L 249.632081 317.631683 
L 249.728872 314.780198 
L 250.12732 314.780198 
L 250.12732 313.829703 
L 250.42568 313.829703 
L 250.42568 312.879208 
L 250.69245 312.879208 
L 250.732011 310.978218 
L 251.294414 310.978218 
L 251.294414 310.027723 
L 251.671819 310.027723 
L 251.671819 309.077228 
L 252.113157 309.077228 
L 252.113157 308.126733 
L 252.430737 308.126733 
L 252.430737 307.176238 
L 252.555843 307.176238 
L 252.660511 304.324752 
L 252.76173 304.324752 
L 252.854121 302.423762 
L 253.149559 302.423762 
L 253.149559 301.473267 
L 253.31232 301.473267 
L 253.410979 299.572277 
L 253.514553 299.572277 
L 253.594699 293.869307 
L 253.631586 293.869307 
L 253.721661 288.166337 
L 253.75314 288.166337 
L 253.847606 284.364356 
L 253.908575 284.364356 
L 254.018 278.661386 
L 254.095334 278.661386 
L 254.198874 274.859406 
L 254.254623 274.859406 
L 254.254623 273.908911 
L 254.49308 273.908911 
L 254.503318 272.007921 
L 254.767111 272.007921 
L 254.767111 271.057426 
L 255.013759 271.057426 
L 255.013759 270.106931 
L 255.310085 270.106931 
L 255.310085 269.156436 
L 255.662371 269.156436 
L 255.662371 268.205941 
L 255.893145 268.205941 
L 255.893145 267.255446 
L 257.006761 267.255446 
L 257.077634 265.354455 
L 257.25383 265.354455 
L 257.25383 264.40396 
L 257.422242 264.40396 
L 257.422242 263.453465 
L 257.656524 263.453465 
L 257.656524 262.50297 
L 257.951633 262.50297 
L 257.951633 261.552475 
L 258.387357 261.552475 
L 258.387357 260.60198 
L 258.514342 260.60198 
L 258.561249 257.750495 
L 258.74915 257.750495 
L 258.74915 256.8 
L 259.003297 256.8 
L 259.003297 255.849505 
L 259.459268 255.849505 
L 259.502183 253.948515 
L 259.919967 253.948515 
L 259.919967 252.99802 
L 260.336339 252.99802 
L 260.336339 252.047525 
L 260.801003 252.047525 
L 260.838968 250.146535 
L 261.605563 250.146535 
L 261.712528 248.245545 
L 262.589518 248.245545 
L 262.670914 246.344554 
L 262.882848 246.344554 
L 262.948505 241.592079 
L 263.289121 241.592079 
L 263.289121 240.641584 
L 263.656938 240.641584 
L 263.656938 239.691089 
L 264.291574 239.691089 
L 264.291574 238.740594 
L 264.535522 238.740594 
L 264.535522 237.790099 
L 264.696062 237.790099 
L 264.696062 236.839604 
L 264.986258 236.839604 
L 264.986258 235.889109 
L 265.346108 235.889109 
L 265.451084 233.037624 
L 265.501354 233.037624 
L 265.501354 232.087129 
L 265.693221 232.087129 
L 265.693221 231.136634 
L 265.939214 231.136634 
L 265.939214 230.186139 
L 266.181678 230.186139 
L 266.181678 229.235644 
L 266.346321 229.235644 
L 266.346321 228.285149 
L 266.459952 228.285149 
L 266.459952 227.334653 
L 266.646695 227.334653 
L 266.646695 226.384158 
L 267.622636 226.384158 
L 267.622636 225.433663 
L 267.858703 225.433663 
L 267.858703 224.483168 
L 268.008661 224.483168 
L 268.057126 221.631683 
L 268.461936 221.631683 
L 268.461936 220.681188 
L 268.676162 220.681188 
L 268.676162 219.730693 
L 269.169182 219.730693 
L 269.219314 217.829703 
L 269.351406 217.829703 
L 269.351406 216.879208 
L 269.600202 216.879208 
L 269.688679 214.978218 
L 270.700852 214.978218 
L 270.700852 214.027723 
L 271.1723 214.027723 
L 271.1723 213.077228 
L 272.735089 213.077228 
L 272.735089 212.126733 
L 273.469881 212.126733 
L 273.469881 211.176238 
L 276.64384 211.176238 
L 276.64384 210.225743 
L 277.923988 210.225743 
L 277.923988 209.275248 
L 278.528223 209.275248 
L 278.528223 208.324752 
L 279.208676 208.324752 
L 279.208676 207.374257 
L 279.778218 207.374257 
L 279.778218 206.423762 
L 280.336175 206.423762 
L 280.336175 205.473267 
L 280.920274 205.473267 
L 280.920274 204.522772 
L 282.08372 204.522772 
L 282.139417 202.621782 
L 282.209146 202.621782 
L 282.253116 200.720792 
L 282.449866 200.720792 
L 282.549697 198.819802 
L 282.641522 198.819802 
L 282.641522 197.869307 
L 282.958086 197.869307 
L 282.958086 196.918812 
L 283.294548 196.918812 
L 283.294548 195.968317 
L 283.819897 195.968317 
L 283.819897 195.017822 
L 284.376715 195.017822 
L 284.452487 193.116832 
L 284.749163 193.116832 
L 284.749163 192.166337 
L 285.247146 192.166337 
L 285.336664 188.364356 
L 285.528989 188.364356 
L 285.528989 187.413861 
L 285.731215 187.413861 
L 285.731215 186.463366 
L 286.095688 186.463366 
L 286.096675 184.562376 
L 286.245112 184.562376 
L 286.245112 183.611881 
L 286.409659 183.611881 
L 286.457365 181.710891 
L 286.819568 181.710891 
L 286.819568 180.760396 
L 287.022513 180.760396 
L 287.022513 179.809901 
L 287.156971 179.809901 
L 287.236411 177.908911 
L 287.331788 177.908911 
L 287.331788 176.958416 
L 287.51254 176.958416 
L 287.51254 176.007921 
L 287.866576 176.007921 
L 287.947116 174.106931 
L 288.559171 174.106931 
L 288.559171 173.156436 
L 289.018695 173.156436 
L 289.018695 172.205941 
L 289.29734 172.205941 
L 289.29734 171.255446 
L 289.546341 171.255446 
L 289.546341 170.30495 
L 289.898276 170.30495 
L 289.898276 169.354455 
L 290.089198 169.354455 
L 290.089198 168.40396 
L 290.312029 168.40396 
L 290.330724 166.50297 
L 290.664834 166.50297 
L 290.766835 163.651485 
L 290.800471 163.651485 
L 290.894295 158.89901 
L 291.029556 158.89901 
L 291.029556 157.948515 
L 291.175177 157.948515 
L 291.266135 154.146535 
L 291.308947 154.146535 
L 291.323606 152.245545 
L 291.755544 152.245545 
L 291.755544 151.29505 
L 292.103105 151.29505 
L 292.103105 150.344554 
L 292.376297 150.344554 
L 292.376297 149.394059 
L 292.52431 149.394059 
L 292.568403 147.493069 
L 292.663408 147.493069 
L 292.72869 145.592079 
L 292.929337 145.592079 
L 293.032137 143.691089 
L 293.214905 143.691089 
L 293.214905 142.740594 
L 293.389475 142.740594 
L 293.450884 140.839604 
L 293.765401 140.839604 
L 293.765401 139.889109 
L 294.655362 139.889109 
L 294.766319 137.988119 
L 294.820155 137.988119 
L 294.921987 134.186139 
L 295.486028 134.186139 
L 295.486028 133.235644 
L 295.75996 133.235644 
L 295.75996 132.285149 
L 296.651598 132.285149 
L 296.651598 131.334653 
L 297.675857 131.334653 
L 297.675857 130.384158 
L 298.418213 130.384158 
L 298.418213 129.433663 
L 299.14748 129.433663 
L 299.14748 128.483168 
L 300.7821 128.483168 
L 300.7821 127.532673 
L 301.131779 127.532673 
L 301.131779 126.582178 
L 302.373242 126.582178 
L 302.373242 125.631683 
L 306.357085 125.631683 
L 306.357085 124.681188 
L 306.852548 124.681188 
L 306.852548 123.730693 
L 307.749627 123.730693 
L 307.749627 122.780198 
L 308.77468 122.780198 
L 308.77468 121.829703 
L 309.791905 121.829703 
L 309.791905 120.879208 
L 312.006145 120.879208 
L 312.006145 119.928713 
L 318.54066 119.928713 
L 318.54066 118.978218 
L 319.526208 118.978218 
L 319.526208 118.027723 
L 320.040761 118.027723 
L 320.040761 117.077228 
L 327.139351 117.077228 
L 327.139351 116.126733 
L 329.106595 116.126733 
L 329.106595 115.176238 
L 329.235944 115.176238 
L 329.235944 114.225743 
L 332.726928 114.225743 
L 332.726928 113.275248 
L 333.309428 113.275248 
L 333.309428 112.324752 
L 334.083758 112.324752 
L 334.083758 111.374257 
L 334.437413 111.374257 
L 334.437413 110.423762 
L 334.622726 110.423762 
L 334.622726 109.473267 
L 335.510793 109.473267 
L 335.578753 107.572277 
L 336.005731 107.572277 
L 336.005731 106.621782 
L 336.194053 106.621782 
L 336.194053 105.671287 
L 336.79356 105.671287 
L 336.79356 104.720792 
L 337.377904 104.720792 
L 337.377904 103.770297 
L 337.661862 103.770297 
L 337.679974 101.869307 
L 338.184141 101.869307 
L 338.184141 100.918812 
L 339.572018 100.918812 
L 339.647292 99.017822 
L 339.784868 99.017822 
L 339.784868 98.067327 
L 339.903977 98.067327 
L 339.903977 97.116832 
L 341.079124 97.116832 
L 341.079124 96.166337 
L 341.360552 96.166337 
L 341.360552 95.215842 
L 341.481776 95.215842 
L 341.481776 94.265347 
L 343.424945 94.265347 
L 343.424945 93.314851 
L 344.176445 93.314851 
L 344.176445 92.364356 
L 344.524248 92.364356 
L 344.524248 91.413861 
L 345.288495 91.413861 
L 345.353377 89.512871 
L 346.552855 89.512871 
L 346.552855 88.562376 
L 346.89289 88.562376 
L 346.89289 87.611881 
L 347.08014 87.611881 
L 347.08014 86.661386 
L 347.271014 86.661386 
L 347.276284 84.760396 
L 347.580399 84.760396 
L 347.580399 83.809901 
L 348.009489 83.809901 
L 348.009489 82.859406 
L 348.500309 82.859406 
L 348.500309 81.908911 
L 348.884757 81.908911 
L 348.9817 80.007921 
L 349.504583 80.007921 
L 349.504583 79.057426 
L 350.620759 79.057426 
L 350.702365 77.156436 
L 351.198301 77.156436 
L 351.198301 76.205941 
L 352.836138 76.205941 
L 352.836138 75.255446 
L 353.419809 75.255446 
L 353.419809 74.30495 
L 353.596191 74.30495 
L 353.596191 73.354455 
L 354.450714 73.354455 
L 354.560572 71.453465 
L 354.60171 71.453465 
L 354.60171 70.50297 
L 354.805894 70.50297 
L 354.805894 69.552475 
L 355.079587 69.552475 
L 355.158257 67.651485 
L 355.581646 67.651485 
L 355.639151 65.750495 
L 355.92301 65.750495 
L 355.981697 63.849505 
L 356.239983 63.849505 
L 356.239983 62.89901 
L 358.104033 62.89901 
L 358.104033 61.948515 
L 358.879283 61.948515 
L 358.879283 60.99802 
L 359.86937 60.99802 
L 359.86937 60.047525 
L 360.743236 60.047525 
L 360.777784 58.146535 
L 361.273574 58.146535 
L 361.273574 57.19604 
L 361.4348 57.19604 
L 361.4348 56.245545 
L 365.780745 56.245545 
L 365.780745 55.29505 
L 367.229117 55.29505 
L 367.229117 54.344554 
L 367.44912 54.344554 
L 367.44912 53.394059 
L 368.504197 53.394059 
L 368.504197 52.443564 
L 372.977997 52.443564 
L 372.977997 51.493069 
L 374.942089 51.493069 
L 374.942089 50.542574 
L 375.143765 50.542574 
L 375.143765 49.592079 
L 376.237022 49.592079 
L 376.342309 47.691089 
L 376.729785 47.691089 
L 376.729785 46.740594 
L 377.211631 46.740594 
L 377.211631 45.790099 
L 377.549198 45.790099 
L 377.549198 44.839604 
L 378.347215 44.839604 
L 378.347215 43.889109 
L 378.813535 43.889109 
L 378.892129 41.988119 
L 379.166534 41.988119 
L 379.166534 41.037624 
L 380.627089 41.037624 
L 380.627089 40.087129 
L 380.971658 40.087129 
L 381.000565 38.186139 
L 381.698288 38.186139 
L 381.698288 37.235644 
L 382.370856 37.235644 
L 382.370856 36.285149 
L 383.079657 36.285149 
L 383.079657 35.334653 
L 384.525518 35.334653 
L 384.525518 34.384158 
L 384.636813 34.384158 
L 384.636813 33.433663 
L 385.15677 33.433663 
L 385.15677 32.483168 
L 388.312336 32.483168 
L 388.312336 31.532673 
L 388.876315 31.532673 
L 388.876315 30.582178 
L 389.621149 30.582178 
L 389.621149 29.631683 
L 390.801163 29.631683 
L 390.801163 28.681188 
L 390.942351 28.681188 
L 390.942351 27.730693 
L 391.870181 27.730693 
L 391.870181 26.780198 
L 393.028981 26.780198 
L 393.028981 25.829703 
L 394.344435 25.829703 
L 394.344435 24.879208 
L 414.144074 24.879208 
L 414.144074 23.928713 
L 414.461946 23.928713 
L 414.461946 22.978218 
L 416.138305 22.978218 
L 416.138305 22.027723 
L 420.530255 22.027723 
L 420.530255 21.077228 
L 423.384108 21.077228 
L 423.384108 20.126733 
L 424.670817 20.126733 
L 424.670817 19.176238 
L 431.472356 19.176238 
L 431.472356 18.225743 
L 433.104481 18.225743 
L 433.104481 17.275248 
L 433.283537 17.275248 
L 433.283537 16.324752 
L 434.995069 16.324752 
L 434.995069 15.374257 
L 436.053124 15.374257 
L 436.053124 14.423762 
L 438.569986 14.423762 
L 438.569986 13.473267 
L 439.032323 13.473267 
L 439.032323 12.522772 
L 443.318577 12.522772 
L 443.318577 11.572277 
L 444.336808 11.572277 
L 444.336808 10.621782 
L 444.336808 10.621782 
L 453.6 10.621782 
L 453.6 10.621782 
" style="fill:none;stroke:#00bfbf;stroke-linecap:square;"/>
   </g>
   <g id="line2d_3">
    <path clip-path="url(#pab59480b71)" d="M 225.522917 352.8 
L 225.522917 351.849505 
L 229.598774 351.849505 
L 229.598774 350.89901 
L 229.848399 350.89901 
L 229.848399 349.948515 
L 230.259347 349.948515 
L 230.259347 348.99802 
L 232.020795 348.99802 
L 232.020795 348.047525 
L 232.291196 348.047525 
L 232.397299 345.19604 
L 233.104619 345.19604 
L 233.104619 344.245545 
L 233.265071 344.245545 
L 233.265071 343.29505 
L 233.57991 343.29505 
L 233.57991 342.344554 
L 233.96008 342.344554 
L 234.0666 340.443564 
L 234.913721 340.443564 
L 234.913721 339.493069 
L 235.63963 339.493069 
L 235.63963 338.542574 
L 239.441169 338.542574 
L 239.441169 337.592079 
L 242.204898 337.592079 
L 242.204898 336.641584 
L 242.666567 336.641584 
L 242.77622 334.740594 
L 243.367788 334.740594 
L 243.452085 332.839604 
L 244.100997 332.839604 
L 244.100997 331.889109 
L 244.966775 331.889109 
L 245.011888 329.988119 
L 245.100406 329.988119 
L 245.125037 327.136634 
L 245.63101 327.136634 
L 245.63101 326.186139 
L 245.840865 326.186139 
L 245.927569 324.285149 
L 246.120878 324.285149 
L 246.224531 322.384158 
L 246.831915 322.384158 
L 246.831915 321.433663 
L 247.376037 321.433663 
L 247.376037 320.483168 
L 247.736322 320.483168 
L 247.817601 318.582178 
L 247.951737 318.582178 
L 248.009054 316.681188 
L 248.12267 316.681188 
L 248.12267 315.730693 
L 248.41998 315.730693 
L 248.41998 314.780198 
L 248.748723 314.780198 
L 248.84703 312.879208 
L 248.882962 312.879208 
L 248.98806 310.978218 
L 249.00505 310.978218 
L 249.008712 309.077228 
L 249.238651 309.077228 
L 249.300407 307.176238 
L 249.548566 307.176238 
L 249.632081 304.324752 
L 249.728872 304.324752 
L 249.728872 303.374257 
L 250.42568 303.374257 
L 250.42568 302.423762 
L 252.062713 302.423762 
L 252.062713 301.473267 
L 252.430737 301.473267 
L 252.517421 299.572277 
L 252.555843 299.572277 
L 252.660511 296.720792 
L 252.76173 296.720792 
L 252.854121 294.819802 
L 253.103695 294.819802 
L 253.103695 293.869307 
L 253.31232 293.869307 
L 253.410979 291.017822 
L 253.448418 291.017822 
L 253.544012 284.364356 
L 253.565005 284.364356 
L 253.656331 276.760396 
L 253.693541 276.760396 
L 253.78711 272.958416 
L 253.847606 272.958416 
L 253.933028 270.106931 
L 253.980654 270.106931 
L 254.051006 267.255446 
L 254.110153 267.255446 
L 254.198874 263.453465 
L 254.503318 263.453465 
L 254.503318 262.50297 
L 254.99157 262.50297 
L 254.99157 261.552475 
L 255.18111 261.552475 
L 255.18111 260.60198 
L 255.455693 260.60198 
L 255.455693 259.651485 
L 255.662371 259.651485 
L 255.662371 258.70099 
L 255.893145 258.70099 
L 255.893145 257.750495 
L 256.16762 257.750495 
L 256.16762 256.8 
L 256.823698 256.8 
L 256.823698 255.849505 
L 257.006761 255.849505 
L 257.006761 254.89901 
L 257.142292 254.89901 
L 257.142292 253.948515 
L 257.422242 253.948515 
L 257.422242 252.99802 
L 257.656524 252.99802 
L 257.656524 252.047525 
L 258.387357 252.047525 
L 258.387357 251.09703 
L 258.557722 251.09703 
L 258.557722 250.146535 
L 259.003297 250.146535 
L 259.003297 249.19604 
L 259.406451 249.19604 
L 259.406451 248.245545 
L 260.336339 248.245545 
L 260.409522 246.344554 
L 260.801003 246.344554 
L 260.801003 245.394059 
L 261.383286 245.394059 
L 261.383286 244.443564 
L 261.605563 244.443564 
L 261.712528 242.542574 
L 262.363675 242.542574 
L 262.363675 241.592079 
L 262.670914 241.592079 
L 262.687868 239.691089 
L 262.914331 239.691089 
L 262.914331 238.740594 
L 263.289121 238.740594 
L 263.289121 237.790099 
L 263.668539 237.790099 
L 263.759511 235.889109 
L 264.291574 235.889109 
L 264.291574 234.938614 
L 264.535522 234.938614 
L 264.535522 233.988119 
L 264.662157 233.988119 
L 264.712984 232.087129 
L 265.346108 232.087129 
L 265.399009 229.235644 
L 265.501354 229.235644 
L 265.501354 228.285149 
L 265.904392 228.285149 
L 266.012184 225.433663 
L 266.188714 225.433663 
L 266.188714 224.483168 
L 266.459952 224.483168 
L 266.459952 223.532673 
L 266.646695 223.532673 
L 266.646695 222.582178 
L 267.702838 222.582178 
L 267.738162 220.681188 
L 267.858703 220.681188 
L 267.858703 219.730693 
L 268.057126 219.730693 
L 268.057126 218.780198 
L 268.461936 218.780198 
L 268.478575 216.879208 
L 268.654813 216.879208 
L 268.654813 215.928713 
L 268.794516 215.928713 
L 268.87035 214.027723 
L 269.560898 214.027723 
L 269.560898 213.077228 
L 270.073796 213.077228 
L 270.073796 212.126733 
L 271.608546 212.126733 
L 271.608546 211.176238 
L 272.735089 211.176238 
L 272.735089 210.225743 
L 274.37112 210.225743 
L 274.37112 209.275248 
L 276.64384 209.275248 
L 276.64384 208.324752 
L 277.923988 208.324752 
L 278.004971 206.423762 
L 278.345258 206.423762 
L 278.345258 205.473267 
L 279.208676 205.473267 
L 279.208676 204.522772 
L 279.778218 204.522772 
L 279.87308 202.621782 
L 280.246163 202.621782 
L 280.336175 200.720792 
L 280.867238 200.720792 
L 280.920274 198.819802 
L 281.145948 198.819802 
L 281.183157 196.918812 
L 281.855879 196.918812 
L 281.855879 195.968317 
L 282.08372 195.968317 
L 282.08372 195.017822 
L 282.449866 195.017822 
L 282.549697 192.166337 
L 282.641522 192.166337 
L 282.641522 191.215842 
L 282.931212 191.215842 
L 282.958086 188.364356 
L 283.294548 188.364356 
L 283.294548 187.413861 
L 283.742933 187.413861 
L 283.819897 184.562376 
L 284.334325 184.562376 
L 284.334325 183.611881 
L 284.452487 183.611881 
L 284.468529 181.710891 
L 284.749163 181.710891 
L 284.749163 180.760396 
L 284.946835 180.760396 
L 284.946835 179.809901 
L 285.178576 179.809901 
L 285.247505 176.958416 
L 285.326158 176.958416 
L 285.336664 175.057426 
L 285.451051 175.057426 
L 285.528989 173.156436 
L 285.731215 173.156436 
L 285.731215 172.205941 
L 286.097004 172.205941 
L 286.097004 171.255446 
L 286.302627 171.255446 
L 286.302627 170.30495 
L 286.440688 170.30495 
L 286.457365 168.40396 
L 286.82144 168.40396 
L 286.82829 166.50297 
L 287.331788 166.50297 
L 287.413903 163.651485 
L 287.61905 163.651485 
L 287.68961 161.750495 
L 287.866576 161.750495 
L 287.866576 160.8 
L 288.44793 160.8 
L 288.44793 159.849505 
L 288.559171 159.849505 
L 288.559171 158.89901 
L 288.881276 158.89901 
L 288.980898 156.99802 
L 289.451053 156.99802 
L 289.546341 155.09703 
L 289.566937 155.09703 
L 289.599737 152.245545 
L 289.961831 152.245545 
L 290.063712 150.344554 
L 290.312029 150.344554 
L 290.403182 148.443564 
L 290.445744 148.443564 
L 290.515434 146.542574 
L 290.668765 146.542574 
L 290.668765 145.592079 
L 290.800471 145.592079 
L 290.860555 143.691089 
L 291.212031 143.691089 
L 291.276482 140.839604 
L 291.629175 140.839604 
L 291.67597 138.938614 
L 291.937727 138.938614 
L 291.937727 137.988119 
L 292.376297 137.988119 
L 292.376297 137.037624 
L 292.52431 137.037624 
L 292.52431 136.087129 
L 292.840733 136.087129 
L 292.840733 135.136634 
L 292.975191 135.136634 
L 293.033379 133.235644 
L 293.194541 133.235644 
L 293.194541 132.285149 
L 293.389475 132.285149 
L 293.389475 131.334653 
L 294.114213 131.334653 
L 294.114213 130.384158 
L 294.313912 130.384158 
L 294.422097 127.532673 
L 294.766319 127.532673 
L 294.766319 126.582178 
L 297.675857 126.582178 
L 297.675857 125.631683 
L 298.418213 125.631683 
L 298.418213 124.681188 
L 299.14748 124.681188 
L 299.14748 123.730693 
L 299.69514 123.730693 
L 299.69514 122.780198 
L 302.373242 122.780198 
L 302.373242 121.829703 
L 303.875916 121.829703 
L 303.875916 120.879208 
L 305.509558 120.879208 
L 305.509558 119.928713 
L 307.577647 119.928713 
L 307.577647 118.978218 
L 307.749627 118.978218 
L 307.749627 118.027723 
L 308.77468 118.027723 
L 308.77468 117.077228 
L 309.791905 117.077228 
L 309.791905 116.126733 
L 318.54066 116.126733 
L 318.54066 115.176238 
L 327.139351 115.176238 
L 327.139351 114.225743 
L 329.235944 114.225743 
L 329.235944 113.275248 
L 329.573447 113.275248 
L 329.573447 112.324752 
L 330.565962 112.324752 
L 330.565962 111.374257 
L 330.898552 111.374257 
L 330.898552 110.423762 
L 331.103575 110.423762 
L 331.103575 109.473267 
L 332.726928 109.473267 
L 332.726928 108.522772 
L 333.309428 108.522772 
L 333.309428 107.572277 
L 333.849709 107.572277 
L 333.856141 105.671287 
L 334.083758 105.671287 
L 334.083758 104.720792 
L 334.437413 104.720792 
L 334.479314 102.819802 
L 334.622726 102.819802 
L 334.622726 101.869307 
L 335.510793 101.869307 
L 335.578753 99.017822 
L 336.005731 99.017822 
L 336.005731 98.067327 
L 336.779021 98.067327 
L 336.824497 96.166337 
L 338.184141 96.166337 
L 338.184141 95.215842 
L 339.543734 95.215842 
L 339.572018 93.314851 
L 339.784868 93.314851 
L 339.784868 92.364356 
L 339.903977 92.364356 
L 339.903977 91.413861 
L 340.27261 91.413861 
L 340.27261 90.463366 
L 340.486962 90.463366 
L 340.486962 89.512871 
L 341.079124 89.512871 
L 341.079124 88.562376 
L 341.443324 88.562376 
L 341.443324 87.611881 
L 342.224625 87.611881 
L 342.224625 86.661386 
L 342.654096 86.661386 
L 342.654096 85.710891 
L 344.017274 85.710891 
L 344.017274 84.760396 
L 344.600889 84.760396 
L 344.600889 83.809901 
L 345.353377 83.809901 
L 345.353377 82.859406 
L 346.552855 82.859406 
L 346.552855 81.908911 
L 346.89289 81.908911 
L 346.89289 80.958416 
L 347.276284 80.958416 
L 347.276284 80.007921 
L 347.580399 80.007921 
L 347.687221 78.106931 
L 348.500309 78.106931 
L 348.500309 77.156436 
L 348.884757 77.156436 
L 348.884757 76.205941 
L 349.089078 76.205941 
L 349.089078 75.255446 
L 349.504583 75.255446 
L 349.504583 74.30495 
L 349.789891 74.30495 
L 349.789891 73.354455 
L 350.256292 73.354455 
L 350.256292 72.40396 
L 350.688518 72.40396 
L 350.702365 70.50297 
L 350.959739 70.50297 
L 350.959739 69.552475 
L 351.751935 69.552475 
L 351.819561 67.651485 
L 353.028398 67.651485 
L 353.128488 65.750495 
L 353.419809 65.750495 
L 353.419809 64.8 
L 354.450714 64.8 
L 354.450714 63.849505 
L 354.805894 63.849505 
L 354.805894 62.89901 
L 355.158257 62.89901 
L 355.158257 61.948515 
L 355.308847 61.948515 
L 355.308847 60.99802 
L 355.770206 60.99802 
L 355.770206 60.047525 
L 355.981697 60.047525 
L 355.981697 59.09703 
L 356.239831 59.09703 
L 356.239831 58.146535 
L 358.104033 58.146535 
L 358.104033 57.19604 
L 358.425137 57.19604 
L 358.425137 56.245545 
L 358.844565 56.245545 
L 358.844565 55.29505 
L 362.269939 55.29505 
L 362.269939 54.344554 
L 364.590263 54.344554 
L 364.590263 53.394059 
L 365.557535 53.394059 
L 365.557535 52.443564 
L 365.780745 52.443564 
L 365.780745 51.493069 
L 367.44912 51.493069 
L 367.44912 50.542574 
L 368.406923 50.542574 
L 368.504197 48.641584 
L 370.435035 48.641584 
L 370.435035 47.691089 
L 371.107607 47.691089 
L 371.107607 46.740594 
L 372.780569 46.740594 
L 372.780569 45.790099 
L 373.481623 45.790099 
L 373.541401 43.889109 
L 373.692127 43.889109 
L 373.692127 42.938614 
L 374.937529 42.938614 
L 374.937529 41.988119 
L 376.164831 41.988119 
L 376.237022 40.087129 
L 376.342309 40.087129 
L 376.342309 39.136634 
L 376.715808 39.136634 
L 376.715808 38.186139 
L 377.972601 38.186139 
L 377.972601 37.235644 
L 378.459714 37.235644 
L 378.459714 36.285149 
L 378.892129 36.285149 
L 378.892129 35.334653 
L 380.627089 35.334653 
L 380.627089 34.384158 
L 382.370856 34.384158 
L 382.370856 33.433663 
L 382.919561 33.433663 
L 382.919561 32.483168 
L 383.464444 32.483168 
L 383.464444 31.532673 
L 386.545349 31.532673 
L 386.545349 30.582178 
L 387.082123 30.582178 
L 387.082123 29.631683 
L 389.621149 29.631683 
L 389.621149 28.681188 
L 390.801163 28.681188 
L 390.801163 27.730693 
L 390.942351 27.730693 
L 390.942351 26.780198 
L 391.870181 26.780198 
L 391.870181 25.829703 
L 393.972244 25.829703 
L 393.972244 24.879208 
L 414.144074 24.879208 
L 414.144074 23.928713 
L 414.461946 23.928713 
L 414.461946 22.978218 
L 416.138305 22.978218 
L 416.138305 22.027723 
L 419.248402 22.027723 
L 419.248402 21.077228 
L 420.530255 21.077228 
L 420.530255 20.126733 
L 421.161522 20.126733 
L 421.246531 18.225743 
L 423.384108 18.225743 
L 423.384108 17.275248 
L 425.392043 17.275248 
L 425.392043 16.324752 
L 426.340771 16.324752 
L 426.340771 15.374257 
L 429.446362 15.374257 
L 429.446362 14.423762 
L 430.841251 14.423762 
L 430.841251 13.473267 
L 431.705272 13.473267 
L 431.705272 12.522772 
L 432.762797 12.522772 
L 432.762797 11.572277 
L 436.304924 11.572277 
L 436.304924 10.621782 
L 436.304924 10.621782 
L 453.6 10.621782 
L 453.6 10.621782 
" style="fill:none;stroke:#bf00bf;stroke-linecap:square;"/>
   </g>
   <g id="line2d_4">
    <path clip-path="url(#pab59480b71)" d="M 225.522917 352.8 
L 225.522917 351.849505 
L 228.082185 351.849505 
L 228.082185 350.89901 
L 228.543103 350.89901 
L 228.543103 349.948515 
L 229.598774 349.948515 
L 229.598774 348.99802 
L 229.768852 348.99802 
L 229.848399 347.09703 
L 230.227834 347.09703 
L 230.259347 345.19604 
L 230.732462 345.19604 
L 230.732462 344.245545 
L 231.287267 344.245545 
L 231.287267 343.29505 
L 231.75993 343.29505 
L 231.75993 342.344554 
L 232.020795 342.344554 
L 232.069715 340.443564 
L 233.718158 340.443564 
L 233.718158 339.493069 
L 234.913721 339.493069 
L 234.913721 338.542574 
L 238.35537 338.542574 
L 238.35537 337.592079 
L 239.441169 337.592079 
L 239.441169 336.641584 
L 240.4676 336.641584 
L 240.4676 335.691089 
L 240.864646 335.691089 
L 240.864646 334.740594 
L 241.657268 334.740594 
L 241.657268 333.790099 
L 242.204898 333.790099 
L 242.204898 332.839604 
L 242.539395 332.839604 
L 242.539395 331.889109 
L 242.666567 331.889109 
L 242.77622 329.037624 
L 242.910577 329.037624 
L 242.910577 328.087129 
L 243.262218 328.087129 
L 243.367788 326.186139 
L 244.01819 326.186139 
L 244.100997 324.285149 
L 244.218669 324.285149 
L 244.218669 323.334653 
L 245.100406 323.334653 
L 245.125037 320.483168 
L 245.412626 320.483168 
L 245.412626 319.532673 
L 245.63101 319.532673 
L 245.63101 318.582178 
L 245.927569 318.582178 
L 245.927569 317.631683 
L 246.116285 317.631683 
L 246.224531 313.829703 
L 246.292401 313.829703 
L 246.347864 311.928713 
L 246.831915 311.928713 
L 246.831915 310.978218 
L 247.376037 310.978218 
L 247.376037 310.027723 
L 247.736322 310.027723 
L 247.817601 308.126733 
L 247.951737 308.126733 
L 247.951737 307.176238 
L 248.41998 307.176238 
L 248.472058 305.275248 
L 248.735267 305.275248 
L 248.748723 303.374257 
L 248.882962 303.374257 
L 248.882962 302.423762 
L 249.008712 302.423762 
L 249.008712 301.473267 
L 249.274446 301.473267 
L 249.274446 300.522772 
L 249.548566 300.522772 
L 249.548566 299.572277 
L 250.015555 299.572277 
L 250.015555 298.621782 
L 250.979078 298.621782 
L 250.979078 297.671287 
L 251.329602 297.671287 
L 251.329602 296.720792 
L 251.922233 296.720792 
L 251.922233 295.770297 
L 252.374804 295.770297 
L 252.374804 294.819802 
L 252.517421 294.819802 
L 252.555843 292.918812 
L 252.660511 292.918812 
L 252.758004 291.017822 
L 252.854121 291.017822 
L 252.931176 289.116832 
L 252.990776 289.116832 
L 252.990776 288.166337 
L 253.102415 288.166337 
L 253.209778 285.314851 
L 253.250943 285.314851 
L 253.356648 280.562376 
L 253.385822 280.562376 
L 253.482424 276.760396 
L 253.502101 276.760396 
L 253.584721 266.30495 
L 253.62933 266.30495 
L 253.721995 259.651485 
L 253.782613 259.651485 
L 253.806211 257.750495 
L 253.977145 257.750495 
L 253.986097 255.849505 
L 254.131905 255.849505 
L 254.15185 253.948515 
L 254.848143 253.948515 
L 254.873945 252.047525 
L 255.258736 252.047525 
L 255.258736 251.09703 
L 255.662371 251.09703 
L 255.662371 250.146535 
L 256.16762 250.146535 
L 256.16762 249.19604 
L 257.198128 249.19604 
L 257.198128 248.245545 
L 258.387357 248.245545 
L 258.457668 246.344554 
L 258.557722 246.344554 
L 258.634994 244.443564 
L 259.237729 244.443564 
L 259.237729 243.493069 
L 259.508917 243.493069 
L 259.508917 242.542574 
L 260.136004 242.542574 
L 260.136004 241.592079 
L 260.409522 241.592079 
L 260.409522 240.641584 
L 261.383286 240.641584 
L 261.383286 239.691089 
L 261.605563 239.691089 
L 261.712528 237.790099 
L 261.984005 237.790099 
L 261.984005 236.839604 
L 262.441276 236.839604 
L 262.441276 235.889109 
L 262.914331 235.889109 
L 262.914331 234.938614 
L 263.026182 234.938614 
L 263.026182 233.988119 
L 263.668539 233.988119 
L 263.673866 232.087129 
L 264.195166 232.087129 
L 264.195166 231.136634 
L 264.434192 231.136634 
L 264.434192 230.186139 
L 264.593013 230.186139 
L 264.662157 228.285149 
L 264.956736 228.285149 
L 264.956736 227.334653 
L 265.394088 227.334653 
L 265.501354 225.433663 
L 265.630218 225.433663 
L 265.630218 224.483168 
L 265.998656 224.483168 
L 265.998656 223.532673 
L 266.118782 223.532673 
L 266.188714 221.631683 
L 266.339518 221.631683 
L 266.339518 220.681188 
L 267.079855 220.681188 
L 267.079855 219.730693 
L 267.198618 219.730693 
L 267.206056 217.829703 
L 267.738162 217.829703 
L 267.738162 216.879208 
L 268.08706 216.879208 
L 268.08706 215.928713 
L 268.350443 215.928713 
L 268.350443 214.978218 
L 268.654813 214.978218 
L 268.654813 214.027723 
L 268.794516 214.027723 
L 268.87035 212.126733 
L 270.511975 212.126733 
L 270.5458 210.225743 
L 271.608546 210.225743 
L 271.608546 209.275248 
L 272.584498 209.275248 
L 272.584498 208.324752 
L 274.119331 208.324752 
L 274.119331 207.374257 
L 274.37112 207.374257 
L 274.37112 206.423762 
L 274.824524 206.423762 
L 274.824524 205.473267 
L 275.3332 205.473267 
L 275.3332 204.522772 
L 276.545589 204.522772 
L 276.631969 202.621782 
L 276.754994 202.621782 
L 276.754994 201.671287 
L 277.758116 201.671287 
L 277.854477 199.770297 
L 278.004971 199.770297 
L 278.006575 197.869307 
L 278.335907 197.869307 
L 278.442548 195.017822 
L 278.771872 195.017822 
L 278.858222 193.116832 
L 278.95896 193.116832 
L 278.983344 191.215842 
L 279.172874 191.215842 
L 279.172874 190.265347 
L 279.568538 190.265347 
L 279.582123 188.364356 
L 279.87308 188.364356 
L 279.87308 187.413861 
L 280.147196 187.413861 
L 280.147196 186.463366 
L 280.336175 186.463366 
L 280.336175 185.512871 
L 280.471163 185.512871 
L 280.471163 184.562376 
L 280.644779 184.562376 
L 280.644779 183.611881 
L 280.854078 183.611881 
L 280.867238 181.710891 
L 281.160568 181.710891 
L 281.160568 180.760396 
L 281.456809 180.760396 
L 281.456809 179.809901 
L 281.779575 179.809901 
L 281.779575 178.859406 
L 281.962734 178.859406 
L 282.004728 176.958416 
L 282.296934 176.958416 
L 282.296934 176.007921 
L 282.449866 176.007921 
L 282.50405 173.156436 
L 282.956127 173.156436 
L 282.958086 171.255446 
L 283.0871 171.255446 
L 283.0871 170.30495 
L 283.515781 170.30495 
L 283.515781 169.354455 
L 283.663634 169.354455 
L 283.663634 168.40396 
L 283.819897 168.40396 
L 283.819897 167.453465 
L 283.957104 167.453465 
L 283.957104 166.50297 
L 284.107588 166.50297 
L 284.129165 164.60198 
L 284.468529 164.60198 
L 284.532272 160.8 
L 284.723844 160.8 
L 284.723844 159.849505 
L 285.166082 159.849505 
L 285.247146 157.948515 
L 285.326158 157.948515 
L 285.326158 156.99802 
L 285.703858 156.99802 
L 285.731215 155.09703 
L 286.097004 155.09703 
L 286.097004 154.146535 
L 286.440688 154.146535 
L 286.457365 152.245545 
L 286.767839 152.245545 
L 286.82144 150.344554 
L 287.199942 150.344554 
L 287.199942 149.394059 
L 287.397433 149.394059 
L 287.397433 148.443564 
L 287.61905 148.443564 
L 287.61905 147.493069 
L 287.979164 147.493069 
L 288.038673 145.592079 
L 288.182189 145.592079 
L 288.182189 144.641584 
L 288.44793 144.641584 
L 288.44793 143.691089 
L 288.584457 143.691089 
L 288.584457 142.740594 
L 288.78119 142.740594 
L 288.881276 140.839604 
L 288.980898 140.839604 
L 288.980898 139.889109 
L 289.264999 139.889109 
L 289.264999 138.938614 
L 289.464459 138.938614 
L 289.546341 137.037624 
L 289.599737 137.037624 
L 289.599737 136.087129 
L 289.783695 136.087129 
L 289.783695 135.136634 
L 290.21309 135.136634 
L 290.21309 134.186139 
L 290.800471 134.186139 
L 290.800471 133.235644 
L 290.994985 133.235644 
L 290.994985 132.285149 
L 291.266135 132.285149 
L 291.276482 130.384158 
L 291.629175 130.384158 
L 291.629175 129.433663 
L 291.783009 129.433663 
L 291.857898 126.582178 
L 292.364686 126.582178 
L 292.364686 125.631683 
L 292.52431 125.631683 
L 292.52431 124.681188 
L 292.840733 124.681188 
L 292.840733 123.730693 
L 293.05209 123.730693 
L 293.05209 122.780198 
L 293.550427 122.780198 
L 293.64358 120.879208 
L 294.422097 120.879208 
L 294.422097 119.928713 
L 297.553221 119.928713 
L 297.553221 118.978218 
L 297.675857 118.978218 
L 297.675857 118.027723 
L 298.457817 118.027723 
L 298.457817 117.077228 
L 300.686511 117.077228 
L 300.686511 116.126733 
L 309.791905 116.126733 
L 309.791905 115.176238 
L 318.54066 115.176238 
L 318.54066 114.225743 
L 324.636111 114.225743 
L 324.636111 113.275248 
L 324.910239 113.275248 
L 324.910239 112.324752 
L 325.925554 112.324752 
L 325.925554 111.374257 
L 328.991635 111.374257 
L 328.991635 110.423762 
L 329.387867 110.423762 
L 329.387867 109.473267 
L 329.573447 109.473267 
L 329.573447 108.522772 
L 330.293484 108.522772 
L 330.293484 107.572277 
L 330.506681 107.572277 
L 330.506681 106.621782 
L 330.695196 106.621782 
L 330.72157 104.720792 
L 330.898552 104.720792 
L 330.898552 103.770297 
L 331.103575 103.770297 
L 331.191838 101.869307 
L 331.598479 101.869307 
L 331.598479 100.918812 
L 333.309428 100.918812 
L 333.309428 99.968317 
L 334.807989 99.968317 
L 334.836528 98.067327 
L 335.510793 98.067327 
L 335.578753 95.215842 
L 336.779021 95.215842 
L 336.824497 93.314851 
L 336.904227 93.314851 
L 336.936681 91.413861 
L 337.118525 91.413861 
L 337.118525 90.463366 
L 337.533395 90.463366 
L 337.533395 89.512871 
L 337.691014 89.512871 
L 337.691014 88.562376 
L 339.263334 88.562376 
L 339.263334 87.611881 
L 339.543734 87.611881 
L 339.543734 86.661386 
L 339.784868 86.661386 
L 339.812914 84.760396 
L 340.389131 84.760396 
L 340.486962 81.908911 
L 340.584358 81.908911 
L 340.680144 80.007921 
L 341.443324 80.007921 
L 341.443324 79.057426 
L 342.224625 79.057426 
L 342.224625 78.106931 
L 342.405458 78.106931 
L 342.405458 77.156436 
L 342.710388 77.156436 
L 342.710388 76.205941 
L 345.353377 76.205941 
L 345.353377 75.255446 
L 345.689246 75.255446 
L 345.689246 74.30495 
L 347.276284 74.30495 
L 347.276284 73.354455 
L 347.847157 73.354455 
L 347.919042 71.453465 
L 347.997168 71.453465 
L 348.093495 69.552475 
L 348.180967 69.552475 
L 348.180967 68.60198 
L 348.47319 68.60198 
L 348.503989 65.750495 
L 348.730585 65.750495 
L 348.730585 64.8 
L 350.222007 64.8 
L 350.256292 62.89901 
L 351.751935 62.89901 
L 351.751935 61.948515 
L 352.193611 61.948515 
L 352.193611 60.99802 
L 353.128488 60.99802 
L 353.128488 60.047525 
L 355.369522 60.047525 
L 355.423607 58.146535 
L 356.008835 58.146535 
L 356.008835 57.19604 
L 358.425137 57.19604 
L 358.425137 56.245545 
L 358.844565 56.245545 
L 358.844565 55.29505 
L 361.814813 55.29505 
L 361.814813 54.344554 
L 362.471126 54.344554 
L 362.471126 53.394059 
L 364.165937 53.394059 
L 364.165937 52.443564 
L 364.590263 52.443564 
L 364.590263 51.493069 
L 364.787425 51.493069 
L 364.787425 50.542574 
L 365.557535 50.542574 
L 365.557535 49.592079 
L 367.44912 49.592079 
L 367.44912 48.641584 
L 368.38956 48.641584 
L 368.406923 46.740594 
L 368.504197 46.740594 
L 368.504197 45.790099 
L 368.678295 45.790099 
L 368.678295 44.839604 
L 369.071113 44.839604 
L 369.071113 43.889109 
L 370.435035 43.889109 
L 370.435035 42.938614 
L 370.648177 42.938614 
L 370.648177 41.988119 
L 371.107607 41.988119 
L 371.107607 41.037624 
L 371.888732 41.037624 
L 371.888732 40.087129 
L 372.180988 40.087129 
L 372.254917 38.186139 
L 374.347991 38.186139 
L 374.347991 37.235644 
L 374.710792 37.235644 
L 374.710792 36.285149 
L 374.894707 36.285149 
L 374.937529 34.384158 
L 375.408228 34.384158 
L 375.408228 33.433663 
L 375.84761 33.433663 
L 375.84761 32.483168 
L 376.164831 32.483168 
L 376.164831 31.532673 
L 376.715808 31.532673 
L 376.715808 30.582178 
L 379.46704 30.582178 
L 379.46704 29.631683 
L 380.548482 29.631683 
L 380.548482 28.681188 
L 381.01092 28.681188 
L 381.01092 27.730693 
L 381.689206 27.730693 
L 381.689206 26.780198 
L 383.275628 26.780198 
L 383.275628 25.829703 
L 389.035672 25.829703 
L 389.035672 24.879208 
L 409.839488 24.879208 
L 409.839488 23.928713 
L 414.461946 23.928713 
L 414.461946 22.978218 
L 416.138305 22.978218 
L 416.138305 22.027723 
L 418.083479 22.027723 
L 418.083479 21.077228 
L 418.64771 21.077228 
L 418.64771 20.126733 
L 420.530255 20.126733 
L 420.530255 19.176238 
L 421.169019 19.176238 
L 421.246531 17.275248 
L 423.373489 17.275248 
L 423.384108 15.374257 
L 426.340771 15.374257 
L 426.340771 14.423762 
L 426.718551 14.423762 
L 426.718551 13.473267 
L 429.446362 13.473267 
L 429.446362 12.522772 
L 430.841251 12.522772 
L 430.841251 11.572277 
L 432.762797 11.572277 
L 432.762797 10.621782 
L 432.762797 10.621782 
L 453.6 10.621782 
L 453.6 10.621782 
" style="fill:none;stroke:#000000;stroke-linecap:square;"/>
   </g>
   <g id="line2d_5">
    <path clip-path="url(#pab59480b71)" d="M 222.761216 352.8 
L 222.761216 351.849505 
L 224.700764 351.849505 
L 224.730362 349.948515 
L 225.374193 349.948515 
L 225.374193 348.99802 
L 225.522917 348.99802 
L 225.522917 348.047525 
L 226.739394 348.047525 
L 226.787813 346.146535 
L 227.540794 346.146535 
L 227.566795 344.245545 
L 228.082185 344.245545 
L 228.082185 343.29505 
L 228.262944 343.29505 
L 228.329331 341.394059 
L 228.673208 341.394059 
L 228.673208 340.443564 
L 229.509353 340.443564 
L 229.509353 339.493069 
L 230.259347 339.493069 
L 230.259347 338.542574 
L 231.519143 338.542574 
L 231.519143 337.592079 
L 234.077697 337.592079 
L 234.077697 336.641584 
L 236.660718 336.641584 
L 236.677987 334.740594 
L 237.485165 334.740594 
L 237.485165 333.790099 
L 237.823384 333.790099 
L 237.823384 332.839604 
L 238.016816 332.839604 
L 238.016816 331.889109 
L 238.35537 331.889109 
L 238.430362 329.988119 
L 238.577063 329.988119 
L 238.661396 328.087129 
L 239.288516 328.087129 
L 239.288516 327.136634 
L 239.604629 327.136634 
L 239.604629 326.186139 
L 239.7535 326.186139 
L 239.7535 325.235644 
L 239.876498 325.235644 
L 239.876498 324.285149 
L 240.166679 324.285149 
L 240.166679 323.334653 
L 240.361958 323.334653 
L 240.361958 322.384158 
L 241.12993 322.384158 
L 241.12993 321.433663 
L 241.986314 321.433663 
L 242.060865 319.532673 
L 242.170194 319.532673 
L 242.252602 317.631683 
L 242.539395 317.631683 
L 242.539395 316.681188 
L 242.694765 316.681188 
L 242.694765 315.730693 
L 243.042251 315.730693 
L 243.042251 314.780198 
L 243.157267 314.780198 
L 243.262218 311.928713 
L 243.840631 311.928713 
L 243.840631 310.978218 
L 244.126779 310.978218 
L 244.211446 309.077228 
L 244.323419 309.077228 
L 244.34365 307.176238 
L 244.500589 307.176238 
L 244.588365 305.275248 
L 244.680715 305.275248 
L 244.680715 304.324752 
L 244.825238 304.324752 
L 244.884576 302.423762 
L 245.176312 302.423762 
L 245.218644 300.522772 
L 245.63101 300.522772 
L 245.63101 299.572277 
L 245.98849 299.572277 
L 245.98849 298.621782 
L 246.221487 298.621782 
L 246.22581 295.770297 
L 246.422521 295.770297 
L 246.422521 294.819802 
L 246.715821 294.819802 
L 246.820152 292.918812 
L 246.864569 292.918812 
L 246.864569 291.968317 
L 247.315825 291.968317 
L 247.376037 290.067327 
L 247.469008 290.067327 
L 247.469008 289.116832 
L 247.603619 289.116832 
L 247.603619 288.166337 
L 247.736322 288.166337 
L 247.798815 285.314851 
L 248.353357 285.314851 
L 248.353357 284.364356 
L 248.59735 284.364356 
L 248.697458 281.512871 
L 249.87929 281.512871 
L 249.87929 280.562376 
L 250.939384 280.562376 
L 250.982295 278.661386 
L 251.4547 278.661386 
L 251.4547 277.710891 
L 252.373399 277.710891 
L 252.393623 275.809901 
L 252.505887 275.809901 
L 252.505887 274.859406 
L 252.643919 274.859406 
L 252.728755 272.007921 
L 252.819126 272.007921 
L 252.896427 270.106931 
L 252.992504 270.106931 
L 253.102415 268.205941 
L 253.123047 268.205941 
L 253.218102 262.50297 
L 253.268934 262.50297 
L 253.373752 257.750495 
L 253.400461 257.750495 
L 253.449392 250.146535 
L 253.517059 250.146535 
L 253.570944 247.29505 
L 253.728963 247.29505 
L 253.728963 246.344554 
L 254.750225 246.344554 
L 254.835176 244.443564 
L 254.913537 244.443564 
L 254.972072 242.542574 
L 255.338466 242.542574 
L 255.338466 241.592079 
L 256.178056 241.592079 
L 256.178056 240.641584 
L 256.537039 240.641584 
L 256.537039 239.691089 
L 257.324711 239.691089 
L 257.324711 238.740594 
L 257.582255 238.740594 
L 257.689099 236.839604 
L 257.733065 236.839604 
L 257.835362 233.988119 
L 257.895458 233.988119 
L 257.895458 233.037624 
L 258.009692 233.037624 
L 258.009692 232.087129 
L 258.18233 232.087129 
L 258.18233 231.136634 
L 258.926749 231.136634 
L 258.926749 230.186139 
L 259.286951 230.186139 
L 259.286951 229.235644 
L 259.765737 229.235644 
L 259.796408 227.334653 
L 260.684969 227.334653 
L 260.684969 226.384158 
L 261.021244 226.384158 
L 261.021244 225.433663 
L 261.656539 225.433663 
L 261.735284 223.532673 
L 262.400691 223.532673 
L 262.482503 220.681188 
L 263.325489 220.681188 
L 263.402039 218.780198 
L 263.831724 218.780198 
L 263.831724 217.829703 
L 264.711381 217.829703 
L 264.763505 215.928713 
L 265.338517 215.928713 
L 265.338517 214.978218 
L 265.618142 214.978218 
L 265.618142 214.027723 
L 266.166023 214.027723 
L 266.166023 213.077228 
L 266.297949 213.077228 
L 266.297949 212.126733 
L 266.491895 212.126733 
L 266.491895 211.176238 
L 266.723193 211.176238 
L 266.723193 210.225743 
L 268.308824 210.225743 
L 268.308824 209.275248 
L 269.991923 209.275248 
L 269.991923 208.324752 
L 270.772403 208.324752 
L 270.831425 206.423762 
L 271.352864 206.423762 
L 271.352864 205.473267 
L 271.608546 205.473267 
L 271.608546 204.522772 
L 271.892549 204.522772 
L 271.979656 202.621782 
L 272.272638 202.621782 
L 272.272638 201.671287 
L 272.731106 201.671287 
L 272.731106 200.720792 
L 272.847686 200.720792 
L 272.847686 199.770297 
L 273.096206 199.770297 
L 273.096206 198.819802 
L 273.357086 198.819802 
L 273.357086 197.869307 
L 273.726512 197.869307 
L 273.726512 196.918812 
L 274.119331 196.918812 
L 274.119331 195.968317 
L 274.253915 195.968317 
L 274.253915 195.017822 
L 274.708945 195.017822 
L 274.738166 193.116832 
L 274.824524 193.116832 
L 274.913568 190.265347 
L 274.967245 190.265347 
L 274.967245 189.314851 
L 275.118703 189.314851 
L 275.207894 186.463366 
L 275.260093 186.463366 
L 275.356009 184.562376 
L 275.554337 184.562376 
L 275.581237 182.661386 
L 275.726447 182.661386 
L 275.793876 180.760396 
L 275.853342 180.760396 
L 275.853342 179.809901 
L 276.051075 179.809901 
L 276.051075 178.859406 
L 276.545589 178.859406 
L 276.545589 177.908911 
L 276.791958 177.908911 
L 276.791958 176.958416 
L 276.931634 176.958416 
L 276.931634 176.007921 
L 277.285691 176.007921 
L 277.356174 173.156436 
L 277.866304 173.156436 
L 277.866304 172.205941 
L 278.261965 172.205941 
L 278.345258 169.354455 
L 278.442548 169.354455 
L 278.466793 167.453465 
L 278.630499 167.453465 
L 278.630499 166.50297 
L 278.920895 166.50297 
L 278.920895 165.552475 
L 279.172874 165.552475 
L 279.218698 163.651485 
L 279.328664 163.651485 
L 279.328664 162.70099 
L 279.503399 162.70099 
L 279.536707 159.849505 
L 279.803824 159.849505 
L 279.846637 157.948515 
L 279.971469 157.948515 
L 279.971469 156.99802 
L 280.318652 156.99802 
L 280.423582 154.146535 
L 280.477996 154.146535 
L 280.477996 153.19604 
L 280.644779 153.19604 
L 280.704111 151.29505 
L 280.876023 151.29505 
L 280.97819 148.443564 
L 281.301268 148.443564 
L 281.301268 147.493069 
L 281.491866 147.493069 
L 281.575464 145.592079 
L 281.778517 145.592079 
L 281.872703 143.691089 
L 281.962734 143.691089 
L 281.962734 142.740594 
L 282.099996 142.740594 
L 282.099996 141.790099 
L 282.501323 141.790099 
L 282.501323 140.839604 
L 283.692174 140.839604 
L 283.726027 138.938614 
L 283.871152 138.938614 
L 283.871152 137.988119 
L 284.195679 137.988119 
L 284.195679 137.037624 
L 284.930308 137.037624 
L 284.996421 135.136634 
L 285.512695 135.136634 
L 285.577292 131.334653 
L 285.827113 131.334653 
L 285.827113 130.384158 
L 286.448222 130.384158 
L 286.466676 128.483168 
L 286.95762 128.483168 
L 286.95762 127.532673 
L 287.22719 127.532673 
L 287.263696 125.631683 
L 287.38882 125.631683 
L 287.38882 124.681188 
L 287.617077 124.681188 
L 287.617077 123.730693 
L 287.834584 123.730693 
L 287.834584 122.780198 
L 288.44793 122.780198 
L 288.518077 120.879208 
L 288.652099 120.879208 
L 288.674611 118.978218 
L 289.05181 118.978218 
L 289.05181 118.027723 
L 290.070704 118.027723 
L 290.070704 117.077228 
L 290.626513 117.077228 
L 290.626513 116.126733 
L 290.886753 116.126733 
L 290.886753 115.176238 
L 291.087288 115.176238 
L 291.087288 114.225743 
L 291.830563 114.225743 
L 291.830563 113.275248 
L 292.484684 113.275248 
L 292.484684 112.324752 
L 299.330518 112.324752 
L 299.330518 111.374257 
L 305.340899 111.374257 
L 305.340899 110.423762 
L 309.381271 110.423762 
L 309.381271 109.473267 
L 312.955832 109.473267 
L 312.955832 108.522772 
L 318.19384 108.522772 
L 318.19384 107.572277 
L 318.639894 107.572277 
L 318.639894 106.621782 
L 319.732963 106.621782 
L 319.732963 105.671287 
L 321.281964 105.671287 
L 321.281964 104.720792 
L 322.7913 104.720792 
L 322.7913 103.770297 
L 323.046715 103.770297 
L 323.046715 102.819802 
L 323.673709 102.819802 
L 323.673709 101.869307 
L 324.119782 101.869307 
L 324.119782 100.918812 
L 324.353054 100.918812 
L 324.353054 99.968317 
L 324.608178 99.968317 
L 324.608178 99.017822 
L 324.846056 99.017822 
L 324.907713 97.116832 
L 325.891779 97.116832 
L 325.891779 96.166337 
L 326.212711 96.166337 
L 326.212711 95.215842 
L 326.610691 95.215842 
L 326.639149 93.314851 
L 326.73579 93.314851 
L 326.73579 92.364356 
L 327.687007 92.364356 
L 327.687007 91.413861 
L 327.827898 91.413861 
L 327.827898 90.463366 
L 328.155211 90.463366 
L 328.155211 89.512871 
L 328.587215 89.512871 
L 328.625394 87.611881 
L 330.80102 87.611881 
L 330.80102 86.661386 
L 330.944981 86.661386 
L 330.944981 85.710891 
L 331.121722 85.710891 
L 331.121722 84.760396 
L 331.311333 84.760396 
L 331.311333 83.809901 
L 332.669067 83.809901 
L 332.669067 82.859406 
L 332.873443 82.859406 
L 332.873443 81.908911 
L 333.33319 81.908911 
L 333.33319 80.958416 
L 334.026278 80.958416 
L 334.026278 80.007921 
L 334.391816 80.007921 
L 334.450439 78.106931 
L 335.01221 78.106931 
L 335.01221 77.156436 
L 335.634153 77.156436 
L 335.634153 76.205941 
L 335.907859 76.205941 
L 335.907859 75.255446 
L 336.247512 75.255446 
L 336.247512 74.30495 
L 336.440181 74.30495 
L 336.440181 73.354455 
L 337.2929 73.354455 
L 337.2929 72.40396 
L 339.383082 72.40396 
L 339.383082 71.453465 
L 340.584358 71.453465 
L 340.584358 70.50297 
L 340.698125 70.50297 
L 340.698125 69.552475 
L 340.881238 69.552475 
L 340.881238 68.60198 
L 341.224365 68.60198 
L 341.224365 67.651485 
L 341.545342 67.651485 
L 341.545342 66.70099 
L 342.006616 66.70099 
L 342.006616 65.750495 
L 342.544358 65.750495 
L 342.544358 64.8 
L 343.102939 64.8 
L 343.102939 63.849505 
L 343.495592 63.849505 
L 343.495592 62.89901 
L 344.472832 62.89901 
L 344.480843 60.99802 
L 345.863849 60.99802 
L 345.863849 60.047525 
L 347.144681 60.047525 
L 347.144681 59.09703 
L 348.093638 59.09703 
L 348.162113 57.19604 
L 348.578158 57.19604 
L 348.584284 55.29505 
L 351.766352 55.29505 
L 351.766352 54.344554 
L 352.606831 54.344554 
L 352.606831 53.394059 
L 353.931869 53.394059 
L 353.931869 52.443564 
L 356.997335 52.443564 
L 356.997335 51.493069 
L 357.286393 51.493069 
L 357.286393 50.542574 
L 358.897861 50.542574 
L 358.897861 49.592079 
L 359.344588 49.592079 
L 359.344588 48.641584 
L 360.671209 48.641584 
L 360.671209 47.691089 
L 361.144545 47.691089 
L 361.144545 46.740594 
L 361.981577 46.740594 
L 362.015981 44.839604 
L 362.099612 44.839604 
L 362.099612 43.889109 
L 362.265996 43.889109 
L 362.265996 42.938614 
L 362.471126 42.938614 
L 362.471126 41.988119 
L 363.125894 41.988119 
L 363.125894 41.037624 
L 363.28109 41.037624 
L 363.361945 39.136634 
L 365.309874 39.136634 
L 365.309874 38.186139 
L 365.479617 38.186139 
L 365.479617 37.235644 
L 366.684997 37.235644 
L 366.684997 36.285149 
L 367.44912 36.285149 
L 367.44912 35.334653 
L 368.311352 35.334653 
L 368.311352 34.384158 
L 368.444092 34.384158 
L 368.444603 32.483168 
L 368.761368 32.483168 
L 368.773246 30.582178 
L 369.173545 30.582178 
L 369.173545 29.631683 
L 370.350439 29.631683 
L 370.350439 28.681188 
L 371.220425 28.681188 
L 371.220425 27.730693 
L 371.416462 27.730693 
L 371.416462 26.780198 
L 376.935641 26.780198 
L 376.935641 25.829703 
L 381.26592 25.829703 
L 381.26592 24.879208 
L 408.423756 24.879208 
L 408.423756 23.928713 
L 410.10154 23.928713 
L 410.10154 22.978218 
L 411.240199 22.978218 
L 411.240199 22.027723 
L 411.474848 22.027723 
L 411.501505 20.126733 
L 412.379835 20.126733 
L 412.379835 19.176238 
L 413.926032 19.176238 
L 413.926032 18.225743 
L 414.807655 18.225743 
L 414.807655 17.275248 
L 414.965974 17.275248 
L 414.965974 16.324752 
L 415.76389 16.324752 
L 415.76389 15.374257 
L 416.414605 15.374257 
L 416.414605 14.423762 
L 416.629744 14.423762 
L 416.629744 13.473267 
L 421.631441 13.473267 
L 421.631441 12.522772 
L 423.333563 12.522772 
L 423.333563 11.572277 
L 423.660176 11.572277 
L 423.660176 10.621782 
L 423.660176 10.621782 
L 453.6 10.621782 
L 453.6 10.621782 
" style="fill:none;stroke:#00bfbf;stroke-linecap:square;"/>
   </g>
   <g id="patch_3">
    <path d="M 7.2 7.2 
L 453.6 7.2 
" style="fill:none;stroke:#000000;stroke-linecap:square;stroke-linejoin:miter;"/>
   </g>
   <g id="patch_4">
    <path d="M 453.6 352.8 
L 453.6 7.2 
" style="fill:none;stroke:#000000;stroke-linecap:square;stroke-linejoin:miter;"/>
   </g>
   <g id="patch_5">
    <path d="M 7.2 352.8 
L 453.6 352.8 
" style="fill:none;stroke:#000000;stroke-linecap:square;stroke-linejoin:miter;"/>
   </g>
   <g id="patch_6">
    <path d="M 7.2 352.8 
L 7.2 7.2 
" style="fill:none;stroke:#000000;stroke-linecap:square;stroke-linejoin:miter;"/>
   </g>
   <g id="matplotlib.axis_1">
    <g id="xtick_1"/>
    <g id="xtick_2">
     <g id="line2d_6">
      <path clip-path="url(#pab59480b71)" d="M 56.704715 352.8 
L 56.704715 7.2 
" style="fill:none;stroke:#000000;stroke-dasharray:1.000000,3.000000;stroke-dashoffset:0.0;stroke-width:0.5;"/>
     </g>
     <g id="line2d_7">
      <defs>
       <path d="M 0 0 
L 0 -4 
" id="m8c0a4d09aa" style="stroke:#000000;stroke-width:0.5;"/>
      </defs>
      <g>
       <use style="stroke:#000000;stroke-width:0.5;" x="56.70471484" xlink:href="#m8c0a4d09aa" y="352.8"/>
      </g>
     </g>
     <g id="line2d_8">
      <defs>
       <path d="M 0 0 
L 0 4 
" id="m1dd8cef7fe" style="stroke:#000000;stroke-width:0.5;"/>
      </defs>
      <g>
       <use style="stroke:#000000;stroke-width:0.5;" x="56.70471484" xlink:href="#m1dd8cef7fe" y="7.2"/>
      </g>
     </g>
     <g id="text_1">
      <!-- -6 -->
      <defs>
       <path d="M 33.015625 40.375 
Q 26.375 40.375 22.484375 35.828125 
Q 18.609375 31.296875 18.609375 23.390625 
Q 18.609375 15.53125 22.484375 10.953125 
Q 26.375 6.390625 33.015625 6.390625 
Q 39.65625 6.390625 43.53125 10.953125 
Q 47.40625 15.53125 47.40625 23.390625 
Q 47.40625 31.296875 43.53125 35.828125 
Q 39.65625 40.375 33.015625 40.375 
M 52.59375 71.296875 
L 52.59375 62.3125 
Q 48.875 64.0625 45.09375 64.984375 
Q 41.3125 65.921875 37.59375 65.921875 
Q 27.828125 65.921875 22.671875 59.328125 
Q 17.53125 52.734375 16.796875 39.40625 
Q 19.671875 43.65625 24.015625 45.921875 
Q 28.375 48.1875 33.59375 48.1875 
Q 44.578125 48.1875 50.953125 41.515625 
Q 57.328125 34.859375 57.328125 23.390625 
Q 57.328125 12.15625 50.6875 5.359375 
Q 44.046875 -1.421875 33.015625 -1.421875 
Q 20.359375 -1.421875 13.671875 8.265625 
Q 6.984375 17.96875 6.984375 36.375 
Q 6.984375 53.65625 15.1875 63.9375 
Q 23.390625 74.21875 37.203125 74.21875 
Q 40.921875 74.21875 44.703125 73.484375 
Q 48.484375 72.75 52.59375 71.296875 
" id="BitstreamVeraSans-Roman-36"/>
       <path d="M 4.890625 31.390625 
L 31.203125 31.390625 
L 31.203125 23.390625 
L 4.890625 23.390625 
z
" id="BitstreamVeraSans-Roman-2d"/>
      </defs>
      <g transform="translate(46.73440234 371.996875)scale(0.2 -0.2)">
       <use xlink:href="#BitstreamVeraSans-Roman-2d"/>
       <use x="36.083984375" xlink:href="#BitstreamVeraSans-Roman-36"/>
      </g>
     </g>
    </g>
    <g id="xtick_3">
     <g id="line2d_9">
      <path clip-path="url(#pab59480b71)" d="M 106.316625 352.8 
L 106.316625 7.2 
" style="fill:none;stroke:#000000;stroke-dasharray:1.000000,3.000000;stroke-dashoffset:0.0;stroke-width:0.5;"/>
     </g>
     <g id="line2d_10">
      <g>
       <use style="stroke:#000000;stroke-width:0.5;" x="106.316625485" xlink:href="#m8c0a4d09aa" y="352.8"/>
      </g>
     </g>
     <g id="line2d_11">
      <g>
       <use style="stroke:#000000;stroke-width:0.5;" x="106.316625485" xlink:href="#m1dd8cef7fe" y="7.2"/>
      </g>
     </g>
     <g id="text_2">
      <!-- -4 -->
      <defs>
       <path d="M 37.796875 64.3125 
L 12.890625 25.390625 
L 37.796875 25.390625 
z
M 35.203125 72.90625 
L 47.609375 72.90625 
L 47.609375 25.390625 
L 58.015625 25.390625 
L 58.015625 17.1875 
L 47.609375 17.1875 
L 47.609375 0 
L 37.796875 0 
L 37.796875 17.1875 
L 4.890625 17.1875 
L 4.890625 26.703125 
z
" id="BitstreamVeraSans-Roman-34"/>
      </defs>
      <g transform="translate(96.346312985 371.996875)scale(0.2 -0.2)">
       <use xlink:href="#BitstreamVeraSans-Roman-2d"/>
       <use x="36.083984375" xlink:href="#BitstreamVeraSans-Roman-34"/>
      </g>
     </g>
    </g>
    <g id="xtick_4">
     <g id="line2d_12">
      <path clip-path="url(#pab59480b71)" d="M 155.928536 352.8 
L 155.928536 7.2 
" style="fill:none;stroke:#000000;stroke-dasharray:1.000000,3.000000;stroke-dashoffset:0.0;stroke-width:0.5;"/>
     </g>
     <g id="line2d_13">
      <g>
       <use style="stroke:#000000;stroke-width:0.5;" x="155.92853613" xlink:href="#m8c0a4d09aa" y="352.8"/>
      </g>
     </g>
     <g id="line2d_14">
      <g>
       <use style="stroke:#000000;stroke-width:0.5;" x="155.92853613" xlink:href="#m1dd8cef7fe" y="7.2"/>
      </g>
     </g>
     <g id="text_3">
      <!-- -2 -->
      <defs>
       <path d="M 19.1875 8.296875 
L 53.609375 8.296875 
L 53.609375 0 
L 7.328125 0 
L 7.328125 8.296875 
Q 12.9375 14.109375 22.625 23.890625 
Q 32.328125 33.6875 34.8125 36.53125 
Q 39.546875 41.84375 41.421875 45.53125 
Q 43.3125 49.21875 43.3125 52.78125 
Q 43.3125 58.59375 39.234375 62.25 
Q 35.15625 65.921875 28.609375 65.921875 
Q 23.96875 65.921875 18.8125 64.3125 
Q 13.671875 62.703125 7.8125 59.421875 
L 7.8125 69.390625 
Q 13.765625 71.78125 18.9375 73 
Q 24.125 74.21875 28.421875 74.21875 
Q 39.75 74.21875 46.484375 68.546875 
Q 53.21875 62.890625 53.21875 53.421875 
Q 53.21875 48.921875 51.53125 44.890625 
Q 49.859375 40.875 45.40625 35.40625 
Q 44.1875 33.984375 37.640625 27.21875 
Q 31.109375 20.453125 19.1875 8.296875 
" id="BitstreamVeraSans-Roman-32"/>
      </defs>
      <g transform="translate(145.95822363 371.996875)scale(0.2 -0.2)">
       <use xlink:href="#BitstreamVeraSans-Roman-2d"/>
       <use x="36.083984375" xlink:href="#BitstreamVeraSans-Roman-32"/>
      </g>
     </g>
    </g>
    <g id="xtick_5">
     <g id="line2d_15">
      <path clip-path="url(#pab59480b71)" d="M 205.540447 352.8 
L 205.540447 7.2 
" style="fill:none;stroke:#000000;stroke-dasharray:1.000000,3.000000;stroke-dashoffset:0.0;stroke-width:0.5;"/>
     </g>
     <g id="line2d_16">
      <g>
       <use style="stroke:#000000;stroke-width:0.5;" x="205.540446775" xlink:href="#m8c0a4d09aa" y="352.8"/>
      </g>
     </g>
     <g id="line2d_17">
      <g>
       <use style="stroke:#000000;stroke-width:0.5;" x="205.540446775" xlink:href="#m1dd8cef7fe" y="7.2"/>
      </g>
     </g>
     <g id="text_4">
      <!-- 0 -->
      <defs>
       <path d="M 31.78125 66.40625 
Q 24.171875 66.40625 20.328125 58.90625 
Q 16.5 51.421875 16.5 36.375 
Q 16.5 21.390625 20.328125 13.890625 
Q 24.171875 6.390625 31.78125 6.390625 
Q 39.453125 6.390625 43.28125 13.890625 
Q 47.125 21.390625 47.125 36.375 
Q 47.125 51.421875 43.28125 58.90625 
Q 39.453125 66.40625 31.78125 66.40625 
M 31.78125 74.21875 
Q 44.046875 74.21875 50.515625 64.515625 
Q 56.984375 54.828125 56.984375 36.375 
Q 56.984375 17.96875 50.515625 8.265625 
Q 44.046875 -1.421875 31.78125 -1.421875 
Q 19.53125 -1.421875 13.0625 8.265625 
Q 6.59375 17.96875 6.59375 36.375 
Q 6.59375 54.828125 13.0625 64.515625 
Q 19.53125 74.21875 31.78125 74.21875 
" id="BitstreamVeraSans-Roman-30"/>
      </defs>
      <g transform="translate(199.177946775 371.996875)scale(0.2 -0.2)">
       <use xlink:href="#BitstreamVeraSans-Roman-30"/>
      </g>
     </g>
    </g>
    <g id="xtick_6">
     <g id="line2d_18">
      <path clip-path="url(#pab59480b71)" d="M 255.152357 352.8 
L 255.152357 7.2 
" style="fill:none;stroke:#000000;stroke-dasharray:1.000000,3.000000;stroke-dashoffset:0.0;stroke-width:0.5;"/>
     </g>
     <g id="line2d_19">
      <g>
       <use style="stroke:#000000;stroke-width:0.5;" x="255.15235742" xlink:href="#m8c0a4d09aa" y="352.8"/>
      </g>
     </g>
     <g id="line2d_20">
      <g>
       <use style="stroke:#000000;stroke-width:0.5;" x="255.15235742" xlink:href="#m1dd8cef7fe" y="7.2"/>
      </g>
     </g>
     <g id="text_5">
      <!-- 2 -->
      <g transform="translate(248.78985742 371.996875)scale(0.2 -0.2)">
       <use xlink:href="#BitstreamVeraSans-Roman-32"/>
      </g>
     </g>
    </g>
    <g id="xtick_7">
     <g id="line2d_21">
      <path clip-path="url(#pab59480b71)" d="M 304.764268 352.8 
L 304.764268 7.2 
" style="fill:none;stroke:#000000;stroke-dasharray:1.000000,3.000000;stroke-dashoffset:0.0;stroke-width:0.5;"/>
     </g>
     <g id="line2d_22">
      <g>
       <use style="stroke:#000000;stroke-width:0.5;" x="304.764268065" xlink:href="#m8c0a4d09aa" y="352.8"/>
      </g>
     </g>
     <g id="line2d_23">
      <g>
       <use style="stroke:#000000;stroke-width:0.5;" x="304.764268065" xlink:href="#m1dd8cef7fe" y="7.2"/>
      </g>
     </g>
     <g id="text_6">
      <!-- 4 -->
      <g transform="translate(298.401768065 371.996875)scale(0.2 -0.2)">
       <use xlink:href="#BitstreamVeraSans-Roman-34"/>
      </g>
     </g>
    </g>
    <g id="xtick_8">
     <g id="line2d_24">
      <path clip-path="url(#pab59480b71)" d="M 354.376179 352.8 
L 354.376179 7.2 
" style="fill:none;stroke:#000000;stroke-dasharray:1.000000,3.000000;stroke-dashoffset:0.0;stroke-width:0.5;"/>
     </g>
     <g id="line2d_25">
      <g>
       <use style="stroke:#000000;stroke-width:0.5;" x="354.37617871" xlink:href="#m8c0a4d09aa" y="352.8"/>
      </g>
     </g>
     <g id="line2d_26">
      <g>
       <use style="stroke:#000000;stroke-width:0.5;" x="354.37617871" xlink:href="#m1dd8cef7fe" y="7.2"/>
      </g>
     </g>
     <g id="text_7">
      <!-- 6 -->
      <g transform="translate(348.01367871 371.996875)scale(0.2 -0.2)">
       <use xlink:href="#BitstreamVeraSans-Roman-36"/>
      </g>
     </g>
    </g>
    <g id="xtick_9">
     <g id="line2d_27">
      <path clip-path="url(#pab59480b71)" d="M 403.988089 352.8 
L 403.988089 7.2 
" style="fill:none;stroke:#000000;stroke-dasharray:1.000000,3.000000;stroke-dashoffset:0.0;stroke-width:0.5;"/>
     </g>
     <g id="line2d_28">
      <g>
       <use style="stroke:#000000;stroke-width:0.5;" x="403.988089355" xlink:href="#m8c0a4d09aa" y="352.8"/>
      </g>
     </g>
     <g id="line2d_29">
      <g>
       <use style="stroke:#000000;stroke-width:0.5;" x="403.988089355" xlink:href="#m1dd8cef7fe" y="7.2"/>
      </g>
     </g>
     <g id="text_8">
      <!-- 8 -->
      <defs>
       <path d="M 31.78125 34.625 
Q 24.75 34.625 20.71875 30.859375 
Q 16.703125 27.09375 16.703125 20.515625 
Q 16.703125 13.921875 20.71875 10.15625 
Q 24.75 6.390625 31.78125 6.390625 
Q 38.8125 6.390625 42.859375 10.171875 
Q 46.921875 13.96875 46.921875 20.515625 
Q 46.921875 27.09375 42.890625 30.859375 
Q 38.875 34.625 31.78125 34.625 
M 21.921875 38.8125 
Q 15.578125 40.375 12.03125 44.71875 
Q 8.5 49.078125 8.5 55.328125 
Q 8.5 64.0625 14.71875 69.140625 
Q 20.953125 74.21875 31.78125 74.21875 
Q 42.671875 74.21875 48.875 69.140625 
Q 55.078125 64.0625 55.078125 55.328125 
Q 55.078125 49.078125 51.53125 44.71875 
Q 48 40.375 41.703125 38.8125 
Q 48.828125 37.15625 52.796875 32.3125 
Q 56.78125 27.484375 56.78125 20.515625 
Q 56.78125 9.90625 50.3125 4.234375 
Q 43.84375 -1.421875 31.78125 -1.421875 
Q 19.734375 -1.421875 13.25 4.234375 
Q 6.78125 9.90625 6.78125 20.515625 
Q 6.78125 27.484375 10.78125 32.3125 
Q 14.796875 37.15625 21.921875 38.8125 
M 18.3125 54.390625 
Q 18.3125 48.734375 21.84375 45.5625 
Q 25.390625 42.390625 31.78125 42.390625 
Q 38.140625 42.390625 41.71875 45.5625 
Q 45.3125 48.734375 45.3125 54.390625 
Q 45.3125 60.0625 41.71875 63.234375 
Q 38.140625 66.40625 31.78125 66.40625 
Q 25.390625 66.40625 21.84375 63.234375 
Q 18.3125 60.0625 18.3125 54.390625 
" id="BitstreamVeraSans-Roman-38"/>
      </defs>
      <g transform="translate(397.625589355 371.996875)scale(0.2 -0.2)">
       <use xlink:href="#BitstreamVeraSans-Roman-38"/>
      </g>
     </g>
    </g>
    <g id="xtick_10">
     <g id="line2d_30">
      <path clip-path="url(#pab59480b71)" d="M 453.6 352.8 
L 453.6 7.2 
" style="fill:none;stroke:#000000;stroke-dasharray:1.000000,3.000000;stroke-dashoffset:0.0;stroke-width:0.5;"/>
     </g>
     <g id="line2d_31">
      <g>
       <use style="stroke:#000000;stroke-width:0.5;" x="453.6" xlink:href="#m8c0a4d09aa" y="352.8"/>
      </g>
     </g>
     <g id="line2d_32">
      <g>
       <use style="stroke:#000000;stroke-width:0.5;" x="453.6" xlink:href="#m1dd8cef7fe" y="7.2"/>
      </g>
     </g>
    </g>
    <g id="xtick_11"/>
    <g id="xtick_12">
     <g id="line2d_33">
      <defs>
       <path d="M 0 0 
L 0 -2 
" id="m6114147a15" style="stroke:#000000;stroke-width:0.5;"/>
      </defs>
      <g>
       <use style="stroke:#000000;stroke-width:0.5;" x="56.70471484" xlink:href="#m6114147a15" y="352.8"/>
      </g>
     </g>
     <g id="line2d_34">
      <defs>
       <path d="M 0 0 
L 0 2 
" id="m8ec6f23fd9" style="stroke:#000000;stroke-width:0.5;"/>
      </defs>
      <g>
       <use style="stroke:#000000;stroke-width:0.5;" x="56.70471484" xlink:href="#m8ec6f23fd9" y="7.2"/>
      </g>
     </g>
    </g>
    <g id="xtick_13">
     <g id="line2d_35">
      <g>
       <use style="stroke:#000000;stroke-width:0.5;" x="106.316625485" xlink:href="#m6114147a15" y="352.8"/>
      </g>
     </g>
     <g id="line2d_36">
      <g>
       <use style="stroke:#000000;stroke-width:0.5;" x="106.316625485" xlink:href="#m8ec6f23fd9" y="7.2"/>
      </g>
     </g>
    </g>
    <g id="xtick_14">
     <g id="line2d_37">
      <g>
       <use style="stroke:#000000;stroke-width:0.5;" x="155.92853613" xlink:href="#m6114147a15" y="352.8"/>
      </g>
     </g>
     <g id="line2d_38">
      <g>
       <use style="stroke:#000000;stroke-width:0.5;" x="155.92853613" xlink:href="#m8ec6f23fd9" y="7.2"/>
      </g>
     </g>
    </g>
    <g id="xtick_15">
     <g id="line2d_39">
      <g>
       <use style="stroke:#000000;stroke-width:0.5;" x="205.540446775" xlink:href="#m6114147a15" y="352.8"/>
      </g>
     </g>
     <g id="line2d_40">
      <g>
       <use style="stroke:#000000;stroke-width:0.5;" x="205.540446775" xlink:href="#m8ec6f23fd9" y="7.2"/>
      </g>
     </g>
    </g>
    <g id="xtick_16">
     <g id="line2d_41">
      <g>
       <use style="stroke:#000000;stroke-width:0.5;" x="255.15235742" xlink:href="#m6114147a15" y="352.8"/>
      </g>
     </g>
     <g id="line2d_42">
      <g>
       <use style="stroke:#000000;stroke-width:0.5;" x="255.15235742" xlink:href="#m8ec6f23fd9" y="7.2"/>
      </g>
     </g>
    </g>
    <g id="xtick_17">
     <g id="line2d_43">
      <g>
       <use style="stroke:#000000;stroke-width:0.5;" x="304.764268065" xlink:href="#m6114147a15" y="352.8"/>
      </g>
     </g>
     <g id="line2d_44">
      <g>
       <use style="stroke:#000000;stroke-width:0.5;" x="304.764268065" xlink:href="#m8ec6f23fd9" y="7.2"/>
      </g>
     </g>
    </g>
    <g id="xtick_18">
     <g id="line2d_45">
      <g>
       <use style="stroke:#000000;stroke-width:0.5;" x="354.37617871" xlink:href="#m6114147a15" y="352.8"/>
      </g>
     </g>
     <g id="line2d_46">
      <g>
       <use style="stroke:#000000;stroke-width:0.5;" x="354.37617871" xlink:href="#m8ec6f23fd9" y="7.2"/>
      </g>
     </g>
    </g>
    <g id="xtick_19">
     <g id="line2d_47">
      <g>
       <use style="stroke:#000000;stroke-width:0.5;" x="403.988089355" xlink:href="#m6114147a15" y="352.8"/>
      </g>
     </g>
     <g id="line2d_48">
      <g>
       <use style="stroke:#000000;stroke-width:0.5;" x="403.988089355" xlink:href="#m8ec6f23fd9" y="7.2"/>
      </g>
     </g>
    </g>
    <g id="xtick_20">
     <g id="line2d_49">
      <g>
       <use style="stroke:#000000;stroke-width:0.5;" x="453.6" xlink:href="#m6114147a15" y="352.8"/>
      </g>
     </g>
     <g id="line2d_50">
      <g>
       <use style="stroke:#000000;stroke-width:0.5;" x="453.6" xlink:href="#m8ec6f23fd9" y="7.2"/>
      </g>
     </g>
    </g>
    <g id="text_9">
     <!-- log10 of Df -->
     <defs>
      <path id="BitstreamVeraSans-Roman-20"/>
      <path d="M 12.40625 8.296875 
L 28.515625 8.296875 
L 28.515625 63.921875 
L 10.984375 60.40625 
L 10.984375 69.390625 
L 28.421875 72.90625 
L 38.28125 72.90625 
L 38.28125 8.296875 
L 54.390625 8.296875 
L 54.390625 0 
L 12.40625 0 
z
" id="BitstreamVeraSans-Roman-31"/>
      <path d="M 30.609375 48.390625 
Q 23.390625 48.390625 19.1875 42.75 
Q 14.984375 37.109375 14.984375 27.296875 
Q 14.984375 17.484375 19.15625 11.84375 
Q 23.34375 6.203125 30.609375 6.203125 
Q 37.796875 6.203125 41.984375 11.859375 
Q 46.1875 17.53125 46.1875 27.296875 
Q 46.1875 37.015625 41.984375 42.703125 
Q 37.796875 48.390625 30.609375 48.390625 
M 30.609375 56 
Q 42.328125 56 49.015625 48.375 
Q 55.71875 40.765625 55.71875 27.296875 
Q 55.71875 13.875 49.015625 6.21875 
Q 42.328125 -1.421875 30.609375 -1.421875 
Q 18.84375 -1.421875 12.171875 6.21875 
Q 5.515625 13.875 5.515625 27.296875 
Q 5.515625 40.765625 12.171875 48.375 
Q 18.84375 56 30.609375 56 
" id="BitstreamVeraSans-Roman-6f"/>
      <path d="M 9.421875 75.984375 
L 18.40625 75.984375 
L 18.40625 0 
L 9.421875 0 
z
" id="BitstreamVeraSans-Roman-6c"/>
      <path d="M 19.671875 64.796875 
L 19.671875 8.109375 
L 31.59375 8.109375 
Q 46.6875 8.109375 53.6875 14.9375 
Q 60.6875 21.78125 60.6875 36.53125 
Q 60.6875 51.171875 53.6875 57.984375 
Q 46.6875 64.796875 31.59375 64.796875 
z
M 9.8125 72.90625 
L 30.078125 72.90625 
Q 51.265625 72.90625 61.171875 64.09375 
Q 71.09375 55.28125 71.09375 36.53125 
Q 71.09375 17.671875 61.125 8.828125 
Q 51.171875 0 30.078125 0 
L 9.8125 0 
z
" id="BitstreamVeraSans-Roman-44"/>
      <path d="M 45.40625 27.984375 
Q 45.40625 37.75 41.375 43.109375 
Q 37.359375 48.484375 30.078125 48.484375 
Q 22.859375 48.484375 18.828125 43.109375 
Q 14.796875 37.75 14.796875 27.984375 
Q 14.796875 18.265625 18.828125 12.890625 
Q 22.859375 7.515625 30.078125 7.515625 
Q 37.359375 7.515625 41.375 12.890625 
Q 45.40625 18.265625 45.40625 27.984375 
M 54.390625 6.78125 
Q 54.390625 -7.171875 48.1875 -13.984375 
Q 42 -20.796875 29.203125 -20.796875 
Q 24.46875 -20.796875 20.265625 -20.09375 
Q 16.0625 -19.390625 12.109375 -17.921875 
L 12.109375 -9.1875 
Q 16.0625 -11.328125 19.921875 -12.34375 
Q 23.78125 -13.375 27.78125 -13.375 
Q 36.625 -13.375 41.015625 -8.765625 
Q 45.40625 -4.15625 45.40625 5.171875 
L 45.40625 9.625 
Q 42.625 4.78125 38.28125 2.390625 
Q 33.9375 0 27.875 0 
Q 17.828125 0 11.671875 7.65625 
Q 5.515625 15.328125 5.515625 27.984375 
Q 5.515625 40.671875 11.671875 48.328125 
Q 17.828125 56 27.875 56 
Q 33.9375 56 38.28125 53.609375 
Q 42.625 51.21875 45.40625 46.390625 
L 45.40625 54.6875 
L 54.390625 54.6875 
z
" id="BitstreamVeraSans-Roman-67"/>
      <path d="M 37.109375 75.984375 
L 37.109375 68.5 
L 28.515625 68.5 
Q 23.6875 68.5 21.796875 66.546875 
Q 19.921875 64.59375 19.921875 59.515625 
L 19.921875 54.6875 
L 34.71875 54.6875 
L 34.71875 47.703125 
L 19.921875 47.703125 
L 19.921875 0 
L 10.890625 0 
L 10.890625 47.703125 
L 2.296875 47.703125 
L 2.296875 54.6875 
L 10.890625 54.6875 
L 10.890625 58.5 
Q 10.890625 67.625 15.140625 71.796875 
Q 19.390625 75.984375 28.609375 75.984375 
z
" id="BitstreamVeraSans-Roman-66"/>
     </defs>
     <g transform="translate(175.2140625 396.353125)scale(0.2 -0.2)">
      <use xlink:href="#BitstreamVeraSans-Roman-6c"/>
      <use x="27.783203125" xlink:href="#BitstreamVeraSans-Roman-6f"/>
      <use x="88.96484375" xlink:href="#BitstreamVeraSans-Roman-67"/>
      <use x="152.44140625" xlink:href="#BitstreamVeraSans-Roman-31"/>
      <use x="216.064453125" xlink:href="#BitstreamVeraSans-Roman-30"/>
      <use x="279.6875" xlink:href="#BitstreamVeraSans-Roman-20"/>
      <use x="311.474609375" xlink:href="#BitstreamVeraSans-Roman-6f"/>
      <use x="372.65625" xlink:href="#BitstreamVeraSans-Roman-66"/>
      <use x="407.861328125" xlink:href="#BitstreamVeraSans-Roman-20"/>
      <use x="439.6484375" xlink:href="#BitstreamVeraSans-Roman-44"/>
      <use x="516.650390625" xlink:href="#BitstreamVeraSans-Roman-66"/>
     </g>
    </g>
   </g>
   <g id="matplotlib.axis_2">
    <g id="ytick_1">
     <g id="line2d_51">
      <path clip-path="url(#pab59480b71)" d="M 7.2 352.8 
L 453.6 352.8 
" style="fill:none;stroke:#000000;stroke-dasharray:1.000000,3.000000;stroke-dashoffset:0.0;stroke-width:0.5;"/>
     </g>
     <g id="line2d_52">
      <defs>
       <path d="M 0 0 
L 4 0 
" id="m897a72e280" style="stroke:#000000;stroke-width:0.5;"/>
      </defs>
      <g>
       <use style="stroke:#000000;stroke-width:0.5;" x="7.2" xlink:href="#m897a72e280" y="352.8"/>
      </g>
     </g>
     <g id="line2d_53">
      <defs>
       <path d="M 0 0 
L -4 0 
" id="mdba6973c5a" style="stroke:#000000;stroke-width:0.5;"/>
      </defs>
      <g>
       <use style="stroke:#000000;stroke-width:0.5;" x="453.6" xlink:href="#mdba6973c5a" y="352.8"/>
      </g>
     </g>
    </g>
    <g id="ytick_2">
     <g id="line2d_54">
      <path clip-path="url(#pab59480b71)" d="M 7.2 284.364356 
L 453.6 284.364356 
" style="fill:none;stroke:#000000;stroke-dasharray:1.000000,3.000000;stroke-dashoffset:0.0;stroke-width:0.5;"/>
     </g>
     <g id="line2d_55">
      <g>
       <use style="stroke:#000000;stroke-width:0.5;" x="7.2" xlink:href="#m897a72e280" y="284.364356436"/>
      </g>
     </g>
     <g id="line2d_56">
      <g>
       <use style="stroke:#000000;stroke-width:0.5;" x="453.6" xlink:href="#mdba6973c5a" y="284.364356436"/>
      </g>
     </g>
    </g>
    <g id="ytick_3">
     <g id="line2d_57">
      <path clip-path="url(#pab59480b71)" d="M 7.2 215.928713 
L 453.6 215.928713 
" style="fill:none;stroke:#000000;stroke-dasharray:1.000000,3.000000;stroke-dashoffset:0.0;stroke-width:0.5;"/>
     </g>
     <g id="line2d_58">
      <g>
       <use style="stroke:#000000;stroke-width:0.5;" x="7.2" xlink:href="#m897a72e280" y="215.928712871"/>
      </g>
     </g>
     <g id="line2d_59">
      <g>
       <use style="stroke:#000000;stroke-width:0.5;" x="453.6" xlink:href="#mdba6973c5a" y="215.928712871"/>
      </g>
     </g>
    </g>
    <g id="ytick_4">
     <g id="line2d_60">
      <path clip-path="url(#pab59480b71)" d="M 7.2 147.493069 
L 453.6 147.493069 
" style="fill:none;stroke:#000000;stroke-dasharray:1.000000,3.000000;stroke-dashoffset:0.0;stroke-width:0.5;"/>
     </g>
     <g id="line2d_61">
      <g>
       <use style="stroke:#000000;stroke-width:0.5;" x="7.2" xlink:href="#m897a72e280" y="147.493069307"/>
      </g>
     </g>
     <g id="line2d_62">
      <g>
       <use style="stroke:#000000;stroke-width:0.5;" x="453.6" xlink:href="#mdba6973c5a" y="147.493069307"/>
      </g>
     </g>
    </g>
    <g id="ytick_5">
     <g id="line2d_63">
      <path clip-path="url(#pab59480b71)" d="M 7.2 79.057426 
L 453.6 79.057426 
" style="fill:none;stroke:#000000;stroke-dasharray:1.000000,3.000000;stroke-dashoffset:0.0;stroke-width:0.5;"/>
     </g>
     <g id="line2d_64">
      <g>
       <use style="stroke:#000000;stroke-width:0.5;" x="7.2" xlink:href="#m897a72e280" y="79.0574257426"/>
      </g>
     </g>
     <g id="line2d_65">
      <g>
       <use style="stroke:#000000;stroke-width:0.5;" x="453.6" xlink:href="#mdba6973c5a" y="79.0574257426"/>
      </g>
     </g>
    </g>
    <g id="ytick_6">
     <g id="line2d_66">
      <path clip-path="url(#pab59480b71)" d="M 7.2 10.621782 
L 453.6 10.621782 
" style="fill:none;stroke:#000000;stroke-dasharray:1.000000,3.000000;stroke-dashoffset:0.0;stroke-width:0.5;"/>
     </g>
     <g id="line2d_67">
      <g>
       <use style="stroke:#000000;stroke-width:0.5;" x="7.2" xlink:href="#m897a72e280" y="10.6217821782"/>
      </g>
     </g>
     <g id="line2d_68">
      <g>
       <use style="stroke:#000000;stroke-width:0.5;" x="453.6" xlink:href="#mdba6973c5a" y="10.6217821782"/>
      </g>
     </g>
    </g>
   </g>
   <g id="text_10">
    <!-- {f1-f24}, 20-D -->
    <defs>
     <path d="M 12.5 -9.28125 
L 15.921875 -9.28125 
Q 22.75 -9.28125 24.828125 -7.171875 
Q 26.90625 -5.078125 26.90625 1.90625 
L 26.90625 14.015625 
Q 26.90625 21.625 29.09375 25.09375 
Q 31.296875 28.5625 36.71875 29.890625 
Q 31.296875 31.109375 29.09375 34.5625 
Q 26.90625 38.03125 26.90625 45.703125 
L 26.90625 57.8125 
Q 26.90625 64.75 24.828125 66.875 
Q 22.75 69 15.921875 69 
L 12.5 69 
L 12.5 75.984375 
L 15.578125 75.984375 
Q 27.734375 75.984375 31.8125 72.390625 
Q 35.890625 68.796875 35.890625 58.015625 
L 35.890625 46.296875 
Q 35.890625 39.015625 38.515625 36.203125 
Q 41.15625 33.40625 48.09375 33.40625 
L 51.125 33.40625 
L 51.125 26.421875 
L 48.09375 26.421875 
Q 41.15625 26.421875 38.515625 23.578125 
Q 35.890625 20.75 35.890625 13.375 
L 35.890625 1.703125 
Q 35.890625 -9.078125 31.8125 -12.6875 
Q 27.734375 -16.3125 15.578125 -16.3125 
L 12.5 -16.3125 
z
" id="BitstreamVeraSans-Roman-7d"/>
     <path d="M 51.125 -9.28125 
L 51.125 -16.3125 
L 48.09375 -16.3125 
Q 35.9375 -16.3125 31.8125 -12.6875 
Q 27.6875 -9.078125 27.6875 1.703125 
L 27.6875 13.375 
Q 27.6875 20.75 25.046875 23.578125 
Q 22.40625 26.421875 15.484375 26.421875 
L 12.5 26.421875 
L 12.5 33.40625 
L 15.484375 33.40625 
Q 22.46875 33.40625 25.078125 36.203125 
Q 27.6875 39.015625 27.6875 46.296875 
L 27.6875 58.015625 
Q 27.6875 68.796875 31.8125 72.390625 
Q 35.9375 75.984375 48.09375 75.984375 
L 51.125 75.984375 
L 51.125 69 
L 47.796875 69 
Q 40.921875 69 38.8125 66.84375 
Q 36.71875 64.703125 36.71875 57.8125 
L 36.71875 45.703125 
Q 36.71875 38.03125 34.5 34.5625 
Q 32.28125 31.109375 26.90625 29.890625 
Q 32.328125 28.5625 34.515625 25.09375 
Q 36.71875 21.625 36.71875 14.015625 
L 36.71875 1.90625 
Q 36.71875 -4.984375 38.8125 -7.125 
Q 40.921875 -9.28125 47.796875 -9.28125 
z
" id="BitstreamVeraSans-Roman-7b"/>
     <path d="M 11.71875 12.40625 
L 22.015625 12.40625 
L 22.015625 4 
L 14.015625 -11.625 
L 7.71875 -11.625 
L 11.71875 4 
z
" id="BitstreamVeraSans-Roman-2c"/>
    </defs>
    <g transform="translate(298.972 345.888)scale(0.2 -0.2)">
     <use xlink:href="#BitstreamVeraSans-Roman-7b"/>
     <use x="63.623046875" xlink:href="#BitstreamVeraSans-Roman-66"/>
     <use x="98.828125" xlink:href="#BitstreamVeraSans-Roman-31"/>
     <use x="162.451171875" xlink:href="#BitstreamVeraSans-Roman-2d"/>
     <use x="198.53515625" xlink:href="#BitstreamVeraSans-Roman-66"/>
     <use x="233.740234375" xlink:href="#BitstreamVeraSans-Roman-32"/>
     <use x="297.36328125" xlink:href="#BitstreamVeraSans-Roman-34"/>
     <use x="360.986328125" xlink:href="#BitstreamVeraSans-Roman-7d"/>
     <use x="424.609375" xlink:href="#BitstreamVeraSans-Roman-2c"/>
     <use x="456.396484375" xlink:href="#BitstreamVeraSans-Roman-20"/>
     <use x="488.18359375" xlink:href="#BitstreamVeraSans-Roman-32"/>
     <use x="551.806640625" xlink:href="#BitstreamVeraSans-Roman-30"/>
     <use x="615.4296875" xlink:href="#BitstreamVeraSans-Roman-2d"/>
     <use x="651.513671875" xlink:href="#BitstreamVeraSans-Roman-44"/>
    </g>
   </g>
   <g id="text_11">
    <!-- 0.0.0 -->
    <defs>
     <path d="M 10.6875 12.40625 
L 21 12.40625 
L 21 0 
L 10.6875 0 
z
" id="BitstreamVeraSans-Roman-2e"/>
    </defs>
    <g style="fill:#808080;" transform="translate(217.678125 347.2643125)scale(0.1 -0.1)">
     <use xlink:href="#BitstreamVeraSans-Roman-30"/>
     <use x="63.623046875" xlink:href="#BitstreamVeraSans-Roman-2e"/>
     <use x="95.41015625" xlink:href="#BitstreamVeraSans-Roman-30"/>
     <use x="159.033203125" xlink:href="#BitstreamVeraSans-Roman-2e"/>
     <use x="190.8203125" xlink:href="#BitstreamVeraSans-Roman-30"/>
    </g>
   </g>
  </g>
 </g>
 <defs>
  <clipPath id="pab59480b71">
   <rect height="345.6" width="446.4" x="7.2" y="7.2"/>
  </clipPath>
 </defs>
</svg>
