<?xml version="1.0" encoding="utf-8" standalone="no"?>
<!DOCTYPE svg PUBLIC "-//W3C//DTD SVG 1.1//EN"
  "http://www.w3.org/Graphics/SVG/1.1/DTD/svg11.dtd">
<!-- Created with matplotlib (http://matplotlib.org/) -->
<svg height="413pt" version="1.1" viewBox="0 0 520 413" width="520pt" xmlns="http://www.w3.org/2000/svg" xmlns:xlink="http://www.w3.org/1999/xlink">
 <defs>
  <style type="text/css">
*{stroke-linecap:butt;stroke-linejoin:round;stroke-miterlimit:100000;}
  </style>
 </defs>
 <g id="figure_1">
  <g id="patch_1">
   <path d="M 0 413.968843 
L 520.9625 413.968843 
L 520.9625 0 
L 0 0 
z
" style="fill:#ffffff;"/>
  </g>
  <g id="axes_1">
   <g id="patch_2">
    <path d="M 67.3625 359.056343 
L 513.7625 359.056343 
L 513.7625 13.456343 
L 67.3625 13.456343 
z
" style="fill:#ffffff;"/>
   </g>
   <g id="line2d_1">
    <path clip-path="url(#p44466364da)" d="M 411.2794 359.056343 
L 411.2794 358.105848 
L 411.2794 358.105848 
L 411.2794 358.105848 
L 411.2794 357.155353 
L 411.2794 357.155353 
L 411.2794 357.155353 
L 411.2794 356.204858 
L 411.2794 356.204858 
L 411.2794 356.204858 
L 411.2794 355.254363 
L 411.2794 355.254363 
L 411.2794 355.254363 
L 411.2794 354.303868 
L 411.2794 354.303868 
L 411.2794 354.303868 
L 411.2794 353.353373 
L 411.2794 353.353373 
L 411.2794 353.353373 
L 411.2794 352.402877 
L 411.2794 352.402877 
L 411.2794 352.402877 
L 411.2794 351.452382 
L 411.2794 351.452382 
L 411.2794 351.452382 
L 411.2794 350.501887 
L 411.2794 350.501887 
L 411.2794 350.501887 
L 411.2794 349.551392 
L 411.2794 349.551392 
L 411.2794 349.551392 
L 411.2794 348.600897 
L 411.2794 348.600897 
L 411.2794 348.600897 
L 411.2794 347.650402 
L 411.2794 347.650402 
L 411.2794 347.650402 
L 411.2794 346.699907 
L 411.2794 346.699907 
L 411.2794 346.699907 
L 411.2794 345.749412 
L 411.2794 345.749412 
L 411.2794 345.749412 
L 411.2794 344.798917 
L 425.257886 344.798917 
L 425.257886 343.848422 
L 431.684832 343.848422 
L 431.684832 341.947432 
L 437.787588 341.947432 
L 437.787588 338.145452 
L 443.597297 338.145452 
L 443.597297 335.293967 
L 449.140817 335.293967 
L 449.140817 331.491986 
L 454.441475 331.491986 
L 454.441475 330.541491 
L 521.9625 330.541491 
L 521.9625 330.541491 
" style="fill:none;stroke:#f5deb3;stroke-linecap:square;"/>
   </g>
   <g id="line2d_2">
    <path clip-path="url(#p44466364da)" d="M 808.868625 359.056343 
" style="fill:none;stroke:#f5deb3;stroke-linecap:square;"/>
   </g>
   <g id="line2d_3">
    <path clip-path="url(#p44466364da)" d="M 364.48489 359.056343 
L 364.48489 358.105848 
L 364.48489 358.105848 
L 364.48489 358.105848 
L 364.48489 357.155353 
L 364.48489 357.155353 
L 364.48489 357.155353 
L 364.48489 356.204858 
L 364.48489 356.204858 
L 364.48489 356.204858 
L 364.48489 355.254363 
L 365.003145 355.254363 
L 365.003145 354.303868 
L 365.51919 354.303868 
L 365.51919 345.749412 
L 366.033043 345.749412 
L 366.033043 344.798917 
L 366.544724 344.798917 
L 366.544724 343.848422 
L 367.561641 343.848422 
L 367.561641 342.897927 
L 372.521858 342.897927 
L 372.521858 341.947432 
L 374.450383 341.947432 
L 374.450383 340.996937 
L 378.217608 340.996937 
L 378.217608 339.095947 
L 379.600622 339.095947 
L 379.600622 338.145452 
L 380.058136 338.145452 
L 380.058136 337.194957 
L 380.513927 337.194957 
L 380.513927 336.244462 
L 382.767481 336.244462 
L 382.767481 335.293967 
L 383.213199 335.293967 
L 383.213199 334.343472 
L 384.540588 334.343472 
L 384.540588 333.392976 
L 388.437566 333.392976 
L 388.437566 332.442481 
L 395.07004 332.442481 
L 395.07004 331.491986 
L 400.20347 331.491986 
L 400.20347 330.541491 
L 521.9625 330.541491 
L 521.9625 330.541491 
" style="fill:none;stroke:#f5deb3;stroke-linecap:square;"/>
   </g>
   <g id="line2d_4">
    <path clip-path="url(#p44466364da)" d="M 276.91422 359.056343 
L 276.91422 358.105848 
L 279.037299 358.105848 
L 279.037299 357.155353 
L 282.153669 357.155353 
L 282.153669 356.204858 
L 286.187788 356.204858 
L 286.187788 355.254363 
L 290.091751 355.254363 
L 290.091751 354.303868 
L 303.702977 354.303868 
L 303.702977 352.402877 
L 304.558191 352.402877 
L 304.558191 351.452382 
L 310.381215 351.452382 
L 310.381215 349.551392 
L 317.478436 349.551392 
L 317.478436 348.600897 
L 325.623013 348.600897 
L 325.623013 347.650402 
L 327.046704 347.650402 
L 327.046704 346.699907 
L 329.844802 346.699907 
L 329.844802 345.749412 
L 378.217608 345.749412 
L 378.217608 344.798917 
L 521.9625 344.798917 
L 521.9625 344.798917 
" style="fill:none;stroke:#f5deb3;stroke-linecap:square;"/>
   </g>
   <g id="line2d_5">
    <path clip-path="url(#p44466364da)" d="M 498.63638 359.056343 
L 498.63638 358.105848 
L 498.63638 358.105848 
L 498.63638 358.105848 
L 498.63638 357.155353 
L 507.076752 357.155353 
L 507.076752 356.204858 
L 510.543489 356.204858 
L 510.543489 355.254363 
L 515.116288 355.254363 
L 515.116288 354.303868 
L 521.9625 354.303868 
L 521.9625 354.303868 
" style="fill:none;stroke:#f5deb3;stroke-linecap:square;"/>
   </g>
   <g id="line2d_6"/>
   <g id="line2d_7">
    <path clip-path="url(#p44466364da)" d="M 361.85979 359.056343 
L 361.85979 358.105848 
L 386.72105 358.105848 
L 386.72105 357.155353 
L 388.862917 357.155353 
L 388.862917 356.204858 
L 390.549528 356.204858 
L 390.549528 355.254363 
L 390.967533 355.254363 
L 390.967533 354.303868 
L 392.212954 354.303868 
L 392.212954 353.353373 
L 394.260589 353.353373 
L 394.260589 351.452382 
L 395.07004 351.452382 
L 395.07004 350.501887 
L 405.868109 350.501887 
L 405.868109 349.551392 
L 409.502387 349.551392 
L 409.502387 348.600897 
L 412.682457 348.600897 
L 412.682457 347.650402 
L 415.781094 347.650402 
L 415.781094 346.699907 
L 432.871237 346.699907 
L 432.871237 344.798917 
L 521.9625 344.798917 
L 521.9625 344.798917 
" style="fill:none;stroke:#f5deb3;stroke-linecap:square;"/>
   </g>
   <g id="line2d_8">
    <path clip-path="url(#p44466364da)" d="M 846.68077 359.056343 
" style="fill:none;stroke:#f5deb3;stroke-linecap:square;"/>
   </g>
   <g id="line2d_9">
    <path clip-path="url(#p44466364da)" d="M 349.580731 359.056343 
L 349.580731 358.105848 
L 353.62448 358.105848 
L 353.62448 357.155353 
L 361.327867 357.155353 
L 361.327867 356.204858 
L 363.441673 356.204858 
L 363.441673 355.254363 
L 363.964406 355.254363 
L 363.964406 354.303868 
L 365.51919 354.303868 
L 365.51919 353.353373 
L 368.570083 353.353373 
L 368.570083 352.402877 
L 369.07117 352.402877 
L 369.07117 351.452382 
L 372.034886 351.452382 
L 372.034886 350.501887 
L 381.420391 350.501887 
L 381.420391 349.551392 
L 383.657282 349.551392 
L 383.657282 348.600897 
L 392.212954 348.600897 
L 392.212954 347.650402 
L 395.07004 347.650402 
L 395.07004 346.699907 
L 400.20347 346.699907 
L 400.20347 345.749412 
L 404.383277 345.749412 
L 404.383277 344.798917 
L 521.9625 344.798917 
L 521.9625 344.798917 
" style="fill:none;stroke:#f5deb3;stroke-linecap:square;"/>
   </g>
   <g id="line2d_10">
    <path clip-path="url(#p44466364da)" d="M 441.416835 359.056343 
L 441.416835 358.105848 
L 445.207241 358.105848 
L 445.207241 357.155353 
L 461.864936 357.155353 
L 461.864936 355.254363 
L 470.816325 355.254363 
L 470.816325 354.303868 
L 484.853627 354.303868 
L 484.853627 353.353373 
L 494.451097 353.353373 
L 494.451097 352.402877 
L 521.9625 352.402877 
L 521.9625 352.402877 
" style="fill:none;stroke:#f5deb3;stroke-linecap:square;"/>
   </g>
   <g id="line2d_11">
    <path clip-path="url(#p44466364da)" d="M 257.184411 359.056343 
L 257.184411 358.105848 
L 275.838548 358.105848 
L 275.838548 357.155353 
L 279.037299 357.155353 
L 279.037299 356.204858 
L 281.12377 356.204858 
L 281.12377 355.254363 
L 284.187538 355.254363 
L 284.187538 354.303868 
L 287.175649 354.303868 
L 287.175649 353.353373 
L 294.800997 353.353373 
L 294.800997 352.402877 
L 302.841675 352.402877 
L 302.841675 351.452382 
L 303.702977 351.452382 
L 303.702977 350.501887 
L 308.745888 350.501887 
L 308.745888 349.551392 
L 319.000624 349.551392 
L 319.000624 348.600897 
L 329.844802 348.600897 
L 329.844802 347.650402 
L 330.534333 347.650402 
L 330.534333 346.699907 
L 351.330338 346.699907 
L 351.330338 345.749412 
L 369.07117 345.749412 
L 369.07117 344.798917 
L 521.9625 344.798917 
L 521.9625 344.798917 
" style="fill:none;stroke:#f5deb3;stroke-linecap:square;"/>
   </g>
   <g id="line2d_12">
    <path clip-path="url(#p44466364da)" d="M 159.993568 359.056343 
L 159.993568 358.105848 
L 159.993568 358.105848 
L 159.993568 358.105848 
L 159.993568 357.155353 
L 159.993568 357.155353 
L 159.993568 357.155353 
L 159.993568 356.204858 
L 159.993568 356.204858 
L 159.993568 356.204858 
L 159.993568 355.254363 
L 159.993568 355.254363 
L 159.993568 355.254363 
L 159.993568 354.303868 
L 159.993568 354.303868 
L 159.993568 354.303868 
L 159.993568 353.353373 
L 159.993568 353.353373 
L 159.993568 353.353373 
L 159.993568 352.402877 
L 159.993568 352.402877 
L 159.993568 352.402877 
L 159.993568 351.452382 
L 159.993568 351.452382 
L 159.993568 351.452382 
L 159.993568 350.501887 
L 159.993568 350.501887 
L 159.993568 350.501887 
L 159.993568 349.551392 
L 159.993568 349.551392 
L 159.993568 349.551392 
L 159.993568 348.600897 
L 159.993568 348.600897 
L 159.993568 348.600897 
L 159.993568 347.650402 
L 159.993568 347.650402 
L 159.993568 347.650402 
L 159.993568 346.699907 
L 159.993568 346.699907 
L 159.993568 346.699907 
L 159.993568 345.749412 
L 159.993568 345.749412 
L 159.993568 345.749412 
L 159.993568 344.798917 
L 242.457578 344.798917 
L 242.457578 343.848422 
L 269.175634 343.848422 
L 269.175634 335.293967 
L 291.048375 335.293967 
L 291.048375 331.491986 
L 325.623013 331.491986 
L 325.623013 330.541491 
L 521.9625 330.541491 
L 521.9625 330.541491 
" style="fill:none;stroke:#f5deb3;stroke-linecap:square;"/>
   </g>
   <g id="line2d_13">
    <path clip-path="url(#p44466364da)" d="M 615.73286 359.056343 
" style="fill:none;stroke:#f5deb3;stroke-linecap:square;"/>
   </g>
   <g id="line2d_14">
    <path clip-path="url(#p44466364da)" d="M 319.754597 359.056343 
L 319.754597 358.105848 
L 323.455569 358.105848 
L 323.455569 357.155353 
L 325.623013 357.155353 
L 325.623013 356.204858 
L 328.45384 356.204858 
L 328.45384 355.254363 
L 329.15132 355.254363 
L 329.15132 353.353373 
L 329.844802 353.353373 
L 329.844802 352.402877 
L 330.534333 352.402877 
L 330.534333 351.452382 
L 331.901719 351.452382 
L 331.901719 347.650402 
L 332.579661 347.650402 
L 332.579661 346.699907 
L 333.253826 346.699907 
L 333.253826 344.798917 
L 503.507764 344.798917 
L 503.507764 343.848422 
L 505.952541 343.848422 
L 505.952541 342.897927 
L 509.451171 342.897927 
L 509.451171 341.947432 
L 510.698732 341.947432 
L 510.698732 340.996937 
L 511.779897 340.996937 
L 511.779897 340.046442 
L 517.486251 340.046442 
L 517.486251 339.095947 
L 517.925498 339.095947 
L 517.925498 338.145452 
L 518.217446 338.145452 
L 518.217446 337.194957 
L 519.378245 337.194957 
L 519.378245 336.244462 
L 521.098828 336.244462 
L 521.098828 335.293967 
L 521.525179 335.293967 
L 521.525179 334.343472 
L 521.80858 334.343472 
L 521.80858 333.392976 
L 521.9625 333.392976 
L 521.9625 333.392976 
" style="fill:none;stroke:#f5deb3;stroke-linecap:square;"/>
   </g>
   <g id="line2d_15"/>
   <g id="line2d_16">
    <path clip-path="url(#p44466364da)" d="M 641.189064 359.056343 
" style="fill:none;stroke:#f5deb3;stroke-linecap:square;"/>
   </g>
   <g id="line2d_17">
    <path clip-path="url(#p44466364da)" d="M 699.969923 359.056343 
" style="fill:none;stroke:#f5deb3;stroke-linecap:square;"/>
   </g>
   <g id="line2d_18">
    <path clip-path="url(#p44466364da)" d="M 159.993568 359.056343 
L 159.993568 358.105848 
L 159.993568 358.105848 
L 159.993568 358.105848 
L 159.993568 357.155353 
L 159.993568 357.155353 
L 159.993568 357.155353 
L 159.993568 356.204858 
L 159.993568 356.204858 
L 159.993568 356.204858 
L 159.993568 355.254363 
L 159.993568 355.254363 
L 159.993568 355.254363 
L 159.993568 354.303868 
L 159.993568 354.303868 
L 159.993568 354.303868 
L 159.993568 353.353373 
L 159.993568 353.353373 
L 159.993568 353.353373 
L 159.993568 352.402877 
L 159.993568 352.402877 
L 159.993568 352.402877 
L 159.993568 351.452382 
L 162.775584 351.452382 
L 162.775584 345.749412 
L 168.154797 345.749412 
L 168.154797 344.798917 
L 170.757313 344.798917 
L 170.757313 342.897927 
L 178.245002 342.897927 
L 178.245002 341.947432 
L 180.641364 341.947432 
L 180.641364 340.996937 
L 185.29626 340.996937 
L 185.29626 340.046442 
L 198.274294 340.046442 
L 198.274294 339.095947 
L 200.308163 339.095947 
L 200.308163 337.194957 
L 206.212376 337.194957 
L 206.212376 336.244462 
L 230.49601 336.244462 
L 230.49601 335.293967 
L 232.057481 335.293967 
L 232.057481 333.392976 
L 241.025462 333.392976 
L 241.025462 332.442481 
L 243.872943 332.442481 
L 243.872943 331.491986 
L 248.022344 331.491986 
L 248.022344 330.541491 
L 521.9625 330.541491 
L 521.9625 330.541491 
" style="fill:none;stroke:#f5deb3;stroke-linecap:square;"/>
   </g>
   <g id="line2d_19">
    <path clip-path="url(#p44466364da)" d="M 811.880563 359.056343 
" style="fill:none;stroke:#f5deb3;stroke-linecap:square;"/>
   </g>
   <g id="line2d_20">
    <path clip-path="url(#p44466364da)" d="M 314.375385 359.056343 
L 314.375385 358.105848 
L 329.844802 358.105848 
L 329.844802 357.155353 
L 331.219957 357.155353 
L 331.219957 356.204858 
L 340.431865 356.204858 
L 340.431865 355.254363 
L 358.08627 355.254363 
L 358.08627 354.303868 
L 365.003145 354.303868 
L 365.003145 353.353373 
L 368.066912 353.353373 
L 368.066912 352.402877 
L 369.570191 352.402877 
L 369.570191 351.452382 
L 383.213199 351.452382 
L 383.213199 350.501887 
L 388.862917 350.501887 
L 388.862917 349.551392 
L 392.625262 349.551392 
L 392.625262 348.600897 
L 398.254759 348.600897 
L 398.254759 347.650402 
L 403.633972 347.650402 
L 403.633972 346.699907 
L 411.982962 346.699907 
L 411.982962 345.749412 
L 432.575724 345.749412 
L 432.575724 344.798917 
L 521.9625 344.798917 
L 521.9625 344.798917 
" style="fill:none;stroke:#f5deb3;stroke-linecap:square;"/>
   </g>
   <g id="line2d_21">
    <path clip-path="url(#p44466364da)" d="M 768.425623 359.056343 
" style="fill:none;stroke:#f5deb3;stroke-linecap:square;"/>
   </g>
   <g id="line2d_22">
    <path clip-path="url(#p44466364da)" d="M 371.545947 359.056343 
L 371.545947 358.105848 
L 380.513927 358.105848 
L 380.513927 357.155353 
L 392.625262 357.155353 
L 392.625262 356.204858 
L 399.816231 356.204858 
L 399.816231 355.254363 
L 408.423518 355.254363 
L 408.423518 354.303868 
L 416.459036 354.303868 
L 416.459036 353.353373 
L 416.796588 353.353373 
L 416.796588 352.402877 
L 418.470368 352.402877 
L 418.470368 351.452382 
L 421.42604 351.452382 
L 421.42604 350.501887 
L 422.395437 350.501887 
L 422.395437 349.551392 
L 431.087238 349.551392 
L 431.087238 348.600897 
L 431.684832 348.600897 
L 431.684832 347.650402 
L 433.753469 347.650402 
L 433.753469 346.699907 
L 444.136328 346.699907 
L 444.136328 345.749412 
L 484.46885 345.749412 
L 484.46885 344.798917 
L 521.9625 344.798917 
L 521.9625 344.798917 
" style="fill:none;stroke:#f5deb3;stroke-linecap:square;"/>
   </g>
   <g id="line2d_23">
    <path clip-path="url(#p44466364da)" d="M 494.805453 359.056343 
L 494.805453 358.105848 
L 515.415084 358.105848 
L 515.415084 357.155353 
L 519.810689 357.155353 
L 519.810689 356.204858 
L 521.950033 356.204858 
L 521.950033 355.254363 
L 521.9625 355.254363 
" style="fill:none;stroke:#f5deb3;stroke-linecap:square;"/>
   </g>
   <g id="line2d_24">
    <path clip-path="url(#p44466364da)" d="M 626.446708 359.056343 
" style="fill:none;stroke:#f5deb3;stroke-linecap:square;"/>
   </g>
   <g id="line2d_25">
    <path clip-path="url(#p44466364da)" d="M 508.190614 359.056343 
L 508.190614 358.105848 
L 515.564206 358.105848 
L 515.564206 357.155353 
L 517.045404 357.155353 
L 517.045404 356.204858 
L 519.378245 356.204858 
L 519.378245 355.254363 
L 521.9625 355.254363 
L 521.9625 355.254363 
" style="fill:none;stroke:#f5deb3;stroke-linecap:square;"/>
   </g>
   <g id="line2d_26">
    <path clip-path="url(#p44466364da)" d="M 599.294459 359.056343 
" style="fill:none;stroke:#f5deb3;stroke-linecap:square;"/>
   </g>
   <g id="line2d_27">
    <path clip-path="url(#p44466364da)" d="M 785.445939 359.056343 
" style="fill:none;stroke:#f5deb3;stroke-linecap:square;"/>
   </g>
   <g id="line2d_28">
    <path clip-path="url(#p44466364da)" d="M 426.508671 359.056343 
L 426.508671 358.105848 
L 426.819358 358.105848 
L 426.819358 357.155353 
L 427.129249 357.155353 
L 427.129249 356.204858 
L 427.438348 356.204858 
L 427.438348 355.254363 
L 439.196362 355.254363 
L 439.196362 351.452382 
L 439.47616 351.452382 
L 439.47616 350.501887 
L 450.67913 350.501887 
L 450.67913 348.600897 
L 451.441015 348.600897 
L 451.441015 347.650402 
L 462.328586 347.650402 
L 462.328586 346.699907 
L 471.031841 346.699907 
L 471.031841 345.749412 
L 488.821601 345.749412 
L 488.821601 344.798917 
L 521.9625 344.798917 
L 521.9625 344.798917 
" style="fill:none;stroke:#f5deb3;stroke-linecap:square;"/>
   </g>
   <g id="line2d_29">
    <path clip-path="url(#p44466364da)" d="M 151.241875 359.056343 
L 151.241875 358.105848 
L 151.241875 358.105848 
L 151.241875 357.155353 
L 151.241875 357.155353 
L 151.241875 356.204858 
L 151.241875 356.204858 
L 151.241875 355.254363 
L 151.241875 355.254363 
L 151.241875 354.303868 
L 151.241875 354.303868 
L 151.241875 353.353373 
L 154.229986 353.353373 
L 154.229986 352.402877 
L 154.229986 352.402877 
L 154.229986 351.452382 
L 154.229986 351.452382 
L 154.229986 350.501887 
L 154.229986 350.501887 
L 154.229986 349.551392 
L 154.229986 349.551392 
L 154.229986 348.600897 
L 154.229986 348.600897 
L 154.229986 347.650402 
L 154.229986 347.650402 
L 154.229986 346.699907 
L 154.229986 346.699907 
L 154.229986 345.749412 
L 154.229986 345.749412 
L 154.229986 344.798917 
L 211.841873 344.798917 
L 211.841873 343.848422 
L 211.841873 343.848422 
L 211.841873 342.897927 
L 211.841873 342.897927 
L 211.841873 341.947432 
L 414.069433 341.947432 
L 414.069433 340.996937 
L 414.069433 340.996937 
L 414.069433 340.046442 
L 414.069433 340.046442 
L 414.069433 339.095947 
L 415.781094 339.095947 
L 415.781094 338.145452 
L 415.781094 338.145452 
L 415.781094 337.194957 
L 415.781094 337.194957 
L 415.781094 336.244462 
L 417.133201 336.244462 
L 417.133201 335.293967 
L 417.133201 335.293967 
L 417.133201 334.343472 
L 417.133201 334.343472 
L 417.133201 333.392976 
L 417.803631 333.392976 
L 417.803631 332.442481 
L 417.803631 332.442481 
L 417.803631 331.491986 
L 417.803631 331.491986 
L 417.803631 330.541491 
L 521.9625 330.541491 
" style="fill:none;stroke:#f5deb3;stroke-linecap:square;"/>
   </g>
   <g id="line2d_30">
    <path clip-path="url(#p44466364da)" d="M 417.46888 359.056343 
L 417.46888 358.105848 
L 417.46888 358.105848 
L 417.46888 357.155353 
L 419.133451 357.155353 
L 419.133451 356.204858 
L 422.073167 356.204858 
L 422.073167 355.254363 
L 423.35713 355.254363 
L 423.35713 354.303868 
L 423.35713 354.303868 
L 423.35713 353.353373 
L 425.257886 353.353373 
L 425.257886 352.402877 
L 425.884895 352.402877 
L 425.884895 351.452382 
L 426.197185 351.452382 
L 426.197185 350.501887 
L 426.508671 350.501887 
L 426.508671 349.551392 
L 427.438348 349.551392 
L 427.438348 348.600897 
L 429.276546 348.600897 
L 429.276546 347.650402 
L 430.787332 347.650402 
L 430.787332 346.699907 
L 431.087238 346.699907 
L 431.087238 345.749412 
L 433.753469 345.749412 
L 433.753469 344.798917 
L 434.338071 344.798917 
L 434.338071 343.848422 
L 435.209713 343.848422 
L 435.209713 342.897927 
L 437.219454 342.897927 
L 437.219454 341.947432 
L 438.070658 341.947432 
L 438.070658 340.996937 
L 439.196362 340.996937 
L 439.196362 340.046442 
L 441.141494 340.046442 
L 441.141494 339.095947 
L 441.965645 339.095947 
L 441.965645 338.145452 
L 444.672969 338.145452 
L 444.672969 337.194957 
L 447.582696 337.194957 
L 447.582696 336.244462 
L 448.364264 336.244462 
L 448.364264 335.293967 
L 448.882519 335.293967 
L 448.882519 334.343472 
L 450.933625 334.343472 
L 450.933625 333.392976 
L 452.449458 333.392976 
L 452.449458 332.442481 
L 452.950545 332.442481 
L 452.950545 331.491986 
L 479.753486 331.491986 
L 479.753486 330.541491 
L 489.007345 330.541491 
L 489.007345 329.590996 
L 489.007345 329.590996 
L 489.007345 328.640501 
L 489.007345 328.640501 
L 489.007345 327.690006 
L 489.007345 327.690006 
L 489.007345 326.739511 
L 489.007345 326.739511 
L 489.007345 325.789016 
L 489.007345 325.789016 
L 489.007345 324.838521 
L 489.007345 324.838521 
L 489.007345 323.888026 
L 489.007345 323.888026 
L 489.007345 322.937531 
L 489.007345 322.937531 
L 489.007345 321.987036 
L 489.007345 321.987036 
L 489.007345 321.036541 
L 489.007345 321.036541 
L 489.007345 320.086046 
L 489.007345 320.086046 
L 489.007345 319.135551 
L 489.007345 319.135551 
L 489.007345 318.185056 
L 489.007345 318.185056 
L 489.007345 317.234561 
L 489.007345 317.234561 
L 489.007345 316.284066 
L 521.9625 316.284066 
" style="fill:none;stroke:#f5deb3;stroke-linecap:square;"/>
   </g>
   <g id="line2d_31">
    <path clip-path="url(#p44466364da)" d="M -78.333088 359.056343 
M -1 356.204858 
L 73.266713 356.204858 
L 73.266713 355.254363 
L 84.275422 355.254363 
L 84.275422 354.303868 
L 112.326282 354.303868 
L 112.326282 353.353373 
L 116.428789 353.353373 
L 116.428789 352.402877 
L 148.178107 352.402877 
L 148.178107 351.452382 
L 206.212376 351.452382 
L 206.212376 350.501887 
L 211.841873 350.501887 
L 211.841873 349.551392 
L 215.45445 349.551392 
L 215.45445 348.600897 
L 215.45445 348.600897 
L 215.45445 347.650402 
L 265.701357 347.650402 
L 265.701357 346.699907 
L 276.91422 346.699907 
L 276.91422 345.749412 
L 293.873695 345.749412 
L 293.873695 344.798917 
L 366.033043 344.798917 
L 366.033043 343.848422 
L 417.133201 343.848422 
L 417.133201 342.897927 
L 471.031841 342.897927 
L 471.031841 341.947432 
L 479.552968 341.947432 
L 479.552968 340.996937 
L 484.276001 340.996937 
L 484.276001 340.046442 
L 486.000672 340.046442 
L 486.000672 339.095947 
L 489.192805 339.095947 
L 489.192805 338.145452 
L 492.302893 338.145452 
L 492.302893 337.194957 
L 493.739258 337.194957 
L 493.739258 336.244462 
L 498.121068 336.244462 
L 498.121068 335.293967 
L 499.660468 335.293967 
L 499.660468 334.343472 
L 503.012825 334.343472 
L 503.012825 333.392976 
L 503.672295 333.392976 
L 503.672295 332.442481 
L 503.836602 332.442481 
L 503.836602 331.491986 
L 504.980549 331.491986 
L 504.980549 330.541491 
L 510.388046 330.541491 
L 510.388046 329.590996 
L 513.45959 329.590996 
L 513.45959 328.640501 
L 513.45959 328.640501 
L 513.45959 328.640501 
L 513.7625 328.640501 
" style="fill:none;stroke:#000000;stroke-linecap:square;"/>
   </g>
   <g id="line2d_32"/>
   <g id="line2d_33"/>
   <g id="line2d_34"/>
   <g id="line2d_35"/>
   <g id="line2d_36">
    <path clip-path="url(#p44466364da)" d="M 513.7625 359.056343 
L 513.7625 13.456343 
" style="fill:none;stroke:#000000;stroke-linecap:square;"/>
   </g>
   <g id="patch_3">
    <path d="M 67.3625 13.456343 
L 513.7625 13.456343 
" style="fill:none;stroke:#000000;stroke-linecap:square;stroke-linejoin:miter;"/>
   </g>
   <g id="patch_4">
    <path d="M 513.7625 359.056343 
L 513.7625 13.456343 
" style="fill:none;stroke:#000000;stroke-linecap:square;stroke-linejoin:miter;"/>
   </g>
   <g id="patch_5">
    <path d="M 67.3625 359.056343 
L 513.7625 359.056343 
" style="fill:none;stroke:#000000;stroke-linecap:square;stroke-linejoin:miter;"/>
   </g>
   <g id="patch_6">
    <path d="M 67.3625 359.056343 
L 67.3625 13.456343 
" style="fill:none;stroke:#000000;stroke-linecap:square;stroke-linejoin:miter;"/>
   </g>
   <g id="matplotlib.axis_1">
    <g id="xtick_1">
     <g id="line2d_37">
      <path clip-path="url(#p44466364da)" d="M 67.3625 359.056343 
L 67.3625 13.456343 
" style="fill:none;stroke:#000000;stroke-dasharray:1.000000,3.000000;stroke-dashoffset:0.0;stroke-width:0.5;"/>
     </g>
     <g id="line2d_38">
      <defs>
       <path d="M 0 0 
L 0 -4 
" id="mecd3b87592" style="stroke:#000000;stroke-width:0.5;"/>
      </defs>
      <g>
       <use style="stroke:#000000;stroke-width:0.5;" x="67.3625" xlink:href="#mecd3b87592" y="359.056342822"/>
      </g>
     </g>
     <g id="line2d_39">
      <defs>
       <path d="M 0 0 
L 0 4 
" id="mb36b6e204c" style="stroke:#000000;stroke-width:0.5;"/>
      </defs>
      <g>
       <use style="stroke:#000000;stroke-width:0.5;" x="67.3625" xlink:href="#mb36b6e204c" y="13.4563428218"/>
      </g>
     </g>
     <g id="text_1">
      <!-- 0 -->
      <defs>
       <path d="M 31.78125 66.40625 
Q 24.171875 66.40625 20.328125 58.90625 
Q 16.5 51.421875 16.5 36.375 
Q 16.5 21.390625 20.328125 13.890625 
Q 24.171875 6.390625 31.78125 6.390625 
Q 39.453125 6.390625 43.28125 13.890625 
Q 47.125 21.390625 47.125 36.375 
Q 47.125 51.421875 43.28125 58.90625 
Q 39.453125 66.40625 31.78125 66.40625 
M 31.78125 74.21875 
Q 44.046875 74.21875 50.515625 64.515625 
Q 56.984375 54.828125 56.984375 36.375 
Q 56.984375 17.96875 50.515625 8.265625 
Q 44.046875 -1.421875 31.78125 -1.421875 
Q 19.53125 -1.421875 13.0625 8.265625 
Q 6.59375 17.96875 6.59375 36.375 
Q 6.59375 54.828125 13.0625 64.515625 
Q 19.53125 74.21875 31.78125 74.21875 
" id="BitstreamVeraSans-Roman-30"/>
      </defs>
      <g transform="translate(61.0 378.253217822)scale(0.2 -0.2)">
       <use xlink:href="#BitstreamVeraSans-Roman-30"/>
      </g>
     </g>
    </g>
    <g id="xtick_2">
     <g id="line2d_40">
      <path clip-path="url(#p44466364da)" d="M 346.003751 359.056343 
L 346.003751 13.456343 
" style="fill:none;stroke:#000000;stroke-dasharray:1.000000,3.000000;stroke-dashoffset:0.0;stroke-width:0.5;"/>
     </g>
     <g id="line2d_41">
      <g>
       <use style="stroke:#000000;stroke-width:0.5;" x="346.0037509" xlink:href="#mecd3b87592" y="359.056342822"/>
      </g>
     </g>
     <g id="line2d_42">
      <g>
       <use style="stroke:#000000;stroke-width:0.5;" x="346.0037509" xlink:href="#mb36b6e204c" y="13.4563428218"/>
      </g>
     </g>
     <g id="text_2">
      <!-- 1 -->
      <defs>
       <path d="M 12.40625 8.296875 
L 28.515625 8.296875 
L 28.515625 63.921875 
L 10.984375 60.40625 
L 10.984375 69.390625 
L 28.421875 72.90625 
L 38.28125 72.90625 
L 38.28125 8.296875 
L 54.390625 8.296875 
L 54.390625 0 
L 12.40625 0 
z
" id="BitstreamVeraSans-Roman-31"/>
      </defs>
      <g transform="translate(339.6412509 378.253217822)scale(0.2 -0.2)">
       <use xlink:href="#BitstreamVeraSans-Roman-31"/>
      </g>
     </g>
    </g>
    <g id="xtick_3">
     <g id="line2d_43">
      <defs>
       <path d="M 0 0 
L 0 -2 
" id="mbc83dd6908" style="stroke:#000000;stroke-width:0.5;"/>
      </defs>
      <g>
       <use style="stroke:#000000;stroke-width:0.5;" x="151.24187455" xlink:href="#mbc83dd6908" y="359.056342822"/>
      </g>
     </g>
     <g id="line2d_44">
      <defs>
       <path d="M 0 0 
L 0 2 
" id="m12f81fc371" style="stroke:#000000;stroke-width:0.5;"/>
      </defs>
      <g>
       <use style="stroke:#000000;stroke-width:0.5;" x="151.24187455" xlink:href="#m12f81fc371" y="13.4563428218"/>
      </g>
     </g>
    </g>
    <g id="xtick_4">
     <g id="line2d_45">
      <g>
       <use style="stroke:#000000;stroke-width:0.5;" x="200.308163246" xlink:href="#mbc83dd6908" y="359.056342822"/>
      </g>
     </g>
     <g id="line2d_46">
      <g>
       <use style="stroke:#000000;stroke-width:0.5;" x="200.308163246" xlink:href="#m12f81fc371" y="13.4563428218"/>
      </g>
     </g>
    </g>
    <g id="xtick_5">
     <g id="line2d_47">
      <g>
       <use style="stroke:#000000;stroke-width:0.5;" x="235.1212491" xlink:href="#mbc83dd6908" y="359.056342822"/>
      </g>
     </g>
     <g id="line2d_48">
      <g>
       <use style="stroke:#000000;stroke-width:0.5;" x="235.1212491" xlink:href="#m12f81fc371" y="13.4563428218"/>
      </g>
     </g>
    </g>
    <g id="xtick_6">
     <g id="line2d_49">
      <g>
       <use style="stroke:#000000;stroke-width:0.5;" x="262.12437635" xlink:href="#mbc83dd6908" y="359.056342822"/>
      </g>
     </g>
     <g id="line2d_50">
      <g>
       <use style="stroke:#000000;stroke-width:0.5;" x="262.12437635" xlink:href="#m12f81fc371" y="13.4563428218"/>
      </g>
     </g>
    </g>
    <g id="xtick_7">
     <g id="line2d_51">
      <g>
       <use style="stroke:#000000;stroke-width:0.5;" x="284.187537796" xlink:href="#mbc83dd6908" y="359.056342822"/>
      </g>
     </g>
     <g id="line2d_52">
      <g>
       <use style="stroke:#000000;stroke-width:0.5;" x="284.187537796" xlink:href="#m12f81fc371" y="13.4563428218"/>
      </g>
     </g>
    </g>
    <g id="xtick_8">
     <g id="line2d_53">
      <g>
       <use style="stroke:#000000;stroke-width:0.5;" x="302.841675002" xlink:href="#mbc83dd6908" y="359.056342822"/>
      </g>
     </g>
     <g id="line2d_54">
      <g>
       <use style="stroke:#000000;stroke-width:0.5;" x="302.841675002" xlink:href="#m12f81fc371" y="13.4563428218"/>
      </g>
     </g>
    </g>
    <g id="xtick_9">
     <g id="line2d_55">
      <g>
       <use style="stroke:#000000;stroke-width:0.5;" x="319.00062365" xlink:href="#mbc83dd6908" y="359.056342822"/>
      </g>
     </g>
     <g id="line2d_56">
      <g>
       <use style="stroke:#000000;stroke-width:0.5;" x="319.00062365" xlink:href="#m12f81fc371" y="13.4563428218"/>
      </g>
     </g>
    </g>
    <g id="xtick_10">
     <g id="line2d_57">
      <g>
       <use style="stroke:#000000;stroke-width:0.5;" x="333.253826492" xlink:href="#mbc83dd6908" y="359.056342822"/>
      </g>
     </g>
     <g id="line2d_58">
      <g>
       <use style="stroke:#000000;stroke-width:0.5;" x="333.253826492" xlink:href="#m12f81fc371" y="13.4563428218"/>
      </g>
     </g>
    </g>
    <g id="xtick_11">
     <g id="line2d_59">
      <g>
       <use style="stroke:#000000;stroke-width:0.5;" x="429.88312545" xlink:href="#mbc83dd6908" y="359.056342822"/>
      </g>
     </g>
     <g id="line2d_60">
      <g>
       <use style="stroke:#000000;stroke-width:0.5;" x="429.88312545" xlink:href="#m12f81fc371" y="13.4563428218"/>
      </g>
     </g>
    </g>
    <g id="xtick_12">
     <g id="line2d_61">
      <g>
       <use style="stroke:#000000;stroke-width:0.5;" x="478.949414146" xlink:href="#mbc83dd6908" y="359.056342822"/>
      </g>
     </g>
     <g id="line2d_62">
      <g>
       <use style="stroke:#000000;stroke-width:0.5;" x="478.949414146" xlink:href="#m12f81fc371" y="13.4563428218"/>
      </g>
     </g>
    </g>
    <g id="xtick_13">
     <g id="line2d_63">
      <g>
       <use style="stroke:#000000;stroke-width:0.5;" x="513.7625" xlink:href="#mbc83dd6908" y="359.056342822"/>
      </g>
     </g>
     <g id="line2d_64">
      <g>
       <use style="stroke:#000000;stroke-width:0.5;" x="513.7625" xlink:href="#m12f81fc371" y="13.4563428218"/>
      </g>
     </g>
    </g>
    <g id="text_3">
     <!-- log10 of FEvals / DIM -->
     <defs>
      <path id="BitstreamVeraSans-Roman-20"/>
      <path d="M 9.8125 72.90625 
L 24.515625 72.90625 
L 43.109375 23.296875 
L 61.8125 72.90625 
L 76.515625 72.90625 
L 76.515625 0 
L 66.890625 0 
L 66.890625 64.015625 
L 48.09375 14.015625 
L 38.1875 14.015625 
L 19.390625 64.015625 
L 19.390625 0 
L 9.8125 0 
z
" id="BitstreamVeraSans-Roman-4d"/>
      <path d="M 30.609375 48.390625 
Q 23.390625 48.390625 19.1875 42.75 
Q 14.984375 37.109375 14.984375 27.296875 
Q 14.984375 17.484375 19.15625 11.84375 
Q 23.34375 6.203125 30.609375 6.203125 
Q 37.796875 6.203125 41.984375 11.859375 
Q 46.1875 17.53125 46.1875 27.296875 
Q 46.1875 37.015625 41.984375 42.703125 
Q 37.796875 48.390625 30.609375 48.390625 
M 30.609375 56 
Q 42.328125 56 49.015625 48.375 
Q 55.71875 40.765625 55.71875 27.296875 
Q 55.71875 13.875 49.015625 6.21875 
Q 42.328125 -1.421875 30.609375 -1.421875 
Q 18.84375 -1.421875 12.171875 6.21875 
Q 5.515625 13.875 5.515625 27.296875 
Q 5.515625 40.765625 12.171875 48.375 
Q 18.84375 56 30.609375 56 
" id="BitstreamVeraSans-Roman-6f"/>
      <path d="M 9.421875 75.984375 
L 18.40625 75.984375 
L 18.40625 0 
L 9.421875 0 
z
" id="BitstreamVeraSans-Roman-6c"/>
      <path d="M 9.8125 72.90625 
L 51.703125 72.90625 
L 51.703125 64.59375 
L 19.671875 64.59375 
L 19.671875 43.109375 
L 48.578125 43.109375 
L 48.578125 34.8125 
L 19.671875 34.8125 
L 19.671875 0 
L 9.8125 0 
z
" id="BitstreamVeraSans-Roman-46"/>
      <path d="M 9.8125 72.90625 
L 55.90625 72.90625 
L 55.90625 64.59375 
L 19.671875 64.59375 
L 19.671875 43.015625 
L 54.390625 43.015625 
L 54.390625 34.71875 
L 19.671875 34.71875 
L 19.671875 8.296875 
L 56.78125 8.296875 
L 56.78125 0 
L 9.8125 0 
z
" id="BitstreamVeraSans-Roman-45"/>
      <path d="M 19.671875 64.796875 
L 19.671875 8.109375 
L 31.59375 8.109375 
Q 46.6875 8.109375 53.6875 14.9375 
Q 60.6875 21.78125 60.6875 36.53125 
Q 60.6875 51.171875 53.6875 57.984375 
Q 46.6875 64.796875 31.59375 64.796875 
z
M 9.8125 72.90625 
L 30.078125 72.90625 
Q 51.265625 72.90625 61.171875 64.09375 
Q 71.09375 55.28125 71.09375 36.53125 
Q 71.09375 17.671875 61.125 8.828125 
Q 51.171875 0 30.078125 0 
L 9.8125 0 
z
" id="BitstreamVeraSans-Roman-44"/>
      <path d="M 25.390625 72.90625 
L 33.6875 72.90625 
L 8.296875 -9.28125 
L 0 -9.28125 
z
" id="BitstreamVeraSans-Roman-2f"/>
      <path d="M 2.984375 54.6875 
L 12.5 54.6875 
L 29.59375 8.796875 
L 46.6875 54.6875 
L 56.203125 54.6875 
L 35.6875 0 
L 23.484375 0 
z
" id="BitstreamVeraSans-Roman-76"/>
      <path d="M 45.40625 27.984375 
Q 45.40625 37.75 41.375 43.109375 
Q 37.359375 48.484375 30.078125 48.484375 
Q 22.859375 48.484375 18.828125 43.109375 
Q 14.796875 37.75 14.796875 27.984375 
Q 14.796875 18.265625 18.828125 12.890625 
Q 22.859375 7.515625 30.078125 7.515625 
Q 37.359375 7.515625 41.375 12.890625 
Q 45.40625 18.265625 45.40625 27.984375 
M 54.390625 6.78125 
Q 54.390625 -7.171875 48.1875 -13.984375 
Q 42 -20.796875 29.203125 -20.796875 
Q 24.46875 -20.796875 20.265625 -20.09375 
Q 16.0625 -19.390625 12.109375 -17.921875 
L 12.109375 -9.1875 
Q 16.0625 -11.328125 19.921875 -12.34375 
Q 23.78125 -13.375 27.78125 -13.375 
Q 36.625 -13.375 41.015625 -8.765625 
Q 45.40625 -4.15625 45.40625 5.171875 
L 45.40625 9.625 
Q 42.625 4.78125 38.28125 2.390625 
Q 33.9375 0 27.875 0 
Q 17.828125 0 11.671875 7.65625 
Q 5.515625 15.328125 5.515625 27.984375 
Q 5.515625 40.671875 11.671875 48.328125 
Q 17.828125 56 27.875 56 
Q 33.9375 56 38.28125 53.609375 
Q 42.625 51.21875 45.40625 46.390625 
L 45.40625 54.6875 
L 54.390625 54.6875 
z
" id="BitstreamVeraSans-Roman-67"/>
      <path d="M 37.109375 75.984375 
L 37.109375 68.5 
L 28.515625 68.5 
Q 23.6875 68.5 21.796875 66.546875 
Q 19.921875 64.59375 19.921875 59.515625 
L 19.921875 54.6875 
L 34.71875 54.6875 
L 34.71875 47.703125 
L 19.921875 47.703125 
L 19.921875 0 
L 10.890625 0 
L 10.890625 47.703125 
L 2.296875 47.703125 
L 2.296875 54.6875 
L 10.890625 54.6875 
L 10.890625 58.5 
Q 10.890625 67.625 15.140625 71.796875 
Q 19.390625 75.984375 28.609375 75.984375 
z
" id="BitstreamVeraSans-Roman-66"/>
      <path d="M 34.28125 27.484375 
Q 23.390625 27.484375 19.1875 25 
Q 14.984375 22.515625 14.984375 16.5 
Q 14.984375 11.71875 18.140625 8.90625 
Q 21.296875 6.109375 26.703125 6.109375 
Q 34.1875 6.109375 38.703125 11.40625 
Q 43.21875 16.703125 43.21875 25.484375 
L 43.21875 27.484375 
z
M 52.203125 31.203125 
L 52.203125 0 
L 43.21875 0 
L 43.21875 8.296875 
Q 40.140625 3.328125 35.546875 0.953125 
Q 30.953125 -1.421875 24.3125 -1.421875 
Q 15.921875 -1.421875 10.953125 3.296875 
Q 6 8.015625 6 15.921875 
Q 6 25.140625 12.171875 29.828125 
Q 18.359375 34.515625 30.609375 34.515625 
L 43.21875 34.515625 
L 43.21875 35.40625 
Q 43.21875 41.609375 39.140625 45 
Q 35.0625 48.390625 27.6875 48.390625 
Q 23 48.390625 18.546875 47.265625 
Q 14.109375 46.140625 10.015625 43.890625 
L 10.015625 52.203125 
Q 14.9375 54.109375 19.578125 55.046875 
Q 24.21875 56 28.609375 56 
Q 40.484375 56 46.34375 49.84375 
Q 52.203125 43.703125 52.203125 31.203125 
" id="BitstreamVeraSans-Roman-61"/>
      <path d="M 44.28125 53.078125 
L 44.28125 44.578125 
Q 40.484375 46.53125 36.375 47.5 
Q 32.28125 48.484375 27.875 48.484375 
Q 21.1875 48.484375 17.84375 46.4375 
Q 14.5 44.390625 14.5 40.28125 
Q 14.5 37.15625 16.890625 35.375 
Q 19.28125 33.59375 26.515625 31.984375 
L 29.59375 31.296875 
Q 39.15625 29.25 43.1875 25.515625 
Q 47.21875 21.78125 47.21875 15.09375 
Q 47.21875 7.46875 41.1875 3.015625 
Q 35.15625 -1.421875 24.609375 -1.421875 
Q 20.21875 -1.421875 15.453125 -0.5625 
Q 10.6875 0.296875 5.421875 2 
L 5.421875 11.28125 
Q 10.40625 8.6875 15.234375 7.390625 
Q 20.0625 6.109375 24.8125 6.109375 
Q 31.15625 6.109375 34.5625 8.28125 
Q 37.984375 10.453125 37.984375 14.40625 
Q 37.984375 18.0625 35.515625 20.015625 
Q 33.0625 21.96875 24.703125 23.78125 
L 21.578125 24.515625 
Q 13.234375 26.265625 9.515625 29.90625 
Q 5.8125 33.546875 5.8125 39.890625 
Q 5.8125 47.609375 11.28125 51.796875 
Q 16.75 56 26.8125 56 
Q 31.78125 56 36.171875 55.265625 
Q 40.578125 54.546875 44.28125 53.078125 
" id="BitstreamVeraSans-Roman-73"/>
      <path d="M 9.8125 72.90625 
L 19.671875 72.90625 
L 19.671875 0 
L 9.8125 0 
z
" id="BitstreamVeraSans-Roman-49"/>
     </defs>
     <g transform="translate(185.4890625 402.609467822)scale(0.2 -0.2)">
      <use xlink:href="#BitstreamVeraSans-Roman-6c"/>
      <use x="27.783203125" xlink:href="#BitstreamVeraSans-Roman-6f"/>
      <use x="88.96484375" xlink:href="#BitstreamVeraSans-Roman-67"/>
      <use x="152.44140625" xlink:href="#BitstreamVeraSans-Roman-31"/>
      <use x="216.064453125" xlink:href="#BitstreamVeraSans-Roman-30"/>
      <use x="279.6875" xlink:href="#BitstreamVeraSans-Roman-20"/>
      <use x="311.474609375" xlink:href="#BitstreamVeraSans-Roman-6f"/>
      <use x="372.65625" xlink:href="#BitstreamVeraSans-Roman-66"/>
      <use x="407.861328125" xlink:href="#BitstreamVeraSans-Roman-20"/>
      <use x="439.6484375" xlink:href="#BitstreamVeraSans-Roman-46"/>
      <use x="497.16796875" xlink:href="#BitstreamVeraSans-Roman-45"/>
      <use x="560.3515625" xlink:href="#BitstreamVeraSans-Roman-76"/>
      <use x="619.53125" xlink:href="#BitstreamVeraSans-Roman-61"/>
      <use x="680.810546875" xlink:href="#BitstreamVeraSans-Roman-6c"/>
      <use x="708.59375" xlink:href="#BitstreamVeraSans-Roman-73"/>
      <use x="760.693359375" xlink:href="#BitstreamVeraSans-Roman-20"/>
      <use x="792.48046875" xlink:href="#BitstreamVeraSans-Roman-2f"/>
      <use x="826.171875" xlink:href="#BitstreamVeraSans-Roman-20"/>
      <use x="857.958984375" xlink:href="#BitstreamVeraSans-Roman-44"/>
      <use x="934.9609375" xlink:href="#BitstreamVeraSans-Roman-49"/>
      <use x="964.453125" xlink:href="#BitstreamVeraSans-Roman-4d"/>
     </g>
    </g>
   </g>
   <g id="matplotlib.axis_2">
    <g id="ytick_1">
     <g id="line2d_65">
      <path clip-path="url(#p44466364da)" d="M 67.3625 359.056343 
L 513.7625 359.056343 
" style="fill:none;stroke:#000000;stroke-dasharray:1.000000,3.000000;stroke-dashoffset:0.0;stroke-width:0.5;"/>
     </g>
     <g id="line2d_66">
      <defs>
       <path d="M 0 0 
L 4 0 
" id="m10e3c48951" style="stroke:#000000;stroke-width:0.5;"/>
      </defs>
      <g>
       <use style="stroke:#000000;stroke-width:0.5;" x="67.3625" xlink:href="#m10e3c48951" y="359.056342822"/>
      </g>
     </g>
     <g id="line2d_67">
      <defs>
       <path d="M 0 0 
L -4 0 
" id="m0f55e48a2b" style="stroke:#000000;stroke-width:0.5;"/>
      </defs>
      <g>
       <use style="stroke:#000000;stroke-width:0.5;" x="513.7625" xlink:href="#m0f55e48a2b" y="359.056342822"/>
      </g>
     </g>
     <g id="text_4">
      <!-- 0.0 -->
      <defs>
       <path d="M 10.6875 12.40625 
L 21 12.40625 
L 21 0 
L 10.6875 0 
z
" id="BitstreamVeraSans-Roman-2e"/>
      </defs>
      <g transform="translate(31.55625 364.575092822)scale(0.2 -0.2)">
       <use xlink:href="#BitstreamVeraSans-Roman-30"/>
       <use x="63.623046875" xlink:href="#BitstreamVeraSans-Roman-2e"/>
       <use x="95.41015625" xlink:href="#BitstreamVeraSans-Roman-30"/>
      </g>
     </g>
    </g>
    <g id="ytick_2">
     <g id="line2d_68">
      <path clip-path="url(#p44466364da)" d="M 67.3625 290.620699 
L 513.7625 290.620699 
" style="fill:none;stroke:#000000;stroke-dasharray:1.000000,3.000000;stroke-dashoffset:0.0;stroke-width:0.5;"/>
     </g>
     <g id="line2d_69">
      <g>
       <use style="stroke:#000000;stroke-width:0.5;" x="67.3625" xlink:href="#m10e3c48951" y="290.620699257"/>
      </g>
     </g>
     <g id="line2d_70">
      <g>
       <use style="stroke:#000000;stroke-width:0.5;" x="513.7625" xlink:href="#m0f55e48a2b" y="290.620699257"/>
      </g>
     </g>
     <g id="text_5">
      <!-- 0.2 -->
      <defs>
       <path d="M 19.1875 8.296875 
L 53.609375 8.296875 
L 53.609375 0 
L 7.328125 0 
L 7.328125 8.296875 
Q 12.9375 14.109375 22.625 23.890625 
Q 32.328125 33.6875 34.8125 36.53125 
Q 39.546875 41.84375 41.421875 45.53125 
Q 43.3125 49.21875 43.3125 52.78125 
Q 43.3125 58.59375 39.234375 62.25 
Q 35.15625 65.921875 28.609375 65.921875 
Q 23.96875 65.921875 18.8125 64.3125 
Q 13.671875 62.703125 7.8125 59.421875 
L 7.8125 69.390625 
Q 13.765625 71.78125 18.9375 73 
Q 24.125 74.21875 28.421875 74.21875 
Q 39.75 74.21875 46.484375 68.546875 
Q 53.21875 62.890625 53.21875 53.421875 
Q 53.21875 48.921875 51.53125 44.890625 
Q 49.859375 40.875 45.40625 35.40625 
Q 44.1875 33.984375 37.640625 27.21875 
Q 31.109375 20.453125 19.1875 8.296875 
" id="BitstreamVeraSans-Roman-32"/>
      </defs>
      <g transform="translate(31.55625 296.139449257)scale(0.2 -0.2)">
       <use xlink:href="#BitstreamVeraSans-Roman-30"/>
       <use x="63.623046875" xlink:href="#BitstreamVeraSans-Roman-2e"/>
       <use x="95.41015625" xlink:href="#BitstreamVeraSans-Roman-32"/>
      </g>
     </g>
    </g>
    <g id="ytick_3">
     <g id="line2d_71">
      <path clip-path="url(#p44466364da)" d="M 67.3625 222.185056 
L 513.7625 222.185056 
" style="fill:none;stroke:#000000;stroke-dasharray:1.000000,3.000000;stroke-dashoffset:0.0;stroke-width:0.5;"/>
     </g>
     <g id="line2d_72">
      <g>
       <use style="stroke:#000000;stroke-width:0.5;" x="67.3625" xlink:href="#m10e3c48951" y="222.185055693"/>
      </g>
     </g>
     <g id="line2d_73">
      <g>
       <use style="stroke:#000000;stroke-width:0.5;" x="513.7625" xlink:href="#m0f55e48a2b" y="222.185055693"/>
      </g>
     </g>
     <g id="text_6">
      <!-- 0.4 -->
      <defs>
       <path d="M 37.796875 64.3125 
L 12.890625 25.390625 
L 37.796875 25.390625 
z
M 35.203125 72.90625 
L 47.609375 72.90625 
L 47.609375 25.390625 
L 58.015625 25.390625 
L 58.015625 17.1875 
L 47.609375 17.1875 
L 47.609375 0 
L 37.796875 0 
L 37.796875 17.1875 
L 4.890625 17.1875 
L 4.890625 26.703125 
z
" id="BitstreamVeraSans-Roman-34"/>
      </defs>
      <g transform="translate(31.55625 227.703805693)scale(0.2 -0.2)">
       <use xlink:href="#BitstreamVeraSans-Roman-30"/>
       <use x="63.623046875" xlink:href="#BitstreamVeraSans-Roman-2e"/>
       <use x="95.41015625" xlink:href="#BitstreamVeraSans-Roman-34"/>
      </g>
     </g>
    </g>
    <g id="ytick_4">
     <g id="line2d_74">
      <path clip-path="url(#p44466364da)" d="M 67.3625 153.749412 
L 513.7625 153.749412 
" style="fill:none;stroke:#000000;stroke-dasharray:1.000000,3.000000;stroke-dashoffset:0.0;stroke-width:0.5;"/>
     </g>
     <g id="line2d_75">
      <g>
       <use style="stroke:#000000;stroke-width:0.5;" x="67.3625" xlink:href="#m10e3c48951" y="153.749412129"/>
      </g>
     </g>
     <g id="line2d_76">
      <g>
       <use style="stroke:#000000;stroke-width:0.5;" x="513.7625" xlink:href="#m0f55e48a2b" y="153.749412129"/>
      </g>
     </g>
     <g id="text_7">
      <!-- 0.6 -->
      <defs>
       <path d="M 33.015625 40.375 
Q 26.375 40.375 22.484375 35.828125 
Q 18.609375 31.296875 18.609375 23.390625 
Q 18.609375 15.53125 22.484375 10.953125 
Q 26.375 6.390625 33.015625 6.390625 
Q 39.65625 6.390625 43.53125 10.953125 
Q 47.40625 15.53125 47.40625 23.390625 
Q 47.40625 31.296875 43.53125 35.828125 
Q 39.65625 40.375 33.015625 40.375 
M 52.59375 71.296875 
L 52.59375 62.3125 
Q 48.875 64.0625 45.09375 64.984375 
Q 41.3125 65.921875 37.59375 65.921875 
Q 27.828125 65.921875 22.671875 59.328125 
Q 17.53125 52.734375 16.796875 39.40625 
Q 19.671875 43.65625 24.015625 45.921875 
Q 28.375 48.1875 33.59375 48.1875 
Q 44.578125 48.1875 50.953125 41.515625 
Q 57.328125 34.859375 57.328125 23.390625 
Q 57.328125 12.15625 50.6875 5.359375 
Q 44.046875 -1.421875 33.015625 -1.421875 
Q 20.359375 -1.421875 13.671875 8.265625 
Q 6.984375 17.96875 6.984375 36.375 
Q 6.984375 53.65625 15.1875 63.9375 
Q 23.390625 74.21875 37.203125 74.21875 
Q 40.921875 74.21875 44.703125 73.484375 
Q 48.484375 72.75 52.59375 71.296875 
" id="BitstreamVeraSans-Roman-36"/>
      </defs>
      <g transform="translate(31.55625 159.268162129)scale(0.2 -0.2)">
       <use xlink:href="#BitstreamVeraSans-Roman-30"/>
       <use x="63.623046875" xlink:href="#BitstreamVeraSans-Roman-2e"/>
       <use x="95.41015625" xlink:href="#BitstreamVeraSans-Roman-36"/>
      </g>
     </g>
    </g>
    <g id="ytick_5">
     <g id="line2d_77">
      <path clip-path="url(#p44466364da)" d="M 67.3625 85.313769 
L 513.7625 85.313769 
" style="fill:none;stroke:#000000;stroke-dasharray:1.000000,3.000000;stroke-dashoffset:0.0;stroke-width:0.5;"/>
     </g>
     <g id="line2d_78">
      <g>
       <use style="stroke:#000000;stroke-width:0.5;" x="67.3625" xlink:href="#m10e3c48951" y="85.3137685644"/>
      </g>
     </g>
     <g id="line2d_79">
      <g>
       <use style="stroke:#000000;stroke-width:0.5;" x="513.7625" xlink:href="#m0f55e48a2b" y="85.3137685644"/>
      </g>
     </g>
     <g id="text_8">
      <!-- 0.8 -->
      <defs>
       <path d="M 31.78125 34.625 
Q 24.75 34.625 20.71875 30.859375 
Q 16.703125 27.09375 16.703125 20.515625 
Q 16.703125 13.921875 20.71875 10.15625 
Q 24.75 6.390625 31.78125 6.390625 
Q 38.8125 6.390625 42.859375 10.171875 
Q 46.921875 13.96875 46.921875 20.515625 
Q 46.921875 27.09375 42.890625 30.859375 
Q 38.875 34.625 31.78125 34.625 
M 21.921875 38.8125 
Q 15.578125 40.375 12.03125 44.71875 
Q 8.5 49.078125 8.5 55.328125 
Q 8.5 64.0625 14.71875 69.140625 
Q 20.953125 74.21875 31.78125 74.21875 
Q 42.671875 74.21875 48.875 69.140625 
Q 55.078125 64.0625 55.078125 55.328125 
Q 55.078125 49.078125 51.53125 44.71875 
Q 48 40.375 41.703125 38.8125 
Q 48.828125 37.15625 52.796875 32.3125 
Q 56.78125 27.484375 56.78125 20.515625 
Q 56.78125 9.90625 50.3125 4.234375 
Q 43.84375 -1.421875 31.78125 -1.421875 
Q 19.734375 -1.421875 13.25 4.234375 
Q 6.78125 9.90625 6.78125 20.515625 
Q 6.78125 27.484375 10.78125 32.3125 
Q 14.796875 37.15625 21.921875 38.8125 
M 18.3125 54.390625 
Q 18.3125 48.734375 21.84375 45.5625 
Q 25.390625 42.390625 31.78125 42.390625 
Q 38.140625 42.390625 41.71875 45.5625 
Q 45.3125 48.734375 45.3125 54.390625 
Q 45.3125 60.0625 41.71875 63.234375 
Q 38.140625 66.40625 31.78125 66.40625 
Q 25.390625 66.40625 21.84375 63.234375 
Q 18.3125 60.0625 18.3125 54.390625 
" id="BitstreamVeraSans-Roman-38"/>
      </defs>
      <g transform="translate(31.55625 90.8325185644)scale(0.2 -0.2)">
       <use xlink:href="#BitstreamVeraSans-Roman-30"/>
       <use x="63.623046875" xlink:href="#BitstreamVeraSans-Roman-2e"/>
       <use x="95.41015625" xlink:href="#BitstreamVeraSans-Roman-38"/>
      </g>
     </g>
    </g>
    <g id="ytick_6">
     <g id="line2d_80">
      <path clip-path="url(#p44466364da)" d="M 67.3625 16.878125 
L 513.7625 16.878125 
" style="fill:none;stroke:#000000;stroke-dasharray:1.000000,3.000000;stroke-dashoffset:0.0;stroke-width:0.5;"/>
     </g>
     <g id="line2d_81">
      <g>
       <use style="stroke:#000000;stroke-width:0.5;" x="67.3625" xlink:href="#m10e3c48951" y="16.878125"/>
      </g>
     </g>
     <g id="line2d_82">
      <g>
       <use style="stroke:#000000;stroke-width:0.5;" x="513.7625" xlink:href="#m0f55e48a2b" y="16.878125"/>
      </g>
     </g>
     <g id="text_9">
      <!-- 1.0 -->
      <g transform="translate(31.55625 22.396875)scale(0.2 -0.2)">
       <use xlink:href="#BitstreamVeraSans-Roman-31"/>
       <use x="63.623046875" xlink:href="#BitstreamVeraSans-Roman-2e"/>
       <use x="95.41015625" xlink:href="#BitstreamVeraSans-Roman-30"/>
      </g>
     </g>
    </g>
    <g id="text_10">
     <!-- proportion of trials -->
     <defs>
      <path d="M 54.890625 33.015625 
L 54.890625 0 
L 45.90625 0 
L 45.90625 32.71875 
Q 45.90625 40.484375 42.875 44.328125 
Q 39.84375 48.1875 33.796875 48.1875 
Q 26.515625 48.1875 22.3125 43.546875 
Q 18.109375 38.921875 18.109375 30.90625 
L 18.109375 0 
L 9.078125 0 
L 9.078125 54.6875 
L 18.109375 54.6875 
L 18.109375 46.1875 
Q 21.34375 51.125 25.703125 53.5625 
Q 30.078125 56 35.796875 56 
Q 45.21875 56 50.046875 50.171875 
Q 54.890625 44.34375 54.890625 33.015625 
" id="BitstreamVeraSans-Roman-6e"/>
      <path d="M 9.421875 54.6875 
L 18.40625 54.6875 
L 18.40625 0 
L 9.421875 0 
z
M 9.421875 75.984375 
L 18.40625 75.984375 
L 18.40625 64.59375 
L 9.421875 64.59375 
z
" id="BitstreamVeraSans-Roman-69"/>
      <path d="M 18.3125 70.21875 
L 18.3125 54.6875 
L 36.8125 54.6875 
L 36.8125 47.703125 
L 18.3125 47.703125 
L 18.3125 18.015625 
Q 18.3125 11.328125 20.140625 9.421875 
Q 21.96875 7.515625 27.59375 7.515625 
L 36.8125 7.515625 
L 36.8125 0 
L 27.59375 0 
Q 17.1875 0 13.234375 3.875 
Q 9.28125 7.765625 9.28125 18.015625 
L 9.28125 47.703125 
L 2.6875 47.703125 
L 2.6875 54.6875 
L 9.28125 54.6875 
L 9.28125 70.21875 
z
" id="BitstreamVeraSans-Roman-74"/>
      <path d="M 41.109375 46.296875 
Q 39.59375 47.171875 37.8125 47.578125 
Q 36.03125 48 33.890625 48 
Q 26.265625 48 22.1875 43.046875 
Q 18.109375 38.09375 18.109375 28.8125 
L 18.109375 0 
L 9.078125 0 
L 9.078125 54.6875 
L 18.109375 54.6875 
L 18.109375 46.1875 
Q 20.953125 51.171875 25.484375 53.578125 
Q 30.03125 56 36.53125 56 
Q 37.453125 56 38.578125 55.875 
Q 39.703125 55.765625 41.0625 55.515625 
z
" id="BitstreamVeraSans-Roman-72"/>
      <path d="M 18.109375 8.203125 
L 18.109375 -20.796875 
L 9.078125 -20.796875 
L 9.078125 54.6875 
L 18.109375 54.6875 
L 18.109375 46.390625 
Q 20.953125 51.265625 25.265625 53.625 
Q 29.59375 56 35.59375 56 
Q 45.5625 56 51.78125 48.09375 
Q 58.015625 40.1875 58.015625 27.296875 
Q 58.015625 14.40625 51.78125 6.484375 
Q 45.5625 -1.421875 35.59375 -1.421875 
Q 29.59375 -1.421875 25.265625 0.953125 
Q 20.953125 3.328125 18.109375 8.203125 
M 48.6875 27.296875 
Q 48.6875 37.203125 44.609375 42.84375 
Q 40.53125 48.484375 33.40625 48.484375 
Q 26.265625 48.484375 22.1875 42.84375 
Q 18.109375 37.203125 18.109375 27.296875 
Q 18.109375 17.390625 22.1875 11.75 
Q 26.265625 6.109375 33.40625 6.109375 
Q 40.53125 6.109375 44.609375 11.75 
Q 48.6875 17.390625 48.6875 27.296875 
" id="BitstreamVeraSans-Roman-70"/>
     </defs>
     <g transform="translate(22.396875 279.484467822)rotate(-90.0)scale(0.2 -0.2)">
      <use xlink:href="#BitstreamVeraSans-Roman-70"/>
      <use x="63.4765625" xlink:href="#BitstreamVeraSans-Roman-72"/>
      <use x="104.55859375" xlink:href="#BitstreamVeraSans-Roman-6f"/>
      <use x="165.740234375" xlink:href="#BitstreamVeraSans-Roman-70"/>
      <use x="229.216796875" xlink:href="#BitstreamVeraSans-Roman-6f"/>
      <use x="290.3984375" xlink:href="#BitstreamVeraSans-Roman-72"/>
      <use x="331.51171875" xlink:href="#BitstreamVeraSans-Roman-74"/>
      <use x="370.720703125" xlink:href="#BitstreamVeraSans-Roman-69"/>
      <use x="398.50390625" xlink:href="#BitstreamVeraSans-Roman-6f"/>
      <use x="459.685546875" xlink:href="#BitstreamVeraSans-Roman-6e"/>
      <use x="523.064453125" xlink:href="#BitstreamVeraSans-Roman-20"/>
      <use x="554.8515625" xlink:href="#BitstreamVeraSans-Roman-6f"/>
      <use x="616.033203125" xlink:href="#BitstreamVeraSans-Roman-66"/>
      <use x="651.23828125" xlink:href="#BitstreamVeraSans-Roman-20"/>
      <use x="683.025390625" xlink:href="#BitstreamVeraSans-Roman-74"/>
      <use x="722.234375" xlink:href="#BitstreamVeraSans-Roman-72"/>
      <use x="763.34765625" xlink:href="#BitstreamVeraSans-Roman-69"/>
      <use x="791.130859375" xlink:href="#BitstreamVeraSans-Roman-61"/>
      <use x="852.41015625" xlink:href="#BitstreamVeraSans-Roman-6c"/>
      <use x="880.193359375" xlink:href="#BitstreamVeraSans-Roman-73"/>
     </g>
    </g>
   </g>
   <g id="text_11">
    <!-- {f1-f24}, 20-D -->
    <defs>
     <path d="M 11.71875 12.40625 
L 22.015625 12.40625 
L 22.015625 4 
L 14.015625 -11.625 
L 7.71875 -11.625 
L 11.71875 4 
z
" id="BitstreamVeraSans-Roman-2c"/>
     <path d="M 12.5 -9.28125 
L 15.921875 -9.28125 
Q 22.75 -9.28125 24.828125 -7.171875 
Q 26.90625 -5.078125 26.90625 1.90625 
L 26.90625 14.015625 
Q 26.90625 21.625 29.09375 25.09375 
Q 31.296875 28.5625 36.71875 29.890625 
Q 31.296875 31.109375 29.09375 34.5625 
Q 26.90625 38.03125 26.90625 45.703125 
L 26.90625 57.8125 
Q 26.90625 64.75 24.828125 66.875 
Q 22.75 69 15.921875 69 
L 12.5 69 
L 12.5 75.984375 
L 15.578125 75.984375 
Q 27.734375 75.984375 31.8125 72.390625 
Q 35.890625 68.796875 35.890625 58.015625 
L 35.890625 46.296875 
Q 35.890625 39.015625 38.515625 36.203125 
Q 41.15625 33.40625 48.09375 33.40625 
L 51.125 33.40625 
L 51.125 26.421875 
L 48.09375 26.421875 
Q 41.15625 26.421875 38.515625 23.578125 
Q 35.890625 20.75 35.890625 13.375 
L 35.890625 1.703125 
Q 35.890625 -9.078125 31.8125 -12.6875 
Q 27.734375 -16.3125 15.578125 -16.3125 
L 12.5 -16.3125 
z
" id="BitstreamVeraSans-Roman-7d"/>
     <path d="M 51.125 -9.28125 
L 51.125 -16.3125 
L 48.09375 -16.3125 
Q 35.9375 -16.3125 31.8125 -12.6875 
Q 27.6875 -9.078125 27.6875 1.703125 
L 27.6875 13.375 
Q 27.6875 20.75 25.046875 23.578125 
Q 22.40625 26.421875 15.484375 26.421875 
L 12.5 26.421875 
L 12.5 33.40625 
L 15.484375 33.40625 
Q 22.46875 33.40625 25.078125 36.203125 
Q 27.6875 39.015625 27.6875 46.296875 
L 27.6875 58.015625 
Q 27.6875 68.796875 31.8125 72.390625 
Q 35.9375 75.984375 48.09375 75.984375 
L 51.125 75.984375 
L 51.125 69 
L 47.796875 69 
Q 40.921875 69 38.8125 66.84375 
Q 36.71875 64.703125 36.71875 57.8125 
L 36.71875 45.703125 
Q 36.71875 38.03125 34.5 34.5625 
Q 32.28125 31.109375 26.90625 29.890625 
Q 32.328125 28.5625 34.515625 25.09375 
Q 36.71875 21.625 36.71875 14.015625 
L 36.71875 1.90625 
Q 36.71875 -4.984375 38.8125 -7.125 
Q 40.921875 -9.28125 47.796875 -9.28125 
z
" id="BitstreamVeraSans-Roman-7b"/>
     <path d="M 4.890625 31.390625 
L 31.203125 31.390625 
L 31.203125 23.390625 
L 4.890625 23.390625 
z
" id="BitstreamVeraSans-Roman-2d"/>
    </defs>
    <g transform="translate(217.7125 35.5652178218)scale(0.2 -0.2)">
     <use xlink:href="#BitstreamVeraSans-Roman-7b"/>
     <use x="63.623046875" xlink:href="#BitstreamVeraSans-Roman-66"/>
     <use x="98.828125" xlink:href="#BitstreamVeraSans-Roman-31"/>
     <use x="162.451171875" xlink:href="#BitstreamVeraSans-Roman-2d"/>
     <use x="198.53515625" xlink:href="#BitstreamVeraSans-Roman-66"/>
     <use x="233.740234375" xlink:href="#BitstreamVeraSans-Roman-32"/>
     <use x="297.36328125" xlink:href="#BitstreamVeraSans-Roman-34"/>
     <use x="360.986328125" xlink:href="#BitstreamVeraSans-Roman-7d"/>
     <use x="424.609375" xlink:href="#BitstreamVeraSans-Roman-2c"/>
     <use x="456.396484375" xlink:href="#BitstreamVeraSans-Roman-20"/>
     <use x="488.18359375" xlink:href="#BitstreamVeraSans-Roman-32"/>
     <use x="551.806640625" xlink:href="#BitstreamVeraSans-Roman-30"/>
     <use x="615.4296875" xlink:href="#BitstreamVeraSans-Roman-2d"/>
     <use x="651.513671875" xlink:href="#BitstreamVeraSans-Roman-44"/>
    </g>
   </g>
   <g id="text_12">
    <!-- absolute targets -->
    <defs>
     <path d="M 56.203125 29.59375 
L 56.203125 25.203125 
L 14.890625 25.203125 
Q 15.484375 15.921875 20.484375 11.0625 
Q 25.484375 6.203125 34.421875 6.203125 
Q 39.59375 6.203125 44.453125 7.46875 
Q 49.3125 8.734375 54.109375 11.28125 
L 54.109375 2.78125 
Q 49.265625 0.734375 44.1875 -0.34375 
Q 39.109375 -1.421875 33.890625 -1.421875 
Q 20.796875 -1.421875 13.15625 6.1875 
Q 5.515625 13.8125 5.515625 26.8125 
Q 5.515625 40.234375 12.765625 48.109375 
Q 20.015625 56 32.328125 56 
Q 43.359375 56 49.78125 48.890625 
Q 56.203125 41.796875 56.203125 29.59375 
M 47.21875 32.234375 
Q 47.125 39.59375 43.09375 43.984375 
Q 39.0625 48.390625 32.421875 48.390625 
Q 24.90625 48.390625 20.390625 44.140625 
Q 15.875 39.890625 15.1875 32.171875 
z
" id="BitstreamVeraSans-Roman-65"/>
     <path d="M 8.5 21.578125 
L 8.5 54.6875 
L 17.484375 54.6875 
L 17.484375 21.921875 
Q 17.484375 14.15625 20.5 10.265625 
Q 23.53125 6.390625 29.59375 6.390625 
Q 36.859375 6.390625 41.078125 11.03125 
Q 45.3125 15.671875 45.3125 23.6875 
L 45.3125 54.6875 
L 54.296875 54.6875 
L 54.296875 0 
L 45.3125 0 
L 45.3125 8.40625 
Q 42.046875 3.421875 37.71875 1 
Q 33.40625 -1.421875 27.6875 -1.421875 
Q 18.265625 -1.421875 13.375 4.4375 
Q 8.5 10.296875 8.5 21.578125 
" id="BitstreamVeraSans-Roman-75"/>
     <path d="M 48.6875 27.296875 
Q 48.6875 37.203125 44.609375 42.84375 
Q 40.53125 48.484375 33.40625 48.484375 
Q 26.265625 48.484375 22.1875 42.84375 
Q 18.109375 37.203125 18.109375 27.296875 
Q 18.109375 17.390625 22.1875 11.75 
Q 26.265625 6.109375 33.40625 6.109375 
Q 40.53125 6.109375 44.609375 11.75 
Q 48.6875 17.390625 48.6875 27.296875 
M 18.109375 46.390625 
Q 20.953125 51.265625 25.265625 53.625 
Q 29.59375 56 35.59375 56 
Q 45.5625 56 51.78125 48.09375 
Q 58.015625 40.1875 58.015625 27.296875 
Q 58.015625 14.40625 51.78125 6.484375 
Q 45.5625 -1.421875 35.59375 -1.421875 
Q 29.59375 -1.421875 25.265625 0.953125 
Q 20.953125 3.328125 18.109375 8.203125 
L 18.109375 0 
L 9.078125 0 
L 9.078125 75.984375 
L 18.109375 75.984375 
z
" id="BitstreamVeraSans-Roman-62"/>
    </defs>
    <g transform="translate(67.3625 359.056342822)scale(0.14 -0.14)">
     <use xlink:href="#BitstreamVeraSans-Roman-61"/>
     <use x="61.279296875" xlink:href="#BitstreamVeraSans-Roman-62"/>
     <use x="124.755859375" xlink:href="#BitstreamVeraSans-Roman-73"/>
     <use x="176.85546875" xlink:href="#BitstreamVeraSans-Roman-6f"/>
     <use x="238.037109375" xlink:href="#BitstreamVeraSans-Roman-6c"/>
     <use x="265.8203125" xlink:href="#BitstreamVeraSans-Roman-75"/>
     <use x="329.19921875" xlink:href="#BitstreamVeraSans-Roman-74"/>
     <use x="368.408203125" xlink:href="#BitstreamVeraSans-Roman-65"/>
     <use x="429.931640625" xlink:href="#BitstreamVeraSans-Roman-20"/>
     <use x="461.71875" xlink:href="#BitstreamVeraSans-Roman-74"/>
     <use x="500.927734375" xlink:href="#BitstreamVeraSans-Roman-61"/>
     <use x="562.20703125" xlink:href="#BitstreamVeraSans-Roman-72"/>
     <use x="603.3046875" xlink:href="#BitstreamVeraSans-Roman-67"/>
     <use x="666.78125" xlink:href="#BitstreamVeraSans-Roman-65"/>
     <use x="728.3046875" xlink:href="#BitstreamVeraSans-Roman-74"/>
     <use x="767.513671875" xlink:href="#BitstreamVeraSans-Roman-73"/>
    </g>
   </g>
   <g id="text_13">
    <!-- 0.0.0 -->
    <g style="fill:#808080;" transform="translate(277.840625 353.520655322)scale(0.1 -0.1)">
     <use xlink:href="#BitstreamVeraSans-Roman-30"/>
     <use x="63.623046875" xlink:href="#BitstreamVeraSans-Roman-2e"/>
     <use x="95.41015625" xlink:href="#BitstreamVeraSans-Roman-30"/>
     <use x="159.033203125" xlink:href="#BitstreamVeraSans-Roman-2e"/>
     <use x="190.8203125" xlink:href="#BitstreamVeraSans-Roman-30"/>
    </g>
   </g>
   <g id="legend_1">
    <g id="patch_7">
     <path d="M 353.815625 146.881343 
L 503.7625 146.881343 
L 503.7625 23.456343 
L 353.815625 23.456343 
z
" style="fill:#ffffff;opacity:0.2;stroke:#000000;stroke-linejoin:miter;"/>
    </g>
    <g id="line2d_83">
     <path d="M 367.815625 39.653218 
L 395.815625 39.653218 
" style="fill:none;stroke:#000000;stroke-linecap:square;"/>
    </g>
    <g id="line2d_84"/>
    <g id="text_14">
     <!-- 1: 4/24 -->
     <defs>
      <path d="M 11.71875 12.40625 
L 22.015625 12.40625 
L 22.015625 0 
L 11.71875 0 
z
M 11.71875 51.703125 
L 22.015625 51.703125 
L 22.015625 39.3125 
L 11.71875 39.3125 
z
" id="BitstreamVeraSans-Roman-3a"/>
     </defs>
     <g transform="translate(417.815625 46.6532178218)scale(0.2 -0.2)">
      <use xlink:href="#BitstreamVeraSans-Roman-31"/>
      <use x="63.623046875" xlink:href="#BitstreamVeraSans-Roman-3a"/>
      <use x="97.314453125" xlink:href="#BitstreamVeraSans-Roman-20"/>
      <use x="129.1015625" xlink:href="#BitstreamVeraSans-Roman-34"/>
      <use x="192.724609375" xlink:href="#BitstreamVeraSans-Roman-2f"/>
      <use x="226.416015625" xlink:href="#BitstreamVeraSans-Roman-32"/>
      <use x="290.0390625" xlink:href="#BitstreamVeraSans-Roman-34"/>
     </g>
    </g>
    <g id="line2d_85">
     <path d="M 367.815625 69.009468 
L 395.815625 69.009468 
" style="fill:none;stroke:#00bfbf;stroke-linecap:square;"/>
    </g>
    <g id="line2d_86"/>
    <g id="text_15">
     <!-- -1: 0/24 -->
     <g transform="translate(417.815625 76.0094678218)scale(0.2 -0.2)">
      <use xlink:href="#BitstreamVeraSans-Roman-2d"/>
      <use x="36.083984375" xlink:href="#BitstreamVeraSans-Roman-31"/>
      <use x="99.70703125" xlink:href="#BitstreamVeraSans-Roman-3a"/>
      <use x="133.3984375" xlink:href="#BitstreamVeraSans-Roman-20"/>
      <use x="165.185546875" xlink:href="#BitstreamVeraSans-Roman-30"/>
      <use x="228.80859375" xlink:href="#BitstreamVeraSans-Roman-2f"/>
      <use x="262.5" xlink:href="#BitstreamVeraSans-Roman-32"/>
      <use x="326.123046875" xlink:href="#BitstreamVeraSans-Roman-34"/>
     </g>
    </g>
    <g id="line2d_87">
     <path d="M 367.815625 98.365718 
L 395.815625 98.365718 
" style="fill:none;stroke:#bf00bf;stroke-linecap:square;"/>
    </g>
    <g id="line2d_88"/>
    <g id="text_16">
     <!-- -4: 0/24 -->
     <g transform="translate(417.815625 105.365717822)scale(0.2 -0.2)">
      <use xlink:href="#BitstreamVeraSans-Roman-2d"/>
      <use x="36.083984375" xlink:href="#BitstreamVeraSans-Roman-34"/>
      <use x="99.70703125" xlink:href="#BitstreamVeraSans-Roman-3a"/>
      <use x="133.3984375" xlink:href="#BitstreamVeraSans-Roman-20"/>
      <use x="165.185546875" xlink:href="#BitstreamVeraSans-Roman-30"/>
      <use x="228.80859375" xlink:href="#BitstreamVeraSans-Roman-2f"/>
      <use x="262.5" xlink:href="#BitstreamVeraSans-Roman-32"/>
      <use x="326.123046875" xlink:href="#BitstreamVeraSans-Roman-34"/>
     </g>
    </g>
    <g id="line2d_89">
     <path d="M 367.815625 127.721968 
L 395.815625 127.721968 
" style="fill:none;stroke:#ff0000;stroke-linecap:square;stroke-width:3.0;"/>
    </g>
    <g id="line2d_90"/>
    <g id="text_17">
     <!-- -8: 0/24 -->
     <g transform="translate(417.815625 134.721967822)scale(0.2 -0.2)">
      <use xlink:href="#BitstreamVeraSans-Roman-2d"/>
      <use x="36.083984375" xlink:href="#BitstreamVeraSans-Roman-38"/>
      <use x="99.70703125" xlink:href="#BitstreamVeraSans-Roman-3a"/>
      <use x="133.3984375" xlink:href="#BitstreamVeraSans-Roman-20"/>
      <use x="165.185546875" xlink:href="#BitstreamVeraSans-Roman-30"/>
      <use x="228.80859375" xlink:href="#BitstreamVeraSans-Roman-2f"/>
      <use x="262.5" xlink:href="#BitstreamVeraSans-Roman-32"/>
      <use x="326.123046875" xlink:href="#BitstreamVeraSans-Roman-34"/>
     </g>
    </g>
   </g>
  </g>
 </g>
 <defs>
  <clipPath id="p44466364da">
   <rect height="345.6" width="446.4" x="67.3625" y="13.4563428218"/>
  </clipPath>
 </defs>
</svg>
