<?xml version="1.0" encoding="utf-8" standalone="no"?>
<!DOCTYPE svg PUBLIC "-//W3C//DTD SVG 1.1//EN"
  "http://www.w3.org/Graphics/SVG/1.1/DTD/svg11.dtd">
<!-- Created with matplotlib (http://matplotlib.org/) -->
<svg height="407pt" version="1.1" viewBox="0 0 460 407" width="460pt" xmlns="http://www.w3.org/2000/svg" xmlns:xlink="http://www.w3.org/1999/xlink">
 <defs>
  <style type="text/css">
*{stroke-linecap:butt;stroke-linejoin:round;stroke-miterlimit:100000;}
  </style>
 </defs>
 <g id="figure_1">
  <g id="patch_1">
   <path d="M 0 407.7125 
L 460.8 407.7125 
L 460.8 0 
L 0 0 
z
" style="fill:#ffffff;"/>
  </g>
  <g id="axes_1">
   <g id="patch_2">
    <path d="M 7.2 352.8 
L 453.6 352.8 
L 453.6 7.2 
L 7.2 7.2 
z
" style="fill:#ffffff;"/>
   </g>
   <g id="line2d_1">
    <path clip-path="url(#p2be0864c1e)" d="M 186.060924 352.8 
L 186.060924 347.09703 
L 197.636931 347.09703 
L 197.636931 341.394059 
L 204.050738 341.394059 
L 204.050738 335.691089 
L 206.19837 335.691089 
L 206.19837 329.988119 
L 206.757935 329.988119 
L 206.757935 324.285149 
L 207.951358 324.285149 
L 207.951358 318.582178 
L 208.509997 318.582178 
L 208.509997 312.879208 
L 212.363154 312.879208 
L 212.363154 307.176238 
L 212.62546 307.176238 
L 212.62546 301.473267 
L 213.368584 301.473267 
L 213.368584 295.770297 
L 213.596435 295.770297 
L 213.596435 290.067327 
L 213.630273 290.067327 
L 213.630273 284.364356 
L 214.2257 284.364356 
L 214.2257 278.661386 
L 214.36004 278.661386 
L 214.36004 272.958416 
L 214.782174 272.958416 
L 214.782174 267.255446 
L 214.816836 267.255446 
L 214.816836 261.552475 
L 216.103837 261.552475 
L 216.103837 255.849505 
L 216.820603 255.849505 
L 216.820603 250.146535 
L 216.935643 250.146535 
L 216.935643 244.443564 
L 217.414588 244.443564 
L 217.414588 238.740594 
L 218.228381 238.740594 
L 218.228381 233.037624 
L 220.040932 233.037624 
L 220.040932 227.334653 
L 220.121911 227.334653 
L 220.121911 221.631683 
L 220.242369 221.631683 
L 220.242369 215.928713 
L 220.412012 215.928713 
L 220.412012 210.225743 
L 220.754097 210.225743 
L 220.754097 204.522772 
L 220.905707 204.522772 
L 220.905707 198.819802 
L 221.260959 198.819802 
L 221.260959 193.116832 
L 221.367324 193.116832 
L 221.367324 187.413861 
L 224.070881 187.413861 
L 224.070881 181.710891 
L 224.165253 181.710891 
L 224.165253 176.007921 
L 224.175328 176.007921 
L 224.175328 170.30495 
L 224.310904 170.30495 
L 224.310904 164.60198 
L 224.33501 164.60198 
L 224.33501 158.89901 
L 224.372691 158.89901 
L 224.372691 153.19604 
L 224.402139 153.19604 
L 224.402139 147.493069 
L 224.410892 147.493069 
L 224.410892 141.790099 
L 224.417612 141.790099 
L 224.417612 136.087129 
L 224.600225 136.087129 
L 224.600225 130.384158 
L 224.609583 130.384158 
L 224.609583 124.681188 
L 224.65474 124.681188 
L 224.65474 118.978218 
L 224.672455 118.978218 
L 224.672455 113.275248 
L 224.697513 113.275248 
L 224.697513 107.572277 
L 224.753466 107.572277 
L 224.753466 101.869307 
L 224.762551 101.869307 
L 224.762551 96.166337 
L 224.773903 96.166337 
L 224.773903 90.463366 
L 224.801917 90.463366 
L 224.801917 84.760396 
L 224.883508 84.760396 
L 224.883508 79.057426 
L 224.914327 79.057426 
L 224.914327 73.354455 
L 224.978213 73.354455 
L 224.978213 67.651485 
L 225.108555 67.651485 
L 225.108555 61.948515 
L 225.119485 61.948515 
L 225.119485 56.245545 
L 225.125043 56.245545 
L 225.125043 50.542574 
L 225.375856 50.542574 
L 225.375856 44.839604 
L 225.392818 44.839604 
L 225.392818 39.136634 
L 226.577756 39.136634 
L 226.577756 33.433663 
L 239.754666 33.433663 
L 239.754666 27.730693 
L 239.97062 27.730693 
L 239.97062 22.027723 
L 240.041606 22.027723 
L 240.041606 16.324752 
L 241.143689 16.324752 
L 241.143689 10.621782 
L 241.143689 10.621782 
L 241.143689 10.621782 
L 453.6 10.621782 
" style="fill:none;stroke:#ff0000;stroke-linecap:square;stroke-width:3.0;"/>
   </g>
   <g id="line2d_2">
    <path clip-path="url(#p2be0864c1e)" d="M 266.446234 352.8 
L 266.446234 347.09703 
L 266.998807 347.09703 
L 266.998807 341.394059 
L 268.343294 341.394059 
L 268.343294 335.691089 
L 270.15484 335.691089 
L 270.15484 329.988119 
L 271.766157 329.988119 
L 271.766157 324.285149 
L 272.30664 324.285149 
L 272.30664 318.582178 
L 272.335104 318.582178 
L 272.335104 312.879208 
L 272.61813 312.879208 
L 272.61813 307.176238 
L 273.106184 307.176238 
L 273.106184 301.473267 
L 273.165038 301.473267 
L 273.165038 295.770297 
L 273.365311 295.770297 
L 273.365311 290.067327 
L 275.753062 290.067327 
L 275.753062 284.364356 
L 278.51163 284.364356 
L 278.51163 278.661386 
L 279.71185 278.661386 
L 279.71185 272.958416 
L 281.344463 272.958416 
L 281.344463 267.255446 
L 304.075542 267.255446 
L 304.075542 261.552475 
L 322.004962 261.552475 
L 322.004962 255.849505 
L 322.832711 255.849505 
L 322.832711 250.146535 
L 323.447038 250.146535 
L 323.447038 244.443564 
L 325.051343 244.443564 
L 325.051343 238.740594 
L 325.514075 238.740594 
L 325.514075 233.037624 
L 326.156333 233.037624 
L 326.156333 227.334653 
L 327.135387 227.334653 
L 327.135387 221.631683 
L 327.459927 221.631683 
L 327.459927 215.928713 
L 327.768303 215.928713 
L 327.768303 210.225743 
L 328.09079 210.225743 
L 328.09079 204.522772 
L 328.131165 204.522772 
L 328.131165 198.819802 
L 328.879766 198.819802 
L 328.879766 193.116832 
L 329.405086 193.116832 
L 329.405086 187.413861 
L 329.476873 187.413861 
L 329.476873 181.710891 
L 329.661218 181.710891 
L 329.661218 176.007921 
L 330.096399 176.007921 
L 330.096399 170.30495 
L 330.183588 170.30495 
L 330.183588 164.60198 
L 330.408798 164.60198 
L 330.408798 158.89901 
L 330.571401 158.89901 
L 330.571401 153.19604 
L 330.702474 153.19604 
L 330.702474 147.493069 
L 330.951598 147.493069 
L 330.951598 141.790099 
L 330.966151 141.790099 
L 330.966151 136.087129 
L 331.713177 136.087129 
L 331.713177 130.384158 
L 331.898653 130.384158 
L 331.898653 124.681188 
L 332.141692 124.681188 
L 332.141692 118.978218 
L 332.670995 118.978218 
L 332.670995 113.275248 
L 333.021634 113.275248 
L 333.021634 107.572277 
L 333.062674 107.572277 
L 333.062674 101.869307 
L 333.640792 101.869307 
L 333.640792 96.166337 
L 333.789608 96.166337 
L 333.789608 90.463366 
L 334.682813 90.463366 
L 334.682813 84.760396 
L 336.710724 84.760396 
L 336.710724 79.057426 
L 336.905542 79.057426 
L 336.905542 73.354455 
L 336.918941 73.354455 
L 336.918941 67.651485 
L 337.304703 67.651485 
L 337.304703 61.948515 
L 337.843581 61.948515 
L 337.843581 56.245545 
L 338.001869 56.245545 
L 338.001869 50.542574 
L 338.472839 50.542574 
L 338.472839 44.839604 
L 339.156006 44.839604 
L 339.156006 39.136634 
L 339.446576 39.136634 
L 339.446576 33.433663 
L 340.39037 33.433663 
L 340.39037 27.730693 
L 340.615796 27.730693 
L 340.615796 22.027723 
L 341.029333 22.027723 
L 341.029333 16.324752 
L 342.960754 16.324752 
L 342.960754 10.621782 
L 342.960754 10.621782 
L 342.960754 10.621782 
L 453.6 10.621782 
" style="fill:none;stroke:#00bfbf;stroke-linecap:square;"/>
   </g>
   <g id="line2d_3">
    <path clip-path="url(#p2be0864c1e)" d="M 263.648785 352.8 
L 263.648785 347.09703 
L 263.785026 347.09703 
L 263.785026 341.394059 
L 265.45476 341.394059 
L 265.45476 335.691089 
L 266.998807 335.691089 
L 266.998807 329.988119 
L 268.343294 329.988119 
L 268.343294 324.285149 
L 270.033657 324.285149 
L 270.033657 318.582178 
L 270.597089 318.582178 
L 270.597089 312.879208 
L 270.917129 312.879208 
L 270.917129 307.176238 
L 271.103518 307.176238 
L 271.103518 301.473267 
L 271.766157 301.473267 
L 271.766157 295.770297 
L 272.335104 295.770297 
L 272.335104 290.067327 
L 273.365311 290.067327 
L 273.365311 284.364356 
L 273.923007 284.364356 
L 273.923007 278.661386 
L 275.324395 278.661386 
L 275.324395 272.958416 
L 276.572449 272.958416 
L 276.572449 267.255446 
L 304.075542 267.255446 
L 304.075542 261.552475 
L 317.98501 261.552475 
L 317.98501 255.849505 
L 318.592362 255.849505 
L 318.592362 250.146535 
L 318.833043 250.146535 
L 318.833043 244.443564 
L 322.004962 244.443564 
L 322.004962 238.740594 
L 322.44171 238.740594 
L 322.44171 233.037624 
L 322.832711 233.037624 
L 322.832711 227.334653 
L 325.036991 227.334653 
L 325.036991 221.631683 
L 325.282346 221.631683 
L 325.282346 215.928713 
L 325.332991 215.928713 
L 325.332991 210.225743 
L 325.514075 210.225743 
L 325.514075 204.522772 
L 325.554868 204.522772 
L 325.554868 198.819802 
L 325.840944 198.819802 
L 325.840944 193.116832 
L 326.110051 193.116832 
L 326.110051 187.413861 
L 326.125336 187.413861 
L 326.125336 181.710891 
L 326.942306 181.710891 
L 326.942306 176.007921 
L 327.085081 176.007921 
L 327.085081 170.30495 
L 327.372926 170.30495 
L 327.372926 164.60198 
L 327.693102 164.60198 
L 327.693102 158.89901 
L 327.796323 158.89901 
L 327.796323 153.19604 
L 328.131165 153.19604 
L 328.131165 147.493069 
L 328.248953 147.493069 
L 328.248953 141.790099 
L 328.321107 141.790099 
L 328.321107 136.087129 
L 328.879766 136.087129 
L 328.879766 130.384158 
L 329.14195 130.384158 
L 329.14195 124.681188 
L 329.354735 124.681188 
L 329.354735 118.978218 
L 329.476873 118.978218 
L 329.476873 113.275248 
L 330.107415 113.275248 
L 330.107415 107.572277 
L 330.183588 107.572277 
L 330.183588 101.869307 
L 330.526886 101.869307 
L 330.526886 96.166337 
L 330.532734 96.166337 
L 330.532734 90.463366 
L 331.473362 90.463366 
L 331.473362 84.760396 
L 331.898653 84.760396 
L 331.898653 79.057426 
L 332.141692 79.057426 
L 332.141692 73.354455 
L 332.212557 73.354455 
L 332.212557 67.651485 
L 334.207004 67.651485 
L 334.207004 61.948515 
L 335.944205 61.948515 
L 335.944205 56.245545 
L 336.249093 56.245545 
L 336.249093 50.542574 
L 336.554328 50.542574 
L 336.554328 44.839604 
L 336.6415 44.839604 
L 336.6415 39.136634 
L 336.854775 39.136634 
L 336.854775 33.433663 
L 337.843581 33.433663 
L 337.843581 27.730693 
L 339.094516 27.730693 
L 339.094516 22.027723 
L 340.484121 22.027723 
L 340.484121 16.324752 
L 341.029333 16.324752 
L 341.029333 10.621782 
L 341.029333 10.621782 
L 341.029333 10.621782 
L 453.6 10.621782 
" style="fill:none;stroke:#bf00bf;stroke-linecap:square;"/>
   </g>
   <g id="line2d_4">
    <path clip-path="url(#p2be0864c1e)" d="M 262.87701 352.8 
L 262.87701 347.09703 
L 262.957537 347.09703 
L 262.957537 341.394059 
L 263.648785 341.394059 
L 263.648785 335.691089 
L 264.438535 335.691089 
L 264.438535 329.988119 
L 265.178811 329.988119 
L 265.178811 324.285149 
L 266.998807 324.285149 
L 266.998807 318.582178 
L 268.195035 318.582178 
L 268.195035 312.879208 
L 268.343294 312.879208 
L 268.343294 307.176238 
L 268.915462 307.176238 
L 268.915462 301.473267 
L 269.979393 301.473267 
L 269.979393 295.770297 
L 270.033657 295.770297 
L 270.033657 290.067327 
L 270.56346 290.067327 
L 270.56346 284.364356 
L 270.755519 284.364356 
L 270.755519 278.661386 
L 270.917129 278.661386 
L 270.917129 272.958416 
L 273.107374 272.958416 
L 273.107374 267.255446 
L 304.075542 267.255446 
L 304.075542 261.552475 
L 311.789523 261.552475 
L 311.789523 255.849505 
L 315.399796 255.849505 
L 315.399796 250.146535 
L 316.821884 250.146535 
L 316.821884 244.443564 
L 316.869437 244.443564 
L 316.869437 238.740594 
L 317.095528 238.740594 
L 317.095528 233.037624 
L 318.833043 233.037624 
L 318.833043 227.334653 
L 319.011596 227.334653 
L 319.011596 221.631683 
L 321.818781 221.631683 
L 321.818781 215.928713 
L 322.492016 215.928713 
L 322.492016 210.225743 
L 322.763015 210.225743 
L 322.763015 204.522772 
L 322.832711 204.522772 
L 322.832711 198.819802 
L 322.907485 198.819802 
L 322.907485 193.116832 
L 323.783076 193.116832 
L 323.783076 187.413861 
L 324.817546 187.413861 
L 324.817546 181.710891 
L 324.81867 181.710891 
L 324.81867 176.007921 
L 325.036991 176.007921 
L 325.036991 170.30495 
L 325.282346 170.30495 
L 325.282346 164.60198 
L 325.332991 164.60198 
L 325.332991 158.89901 
L 325.514075 158.89901 
L 325.514075 153.19604 
L 325.840944 153.19604 
L 325.840944 147.493069 
L 325.931172 147.493069 
L 325.931172 141.790099 
L 326.248124 141.790099 
L 326.248124 136.087129 
L 327.457249 136.087129 
L 327.457249 130.384158 
L 327.458568 130.384158 
L 327.458568 124.681188 
L 327.796323 124.681188 
L 327.796323 118.978218 
L 327.821816 118.978218 
L 327.821816 113.275248 
L 328.321107 113.275248 
L 328.321107 107.572277 
L 329.387644 107.572277 
L 329.387644 101.869307 
L 329.476873 101.869307 
L 329.476873 96.166337 
L 330.107415 96.166337 
L 330.107415 90.463366 
L 330.183588 90.463366 
L 330.183588 84.760396 
L 330.526886 84.760396 
L 330.526886 79.057426 
L 330.532734 79.057426 
L 330.532734 73.354455 
L 331.898653 73.354455 
L 331.898653 67.651485 
L 332.141692 67.651485 
L 332.141692 61.948515 
L 332.212557 61.948515 
L 332.212557 56.245545 
L 333.277867 56.245545 
L 333.277867 50.542574 
L 333.300247 50.542574 
L 333.300247 44.839604 
L 333.755499 44.839604 
L 333.755499 39.136634 
L 334.984483 39.136634 
L 334.984483 33.433663 
L 335.483294 33.433663 
L 335.483294 27.730693 
L 336.554328 27.730693 
L 336.554328 22.027723 
L 336.958855 22.027723 
L 336.958855 16.324752 
L 339.039604 16.324752 
L 339.039604 10.621782 
L 339.039604 10.621782 
L 339.039604 10.621782 
L 453.6 10.621782 
" style="fill:none;stroke:#000000;stroke-linecap:square;"/>
   </g>
   <g id="line2d_5">
    <path clip-path="url(#p2be0864c1e)" d="M 251.432685 352.8 
L 251.432685 347.09703 
L 258.115372 347.09703 
L 258.115372 341.394059 
L 260.055432 341.394059 
L 260.055432 335.691089 
L 260.364352 335.691089 
L 260.364352 329.988119 
L 260.963749 329.988119 
L 260.963749 324.285149 
L 262.133528 324.285149 
L 262.133528 318.582178 
L 263.654789 318.582178 
L 263.654789 312.879208 
L 263.856997 312.879208 
L 263.856997 307.176238 
L 264.397379 307.176238 
L 264.397379 301.473267 
L 264.417701 301.473267 
L 264.417701 295.770297 
L 264.438535 295.770297 
L 264.438535 290.067327 
L 264.560192 290.067327 
L 264.560192 284.364356 
L 265.734113 284.364356 
L 265.734113 278.661386 
L 267.610029 278.661386 
L 267.610029 272.958416 
L 267.945643 272.958416 
L 267.945643 267.255446 
L 304.075542 267.255446 
L 304.075542 261.552475 
L 304.682353 261.552475 
L 304.682353 255.849505 
L 305.614193 255.849505 
L 305.614193 250.146535 
L 306.262467 250.146535 
L 306.262467 244.443564 
L 308.14796 244.443564 
L 308.14796 238.740594 
L 310.7604 238.740594 
L 310.7604 233.037624 
L 311.789523 233.037624 
L 311.789523 227.334653 
L 312.473361 227.334653 
L 312.473361 221.631683 
L 314.017401 221.631683 
L 314.017401 215.928713 
L 314.569448 215.928713 
L 314.569448 210.225743 
L 314.917815 210.225743 
L 314.917815 204.522772 
L 314.938404 204.522772 
L 314.938404 198.819802 
L 315.915956 198.819802 
L 315.915956 193.116832 
L 317.055279 193.116832 
L 317.055279 187.413861 
L 318.056788 187.413861 
L 318.056788 181.710891 
L 318.123393 181.710891 
L 318.123393 176.007921 
L 318.181974 176.007921 
L 318.181974 170.30495 
L 318.246221 170.30495 
L 318.246221 164.60198 
L 319.383636 164.60198 
L 319.383636 158.89901 
L 320.190275 158.89901 
L 320.190275 153.19604 
L 320.365124 153.19604 
L 320.365124 147.493069 
L 320.504024 147.493069 
L 320.504024 141.790099 
L 320.663612 141.790099 
L 320.663612 136.087129 
L 320.76276 136.087129 
L 320.76276 130.384158 
L 320.816437 130.384158 
L 320.816437 124.681188 
L 320.84257 124.681188 
L 320.84257 118.978218 
L 321.503194 118.978218 
L 321.503194 113.275248 
L 322.074332 113.275248 
L 322.074332 107.572277 
L 322.166813 107.572277 
L 322.166813 101.869307 
L 322.388558 101.869307 
L 322.388558 96.166337 
L 322.890279 96.166337 
L 322.890279 90.463366 
L 323.153636 90.463366 
L 323.153636 84.760396 
L 323.281916 84.760396 
L 323.281916 79.057426 
L 323.951615 79.057426 
L 323.951615 73.354455 
L 324.2089 73.354455 
L 324.2089 67.651485 
L 324.52187 67.651485 
L 324.52187 61.948515 
L 324.633889 61.948515 
L 324.633889 56.245545 
L 327.796323 56.245545 
L 327.796323 50.542574 
L 328.218421 50.542574 
L 328.218421 44.839604 
L 328.245822 44.839604 
L 328.245822 39.136634 
L 328.788216 39.136634 
L 328.788216 33.433663 
L 330.233181 33.433663 
L 330.233181 27.730693 
L 330.630184 27.730693 
L 330.630184 22.027723 
L 330.632505 22.027723 
L 330.632505 16.324752 
L 334.215317 16.324752 
L 334.215317 10.621782 
L 334.215317 10.621782 
L 334.215317 10.621782 
L 453.6 10.621782 
" style="fill:none;stroke:#00bfbf;stroke-linecap:square;"/>
   </g>
   <g id="line2d_6">
    <path clip-path="url(#p2be0864c1e)" d="M 227.759858 352.8 
L 227.759858 347.09703 
L 236.650553 347.09703 
L 236.650553 341.394059 
L 236.77922 341.394059 
L 236.77922 335.691089 
L 237.97738 335.691089 
L 237.97738 329.988119 
L 238.248449 329.988119 
L 238.248449 324.285149 
L 238.9066 324.285149 
L 238.9066 318.582178 
L 239.029341 318.582178 
L 239.029341 312.879208 
L 239.567478 312.879208 
L 239.567478 307.176238 
L 240.792613 307.176238 
L 240.792613 301.473267 
L 240.974166 301.473267 
L 240.974166 295.770297 
L 241.276851 295.770297 
L 241.276851 290.067327 
L 241.595429 290.067327 
L 241.595429 284.364356 
L 242.806908 284.364356 
L 242.806908 278.661386 
L 243.456941 278.661386 
L 243.456941 272.958416 
L 244.832236 272.958416 
L 244.832236 267.255446 
L 245.544521 267.255446 
L 245.544521 261.552475 
L 249.930372 261.552475 
L 249.930372 255.849505 
L 249.948389 255.849505 
L 249.948389 250.146535 
L 250.205776 250.146535 
L 250.205776 244.443564 
L 250.57078 244.443564 
L 250.57078 238.740594 
L 251.500549 238.740594 
L 251.500549 233.037624 
L 252.059224 233.037624 
L 252.059224 227.334653 
L 252.182041 227.334653 
L 252.182041 221.631683 
L 252.255753 221.631683 
L 252.255753 215.928713 
L 253.837157 215.928713 
L 253.837157 210.225743 
L 254.0196 210.225743 
L 254.0196 204.522772 
L 254.218108 204.522772 
L 254.218108 198.819802 
L 254.467897 198.819802 
L 254.467897 193.116832 
L 254.954545 193.116832 
L 254.954545 187.413861 
L 255.197188 187.413861 
L 255.197188 181.710891 
L 255.383536 181.710891 
L 255.383536 176.007921 
L 255.386495 176.007921 
L 255.386495 170.30495 
L 255.612591 170.30495 
L 255.612591 164.60198 
L 256.079889 164.60198 
L 256.079889 158.89901 
L 256.184919 158.89901 
L 256.184919 153.19604 
L 256.929134 153.19604 
L 256.929134 147.493069 
L 257.026508 147.493069 
L 257.026508 141.790099 
L 257.112835 141.790099 
L 257.112835 136.087129 
L 257.188035 136.087129 
L 257.188035 130.384158 
L 258.744304 130.384158 
L 258.744304 124.681188 
L 258.936777 124.681188 
L 258.936777 118.978218 
L 259.190852 118.978218 
L 259.190852 113.275248 
L 259.195868 113.275248 
L 259.195868 107.572277 
L 259.757164 107.572277 
L 259.757164 101.869307 
L 260.451872 101.869307 
L 260.451872 96.166337 
L 260.513367 96.166337 
L 260.513367 90.463366 
L 260.56677 90.463366 
L 260.56677 84.760396 
L 260.731522 84.760396 
L 260.731522 79.057426 
L 260.833705 79.057426 
L 260.833705 73.354455 
L 260.839155 73.354455 
L 260.839155 67.651485 
L 260.884979 67.651485 
L 260.884979 61.948515 
L 261.226234 61.948515 
L 261.226234 56.245545 
L 263.713384 56.245545 
L 263.713384 50.542574 
L 264.27169 50.542574 
L 264.27169 44.839604 
L 265.627846 44.839604 
L 265.627846 39.136634 
L 268.1719 39.136634 
L 268.1719 33.433663 
L 270.158282 33.433663 
L 270.158282 27.730693 
L 270.565668 27.730693 
L 270.565668 22.027723 
L 273.446501 22.027723 
L 273.446501 16.324752 
L 274.42553 16.324752 
L 274.42553 10.621782 
L 274.42553 10.621782 
L 274.42553 10.621782 
L 453.6 10.621782 
" style="fill:none;stroke:#bf00bf;stroke-linecap:square;"/>
   </g>
   <g id="patch_3">
    <path d="M 7.2 7.2 
L 453.6 7.2 
" style="fill:none;stroke:#000000;stroke-linecap:square;stroke-linejoin:miter;"/>
   </g>
   <g id="patch_4">
    <path d="M 453.6 352.8 
L 453.6 7.2 
" style="fill:none;stroke:#000000;stroke-linecap:square;stroke-linejoin:miter;"/>
   </g>
   <g id="patch_5">
    <path d="M 7.2 352.8 
L 453.6 352.8 
" style="fill:none;stroke:#000000;stroke-linecap:square;stroke-linejoin:miter;"/>
   </g>
   <g id="patch_6">
    <path d="M 7.2 352.8 
L 7.2 7.2 
" style="fill:none;stroke:#000000;stroke-linecap:square;stroke-linejoin:miter;"/>
   </g>
   <g id="matplotlib.axis_1">
    <g id="xtick_1"/>
    <g id="xtick_2">
     <g id="line2d_7">
      <path clip-path="url(#p2be0864c1e)" d="M 54.098611 352.8 
L 54.098611 7.2 
" style="fill:none;stroke:#000000;stroke-dasharray:1.000000,3.000000;stroke-dashoffset:0.0;stroke-width:0.5;"/>
     </g>
     <g id="line2d_8">
      <defs>
       <path d="M 0 0 
L 0 -4 
" id="mbf9ae3615a" style="stroke:#000000;stroke-width:0.5;"/>
      </defs>
      <g>
       <use style="stroke:#000000;stroke-width:0.5;" x="54.0986107985" xlink:href="#mbf9ae3615a" y="352.8"/>
      </g>
     </g>
     <g id="line2d_9">
      <defs>
       <path d="M 0 0 
L 0 4 
" id="mbac78f88a1" style="stroke:#000000;stroke-width:0.5;"/>
      </defs>
      <g>
       <use style="stroke:#000000;stroke-width:0.5;" x="54.0986107985" xlink:href="#mbac78f88a1" y="7.2"/>
      </g>
     </g>
     <g id="text_1">
      <!-- -6 -->
      <defs>
       <path d="M 33.015625 40.375 
Q 26.375 40.375 22.484375 35.828125 
Q 18.609375 31.296875 18.609375 23.390625 
Q 18.609375 15.53125 22.484375 10.953125 
Q 26.375 6.390625 33.015625 6.390625 
Q 39.65625 6.390625 43.53125 10.953125 
Q 47.40625 15.53125 47.40625 23.390625 
Q 47.40625 31.296875 43.53125 35.828125 
Q 39.65625 40.375 33.015625 40.375 
M 52.59375 71.296875 
L 52.59375 62.3125 
Q 48.875 64.0625 45.09375 64.984375 
Q 41.3125 65.921875 37.59375 65.921875 
Q 27.828125 65.921875 22.671875 59.328125 
Q 17.53125 52.734375 16.796875 39.40625 
Q 19.671875 43.65625 24.015625 45.921875 
Q 28.375 48.1875 33.59375 48.1875 
Q 44.578125 48.1875 50.953125 41.515625 
Q 57.328125 34.859375 57.328125 23.390625 
Q 57.328125 12.15625 50.6875 5.359375 
Q 44.046875 -1.421875 33.015625 -1.421875 
Q 20.359375 -1.421875 13.671875 8.265625 
Q 6.984375 17.96875 6.984375 36.375 
Q 6.984375 53.65625 15.1875 63.9375 
Q 23.390625 74.21875 37.203125 74.21875 
Q 40.921875 74.21875 44.703125 73.484375 
Q 48.484375 72.75 52.59375 71.296875 
" id="BitstreamVeraSans-Roman-36"/>
       <path d="M 4.890625 31.390625 
L 31.203125 31.390625 
L 31.203125 23.390625 
L 4.890625 23.390625 
z
" id="BitstreamVeraSans-Roman-2d"/>
      </defs>
      <g transform="translate(44.1282982985 371.996875)scale(0.2 -0.2)">
       <use xlink:href="#BitstreamVeraSans-Roman-2d"/>
       <use x="36.083984375" xlink:href="#BitstreamVeraSans-Roman-36"/>
      </g>
     </g>
    </g>
    <g id="xtick_3">
     <g id="line2d_10">
      <path clip-path="url(#p2be0864c1e)" d="M 101.098774 352.8 
L 101.098774 7.2 
" style="fill:none;stroke:#000000;stroke-dasharray:1.000000,3.000000;stroke-dashoffset:0.0;stroke-width:0.5;"/>
     </g>
     <g id="line2d_11">
      <g>
       <use style="stroke:#000000;stroke-width:0.5;" x="101.098774234" xlink:href="#mbf9ae3615a" y="352.8"/>
      </g>
     </g>
     <g id="line2d_12">
      <g>
       <use style="stroke:#000000;stroke-width:0.5;" x="101.098774234" xlink:href="#mbac78f88a1" y="7.2"/>
      </g>
     </g>
     <g id="text_2">
      <!-- -4 -->
      <defs>
       <path d="M 37.796875 64.3125 
L 12.890625 25.390625 
L 37.796875 25.390625 
z
M 35.203125 72.90625 
L 47.609375 72.90625 
L 47.609375 25.390625 
L 58.015625 25.390625 
L 58.015625 17.1875 
L 47.609375 17.1875 
L 47.609375 0 
L 37.796875 0 
L 37.796875 17.1875 
L 4.890625 17.1875 
L 4.890625 26.703125 
z
" id="BitstreamVeraSans-Roman-34"/>
      </defs>
      <g transform="translate(91.1284617339 371.996875)scale(0.2 -0.2)">
       <use xlink:href="#BitstreamVeraSans-Roman-2d"/>
       <use x="36.083984375" xlink:href="#BitstreamVeraSans-Roman-34"/>
      </g>
     </g>
    </g>
    <g id="xtick_4">
     <g id="line2d_13">
      <path clip-path="url(#p2be0864c1e)" d="M 148.098938 352.8 
L 148.098938 7.2 
" style="fill:none;stroke:#000000;stroke-dasharray:1.000000,3.000000;stroke-dashoffset:0.0;stroke-width:0.5;"/>
     </g>
     <g id="line2d_14">
      <g>
       <use style="stroke:#000000;stroke-width:0.5;" x="148.098937669" xlink:href="#mbf9ae3615a" y="352.8"/>
      </g>
     </g>
     <g id="line2d_15">
      <g>
       <use style="stroke:#000000;stroke-width:0.5;" x="148.098937669" xlink:href="#mbac78f88a1" y="7.2"/>
      </g>
     </g>
     <g id="text_3">
      <!-- -2 -->
      <defs>
       <path d="M 19.1875 8.296875 
L 53.609375 8.296875 
L 53.609375 0 
L 7.328125 0 
L 7.328125 8.296875 
Q 12.9375 14.109375 22.625 23.890625 
Q 32.328125 33.6875 34.8125 36.53125 
Q 39.546875 41.84375 41.421875 45.53125 
Q 43.3125 49.21875 43.3125 52.78125 
Q 43.3125 58.59375 39.234375 62.25 
Q 35.15625 65.921875 28.609375 65.921875 
Q 23.96875 65.921875 18.8125 64.3125 
Q 13.671875 62.703125 7.8125 59.421875 
L 7.8125 69.390625 
Q 13.765625 71.78125 18.9375 73 
Q 24.125 74.21875 28.421875 74.21875 
Q 39.75 74.21875 46.484375 68.546875 
Q 53.21875 62.890625 53.21875 53.421875 
Q 53.21875 48.921875 51.53125 44.890625 
Q 49.859375 40.875 45.40625 35.40625 
Q 44.1875 33.984375 37.640625 27.21875 
Q 31.109375 20.453125 19.1875 8.296875 
" id="BitstreamVeraSans-Roman-32"/>
      </defs>
      <g transform="translate(138.128625169 371.996875)scale(0.2 -0.2)">
       <use xlink:href="#BitstreamVeraSans-Roman-2d"/>
       <use x="36.083984375" xlink:href="#BitstreamVeraSans-Roman-32"/>
      </g>
     </g>
    </g>
    <g id="xtick_5">
     <g id="line2d_16">
      <path clip-path="url(#p2be0864c1e)" d="M 195.099101 352.8 
L 195.099101 7.2 
" style="fill:none;stroke:#000000;stroke-dasharray:1.000000,3.000000;stroke-dashoffset:0.0;stroke-width:0.5;"/>
     </g>
     <g id="line2d_17">
      <g>
       <use style="stroke:#000000;stroke-width:0.5;" x="195.099101105" xlink:href="#mbf9ae3615a" y="352.8"/>
      </g>
     </g>
     <g id="line2d_18">
      <g>
       <use style="stroke:#000000;stroke-width:0.5;" x="195.099101105" xlink:href="#mbac78f88a1" y="7.2"/>
      </g>
     </g>
     <g id="text_4">
      <!-- 0 -->
      <defs>
       <path d="M 31.78125 66.40625 
Q 24.171875 66.40625 20.328125 58.90625 
Q 16.5 51.421875 16.5 36.375 
Q 16.5 21.390625 20.328125 13.890625 
Q 24.171875 6.390625 31.78125 6.390625 
Q 39.453125 6.390625 43.28125 13.890625 
Q 47.125 21.390625 47.125 36.375 
Q 47.125 51.421875 43.28125 58.90625 
Q 39.453125 66.40625 31.78125 66.40625 
M 31.78125 74.21875 
Q 44.046875 74.21875 50.515625 64.515625 
Q 56.984375 54.828125 56.984375 36.375 
Q 56.984375 17.96875 50.515625 8.265625 
Q 44.046875 -1.421875 31.78125 -1.421875 
Q 19.53125 -1.421875 13.0625 8.265625 
Q 6.59375 17.96875 6.59375 36.375 
Q 6.59375 54.828125 13.0625 64.515625 
Q 19.53125 74.21875 31.78125 74.21875 
" id="BitstreamVeraSans-Roman-30"/>
      </defs>
      <g transform="translate(188.736601105 371.996875)scale(0.2 -0.2)">
       <use xlink:href="#BitstreamVeraSans-Roman-30"/>
      </g>
     </g>
    </g>
    <g id="xtick_6">
     <g id="line2d_19">
      <path clip-path="url(#p2be0864c1e)" d="M 242.099265 352.8 
L 242.099265 7.2 
" style="fill:none;stroke:#000000;stroke-dasharray:1.000000,3.000000;stroke-dashoffset:0.0;stroke-width:0.5;"/>
     </g>
     <g id="line2d_20">
      <g>
       <use style="stroke:#000000;stroke-width:0.5;" x="242.09926454" xlink:href="#mbf9ae3615a" y="352.8"/>
      </g>
     </g>
     <g id="line2d_21">
      <g>
       <use style="stroke:#000000;stroke-width:0.5;" x="242.09926454" xlink:href="#mbac78f88a1" y="7.2"/>
      </g>
     </g>
     <g id="text_5">
      <!-- 2 -->
      <g transform="translate(235.73676454 371.996875)scale(0.2 -0.2)">
       <use xlink:href="#BitstreamVeraSans-Roman-32"/>
      </g>
     </g>
    </g>
    <g id="xtick_7">
     <g id="line2d_22">
      <path clip-path="url(#p2be0864c1e)" d="M 289.099428 352.8 
L 289.099428 7.2 
" style="fill:none;stroke:#000000;stroke-dasharray:1.000000,3.000000;stroke-dashoffset:0.0;stroke-width:0.5;"/>
     </g>
     <g id="line2d_23">
      <g>
       <use style="stroke:#000000;stroke-width:0.5;" x="289.099427976" xlink:href="#mbf9ae3615a" y="352.8"/>
      </g>
     </g>
     <g id="line2d_24">
      <g>
       <use style="stroke:#000000;stroke-width:0.5;" x="289.099427976" xlink:href="#mbac78f88a1" y="7.2"/>
      </g>
     </g>
     <g id="text_6">
      <!-- 4 -->
      <g transform="translate(282.736927976 371.996875)scale(0.2 -0.2)">
       <use xlink:href="#BitstreamVeraSans-Roman-34"/>
      </g>
     </g>
    </g>
    <g id="xtick_8">
     <g id="line2d_25">
      <path clip-path="url(#p2be0864c1e)" d="M 336.099591 352.8 
L 336.099591 7.2 
" style="fill:none;stroke:#000000;stroke-dasharray:1.000000,3.000000;stroke-dashoffset:0.0;stroke-width:0.5;"/>
     </g>
     <g id="line2d_26">
      <g>
       <use style="stroke:#000000;stroke-width:0.5;" x="336.099591411" xlink:href="#mbf9ae3615a" y="352.8"/>
      </g>
     </g>
     <g id="line2d_27">
      <g>
       <use style="stroke:#000000;stroke-width:0.5;" x="336.099591411" xlink:href="#mbac78f88a1" y="7.2"/>
      </g>
     </g>
     <g id="text_7">
      <!-- 6 -->
      <g transform="translate(329.737091411 371.996875)scale(0.2 -0.2)">
       <use xlink:href="#BitstreamVeraSans-Roman-36"/>
      </g>
     </g>
    </g>
    <g id="xtick_9">
     <g id="line2d_28">
      <path clip-path="url(#p2be0864c1e)" d="M 383.099755 352.8 
L 383.099755 7.2 
" style="fill:none;stroke:#000000;stroke-dasharray:1.000000,3.000000;stroke-dashoffset:0.0;stroke-width:0.5;"/>
     </g>
     <g id="line2d_29">
      <g>
       <use style="stroke:#000000;stroke-width:0.5;" x="383.099754847" xlink:href="#mbf9ae3615a" y="352.8"/>
      </g>
     </g>
     <g id="line2d_30">
      <g>
       <use style="stroke:#000000;stroke-width:0.5;" x="383.099754847" xlink:href="#mbac78f88a1" y="7.2"/>
      </g>
     </g>
     <g id="text_8">
      <!-- 8 -->
      <defs>
       <path d="M 31.78125 34.625 
Q 24.75 34.625 20.71875 30.859375 
Q 16.703125 27.09375 16.703125 20.515625 
Q 16.703125 13.921875 20.71875 10.15625 
Q 24.75 6.390625 31.78125 6.390625 
Q 38.8125 6.390625 42.859375 10.171875 
Q 46.921875 13.96875 46.921875 20.515625 
Q 46.921875 27.09375 42.890625 30.859375 
Q 38.875 34.625 31.78125 34.625 
M 21.921875 38.8125 
Q 15.578125 40.375 12.03125 44.71875 
Q 8.5 49.078125 8.5 55.328125 
Q 8.5 64.0625 14.71875 69.140625 
Q 20.953125 74.21875 31.78125 74.21875 
Q 42.671875 74.21875 48.875 69.140625 
Q 55.078125 64.0625 55.078125 55.328125 
Q 55.078125 49.078125 51.53125 44.71875 
Q 48 40.375 41.703125 38.8125 
Q 48.828125 37.15625 52.796875 32.3125 
Q 56.78125 27.484375 56.78125 20.515625 
Q 56.78125 9.90625 50.3125 4.234375 
Q 43.84375 -1.421875 31.78125 -1.421875 
Q 19.734375 -1.421875 13.25 4.234375 
Q 6.78125 9.90625 6.78125 20.515625 
Q 6.78125 27.484375 10.78125 32.3125 
Q 14.796875 37.15625 21.921875 38.8125 
M 18.3125 54.390625 
Q 18.3125 48.734375 21.84375 45.5625 
Q 25.390625 42.390625 31.78125 42.390625 
Q 38.140625 42.390625 41.71875 45.5625 
Q 45.3125 48.734375 45.3125 54.390625 
Q 45.3125 60.0625 41.71875 63.234375 
Q 38.140625 66.40625 31.78125 66.40625 
Q 25.390625 66.40625 21.84375 63.234375 
Q 18.3125 60.0625 18.3125 54.390625 
" id="BitstreamVeraSans-Roman-38"/>
      </defs>
      <g transform="translate(376.737254847 371.996875)scale(0.2 -0.2)">
       <use xlink:href="#BitstreamVeraSans-Roman-38"/>
      </g>
     </g>
    </g>
    <g id="xtick_10">
     <g id="line2d_31">
      <path clip-path="url(#p2be0864c1e)" d="M 430.099918 352.8 
L 430.099918 7.2 
" style="fill:none;stroke:#000000;stroke-dasharray:1.000000,3.000000;stroke-dashoffset:0.0;stroke-width:0.5;"/>
     </g>
     <g id="line2d_32">
      <g>
       <use style="stroke:#000000;stroke-width:0.5;" x="430.099918282" xlink:href="#mbf9ae3615a" y="352.8"/>
      </g>
     </g>
     <g id="line2d_33">
      <g>
       <use style="stroke:#000000;stroke-width:0.5;" x="430.099918282" xlink:href="#mbac78f88a1" y="7.2"/>
      </g>
     </g>
     <g id="text_9">
      <!-- 10 -->
      <defs>
       <path d="M 12.40625 8.296875 
L 28.515625 8.296875 
L 28.515625 63.921875 
L 10.984375 60.40625 
L 10.984375 69.390625 
L 28.421875 72.90625 
L 38.28125 72.90625 
L 38.28125 8.296875 
L 54.390625 8.296875 
L 54.390625 0 
L 12.40625 0 
z
" id="BitstreamVeraSans-Roman-31"/>
      </defs>
      <g transform="translate(417.374918282 371.996875)scale(0.2 -0.2)">
       <use xlink:href="#BitstreamVeraSans-Roman-31"/>
       <use x="63.623046875" xlink:href="#BitstreamVeraSans-Roman-30"/>
      </g>
     </g>
    </g>
    <g id="xtick_11"/>
    <g id="xtick_12">
     <g id="line2d_34">
      <defs>
       <path d="M 0 0 
L 0 -2 
" id="mcb5ec8f8a9" style="stroke:#000000;stroke-width:0.5;"/>
      </defs>
      <g>
       <use style="stroke:#000000;stroke-width:0.5;" x="54.0986107985" xlink:href="#mcb5ec8f8a9" y="352.8"/>
      </g>
     </g>
     <g id="line2d_35">
      <defs>
       <path d="M 0 0 
L 0 2 
" id="m559190c888" style="stroke:#000000;stroke-width:0.5;"/>
      </defs>
      <g>
       <use style="stroke:#000000;stroke-width:0.5;" x="54.0986107985" xlink:href="#m559190c888" y="7.2"/>
      </g>
     </g>
    </g>
    <g id="xtick_13">
     <g id="line2d_36">
      <g>
       <use style="stroke:#000000;stroke-width:0.5;" x="101.098774234" xlink:href="#mcb5ec8f8a9" y="352.8"/>
      </g>
     </g>
     <g id="line2d_37">
      <g>
       <use style="stroke:#000000;stroke-width:0.5;" x="101.098774234" xlink:href="#m559190c888" y="7.2"/>
      </g>
     </g>
    </g>
    <g id="xtick_14">
     <g id="line2d_38">
      <g>
       <use style="stroke:#000000;stroke-width:0.5;" x="148.098937669" xlink:href="#mcb5ec8f8a9" y="352.8"/>
      </g>
     </g>
     <g id="line2d_39">
      <g>
       <use style="stroke:#000000;stroke-width:0.5;" x="148.098937669" xlink:href="#m559190c888" y="7.2"/>
      </g>
     </g>
    </g>
    <g id="xtick_15">
     <g id="line2d_40">
      <g>
       <use style="stroke:#000000;stroke-width:0.5;" x="195.099101105" xlink:href="#mcb5ec8f8a9" y="352.8"/>
      </g>
     </g>
     <g id="line2d_41">
      <g>
       <use style="stroke:#000000;stroke-width:0.5;" x="195.099101105" xlink:href="#m559190c888" y="7.2"/>
      </g>
     </g>
    </g>
    <g id="xtick_16">
     <g id="line2d_42">
      <g>
       <use style="stroke:#000000;stroke-width:0.5;" x="242.09926454" xlink:href="#mcb5ec8f8a9" y="352.8"/>
      </g>
     </g>
     <g id="line2d_43">
      <g>
       <use style="stroke:#000000;stroke-width:0.5;" x="242.09926454" xlink:href="#m559190c888" y="7.2"/>
      </g>
     </g>
    </g>
    <g id="xtick_17">
     <g id="line2d_44">
      <g>
       <use style="stroke:#000000;stroke-width:0.5;" x="289.099427976" xlink:href="#mcb5ec8f8a9" y="352.8"/>
      </g>
     </g>
     <g id="line2d_45">
      <g>
       <use style="stroke:#000000;stroke-width:0.5;" x="289.099427976" xlink:href="#m559190c888" y="7.2"/>
      </g>
     </g>
    </g>
    <g id="xtick_18">
     <g id="line2d_46">
      <g>
       <use style="stroke:#000000;stroke-width:0.5;" x="336.099591411" xlink:href="#mcb5ec8f8a9" y="352.8"/>
      </g>
     </g>
     <g id="line2d_47">
      <g>
       <use style="stroke:#000000;stroke-width:0.5;" x="336.099591411" xlink:href="#m559190c888" y="7.2"/>
      </g>
     </g>
    </g>
    <g id="xtick_19">
     <g id="line2d_48">
      <g>
       <use style="stroke:#000000;stroke-width:0.5;" x="383.099754847" xlink:href="#mcb5ec8f8a9" y="352.8"/>
      </g>
     </g>
     <g id="line2d_49">
      <g>
       <use style="stroke:#000000;stroke-width:0.5;" x="383.099754847" xlink:href="#m559190c888" y="7.2"/>
      </g>
     </g>
    </g>
    <g id="xtick_20">
     <g id="line2d_50">
      <g>
       <use style="stroke:#000000;stroke-width:0.5;" x="430.099918282" xlink:href="#mcb5ec8f8a9" y="352.8"/>
      </g>
     </g>
     <g id="line2d_51">
      <g>
       <use style="stroke:#000000;stroke-width:0.5;" x="430.099918282" xlink:href="#m559190c888" y="7.2"/>
      </g>
     </g>
    </g>
    <g id="text_10">
     <!-- log10 of Df -->
     <defs>
      <path id="BitstreamVeraSans-Roman-20"/>
      <path d="M 30.609375 48.390625 
Q 23.390625 48.390625 19.1875 42.75 
Q 14.984375 37.109375 14.984375 27.296875 
Q 14.984375 17.484375 19.15625 11.84375 
Q 23.34375 6.203125 30.609375 6.203125 
Q 37.796875 6.203125 41.984375 11.859375 
Q 46.1875 17.53125 46.1875 27.296875 
Q 46.1875 37.015625 41.984375 42.703125 
Q 37.796875 48.390625 30.609375 48.390625 
M 30.609375 56 
Q 42.328125 56 49.015625 48.375 
Q 55.71875 40.765625 55.71875 27.296875 
Q 55.71875 13.875 49.015625 6.21875 
Q 42.328125 -1.421875 30.609375 -1.421875 
Q 18.84375 -1.421875 12.171875 6.21875 
Q 5.515625 13.875 5.515625 27.296875 
Q 5.515625 40.765625 12.171875 48.375 
Q 18.84375 56 30.609375 56 
" id="BitstreamVeraSans-Roman-6f"/>
      <path d="M 9.421875 75.984375 
L 18.40625 75.984375 
L 18.40625 0 
L 9.421875 0 
z
" id="BitstreamVeraSans-Roman-6c"/>
      <path d="M 19.671875 64.796875 
L 19.671875 8.109375 
L 31.59375 8.109375 
Q 46.6875 8.109375 53.6875 14.9375 
Q 60.6875 21.78125 60.6875 36.53125 
Q 60.6875 51.171875 53.6875 57.984375 
Q 46.6875 64.796875 31.59375 64.796875 
z
M 9.8125 72.90625 
L 30.078125 72.90625 
Q 51.265625 72.90625 61.171875 64.09375 
Q 71.09375 55.28125 71.09375 36.53125 
Q 71.09375 17.671875 61.125 8.828125 
Q 51.171875 0 30.078125 0 
L 9.8125 0 
z
" id="BitstreamVeraSans-Roman-44"/>
      <path d="M 45.40625 27.984375 
Q 45.40625 37.75 41.375 43.109375 
Q 37.359375 48.484375 30.078125 48.484375 
Q 22.859375 48.484375 18.828125 43.109375 
Q 14.796875 37.75 14.796875 27.984375 
Q 14.796875 18.265625 18.828125 12.890625 
Q 22.859375 7.515625 30.078125 7.515625 
Q 37.359375 7.515625 41.375 12.890625 
Q 45.40625 18.265625 45.40625 27.984375 
M 54.390625 6.78125 
Q 54.390625 -7.171875 48.1875 -13.984375 
Q 42 -20.796875 29.203125 -20.796875 
Q 24.46875 -20.796875 20.265625 -20.09375 
Q 16.0625 -19.390625 12.109375 -17.921875 
L 12.109375 -9.1875 
Q 16.0625 -11.328125 19.921875 -12.34375 
Q 23.78125 -13.375 27.78125 -13.375 
Q 36.625 -13.375 41.015625 -8.765625 
Q 45.40625 -4.15625 45.40625 5.171875 
L 45.40625 9.625 
Q 42.625 4.78125 38.28125 2.390625 
Q 33.9375 0 27.875 0 
Q 17.828125 0 11.671875 7.65625 
Q 5.515625 15.328125 5.515625 27.984375 
Q 5.515625 40.671875 11.671875 48.328125 
Q 17.828125 56 27.875 56 
Q 33.9375 56 38.28125 53.609375 
Q 42.625 51.21875 45.40625 46.390625 
L 45.40625 54.6875 
L 54.390625 54.6875 
z
" id="BitstreamVeraSans-Roman-67"/>
      <path d="M 37.109375 75.984375 
L 37.109375 68.5 
L 28.515625 68.5 
Q 23.6875 68.5 21.796875 66.546875 
Q 19.921875 64.59375 19.921875 59.515625 
L 19.921875 54.6875 
L 34.71875 54.6875 
L 34.71875 47.703125 
L 19.921875 47.703125 
L 19.921875 0 
L 10.890625 0 
L 10.890625 47.703125 
L 2.296875 47.703125 
L 2.296875 54.6875 
L 10.890625 54.6875 
L 10.890625 58.5 
Q 10.890625 67.625 15.140625 71.796875 
Q 19.390625 75.984375 28.609375 75.984375 
z
" id="BitstreamVeraSans-Roman-66"/>
     </defs>
     <g transform="translate(175.2140625 396.353125)scale(0.2 -0.2)">
      <use xlink:href="#BitstreamVeraSans-Roman-6c"/>
      <use x="27.783203125" xlink:href="#BitstreamVeraSans-Roman-6f"/>
      <use x="88.96484375" xlink:href="#BitstreamVeraSans-Roman-67"/>
      <use x="152.44140625" xlink:href="#BitstreamVeraSans-Roman-31"/>
      <use x="216.064453125" xlink:href="#BitstreamVeraSans-Roman-30"/>
      <use x="279.6875" xlink:href="#BitstreamVeraSans-Roman-20"/>
      <use x="311.474609375" xlink:href="#BitstreamVeraSans-Roman-6f"/>
      <use x="372.65625" xlink:href="#BitstreamVeraSans-Roman-66"/>
      <use x="407.861328125" xlink:href="#BitstreamVeraSans-Roman-20"/>
      <use x="439.6484375" xlink:href="#BitstreamVeraSans-Roman-44"/>
      <use x="516.650390625" xlink:href="#BitstreamVeraSans-Roman-66"/>
     </g>
    </g>
   </g>
   <g id="matplotlib.axis_2">
    <g id="ytick_1">
     <g id="line2d_52">
      <path clip-path="url(#p2be0864c1e)" d="M 7.2 352.8 
L 453.6 352.8 
" style="fill:none;stroke:#000000;stroke-dasharray:1.000000,3.000000;stroke-dashoffset:0.0;stroke-width:0.5;"/>
     </g>
     <g id="line2d_53">
      <defs>
       <path d="M 0 0 
L 4 0 
" id="mbd55ab7e7d" style="stroke:#000000;stroke-width:0.5;"/>
      </defs>
      <g>
       <use style="stroke:#000000;stroke-width:0.5;" x="7.2" xlink:href="#mbd55ab7e7d" y="352.8"/>
      </g>
     </g>
     <g id="line2d_54">
      <defs>
       <path d="M 0 0 
L -4 0 
" id="m07800b15de" style="stroke:#000000;stroke-width:0.5;"/>
      </defs>
      <g>
       <use style="stroke:#000000;stroke-width:0.5;" x="453.6" xlink:href="#m07800b15de" y="352.8"/>
      </g>
     </g>
    </g>
    <g id="ytick_2">
     <g id="line2d_55">
      <path clip-path="url(#p2be0864c1e)" d="M 7.2 284.364356 
L 453.6 284.364356 
" style="fill:none;stroke:#000000;stroke-dasharray:1.000000,3.000000;stroke-dashoffset:0.0;stroke-width:0.5;"/>
     </g>
     <g id="line2d_56">
      <g>
       <use style="stroke:#000000;stroke-width:0.5;" x="7.2" xlink:href="#mbd55ab7e7d" y="284.364356436"/>
      </g>
     </g>
     <g id="line2d_57">
      <g>
       <use style="stroke:#000000;stroke-width:0.5;" x="453.6" xlink:href="#m07800b15de" y="284.364356436"/>
      </g>
     </g>
    </g>
    <g id="ytick_3">
     <g id="line2d_58">
      <path clip-path="url(#p2be0864c1e)" d="M 7.2 215.928713 
L 453.6 215.928713 
" style="fill:none;stroke:#000000;stroke-dasharray:1.000000,3.000000;stroke-dashoffset:0.0;stroke-width:0.5;"/>
     </g>
     <g id="line2d_59">
      <g>
       <use style="stroke:#000000;stroke-width:0.5;" x="7.2" xlink:href="#mbd55ab7e7d" y="215.928712871"/>
      </g>
     </g>
     <g id="line2d_60">
      <g>
       <use style="stroke:#000000;stroke-width:0.5;" x="453.6" xlink:href="#m07800b15de" y="215.928712871"/>
      </g>
     </g>
    </g>
    <g id="ytick_4">
     <g id="line2d_61">
      <path clip-path="url(#p2be0864c1e)" d="M 7.2 147.493069 
L 453.6 147.493069 
" style="fill:none;stroke:#000000;stroke-dasharray:1.000000,3.000000;stroke-dashoffset:0.0;stroke-width:0.5;"/>
     </g>
     <g id="line2d_62">
      <g>
       <use style="stroke:#000000;stroke-width:0.5;" x="7.2" xlink:href="#mbd55ab7e7d" y="147.493069307"/>
      </g>
     </g>
     <g id="line2d_63">
      <g>
       <use style="stroke:#000000;stroke-width:0.5;" x="453.6" xlink:href="#m07800b15de" y="147.493069307"/>
      </g>
     </g>
    </g>
    <g id="ytick_5">
     <g id="line2d_64">
      <path clip-path="url(#p2be0864c1e)" d="M 7.2 79.057426 
L 453.6 79.057426 
" style="fill:none;stroke:#000000;stroke-dasharray:1.000000,3.000000;stroke-dashoffset:0.0;stroke-width:0.5;"/>
     </g>
     <g id="line2d_65">
      <g>
       <use style="stroke:#000000;stroke-width:0.5;" x="7.2" xlink:href="#mbd55ab7e7d" y="79.0574257426"/>
      </g>
     </g>
     <g id="line2d_66">
      <g>
       <use style="stroke:#000000;stroke-width:0.5;" x="453.6" xlink:href="#m07800b15de" y="79.0574257426"/>
      </g>
     </g>
    </g>
    <g id="ytick_6">
     <g id="line2d_67">
      <path clip-path="url(#p2be0864c1e)" d="M 7.2 10.621782 
L 453.6 10.621782 
" style="fill:none;stroke:#000000;stroke-dasharray:1.000000,3.000000;stroke-dashoffset:0.0;stroke-width:0.5;"/>
     </g>
     <g id="line2d_68">
      <g>
       <use style="stroke:#000000;stroke-width:0.5;" x="7.2" xlink:href="#mbd55ab7e7d" y="10.6217821782"/>
      </g>
     </g>
     <g id="line2d_69">
      <g>
       <use style="stroke:#000000;stroke-width:0.5;" x="453.6" xlink:href="#m07800b15de" y="10.6217821782"/>
      </g>
     </g>
    </g>
   </g>
   <g id="text_11">
    <!-- {f6-f9}, 20-D -->
    <defs>
     <path d="M 12.5 -9.28125 
L 15.921875 -9.28125 
Q 22.75 -9.28125 24.828125 -7.171875 
Q 26.90625 -5.078125 26.90625 1.90625 
L 26.90625 14.015625 
Q 26.90625 21.625 29.09375 25.09375 
Q 31.296875 28.5625 36.71875 29.890625 
Q 31.296875 31.109375 29.09375 34.5625 
Q 26.90625 38.03125 26.90625 45.703125 
L 26.90625 57.8125 
Q 26.90625 64.75 24.828125 66.875 
Q 22.75 69 15.921875 69 
L 12.5 69 
L 12.5 75.984375 
L 15.578125 75.984375 
Q 27.734375 75.984375 31.8125 72.390625 
Q 35.890625 68.796875 35.890625 58.015625 
L 35.890625 46.296875 
Q 35.890625 39.015625 38.515625 36.203125 
Q 41.15625 33.40625 48.09375 33.40625 
L 51.125 33.40625 
L 51.125 26.421875 
L 48.09375 26.421875 
Q 41.15625 26.421875 38.515625 23.578125 
Q 35.890625 20.75 35.890625 13.375 
L 35.890625 1.703125 
Q 35.890625 -9.078125 31.8125 -12.6875 
Q 27.734375 -16.3125 15.578125 -16.3125 
L 12.5 -16.3125 
z
" id="BitstreamVeraSans-Roman-7d"/>
     <path d="M 10.984375 1.515625 
L 10.984375 10.5 
Q 14.703125 8.734375 18.5 7.8125 
Q 22.3125 6.890625 25.984375 6.890625 
Q 35.75 6.890625 40.890625 13.453125 
Q 46.046875 20.015625 46.78125 33.40625 
Q 43.953125 29.203125 39.59375 26.953125 
Q 35.25 24.703125 29.984375 24.703125 
Q 19.046875 24.703125 12.671875 31.3125 
Q 6.296875 37.9375 6.296875 49.421875 
Q 6.296875 60.640625 12.9375 67.421875 
Q 19.578125 74.21875 30.609375 74.21875 
Q 43.265625 74.21875 49.921875 64.515625 
Q 56.59375 54.828125 56.59375 36.375 
Q 56.59375 19.140625 48.40625 8.859375 
Q 40.234375 -1.421875 26.421875 -1.421875 
Q 22.703125 -1.421875 18.890625 -0.6875 
Q 15.09375 0.046875 10.984375 1.515625 
M 30.609375 32.421875 
Q 37.25 32.421875 41.125 36.953125 
Q 45.015625 41.5 45.015625 49.421875 
Q 45.015625 57.28125 41.125 61.84375 
Q 37.25 66.40625 30.609375 66.40625 
Q 23.96875 66.40625 20.09375 61.84375 
Q 16.21875 57.28125 16.21875 49.421875 
Q 16.21875 41.5 20.09375 36.953125 
Q 23.96875 32.421875 30.609375 32.421875 
" id="BitstreamVeraSans-Roman-39"/>
     <path d="M 51.125 -9.28125 
L 51.125 -16.3125 
L 48.09375 -16.3125 
Q 35.9375 -16.3125 31.8125 -12.6875 
Q 27.6875 -9.078125 27.6875 1.703125 
L 27.6875 13.375 
Q 27.6875 20.75 25.046875 23.578125 
Q 22.40625 26.421875 15.484375 26.421875 
L 12.5 26.421875 
L 12.5 33.40625 
L 15.484375 33.40625 
Q 22.46875 33.40625 25.078125 36.203125 
Q 27.6875 39.015625 27.6875 46.296875 
L 27.6875 58.015625 
Q 27.6875 68.796875 31.8125 72.390625 
Q 35.9375 75.984375 48.09375 75.984375 
L 51.125 75.984375 
L 51.125 69 
L 47.796875 69 
Q 40.921875 69 38.8125 66.84375 
Q 36.71875 64.703125 36.71875 57.8125 
L 36.71875 45.703125 
Q 36.71875 38.03125 34.5 34.5625 
Q 32.28125 31.109375 26.90625 29.890625 
Q 32.328125 28.5625 34.515625 25.09375 
Q 36.71875 21.625 36.71875 14.015625 
L 36.71875 1.90625 
Q 36.71875 -4.984375 38.8125 -7.125 
Q 40.921875 -9.28125 47.796875 -9.28125 
z
" id="BitstreamVeraSans-Roman-7b"/>
     <path d="M 11.71875 12.40625 
L 22.015625 12.40625 
L 22.015625 4 
L 14.015625 -11.625 
L 7.71875 -11.625 
L 11.71875 4 
z
" id="BitstreamVeraSans-Roman-2c"/>
    </defs>
    <g transform="translate(311.697 345.888)scale(0.2 -0.2)">
     <use xlink:href="#BitstreamVeraSans-Roman-7b"/>
     <use x="63.623046875" xlink:href="#BitstreamVeraSans-Roman-66"/>
     <use x="98.828125" xlink:href="#BitstreamVeraSans-Roman-36"/>
     <use x="162.451171875" xlink:href="#BitstreamVeraSans-Roman-2d"/>
     <use x="198.53515625" xlink:href="#BitstreamVeraSans-Roman-66"/>
     <use x="233.740234375" xlink:href="#BitstreamVeraSans-Roman-39"/>
     <use x="297.36328125" xlink:href="#BitstreamVeraSans-Roman-7d"/>
     <use x="360.986328125" xlink:href="#BitstreamVeraSans-Roman-2c"/>
     <use x="392.7734375" xlink:href="#BitstreamVeraSans-Roman-20"/>
     <use x="424.560546875" xlink:href="#BitstreamVeraSans-Roman-32"/>
     <use x="488.18359375" xlink:href="#BitstreamVeraSans-Roman-30"/>
     <use x="551.806640625" xlink:href="#BitstreamVeraSans-Roman-2d"/>
     <use x="587.890625" xlink:href="#BitstreamVeraSans-Roman-44"/>
    </g>
   </g>
   <g id="text_12">
    <!-- 0.0.0 -->
    <defs>
     <path d="M 10.6875 12.40625 
L 21 12.40625 
L 21 0 
L 10.6875 0 
z
" id="BitstreamVeraSans-Roman-2e"/>
    </defs>
    <g style="fill:#808080;" transform="translate(217.678125 347.2643125)scale(0.1 -0.1)">
     <use xlink:href="#BitstreamVeraSans-Roman-30"/>
     <use x="63.623046875" xlink:href="#BitstreamVeraSans-Roman-2e"/>
     <use x="95.41015625" xlink:href="#BitstreamVeraSans-Roman-30"/>
     <use x="159.033203125" xlink:href="#BitstreamVeraSans-Roman-2e"/>
     <use x="190.8203125" xlink:href="#BitstreamVeraSans-Roman-30"/>
    </g>
   </g>
  </g>
 </g>
 <defs>
  <clipPath id="p2be0864c1e">
   <rect height="345.6" width="446.4" x="7.2" y="7.2"/>
  </clipPath>
 </defs>
</svg>
