<?xml version="1.0" encoding="utf-8" standalone="no"?>
<!DOCTYPE svg PUBLIC "-//W3C//DTD SVG 1.1//EN"
  "http://www.w3.org/Graphics/SVG/1.1/DTD/svg11.dtd">
<!-- Created with matplotlib (http://matplotlib.org/) -->
<svg height="413pt" version="1.1" viewBox="0 0 520 413" width="520pt" xmlns="http://www.w3.org/2000/svg" xmlns:xlink="http://www.w3.org/1999/xlink">
 <defs>
  <style type="text/css">
*{stroke-linecap:butt;stroke-linejoin:round;stroke-miterlimit:100000;}
  </style>
 </defs>
 <g id="figure_1">
  <g id="patch_1">
   <path d="M 0 413.968843 
L 520.9625 413.968843 
L 520.9625 0 
L 0 0 
z
" style="fill:#ffffff;"/>
  </g>
  <g id="axes_1">
   <g id="patch_2">
    <path d="M 67.3625 359.056343 
L 513.7625 359.056343 
L 513.7625 13.456343 
L 67.3625 13.456343 
z
" style="fill:#ffffff;"/>
   </g>
   <g id="line2d_1">
    <path clip-path="url(#p8a2e8048dc)" d="M 422.736429 359.056343 
L 422.736429 354.493967 
L 428.018077 354.493967 
L 428.018077 349.93159 
L 429.899993 349.93159 
L 429.899993 345.369214 
L 430.592829 345.369214 
L 430.592829 340.806838 
L 431.202962 340.806838 
L 431.202962 336.244462 
L 432.407453 336.244462 
L 432.407453 331.682085 
L 432.482048 331.682085 
L 432.482048 327.119709 
L 432.92795 327.119709 
L 432.92795 322.557333 
L 435.900995 322.557333 
L 435.900995 317.994957 
L 437.722755 317.994957 
L 437.722755 313.43258 
L 438.47941 313.43258 
L 438.47941 308.870204 
L 438.95668 308.870204 
L 438.95668 304.307828 
L 462.398044 304.307828 
L 462.398044 299.745452 
L 471.746674 299.745452 
L 471.746674 295.183075 
L 472.2545 295.183075 
L 472.2545 290.620699 
L 479.87626 290.620699 
L 479.87626 286.058323 
L 480.441007 286.058323 
L 480.441007 281.495947 
L 489.862335 281.495947 
L 489.862335 276.933571 
L 506.976379 276.933571 
L 506.976379 272.371194 
L 507.791973 272.371194 
L 507.791973 267.808818 
L 513.272298 267.808818 
L 513.272298 263.246442 
L 521.9625 263.246442 
" style="fill:none;stroke:#f5deb3;stroke-linecap:square;"/>
   </g>
   <g id="line2d_2"/>
   <g id="line2d_3">
    <path clip-path="url(#p8a2e8048dc)" d="M 251.525099 359.056343 
L 251.525099 354.493967 
L 253.490961 354.493967 
L 253.490961 349.93159 
L 271.350882 349.93159 
L 271.350882 345.369214 
L 387.032064 345.369214 
L 387.032064 340.806838 
L 416.273702 340.806838 
L 416.273702 336.244462 
L 479.116084 336.244462 
L 479.116084 331.682085 
L 496.214935 331.682085 
L 496.214935 327.119709 
L 504.894689 327.119709 
L 504.894689 322.557333 
L 521.9625 322.557333 
" style="fill:none;stroke:#f5deb3;stroke-linecap:square;"/>
   </g>
   <g id="line2d_4">
    <path clip-path="url(#p8a2e8048dc)" d="M 442.597232 359.056343 
L 442.597232 354.493967 
L 452.389553 354.493967 
L 452.389553 349.93159 
L 454.269729 349.93159 
L 454.269729 345.369214 
L 454.43322 345.369214 
L 454.43322 340.806838 
L 454.650614 340.806838 
L 454.650614 336.244462 
L 457.46892 336.244462 
L 457.46892 331.682085 
L 458.657413 331.682085 
L 458.657413 327.119709 
L 461.123872 327.119709 
L 461.123872 322.557333 
L 461.518409 322.557333 
L 461.518409 317.994957 
L 464.029919 317.994957 
L 464.029919 313.43258 
L 465.717178 313.43258 
L 465.717178 308.870204 
L 466.72855 308.870204 
L 466.72855 304.307828 
L 467.815401 304.307828 
L 467.815401 299.745452 
L 468.129237 299.745452 
L 468.129237 295.183075 
L 468.752705 295.183075 
L 468.752705 290.620699 
L 469.194654 290.620699 
L 469.194654 286.058323 
L 469.326695 286.058323 
L 469.370653 276.933571 
L 469.852373 276.933571 
L 469.852373 272.371194 
L 470.026723 272.371194 
L 470.026723 267.808818 
L 470.374121 267.808818 
L 470.374121 263.246442 
L 472.043355 263.246442 
L 472.043355 258.684066 
L 473.383775 258.684066 
L 473.383775 254.121689 
L 473.92105 254.121689 
L 473.92105 249.559313 
L 474.167635 249.559313 
L 474.167635 244.996937 
L 475.306983 244.996937 
L 475.306983 240.434561 
L 475.468239 240.434561 
L 475.468239 235.872184 
L 478.192805 235.872184 
L 478.192805 231.309808 
L 478.886407 231.309808 
L 478.886407 226.747432 
L 479.421149 226.747432 
L 479.421149 222.185056 
L 480.102708 222.185056 
L 480.102708 217.622679 
L 481.149854 217.622679 
L 481.149854 213.060303 
L 481.298171 213.060303 
L 481.298171 208.497927 
L 481.704427 208.497927 
L 481.704427 203.935551 
L 482.94538 203.935551 
L 482.94538 199.373175 
L 484.022306 199.373175 
L 484.022306 194.810798 
L 484.589943 194.810798 
L 484.589943 190.248422 
L 484.766387 190.248422 
L 484.83684 181.12367 
L 485.397916 181.12367 
L 485.432834 171.998917 
L 486.437928 171.998917 
L 486.541081 162.874165 
L 487.122756 162.874165 
L 487.190871 153.749412 
L 488.171134 153.749412 
L 488.204692 144.62466 
L 488.606132 144.62466 
L 488.672815 135.499907 
L 489.829565 135.499907 
L 489.829565 130.937531 
L 490.286949 130.937531 
L 490.286949 126.375155 
L 493.965622 126.375155 
L 493.965622 121.812778 
L 498.277942 121.812778 
L 498.277942 117.250402 
L 500.759774 117.250402 
L 500.759774 112.688026 
L 503.102184 112.688026 
L 503.102184 108.12565 
L 509.88863 108.12565 
L 509.88863 103.563274 
L 521.9625 103.563274 
L 521.9625 103.563274 
" style="fill:none;stroke:#f5deb3;stroke-linecap:square;"/>
   </g>
   <g id="line2d_5">
    <path clip-path="url(#p8a2e8048dc)" d="M 523.170864 359.056343 
" style="fill:none;stroke:#f5deb3;stroke-linecap:square;"/>
   </g>
   <g id="line2d_6"/>
   <g id="line2d_7">
    <path clip-path="url(#p8a2e8048dc)" d="M 490.676621 359.056343 
L 490.676621 354.493967 
L 491.80089 354.493967 
L 491.80089 349.93159 
L 492.781766 349.93159 
L 492.781766 345.369214 
L 493.810994 345.369214 
L 493.810994 340.806838 
L 494.027377 340.806838 
L 494.027377 336.244462 
L 497.37184 336.244462 
L 497.37184 331.682085 
L 497.636116 331.682085 
L 497.636116 327.119709 
L 498.683324 327.119709 
L 498.683324 322.557333 
L 499.315633 322.557333 
L 499.372833 313.43258 
L 499.743492 313.43258 
L 499.800342 304.307828 
L 499.857146 304.307828 
L 499.857146 299.745452 
L 499.998953 299.745452 
L 499.998953 295.183075 
L 500.168743 295.183075 
L 500.168743 290.620699 
L 500.759774 290.620699 
L 500.759774 286.058323 
L 500.871786 286.058323 
L 500.871786 281.495947 
L 500.983619 281.495947 
L 501.067375 272.371194 
L 501.345841 272.371194 
L 501.429165 254.121689 
L 502.339217 254.121689 
L 502.339217 249.559313 
L 502.612664 249.559313 
L 502.612664 244.996937 
L 503.129279 244.996937 
L 503.129279 240.434561 
L 504.337797 240.434561 
L 504.337797 235.872184 
L 504.762498 235.872184 
L 504.762498 231.309808 
L 505.210929 231.309808 
L 505.263496 222.185056 
L 505.473372 222.185056 
L 505.473372 217.622679 
L 505.708729 217.622679 
L 505.708729 213.060303 
L 506.306617 213.060303 
L 506.306617 208.497927 
L 506.435918 208.497927 
L 506.435918 203.935551 
L 507.308864 203.935551 
L 507.334375 194.810798 
L 507.741277 194.810798 
L 507.741277 190.248422 
L 509.32078 190.248422 
L 509.32078 185.686046 
L 510.378685 185.686046 
L 510.378685 181.12367 
L 511.228085 181.12367 
L 511.228085 176.561293 
L 511.396732 176.561293 
L 511.444842 167.436541 
L 511.780686 167.436541 
L 511.780686 162.874165 
L 512.114921 162.874165 
L 512.114921 158.311788 
L 513.7625 158.311788 
L 513.7625 153.749412 
L 513.878709 153.749412 
L 513.878709 149.187036 
L 515.34934 149.187036 
L 515.34934 144.62466 
L 520.751102 144.62466 
L 520.751102 140.062283 
L 521.212552 140.062283 
L 521.212552 135.499907 
L 521.9625 135.499907 
L 521.9625 135.499907 
" style="fill:none;stroke:#f5deb3;stroke-linecap:square;"/>
   </g>
   <g id="line2d_8">
    <path clip-path="url(#p8a2e8048dc)" d="M 857.480074 359.056343 
" style="fill:none;stroke:#f5deb3;stroke-linecap:square;"/>
   </g>
   <g id="line2d_9">
    <path clip-path="url(#p8a2e8048dc)" d="M 481.704427 359.056343 
L 481.704427 354.493967 
L 483.450014 354.493967 
L 483.450014 349.93159 
L 484.801622 349.93159 
L 484.801622 345.369214 
L 487.020459 345.369214 
L 487.020459 340.806838 
L 487.598169 340.806838 
L 487.598169 336.244462 
L 487.80093 336.244462 
L 487.80093 331.682085 
L 488.905704 331.682085 
L 488.905704 327.119709 
L 490.091294 327.119709 
L 490.091294 322.557333 
L 490.870643 322.557333 
L 490.870643 317.994957 
L 491.257078 317.994957 
L 491.257078 313.43258 
L 491.385415 313.43258 
L 491.481514 299.745452 
L 492.498413 299.745452 
L 492.498413 295.183075 
L 492.907333 295.183075 
L 492.907333 290.620699 
L 493.220264 290.620699 
L 493.25148 281.495947 
L 493.500707 281.495947 
L 493.500707 276.933571 
L 493.718052 276.933571 
L 493.718052 272.371194 
L 494.150724 272.371194 
L 494.150724 267.808818 
L 494.304601 267.808818 
L 494.304601 263.246442 
L 495.220809 263.246442 
L 495.220809 258.684066 
L 495.975232 258.684066 
L 495.975232 254.121689 
L 496.334479 254.121689 
L 496.334479 249.559313 
L 496.632445 249.559313 
L 496.632445 244.996937 
L 497.106559 244.996937 
L 497.165598 235.872184 
L 497.254062 235.872184 
L 497.254062 231.309808 
L 497.665418 231.309808 
L 497.753251 222.185056 
L 497.782505 222.185056 
L 497.811746 208.497927 
L 497.899395 208.497927 
L 497.899395 203.935551 
L 498.365008 203.935551 
L 498.365008 199.373175 
L 498.798716 199.373175 
L 498.827535 190.248422 
L 499.88553 190.248422 
L 499.970615 181.12367 
L 500.787794 181.12367 
L 500.787794 176.561293 
L 501.401402 176.561293 
L 501.401402 171.998917 
L 501.540109 171.998917 
L 501.540109 167.436541 
L 502.311814 167.436541 
L 502.311814 162.874165 
L 502.476075 162.874165 
L 502.476075 158.311788 
L 502.939392 158.311788 
L 502.939392 153.749412 
L 504.683063 153.749412 
L 504.683063 149.187036 
L 504.815405 149.187036 
L 504.841843 140.062283 
L 506.590763 140.062283 
L 506.590763 135.499907 
L 507.791973 135.499907 
L 507.791973 130.937531 
L 516.856407 130.937531 
L 516.856407 126.375155 
L 518.004043 126.375155 
L 518.004043 121.812778 
L 519.262218 121.812778 
L 519.262218 117.250402 
L 521.358739 117.250402 
L 521.358739 112.688026 
L 521.774737 112.688026 
L 521.774737 108.12565 
L 521.9625 108.12565 
L 521.9625 108.12565 
" style="fill:none;stroke:#f5deb3;stroke-linecap:square;"/>
   </g>
   <g id="line2d_10">
    <path clip-path="url(#p8a2e8048dc)" d="M 837.885719 359.056343 
" style="fill:none;stroke:#f5deb3;stroke-linecap:square;"/>
   </g>
   <g id="line2d_11">
    <path clip-path="url(#p8a2e8048dc)" d="M 979.181532 359.056343 
" style="fill:none;stroke:#f5deb3;stroke-linecap:square;"/>
   </g>
   <g id="line2d_12">
    <path clip-path="url(#p8a2e8048dc)" d="M 424.513909 359.056343 
L 424.513909 354.493967 
L 508.422589 354.493967 
L 508.422589 349.93159 
L 512.660571 349.93159 
L 512.660571 345.369214 
L 521.9625 345.369214 
" style="fill:none;stroke:#f5deb3;stroke-linecap:square;"/>
   </g>
   <g id="line2d_13"/>
   <g id="line2d_14">
    <path clip-path="url(#p8a2e8048dc)" d="M 471.10665 359.056343 
L 471.10665 354.493967 
L 480.515963 354.493967 
L 480.515963 349.93159 
L 500.112192 349.93159 
L 500.112192 345.369214 
L 502.476075 345.369214 
L 502.476075 340.806838 
L 510.74398 340.806838 
L 510.74398 336.244462 
L 511.324505 336.244462 
L 511.324505 331.682085 
L 515.915492 331.682085 
L 515.915492 327.119709 
L 521.483799 327.119709 
L 521.483799 322.557333 
L 521.9625 322.557333 
" style="fill:none;stroke:#f5deb3;stroke-linecap:square;"/>
   </g>
   <g id="line2d_15"/>
   <g id="line2d_16"/>
   <g id="line2d_17">
    <path clip-path="url(#p8a2e8048dc)" d="M 585.662752 359.056343 
" style="fill:none;stroke:#f5deb3;stroke-linecap:square;"/>
   </g>
   <g id="line2d_18">
    <path clip-path="url(#p8a2e8048dc)" d="M 355.14282 359.056343 
L 355.14282 354.493967 
L 403.850976 354.493967 
L 403.850976 349.93159 
L 406.062999 349.93159 
L 406.062999 345.369214 
L 417.762473 345.369214 
L 417.762473 340.806838 
L 419.129927 340.806838 
L 419.129927 336.244462 
L 440.56869 336.244462 
L 440.56869 331.682085 
L 446.485547 331.682085 
L 446.485547 327.119709 
L 470.070242 327.119709 
L 470.070242 322.557333 
L 475.829708 322.557333 
L 475.829708 317.994957 
L 498.885136 317.994957 
L 498.885136 313.43258 
L 499.771923 313.43258 
L 499.771923 308.870204 
L 510.109581 308.870204 
L 510.109581 304.307828 
L 516.499458 304.307828 
L 516.499458 299.745452 
L 519.240717 299.745452 
L 519.240717 295.183075 
L 519.519722 295.183075 
L 519.519722 290.620699 
L 519.690865 290.620699 
L 519.690865 286.058323 
L 521.9625 286.058323 
" style="fill:none;stroke:#f5deb3;stroke-linecap:square;"/>
   </g>
   <g id="line2d_19">
    <path clip-path="url(#p8a2e8048dc)" d="M 1015.371238 359.056343 
" style="fill:none;stroke:#f5deb3;stroke-linecap:square;"/>
   </g>
   <g id="line2d_20">
    <path clip-path="url(#p8a2e8048dc)" d="M 380.751798 359.056343 
L 380.751798 354.493967 
L 388.447599 354.493967 
L 388.447599 349.93159 
L 394.484515 349.93159 
L 394.484515 345.369214 
L 395.884048 345.369214 
L 395.884048 340.806838 
L 398.722671 340.806838 
L 398.722671 331.682085 
L 399.204769 331.682085 
L 399.204769 327.119709 
L 400.395643 327.119709 
L 400.395643 322.557333 
L 400.983544 322.557333 
L 400.983544 317.994957 
L 403.400031 317.994957 
L 403.400031 313.43258 
L 403.513041 313.43258 
L 403.513041 308.870204 
L 405.296741 308.870204 
L 405.296741 304.307828 
L 406.71316 304.307828 
L 406.71316 299.745452 
L 411.203399 299.745452 
L 411.203399 295.183075 
L 412.704177 295.183075 
L 412.704177 286.058323 
L 416.179591 286.058323 
L 416.179591 281.495947 
L 419.400231 281.495947 
L 419.400231 276.933571 
L 424.430286 276.933571 
L 424.430286 267.808818 
L 425.013554 267.808818 
L 425.013554 263.246442 
L 426.002238 263.246442 
L 426.002238 258.684066 
L 426.734666 258.684066 
L 426.734666 254.121689 
L 427.938552 254.121689 
L 427.938552 249.559313 
L 431.506039 249.559313 
L 431.506039 244.996937 
L 432.630999 244.996937 
L 432.630999 240.434561 
L 433.957441 240.434561 
L 433.957441 235.872184 
L 435.330749 235.872184 
L 435.330749 231.309808 
L 439.767339 231.309808 
L 439.767339 226.747432 
L 439.968541 226.747432 
L 440.03548 217.622679 
L 440.701358 217.622679 
L 440.701358 213.060303 
L 442.209185 213.060303 
L 442.27401 203.935551 
L 445.254766 203.935551 
L 445.254766 199.373175 
L 450.168594 199.373175 
L 450.168594 194.810798 
L 450.916795 194.810798 
L 450.916795 190.248422 
L 453.996389 190.248422 
L 453.996389 185.686046 
L 454.160521 185.686046 
L 454.160521 181.12367 
L 462.154811 181.12367 
L 462.154811 176.561293 
L 463.218752 176.561293 
L 463.218752 171.998917 
L 463.458311 171.998917 
L 463.458311 167.436541 
L 464.643923 167.436541 
L 464.643923 162.874165 
L 465.252572 162.874165 
L 465.252572 158.311788 
L 465.392279 158.311788 
L 465.392279 153.749412 
L 475.869756 153.749412 
L 475.869756 149.187036 
L 484.483863 149.187036 
L 484.483863 144.62466 
L 485.572331 144.62466 
L 485.572331 140.062283 
L 489.369164 140.062283 
L 489.369164 135.499907 
L 496.304612 135.499907 
L 496.304612 130.937531 
L 497.254062 130.937531 
L 497.254062 126.375155 
L 500.8438 126.375155 
L 500.8438 121.812778 
L 508.019652 121.812778 
L 508.019652 117.250402 
L 511.90024 117.250402 
L 511.90024 112.688026 
L 515.666951 112.688026 
L 515.666951 108.12565 
L 516.297868 108.12565 
L 516.297868 103.563274 
L 521.9625 103.563274 
L 521.9625 103.563274 
" style="fill:none;stroke:#f5deb3;stroke-linecap:square;"/>
   </g>
   <g id="line2d_21"/>
   <g id="line2d_22">
    <path clip-path="url(#p8a2e8048dc)" d="M 378.364445 359.056343 
L 378.364445 354.493967 
L 381.838549 354.493967 
L 381.838549 349.93159 
L 389.144742 349.93159 
L 389.144742 345.369214 
L 389.972224 345.369214 
L 389.972224 340.806838 
L 391.060487 340.806838 
L 391.060487 336.244462 
L 391.329922 336.244462 
L 391.329922 331.682085 
L 391.998992 331.682085 
L 391.998992 327.119709 
L 392.7935 327.119709 
L 392.7935 322.557333 
L 392.925042 322.557333 
L 392.925042 317.994957 
L 394.484515 317.994957 
L 394.484515 313.43258 
L 396.009897 313.43258 
L 396.009897 308.870204 
L 398.722671 308.870204 
L 398.722671 304.307828 
L 400.631398 304.307828 
L 400.631398 299.745452 
L 402.832221 299.745452 
L 402.832221 295.183075 
L 403.850976 295.183075 
L 403.850976 290.620699 
L 404.07536 290.620699 
L 404.07536 286.058323 
L 404.521976 286.058323 
L 404.521976 281.495947 
L 408.312546 281.495947 
L 408.312546 276.933571 
L 410.081946 276.933571 
L 410.081946 272.371194 
L 411.405378 272.371194 
L 411.405378 267.808818 
L 413.000498 267.808818 
L 413.000498 263.246442 
L 424.094787 263.246442 
L 424.094787 258.684066 
L 425.013554 258.684066 
L 425.013554 254.121689 
L 425.920381 254.121689 
L 425.920381 249.559313 
L 429.43425 249.559313 
L 429.43425 244.996937 
L 432.332779 244.996937 
L 432.332779 240.434561 
L 435.971949 240.434561 
L 435.971949 235.872184 
L 437.65356 235.872184 
L 437.65356 231.309808 
L 440.56869 231.309808 
L 440.56869 226.747432 
L 446.54652 226.747432 
L 446.54652 222.185056 
L 449.060433 222.185056 
L 449.060433 217.622679 
L 449.878675 217.622679 
L 449.878675 213.060303 
L 451.202442 213.060303 
L 451.202442 208.497927 
L 451.657059 208.497927 
L 451.657059 203.935551 
L 454.105854 203.935551 
L 454.105854 199.373175 
L 455.620593 199.373175 
L 455.620593 194.810798 
L 460.727092 194.810798 
L 460.727092 190.248422 
L 467.138105 190.248422 
L 467.138105 185.686046 
L 468.30794 185.686046 
L 468.30794 181.12367 
L 469.326695 181.12367 
L 469.326695 176.561293 
L 472.758657 176.561293 
L 472.758657 171.998917 
L 476.189314 171.998917 
L 476.189314 167.436541 
L 479.914053 167.436541 
L 479.914053 162.874165 
L 481.593865 162.874165 
L 481.593865 158.311788 
L 483.41409 158.311788 
L 483.41409 153.749412 
L 485.432834 153.749412 
L 485.432834 149.187036 
L 485.572331 149.187036 
L 485.676772 140.062283 
L 487.258919 140.062283 
L 487.258919 135.499907 
L 488.37224 135.499907 
L 488.37224 130.937531 
L 489.698332 130.937531 
L 489.698332 126.375155 
L 495.58395 126.375155 
L 495.614127 117.250402 
L 499.857146 117.250402 
L 499.857146 112.688026 
L 501.927028 112.688026 
L 501.927028 108.12565 
L 502.721743 108.12565 
L 502.721743 103.563274 
L 506.873756 103.563274 
L 506.873756 99.000897 
L 507.893255 99.000897 
L 507.893255 94.438521 
L 508.648223 94.438521 
L 508.648223 89.876145 
L 509.19672 89.876145 
L 509.19672 85.313769 
L 509.617626 85.313769 
L 509.617626 80.751392 
L 510.305395 80.751392 
L 510.403097 71.62664 
L 515.030278 71.62664 
L 515.030278 67.064264 
L 521.9625 67.064264 
L 521.9625 67.064264 
" style="fill:none;stroke:#f5deb3;stroke-linecap:square;"/>
   </g>
   <g id="line2d_23">
    <path clip-path="url(#p8a2e8048dc)" d="M 850.447165 359.056343 
" style="fill:none;stroke:#f5deb3;stroke-linecap:square;"/>
   </g>
   <g id="line2d_24">
    <path clip-path="url(#p8a2e8048dc)" d="M 458.964154 359.056343 
L 458.964154 354.493967 
L 462.203526 354.493967 
L 462.203526 349.93159 
L 470.417425 349.93159 
L 470.417425 345.369214 
L 471.406058 345.369214 
L 471.406058 340.806838 
L 471.576574 340.806838 
L 471.576574 336.244462 
L 471.789134 336.244462 
L 471.789134 331.682085 
L 472.632959 331.682085 
L 472.632959 327.119709 
L 473.300749 327.119709 
L 473.300749 322.557333 
L 478.037731 322.557333 
L 478.076532 313.43258 
L 478.655972 313.43258 
L 478.655972 308.870204 
L 479.23064 308.870204 
L 479.23064 304.307828 
L 480.027307 304.307828 
L 480.027307 299.745452 
L 481.261122 299.745452 
L 481.261122 295.183075 
L 481.961728 295.183075 
L 481.961728 290.620699 
L 483.557677 290.620699 
L 483.557677 286.058323 
L 484.200189 286.058323 
L 484.200189 281.495947 
L 486.196641 281.495947 
L 486.196641 276.933571 
L 487.496567 276.933571 
L 487.598169 267.808818 
L 489.731163 267.808818 
L 489.731163 263.246442 
L 491.769018 263.246442 
L 491.769018 258.684066 
L 492.970031 258.684066 
L 492.970031 254.121689 
L 495.342066 254.121689 
L 495.342066 249.559313 
L 495.64429 249.559313 
L 495.64429 244.996937 
L 495.794913 244.996937 
L 495.794913 240.434561 
L 496.24484 240.434561 
L 496.24484 235.872184 
L 497.136085 235.872184 
L 497.136085 231.309808 
L 497.312976 231.309808 
L 497.312976 226.747432 
L 497.782505 226.747432 
L 497.782505 222.185056 
L 497.899395 222.185056 
L 497.899395 217.622679 
L 498.798716 217.622679 
L 498.798716 213.060303 
L 499.913903 213.060303 
L 499.913903 208.497927 
L 500.309919 208.497927 
L 500.309919 203.935551 
L 501.982127 203.935551 
L 501.982127 199.373175 
L 503.345662 199.373175 
L 503.345662 194.810798 
L 503.856898 194.810798 
L 503.964052 185.686046 
L 506.073271 185.686046 
L 506.073271 181.12367 
L 508.044904 181.12367 
L 508.044904 176.561293 
L 508.92301 176.561293 
L 508.92301 171.998917 
L 510.476284 171.998917 
L 510.476284 167.436541 
L 511.324505 167.436541 
L 511.324505 162.874165 
L 511.540962 162.874165 
L 511.540962 158.311788 
L 515.189991 158.311788 
L 515.189991 153.749412 
L 516.409934 153.749412 
L 516.409934 149.187036 
L 519.283713 149.187036 
L 519.283713 144.62466 
L 520.222997 144.62466 
L 520.222997 140.062283 
L 521.191643 140.062283 
L 521.191643 135.499907 
L 521.9625 135.499907 
L 521.9625 135.499907 
" style="fill:none;stroke:#f5deb3;stroke-linecap:square;"/>
   </g>
   <g id="line2d_25"/>
   <g id="line2d_26">
    <path clip-path="url(#p8a2e8048dc)" d="M 544.435438 359.056343 
" style="fill:none;stroke:#f5deb3;stroke-linecap:square;"/>
   </g>
   <g id="line2d_27"/>
   <g id="line2d_28">
    <path clip-path="url(#p8a2e8048dc)" d="M 447.814796 359.056343 
L 447.814796 354.493967 
L 448.529309 354.493967 
L 448.529309 349.93159 
L 450.341969 349.93159 
L 450.341969 345.369214 
L 453.335973 345.369214 
L 453.335973 340.806838 
L 453.83187 340.806838 
L 453.83187 336.244462 
L 454.542002 336.244462 
L 454.542002 331.682085 
L 456.945803 331.682085 
L 456.945803 327.119709 
L 459.725159 327.119709 
L 459.725159 322.557333 
L 459.976994 322.557333 
L 459.976994 317.994957 
L 462.154811 317.994957 
L 462.154811 313.43258 
L 463.026511 313.43258 
L 463.026511 308.870204 
L 463.410465 308.870204 
L 463.410465 304.307828 
L 465.159279 304.307828 
L 465.159279 299.745452 
L 466.72855 299.745452 
L 466.72855 295.183075 
L 467.001854 295.183075 
L 467.001854 290.620699 
L 467.545271 290.620699 
L 467.545271 286.058323 
L 467.815401 286.058323 
L 467.815401 281.495947 
L 468.486186 281.495947 
L 468.486186 276.933571 
L 469.01821 276.933571 
L 469.01821 272.371194 
L 469.502361 272.371194 
L 469.502361 267.808818 
L 469.808718 267.808818 
L 469.808718 263.246442 
L 470.934981 263.246442 
L 470.934981 258.684066 
L 471.277898 258.684066 
L 471.277898 254.121689 
L 471.533984 254.121689 
L 471.533984 249.559313 
L 473.259199 249.559313 
L 473.259199 244.996937 
L 474.208648 244.996937 
L 474.208648 240.434561 
L 474.535887 240.434561 
L 474.535887 235.872184 
L 476.268976 235.872184 
L 476.268976 231.309808 
L 477.49224 231.309808 
L 477.49224 226.747432 
L 479.00134 226.747432 
L 479.00134 222.185056 
L 479.724886 222.185056 
L 479.724886 217.622679 
L 481.224052 217.622679 
L 481.224052 213.060303 
L 483.234189 213.060303 
L 483.234189 208.497927 
L 484.129091 208.497927 
L 484.129091 203.935551 
L 484.554601 203.935551 
L 484.554601 199.373175 
L 484.87204 199.373175 
L 484.87204 194.810798 
L 487.020459 194.810798 
L 487.020459 190.248422 
L 487.292918 190.248422 
L 487.292918 185.686046 
L 488.10397 185.686046 
L 488.10397 181.12367 
L 488.37224 181.12367 
L 488.37224 176.561293 
L 489.038436 176.561293 
L 489.038436 171.998917 
L 489.369164 171.998917 
L 489.369164 167.436541 
L 489.632622 167.436541 
L 489.632622 162.874165 
L 490.449577 162.874165 
L 490.449577 158.311788 
L 491.673315 158.311788 
L 491.673315 153.749412 
L 492.435289 153.749412 
L 492.435289 149.187036 
L 493.063974 149.187036 
L 493.063974 144.62466 
L 493.25148 144.62466 
L 493.345044 135.499907 
L 493.376204 135.499907 
L 493.376204 130.937531 
L 494.611342 130.937531 
L 494.611342 126.375155 
L 496.304612 126.375155 
L 496.304612 121.812778 
L 498.074364 121.812778 
L 498.074364 117.250402 
L 498.596654 117.250402 
L 498.596654 112.688026 
L 499.82875 112.688026 
L 499.82875 108.12565 
L 500.225248 108.12565 
L 500.225248 103.563274 
L 502.393992 103.563274 
L 502.393992 99.000897 
L 503.534448 99.000897 
L 503.534448 94.438521 
L 504.204546 94.438521 
L 504.204546 89.876145 
L 504.73603 89.876145 
L 504.73603 85.313769 
L 506.719538 85.313769 
L 506.719538 80.751392 
L 507.308864 80.751392 
L 507.308864 76.189016 
L 507.969121 76.189016 
L 507.969121 71.62664 
L 508.798241 71.62664 
L 508.798241 67.064264 
L 509.345565 67.064264 
L 509.345565 62.501887 
L 510.889565 62.501887 
L 510.889565 57.939511 
L 513.878709 57.939511 
L 513.878709 53.377135 
L 514.456869 53.377135 
L 514.456869 48.814759 
L 515.212778 48.814759 
L 515.212778 44.252382 
L 521.9625 44.252382 
L 521.9625 44.252382 
" style="fill:none;stroke:#f5deb3;stroke-linecap:square;"/>
   </g>
   <g id="line2d_29">
    <path clip-path="url(#p8a2e8048dc)" d="M 562.607953 359.056343 
" style="fill:none;stroke:#f5deb3;stroke-linecap:square;"/>
   </g>
   <g id="line2d_30"/>
   <g id="line2d_31">
    <path clip-path="url(#p8a2e8048dc)" d="M 51.790767 359.056343 
L 51.790767 354.493967 
L 51.790767 354.493967 
L 51.790767 349.93159 
L 80.085532 349.93159 
L 80.085532 345.369214 
L 80.085532 345.369214 
L 80.085532 340.806838 
L 115.732721 340.806838 
L 115.732721 336.244462 
L 148.531209 336.244462 
L 148.531209 331.682085 
L 152.761806 331.682085 
L 152.761806 327.119709 
L 160.523518 327.119709 
L 160.523518 322.557333 
L 199.048783 322.557333 
L 199.048783 317.994957 
L 201.132027 317.994957 
L 201.132027 313.43258 
L 212.473163 313.43258 
L 212.473163 308.870204 
L 254.453507 308.870204 
L 254.453507 304.307828 
L 259.965593 304.307828 
L 259.965593 299.745452 
L 270.596459 299.745452 
L 270.596459 295.183075 
L 305.173562 295.183075 
L 305.173562 290.620699 
L 378.526168 290.620699 
L 378.526168 286.058323 
L 408.41788 286.058323 
L 408.41788 281.495947 
L 409.046564 281.495947 
L 409.046564 276.933571 
L 415.135903 276.933571 
L 415.135903 272.371194 
L 417.485737 272.371194 
L 417.485737 267.808818 
L 419.848424 267.808818 
L 419.848424 263.246442 
L 420.471098 263.246442 
L 420.471098 258.684066 
L 420.736267 258.684066 
L 420.736267 254.121689 
L 424.178813 254.121689 
L 424.178813 249.559313 
L 425.756377 249.559313 
L 425.756377 244.996937 
L 426.002238 244.996937 
L 426.002238 240.434561 
L 430.439459 240.434561 
L 430.439459 235.872184 
L 432.556563 235.872184 
L 432.556563 231.309808 
L 433.957441 231.309808 
L 433.957441 226.747432 
L 436.255047 226.747432 
L 436.255047 222.185056 
L 436.255047 222.185056 
L 436.255047 222.185056 
L 513.7625 222.185056 
" style="fill:none;stroke:#000000;stroke-linecap:square;"/>
   </g>
   <g id="line2d_32"/>
   <g id="line2d_33">
    <path clip-path="url(#p8a2e8048dc)" d="M 320.467457 359.056343 
L 320.467457 354.493967 
L 358.450713 354.493967 
L 358.450713 349.93159 
L 368.837678 349.93159 
L 368.837678 345.369214 
L 369.023026 345.369214 
L 369.023026 340.806838 
L 373.503607 340.806838 
L 373.503607 336.244462 
L 379.965054 336.244462 
L 379.965054 331.682085 
L 379.965054 331.682085 
L 379.965054 327.119709 
L 381.838549 327.119709 
L 381.838549 322.557333 
L 382.452034 322.557333 
L 382.452034 317.994957 
L 387.317477 317.994957 
L 387.317477 313.43258 
L 394.227011 313.43258 
L 394.227011 308.870204 
L 400.631398 308.870204 
L 400.631398 304.307828 
L 400.866359 304.307828 
L 400.866359 299.745452 
L 407.14326 299.745452 
L 407.14326 295.183075 
L 407.889615 295.183075 
L 407.889615 290.620699 
L 442.144301 290.620699 
L 442.144301 286.058323 
L 460.527853 286.058323 
L 460.527853 281.495947 
L 460.527853 281.495947 
L 460.527853 281.495947 
L 513.7625 281.495947 
" style="fill:none;stroke:#00bfbf;stroke-linecap:square;"/>
   </g>
   <g id="line2d_34"/>
   <g id="line2d_35"/>
   <g id="line2d_36"/>
   <g id="line2d_37">
    <path clip-path="url(#p8a2e8048dc)" d="M 513.7625 359.056343 
L 513.7625 13.456343 
" style="fill:none;stroke:#000000;stroke-linecap:square;"/>
   </g>
   <g id="patch_3">
    <path d="M 67.3625 13.456343 
L 513.7625 13.456343 
" style="fill:none;stroke:#000000;stroke-linecap:square;stroke-linejoin:miter;"/>
   </g>
   <g id="patch_4">
    <path d="M 513.7625 359.056343 
L 513.7625 13.456343 
" style="fill:none;stroke:#000000;stroke-linecap:square;stroke-linejoin:miter;"/>
   </g>
   <g id="patch_5">
    <path d="M 67.3625 359.056343 
L 513.7625 359.056343 
" style="fill:none;stroke:#000000;stroke-linecap:square;stroke-linejoin:miter;"/>
   </g>
   <g id="patch_6">
    <path d="M 67.3625 359.056343 
L 67.3625 13.456343 
" style="fill:none;stroke:#000000;stroke-linecap:square;stroke-linejoin:miter;"/>
   </g>
   <g id="matplotlib.axis_1">
    <g id="xtick_1">
     <g id="line2d_38">
      <path clip-path="url(#p8a2e8048dc)" d="M 67.3625 359.056343 
L 67.3625 13.456343 
" style="fill:none;stroke:#000000;stroke-dasharray:1.000000,3.000000;stroke-dashoffset:0.0;stroke-width:0.5;"/>
     </g>
     <g id="line2d_39">
      <defs>
       <path d="M 0 0 
L 0 -4 
" id="mee6d927446" style="stroke:#000000;stroke-width:0.5;"/>
      </defs>
      <g>
       <use style="stroke:#000000;stroke-width:0.5;" x="67.3625" xlink:href="#mee6d927446" y="359.056342822"/>
      </g>
     </g>
     <g id="line2d_40">
      <defs>
       <path d="M 0 0 
L 0 4 
" id="m3df09d7757" style="stroke:#000000;stroke-width:0.5;"/>
      </defs>
      <g>
       <use style="stroke:#000000;stroke-width:0.5;" x="67.3625" xlink:href="#m3df09d7757" y="13.4563428218"/>
      </g>
     </g>
     <g id="text_1">
      <!-- 0 -->
      <defs>
       <path d="M 31.78125 66.40625 
Q 24.171875 66.40625 20.328125 58.90625 
Q 16.5 51.421875 16.5 36.375 
Q 16.5 21.390625 20.328125 13.890625 
Q 24.171875 6.390625 31.78125 6.390625 
Q 39.453125 6.390625 43.28125 13.890625 
Q 47.125 21.390625 47.125 36.375 
Q 47.125 51.421875 43.28125 58.90625 
Q 39.453125 66.40625 31.78125 66.40625 
M 31.78125 74.21875 
Q 44.046875 74.21875 50.515625 64.515625 
Q 56.984375 54.828125 56.984375 36.375 
Q 56.984375 17.96875 50.515625 8.265625 
Q 44.046875 -1.421875 31.78125 -1.421875 
Q 19.53125 -1.421875 13.0625 8.265625 
Q 6.59375 17.96875 6.59375 36.375 
Q 6.59375 54.828125 13.0625 64.515625 
Q 19.53125 74.21875 31.78125 74.21875 
" id="BitstreamVeraSans-Roman-30"/>
      </defs>
      <g transform="translate(61.0 378.253217822)scale(0.2 -0.2)">
       <use xlink:href="#BitstreamVeraSans-Roman-30"/>
      </g>
     </g>
    </g>
    <g id="xtick_2">
     <g id="line2d_41">
      <path clip-path="url(#p8a2e8048dc)" d="M 228.044896 359.056343 
L 228.044896 13.456343 
" style="fill:none;stroke:#000000;stroke-dasharray:1.000000,3.000000;stroke-dashoffset:0.0;stroke-width:0.5;"/>
     </g>
     <g id="line2d_42">
      <g>
       <use style="stroke:#000000;stroke-width:0.5;" x="228.04489623" xlink:href="#mee6d927446" y="359.056342822"/>
      </g>
     </g>
     <g id="line2d_43">
      <g>
       <use style="stroke:#000000;stroke-width:0.5;" x="228.04489623" xlink:href="#m3df09d7757" y="13.4563428218"/>
      </g>
     </g>
     <g id="text_2">
      <!-- 1 -->
      <defs>
       <path d="M 12.40625 8.296875 
L 28.515625 8.296875 
L 28.515625 63.921875 
L 10.984375 60.40625 
L 10.984375 69.390625 
L 28.421875 72.90625 
L 38.28125 72.90625 
L 38.28125 8.296875 
L 54.390625 8.296875 
L 54.390625 0 
L 12.40625 0 
z
" id="BitstreamVeraSans-Roman-31"/>
      </defs>
      <g transform="translate(221.68239623 378.253217822)scale(0.2 -0.2)">
       <use xlink:href="#BitstreamVeraSans-Roman-31"/>
      </g>
     </g>
    </g>
    <g id="xtick_3">
     <g id="line2d_44">
      <path clip-path="url(#p8a2e8048dc)" d="M 388.727292 359.056343 
L 388.727292 13.456343 
" style="fill:none;stroke:#000000;stroke-dasharray:1.000000,3.000000;stroke-dashoffset:0.0;stroke-width:0.5;"/>
     </g>
     <g id="line2d_45">
      <g>
       <use style="stroke:#000000;stroke-width:0.5;" x="388.727292459" xlink:href="#mee6d927446" y="359.056342822"/>
      </g>
     </g>
     <g id="line2d_46">
      <g>
       <use style="stroke:#000000;stroke-width:0.5;" x="388.727292459" xlink:href="#m3df09d7757" y="13.4563428218"/>
      </g>
     </g>
     <g id="text_3">
      <!-- 2 -->
      <defs>
       <path d="M 19.1875 8.296875 
L 53.609375 8.296875 
L 53.609375 0 
L 7.328125 0 
L 7.328125 8.296875 
Q 12.9375 14.109375 22.625 23.890625 
Q 32.328125 33.6875 34.8125 36.53125 
Q 39.546875 41.84375 41.421875 45.53125 
Q 43.3125 49.21875 43.3125 52.78125 
Q 43.3125 58.59375 39.234375 62.25 
Q 35.15625 65.921875 28.609375 65.921875 
Q 23.96875 65.921875 18.8125 64.3125 
Q 13.671875 62.703125 7.8125 59.421875 
L 7.8125 69.390625 
Q 13.765625 71.78125 18.9375 73 
Q 24.125 74.21875 28.421875 74.21875 
Q 39.75 74.21875 46.484375 68.546875 
Q 53.21875 62.890625 53.21875 53.421875 
Q 53.21875 48.921875 51.53125 44.890625 
Q 49.859375 40.875 45.40625 35.40625 
Q 44.1875 33.984375 37.640625 27.21875 
Q 31.109375 20.453125 19.1875 8.296875 
" id="BitstreamVeraSans-Roman-32"/>
      </defs>
      <g transform="translate(382.364792459 378.253217822)scale(0.2 -0.2)">
       <use xlink:href="#BitstreamVeraSans-Roman-32"/>
      </g>
     </g>
    </g>
    <g id="xtick_4">
     <g id="line2d_47">
      <defs>
       <path d="M 0 0 
L 0 -2 
" id="mca450b74fa" style="stroke:#000000;stroke-width:0.5;"/>
      </defs>
      <g>
       <use style="stroke:#000000;stroke-width:0.5;" x="115.73272104" xlink:href="#mca450b74fa" y="359.056342822"/>
      </g>
     </g>
     <g id="line2d_48">
      <defs>
       <path d="M 0 0 
L 0 2 
" id="mab8cb6ca41" style="stroke:#000000;stroke-width:0.5;"/>
      </defs>
      <g>
       <use style="stroke:#000000;stroke-width:0.5;" x="115.73272104" xlink:href="#mab8cb6ca41" y="13.4563428218"/>
      </g>
     </g>
    </g>
    <g id="xtick_5">
     <g id="line2d_49">
      <g>
       <use style="stroke:#000000;stroke-width:0.5;" x="144.0274865" xlink:href="#mca450b74fa" y="359.056342822"/>
      </g>
     </g>
     <g id="line2d_50">
      <g>
       <use style="stroke:#000000;stroke-width:0.5;" x="144.0274865" xlink:href="#mab8cb6ca41" y="13.4563428218"/>
      </g>
     </g>
    </g>
    <g id="xtick_6">
     <g id="line2d_51">
      <g>
       <use style="stroke:#000000;stroke-width:0.5;" x="164.102942081" xlink:href="#mca450b74fa" y="359.056342822"/>
      </g>
     </g>
     <g id="line2d_52">
      <g>
       <use style="stroke:#000000;stroke-width:0.5;" x="164.102942081" xlink:href="#mab8cb6ca41" y="13.4563428218"/>
      </g>
     </g>
    </g>
    <g id="xtick_7">
     <g id="line2d_53">
      <g>
       <use style="stroke:#000000;stroke-width:0.5;" x="179.674675189" xlink:href="#mca450b74fa" y="359.056342822"/>
      </g>
     </g>
     <g id="line2d_54">
      <g>
       <use style="stroke:#000000;stroke-width:0.5;" x="179.674675189" xlink:href="#mab8cb6ca41" y="13.4563428218"/>
      </g>
     </g>
    </g>
    <g id="xtick_8">
     <g id="line2d_55">
      <g>
       <use style="stroke:#000000;stroke-width:0.5;" x="192.397707541" xlink:href="#mca450b74fa" y="359.056342822"/>
      </g>
     </g>
     <g id="line2d_56">
      <g>
       <use style="stroke:#000000;stroke-width:0.5;" x="192.397707541" xlink:href="#mab8cb6ca41" y="13.4563428218"/>
      </g>
     </g>
    </g>
    <g id="xtick_9">
     <g id="line2d_57">
      <g>
       <use style="stroke:#000000;stroke-width:0.5;" x="203.154878118" xlink:href="#mca450b74fa" y="359.056342822"/>
      </g>
     </g>
     <g id="line2d_58">
      <g>
       <use style="stroke:#000000;stroke-width:0.5;" x="203.154878118" xlink:href="#mab8cb6ca41" y="13.4563428218"/>
      </g>
     </g>
    </g>
    <g id="xtick_10">
     <g id="line2d_59">
      <g>
       <use style="stroke:#000000;stroke-width:0.5;" x="212.473163121" xlink:href="#mca450b74fa" y="359.056342822"/>
      </g>
     </g>
     <g id="line2d_60">
      <g>
       <use style="stroke:#000000;stroke-width:0.5;" x="212.473163121" xlink:href="#mab8cb6ca41" y="13.4563428218"/>
      </g>
     </g>
    </g>
    <g id="xtick_11">
     <g id="line2d_61">
      <g>
       <use style="stroke:#000000;stroke-width:0.5;" x="220.692473001" xlink:href="#mca450b74fa" y="359.056342822"/>
      </g>
     </g>
     <g id="line2d_62">
      <g>
       <use style="stroke:#000000;stroke-width:0.5;" x="220.692473001" xlink:href="#mab8cb6ca41" y="13.4563428218"/>
      </g>
     </g>
    </g>
    <g id="xtick_12">
     <g id="line2d_63">
      <g>
       <use style="stroke:#000000;stroke-width:0.5;" x="276.41511727" xlink:href="#mca450b74fa" y="359.056342822"/>
      </g>
     </g>
     <g id="line2d_64">
      <g>
       <use style="stroke:#000000;stroke-width:0.5;" x="276.41511727" xlink:href="#mab8cb6ca41" y="13.4563428218"/>
      </g>
     </g>
    </g>
    <g id="xtick_13">
     <g id="line2d_65">
      <g>
       <use style="stroke:#000000;stroke-width:0.5;" x="304.70988273" xlink:href="#mca450b74fa" y="359.056342822"/>
      </g>
     </g>
     <g id="line2d_66">
      <g>
       <use style="stroke:#000000;stroke-width:0.5;" x="304.70988273" xlink:href="#mab8cb6ca41" y="13.4563428218"/>
      </g>
     </g>
    </g>
    <g id="xtick_14">
     <g id="line2d_67">
      <g>
       <use style="stroke:#000000;stroke-width:0.5;" x="324.78533831" xlink:href="#mca450b74fa" y="359.056342822"/>
      </g>
     </g>
     <g id="line2d_68">
      <g>
       <use style="stroke:#000000;stroke-width:0.5;" x="324.78533831" xlink:href="#mab8cb6ca41" y="13.4563428218"/>
      </g>
     </g>
    </g>
    <g id="xtick_15">
     <g id="line2d_69">
      <g>
       <use style="stroke:#000000;stroke-width:0.5;" x="340.357071419" xlink:href="#mca450b74fa" y="359.056342822"/>
      </g>
     </g>
     <g id="line2d_70">
      <g>
       <use style="stroke:#000000;stroke-width:0.5;" x="340.357071419" xlink:href="#mab8cb6ca41" y="13.4563428218"/>
      </g>
     </g>
    </g>
    <g id="xtick_16">
     <g id="line2d_71">
      <g>
       <use style="stroke:#000000;stroke-width:0.5;" x="353.08010377" xlink:href="#mca450b74fa" y="359.056342822"/>
      </g>
     </g>
     <g id="line2d_72">
      <g>
       <use style="stroke:#000000;stroke-width:0.5;" x="353.08010377" xlink:href="#mab8cb6ca41" y="13.4563428218"/>
      </g>
     </g>
    </g>
    <g id="xtick_17">
     <g id="line2d_73">
      <g>
       <use style="stroke:#000000;stroke-width:0.5;" x="363.837274348" xlink:href="#mca450b74fa" y="359.056342822"/>
      </g>
     </g>
     <g id="line2d_74">
      <g>
       <use style="stroke:#000000;stroke-width:0.5;" x="363.837274348" xlink:href="#mab8cb6ca41" y="13.4563428218"/>
      </g>
     </g>
    </g>
    <g id="xtick_18">
     <g id="line2d_75">
      <g>
       <use style="stroke:#000000;stroke-width:0.5;" x="373.15555935" xlink:href="#mca450b74fa" y="359.056342822"/>
      </g>
     </g>
     <g id="line2d_76">
      <g>
       <use style="stroke:#000000;stroke-width:0.5;" x="373.15555935" xlink:href="#mab8cb6ca41" y="13.4563428218"/>
      </g>
     </g>
    </g>
    <g id="xtick_19">
     <g id="line2d_77">
      <g>
       <use style="stroke:#000000;stroke-width:0.5;" x="381.374869231" xlink:href="#mca450b74fa" y="359.056342822"/>
      </g>
     </g>
     <g id="line2d_78">
      <g>
       <use style="stroke:#000000;stroke-width:0.5;" x="381.374869231" xlink:href="#mab8cb6ca41" y="13.4563428218"/>
      </g>
     </g>
    </g>
    <g id="xtick_20">
     <g id="line2d_79">
      <g>
       <use style="stroke:#000000;stroke-width:0.5;" x="437.0975135" xlink:href="#mca450b74fa" y="359.056342822"/>
      </g>
     </g>
     <g id="line2d_80">
      <g>
       <use style="stroke:#000000;stroke-width:0.5;" x="437.0975135" xlink:href="#mab8cb6ca41" y="13.4563428218"/>
      </g>
     </g>
    </g>
    <g id="xtick_21">
     <g id="line2d_81">
      <g>
       <use style="stroke:#000000;stroke-width:0.5;" x="465.39227896" xlink:href="#mca450b74fa" y="359.056342822"/>
      </g>
     </g>
     <g id="line2d_82">
      <g>
       <use style="stroke:#000000;stroke-width:0.5;" x="465.39227896" xlink:href="#mab8cb6ca41" y="13.4563428218"/>
      </g>
     </g>
    </g>
    <g id="xtick_22">
     <g id="line2d_83">
      <g>
       <use style="stroke:#000000;stroke-width:0.5;" x="485.46773454" xlink:href="#mca450b74fa" y="359.056342822"/>
      </g>
     </g>
     <g id="line2d_84">
      <g>
       <use style="stroke:#000000;stroke-width:0.5;" x="485.46773454" xlink:href="#mab8cb6ca41" y="13.4563428218"/>
      </g>
     </g>
    </g>
    <g id="xtick_23">
     <g id="line2d_85">
      <g>
       <use style="stroke:#000000;stroke-width:0.5;" x="501.039467649" xlink:href="#mca450b74fa" y="359.056342822"/>
      </g>
     </g>
     <g id="line2d_86">
      <g>
       <use style="stroke:#000000;stroke-width:0.5;" x="501.039467649" xlink:href="#mab8cb6ca41" y="13.4563428218"/>
      </g>
     </g>
    </g>
    <g id="xtick_24">
     <g id="line2d_87">
      <g>
       <use style="stroke:#000000;stroke-width:0.5;" x="513.7625" xlink:href="#mca450b74fa" y="359.056342822"/>
      </g>
     </g>
     <g id="line2d_88">
      <g>
       <use style="stroke:#000000;stroke-width:0.5;" x="513.7625" xlink:href="#mab8cb6ca41" y="13.4563428218"/>
      </g>
     </g>
    </g>
    <g id="text_4">
     <!-- log10 of FEvals / DIM -->
     <defs>
      <path id="BitstreamVeraSans-Roman-20"/>
      <path d="M 9.8125 72.90625 
L 24.515625 72.90625 
L 43.109375 23.296875 
L 61.8125 72.90625 
L 76.515625 72.90625 
L 76.515625 0 
L 66.890625 0 
L 66.890625 64.015625 
L 48.09375 14.015625 
L 38.1875 14.015625 
L 19.390625 64.015625 
L 19.390625 0 
L 9.8125 0 
z
" id="BitstreamVeraSans-Roman-4d"/>
      <path d="M 30.609375 48.390625 
Q 23.390625 48.390625 19.1875 42.75 
Q 14.984375 37.109375 14.984375 27.296875 
Q 14.984375 17.484375 19.15625 11.84375 
Q 23.34375 6.203125 30.609375 6.203125 
Q 37.796875 6.203125 41.984375 11.859375 
Q 46.1875 17.53125 46.1875 27.296875 
Q 46.1875 37.015625 41.984375 42.703125 
Q 37.796875 48.390625 30.609375 48.390625 
M 30.609375 56 
Q 42.328125 56 49.015625 48.375 
Q 55.71875 40.765625 55.71875 27.296875 
Q 55.71875 13.875 49.015625 6.21875 
Q 42.328125 -1.421875 30.609375 -1.421875 
Q 18.84375 -1.421875 12.171875 6.21875 
Q 5.515625 13.875 5.515625 27.296875 
Q 5.515625 40.765625 12.171875 48.375 
Q 18.84375 56 30.609375 56 
" id="BitstreamVeraSans-Roman-6f"/>
      <path d="M 9.421875 75.984375 
L 18.40625 75.984375 
L 18.40625 0 
L 9.421875 0 
z
" id="BitstreamVeraSans-Roman-6c"/>
      <path d="M 9.8125 72.90625 
L 51.703125 72.90625 
L 51.703125 64.59375 
L 19.671875 64.59375 
L 19.671875 43.109375 
L 48.578125 43.109375 
L 48.578125 34.8125 
L 19.671875 34.8125 
L 19.671875 0 
L 9.8125 0 
z
" id="BitstreamVeraSans-Roman-46"/>
      <path d="M 9.8125 72.90625 
L 55.90625 72.90625 
L 55.90625 64.59375 
L 19.671875 64.59375 
L 19.671875 43.015625 
L 54.390625 43.015625 
L 54.390625 34.71875 
L 19.671875 34.71875 
L 19.671875 8.296875 
L 56.78125 8.296875 
L 56.78125 0 
L 9.8125 0 
z
" id="BitstreamVeraSans-Roman-45"/>
      <path d="M 19.671875 64.796875 
L 19.671875 8.109375 
L 31.59375 8.109375 
Q 46.6875 8.109375 53.6875 14.9375 
Q 60.6875 21.78125 60.6875 36.53125 
Q 60.6875 51.171875 53.6875 57.984375 
Q 46.6875 64.796875 31.59375 64.796875 
z
M 9.8125 72.90625 
L 30.078125 72.90625 
Q 51.265625 72.90625 61.171875 64.09375 
Q 71.09375 55.28125 71.09375 36.53125 
Q 71.09375 17.671875 61.125 8.828125 
Q 51.171875 0 30.078125 0 
L 9.8125 0 
z
" id="BitstreamVeraSans-Roman-44"/>
      <path d="M 25.390625 72.90625 
L 33.6875 72.90625 
L 8.296875 -9.28125 
L 0 -9.28125 
z
" id="BitstreamVeraSans-Roman-2f"/>
      <path d="M 2.984375 54.6875 
L 12.5 54.6875 
L 29.59375 8.796875 
L 46.6875 54.6875 
L 56.203125 54.6875 
L 35.6875 0 
L 23.484375 0 
z
" id="BitstreamVeraSans-Roman-76"/>
      <path d="M 45.40625 27.984375 
Q 45.40625 37.75 41.375 43.109375 
Q 37.359375 48.484375 30.078125 48.484375 
Q 22.859375 48.484375 18.828125 43.109375 
Q 14.796875 37.75 14.796875 27.984375 
Q 14.796875 18.265625 18.828125 12.890625 
Q 22.859375 7.515625 30.078125 7.515625 
Q 37.359375 7.515625 41.375 12.890625 
Q 45.40625 18.265625 45.40625 27.984375 
M 54.390625 6.78125 
Q 54.390625 -7.171875 48.1875 -13.984375 
Q 42 -20.796875 29.203125 -20.796875 
Q 24.46875 -20.796875 20.265625 -20.09375 
Q 16.0625 -19.390625 12.109375 -17.921875 
L 12.109375 -9.1875 
Q 16.0625 -11.328125 19.921875 -12.34375 
Q 23.78125 -13.375 27.78125 -13.375 
Q 36.625 -13.375 41.015625 -8.765625 
Q 45.40625 -4.15625 45.40625 5.171875 
L 45.40625 9.625 
Q 42.625 4.78125 38.28125 2.390625 
Q 33.9375 0 27.875 0 
Q 17.828125 0 11.671875 7.65625 
Q 5.515625 15.328125 5.515625 27.984375 
Q 5.515625 40.671875 11.671875 48.328125 
Q 17.828125 56 27.875 56 
Q 33.9375 56 38.28125 53.609375 
Q 42.625 51.21875 45.40625 46.390625 
L 45.40625 54.6875 
L 54.390625 54.6875 
z
" id="BitstreamVeraSans-Roman-67"/>
      <path d="M 37.109375 75.984375 
L 37.109375 68.5 
L 28.515625 68.5 
Q 23.6875 68.5 21.796875 66.546875 
Q 19.921875 64.59375 19.921875 59.515625 
L 19.921875 54.6875 
L 34.71875 54.6875 
L 34.71875 47.703125 
L 19.921875 47.703125 
L 19.921875 0 
L 10.890625 0 
L 10.890625 47.703125 
L 2.296875 47.703125 
L 2.296875 54.6875 
L 10.890625 54.6875 
L 10.890625 58.5 
Q 10.890625 67.625 15.140625 71.796875 
Q 19.390625 75.984375 28.609375 75.984375 
z
" id="BitstreamVeraSans-Roman-66"/>
      <path d="M 34.28125 27.484375 
Q 23.390625 27.484375 19.1875 25 
Q 14.984375 22.515625 14.984375 16.5 
Q 14.984375 11.71875 18.140625 8.90625 
Q 21.296875 6.109375 26.703125 6.109375 
Q 34.1875 6.109375 38.703125 11.40625 
Q 43.21875 16.703125 43.21875 25.484375 
L 43.21875 27.484375 
z
M 52.203125 31.203125 
L 52.203125 0 
L 43.21875 0 
L 43.21875 8.296875 
Q 40.140625 3.328125 35.546875 0.953125 
Q 30.953125 -1.421875 24.3125 -1.421875 
Q 15.921875 -1.421875 10.953125 3.296875 
Q 6 8.015625 6 15.921875 
Q 6 25.140625 12.171875 29.828125 
Q 18.359375 34.515625 30.609375 34.515625 
L 43.21875 34.515625 
L 43.21875 35.40625 
Q 43.21875 41.609375 39.140625 45 
Q 35.0625 48.390625 27.6875 48.390625 
Q 23 48.390625 18.546875 47.265625 
Q 14.109375 46.140625 10.015625 43.890625 
L 10.015625 52.203125 
Q 14.9375 54.109375 19.578125 55.046875 
Q 24.21875 56 28.609375 56 
Q 40.484375 56 46.34375 49.84375 
Q 52.203125 43.703125 52.203125 31.203125 
" id="BitstreamVeraSans-Roman-61"/>
      <path d="M 44.28125 53.078125 
L 44.28125 44.578125 
Q 40.484375 46.53125 36.375 47.5 
Q 32.28125 48.484375 27.875 48.484375 
Q 21.1875 48.484375 17.84375 46.4375 
Q 14.5 44.390625 14.5 40.28125 
Q 14.5 37.15625 16.890625 35.375 
Q 19.28125 33.59375 26.515625 31.984375 
L 29.59375 31.296875 
Q 39.15625 29.25 43.1875 25.515625 
Q 47.21875 21.78125 47.21875 15.09375 
Q 47.21875 7.46875 41.1875 3.015625 
Q 35.15625 -1.421875 24.609375 -1.421875 
Q 20.21875 -1.421875 15.453125 -0.5625 
Q 10.6875 0.296875 5.421875 2 
L 5.421875 11.28125 
Q 10.40625 8.6875 15.234375 7.390625 
Q 20.0625 6.109375 24.8125 6.109375 
Q 31.15625 6.109375 34.5625 8.28125 
Q 37.984375 10.453125 37.984375 14.40625 
Q 37.984375 18.0625 35.515625 20.015625 
Q 33.0625 21.96875 24.703125 23.78125 
L 21.578125 24.515625 
Q 13.234375 26.265625 9.515625 29.90625 
Q 5.8125 33.546875 5.8125 39.890625 
Q 5.8125 47.609375 11.28125 51.796875 
Q 16.75 56 26.8125 56 
Q 31.78125 56 36.171875 55.265625 
Q 40.578125 54.546875 44.28125 53.078125 
" id="BitstreamVeraSans-Roman-73"/>
      <path d="M 9.8125 72.90625 
L 19.671875 72.90625 
L 19.671875 0 
L 9.8125 0 
z
" id="BitstreamVeraSans-Roman-49"/>
     </defs>
     <g transform="translate(185.4890625 402.609467822)scale(0.2 -0.2)">
      <use xlink:href="#BitstreamVeraSans-Roman-6c"/>
      <use x="27.783203125" xlink:href="#BitstreamVeraSans-Roman-6f"/>
      <use x="88.96484375" xlink:href="#BitstreamVeraSans-Roman-67"/>
      <use x="152.44140625" xlink:href="#BitstreamVeraSans-Roman-31"/>
      <use x="216.064453125" xlink:href="#BitstreamVeraSans-Roman-30"/>
      <use x="279.6875" xlink:href="#BitstreamVeraSans-Roman-20"/>
      <use x="311.474609375" xlink:href="#BitstreamVeraSans-Roman-6f"/>
      <use x="372.65625" xlink:href="#BitstreamVeraSans-Roman-66"/>
      <use x="407.861328125" xlink:href="#BitstreamVeraSans-Roman-20"/>
      <use x="439.6484375" xlink:href="#BitstreamVeraSans-Roman-46"/>
      <use x="497.16796875" xlink:href="#BitstreamVeraSans-Roman-45"/>
      <use x="560.3515625" xlink:href="#BitstreamVeraSans-Roman-76"/>
      <use x="619.53125" xlink:href="#BitstreamVeraSans-Roman-61"/>
      <use x="680.810546875" xlink:href="#BitstreamVeraSans-Roman-6c"/>
      <use x="708.59375" xlink:href="#BitstreamVeraSans-Roman-73"/>
      <use x="760.693359375" xlink:href="#BitstreamVeraSans-Roman-20"/>
      <use x="792.48046875" xlink:href="#BitstreamVeraSans-Roman-2f"/>
      <use x="826.171875" xlink:href="#BitstreamVeraSans-Roman-20"/>
      <use x="857.958984375" xlink:href="#BitstreamVeraSans-Roman-44"/>
      <use x="934.9609375" xlink:href="#BitstreamVeraSans-Roman-49"/>
      <use x="964.453125" xlink:href="#BitstreamVeraSans-Roman-4d"/>
     </g>
    </g>
   </g>
   <g id="matplotlib.axis_2">
    <g id="ytick_1">
     <g id="line2d_89">
      <path clip-path="url(#p8a2e8048dc)" d="M 67.3625 359.056343 
L 513.7625 359.056343 
" style="fill:none;stroke:#000000;stroke-dasharray:1.000000,3.000000;stroke-dashoffset:0.0;stroke-width:0.5;"/>
     </g>
     <g id="line2d_90">
      <defs>
       <path d="M 0 0 
L 4 0 
" id="mf9fbacef4a" style="stroke:#000000;stroke-width:0.5;"/>
      </defs>
      <g>
       <use style="stroke:#000000;stroke-width:0.5;" x="67.3625" xlink:href="#mf9fbacef4a" y="359.056342822"/>
      </g>
     </g>
     <g id="line2d_91">
      <defs>
       <path d="M 0 0 
L -4 0 
" id="m6d3c5694af" style="stroke:#000000;stroke-width:0.5;"/>
      </defs>
      <g>
       <use style="stroke:#000000;stroke-width:0.5;" x="513.7625" xlink:href="#m6d3c5694af" y="359.056342822"/>
      </g>
     </g>
     <g id="text_5">
      <!-- 0.0 -->
      <defs>
       <path d="M 10.6875 12.40625 
L 21 12.40625 
L 21 0 
L 10.6875 0 
z
" id="BitstreamVeraSans-Roman-2e"/>
      </defs>
      <g transform="translate(31.55625 364.575092822)scale(0.2 -0.2)">
       <use xlink:href="#BitstreamVeraSans-Roman-30"/>
       <use x="63.623046875" xlink:href="#BitstreamVeraSans-Roman-2e"/>
       <use x="95.41015625" xlink:href="#BitstreamVeraSans-Roman-30"/>
      </g>
     </g>
    </g>
    <g id="ytick_2">
     <g id="line2d_92">
      <path clip-path="url(#p8a2e8048dc)" d="M 67.3625 290.620699 
L 513.7625 290.620699 
" style="fill:none;stroke:#000000;stroke-dasharray:1.000000,3.000000;stroke-dashoffset:0.0;stroke-width:0.5;"/>
     </g>
     <g id="line2d_93">
      <g>
       <use style="stroke:#000000;stroke-width:0.5;" x="67.3625" xlink:href="#mf9fbacef4a" y="290.620699257"/>
      </g>
     </g>
     <g id="line2d_94">
      <g>
       <use style="stroke:#000000;stroke-width:0.5;" x="513.7625" xlink:href="#m6d3c5694af" y="290.620699257"/>
      </g>
     </g>
     <g id="text_6">
      <!-- 0.2 -->
      <g transform="translate(31.55625 296.139449257)scale(0.2 -0.2)">
       <use xlink:href="#BitstreamVeraSans-Roman-30"/>
       <use x="63.623046875" xlink:href="#BitstreamVeraSans-Roman-2e"/>
       <use x="95.41015625" xlink:href="#BitstreamVeraSans-Roman-32"/>
      </g>
     </g>
    </g>
    <g id="ytick_3">
     <g id="line2d_95">
      <path clip-path="url(#p8a2e8048dc)" d="M 67.3625 222.185056 
L 513.7625 222.185056 
" style="fill:none;stroke:#000000;stroke-dasharray:1.000000,3.000000;stroke-dashoffset:0.0;stroke-width:0.5;"/>
     </g>
     <g id="line2d_96">
      <g>
       <use style="stroke:#000000;stroke-width:0.5;" x="67.3625" xlink:href="#mf9fbacef4a" y="222.185055693"/>
      </g>
     </g>
     <g id="line2d_97">
      <g>
       <use style="stroke:#000000;stroke-width:0.5;" x="513.7625" xlink:href="#m6d3c5694af" y="222.185055693"/>
      </g>
     </g>
     <g id="text_7">
      <!-- 0.4 -->
      <defs>
       <path d="M 37.796875 64.3125 
L 12.890625 25.390625 
L 37.796875 25.390625 
z
M 35.203125 72.90625 
L 47.609375 72.90625 
L 47.609375 25.390625 
L 58.015625 25.390625 
L 58.015625 17.1875 
L 47.609375 17.1875 
L 47.609375 0 
L 37.796875 0 
L 37.796875 17.1875 
L 4.890625 17.1875 
L 4.890625 26.703125 
z
" id="BitstreamVeraSans-Roman-34"/>
      </defs>
      <g transform="translate(31.55625 227.703805693)scale(0.2 -0.2)">
       <use xlink:href="#BitstreamVeraSans-Roman-30"/>
       <use x="63.623046875" xlink:href="#BitstreamVeraSans-Roman-2e"/>
       <use x="95.41015625" xlink:href="#BitstreamVeraSans-Roman-34"/>
      </g>
     </g>
    </g>
    <g id="ytick_4">
     <g id="line2d_98">
      <path clip-path="url(#p8a2e8048dc)" d="M 67.3625 153.749412 
L 513.7625 153.749412 
" style="fill:none;stroke:#000000;stroke-dasharray:1.000000,3.000000;stroke-dashoffset:0.0;stroke-width:0.5;"/>
     </g>
     <g id="line2d_99">
      <g>
       <use style="stroke:#000000;stroke-width:0.5;" x="67.3625" xlink:href="#mf9fbacef4a" y="153.749412129"/>
      </g>
     </g>
     <g id="line2d_100">
      <g>
       <use style="stroke:#000000;stroke-width:0.5;" x="513.7625" xlink:href="#m6d3c5694af" y="153.749412129"/>
      </g>
     </g>
     <g id="text_8">
      <!-- 0.6 -->
      <defs>
       <path d="M 33.015625 40.375 
Q 26.375 40.375 22.484375 35.828125 
Q 18.609375 31.296875 18.609375 23.390625 
Q 18.609375 15.53125 22.484375 10.953125 
Q 26.375 6.390625 33.015625 6.390625 
Q 39.65625 6.390625 43.53125 10.953125 
Q 47.40625 15.53125 47.40625 23.390625 
Q 47.40625 31.296875 43.53125 35.828125 
Q 39.65625 40.375 33.015625 40.375 
M 52.59375 71.296875 
L 52.59375 62.3125 
Q 48.875 64.0625 45.09375 64.984375 
Q 41.3125 65.921875 37.59375 65.921875 
Q 27.828125 65.921875 22.671875 59.328125 
Q 17.53125 52.734375 16.796875 39.40625 
Q 19.671875 43.65625 24.015625 45.921875 
Q 28.375 48.1875 33.59375 48.1875 
Q 44.578125 48.1875 50.953125 41.515625 
Q 57.328125 34.859375 57.328125 23.390625 
Q 57.328125 12.15625 50.6875 5.359375 
Q 44.046875 -1.421875 33.015625 -1.421875 
Q 20.359375 -1.421875 13.671875 8.265625 
Q 6.984375 17.96875 6.984375 36.375 
Q 6.984375 53.65625 15.1875 63.9375 
Q 23.390625 74.21875 37.203125 74.21875 
Q 40.921875 74.21875 44.703125 73.484375 
Q 48.484375 72.75 52.59375 71.296875 
" id="BitstreamVeraSans-Roman-36"/>
      </defs>
      <g transform="translate(31.55625 159.268162129)scale(0.2 -0.2)">
       <use xlink:href="#BitstreamVeraSans-Roman-30"/>
       <use x="63.623046875" xlink:href="#BitstreamVeraSans-Roman-2e"/>
       <use x="95.41015625" xlink:href="#BitstreamVeraSans-Roman-36"/>
      </g>
     </g>
    </g>
    <g id="ytick_5">
     <g id="line2d_101">
      <path clip-path="url(#p8a2e8048dc)" d="M 67.3625 85.313769 
L 513.7625 85.313769 
" style="fill:none;stroke:#000000;stroke-dasharray:1.000000,3.000000;stroke-dashoffset:0.0;stroke-width:0.5;"/>
     </g>
     <g id="line2d_102">
      <g>
       <use style="stroke:#000000;stroke-width:0.5;" x="67.3625" xlink:href="#mf9fbacef4a" y="85.3137685644"/>
      </g>
     </g>
     <g id="line2d_103">
      <g>
       <use style="stroke:#000000;stroke-width:0.5;" x="513.7625" xlink:href="#m6d3c5694af" y="85.3137685644"/>
      </g>
     </g>
     <g id="text_9">
      <!-- 0.8 -->
      <defs>
       <path d="M 31.78125 34.625 
Q 24.75 34.625 20.71875 30.859375 
Q 16.703125 27.09375 16.703125 20.515625 
Q 16.703125 13.921875 20.71875 10.15625 
Q 24.75 6.390625 31.78125 6.390625 
Q 38.8125 6.390625 42.859375 10.171875 
Q 46.921875 13.96875 46.921875 20.515625 
Q 46.921875 27.09375 42.890625 30.859375 
Q 38.875 34.625 31.78125 34.625 
M 21.921875 38.8125 
Q 15.578125 40.375 12.03125 44.71875 
Q 8.5 49.078125 8.5 55.328125 
Q 8.5 64.0625 14.71875 69.140625 
Q 20.953125 74.21875 31.78125 74.21875 
Q 42.671875 74.21875 48.875 69.140625 
Q 55.078125 64.0625 55.078125 55.328125 
Q 55.078125 49.078125 51.53125 44.71875 
Q 48 40.375 41.703125 38.8125 
Q 48.828125 37.15625 52.796875 32.3125 
Q 56.78125 27.484375 56.78125 20.515625 
Q 56.78125 9.90625 50.3125 4.234375 
Q 43.84375 -1.421875 31.78125 -1.421875 
Q 19.734375 -1.421875 13.25 4.234375 
Q 6.78125 9.90625 6.78125 20.515625 
Q 6.78125 27.484375 10.78125 32.3125 
Q 14.796875 37.15625 21.921875 38.8125 
M 18.3125 54.390625 
Q 18.3125 48.734375 21.84375 45.5625 
Q 25.390625 42.390625 31.78125 42.390625 
Q 38.140625 42.390625 41.71875 45.5625 
Q 45.3125 48.734375 45.3125 54.390625 
Q 45.3125 60.0625 41.71875 63.234375 
Q 38.140625 66.40625 31.78125 66.40625 
Q 25.390625 66.40625 21.84375 63.234375 
Q 18.3125 60.0625 18.3125 54.390625 
" id="BitstreamVeraSans-Roman-38"/>
      </defs>
      <g transform="translate(31.55625 90.8325185644)scale(0.2 -0.2)">
       <use xlink:href="#BitstreamVeraSans-Roman-30"/>
       <use x="63.623046875" xlink:href="#BitstreamVeraSans-Roman-2e"/>
       <use x="95.41015625" xlink:href="#BitstreamVeraSans-Roman-38"/>
      </g>
     </g>
    </g>
    <g id="ytick_6">
     <g id="line2d_104">
      <path clip-path="url(#p8a2e8048dc)" d="M 67.3625 16.878125 
L 513.7625 16.878125 
" style="fill:none;stroke:#000000;stroke-dasharray:1.000000,3.000000;stroke-dashoffset:0.0;stroke-width:0.5;"/>
     </g>
     <g id="line2d_105">
      <g>
       <use style="stroke:#000000;stroke-width:0.5;" x="67.3625" xlink:href="#mf9fbacef4a" y="16.878125"/>
      </g>
     </g>
     <g id="line2d_106">
      <g>
       <use style="stroke:#000000;stroke-width:0.5;" x="513.7625" xlink:href="#m6d3c5694af" y="16.878125"/>
      </g>
     </g>
     <g id="text_10">
      <!-- 1.0 -->
      <g transform="translate(31.55625 22.396875)scale(0.2 -0.2)">
       <use xlink:href="#BitstreamVeraSans-Roman-31"/>
       <use x="63.623046875" xlink:href="#BitstreamVeraSans-Roman-2e"/>
       <use x="95.41015625" xlink:href="#BitstreamVeraSans-Roman-30"/>
      </g>
     </g>
    </g>
    <g id="text_11">
     <!-- proportion of trials -->
     <defs>
      <path d="M 54.890625 33.015625 
L 54.890625 0 
L 45.90625 0 
L 45.90625 32.71875 
Q 45.90625 40.484375 42.875 44.328125 
Q 39.84375 48.1875 33.796875 48.1875 
Q 26.515625 48.1875 22.3125 43.546875 
Q 18.109375 38.921875 18.109375 30.90625 
L 18.109375 0 
L 9.078125 0 
L 9.078125 54.6875 
L 18.109375 54.6875 
L 18.109375 46.1875 
Q 21.34375 51.125 25.703125 53.5625 
Q 30.078125 56 35.796875 56 
Q 45.21875 56 50.046875 50.171875 
Q 54.890625 44.34375 54.890625 33.015625 
" id="BitstreamVeraSans-Roman-6e"/>
      <path d="M 9.421875 54.6875 
L 18.40625 54.6875 
L 18.40625 0 
L 9.421875 0 
z
M 9.421875 75.984375 
L 18.40625 75.984375 
L 18.40625 64.59375 
L 9.421875 64.59375 
z
" id="BitstreamVeraSans-Roman-69"/>
      <path d="M 18.3125 70.21875 
L 18.3125 54.6875 
L 36.8125 54.6875 
L 36.8125 47.703125 
L 18.3125 47.703125 
L 18.3125 18.015625 
Q 18.3125 11.328125 20.140625 9.421875 
Q 21.96875 7.515625 27.59375 7.515625 
L 36.8125 7.515625 
L 36.8125 0 
L 27.59375 0 
Q 17.1875 0 13.234375 3.875 
Q 9.28125 7.765625 9.28125 18.015625 
L 9.28125 47.703125 
L 2.6875 47.703125 
L 2.6875 54.6875 
L 9.28125 54.6875 
L 9.28125 70.21875 
z
" id="BitstreamVeraSans-Roman-74"/>
      <path d="M 41.109375 46.296875 
Q 39.59375 47.171875 37.8125 47.578125 
Q 36.03125 48 33.890625 48 
Q 26.265625 48 22.1875 43.046875 
Q 18.109375 38.09375 18.109375 28.8125 
L 18.109375 0 
L 9.078125 0 
L 9.078125 54.6875 
L 18.109375 54.6875 
L 18.109375 46.1875 
Q 20.953125 51.171875 25.484375 53.578125 
Q 30.03125 56 36.53125 56 
Q 37.453125 56 38.578125 55.875 
Q 39.703125 55.765625 41.0625 55.515625 
z
" id="BitstreamVeraSans-Roman-72"/>
      <path d="M 18.109375 8.203125 
L 18.109375 -20.796875 
L 9.078125 -20.796875 
L 9.078125 54.6875 
L 18.109375 54.6875 
L 18.109375 46.390625 
Q 20.953125 51.265625 25.265625 53.625 
Q 29.59375 56 35.59375 56 
Q 45.5625 56 51.78125 48.09375 
Q 58.015625 40.1875 58.015625 27.296875 
Q 58.015625 14.40625 51.78125 6.484375 
Q 45.5625 -1.421875 35.59375 -1.421875 
Q 29.59375 -1.421875 25.265625 0.953125 
Q 20.953125 3.328125 18.109375 8.203125 
M 48.6875 27.296875 
Q 48.6875 37.203125 44.609375 42.84375 
Q 40.53125 48.484375 33.40625 48.484375 
Q 26.265625 48.484375 22.1875 42.84375 
Q 18.109375 37.203125 18.109375 27.296875 
Q 18.109375 17.390625 22.1875 11.75 
Q 26.265625 6.109375 33.40625 6.109375 
Q 40.53125 6.109375 44.609375 11.75 
Q 48.6875 17.390625 48.6875 27.296875 
" id="BitstreamVeraSans-Roman-70"/>
     </defs>
     <g transform="translate(22.396875 279.484467822)rotate(-90.0)scale(0.2 -0.2)">
      <use xlink:href="#BitstreamVeraSans-Roman-70"/>
      <use x="63.4765625" xlink:href="#BitstreamVeraSans-Roman-72"/>
      <use x="104.55859375" xlink:href="#BitstreamVeraSans-Roman-6f"/>
      <use x="165.740234375" xlink:href="#BitstreamVeraSans-Roman-70"/>
      <use x="229.216796875" xlink:href="#BitstreamVeraSans-Roman-6f"/>
      <use x="290.3984375" xlink:href="#BitstreamVeraSans-Roman-72"/>
      <use x="331.51171875" xlink:href="#BitstreamVeraSans-Roman-74"/>
      <use x="370.720703125" xlink:href="#BitstreamVeraSans-Roman-69"/>
      <use x="398.50390625" xlink:href="#BitstreamVeraSans-Roman-6f"/>
      <use x="459.685546875" xlink:href="#BitstreamVeraSans-Roman-6e"/>
      <use x="523.064453125" xlink:href="#BitstreamVeraSans-Roman-20"/>
      <use x="554.8515625" xlink:href="#BitstreamVeraSans-Roman-6f"/>
      <use x="616.033203125" xlink:href="#BitstreamVeraSans-Roman-66"/>
      <use x="651.23828125" xlink:href="#BitstreamVeraSans-Roman-20"/>
      <use x="683.025390625" xlink:href="#BitstreamVeraSans-Roman-74"/>
      <use x="722.234375" xlink:href="#BitstreamVeraSans-Roman-72"/>
      <use x="763.34765625" xlink:href="#BitstreamVeraSans-Roman-69"/>
      <use x="791.130859375" xlink:href="#BitstreamVeraSans-Roman-61"/>
      <use x="852.41015625" xlink:href="#BitstreamVeraSans-Roman-6c"/>
      <use x="880.193359375" xlink:href="#BitstreamVeraSans-Roman-73"/>
     </g>
    </g>
   </g>
   <g id="text_12">
    <!-- {f10-f14}, 5-D -->
    <defs>
     <path d="M 11.71875 12.40625 
L 22.015625 12.40625 
L 22.015625 4 
L 14.015625 -11.625 
L 7.71875 -11.625 
L 11.71875 4 
z
" id="BitstreamVeraSans-Roman-2c"/>
     <path d="M 12.5 -9.28125 
L 15.921875 -9.28125 
Q 22.75 -9.28125 24.828125 -7.171875 
Q 26.90625 -5.078125 26.90625 1.90625 
L 26.90625 14.015625 
Q 26.90625 21.625 29.09375 25.09375 
Q 31.296875 28.5625 36.71875 29.890625 
Q 31.296875 31.109375 29.09375 34.5625 
Q 26.90625 38.03125 26.90625 45.703125 
L 26.90625 57.8125 
Q 26.90625 64.75 24.828125 66.875 
Q 22.75 69 15.921875 69 
L 12.5 69 
L 12.5 75.984375 
L 15.578125 75.984375 
Q 27.734375 75.984375 31.8125 72.390625 
Q 35.890625 68.796875 35.890625 58.015625 
L 35.890625 46.296875 
Q 35.890625 39.015625 38.515625 36.203125 
Q 41.15625 33.40625 48.09375 33.40625 
L 51.125 33.40625 
L 51.125 26.421875 
L 48.09375 26.421875 
Q 41.15625 26.421875 38.515625 23.578125 
Q 35.890625 20.75 35.890625 13.375 
L 35.890625 1.703125 
Q 35.890625 -9.078125 31.8125 -12.6875 
Q 27.734375 -16.3125 15.578125 -16.3125 
L 12.5 -16.3125 
z
" id="BitstreamVeraSans-Roman-7d"/>
     <path d="M 51.125 -9.28125 
L 51.125 -16.3125 
L 48.09375 -16.3125 
Q 35.9375 -16.3125 31.8125 -12.6875 
Q 27.6875 -9.078125 27.6875 1.703125 
L 27.6875 13.375 
Q 27.6875 20.75 25.046875 23.578125 
Q 22.40625 26.421875 15.484375 26.421875 
L 12.5 26.421875 
L 12.5 33.40625 
L 15.484375 33.40625 
Q 22.46875 33.40625 25.078125 36.203125 
Q 27.6875 39.015625 27.6875 46.296875 
L 27.6875 58.015625 
Q 27.6875 68.796875 31.8125 72.390625 
Q 35.9375 75.984375 48.09375 75.984375 
L 51.125 75.984375 
L 51.125 69 
L 47.796875 69 
Q 40.921875 69 38.8125 66.84375 
Q 36.71875 64.703125 36.71875 57.8125 
L 36.71875 45.703125 
Q 36.71875 38.03125 34.5 34.5625 
Q 32.28125 31.109375 26.90625 29.890625 
Q 32.328125 28.5625 34.515625 25.09375 
Q 36.71875 21.625 36.71875 14.015625 
L 36.71875 1.90625 
Q 36.71875 -4.984375 38.8125 -7.125 
Q 40.921875 -9.28125 47.796875 -9.28125 
z
" id="BitstreamVeraSans-Roman-7b"/>
     <path d="M 4.890625 31.390625 
L 31.203125 31.390625 
L 31.203125 23.390625 
L 4.890625 23.390625 
z
" id="BitstreamVeraSans-Roman-2d"/>
     <path d="M 10.796875 72.90625 
L 49.515625 72.90625 
L 49.515625 64.59375 
L 19.828125 64.59375 
L 19.828125 46.734375 
Q 21.96875 47.46875 24.109375 47.828125 
Q 26.265625 48.1875 28.421875 48.1875 
Q 40.625 48.1875 47.75 41.5 
Q 54.890625 34.8125 54.890625 23.390625 
Q 54.890625 11.625 47.5625 5.09375 
Q 40.234375 -1.421875 26.90625 -1.421875 
Q 22.3125 -1.421875 17.546875 -0.640625 
Q 12.796875 0.140625 7.71875 1.703125 
L 7.71875 11.625 
Q 12.109375 9.234375 16.796875 8.0625 
Q 21.484375 6.890625 26.703125 6.890625 
Q 35.15625 6.890625 40.078125 11.328125 
Q 45.015625 15.765625 45.015625 23.390625 
Q 45.015625 31 40.078125 35.4375 
Q 35.15625 39.890625 26.703125 39.890625 
Q 22.75 39.890625 18.8125 39.015625 
Q 14.890625 38.140625 10.796875 36.28125 
z
" id="BitstreamVeraSans-Roman-35"/>
    </defs>
    <g transform="translate(217.7125 35.5652178218)scale(0.2 -0.2)">
     <use xlink:href="#BitstreamVeraSans-Roman-7b"/>
     <use x="63.623046875" xlink:href="#BitstreamVeraSans-Roman-66"/>
     <use x="98.828125" xlink:href="#BitstreamVeraSans-Roman-31"/>
     <use x="162.451171875" xlink:href="#BitstreamVeraSans-Roman-30"/>
     <use x="226.07421875" xlink:href="#BitstreamVeraSans-Roman-2d"/>
     <use x="262.158203125" xlink:href="#BitstreamVeraSans-Roman-66"/>
     <use x="297.36328125" xlink:href="#BitstreamVeraSans-Roman-31"/>
     <use x="360.986328125" xlink:href="#BitstreamVeraSans-Roman-34"/>
     <use x="424.609375" xlink:href="#BitstreamVeraSans-Roman-7d"/>
     <use x="488.232421875" xlink:href="#BitstreamVeraSans-Roman-2c"/>
     <use x="520.01953125" xlink:href="#BitstreamVeraSans-Roman-20"/>
     <use x="551.806640625" xlink:href="#BitstreamVeraSans-Roman-35"/>
     <use x="615.4296875" xlink:href="#BitstreamVeraSans-Roman-2d"/>
     <use x="651.513671875" xlink:href="#BitstreamVeraSans-Roman-44"/>
    </g>
   </g>
   <g id="text_13">
    <!-- absolute targets -->
    <defs>
     <path d="M 56.203125 29.59375 
L 56.203125 25.203125 
L 14.890625 25.203125 
Q 15.484375 15.921875 20.484375 11.0625 
Q 25.484375 6.203125 34.421875 6.203125 
Q 39.59375 6.203125 44.453125 7.46875 
Q 49.3125 8.734375 54.109375 11.28125 
L 54.109375 2.78125 
Q 49.265625 0.734375 44.1875 -0.34375 
Q 39.109375 -1.421875 33.890625 -1.421875 
Q 20.796875 -1.421875 13.15625 6.1875 
Q 5.515625 13.8125 5.515625 26.8125 
Q 5.515625 40.234375 12.765625 48.109375 
Q 20.015625 56 32.328125 56 
Q 43.359375 56 49.78125 48.890625 
Q 56.203125 41.796875 56.203125 29.59375 
M 47.21875 32.234375 
Q 47.125 39.59375 43.09375 43.984375 
Q 39.0625 48.390625 32.421875 48.390625 
Q 24.90625 48.390625 20.390625 44.140625 
Q 15.875 39.890625 15.1875 32.171875 
z
" id="BitstreamVeraSans-Roman-65"/>
     <path d="M 8.5 21.578125 
L 8.5 54.6875 
L 17.484375 54.6875 
L 17.484375 21.921875 
Q 17.484375 14.15625 20.5 10.265625 
Q 23.53125 6.390625 29.59375 6.390625 
Q 36.859375 6.390625 41.078125 11.03125 
Q 45.3125 15.671875 45.3125 23.6875 
L 45.3125 54.6875 
L 54.296875 54.6875 
L 54.296875 0 
L 45.3125 0 
L 45.3125 8.40625 
Q 42.046875 3.421875 37.71875 1 
Q 33.40625 -1.421875 27.6875 -1.421875 
Q 18.265625 -1.421875 13.375 4.4375 
Q 8.5 10.296875 8.5 21.578125 
" id="BitstreamVeraSans-Roman-75"/>
     <path d="M 48.6875 27.296875 
Q 48.6875 37.203125 44.609375 42.84375 
Q 40.53125 48.484375 33.40625 48.484375 
Q 26.265625 48.484375 22.1875 42.84375 
Q 18.109375 37.203125 18.109375 27.296875 
Q 18.109375 17.390625 22.1875 11.75 
Q 26.265625 6.109375 33.40625 6.109375 
Q 40.53125 6.109375 44.609375 11.75 
Q 48.6875 17.390625 48.6875 27.296875 
M 18.109375 46.390625 
Q 20.953125 51.265625 25.265625 53.625 
Q 29.59375 56 35.59375 56 
Q 45.5625 56 51.78125 48.09375 
Q 58.015625 40.1875 58.015625 27.296875 
Q 58.015625 14.40625 51.78125 6.484375 
Q 45.5625 -1.421875 35.59375 -1.421875 
Q 29.59375 -1.421875 25.265625 0.953125 
Q 20.953125 3.328125 18.109375 8.203125 
L 18.109375 0 
L 9.078125 0 
L 9.078125 75.984375 
L 18.109375 75.984375 
z
" id="BitstreamVeraSans-Roman-62"/>
    </defs>
    <g transform="translate(67.3625 359.056342822)scale(0.14 -0.14)">
     <use xlink:href="#BitstreamVeraSans-Roman-61"/>
     <use x="61.279296875" xlink:href="#BitstreamVeraSans-Roman-62"/>
     <use x="124.755859375" xlink:href="#BitstreamVeraSans-Roman-73"/>
     <use x="176.85546875" xlink:href="#BitstreamVeraSans-Roman-6f"/>
     <use x="238.037109375" xlink:href="#BitstreamVeraSans-Roman-6c"/>
     <use x="265.8203125" xlink:href="#BitstreamVeraSans-Roman-75"/>
     <use x="329.19921875" xlink:href="#BitstreamVeraSans-Roman-74"/>
     <use x="368.408203125" xlink:href="#BitstreamVeraSans-Roman-65"/>
     <use x="429.931640625" xlink:href="#BitstreamVeraSans-Roman-20"/>
     <use x="461.71875" xlink:href="#BitstreamVeraSans-Roman-74"/>
     <use x="500.927734375" xlink:href="#BitstreamVeraSans-Roman-61"/>
     <use x="562.20703125" xlink:href="#BitstreamVeraSans-Roman-72"/>
     <use x="603.3046875" xlink:href="#BitstreamVeraSans-Roman-67"/>
     <use x="666.78125" xlink:href="#BitstreamVeraSans-Roman-65"/>
     <use x="728.3046875" xlink:href="#BitstreamVeraSans-Roman-74"/>
     <use x="767.513671875" xlink:href="#BitstreamVeraSans-Roman-73"/>
    </g>
   </g>
   <g id="text_14">
    <!-- 0.0.0 -->
    <g style="fill:#808080;" transform="translate(277.840625 353.520655322)scale(0.1 -0.1)">
     <use xlink:href="#BitstreamVeraSans-Roman-30"/>
     <use x="63.623046875" xlink:href="#BitstreamVeraSans-Roman-2e"/>
     <use x="95.41015625" xlink:href="#BitstreamVeraSans-Roman-30"/>
     <use x="159.033203125" xlink:href="#BitstreamVeraSans-Roman-2e"/>
     <use x="190.8203125" xlink:href="#BitstreamVeraSans-Roman-30"/>
    </g>
   </g>
   <g id="legend_1">
    <g id="patch_7">
     <path d="M 77.3625 146.881343 
L 214.584375 146.881343 
L 214.584375 23.456343 
L 77.3625 23.456343 
z
" style="fill:#ffffff;opacity:0.2;stroke:#000000;stroke-linejoin:miter;"/>
    </g>
    <g id="line2d_107">
     <path d="M 91.3625 39.653218 
L 119.3625 39.653218 
" style="fill:none;stroke:#000000;stroke-linecap:square;"/>
    </g>
    <g id="line2d_108"/>
    <g id="text_15">
     <!-- 1: 3/5 -->
     <defs>
      <path d="M 40.578125 39.3125 
Q 47.65625 37.796875 51.625 33 
Q 55.609375 28.21875 55.609375 21.1875 
Q 55.609375 10.40625 48.1875 4.484375 
Q 40.765625 -1.421875 27.09375 -1.421875 
Q 22.515625 -1.421875 17.65625 -0.515625 
Q 12.796875 0.390625 7.625 2.203125 
L 7.625 11.71875 
Q 11.71875 9.328125 16.59375 8.109375 
Q 21.484375 6.890625 26.8125 6.890625 
Q 36.078125 6.890625 40.9375 10.546875 
Q 45.796875 14.203125 45.796875 21.1875 
Q 45.796875 27.640625 41.28125 31.265625 
Q 36.765625 34.90625 28.71875 34.90625 
L 20.21875 34.90625 
L 20.21875 43.015625 
L 29.109375 43.015625 
Q 36.375 43.015625 40.234375 45.921875 
Q 44.09375 48.828125 44.09375 54.296875 
Q 44.09375 59.90625 40.109375 62.90625 
Q 36.140625 65.921875 28.71875 65.921875 
Q 24.65625 65.921875 20.015625 65.03125 
Q 15.375 64.15625 9.8125 62.3125 
L 9.8125 71.09375 
Q 15.4375 72.65625 20.34375 73.4375 
Q 25.25 74.21875 29.59375 74.21875 
Q 40.828125 74.21875 47.359375 69.109375 
Q 53.90625 64.015625 53.90625 55.328125 
Q 53.90625 49.265625 50.4375 45.09375 
Q 46.96875 40.921875 40.578125 39.3125 
" id="BitstreamVeraSans-Roman-33"/>
      <path d="M 11.71875 12.40625 
L 22.015625 12.40625 
L 22.015625 0 
L 11.71875 0 
z
M 11.71875 51.703125 
L 22.015625 51.703125 
L 22.015625 39.3125 
L 11.71875 39.3125 
z
" id="BitstreamVeraSans-Roman-3a"/>
     </defs>
     <g transform="translate(141.3625 46.6532178218)scale(0.2 -0.2)">
      <use xlink:href="#BitstreamVeraSans-Roman-31"/>
      <use x="63.623046875" xlink:href="#BitstreamVeraSans-Roman-3a"/>
      <use x="97.314453125" xlink:href="#BitstreamVeraSans-Roman-20"/>
      <use x="129.1015625" xlink:href="#BitstreamVeraSans-Roman-33"/>
      <use x="192.724609375" xlink:href="#BitstreamVeraSans-Roman-2f"/>
      <use x="226.416015625" xlink:href="#BitstreamVeraSans-Roman-35"/>
     </g>
    </g>
    <g id="line2d_109">
     <path d="M 91.3625 69.009468 
L 119.3625 69.009468 
" style="fill:none;stroke:#00bfbf;stroke-linecap:square;"/>
    </g>
    <g id="line2d_110"/>
    <g id="text_16">
     <!-- -1: 2/5 -->
     <g transform="translate(141.3625 76.0094678218)scale(0.2 -0.2)">
      <use xlink:href="#BitstreamVeraSans-Roman-2d"/>
      <use x="36.083984375" xlink:href="#BitstreamVeraSans-Roman-31"/>
      <use x="99.70703125" xlink:href="#BitstreamVeraSans-Roman-3a"/>
      <use x="133.3984375" xlink:href="#BitstreamVeraSans-Roman-20"/>
      <use x="165.185546875" xlink:href="#BitstreamVeraSans-Roman-32"/>
      <use x="228.80859375" xlink:href="#BitstreamVeraSans-Roman-2f"/>
      <use x="262.5" xlink:href="#BitstreamVeraSans-Roman-35"/>
     </g>
    </g>
    <g id="line2d_111">
     <path d="M 91.3625 98.365718 
L 119.3625 98.365718 
" style="fill:none;stroke:#bf00bf;stroke-linecap:square;"/>
    </g>
    <g id="line2d_112"/>
    <g id="text_17">
     <!-- -4: 0/5 -->
     <g transform="translate(141.3625 105.365717822)scale(0.2 -0.2)">
      <use xlink:href="#BitstreamVeraSans-Roman-2d"/>
      <use x="36.083984375" xlink:href="#BitstreamVeraSans-Roman-34"/>
      <use x="99.70703125" xlink:href="#BitstreamVeraSans-Roman-3a"/>
      <use x="133.3984375" xlink:href="#BitstreamVeraSans-Roman-20"/>
      <use x="165.185546875" xlink:href="#BitstreamVeraSans-Roman-30"/>
      <use x="228.80859375" xlink:href="#BitstreamVeraSans-Roman-2f"/>
      <use x="262.5" xlink:href="#BitstreamVeraSans-Roman-35"/>
     </g>
    </g>
    <g id="line2d_113">
     <path d="M 91.3625 127.721968 
L 119.3625 127.721968 
" style="fill:none;stroke:#ff0000;stroke-linecap:square;stroke-width:3.0;"/>
    </g>
    <g id="line2d_114"/>
    <g id="text_18">
     <!-- -8: 0/5 -->
     <g transform="translate(141.3625 134.721967822)scale(0.2 -0.2)">
      <use xlink:href="#BitstreamVeraSans-Roman-2d"/>
      <use x="36.083984375" xlink:href="#BitstreamVeraSans-Roman-38"/>
      <use x="99.70703125" xlink:href="#BitstreamVeraSans-Roman-3a"/>
      <use x="133.3984375" xlink:href="#BitstreamVeraSans-Roman-20"/>
      <use x="165.185546875" xlink:href="#BitstreamVeraSans-Roman-30"/>
      <use x="228.80859375" xlink:href="#BitstreamVeraSans-Roman-2f"/>
      <use x="262.5" xlink:href="#BitstreamVeraSans-Roman-35"/>
     </g>
    </g>
   </g>
  </g>
 </g>
 <defs>
  <clipPath id="p8a2e8048dc">
   <rect height="345.6" width="446.4" x="67.3625" y="13.4563428218"/>
  </clipPath>
 </defs>
</svg>
