<?xml version="1.0" encoding="utf-8" standalone="no"?>
<!DOCTYPE svg PUBLIC "-//W3C//DTD SVG 1.1//EN"
  "http://www.w3.org/Graphics/SVG/1.1/DTD/svg11.dtd">
<!-- Created with matplotlib (http://matplotlib.org/) -->
<svg height="407pt" version="1.1" viewBox="0 0 460 407" width="460pt" xmlns="http://www.w3.org/2000/svg" xmlns:xlink="http://www.w3.org/1999/xlink">
 <defs>
  <style type="text/css">
*{stroke-linecap:butt;stroke-linejoin:round;stroke-miterlimit:100000;}
  </style>
 </defs>
 <g id="figure_1">
  <g id="patch_1">
   <path d="M 0 407.7125 
L 460.8 407.7125 
L 460.8 0 
L 0 0 
z
" style="fill:#ffffff;"/>
  </g>
  <g id="axes_1">
   <g id="patch_2">
    <path d="M 7.2 352.8 
L 453.6 352.8 
L 453.6 7.2 
L 7.2 7.2 
z
" style="fill:#ffffff;"/>
   </g>
   <g id="line2d_1">
    <path clip-path="url(#p2e7d5286f3)" d="M 134.951844 352.8 
L 134.951844 348.237624 
L 134.951844 348.237624 
L 134.951844 348.237624 
L 135.053374 348.237624 
L 135.053374 343.675248 
L 136.018473 343.675248 
L 136.118136 334.550495 
L 137.731564 334.550495 
L 137.731564 329.988119 
L 137.90358 329.988119 
L 137.90358 325.425743 
L 138.477847 325.425743 
L 138.477847 320.863366 
L 140.058333 320.863366 
L 140.058333 316.30099 
L 140.367378 316.30099 
L 140.367378 311.738614 
L 141.096341 311.738614 
L 141.096341 307.176238 
L 141.344342 307.176238 
L 141.344342 302.613861 
L 141.597326 302.613861 
L 141.597326 298.051485 
L 142.436985 298.051485 
L 142.436985 293.489109 
L 144.402694 293.489109 
L 144.433979 284.364356 
L 164.18418 284.364356 
L 164.18418 279.80198 
L 166.155475 279.80198 
L 166.155475 275.239604 
L 194.353177 275.239604 
L 194.353177 270.677228 
L 195.223103 270.677228 
L 195.223103 266.114851 
L 200.174678 266.114851 
L 200.174678 261.552475 
L 207.487621 261.552475 
L 207.487621 256.990099 
L 207.764816 256.990099 
L 207.764816 252.427723 
L 210.328528 252.427723 
L 210.328528 247.865347 
L 212.079909 247.865347 
L 212.079909 243.30297 
L 213.044037 243.30297 
L 213.044037 238.740594 
L 213.323847 238.740594 
L 213.323847 234.178218 
L 214.443808 234.178218 
L 214.443808 229.615842 
L 215.317806 229.615842 
L 215.317806 225.053465 
L 216.442679 225.053465 
L 216.442679 220.491089 
L 220.179376 220.491089 
L 220.179376 215.928713 
L 220.33614 215.928713 
L 220.33614 211.366337 
L 220.561308 211.366337 
L 220.561308 206.80396 
L 221.44013 206.80396 
L 221.44013 202.241584 
L 222.67675 202.241584 
L 222.67675 197.679208 
L 223.004981 197.679208 
L 223.004981 193.116832 
L 223.805922 193.116832 
L 223.805922 188.554455 
L 223.922614 188.554455 
L 223.922614 183.992079 
L 224.07986 183.992079 
L 224.07986 179.429703 
L 224.533569 179.429703 
L 224.533569 174.867327 
L 225.042459 174.867327 
L 225.042459 170.30495 
L 228.61985 170.30495 
L 228.61985 165.742574 
L 228.88202 165.742574 
L 228.88202 161.180198 
L 233.309663 161.180198 
L 233.309663 156.617822 
L 234.490203 156.617822 
L 234.490203 152.055446 
L 235.405801 152.055446 
L 235.405801 147.493069 
L 254.943216 147.493069 
L 254.943216 142.930693 
L 255.321351 142.930693 
L 255.321351 138.368317 
L 255.441221 138.368317 
L 255.441221 133.805941 
L 255.63093 133.805941 
L 255.63093 129.243564 
L 257.419424 129.243564 
L 257.428498 115.556436 
L 257.549418 115.556436 
L 257.549418 110.994059 
L 258.00116 110.994059 
L 258.00116 106.431683 
L 258.620643 106.431683 
L 258.620643 101.869307 
L 260.728198 101.869307 
L 260.728198 97.306931 
L 261.567477 97.306931 
L 261.567477 92.744554 
L 262.743449 92.744554 
L 262.743449 88.182178 
L 265.560399 88.182178 
L 265.560399 83.619802 
L 272.850419 83.619802 
L 272.850419 79.057426 
L 295.496372 79.057426 
L 295.496372 74.49505 
L 296.500163 74.49505 
L 296.500163 69.932673 
L 297.114514 69.932673 
L 297.114514 65.370297 
L 298.596931 65.370297 
L 298.596931 60.807921 
L 300.609227 60.807921 
L 300.609227 56.245545 
L 301.686081 56.245545 
L 301.686081 51.683168 
L 303.93868 51.683168 
L 303.93868 47.120792 
L 304.744231 47.120792 
L 304.744231 42.558416 
L 306.057518 42.558416 
L 306.057518 37.99604 
L 306.649351 37.99604 
L 306.649351 33.433663 
L 307.126191 33.433663 
L 307.126191 28.871287 
L 307.641466 28.871287 
L 307.641466 24.308911 
L 311.074613 24.308911 
L 311.074613 19.746535 
L 313.149279 19.746535 
L 313.149279 15.184158 
L 316.822221 15.184158 
L 316.822221 10.621782 
L 316.822221 10.621782 
L 453.6 10.621782 
L 453.6 10.621782 
" style="fill:none;stroke:#ff0000;stroke-linecap:square;stroke-width:3.0;"/>
   </g>
   <g id="line2d_2">
    <path clip-path="url(#p2e7d5286f3)" d="M 233.205399 352.8 
L 233.205399 348.237624 
L 238.678856 348.237624 
L 238.678856 343.675248 
L 238.882945 343.675248 
L 238.882945 339.112871 
L 241.605128 339.112871 
L 241.605128 334.550495 
L 242.113164 334.550495 
L 242.113164 329.988119 
L 243.043432 329.988119 
L 243.043432 325.425743 
L 244.013706 325.425743 
L 244.048796 316.30099 
L 246.631361 316.30099 
L 246.631361 311.738614 
L 247.414202 311.738614 
L 247.414202 307.176238 
L 250.266419 307.176238 
L 250.36881 298.051485 
L 250.549258 298.051485 
L 250.549258 293.489109 
L 250.858776 293.489109 
L 250.858776 288.926733 
L 258.646075 288.926733 
L 258.646075 284.364356 
L 263.082075 284.364356 
L 263.082075 279.80198 
L 274.281538 279.80198 
L 274.281538 275.239604 
L 275.005734 275.239604 
L 275.005734 270.677228 
L 276.262163 270.677228 
L 276.262163 266.114851 
L 276.652357 266.114851 
L 276.652357 261.552475 
L 276.833966 261.552475 
L 276.833966 256.990099 
L 277.301113 256.990099 
L 277.301113 252.427723 
L 277.442462 252.427723 
L 277.442462 247.865347 
L 277.567278 247.865347 
L 277.567278 243.30297 
L 277.695362 243.30297 
L 277.695362 238.740594 
L 277.854751 238.740594 
L 277.854751 234.178218 
L 278.028146 234.178218 
L 278.107181 225.053465 
L 278.356141 225.053465 
L 278.40052 215.928713 
L 279.335134 215.928713 
L 279.335134 211.366337 
L 280.744836 211.366337 
L 280.744836 206.80396 
L 281.769956 206.80396 
L 281.769956 202.241584 
L 281.906685 202.241584 
L 281.906685 197.679208 
L 301.227198 197.679208 
L 301.227198 193.116832 
L 304.068747 193.116832 
L 304.068747 188.554455 
L 314.804099 188.554455 
L 314.804099 183.992079 
L 320.256937 183.992079 
L 320.256937 179.429703 
L 321.365134 179.429703 
L 321.388555 170.30495 
L 321.964768 170.30495 
L 321.964768 165.742574 
L 326.082039 165.742574 
L 326.082039 161.180198 
L 342.072426 161.180198 
L 342.072426 156.617822 
L 345.38433 156.617822 
L 345.38433 152.055446 
L 345.943786 152.055446 
L 345.943786 147.493069 
L 346.095566 147.493069 
L 346.095566 142.930693 
L 346.799597 142.930693 
L 346.799597 138.368317 
L 348.975193 138.368317 
L 348.975193 133.805941 
L 352.356778 133.805941 
L 352.356778 129.243564 
L 353.090192 129.243564 
L 353.090192 124.681188 
L 355.100009 124.681188 
L 355.100009 120.118812 
L 356.248524 120.118812 
L 356.248524 115.556436 
L 357.425722 115.556436 
L 357.425722 110.994059 
L 357.793154 110.994059 
L 357.793154 106.431683 
L 359.955722 106.431683 
L 359.955722 101.869307 
L 360.706322 101.869307 
L 360.706322 97.306931 
L 362.452961 97.306931 
L 362.452961 92.744554 
L 365.913399 92.744554 
L 365.913399 88.182178 
L 374.111191 88.182178 
L 374.111191 83.619802 
L 375.531907 83.619802 
L 375.531907 79.057426 
L 394.545504 79.057426 
L 394.545504 74.49505 
L 399.384089 74.49505 
L 399.384089 69.932673 
L 400.153377 69.932673 
L 400.153377 65.370297 
L 401.147623 65.370297 
L 401.147623 60.807921 
L 402.244848 60.807921 
L 402.244848 56.245545 
L 402.358474 56.245545 
L 402.358474 51.683168 
L 403.547797 51.683168 
L 403.547797 47.120792 
L 403.89396 47.120792 
L 403.89396 42.558416 
L 407.333173 42.558416 
L 407.333173 37.99604 
L 408.990206 37.99604 
L 409.013666 28.871287 
L 416.39332 28.871287 
L 416.39332 24.308911 
L 422.448569 24.308911 
L 422.448569 19.746535 
L 423.237114 19.746535 
L 423.237114 15.184158 
L 431.896596 15.184158 
L 431.896596 10.621782 
L 431.896596 10.621782 
L 453.6 10.621782 
L 453.6 10.621782 
" style="fill:none;stroke:#00bfbf;stroke-linecap:square;"/>
   </g>
   <g id="line2d_3">
    <path clip-path="url(#p2e7d5286f3)" d="M 233.205399 352.8 
L 233.205399 348.237624 
L 238.162089 348.237624 
L 238.189704 339.112871 
L 238.882945 339.112871 
L 238.882945 334.550495 
L 240.166946 334.550495 
L 240.166946 329.988119 
L 241.171776 329.988119 
L 241.171776 325.425743 
L 241.573077 325.425743 
L 241.605128 316.30099 
L 242.063393 316.30099 
L 242.063393 311.738614 
L 242.68725 311.738614 
L 242.68725 307.176238 
L 243.370358 307.176238 
L 243.370358 302.613861 
L 245.528167 302.613861 
L 245.528167 298.051485 
L 248.578746 298.051485 
L 248.578746 293.489109 
L 248.798909 293.489109 
L 248.798909 288.926733 
L 250.285382 288.926733 
L 250.285382 284.364356 
L 255.441221 284.364356 
L 255.441221 279.80198 
L 263.082075 279.80198 
L 263.082075 275.239604 
L 268.160332 275.239604 
L 268.160332 270.677228 
L 270.246355 270.677228 
L 270.246355 266.114851 
L 273.821391 266.114851 
L 273.821391 261.552475 
L 274.281538 261.552475 
L 274.281538 256.990099 
L 274.972525 256.990099 
L 275.005734 247.865347 
L 275.408394 247.865347 
L 275.408394 243.30297 
L 275.727854 243.30297 
L 275.773449 234.178218 
L 275.891471 234.178218 
L 275.891471 229.615842 
L 276.297807 229.615842 
L 276.297807 225.053465 
L 277.161357 225.053465 
L 277.212587 215.928713 
L 277.442462 215.928713 
L 277.442462 211.366337 
L 277.695362 211.366337 
L 277.695362 206.80396 
L 277.854751 206.80396 
L 277.854751 202.241584 
L 278.107181 202.241584 
L 278.107181 197.679208 
L 279.140186 197.679208 
L 279.140186 193.116832 
L 279.335134 193.116832 
L 279.335134 188.554455 
L 280.744836 188.554455 
L 280.744836 183.992079 
L 288.008336 183.992079 
L 288.008336 179.429703 
L 290.797872 179.429703 
L 290.797872 174.867327 
L 301.227198 174.867327 
L 301.227198 170.30495 
L 314.112889 170.30495 
L 314.112889 165.742574 
L 314.804099 165.742574 
L 314.804099 161.180198 
L 321.365134 161.180198 
L 321.388555 152.055446 
L 344.468672 152.055446 
L 344.468672 147.493069 
L 345.38433 147.493069 
L 345.38433 142.930693 
L 345.943786 142.930693 
L 345.943786 138.368317 
L 348.975193 138.368317 
L 348.975193 133.805941 
L 352.356778 133.805941 
L 352.356778 129.243564 
L 352.572953 129.243564 
L 352.572953 124.681188 
L 353.090192 124.681188 
L 353.090192 120.118812 
L 353.781805 120.118812 
L 353.781805 115.556436 
L 354.694879 115.556436 
L 354.694879 110.994059 
L 356.201838 110.994059 
L 356.201838 106.431683 
L 357.425722 106.431683 
L 357.425722 101.869307 
L 357.655646 101.869307 
L 357.655646 97.306931 
L 357.793154 97.306931 
L 357.793154 92.744554 
L 360.706322 92.744554 
L 360.706322 88.182178 
L 365.913399 88.182178 
L 365.913399 83.619802 
L 369.908164 83.619802 
L 369.908164 79.057426 
L 394.545504 79.057426 
L 394.545504 74.49505 
L 397.16312 74.49505 
L 397.16312 69.932673 
L 397.289503 69.932673 
L 397.289503 65.370297 
L 400.153377 65.370297 
L 400.153377 60.807921 
L 400.436992 60.807921 
L 400.436992 56.245545 
L 402.244848 56.245545 
L 402.244848 51.683168 
L 402.358474 51.683168 
L 402.358474 47.120792 
L 403.547797 47.120792 
L 403.555415 37.99604 
L 407.333173 37.99604 
L 407.429139 28.871287 
L 407.714724 28.871287 
L 407.714724 24.308911 
L 409.651542 24.308911 
L 409.651542 19.746535 
L 418.959088 19.746535 
L 418.959088 15.184158 
L 420.932095 15.184158 
L 420.932095 10.621782 
L 420.932095 10.621782 
L 453.6 10.621782 
L 453.6 10.621782 
" style="fill:none;stroke:#bf00bf;stroke-linecap:square;"/>
   </g>
   <g id="line2d_4">
    <path clip-path="url(#p2e7d5286f3)" d="M 232.784944 352.8 
L 232.784944 348.237624 
L 233.205399 348.237624 
L 233.205399 343.675248 
L 233.357325 343.675248 
L 233.357325 339.112871 
L 236.235797 339.112871 
L 236.235797 334.550495 
L 238.882945 334.550495 
L 238.882945 329.988119 
L 239.959521 329.988119 
L 239.959521 325.425743 
L 240.166946 325.425743 
L 240.166946 320.863366 
L 240.40752 320.863366 
L 240.40752 316.30099 
L 240.707581 316.30099 
L 240.707581 311.738614 
L 241.605128 311.738614 
L 241.605128 307.176238 
L 241.85118 307.176238 
L 241.85118 302.613861 
L 243.370358 302.613861 
L 243.370358 298.051485 
L 247.955215 298.051485 
L 247.955215 293.489109 
L 248.258128 293.489109 
L 248.303761 284.364356 
L 255.321351 284.364356 
L 255.321351 279.80198 
L 255.441221 279.80198 
L 255.441221 275.239604 
L 257.549418 275.239604 
L 257.549418 270.677228 
L 263.082075 270.677228 
L 263.082075 266.114851 
L 268.160332 266.114851 
L 268.160332 261.552475 
L 270.246355 261.552475 
L 270.246355 256.990099 
L 272.420067 256.990099 
L 272.420067 252.427723 
L 273.821391 252.427723 
L 273.821391 247.865347 
L 274.281538 247.865347 
L 274.281538 243.30297 
L 274.797761 243.30297 
L 274.838256 234.178218 
L 274.972525 234.178218 
L 275.066256 220.491089 
L 275.345633 220.491089 
L 275.345633 215.928713 
L 275.891471 215.928713 
L 275.891471 211.366337 
L 276.552279 211.366337 
L 276.552279 206.80396 
L 276.779433 206.80396 
L 276.779433 202.241584 
L 277.122616 202.241584 
L 277.122616 197.679208 
L 277.275783 197.679208 
L 277.275783 193.116832 
L 278.107181 193.116832 
L 278.107181 188.554455 
L 279.140186 188.554455 
L 279.140186 183.992079 
L 279.335134 183.992079 
L 279.335134 179.429703 
L 280.744836 179.429703 
L 280.744836 174.867327 
L 283.710975 174.867327 
L 283.784458 165.742574 
L 290.797872 165.742574 
L 290.797872 161.180198 
L 299.756039 161.180198 
L 299.756039 156.617822 
L 301.227198 156.617822 
L 301.227198 152.055446 
L 314.804099 152.055446 
L 314.804099 147.493069 
L 336.685572 147.493069 
L 336.685572 142.930693 
L 342.207948 142.930693 
L 342.207948 138.368317 
L 343.878088 138.368317 
L 343.878088 133.805941 
L 344.990399 133.805941 
L 344.990399 129.243564 
L 347.749686 129.243564 
L 347.749686 124.681188 
L 348.437337 124.681188 
L 348.437337 120.118812 
L 348.975193 120.118812 
L 348.975193 115.556436 
L 352.937722 115.556436 
L 352.937722 110.994059 
L 353.090192 110.994059 
L 353.090192 106.431683 
L 354.694879 106.431683 
L 354.694879 101.869307 
L 355.379175 101.869307 
L 355.379175 97.306931 
L 357.793154 97.306931 
L 357.793154 92.744554 
L 359.820422 92.744554 
L 359.820422 88.182178 
L 360.706322 88.182178 
L 360.706322 83.619802 
L 365.897417 83.619802 
L 365.897417 79.057426 
L 394.545504 79.057426 
L 394.545504 74.49505 
L 394.73335 74.49505 
L 394.73335 69.932673 
L 396.261549 69.932673 
L 396.261549 65.370297 
L 396.486617 65.370297 
L 396.486617 60.807921 
L 397.16312 60.807921 
L 397.16312 56.245545 
L 398.124651 56.245545 
L 398.124651 51.683168 
L 398.380604 51.683168 
L 398.380604 47.120792 
L 399.83037 47.120792 
L 399.83037 42.558416 
L 402.244848 42.558416 
L 402.244848 37.99604 
L 402.479564 37.99604 
L 402.479564 33.433663 
L 403.555415 33.433663 
L 403.555415 28.871287 
L 405.078488 28.871287 
L 405.078488 24.308911 
L 406.746939 24.308911 
L 406.746939 19.746535 
L 407.333173 19.746535 
L 407.333173 15.184158 
L 418.959088 15.184158 
L 418.959088 10.621782 
L 418.959088 10.621782 
L 453.6 10.621782 
L 453.6 10.621782 
" style="fill:none;stroke:#000000;stroke-linecap:square;"/>
   </g>
   <g id="line2d_5">
    <path clip-path="url(#p2e7d5286f3)" d="M 227.639794 352.8 
L 227.639794 348.237624 
L 229.291829 348.237624 
L 229.291829 343.675248 
L 230.889855 343.675248 
L 230.889855 339.112871 
L 232.566257 339.112871 
L 232.566257 334.550495 
L 233.357325 334.550495 
L 233.357325 329.988119 
L 233.757186 329.988119 
L 233.757186 325.425743 
L 234.028165 325.425743 
L 234.028165 320.863366 
L 235.276658 320.863366 
L 235.276658 316.30099 
L 235.469474 316.30099 
L 235.469474 311.738614 
L 236.853697 311.738614 
L 236.853697 307.176238 
L 239.089308 307.176238 
L 239.151782 298.051485 
L 239.530316 298.051485 
L 239.530316 293.489109 
L 239.959521 293.489109 
L 239.959521 288.926733 
L 240.347466 288.926733 
L 240.347466 284.364356 
L 255.321351 284.364356 
L 255.321351 279.80198 
L 255.441221 279.80198 
L 255.441221 275.239604 
L 255.63093 275.239604 
L 255.63093 270.677228 
L 257.419424 270.677228 
L 257.428498 261.552475 
L 257.549418 261.552475 
L 257.549418 256.990099 
L 260.728198 256.990099 
L 260.728198 252.427723 
L 262.177374 252.427723 
L 262.177374 247.865347 
L 265.852642 247.865347 
L 265.852642 243.30297 
L 270.203559 243.30297 
L 270.203559 238.740594 
L 271.38652 238.740594 
L 271.4483 229.615842 
L 272.420067 229.615842 
L 272.420067 225.053465 
L 272.607374 225.053465 
L 272.607374 220.491089 
L 273.389482 220.491089 
L 273.473179 211.366337 
L 273.715924 211.366337 
L 273.715924 206.80396 
L 274.000605 206.80396 
L 274.078842 197.679208 
L 274.310699 197.679208 
L 274.310699 193.116832 
L 274.552961 193.116832 
L 274.552961 188.554455 
L 275.018063 188.554455 
L 275.018063 183.992079 
L 275.531463 183.992079 
L 275.544222 174.867327 
L 275.662529 174.867327 
L 275.662529 170.30495 
L 277.583207 170.30495 
L 277.583207 165.742574 
L 277.963836 165.742574 
L 277.963836 161.180198 
L 279.207862 161.180198 
L 279.207862 156.617822 
L 279.335134 156.617822 
L 279.335134 152.055446 
L 303.551611 152.055446 
L 303.551611 147.493069 
L 334.942659 147.493069 
L 334.942659 142.930693 
L 336.685572 142.930693 
L 336.685572 138.368317 
L 341.741031 138.368317 
L 341.741031 133.805941 
L 342.207948 133.805941 
L 342.207948 129.243564 
L 343.487136 129.243564 
L 343.487136 124.681188 
L 343.878088 124.681188 
L 343.947902 115.556436 
L 345.642549 115.556436 
L 345.642549 110.994059 
L 346.952444 110.994059 
L 346.952444 106.431683 
L 348.437337 106.431683 
L 348.437337 101.869307 
L 349.371266 101.869307 
L 349.371266 97.306931 
L 350.702949 97.306931 
L 350.702949 92.744554 
L 351.229427 92.744554 
L 351.229427 88.182178 
L 352.359736 88.182178 
L 352.359736 83.619802 
L 355.772541 83.619802 
L 355.772541 79.057426 
L 389.236484 79.057426 
L 389.236484 74.49505 
L 389.544659 74.49505 
L 389.544659 69.932673 
L 390.613166 69.932673 
L 390.613166 65.370297 
L 392.364128 65.370297 
L 392.403361 56.245545 
L 392.616737 56.245545 
L 392.616737 51.683168 
L 393.096473 51.683168 
L 393.187617 42.558416 
L 394.036958 42.558416 
L 394.036958 37.99604 
L 394.545504 37.99604 
L 394.61504 28.871287 
L 394.685892 28.871287 
L 394.685892 24.308911 
L 396.786533 24.308911 
L 396.786533 19.746535 
L 398.276178 19.746535 
L 398.276178 15.184158 
L 404.065738 15.184158 
L 404.065738 10.621782 
L 404.065738 10.621782 
L 453.6 10.621782 
L 453.6 10.621782 
" style="fill:none;stroke:#00bfbf;stroke-linecap:square;"/>
   </g>
   <g id="line2d_6">
    <path clip-path="url(#p2e7d5286f3)" d="M 200.080296 352.8 
L 200.080296 348.237624 
L 204.152763 348.237624 
L 204.152763 343.675248 
L 204.334121 343.675248 
L 204.334121 339.112871 
L 209.827568 339.112871 
L 209.827568 334.550495 
L 210.262915 334.550495 
L 210.262915 329.988119 
L 210.574717 329.988119 
L 210.574717 325.425743 
L 212.301644 325.425743 
L 212.301644 320.863366 
L 213.853344 320.863366 
L 213.853344 316.30099 
L 214.773759 316.30099 
L 214.773759 311.738614 
L 215.641663 311.738614 
L 215.641663 307.176238 
L 216.526863 307.176238 
L 216.526863 302.613861 
L 217.909227 302.613861 
L 217.909227 298.051485 
L 219.174472 298.051485 
L 219.174472 293.489109 
L 220.316021 293.489109 
L 220.316021 288.926733 
L 220.993591 288.926733 
L 220.993591 284.364356 
L 251.837499 284.364356 
L 251.837499 279.80198 
L 254.943216 279.80198 
L 255.00244 270.677228 
L 255.25818 270.677228 
L 255.321351 256.990099 
L 255.441221 256.990099 
L 255.441221 252.427723 
L 255.63093 252.427723 
L 255.690212 243.30297 
L 255.812416 243.30297 
L 255.812416 238.740594 
L 256.864677 238.740594 
L 256.864677 234.178218 
L 257.024309 234.178218 
L 257.024309 229.615842 
L 257.377337 229.615842 
L 257.428498 211.366337 
L 257.549418 211.366337 
L 257.549418 206.80396 
L 258.00116 206.80396 
L 258.076651 197.679208 
L 258.620643 197.679208 
L 258.620643 193.116832 
L 259.218273 193.116832 
L 259.293234 183.992079 
L 259.391723 183.992079 
L 259.391723 179.429703 
L 259.823158 179.429703 
L 259.823158 174.867327 
L 260.728198 174.867327 
L 260.728198 170.30495 
L 261.265088 170.30495 
L 261.265088 165.742574 
L 261.567477 165.742574 
L 261.567477 161.180198 
L 262.743449 161.180198 
L 262.743449 156.617822 
L 265.560399 156.617822 
L 265.560399 152.055446 
L 272.850419 152.055446 
L 272.850419 147.493069 
L 318.358256 147.493069 
L 318.358256 142.930693 
L 322.426475 142.930693 
L 322.426475 138.368317 
L 323.772088 138.368317 
L 323.772088 133.805941 
L 325.016253 133.805941 
L 325.016253 129.243564 
L 325.68974 129.243564 
L 325.68974 124.681188 
L 327.142048 124.681188 
L 327.142048 120.118812 
L 329.611778 120.118812 
L 329.611778 115.556436 
L 329.903527 115.556436 
L 329.903527 110.994059 
L 331.010632 110.994059 
L 331.010632 106.431683 
L 331.193226 106.431683 
L 331.193226 101.869307 
L 331.447819 101.869307 
L 331.447819 97.306931 
L 333.478825 97.306931 
L 333.478825 92.744554 
L 333.830739 92.744554 
L 333.830739 88.182178 
L 335.649923 88.182178 
L 335.649923 83.619802 
L 336.214669 83.619802 
L 336.214669 79.057426 
L 347.073966 79.057426 
L 347.073966 74.49505 
L 349.114382 74.49505 
L 349.114382 69.932673 
L 352.659535 69.932673 
L 352.659535 65.370297 
L 353.281952 65.370297 
L 353.281952 60.807921 
L 353.924738 60.807921 
L 353.924738 56.245545 
L 354.085945 56.245545 
L 354.085945 51.683168 
L 354.358223 51.683168 
L 354.358223 47.120792 
L 355.893141 47.120792 
L 355.893141 42.558416 
L 357.220586 42.558416 
L 357.220586 37.99604 
L 358.006804 37.99604 
L 358.006804 33.433663 
L 358.523043 33.433663 
L 358.523043 28.871287 
L 358.98801 28.871287 
L 358.98801 24.308911 
L 359.8739 24.308911 
L 359.8739 19.746535 
L 361.91518 19.746535 
L 361.91518 15.184158 
L 363.871618 15.184158 
L 363.871618 10.621782 
L 363.871618 10.621782 
L 453.6 10.621782 
L 453.6 10.621782 
" style="fill:none;stroke:#bf00bf;stroke-linecap:square;"/>
   </g>
   <g id="patch_3">
    <path d="M 7.2 7.2 
L 453.6 7.2 
" style="fill:none;stroke:#000000;stroke-linecap:square;stroke-linejoin:miter;"/>
   </g>
   <g id="patch_4">
    <path d="M 453.6 352.8 
L 453.6 7.2 
" style="fill:none;stroke:#000000;stroke-linecap:square;stroke-linejoin:miter;"/>
   </g>
   <g id="patch_5">
    <path d="M 7.2 352.8 
L 453.6 352.8 
" style="fill:none;stroke:#000000;stroke-linecap:square;stroke-linejoin:miter;"/>
   </g>
   <g id="patch_6">
    <path d="M 7.2 352.8 
L 7.2 7.2 
" style="fill:none;stroke:#000000;stroke-linecap:square;stroke-linejoin:miter;"/>
   </g>
   <g id="matplotlib.axis_1">
    <g id="xtick_1"/>
    <g id="xtick_2">
     <g id="line2d_7">
      <path clip-path="url(#p2e7d5286f3)" d="M 54.098611 352.8 
L 54.098611 7.2 
" style="fill:none;stroke:#000000;stroke-dasharray:1.000000,3.000000;stroke-dashoffset:0.0;stroke-width:0.5;"/>
     </g>
     <g id="line2d_8">
      <defs>
       <path d="M 0 0 
L 0 -4 
" id="ma88db6a5b6" style="stroke:#000000;stroke-width:0.5;"/>
      </defs>
      <g>
       <use style="stroke:#000000;stroke-width:0.5;" x="54.0986107985" xlink:href="#ma88db6a5b6" y="352.8"/>
      </g>
     </g>
     <g id="line2d_9">
      <defs>
       <path d="M 0 0 
L 0 4 
" id="m32f5946e3b" style="stroke:#000000;stroke-width:0.5;"/>
      </defs>
      <g>
       <use style="stroke:#000000;stroke-width:0.5;" x="54.0986107985" xlink:href="#m32f5946e3b" y="7.2"/>
      </g>
     </g>
     <g id="text_1">
      <!-- -6 -->
      <defs>
       <path d="M 33.015625 40.375 
Q 26.375 40.375 22.484375 35.828125 
Q 18.609375 31.296875 18.609375 23.390625 
Q 18.609375 15.53125 22.484375 10.953125 
Q 26.375 6.390625 33.015625 6.390625 
Q 39.65625 6.390625 43.53125 10.953125 
Q 47.40625 15.53125 47.40625 23.390625 
Q 47.40625 31.296875 43.53125 35.828125 
Q 39.65625 40.375 33.015625 40.375 
M 52.59375 71.296875 
L 52.59375 62.3125 
Q 48.875 64.0625 45.09375 64.984375 
Q 41.3125 65.921875 37.59375 65.921875 
Q 27.828125 65.921875 22.671875 59.328125 
Q 17.53125 52.734375 16.796875 39.40625 
Q 19.671875 43.65625 24.015625 45.921875 
Q 28.375 48.1875 33.59375 48.1875 
Q 44.578125 48.1875 50.953125 41.515625 
Q 57.328125 34.859375 57.328125 23.390625 
Q 57.328125 12.15625 50.6875 5.359375 
Q 44.046875 -1.421875 33.015625 -1.421875 
Q 20.359375 -1.421875 13.671875 8.265625 
Q 6.984375 17.96875 6.984375 36.375 
Q 6.984375 53.65625 15.1875 63.9375 
Q 23.390625 74.21875 37.203125 74.21875 
Q 40.921875 74.21875 44.703125 73.484375 
Q 48.484375 72.75 52.59375 71.296875 
" id="BitstreamVeraSans-Roman-36"/>
       <path d="M 4.890625 31.390625 
L 31.203125 31.390625 
L 31.203125 23.390625 
L 4.890625 23.390625 
z
" id="BitstreamVeraSans-Roman-2d"/>
      </defs>
      <g transform="translate(44.1282982985 371.996875)scale(0.2 -0.2)">
       <use xlink:href="#BitstreamVeraSans-Roman-2d"/>
       <use x="36.083984375" xlink:href="#BitstreamVeraSans-Roman-36"/>
      </g>
     </g>
    </g>
    <g id="xtick_3">
     <g id="line2d_10">
      <path clip-path="url(#p2e7d5286f3)" d="M 101.098774 352.8 
L 101.098774 7.2 
" style="fill:none;stroke:#000000;stroke-dasharray:1.000000,3.000000;stroke-dashoffset:0.0;stroke-width:0.5;"/>
     </g>
     <g id="line2d_11">
      <g>
       <use style="stroke:#000000;stroke-width:0.5;" x="101.098774234" xlink:href="#ma88db6a5b6" y="352.8"/>
      </g>
     </g>
     <g id="line2d_12">
      <g>
       <use style="stroke:#000000;stroke-width:0.5;" x="101.098774234" xlink:href="#m32f5946e3b" y="7.2"/>
      </g>
     </g>
     <g id="text_2">
      <!-- -4 -->
      <defs>
       <path d="M 37.796875 64.3125 
L 12.890625 25.390625 
L 37.796875 25.390625 
z
M 35.203125 72.90625 
L 47.609375 72.90625 
L 47.609375 25.390625 
L 58.015625 25.390625 
L 58.015625 17.1875 
L 47.609375 17.1875 
L 47.609375 0 
L 37.796875 0 
L 37.796875 17.1875 
L 4.890625 17.1875 
L 4.890625 26.703125 
z
" id="BitstreamVeraSans-Roman-34"/>
      </defs>
      <g transform="translate(91.1284617339 371.996875)scale(0.2 -0.2)">
       <use xlink:href="#BitstreamVeraSans-Roman-2d"/>
       <use x="36.083984375" xlink:href="#BitstreamVeraSans-Roman-34"/>
      </g>
     </g>
    </g>
    <g id="xtick_4">
     <g id="line2d_13">
      <path clip-path="url(#p2e7d5286f3)" d="M 148.098938 352.8 
L 148.098938 7.2 
" style="fill:none;stroke:#000000;stroke-dasharray:1.000000,3.000000;stroke-dashoffset:0.0;stroke-width:0.5;"/>
     </g>
     <g id="line2d_14">
      <g>
       <use style="stroke:#000000;stroke-width:0.5;" x="148.098937669" xlink:href="#ma88db6a5b6" y="352.8"/>
      </g>
     </g>
     <g id="line2d_15">
      <g>
       <use style="stroke:#000000;stroke-width:0.5;" x="148.098937669" xlink:href="#m32f5946e3b" y="7.2"/>
      </g>
     </g>
     <g id="text_3">
      <!-- -2 -->
      <defs>
       <path d="M 19.1875 8.296875 
L 53.609375 8.296875 
L 53.609375 0 
L 7.328125 0 
L 7.328125 8.296875 
Q 12.9375 14.109375 22.625 23.890625 
Q 32.328125 33.6875 34.8125 36.53125 
Q 39.546875 41.84375 41.421875 45.53125 
Q 43.3125 49.21875 43.3125 52.78125 
Q 43.3125 58.59375 39.234375 62.25 
Q 35.15625 65.921875 28.609375 65.921875 
Q 23.96875 65.921875 18.8125 64.3125 
Q 13.671875 62.703125 7.8125 59.421875 
L 7.8125 69.390625 
Q 13.765625 71.78125 18.9375 73 
Q 24.125 74.21875 28.421875 74.21875 
Q 39.75 74.21875 46.484375 68.546875 
Q 53.21875 62.890625 53.21875 53.421875 
Q 53.21875 48.921875 51.53125 44.890625 
Q 49.859375 40.875 45.40625 35.40625 
Q 44.1875 33.984375 37.640625 27.21875 
Q 31.109375 20.453125 19.1875 8.296875 
" id="BitstreamVeraSans-Roman-32"/>
      </defs>
      <g transform="translate(138.128625169 371.996875)scale(0.2 -0.2)">
       <use xlink:href="#BitstreamVeraSans-Roman-2d"/>
       <use x="36.083984375" xlink:href="#BitstreamVeraSans-Roman-32"/>
      </g>
     </g>
    </g>
    <g id="xtick_5">
     <g id="line2d_16">
      <path clip-path="url(#p2e7d5286f3)" d="M 195.099101 352.8 
L 195.099101 7.2 
" style="fill:none;stroke:#000000;stroke-dasharray:1.000000,3.000000;stroke-dashoffset:0.0;stroke-width:0.5;"/>
     </g>
     <g id="line2d_17">
      <g>
       <use style="stroke:#000000;stroke-width:0.5;" x="195.099101105" xlink:href="#ma88db6a5b6" y="352.8"/>
      </g>
     </g>
     <g id="line2d_18">
      <g>
       <use style="stroke:#000000;stroke-width:0.5;" x="195.099101105" xlink:href="#m32f5946e3b" y="7.2"/>
      </g>
     </g>
     <g id="text_4">
      <!-- 0 -->
      <defs>
       <path d="M 31.78125 66.40625 
Q 24.171875 66.40625 20.328125 58.90625 
Q 16.5 51.421875 16.5 36.375 
Q 16.5 21.390625 20.328125 13.890625 
Q 24.171875 6.390625 31.78125 6.390625 
Q 39.453125 6.390625 43.28125 13.890625 
Q 47.125 21.390625 47.125 36.375 
Q 47.125 51.421875 43.28125 58.90625 
Q 39.453125 66.40625 31.78125 66.40625 
M 31.78125 74.21875 
Q 44.046875 74.21875 50.515625 64.515625 
Q 56.984375 54.828125 56.984375 36.375 
Q 56.984375 17.96875 50.515625 8.265625 
Q 44.046875 -1.421875 31.78125 -1.421875 
Q 19.53125 -1.421875 13.0625 8.265625 
Q 6.59375 17.96875 6.59375 36.375 
Q 6.59375 54.828125 13.0625 64.515625 
Q 19.53125 74.21875 31.78125 74.21875 
" id="BitstreamVeraSans-Roman-30"/>
      </defs>
      <g transform="translate(188.736601105 371.996875)scale(0.2 -0.2)">
       <use xlink:href="#BitstreamVeraSans-Roman-30"/>
      </g>
     </g>
    </g>
    <g id="xtick_6">
     <g id="line2d_19">
      <path clip-path="url(#p2e7d5286f3)" d="M 242.099265 352.8 
L 242.099265 7.2 
" style="fill:none;stroke:#000000;stroke-dasharray:1.000000,3.000000;stroke-dashoffset:0.0;stroke-width:0.5;"/>
     </g>
     <g id="line2d_20">
      <g>
       <use style="stroke:#000000;stroke-width:0.5;" x="242.09926454" xlink:href="#ma88db6a5b6" y="352.8"/>
      </g>
     </g>
     <g id="line2d_21">
      <g>
       <use style="stroke:#000000;stroke-width:0.5;" x="242.09926454" xlink:href="#m32f5946e3b" y="7.2"/>
      </g>
     </g>
     <g id="text_5">
      <!-- 2 -->
      <g transform="translate(235.73676454 371.996875)scale(0.2 -0.2)">
       <use xlink:href="#BitstreamVeraSans-Roman-32"/>
      </g>
     </g>
    </g>
    <g id="xtick_7">
     <g id="line2d_22">
      <path clip-path="url(#p2e7d5286f3)" d="M 289.099428 352.8 
L 289.099428 7.2 
" style="fill:none;stroke:#000000;stroke-dasharray:1.000000,3.000000;stroke-dashoffset:0.0;stroke-width:0.5;"/>
     </g>
     <g id="line2d_23">
      <g>
       <use style="stroke:#000000;stroke-width:0.5;" x="289.099427976" xlink:href="#ma88db6a5b6" y="352.8"/>
      </g>
     </g>
     <g id="line2d_24">
      <g>
       <use style="stroke:#000000;stroke-width:0.5;" x="289.099427976" xlink:href="#m32f5946e3b" y="7.2"/>
      </g>
     </g>
     <g id="text_6">
      <!-- 4 -->
      <g transform="translate(282.736927976 371.996875)scale(0.2 -0.2)">
       <use xlink:href="#BitstreamVeraSans-Roman-34"/>
      </g>
     </g>
    </g>
    <g id="xtick_8">
     <g id="line2d_25">
      <path clip-path="url(#p2e7d5286f3)" d="M 336.099591 352.8 
L 336.099591 7.2 
" style="fill:none;stroke:#000000;stroke-dasharray:1.000000,3.000000;stroke-dashoffset:0.0;stroke-width:0.5;"/>
     </g>
     <g id="line2d_26">
      <g>
       <use style="stroke:#000000;stroke-width:0.5;" x="336.099591411" xlink:href="#ma88db6a5b6" y="352.8"/>
      </g>
     </g>
     <g id="line2d_27">
      <g>
       <use style="stroke:#000000;stroke-width:0.5;" x="336.099591411" xlink:href="#m32f5946e3b" y="7.2"/>
      </g>
     </g>
     <g id="text_7">
      <!-- 6 -->
      <g transform="translate(329.737091411 371.996875)scale(0.2 -0.2)">
       <use xlink:href="#BitstreamVeraSans-Roman-36"/>
      </g>
     </g>
    </g>
    <g id="xtick_9">
     <g id="line2d_28">
      <path clip-path="url(#p2e7d5286f3)" d="M 383.099755 352.8 
L 383.099755 7.2 
" style="fill:none;stroke:#000000;stroke-dasharray:1.000000,3.000000;stroke-dashoffset:0.0;stroke-width:0.5;"/>
     </g>
     <g id="line2d_29">
      <g>
       <use style="stroke:#000000;stroke-width:0.5;" x="383.099754847" xlink:href="#ma88db6a5b6" y="352.8"/>
      </g>
     </g>
     <g id="line2d_30">
      <g>
       <use style="stroke:#000000;stroke-width:0.5;" x="383.099754847" xlink:href="#m32f5946e3b" y="7.2"/>
      </g>
     </g>
     <g id="text_8">
      <!-- 8 -->
      <defs>
       <path d="M 31.78125 34.625 
Q 24.75 34.625 20.71875 30.859375 
Q 16.703125 27.09375 16.703125 20.515625 
Q 16.703125 13.921875 20.71875 10.15625 
Q 24.75 6.390625 31.78125 6.390625 
Q 38.8125 6.390625 42.859375 10.171875 
Q 46.921875 13.96875 46.921875 20.515625 
Q 46.921875 27.09375 42.890625 30.859375 
Q 38.875 34.625 31.78125 34.625 
M 21.921875 38.8125 
Q 15.578125 40.375 12.03125 44.71875 
Q 8.5 49.078125 8.5 55.328125 
Q 8.5 64.0625 14.71875 69.140625 
Q 20.953125 74.21875 31.78125 74.21875 
Q 42.671875 74.21875 48.875 69.140625 
Q 55.078125 64.0625 55.078125 55.328125 
Q 55.078125 49.078125 51.53125 44.71875 
Q 48 40.375 41.703125 38.8125 
Q 48.828125 37.15625 52.796875 32.3125 
Q 56.78125 27.484375 56.78125 20.515625 
Q 56.78125 9.90625 50.3125 4.234375 
Q 43.84375 -1.421875 31.78125 -1.421875 
Q 19.734375 -1.421875 13.25 4.234375 
Q 6.78125 9.90625 6.78125 20.515625 
Q 6.78125 27.484375 10.78125 32.3125 
Q 14.796875 37.15625 21.921875 38.8125 
M 18.3125 54.390625 
Q 18.3125 48.734375 21.84375 45.5625 
Q 25.390625 42.390625 31.78125 42.390625 
Q 38.140625 42.390625 41.71875 45.5625 
Q 45.3125 48.734375 45.3125 54.390625 
Q 45.3125 60.0625 41.71875 63.234375 
Q 38.140625 66.40625 31.78125 66.40625 
Q 25.390625 66.40625 21.84375 63.234375 
Q 18.3125 60.0625 18.3125 54.390625 
" id="BitstreamVeraSans-Roman-38"/>
      </defs>
      <g transform="translate(376.737254847 371.996875)scale(0.2 -0.2)">
       <use xlink:href="#BitstreamVeraSans-Roman-38"/>
      </g>
     </g>
    </g>
    <g id="xtick_10">
     <g id="line2d_31">
      <path clip-path="url(#p2e7d5286f3)" d="M 430.099918 352.8 
L 430.099918 7.2 
" style="fill:none;stroke:#000000;stroke-dasharray:1.000000,3.000000;stroke-dashoffset:0.0;stroke-width:0.5;"/>
     </g>
     <g id="line2d_32">
      <g>
       <use style="stroke:#000000;stroke-width:0.5;" x="430.099918282" xlink:href="#ma88db6a5b6" y="352.8"/>
      </g>
     </g>
     <g id="line2d_33">
      <g>
       <use style="stroke:#000000;stroke-width:0.5;" x="430.099918282" xlink:href="#m32f5946e3b" y="7.2"/>
      </g>
     </g>
     <g id="text_9">
      <!-- 10 -->
      <defs>
       <path d="M 12.40625 8.296875 
L 28.515625 8.296875 
L 28.515625 63.921875 
L 10.984375 60.40625 
L 10.984375 69.390625 
L 28.421875 72.90625 
L 38.28125 72.90625 
L 38.28125 8.296875 
L 54.390625 8.296875 
L 54.390625 0 
L 12.40625 0 
z
" id="BitstreamVeraSans-Roman-31"/>
      </defs>
      <g transform="translate(417.374918282 371.996875)scale(0.2 -0.2)">
       <use xlink:href="#BitstreamVeraSans-Roman-31"/>
       <use x="63.623046875" xlink:href="#BitstreamVeraSans-Roman-30"/>
      </g>
     </g>
    </g>
    <g id="xtick_11"/>
    <g id="xtick_12">
     <g id="line2d_34">
      <defs>
       <path d="M 0 0 
L 0 -2 
" id="m52e08cfd43" style="stroke:#000000;stroke-width:0.5;"/>
      </defs>
      <g>
       <use style="stroke:#000000;stroke-width:0.5;" x="54.0986107985" xlink:href="#m52e08cfd43" y="352.8"/>
      </g>
     </g>
     <g id="line2d_35">
      <defs>
       <path d="M 0 0 
L 0 2 
" id="m88712f0b1a" style="stroke:#000000;stroke-width:0.5;"/>
      </defs>
      <g>
       <use style="stroke:#000000;stroke-width:0.5;" x="54.0986107985" xlink:href="#m88712f0b1a" y="7.2"/>
      </g>
     </g>
    </g>
    <g id="xtick_13">
     <g id="line2d_36">
      <g>
       <use style="stroke:#000000;stroke-width:0.5;" x="101.098774234" xlink:href="#m52e08cfd43" y="352.8"/>
      </g>
     </g>
     <g id="line2d_37">
      <g>
       <use style="stroke:#000000;stroke-width:0.5;" x="101.098774234" xlink:href="#m88712f0b1a" y="7.2"/>
      </g>
     </g>
    </g>
    <g id="xtick_14">
     <g id="line2d_38">
      <g>
       <use style="stroke:#000000;stroke-width:0.5;" x="148.098937669" xlink:href="#m52e08cfd43" y="352.8"/>
      </g>
     </g>
     <g id="line2d_39">
      <g>
       <use style="stroke:#000000;stroke-width:0.5;" x="148.098937669" xlink:href="#m88712f0b1a" y="7.2"/>
      </g>
     </g>
    </g>
    <g id="xtick_15">
     <g id="line2d_40">
      <g>
       <use style="stroke:#000000;stroke-width:0.5;" x="195.099101105" xlink:href="#m52e08cfd43" y="352.8"/>
      </g>
     </g>
     <g id="line2d_41">
      <g>
       <use style="stroke:#000000;stroke-width:0.5;" x="195.099101105" xlink:href="#m88712f0b1a" y="7.2"/>
      </g>
     </g>
    </g>
    <g id="xtick_16">
     <g id="line2d_42">
      <g>
       <use style="stroke:#000000;stroke-width:0.5;" x="242.09926454" xlink:href="#m52e08cfd43" y="352.8"/>
      </g>
     </g>
     <g id="line2d_43">
      <g>
       <use style="stroke:#000000;stroke-width:0.5;" x="242.09926454" xlink:href="#m88712f0b1a" y="7.2"/>
      </g>
     </g>
    </g>
    <g id="xtick_17">
     <g id="line2d_44">
      <g>
       <use style="stroke:#000000;stroke-width:0.5;" x="289.099427976" xlink:href="#m52e08cfd43" y="352.8"/>
      </g>
     </g>
     <g id="line2d_45">
      <g>
       <use style="stroke:#000000;stroke-width:0.5;" x="289.099427976" xlink:href="#m88712f0b1a" y="7.2"/>
      </g>
     </g>
    </g>
    <g id="xtick_18">
     <g id="line2d_46">
      <g>
       <use style="stroke:#000000;stroke-width:0.5;" x="336.099591411" xlink:href="#m52e08cfd43" y="352.8"/>
      </g>
     </g>
     <g id="line2d_47">
      <g>
       <use style="stroke:#000000;stroke-width:0.5;" x="336.099591411" xlink:href="#m88712f0b1a" y="7.2"/>
      </g>
     </g>
    </g>
    <g id="xtick_19">
     <g id="line2d_48">
      <g>
       <use style="stroke:#000000;stroke-width:0.5;" x="383.099754847" xlink:href="#m52e08cfd43" y="352.8"/>
      </g>
     </g>
     <g id="line2d_49">
      <g>
       <use style="stroke:#000000;stroke-width:0.5;" x="383.099754847" xlink:href="#m88712f0b1a" y="7.2"/>
      </g>
     </g>
    </g>
    <g id="xtick_20">
     <g id="line2d_50">
      <g>
       <use style="stroke:#000000;stroke-width:0.5;" x="430.099918282" xlink:href="#m52e08cfd43" y="352.8"/>
      </g>
     </g>
     <g id="line2d_51">
      <g>
       <use style="stroke:#000000;stroke-width:0.5;" x="430.099918282" xlink:href="#m88712f0b1a" y="7.2"/>
      </g>
     </g>
    </g>
    <g id="text_10">
     <!-- log10 of Df -->
     <defs>
      <path id="BitstreamVeraSans-Roman-20"/>
      <path d="M 30.609375 48.390625 
Q 23.390625 48.390625 19.1875 42.75 
Q 14.984375 37.109375 14.984375 27.296875 
Q 14.984375 17.484375 19.15625 11.84375 
Q 23.34375 6.203125 30.609375 6.203125 
Q 37.796875 6.203125 41.984375 11.859375 
Q 46.1875 17.53125 46.1875 27.296875 
Q 46.1875 37.015625 41.984375 42.703125 
Q 37.796875 48.390625 30.609375 48.390625 
M 30.609375 56 
Q 42.328125 56 49.015625 48.375 
Q 55.71875 40.765625 55.71875 27.296875 
Q 55.71875 13.875 49.015625 6.21875 
Q 42.328125 -1.421875 30.609375 -1.421875 
Q 18.84375 -1.421875 12.171875 6.21875 
Q 5.515625 13.875 5.515625 27.296875 
Q 5.515625 40.765625 12.171875 48.375 
Q 18.84375 56 30.609375 56 
" id="BitstreamVeraSans-Roman-6f"/>
      <path d="M 9.421875 75.984375 
L 18.40625 75.984375 
L 18.40625 0 
L 9.421875 0 
z
" id="BitstreamVeraSans-Roman-6c"/>
      <path d="M 19.671875 64.796875 
L 19.671875 8.109375 
L 31.59375 8.109375 
Q 46.6875 8.109375 53.6875 14.9375 
Q 60.6875 21.78125 60.6875 36.53125 
Q 60.6875 51.171875 53.6875 57.984375 
Q 46.6875 64.796875 31.59375 64.796875 
z
M 9.8125 72.90625 
L 30.078125 72.90625 
Q 51.265625 72.90625 61.171875 64.09375 
Q 71.09375 55.28125 71.09375 36.53125 
Q 71.09375 17.671875 61.125 8.828125 
Q 51.171875 0 30.078125 0 
L 9.8125 0 
z
" id="BitstreamVeraSans-Roman-44"/>
      <path d="M 45.40625 27.984375 
Q 45.40625 37.75 41.375 43.109375 
Q 37.359375 48.484375 30.078125 48.484375 
Q 22.859375 48.484375 18.828125 43.109375 
Q 14.796875 37.75 14.796875 27.984375 
Q 14.796875 18.265625 18.828125 12.890625 
Q 22.859375 7.515625 30.078125 7.515625 
Q 37.359375 7.515625 41.375 12.890625 
Q 45.40625 18.265625 45.40625 27.984375 
M 54.390625 6.78125 
Q 54.390625 -7.171875 48.1875 -13.984375 
Q 42 -20.796875 29.203125 -20.796875 
Q 24.46875 -20.796875 20.265625 -20.09375 
Q 16.0625 -19.390625 12.109375 -17.921875 
L 12.109375 -9.1875 
Q 16.0625 -11.328125 19.921875 -12.34375 
Q 23.78125 -13.375 27.78125 -13.375 
Q 36.625 -13.375 41.015625 -8.765625 
Q 45.40625 -4.15625 45.40625 5.171875 
L 45.40625 9.625 
Q 42.625 4.78125 38.28125 2.390625 
Q 33.9375 0 27.875 0 
Q 17.828125 0 11.671875 7.65625 
Q 5.515625 15.328125 5.515625 27.984375 
Q 5.515625 40.671875 11.671875 48.328125 
Q 17.828125 56 27.875 56 
Q 33.9375 56 38.28125 53.609375 
Q 42.625 51.21875 45.40625 46.390625 
L 45.40625 54.6875 
L 54.390625 54.6875 
z
" id="BitstreamVeraSans-Roman-67"/>
      <path d="M 37.109375 75.984375 
L 37.109375 68.5 
L 28.515625 68.5 
Q 23.6875 68.5 21.796875 66.546875 
Q 19.921875 64.59375 19.921875 59.515625 
L 19.921875 54.6875 
L 34.71875 54.6875 
L 34.71875 47.703125 
L 19.921875 47.703125 
L 19.921875 0 
L 10.890625 0 
L 10.890625 47.703125 
L 2.296875 47.703125 
L 2.296875 54.6875 
L 10.890625 54.6875 
L 10.890625 58.5 
Q 10.890625 67.625 15.140625 71.796875 
Q 19.390625 75.984375 28.609375 75.984375 
z
" id="BitstreamVeraSans-Roman-66"/>
     </defs>
     <g transform="translate(175.2140625 396.353125)scale(0.2 -0.2)">
      <use xlink:href="#BitstreamVeraSans-Roman-6c"/>
      <use x="27.783203125" xlink:href="#BitstreamVeraSans-Roman-6f"/>
      <use x="88.96484375" xlink:href="#BitstreamVeraSans-Roman-67"/>
      <use x="152.44140625" xlink:href="#BitstreamVeraSans-Roman-31"/>
      <use x="216.064453125" xlink:href="#BitstreamVeraSans-Roman-30"/>
      <use x="279.6875" xlink:href="#BitstreamVeraSans-Roman-20"/>
      <use x="311.474609375" xlink:href="#BitstreamVeraSans-Roman-6f"/>
      <use x="372.65625" xlink:href="#BitstreamVeraSans-Roman-66"/>
      <use x="407.861328125" xlink:href="#BitstreamVeraSans-Roman-20"/>
      <use x="439.6484375" xlink:href="#BitstreamVeraSans-Roman-44"/>
      <use x="516.650390625" xlink:href="#BitstreamVeraSans-Roman-66"/>
     </g>
    </g>
   </g>
   <g id="matplotlib.axis_2">
    <g id="ytick_1">
     <g id="line2d_52">
      <path clip-path="url(#p2e7d5286f3)" d="M 7.2 352.8 
L 453.6 352.8 
" style="fill:none;stroke:#000000;stroke-dasharray:1.000000,3.000000;stroke-dashoffset:0.0;stroke-width:0.5;"/>
     </g>
     <g id="line2d_53">
      <defs>
       <path d="M 0 0 
L 4 0 
" id="mea62110fc1" style="stroke:#000000;stroke-width:0.5;"/>
      </defs>
      <g>
       <use style="stroke:#000000;stroke-width:0.5;" x="7.2" xlink:href="#mea62110fc1" y="352.8"/>
      </g>
     </g>
     <g id="line2d_54">
      <defs>
       <path d="M 0 0 
L -4 0 
" id="m9f8e95bab1" style="stroke:#000000;stroke-width:0.5;"/>
      </defs>
      <g>
       <use style="stroke:#000000;stroke-width:0.5;" x="453.6" xlink:href="#m9f8e95bab1" y="352.8"/>
      </g>
     </g>
    </g>
    <g id="ytick_2">
     <g id="line2d_55">
      <path clip-path="url(#p2e7d5286f3)" d="M 7.2 284.364356 
L 453.6 284.364356 
" style="fill:none;stroke:#000000;stroke-dasharray:1.000000,3.000000;stroke-dashoffset:0.0;stroke-width:0.5;"/>
     </g>
     <g id="line2d_56">
      <g>
       <use style="stroke:#000000;stroke-width:0.5;" x="7.2" xlink:href="#mea62110fc1" y="284.364356436"/>
      </g>
     </g>
     <g id="line2d_57">
      <g>
       <use style="stroke:#000000;stroke-width:0.5;" x="453.6" xlink:href="#m9f8e95bab1" y="284.364356436"/>
      </g>
     </g>
    </g>
    <g id="ytick_3">
     <g id="line2d_58">
      <path clip-path="url(#p2e7d5286f3)" d="M 7.2 215.928713 
L 453.6 215.928713 
" style="fill:none;stroke:#000000;stroke-dasharray:1.000000,3.000000;stroke-dashoffset:0.0;stroke-width:0.5;"/>
     </g>
     <g id="line2d_59">
      <g>
       <use style="stroke:#000000;stroke-width:0.5;" x="7.2" xlink:href="#mea62110fc1" y="215.928712871"/>
      </g>
     </g>
     <g id="line2d_60">
      <g>
       <use style="stroke:#000000;stroke-width:0.5;" x="453.6" xlink:href="#m9f8e95bab1" y="215.928712871"/>
      </g>
     </g>
    </g>
    <g id="ytick_4">
     <g id="line2d_61">
      <path clip-path="url(#p2e7d5286f3)" d="M 7.2 147.493069 
L 453.6 147.493069 
" style="fill:none;stroke:#000000;stroke-dasharray:1.000000,3.000000;stroke-dashoffset:0.0;stroke-width:0.5;"/>
     </g>
     <g id="line2d_62">
      <g>
       <use style="stroke:#000000;stroke-width:0.5;" x="7.2" xlink:href="#mea62110fc1" y="147.493069307"/>
      </g>
     </g>
     <g id="line2d_63">
      <g>
       <use style="stroke:#000000;stroke-width:0.5;" x="453.6" xlink:href="#m9f8e95bab1" y="147.493069307"/>
      </g>
     </g>
    </g>
    <g id="ytick_5">
     <g id="line2d_64">
      <path clip-path="url(#p2e7d5286f3)" d="M 7.2 79.057426 
L 453.6 79.057426 
" style="fill:none;stroke:#000000;stroke-dasharray:1.000000,3.000000;stroke-dashoffset:0.0;stroke-width:0.5;"/>
     </g>
     <g id="line2d_65">
      <g>
       <use style="stroke:#000000;stroke-width:0.5;" x="7.2" xlink:href="#mea62110fc1" y="79.0574257426"/>
      </g>
     </g>
     <g id="line2d_66">
      <g>
       <use style="stroke:#000000;stroke-width:0.5;" x="453.6" xlink:href="#m9f8e95bab1" y="79.0574257426"/>
      </g>
     </g>
    </g>
    <g id="ytick_6">
     <g id="line2d_67">
      <path clip-path="url(#p2e7d5286f3)" d="M 7.2 10.621782 
L 453.6 10.621782 
" style="fill:none;stroke:#000000;stroke-dasharray:1.000000,3.000000;stroke-dashoffset:0.0;stroke-width:0.5;"/>
     </g>
     <g id="line2d_68">
      <g>
       <use style="stroke:#000000;stroke-width:0.5;" x="7.2" xlink:href="#mea62110fc1" y="10.6217821782"/>
      </g>
     </g>
     <g id="line2d_69">
      <g>
       <use style="stroke:#000000;stroke-width:0.5;" x="453.6" xlink:href="#m9f8e95bab1" y="10.6217821782"/>
      </g>
     </g>
    </g>
   </g>
   <g id="text_11">
    <!-- {f10-f14}, 20-D -->
    <defs>
     <path d="M 12.5 -9.28125 
L 15.921875 -9.28125 
Q 22.75 -9.28125 24.828125 -7.171875 
Q 26.90625 -5.078125 26.90625 1.90625 
L 26.90625 14.015625 
Q 26.90625 21.625 29.09375 25.09375 
Q 31.296875 28.5625 36.71875 29.890625 
Q 31.296875 31.109375 29.09375 34.5625 
Q 26.90625 38.03125 26.90625 45.703125 
L 26.90625 57.8125 
Q 26.90625 64.75 24.828125 66.875 
Q 22.75 69 15.921875 69 
L 12.5 69 
L 12.5 75.984375 
L 15.578125 75.984375 
Q 27.734375 75.984375 31.8125 72.390625 
Q 35.890625 68.796875 35.890625 58.015625 
L 35.890625 46.296875 
Q 35.890625 39.015625 38.515625 36.203125 
Q 41.15625 33.40625 48.09375 33.40625 
L 51.125 33.40625 
L 51.125 26.421875 
L 48.09375 26.421875 
Q 41.15625 26.421875 38.515625 23.578125 
Q 35.890625 20.75 35.890625 13.375 
L 35.890625 1.703125 
Q 35.890625 -9.078125 31.8125 -12.6875 
Q 27.734375 -16.3125 15.578125 -16.3125 
L 12.5 -16.3125 
z
" id="BitstreamVeraSans-Roman-7d"/>
     <path d="M 51.125 -9.28125 
L 51.125 -16.3125 
L 48.09375 -16.3125 
Q 35.9375 -16.3125 31.8125 -12.6875 
Q 27.6875 -9.078125 27.6875 1.703125 
L 27.6875 13.375 
Q 27.6875 20.75 25.046875 23.578125 
Q 22.40625 26.421875 15.484375 26.421875 
L 12.5 26.421875 
L 12.5 33.40625 
L 15.484375 33.40625 
Q 22.46875 33.40625 25.078125 36.203125 
Q 27.6875 39.015625 27.6875 46.296875 
L 27.6875 58.015625 
Q 27.6875 68.796875 31.8125 72.390625 
Q 35.9375 75.984375 48.09375 75.984375 
L 51.125 75.984375 
L 51.125 69 
L 47.796875 69 
Q 40.921875 69 38.8125 66.84375 
Q 36.71875 64.703125 36.71875 57.8125 
L 36.71875 45.703125 
Q 36.71875 38.03125 34.5 34.5625 
Q 32.28125 31.109375 26.90625 29.890625 
Q 32.328125 28.5625 34.515625 25.09375 
Q 36.71875 21.625 36.71875 14.015625 
L 36.71875 1.90625 
Q 36.71875 -4.984375 38.8125 -7.125 
Q 40.921875 -9.28125 47.796875 -9.28125 
z
" id="BitstreamVeraSans-Roman-7b"/>
     <path d="M 11.71875 12.40625 
L 22.015625 12.40625 
L 22.015625 4 
L 14.015625 -11.625 
L 7.71875 -11.625 
L 11.71875 4 
z
" id="BitstreamVeraSans-Roman-2c"/>
    </defs>
    <g transform="translate(286.247 345.888)scale(0.2 -0.2)">
     <use xlink:href="#BitstreamVeraSans-Roman-7b"/>
     <use x="63.623046875" xlink:href="#BitstreamVeraSans-Roman-66"/>
     <use x="98.828125" xlink:href="#BitstreamVeraSans-Roman-31"/>
     <use x="162.451171875" xlink:href="#BitstreamVeraSans-Roman-30"/>
     <use x="226.07421875" xlink:href="#BitstreamVeraSans-Roman-2d"/>
     <use x="262.158203125" xlink:href="#BitstreamVeraSans-Roman-66"/>
     <use x="297.36328125" xlink:href="#BitstreamVeraSans-Roman-31"/>
     <use x="360.986328125" xlink:href="#BitstreamVeraSans-Roman-34"/>
     <use x="424.609375" xlink:href="#BitstreamVeraSans-Roman-7d"/>
     <use x="488.232421875" xlink:href="#BitstreamVeraSans-Roman-2c"/>
     <use x="520.01953125" xlink:href="#BitstreamVeraSans-Roman-20"/>
     <use x="551.806640625" xlink:href="#BitstreamVeraSans-Roman-32"/>
     <use x="615.4296875" xlink:href="#BitstreamVeraSans-Roman-30"/>
     <use x="679.052734375" xlink:href="#BitstreamVeraSans-Roman-2d"/>
     <use x="715.13671875" xlink:href="#BitstreamVeraSans-Roman-44"/>
    </g>
   </g>
   <g id="text_12">
    <!-- 0.0.0 -->
    <defs>
     <path d="M 10.6875 12.40625 
L 21 12.40625 
L 21 0 
L 10.6875 0 
z
" id="BitstreamVeraSans-Roman-2e"/>
    </defs>
    <g style="fill:#808080;" transform="translate(217.678125 347.2643125)scale(0.1 -0.1)">
     <use xlink:href="#BitstreamVeraSans-Roman-30"/>
     <use x="63.623046875" xlink:href="#BitstreamVeraSans-Roman-2e"/>
     <use x="95.41015625" xlink:href="#BitstreamVeraSans-Roman-30"/>
     <use x="159.033203125" xlink:href="#BitstreamVeraSans-Roman-2e"/>
     <use x="190.8203125" xlink:href="#BitstreamVeraSans-Roman-30"/>
    </g>
   </g>
  </g>
 </g>
 <defs>
  <clipPath id="p2e7d5286f3">
   <rect height="345.6" width="446.4" x="7.2" y="7.2"/>
  </clipPath>
 </defs>
</svg>
