<?xml version="1.0" encoding="utf-8" standalone="no"?>
<!DOCTYPE svg PUBLIC "-//W3C//DTD SVG 1.1//EN"
  "http://www.w3.org/Graphics/SVG/1.1/DTD/svg11.dtd">
<!-- Created with matplotlib (http://matplotlib.org/) -->
<svg height="407pt" version="1.1" viewBox="0 0 460 407" width="460pt" xmlns="http://www.w3.org/2000/svg" xmlns:xlink="http://www.w3.org/1999/xlink">
 <defs>
  <style type="text/css">
*{stroke-linecap:butt;stroke-linejoin:round;stroke-miterlimit:100000;}
  </style>
 </defs>
 <g id="figure_1">
  <g id="patch_1">
   <path d="M 0 407.7125 
L 460.8 407.7125 
L 460.8 0 
L 0 0 
z
" style="fill:#ffffff;"/>
  </g>
  <g id="axes_1">
   <g id="patch_2">
    <path d="M 7.2 352.8 
L 453.6 352.8 
L 453.6 7.2 
L 7.2 7.2 
z
" style="fill:#ffffff;"/>
   </g>
   <g id="line2d_1">
    <path clip-path="url(#pd2ee1734db)" d="M 113.026799 352.8 
L 113.026799 348.237624 
L 191.339473 348.237624 
L 191.339473 343.675248 
L 197.337684 343.675248 
L 197.337685 334.550495 
L 201.941068 334.550495 
L 201.941068 329.988119 
L 202.393735 329.988119 
L 202.393735 325.425743 
L 203.797788 325.425743 
L 203.797788 320.863366 
L 204.247816 320.863366 
L 204.247816 316.30099 
L 204.813838 316.30099 
L 204.813838 311.738614 
L 205.245751 311.738614 
L 205.245751 307.176238 
L 205.526812 307.176238 
L 205.610756 298.051485 
L 205.69464 298.051485 
L 205.776652 279.80198 
L 205.821818 279.80198 
L 205.821818 275.239604 
L 205.962602 275.239604 
L 206.039671 261.552475 
L 206.087143 261.552475 
L 206.19073 252.427723 
L 206.252646 252.427723 
L 206.296412 243.30297 
L 206.388261 243.30297 
L 206.428325 234.178218 
L 206.552528 234.178218 
L 206.612426 215.928713 
L 206.701527 215.928713 
L 206.701527 211.366337 
L 206.871093 211.366337 
L 206.955442 197.679208 
L 207.124753 197.679208 
L 207.225861 183.992079 
L 207.522075 183.992079 
L 207.522075 179.429703 
L 211.652216 179.429703 
L 211.652216 174.867327 
L 212.414194 174.867327 
L 212.414194 170.30495 
L 214.448596 170.30495 
L 214.455987 161.180198 
L 217.227908 161.180198 
L 217.227908 156.617822 
L 219.687805 156.617822 
L 219.687805 147.493069 
L 222.211464 147.493069 
L 222.211464 142.930693 
L 223.648202 142.930693 
L 223.648202 138.368317 
L 224.492132 138.368317 
L 224.492132 133.805941 
L 224.760273 133.805941 
L 224.760369 120.118812 
L 225.250225 120.118812 
L 225.250225 115.556436 
L 225.600391 115.556436 
L 225.600391 110.994059 
L 225.936589 110.994059 
L 225.936589 106.431683 
L 226.543319 106.431683 
L 226.543319 101.869307 
L 228.143681 101.869307 
L 228.143681 97.306931 
L 229.066408 97.306931 
L 229.066408 92.744554 
L 230.419586 92.744554 
L 230.419586 88.182178 
L 231.662091 88.182178 
L 231.662091 79.057426 
L 242.930879 79.057426 
L 243.014507 69.932673 
L 243.162482 69.932673 
L 243.200179 60.807921 
L 243.379893 60.807921 
L 243.379893 56.245545 
L 243.684589 56.245545 
L 243.684589 51.683168 
L 244.315499 51.683168 
L 244.315499 47.120792 
L 244.444879 47.120792 
L 244.444879 42.558416 
L 244.627405 42.558416 
L 244.721676 28.871287 
L 245.131669 28.871287 
L 245.131669 24.308911 
L 245.427254 24.308911 
L 245.427254 19.746535 
L 245.787757 19.746535 
L 245.884442 10.621782 
L 245.884442 10.621782 
L 453.6 10.621782 
L 453.6 10.621782 
" style="fill:none;stroke:#ff0000;stroke-linecap:square;stroke-width:3.0;"/>
   </g>
   <g id="line2d_2">
    <path clip-path="url(#pd2ee1734db)" d="M 213.091366 352.8 
L 213.091366 348.237624 
L 219.151433 348.237624 
L 219.151433 343.675248 
L 220.159088 343.675248 
L 220.159088 339.112871 
L 220.483267 339.112871 
L 220.590668 329.988119 
L 221.320698 329.988119 
L 221.320698 325.425743 
L 222.536254 325.425743 
L 222.536254 320.863366 
L 222.977121 320.863366 
L 222.977121 316.30099 
L 223.687078 316.30099 
L 223.687078 311.738614 
L 224.055822 311.738614 
L 224.055822 307.176238 
L 224.496399 307.176238 
L 224.496399 302.613861 
L 224.851997 302.613861 
L 224.851997 298.051485 
L 225.035664 298.051485 
L 225.035664 293.489109 
L 225.311891 293.489109 
L 225.311891 288.926733 
L 226.365763 288.926733 
L 226.365763 284.364356 
L 240.233427 284.364356 
L 240.313037 275.239604 
L 240.398281 275.239604 
L 240.504307 261.552475 
L 240.512651 261.552475 
L 240.621068 229.615842 
L 240.648588 229.615842 
L 240.701614 211.366337 
L 240.773732 211.366337 
L 240.77495 202.241584 
L 240.899206 202.241584 
L 240.90253 193.116832 
L 241.059001 193.116832 
L 241.073152 183.992079 
L 241.201339 183.992079 
L 241.287353 170.30495 
L 241.351138 170.30495 
L 241.39599 161.180198 
L 241.581511 161.180198 
L 241.581511 156.617822 
L 242.143953 156.617822 
L 242.25064 147.493069 
L 260.20947 147.493069 
L 260.20947 142.930693 
L 260.558063 142.930693 
L 260.558063 138.368317 
L 262.08926 138.368317 
L 262.08926 133.805941 
L 272.274107 133.805941 
L 272.274107 129.243564 
L 278.167084 129.243564 
L 278.167084 124.681188 
L 279.512984 124.681188 
L 279.512984 120.118812 
L 281.544032 120.118812 
L 281.544032 115.556436 
L 284.833604 115.556436 
L 284.833604 110.994059 
L 290.149771 110.994059 
L 290.149771 106.431683 
L 295.665636 106.431683 
L 295.665636 101.869307 
L 296.506057 101.869307 
L 296.506057 97.306931 
L 304.99637 97.306931 
L 304.99637 92.744554 
L 306.498525 92.744554 
L 306.498525 88.182178 
L 309.029569 88.182178 
L 309.029569 83.619802 
L 309.872623 83.619802 
L 309.872623 79.057426 
L 311.077473 79.057426 
L 311.077473 74.49505 
L 314.336674 74.49505 
L 314.336674 69.932673 
L 315.582315 69.932673 
L 315.582315 65.370297 
L 318.111352 65.370297 
L 318.111352 60.807921 
L 319.547428 60.807921 
L 319.614658 47.120792 
L 319.905319 47.120792 
L 319.905319 42.558416 
L 320.386484 42.558416 
L 320.386484 37.99604 
L 320.708125 37.99604 
L 320.708125 33.433663 
L 320.924849 33.433663 
L 320.924849 28.871287 
L 321.341034 28.871287 
L 321.341034 24.308911 
L 321.759931 24.308911 
L 321.817221 15.184158 
L 322.729655 15.184158 
L 322.729655 10.621782 
L 322.729655 10.621782 
L 453.6 10.621782 
L 453.6 10.621782 
" style="fill:none;stroke:#00bfbf;stroke-linecap:square;"/>
   </g>
   <g id="line2d_3">
    <path clip-path="url(#pd2ee1734db)" d="M 213.091366 352.8 
L 213.091366 348.237624 
L 216.728602 348.237624 
L 216.728602 343.675248 
L 218.796097 343.675248 
L 218.796097 339.112871 
L 219.151433 339.112871 
L 219.192675 329.988119 
L 220.159088 329.988119 
L 220.159088 325.425743 
L 220.483267 325.425743 
L 220.483267 320.863366 
L 221.044241 320.863366 
L 221.044241 316.30099 
L 221.251575 316.30099 
L 221.251575 311.738614 
L 221.919425 311.738614 
L 221.919425 307.176238 
L 223.224161 307.176238 
L 223.224161 302.613861 
L 223.687078 302.613861 
L 223.687078 298.051485 
L 224.324613 298.051485 
L 224.324613 293.489109 
L 224.726335 293.489109 
L 224.726335 288.926733 
L 225.81174 288.926733 
L 225.81174 284.364356 
L 240.143593 284.364356 
L 240.233427 270.677228 
L 240.275975 270.677228 
L 240.346866 252.427723 
L 240.398281 252.427723 
L 240.504307 229.615842 
L 240.524071 229.615842 
L 240.623081 193.116832 
L 240.667012 193.116832 
L 240.701614 179.429703 
L 240.806407 179.429703 
L 240.916332 156.617822 
L 241.057826 156.617822 
L 241.073152 147.493069 
L 260.20947 147.493069 
L 260.20947 142.930693 
L 260.558063 142.930693 
L 260.558063 138.368317 
L 262.08926 138.368317 
L 262.08926 133.805941 
L 262.389957 133.805941 
L 262.47257 124.681188 
L 264.337978 124.681188 
L 264.337978 120.118812 
L 267.185251 120.118812 
L 267.185251 115.556436 
L 275.96656 115.556436 
L 275.96656 110.994059 
L 281.544032 110.994059 
L 281.544032 106.431683 
L 282.944279 106.431683 
L 282.944279 101.869307 
L 284.833604 101.869307 
L 284.833604 97.306931 
L 295.665636 97.306931 
L 295.665636 92.744554 
L 295.976938 92.744554 
L 295.976938 88.182178 
L 296.506057 88.182178 
L 296.506057 83.619802 
L 296.908905 83.619802 
L 296.908905 79.057426 
L 302.93191 79.057426 
L 302.93191 74.49505 
L 311.077473 74.49505 
L 311.077473 69.932673 
L 313.787542 69.932673 
L 313.787542 65.370297 
L 314.336674 65.370297 
L 314.336674 60.807921 
L 314.625338 60.807921 
L 314.625338 56.245545 
L 315.243541 56.245545 
L 315.243541 51.683168 
L 315.582315 51.683168 
L 315.582315 47.120792 
L 317.111778 47.120792 
L 317.111778 42.558416 
L 317.987987 42.558416 
L 317.987987 37.99604 
L 319.337246 37.99604 
L 319.374665 28.871287 
L 319.547428 28.871287 
L 319.614658 19.746535 
L 320.708125 19.746535 
L 320.708125 15.184158 
L 321.341034 15.184158 
L 321.341034 10.621782 
L 321.341034 10.621782 
L 453.6 10.621782 
L 453.6 10.621782 
" style="fill:none;stroke:#bf00bf;stroke-linecap:square;"/>
   </g>
   <g id="line2d_4">
    <path clip-path="url(#pd2ee1734db)" d="M 213.091366 352.8 
L 213.091366 348.237624 
L 214.77655 348.237624 
L 214.77655 343.675248 
L 216.728602 343.675248 
L 216.728602 339.112871 
L 217.277444 339.112871 
L 217.277444 334.550495 
L 218.662545 334.550495 
L 218.662545 329.988119 
L 219.09647 329.988119 
L 219.151433 320.863366 
L 220.260476 320.863366 
L 220.260476 316.30099 
L 220.483267 316.30099 
L 220.529352 307.176238 
L 220.90598 307.176238 
L 220.90598 302.613861 
L 221.134131 302.613861 
L 221.134131 298.051485 
L 221.630451 298.051485 
L 221.630451 293.489109 
L 222.31543 293.489109 
L 222.31543 288.926733 
L 222.455964 288.926733 
L 222.455964 284.364356 
L 239.794299 284.364356 
L 239.794299 279.80198 
L 240.133186 279.80198 
L 240.233427 256.990099 
L 240.275975 256.990099 
L 240.346866 234.178218 
L 240.398281 234.178218 
L 240.504307 188.554455 
L 240.524071 188.554455 
L 240.633411 156.617822 
L 240.847979 156.617822 
L 240.857785 147.493069 
L 258.296908 147.493069 
L 258.296908 142.930693 
L 259.231196 142.930693 
L 259.231196 138.368317 
L 260.558063 138.368317 
L 260.558063 133.805941 
L 261.218364 133.805941 
L 261.218364 129.243564 
L 262.08926 129.243564 
L 262.08926 124.681188 
L 262.389957 124.681188 
L 262.389957 120.118812 
L 262.538172 120.118812 
L 262.538172 115.556436 
L 263.636701 115.556436 
L 263.636701 110.994059 
L 263.809214 110.994059 
L 263.809214 106.431683 
L 264.337978 106.431683 
L 264.337978 101.869307 
L 264.777736 101.869307 
L 264.777736 97.306931 
L 274.103545 97.306931 
L 274.103545 92.744554 
L 275.96656 92.744554 
L 275.96656 88.182178 
L 284.273353 88.182178 
L 284.273353 83.619802 
L 284.833604 83.619802 
L 284.833604 79.057426 
L 302.93191 79.057426 
L 302.93191 74.49505 
L 311.077473 74.49505 
L 311.077473 69.932673 
L 313.002069 69.932673 
L 313.002069 65.370297 
L 313.787542 65.370297 
L 313.806538 56.245545 
L 314.298654 56.245545 
L 314.336674 47.120792 
L 314.939548 47.120792 
L 314.939548 42.558416 
L 315.582315 42.558416 
L 315.582315 37.99604 
L 315.964241 37.99604 
L 315.964241 33.433663 
L 316.273547 33.433663 
L 316.273547 28.871287 
L 316.948526 28.871287 
L 316.948526 24.308911 
L 317.433368 24.308911 
L 317.433368 19.746535 
L 319.569708 19.746535 
L 319.569708 15.184158 
L 320.708125 15.184158 
L 320.708125 10.621782 
L 320.708125 10.621782 
L 453.6 10.621782 
L 453.6 10.621782 
" style="fill:none;stroke:#000000;stroke-linecap:square;"/>
   </g>
   <g id="line2d_5">
    <path clip-path="url(#pd2ee1734db)" d="M 211.137983 352.8 
L 211.137983 348.237624 
L 212.238429 348.237624 
L 212.238429 343.675248 
L 212.949721 343.675248 
L 212.949721 339.112871 
L 213.091366 339.112871 
L 213.091366 334.550495 
L 213.230098 334.550495 
L 213.230098 329.988119 
L 214.062474 329.988119 
L 214.07344 320.863366 
L 214.77655 320.863366 
L 214.77655 316.30099 
L 215.042811 316.30099 
L 215.042811 311.738614 
L 215.694403 311.738614 
L 215.694403 307.176238 
L 216.131978 307.176238 
L 216.131978 302.613861 
L 216.684607 302.613861 
L 216.754112 293.489109 
L 217.277444 293.489109 
L 217.277444 288.926733 
L 219.654221 288.926733 
L 219.654221 284.364356 
L 239.602311 284.364356 
L 239.69695 261.552475 
L 239.745342 261.552475 
L 239.850922 247.865347 
L 239.900459 247.865347 
L 239.996473 225.053465 
L 240.021771 225.053465 
L 240.089695 206.80396 
L 240.14218 206.80396 
L 240.232917 193.116832 
L 240.261642 193.116832 
L 240.358324 165.742574 
L 240.424054 165.742574 
L 240.452984 152.055446 
L 240.546553 152.055446 
L 240.546553 147.493069 
L 257.501105 147.493069 
L 257.501105 142.930693 
L 258.534907 142.930693 
L 258.541704 133.805941 
L 258.9879 133.805941 
L 258.9879 129.243564 
L 259.231196 129.243564 
L 259.3416 120.118812 
L 259.551074 120.118812 
L 259.551074 115.556436 
L 259.932658 115.556436 
L 259.932658 110.994059 
L 260.701541 110.994059 
L 260.701541 106.431683 
L 260.90682 106.431683 
L 260.90682 101.869307 
L 261.043194 101.869307 
L 261.043194 97.306931 
L 262.939051 97.306931 
L 263.004879 88.182178 
L 263.890607 88.182178 
L 263.890607 83.619802 
L 266.229326 83.619802 
L 266.229326 79.057426 
L 302.535205 79.057426 
L 302.535205 74.49505 
L 302.93191 74.49505 
L 302.93191 69.932673 
L 304.412296 69.932673 
L 304.412296 65.370297 
L 305.684713 65.370297 
L 305.684713 60.807921 
L 306.402512 60.807921 
L 306.402512 56.245545 
L 308.17292 56.245545 
L 308.226068 47.120792 
L 308.325186 47.120792 
L 308.325186 42.558416 
L 308.491971 42.558416 
L 308.491971 37.99604 
L 311.568688 37.99604 
L 311.568688 33.433663 
L 311.932142 33.433663 
L 311.932142 28.871287 
L 312.800879 28.871287 
L 312.800879 24.308911 
L 313.787542 24.308911 
L 313.787542 19.746535 
L 315.417231 19.746535 
L 315.417231 15.184158 
L 316.973045 15.184158 
L 316.973045 10.621782 
L 316.973045 10.621782 
L 453.6 10.621782 
L 453.6 10.621782 
" style="fill:none;stroke:#00bfbf;stroke-linecap:square;"/>
   </g>
   <g id="line2d_6">
    <path clip-path="url(#pd2ee1734db)" d="M 205.774682 352.8 
L 205.774682 348.237624 
L 206.343864 348.237624 
L 206.428325 339.112871 
L 207.100071 339.112871 
L 207.100071 334.550495 
L 207.294119 334.550495 
L 207.294119 329.988119 
L 207.523383 329.988119 
L 207.523383 325.425743 
L 207.854424 325.425743 
L 207.866637 316.30099 
L 208.027805 316.30099 
L 208.136374 298.051485 
L 208.401022 298.051485 
L 208.401022 293.489109 
L 208.519438 293.489109 
L 208.522334 284.364356 
L 208.695533 284.364356 
L 208.695533 279.80198 
L 208.8752 279.80198 
L 208.986012 266.114851 
L 209.019549 266.114851 
L 209.062385 256.990099 
L 209.239478 256.990099 
L 209.239478 252.427723 
L 209.584677 252.427723 
L 209.584677 247.865347 
L 209.888142 247.865347 
L 209.889075 238.740594 
L 210.084691 238.740594 
L 210.096638 229.615842 
L 210.369421 229.615842 
L 210.369421 225.053465 
L 211.041863 225.053465 
L 211.128149 215.928713 
L 211.888148 215.928713 
L 211.888148 211.366337 
L 216.06454 211.366337 
L 216.06454 206.80396 
L 216.273839 206.80396 
L 216.273839 202.241584 
L 216.450489 202.241584 
L 216.450489 197.679208 
L 216.825477 197.679208 
L 216.825477 193.116832 
L 217.041425 193.116832 
L 217.041425 188.554455 
L 219.406228 188.554455 
L 219.406228 183.992079 
L 221.218759 183.992079 
L 221.218759 179.429703 
L 223.306378 179.429703 
L 223.306378 174.867327 
L 224.880854 174.867327 
L 224.880854 170.30495 
L 225.876697 170.30495 
L 225.876697 165.742574 
L 226.448589 165.742574 
L 226.448589 161.180198 
L 227.324155 161.180198 
L 227.423617 152.055446 
L 228.139913 152.055446 
L 228.139913 147.493069 
L 229.59346 147.493069 
L 229.59346 142.930693 
L 230.336431 142.930693 
L 230.389508 133.805941 
L 232.150363 133.805941 
L 232.150363 129.243564 
L 232.694198 129.243564 
L 232.788187 120.118812 
L 234.368539 120.118812 
L 234.368539 115.556436 
L 234.796898 115.556436 
L 234.805773 106.431683 
L 236.120266 106.431683 
L 236.120266 101.869307 
L 236.470731 101.869307 
L 236.470731 97.306931 
L 236.622273 97.306931 
L 236.622273 92.744554 
L 237.02338 92.744554 
L 237.02338 88.182178 
L 237.137453 88.182178 
L 237.137453 83.619802 
L 237.397962 83.619802 
L 237.397962 79.057426 
L 246.460845 79.057426 
L 246.460845 74.49505 
L 247.131933 74.49505 
L 247.131933 69.932673 
L 247.270879 69.932673 
L 247.349767 60.807921 
L 247.70444 60.807921 
L 247.790365 51.683168 
L 247.867026 51.683168 
L 247.867026 47.120792 
L 248.09113 47.120792 
L 248.13064 37.99604 
L 248.439866 37.99604 
L 248.439866 33.433663 
L 248.623363 33.433663 
L 248.673363 19.746535 
L 249.422694 19.746535 
L 249.422694 15.184158 
L 250.323829 15.184158 
L 250.323829 10.621782 
L 250.323829 10.621782 
L 453.6 10.621782 
L 453.6 10.621782 
" style="fill:none;stroke:#bf00bf;stroke-linecap:square;"/>
   </g>
   <g id="patch_3">
    <path d="M 7.2 7.2 
L 453.6 7.2 
" style="fill:none;stroke:#000000;stroke-linecap:square;stroke-linejoin:miter;"/>
   </g>
   <g id="patch_4">
    <path d="M 453.6 352.8 
L 453.6 7.2 
" style="fill:none;stroke:#000000;stroke-linecap:square;stroke-linejoin:miter;"/>
   </g>
   <g id="patch_5">
    <path d="M 7.2 352.8 
L 453.6 352.8 
" style="fill:none;stroke:#000000;stroke-linecap:square;stroke-linejoin:miter;"/>
   </g>
   <g id="patch_6">
    <path d="M 7.2 352.8 
L 7.2 7.2 
" style="fill:none;stroke:#000000;stroke-linecap:square;stroke-linejoin:miter;"/>
   </g>
   <g id="matplotlib.axis_1">
    <g id="xtick_1"/>
    <g id="xtick_2">
     <g id="line2d_7">
      <path clip-path="url(#pd2ee1734db)" d="M 54.098611 352.8 
L 54.098611 7.2 
" style="fill:none;stroke:#000000;stroke-dasharray:1.000000,3.000000;stroke-dashoffset:0.0;stroke-width:0.5;"/>
     </g>
     <g id="line2d_8">
      <defs>
       <path d="M 0 0 
L 0 -4 
" id="m4e38f9f610" style="stroke:#000000;stroke-width:0.5;"/>
      </defs>
      <g>
       <use style="stroke:#000000;stroke-width:0.5;" x="54.0986107985" xlink:href="#m4e38f9f610" y="352.8"/>
      </g>
     </g>
     <g id="line2d_9">
      <defs>
       <path d="M 0 0 
L 0 4 
" id="m0ceaad5d58" style="stroke:#000000;stroke-width:0.5;"/>
      </defs>
      <g>
       <use style="stroke:#000000;stroke-width:0.5;" x="54.0986107985" xlink:href="#m0ceaad5d58" y="7.2"/>
      </g>
     </g>
     <g id="text_1">
      <!-- -6 -->
      <defs>
       <path d="M 33.015625 40.375 
Q 26.375 40.375 22.484375 35.828125 
Q 18.609375 31.296875 18.609375 23.390625 
Q 18.609375 15.53125 22.484375 10.953125 
Q 26.375 6.390625 33.015625 6.390625 
Q 39.65625 6.390625 43.53125 10.953125 
Q 47.40625 15.53125 47.40625 23.390625 
Q 47.40625 31.296875 43.53125 35.828125 
Q 39.65625 40.375 33.015625 40.375 
M 52.59375 71.296875 
L 52.59375 62.3125 
Q 48.875 64.0625 45.09375 64.984375 
Q 41.3125 65.921875 37.59375 65.921875 
Q 27.828125 65.921875 22.671875 59.328125 
Q 17.53125 52.734375 16.796875 39.40625 
Q 19.671875 43.65625 24.015625 45.921875 
Q 28.375 48.1875 33.59375 48.1875 
Q 44.578125 48.1875 50.953125 41.515625 
Q 57.328125 34.859375 57.328125 23.390625 
Q 57.328125 12.15625 50.6875 5.359375 
Q 44.046875 -1.421875 33.015625 -1.421875 
Q 20.359375 -1.421875 13.671875 8.265625 
Q 6.984375 17.96875 6.984375 36.375 
Q 6.984375 53.65625 15.1875 63.9375 
Q 23.390625 74.21875 37.203125 74.21875 
Q 40.921875 74.21875 44.703125 73.484375 
Q 48.484375 72.75 52.59375 71.296875 
" id="BitstreamVeraSans-Roman-36"/>
       <path d="M 4.890625 31.390625 
L 31.203125 31.390625 
L 31.203125 23.390625 
L 4.890625 23.390625 
z
" id="BitstreamVeraSans-Roman-2d"/>
      </defs>
      <g transform="translate(44.1282982985 371.996875)scale(0.2 -0.2)">
       <use xlink:href="#BitstreamVeraSans-Roman-2d"/>
       <use x="36.083984375" xlink:href="#BitstreamVeraSans-Roman-36"/>
      </g>
     </g>
    </g>
    <g id="xtick_3">
     <g id="line2d_10">
      <path clip-path="url(#pd2ee1734db)" d="M 101.098774 352.8 
L 101.098774 7.2 
" style="fill:none;stroke:#000000;stroke-dasharray:1.000000,3.000000;stroke-dashoffset:0.0;stroke-width:0.5;"/>
     </g>
     <g id="line2d_11">
      <g>
       <use style="stroke:#000000;stroke-width:0.5;" x="101.098774234" xlink:href="#m4e38f9f610" y="352.8"/>
      </g>
     </g>
     <g id="line2d_12">
      <g>
       <use style="stroke:#000000;stroke-width:0.5;" x="101.098774234" xlink:href="#m0ceaad5d58" y="7.2"/>
      </g>
     </g>
     <g id="text_2">
      <!-- -4 -->
      <defs>
       <path d="M 37.796875 64.3125 
L 12.890625 25.390625 
L 37.796875 25.390625 
z
M 35.203125 72.90625 
L 47.609375 72.90625 
L 47.609375 25.390625 
L 58.015625 25.390625 
L 58.015625 17.1875 
L 47.609375 17.1875 
L 47.609375 0 
L 37.796875 0 
L 37.796875 17.1875 
L 4.890625 17.1875 
L 4.890625 26.703125 
z
" id="BitstreamVeraSans-Roman-34"/>
      </defs>
      <g transform="translate(91.1284617339 371.996875)scale(0.2 -0.2)">
       <use xlink:href="#BitstreamVeraSans-Roman-2d"/>
       <use x="36.083984375" xlink:href="#BitstreamVeraSans-Roman-34"/>
      </g>
     </g>
    </g>
    <g id="xtick_4">
     <g id="line2d_13">
      <path clip-path="url(#pd2ee1734db)" d="M 148.098938 352.8 
L 148.098938 7.2 
" style="fill:none;stroke:#000000;stroke-dasharray:1.000000,3.000000;stroke-dashoffset:0.0;stroke-width:0.5;"/>
     </g>
     <g id="line2d_14">
      <g>
       <use style="stroke:#000000;stroke-width:0.5;" x="148.098937669" xlink:href="#m4e38f9f610" y="352.8"/>
      </g>
     </g>
     <g id="line2d_15">
      <g>
       <use style="stroke:#000000;stroke-width:0.5;" x="148.098937669" xlink:href="#m0ceaad5d58" y="7.2"/>
      </g>
     </g>
     <g id="text_3">
      <!-- -2 -->
      <defs>
       <path d="M 19.1875 8.296875 
L 53.609375 8.296875 
L 53.609375 0 
L 7.328125 0 
L 7.328125 8.296875 
Q 12.9375 14.109375 22.625 23.890625 
Q 32.328125 33.6875 34.8125 36.53125 
Q 39.546875 41.84375 41.421875 45.53125 
Q 43.3125 49.21875 43.3125 52.78125 
Q 43.3125 58.59375 39.234375 62.25 
Q 35.15625 65.921875 28.609375 65.921875 
Q 23.96875 65.921875 18.8125 64.3125 
Q 13.671875 62.703125 7.8125 59.421875 
L 7.8125 69.390625 
Q 13.765625 71.78125 18.9375 73 
Q 24.125 74.21875 28.421875 74.21875 
Q 39.75 74.21875 46.484375 68.546875 
Q 53.21875 62.890625 53.21875 53.421875 
Q 53.21875 48.921875 51.53125 44.890625 
Q 49.859375 40.875 45.40625 35.40625 
Q 44.1875 33.984375 37.640625 27.21875 
Q 31.109375 20.453125 19.1875 8.296875 
" id="BitstreamVeraSans-Roman-32"/>
      </defs>
      <g transform="translate(138.128625169 371.996875)scale(0.2 -0.2)">
       <use xlink:href="#BitstreamVeraSans-Roman-2d"/>
       <use x="36.083984375" xlink:href="#BitstreamVeraSans-Roman-32"/>
      </g>
     </g>
    </g>
    <g id="xtick_5">
     <g id="line2d_16">
      <path clip-path="url(#pd2ee1734db)" d="M 195.099101 352.8 
L 195.099101 7.2 
" style="fill:none;stroke:#000000;stroke-dasharray:1.000000,3.000000;stroke-dashoffset:0.0;stroke-width:0.5;"/>
     </g>
     <g id="line2d_17">
      <g>
       <use style="stroke:#000000;stroke-width:0.5;" x="195.099101105" xlink:href="#m4e38f9f610" y="352.8"/>
      </g>
     </g>
     <g id="line2d_18">
      <g>
       <use style="stroke:#000000;stroke-width:0.5;" x="195.099101105" xlink:href="#m0ceaad5d58" y="7.2"/>
      </g>
     </g>
     <g id="text_4">
      <!-- 0 -->
      <defs>
       <path d="M 31.78125 66.40625 
Q 24.171875 66.40625 20.328125 58.90625 
Q 16.5 51.421875 16.5 36.375 
Q 16.5 21.390625 20.328125 13.890625 
Q 24.171875 6.390625 31.78125 6.390625 
Q 39.453125 6.390625 43.28125 13.890625 
Q 47.125 21.390625 47.125 36.375 
Q 47.125 51.421875 43.28125 58.90625 
Q 39.453125 66.40625 31.78125 66.40625 
M 31.78125 74.21875 
Q 44.046875 74.21875 50.515625 64.515625 
Q 56.984375 54.828125 56.984375 36.375 
Q 56.984375 17.96875 50.515625 8.265625 
Q 44.046875 -1.421875 31.78125 -1.421875 
Q 19.53125 -1.421875 13.0625 8.265625 
Q 6.59375 17.96875 6.59375 36.375 
Q 6.59375 54.828125 13.0625 64.515625 
Q 19.53125 74.21875 31.78125 74.21875 
" id="BitstreamVeraSans-Roman-30"/>
      </defs>
      <g transform="translate(188.736601105 371.996875)scale(0.2 -0.2)">
       <use xlink:href="#BitstreamVeraSans-Roman-30"/>
      </g>
     </g>
    </g>
    <g id="xtick_6">
     <g id="line2d_19">
      <path clip-path="url(#pd2ee1734db)" d="M 242.099265 352.8 
L 242.099265 7.2 
" style="fill:none;stroke:#000000;stroke-dasharray:1.000000,3.000000;stroke-dashoffset:0.0;stroke-width:0.5;"/>
     </g>
     <g id="line2d_20">
      <g>
       <use style="stroke:#000000;stroke-width:0.5;" x="242.09926454" xlink:href="#m4e38f9f610" y="352.8"/>
      </g>
     </g>
     <g id="line2d_21">
      <g>
       <use style="stroke:#000000;stroke-width:0.5;" x="242.09926454" xlink:href="#m0ceaad5d58" y="7.2"/>
      </g>
     </g>
     <g id="text_5">
      <!-- 2 -->
      <g transform="translate(235.73676454 371.996875)scale(0.2 -0.2)">
       <use xlink:href="#BitstreamVeraSans-Roman-32"/>
      </g>
     </g>
    </g>
    <g id="xtick_7">
     <g id="line2d_22">
      <path clip-path="url(#pd2ee1734db)" d="M 289.099428 352.8 
L 289.099428 7.2 
" style="fill:none;stroke:#000000;stroke-dasharray:1.000000,3.000000;stroke-dashoffset:0.0;stroke-width:0.5;"/>
     </g>
     <g id="line2d_23">
      <g>
       <use style="stroke:#000000;stroke-width:0.5;" x="289.099427976" xlink:href="#m4e38f9f610" y="352.8"/>
      </g>
     </g>
     <g id="line2d_24">
      <g>
       <use style="stroke:#000000;stroke-width:0.5;" x="289.099427976" xlink:href="#m0ceaad5d58" y="7.2"/>
      </g>
     </g>
     <g id="text_6">
      <!-- 4 -->
      <g transform="translate(282.736927976 371.996875)scale(0.2 -0.2)">
       <use xlink:href="#BitstreamVeraSans-Roman-34"/>
      </g>
     </g>
    </g>
    <g id="xtick_8">
     <g id="line2d_25">
      <path clip-path="url(#pd2ee1734db)" d="M 336.099591 352.8 
L 336.099591 7.2 
" style="fill:none;stroke:#000000;stroke-dasharray:1.000000,3.000000;stroke-dashoffset:0.0;stroke-width:0.5;"/>
     </g>
     <g id="line2d_26">
      <g>
       <use style="stroke:#000000;stroke-width:0.5;" x="336.099591411" xlink:href="#m4e38f9f610" y="352.8"/>
      </g>
     </g>
     <g id="line2d_27">
      <g>
       <use style="stroke:#000000;stroke-width:0.5;" x="336.099591411" xlink:href="#m0ceaad5d58" y="7.2"/>
      </g>
     </g>
     <g id="text_7">
      <!-- 6 -->
      <g transform="translate(329.737091411 371.996875)scale(0.2 -0.2)">
       <use xlink:href="#BitstreamVeraSans-Roman-36"/>
      </g>
     </g>
    </g>
    <g id="xtick_9">
     <g id="line2d_28">
      <path clip-path="url(#pd2ee1734db)" d="M 383.099755 352.8 
L 383.099755 7.2 
" style="fill:none;stroke:#000000;stroke-dasharray:1.000000,3.000000;stroke-dashoffset:0.0;stroke-width:0.5;"/>
     </g>
     <g id="line2d_29">
      <g>
       <use style="stroke:#000000;stroke-width:0.5;" x="383.099754847" xlink:href="#m4e38f9f610" y="352.8"/>
      </g>
     </g>
     <g id="line2d_30">
      <g>
       <use style="stroke:#000000;stroke-width:0.5;" x="383.099754847" xlink:href="#m0ceaad5d58" y="7.2"/>
      </g>
     </g>
     <g id="text_8">
      <!-- 8 -->
      <defs>
       <path d="M 31.78125 34.625 
Q 24.75 34.625 20.71875 30.859375 
Q 16.703125 27.09375 16.703125 20.515625 
Q 16.703125 13.921875 20.71875 10.15625 
Q 24.75 6.390625 31.78125 6.390625 
Q 38.8125 6.390625 42.859375 10.171875 
Q 46.921875 13.96875 46.921875 20.515625 
Q 46.921875 27.09375 42.890625 30.859375 
Q 38.875 34.625 31.78125 34.625 
M 21.921875 38.8125 
Q 15.578125 40.375 12.03125 44.71875 
Q 8.5 49.078125 8.5 55.328125 
Q 8.5 64.0625 14.71875 69.140625 
Q 20.953125 74.21875 31.78125 74.21875 
Q 42.671875 74.21875 48.875 69.140625 
Q 55.078125 64.0625 55.078125 55.328125 
Q 55.078125 49.078125 51.53125 44.71875 
Q 48 40.375 41.703125 38.8125 
Q 48.828125 37.15625 52.796875 32.3125 
Q 56.78125 27.484375 56.78125 20.515625 
Q 56.78125 9.90625 50.3125 4.234375 
Q 43.84375 -1.421875 31.78125 -1.421875 
Q 19.734375 -1.421875 13.25 4.234375 
Q 6.78125 9.90625 6.78125 20.515625 
Q 6.78125 27.484375 10.78125 32.3125 
Q 14.796875 37.15625 21.921875 38.8125 
M 18.3125 54.390625 
Q 18.3125 48.734375 21.84375 45.5625 
Q 25.390625 42.390625 31.78125 42.390625 
Q 38.140625 42.390625 41.71875 45.5625 
Q 45.3125 48.734375 45.3125 54.390625 
Q 45.3125 60.0625 41.71875 63.234375 
Q 38.140625 66.40625 31.78125 66.40625 
Q 25.390625 66.40625 21.84375 63.234375 
Q 18.3125 60.0625 18.3125 54.390625 
" id="BitstreamVeraSans-Roman-38"/>
      </defs>
      <g transform="translate(376.737254847 371.996875)scale(0.2 -0.2)">
       <use xlink:href="#BitstreamVeraSans-Roman-38"/>
      </g>
     </g>
    </g>
    <g id="xtick_10">
     <g id="line2d_31">
      <path clip-path="url(#pd2ee1734db)" d="M 430.099918 352.8 
L 430.099918 7.2 
" style="fill:none;stroke:#000000;stroke-dasharray:1.000000,3.000000;stroke-dashoffset:0.0;stroke-width:0.5;"/>
     </g>
     <g id="line2d_32">
      <g>
       <use style="stroke:#000000;stroke-width:0.5;" x="430.099918282" xlink:href="#m4e38f9f610" y="352.8"/>
      </g>
     </g>
     <g id="line2d_33">
      <g>
       <use style="stroke:#000000;stroke-width:0.5;" x="430.099918282" xlink:href="#m0ceaad5d58" y="7.2"/>
      </g>
     </g>
     <g id="text_9">
      <!-- 10 -->
      <defs>
       <path d="M 12.40625 8.296875 
L 28.515625 8.296875 
L 28.515625 63.921875 
L 10.984375 60.40625 
L 10.984375 69.390625 
L 28.421875 72.90625 
L 38.28125 72.90625 
L 38.28125 8.296875 
L 54.390625 8.296875 
L 54.390625 0 
L 12.40625 0 
z
" id="BitstreamVeraSans-Roman-31"/>
      </defs>
      <g transform="translate(417.374918282 371.996875)scale(0.2 -0.2)">
       <use xlink:href="#BitstreamVeraSans-Roman-31"/>
       <use x="63.623046875" xlink:href="#BitstreamVeraSans-Roman-30"/>
      </g>
     </g>
    </g>
    <g id="xtick_11"/>
    <g id="xtick_12">
     <g id="line2d_34">
      <defs>
       <path d="M 0 0 
L 0 -2 
" id="mea9b3d6c4b" style="stroke:#000000;stroke-width:0.5;"/>
      </defs>
      <g>
       <use style="stroke:#000000;stroke-width:0.5;" x="54.0986107985" xlink:href="#mea9b3d6c4b" y="352.8"/>
      </g>
     </g>
     <g id="line2d_35">
      <defs>
       <path d="M 0 0 
L 0 2 
" id="m6f33d889bc" style="stroke:#000000;stroke-width:0.5;"/>
      </defs>
      <g>
       <use style="stroke:#000000;stroke-width:0.5;" x="54.0986107985" xlink:href="#m6f33d889bc" y="7.2"/>
      </g>
     </g>
    </g>
    <g id="xtick_13">
     <g id="line2d_36">
      <g>
       <use style="stroke:#000000;stroke-width:0.5;" x="101.098774234" xlink:href="#mea9b3d6c4b" y="352.8"/>
      </g>
     </g>
     <g id="line2d_37">
      <g>
       <use style="stroke:#000000;stroke-width:0.5;" x="101.098774234" xlink:href="#m6f33d889bc" y="7.2"/>
      </g>
     </g>
    </g>
    <g id="xtick_14">
     <g id="line2d_38">
      <g>
       <use style="stroke:#000000;stroke-width:0.5;" x="148.098937669" xlink:href="#mea9b3d6c4b" y="352.8"/>
      </g>
     </g>
     <g id="line2d_39">
      <g>
       <use style="stroke:#000000;stroke-width:0.5;" x="148.098937669" xlink:href="#m6f33d889bc" y="7.2"/>
      </g>
     </g>
    </g>
    <g id="xtick_15">
     <g id="line2d_40">
      <g>
       <use style="stroke:#000000;stroke-width:0.5;" x="195.099101105" xlink:href="#mea9b3d6c4b" y="352.8"/>
      </g>
     </g>
     <g id="line2d_41">
      <g>
       <use style="stroke:#000000;stroke-width:0.5;" x="195.099101105" xlink:href="#m6f33d889bc" y="7.2"/>
      </g>
     </g>
    </g>
    <g id="xtick_16">
     <g id="line2d_42">
      <g>
       <use style="stroke:#000000;stroke-width:0.5;" x="242.09926454" xlink:href="#mea9b3d6c4b" y="352.8"/>
      </g>
     </g>
     <g id="line2d_43">
      <g>
       <use style="stroke:#000000;stroke-width:0.5;" x="242.09926454" xlink:href="#m6f33d889bc" y="7.2"/>
      </g>
     </g>
    </g>
    <g id="xtick_17">
     <g id="line2d_44">
      <g>
       <use style="stroke:#000000;stroke-width:0.5;" x="289.099427976" xlink:href="#mea9b3d6c4b" y="352.8"/>
      </g>
     </g>
     <g id="line2d_45">
      <g>
       <use style="stroke:#000000;stroke-width:0.5;" x="289.099427976" xlink:href="#m6f33d889bc" y="7.2"/>
      </g>
     </g>
    </g>
    <g id="xtick_18">
     <g id="line2d_46">
      <g>
       <use style="stroke:#000000;stroke-width:0.5;" x="336.099591411" xlink:href="#mea9b3d6c4b" y="352.8"/>
      </g>
     </g>
     <g id="line2d_47">
      <g>
       <use style="stroke:#000000;stroke-width:0.5;" x="336.099591411" xlink:href="#m6f33d889bc" y="7.2"/>
      </g>
     </g>
    </g>
    <g id="xtick_19">
     <g id="line2d_48">
      <g>
       <use style="stroke:#000000;stroke-width:0.5;" x="383.099754847" xlink:href="#mea9b3d6c4b" y="352.8"/>
      </g>
     </g>
     <g id="line2d_49">
      <g>
       <use style="stroke:#000000;stroke-width:0.5;" x="383.099754847" xlink:href="#m6f33d889bc" y="7.2"/>
      </g>
     </g>
    </g>
    <g id="xtick_20">
     <g id="line2d_50">
      <g>
       <use style="stroke:#000000;stroke-width:0.5;" x="430.099918282" xlink:href="#mea9b3d6c4b" y="352.8"/>
      </g>
     </g>
     <g id="line2d_51">
      <g>
       <use style="stroke:#000000;stroke-width:0.5;" x="430.099918282" xlink:href="#m6f33d889bc" y="7.2"/>
      </g>
     </g>
    </g>
    <g id="text_10">
     <!-- log10 of Df -->
     <defs>
      <path id="BitstreamVeraSans-Roman-20"/>
      <path d="M 30.609375 48.390625 
Q 23.390625 48.390625 19.1875 42.75 
Q 14.984375 37.109375 14.984375 27.296875 
Q 14.984375 17.484375 19.15625 11.84375 
Q 23.34375 6.203125 30.609375 6.203125 
Q 37.796875 6.203125 41.984375 11.859375 
Q 46.1875 17.53125 46.1875 27.296875 
Q 46.1875 37.015625 41.984375 42.703125 
Q 37.796875 48.390625 30.609375 48.390625 
M 30.609375 56 
Q 42.328125 56 49.015625 48.375 
Q 55.71875 40.765625 55.71875 27.296875 
Q 55.71875 13.875 49.015625 6.21875 
Q 42.328125 -1.421875 30.609375 -1.421875 
Q 18.84375 -1.421875 12.171875 6.21875 
Q 5.515625 13.875 5.515625 27.296875 
Q 5.515625 40.765625 12.171875 48.375 
Q 18.84375 56 30.609375 56 
" id="BitstreamVeraSans-Roman-6f"/>
      <path d="M 9.421875 75.984375 
L 18.40625 75.984375 
L 18.40625 0 
L 9.421875 0 
z
" id="BitstreamVeraSans-Roman-6c"/>
      <path d="M 19.671875 64.796875 
L 19.671875 8.109375 
L 31.59375 8.109375 
Q 46.6875 8.109375 53.6875 14.9375 
Q 60.6875 21.78125 60.6875 36.53125 
Q 60.6875 51.171875 53.6875 57.984375 
Q 46.6875 64.796875 31.59375 64.796875 
z
M 9.8125 72.90625 
L 30.078125 72.90625 
Q 51.265625 72.90625 61.171875 64.09375 
Q 71.09375 55.28125 71.09375 36.53125 
Q 71.09375 17.671875 61.125 8.828125 
Q 51.171875 0 30.078125 0 
L 9.8125 0 
z
" id="BitstreamVeraSans-Roman-44"/>
      <path d="M 45.40625 27.984375 
Q 45.40625 37.75 41.375 43.109375 
Q 37.359375 48.484375 30.078125 48.484375 
Q 22.859375 48.484375 18.828125 43.109375 
Q 14.796875 37.75 14.796875 27.984375 
Q 14.796875 18.265625 18.828125 12.890625 
Q 22.859375 7.515625 30.078125 7.515625 
Q 37.359375 7.515625 41.375 12.890625 
Q 45.40625 18.265625 45.40625 27.984375 
M 54.390625 6.78125 
Q 54.390625 -7.171875 48.1875 -13.984375 
Q 42 -20.796875 29.203125 -20.796875 
Q 24.46875 -20.796875 20.265625 -20.09375 
Q 16.0625 -19.390625 12.109375 -17.921875 
L 12.109375 -9.1875 
Q 16.0625 -11.328125 19.921875 -12.34375 
Q 23.78125 -13.375 27.78125 -13.375 
Q 36.625 -13.375 41.015625 -8.765625 
Q 45.40625 -4.15625 45.40625 5.171875 
L 45.40625 9.625 
Q 42.625 4.78125 38.28125 2.390625 
Q 33.9375 0 27.875 0 
Q 17.828125 0 11.671875 7.65625 
Q 5.515625 15.328125 5.515625 27.984375 
Q 5.515625 40.671875 11.671875 48.328125 
Q 17.828125 56 27.875 56 
Q 33.9375 56 38.28125 53.609375 
Q 42.625 51.21875 45.40625 46.390625 
L 45.40625 54.6875 
L 54.390625 54.6875 
z
" id="BitstreamVeraSans-Roman-67"/>
      <path d="M 37.109375 75.984375 
L 37.109375 68.5 
L 28.515625 68.5 
Q 23.6875 68.5 21.796875 66.546875 
Q 19.921875 64.59375 19.921875 59.515625 
L 19.921875 54.6875 
L 34.71875 54.6875 
L 34.71875 47.703125 
L 19.921875 47.703125 
L 19.921875 0 
L 10.890625 0 
L 10.890625 47.703125 
L 2.296875 47.703125 
L 2.296875 54.6875 
L 10.890625 54.6875 
L 10.890625 58.5 
Q 10.890625 67.625 15.140625 71.796875 
Q 19.390625 75.984375 28.609375 75.984375 
z
" id="BitstreamVeraSans-Roman-66"/>
     </defs>
     <g transform="translate(175.2140625 396.353125)scale(0.2 -0.2)">
      <use xlink:href="#BitstreamVeraSans-Roman-6c"/>
      <use x="27.783203125" xlink:href="#BitstreamVeraSans-Roman-6f"/>
      <use x="88.96484375" xlink:href="#BitstreamVeraSans-Roman-67"/>
      <use x="152.44140625" xlink:href="#BitstreamVeraSans-Roman-31"/>
      <use x="216.064453125" xlink:href="#BitstreamVeraSans-Roman-30"/>
      <use x="279.6875" xlink:href="#BitstreamVeraSans-Roman-20"/>
      <use x="311.474609375" xlink:href="#BitstreamVeraSans-Roman-6f"/>
      <use x="372.65625" xlink:href="#BitstreamVeraSans-Roman-66"/>
      <use x="407.861328125" xlink:href="#BitstreamVeraSans-Roman-20"/>
      <use x="439.6484375" xlink:href="#BitstreamVeraSans-Roman-44"/>
      <use x="516.650390625" xlink:href="#BitstreamVeraSans-Roman-66"/>
     </g>
    </g>
   </g>
   <g id="matplotlib.axis_2">
    <g id="ytick_1">
     <g id="line2d_52">
      <path clip-path="url(#pd2ee1734db)" d="M 7.2 352.8 
L 453.6 352.8 
" style="fill:none;stroke:#000000;stroke-dasharray:1.000000,3.000000;stroke-dashoffset:0.0;stroke-width:0.5;"/>
     </g>
     <g id="line2d_53">
      <defs>
       <path d="M 0 0 
L 4 0 
" id="mb9a1e6bd49" style="stroke:#000000;stroke-width:0.5;"/>
      </defs>
      <g>
       <use style="stroke:#000000;stroke-width:0.5;" x="7.2" xlink:href="#mb9a1e6bd49" y="352.8"/>
      </g>
     </g>
     <g id="line2d_54">
      <defs>
       <path d="M 0 0 
L -4 0 
" id="mc53a1604d0" style="stroke:#000000;stroke-width:0.5;"/>
      </defs>
      <g>
       <use style="stroke:#000000;stroke-width:0.5;" x="453.6" xlink:href="#mc53a1604d0" y="352.8"/>
      </g>
     </g>
    </g>
    <g id="ytick_2">
     <g id="line2d_55">
      <path clip-path="url(#pd2ee1734db)" d="M 7.2 284.364356 
L 453.6 284.364356 
" style="fill:none;stroke:#000000;stroke-dasharray:1.000000,3.000000;stroke-dashoffset:0.0;stroke-width:0.5;"/>
     </g>
     <g id="line2d_56">
      <g>
       <use style="stroke:#000000;stroke-width:0.5;" x="7.2" xlink:href="#mb9a1e6bd49" y="284.364356436"/>
      </g>
     </g>
     <g id="line2d_57">
      <g>
       <use style="stroke:#000000;stroke-width:0.5;" x="453.6" xlink:href="#mc53a1604d0" y="284.364356436"/>
      </g>
     </g>
    </g>
    <g id="ytick_3">
     <g id="line2d_58">
      <path clip-path="url(#pd2ee1734db)" d="M 7.2 215.928713 
L 453.6 215.928713 
" style="fill:none;stroke:#000000;stroke-dasharray:1.000000,3.000000;stroke-dashoffset:0.0;stroke-width:0.5;"/>
     </g>
     <g id="line2d_59">
      <g>
       <use style="stroke:#000000;stroke-width:0.5;" x="7.2" xlink:href="#mb9a1e6bd49" y="215.928712871"/>
      </g>
     </g>
     <g id="line2d_60">
      <g>
       <use style="stroke:#000000;stroke-width:0.5;" x="453.6" xlink:href="#mc53a1604d0" y="215.928712871"/>
      </g>
     </g>
    </g>
    <g id="ytick_4">
     <g id="line2d_61">
      <path clip-path="url(#pd2ee1734db)" d="M 7.2 147.493069 
L 453.6 147.493069 
" style="fill:none;stroke:#000000;stroke-dasharray:1.000000,3.000000;stroke-dashoffset:0.0;stroke-width:0.5;"/>
     </g>
     <g id="line2d_62">
      <g>
       <use style="stroke:#000000;stroke-width:0.5;" x="7.2" xlink:href="#mb9a1e6bd49" y="147.493069307"/>
      </g>
     </g>
     <g id="line2d_63">
      <g>
       <use style="stroke:#000000;stroke-width:0.5;" x="453.6" xlink:href="#mc53a1604d0" y="147.493069307"/>
      </g>
     </g>
    </g>
    <g id="ytick_5">
     <g id="line2d_64">
      <path clip-path="url(#pd2ee1734db)" d="M 7.2 79.057426 
L 453.6 79.057426 
" style="fill:none;stroke:#000000;stroke-dasharray:1.000000,3.000000;stroke-dashoffset:0.0;stroke-width:0.5;"/>
     </g>
     <g id="line2d_65">
      <g>
       <use style="stroke:#000000;stroke-width:0.5;" x="7.2" xlink:href="#mb9a1e6bd49" y="79.0574257426"/>
      </g>
     </g>
     <g id="line2d_66">
      <g>
       <use style="stroke:#000000;stroke-width:0.5;" x="453.6" xlink:href="#mc53a1604d0" y="79.0574257426"/>
      </g>
     </g>
    </g>
    <g id="ytick_6">
     <g id="line2d_67">
      <path clip-path="url(#pd2ee1734db)" d="M 7.2 10.621782 
L 453.6 10.621782 
" style="fill:none;stroke:#000000;stroke-dasharray:1.000000,3.000000;stroke-dashoffset:0.0;stroke-width:0.5;"/>
     </g>
     <g id="line2d_68">
      <g>
       <use style="stroke:#000000;stroke-width:0.5;" x="7.2" xlink:href="#mb9a1e6bd49" y="10.6217821782"/>
      </g>
     </g>
     <g id="line2d_69">
      <g>
       <use style="stroke:#000000;stroke-width:0.5;" x="453.6" xlink:href="#mc53a1604d0" y="10.6217821782"/>
      </g>
     </g>
    </g>
   </g>
   <g id="text_11">
    <!-- {f20-f24}, 20-D -->
    <defs>
     <path d="M 12.5 -9.28125 
L 15.921875 -9.28125 
Q 22.75 -9.28125 24.828125 -7.171875 
Q 26.90625 -5.078125 26.90625 1.90625 
L 26.90625 14.015625 
Q 26.90625 21.625 29.09375 25.09375 
Q 31.296875 28.5625 36.71875 29.890625 
Q 31.296875 31.109375 29.09375 34.5625 
Q 26.90625 38.03125 26.90625 45.703125 
L 26.90625 57.8125 
Q 26.90625 64.75 24.828125 66.875 
Q 22.75 69 15.921875 69 
L 12.5 69 
L 12.5 75.984375 
L 15.578125 75.984375 
Q 27.734375 75.984375 31.8125 72.390625 
Q 35.890625 68.796875 35.890625 58.015625 
L 35.890625 46.296875 
Q 35.890625 39.015625 38.515625 36.203125 
Q 41.15625 33.40625 48.09375 33.40625 
L 51.125 33.40625 
L 51.125 26.421875 
L 48.09375 26.421875 
Q 41.15625 26.421875 38.515625 23.578125 
Q 35.890625 20.75 35.890625 13.375 
L 35.890625 1.703125 
Q 35.890625 -9.078125 31.8125 -12.6875 
Q 27.734375 -16.3125 15.578125 -16.3125 
L 12.5 -16.3125 
z
" id="BitstreamVeraSans-Roman-7d"/>
     <path d="M 51.125 -9.28125 
L 51.125 -16.3125 
L 48.09375 -16.3125 
Q 35.9375 -16.3125 31.8125 -12.6875 
Q 27.6875 -9.078125 27.6875 1.703125 
L 27.6875 13.375 
Q 27.6875 20.75 25.046875 23.578125 
Q 22.40625 26.421875 15.484375 26.421875 
L 12.5 26.421875 
L 12.5 33.40625 
L 15.484375 33.40625 
Q 22.46875 33.40625 25.078125 36.203125 
Q 27.6875 39.015625 27.6875 46.296875 
L 27.6875 58.015625 
Q 27.6875 68.796875 31.8125 72.390625 
Q 35.9375 75.984375 48.09375 75.984375 
L 51.125 75.984375 
L 51.125 69 
L 47.796875 69 
Q 40.921875 69 38.8125 66.84375 
Q 36.71875 64.703125 36.71875 57.8125 
L 36.71875 45.703125 
Q 36.71875 38.03125 34.5 34.5625 
Q 32.28125 31.109375 26.90625 29.890625 
Q 32.328125 28.5625 34.515625 25.09375 
Q 36.71875 21.625 36.71875 14.015625 
L 36.71875 1.90625 
Q 36.71875 -4.984375 38.8125 -7.125 
Q 40.921875 -9.28125 47.796875 -9.28125 
z
" id="BitstreamVeraSans-Roman-7b"/>
     <path d="M 11.71875 12.40625 
L 22.015625 12.40625 
L 22.015625 4 
L 14.015625 -11.625 
L 7.71875 -11.625 
L 11.71875 4 
z
" id="BitstreamVeraSans-Roman-2c"/>
    </defs>
    <g transform="translate(286.247 345.888)scale(0.2 -0.2)">
     <use xlink:href="#BitstreamVeraSans-Roman-7b"/>
     <use x="63.623046875" xlink:href="#BitstreamVeraSans-Roman-66"/>
     <use x="98.828125" xlink:href="#BitstreamVeraSans-Roman-32"/>
     <use x="162.451171875" xlink:href="#BitstreamVeraSans-Roman-30"/>
     <use x="226.07421875" xlink:href="#BitstreamVeraSans-Roman-2d"/>
     <use x="262.158203125" xlink:href="#BitstreamVeraSans-Roman-66"/>
     <use x="297.36328125" xlink:href="#BitstreamVeraSans-Roman-32"/>
     <use x="360.986328125" xlink:href="#BitstreamVeraSans-Roman-34"/>
     <use x="424.609375" xlink:href="#BitstreamVeraSans-Roman-7d"/>
     <use x="488.232421875" xlink:href="#BitstreamVeraSans-Roman-2c"/>
     <use x="520.01953125" xlink:href="#BitstreamVeraSans-Roman-20"/>
     <use x="551.806640625" xlink:href="#BitstreamVeraSans-Roman-32"/>
     <use x="615.4296875" xlink:href="#BitstreamVeraSans-Roman-30"/>
     <use x="679.052734375" xlink:href="#BitstreamVeraSans-Roman-2d"/>
     <use x="715.13671875" xlink:href="#BitstreamVeraSans-Roman-44"/>
    </g>
   </g>
   <g id="text_12">
    <!-- 0.0.0 -->
    <defs>
     <path d="M 10.6875 12.40625 
L 21 12.40625 
L 21 0 
L 10.6875 0 
z
" id="BitstreamVeraSans-Roman-2e"/>
    </defs>
    <g style="fill:#808080;" transform="translate(217.678125 347.2643125)scale(0.1 -0.1)">
     <use xlink:href="#BitstreamVeraSans-Roman-30"/>
     <use x="63.623046875" xlink:href="#BitstreamVeraSans-Roman-2e"/>
     <use x="95.41015625" xlink:href="#BitstreamVeraSans-Roman-30"/>
     <use x="159.033203125" xlink:href="#BitstreamVeraSans-Roman-2e"/>
     <use x="190.8203125" xlink:href="#BitstreamVeraSans-Roman-30"/>
    </g>
   </g>
  </g>
 </g>
 <defs>
  <clipPath id="pd2ee1734db">
   <rect height="345.6" width="446.4" x="7.2" y="7.2"/>
  </clipPath>
 </defs>
</svg>
