<?xml version="1.0" encoding="utf-8" standalone="no"?>
<!DOCTYPE svg PUBLIC "-//W3C//DTD SVG 1.1//EN"
  "http://www.w3.org/Graphics/SVG/1.1/DTD/svg11.dtd">
<!-- Created with matplotlib (http://matplotlib.org/) -->
<svg height="407pt" version="1.1" viewBox="0 0 460 407" width="460pt" xmlns="http://www.w3.org/2000/svg" xmlns:xlink="http://www.w3.org/1999/xlink">
 <defs>
  <style type="text/css">
*{stroke-linecap:butt;stroke-linejoin:round;stroke-miterlimit:100000;}
  </style>
 </defs>
 <g id="figure_1">
  <g id="patch_1">
   <path d="M 0 407.7125 
L 460.8 407.7125 
L 460.8 0 
L 0 0 
z
" style="fill:#ffffff;"/>
  </g>
  <g id="axes_1">
   <g id="patch_2">
    <path d="M 7.2 352.8 
L 453.6 352.8 
L 453.6 7.2 
L 7.2 7.2 
z
" style="fill:#ffffff;"/>
   </g>
   <g id="line2d_1">
    <path clip-path="url(#pbebec1f834)" d="M 93.243146 352.8 
L 93.243146 347.09703 
L 100.994565 347.09703 
L 100.994565 341.394059 
L 105.718332 341.394059 
L 105.718332 335.691089 
L 108.476178 335.691089 
L 108.476178 329.988119 
L 109.689031 329.988119 
L 109.689031 324.285149 
L 124.762443 324.285149 
L 124.762443 318.582178 
L 137.232962 318.582178 
L 137.232962 312.879208 
L 147.901345 312.879208 
L 147.901345 307.176238 
L 153.875494 307.176238 
L 153.875494 301.473267 
L 155.724125 301.473267 
L 155.724125 295.770297 
L 170.222037 295.770297 
L 170.222037 290.067327 
L 171.323215 290.067327 
L 171.323215 284.364356 
L 182.618783 284.364356 
L 182.618783 278.661386 
L 187.648121 278.661386 
L 187.648121 272.958416 
L 193.431901 272.958416 
L 193.431901 267.255446 
L 196.049175 267.255446 
L 196.049175 261.552475 
L 196.665623 261.552475 
L 196.665623 255.849505 
L 201.734477 255.849505 
L 201.734477 250.146535 
L 203.134841 250.146535 
L 203.134841 244.443564 
L 204.029737 244.443564 
L 204.029737 238.740594 
L 204.371377 238.740594 
L 204.371377 233.037624 
L 206.085797 233.037624 
L 206.085797 227.334653 
L 206.130298 227.334653 
L 206.130298 221.631683 
L 206.275301 221.631683 
L 206.275301 215.928713 
L 207.177519 215.928713 
L 207.177519 210.225743 
L 207.309932 210.225743 
L 207.309932 204.522772 
L 207.46297 204.522772 
L 207.46297 198.819802 
L 207.707691 198.819802 
L 207.707691 193.116832 
L 209.363425 193.116832 
L 209.363425 187.413861 
L 210.353128 187.413861 
L 210.353128 181.710891 
L 210.453282 181.710891 
L 210.453282 176.007921 
L 211.777949 176.007921 
L 211.777949 170.30495 
L 212.700624 170.30495 
L 212.700624 164.60198 
L 213.007522 164.60198 
L 213.007522 158.89901 
L 213.485104 158.89901 
L 213.485104 153.19604 
L 213.672746 153.19604 
L 213.672746 147.493069 
L 213.711157 147.493069 
L 213.711157 141.790099 
L 213.792697 141.790099 
L 213.792697 136.087129 
L 213.932431 136.087129 
L 213.932431 130.384158 
L 214.060058 130.384158 
L 214.060058 124.681188 
L 214.277371 124.681188 
L 214.277371 118.978218 
L 214.491695 118.978218 
L 214.491695 113.275248 
L 214.957742 113.275248 
L 214.957742 107.572277 
L 216.511605 107.572277 
L 216.511605 101.869307 
L 217.813084 101.869307 
L 217.813084 96.166337 
L 218.185309 96.166337 
L 218.185309 90.463366 
L 218.537275 90.463366 
L 218.537275 84.760396 
L 218.83513 84.760396 
L 218.83513 79.057426 
L 219.852535 79.057426 
L 219.852535 73.354455 
L 220.794628 73.354455 
L 220.794628 67.651485 
L 221.963277 67.651485 
L 221.963277 61.948515 
L 221.988278 61.948515 
L 221.988278 56.245545 
L 222.054774 56.245545 
L 222.054774 50.542574 
L 222.097368 50.542574 
L 222.097368 44.839604 
L 222.106085 44.839604 
L 222.106085 39.136634 
L 222.871528 39.136634 
L 222.871528 33.433663 
L 225.214876 33.433663 
L 225.214876 27.730693 
L 227.548544 27.730693 
L 227.548544 22.027723 
L 231.683228 22.027723 
L 231.683228 16.324752 
L 255.454155 16.324752 
L 255.454155 10.621782 
L 255.454155 10.621782 
L 255.454155 10.621782 
L 453.6 10.621782 
" style="fill:none;stroke:#ff0000;stroke-linecap:square;stroke-width:3.0;"/>
   </g>
   <g id="line2d_2">
    <path clip-path="url(#pbebec1f834)" d="M 238.518551 352.8 
L 238.518551 347.09703 
L 263.443339 347.09703 
L 263.443339 341.394059 
L 268.655086 341.394059 
L 268.655086 335.691089 
L 270.522878 335.691089 
L 270.522878 329.988119 
L 271.353532 329.988119 
L 271.353532 324.285149 
L 274.359271 324.285149 
L 274.359271 318.582178 
L 275.701368 318.582178 
L 275.701368 312.879208 
L 275.781638 312.879208 
L 275.781638 307.176238 
L 275.91061 307.176238 
L 275.91061 301.473267 
L 280.200622 301.473267 
L 280.200622 295.770297 
L 280.829972 295.770297 
L 280.829972 290.067327 
L 283.612895 290.067327 
L 283.612895 284.364356 
L 283.900156 284.364356 
L 283.900156 278.661386 
L 290.67657 278.661386 
L 290.67657 272.958416 
L 294.239734 272.958416 
L 294.239734 267.255446 
L 295.701533 267.255446 
L 295.701533 261.552475 
L 296.139037 261.552475 
L 296.139037 255.849505 
L 304.763011 255.849505 
L 304.763011 250.146535 
L 304.893333 250.146535 
L 304.893333 244.443564 
L 305.926106 244.443564 
L 305.926106 238.740594 
L 315.080413 238.740594 
L 315.080413 233.037624 
L 317.403338 233.037624 
L 317.403338 227.334653 
L 317.537871 227.334653 
L 317.537871 221.631683 
L 319.984761 221.631683 
L 319.984761 215.928713 
L 321.110969 215.928713 
L 321.110969 210.225743 
L 321.40994 210.225743 
L 321.40994 204.522772 
L 324.304665 204.522772 
L 324.304665 198.819802 
L 324.756393 198.819802 
L 324.756393 193.116832 
L 326.419783 193.116832 
L 326.419783 187.413861 
L 326.423856 187.413861 
L 326.423856 181.710891 
L 326.921064 181.710891 
L 326.921064 176.007921 
L 327.133393 176.007921 
L 327.133393 170.30495 
L 328.469861 170.30495 
L 328.469861 164.60198 
L 330.806645 164.60198 
L 330.806645 158.89901 
L 332.094265 158.89901 
L 332.094265 153.19604 
L 333.715814 153.19604 
L 333.715814 147.493069 
L 337.607193 147.493069 
L 337.607193 141.790099 
L 337.619731 141.790099 
L 337.619731 136.087129 
L 339.510322 136.087129 
L 339.510322 130.384158 
L 339.680102 130.384158 
L 339.680102 124.681188 
L 339.749692 124.681188 
L 339.749692 118.978218 
L 341.500161 118.978218 
L 341.500161 113.275248 
L 341.626937 113.275248 
L 341.626937 107.572277 
L 341.964969 107.572277 
L 341.964969 101.869307 
L 342.796715 101.869307 
L 342.796715 96.166337 
L 344.202496 96.166337 
L 344.202496 90.463366 
L 345.564875 90.463366 
L 345.564875 84.760396 
L 346.032541 84.760396 
L 346.032541 79.057426 
L 346.433165 79.057426 
L 346.433165 73.354455 
L 347.231303 73.354455 
L 347.231303 67.651485 
L 348.649028 67.651485 
L 348.649028 61.948515 
L 348.655496 61.948515 
L 348.655496 56.245545 
L 349.20228 56.245545 
L 349.20228 50.542574 
L 350.364145 50.542574 
L 350.364145 44.839604 
L 351.483016 44.839604 
L 351.483016 39.136634 
L 351.887759 39.136634 
L 351.887759 33.433663 
L 352.382267 33.433663 
L 352.382267 27.730693 
L 355.532566 27.730693 
L 355.532566 22.027723 
L 358.382352 22.027723 
L 358.382352 16.324752 
L 366.951651 16.324752 
L 366.951651 10.621782 
L 366.951651 10.621782 
L 366.951651 10.621782 
L 453.6 10.621782 
" style="fill:none;stroke:#00bfbf;stroke-linecap:square;"/>
   </g>
   <g id="line2d_3">
    <path clip-path="url(#pbebec1f834)" d="M 238.518551 352.8 
L 238.518551 347.09703 
L 250.277114 347.09703 
L 250.277114 341.394059 
L 260.470048 341.394059 
L 260.470048 335.691089 
L 260.694185 335.691089 
L 260.694185 329.988119 
L 262.844943 329.988119 
L 262.844943 324.285149 
L 263.033661 324.285149 
L 263.033661 318.582178 
L 263.534923 318.582178 
L 263.534923 312.879208 
L 265.334573 312.879208 
L 265.334573 307.176238 
L 268.655086 307.176238 
L 268.655086 301.473267 
L 269.595127 301.473267 
L 269.595127 295.770297 
L 270.425997 295.770297 
L 270.425997 290.067327 
L 270.522878 290.067327 
L 270.522878 284.364356 
L 272.479822 284.364356 
L 272.479822 278.661386 
L 275.781638 278.661386 
L 275.781638 272.958416 
L 276.857788 272.958416 
L 276.857788 267.255446 
L 279.986778 267.255446 
L 279.986778 261.552475 
L 281.387135 261.552475 
L 281.387135 255.849505 
L 286.084089 255.849505 
L 286.084089 250.146535 
L 293.325827 250.146535 
L 293.325827 244.443564 
L 295.273059 244.443564 
L 295.273059 238.740594 
L 295.701533 238.740594 
L 295.701533 233.037624 
L 296.139037 233.037624 
L 296.139037 227.334653 
L 298.158512 227.334653 
L 298.158512 221.631683 
L 301.305997 221.631683 
L 301.305997 215.928713 
L 304.893333 215.928713 
L 304.893333 210.225743 
L 304.920187 210.225743 
L 304.920187 204.522772 
L 306.118631 204.522772 
L 306.118631 198.819802 
L 309.91786 198.819802 
L 309.91786 193.116832 
L 313.235085 193.116832 
L 313.235085 187.413861 
L 314.216 187.413861 
L 314.216 181.710891 
L 316.515836 181.710891 
L 316.515836 176.007921 
L 317.403338 176.007921 
L 317.403338 170.30495 
L 321.110969 170.30495 
L 321.110969 164.60198 
L 323.009249 164.60198 
L 323.009249 158.89901 
L 323.589546 158.89901 
L 323.589546 153.19604 
L 324.756393 153.19604 
L 324.756393 147.493069 
L 325.714387 147.493069 
L 325.714387 141.790099 
L 326.009958 141.790099 
L 326.009958 136.087129 
L 326.174822 136.087129 
L 326.174822 130.384158 
L 326.423856 130.384158 
L 326.423856 124.681188 
L 327.133393 124.681188 
L 327.133393 118.978218 
L 328.236403 118.978218 
L 328.236403 113.275248 
L 329.460407 113.275248 
L 329.460407 107.572277 
L 330.806645 107.572277 
L 330.806645 101.869307 
L 333.764974 101.869307 
L 333.764974 96.166337 
L 335.112433 96.166337 
L 335.112433 90.463366 
L 335.126444 90.463366 
L 335.126444 84.760396 
L 335.322847 84.760396 
L 335.322847 79.057426 
L 336.357525 79.057426 
L 336.357525 73.354455 
L 340.750038 73.354455 
L 340.750038 67.651485 
L 341.052424 67.651485 
L 341.052424 61.948515 
L 341.429787 61.948515 
L 341.429787 56.245545 
L 341.48468 56.245545 
L 341.48468 50.542574 
L 342.284921 50.542574 
L 342.284921 44.839604 
L 344.354018 44.839604 
L 344.354018 39.136634 
L 346.145689 39.136634 
L 346.145689 33.433663 
L 346.433165 33.433663 
L 346.433165 27.730693 
L 347.231303 27.730693 
L 347.231303 22.027723 
L 347.966669 22.027723 
L 347.966669 16.324752 
L 352.382267 16.324752 
L 352.382267 10.621782 
L 352.382267 10.621782 
L 352.382267 10.621782 
L 453.6 10.621782 
" style="fill:none;stroke:#bf00bf;stroke-linecap:square;"/>
   </g>
   <g id="line2d_4">
    <path clip-path="url(#pbebec1f834)" d="M 238.518551 352.8 
L 238.518551 347.09703 
L 243.726926 347.09703 
L 243.726926 341.394059 
L 248.179529 341.394059 
L 248.179529 335.691089 
L 249.342367 335.691089 
L 249.342367 329.988119 
L 257.203151 329.988119 
L 257.203151 324.285149 
L 260.470048 324.285149 
L 260.470048 318.582178 
L 262.834474 318.582178 
L 262.834474 312.879208 
L 262.844943 312.879208 
L 262.844943 307.176238 
L 263.534923 307.176238 
L 263.534923 301.473267 
L 265.334573 301.473267 
L 265.334573 295.770297 
L 269.593766 295.770297 
L 269.593766 290.067327 
L 270.173684 290.067327 
L 270.173684 284.364356 
L 270.425997 284.364356 
L 270.425997 278.661386 
L 270.522878 278.661386 
L 270.522878 272.958416 
L 273.373817 272.958416 
L 273.373817 267.255446 
L 276.857788 267.255446 
L 276.857788 261.552475 
L 279.986778 261.552475 
L 279.986778 255.849505 
L 281.387135 255.849505 
L 281.387135 250.146535 
L 290.307778 250.146535 
L 290.307778 244.443564 
L 293.325827 244.443564 
L 293.325827 238.740594 
L 293.767564 238.740594 
L 293.767564 233.037624 
L 295.610911 233.037624 
L 295.610911 227.334653 
L 296.139037 227.334653 
L 296.139037 221.631683 
L 298.158512 221.631683 
L 298.158512 215.928713 
L 301.305997 215.928713 
L 301.305997 210.225743 
L 302.057487 210.225743 
L 302.057487 204.522772 
L 302.691386 204.522772 
L 302.691386 198.819802 
L 304.893333 198.819802 
L 304.893333 193.116832 
L 304.920187 193.116832 
L 304.920187 187.413861 
L 306.118631 187.413861 
L 306.118631 181.710891 
L 308.422105 181.710891 
L 308.422105 176.007921 
L 308.954922 176.007921 
L 308.954922 170.30495 
L 310.741184 170.30495 
L 310.741184 164.60198 
L 312.468524 164.60198 
L 312.468524 158.89901 
L 312.902433 158.89901 
L 312.902433 153.19604 
L 313.089708 153.19604 
L 313.089708 147.493069 
L 313.235085 147.493069 
L 313.235085 141.790099 
L 313.475188 141.790099 
L 313.475188 136.087129 
L 316.374789 136.087129 
L 316.374789 130.384158 
L 317.403338 130.384158 
L 317.403338 124.681188 
L 319.577397 124.681188 
L 319.577397 118.978218 
L 320.149454 118.978218 
L 320.149454 113.275248 
L 323.009249 113.275248 
L 323.009249 107.572277 
L 323.06979 107.572277 
L 323.06979 101.869307 
L 323.327371 101.869307 
L 323.327371 96.166337 
L 324.594604 96.166337 
L 324.594604 90.463366 
L 324.653724 90.463366 
L 324.653724 84.760396 
L 324.710828 84.760396 
L 324.710828 79.057426 
L 325.768773 79.057426 
L 325.768773 73.354455 
L 326.009958 73.354455 
L 326.009958 67.651485 
L 328.236403 67.651485 
L 328.236403 61.948515 
L 329.460407 61.948515 
L 329.460407 56.245545 
L 330.511969 56.245545 
L 330.511969 50.542574 
L 330.806645 50.542574 
L 330.806645 44.839604 
L 333.649393 44.839604 
L 333.649393 39.136634 
L 334.006496 39.136634 
L 334.006496 33.433663 
L 334.333187 33.433663 
L 334.333187 27.730693 
L 335.322847 27.730693 
L 335.322847 22.027723 
L 337.057987 22.027723 
L 337.057987 16.324752 
L 341.759771 16.324752 
L 341.759771 10.621782 
L 341.759771 10.621782 
L 341.759771 10.621782 
L 453.6 10.621782 
" style="fill:none;stroke:#000000;stroke-linecap:square;"/>
   </g>
   <g id="line2d_5">
    <path clip-path="url(#pbebec1f834)" d="M 230.652532 352.8 
L 230.652532 347.09703 
L 239.788591 347.09703 
L 239.788591 341.394059 
L 240.257265 341.394059 
L 240.257265 335.691089 
L 245.628297 335.691089 
L 245.628297 329.988119 
L 248.179529 329.988119 
L 248.179529 324.285149 
L 248.683867 324.285149 
L 248.683867 318.582178 
L 248.773727 318.582178 
L 248.773727 312.879208 
L 248.790706 312.879208 
L 248.790706 307.176238 
L 249.563623 307.176238 
L 249.563623 301.473267 
L 250.449919 301.473267 
L 250.449919 295.770297 
L 252.659125 295.770297 
L 252.659125 290.067327 
L 252.745974 290.067327 
L 252.745974 284.364356 
L 254.78742 284.364356 
L 254.78742 278.661386 
L 255.035882 278.661386 
L 255.035882 272.958416 
L 256.86848 272.958416 
L 256.86848 267.255446 
L 259.471007 267.255446 
L 259.471007 261.552475 
L 260.933148 261.552475 
L 260.933148 255.849505 
L 262.880408 255.849505 
L 262.880408 250.146535 
L 262.945058 250.146535 
L 262.945058 244.443564 
L 263.529626 244.443564 
L 263.529626 238.740594 
L 263.534923 238.740594 
L 263.534923 233.037624 
L 265.879529 233.037624 
L 265.879529 227.334653 
L 266.174812 227.334653 
L 266.174812 221.631683 
L 267.573132 221.631683 
L 267.573132 215.928713 
L 268.364794 215.928713 
L 268.364794 210.225743 
L 268.618777 210.225743 
L 268.618777 204.522772 
L 270.107593 204.522772 
L 270.107593 198.819802 
L 270.377999 198.819802 
L 270.377999 193.116832 
L 271.688839 193.116832 
L 271.688839 187.413861 
L 273.380389 187.413861 
L 273.380389 181.710891 
L 274.325021 181.710891 
L 274.325021 176.007921 
L 279.29636 176.007921 
L 279.29636 170.30495 
L 280.413274 170.30495 
L 280.413274 164.60198 
L 281.372897 164.60198 
L 281.372897 158.89901 
L 281.87487 158.89901 
L 281.87487 153.19604 
L 282.098364 153.19604 
L 282.098364 147.493069 
L 282.6482 147.493069 
L 282.6482 141.790099 
L 292.898039 141.790099 
L 292.898039 136.087129 
L 293.091133 136.087129 
L 293.091133 130.384158 
L 295.610911 130.384158 
L 295.610911 124.681188 
L 296.353679 124.681188 
L 296.353679 118.978218 
L 296.724152 118.978218 
L 296.724152 113.275248 
L 299.228466 113.275248 
L 299.228466 107.572277 
L 299.340363 107.572277 
L 299.340363 101.869307 
L 299.668248 101.869307 
L 299.668248 96.166337 
L 301.078008 96.166337 
L 301.078008 90.463366 
L 302.517542 90.463366 
L 302.517542 84.760396 
L 302.779501 84.760396 
L 302.779501 79.057426 
L 303.497486 79.057426 
L 303.497486 73.354455 
L 303.589611 73.354455 
L 303.589611 67.651485 
L 304.021002 67.651485 
L 304.021002 61.948515 
L 304.483257 61.948515 
L 304.483257 56.245545 
L 309.042568 56.245545 
L 309.042568 50.542574 
L 309.438073 50.542574 
L 309.438073 44.839604 
L 313.139137 44.839604 
L 313.139137 39.136634 
L 315.608928 39.136634 
L 315.608928 33.433663 
L 321.017348 33.433663 
L 321.017348 27.730693 
L 321.375254 27.730693 
L 321.375254 22.027723 
L 321.585172 22.027723 
L 321.585172 16.324752 
L 323.745619 16.324752 
L 323.745619 10.621782 
L 323.745619 10.621782 
L 323.745619 10.621782 
L 453.6 10.621782 
" style="fill:none;stroke:#00bfbf;stroke-linecap:square;"/>
   </g>
   <g id="line2d_6">
    <path clip-path="url(#pbebec1f834)" d="M 199.593667 352.8 
L 199.593667 347.09703 
L 210.673507 347.09703 
L 210.673507 341.394059 
L 211.376122 341.394059 
L 211.376122 335.691089 
L 213.038151 335.691089 
L 213.038151 329.988119 
L 215.283778 329.988119 
L 215.283778 324.285149 
L 216.387097 324.285149 
L 216.387097 318.582178 
L 216.55595 318.582178 
L 216.55595 312.879208 
L 217.557809 312.879208 
L 217.557809 307.176238 
L 217.82885 307.176238 
L 217.82885 301.473267 
L 218.61528 301.473267 
L 218.61528 295.770297 
L 218.675864 295.770297 
L 218.675864 290.067327 
L 219.178091 290.067327 
L 219.178091 284.364356 
L 219.718926 284.364356 
L 219.718926 278.661386 
L 219.792219 278.661386 
L 219.792219 272.958416 
L 219.956809 272.958416 
L 219.956809 267.255446 
L 220.988491 267.255446 
L 220.988491 261.552475 
L 221.673522 261.552475 
L 221.673522 255.849505 
L 222.148811 255.849505 
L 222.148811 250.146535 
L 222.186193 250.146535 
L 222.186193 244.443564 
L 222.840596 244.443564 
L 222.840596 238.740594 
L 223.114399 238.740594 
L 223.114399 233.037624 
L 225.044206 233.037624 
L 225.044206 227.334653 
L 225.365874 227.334653 
L 225.365874 221.631683 
L 225.496446 221.631683 
L 225.496446 215.928713 
L 225.712944 215.928713 
L 225.712944 210.225743 
L 225.867851 210.225743 
L 225.867851 204.522772 
L 226.954046 204.522772 
L 226.954046 198.819802 
L 227.2632 198.819802 
L 227.2632 193.116832 
L 228.416653 193.116832 
L 228.416653 187.413861 
L 228.694138 187.413861 
L 228.694138 181.710891 
L 228.832025 181.710891 
L 228.832025 176.007921 
L 229.316003 176.007921 
L 229.316003 170.30495 
L 231.455005 170.30495 
L 231.455005 164.60198 
L 231.516057 164.60198 
L 231.516057 158.89901 
L 232.32331 158.89901 
L 232.32331 153.19604 
L 232.764683 153.19604 
L 232.764683 147.493069 
L 232.820971 147.493069 
L 232.820971 141.790099 
L 232.91823 141.790099 
L 232.91823 136.087129 
L 233.429018 136.087129 
L 233.429018 130.384158 
L 235.99442 130.384158 
L 235.99442 124.681188 
L 236.242179 124.681188 
L 236.242179 118.978218 
L 237.512152 118.978218 
L 237.512152 113.275248 
L 237.520483 113.275248 
L 237.520483 107.572277 
L 239.531803 107.572277 
L 239.531803 101.869307 
L 240.438248 101.869307 
L 240.438248 96.166337 
L 240.945879 96.166337 
L 240.945879 90.463366 
L 243.151294 90.463366 
L 243.151294 84.760396 
L 243.48992 84.760396 
L 243.48992 79.057426 
L 244.680422 79.057426 
L 244.680422 73.354455 
L 245.985494 73.354455 
L 245.985494 67.651485 
L 245.995063 67.651485 
L 245.995063 61.948515 
L 248.475399 61.948515 
L 248.475399 56.245545 
L 249.33312 56.245545 
L 249.33312 50.542574 
L 249.33654 50.542574 
L 249.33654 44.839604 
L 253.46525 44.839604 
L 253.46525 39.136634 
L 255.855247 39.136634 
L 255.855247 33.433663 
L 256.490956 33.433663 
L 256.490956 27.730693 
L 259.368167 27.730693 
L 259.368167 22.027723 
L 260.25365 22.027723 
L 260.25365 16.324752 
L 262.789177 16.324752 
L 262.789177 10.621782 
L 262.789177 10.621782 
L 262.789177 10.621782 
L 453.6 10.621782 
" style="fill:none;stroke:#bf00bf;stroke-linecap:square;"/>
   </g>
   <g id="patch_3">
    <path d="M 7.2 7.2 
L 453.6 7.2 
" style="fill:none;stroke:#000000;stroke-linecap:square;stroke-linejoin:miter;"/>
   </g>
   <g id="patch_4">
    <path d="M 453.6 352.8 
L 453.6 7.2 
" style="fill:none;stroke:#000000;stroke-linecap:square;stroke-linejoin:miter;"/>
   </g>
   <g id="patch_5">
    <path d="M 7.2 352.8 
L 453.6 352.8 
" style="fill:none;stroke:#000000;stroke-linecap:square;stroke-linejoin:miter;"/>
   </g>
   <g id="patch_6">
    <path d="M 7.2 352.8 
L 7.2 7.2 
" style="fill:none;stroke:#000000;stroke-linecap:square;stroke-linejoin:miter;"/>
   </g>
   <g id="matplotlib.axis_1">
    <g id="xtick_1"/>
    <g id="xtick_2">
     <g id="line2d_7">
      <path clip-path="url(#pbebec1f834)" d="M 56.704715 352.8 
L 56.704715 7.2 
" style="fill:none;stroke:#000000;stroke-dasharray:1.000000,3.000000;stroke-dashoffset:0.0;stroke-width:0.5;"/>
     </g>
     <g id="line2d_8">
      <defs>
       <path d="M 0 0 
L 0 -4 
" id="m5290b08eba" style="stroke:#000000;stroke-width:0.5;"/>
      </defs>
      <g>
       <use style="stroke:#000000;stroke-width:0.5;" x="56.70471484" xlink:href="#m5290b08eba" y="352.8"/>
      </g>
     </g>
     <g id="line2d_9">
      <defs>
       <path d="M 0 0 
L 0 4 
" id="mdb7f524144" style="stroke:#000000;stroke-width:0.5;"/>
      </defs>
      <g>
       <use style="stroke:#000000;stroke-width:0.5;" x="56.70471484" xlink:href="#mdb7f524144" y="7.2"/>
      </g>
     </g>
     <g id="text_1">
      <!-- -6 -->
      <defs>
       <path d="M 33.015625 40.375 
Q 26.375 40.375 22.484375 35.828125 
Q 18.609375 31.296875 18.609375 23.390625 
Q 18.609375 15.53125 22.484375 10.953125 
Q 26.375 6.390625 33.015625 6.390625 
Q 39.65625 6.390625 43.53125 10.953125 
Q 47.40625 15.53125 47.40625 23.390625 
Q 47.40625 31.296875 43.53125 35.828125 
Q 39.65625 40.375 33.015625 40.375 
M 52.59375 71.296875 
L 52.59375 62.3125 
Q 48.875 64.0625 45.09375 64.984375 
Q 41.3125 65.921875 37.59375 65.921875 
Q 27.828125 65.921875 22.671875 59.328125 
Q 17.53125 52.734375 16.796875 39.40625 
Q 19.671875 43.65625 24.015625 45.921875 
Q 28.375 48.1875 33.59375 48.1875 
Q 44.578125 48.1875 50.953125 41.515625 
Q 57.328125 34.859375 57.328125 23.390625 
Q 57.328125 12.15625 50.6875 5.359375 
Q 44.046875 -1.421875 33.015625 -1.421875 
Q 20.359375 -1.421875 13.671875 8.265625 
Q 6.984375 17.96875 6.984375 36.375 
Q 6.984375 53.65625 15.1875 63.9375 
Q 23.390625 74.21875 37.203125 74.21875 
Q 40.921875 74.21875 44.703125 73.484375 
Q 48.484375 72.75 52.59375 71.296875 
" id="BitstreamVeraSans-Roman-36"/>
       <path d="M 4.890625 31.390625 
L 31.203125 31.390625 
L 31.203125 23.390625 
L 4.890625 23.390625 
z
" id="BitstreamVeraSans-Roman-2d"/>
      </defs>
      <g transform="translate(46.73440234 371.996875)scale(0.2 -0.2)">
       <use xlink:href="#BitstreamVeraSans-Roman-2d"/>
       <use x="36.083984375" xlink:href="#BitstreamVeraSans-Roman-36"/>
      </g>
     </g>
    </g>
    <g id="xtick_3">
     <g id="line2d_10">
      <path clip-path="url(#pbebec1f834)" d="M 106.316625 352.8 
L 106.316625 7.2 
" style="fill:none;stroke:#000000;stroke-dasharray:1.000000,3.000000;stroke-dashoffset:0.0;stroke-width:0.5;"/>
     </g>
     <g id="line2d_11">
      <g>
       <use style="stroke:#000000;stroke-width:0.5;" x="106.316625485" xlink:href="#m5290b08eba" y="352.8"/>
      </g>
     </g>
     <g id="line2d_12">
      <g>
       <use style="stroke:#000000;stroke-width:0.5;" x="106.316625485" xlink:href="#mdb7f524144" y="7.2"/>
      </g>
     </g>
     <g id="text_2">
      <!-- -4 -->
      <defs>
       <path d="M 37.796875 64.3125 
L 12.890625 25.390625 
L 37.796875 25.390625 
z
M 35.203125 72.90625 
L 47.609375 72.90625 
L 47.609375 25.390625 
L 58.015625 25.390625 
L 58.015625 17.1875 
L 47.609375 17.1875 
L 47.609375 0 
L 37.796875 0 
L 37.796875 17.1875 
L 4.890625 17.1875 
L 4.890625 26.703125 
z
" id="BitstreamVeraSans-Roman-34"/>
      </defs>
      <g transform="translate(96.346312985 371.996875)scale(0.2 -0.2)">
       <use xlink:href="#BitstreamVeraSans-Roman-2d"/>
       <use x="36.083984375" xlink:href="#BitstreamVeraSans-Roman-34"/>
      </g>
     </g>
    </g>
    <g id="xtick_4">
     <g id="line2d_13">
      <path clip-path="url(#pbebec1f834)" d="M 155.928536 352.8 
L 155.928536 7.2 
" style="fill:none;stroke:#000000;stroke-dasharray:1.000000,3.000000;stroke-dashoffset:0.0;stroke-width:0.5;"/>
     </g>
     <g id="line2d_14">
      <g>
       <use style="stroke:#000000;stroke-width:0.5;" x="155.92853613" xlink:href="#m5290b08eba" y="352.8"/>
      </g>
     </g>
     <g id="line2d_15">
      <g>
       <use style="stroke:#000000;stroke-width:0.5;" x="155.92853613" xlink:href="#mdb7f524144" y="7.2"/>
      </g>
     </g>
     <g id="text_3">
      <!-- -2 -->
      <defs>
       <path d="M 19.1875 8.296875 
L 53.609375 8.296875 
L 53.609375 0 
L 7.328125 0 
L 7.328125 8.296875 
Q 12.9375 14.109375 22.625 23.890625 
Q 32.328125 33.6875 34.8125 36.53125 
Q 39.546875 41.84375 41.421875 45.53125 
Q 43.3125 49.21875 43.3125 52.78125 
Q 43.3125 58.59375 39.234375 62.25 
Q 35.15625 65.921875 28.609375 65.921875 
Q 23.96875 65.921875 18.8125 64.3125 
Q 13.671875 62.703125 7.8125 59.421875 
L 7.8125 69.390625 
Q 13.765625 71.78125 18.9375 73 
Q 24.125 74.21875 28.421875 74.21875 
Q 39.75 74.21875 46.484375 68.546875 
Q 53.21875 62.890625 53.21875 53.421875 
Q 53.21875 48.921875 51.53125 44.890625 
Q 49.859375 40.875 45.40625 35.40625 
Q 44.1875 33.984375 37.640625 27.21875 
Q 31.109375 20.453125 19.1875 8.296875 
" id="BitstreamVeraSans-Roman-32"/>
      </defs>
      <g transform="translate(145.95822363 371.996875)scale(0.2 -0.2)">
       <use xlink:href="#BitstreamVeraSans-Roman-2d"/>
       <use x="36.083984375" xlink:href="#BitstreamVeraSans-Roman-32"/>
      </g>
     </g>
    </g>
    <g id="xtick_5">
     <g id="line2d_16">
      <path clip-path="url(#pbebec1f834)" d="M 205.540447 352.8 
L 205.540447 7.2 
" style="fill:none;stroke:#000000;stroke-dasharray:1.000000,3.000000;stroke-dashoffset:0.0;stroke-width:0.5;"/>
     </g>
     <g id="line2d_17">
      <g>
       <use style="stroke:#000000;stroke-width:0.5;" x="205.540446775" xlink:href="#m5290b08eba" y="352.8"/>
      </g>
     </g>
     <g id="line2d_18">
      <g>
       <use style="stroke:#000000;stroke-width:0.5;" x="205.540446775" xlink:href="#mdb7f524144" y="7.2"/>
      </g>
     </g>
     <g id="text_4">
      <!-- 0 -->
      <defs>
       <path d="M 31.78125 66.40625 
Q 24.171875 66.40625 20.328125 58.90625 
Q 16.5 51.421875 16.5 36.375 
Q 16.5 21.390625 20.328125 13.890625 
Q 24.171875 6.390625 31.78125 6.390625 
Q 39.453125 6.390625 43.28125 13.890625 
Q 47.125 21.390625 47.125 36.375 
Q 47.125 51.421875 43.28125 58.90625 
Q 39.453125 66.40625 31.78125 66.40625 
M 31.78125 74.21875 
Q 44.046875 74.21875 50.515625 64.515625 
Q 56.984375 54.828125 56.984375 36.375 
Q 56.984375 17.96875 50.515625 8.265625 
Q 44.046875 -1.421875 31.78125 -1.421875 
Q 19.53125 -1.421875 13.0625 8.265625 
Q 6.59375 17.96875 6.59375 36.375 
Q 6.59375 54.828125 13.0625 64.515625 
Q 19.53125 74.21875 31.78125 74.21875 
" id="BitstreamVeraSans-Roman-30"/>
      </defs>
      <g transform="translate(199.177946775 371.996875)scale(0.2 -0.2)">
       <use xlink:href="#BitstreamVeraSans-Roman-30"/>
      </g>
     </g>
    </g>
    <g id="xtick_6">
     <g id="line2d_19">
      <path clip-path="url(#pbebec1f834)" d="M 255.152357 352.8 
L 255.152357 7.2 
" style="fill:none;stroke:#000000;stroke-dasharray:1.000000,3.000000;stroke-dashoffset:0.0;stroke-width:0.5;"/>
     </g>
     <g id="line2d_20">
      <g>
       <use style="stroke:#000000;stroke-width:0.5;" x="255.15235742" xlink:href="#m5290b08eba" y="352.8"/>
      </g>
     </g>
     <g id="line2d_21">
      <g>
       <use style="stroke:#000000;stroke-width:0.5;" x="255.15235742" xlink:href="#mdb7f524144" y="7.2"/>
      </g>
     </g>
     <g id="text_5">
      <!-- 2 -->
      <g transform="translate(248.78985742 371.996875)scale(0.2 -0.2)">
       <use xlink:href="#BitstreamVeraSans-Roman-32"/>
      </g>
     </g>
    </g>
    <g id="xtick_7">
     <g id="line2d_22">
      <path clip-path="url(#pbebec1f834)" d="M 304.764268 352.8 
L 304.764268 7.2 
" style="fill:none;stroke:#000000;stroke-dasharray:1.000000,3.000000;stroke-dashoffset:0.0;stroke-width:0.5;"/>
     </g>
     <g id="line2d_23">
      <g>
       <use style="stroke:#000000;stroke-width:0.5;" x="304.764268065" xlink:href="#m5290b08eba" y="352.8"/>
      </g>
     </g>
     <g id="line2d_24">
      <g>
       <use style="stroke:#000000;stroke-width:0.5;" x="304.764268065" xlink:href="#mdb7f524144" y="7.2"/>
      </g>
     </g>
     <g id="text_6">
      <!-- 4 -->
      <g transform="translate(298.401768065 371.996875)scale(0.2 -0.2)">
       <use xlink:href="#BitstreamVeraSans-Roman-34"/>
      </g>
     </g>
    </g>
    <g id="xtick_8">
     <g id="line2d_25">
      <path clip-path="url(#pbebec1f834)" d="M 354.376179 352.8 
L 354.376179 7.2 
" style="fill:none;stroke:#000000;stroke-dasharray:1.000000,3.000000;stroke-dashoffset:0.0;stroke-width:0.5;"/>
     </g>
     <g id="line2d_26">
      <g>
       <use style="stroke:#000000;stroke-width:0.5;" x="354.37617871" xlink:href="#m5290b08eba" y="352.8"/>
      </g>
     </g>
     <g id="line2d_27">
      <g>
       <use style="stroke:#000000;stroke-width:0.5;" x="354.37617871" xlink:href="#mdb7f524144" y="7.2"/>
      </g>
     </g>
     <g id="text_7">
      <!-- 6 -->
      <g transform="translate(348.01367871 371.996875)scale(0.2 -0.2)">
       <use xlink:href="#BitstreamVeraSans-Roman-36"/>
      </g>
     </g>
    </g>
    <g id="xtick_9">
     <g id="line2d_28">
      <path clip-path="url(#pbebec1f834)" d="M 403.988089 352.8 
L 403.988089 7.2 
" style="fill:none;stroke:#000000;stroke-dasharray:1.000000,3.000000;stroke-dashoffset:0.0;stroke-width:0.5;"/>
     </g>
     <g id="line2d_29">
      <g>
       <use style="stroke:#000000;stroke-width:0.5;" x="403.988089355" xlink:href="#m5290b08eba" y="352.8"/>
      </g>
     </g>
     <g id="line2d_30">
      <g>
       <use style="stroke:#000000;stroke-width:0.5;" x="403.988089355" xlink:href="#mdb7f524144" y="7.2"/>
      </g>
     </g>
     <g id="text_8">
      <!-- 8 -->
      <defs>
       <path d="M 31.78125 34.625 
Q 24.75 34.625 20.71875 30.859375 
Q 16.703125 27.09375 16.703125 20.515625 
Q 16.703125 13.921875 20.71875 10.15625 
Q 24.75 6.390625 31.78125 6.390625 
Q 38.8125 6.390625 42.859375 10.171875 
Q 46.921875 13.96875 46.921875 20.515625 
Q 46.921875 27.09375 42.890625 30.859375 
Q 38.875 34.625 31.78125 34.625 
M 21.921875 38.8125 
Q 15.578125 40.375 12.03125 44.71875 
Q 8.5 49.078125 8.5 55.328125 
Q 8.5 64.0625 14.71875 69.140625 
Q 20.953125 74.21875 31.78125 74.21875 
Q 42.671875 74.21875 48.875 69.140625 
Q 55.078125 64.0625 55.078125 55.328125 
Q 55.078125 49.078125 51.53125 44.71875 
Q 48 40.375 41.703125 38.8125 
Q 48.828125 37.15625 52.796875 32.3125 
Q 56.78125 27.484375 56.78125 20.515625 
Q 56.78125 9.90625 50.3125 4.234375 
Q 43.84375 -1.421875 31.78125 -1.421875 
Q 19.734375 -1.421875 13.25 4.234375 
Q 6.78125 9.90625 6.78125 20.515625 
Q 6.78125 27.484375 10.78125 32.3125 
Q 14.796875 37.15625 21.921875 38.8125 
M 18.3125 54.390625 
Q 18.3125 48.734375 21.84375 45.5625 
Q 25.390625 42.390625 31.78125 42.390625 
Q 38.140625 42.390625 41.71875 45.5625 
Q 45.3125 48.734375 45.3125 54.390625 
Q 45.3125 60.0625 41.71875 63.234375 
Q 38.140625 66.40625 31.78125 66.40625 
Q 25.390625 66.40625 21.84375 63.234375 
Q 18.3125 60.0625 18.3125 54.390625 
" id="BitstreamVeraSans-Roman-38"/>
      </defs>
      <g transform="translate(397.625589355 371.996875)scale(0.2 -0.2)">
       <use xlink:href="#BitstreamVeraSans-Roman-38"/>
      </g>
     </g>
    </g>
    <g id="xtick_10">
     <g id="line2d_31">
      <path clip-path="url(#pbebec1f834)" d="M 453.6 352.8 
L 453.6 7.2 
" style="fill:none;stroke:#000000;stroke-dasharray:1.000000,3.000000;stroke-dashoffset:0.0;stroke-width:0.5;"/>
     </g>
     <g id="line2d_32">
      <g>
       <use style="stroke:#000000;stroke-width:0.5;" x="453.6" xlink:href="#m5290b08eba" y="352.8"/>
      </g>
     </g>
     <g id="line2d_33">
      <g>
       <use style="stroke:#000000;stroke-width:0.5;" x="453.6" xlink:href="#mdb7f524144" y="7.2"/>
      </g>
     </g>
    </g>
    <g id="xtick_11"/>
    <g id="xtick_12">
     <g id="line2d_34">
      <defs>
       <path d="M 0 0 
L 0 -2 
" id="m4a3121fdbc" style="stroke:#000000;stroke-width:0.5;"/>
      </defs>
      <g>
       <use style="stroke:#000000;stroke-width:0.5;" x="56.70471484" xlink:href="#m4a3121fdbc" y="352.8"/>
      </g>
     </g>
     <g id="line2d_35">
      <defs>
       <path d="M 0 0 
L 0 2 
" id="me49c1d4961" style="stroke:#000000;stroke-width:0.5;"/>
      </defs>
      <g>
       <use style="stroke:#000000;stroke-width:0.5;" x="56.70471484" xlink:href="#me49c1d4961" y="7.2"/>
      </g>
     </g>
    </g>
    <g id="xtick_13">
     <g id="line2d_36">
      <g>
       <use style="stroke:#000000;stroke-width:0.5;" x="106.316625485" xlink:href="#m4a3121fdbc" y="352.8"/>
      </g>
     </g>
     <g id="line2d_37">
      <g>
       <use style="stroke:#000000;stroke-width:0.5;" x="106.316625485" xlink:href="#me49c1d4961" y="7.2"/>
      </g>
     </g>
    </g>
    <g id="xtick_14">
     <g id="line2d_38">
      <g>
       <use style="stroke:#000000;stroke-width:0.5;" x="155.92853613" xlink:href="#m4a3121fdbc" y="352.8"/>
      </g>
     </g>
     <g id="line2d_39">
      <g>
       <use style="stroke:#000000;stroke-width:0.5;" x="155.92853613" xlink:href="#me49c1d4961" y="7.2"/>
      </g>
     </g>
    </g>
    <g id="xtick_15">
     <g id="line2d_40">
      <g>
       <use style="stroke:#000000;stroke-width:0.5;" x="205.540446775" xlink:href="#m4a3121fdbc" y="352.8"/>
      </g>
     </g>
     <g id="line2d_41">
      <g>
       <use style="stroke:#000000;stroke-width:0.5;" x="205.540446775" xlink:href="#me49c1d4961" y="7.2"/>
      </g>
     </g>
    </g>
    <g id="xtick_16">
     <g id="line2d_42">
      <g>
       <use style="stroke:#000000;stroke-width:0.5;" x="255.15235742" xlink:href="#m4a3121fdbc" y="352.8"/>
      </g>
     </g>
     <g id="line2d_43">
      <g>
       <use style="stroke:#000000;stroke-width:0.5;" x="255.15235742" xlink:href="#me49c1d4961" y="7.2"/>
      </g>
     </g>
    </g>
    <g id="xtick_17">
     <g id="line2d_44">
      <g>
       <use style="stroke:#000000;stroke-width:0.5;" x="304.764268065" xlink:href="#m4a3121fdbc" y="352.8"/>
      </g>
     </g>
     <g id="line2d_45">
      <g>
       <use style="stroke:#000000;stroke-width:0.5;" x="304.764268065" xlink:href="#me49c1d4961" y="7.2"/>
      </g>
     </g>
    </g>
    <g id="xtick_18">
     <g id="line2d_46">
      <g>
       <use style="stroke:#000000;stroke-width:0.5;" x="354.37617871" xlink:href="#m4a3121fdbc" y="352.8"/>
      </g>
     </g>
     <g id="line2d_47">
      <g>
       <use style="stroke:#000000;stroke-width:0.5;" x="354.37617871" xlink:href="#me49c1d4961" y="7.2"/>
      </g>
     </g>
    </g>
    <g id="xtick_19">
     <g id="line2d_48">
      <g>
       <use style="stroke:#000000;stroke-width:0.5;" x="403.988089355" xlink:href="#m4a3121fdbc" y="352.8"/>
      </g>
     </g>
     <g id="line2d_49">
      <g>
       <use style="stroke:#000000;stroke-width:0.5;" x="403.988089355" xlink:href="#me49c1d4961" y="7.2"/>
      </g>
     </g>
    </g>
    <g id="xtick_20">
     <g id="line2d_50">
      <g>
       <use style="stroke:#000000;stroke-width:0.5;" x="453.6" xlink:href="#m4a3121fdbc" y="352.8"/>
      </g>
     </g>
     <g id="line2d_51">
      <g>
       <use style="stroke:#000000;stroke-width:0.5;" x="453.6" xlink:href="#me49c1d4961" y="7.2"/>
      </g>
     </g>
    </g>
    <g id="text_9">
     <!-- log10 of Df -->
     <defs>
      <path id="BitstreamVeraSans-Roman-20"/>
      <path d="M 12.40625 8.296875 
L 28.515625 8.296875 
L 28.515625 63.921875 
L 10.984375 60.40625 
L 10.984375 69.390625 
L 28.421875 72.90625 
L 38.28125 72.90625 
L 38.28125 8.296875 
L 54.390625 8.296875 
L 54.390625 0 
L 12.40625 0 
z
" id="BitstreamVeraSans-Roman-31"/>
      <path d="M 30.609375 48.390625 
Q 23.390625 48.390625 19.1875 42.75 
Q 14.984375 37.109375 14.984375 27.296875 
Q 14.984375 17.484375 19.15625 11.84375 
Q 23.34375 6.203125 30.609375 6.203125 
Q 37.796875 6.203125 41.984375 11.859375 
Q 46.1875 17.53125 46.1875 27.296875 
Q 46.1875 37.015625 41.984375 42.703125 
Q 37.796875 48.390625 30.609375 48.390625 
M 30.609375 56 
Q 42.328125 56 49.015625 48.375 
Q 55.71875 40.765625 55.71875 27.296875 
Q 55.71875 13.875 49.015625 6.21875 
Q 42.328125 -1.421875 30.609375 -1.421875 
Q 18.84375 -1.421875 12.171875 6.21875 
Q 5.515625 13.875 5.515625 27.296875 
Q 5.515625 40.765625 12.171875 48.375 
Q 18.84375 56 30.609375 56 
" id="BitstreamVeraSans-Roman-6f"/>
      <path d="M 9.421875 75.984375 
L 18.40625 75.984375 
L 18.40625 0 
L 9.421875 0 
z
" id="BitstreamVeraSans-Roman-6c"/>
      <path d="M 19.671875 64.796875 
L 19.671875 8.109375 
L 31.59375 8.109375 
Q 46.6875 8.109375 53.6875 14.9375 
Q 60.6875 21.78125 60.6875 36.53125 
Q 60.6875 51.171875 53.6875 57.984375 
Q 46.6875 64.796875 31.59375 64.796875 
z
M 9.8125 72.90625 
L 30.078125 72.90625 
Q 51.265625 72.90625 61.171875 64.09375 
Q 71.09375 55.28125 71.09375 36.53125 
Q 71.09375 17.671875 61.125 8.828125 
Q 51.171875 0 30.078125 0 
L 9.8125 0 
z
" id="BitstreamVeraSans-Roman-44"/>
      <path d="M 45.40625 27.984375 
Q 45.40625 37.75 41.375 43.109375 
Q 37.359375 48.484375 30.078125 48.484375 
Q 22.859375 48.484375 18.828125 43.109375 
Q 14.796875 37.75 14.796875 27.984375 
Q 14.796875 18.265625 18.828125 12.890625 
Q 22.859375 7.515625 30.078125 7.515625 
Q 37.359375 7.515625 41.375 12.890625 
Q 45.40625 18.265625 45.40625 27.984375 
M 54.390625 6.78125 
Q 54.390625 -7.171875 48.1875 -13.984375 
Q 42 -20.796875 29.203125 -20.796875 
Q 24.46875 -20.796875 20.265625 -20.09375 
Q 16.0625 -19.390625 12.109375 -17.921875 
L 12.109375 -9.1875 
Q 16.0625 -11.328125 19.921875 -12.34375 
Q 23.78125 -13.375 27.78125 -13.375 
Q 36.625 -13.375 41.015625 -8.765625 
Q 45.40625 -4.15625 45.40625 5.171875 
L 45.40625 9.625 
Q 42.625 4.78125 38.28125 2.390625 
Q 33.9375 0 27.875 0 
Q 17.828125 0 11.671875 7.65625 
Q 5.515625 15.328125 5.515625 27.984375 
Q 5.515625 40.671875 11.671875 48.328125 
Q 17.828125 56 27.875 56 
Q 33.9375 56 38.28125 53.609375 
Q 42.625 51.21875 45.40625 46.390625 
L 45.40625 54.6875 
L 54.390625 54.6875 
z
" id="BitstreamVeraSans-Roman-67"/>
      <path d="M 37.109375 75.984375 
L 37.109375 68.5 
L 28.515625 68.5 
Q 23.6875 68.5 21.796875 66.546875 
Q 19.921875 64.59375 19.921875 59.515625 
L 19.921875 54.6875 
L 34.71875 54.6875 
L 34.71875 47.703125 
L 19.921875 47.703125 
L 19.921875 0 
L 10.890625 0 
L 10.890625 47.703125 
L 2.296875 47.703125 
L 2.296875 54.6875 
L 10.890625 54.6875 
L 10.890625 58.5 
Q 10.890625 67.625 15.140625 71.796875 
Q 19.390625 75.984375 28.609375 75.984375 
z
" id="BitstreamVeraSans-Roman-66"/>
     </defs>
     <g transform="translate(175.2140625 396.353125)scale(0.2 -0.2)">
      <use xlink:href="#BitstreamVeraSans-Roman-6c"/>
      <use x="27.783203125" xlink:href="#BitstreamVeraSans-Roman-6f"/>
      <use x="88.96484375" xlink:href="#BitstreamVeraSans-Roman-67"/>
      <use x="152.44140625" xlink:href="#BitstreamVeraSans-Roman-31"/>
      <use x="216.064453125" xlink:href="#BitstreamVeraSans-Roman-30"/>
      <use x="279.6875" xlink:href="#BitstreamVeraSans-Roman-20"/>
      <use x="311.474609375" xlink:href="#BitstreamVeraSans-Roman-6f"/>
      <use x="372.65625" xlink:href="#BitstreamVeraSans-Roman-66"/>
      <use x="407.861328125" xlink:href="#BitstreamVeraSans-Roman-20"/>
      <use x="439.6484375" xlink:href="#BitstreamVeraSans-Roman-44"/>
      <use x="516.650390625" xlink:href="#BitstreamVeraSans-Roman-66"/>
     </g>
    </g>
   </g>
   <g id="matplotlib.axis_2">
    <g id="ytick_1">
     <g id="line2d_52">
      <path clip-path="url(#pbebec1f834)" d="M 7.2 352.8 
L 453.6 352.8 
" style="fill:none;stroke:#000000;stroke-dasharray:1.000000,3.000000;stroke-dashoffset:0.0;stroke-width:0.5;"/>
     </g>
     <g id="line2d_53">
      <defs>
       <path d="M 0 0 
L 4 0 
" id="m0e3cade8b5" style="stroke:#000000;stroke-width:0.5;"/>
      </defs>
      <g>
       <use style="stroke:#000000;stroke-width:0.5;" x="7.2" xlink:href="#m0e3cade8b5" y="352.8"/>
      </g>
     </g>
     <g id="line2d_54">
      <defs>
       <path d="M 0 0 
L -4 0 
" id="m707d04762f" style="stroke:#000000;stroke-width:0.5;"/>
      </defs>
      <g>
       <use style="stroke:#000000;stroke-width:0.5;" x="453.6" xlink:href="#m707d04762f" y="352.8"/>
      </g>
     </g>
    </g>
    <g id="ytick_2">
     <g id="line2d_55">
      <path clip-path="url(#pbebec1f834)" d="M 7.2 284.364356 
L 453.6 284.364356 
" style="fill:none;stroke:#000000;stroke-dasharray:1.000000,3.000000;stroke-dashoffset:0.0;stroke-width:0.5;"/>
     </g>
     <g id="line2d_56">
      <g>
       <use style="stroke:#000000;stroke-width:0.5;" x="7.2" xlink:href="#m0e3cade8b5" y="284.364356436"/>
      </g>
     </g>
     <g id="line2d_57">
      <g>
       <use style="stroke:#000000;stroke-width:0.5;" x="453.6" xlink:href="#m707d04762f" y="284.364356436"/>
      </g>
     </g>
    </g>
    <g id="ytick_3">
     <g id="line2d_58">
      <path clip-path="url(#pbebec1f834)" d="M 7.2 215.928713 
L 453.6 215.928713 
" style="fill:none;stroke:#000000;stroke-dasharray:1.000000,3.000000;stroke-dashoffset:0.0;stroke-width:0.5;"/>
     </g>
     <g id="line2d_59">
      <g>
       <use style="stroke:#000000;stroke-width:0.5;" x="7.2" xlink:href="#m0e3cade8b5" y="215.928712871"/>
      </g>
     </g>
     <g id="line2d_60">
      <g>
       <use style="stroke:#000000;stroke-width:0.5;" x="453.6" xlink:href="#m707d04762f" y="215.928712871"/>
      </g>
     </g>
    </g>
    <g id="ytick_4">
     <g id="line2d_61">
      <path clip-path="url(#pbebec1f834)" d="M 7.2 147.493069 
L 453.6 147.493069 
" style="fill:none;stroke:#000000;stroke-dasharray:1.000000,3.000000;stroke-dashoffset:0.0;stroke-width:0.5;"/>
     </g>
     <g id="line2d_62">
      <g>
       <use style="stroke:#000000;stroke-width:0.5;" x="7.2" xlink:href="#m0e3cade8b5" y="147.493069307"/>
      </g>
     </g>
     <g id="line2d_63">
      <g>
       <use style="stroke:#000000;stroke-width:0.5;" x="453.6" xlink:href="#m707d04762f" y="147.493069307"/>
      </g>
     </g>
    </g>
    <g id="ytick_5">
     <g id="line2d_64">
      <path clip-path="url(#pbebec1f834)" d="M 7.2 79.057426 
L 453.6 79.057426 
" style="fill:none;stroke:#000000;stroke-dasharray:1.000000,3.000000;stroke-dashoffset:0.0;stroke-width:0.5;"/>
     </g>
     <g id="line2d_65">
      <g>
       <use style="stroke:#000000;stroke-width:0.5;" x="7.2" xlink:href="#m0e3cade8b5" y="79.0574257426"/>
      </g>
     </g>
     <g id="line2d_66">
      <g>
       <use style="stroke:#000000;stroke-width:0.5;" x="453.6" xlink:href="#m707d04762f" y="79.0574257426"/>
      </g>
     </g>
    </g>
    <g id="ytick_6">
     <g id="line2d_67">
      <path clip-path="url(#pbebec1f834)" d="M 7.2 10.621782 
L 453.6 10.621782 
" style="fill:none;stroke:#000000;stroke-dasharray:1.000000,3.000000;stroke-dashoffset:0.0;stroke-width:0.5;"/>
     </g>
     <g id="line2d_68">
      <g>
       <use style="stroke:#000000;stroke-width:0.5;" x="7.2" xlink:href="#m0e3cade8b5" y="10.6217821782"/>
      </g>
     </g>
     <g id="line2d_69">
      <g>
       <use style="stroke:#000000;stroke-width:0.5;" x="453.6" xlink:href="#m707d04762f" y="10.6217821782"/>
      </g>
     </g>
    </g>
   </g>
   <g id="text_10">
    <!-- {f6-f9}, 5-D -->
    <defs>
     <path d="M 12.5 -9.28125 
L 15.921875 -9.28125 
Q 22.75 -9.28125 24.828125 -7.171875 
Q 26.90625 -5.078125 26.90625 1.90625 
L 26.90625 14.015625 
Q 26.90625 21.625 29.09375 25.09375 
Q 31.296875 28.5625 36.71875 29.890625 
Q 31.296875 31.109375 29.09375 34.5625 
Q 26.90625 38.03125 26.90625 45.703125 
L 26.90625 57.8125 
Q 26.90625 64.75 24.828125 66.875 
Q 22.75 69 15.921875 69 
L 12.5 69 
L 12.5 75.984375 
L 15.578125 75.984375 
Q 27.734375 75.984375 31.8125 72.390625 
Q 35.890625 68.796875 35.890625 58.015625 
L 35.890625 46.296875 
Q 35.890625 39.015625 38.515625 36.203125 
Q 41.15625 33.40625 48.09375 33.40625 
L 51.125 33.40625 
L 51.125 26.421875 
L 48.09375 26.421875 
Q 41.15625 26.421875 38.515625 23.578125 
Q 35.890625 20.75 35.890625 13.375 
L 35.890625 1.703125 
Q 35.890625 -9.078125 31.8125 -12.6875 
Q 27.734375 -16.3125 15.578125 -16.3125 
L 12.5 -16.3125 
z
" id="BitstreamVeraSans-Roman-7d"/>
     <path d="M 10.984375 1.515625 
L 10.984375 10.5 
Q 14.703125 8.734375 18.5 7.8125 
Q 22.3125 6.890625 25.984375 6.890625 
Q 35.75 6.890625 40.890625 13.453125 
Q 46.046875 20.015625 46.78125 33.40625 
Q 43.953125 29.203125 39.59375 26.953125 
Q 35.25 24.703125 29.984375 24.703125 
Q 19.046875 24.703125 12.671875 31.3125 
Q 6.296875 37.9375 6.296875 49.421875 
Q 6.296875 60.640625 12.9375 67.421875 
Q 19.578125 74.21875 30.609375 74.21875 
Q 43.265625 74.21875 49.921875 64.515625 
Q 56.59375 54.828125 56.59375 36.375 
Q 56.59375 19.140625 48.40625 8.859375 
Q 40.234375 -1.421875 26.421875 -1.421875 
Q 22.703125 -1.421875 18.890625 -0.6875 
Q 15.09375 0.046875 10.984375 1.515625 
M 30.609375 32.421875 
Q 37.25 32.421875 41.125 36.953125 
Q 45.015625 41.5 45.015625 49.421875 
Q 45.015625 57.28125 41.125 61.84375 
Q 37.25 66.40625 30.609375 66.40625 
Q 23.96875 66.40625 20.09375 61.84375 
Q 16.21875 57.28125 16.21875 49.421875 
Q 16.21875 41.5 20.09375 36.953125 
Q 23.96875 32.421875 30.609375 32.421875 
" id="BitstreamVeraSans-Roman-39"/>
     <path d="M 51.125 -9.28125 
L 51.125 -16.3125 
L 48.09375 -16.3125 
Q 35.9375 -16.3125 31.8125 -12.6875 
Q 27.6875 -9.078125 27.6875 1.703125 
L 27.6875 13.375 
Q 27.6875 20.75 25.046875 23.578125 
Q 22.40625 26.421875 15.484375 26.421875 
L 12.5 26.421875 
L 12.5 33.40625 
L 15.484375 33.40625 
Q 22.46875 33.40625 25.078125 36.203125 
Q 27.6875 39.015625 27.6875 46.296875 
L 27.6875 58.015625 
Q 27.6875 68.796875 31.8125 72.390625 
Q 35.9375 75.984375 48.09375 75.984375 
L 51.125 75.984375 
L 51.125 69 
L 47.796875 69 
Q 40.921875 69 38.8125 66.84375 
Q 36.71875 64.703125 36.71875 57.8125 
L 36.71875 45.703125 
Q 36.71875 38.03125 34.5 34.5625 
Q 32.28125 31.109375 26.90625 29.890625 
Q 32.328125 28.5625 34.515625 25.09375 
Q 36.71875 21.625 36.71875 14.015625 
L 36.71875 1.90625 
Q 36.71875 -4.984375 38.8125 -7.125 
Q 40.921875 -9.28125 47.796875 -9.28125 
z
" id="BitstreamVeraSans-Roman-7b"/>
     <path d="M 11.71875 12.40625 
L 22.015625 12.40625 
L 22.015625 4 
L 14.015625 -11.625 
L 7.71875 -11.625 
L 11.71875 4 
z
" id="BitstreamVeraSans-Roman-2c"/>
     <path d="M 10.796875 72.90625 
L 49.515625 72.90625 
L 49.515625 64.59375 
L 19.828125 64.59375 
L 19.828125 46.734375 
Q 21.96875 47.46875 24.109375 47.828125 
Q 26.265625 48.1875 28.421875 48.1875 
Q 40.625 48.1875 47.75 41.5 
Q 54.890625 34.8125 54.890625 23.390625 
Q 54.890625 11.625 47.5625 5.09375 
Q 40.234375 -1.421875 26.90625 -1.421875 
Q 22.3125 -1.421875 17.546875 -0.640625 
Q 12.796875 0.140625 7.71875 1.703125 
L 7.71875 11.625 
Q 12.109375 9.234375 16.796875 8.0625 
Q 21.484375 6.890625 26.703125 6.890625 
Q 35.15625 6.890625 40.078125 11.328125 
Q 45.015625 15.765625 45.015625 23.390625 
Q 45.015625 31 40.078125 35.4375 
Q 35.15625 39.890625 26.703125 39.890625 
Q 22.75 39.890625 18.8125 39.015625 
Q 14.890625 38.140625 10.796875 36.28125 
z
" id="BitstreamVeraSans-Roman-35"/>
    </defs>
    <g transform="translate(324.422 345.888)scale(0.2 -0.2)">
     <use xlink:href="#BitstreamVeraSans-Roman-7b"/>
     <use x="63.623046875" xlink:href="#BitstreamVeraSans-Roman-66"/>
     <use x="98.828125" xlink:href="#BitstreamVeraSans-Roman-36"/>
     <use x="162.451171875" xlink:href="#BitstreamVeraSans-Roman-2d"/>
     <use x="198.53515625" xlink:href="#BitstreamVeraSans-Roman-66"/>
     <use x="233.740234375" xlink:href="#BitstreamVeraSans-Roman-39"/>
     <use x="297.36328125" xlink:href="#BitstreamVeraSans-Roman-7d"/>
     <use x="360.986328125" xlink:href="#BitstreamVeraSans-Roman-2c"/>
     <use x="392.7734375" xlink:href="#BitstreamVeraSans-Roman-20"/>
     <use x="424.560546875" xlink:href="#BitstreamVeraSans-Roman-35"/>
     <use x="488.18359375" xlink:href="#BitstreamVeraSans-Roman-2d"/>
     <use x="524.267578125" xlink:href="#BitstreamVeraSans-Roman-44"/>
    </g>
   </g>
   <g id="text_11">
    <!-- 0.0.0 -->
    <defs>
     <path d="M 10.6875 12.40625 
L 21 12.40625 
L 21 0 
L 10.6875 0 
z
" id="BitstreamVeraSans-Roman-2e"/>
    </defs>
    <g style="fill:#808080;" transform="translate(217.678125 347.2643125)scale(0.1 -0.1)">
     <use xlink:href="#BitstreamVeraSans-Roman-30"/>
     <use x="63.623046875" xlink:href="#BitstreamVeraSans-Roman-2e"/>
     <use x="95.41015625" xlink:href="#BitstreamVeraSans-Roman-30"/>
     <use x="159.033203125" xlink:href="#BitstreamVeraSans-Roman-2e"/>
     <use x="190.8203125" xlink:href="#BitstreamVeraSans-Roman-30"/>
    </g>
   </g>
  </g>
 </g>
 <defs>
  <clipPath id="pbebec1f834">
   <rect height="345.6" width="446.4" x="7.2" y="7.2"/>
  </clipPath>
 </defs>
</svg>
