<?xml version="1.0" encoding="utf-8" standalone="no"?>
<!DOCTYPE svg PUBLIC "-//W3C//DTD SVG 1.1//EN"
  "http://www.w3.org/Graphics/SVG/1.1/DTD/svg11.dtd">
<!-- Created with matplotlib (http://matplotlib.org/) -->
<svg height="407pt" version="1.1" viewBox="0 0 460 407" width="460pt" xmlns="http://www.w3.org/2000/svg" xmlns:xlink="http://www.w3.org/1999/xlink">
 <defs>
  <style type="text/css">
*{stroke-linecap:butt;stroke-linejoin:round;stroke-miterlimit:100000;}
  </style>
 </defs>
 <g id="figure_1">
  <g id="patch_1">
   <path d="M 0 407.7125 
L 460.8 407.7125 
L 460.8 0 
L 0 0 
z
" style="fill:#ffffff;"/>
  </g>
  <g id="axes_1">
   <g id="patch_2">
    <path d="M 7.2 352.8 
L 453.6 352.8 
L 453.6 7.2 
L 7.2 7.2 
z
" style="fill:#ffffff;"/>
   </g>
   <g id="line2d_1">
    <path clip-path="url(#p879ccd0e1c)" d="M 142.204759 352.8 
L 142.204759 348.237624 
L 142.204759 348.237624 
L 142.204759 348.237624 
L 142.300984 348.237624 
L 142.300984 343.675248 
L 144.085737 343.675248 
L 144.085737 339.112871 
L 145.259053 339.112871 
L 145.259053 334.550495 
L 146.863303 334.550495 
L 146.863303 329.988119 
L 147.632808 329.988119 
L 147.632808 325.425743 
L 148.764944 325.425743 
L 148.764944 320.863366 
L 153.157092 320.863366 
L 153.157092 316.30099 
L 161.596905 316.30099 
L 161.596905 311.738614 
L 162.680344 311.738614 
L 162.680344 307.176238 
L 163.185339 307.176238 
L 163.233228 298.051485 
L 165.417805 298.051485 
L 165.417805 293.489109 
L 169.050817 293.489109 
L 169.050817 288.926733 
L 174.106714 288.926733 
L 174.106714 284.364356 
L 176.663938 284.364356 
L 176.663938 279.80198 
L 176.776677 279.80198 
L 176.776677 275.239604 
L 178.892436 275.239604 
L 178.892436 270.677228 
L 179.086419 270.677228 
L 179.086419 266.114851 
L 180.217347 266.114851 
L 180.217347 261.552475 
L 181.416634 261.552475 
L 181.42243 252.427723 
L 182.035602 252.427723 
L 182.035602 247.865347 
L 182.804916 247.865347 
L 182.829307 238.740594 
L 183.271053 238.740594 
L 183.271053 234.178218 
L 189.156655 234.178218 
L 189.156655 229.615842 
L 189.663368 229.615842 
L 189.663368 225.053465 
L 191.713869 225.053465 
L 191.713869 220.491089 
L 196.405392 220.491089 
L 196.405392 215.928713 
L 209.591097 215.928713 
L 209.63951 206.80396 
L 209.801198 206.80396 
L 209.801198 202.241584 
L 210.531592 202.241584 
L 210.531592 197.679208 
L 210.740646 197.679208 
L 210.7713 183.992079 
L 210.906944 183.992079 
L 210.906944 179.429703 
L 211.292766 179.429703 
L 211.292766 174.867327 
L 211.448749 174.867327 
L 211.448749 170.30495 
L 211.601777 170.30495 
L 211.635899 156.617822 
L 212.347171 156.617822 
L 212.347171 152.055446 
L 212.565254 152.055446 
L 212.565254 147.493069 
L 225.575618 147.493069 
L 225.575618 142.930693 
L 226.516215 142.930693 
L 226.516215 138.368317 
L 226.784397 138.368317 
L 226.843246 129.243564 
L 227.505629 129.243564 
L 227.505629 124.681188 
L 227.629723 124.681188 
L 227.629723 120.118812 
L 227.888386 120.118812 
L 227.888386 115.556436 
L 228.486378 115.556436 
L 228.592087 97.306931 
L 229.082922 97.306931 
L 229.082922 92.744554 
L 229.224997 92.744554 
L 229.282307 83.619802 
L 229.387991 83.619802 
L 229.387991 79.057426 
L 241.688922 79.057426 
L 241.688922 74.49505 
L 241.801537 74.49505 
L 241.846578 65.370297 
L 242.601268 65.370297 
L 242.652149 56.245545 
L 242.77639 56.245545 
L 242.86689 37.99604 
L 243.082346 37.99604 
L 243.082346 33.433663 
L 243.598379 33.433663 
L 243.598379 28.871287 
L 243.92494 28.871287 
L 243.92494 24.308911 
L 244.117288 24.308911 
L 244.117288 19.746535 
L 244.370179 19.746535 
L 244.370179 15.184158 
L 244.518427 15.184158 
L 244.518427 10.621782 
L 244.518427 10.621782 
L 453.6 10.621782 
L 453.6 10.621782 
" style="fill:none;stroke:#ff0000;stroke-linecap:square;stroke-width:3.0;"/>
   </g>
   <g id="line2d_2">
    <path clip-path="url(#p879ccd0e1c)" d="M 223.879896 352.8 
L 223.879896 348.237624 
L 230.523154 348.237624 
L 230.523154 343.675248 
L 232.24709 343.675248 
L 232.24709 339.112871 
L 232.638995 339.112871 
L 232.638995 334.550495 
L 233.446355 334.550495 
L 233.446355 329.988119 
L 233.758014 329.988119 
L 233.758014 325.425743 
L 233.878671 325.425743 
L 233.878671 320.863366 
L 234.337598 320.863366 
L 234.337598 316.30099 
L 234.464329 316.30099 
L 234.464329 311.738614 
L 234.710642 311.738614 
L 234.710642 307.176238 
L 234.988851 307.176238 
L 234.988851 302.613861 
L 235.150909 302.613861 
L 235.150909 298.051485 
L 235.330269 298.051485 
L 235.330269 293.489109 
L 235.483225 293.489109 
L 235.483225 288.926733 
L 236.388725 288.926733 
L 236.419648 279.80198 
L 236.519708 279.80198 
L 236.519708 275.239604 
L 236.913391 275.239604 
L 237.006039 261.552475 
L 237.067457 261.552475 
L 237.067457 256.990099 
L 237.374347 256.990099 
L 237.374347 252.427723 
L 237.619869 252.427723 
L 237.680979 243.30297 
L 238.017007 243.30297 
L 238.017007 238.740594 
L 238.16424 238.740594 
L 238.16424 234.178218 
L 238.415758 234.178218 
L 238.415758 229.615842 
L 238.597906 229.615842 
L 238.677687 220.491089 
L 238.77597 220.491089 
L 238.77597 215.928713 
L 239.085313 215.928713 
L 239.085313 211.366337 
L 239.700164 211.366337 
L 239.700164 206.80396 
L 239.97313 206.80396 
L 239.97313 202.241584 
L 240.630783 202.241584 
L 240.630783 197.679208 
L 241.087078 197.679208 
L 241.087078 193.116832 
L 241.324095 193.116832 
L 241.324095 188.554455 
L 241.479291 188.554455 
L 241.479291 183.992079 
L 241.841954 183.992079 
L 241.841954 179.429703 
L 241.994789 179.429703 
L 241.994789 174.867327 
L 242.592566 174.867327 
L 242.592566 170.30495 
L 242.967915 170.30495 
L 243.049126 161.180198 
L 244.497816 161.180198 
L 244.497816 156.617822 
L 244.698116 156.617822 
L 244.783344 147.493069 
L 245.149884 147.493069 
L 245.149884 142.930693 
L 245.666164 142.930693 
L 245.666164 138.368317 
L 246.5041 138.368317 
L 246.5041 133.805941 
L 247.996745 133.805941 
L 248.095103 124.681188 
L 248.30404 124.681188 
L 248.30404 120.118812 
L 248.6352 120.118812 
L 248.6352 115.556436 
L 249.184785 115.556436 
L 249.184785 110.994059 
L 249.508372 110.994059 
L 249.508372 106.431683 
L 251.847843 106.431683 
L 251.847843 101.869307 
L 252.251615 101.869307 
L 252.251615 97.306931 
L 252.90867 97.306931 
L 252.90867 92.744554 
L 253.442963 92.744554 
L 253.442963 88.182178 
L 254.455478 88.182178 
L 254.455478 83.619802 
L 255.820076 83.619802 
L 255.820076 79.057426 
L 264.452266 79.057426 
L 264.452266 74.49505 
L 265.689321 74.49505 
L 265.689321 69.932673 
L 269.382879 69.932673 
L 269.382879 65.370297 
L 269.66913 65.370297 
L 269.66913 60.807921 
L 270.006449 60.807921 
L 270.006449 56.245545 
L 270.301047 56.245545 
L 270.392864 42.558416 
L 271.832163 42.558416 
L 271.832163 37.99604 
L 272.277622 37.99604 
L 272.277622 33.433663 
L 273.092466 33.433663 
L 273.092466 28.871287 
L 273.571461 28.871287 
L 273.614776 19.746535 
L 274.2575 19.746535 
L 274.2575 15.184158 
L 279.299846 15.184158 
L 279.299846 10.621782 
L 279.299846 10.621782 
L 453.6 10.621782 
L 453.6 10.621782 
" style="fill:none;stroke:#00bfbf;stroke-linecap:square;"/>
   </g>
   <g id="line2d_3">
    <path clip-path="url(#p879ccd0e1c)" d="M 223.879896 352.8 
L 223.879896 348.237624 
L 227.926753 348.237624 
L 227.926753 343.675248 
L 230.523154 343.675248 
L 230.523154 339.112871 
L 230.992715 339.112871 
L 231.10143 329.988119 
L 231.266484 329.988119 
L 231.266484 325.425743 
L 231.73911 325.425743 
L 231.73911 320.863366 
L 232.24709 320.863366 
L 232.24709 316.30099 
L 232.638995 316.30099 
L 232.638995 311.738614 
L 232.84984 311.738614 
L 232.84984 307.176238 
L 233.446355 307.176238 
L 233.446355 302.613861 
L 233.589199 302.613861 
L 233.589199 298.051485 
L 233.726111 298.051485 
L 233.758014 288.926733 
L 233.878671 288.926733 
L 233.878671 284.364356 
L 234.099621 284.364356 
L 234.099621 279.80198 
L 234.337598 279.80198 
L 234.337598 275.239604 
L 234.710642 275.239604 
L 234.710642 270.677228 
L 234.973362 270.677228 
L 234.988851 261.552475 
L 235.150909 261.552475 
L 235.150909 256.990099 
L 235.330269 256.990099 
L 235.330269 252.427723 
L 235.447477 252.427723 
L 235.549172 229.615842 
L 235.584332 229.615842 
L 235.584332 225.053465 
L 236.318302 225.053465 
L 236.419648 206.80396 
L 236.519708 206.80396 
L 236.519708 202.241584 
L 236.951817 202.241584 
L 236.951817 197.679208 
L 237.067457 197.679208 
L 237.067457 193.116832 
L 238.48831 193.116832 
L 238.597906 183.992079 
L 238.604569 183.992079 
L 238.604569 179.429703 
L 238.77597 179.429703 
L 238.77597 174.867327 
L 239.085313 174.867327 
L 239.085313 170.30495 
L 240.649846 170.30495 
L 240.649846 165.742574 
L 241.324095 165.742574 
L 241.324095 161.180198 
L 241.841954 161.180198 
L 241.841954 156.617822 
L 241.994789 156.617822 
L 241.994789 152.055446 
L 242.592566 152.055446 
L 242.592566 147.493069 
L 242.967915 147.493069 
L 242.967915 142.930693 
L 243.879848 142.930693 
L 243.879848 138.368317 
L 244.626911 138.368317 
L 244.626911 133.805941 
L 244.783344 133.805941 
L 244.783344 129.243564 
L 244.945078 129.243564 
L 244.945078 124.681188 
L 245.061653 124.681188 
L 245.149884 115.556436 
L 246.5041 115.556436 
L 246.509786 106.431683 
L 246.83063 106.431683 
L 246.83063 101.869307 
L 248.248931 101.869307 
L 248.248931 97.306931 
L 248.6352 97.306931 
L 248.6352 92.744554 
L 249.508372 92.744554 
L 249.508372 88.182178 
L 251.393087 88.182178 
L 251.393087 83.619802 
L 251.847843 83.619802 
L 251.847843 79.057426 
L 262.926725 79.057426 
L 262.926725 74.49505 
L 264.452266 74.49505 
L 264.452266 69.932673 
L 267.025383 69.932673 
L 267.025383 65.370297 
L 267.17667 65.370297 
L 267.17667 60.807921 
L 268.088079 60.807921 
L 268.088079 56.245545 
L 268.625669 56.245545 
L 268.625669 51.683168 
L 269.382879 51.683168 
L 269.382879 47.120792 
L 269.66913 47.120792 
L 269.66913 42.558416 
L 270.036632 42.558416 
L 270.036632 37.99604 
L 270.382016 37.99604 
L 270.392864 28.871287 
L 271.832163 28.871287 
L 271.832163 24.308911 
L 272.277622 24.308911 
L 272.277622 19.746535 
L 272.619569 19.746535 
L 272.619569 15.184158 
L 273.571461 15.184158 
L 273.571461 10.621782 
L 273.571461 10.621782 
L 453.6 10.621782 
L 453.6 10.621782 
" style="fill:none;stroke:#bf00bf;stroke-linecap:square;"/>
   </g>
   <g id="line2d_4">
    <path clip-path="url(#p879ccd0e1c)" d="M 222.7215 352.8 
L 222.7215 348.237624 
L 225.581707 348.237624 
L 225.581707 343.675248 
L 225.715842 343.675248 
L 225.715842 339.112871 
L 227.926753 339.112871 
L 227.926753 334.550495 
L 228.554086 334.550495 
L 228.579389 325.425743 
L 229.449015 325.425743 
L 229.449015 320.863366 
L 230.523154 320.863366 
L 230.568622 311.738614 
L 231.10143 311.738614 
L 231.10143 307.176238 
L 231.266484 307.176238 
L 231.311427 298.051485 
L 232.24709 298.051485 
L 232.24709 293.489109 
L 232.527464 293.489109 
L 232.527464 288.926733 
L 232.638995 288.926733 
L 232.638995 284.364356 
L 233.589199 284.364356 
L 233.589237 275.239604 
L 233.726111 275.239604 
L 233.81671 261.552475 
L 233.878671 261.552475 
L 233.878671 256.990099 
L 234.099621 256.990099 
L 234.099621 252.427723 
L 234.226463 252.427723 
L 234.226463 247.865347 
L 234.337598 247.865347 
L 234.402561 229.615842 
L 234.499472 229.615842 
L 234.587352 220.491089 
L 234.710642 220.491089 
L 234.710642 215.928713 
L 235.150909 215.928713 
L 235.150909 211.366337 
L 235.330269 211.366337 
L 235.330269 206.80396 
L 235.459933 206.80396 
L 235.549172 193.116832 
L 235.65843 193.116832 
L 235.65843 188.554455 
L 236.086763 188.554455 
L 236.086763 183.992079 
L 236.318302 183.992079 
L 236.419648 170.30495 
L 236.519708 170.30495 
L 236.519708 165.742574 
L 237.654814 165.742574 
L 237.75664 156.617822 
L 239.955801 156.617822 
L 239.955801 152.055446 
L 240.29043 152.055446 
L 240.29043 147.493069 
L 240.439389 147.493069 
L 240.439389 142.930693 
L 240.591101 142.930693 
L 240.591101 138.368317 
L 241.839124 138.368317 
L 241.839124 133.805941 
L 242.967915 133.805941 
L 242.967915 129.243564 
L 243.646143 129.243564 
L 243.646143 124.681188 
L 243.819277 124.681188 
L 243.863227 115.556436 
L 244.16071 115.556436 
L 244.16071 110.994059 
L 244.527293 110.994059 
L 244.627936 101.869307 
L 245.149884 101.869307 
L 245.149884 97.306931 
L 245.876924 97.306931 
L 245.876924 92.744554 
L 247.004038 92.744554 
L 247.004038 88.182178 
L 248.248931 88.182178 
L 248.248931 83.619802 
L 249.508372 83.619802 
L 249.508372 79.057426 
L 262.291329 79.057426 
L 262.291329 74.49505 
L 262.926725 74.49505 
L 262.926725 69.932673 
L 264.077674 69.932673 
L 264.077674 65.370297 
L 266.450045 65.370297 
L 266.450045 60.807921 
L 266.885453 60.807921 
L 266.885453 56.245545 
L 267.081232 56.245545 
L 267.17667 47.120792 
L 267.337953 47.120792 
L 267.337953 42.558416 
L 267.481485 42.558416 
L 267.481485 37.99604 
L 267.887638 37.99604 
L 267.887638 33.433663 
L 268.088079 33.433663 
L 268.088079 28.871287 
L 268.471256 28.871287 
L 268.471256 24.308911 
L 268.671661 24.308911 
L 268.671661 19.746535 
L 270.207752 19.746535 
L 270.207752 15.184158 
L 272.619569 15.184158 
L 272.619569 10.621782 
L 272.619569 10.621782 
L 453.6 10.621782 
L 453.6 10.621782 
" style="fill:none;stroke:#000000;stroke-linecap:square;"/>
   </g>
   <g id="line2d_5">
    <path clip-path="url(#p879ccd0e1c)" d="M 222.397046 352.8 
L 222.397046 348.237624 
L 222.397046 348.237624 
L 222.397046 348.237624 
L 222.474949 348.237624 
L 222.474949 343.675248 
L 224.058252 343.675248 
L 224.058252 339.112871 
L 225.441315 339.112871 
L 225.441315 334.550495 
L 225.581707 334.550495 
L 225.581707 329.988119 
L 225.715842 329.988119 
L 225.715842 325.425743 
L 226.516215 325.425743 
L 226.516215 320.863366 
L 227.091807 320.863366 
L 227.166139 311.738614 
L 227.716316 311.738614 
L 227.826149 302.613861 
L 227.926753 302.613861 
L 227.980203 293.489109 
L 228.245483 293.489109 
L 228.245483 288.926733 
L 228.435841 288.926733 
L 228.435841 284.364356 
L 228.579389 284.364356 
L 228.579389 279.80198 
L 228.798511 279.80198 
L 228.798511 275.239604 
L 229.005906 275.239604 
L 229.005906 270.677228 
L 229.449015 270.677228 
L 229.532906 261.552475 
L 229.620643 261.552475 
L 229.620643 256.990099 
L 229.780789 256.990099 
L 229.780789 252.427723 
L 229.975187 252.427723 
L 230.069086 243.30297 
L 230.531741 243.30297 
L 230.591737 229.615842 
L 231.064121 229.615842 
L 231.10973 215.928713 
L 231.413943 215.928713 
L 231.440537 206.80396 
L 231.583617 206.80396 
L 231.63679 197.679208 
L 231.788249 197.679208 
L 231.788249 193.116832 
L 231.958894 193.116832 
L 231.958894 188.554455 
L 232.256596 188.554455 
L 232.256596 183.992079 
L 232.638995 183.992079 
L 232.639177 174.867327 
L 232.919189 174.867327 
L 232.919189 170.30495 
L 233.54482 170.30495 
L 233.589237 161.180198 
L 233.878671 161.180198 
L 233.9025 152.055446 
L 234.180889 152.055446 
L 234.180889 147.493069 
L 235.286728 147.493069 
L 235.286728 142.930693 
L 235.808685 142.930693 
L 235.808685 138.368317 
L 236.832955 138.368317 
L 236.832955 133.805941 
L 237.204693 133.805941 
L 237.282643 124.681188 
L 237.76163 124.681188 
L 237.76163 120.118812 
L 238.409509 120.118812 
L 238.443467 110.994059 
L 239.053505 110.994059 
L 239.053505 106.431683 
L 239.577048 106.431683 
L 239.577048 101.869307 
L 239.706111 101.869307 
L 239.706111 97.306931 
L 239.843912 97.306931 
L 239.843912 92.744554 
L 240.439389 92.744554 
L 240.439389 88.182178 
L 242.044263 88.182178 
L 242.044263 83.619802 
L 244.079004 83.619802 
L 244.079004 79.057426 
L 257.735571 79.057426 
L 257.735571 74.49505 
L 258.055332 74.49505 
L 258.055332 69.932673 
L 262.822138 69.932673 
L 262.822138 65.370297 
L 263.460129 65.370297 
L 263.465801 56.245545 
L 264.500173 56.245545 
L 264.500173 51.683168 
L 264.651734 51.683168 
L 264.651734 47.120792 
L 265.193851 47.120792 
L 265.193851 42.558416 
L 265.69501 42.558416 
L 265.69501 37.99604 
L 266.202308 37.99604 
L 266.202308 33.433663 
L 266.450045 33.433663 
L 266.450045 28.871287 
L 266.573877 28.871287 
L 266.573877 24.308911 
L 266.89857 24.308911 
L 266.89857 19.746535 
L 267.17667 19.746535 
L 267.17667 15.184158 
L 267.43606 15.184158 
L 267.43606 10.621782 
L 267.43606 10.621782 
L 453.6 10.621782 
L 453.6 10.621782 
" style="fill:none;stroke:#00bfbf;stroke-linecap:square;"/>
   </g>
   <g id="line2d_6">
    <path clip-path="url(#p879ccd0e1c)" d="M 205.585217 352.8 
L 205.585217 348.237624 
L 206.70679 348.237624 
L 206.70679 343.675248 
L 207.002654 343.675248 
L 207.002654 339.112871 
L 207.722653 339.112871 
L 207.722653 334.550495 
L 208.016947 334.550495 
L 208.016947 329.988119 
L 209.745941 329.988119 
L 209.745941 325.425743 
L 210.065223 325.425743 
L 210.065223 320.863366 
L 210.314405 320.863366 
L 210.314405 316.30099 
L 211.55386 316.30099 
L 211.591549 307.176238 
L 211.796208 307.176238 
L 211.813706 298.051485 
L 212.008875 298.051485 
L 212.008875 293.489109 
L 212.160735 293.489109 
L 212.160735 288.926733 
L 212.754319 288.926733 
L 212.754319 284.364356 
L 213.122979 284.364356 
L 213.198527 270.677228 
L 213.466484 270.677228 
L 213.474569 261.552475 
L 213.668601 261.552475 
L 213.713496 252.427723 
L 213.785406 252.427723 
L 213.785406 247.865347 
L 213.979481 247.865347 
L 213.995944 238.740594 
L 214.229081 238.740594 
L 214.229081 234.178218 
L 214.732075 234.178218 
L 214.733225 225.053465 
L 215.168699 225.053465 
L 215.168699 220.491089 
L 215.759886 220.491089 
L 215.759886 215.928713 
L 216.662496 215.928713 
L 216.662496 211.366337 
L 218.528924 211.366337 
L 218.528924 206.80396 
L 219.430588 206.80396 
L 219.430588 202.241584 
L 219.957329 202.241584 
L 219.957329 197.679208 
L 220.362491 197.679208 
L 220.362491 193.116832 
L 220.493422 193.116832 
L 220.493422 188.554455 
L 221.331256 188.554455 
L 221.364867 179.429703 
L 221.934884 179.429703 
L 221.934884 174.867327 
L 222.107463 174.867327 
L 222.149345 165.742574 
L 223.414769 165.742574 
L 223.414769 161.180198 
L 224.214904 161.180198 
L 224.214904 156.617822 
L 224.50408 156.617822 
L 224.50408 152.055446 
L 224.887058 152.055446 
L 224.887058 147.493069 
L 226.516215 147.493069 
L 226.516215 142.930693 
L 229.170169 142.930693 
L 229.170169 138.368317 
L 229.502291 138.368317 
L 229.532906 129.243564 
L 230.069086 129.243564 
L 230.119422 120.118812 
L 230.258123 120.118812 
L 230.363072 110.994059 
L 230.582824 110.994059 
L 230.591737 101.869307 
L 230.883226 101.869307 
L 230.883226 97.306931 
L 231.0342 97.306931 
L 231.0342 92.744554 
L 231.290118 92.744554 
L 231.290118 88.182178 
L 231.413943 88.182178 
L 231.413943 83.619802 
L 231.656187 83.619802 
L 231.656187 79.057426 
L 246.046405 79.057426 
L 246.046405 74.49505 
L 247.037061 74.49505 
L 247.053994 65.370297 
L 247.453176 65.370297 
L 247.492756 56.245545 
L 247.645164 56.245545 
L 247.645164 51.683168 
L 248.209994 51.683168 
L 248.311791 37.99604 
L 248.445534 37.99604 
L 248.556008 28.871287 
L 248.66781 28.871287 
L 248.66781 24.308911 
L 248.782939 24.308911 
L 248.782939 19.746535 
L 249.197067 19.746535 
L 249.197067 15.184158 
L 250.997834 15.184158 
L 250.997834 10.621782 
L 250.997834 10.621782 
L 453.6 10.621782 
L 453.6 10.621782 
" style="fill:none;stroke:#bf00bf;stroke-linecap:square;"/>
   </g>
   <g id="patch_3">
    <path d="M 7.2 7.2 
L 453.6 7.2 
" style="fill:none;stroke:#000000;stroke-linecap:square;stroke-linejoin:miter;"/>
   </g>
   <g id="patch_4">
    <path d="M 453.6 352.8 
L 453.6 7.2 
" style="fill:none;stroke:#000000;stroke-linecap:square;stroke-linejoin:miter;"/>
   </g>
   <g id="patch_5">
    <path d="M 7.2 352.8 
L 453.6 352.8 
" style="fill:none;stroke:#000000;stroke-linecap:square;stroke-linejoin:miter;"/>
   </g>
   <g id="patch_6">
    <path d="M 7.2 352.8 
L 7.2 7.2 
" style="fill:none;stroke:#000000;stroke-linecap:square;stroke-linejoin:miter;"/>
   </g>
   <g id="matplotlib.axis_1">
    <g id="xtick_1"/>
    <g id="xtick_2">
     <g id="line2d_7">
      <path clip-path="url(#p879ccd0e1c)" d="M 54.098611 352.8 
L 54.098611 7.2 
" style="fill:none;stroke:#000000;stroke-dasharray:1.000000,3.000000;stroke-dashoffset:0.0;stroke-width:0.5;"/>
     </g>
     <g id="line2d_8">
      <defs>
       <path d="M 0 0 
L 0 -4 
" id="mcd7fc816fa" style="stroke:#000000;stroke-width:0.5;"/>
      </defs>
      <g>
       <use style="stroke:#000000;stroke-width:0.5;" x="54.0986107985" xlink:href="#mcd7fc816fa" y="352.8"/>
      </g>
     </g>
     <g id="line2d_9">
      <defs>
       <path d="M 0 0 
L 0 4 
" id="mde333a864a" style="stroke:#000000;stroke-width:0.5;"/>
      </defs>
      <g>
       <use style="stroke:#000000;stroke-width:0.5;" x="54.0986107985" xlink:href="#mde333a864a" y="7.2"/>
      </g>
     </g>
     <g id="text_1">
      <!-- -6 -->
      <defs>
       <path d="M 33.015625 40.375 
Q 26.375 40.375 22.484375 35.828125 
Q 18.609375 31.296875 18.609375 23.390625 
Q 18.609375 15.53125 22.484375 10.953125 
Q 26.375 6.390625 33.015625 6.390625 
Q 39.65625 6.390625 43.53125 10.953125 
Q 47.40625 15.53125 47.40625 23.390625 
Q 47.40625 31.296875 43.53125 35.828125 
Q 39.65625 40.375 33.015625 40.375 
M 52.59375 71.296875 
L 52.59375 62.3125 
Q 48.875 64.0625 45.09375 64.984375 
Q 41.3125 65.921875 37.59375 65.921875 
Q 27.828125 65.921875 22.671875 59.328125 
Q 17.53125 52.734375 16.796875 39.40625 
Q 19.671875 43.65625 24.015625 45.921875 
Q 28.375 48.1875 33.59375 48.1875 
Q 44.578125 48.1875 50.953125 41.515625 
Q 57.328125 34.859375 57.328125 23.390625 
Q 57.328125 12.15625 50.6875 5.359375 
Q 44.046875 -1.421875 33.015625 -1.421875 
Q 20.359375 -1.421875 13.671875 8.265625 
Q 6.984375 17.96875 6.984375 36.375 
Q 6.984375 53.65625 15.1875 63.9375 
Q 23.390625 74.21875 37.203125 74.21875 
Q 40.921875 74.21875 44.703125 73.484375 
Q 48.484375 72.75 52.59375 71.296875 
" id="BitstreamVeraSans-Roman-36"/>
       <path d="M 4.890625 31.390625 
L 31.203125 31.390625 
L 31.203125 23.390625 
L 4.890625 23.390625 
z
" id="BitstreamVeraSans-Roman-2d"/>
      </defs>
      <g transform="translate(44.1282982985 371.996875)scale(0.2 -0.2)">
       <use xlink:href="#BitstreamVeraSans-Roman-2d"/>
       <use x="36.083984375" xlink:href="#BitstreamVeraSans-Roman-36"/>
      </g>
     </g>
    </g>
    <g id="xtick_3">
     <g id="line2d_10">
      <path clip-path="url(#p879ccd0e1c)" d="M 101.098774 352.8 
L 101.098774 7.2 
" style="fill:none;stroke:#000000;stroke-dasharray:1.000000,3.000000;stroke-dashoffset:0.0;stroke-width:0.5;"/>
     </g>
     <g id="line2d_11">
      <g>
       <use style="stroke:#000000;stroke-width:0.5;" x="101.098774234" xlink:href="#mcd7fc816fa" y="352.8"/>
      </g>
     </g>
     <g id="line2d_12">
      <g>
       <use style="stroke:#000000;stroke-width:0.5;" x="101.098774234" xlink:href="#mde333a864a" y="7.2"/>
      </g>
     </g>
     <g id="text_2">
      <!-- -4 -->
      <defs>
       <path d="M 37.796875 64.3125 
L 12.890625 25.390625 
L 37.796875 25.390625 
z
M 35.203125 72.90625 
L 47.609375 72.90625 
L 47.609375 25.390625 
L 58.015625 25.390625 
L 58.015625 17.1875 
L 47.609375 17.1875 
L 47.609375 0 
L 37.796875 0 
L 37.796875 17.1875 
L 4.890625 17.1875 
L 4.890625 26.703125 
z
" id="BitstreamVeraSans-Roman-34"/>
      </defs>
      <g transform="translate(91.1284617339 371.996875)scale(0.2 -0.2)">
       <use xlink:href="#BitstreamVeraSans-Roman-2d"/>
       <use x="36.083984375" xlink:href="#BitstreamVeraSans-Roman-34"/>
      </g>
     </g>
    </g>
    <g id="xtick_4">
     <g id="line2d_13">
      <path clip-path="url(#p879ccd0e1c)" d="M 148.098938 352.8 
L 148.098938 7.2 
" style="fill:none;stroke:#000000;stroke-dasharray:1.000000,3.000000;stroke-dashoffset:0.0;stroke-width:0.5;"/>
     </g>
     <g id="line2d_14">
      <g>
       <use style="stroke:#000000;stroke-width:0.5;" x="148.098937669" xlink:href="#mcd7fc816fa" y="352.8"/>
      </g>
     </g>
     <g id="line2d_15">
      <g>
       <use style="stroke:#000000;stroke-width:0.5;" x="148.098937669" xlink:href="#mde333a864a" y="7.2"/>
      </g>
     </g>
     <g id="text_3">
      <!-- -2 -->
      <defs>
       <path d="M 19.1875 8.296875 
L 53.609375 8.296875 
L 53.609375 0 
L 7.328125 0 
L 7.328125 8.296875 
Q 12.9375 14.109375 22.625 23.890625 
Q 32.328125 33.6875 34.8125 36.53125 
Q 39.546875 41.84375 41.421875 45.53125 
Q 43.3125 49.21875 43.3125 52.78125 
Q 43.3125 58.59375 39.234375 62.25 
Q 35.15625 65.921875 28.609375 65.921875 
Q 23.96875 65.921875 18.8125 64.3125 
Q 13.671875 62.703125 7.8125 59.421875 
L 7.8125 69.390625 
Q 13.765625 71.78125 18.9375 73 
Q 24.125 74.21875 28.421875 74.21875 
Q 39.75 74.21875 46.484375 68.546875 
Q 53.21875 62.890625 53.21875 53.421875 
Q 53.21875 48.921875 51.53125 44.890625 
Q 49.859375 40.875 45.40625 35.40625 
Q 44.1875 33.984375 37.640625 27.21875 
Q 31.109375 20.453125 19.1875 8.296875 
" id="BitstreamVeraSans-Roman-32"/>
      </defs>
      <g transform="translate(138.128625169 371.996875)scale(0.2 -0.2)">
       <use xlink:href="#BitstreamVeraSans-Roman-2d"/>
       <use x="36.083984375" xlink:href="#BitstreamVeraSans-Roman-32"/>
      </g>
     </g>
    </g>
    <g id="xtick_5">
     <g id="line2d_16">
      <path clip-path="url(#p879ccd0e1c)" d="M 195.099101 352.8 
L 195.099101 7.2 
" style="fill:none;stroke:#000000;stroke-dasharray:1.000000,3.000000;stroke-dashoffset:0.0;stroke-width:0.5;"/>
     </g>
     <g id="line2d_17">
      <g>
       <use style="stroke:#000000;stroke-width:0.5;" x="195.099101105" xlink:href="#mcd7fc816fa" y="352.8"/>
      </g>
     </g>
     <g id="line2d_18">
      <g>
       <use style="stroke:#000000;stroke-width:0.5;" x="195.099101105" xlink:href="#mde333a864a" y="7.2"/>
      </g>
     </g>
     <g id="text_4">
      <!-- 0 -->
      <defs>
       <path d="M 31.78125 66.40625 
Q 24.171875 66.40625 20.328125 58.90625 
Q 16.5 51.421875 16.5 36.375 
Q 16.5 21.390625 20.328125 13.890625 
Q 24.171875 6.390625 31.78125 6.390625 
Q 39.453125 6.390625 43.28125 13.890625 
Q 47.125 21.390625 47.125 36.375 
Q 47.125 51.421875 43.28125 58.90625 
Q 39.453125 66.40625 31.78125 66.40625 
M 31.78125 74.21875 
Q 44.046875 74.21875 50.515625 64.515625 
Q 56.984375 54.828125 56.984375 36.375 
Q 56.984375 17.96875 50.515625 8.265625 
Q 44.046875 -1.421875 31.78125 -1.421875 
Q 19.53125 -1.421875 13.0625 8.265625 
Q 6.59375 17.96875 6.59375 36.375 
Q 6.59375 54.828125 13.0625 64.515625 
Q 19.53125 74.21875 31.78125 74.21875 
" id="BitstreamVeraSans-Roman-30"/>
      </defs>
      <g transform="translate(188.736601105 371.996875)scale(0.2 -0.2)">
       <use xlink:href="#BitstreamVeraSans-Roman-30"/>
      </g>
     </g>
    </g>
    <g id="xtick_6">
     <g id="line2d_19">
      <path clip-path="url(#p879ccd0e1c)" d="M 242.099265 352.8 
L 242.099265 7.2 
" style="fill:none;stroke:#000000;stroke-dasharray:1.000000,3.000000;stroke-dashoffset:0.0;stroke-width:0.5;"/>
     </g>
     <g id="line2d_20">
      <g>
       <use style="stroke:#000000;stroke-width:0.5;" x="242.09926454" xlink:href="#mcd7fc816fa" y="352.8"/>
      </g>
     </g>
     <g id="line2d_21">
      <g>
       <use style="stroke:#000000;stroke-width:0.5;" x="242.09926454" xlink:href="#mde333a864a" y="7.2"/>
      </g>
     </g>
     <g id="text_5">
      <!-- 2 -->
      <g transform="translate(235.73676454 371.996875)scale(0.2 -0.2)">
       <use xlink:href="#BitstreamVeraSans-Roman-32"/>
      </g>
     </g>
    </g>
    <g id="xtick_7">
     <g id="line2d_22">
      <path clip-path="url(#p879ccd0e1c)" d="M 289.099428 352.8 
L 289.099428 7.2 
" style="fill:none;stroke:#000000;stroke-dasharray:1.000000,3.000000;stroke-dashoffset:0.0;stroke-width:0.5;"/>
     </g>
     <g id="line2d_23">
      <g>
       <use style="stroke:#000000;stroke-width:0.5;" x="289.099427976" xlink:href="#mcd7fc816fa" y="352.8"/>
      </g>
     </g>
     <g id="line2d_24">
      <g>
       <use style="stroke:#000000;stroke-width:0.5;" x="289.099427976" xlink:href="#mde333a864a" y="7.2"/>
      </g>
     </g>
     <g id="text_6">
      <!-- 4 -->
      <g transform="translate(282.736927976 371.996875)scale(0.2 -0.2)">
       <use xlink:href="#BitstreamVeraSans-Roman-34"/>
      </g>
     </g>
    </g>
    <g id="xtick_8">
     <g id="line2d_25">
      <path clip-path="url(#p879ccd0e1c)" d="M 336.099591 352.8 
L 336.099591 7.2 
" style="fill:none;stroke:#000000;stroke-dasharray:1.000000,3.000000;stroke-dashoffset:0.0;stroke-width:0.5;"/>
     </g>
     <g id="line2d_26">
      <g>
       <use style="stroke:#000000;stroke-width:0.5;" x="336.099591411" xlink:href="#mcd7fc816fa" y="352.8"/>
      </g>
     </g>
     <g id="line2d_27">
      <g>
       <use style="stroke:#000000;stroke-width:0.5;" x="336.099591411" xlink:href="#mde333a864a" y="7.2"/>
      </g>
     </g>
     <g id="text_7">
      <!-- 6 -->
      <g transform="translate(329.737091411 371.996875)scale(0.2 -0.2)">
       <use xlink:href="#BitstreamVeraSans-Roman-36"/>
      </g>
     </g>
    </g>
    <g id="xtick_9">
     <g id="line2d_28">
      <path clip-path="url(#p879ccd0e1c)" d="M 383.099755 352.8 
L 383.099755 7.2 
" style="fill:none;stroke:#000000;stroke-dasharray:1.000000,3.000000;stroke-dashoffset:0.0;stroke-width:0.5;"/>
     </g>
     <g id="line2d_29">
      <g>
       <use style="stroke:#000000;stroke-width:0.5;" x="383.099754847" xlink:href="#mcd7fc816fa" y="352.8"/>
      </g>
     </g>
     <g id="line2d_30">
      <g>
       <use style="stroke:#000000;stroke-width:0.5;" x="383.099754847" xlink:href="#mde333a864a" y="7.2"/>
      </g>
     </g>
     <g id="text_8">
      <!-- 8 -->
      <defs>
       <path d="M 31.78125 34.625 
Q 24.75 34.625 20.71875 30.859375 
Q 16.703125 27.09375 16.703125 20.515625 
Q 16.703125 13.921875 20.71875 10.15625 
Q 24.75 6.390625 31.78125 6.390625 
Q 38.8125 6.390625 42.859375 10.171875 
Q 46.921875 13.96875 46.921875 20.515625 
Q 46.921875 27.09375 42.890625 30.859375 
Q 38.875 34.625 31.78125 34.625 
M 21.921875 38.8125 
Q 15.578125 40.375 12.03125 44.71875 
Q 8.5 49.078125 8.5 55.328125 
Q 8.5 64.0625 14.71875 69.140625 
Q 20.953125 74.21875 31.78125 74.21875 
Q 42.671875 74.21875 48.875 69.140625 
Q 55.078125 64.0625 55.078125 55.328125 
Q 55.078125 49.078125 51.53125 44.71875 
Q 48 40.375 41.703125 38.8125 
Q 48.828125 37.15625 52.796875 32.3125 
Q 56.78125 27.484375 56.78125 20.515625 
Q 56.78125 9.90625 50.3125 4.234375 
Q 43.84375 -1.421875 31.78125 -1.421875 
Q 19.734375 -1.421875 13.25 4.234375 
Q 6.78125 9.90625 6.78125 20.515625 
Q 6.78125 27.484375 10.78125 32.3125 
Q 14.796875 37.15625 21.921875 38.8125 
M 18.3125 54.390625 
Q 18.3125 48.734375 21.84375 45.5625 
Q 25.390625 42.390625 31.78125 42.390625 
Q 38.140625 42.390625 41.71875 45.5625 
Q 45.3125 48.734375 45.3125 54.390625 
Q 45.3125 60.0625 41.71875 63.234375 
Q 38.140625 66.40625 31.78125 66.40625 
Q 25.390625 66.40625 21.84375 63.234375 
Q 18.3125 60.0625 18.3125 54.390625 
" id="BitstreamVeraSans-Roman-38"/>
      </defs>
      <g transform="translate(376.737254847 371.996875)scale(0.2 -0.2)">
       <use xlink:href="#BitstreamVeraSans-Roman-38"/>
      </g>
     </g>
    </g>
    <g id="xtick_10">
     <g id="line2d_31">
      <path clip-path="url(#p879ccd0e1c)" d="M 430.099918 352.8 
L 430.099918 7.2 
" style="fill:none;stroke:#000000;stroke-dasharray:1.000000,3.000000;stroke-dashoffset:0.0;stroke-width:0.5;"/>
     </g>
     <g id="line2d_32">
      <g>
       <use style="stroke:#000000;stroke-width:0.5;" x="430.099918282" xlink:href="#mcd7fc816fa" y="352.8"/>
      </g>
     </g>
     <g id="line2d_33">
      <g>
       <use style="stroke:#000000;stroke-width:0.5;" x="430.099918282" xlink:href="#mde333a864a" y="7.2"/>
      </g>
     </g>
     <g id="text_9">
      <!-- 10 -->
      <defs>
       <path d="M 12.40625 8.296875 
L 28.515625 8.296875 
L 28.515625 63.921875 
L 10.984375 60.40625 
L 10.984375 69.390625 
L 28.421875 72.90625 
L 38.28125 72.90625 
L 38.28125 8.296875 
L 54.390625 8.296875 
L 54.390625 0 
L 12.40625 0 
z
" id="BitstreamVeraSans-Roman-31"/>
      </defs>
      <g transform="translate(417.374918282 371.996875)scale(0.2 -0.2)">
       <use xlink:href="#BitstreamVeraSans-Roman-31"/>
       <use x="63.623046875" xlink:href="#BitstreamVeraSans-Roman-30"/>
      </g>
     </g>
    </g>
    <g id="xtick_11"/>
    <g id="xtick_12">
     <g id="line2d_34">
      <defs>
       <path d="M 0 0 
L 0 -2 
" id="mcabbb64f58" style="stroke:#000000;stroke-width:0.5;"/>
      </defs>
      <g>
       <use style="stroke:#000000;stroke-width:0.5;" x="54.0986107985" xlink:href="#mcabbb64f58" y="352.8"/>
      </g>
     </g>
     <g id="line2d_35">
      <defs>
       <path d="M 0 0 
L 0 2 
" id="mea49767808" style="stroke:#000000;stroke-width:0.5;"/>
      </defs>
      <g>
       <use style="stroke:#000000;stroke-width:0.5;" x="54.0986107985" xlink:href="#mea49767808" y="7.2"/>
      </g>
     </g>
    </g>
    <g id="xtick_13">
     <g id="line2d_36">
      <g>
       <use style="stroke:#000000;stroke-width:0.5;" x="101.098774234" xlink:href="#mcabbb64f58" y="352.8"/>
      </g>
     </g>
     <g id="line2d_37">
      <g>
       <use style="stroke:#000000;stroke-width:0.5;" x="101.098774234" xlink:href="#mea49767808" y="7.2"/>
      </g>
     </g>
    </g>
    <g id="xtick_14">
     <g id="line2d_38">
      <g>
       <use style="stroke:#000000;stroke-width:0.5;" x="148.098937669" xlink:href="#mcabbb64f58" y="352.8"/>
      </g>
     </g>
     <g id="line2d_39">
      <g>
       <use style="stroke:#000000;stroke-width:0.5;" x="148.098937669" xlink:href="#mea49767808" y="7.2"/>
      </g>
     </g>
    </g>
    <g id="xtick_15">
     <g id="line2d_40">
      <g>
       <use style="stroke:#000000;stroke-width:0.5;" x="195.099101105" xlink:href="#mcabbb64f58" y="352.8"/>
      </g>
     </g>
     <g id="line2d_41">
      <g>
       <use style="stroke:#000000;stroke-width:0.5;" x="195.099101105" xlink:href="#mea49767808" y="7.2"/>
      </g>
     </g>
    </g>
    <g id="xtick_16">
     <g id="line2d_42">
      <g>
       <use style="stroke:#000000;stroke-width:0.5;" x="242.09926454" xlink:href="#mcabbb64f58" y="352.8"/>
      </g>
     </g>
     <g id="line2d_43">
      <g>
       <use style="stroke:#000000;stroke-width:0.5;" x="242.09926454" xlink:href="#mea49767808" y="7.2"/>
      </g>
     </g>
    </g>
    <g id="xtick_17">
     <g id="line2d_44">
      <g>
       <use style="stroke:#000000;stroke-width:0.5;" x="289.099427976" xlink:href="#mcabbb64f58" y="352.8"/>
      </g>
     </g>
     <g id="line2d_45">
      <g>
       <use style="stroke:#000000;stroke-width:0.5;" x="289.099427976" xlink:href="#mea49767808" y="7.2"/>
      </g>
     </g>
    </g>
    <g id="xtick_18">
     <g id="line2d_46">
      <g>
       <use style="stroke:#000000;stroke-width:0.5;" x="336.099591411" xlink:href="#mcabbb64f58" y="352.8"/>
      </g>
     </g>
     <g id="line2d_47">
      <g>
       <use style="stroke:#000000;stroke-width:0.5;" x="336.099591411" xlink:href="#mea49767808" y="7.2"/>
      </g>
     </g>
    </g>
    <g id="xtick_19">
     <g id="line2d_48">
      <g>
       <use style="stroke:#000000;stroke-width:0.5;" x="383.099754847" xlink:href="#mcabbb64f58" y="352.8"/>
      </g>
     </g>
     <g id="line2d_49">
      <g>
       <use style="stroke:#000000;stroke-width:0.5;" x="383.099754847" xlink:href="#mea49767808" y="7.2"/>
      </g>
     </g>
    </g>
    <g id="xtick_20">
     <g id="line2d_50">
      <g>
       <use style="stroke:#000000;stroke-width:0.5;" x="430.099918282" xlink:href="#mcabbb64f58" y="352.8"/>
      </g>
     </g>
     <g id="line2d_51">
      <g>
       <use style="stroke:#000000;stroke-width:0.5;" x="430.099918282" xlink:href="#mea49767808" y="7.2"/>
      </g>
     </g>
    </g>
    <g id="text_10">
     <!-- log10 of Df -->
     <defs>
      <path id="BitstreamVeraSans-Roman-20"/>
      <path d="M 30.609375 48.390625 
Q 23.390625 48.390625 19.1875 42.75 
Q 14.984375 37.109375 14.984375 27.296875 
Q 14.984375 17.484375 19.15625 11.84375 
Q 23.34375 6.203125 30.609375 6.203125 
Q 37.796875 6.203125 41.984375 11.859375 
Q 46.1875 17.53125 46.1875 27.296875 
Q 46.1875 37.015625 41.984375 42.703125 
Q 37.796875 48.390625 30.609375 48.390625 
M 30.609375 56 
Q 42.328125 56 49.015625 48.375 
Q 55.71875 40.765625 55.71875 27.296875 
Q 55.71875 13.875 49.015625 6.21875 
Q 42.328125 -1.421875 30.609375 -1.421875 
Q 18.84375 -1.421875 12.171875 6.21875 
Q 5.515625 13.875 5.515625 27.296875 
Q 5.515625 40.765625 12.171875 48.375 
Q 18.84375 56 30.609375 56 
" id="BitstreamVeraSans-Roman-6f"/>
      <path d="M 9.421875 75.984375 
L 18.40625 75.984375 
L 18.40625 0 
L 9.421875 0 
z
" id="BitstreamVeraSans-Roman-6c"/>
      <path d="M 19.671875 64.796875 
L 19.671875 8.109375 
L 31.59375 8.109375 
Q 46.6875 8.109375 53.6875 14.9375 
Q 60.6875 21.78125 60.6875 36.53125 
Q 60.6875 51.171875 53.6875 57.984375 
Q 46.6875 64.796875 31.59375 64.796875 
z
M 9.8125 72.90625 
L 30.078125 72.90625 
Q 51.265625 72.90625 61.171875 64.09375 
Q 71.09375 55.28125 71.09375 36.53125 
Q 71.09375 17.671875 61.125 8.828125 
Q 51.171875 0 30.078125 0 
L 9.8125 0 
z
" id="BitstreamVeraSans-Roman-44"/>
      <path d="M 45.40625 27.984375 
Q 45.40625 37.75 41.375 43.109375 
Q 37.359375 48.484375 30.078125 48.484375 
Q 22.859375 48.484375 18.828125 43.109375 
Q 14.796875 37.75 14.796875 27.984375 
Q 14.796875 18.265625 18.828125 12.890625 
Q 22.859375 7.515625 30.078125 7.515625 
Q 37.359375 7.515625 41.375 12.890625 
Q 45.40625 18.265625 45.40625 27.984375 
M 54.390625 6.78125 
Q 54.390625 -7.171875 48.1875 -13.984375 
Q 42 -20.796875 29.203125 -20.796875 
Q 24.46875 -20.796875 20.265625 -20.09375 
Q 16.0625 -19.390625 12.109375 -17.921875 
L 12.109375 -9.1875 
Q 16.0625 -11.328125 19.921875 -12.34375 
Q 23.78125 -13.375 27.78125 -13.375 
Q 36.625 -13.375 41.015625 -8.765625 
Q 45.40625 -4.15625 45.40625 5.171875 
L 45.40625 9.625 
Q 42.625 4.78125 38.28125 2.390625 
Q 33.9375 0 27.875 0 
Q 17.828125 0 11.671875 7.65625 
Q 5.515625 15.328125 5.515625 27.984375 
Q 5.515625 40.671875 11.671875 48.328125 
Q 17.828125 56 27.875 56 
Q 33.9375 56 38.28125 53.609375 
Q 42.625 51.21875 45.40625 46.390625 
L 45.40625 54.6875 
L 54.390625 54.6875 
z
" id="BitstreamVeraSans-Roman-67"/>
      <path d="M 37.109375 75.984375 
L 37.109375 68.5 
L 28.515625 68.5 
Q 23.6875 68.5 21.796875 66.546875 
Q 19.921875 64.59375 19.921875 59.515625 
L 19.921875 54.6875 
L 34.71875 54.6875 
L 34.71875 47.703125 
L 19.921875 47.703125 
L 19.921875 0 
L 10.890625 0 
L 10.890625 47.703125 
L 2.296875 47.703125 
L 2.296875 54.6875 
L 10.890625 54.6875 
L 10.890625 58.5 
Q 10.890625 67.625 15.140625 71.796875 
Q 19.390625 75.984375 28.609375 75.984375 
z
" id="BitstreamVeraSans-Roman-66"/>
     </defs>
     <g transform="translate(175.2140625 396.353125)scale(0.2 -0.2)">
      <use xlink:href="#BitstreamVeraSans-Roman-6c"/>
      <use x="27.783203125" xlink:href="#BitstreamVeraSans-Roman-6f"/>
      <use x="88.96484375" xlink:href="#BitstreamVeraSans-Roman-67"/>
      <use x="152.44140625" xlink:href="#BitstreamVeraSans-Roman-31"/>
      <use x="216.064453125" xlink:href="#BitstreamVeraSans-Roman-30"/>
      <use x="279.6875" xlink:href="#BitstreamVeraSans-Roman-20"/>
      <use x="311.474609375" xlink:href="#BitstreamVeraSans-Roman-6f"/>
      <use x="372.65625" xlink:href="#BitstreamVeraSans-Roman-66"/>
      <use x="407.861328125" xlink:href="#BitstreamVeraSans-Roman-20"/>
      <use x="439.6484375" xlink:href="#BitstreamVeraSans-Roman-44"/>
      <use x="516.650390625" xlink:href="#BitstreamVeraSans-Roman-66"/>
     </g>
    </g>
   </g>
   <g id="matplotlib.axis_2">
    <g id="ytick_1">
     <g id="line2d_52">
      <path clip-path="url(#p879ccd0e1c)" d="M 7.2 352.8 
L 453.6 352.8 
" style="fill:none;stroke:#000000;stroke-dasharray:1.000000,3.000000;stroke-dashoffset:0.0;stroke-width:0.5;"/>
     </g>
     <g id="line2d_53">
      <defs>
       <path d="M 0 0 
L 4 0 
" id="m3697c8f7e7" style="stroke:#000000;stroke-width:0.5;"/>
      </defs>
      <g>
       <use style="stroke:#000000;stroke-width:0.5;" x="7.2" xlink:href="#m3697c8f7e7" y="352.8"/>
      </g>
     </g>
     <g id="line2d_54">
      <defs>
       <path d="M 0 0 
L -4 0 
" id="mdf4875538f" style="stroke:#000000;stroke-width:0.5;"/>
      </defs>
      <g>
       <use style="stroke:#000000;stroke-width:0.5;" x="453.6" xlink:href="#mdf4875538f" y="352.8"/>
      </g>
     </g>
    </g>
    <g id="ytick_2">
     <g id="line2d_55">
      <path clip-path="url(#p879ccd0e1c)" d="M 7.2 284.364356 
L 453.6 284.364356 
" style="fill:none;stroke:#000000;stroke-dasharray:1.000000,3.000000;stroke-dashoffset:0.0;stroke-width:0.5;"/>
     </g>
     <g id="line2d_56">
      <g>
       <use style="stroke:#000000;stroke-width:0.5;" x="7.2" xlink:href="#m3697c8f7e7" y="284.364356436"/>
      </g>
     </g>
     <g id="line2d_57">
      <g>
       <use style="stroke:#000000;stroke-width:0.5;" x="453.6" xlink:href="#mdf4875538f" y="284.364356436"/>
      </g>
     </g>
    </g>
    <g id="ytick_3">
     <g id="line2d_58">
      <path clip-path="url(#p879ccd0e1c)" d="M 7.2 215.928713 
L 453.6 215.928713 
" style="fill:none;stroke:#000000;stroke-dasharray:1.000000,3.000000;stroke-dashoffset:0.0;stroke-width:0.5;"/>
     </g>
     <g id="line2d_59">
      <g>
       <use style="stroke:#000000;stroke-width:0.5;" x="7.2" xlink:href="#m3697c8f7e7" y="215.928712871"/>
      </g>
     </g>
     <g id="line2d_60">
      <g>
       <use style="stroke:#000000;stroke-width:0.5;" x="453.6" xlink:href="#mdf4875538f" y="215.928712871"/>
      </g>
     </g>
    </g>
    <g id="ytick_4">
     <g id="line2d_61">
      <path clip-path="url(#p879ccd0e1c)" d="M 7.2 147.493069 
L 453.6 147.493069 
" style="fill:none;stroke:#000000;stroke-dasharray:1.000000,3.000000;stroke-dashoffset:0.0;stroke-width:0.5;"/>
     </g>
     <g id="line2d_62">
      <g>
       <use style="stroke:#000000;stroke-width:0.5;" x="7.2" xlink:href="#m3697c8f7e7" y="147.493069307"/>
      </g>
     </g>
     <g id="line2d_63">
      <g>
       <use style="stroke:#000000;stroke-width:0.5;" x="453.6" xlink:href="#mdf4875538f" y="147.493069307"/>
      </g>
     </g>
    </g>
    <g id="ytick_5">
     <g id="line2d_64">
      <path clip-path="url(#p879ccd0e1c)" d="M 7.2 79.057426 
L 453.6 79.057426 
" style="fill:none;stroke:#000000;stroke-dasharray:1.000000,3.000000;stroke-dashoffset:0.0;stroke-width:0.5;"/>
     </g>
     <g id="line2d_65">
      <g>
       <use style="stroke:#000000;stroke-width:0.5;" x="7.2" xlink:href="#m3697c8f7e7" y="79.0574257426"/>
      </g>
     </g>
     <g id="line2d_66">
      <g>
       <use style="stroke:#000000;stroke-width:0.5;" x="453.6" xlink:href="#mdf4875538f" y="79.0574257426"/>
      </g>
     </g>
    </g>
    <g id="ytick_6">
     <g id="line2d_67">
      <path clip-path="url(#p879ccd0e1c)" d="M 7.2 10.621782 
L 453.6 10.621782 
" style="fill:none;stroke:#000000;stroke-dasharray:1.000000,3.000000;stroke-dashoffset:0.0;stroke-width:0.5;"/>
     </g>
     <g id="line2d_68">
      <g>
       <use style="stroke:#000000;stroke-width:0.5;" x="7.2" xlink:href="#m3697c8f7e7" y="10.6217821782"/>
      </g>
     </g>
     <g id="line2d_69">
      <g>
       <use style="stroke:#000000;stroke-width:0.5;" x="453.6" xlink:href="#mdf4875538f" y="10.6217821782"/>
      </g>
     </g>
    </g>
   </g>
   <g id="text_11">
    <!-- {f15-f19}, 20-D -->
    <defs>
     <path d="M 12.5 -9.28125 
L 15.921875 -9.28125 
Q 22.75 -9.28125 24.828125 -7.171875 
Q 26.90625 -5.078125 26.90625 1.90625 
L 26.90625 14.015625 
Q 26.90625 21.625 29.09375 25.09375 
Q 31.296875 28.5625 36.71875 29.890625 
Q 31.296875 31.109375 29.09375 34.5625 
Q 26.90625 38.03125 26.90625 45.703125 
L 26.90625 57.8125 
Q 26.90625 64.75 24.828125 66.875 
Q 22.75 69 15.921875 69 
L 12.5 69 
L 12.5 75.984375 
L 15.578125 75.984375 
Q 27.734375 75.984375 31.8125 72.390625 
Q 35.890625 68.796875 35.890625 58.015625 
L 35.890625 46.296875 
Q 35.890625 39.015625 38.515625 36.203125 
Q 41.15625 33.40625 48.09375 33.40625 
L 51.125 33.40625 
L 51.125 26.421875 
L 48.09375 26.421875 
Q 41.15625 26.421875 38.515625 23.578125 
Q 35.890625 20.75 35.890625 13.375 
L 35.890625 1.703125 
Q 35.890625 -9.078125 31.8125 -12.6875 
Q 27.734375 -16.3125 15.578125 -16.3125 
L 12.5 -16.3125 
z
" id="BitstreamVeraSans-Roman-7d"/>
     <path d="M 10.984375 1.515625 
L 10.984375 10.5 
Q 14.703125 8.734375 18.5 7.8125 
Q 22.3125 6.890625 25.984375 6.890625 
Q 35.75 6.890625 40.890625 13.453125 
Q 46.046875 20.015625 46.78125 33.40625 
Q 43.953125 29.203125 39.59375 26.953125 
Q 35.25 24.703125 29.984375 24.703125 
Q 19.046875 24.703125 12.671875 31.3125 
Q 6.296875 37.9375 6.296875 49.421875 
Q 6.296875 60.640625 12.9375 67.421875 
Q 19.578125 74.21875 30.609375 74.21875 
Q 43.265625 74.21875 49.921875 64.515625 
Q 56.59375 54.828125 56.59375 36.375 
Q 56.59375 19.140625 48.40625 8.859375 
Q 40.234375 -1.421875 26.421875 -1.421875 
Q 22.703125 -1.421875 18.890625 -0.6875 
Q 15.09375 0.046875 10.984375 1.515625 
M 30.609375 32.421875 
Q 37.25 32.421875 41.125 36.953125 
Q 45.015625 41.5 45.015625 49.421875 
Q 45.015625 57.28125 41.125 61.84375 
Q 37.25 66.40625 30.609375 66.40625 
Q 23.96875 66.40625 20.09375 61.84375 
Q 16.21875 57.28125 16.21875 49.421875 
Q 16.21875 41.5 20.09375 36.953125 
Q 23.96875 32.421875 30.609375 32.421875 
" id="BitstreamVeraSans-Roman-39"/>
     <path d="M 51.125 -9.28125 
L 51.125 -16.3125 
L 48.09375 -16.3125 
Q 35.9375 -16.3125 31.8125 -12.6875 
Q 27.6875 -9.078125 27.6875 1.703125 
L 27.6875 13.375 
Q 27.6875 20.75 25.046875 23.578125 
Q 22.40625 26.421875 15.484375 26.421875 
L 12.5 26.421875 
L 12.5 33.40625 
L 15.484375 33.40625 
Q 22.46875 33.40625 25.078125 36.203125 
Q 27.6875 39.015625 27.6875 46.296875 
L 27.6875 58.015625 
Q 27.6875 68.796875 31.8125 72.390625 
Q 35.9375 75.984375 48.09375 75.984375 
L 51.125 75.984375 
L 51.125 69 
L 47.796875 69 
Q 40.921875 69 38.8125 66.84375 
Q 36.71875 64.703125 36.71875 57.8125 
L 36.71875 45.703125 
Q 36.71875 38.03125 34.5 34.5625 
Q 32.28125 31.109375 26.90625 29.890625 
Q 32.328125 28.5625 34.515625 25.09375 
Q 36.71875 21.625 36.71875 14.015625 
L 36.71875 1.90625 
Q 36.71875 -4.984375 38.8125 -7.125 
Q 40.921875 -9.28125 47.796875 -9.28125 
z
" id="BitstreamVeraSans-Roman-7b"/>
     <path d="M 11.71875 12.40625 
L 22.015625 12.40625 
L 22.015625 4 
L 14.015625 -11.625 
L 7.71875 -11.625 
L 11.71875 4 
z
" id="BitstreamVeraSans-Roman-2c"/>
     <path d="M 10.796875 72.90625 
L 49.515625 72.90625 
L 49.515625 64.59375 
L 19.828125 64.59375 
L 19.828125 46.734375 
Q 21.96875 47.46875 24.109375 47.828125 
Q 26.265625 48.1875 28.421875 48.1875 
Q 40.625 48.1875 47.75 41.5 
Q 54.890625 34.8125 54.890625 23.390625 
Q 54.890625 11.625 47.5625 5.09375 
Q 40.234375 -1.421875 26.90625 -1.421875 
Q 22.3125 -1.421875 17.546875 -0.640625 
Q 12.796875 0.140625 7.71875 1.703125 
L 7.71875 11.625 
Q 12.109375 9.234375 16.796875 8.0625 
Q 21.484375 6.890625 26.703125 6.890625 
Q 35.15625 6.890625 40.078125 11.328125 
Q 45.015625 15.765625 45.015625 23.390625 
Q 45.015625 31 40.078125 35.4375 
Q 35.15625 39.890625 26.703125 39.890625 
Q 22.75 39.890625 18.8125 39.015625 
Q 14.890625 38.140625 10.796875 36.28125 
z
" id="BitstreamVeraSans-Roman-35"/>
    </defs>
    <g transform="translate(286.247 345.888)scale(0.2 -0.2)">
     <use xlink:href="#BitstreamVeraSans-Roman-7b"/>
     <use x="63.623046875" xlink:href="#BitstreamVeraSans-Roman-66"/>
     <use x="98.828125" xlink:href="#BitstreamVeraSans-Roman-31"/>
     <use x="162.451171875" xlink:href="#BitstreamVeraSans-Roman-35"/>
     <use x="226.07421875" xlink:href="#BitstreamVeraSans-Roman-2d"/>
     <use x="262.158203125" xlink:href="#BitstreamVeraSans-Roman-66"/>
     <use x="297.36328125" xlink:href="#BitstreamVeraSans-Roman-31"/>
     <use x="360.986328125" xlink:href="#BitstreamVeraSans-Roman-39"/>
     <use x="424.609375" xlink:href="#BitstreamVeraSans-Roman-7d"/>
     <use x="488.232421875" xlink:href="#BitstreamVeraSans-Roman-2c"/>
     <use x="520.01953125" xlink:href="#BitstreamVeraSans-Roman-20"/>
     <use x="551.806640625" xlink:href="#BitstreamVeraSans-Roman-32"/>
     <use x="615.4296875" xlink:href="#BitstreamVeraSans-Roman-30"/>
     <use x="679.052734375" xlink:href="#BitstreamVeraSans-Roman-2d"/>
     <use x="715.13671875" xlink:href="#BitstreamVeraSans-Roman-44"/>
    </g>
   </g>
   <g id="text_12">
    <!-- 0.0.0 -->
    <defs>
     <path d="M 10.6875 12.40625 
L 21 12.40625 
L 21 0 
L 10.6875 0 
z
" id="BitstreamVeraSans-Roman-2e"/>
    </defs>
    <g style="fill:#808080;" transform="translate(217.678125 347.2643125)scale(0.1 -0.1)">
     <use xlink:href="#BitstreamVeraSans-Roman-30"/>
     <use x="63.623046875" xlink:href="#BitstreamVeraSans-Roman-2e"/>
     <use x="95.41015625" xlink:href="#BitstreamVeraSans-Roman-30"/>
     <use x="159.033203125" xlink:href="#BitstreamVeraSans-Roman-2e"/>
     <use x="190.8203125" xlink:href="#BitstreamVeraSans-Roman-30"/>
    </g>
   </g>
  </g>
 </g>
 <defs>
  <clipPath id="p879ccd0e1c">
   <rect height="345.6" width="446.4" x="7.2" y="7.2"/>
  </clipPath>
 </defs>
</svg>
