<?xml version="1.0" encoding="utf-8" standalone="no"?>
<!DOCTYPE svg PUBLIC "-//W3C//DTD SVG 1.1//EN"
  "http://www.w3.org/Graphics/SVG/1.1/DTD/svg11.dtd">
<!-- Created with matplotlib (http://matplotlib.org/) -->
<svg height="407pt" version="1.1" viewBox="0 0 460 407" width="460pt" xmlns="http://www.w3.org/2000/svg" xmlns:xlink="http://www.w3.org/1999/xlink">
 <defs>
  <style type="text/css">
*{stroke-linecap:butt;stroke-linejoin:round;stroke-miterlimit:100000;}
  </style>
 </defs>
 <g id="figure_1">
  <g id="patch_1">
   <path d="M 0 407.7125 
L 460.8 407.7125 
L 460.8 0 
L 0 0 
z
" style="fill:#ffffff;"/>
  </g>
  <g id="axes_1">
   <g id="patch_2">
    <path d="M 7.2 352.8 
L 453.6 352.8 
L 453.6 7.2 
L 7.2 7.2 
z
" style="fill:#ffffff;"/>
   </g>
   <g id="line2d_1">
    <path clip-path="url(#p324de41026)" d="M 101.408894 352.8 
L 101.408894 348.237624 
L 110.078931 348.237624 
L 110.078931 343.675248 
L 141.061178 343.675248 
L 141.061178 339.112871 
L 143.188847 339.112871 
L 143.188847 334.550495 
L 146.578644 334.550495 
L 146.578644 329.988119 
L 150.935978 329.988119 
L 150.935978 325.425743 
L 151.920467 325.425743 
L 151.920467 320.863366 
L 152.22806 320.863366 
L 152.22806 316.30099 
L 156.949902 316.30099 
L 156.949902 311.738614 
L 159.797177 311.738614 
L 159.797177 307.176238 
L 169.122453 307.176238 
L 169.122453 302.613861 
L 170.903414 302.613861 
L 170.903414 298.051485 
L 171.384725 298.051485 
L 171.384725 293.489109 
L 174.110239 293.489109 
L 174.110239 288.926733 
L 175.083104 288.926733 
L 175.083104 284.364356 
L 177.350952 284.364356 
L 177.350952 279.80198 
L 180.093809 279.80198 
L 180.093809 275.239604 
L 181.33154 275.239604 
L 181.33154 270.677228 
L 182.64696 270.677228 
L 182.64696 266.114851 
L 184.454675 266.114851 
L 184.454675 261.552475 
L 185.248604 261.552475 
L 185.248604 256.990099 
L 185.368437 256.990099 
L 185.368437 252.427723 
L 186.29851 252.427723 
L 186.29851 247.865347 
L 188.890324 247.865347 
L 188.890324 243.30297 
L 190.803863 243.30297 
L 190.803863 238.740594 
L 197.570333 238.740594 
L 197.570333 234.178218 
L 201.085192 234.178218 
L 201.085192 229.615842 
L 201.861686 229.615842 
L 201.861686 225.053465 
L 201.989131 225.053465 
L 201.989131 220.491089 
L 202.495769 220.491089 
L 202.495769 215.928713 
L 203.713464 215.928713 
L 203.755832 206.80396 
L 203.943408 206.80396 
L 203.943408 202.241584 
L 204.302971 202.241584 
L 204.302971 197.679208 
L 205.068436 197.679208 
L 205.130355 188.554455 
L 205.239195 188.554455 
L 205.239195 183.992079 
L 205.742372 183.992079 
L 205.742372 179.429703 
L 206.104877 179.429703 
L 206.104877 174.867327 
L 206.458459 174.867327 
L 206.458459 170.30495 
L 208.350833 170.30495 
L 208.350833 165.742574 
L 208.542745 165.742574 
L 208.542745 161.180198 
L 210.305051 161.180198 
L 210.305051 156.617822 
L 210.50071 156.617822 
L 210.50071 152.055446 
L 212.41997 152.055446 
L 212.41997 147.493069 
L 213.27034 147.493069 
L 213.27034 142.930693 
L 214.753099 142.930693 
L 214.753099 138.368317 
L 216.78022 138.368317 
L 216.78022 133.805941 
L 220.886895 133.805941 
L 220.886895 129.243564 
L 221.422613 129.243564 
L 221.422613 124.681188 
L 222.163808 124.681188 
L 222.187101 115.556436 
L 222.319855 115.556436 
L 222.319855 110.994059 
L 222.586012 110.994059 
L 222.586012 106.431683 
L 222.931998 106.431683 
L 222.931998 101.869307 
L 223.40575 101.869307 
L 223.40575 97.306931 
L 224.140074 97.306931 
L 224.177854 88.182178 
L 224.72422 88.182178 
L 224.72422 83.619802 
L 224.969164 83.619802 
L 224.98586 74.49505 
L 225.295284 74.49505 
L 225.295284 69.932673 
L 226.968426 69.932673 
L 227.014565 60.807921 
L 227.690851 60.807921 
L 227.690851 56.245545 
L 228.322933 56.245545 
L 228.322933 51.683168 
L 229.244819 51.683168 
L 229.312955 42.558416 
L 229.63289 42.558416 
L 229.63289 37.99604 
L 229.753344 37.99604 
L 229.753441 28.871287 
L 230.472549 28.871287 
L 230.472549 24.308911 
L 231.003711 24.308911 
L 231.030043 15.184158 
L 233.683334 15.184158 
L 233.683334 10.621782 
L 233.683334 10.621782 
L 453.6 10.621782 
L 453.6 10.621782 
" style="fill:none;stroke:#ff0000;stroke-linecap:square;stroke-width:3.0;"/>
   </g>
   <g id="line2d_2">
    <path clip-path="url(#p324de41026)" d="M 220.58507 352.8 
L 220.58507 348.237624 
L 232.166412 348.237624 
L 232.166412 343.675248 
L 232.841893 343.675248 
L 232.841893 339.112871 
L 236.59822 339.112871 
L 236.59822 334.550495 
L 237.164912 334.550495 
L 237.164912 329.988119 
L 239.89575 329.988119 
L 239.89575 325.425743 
L 242.488874 325.425743 
L 242.488874 320.863366 
L 243.937732 320.863366 
L 244.001334 311.738614 
L 245.850865 311.738614 
L 245.850865 307.176238 
L 247.63296 307.176238 
L 247.63296 302.613861 
L 247.958231 302.613861 
L 247.958231 298.051485 
L 248.146016 298.051485 
L 248.223021 288.926733 
L 249.727299 288.926733 
L 249.727299 284.364356 
L 250.32798 284.364356 
L 250.32798 279.80198 
L 250.639899 279.80198 
L 250.639899 275.239604 
L 250.897576 275.239604 
L 250.964313 266.114851 
L 251.123365 266.114851 
L 251.123365 261.552475 
L 251.737147 261.552475 
L 251.737147 256.990099 
L 252.225822 256.990099 
L 252.225822 252.427723 
L 252.547411 252.427723 
L 252.547411 247.865347 
L 252.922116 247.865347 
L 252.99515 238.740594 
L 253.537709 238.740594 
L 253.537709 234.178218 
L 253.743082 234.178218 
L 253.743082 229.615842 
L 253.927232 229.615842 
L 253.994239 220.491089 
L 254.306989 220.491089 
L 254.306989 215.928713 
L 254.439585 215.928713 
L 254.482092 206.80396 
L 255.520479 206.80396 
L 255.520479 202.241584 
L 255.725083 202.241584 
L 255.725083 197.679208 
L 255.906835 197.679208 
L 255.987949 188.554455 
L 256.042254 188.554455 
L 256.104366 179.429703 
L 256.182851 179.429703 
L 256.182851 174.867327 
L 256.38031 174.867327 
L 256.38031 170.30495 
L 256.848942 170.30495 
L 256.848942 165.742574 
L 257.194539 165.742574 
L 257.194539 161.180198 
L 259.028221 161.180198 
L 259.028221 156.617822 
L 259.187195 156.617822 
L 259.236937 147.493069 
L 260.26282 147.493069 
L 260.26282 142.930693 
L 261.710057 142.930693 
L 261.710057 138.368317 
L 262.131731 138.368317 
L 262.17401 129.243564 
L 263.789058 129.243564 
L 263.789058 124.681188 
L 266.086072 124.681188 
L 266.086072 120.118812 
L 266.246206 120.118812 
L 266.246206 115.556436 
L 266.905295 115.556436 
L 266.905295 110.994059 
L 267.665029 110.994059 
L 267.665029 106.431683 
L 271.535829 106.431683 
L 271.602938 97.306931 
L 271.818342 97.306931 
L 271.818342 92.744554 
L 271.99629 92.744554 
L 271.99629 88.182178 
L 273.031518 88.182178 
L 273.031518 83.619802 
L 273.308063 83.619802 
L 273.308063 79.057426 
L 273.852923 79.057426 
L 273.852923 74.49505 
L 274.022588 74.49505 
L 274.068714 65.370297 
L 275.046051 65.370297 
L 275.046051 60.807921 
L 275.472341 60.807921 
L 275.472341 56.245545 
L 276.706302 56.245545 
L 276.706302 51.683168 
L 277.05233 51.683168 
L 277.05233 47.120792 
L 277.250133 47.120792 
L 277.250133 42.558416 
L 278.19619 42.558416 
L 278.28823 33.433663 
L 282.261543 33.433663 
L 282.261543 28.871287 
L 283.564029 28.871287 
L 283.564029 24.308911 
L 287.888986 24.308911 
L 287.888986 19.746535 
L 289.292678 19.746535 
L 289.292678 15.184158 
L 293.561673 15.184158 
L 293.561673 10.621782 
L 293.561673 10.621782 
L 453.6 10.621782 
L 453.6 10.621782 
" style="fill:none;stroke:#00bfbf;stroke-linecap:square;"/>
   </g>
   <g id="line2d_3">
    <path clip-path="url(#p324de41026)" d="M 220.58507 352.8 
L 220.58507 348.237624 
L 226.407749 348.237624 
L 226.407749 343.675248 
L 228.87456 343.675248 
L 228.87456 339.112871 
L 232.126893 339.112871 
L 232.166412 329.988119 
L 232.491601 329.988119 
L 232.491601 325.425743 
L 232.841893 325.425743 
L 232.841893 320.863366 
L 234.630229 320.863366 
L 234.630229 316.30099 
L 236.468563 316.30099 
L 236.468563 311.738614 
L 236.59822 311.738614 
L 236.59822 307.176238 
L 236.772571 307.176238 
L 236.772571 302.613861 
L 237.164912 302.613861 
L 237.189934 293.489109 
L 239.731313 293.489109 
L 239.731313 288.926733 
L 240.156595 288.926733 
L 240.261207 279.80198 
L 240.270061 279.80198 
L 240.270061 275.239604 
L 241.487979 275.239604 
L 241.487979 270.677228 
L 241.676236 270.677228 
L 241.733455 261.552475 
L 242.380729 261.552475 
L 242.380729 256.990099 
L 242.516621 256.990099 
L 242.516621 252.427723 
L 243.000484 252.427723 
L 243.000484 247.865347 
L 243.188626 247.865347 
L 243.188626 243.30297 
L 243.937732 243.30297 
L 244.001334 234.178218 
L 245.124642 234.178218 
L 245.124642 229.615842 
L 245.531193 229.615842 
L 245.531193 225.053465 
L 245.870197 225.053465 
L 245.870197 220.491089 
L 246.403965 220.491089 
L 246.403965 215.928713 
L 246.678146 215.928713 
L 246.75181 206.80396 
L 247.007794 206.80396 
L 247.007794 202.241584 
L 247.615724 202.241584 
L 247.63296 193.116832 
L 248.146016 193.116832 
L 248.223021 183.992079 
L 248.467095 183.992079 
L 248.522539 174.867327 
L 249.319644 174.867327 
L 249.319644 170.30495 
L 249.761439 170.30495 
L 249.811762 161.180198 
L 250.151988 161.180198 
L 250.151988 156.617822 
L 250.718723 156.617822 
L 250.726832 147.493069 
L 250.964313 147.493069 
L 250.964313 142.930693 
L 251.08206 142.930693 
L 251.08206 138.368317 
L 251.383316 138.368317 
L 251.383316 133.805941 
L 252.337694 133.805941 
L 252.337694 129.243564 
L 253.942412 129.243564 
L 253.942412 124.681188 
L 254.306989 124.681188 
L 254.306989 120.118812 
L 254.62029 120.118812 
L 254.62029 115.556436 
L 255.643255 115.556436 
L 255.643255 110.994059 
L 256.042254 110.994059 
L 256.042254 106.431683 
L 256.795425 106.431683 
L 256.795425 101.869307 
L 257.584343 101.869307 
L 257.584343 97.306931 
L 258.987793 97.306931 
L 258.987793 92.744554 
L 259.370337 92.744554 
L 259.370337 88.182178 
L 260.656104 88.182178 
L 260.656104 83.619802 
L 261.030445 83.619802 
L 261.030445 79.057426 
L 261.350878 79.057426 
L 261.350878 74.49505 
L 261.710057 74.49505 
L 261.710057 69.932673 
L 262.155005 69.932673 
L 262.160519 60.807921 
L 264.988482 60.807921 
L 264.988482 56.245545 
L 266.246206 56.245545 
L 266.246206 51.683168 
L 266.717504 51.683168 
L 266.717504 47.120792 
L 267.611843 47.120792 
L 267.665029 37.99604 
L 270.846341 37.99604 
L 270.846341 33.433663 
L 271.535829 33.433663 
L 271.535829 28.871287 
L 273.031518 28.871287 
L 273.031518 24.308911 
L 273.296877 24.308911 
L 273.296877 19.746535 
L 274.022588 19.746535 
L 274.022588 15.184158 
L 282.326273 15.184158 
L 282.326273 10.621782 
L 282.326273 10.621782 
L 453.6 10.621782 
L 453.6 10.621782 
" style="fill:none;stroke:#bf00bf;stroke-linecap:square;"/>
   </g>
   <g id="line2d_4">
    <path clip-path="url(#p324de41026)" d="M 220.58507 352.8 
L 220.58507 348.237624 
L 226.407749 348.237624 
L 226.407749 343.675248 
L 226.862248 343.675248 
L 226.862248 339.112871 
L 227.252888 339.112871 
L 227.252888 334.550495 
L 230.463892 334.550495 
L 230.463892 329.988119 
L 232.008996 329.988119 
L 232.008996 325.425743 
L 232.126893 325.425743 
L 232.126893 320.863366 
L 232.491601 320.863366 
L 232.515684 311.738614 
L 232.841893 311.738614 
L 232.841893 307.176238 
L 233.153717 307.176238 
L 233.153717 302.613861 
L 233.266448 302.613861 
L 233.266448 298.051485 
L 233.613468 298.051485 
L 233.613468 293.489109 
L 234.254593 293.489109 
L 234.254593 288.926733 
L 234.415517 288.926733 
L 234.415517 284.364356 
L 234.630229 284.364356 
L 234.630229 279.80198 
L 236.772571 279.80198 
L 236.772571 275.239604 
L 237.189934 275.239604 
L 237.189934 270.677228 
L 237.379011 270.677228 
L 237.379011 266.114851 
L 237.828142 266.114851 
L 237.828142 261.552475 
L 237.981506 261.552475 
L 237.981506 256.990099 
L 238.305205 256.990099 
L 238.305205 252.427723 
L 239.731313 252.427723 
L 239.731313 247.865347 
L 240.270061 247.865347 
L 240.270061 243.30297 
L 240.658371 243.30297 
L 240.705561 234.178218 
L 241.372286 234.178218 
L 241.372286 229.615842 
L 241.487979 229.615842 
L 241.487979 225.053465 
L 242.380729 225.053465 
L 242.446287 215.928713 
L 243.000484 215.928713 
L 243.000484 211.366337 
L 243.491152 211.366337 
L 243.491152 206.80396 
L 243.937732 206.80396 
L 243.937732 202.241584 
L 244.145009 202.241584 
L 244.145009 197.679208 
L 244.392574 197.679208 
L 244.428434 188.554455 
L 245.124642 188.554455 
L 245.124642 183.992079 
L 245.442656 183.992079 
L 245.502402 174.867327 
L 245.603911 174.867327 
L 245.603911 170.30495 
L 246.403965 170.30495 
L 246.403965 165.742574 
L 246.678146 165.742574 
L 246.758442 156.617822 
L 247.007794 156.617822 
L 247.058496 142.930693 
L 247.615724 142.930693 
L 247.615724 138.368317 
L 247.906259 138.368317 
L 247.916576 129.243564 
L 248.146016 129.243564 
L 248.223021 120.118812 
L 248.359382 120.118812 
L 248.359382 115.556436 
L 249.010195 115.556436 
L 249.010195 110.994059 
L 250.270243 110.994059 
L 250.270243 106.431683 
L 250.453606 106.431683 
L 250.453606 101.869307 
L 250.964313 101.869307 
L 250.964313 97.306931 
L 251.784204 97.306931 
L 251.784204 92.744554 
L 252.821303 92.744554 
L 252.821303 88.182178 
L 253.777424 88.182178 
L 253.798799 79.057426 
L 254.306989 79.057426 
L 254.306989 74.49505 
L 255.643255 74.49505 
L 255.643255 69.932673 
L 256.70871 69.932673 
L 256.70871 65.370297 
L 257.851777 65.370297 
L 257.851777 60.807921 
L 259.917901 60.807921 
L 259.917901 56.245545 
L 261.030445 56.245545 
L 261.030445 51.683168 
L 261.350878 51.683168 
L 261.350878 47.120792 
L 261.710057 47.120792 
L 261.710057 42.558416 
L 262.160519 42.558416 
L 262.160519 37.99604 
L 264.138227 37.99604 
L 264.138227 33.433663 
L 265.897827 33.433663 
L 265.897827 28.871287 
L 266.082599 28.871287 
L 266.082599 24.308911 
L 267.62173 24.308911 
L 267.62173 19.746535 
L 269.391714 19.746535 
L 269.391714 15.184158 
L 272.690566 15.184158 
L 272.690566 10.621782 
L 272.690566 10.621782 
L 453.6 10.621782 
L 453.6 10.621782 
" style="fill:none;stroke:#000000;stroke-linecap:square;"/>
   </g>
   <g id="line2d_5">
    <path clip-path="url(#p324de41026)" d="M 220.057584 352.8 
L 220.057584 348.237624 
L 220.58507 348.237624 
L 220.58507 343.675248 
L 221.427469 343.675248 
L 221.427469 339.112871 
L 222.163808 339.112871 
L 222.163808 334.550495 
L 222.488879 334.550495 
L 222.545699 325.425743 
L 222.826043 325.425743 
L 222.826043 320.863366 
L 224.39006 320.863366 
L 224.39006 316.30099 
L 226.796385 316.30099 
L 226.862248 307.176238 
L 227.252888 307.176238 
L 227.252888 302.613861 
L 227.831665 302.613861 
L 227.831665 298.051485 
L 228.257421 298.051485 
L 228.34959 288.926733 
L 228.805955 288.926733 
L 228.869986 279.80198 
L 229.215875 279.80198 
L 229.215875 275.239604 
L 229.341931 275.239604 
L 229.341931 270.677228 
L 229.794745 270.677228 
L 229.794745 266.114851 
L 230.70917 266.114851 
L 230.70917 261.552475 
L 231.126642 261.552475 
L 231.126642 256.990099 
L 231.434995 256.990099 
L 231.434995 252.427723 
L 231.912953 252.427723 
L 231.943342 238.740594 
L 232.126893 238.740594 
L 232.126893 234.178218 
L 232.841893 234.178218 
L 232.841893 229.615842 
L 233.430781 229.615842 
L 233.430781 225.053465 
L 233.944163 225.053465 
L 233.944163 220.491089 
L 234.254593 220.491089 
L 234.309663 211.366337 
L 234.748694 211.366337 
L 234.748694 206.80396 
L 235.437433 206.80396 
L 235.437433 202.241584 
L 235.755552 202.241584 
L 235.755552 197.679208 
L 236.214755 197.679208 
L 236.214755 193.116832 
L 236.772571 193.116832 
L 236.772571 188.554455 
L 236.910673 188.554455 
L 236.910673 183.992079 
L 237.330734 183.992079 
L 237.381845 174.867327 
L 238.165293 174.867327 
L 238.176969 165.742574 
L 239.005067 165.742574 
L 239.005067 161.180198 
L 239.599403 161.180198 
L 239.599403 156.617822 
L 239.741632 156.617822 
L 239.741632 152.055446 
L 240.00933 152.055446 
L 240.00933 147.493069 
L 240.425537 147.493069 
L 240.425537 142.930693 
L 241.372286 142.930693 
L 241.372286 138.368317 
L 241.487979 138.368317 
L 241.487979 133.805941 
L 241.73652 133.805941 
L 241.775557 124.681188 
L 242.23462 124.681188 
L 242.23462 120.118812 
L 242.380729 120.118812 
L 242.380729 115.556436 
L 242.57054 115.556436 
L 242.57054 110.994059 
L 242.695181 110.994059 
L 242.695181 106.431683 
L 243.524715 106.431683 
L 243.524715 101.869307 
L 243.937732 101.869307 
L 243.937732 97.306931 
L 244.392574 97.306931 
L 244.392574 92.744554 
L 246.14894 92.744554 
L 246.14894 88.182178 
L 247.339473 88.182178 
L 247.339473 83.619802 
L 250.270243 83.619802 
L 250.270243 79.057426 
L 250.453606 79.057426 
L 250.519586 69.932673 
L 250.964313 69.932673 
L 250.964313 65.370297 
L 251.396626 65.370297 
L 251.396626 60.807921 
L 252.332739 60.807921 
L 252.332739 56.245545 
L 253.882085 56.245545 
L 253.882085 51.683168 
L 254.922712 51.683168 
L 254.922712 47.120792 
L 256.838021 47.120792 
L 256.838021 42.558416 
L 257.725559 42.558416 
L 257.725559 37.99604 
L 259.655567 37.99604 
L 259.655567 33.433663 
L 259.778644 33.433663 
L 259.778644 28.871287 
L 261.19149 28.871287 
L 261.19149 24.308911 
L 261.348723 24.308911 
L 261.348723 19.746535 
L 261.542814 19.746535 
L 261.589581 10.621782 
L 261.589581 10.621782 
L 453.6 10.621782 
L 453.6 10.621782 
" style="fill:none;stroke:#00bfbf;stroke-linecap:square;"/>
   </g>
   <g id="line2d_6">
    <path clip-path="url(#p324de41026)" d="M 180.225682 352.8 
L 180.225682 348.237624 
L 186.267816 348.237624 
L 186.267816 343.675248 
L 192.87918 343.675248 
L 192.87918 339.112871 
L 194.314949 339.112871 
L 194.314949 334.550495 
L 195.636698 334.550495 
L 195.636698 329.988119 
L 197.678367 329.988119 
L 197.678367 325.425743 
L 198.164971 325.425743 
L 198.164971 320.863366 
L 199.765582 320.863366 
L 199.822342 311.738614 
L 200.030542 311.738614 
L 200.030542 307.176238 
L 200.196049 307.176238 
L 200.196049 302.613861 
L 201.861686 302.613861 
L 201.861686 298.051485 
L 203.943408 298.051485 
L 203.943408 293.489109 
L 205.199811 293.489109 
L 205.199811 288.926733 
L 205.742372 288.926733 
L 205.797588 279.80198 
L 205.924377 279.80198 
L 205.924377 275.239604 
L 206.073005 275.239604 
L 206.073005 270.677228 
L 209.860391 270.677228 
L 209.860391 266.114851 
L 210.845766 266.114851 
L 210.845766 261.552475 
L 211.139433 261.552475 
L 211.139433 256.990099 
L 211.262882 256.990099 
L 211.262882 252.427723 
L 211.947311 252.427723 
L 212.008136 243.30297 
L 212.212814 243.30297 
L 212.212814 238.740594 
L 212.37523 238.740594 
L 212.37523 234.178218 
L 213.376831 234.178218 
L 213.414118 225.053465 
L 213.53054 225.053465 
L 213.53054 220.491089 
L 213.807513 220.491089 
L 213.807513 215.928713 
L 214.030886 215.928713 
L 214.030886 211.366337 
L 214.372142 211.366337 
L 214.372142 206.80396 
L 215.473889 206.80396 
L 215.473889 202.241584 
L 215.680739 202.241584 
L 215.680739 197.679208 
L 216.137841 197.679208 
L 216.137841 193.116832 
L 216.78022 193.116832 
L 216.814958 183.992079 
L 220.028535 183.992079 
L 220.028535 179.429703 
L 220.182996 179.429703 
L 220.182996 174.867327 
L 220.668459 174.867327 
L 220.668459 170.30495 
L 221.028757 170.30495 
L 221.028757 165.742574 
L 222.163808 165.742574 
L 222.163808 161.180198 
L 222.586012 161.180198 
L 222.586012 156.617822 
L 223.618178 156.617822 
L 223.618178 152.055446 
L 224.969164 152.055446 
L 224.969164 147.493069 
L 225.083219 147.493069 
L 225.083219 142.930693 
L 225.738754 142.930693 
L 225.738754 138.368317 
L 226.607885 138.368317 
L 226.607885 133.805941 
L 227.079949 133.805941 
L 227.106179 124.681188 
L 229.62217 124.681188 
L 229.62217 120.118812 
L 229.748383 120.118812 
L 229.748383 115.556436 
L 230.70917 115.556436 
L 230.744226 106.431683 
L 231.553575 106.431683 
L 231.553575 101.869307 
L 231.954374 101.869307 
L 231.954374 97.306931 
L 232.581961 97.306931 
L 232.581961 92.744554 
L 233.375915 92.744554 
L 233.375915 88.182178 
L 235.111748 88.182178 
L 235.221724 79.057426 
L 235.664392 79.057426 
L 235.664392 74.49505 
L 236.277744 74.49505 
L 236.277744 69.932673 
L 236.481871 69.932673 
L 236.481871 65.370297 
L 237.306048 65.370297 
L 237.306048 60.807921 
L 237.463502 60.807921 
L 237.463502 56.245545 
L 237.930761 56.245545 
L 237.930761 51.683168 
L 238.060539 51.683168 
L 238.060539 47.120792 
L 238.173727 47.120792 
L 238.173727 42.558416 
L 238.341622 42.558416 
L 238.361355 33.433663 
L 240.027832 33.433663 
L 240.027832 28.871287 
L 241.545217 28.871287 
L 241.582816 19.746535 
L 243.952909 19.746535 
L 243.952909 15.184158 
L 246.440739 15.184158 
L 246.440739 10.621782 
L 246.440739 10.621782 
L 453.6 10.621782 
L 453.6 10.621782 
" style="fill:none;stroke:#bf00bf;stroke-linecap:square;"/>
   </g>
   <g id="patch_3">
    <path d="M 7.2 7.2 
L 453.6 7.2 
" style="fill:none;stroke:#000000;stroke-linecap:square;stroke-linejoin:miter;"/>
   </g>
   <g id="patch_4">
    <path d="M 453.6 352.8 
L 453.6 7.2 
" style="fill:none;stroke:#000000;stroke-linecap:square;stroke-linejoin:miter;"/>
   </g>
   <g id="patch_5">
    <path d="M 7.2 352.8 
L 453.6 352.8 
" style="fill:none;stroke:#000000;stroke-linecap:square;stroke-linejoin:miter;"/>
   </g>
   <g id="patch_6">
    <path d="M 7.2 352.8 
L 7.2 7.2 
" style="fill:none;stroke:#000000;stroke-linecap:square;stroke-linejoin:miter;"/>
   </g>
   <g id="matplotlib.axis_1">
    <g id="xtick_1"/>
    <g id="xtick_2">
     <g id="line2d_7">
      <path clip-path="url(#p324de41026)" d="M 56.704715 352.8 
L 56.704715 7.2 
" style="fill:none;stroke:#000000;stroke-dasharray:1.000000,3.000000;stroke-dashoffset:0.0;stroke-width:0.5;"/>
     </g>
     <g id="line2d_8">
      <defs>
       <path d="M 0 0 
L 0 -4 
" id="mc952910038" style="stroke:#000000;stroke-width:0.5;"/>
      </defs>
      <g>
       <use style="stroke:#000000;stroke-width:0.5;" x="56.70471484" xlink:href="#mc952910038" y="352.8"/>
      </g>
     </g>
     <g id="line2d_9">
      <defs>
       <path d="M 0 0 
L 0 4 
" id="m325b2f3e69" style="stroke:#000000;stroke-width:0.5;"/>
      </defs>
      <g>
       <use style="stroke:#000000;stroke-width:0.5;" x="56.70471484" xlink:href="#m325b2f3e69" y="7.2"/>
      </g>
     </g>
     <g id="text_1">
      <!-- -6 -->
      <defs>
       <path d="M 33.015625 40.375 
Q 26.375 40.375 22.484375 35.828125 
Q 18.609375 31.296875 18.609375 23.390625 
Q 18.609375 15.53125 22.484375 10.953125 
Q 26.375 6.390625 33.015625 6.390625 
Q 39.65625 6.390625 43.53125 10.953125 
Q 47.40625 15.53125 47.40625 23.390625 
Q 47.40625 31.296875 43.53125 35.828125 
Q 39.65625 40.375 33.015625 40.375 
M 52.59375 71.296875 
L 52.59375 62.3125 
Q 48.875 64.0625 45.09375 64.984375 
Q 41.3125 65.921875 37.59375 65.921875 
Q 27.828125 65.921875 22.671875 59.328125 
Q 17.53125 52.734375 16.796875 39.40625 
Q 19.671875 43.65625 24.015625 45.921875 
Q 28.375 48.1875 33.59375 48.1875 
Q 44.578125 48.1875 50.953125 41.515625 
Q 57.328125 34.859375 57.328125 23.390625 
Q 57.328125 12.15625 50.6875 5.359375 
Q 44.046875 -1.421875 33.015625 -1.421875 
Q 20.359375 -1.421875 13.671875 8.265625 
Q 6.984375 17.96875 6.984375 36.375 
Q 6.984375 53.65625 15.1875 63.9375 
Q 23.390625 74.21875 37.203125 74.21875 
Q 40.921875 74.21875 44.703125 73.484375 
Q 48.484375 72.75 52.59375 71.296875 
" id="BitstreamVeraSans-Roman-36"/>
       <path d="M 4.890625 31.390625 
L 31.203125 31.390625 
L 31.203125 23.390625 
L 4.890625 23.390625 
z
" id="BitstreamVeraSans-Roman-2d"/>
      </defs>
      <g transform="translate(46.73440234 371.996875)scale(0.2 -0.2)">
       <use xlink:href="#BitstreamVeraSans-Roman-2d"/>
       <use x="36.083984375" xlink:href="#BitstreamVeraSans-Roman-36"/>
      </g>
     </g>
    </g>
    <g id="xtick_3">
     <g id="line2d_10">
      <path clip-path="url(#p324de41026)" d="M 106.316625 352.8 
L 106.316625 7.2 
" style="fill:none;stroke:#000000;stroke-dasharray:1.000000,3.000000;stroke-dashoffset:0.0;stroke-width:0.5;"/>
     </g>
     <g id="line2d_11">
      <g>
       <use style="stroke:#000000;stroke-width:0.5;" x="106.316625485" xlink:href="#mc952910038" y="352.8"/>
      </g>
     </g>
     <g id="line2d_12">
      <g>
       <use style="stroke:#000000;stroke-width:0.5;" x="106.316625485" xlink:href="#m325b2f3e69" y="7.2"/>
      </g>
     </g>
     <g id="text_2">
      <!-- -4 -->
      <defs>
       <path d="M 37.796875 64.3125 
L 12.890625 25.390625 
L 37.796875 25.390625 
z
M 35.203125 72.90625 
L 47.609375 72.90625 
L 47.609375 25.390625 
L 58.015625 25.390625 
L 58.015625 17.1875 
L 47.609375 17.1875 
L 47.609375 0 
L 37.796875 0 
L 37.796875 17.1875 
L 4.890625 17.1875 
L 4.890625 26.703125 
z
" id="BitstreamVeraSans-Roman-34"/>
      </defs>
      <g transform="translate(96.346312985 371.996875)scale(0.2 -0.2)">
       <use xlink:href="#BitstreamVeraSans-Roman-2d"/>
       <use x="36.083984375" xlink:href="#BitstreamVeraSans-Roman-34"/>
      </g>
     </g>
    </g>
    <g id="xtick_4">
     <g id="line2d_13">
      <path clip-path="url(#p324de41026)" d="M 155.928536 352.8 
L 155.928536 7.2 
" style="fill:none;stroke:#000000;stroke-dasharray:1.000000,3.000000;stroke-dashoffset:0.0;stroke-width:0.5;"/>
     </g>
     <g id="line2d_14">
      <g>
       <use style="stroke:#000000;stroke-width:0.5;" x="155.92853613" xlink:href="#mc952910038" y="352.8"/>
      </g>
     </g>
     <g id="line2d_15">
      <g>
       <use style="stroke:#000000;stroke-width:0.5;" x="155.92853613" xlink:href="#m325b2f3e69" y="7.2"/>
      </g>
     </g>
     <g id="text_3">
      <!-- -2 -->
      <defs>
       <path d="M 19.1875 8.296875 
L 53.609375 8.296875 
L 53.609375 0 
L 7.328125 0 
L 7.328125 8.296875 
Q 12.9375 14.109375 22.625 23.890625 
Q 32.328125 33.6875 34.8125 36.53125 
Q 39.546875 41.84375 41.421875 45.53125 
Q 43.3125 49.21875 43.3125 52.78125 
Q 43.3125 58.59375 39.234375 62.25 
Q 35.15625 65.921875 28.609375 65.921875 
Q 23.96875 65.921875 18.8125 64.3125 
Q 13.671875 62.703125 7.8125 59.421875 
L 7.8125 69.390625 
Q 13.765625 71.78125 18.9375 73 
Q 24.125 74.21875 28.421875 74.21875 
Q 39.75 74.21875 46.484375 68.546875 
Q 53.21875 62.890625 53.21875 53.421875 
Q 53.21875 48.921875 51.53125 44.890625 
Q 49.859375 40.875 45.40625 35.40625 
Q 44.1875 33.984375 37.640625 27.21875 
Q 31.109375 20.453125 19.1875 8.296875 
" id="BitstreamVeraSans-Roman-32"/>
      </defs>
      <g transform="translate(145.95822363 371.996875)scale(0.2 -0.2)">
       <use xlink:href="#BitstreamVeraSans-Roman-2d"/>
       <use x="36.083984375" xlink:href="#BitstreamVeraSans-Roman-32"/>
      </g>
     </g>
    </g>
    <g id="xtick_5">
     <g id="line2d_16">
      <path clip-path="url(#p324de41026)" d="M 205.540447 352.8 
L 205.540447 7.2 
" style="fill:none;stroke:#000000;stroke-dasharray:1.000000,3.000000;stroke-dashoffset:0.0;stroke-width:0.5;"/>
     </g>
     <g id="line2d_17">
      <g>
       <use style="stroke:#000000;stroke-width:0.5;" x="205.540446775" xlink:href="#mc952910038" y="352.8"/>
      </g>
     </g>
     <g id="line2d_18">
      <g>
       <use style="stroke:#000000;stroke-width:0.5;" x="205.540446775" xlink:href="#m325b2f3e69" y="7.2"/>
      </g>
     </g>
     <g id="text_4">
      <!-- 0 -->
      <defs>
       <path d="M 31.78125 66.40625 
Q 24.171875 66.40625 20.328125 58.90625 
Q 16.5 51.421875 16.5 36.375 
Q 16.5 21.390625 20.328125 13.890625 
Q 24.171875 6.390625 31.78125 6.390625 
Q 39.453125 6.390625 43.28125 13.890625 
Q 47.125 21.390625 47.125 36.375 
Q 47.125 51.421875 43.28125 58.90625 
Q 39.453125 66.40625 31.78125 66.40625 
M 31.78125 74.21875 
Q 44.046875 74.21875 50.515625 64.515625 
Q 56.984375 54.828125 56.984375 36.375 
Q 56.984375 17.96875 50.515625 8.265625 
Q 44.046875 -1.421875 31.78125 -1.421875 
Q 19.53125 -1.421875 13.0625 8.265625 
Q 6.59375 17.96875 6.59375 36.375 
Q 6.59375 54.828125 13.0625 64.515625 
Q 19.53125 74.21875 31.78125 74.21875 
" id="BitstreamVeraSans-Roman-30"/>
      </defs>
      <g transform="translate(199.177946775 371.996875)scale(0.2 -0.2)">
       <use xlink:href="#BitstreamVeraSans-Roman-30"/>
      </g>
     </g>
    </g>
    <g id="xtick_6">
     <g id="line2d_19">
      <path clip-path="url(#p324de41026)" d="M 255.152357 352.8 
L 255.152357 7.2 
" style="fill:none;stroke:#000000;stroke-dasharray:1.000000,3.000000;stroke-dashoffset:0.0;stroke-width:0.5;"/>
     </g>
     <g id="line2d_20">
      <g>
       <use style="stroke:#000000;stroke-width:0.5;" x="255.15235742" xlink:href="#mc952910038" y="352.8"/>
      </g>
     </g>
     <g id="line2d_21">
      <g>
       <use style="stroke:#000000;stroke-width:0.5;" x="255.15235742" xlink:href="#m325b2f3e69" y="7.2"/>
      </g>
     </g>
     <g id="text_5">
      <!-- 2 -->
      <g transform="translate(248.78985742 371.996875)scale(0.2 -0.2)">
       <use xlink:href="#BitstreamVeraSans-Roman-32"/>
      </g>
     </g>
    </g>
    <g id="xtick_7">
     <g id="line2d_22">
      <path clip-path="url(#p324de41026)" d="M 304.764268 352.8 
L 304.764268 7.2 
" style="fill:none;stroke:#000000;stroke-dasharray:1.000000,3.000000;stroke-dashoffset:0.0;stroke-width:0.5;"/>
     </g>
     <g id="line2d_23">
      <g>
       <use style="stroke:#000000;stroke-width:0.5;" x="304.764268065" xlink:href="#mc952910038" y="352.8"/>
      </g>
     </g>
     <g id="line2d_24">
      <g>
       <use style="stroke:#000000;stroke-width:0.5;" x="304.764268065" xlink:href="#m325b2f3e69" y="7.2"/>
      </g>
     </g>
     <g id="text_6">
      <!-- 4 -->
      <g transform="translate(298.401768065 371.996875)scale(0.2 -0.2)">
       <use xlink:href="#BitstreamVeraSans-Roman-34"/>
      </g>
     </g>
    </g>
    <g id="xtick_8">
     <g id="line2d_25">
      <path clip-path="url(#p324de41026)" d="M 354.376179 352.8 
L 354.376179 7.2 
" style="fill:none;stroke:#000000;stroke-dasharray:1.000000,3.000000;stroke-dashoffset:0.0;stroke-width:0.5;"/>
     </g>
     <g id="line2d_26">
      <g>
       <use style="stroke:#000000;stroke-width:0.5;" x="354.37617871" xlink:href="#mc952910038" y="352.8"/>
      </g>
     </g>
     <g id="line2d_27">
      <g>
       <use style="stroke:#000000;stroke-width:0.5;" x="354.37617871" xlink:href="#m325b2f3e69" y="7.2"/>
      </g>
     </g>
     <g id="text_7">
      <!-- 6 -->
      <g transform="translate(348.01367871 371.996875)scale(0.2 -0.2)">
       <use xlink:href="#BitstreamVeraSans-Roman-36"/>
      </g>
     </g>
    </g>
    <g id="xtick_9">
     <g id="line2d_28">
      <path clip-path="url(#p324de41026)" d="M 403.988089 352.8 
L 403.988089 7.2 
" style="fill:none;stroke:#000000;stroke-dasharray:1.000000,3.000000;stroke-dashoffset:0.0;stroke-width:0.5;"/>
     </g>
     <g id="line2d_29">
      <g>
       <use style="stroke:#000000;stroke-width:0.5;" x="403.988089355" xlink:href="#mc952910038" y="352.8"/>
      </g>
     </g>
     <g id="line2d_30">
      <g>
       <use style="stroke:#000000;stroke-width:0.5;" x="403.988089355" xlink:href="#m325b2f3e69" y="7.2"/>
      </g>
     </g>
     <g id="text_8">
      <!-- 8 -->
      <defs>
       <path d="M 31.78125 34.625 
Q 24.75 34.625 20.71875 30.859375 
Q 16.703125 27.09375 16.703125 20.515625 
Q 16.703125 13.921875 20.71875 10.15625 
Q 24.75 6.390625 31.78125 6.390625 
Q 38.8125 6.390625 42.859375 10.171875 
Q 46.921875 13.96875 46.921875 20.515625 
Q 46.921875 27.09375 42.890625 30.859375 
Q 38.875 34.625 31.78125 34.625 
M 21.921875 38.8125 
Q 15.578125 40.375 12.03125 44.71875 
Q 8.5 49.078125 8.5 55.328125 
Q 8.5 64.0625 14.71875 69.140625 
Q 20.953125 74.21875 31.78125 74.21875 
Q 42.671875 74.21875 48.875 69.140625 
Q 55.078125 64.0625 55.078125 55.328125 
Q 55.078125 49.078125 51.53125 44.71875 
Q 48 40.375 41.703125 38.8125 
Q 48.828125 37.15625 52.796875 32.3125 
Q 56.78125 27.484375 56.78125 20.515625 
Q 56.78125 9.90625 50.3125 4.234375 
Q 43.84375 -1.421875 31.78125 -1.421875 
Q 19.734375 -1.421875 13.25 4.234375 
Q 6.78125 9.90625 6.78125 20.515625 
Q 6.78125 27.484375 10.78125 32.3125 
Q 14.796875 37.15625 21.921875 38.8125 
M 18.3125 54.390625 
Q 18.3125 48.734375 21.84375 45.5625 
Q 25.390625 42.390625 31.78125 42.390625 
Q 38.140625 42.390625 41.71875 45.5625 
Q 45.3125 48.734375 45.3125 54.390625 
Q 45.3125 60.0625 41.71875 63.234375 
Q 38.140625 66.40625 31.78125 66.40625 
Q 25.390625 66.40625 21.84375 63.234375 
Q 18.3125 60.0625 18.3125 54.390625 
" id="BitstreamVeraSans-Roman-38"/>
      </defs>
      <g transform="translate(397.625589355 371.996875)scale(0.2 -0.2)">
       <use xlink:href="#BitstreamVeraSans-Roman-38"/>
      </g>
     </g>
    </g>
    <g id="xtick_10">
     <g id="line2d_31">
      <path clip-path="url(#p324de41026)" d="M 453.6 352.8 
L 453.6 7.2 
" style="fill:none;stroke:#000000;stroke-dasharray:1.000000,3.000000;stroke-dashoffset:0.0;stroke-width:0.5;"/>
     </g>
     <g id="line2d_32">
      <g>
       <use style="stroke:#000000;stroke-width:0.5;" x="453.6" xlink:href="#mc952910038" y="352.8"/>
      </g>
     </g>
     <g id="line2d_33">
      <g>
       <use style="stroke:#000000;stroke-width:0.5;" x="453.6" xlink:href="#m325b2f3e69" y="7.2"/>
      </g>
     </g>
    </g>
    <g id="xtick_11"/>
    <g id="xtick_12">
     <g id="line2d_34">
      <defs>
       <path d="M 0 0 
L 0 -2 
" id="m14721f8be8" style="stroke:#000000;stroke-width:0.5;"/>
      </defs>
      <g>
       <use style="stroke:#000000;stroke-width:0.5;" x="56.70471484" xlink:href="#m14721f8be8" y="352.8"/>
      </g>
     </g>
     <g id="line2d_35">
      <defs>
       <path d="M 0 0 
L 0 2 
" id="ma07896716e" style="stroke:#000000;stroke-width:0.5;"/>
      </defs>
      <g>
       <use style="stroke:#000000;stroke-width:0.5;" x="56.70471484" xlink:href="#ma07896716e" y="7.2"/>
      </g>
     </g>
    </g>
    <g id="xtick_13">
     <g id="line2d_36">
      <g>
       <use style="stroke:#000000;stroke-width:0.5;" x="106.316625485" xlink:href="#m14721f8be8" y="352.8"/>
      </g>
     </g>
     <g id="line2d_37">
      <g>
       <use style="stroke:#000000;stroke-width:0.5;" x="106.316625485" xlink:href="#ma07896716e" y="7.2"/>
      </g>
     </g>
    </g>
    <g id="xtick_14">
     <g id="line2d_38">
      <g>
       <use style="stroke:#000000;stroke-width:0.5;" x="155.92853613" xlink:href="#m14721f8be8" y="352.8"/>
      </g>
     </g>
     <g id="line2d_39">
      <g>
       <use style="stroke:#000000;stroke-width:0.5;" x="155.92853613" xlink:href="#ma07896716e" y="7.2"/>
      </g>
     </g>
    </g>
    <g id="xtick_15">
     <g id="line2d_40">
      <g>
       <use style="stroke:#000000;stroke-width:0.5;" x="205.540446775" xlink:href="#m14721f8be8" y="352.8"/>
      </g>
     </g>
     <g id="line2d_41">
      <g>
       <use style="stroke:#000000;stroke-width:0.5;" x="205.540446775" xlink:href="#ma07896716e" y="7.2"/>
      </g>
     </g>
    </g>
    <g id="xtick_16">
     <g id="line2d_42">
      <g>
       <use style="stroke:#000000;stroke-width:0.5;" x="255.15235742" xlink:href="#m14721f8be8" y="352.8"/>
      </g>
     </g>
     <g id="line2d_43">
      <g>
       <use style="stroke:#000000;stroke-width:0.5;" x="255.15235742" xlink:href="#ma07896716e" y="7.2"/>
      </g>
     </g>
    </g>
    <g id="xtick_17">
     <g id="line2d_44">
      <g>
       <use style="stroke:#000000;stroke-width:0.5;" x="304.764268065" xlink:href="#m14721f8be8" y="352.8"/>
      </g>
     </g>
     <g id="line2d_45">
      <g>
       <use style="stroke:#000000;stroke-width:0.5;" x="304.764268065" xlink:href="#ma07896716e" y="7.2"/>
      </g>
     </g>
    </g>
    <g id="xtick_18">
     <g id="line2d_46">
      <g>
       <use style="stroke:#000000;stroke-width:0.5;" x="354.37617871" xlink:href="#m14721f8be8" y="352.8"/>
      </g>
     </g>
     <g id="line2d_47">
      <g>
       <use style="stroke:#000000;stroke-width:0.5;" x="354.37617871" xlink:href="#ma07896716e" y="7.2"/>
      </g>
     </g>
    </g>
    <g id="xtick_19">
     <g id="line2d_48">
      <g>
       <use style="stroke:#000000;stroke-width:0.5;" x="403.988089355" xlink:href="#m14721f8be8" y="352.8"/>
      </g>
     </g>
     <g id="line2d_49">
      <g>
       <use style="stroke:#000000;stroke-width:0.5;" x="403.988089355" xlink:href="#ma07896716e" y="7.2"/>
      </g>
     </g>
    </g>
    <g id="xtick_20">
     <g id="line2d_50">
      <g>
       <use style="stroke:#000000;stroke-width:0.5;" x="453.6" xlink:href="#m14721f8be8" y="352.8"/>
      </g>
     </g>
     <g id="line2d_51">
      <g>
       <use style="stroke:#000000;stroke-width:0.5;" x="453.6" xlink:href="#ma07896716e" y="7.2"/>
      </g>
     </g>
    </g>
    <g id="text_9">
     <!-- log10 of Df -->
     <defs>
      <path id="BitstreamVeraSans-Roman-20"/>
      <path d="M 12.40625 8.296875 
L 28.515625 8.296875 
L 28.515625 63.921875 
L 10.984375 60.40625 
L 10.984375 69.390625 
L 28.421875 72.90625 
L 38.28125 72.90625 
L 38.28125 8.296875 
L 54.390625 8.296875 
L 54.390625 0 
L 12.40625 0 
z
" id="BitstreamVeraSans-Roman-31"/>
      <path d="M 30.609375 48.390625 
Q 23.390625 48.390625 19.1875 42.75 
Q 14.984375 37.109375 14.984375 27.296875 
Q 14.984375 17.484375 19.15625 11.84375 
Q 23.34375 6.203125 30.609375 6.203125 
Q 37.796875 6.203125 41.984375 11.859375 
Q 46.1875 17.53125 46.1875 27.296875 
Q 46.1875 37.015625 41.984375 42.703125 
Q 37.796875 48.390625 30.609375 48.390625 
M 30.609375 56 
Q 42.328125 56 49.015625 48.375 
Q 55.71875 40.765625 55.71875 27.296875 
Q 55.71875 13.875 49.015625 6.21875 
Q 42.328125 -1.421875 30.609375 -1.421875 
Q 18.84375 -1.421875 12.171875 6.21875 
Q 5.515625 13.875 5.515625 27.296875 
Q 5.515625 40.765625 12.171875 48.375 
Q 18.84375 56 30.609375 56 
" id="BitstreamVeraSans-Roman-6f"/>
      <path d="M 9.421875 75.984375 
L 18.40625 75.984375 
L 18.40625 0 
L 9.421875 0 
z
" id="BitstreamVeraSans-Roman-6c"/>
      <path d="M 19.671875 64.796875 
L 19.671875 8.109375 
L 31.59375 8.109375 
Q 46.6875 8.109375 53.6875 14.9375 
Q 60.6875 21.78125 60.6875 36.53125 
Q 60.6875 51.171875 53.6875 57.984375 
Q 46.6875 64.796875 31.59375 64.796875 
z
M 9.8125 72.90625 
L 30.078125 72.90625 
Q 51.265625 72.90625 61.171875 64.09375 
Q 71.09375 55.28125 71.09375 36.53125 
Q 71.09375 17.671875 61.125 8.828125 
Q 51.171875 0 30.078125 0 
L 9.8125 0 
z
" id="BitstreamVeraSans-Roman-44"/>
      <path d="M 45.40625 27.984375 
Q 45.40625 37.75 41.375 43.109375 
Q 37.359375 48.484375 30.078125 48.484375 
Q 22.859375 48.484375 18.828125 43.109375 
Q 14.796875 37.75 14.796875 27.984375 
Q 14.796875 18.265625 18.828125 12.890625 
Q 22.859375 7.515625 30.078125 7.515625 
Q 37.359375 7.515625 41.375 12.890625 
Q 45.40625 18.265625 45.40625 27.984375 
M 54.390625 6.78125 
Q 54.390625 -7.171875 48.1875 -13.984375 
Q 42 -20.796875 29.203125 -20.796875 
Q 24.46875 -20.796875 20.265625 -20.09375 
Q 16.0625 -19.390625 12.109375 -17.921875 
L 12.109375 -9.1875 
Q 16.0625 -11.328125 19.921875 -12.34375 
Q 23.78125 -13.375 27.78125 -13.375 
Q 36.625 -13.375 41.015625 -8.765625 
Q 45.40625 -4.15625 45.40625 5.171875 
L 45.40625 9.625 
Q 42.625 4.78125 38.28125 2.390625 
Q 33.9375 0 27.875 0 
Q 17.828125 0 11.671875 7.65625 
Q 5.515625 15.328125 5.515625 27.984375 
Q 5.515625 40.671875 11.671875 48.328125 
Q 17.828125 56 27.875 56 
Q 33.9375 56 38.28125 53.609375 
Q 42.625 51.21875 45.40625 46.390625 
L 45.40625 54.6875 
L 54.390625 54.6875 
z
" id="BitstreamVeraSans-Roman-67"/>
      <path d="M 37.109375 75.984375 
L 37.109375 68.5 
L 28.515625 68.5 
Q 23.6875 68.5 21.796875 66.546875 
Q 19.921875 64.59375 19.921875 59.515625 
L 19.921875 54.6875 
L 34.71875 54.6875 
L 34.71875 47.703125 
L 19.921875 47.703125 
L 19.921875 0 
L 10.890625 0 
L 10.890625 47.703125 
L 2.296875 47.703125 
L 2.296875 54.6875 
L 10.890625 54.6875 
L 10.890625 58.5 
Q 10.890625 67.625 15.140625 71.796875 
Q 19.390625 75.984375 28.609375 75.984375 
z
" id="BitstreamVeraSans-Roman-66"/>
     </defs>
     <g transform="translate(175.2140625 396.353125)scale(0.2 -0.2)">
      <use xlink:href="#BitstreamVeraSans-Roman-6c"/>
      <use x="27.783203125" xlink:href="#BitstreamVeraSans-Roman-6f"/>
      <use x="88.96484375" xlink:href="#BitstreamVeraSans-Roman-67"/>
      <use x="152.44140625" xlink:href="#BitstreamVeraSans-Roman-31"/>
      <use x="216.064453125" xlink:href="#BitstreamVeraSans-Roman-30"/>
      <use x="279.6875" xlink:href="#BitstreamVeraSans-Roman-20"/>
      <use x="311.474609375" xlink:href="#BitstreamVeraSans-Roman-6f"/>
      <use x="372.65625" xlink:href="#BitstreamVeraSans-Roman-66"/>
      <use x="407.861328125" xlink:href="#BitstreamVeraSans-Roman-20"/>
      <use x="439.6484375" xlink:href="#BitstreamVeraSans-Roman-44"/>
      <use x="516.650390625" xlink:href="#BitstreamVeraSans-Roman-66"/>
     </g>
    </g>
   </g>
   <g id="matplotlib.axis_2">
    <g id="ytick_1">
     <g id="line2d_52">
      <path clip-path="url(#p324de41026)" d="M 7.2 352.8 
L 453.6 352.8 
" style="fill:none;stroke:#000000;stroke-dasharray:1.000000,3.000000;stroke-dashoffset:0.0;stroke-width:0.5;"/>
     </g>
     <g id="line2d_53">
      <defs>
       <path d="M 0 0 
L 4 0 
" id="me6426c1edd" style="stroke:#000000;stroke-width:0.5;"/>
      </defs>
      <g>
       <use style="stroke:#000000;stroke-width:0.5;" x="7.2" xlink:href="#me6426c1edd" y="352.8"/>
      </g>
     </g>
     <g id="line2d_54">
      <defs>
       <path d="M 0 0 
L -4 0 
" id="m5141ac60d7" style="stroke:#000000;stroke-width:0.5;"/>
      </defs>
      <g>
       <use style="stroke:#000000;stroke-width:0.5;" x="453.6" xlink:href="#m5141ac60d7" y="352.8"/>
      </g>
     </g>
    </g>
    <g id="ytick_2">
     <g id="line2d_55">
      <path clip-path="url(#p324de41026)" d="M 7.2 284.364356 
L 453.6 284.364356 
" style="fill:none;stroke:#000000;stroke-dasharray:1.000000,3.000000;stroke-dashoffset:0.0;stroke-width:0.5;"/>
     </g>
     <g id="line2d_56">
      <g>
       <use style="stroke:#000000;stroke-width:0.5;" x="7.2" xlink:href="#me6426c1edd" y="284.364356436"/>
      </g>
     </g>
     <g id="line2d_57">
      <g>
       <use style="stroke:#000000;stroke-width:0.5;" x="453.6" xlink:href="#m5141ac60d7" y="284.364356436"/>
      </g>
     </g>
    </g>
    <g id="ytick_3">
     <g id="line2d_58">
      <path clip-path="url(#p324de41026)" d="M 7.2 215.928713 
L 453.6 215.928713 
" style="fill:none;stroke:#000000;stroke-dasharray:1.000000,3.000000;stroke-dashoffset:0.0;stroke-width:0.5;"/>
     </g>
     <g id="line2d_59">
      <g>
       <use style="stroke:#000000;stroke-width:0.5;" x="7.2" xlink:href="#me6426c1edd" y="215.928712871"/>
      </g>
     </g>
     <g id="line2d_60">
      <g>
       <use style="stroke:#000000;stroke-width:0.5;" x="453.6" xlink:href="#m5141ac60d7" y="215.928712871"/>
      </g>
     </g>
    </g>
    <g id="ytick_4">
     <g id="line2d_61">
      <path clip-path="url(#p324de41026)" d="M 7.2 147.493069 
L 453.6 147.493069 
" style="fill:none;stroke:#000000;stroke-dasharray:1.000000,3.000000;stroke-dashoffset:0.0;stroke-width:0.5;"/>
     </g>
     <g id="line2d_62">
      <g>
       <use style="stroke:#000000;stroke-width:0.5;" x="7.2" xlink:href="#me6426c1edd" y="147.493069307"/>
      </g>
     </g>
     <g id="line2d_63">
      <g>
       <use style="stroke:#000000;stroke-width:0.5;" x="453.6" xlink:href="#m5141ac60d7" y="147.493069307"/>
      </g>
     </g>
    </g>
    <g id="ytick_5">
     <g id="line2d_64">
      <path clip-path="url(#p324de41026)" d="M 7.2 79.057426 
L 453.6 79.057426 
" style="fill:none;stroke:#000000;stroke-dasharray:1.000000,3.000000;stroke-dashoffset:0.0;stroke-width:0.5;"/>
     </g>
     <g id="line2d_65">
      <g>
       <use style="stroke:#000000;stroke-width:0.5;" x="7.2" xlink:href="#me6426c1edd" y="79.0574257426"/>
      </g>
     </g>
     <g id="line2d_66">
      <g>
       <use style="stroke:#000000;stroke-width:0.5;" x="453.6" xlink:href="#m5141ac60d7" y="79.0574257426"/>
      </g>
     </g>
    </g>
    <g id="ytick_6">
     <g id="line2d_67">
      <path clip-path="url(#p324de41026)" d="M 7.2 10.621782 
L 453.6 10.621782 
" style="fill:none;stroke:#000000;stroke-dasharray:1.000000,3.000000;stroke-dashoffset:0.0;stroke-width:0.5;"/>
     </g>
     <g id="line2d_68">
      <g>
       <use style="stroke:#000000;stroke-width:0.5;" x="7.2" xlink:href="#me6426c1edd" y="10.6217821782"/>
      </g>
     </g>
     <g id="line2d_69">
      <g>
       <use style="stroke:#000000;stroke-width:0.5;" x="453.6" xlink:href="#m5141ac60d7" y="10.6217821782"/>
      </g>
     </g>
    </g>
   </g>
   <g id="text_10">
    <!-- {f15-f19}, 5-D -->
    <defs>
     <path d="M 12.5 -9.28125 
L 15.921875 -9.28125 
Q 22.75 -9.28125 24.828125 -7.171875 
Q 26.90625 -5.078125 26.90625 1.90625 
L 26.90625 14.015625 
Q 26.90625 21.625 29.09375 25.09375 
Q 31.296875 28.5625 36.71875 29.890625 
Q 31.296875 31.109375 29.09375 34.5625 
Q 26.90625 38.03125 26.90625 45.703125 
L 26.90625 57.8125 
Q 26.90625 64.75 24.828125 66.875 
Q 22.75 69 15.921875 69 
L 12.5 69 
L 12.5 75.984375 
L 15.578125 75.984375 
Q 27.734375 75.984375 31.8125 72.390625 
Q 35.890625 68.796875 35.890625 58.015625 
L 35.890625 46.296875 
Q 35.890625 39.015625 38.515625 36.203125 
Q 41.15625 33.40625 48.09375 33.40625 
L 51.125 33.40625 
L 51.125 26.421875 
L 48.09375 26.421875 
Q 41.15625 26.421875 38.515625 23.578125 
Q 35.890625 20.75 35.890625 13.375 
L 35.890625 1.703125 
Q 35.890625 -9.078125 31.8125 -12.6875 
Q 27.734375 -16.3125 15.578125 -16.3125 
L 12.5 -16.3125 
z
" id="BitstreamVeraSans-Roman-7d"/>
     <path d="M 10.984375 1.515625 
L 10.984375 10.5 
Q 14.703125 8.734375 18.5 7.8125 
Q 22.3125 6.890625 25.984375 6.890625 
Q 35.75 6.890625 40.890625 13.453125 
Q 46.046875 20.015625 46.78125 33.40625 
Q 43.953125 29.203125 39.59375 26.953125 
Q 35.25 24.703125 29.984375 24.703125 
Q 19.046875 24.703125 12.671875 31.3125 
Q 6.296875 37.9375 6.296875 49.421875 
Q 6.296875 60.640625 12.9375 67.421875 
Q 19.578125 74.21875 30.609375 74.21875 
Q 43.265625 74.21875 49.921875 64.515625 
Q 56.59375 54.828125 56.59375 36.375 
Q 56.59375 19.140625 48.40625 8.859375 
Q 40.234375 -1.421875 26.421875 -1.421875 
Q 22.703125 -1.421875 18.890625 -0.6875 
Q 15.09375 0.046875 10.984375 1.515625 
M 30.609375 32.421875 
Q 37.25 32.421875 41.125 36.953125 
Q 45.015625 41.5 45.015625 49.421875 
Q 45.015625 57.28125 41.125 61.84375 
Q 37.25 66.40625 30.609375 66.40625 
Q 23.96875 66.40625 20.09375 61.84375 
Q 16.21875 57.28125 16.21875 49.421875 
Q 16.21875 41.5 20.09375 36.953125 
Q 23.96875 32.421875 30.609375 32.421875 
" id="BitstreamVeraSans-Roman-39"/>
     <path d="M 51.125 -9.28125 
L 51.125 -16.3125 
L 48.09375 -16.3125 
Q 35.9375 -16.3125 31.8125 -12.6875 
Q 27.6875 -9.078125 27.6875 1.703125 
L 27.6875 13.375 
Q 27.6875 20.75 25.046875 23.578125 
Q 22.40625 26.421875 15.484375 26.421875 
L 12.5 26.421875 
L 12.5 33.40625 
L 15.484375 33.40625 
Q 22.46875 33.40625 25.078125 36.203125 
Q 27.6875 39.015625 27.6875 46.296875 
L 27.6875 58.015625 
Q 27.6875 68.796875 31.8125 72.390625 
Q 35.9375 75.984375 48.09375 75.984375 
L 51.125 75.984375 
L 51.125 69 
L 47.796875 69 
Q 40.921875 69 38.8125 66.84375 
Q 36.71875 64.703125 36.71875 57.8125 
L 36.71875 45.703125 
Q 36.71875 38.03125 34.5 34.5625 
Q 32.28125 31.109375 26.90625 29.890625 
Q 32.328125 28.5625 34.515625 25.09375 
Q 36.71875 21.625 36.71875 14.015625 
L 36.71875 1.90625 
Q 36.71875 -4.984375 38.8125 -7.125 
Q 40.921875 -9.28125 47.796875 -9.28125 
z
" id="BitstreamVeraSans-Roman-7b"/>
     <path d="M 11.71875 12.40625 
L 22.015625 12.40625 
L 22.015625 4 
L 14.015625 -11.625 
L 7.71875 -11.625 
L 11.71875 4 
z
" id="BitstreamVeraSans-Roman-2c"/>
     <path d="M 10.796875 72.90625 
L 49.515625 72.90625 
L 49.515625 64.59375 
L 19.828125 64.59375 
L 19.828125 46.734375 
Q 21.96875 47.46875 24.109375 47.828125 
Q 26.265625 48.1875 28.421875 48.1875 
Q 40.625 48.1875 47.75 41.5 
Q 54.890625 34.8125 54.890625 23.390625 
Q 54.890625 11.625 47.5625 5.09375 
Q 40.234375 -1.421875 26.90625 -1.421875 
Q 22.3125 -1.421875 17.546875 -0.640625 
Q 12.796875 0.140625 7.71875 1.703125 
L 7.71875 11.625 
Q 12.109375 9.234375 16.796875 8.0625 
Q 21.484375 6.890625 26.703125 6.890625 
Q 35.15625 6.890625 40.078125 11.328125 
Q 45.015625 15.765625 45.015625 23.390625 
Q 45.015625 31 40.078125 35.4375 
Q 35.15625 39.890625 26.703125 39.890625 
Q 22.75 39.890625 18.8125 39.015625 
Q 14.890625 38.140625 10.796875 36.28125 
z
" id="BitstreamVeraSans-Roman-35"/>
    </defs>
    <g transform="translate(298.972 345.888)scale(0.2 -0.2)">
     <use xlink:href="#BitstreamVeraSans-Roman-7b"/>
     <use x="63.623046875" xlink:href="#BitstreamVeraSans-Roman-66"/>
     <use x="98.828125" xlink:href="#BitstreamVeraSans-Roman-31"/>
     <use x="162.451171875" xlink:href="#BitstreamVeraSans-Roman-35"/>
     <use x="226.07421875" xlink:href="#BitstreamVeraSans-Roman-2d"/>
     <use x="262.158203125" xlink:href="#BitstreamVeraSans-Roman-66"/>
     <use x="297.36328125" xlink:href="#BitstreamVeraSans-Roman-31"/>
     <use x="360.986328125" xlink:href="#BitstreamVeraSans-Roman-39"/>
     <use x="424.609375" xlink:href="#BitstreamVeraSans-Roman-7d"/>
     <use x="488.232421875" xlink:href="#BitstreamVeraSans-Roman-2c"/>
     <use x="520.01953125" xlink:href="#BitstreamVeraSans-Roman-20"/>
     <use x="551.806640625" xlink:href="#BitstreamVeraSans-Roman-35"/>
     <use x="615.4296875" xlink:href="#BitstreamVeraSans-Roman-2d"/>
     <use x="651.513671875" xlink:href="#BitstreamVeraSans-Roman-44"/>
    </g>
   </g>
   <g id="text_11">
    <!-- 0.0.0 -->
    <defs>
     <path d="M 10.6875 12.40625 
L 21 12.40625 
L 21 0 
L 10.6875 0 
z
" id="BitstreamVeraSans-Roman-2e"/>
    </defs>
    <g style="fill:#808080;" transform="translate(217.678125 347.2643125)scale(0.1 -0.1)">
     <use xlink:href="#BitstreamVeraSans-Roman-30"/>
     <use x="63.623046875" xlink:href="#BitstreamVeraSans-Roman-2e"/>
     <use x="95.41015625" xlink:href="#BitstreamVeraSans-Roman-30"/>
     <use x="159.033203125" xlink:href="#BitstreamVeraSans-Roman-2e"/>
     <use x="190.8203125" xlink:href="#BitstreamVeraSans-Roman-30"/>
    </g>
   </g>
  </g>
 </g>
 <defs>
  <clipPath id="p324de41026">
   <rect height="345.6" width="446.4" x="7.2" y="7.2"/>
  </clipPath>
 </defs>
</svg>
