<?xml version="1.0" encoding="utf-8" standalone="no"?>
<!DOCTYPE svg PUBLIC "-//W3C//DTD SVG 1.1//EN"
  "http://www.w3.org/Graphics/SVG/1.1/DTD/svg11.dtd">
<!-- Created with matplotlib (http://matplotlib.org/) -->
<svg height="407pt" version="1.1" viewBox="0 0 460 407" width="460pt" xmlns="http://www.w3.org/2000/svg" xmlns:xlink="http://www.w3.org/1999/xlink">
 <defs>
  <style type="text/css">
*{stroke-linecap:butt;stroke-linejoin:round;stroke-miterlimit:100000;}
  </style>
 </defs>
 <g id="figure_1">
  <g id="patch_1">
   <path d="M 0 407.7125 
L 460.8 407.7125 
L 460.8 0 
L 0 0 
z
" style="fill:#ffffff;"/>
  </g>
  <g id="axes_1">
   <g id="patch_2">
    <path d="M 7.2 352.8 
L 453.6 352.8 
L 453.6 7.2 
L 7.2 7.2 
z
" style="fill:#ffffff;"/>
   </g>
   <g id="line2d_1">
    <path clip-path="url(#pa3498a1152)" d="M -1 275.239604 
L 7.092804 275.239604 
L 7.092804 138.368317 
L 205.486009 138.368317 
L 205.486009 133.805941 
L 212.95334 133.805941 
L 212.955501 110.994059 
L 214.145346 110.994059 
L 214.145346 106.431683 
L 215.419155 106.431683 
L 215.419155 101.869307 
L 217.321451 101.869307 
L 217.321451 97.306931 
L 219.004314 97.306931 
L 219.004314 92.744554 
L 219.864067 92.744554 
L 219.864067 88.182178 
L 220.855831 88.182178 
L 220.855831 83.619802 
L 221.221773 83.619802 
L 221.221773 79.057426 
L 222.385837 79.057426 
L 222.385837 74.49505 
L 224.788779 74.49505 
L 224.788865 60.807921 
L 225.168644 60.807921 
L 225.168644 56.245545 
L 226.449541 56.245545 
L 226.449541 51.683168 
L 227.028283 51.683168 
L 227.028283 47.120792 
L 227.888006 47.120792 
L 227.888008 33.433663 
L 229.157475 33.433663 
L 229.157475 28.871287 
L 232.624712 28.871287 
L 232.624712 24.308911 
L 235.355331 24.308911 
L 235.355331 19.746535 
L 236.624176 19.746535 
L 236.624176 15.184158 
L 237.20665 15.184158 
L 237.20665 10.621782 
L 237.20665 10.621782 
L 453.6 10.621782 
L 453.6 10.621782 
" style="fill:none;stroke:#ff0000;stroke-linecap:square;stroke-width:3.0;"/>
   </g>
   <g id="line2d_2">
    <path clip-path="url(#pa3498a1152)" d="M 242.61634 352.8 
L 242.61634 348.237624 
L 244.622271 348.237624 
L 244.622271 343.675248 
L 245.165034 343.675248 
L 245.165034 339.112871 
L 248.470761 339.112871 
L 248.470761 334.550495 
L 248.779237 334.550495 
L 248.779237 329.988119 
L 249.135057 329.988119 
L 249.167982 320.863366 
L 249.446195 320.863366 
L 249.446195 316.30099 
L 250.089306 316.30099 
L 250.089306 311.738614 
L 250.646356 311.738614 
L 250.646356 307.176238 
L 251.527404 307.176238 
L 251.560604 298.051485 
L 253.184692 298.051485 
L 253.184692 293.489109 
L 253.349399 293.489109 
L 253.359123 284.364356 
L 253.618555 284.364356 
L 253.618555 279.80198 
L 254.220489 279.80198 
L 254.220489 275.239604 
L 255.141602 275.239604 
L 255.171639 266.114851 
L 256.717925 266.114851 
L 256.823985 247.865347 
L 257.433438 247.865347 
L 257.433438 243.30297 
L 258.207186 243.30297 
L 258.207186 238.740594 
L 258.695355 238.740594 
L 258.695355 234.178218 
L 259.042062 234.178218 
L 259.042062 229.615842 
L 259.187944 229.615842 
L 259.187944 225.053465 
L 259.385221 225.053465 
L 259.385221 220.491089 
L 260.030829 220.491089 
L 260.030829 215.928713 
L 260.147966 215.928713 
L 260.147966 211.366337 
L 260.673593 211.366337 
L 260.673593 206.80396 
L 261.073882 206.80396 
L 261.073882 202.241584 
L 265.28124 202.241584 
L 265.33115 193.116832 
L 266.121974 193.116832 
L 266.121974 188.554455 
L 266.267814 188.554455 
L 266.267814 183.992079 
L 271.194316 183.992079 
L 271.194316 179.429703 
L 271.579857 179.429703 
L 271.579857 174.867327 
L 272.248183 174.867327 
L 272.295772 165.742574 
L 272.985632 165.742574 
L 272.985632 161.180198 
L 273.382605 161.180198 
L 273.382605 156.617822 
L 274.546261 156.617822 
L 274.546261 152.055446 
L 275.757365 152.055446 
L 275.757365 147.493069 
L 276.532945 147.493069 
L 276.532945 142.930693 
L 280.247691 142.930693 
L 280.247691 138.368317 
L 280.460018 138.368317 
L 280.460018 133.805941 
L 280.734243 133.805941 
L 280.734243 129.243564 
L 283.962703 129.243564 
L 283.962703 124.681188 
L 284.692829 124.681188 
L 284.692829 120.118812 
L 285.287291 120.118812 
L 285.287291 115.556436 
L 285.881203 115.556436 
L 285.881203 110.994059 
L 289.541083 110.994059 
L 289.541083 106.431683 
L 291.731575 106.431683 
L 291.731575 101.869307 
L 291.863616 101.869307 
L 291.863616 97.306931 
L 299.516575 97.306931 
L 299.516575 92.744554 
L 305.542775 92.744554 
L 305.542775 88.182178 
L 306.501805 88.182178 
L 306.501805 83.619802 
L 308.790213 83.619802 
L 308.790213 79.057426 
L 331.327067 79.057426 
L 331.327067 74.49505 
L 350.232974 74.49505 
L 350.232974 69.932673 
L 351.765567 69.932673 
L 351.765567 65.370297 
L 351.885345 65.370297 
L 351.885345 60.807921 
L 360.176687 60.807921 
L 360.176687 56.245545 
L 361.573499 56.245545 
L 361.573499 51.683168 
L 364.035144 51.683168 
L 364.035144 47.120792 
L 365.25531 47.120792 
L 365.25531 42.558416 
L 378.698879 42.558416 
L 378.698879 37.99604 
L 378.838828 37.99604 
L 378.838828 33.433663 
L 383.943187 33.433663 
L 383.943187 28.871287 
L 390.865216 28.871287 
L 390.865216 24.308911 
L 392.659939 24.308911 
L 392.659939 19.746535 
L 393.39212 19.746535 
L 393.39212 15.184158 
L 394.688655 15.184158 
L 394.688655 10.621782 
L 394.688655 10.621782 
L 453.6 10.621782 
L 453.6 10.621782 
" style="fill:none;stroke:#00bfbf;stroke-linecap:square;"/>
   </g>
   <g id="line2d_3">
    <path clip-path="url(#pa3498a1152)" d="M 237.548218 352.8 
L 237.548218 348.237624 
L 239.663777 348.237624 
L 239.663777 343.675248 
L 242.61634 343.675248 
L 242.61634 339.112871 
L 243.702071 339.112871 
L 243.702071 334.550495 
L 244.622271 334.550495 
L 244.622271 329.988119 
L 245.165034 329.988119 
L 245.165034 325.425743 
L 245.92545 325.425743 
L 245.92545 320.863366 
L 246.66454 320.863366 
L 246.66454 316.30099 
L 246.82907 316.30099 
L 246.82907 311.738614 
L 247.447562 311.738614 
L 247.451672 302.613861 
L 247.719903 302.613861 
L 247.719903 298.051485 
L 248.014897 298.051485 
L 248.014897 293.489109 
L 249.135057 293.489109 
L 249.213571 279.80198 
L 249.446195 279.80198 
L 249.446195 275.239604 
L 249.883359 275.239604 
L 249.883359 270.677228 
L 250.089306 270.677228 
L 250.089306 266.114851 
L 251.022359 266.114851 
L 251.022359 261.552475 
L 252.736086 261.552475 
L 252.736086 256.990099 
L 253.625108 256.990099 
L 253.627114 247.865347 
L 254.660706 247.865347 
L 254.718452 238.740594 
L 254.87861 238.740594 
L 254.87861 234.178218 
L 255.141602 234.178218 
L 255.141602 229.615842 
L 255.489311 229.615842 
L 255.489311 225.053465 
L 256.720279 225.053465 
L 256.823985 215.928713 
L 258.030693 215.928713 
L 258.030693 211.366337 
L 258.971237 211.366337 
L 258.971237 206.80396 
L 260.147966 206.80396 
L 260.147966 202.241584 
L 260.28678 202.241584 
L 260.28678 197.679208 
L 260.673593 197.679208 
L 260.673593 193.116832 
L 261.768939 193.116832 
L 261.768939 188.554455 
L 262.836678 188.554455 
L 262.836678 183.992079 
L 264.182224 183.992079 
L 264.182224 179.429703 
L 264.982381 179.429703 
L 264.982381 174.867327 
L 266.267814 174.867327 
L 266.267814 170.30495 
L 266.57852 170.30495 
L 266.648091 161.180198 
L 267.197306 161.180198 
L 267.197306 156.617822 
L 267.533377 156.617822 
L 267.533377 152.055446 
L 268.856832 152.055446 
L 268.856832 147.493069 
L 270.24112 147.493069 
L 270.24112 142.930693 
L 270.796519 142.930693 
L 270.796519 138.368317 
L 271.555169 138.368317 
L 271.579857 129.243564 
L 272.295772 129.243564 
L 272.295772 124.681188 
L 272.527159 124.681188 
L 272.527159 120.118812 
L 272.848876 120.118812 
L 272.848876 115.556436 
L 272.985632 115.556436 
L 272.985632 110.994059 
L 274.287455 110.994059 
L 274.287455 106.431683 
L 275.757365 106.431683 
L 275.757365 101.869307 
L 278.547141 101.869307 
L 278.547141 97.306931 
L 280.162644 97.306931 
L 280.162644 92.744554 
L 280.734243 92.744554 
L 280.734243 88.182178 
L 285.593963 88.182178 
L 285.599512 79.057426 
L 331.327067 79.057426 
L 331.327067 74.49505 
L 337.600521 74.49505 
L 337.600521 69.932673 
L 347.152293 69.932673 
L 347.152293 65.370297 
L 348.554417 65.370297 
L 348.554417 60.807921 
L 350.232974 60.807921 
L 350.232974 56.245545 
L 350.63168 56.245545 
L 350.63168 51.683168 
L 351.380749 51.683168 
L 351.380749 47.120792 
L 351.765567 47.120792 
L 351.765567 42.558416 
L 359.59829 42.558416 
L 359.59829 37.99604 
L 365.25531 37.99604 
L 365.25531 33.433663 
L 366.426805 33.433663 
L 366.426805 28.871287 
L 372.64094 28.871287 
L 372.64094 24.308911 
L 374.283888 24.308911 
L 374.283888 19.746535 
L 383.253076 19.746535 
L 383.253076 15.184158 
L 391.066052 15.184158 
L 391.066052 10.621782 
L 391.066052 10.621782 
L 453.6 10.621782 
L 453.6 10.621782 
" style="fill:none;stroke:#bf00bf;stroke-linecap:square;"/>
   </g>
   <g id="line2d_4">
    <path clip-path="url(#pa3498a1152)" d="M 233.437033 352.8 
L 233.437033 348.237624 
L 237.394394 348.237624 
L 237.394394 343.675248 
L 237.548218 343.675248 
L 237.548218 339.112871 
L 239.663777 339.112871 
L 239.693979 329.988119 
L 241.491225 329.988119 
L 241.491225 325.425743 
L 242.259727 325.425743 
L 242.259727 320.863366 
L 242.61634 320.863366 
L 242.667268 311.738614 
L 242.805105 311.738614 
L 242.805105 307.176238 
L 242.923321 307.176238 
L 242.923321 302.613861 
L 243.702071 302.613861 
L 243.702071 298.051485 
L 244.622271 298.051485 
L 244.622271 293.489109 
L 245.328387 293.489109 
L 245.328387 288.926733 
L 245.615576 288.926733 
L 245.615576 284.364356 
L 245.924161 284.364356 
L 245.924161 279.80198 
L 247.451672 279.80198 
L 247.451672 275.239604 
L 248.014897 275.239604 
L 248.014897 270.677228 
L 249.135057 270.677228 
L 249.213571 256.990099 
L 249.768565 256.990099 
L 249.836454 247.865347 
L 249.900416 247.865347 
L 249.900416 243.30297 
L 251.022359 243.30297 
L 251.022359 238.740594 
L 252.546215 238.740594 
L 252.546215 234.178218 
L 253.627114 234.178218 
L 253.627114 229.615842 
L 253.767256 229.615842 
L 253.767256 225.053465 
L 253.934975 225.053465 
L 253.934975 220.491089 
L 254.688339 220.491089 
L 254.718452 206.80396 
L 255.489311 206.80396 
L 255.489311 202.241584 
L 257.646727 202.241584 
L 257.669937 193.116832 
L 257.861203 193.116832 
L 257.928251 183.992079 
L 258.724289 183.992079 
L 258.724289 179.429703 
L 259.35381 179.429703 
L 259.35381 174.867327 
L 259.972566 174.867327 
L 260.045173 165.742574 
L 260.147966 165.742574 
L 260.147966 161.180198 
L 260.82627 161.180198 
L 260.82627 156.617822 
L 260.988598 156.617822 
L 260.988598 152.055446 
L 261.305738 152.055446 
L 261.305738 147.493069 
L 262.836678 147.493069 
L 262.836678 142.930693 
L 264.182224 142.930693 
L 264.182224 138.368317 
L 264.309364 138.368317 
L 264.309364 133.805941 
L 264.926505 133.805941 
L 264.926505 129.243564 
L 265.374603 129.243564 
L 265.374603 124.681188 
L 267.533377 124.681188 
L 267.533377 120.118812 
L 268.427825 120.118812 
L 268.427825 115.556436 
L 268.856832 115.556436 
L 268.856832 110.994059 
L 269.83207 110.994059 
L 269.83207 106.431683 
L 272.527159 106.431683 
L 272.527159 101.869307 
L 272.848876 101.869307 
L 272.848876 97.306931 
L 273.635865 97.306931 
L 273.635865 92.744554 
L 274.287455 92.744554 
L 274.287455 88.182178 
L 278.930014 88.182178 
L 278.930014 83.619802 
L 281.92565 83.619802 
L 281.92565 79.057426 
L 328.814076 79.057426 
L 328.814076 74.49505 
L 330.378045 74.49505 
L 330.378045 69.932673 
L 331.327067 69.932673 
L 331.327067 65.370297 
L 337.600521 65.370297 
L 337.600521 60.807921 
L 340.440501 60.807921 
L 340.440501 56.245545 
L 340.904178 56.245545 
L 340.904178 51.683168 
L 342.653154 51.683168 
L 342.653154 47.120792 
L 347.152293 47.120792 
L 347.152293 42.558416 
L 350.232974 42.558416 
L 350.232974 37.99604 
L 350.63168 37.99604 
L 350.63168 33.433663 
L 351.765567 33.433663 
L 351.765567 28.871287 
L 366.426805 28.871287 
L 366.426805 24.308911 
L 372.64094 24.308911 
L 372.64094 19.746535 
L 374.283888 19.746535 
L 374.283888 15.184158 
L 376.876278 15.184158 
L 376.876278 10.621782 
L 376.876278 10.621782 
L 453.6 10.621782 
L 453.6 10.621782 
" style="fill:none;stroke:#000000;stroke-linecap:square;"/>
   </g>
   <g id="line2d_5">
    <path clip-path="url(#pa3498a1152)" d="M 7.092804 352.8 
L 7.092804 348.237624 
L 219.745978 348.237624 
L 219.745978 343.675248 
L 220.121369 343.675248 
L 220.121369 339.112871 
L 226.437562 339.112871 
L 226.515533 329.988119 
L 226.922795 329.988119 
L 226.922795 325.425743 
L 229.855648 325.425743 
L 229.855648 320.863366 
L 230.065566 320.863366 
L 230.065566 316.30099 
L 232.079421 316.30099 
L 232.079421 311.738614 
L 232.207134 311.738614 
L 232.207134 307.176238 
L 233.259857 307.176238 
L 233.259857 302.613861 
L 234.268918 302.613861 
L 234.268918 298.051485 
L 235.203463 298.051485 
L 235.203463 293.489109 
L 236.364828 293.489109 
L 236.388175 284.364356 
L 237.699283 284.364356 
L 237.783946 275.239604 
L 238.309941 275.239604 
L 238.309941 270.677228 
L 238.937699 270.677228 
L 238.937699 266.114851 
L 239.076016 266.114851 
L 239.076016 261.552475 
L 240.878399 261.552475 
L 240.878399 256.990099 
L 240.998483 256.990099 
L 240.998483 252.427723 
L 241.654984 252.427723 
L 241.654984 247.865347 
L 242.455068 247.865347 
L 242.455068 243.30297 
L 242.923321 243.30297 
L 242.928482 234.178218 
L 243.977153 234.178218 
L 244.045104 225.053465 
L 245.435195 225.053465 
L 245.435195 220.491089 
L 246.820744 220.491089 
L 246.820744 215.928713 
L 247.045103 215.928713 
L 247.151269 206.80396 
L 250.424552 206.80396 
L 250.424552 202.241584 
L 250.780581 202.241584 
L 250.780581 197.679208 
L 251.003788 197.679208 
L 251.003788 193.116832 
L 252.110216 193.116832 
L 252.110216 188.554455 
L 254.006948 188.554455 
L 254.006948 183.992079 
L 254.563646 183.992079 
L 254.563646 179.429703 
L 255.940864 179.429703 
L 255.940864 174.867327 
L 256.294842 174.867327 
L 256.294842 170.30495 
L 257.136375 170.30495 
L 257.136375 165.742574 
L 257.646727 165.742574 
L 257.646727 161.180198 
L 257.861203 161.180198 
L 257.861203 156.617822 
L 258.262661 156.617822 
L 258.262661 152.055446 
L 258.478841 152.055446 
L 258.5633 142.930693 
L 258.598625 142.930693 
L 258.598625 138.368317 
L 259.794455 138.368317 
L 259.794455 133.805941 
L 260.260189 133.805941 
L 260.260189 129.243564 
L 260.48591 129.243564 
L 260.48591 124.681188 
L 260.82627 124.681188 
L 260.82627 120.118812 
L 262.007466 120.118812 
L 262.007466 115.556436 
L 265.214397 115.556436 
L 265.214397 110.994059 
L 265.790705 110.994059 
L 265.790705 106.431683 
L 266.222346 106.431683 
L 266.222346 101.869307 
L 266.541093 101.869307 
L 266.541093 97.306931 
L 267.533377 97.306931 
L 267.533377 92.744554 
L 267.853761 92.744554 
L 267.853761 88.182178 
L 269.930901 88.182178 
L 269.930901 83.619802 
L 271.800507 83.619802 
L 271.800507 79.057426 
L 321.571095 79.057426 
L 321.571095 74.49505 
L 322.579363 74.49505 
L 322.63477 65.370297 
L 327.270151 65.370297 
L 327.270151 60.807921 
L 328.787445 60.807921 
L 328.814076 51.683168 
L 330.378045 51.683168 
L 330.378045 47.120792 
L 331.606039 47.120792 
L 331.606039 42.558416 
L 333.187906 42.558416 
L 333.187906 37.99604 
L 333.476907 37.99604 
L 333.476907 33.433663 
L 338.488223 33.433663 
L 338.488223 28.871287 
L 341.929625 28.871287 
L 341.929625 24.308911 
L 351.765567 24.308911 
L 351.765567 19.746535 
L 353.681843 19.746535 
L 353.681843 15.184158 
L 365.821771 15.184158 
L 365.821771 10.621782 
L 365.821771 10.621782 
L 453.6 10.621782 
L 453.6 10.621782 
" style="fill:none;stroke:#00bfbf;stroke-linecap:square;"/>
   </g>
   <g id="line2d_6">
    <path clip-path="url(#pa3498a1152)" d="M 7.092804 352.8 
L 7.092804 348.237624 
L 7.092804 348.237624 
L 7.092804 348.237624 
L 7.092804 343.675248 
L 7.092804 343.675248 
L 7.092804 343.675248 
L 7.092804 339.112871 
L 7.092804 339.112871 
L 7.092804 339.112871 
L 7.092804 334.550495 
L 7.092804 334.550495 
L 7.092804 334.550495 
L 7.092804 329.988119 
L 7.092804 329.988119 
L 7.092804 329.988119 
L 7.092804 325.425743 
L 7.092804 325.425743 
L 7.092804 325.425743 
L 7.092804 320.863366 
L 7.092804 320.863366 
L 7.092804 320.863366 
L 7.092804 316.30099 
L 7.092804 316.30099 
L 7.092804 316.30099 
L 7.092804 311.738614 
L 7.092804 311.738614 
L 7.092804 311.738614 
L 7.092804 307.176238 
L 7.092804 307.176238 
L 7.092804 307.176238 
L 7.092804 302.613861 
L 7.092804 302.613861 
L 7.092804 302.613861 
L 7.092804 298.051485 
L 7.092804 298.051485 
L 7.092804 298.051485 
L 7.092804 293.489109 
L 7.092804 293.489109 
L 7.092804 293.489109 
L 7.092804 288.926733 
L 7.092804 288.926733 
L 7.092804 288.926733 
L 7.092804 284.364356 
L 132.930956 284.364356 
L 132.930956 279.80198 
L 134.57403 279.80198 
L 134.57403 275.239604 
L 138.199656 275.239604 
L 138.199656 270.677228 
L 138.579949 270.677228 
L 138.579949 266.114851 
L 145.366822 266.114851 
L 145.366822 261.552475 
L 147.00186 261.552475 
L 147.00186 256.990099 
L 155.785114 256.990099 
L 155.80408 247.865347 
L 158.798983 247.865347 
L 158.798983 243.30297 
L 160.345069 243.30297 
L 160.345069 238.740594 
L 163.377541 238.740594 
L 163.377541 234.178218 
L 164.851566 234.178218 
L 164.851566 229.615842 
L 176.788238 229.615842 
L 176.788238 225.053465 
L 180.161634 225.053465 
L 180.161634 220.491089 
L 184.069028 220.491089 
L 184.069028 215.928713 
L 226.359044 215.928713 
L 226.359044 211.366337 
L 227.238615 211.366337 
L 227.238615 206.80396 
L 229.17243 206.80396 
L 229.17243 202.241584 
L 230.089322 202.241584 
L 230.089322 197.679208 
L 230.341166 197.679208 
L 230.341166 193.116832 
L 232.861567 193.116832 
L 232.861567 188.554455 
L 233.389986 188.554455 
L 233.389986 183.992079 
L 234.363261 183.992079 
L 234.363261 179.429703 
L 234.501252 179.429703 
L 234.526075 170.30495 
L 234.858564 170.30495 
L 234.858564 165.742574 
L 235.022445 165.742574 
L 235.022445 161.180198 
L 235.497898 161.180198 
L 235.497898 156.617822 
L 236.270543 156.617822 
L 236.270543 152.055446 
L 237.622 152.055446 
L 237.722986 142.930693 
L 238.189368 142.930693 
L 238.189368 138.368317 
L 238.498833 138.368317 
L 238.511753 129.243564 
L 239.175785 129.243564 
L 239.175785 124.681188 
L 239.669895 124.681188 
L 239.707967 115.556436 
L 240.180072 115.556436 
L 240.259665 106.431683 
L 240.45129 106.431683 
L 240.45129 101.869307 
L 241.516156 101.869307 
L 241.516156 97.306931 
L 241.808542 97.306931 
L 241.808542 92.744554 
L 242.096365 92.744554 
L 242.096365 88.182178 
L 243.59509 88.182178 
L 243.59509 83.619802 
L 244.431847 83.619802 
L 244.431847 79.057426 
L 244.705079 79.057426 
L 244.705079 74.49505 
L 246.815783 74.49505 
L 246.912372 65.370297 
L 249.070913 65.370297 
L 249.070913 60.807921 
L 260.28104 60.807921 
L 260.28104 56.245545 
L 268.930539 56.245545 
L 268.930539 51.683168 
L 273.960351 51.683168 
L 273.960351 47.120792 
L 274.13855 47.120792 
L 274.13855 42.558416 
L 274.651148 42.558416 
L 274.651148 37.99604 
L 275.69591 37.99604 
L 275.69591 33.433663 
L 277.587055 33.433663 
L 277.587055 28.871287 
L 281.378627 28.871287 
L 281.378627 24.308911 
L 281.856404 24.308911 
L 281.856404 19.746535 
L 288.88287 19.746535 
L 288.88287 15.184158 
L 292.387997 15.184158 
L 292.387997 10.621782 
L 292.387997 10.621782 
L 453.6 10.621782 
L 453.6 10.621782 
" style="fill:none;stroke:#bf00bf;stroke-linecap:square;"/>
   </g>
   <g id="patch_3">
    <path d="M 7.2 7.2 
L 453.6 7.2 
" style="fill:none;stroke:#000000;stroke-linecap:square;stroke-linejoin:miter;"/>
   </g>
   <g id="patch_4">
    <path d="M 453.6 352.8 
L 453.6 7.2 
" style="fill:none;stroke:#000000;stroke-linecap:square;stroke-linejoin:miter;"/>
   </g>
   <g id="patch_5">
    <path d="M 7.2 352.8 
L 453.6 352.8 
" style="fill:none;stroke:#000000;stroke-linecap:square;stroke-linejoin:miter;"/>
   </g>
   <g id="patch_6">
    <path d="M 7.2 352.8 
L 7.2 7.2 
" style="fill:none;stroke:#000000;stroke-linecap:square;stroke-linejoin:miter;"/>
   </g>
   <g id="matplotlib.axis_1">
    <g id="xtick_1"/>
    <g id="xtick_2">
     <g id="line2d_7">
      <path clip-path="url(#pa3498a1152)" d="M 56.704715 352.8 
L 56.704715 7.2 
" style="fill:none;stroke:#000000;stroke-dasharray:1.000000,3.000000;stroke-dashoffset:0.0;stroke-width:0.5;"/>
     </g>
     <g id="line2d_8">
      <defs>
       <path d="M 0 0 
L 0 -4 
" id="mfa273c255b" style="stroke:#000000;stroke-width:0.5;"/>
      </defs>
      <g>
       <use style="stroke:#000000;stroke-width:0.5;" x="56.70471484" xlink:href="#mfa273c255b" y="352.8"/>
      </g>
     </g>
     <g id="line2d_9">
      <defs>
       <path d="M 0 0 
L 0 4 
" id="m883a11d8ea" style="stroke:#000000;stroke-width:0.5;"/>
      </defs>
      <g>
       <use style="stroke:#000000;stroke-width:0.5;" x="56.70471484" xlink:href="#m883a11d8ea" y="7.2"/>
      </g>
     </g>
     <g id="text_1">
      <!-- -6 -->
      <defs>
       <path d="M 33.015625 40.375 
Q 26.375 40.375 22.484375 35.828125 
Q 18.609375 31.296875 18.609375 23.390625 
Q 18.609375 15.53125 22.484375 10.953125 
Q 26.375 6.390625 33.015625 6.390625 
Q 39.65625 6.390625 43.53125 10.953125 
Q 47.40625 15.53125 47.40625 23.390625 
Q 47.40625 31.296875 43.53125 35.828125 
Q 39.65625 40.375 33.015625 40.375 
M 52.59375 71.296875 
L 52.59375 62.3125 
Q 48.875 64.0625 45.09375 64.984375 
Q 41.3125 65.921875 37.59375 65.921875 
Q 27.828125 65.921875 22.671875 59.328125 
Q 17.53125 52.734375 16.796875 39.40625 
Q 19.671875 43.65625 24.015625 45.921875 
Q 28.375 48.1875 33.59375 48.1875 
Q 44.578125 48.1875 50.953125 41.515625 
Q 57.328125 34.859375 57.328125 23.390625 
Q 57.328125 12.15625 50.6875 5.359375 
Q 44.046875 -1.421875 33.015625 -1.421875 
Q 20.359375 -1.421875 13.671875 8.265625 
Q 6.984375 17.96875 6.984375 36.375 
Q 6.984375 53.65625 15.1875 63.9375 
Q 23.390625 74.21875 37.203125 74.21875 
Q 40.921875 74.21875 44.703125 73.484375 
Q 48.484375 72.75 52.59375 71.296875 
" id="BitstreamVeraSans-Roman-36"/>
       <path d="M 4.890625 31.390625 
L 31.203125 31.390625 
L 31.203125 23.390625 
L 4.890625 23.390625 
z
" id="BitstreamVeraSans-Roman-2d"/>
      </defs>
      <g transform="translate(46.73440234 371.996875)scale(0.2 -0.2)">
       <use xlink:href="#BitstreamVeraSans-Roman-2d"/>
       <use x="36.083984375" xlink:href="#BitstreamVeraSans-Roman-36"/>
      </g>
     </g>
    </g>
    <g id="xtick_3">
     <g id="line2d_10">
      <path clip-path="url(#pa3498a1152)" d="M 106.316625 352.8 
L 106.316625 7.2 
" style="fill:none;stroke:#000000;stroke-dasharray:1.000000,3.000000;stroke-dashoffset:0.0;stroke-width:0.5;"/>
     </g>
     <g id="line2d_11">
      <g>
       <use style="stroke:#000000;stroke-width:0.5;" x="106.316625485" xlink:href="#mfa273c255b" y="352.8"/>
      </g>
     </g>
     <g id="line2d_12">
      <g>
       <use style="stroke:#000000;stroke-width:0.5;" x="106.316625485" xlink:href="#m883a11d8ea" y="7.2"/>
      </g>
     </g>
     <g id="text_2">
      <!-- -4 -->
      <defs>
       <path d="M 37.796875 64.3125 
L 12.890625 25.390625 
L 37.796875 25.390625 
z
M 35.203125 72.90625 
L 47.609375 72.90625 
L 47.609375 25.390625 
L 58.015625 25.390625 
L 58.015625 17.1875 
L 47.609375 17.1875 
L 47.609375 0 
L 37.796875 0 
L 37.796875 17.1875 
L 4.890625 17.1875 
L 4.890625 26.703125 
z
" id="BitstreamVeraSans-Roman-34"/>
      </defs>
      <g transform="translate(96.346312985 371.996875)scale(0.2 -0.2)">
       <use xlink:href="#BitstreamVeraSans-Roman-2d"/>
       <use x="36.083984375" xlink:href="#BitstreamVeraSans-Roman-34"/>
      </g>
     </g>
    </g>
    <g id="xtick_4">
     <g id="line2d_13">
      <path clip-path="url(#pa3498a1152)" d="M 155.928536 352.8 
L 155.928536 7.2 
" style="fill:none;stroke:#000000;stroke-dasharray:1.000000,3.000000;stroke-dashoffset:0.0;stroke-width:0.5;"/>
     </g>
     <g id="line2d_14">
      <g>
       <use style="stroke:#000000;stroke-width:0.5;" x="155.92853613" xlink:href="#mfa273c255b" y="352.8"/>
      </g>
     </g>
     <g id="line2d_15">
      <g>
       <use style="stroke:#000000;stroke-width:0.5;" x="155.92853613" xlink:href="#m883a11d8ea" y="7.2"/>
      </g>
     </g>
     <g id="text_3">
      <!-- -2 -->
      <defs>
       <path d="M 19.1875 8.296875 
L 53.609375 8.296875 
L 53.609375 0 
L 7.328125 0 
L 7.328125 8.296875 
Q 12.9375 14.109375 22.625 23.890625 
Q 32.328125 33.6875 34.8125 36.53125 
Q 39.546875 41.84375 41.421875 45.53125 
Q 43.3125 49.21875 43.3125 52.78125 
Q 43.3125 58.59375 39.234375 62.25 
Q 35.15625 65.921875 28.609375 65.921875 
Q 23.96875 65.921875 18.8125 64.3125 
Q 13.671875 62.703125 7.8125 59.421875 
L 7.8125 69.390625 
Q 13.765625 71.78125 18.9375 73 
Q 24.125 74.21875 28.421875 74.21875 
Q 39.75 74.21875 46.484375 68.546875 
Q 53.21875 62.890625 53.21875 53.421875 
Q 53.21875 48.921875 51.53125 44.890625 
Q 49.859375 40.875 45.40625 35.40625 
Q 44.1875 33.984375 37.640625 27.21875 
Q 31.109375 20.453125 19.1875 8.296875 
" id="BitstreamVeraSans-Roman-32"/>
      </defs>
      <g transform="translate(145.95822363 371.996875)scale(0.2 -0.2)">
       <use xlink:href="#BitstreamVeraSans-Roman-2d"/>
       <use x="36.083984375" xlink:href="#BitstreamVeraSans-Roman-32"/>
      </g>
     </g>
    </g>
    <g id="xtick_5">
     <g id="line2d_16">
      <path clip-path="url(#pa3498a1152)" d="M 205.540447 352.8 
L 205.540447 7.2 
" style="fill:none;stroke:#000000;stroke-dasharray:1.000000,3.000000;stroke-dashoffset:0.0;stroke-width:0.5;"/>
     </g>
     <g id="line2d_17">
      <g>
       <use style="stroke:#000000;stroke-width:0.5;" x="205.540446775" xlink:href="#mfa273c255b" y="352.8"/>
      </g>
     </g>
     <g id="line2d_18">
      <g>
       <use style="stroke:#000000;stroke-width:0.5;" x="205.540446775" xlink:href="#m883a11d8ea" y="7.2"/>
      </g>
     </g>
     <g id="text_4">
      <!-- 0 -->
      <defs>
       <path d="M 31.78125 66.40625 
Q 24.171875 66.40625 20.328125 58.90625 
Q 16.5 51.421875 16.5 36.375 
Q 16.5 21.390625 20.328125 13.890625 
Q 24.171875 6.390625 31.78125 6.390625 
Q 39.453125 6.390625 43.28125 13.890625 
Q 47.125 21.390625 47.125 36.375 
Q 47.125 51.421875 43.28125 58.90625 
Q 39.453125 66.40625 31.78125 66.40625 
M 31.78125 74.21875 
Q 44.046875 74.21875 50.515625 64.515625 
Q 56.984375 54.828125 56.984375 36.375 
Q 56.984375 17.96875 50.515625 8.265625 
Q 44.046875 -1.421875 31.78125 -1.421875 
Q 19.53125 -1.421875 13.0625 8.265625 
Q 6.59375 17.96875 6.59375 36.375 
Q 6.59375 54.828125 13.0625 64.515625 
Q 19.53125 74.21875 31.78125 74.21875 
" id="BitstreamVeraSans-Roman-30"/>
      </defs>
      <g transform="translate(199.177946775 371.996875)scale(0.2 -0.2)">
       <use xlink:href="#BitstreamVeraSans-Roman-30"/>
      </g>
     </g>
    </g>
    <g id="xtick_6">
     <g id="line2d_19">
      <path clip-path="url(#pa3498a1152)" d="M 255.152357 352.8 
L 255.152357 7.2 
" style="fill:none;stroke:#000000;stroke-dasharray:1.000000,3.000000;stroke-dashoffset:0.0;stroke-width:0.5;"/>
     </g>
     <g id="line2d_20">
      <g>
       <use style="stroke:#000000;stroke-width:0.5;" x="255.15235742" xlink:href="#mfa273c255b" y="352.8"/>
      </g>
     </g>
     <g id="line2d_21">
      <g>
       <use style="stroke:#000000;stroke-width:0.5;" x="255.15235742" xlink:href="#m883a11d8ea" y="7.2"/>
      </g>
     </g>
     <g id="text_5">
      <!-- 2 -->
      <g transform="translate(248.78985742 371.996875)scale(0.2 -0.2)">
       <use xlink:href="#BitstreamVeraSans-Roman-32"/>
      </g>
     </g>
    </g>
    <g id="xtick_7">
     <g id="line2d_22">
      <path clip-path="url(#pa3498a1152)" d="M 304.764268 352.8 
L 304.764268 7.2 
" style="fill:none;stroke:#000000;stroke-dasharray:1.000000,3.000000;stroke-dashoffset:0.0;stroke-width:0.5;"/>
     </g>
     <g id="line2d_23">
      <g>
       <use style="stroke:#000000;stroke-width:0.5;" x="304.764268065" xlink:href="#mfa273c255b" y="352.8"/>
      </g>
     </g>
     <g id="line2d_24">
      <g>
       <use style="stroke:#000000;stroke-width:0.5;" x="304.764268065" xlink:href="#m883a11d8ea" y="7.2"/>
      </g>
     </g>
     <g id="text_6">
      <!-- 4 -->
      <g transform="translate(298.401768065 371.996875)scale(0.2 -0.2)">
       <use xlink:href="#BitstreamVeraSans-Roman-34"/>
      </g>
     </g>
    </g>
    <g id="xtick_8">
     <g id="line2d_25">
      <path clip-path="url(#pa3498a1152)" d="M 354.376179 352.8 
L 354.376179 7.2 
" style="fill:none;stroke:#000000;stroke-dasharray:1.000000,3.000000;stroke-dashoffset:0.0;stroke-width:0.5;"/>
     </g>
     <g id="line2d_26">
      <g>
       <use style="stroke:#000000;stroke-width:0.5;" x="354.37617871" xlink:href="#mfa273c255b" y="352.8"/>
      </g>
     </g>
     <g id="line2d_27">
      <g>
       <use style="stroke:#000000;stroke-width:0.5;" x="354.37617871" xlink:href="#m883a11d8ea" y="7.2"/>
      </g>
     </g>
     <g id="text_7">
      <!-- 6 -->
      <g transform="translate(348.01367871 371.996875)scale(0.2 -0.2)">
       <use xlink:href="#BitstreamVeraSans-Roman-36"/>
      </g>
     </g>
    </g>
    <g id="xtick_9">
     <g id="line2d_28">
      <path clip-path="url(#pa3498a1152)" d="M 403.988089 352.8 
L 403.988089 7.2 
" style="fill:none;stroke:#000000;stroke-dasharray:1.000000,3.000000;stroke-dashoffset:0.0;stroke-width:0.5;"/>
     </g>
     <g id="line2d_29">
      <g>
       <use style="stroke:#000000;stroke-width:0.5;" x="403.988089355" xlink:href="#mfa273c255b" y="352.8"/>
      </g>
     </g>
     <g id="line2d_30">
      <g>
       <use style="stroke:#000000;stroke-width:0.5;" x="403.988089355" xlink:href="#m883a11d8ea" y="7.2"/>
      </g>
     </g>
     <g id="text_8">
      <!-- 8 -->
      <defs>
       <path d="M 31.78125 34.625 
Q 24.75 34.625 20.71875 30.859375 
Q 16.703125 27.09375 16.703125 20.515625 
Q 16.703125 13.921875 20.71875 10.15625 
Q 24.75 6.390625 31.78125 6.390625 
Q 38.8125 6.390625 42.859375 10.171875 
Q 46.921875 13.96875 46.921875 20.515625 
Q 46.921875 27.09375 42.890625 30.859375 
Q 38.875 34.625 31.78125 34.625 
M 21.921875 38.8125 
Q 15.578125 40.375 12.03125 44.71875 
Q 8.5 49.078125 8.5 55.328125 
Q 8.5 64.0625 14.71875 69.140625 
Q 20.953125 74.21875 31.78125 74.21875 
Q 42.671875 74.21875 48.875 69.140625 
Q 55.078125 64.0625 55.078125 55.328125 
Q 55.078125 49.078125 51.53125 44.71875 
Q 48 40.375 41.703125 38.8125 
Q 48.828125 37.15625 52.796875 32.3125 
Q 56.78125 27.484375 56.78125 20.515625 
Q 56.78125 9.90625 50.3125 4.234375 
Q 43.84375 -1.421875 31.78125 -1.421875 
Q 19.734375 -1.421875 13.25 4.234375 
Q 6.78125 9.90625 6.78125 20.515625 
Q 6.78125 27.484375 10.78125 32.3125 
Q 14.796875 37.15625 21.921875 38.8125 
M 18.3125 54.390625 
Q 18.3125 48.734375 21.84375 45.5625 
Q 25.390625 42.390625 31.78125 42.390625 
Q 38.140625 42.390625 41.71875 45.5625 
Q 45.3125 48.734375 45.3125 54.390625 
Q 45.3125 60.0625 41.71875 63.234375 
Q 38.140625 66.40625 31.78125 66.40625 
Q 25.390625 66.40625 21.84375 63.234375 
Q 18.3125 60.0625 18.3125 54.390625 
" id="BitstreamVeraSans-Roman-38"/>
      </defs>
      <g transform="translate(397.625589355 371.996875)scale(0.2 -0.2)">
       <use xlink:href="#BitstreamVeraSans-Roman-38"/>
      </g>
     </g>
    </g>
    <g id="xtick_10">
     <g id="line2d_31">
      <path clip-path="url(#pa3498a1152)" d="M 453.6 352.8 
L 453.6 7.2 
" style="fill:none;stroke:#000000;stroke-dasharray:1.000000,3.000000;stroke-dashoffset:0.0;stroke-width:0.5;"/>
     </g>
     <g id="line2d_32">
      <g>
       <use style="stroke:#000000;stroke-width:0.5;" x="453.6" xlink:href="#mfa273c255b" y="352.8"/>
      </g>
     </g>
     <g id="line2d_33">
      <g>
       <use style="stroke:#000000;stroke-width:0.5;" x="453.6" xlink:href="#m883a11d8ea" y="7.2"/>
      </g>
     </g>
    </g>
    <g id="xtick_11"/>
    <g id="xtick_12">
     <g id="line2d_34">
      <defs>
       <path d="M 0 0 
L 0 -2 
" id="me9a1c4360b" style="stroke:#000000;stroke-width:0.5;"/>
      </defs>
      <g>
       <use style="stroke:#000000;stroke-width:0.5;" x="56.70471484" xlink:href="#me9a1c4360b" y="352.8"/>
      </g>
     </g>
     <g id="line2d_35">
      <defs>
       <path d="M 0 0 
L 0 2 
" id="m39825b19fc" style="stroke:#000000;stroke-width:0.5;"/>
      </defs>
      <g>
       <use style="stroke:#000000;stroke-width:0.5;" x="56.70471484" xlink:href="#m39825b19fc" y="7.2"/>
      </g>
     </g>
    </g>
    <g id="xtick_13">
     <g id="line2d_36">
      <g>
       <use style="stroke:#000000;stroke-width:0.5;" x="106.316625485" xlink:href="#me9a1c4360b" y="352.8"/>
      </g>
     </g>
     <g id="line2d_37">
      <g>
       <use style="stroke:#000000;stroke-width:0.5;" x="106.316625485" xlink:href="#m39825b19fc" y="7.2"/>
      </g>
     </g>
    </g>
    <g id="xtick_14">
     <g id="line2d_38">
      <g>
       <use style="stroke:#000000;stroke-width:0.5;" x="155.92853613" xlink:href="#me9a1c4360b" y="352.8"/>
      </g>
     </g>
     <g id="line2d_39">
      <g>
       <use style="stroke:#000000;stroke-width:0.5;" x="155.92853613" xlink:href="#m39825b19fc" y="7.2"/>
      </g>
     </g>
    </g>
    <g id="xtick_15">
     <g id="line2d_40">
      <g>
       <use style="stroke:#000000;stroke-width:0.5;" x="205.540446775" xlink:href="#me9a1c4360b" y="352.8"/>
      </g>
     </g>
     <g id="line2d_41">
      <g>
       <use style="stroke:#000000;stroke-width:0.5;" x="205.540446775" xlink:href="#m39825b19fc" y="7.2"/>
      </g>
     </g>
    </g>
    <g id="xtick_16">
     <g id="line2d_42">
      <g>
       <use style="stroke:#000000;stroke-width:0.5;" x="255.15235742" xlink:href="#me9a1c4360b" y="352.8"/>
      </g>
     </g>
     <g id="line2d_43">
      <g>
       <use style="stroke:#000000;stroke-width:0.5;" x="255.15235742" xlink:href="#m39825b19fc" y="7.2"/>
      </g>
     </g>
    </g>
    <g id="xtick_17">
     <g id="line2d_44">
      <g>
       <use style="stroke:#000000;stroke-width:0.5;" x="304.764268065" xlink:href="#me9a1c4360b" y="352.8"/>
      </g>
     </g>
     <g id="line2d_45">
      <g>
       <use style="stroke:#000000;stroke-width:0.5;" x="304.764268065" xlink:href="#m39825b19fc" y="7.2"/>
      </g>
     </g>
    </g>
    <g id="xtick_18">
     <g id="line2d_46">
      <g>
       <use style="stroke:#000000;stroke-width:0.5;" x="354.37617871" xlink:href="#me9a1c4360b" y="352.8"/>
      </g>
     </g>
     <g id="line2d_47">
      <g>
       <use style="stroke:#000000;stroke-width:0.5;" x="354.37617871" xlink:href="#m39825b19fc" y="7.2"/>
      </g>
     </g>
    </g>
    <g id="xtick_19">
     <g id="line2d_48">
      <g>
       <use style="stroke:#000000;stroke-width:0.5;" x="403.988089355" xlink:href="#me9a1c4360b" y="352.8"/>
      </g>
     </g>
     <g id="line2d_49">
      <g>
       <use style="stroke:#000000;stroke-width:0.5;" x="403.988089355" xlink:href="#m39825b19fc" y="7.2"/>
      </g>
     </g>
    </g>
    <g id="xtick_20">
     <g id="line2d_50">
      <g>
       <use style="stroke:#000000;stroke-width:0.5;" x="453.6" xlink:href="#me9a1c4360b" y="352.8"/>
      </g>
     </g>
     <g id="line2d_51">
      <g>
       <use style="stroke:#000000;stroke-width:0.5;" x="453.6" xlink:href="#m39825b19fc" y="7.2"/>
      </g>
     </g>
    </g>
    <g id="text_9">
     <!-- log10 of Df -->
     <defs>
      <path id="BitstreamVeraSans-Roman-20"/>
      <path d="M 12.40625 8.296875 
L 28.515625 8.296875 
L 28.515625 63.921875 
L 10.984375 60.40625 
L 10.984375 69.390625 
L 28.421875 72.90625 
L 38.28125 72.90625 
L 38.28125 8.296875 
L 54.390625 8.296875 
L 54.390625 0 
L 12.40625 0 
z
" id="BitstreamVeraSans-Roman-31"/>
      <path d="M 30.609375 48.390625 
Q 23.390625 48.390625 19.1875 42.75 
Q 14.984375 37.109375 14.984375 27.296875 
Q 14.984375 17.484375 19.15625 11.84375 
Q 23.34375 6.203125 30.609375 6.203125 
Q 37.796875 6.203125 41.984375 11.859375 
Q 46.1875 17.53125 46.1875 27.296875 
Q 46.1875 37.015625 41.984375 42.703125 
Q 37.796875 48.390625 30.609375 48.390625 
M 30.609375 56 
Q 42.328125 56 49.015625 48.375 
Q 55.71875 40.765625 55.71875 27.296875 
Q 55.71875 13.875 49.015625 6.21875 
Q 42.328125 -1.421875 30.609375 -1.421875 
Q 18.84375 -1.421875 12.171875 6.21875 
Q 5.515625 13.875 5.515625 27.296875 
Q 5.515625 40.765625 12.171875 48.375 
Q 18.84375 56 30.609375 56 
" id="BitstreamVeraSans-Roman-6f"/>
      <path d="M 9.421875 75.984375 
L 18.40625 75.984375 
L 18.40625 0 
L 9.421875 0 
z
" id="BitstreamVeraSans-Roman-6c"/>
      <path d="M 19.671875 64.796875 
L 19.671875 8.109375 
L 31.59375 8.109375 
Q 46.6875 8.109375 53.6875 14.9375 
Q 60.6875 21.78125 60.6875 36.53125 
Q 60.6875 51.171875 53.6875 57.984375 
Q 46.6875 64.796875 31.59375 64.796875 
z
M 9.8125 72.90625 
L 30.078125 72.90625 
Q 51.265625 72.90625 61.171875 64.09375 
Q 71.09375 55.28125 71.09375 36.53125 
Q 71.09375 17.671875 61.125 8.828125 
Q 51.171875 0 30.078125 0 
L 9.8125 0 
z
" id="BitstreamVeraSans-Roman-44"/>
      <path d="M 45.40625 27.984375 
Q 45.40625 37.75 41.375 43.109375 
Q 37.359375 48.484375 30.078125 48.484375 
Q 22.859375 48.484375 18.828125 43.109375 
Q 14.796875 37.75 14.796875 27.984375 
Q 14.796875 18.265625 18.828125 12.890625 
Q 22.859375 7.515625 30.078125 7.515625 
Q 37.359375 7.515625 41.375 12.890625 
Q 45.40625 18.265625 45.40625 27.984375 
M 54.390625 6.78125 
Q 54.390625 -7.171875 48.1875 -13.984375 
Q 42 -20.796875 29.203125 -20.796875 
Q 24.46875 -20.796875 20.265625 -20.09375 
Q 16.0625 -19.390625 12.109375 -17.921875 
L 12.109375 -9.1875 
Q 16.0625 -11.328125 19.921875 -12.34375 
Q 23.78125 -13.375 27.78125 -13.375 
Q 36.625 -13.375 41.015625 -8.765625 
Q 45.40625 -4.15625 45.40625 5.171875 
L 45.40625 9.625 
Q 42.625 4.78125 38.28125 2.390625 
Q 33.9375 0 27.875 0 
Q 17.828125 0 11.671875 7.65625 
Q 5.515625 15.328125 5.515625 27.984375 
Q 5.515625 40.671875 11.671875 48.328125 
Q 17.828125 56 27.875 56 
Q 33.9375 56 38.28125 53.609375 
Q 42.625 51.21875 45.40625 46.390625 
L 45.40625 54.6875 
L 54.390625 54.6875 
z
" id="BitstreamVeraSans-Roman-67"/>
      <path d="M 37.109375 75.984375 
L 37.109375 68.5 
L 28.515625 68.5 
Q 23.6875 68.5 21.796875 66.546875 
Q 19.921875 64.59375 19.921875 59.515625 
L 19.921875 54.6875 
L 34.71875 54.6875 
L 34.71875 47.703125 
L 19.921875 47.703125 
L 19.921875 0 
L 10.890625 0 
L 10.890625 47.703125 
L 2.296875 47.703125 
L 2.296875 54.6875 
L 10.890625 54.6875 
L 10.890625 58.5 
Q 10.890625 67.625 15.140625 71.796875 
Q 19.390625 75.984375 28.609375 75.984375 
z
" id="BitstreamVeraSans-Roman-66"/>
     </defs>
     <g transform="translate(175.2140625 396.353125)scale(0.2 -0.2)">
      <use xlink:href="#BitstreamVeraSans-Roman-6c"/>
      <use x="27.783203125" xlink:href="#BitstreamVeraSans-Roman-6f"/>
      <use x="88.96484375" xlink:href="#BitstreamVeraSans-Roman-67"/>
      <use x="152.44140625" xlink:href="#BitstreamVeraSans-Roman-31"/>
      <use x="216.064453125" xlink:href="#BitstreamVeraSans-Roman-30"/>
      <use x="279.6875" xlink:href="#BitstreamVeraSans-Roman-20"/>
      <use x="311.474609375" xlink:href="#BitstreamVeraSans-Roman-6f"/>
      <use x="372.65625" xlink:href="#BitstreamVeraSans-Roman-66"/>
      <use x="407.861328125" xlink:href="#BitstreamVeraSans-Roman-20"/>
      <use x="439.6484375" xlink:href="#BitstreamVeraSans-Roman-44"/>
      <use x="516.650390625" xlink:href="#BitstreamVeraSans-Roman-66"/>
     </g>
    </g>
   </g>
   <g id="matplotlib.axis_2">
    <g id="ytick_1">
     <g id="line2d_52">
      <path clip-path="url(#pa3498a1152)" d="M 7.2 352.8 
L 453.6 352.8 
" style="fill:none;stroke:#000000;stroke-dasharray:1.000000,3.000000;stroke-dashoffset:0.0;stroke-width:0.5;"/>
     </g>
     <g id="line2d_53">
      <defs>
       <path d="M 0 0 
L 4 0 
" id="m3a9d5ffc8d" style="stroke:#000000;stroke-width:0.5;"/>
      </defs>
      <g>
       <use style="stroke:#000000;stroke-width:0.5;" x="7.2" xlink:href="#m3a9d5ffc8d" y="352.8"/>
      </g>
     </g>
     <g id="line2d_54">
      <defs>
       <path d="M 0 0 
L -4 0 
" id="mf8f0a8af26" style="stroke:#000000;stroke-width:0.5;"/>
      </defs>
      <g>
       <use style="stroke:#000000;stroke-width:0.5;" x="453.6" xlink:href="#mf8f0a8af26" y="352.8"/>
      </g>
     </g>
    </g>
    <g id="ytick_2">
     <g id="line2d_55">
      <path clip-path="url(#pa3498a1152)" d="M 7.2 284.364356 
L 453.6 284.364356 
" style="fill:none;stroke:#000000;stroke-dasharray:1.000000,3.000000;stroke-dashoffset:0.0;stroke-width:0.5;"/>
     </g>
     <g id="line2d_56">
      <g>
       <use style="stroke:#000000;stroke-width:0.5;" x="7.2" xlink:href="#m3a9d5ffc8d" y="284.364356436"/>
      </g>
     </g>
     <g id="line2d_57">
      <g>
       <use style="stroke:#000000;stroke-width:0.5;" x="453.6" xlink:href="#mf8f0a8af26" y="284.364356436"/>
      </g>
     </g>
    </g>
    <g id="ytick_3">
     <g id="line2d_58">
      <path clip-path="url(#pa3498a1152)" d="M 7.2 215.928713 
L 453.6 215.928713 
" style="fill:none;stroke:#000000;stroke-dasharray:1.000000,3.000000;stroke-dashoffset:0.0;stroke-width:0.5;"/>
     </g>
     <g id="line2d_59">
      <g>
       <use style="stroke:#000000;stroke-width:0.5;" x="7.2" xlink:href="#m3a9d5ffc8d" y="215.928712871"/>
      </g>
     </g>
     <g id="line2d_60">
      <g>
       <use style="stroke:#000000;stroke-width:0.5;" x="453.6" xlink:href="#mf8f0a8af26" y="215.928712871"/>
      </g>
     </g>
    </g>
    <g id="ytick_4">
     <g id="line2d_61">
      <path clip-path="url(#pa3498a1152)" d="M 7.2 147.493069 
L 453.6 147.493069 
" style="fill:none;stroke:#000000;stroke-dasharray:1.000000,3.000000;stroke-dashoffset:0.0;stroke-width:0.5;"/>
     </g>
     <g id="line2d_62">
      <g>
       <use style="stroke:#000000;stroke-width:0.5;" x="7.2" xlink:href="#m3a9d5ffc8d" y="147.493069307"/>
      </g>
     </g>
     <g id="line2d_63">
      <g>
       <use style="stroke:#000000;stroke-width:0.5;" x="453.6" xlink:href="#mf8f0a8af26" y="147.493069307"/>
      </g>
     </g>
    </g>
    <g id="ytick_5">
     <g id="line2d_64">
      <path clip-path="url(#pa3498a1152)" d="M 7.2 79.057426 
L 453.6 79.057426 
" style="fill:none;stroke:#000000;stroke-dasharray:1.000000,3.000000;stroke-dashoffset:0.0;stroke-width:0.5;"/>
     </g>
     <g id="line2d_65">
      <g>
       <use style="stroke:#000000;stroke-width:0.5;" x="7.2" xlink:href="#m3a9d5ffc8d" y="79.0574257426"/>
      </g>
     </g>
     <g id="line2d_66">
      <g>
       <use style="stroke:#000000;stroke-width:0.5;" x="453.6" xlink:href="#mf8f0a8af26" y="79.0574257426"/>
      </g>
     </g>
    </g>
    <g id="ytick_6">
     <g id="line2d_67">
      <path clip-path="url(#pa3498a1152)" d="M 7.2 10.621782 
L 453.6 10.621782 
" style="fill:none;stroke:#000000;stroke-dasharray:1.000000,3.000000;stroke-dashoffset:0.0;stroke-width:0.5;"/>
     </g>
     <g id="line2d_68">
      <g>
       <use style="stroke:#000000;stroke-width:0.5;" x="7.2" xlink:href="#m3a9d5ffc8d" y="10.6217821782"/>
      </g>
     </g>
     <g id="line2d_69">
      <g>
       <use style="stroke:#000000;stroke-width:0.5;" x="453.6" xlink:href="#mf8f0a8af26" y="10.6217821782"/>
      </g>
     </g>
    </g>
   </g>
   <g id="text_10">
    <!-- {f1-f5}, 5-D -->
    <defs>
     <path d="M 12.5 -9.28125 
L 15.921875 -9.28125 
Q 22.75 -9.28125 24.828125 -7.171875 
Q 26.90625 -5.078125 26.90625 1.90625 
L 26.90625 14.015625 
Q 26.90625 21.625 29.09375 25.09375 
Q 31.296875 28.5625 36.71875 29.890625 
Q 31.296875 31.109375 29.09375 34.5625 
Q 26.90625 38.03125 26.90625 45.703125 
L 26.90625 57.8125 
Q 26.90625 64.75 24.828125 66.875 
Q 22.75 69 15.921875 69 
L 12.5 69 
L 12.5 75.984375 
L 15.578125 75.984375 
Q 27.734375 75.984375 31.8125 72.390625 
Q 35.890625 68.796875 35.890625 58.015625 
L 35.890625 46.296875 
Q 35.890625 39.015625 38.515625 36.203125 
Q 41.15625 33.40625 48.09375 33.40625 
L 51.125 33.40625 
L 51.125 26.421875 
L 48.09375 26.421875 
Q 41.15625 26.421875 38.515625 23.578125 
Q 35.890625 20.75 35.890625 13.375 
L 35.890625 1.703125 
Q 35.890625 -9.078125 31.8125 -12.6875 
Q 27.734375 -16.3125 15.578125 -16.3125 
L 12.5 -16.3125 
z
" id="BitstreamVeraSans-Roman-7d"/>
     <path d="M 51.125 -9.28125 
L 51.125 -16.3125 
L 48.09375 -16.3125 
Q 35.9375 -16.3125 31.8125 -12.6875 
Q 27.6875 -9.078125 27.6875 1.703125 
L 27.6875 13.375 
Q 27.6875 20.75 25.046875 23.578125 
Q 22.40625 26.421875 15.484375 26.421875 
L 12.5 26.421875 
L 12.5 33.40625 
L 15.484375 33.40625 
Q 22.46875 33.40625 25.078125 36.203125 
Q 27.6875 39.015625 27.6875 46.296875 
L 27.6875 58.015625 
Q 27.6875 68.796875 31.8125 72.390625 
Q 35.9375 75.984375 48.09375 75.984375 
L 51.125 75.984375 
L 51.125 69 
L 47.796875 69 
Q 40.921875 69 38.8125 66.84375 
Q 36.71875 64.703125 36.71875 57.8125 
L 36.71875 45.703125 
Q 36.71875 38.03125 34.5 34.5625 
Q 32.28125 31.109375 26.90625 29.890625 
Q 32.328125 28.5625 34.515625 25.09375 
Q 36.71875 21.625 36.71875 14.015625 
L 36.71875 1.90625 
Q 36.71875 -4.984375 38.8125 -7.125 
Q 40.921875 -9.28125 47.796875 -9.28125 
z
" id="BitstreamVeraSans-Roman-7b"/>
     <path d="M 11.71875 12.40625 
L 22.015625 12.40625 
L 22.015625 4 
L 14.015625 -11.625 
L 7.71875 -11.625 
L 11.71875 4 
z
" id="BitstreamVeraSans-Roman-2c"/>
     <path d="M 10.796875 72.90625 
L 49.515625 72.90625 
L 49.515625 64.59375 
L 19.828125 64.59375 
L 19.828125 46.734375 
Q 21.96875 47.46875 24.109375 47.828125 
Q 26.265625 48.1875 28.421875 48.1875 
Q 40.625 48.1875 47.75 41.5 
Q 54.890625 34.8125 54.890625 23.390625 
Q 54.890625 11.625 47.5625 5.09375 
Q 40.234375 -1.421875 26.90625 -1.421875 
Q 22.3125 -1.421875 17.546875 -0.640625 
Q 12.796875 0.140625 7.71875 1.703125 
L 7.71875 11.625 
Q 12.109375 9.234375 16.796875 8.0625 
Q 21.484375 6.890625 26.703125 6.890625 
Q 35.15625 6.890625 40.078125 11.328125 
Q 45.015625 15.765625 45.015625 23.390625 
Q 45.015625 31 40.078125 35.4375 
Q 35.15625 39.890625 26.703125 39.890625 
Q 22.75 39.890625 18.8125 39.015625 
Q 14.890625 38.140625 10.796875 36.28125 
z
" id="BitstreamVeraSans-Roman-35"/>
    </defs>
    <g transform="translate(324.422 345.888)scale(0.2 -0.2)">
     <use xlink:href="#BitstreamVeraSans-Roman-7b"/>
     <use x="63.623046875" xlink:href="#BitstreamVeraSans-Roman-66"/>
     <use x="98.828125" xlink:href="#BitstreamVeraSans-Roman-31"/>
     <use x="162.451171875" xlink:href="#BitstreamVeraSans-Roman-2d"/>
     <use x="198.53515625" xlink:href="#BitstreamVeraSans-Roman-66"/>
     <use x="233.740234375" xlink:href="#BitstreamVeraSans-Roman-35"/>
     <use x="297.36328125" xlink:href="#BitstreamVeraSans-Roman-7d"/>
     <use x="360.986328125" xlink:href="#BitstreamVeraSans-Roman-2c"/>
     <use x="392.7734375" xlink:href="#BitstreamVeraSans-Roman-20"/>
     <use x="424.560546875" xlink:href="#BitstreamVeraSans-Roman-35"/>
     <use x="488.18359375" xlink:href="#BitstreamVeraSans-Roman-2d"/>
     <use x="524.267578125" xlink:href="#BitstreamVeraSans-Roman-44"/>
    </g>
   </g>
   <g id="text_11">
    <!-- 0.0.0 -->
    <defs>
     <path d="M 10.6875 12.40625 
L 21 12.40625 
L 21 0 
L 10.6875 0 
z
" id="BitstreamVeraSans-Roman-2e"/>
    </defs>
    <g style="fill:#808080;" transform="translate(217.678125 347.2643125)scale(0.1 -0.1)">
     <use xlink:href="#BitstreamVeraSans-Roman-30"/>
     <use x="63.623046875" xlink:href="#BitstreamVeraSans-Roman-2e"/>
     <use x="95.41015625" xlink:href="#BitstreamVeraSans-Roman-30"/>
     <use x="159.033203125" xlink:href="#BitstreamVeraSans-Roman-2e"/>
     <use x="190.8203125" xlink:href="#BitstreamVeraSans-Roman-30"/>
    </g>
   </g>
  </g>
 </g>
 <defs>
  <clipPath id="pa3498a1152">
   <rect height="345.6" width="446.4" x="7.2" y="7.2"/>
  </clipPath>
 </defs>
</svg>
