<?xml version="1.0" encoding="utf-8" standalone="no"?>
<!DOCTYPE svg PUBLIC "-//W3C//DTD SVG 1.1//EN"
  "http://www.w3.org/Graphics/SVG/1.1/DTD/svg11.dtd">
<!-- Created with matplotlib (http://matplotlib.org/) -->
<svg height="413pt" version="1.1" viewBox="0 0 520 413" width="520pt" xmlns="http://www.w3.org/2000/svg" xmlns:xlink="http://www.w3.org/1999/xlink">
 <defs>
  <style type="text/css">
*{stroke-linecap:butt;stroke-linejoin:round;stroke-miterlimit:100000;}
  </style>
 </defs>
 <g id="figure_1">
  <g id="patch_1">
   <path d="M 0 413.968843 
L 520.9625 413.968843 
L 520.9625 0 
L 0 0 
z
" style="fill:#ffffff;"/>
  </g>
  <g id="axes_1">
   <g id="patch_2">
    <path d="M 67.3625 359.056343 
L 513.7625 359.056343 
L 513.7625 13.456343 
L 67.3625 13.456343 
z
" style="fill:#ffffff;"/>
   </g>
   <g id="line2d_1">
    <path clip-path="url(#pe3724f2a49)" d="M 265.687017 359.056343 
L 265.687017 354.493967 
L 265.687017 354.493967 
L 265.687017 349.93159 
L 265.687017 349.93159 
L 265.687017 345.369214 
L 265.687017 345.369214 
L 265.687017 340.806838 
L 265.687017 340.806838 
L 265.687017 336.244462 
L 265.687017 336.244462 
L 265.687017 331.682085 
L 265.687017 331.682085 
L 265.687017 327.119709 
L 265.687017 327.119709 
L 265.687017 322.557333 
L 265.687017 322.557333 
L 265.687017 317.994957 
L 265.687017 317.994957 
L 265.687017 313.43258 
L 265.687017 313.43258 
L 265.687017 308.870204 
L 265.687017 308.870204 
L 265.687017 304.307828 
L 265.687017 304.307828 
L 265.687017 299.745452 
L 265.687017 299.745452 
L 265.687017 295.183075 
L 265.687017 295.183075 
L 265.687017 290.620699 
L 273.747908 290.620699 
L 273.747908 286.058323 
L 277.454096 286.058323 
L 277.454096 281.495947 
L 277.454096 281.495947 
L 277.454096 276.933571 
L 280.973337 276.933571 
L 280.973337 272.371194 
L 280.973337 272.371194 
L 280.973337 267.808818 
L 280.973337 267.808818 
L 280.973337 263.246442 
L 280.973337 263.246442 
L 280.973337 258.684066 
L 284.323587 258.684066 
L 284.323587 254.121689 
L 284.323587 254.121689 
L 284.323587 249.559313 
L 284.323587 249.559313 
L 284.323587 244.996937 
L 287.520336 244.996937 
L 287.520336 240.434561 
L 287.520336 240.434561 
L 287.520336 235.872184 
L 287.520336 235.872184 
L 287.520336 231.309808 
L 287.520336 231.309808 
L 287.520336 226.747432 
L 290.577035 226.747432 
L 290.577035 222.185056 
L 497.913992 222.185056 
L 497.913992 217.622679 
L 499.12941 217.622679 
L 499.12941 213.060303 
L 500.02728 213.060303 
L 500.02728 208.497927 
L 500.47192 208.497927 
L 500.47192 203.935551 
L 500.913744 203.935551 
L 500.913744 199.373175 
L 502.510247 199.373175 
L 502.510247 194.810798 
L 521.9625 194.810798 
" style="fill:none;stroke:#f5deb3;stroke-linecap:square;"/>
   </g>
   <g id="line2d_2">
    <path clip-path="url(#pe3724f2a49)" d="M 494.962436 359.056343 
L 494.962436 345.369214 
L 494.962436 345.369214 
L 494.962436 331.682085 
L 494.970049 331.682085 
L 494.970049 317.994957 
L 494.970049 317.994957 
L 494.970049 304.307828 
L 494.970049 304.307828 
L 494.970049 290.620699 
L 521.9625 290.620699 
" style="fill:none;stroke:#f5deb3;stroke-linecap:square;"/>
   </g>
   <g id="line2d_3">
    <path clip-path="url(#pe3724f2a49)" d="M 238.702305 359.056343 
L 238.702305 354.493967 
L 238.702305 354.493967 
L 238.702305 349.93159 
L 238.702305 349.93159 
L 238.702305 345.369214 
L 238.702305 345.369214 
L 238.702305 340.806838 
L 239.001164 340.806838 
L 239.001164 336.244462 
L 239.298748 336.244462 
L 239.298748 331.682085 
L 239.298748 331.682085 
L 239.298748 327.119709 
L 239.298748 327.119709 
L 239.298748 322.557333 
L 239.298748 322.557333 
L 239.298748 317.994957 
L 239.298748 317.994957 
L 239.298748 313.43258 
L 239.298748 313.43258 
L 239.298748 308.870204 
L 239.298748 308.870204 
L 239.298748 304.307828 
L 239.298748 304.307828 
L 239.298748 299.745452 
L 239.298748 299.745452 
L 239.298748 295.183075 
L 239.595069 295.183075 
L 239.595069 290.620699 
L 239.890137 290.620699 
L 239.890137 286.058323 
L 240.476557 286.058323 
L 240.476557 281.495947 
L 243.336936 281.495947 
L 243.336936 276.933571 
L 244.449047 276.933571 
L 244.449047 272.371194 
L 246.62147 272.371194 
L 246.62147 267.808818 
L 246.62147 267.808818 
L 246.62147 263.246442 
L 247.419004 263.246442 
L 247.419004 258.684066 
L 247.682836 258.684066 
L 247.682836 254.121689 
L 247.945675 254.121689 
L 247.945675 249.559313 
L 249.245218 249.559313 
L 249.245218 244.996937 
L 249.502248 244.996937 
L 249.502248 240.434561 
L 250.267705 240.434561 
L 250.267705 235.872184 
L 252.514952 235.872184 
L 252.514952 231.309808 
L 256.339662 231.309808 
L 256.339662 226.747432 
L 259.299927 226.747432 
L 259.299927 222.185056 
L 259.299927 222.185056 
L 259.299927 222.185056 
L 513.7625 222.185056 
" style="fill:none;stroke:#f5deb3;stroke-linecap:square;"/>
   </g>
   <g id="line2d_4">
    <path clip-path="url(#pe3724f2a49)" d="M 188.203447 359.056343 
L 188.203447 354.493967 
L 189.42775 354.493967 
L 189.42775 349.93159 
L 191.224848 349.93159 
L 191.224848 345.369214 
L 193.55118 345.369214 
L 193.55118 340.806838 
L 195.802455 340.806838 
L 195.802455 336.244462 
L 203.65156 336.244462 
L 203.65156 331.682085 
L 203.65156 331.682085 
L 203.65156 327.119709 
L 204.144731 327.119709 
L 204.144731 322.557333 
L 207.50266 322.557333 
L 207.50266 317.994957 
L 207.50266 317.994957 
L 207.50266 313.43258 
L 211.595372 313.43258 
L 211.595372 308.870204 
L 216.292057 308.870204 
L 216.292057 304.307828 
L 217.113049 304.307828 
L 217.113049 299.745452 
L 218.726611 299.745452 
L 218.726611 295.183075 
L 246.62147 295.183075 
L 246.62147 290.620699 
L 373.416758 290.620699 
L 373.416758 286.058323 
L 376.560307 286.058323 
L 376.560307 281.495947 
L 377.015733 281.495947 
L 377.015733 276.933571 
L 377.55016 276.933571 
L 377.55016 272.371194 
L 378.323956 272.371194 
L 378.323956 267.808818 
L 380.123114 267.808818 
L 380.123114 263.246442 
L 380.359535 263.246442 
L 380.359535 258.684066 
L 380.477446 258.684066 
L 380.477446 254.121689 
L 380.595157 254.121689 
L 380.595157 249.559313 
L 381.025077 249.559313 
L 381.025077 244.996937 
L 381.258466 244.996937 
L 381.258466 240.434561 
L 381.33609 240.434561 
L 381.33609 235.872184 
L 383.098006 235.872184 
L 383.098006 231.309808 
L 383.399936 231.309808 
L 383.399936 226.747432 
L 383.738053 226.747432 
L 383.738053 222.185056 
L 521.9625 222.185056 
" style="fill:none;stroke:#f5deb3;stroke-linecap:square;"/>
   </g>
   <g id="line2d_5">
    <path clip-path="url(#pe3724f2a49)" d="M 316.062648 359.056343 
L 316.062648 354.493967 
L 316.062648 354.493967 
L 316.062648 349.93159 
L 320.929908 349.93159 
L 320.929908 345.369214 
L 322.92905 345.369214 
L 322.92905 340.806838 
L 325.566019 340.806838 
L 325.566019 336.244462 
L 339.160553 336.244462 
L 339.160553 331.682085 
L 346.114294 331.682085 
L 346.114294 327.119709 
L 346.178521 327.119709 
L 346.178521 322.557333 
L 346.562652 322.557333 
L 346.562652 317.994957 
L 349.500679 317.994957 
L 349.500679 313.43258 
L 354.404964 313.43258 
L 354.404964 308.870204 
L 361.247703 308.870204 
L 361.247703 304.307828 
L 366.47831 304.307828 
L 366.47831 299.745452 
L 367.004258 299.745452 
L 367.004258 295.183075 
L 372.542267 295.183075 
L 372.542267 290.620699 
L 390.382314 290.620699 
L 390.382314 286.058323 
L 395.85255 286.058323 
L 395.85255 281.495947 
L 396.13552 281.495947 
L 396.13552 276.933571 
L 396.448591 276.933571 
L 396.448591 272.371194 
L 396.635762 272.371194 
L 396.635762 267.808818 
L 396.822432 267.808818 
L 396.822432 263.246442 
L 396.822432 263.246442 
L 396.822432 258.684066 
L 397.039585 258.684066 
L 397.039585 254.121689 
L 397.502649 254.121689 
L 397.502649 249.559313 
L 397.717698 249.559313 
L 397.717698 244.996937 
L 398.023767 244.996937 
L 398.023767 240.434561 
L 399.56417 240.434561 
L 399.56417 235.872184 
L 399.623891 235.872184 
L 399.623891 231.309808 
L 400.218302 231.309808 
L 400.218302 226.747432 
L 401.479395 226.747432 
L 401.479395 222.185056 
L 521.9625 222.185056 
" style="fill:none;stroke:#f5deb3;stroke-linecap:square;"/>
   </g>
   <g id="line2d_6"/>
   <g id="line2d_7">
    <path clip-path="url(#pe3724f2a49)" d="M 237.188504 359.056343 
L 237.188504 354.493967 
L 251.525099 354.493967 
L 251.525099 349.93159 
L 252.760237 349.93159 
L 252.760237 345.369214 
L 253.732845 345.369214 
L 253.732845 340.806838 
L 253.973894 340.806838 
L 253.973894 336.244462 
L 254.692083 336.244462 
L 254.692083 331.682085 
L 255.872881 331.682085 
L 255.872881 327.119709 
L 255.872881 327.119709 
L 255.872881 322.557333 
L 256.339662 322.557333 
L 256.339662 317.994957 
L 262.566521 317.994957 
L 262.566521 313.43258 
L 264.662278 313.43258 
L 264.662278 308.870204 
L 266.49611 308.870204 
L 266.49611 304.307828 
L 268.282982 304.307828 
L 268.282982 299.745452 
L 278.138254 299.745452 
L 278.138254 295.183075 
L 278.138254 295.183075 
L 278.138254 290.620699 
L 408.365233 290.620699 
L 408.365233 286.058323 
L 409.228868 286.058323 
L 409.228868 281.495947 
L 410.975473 281.495947 
L 410.975473 276.933571 
L 411.405378 276.933571 
L 411.405378 272.371194 
L 411.606773 272.371194 
L 411.606773 267.808818 
L 411.932806 267.808818 
L 411.932806 263.246442 
L 412.107733 263.246442 
L 412.107733 258.684066 
L 412.555543 258.684066 
L 412.555543 254.121689 
L 412.580338 254.121689 
L 412.580338 249.559313 
L 413.613821 249.559313 
L 413.613821 244.996937 
L 414.294404 244.996937 
L 414.294404 240.434561 
L 414.944453 240.434561 
L 414.944453 235.872184 
L 416.648883 235.872184 
L 416.648883 231.309808 
L 417.277463 231.309808 
L 417.277463 226.747432 
L 417.601177 226.747432 
L 417.601177 222.185056 
L 521.9625 222.185056 
" style="fill:none;stroke:#f5deb3;stroke-linecap:square;"/>
   </g>
   <g id="line2d_8">
    <path clip-path="url(#pe3724f2a49)" d="M 516.767341 359.056343 
L 516.767341 354.493967 
L 518.938996 354.493967 
L 518.944396 345.369214 
L 519.326683 345.369214 
L 519.326683 340.806838 
L 521.707306 340.806838 
L 521.707306 336.244462 
L 521.9625 336.244462 
L 521.9625 336.244462 
" style="fill:none;stroke:#f5deb3;stroke-linecap:square;"/>
   </g>
   <g id="line2d_9">
    <path clip-path="url(#pe3724f2a49)" d="M 230.107612 359.056343 
L 230.107612 354.493967 
L 232.439497 354.493967 
L 232.439497 349.93159 
L 236.881763 349.93159 
L 236.881763 345.369214 
L 238.100719 345.369214 
L 238.100719 340.806838 
L 238.40216 340.806838 
L 238.40216 336.244462 
L 239.298748 336.244462 
L 239.298748 331.682085 
L 241.058089 331.682085 
L 241.058089 327.119709 
L 241.347048 327.119709 
L 241.347048 322.557333 
L 243.056116 322.557333 
L 243.056116 317.994957 
L 248.4684 317.994957 
L 248.4684 313.43258 
L 249.758334 313.43258 
L 249.758334 308.870204 
L 254.692083 308.870204 
L 254.692083 304.307828 
L 256.339662 304.307828 
L 256.339662 299.745452 
L 259.299927 299.745452 
L 259.299927 295.183075 
L 261.710271 295.183075 
L 261.710271 290.620699 
L 403.963258 290.620699 
L 403.963258 286.058323 
L 407.623975 286.058323 
L 407.623975 281.495947 
L 408.074963 281.495947 
L 408.074963 276.933571 
L 408.73293 276.933571 
L 408.73293 272.371194 
L 409.020481 272.371194 
L 409.020481 267.808818 
L 410.184644 267.808818 
L 410.184644 263.246442 
L 410.261569 263.246442 
L 410.261569 258.684066 
L 410.924721 258.684066 
L 410.924721 254.121689 
L 411.455781 254.121689 
L 411.455781 249.559313 
L 412.157632 249.559313 
L 412.157632 244.996937 
L 412.505928 244.996937 
L 412.505928 240.434561 
L 413.098993 240.434561 
L 413.098993 235.872184 
L 414.003538 235.872184 
L 414.003538 231.309808 
L 414.100628 231.309808 
L 414.100628 226.747432 
L 418.403954 226.747432 
L 418.403954 222.185056 
L 521.9625 222.185056 
" style="fill:none;stroke:#f5deb3;stroke-linecap:square;"/>
   </g>
   <g id="line2d_10">
    <path clip-path="url(#pe3724f2a49)" d="M 283.066193 359.056343 
L 283.066193 354.493967 
L 285.251984 354.493967 
L 285.251984 349.93159 
L 294.857878 349.93159 
L 294.857878 345.369214 
L 294.857878 345.369214 
L 294.857878 340.806838 
L 300.019822 340.806838 
L 300.019822 336.244462 
L 308.11463 336.244462 
L 308.11463 331.682085 
L 313.649146 331.682085 
L 313.649146 327.119709 
L 503.108958 327.119709 
L 503.108958 322.557333 
L 503.278114 322.557333 
L 503.278114 317.994957 
L 503.527715 317.994957 
L 503.527715 313.43258 
L 503.789844 313.43258 
L 503.789844 308.870204 
L 503.809967 308.870204 
L 503.809967 304.307828 
L 504.73603 304.307828 
L 504.73603 299.745452 
L 505.512653 299.745452 
L 505.512653 295.183075 
L 521.9625 295.183075 
" style="fill:none;stroke:#f5deb3;stroke-linecap:square;"/>
   </g>
   <g id="line2d_11">
    <path clip-path="url(#pe3724f2a49)" d="M 176.825974 359.056343 
L 176.825974 354.493967 
L 187.583145 354.493967 
L 187.583145 349.93159 
L 189.42775 349.93159 
L 189.42775 345.369214 
L 190.630943 345.369214 
L 190.630943 340.806838 
L 192.397708 340.806838 
L 192.397708 336.244462 
L 194.120844 336.244462 
L 194.120844 331.682085 
L 198.518108 331.682085 
L 198.518108 327.119709 
L 203.154878 327.119709 
L 203.154878 322.557333 
L 203.65156 322.557333 
L 203.65156 317.994957 
L 206.559625 317.994957 
L 206.559625 313.43258 
L 212.473163 313.43258 
L 212.473163 308.870204 
L 218.726611 308.870204 
L 218.726611 304.307828 
L 219.124239 304.307828 
L 219.124239 299.745452 
L 231.116548 299.745452 
L 231.116548 295.183075 
L 241.347048 295.183075 
L 241.347048 290.620699 
L 361.144167 290.620699 
L 361.144167 286.058323 
L 362.121614 286.058323 
L 362.121614 281.495947 
L 363.737512 281.495947 
L 363.737512 276.933571 
L 363.887102 276.933571 
L 363.887102 272.371194 
L 365.657602 272.371194 
L 365.657602 267.808818 
L 366.04502 267.808818 
L 366.04502 263.246442 
L 367.478978 263.246442 
L 367.478978 258.684066 
L 368.138206 258.684066 
L 368.138206 254.121689 
L 368.278662 254.121689 
L 368.278662 249.559313 
L 369.667895 249.559313 
L 369.667895 244.996937 
L 370.170429 244.996937 
L 370.170429 240.434561 
L 370.533649 240.434561 
L 370.533649 235.872184 
L 371.522865 235.872184 
L 371.522865 231.309808 
L 372.718044 231.309808 
L 372.718044 226.747432 
L 373.93624 226.747432 
L 373.93624 222.185056 
L 373.93624 222.185056 
L 373.93624 222.185056 
L 513.7625 222.185056 
" style="fill:none;stroke:#f5deb3;stroke-linecap:square;"/>
   </g>
   <g id="line2d_12">
    <path clip-path="url(#pe3724f2a49)" d="M 120.779508 359.056343 
L 120.779508 354.493967 
L 120.779508 354.493967 
L 120.779508 349.93159 
L 120.779508 349.93159 
L 120.779508 345.369214 
L 120.779508 345.369214 
L 120.779508 340.806838 
L 120.779508 340.806838 
L 120.779508 336.244462 
L 120.779508 336.244462 
L 120.779508 331.682085 
L 120.779508 331.682085 
L 120.779508 327.119709 
L 120.779508 327.119709 
L 120.779508 322.557333 
L 120.779508 322.557333 
L 120.779508 317.994957 
L 120.779508 317.994957 
L 120.779508 313.43258 
L 120.779508 313.43258 
L 120.779508 308.870204 
L 120.779508 308.870204 
L 120.779508 304.307828 
L 120.779508 304.307828 
L 120.779508 299.745452 
L 120.779508 299.745452 
L 120.779508 295.183075 
L 120.779508 295.183075 
L 120.779508 290.620699 
L 168.333539 290.620699 
L 168.333539 286.058323 
L 183.740882 286.058323 
L 183.740882 281.495947 
L 183.740882 281.495947 
L 183.740882 276.933571 
L 183.740882 276.933571 
L 183.740882 272.371194 
L 183.740882 272.371194 
L 183.740882 267.808818 
L 183.740882 267.808818 
L 183.740882 263.246442 
L 183.740882 263.246442 
L 183.740882 258.684066 
L 183.740882 258.684066 
L 183.740882 254.121689 
L 183.740882 254.121689 
L 183.740882 249.559313 
L 183.740882 249.559313 
L 183.740882 244.996937 
L 196.354106 244.996937 
L 196.354106 240.434561 
L 196.354106 240.434561 
L 196.354106 235.872184 
L 196.354106 235.872184 
L 196.354106 231.309808 
L 196.354106 231.309808 
L 196.354106 226.747432 
L 216.292057 226.747432 
L 216.292057 222.185056 
L 492.285141 222.185056 
L 492.285141 217.622679 
L 494.733662 217.622679 
L 494.733662 213.060303 
L 498.63278 213.060303 
L 498.63278 208.497927 
L 507.817307 208.497927 
L 507.817307 203.935551 
L 507.981757 203.935551 
L 507.981757 199.373175 
L 509.041335 199.373175 
L 509.041335 194.810798 
L 510.4397 194.810798 
L 510.4397 190.248422 
L 510.719687 190.248422 
L 510.719687 185.686046 
L 511.101332 185.686046 
L 511.101332 181.12367 
L 511.456864 181.12367 
L 511.456864 176.561293 
L 511.732807 176.561293 
L 511.732807 171.998917 
L 511.858419 171.998917 
L 511.858419 167.436541 
L 511.983805 167.436541 
L 511.983805 162.874165 
L 512.108967 162.874165 
L 512.108967 158.311788 
L 516.588866 158.311788 
L 516.588866 153.749412 
L 516.588866 153.749412 
" style="fill:none;stroke:#f5deb3;stroke-linecap:square;"/>
   </g>
   <g id="line2d_13">
    <path clip-path="url(#pe3724f2a49)" d="M 383.587981 359.056343 
L 383.587981 354.493967 
L 383.587981 354.493967 
L 383.587981 349.93159 
L 384.705733 349.93159 
L 384.705733 345.369214 
L 384.705733 345.369214 
L 384.705733 340.806838 
L 386.385583 340.806838 
L 386.385583 336.244462 
L 386.565763 336.244462 
L 386.565763 331.682085 
L 386.565763 331.682085 
L 386.565763 327.119709 
L 386.565763 327.119709 
L 386.565763 322.557333 
L 387.530774 322.557333 
L 387.530774 317.994957 
L 390.382314 317.994957 
L 390.382314 313.43258 
L 390.382314 313.43258 
L 390.382314 308.870204 
L 390.382314 308.870204 
L 390.382314 304.307828 
L 390.518477 304.307828 
L 390.518477 299.745452 
L 390.518477 299.745452 
L 390.518477 295.183075 
L 390.518477 295.183075 
L 390.518477 290.620699 
L 390.518477 290.620699 
L 390.518477 290.620699 
L 513.7625 290.620699 
" style="fill:none;stroke:#f5deb3;stroke-linecap:square;"/>
   </g>
   <g id="line2d_14">
    <path clip-path="url(#pe3724f2a49)" d="M 212.907953 359.056343 
L 212.907953 354.493967 
L 215.04217 354.493967 
L 215.04217 349.93159 
L 216.292057 349.93159 
L 216.292057 345.369214 
L 217.924493 345.369214 
L 217.924493 340.806838 
L 218.326705 340.806838 
L 218.326705 336.244462 
L 218.326705 336.244462 
L 218.326705 331.682085 
L 218.726611 331.682085 
L 218.726611 327.119709 
L 219.124239 327.119709 
L 219.124239 322.557333 
L 219.912761 322.557333 
L 219.912761 317.994957 
L 219.912761 317.994957 
L 219.912761 313.43258 
L 219.912761 313.43258 
L 219.912761 308.870204 
L 219.912761 308.870204 
L 219.912761 304.307828 
L 220.303706 304.307828 
L 220.303706 299.745452 
L 220.692473 299.745452 
L 220.692473 295.183075 
L 220.692473 295.183075 
L 220.692473 290.620699 
L 318.871801 290.620699 
L 318.871801 286.058323 
L 320.281616 286.058323 
L 320.281616 281.495947 
L 322.29915 281.495947 
L 322.29915 276.933571 
L 323.018574 276.933571 
L 323.018574 272.371194 
L 323.642042 272.371194 
L 323.642042 267.808818 
L 326.932692 267.808818 
L 326.932692 263.246442 
L 327.18599 263.246442 
L 327.18599 258.684066 
L 327.354345 258.684066 
L 327.354345 254.121689 
L 328.023736 254.121689 
L 328.023736 249.559313 
L 329.015935 249.559313 
L 329.015935 244.996937 
L 329.261796 244.996937 
L 329.261796 240.434561 
L 329.425224 240.434561 
L 329.425224 235.872184 
L 331.118493 235.872184 
L 331.118493 231.309808 
L 331.594833 231.309808 
L 331.594833 226.747432 
L 331.910596 226.747432 
L 331.910596 222.185056 
L 344.093332 222.185056 
L 344.093332 217.622679 
L 348.265541 217.622679 
L 348.265541 213.060303 
L 348.762223 213.060303 
L 348.762223 208.497927 
L 350.774468 208.497927 
L 350.774468 203.935551 
L 351.313339 203.935551 
L 351.313339 199.373175 
L 351.966358 199.373175 
L 351.966358 194.810798 
L 353.080104 194.810798 
L 353.080104 190.248422 
L 354.290752 190.248422 
L 354.290752 185.686046 
L 354.80324 185.686046 
L 354.80324 181.12367 
L 357.583826 181.12367 
L 357.583826 176.561293 
L 366.237926 176.561293 
L 366.237926 171.998917 
L 369.53021 171.998917 
L 369.53021 167.436541 
L 374.451884 167.436541 
L 374.451884 162.874165 
L 521.9625 162.874165 
" style="fill:none;stroke:#f5deb3;stroke-linecap:square;"/>
   </g>
   <g id="line2d_15"/>
   <g id="line2d_16">
    <path clip-path="url(#pe3724f2a49)" d="M 398.267659 359.056343 
L 398.267659 354.493967 
L 398.843508 354.493967 
L 398.843508 349.93159 
L 400.159088 349.93159 
L 400.159088 345.369214 
L 400.748977 345.369214 
L 400.748977 340.806838 
L 405.954047 340.806838 
L 405.954047 336.244462 
L 410.364003 336.244462 
L 410.364003 331.682085 
L 413.172773 331.682085 
L 413.172773 327.119709 
L 415.326829 327.119709 
L 415.326829 322.557333 
L 416.367687 322.557333 
L 416.367687 317.994957 
L 416.719006 317.994957 
L 416.719006 313.43258 
L 418.038116 313.43258 
L 418.038116 308.870204 
L 418.540651 308.870204 
L 418.540651 304.307828 
L 423.057175 304.307828 
L 423.057175 299.745452 
L 424.430286 299.745452 
L 424.430286 295.183075 
L 438.205211 295.183075 
L 438.205211 290.620699 
L 516.196855 290.620699 
L 516.196855 286.058323 
L 517.089667 286.058323 
L 517.089667 281.495947 
L 521.202098 281.495947 
L 521.202098 276.933571 
L 521.9625 276.933571 
L 521.9625 276.933571 
" style="fill:none;stroke:#f5deb3;stroke-linecap:square;"/>
   </g>
   <g id="line2d_17">
    <path clip-path="url(#pe3724f2a49)" d="M 432.164468 359.056343 
L 432.164468 354.493967 
L 440.235911 354.493967 
L 440.235911 349.93159 
L 440.235911 349.93159 
L 440.235911 345.369214 
L 440.402499 345.369214 
L 440.402499 340.806838 
L 443.843684 340.806838 
L 443.843684 336.244462 
L 460.751957 336.244462 
L 460.751957 331.682085 
L 468.430533 331.682085 
L 468.430533 327.119709 
L 473.673591 327.119709 
L 473.673591 322.557333 
L 475.779616 322.557333 
L 475.779616 317.994957 
L 476.199277 317.994957 
L 476.199277 313.43258 
L 485.231817 313.43258 
L 485.231817 308.870204 
L 488.531038 308.870204 
L 488.531038 304.307828 
L 492.899491 304.307828 
L 492.899491 299.745452 
L 506.241877 299.745452 
L 506.241877 295.183075 
L 512.60738 295.183075 
L 512.60738 290.620699 
L 521.9625 290.620699 
" style="fill:none;stroke:#f5deb3;stroke-linecap:square;"/>
   </g>
   <g id="line2d_18">
    <path clip-path="url(#pe3724f2a49)" d="M 120.779508 359.056343 
L 120.779508 354.493967 
L 120.779508 354.493967 
L 120.779508 349.93159 
L 120.779508 349.93159 
L 120.779508 345.369214 
L 120.779508 345.369214 
L 120.779508 340.806838 
L 120.779508 340.806838 
L 120.779508 336.244462 
L 120.779508 336.244462 
L 120.779508 331.682085 
L 120.779508 331.682085 
L 120.779508 327.119709 
L 120.779508 327.119709 
L 120.779508 322.557333 
L 122.383797 322.557333 
L 122.383797 317.994957 
L 122.383797 317.994957 
L 122.383797 313.43258 
L 122.383797 313.43258 
L 122.383797 308.870204 
L 122.383797 308.870204 
L 122.383797 304.307828 
L 122.383797 304.307828 
L 122.383797 299.745452 
L 122.383797 299.745452 
L 122.383797 295.183075 
L 125.485795 295.183075 
L 125.485795 290.620699 
L 126.986573 290.620699 
L 126.986573 286.058323 
L 126.986573 286.058323 
L 126.986573 281.495947 
L 131.304454 281.495947 
L 131.304454 276.933571 
L 132.68635 276.933571 
L 132.68635 272.371194 
L 135.370661 272.371194 
L 135.370661 267.808818 
L 142.854627 267.808818 
L 142.854627 263.246442 
L 144.027487 263.246442 
L 144.027487 258.684066 
L 144.027487 258.684066 
L 144.027487 254.121689 
L 147.432234 254.121689 
L 147.432234 249.559313 
L 161.435733 249.559313 
L 161.435733 244.996937 
L 162.336177 244.996937 
L 162.336177 240.434561 
L 162.336177 240.434561 
L 162.336177 235.872184 
L 167.507689 235.872184 
L 167.507689 231.309808 
L 169.149729 231.309808 
L 169.149729 226.747432 
L 171.54254 226.747432 
L 171.54254 222.185056 
L 521.9625 222.185056 
" style="fill:none;stroke:#f5deb3;stroke-linecap:square;"/>
   </g>
   <g id="line2d_19">
    <path clip-path="url(#pe3724f2a49)" d="M 496.699312 359.056343 
L 496.699312 354.493967 
L 505.525742 354.493967 
L 505.525742 349.93159 
L 509.784049 349.93159 
L 509.784049 345.369214 
L 511.750765 345.369214 
L 511.750765 340.806838 
L 513.669393 340.806838 
L 513.669393 336.244462 
L 515.315225 336.244462 
L 515.315225 331.682085 
L 521.9625 331.682085 
" style="fill:none;stroke:#f5deb3;stroke-linecap:square;"/>
   </g>
   <g id="line2d_20">
    <path clip-path="url(#pe3724f2a49)" d="M 209.805954 359.056343 
L 209.805954 354.493967 
L 218.726611 354.493967 
L 218.726611 349.93159 
L 219.519614 349.93159 
L 219.519614 345.369214 
L 224.83179 345.369214 
L 224.83179 340.806838 
L 235.012451 340.806838 
L 235.012451 336.244462 
L 239.001164 336.244462 
L 239.001164 331.682085 
L 240.767929 331.682085 
L 240.767929 327.119709 
L 241.634815 327.119709 
L 241.634815 322.557333 
L 249.502248 322.557333 
L 249.502248 317.994957 
L 252.760237 317.994957 
L 252.760237 313.43258 
L 254.929847 313.43258 
L 254.929847 308.870204 
L 258.176175 308.870204 
L 258.176175 304.307828 
L 261.278174 304.307828 
L 261.278174 299.745452 
L 266.092736 299.745452 
L 266.092736 295.183075 
L 277.967842 295.183075 
L 277.967842 290.620699 
L 372.321921 290.620699 
L 372.321921 286.058323 
L 373.93624 286.058323 
L 373.93624 281.495947 
L 376.974453 281.495947 
L 376.974453 276.933571 
L 377.67291 276.933571 
L 377.67291 272.371194 
L 382.337415 272.371194 
L 382.337415 267.808818 
L 385.221286 267.808818 
L 385.221286 263.246442 
L 385.221286 263.246442 
L 385.221286 258.684066 
L 385.58722 258.684066 
L 385.58722 254.121689 
L 385.58722 254.121689 
L 385.58722 249.559313 
L 385.76947 249.559313 
L 385.76947 244.996937 
L 386.313381 244.996937 
L 386.313381 240.434561 
L 390.04074 240.434561 
L 390.04074 235.872184 
L 390.823876 235.872184 
L 390.823876 231.309808 
L 392.89218 231.309808 
L 392.89218 226.747432 
L 402.946153 226.747432 
L 402.946153 222.185056 
L 510.61026 222.185056 
L 510.61026 217.622679 
L 511.083206 217.622679 
L 511.083206 213.060303 
L 516.661427 213.060303 
L 516.661427 208.497927 
L 521.9625 208.497927 
" style="fill:none;stroke:#f5deb3;stroke-linecap:square;"/>
   </g>
   <g id="line2d_21">
    <path clip-path="url(#pe3724f2a49)" d="M 471.64041 359.056343 
L 471.64041 354.493967 
L 471.64041 354.493967 
L 471.64041 354.493967 
L 471.651044 354.493967 
L 471.746674 327.119709 
L 471.767907 327.119709 
L 471.852776 313.43258 
L 472.412441 313.43258 
L 472.412441 308.870204 
L 473.435616 308.870204 
L 473.435616 304.307828 
L 479.800614 304.307828 
L 479.800614 299.745452 
L 481.897491 299.745452 
L 481.906672 231.309808 
L 482.01674 231.309808 
L 482.053391 162.874165 
L 482.272894 162.874165 
L 482.382387 121.812778 
L 482.391503 121.812778 
L 482.500811 76.189016 
L 482.519012 76.189016 
L 482.546305 67.064264 
L 483.924277 67.064264 
L 483.924277 62.501887 
L 484.306702 62.501887 
L 484.306702 57.939511 
L 484.642923 57.939511 
L 484.642923 53.377135 
L 487.301416 53.377135 
L 487.301416 48.814759 
L 494.78711 48.814759 
L 494.78711 44.252382 
L 494.78711 44.252382 
L 513.7625 44.252382 
L 513.7625 44.252382 
" style="fill:none;stroke:#f5deb3;stroke-linecap:square;"/>
   </g>
   <g id="line2d_22">
    <path clip-path="url(#pe3724f2a49)" d="M 242.774163 359.056343 
L 242.774163 354.493967 
L 247.945675 354.493967 
L 247.945675 349.93159 
L 254.929847 349.93159 
L 254.929847 345.369214 
L 259.076619 345.369214 
L 259.076619 340.806838 
L 264.040133 340.806838 
L 264.040133 336.244462 
L 268.673927 336.244462 
L 268.673927 331.682085 
L 268.868581 331.682085 
L 268.868581 327.119709 
L 269.83379 327.119709 
L 269.83379 322.557333 
L 271.53822 322.557333 
L 271.53822 317.994957 
L 272.097236 317.994957 
L 272.097236 313.43258 
L 277.109486 313.43258 
L 277.109486 308.870204 
L 277.454096 308.870204 
L 277.454096 304.307828 
L 278.647005 304.307828 
L 278.647005 299.745452 
L 284.634427 299.745452 
L 284.634427 295.183075 
L 307.892743 295.183075 
L 307.892743 290.620699 
L 378.121156 290.620699 
L 378.121156 286.058323 
L 390.586459 286.058323 
L 390.586459 281.495947 
L 390.586459 281.495947 
L 390.586459 276.933571 
L 391.698704 276.933571 
L 391.698704 272.371194 
L 392.760575 272.371194 
L 392.760575 267.808818 
L 393.838964 267.808818 
L 393.838964 263.246442 
L 398.0543 263.246442 
L 398.0543 258.684066 
L 398.419659 258.684066 
L 398.419659 254.121689 
L 398.813318 254.121689 
L 398.813318 249.559313 
L 399.832511 249.559313 
L 399.832511 244.996937 
L 402.087093 244.996937 
L 402.087093 240.434561 
L 407.517435 240.434561 
L 407.517435 235.872184 
L 408.022056 235.872184 
L 408.022056 231.309808 
L 411.178111 231.309808 
L 411.178111 226.747432 
L 415.398292 226.747432 
L 415.398292 222.185056 
L 437.757327 222.185056 
L 437.757327 217.622679 
L 440.850309 217.622679 
L 440.850309 213.060303 
L 447.379539 213.060303 
L 447.379539 208.497927 
L 447.889567 208.497927 
L 447.889567 203.935551 
L 448.425564 203.935551 
L 448.425564 199.373175 
L 451.756113 199.373175 
L 451.756113 194.810798 
L 452.207149 194.810798 
L 452.207149 190.248422 
L 453.114438 190.248422 
L 453.114438 185.686046 
L 453.335973 185.686046 
L 453.335973 181.12367 
L 453.474076 181.12367 
L 453.474076 176.561293 
L 453.735721 176.561293 
L 453.735721 171.998917 
L 454.528413 171.998917 
L 454.528413 167.436541 
L 457.884609 167.436541 
L 457.884609 162.874165 
L 461.69032 162.874165 
L 461.69032 158.311788 
L 466.545751 158.311788 
L 466.545751 153.749412 
L 466.545751 153.749412 
L 466.545751 153.749412 
L 513.7625 153.749412 
" style="fill:none;stroke:#f5deb3;stroke-linecap:square;"/>
   </g>
   <g id="line2d_23">
    <path clip-path="url(#pe3724f2a49)" d="M 313.853491 359.056343 
L 313.853491 354.493967 
L 325.738324 354.493967 
L 325.738324 349.93159 
L 328.273112 349.93159 
L 328.273112 345.369214 
L 329.506794 345.369214 
L 329.506794 340.806838 
L 331.594833 340.806838 
L 331.594833 336.244462 
L 334.916644 336.244462 
L 334.916644 331.682085 
L 337.581024 331.682085 
L 337.581024 327.119709 
L 353.138232 327.119709 
L 353.138232 322.557333 
L 521.9625 322.557333 
" style="fill:none;stroke:#f5deb3;stroke-linecap:square;"/>
   </g>
   <g id="line2d_24">
    <path clip-path="url(#pe3724f2a49)" d="M 389.766272 359.056343 
L 389.766272 354.493967 
L 398.783116 354.493967 
L 398.783116 349.93159 
L 413.246475 349.93159 
L 413.246475 345.369214 
L 413.320099 345.369214 
L 413.320099 340.806838 
L 413.344623 340.806838 
L 413.344623 336.244462 
L 417.393248 336.244462 
L 417.393248 331.682085 
L 419.960024 331.682085 
L 419.960024 327.119709 
L 420.093709 327.119709 
L 420.093709 322.557333 
L 425.961322 322.557333 
L 425.961322 317.994957 
L 426.308351 317.994957 
L 426.308351 313.43258 
L 431.543832 313.43258 
L 431.543832 308.870204 
L 431.675944 308.870204 
L 431.675944 304.307828 
L 436.730185 304.307828 
L 436.730185 299.745452 
L 441.54124 299.745452 
L 441.54124 295.183075 
L 441.606688 295.183075 
L 441.606688 290.620699 
L 521.9625 290.620699 
" style="fill:none;stroke:#f5deb3;stroke-linecap:square;"/>
   </g>
   <g id="line2d_25">
    <path clip-path="url(#pe3724f2a49)" d="M 321.572232 359.056343 
L 321.572232 354.493967 
L 325.824317 354.493967 
L 325.824317 349.93159 
L 326.678471 349.93159 
L 326.678471 345.369214 
L 328.023736 345.369214 
L 328.023736 340.806838 
L 343.828248 340.806838 
L 343.828248 336.244462 
L 345.598332 336.244462 
L 345.598332 331.682085 
L 345.98566 331.682085 
L 345.98566 327.119709 
L 350.954554 327.119709 
L 350.954554 322.557333 
L 360.46741 322.557333 
L 360.46741 317.994957 
L 366.908926 317.994957 
L 366.908926 313.43258 
L 368.372143 313.43258 
L 368.372143 308.870204 
L 375.133535 308.870204 
L 375.133535 304.307828 
L 376.227211 304.307828 
L 376.227211 299.745452 
L 380.634351 299.745452 
L 380.634351 295.183075 
L 475.518555 295.183075 
L 475.518555 290.620699 
L 521.9625 290.620699 
" style="fill:none;stroke:#f5deb3;stroke-linecap:square;"/>
   </g>
   <g id="line2d_26">
    <path clip-path="url(#pe3724f2a49)" d="M 374.108545 359.056343 
L 374.108545 354.493967 
L 375.218275 354.493967 
L 375.218275 349.93159 
L 379.169339 349.93159 
L 379.169339 345.369214 
L 380.123114 345.369214 
L 380.123114 340.806838 
L 380.280817 340.806838 
L 380.280817 336.244462 
L 380.634351 336.244462 
L 380.634351 331.682085 
L 380.673522 331.682085 
L 380.673522 327.119709 
L 381.722917 327.119709 
L 381.722917 322.557333 
L 381.722917 322.557333 
L 381.722917 317.994957 
L 383.060172 317.994957 
L 383.060172 313.43258 
L 384.409412 313.43258 
L 384.409412 308.870204 
L 385.11113 308.870204 
L 385.11113 304.307828 
L 386.709572 304.307828 
L 386.709572 299.745452 
L 387.032064 299.745452 
L 387.032064 295.183075 
L 404.466305 295.183075 
L 404.466305 290.620699 
L 475.084646 290.620699 
L 475.084646 286.058323 
L 482.163229 286.058323 
L 482.163229 281.495947 
L 490.555082 281.495947 
L 490.555082 276.933571 
L 491.080228 276.933571 
L 491.080228 272.371194 
L 491.70523 272.371194 
L 491.70523 267.808818 
L 492.182221 267.808818 
L 492.182221 263.246442 
L 492.74248 263.246442 
L 492.74248 258.684066 
L 493.196842 258.684066 
L 493.196842 254.121689 
L 497.37184 254.121689 
L 497.37184 249.559313 
L 497.452697 249.559313 
L 497.452697 244.996937 
L 497.979644 244.996937 
L 497.979644 240.434561 
L 499.9777 240.434561 
L 499.9777 235.872184 
L 500.03436 235.872184 
L 500.03436 231.309808 
L 505.099091 231.309808 
L 505.099091 226.747432 
L 505.538829 226.747432 
L 505.538829 222.185056 
L 521.9625 222.185056 
" style="fill:none;stroke:#f5deb3;stroke-linecap:square;"/>
   </g>
   <g id="line2d_27">
    <path clip-path="url(#pe3724f2a49)" d="M 481.455414 359.056343 
L 481.455414 354.493967 
L 481.667592 354.493967 
L 481.667592 349.93159 
L 482.300283 349.93159 
L 482.300283 345.369214 
L 482.918242 345.369214 
L 482.918242 340.806838 
L 482.972506 340.806838 
L 482.972506 336.244462 
L 483.46797 336.244462 
L 483.46797 331.682085 
L 483.995585 331.682085 
L 483.995585 327.119709 
L 485.676772 327.119709 
L 485.676772 322.557333 
L 486.618347 322.557333 
L 486.618347 317.994957 
L 487.488093 317.994957 
L 487.488093 313.43258 
L 488.15435 313.43258 
L 488.15435 308.870204 
L 490.95939 308.870204 
L 490.95939 304.307828 
L 491.85663 304.307828 
L 491.85663 299.745452 
L 493.539568 299.745452 
L 493.539568 295.183075 
L 515.785683 295.183075 
L 515.785683 290.620699 
L 515.785683 290.620699 
" style="fill:none;stroke:#f5deb3;stroke-linecap:square;"/>
   </g>
   <g id="line2d_28">
    <path clip-path="url(#pe3724f2a49)" d="M 274.469191 359.056343 
L 274.469191 354.493967 
L 274.648353 354.493967 
L 274.648353 349.93159 
L 274.827056 349.93159 
L 274.827056 345.369214 
L 275.005302 345.369214 
L 275.005302 340.806838 
L 281.785726 340.806838 
L 281.785726 336.244462 
L 281.785726 336.244462 
L 281.785726 331.682085 
L 281.785726 331.682085 
L 281.785726 327.119709 
L 281.785726 327.119709 
L 281.785726 322.557333 
L 281.947076 322.557333 
L 281.947076 317.994957 
L 288.407426 317.994957 
L 288.407426 313.43258 
L 288.407426 313.43258 
L 288.407426 308.870204 
L 288.846778 308.870204 
L 288.846778 304.307828 
L 295.125248 304.307828 
L 295.125248 299.745452 
L 300.144103 299.745452 
L 300.144103 295.183075 
L 310.402818 295.183075 
L 310.402818 290.620699 
L 516.281043 290.620699 
L 516.281043 286.058323 
L 516.505049 286.058323 
L 516.505049 281.495947 
L 516.672583 281.495947 
L 516.672583 276.933571 
L 516.828586 276.933571 
L 516.828586 272.371194 
L 516.923133 272.371194 
L 516.923133 267.808818 
L 517.872582 267.808818 
L 517.872582 263.246442 
L 518.32072 263.246442 
L 518.32072 258.684066 
L 518.429586 258.684066 
L 518.429586 254.121689 
L 518.456776 254.121689 
L 518.456776 249.559313 
L 519.321314 249.559313 
L 519.321314 244.996937 
L 519.439354 244.996937 
L 519.439354 240.434561 
L 520.350107 240.434561 
L 520.350107 235.872184 
L 521.144575 235.872184 
L 521.144575 231.309808 
L 521.520233 231.309808 
L 521.520233 226.747432 
L 521.873173 226.747432 
L 521.873173 222.185056 
L 521.9625 222.185056 
" style="fill:none;stroke:#f5deb3;stroke-linecap:square;"/>
   </g>
   <g id="line2d_29">
    <path clip-path="url(#pe3724f2a49)" d="M 115.732721 359.056343 
L 115.732721 354.493967 
L 115.732721 354.493967 
L 115.732721 349.93159 
L 115.732721 349.93159 
L 115.732721 345.369214 
L 115.732721 345.369214 
L 115.732721 340.806838 
L 115.732721 340.806838 
L 115.732721 336.244462 
L 115.732721 336.244462 
L 115.732721 331.682085 
L 117.455857 331.682085 
L 117.455857 327.119709 
L 117.455857 327.119709 
L 117.455857 322.557333 
L 117.455857 322.557333 
L 117.455857 317.994957 
L 117.455857 317.994957 
L 117.455857 313.43258 
L 117.455857 313.43258 
L 117.455857 308.870204 
L 117.455857 308.870204 
L 117.455857 304.307828 
L 117.455857 304.307828 
L 117.455857 299.745452 
L 117.455857 299.745452 
L 117.455857 295.183075 
L 117.455857 295.183075 
L 117.455857 290.620699 
L 150.678562 290.620699 
L 150.678562 286.058323 
L 150.678562 286.058323 
L 150.678562 281.495947 
L 150.678562 281.495947 
L 150.678562 276.933571 
L 267.295929 276.933571 
L 267.295929 272.371194 
L 267.295929 272.371194 
L 267.295929 267.808818 
L 267.295929 267.808818 
L 267.295929 263.246442 
L 268.282982 263.246442 
L 268.282982 258.684066 
L 268.282982 258.684066 
L 268.282982 254.121689 
L 268.282982 254.121689 
L 268.282982 249.559313 
L 269.062694 249.559313 
L 269.062694 244.996937 
L 269.062694 244.996937 
L 269.062694 240.434561 
L 269.062694 240.434561 
L 269.062694 235.872184 
L 269.449307 235.872184 
L 269.449307 231.309808 
L 269.449307 231.309808 
L 269.449307 226.747432 
L 269.449307 226.747432 
L 269.449307 222.185056 
L 269.449307 222.185056 
L 269.449307 222.185056 
L 513.7625 222.185056 
" style="fill:none;stroke:#f5deb3;stroke-linecap:square;"/>
   </g>
   <g id="line2d_30">
    <path clip-path="url(#pe3724f2a49)" d="M 269.256268 359.056343 
L 269.256268 354.493967 
L 269.256268 354.493967 
L 269.256268 349.93159 
L 270.216166 349.93159 
L 270.216166 345.369214 
L 271.911395 345.369214 
L 271.911395 340.806838 
L 272.65181 340.806838 
L 272.65181 336.244462 
L 272.65181 336.244462 
L 272.65181 331.682085 
L 273.747908 331.682085 
L 273.747908 327.119709 
L 274.109481 327.119709 
L 274.109481 322.557333 
L 274.289568 322.557333 
L 274.289568 317.994957 
L 274.469191 317.994957 
L 274.469191 313.43258 
L 275.005302 313.43258 
L 275.005302 308.870204 
L 276.065325 308.870204 
L 276.065325 304.307828 
L 276.93654 304.307828 
L 276.93654 299.745452 
L 277.109486 299.745452 
L 277.109486 295.183075 
L 278.647005 295.183075 
L 278.647005 290.620699 
L 278.984124 290.620699 
L 278.984124 286.058323 
L 279.486769 286.058323 
L 279.486769 281.495947 
L 280.645714 281.495947 
L 280.645714 276.933571 
L 281.136573 276.933571 
L 281.136573 272.371194 
L 281.785726 272.371194 
L 281.785726 267.808818 
L 282.907414 267.808818 
L 282.907414 263.246442 
L 283.382672 263.246442 
L 283.382672 258.684066 
L 284.943889 258.684066 
L 284.943889 254.121689 
L 286.621824 254.121689 
L 286.621824 249.559313 
L 287.072526 249.559313 
L 287.072526 244.996937 
L 287.371385 244.996937 
L 287.371385 240.434561 
L 288.554184 240.434561 
L 288.554184 235.872184 
L 289.42831 235.872184 
L 289.42831 231.309808 
L 289.717269 231.309808 
L 289.717269 226.747432 
L 305.173562 226.747432 
L 305.173562 222.185056 
L 310.50993 222.185056 
L 310.50993 217.622679 
L 310.50993 217.622679 
L 310.50993 213.060303 
L 310.50993 213.060303 
L 310.50993 208.497927 
L 310.50993 208.497927 
L 310.50993 203.935551 
L 310.50993 203.935551 
L 310.50993 199.373175 
L 310.50993 199.373175 
L 310.50993 194.810798 
L 310.50993 194.810798 
L 310.50993 190.248422 
L 310.50993 190.248422 
L 310.50993 185.686046 
L 310.50993 185.686046 
L 310.50993 181.12367 
L 310.50993 181.12367 
L 310.50993 176.561293 
L 310.50993 176.561293 
L 310.50993 171.998917 
L 310.50993 171.998917 
L 310.50993 167.436541 
L 310.50993 167.436541 
L 310.50993 162.874165 
L 310.50993 162.874165 
L 310.50993 158.311788 
L 310.50993 158.311788 
L 310.50993 153.749412 
L 310.50993 153.749412 
L 310.50993 153.749412 
L 513.7625 153.749412 
" style="fill:none;stroke:#f5deb3;stroke-linecap:square;"/>
   </g>
   <g id="line2d_31">
    <path clip-path="url(#pe3724f2a49)" d="M 319.908441 359.056343 
L 319.908441 354.493967 
L 325.824317 354.493967 
L 325.824317 349.93159 
L 326.252701 349.93159 
L 326.252701 345.369214 
L 326.848054 345.369214 
L 326.848054 340.806838 
L 327.85699 340.806838 
L 327.85699 336.244462 
L 328.521599 336.244462 
L 328.521599 331.682085 
L 328.521599 331.682085 
L 328.521599 327.119709 
L 333.622205 327.119709 
L 333.622205 322.557333 
L 334.689951 322.557333 
L 334.689951 317.994957 
L 336.704152 317.994957 
L 336.704152 313.43258 
L 339.443938 313.43258 
L 339.443938 308.870204 
L 339.796559 308.870204 
L 339.796559 304.307828 
L 340.635649 304.307828 
L 340.635649 299.745452 
L 347.450817 299.745452 
L 347.450817 295.183075 
L 348.015868 295.183075 
L 348.015868 290.620699 
L 352.319991 290.620699 
L 352.319991 286.058323 
L 355.368292 286.058323 
L 355.368292 281.495947 
L 358.450713 281.495947 
L 358.450713 276.933571 
L 359.306963 276.933571 
L 359.306963 272.371194 
L 359.942325 272.371194 
L 359.942325 267.808818 
L 360.46741 267.808818 
L 360.46741 263.246442 
L 360.46741 263.246442 
L 360.46741 258.684066 
L 360.571955 258.684066 
L 360.571955 254.121689 
L 360.624168 254.121689 
L 360.624168 249.559313 
L 363.936894 249.559313 
L 363.936894 244.996937 
L 363.98665 244.996937 
L 363.98665 240.434561 
L 365.803136 240.434561 
L 365.803136 235.872184 
L 369.161715 235.872184 
L 369.161715 231.309808 
L 378.968984 231.309808 
L 378.968984 226.747432 
L 382.337415 226.747432 
L 382.337415 222.185056 
L 481.566196 222.185056 
L 481.566196 217.622679 
L 482.491708 217.622679 
L 482.491708 213.060303 
L 484.651749 213.060303 
L 484.651749 208.497927 
L 486.489524 208.497927 
L 486.489524 203.935551 
L 488.48093 203.935551 
L 488.48093 199.373175 
L 490.579407 199.373175 
L 490.579407 194.810798 
L 491.553501 194.810798 
L 491.553501 190.248422 
L 492.545719 190.248422 
L 492.545719 185.686046 
L 493.298278 185.686046 
L 493.298278 181.12367 
L 493.741299 181.12367 
L 493.741299 176.561293 
L 493.741299 176.561293 
L 493.741299 171.998917 
L 495.152509 171.998917 
L 495.152509 167.436541 
L 496.453818 167.436541 
L 496.453818 162.874165 
L 499.736382 162.874165 
L 499.736382 158.311788 
L 499.736382 158.311788 
L 499.736382 158.311788 
L 513.7625 158.311788 
" style="fill:none;stroke:#000000;stroke-linecap:square;"/>
   </g>
   <g id="line2d_32"/>
   <g id="line2d_33">
    <path clip-path="url(#pe3724f2a49)" d="M 336.997669 359.056343 
L 336.997669 354.493967 
L 338.159543 354.493967 
L 338.159543 349.93159 
L 340.913118 349.93159 
L 340.913118 345.369214 
L 341.396051 345.369214 
L 341.396051 340.806838 
L 344.225498 340.806838 
L 344.225498 336.244462 
L 346.370851 336.244462 
L 346.370851 331.682085 
L 348.015868 331.682085 
L 348.015868 327.119709 
L 350.35245 327.119709 
L 350.35245 322.557333 
L 350.894577 322.557333 
L 350.894577 317.994957 
L 356.151755 317.994957 
L 356.151755 313.43258 
L 358.072774 313.43258 
L 358.072774 308.870204 
L 360.832633 308.870204 
L 360.832633 304.307828 
L 361.144167 304.307828 
L 361.144167 299.745452 
L 365.85158 299.745452 
L 365.85158 295.183075 
L 373.720259 295.183075 
L 373.720259 290.620699 
L 420.271558 290.620699 
L 420.271558 286.058323 
L 426.186067 286.058323 
L 426.186067 281.495947 
L 427.098018 281.495947 
L 427.098018 276.933571 
L 427.938552 276.933571 
L 427.938552 272.371194 
L 428.886926 272.371194 
L 428.886926 267.808818 
L 430.304983 267.808818 
L 430.304983 263.246442 
L 430.784069 263.246442 
L 430.784069 258.684066 
L 431.694797 258.684066 
L 431.694797 254.121689 
L 432.705355 254.121689 
L 432.705355 249.559313 
L 435.34864 249.559313 
L 435.34864 244.996937 
L 435.812201 244.996937 
L 435.812201 240.434561 
L 436.501819 240.434561 
L 436.501819 235.872184 
L 437.929931 235.872184 
L 437.929931 231.309808 
L 439.396956 231.309808 
L 439.396956 226.747432 
L 442.500422 226.747432 
L 442.500422 222.185056 
L 500.640564 222.185056 
L 500.640564 217.622679 
L 501.095272 217.622679 
L 501.095272 213.060303 
L 502.202091 213.060303 
L 502.202091 208.497927 
L 503.318651 208.497927 
L 503.318651 203.935551 
L 503.937279 203.935551 
L 503.937279 199.373175 
L 504.861665 199.373175 
L 504.861665 194.810798 
L 505.682618 194.810798 
L 505.682618 190.248422 
L 506.326028 190.248422 
L 506.326028 185.686046 
L 509.252574 185.686046 
L 509.252574 181.12367 
L 511.143609 181.12367 
L 511.143609 176.561293 
L 511.79265 176.561293 
L 511.79265 171.998917 
L 512.108967 171.998917 
L 512.108967 167.436541 
L 512.920033 167.436541 
L 512.920033 162.874165 
L 512.920033 162.874165 
L 512.920033 162.874165 
L 513.7625 162.874165 
" style="fill:none;stroke:#00bfbf;stroke-linecap:square;"/>
   </g>
   <g id="line2d_34"/>
   <g id="line2d_35">
    <path clip-path="url(#pe3724f2a49)" d="M 336.997669 359.056343 
L 336.997669 354.493967 
L 338.159543 354.493967 
L 338.159543 349.93159 
L 340.913118 349.93159 
L 340.913118 345.369214 
L 341.396051 345.369214 
L 341.396051 340.806838 
L 344.225498 340.806838 
L 344.225498 336.244462 
L 346.370851 336.244462 
L 346.370851 331.682085 
L 348.015868 331.682085 
L 348.015868 327.119709 
L 350.35245 327.119709 
L 350.35245 322.557333 
L 350.894577 322.557333 
L 350.894577 317.994957 
L 356.151755 317.994957 
L 356.151755 313.43258 
L 358.072774 313.43258 
L 358.072774 308.870204 
L 360.832633 308.870204 
L 360.832633 304.307828 
L 361.144167 304.307828 
L 361.144167 299.745452 
L 365.85158 299.745452 
L 365.85158 295.183075 
L 373.720259 295.183075 
L 373.720259 290.620699 
L 475.729488 290.620699 
L 475.729488 286.058323 
L 475.859746 286.058323 
L 475.859746 281.495947 
L 476.922737 281.495947 
L 476.922737 276.933571 
L 477.119643 276.933571 
L 477.119643 272.371194 
L 478.752079 272.371194 
L 478.752079 267.808818 
L 478.99177 267.808818 
L 478.99177 263.246442 
L 479.221101 263.246442 
L 479.221101 258.684066 
L 479.63011 258.684066 
L 479.63011 254.121689 
L 479.753294 254.121689 
L 479.753294 249.559313 
L 479.800614 249.559313 
L 479.800614 244.996937 
L 480.281459 244.996937 
L 480.281459 240.434561 
L 480.703 240.434561 
L 480.703 235.872184 
L 481.998408 235.872184 
L 481.998408 231.309808 
L 482.94538 231.309808 
L 482.94538 226.747432 
L 483.530777 226.747432 
L 483.530777 222.185056 
L 483.530777 222.185056 
L 483.530777 222.185056 
L 513.7625 222.185056 
" style="fill:none;stroke:#bf00bf;stroke-linecap:square;"/>
   </g>
   <g id="line2d_36"/>
   <g id="line2d_37">
    <path clip-path="url(#pe3724f2a49)" d="M 336.997669 359.056343 
L 336.997669 354.493967 
L 338.159543 354.493967 
L 338.159543 349.93159 
L 340.913118 349.93159 
L 340.913118 345.369214 
L 341.396051 345.369214 
L 341.396051 340.806838 
L 344.225498 340.806838 
L 344.225498 336.244462 
L 346.370851 336.244462 
L 346.370851 331.682085 
L 348.015868 331.682085 
L 348.015868 327.119709 
L 350.35245 327.119709 
L 350.35245 322.557333 
L 350.894577 322.557333 
L 350.894577 317.994957 
L 356.151755 317.994957 
L 356.151755 313.43258 
L 358.072774 313.43258 
L 358.072774 308.870204 
L 360.832633 308.870204 
L 360.832633 304.307828 
L 361.144167 304.307828 
L 361.144167 299.745452 
L 365.85158 299.745452 
L 365.85158 295.183075 
L 373.720259 295.183075 
L 373.720259 290.620699 
L 510.877444 290.620699 
L 510.877444 286.058323 
L 511.065075 286.058323 
L 511.065075 281.495947 
L 512.049394 281.495947 
L 512.049394 276.933571 
L 512.613292 276.933571 
L 512.613292 272.371194 
L 512.77273 272.371194 
L 512.77273 267.808818 
L 512.920033 267.808818 
L 512.920033 263.246442 
L 513.090517 263.246442 
L 513.090517 258.684066 
L 513.090517 258.684066 
L 513.090517 258.684066 
L 513.7625 258.684066 
" style="fill:none;stroke:#ff0000;stroke-linecap:square;stroke-width:3.0;"/>
   </g>
   <g id="line2d_38"/>
   <g id="line2d_39">
    <path clip-path="url(#pe3724f2a49)" d="M 513.7625 359.056343 
L 513.7625 13.456343 
" style="fill:none;stroke:#000000;stroke-linecap:square;"/>
   </g>
   <g id="patch_3">
    <path d="M 67.3625 13.456343 
L 513.7625 13.456343 
" style="fill:none;stroke:#000000;stroke-linecap:square;stroke-linejoin:miter;"/>
   </g>
   <g id="patch_4">
    <path d="M 513.7625 359.056343 
L 513.7625 13.456343 
" style="fill:none;stroke:#000000;stroke-linecap:square;stroke-linejoin:miter;"/>
   </g>
   <g id="patch_5">
    <path d="M 67.3625 359.056343 
L 513.7625 359.056343 
" style="fill:none;stroke:#000000;stroke-linecap:square;stroke-linejoin:miter;"/>
   </g>
   <g id="patch_6">
    <path d="M 67.3625 359.056343 
L 67.3625 13.456343 
" style="fill:none;stroke:#000000;stroke-linecap:square;stroke-linejoin:miter;"/>
   </g>
   <g id="matplotlib.axis_1">
    <g id="xtick_1">
     <g id="line2d_40">
      <path clip-path="url(#pe3724f2a49)" d="M 67.3625 359.056343 
L 67.3625 13.456343 
" style="fill:none;stroke:#000000;stroke-dasharray:1.000000,3.000000;stroke-dashoffset:0.0;stroke-width:0.5;"/>
     </g>
     <g id="line2d_41">
      <defs>
       <path d="M 0 0 
L 0 -4 
" id="mc01e0468bf" style="stroke:#000000;stroke-width:0.5;"/>
      </defs>
      <g>
       <use style="stroke:#000000;stroke-width:0.5;" x="67.3625" xlink:href="#mc01e0468bf" y="359.056342822"/>
      </g>
     </g>
     <g id="line2d_42">
      <defs>
       <path d="M 0 0 
L 0 4 
" id="maa24a794ca" style="stroke:#000000;stroke-width:0.5;"/>
      </defs>
      <g>
       <use style="stroke:#000000;stroke-width:0.5;" x="67.3625" xlink:href="#maa24a794ca" y="13.4563428218"/>
      </g>
     </g>
     <g id="text_1">
      <!-- 0 -->
      <defs>
       <path d="M 31.78125 66.40625 
Q 24.171875 66.40625 20.328125 58.90625 
Q 16.5 51.421875 16.5 36.375 
Q 16.5 21.390625 20.328125 13.890625 
Q 24.171875 6.390625 31.78125 6.390625 
Q 39.453125 6.390625 43.28125 13.890625 
Q 47.125 21.390625 47.125 36.375 
Q 47.125 51.421875 43.28125 58.90625 
Q 39.453125 66.40625 31.78125 66.40625 
M 31.78125 74.21875 
Q 44.046875 74.21875 50.515625 64.515625 
Q 56.984375 54.828125 56.984375 36.375 
Q 56.984375 17.96875 50.515625 8.265625 
Q 44.046875 -1.421875 31.78125 -1.421875 
Q 19.53125 -1.421875 13.0625 8.265625 
Q 6.59375 17.96875 6.59375 36.375 
Q 6.59375 54.828125 13.0625 64.515625 
Q 19.53125 74.21875 31.78125 74.21875 
" id="BitstreamVeraSans-Roman-30"/>
      </defs>
      <g transform="translate(61.0 378.253217822)scale(0.2 -0.2)">
       <use xlink:href="#BitstreamVeraSans-Roman-30"/>
      </g>
     </g>
    </g>
    <g id="xtick_2">
     <g id="line2d_43">
      <path clip-path="url(#pe3724f2a49)" d="M 228.044896 359.056343 
L 228.044896 13.456343 
" style="fill:none;stroke:#000000;stroke-dasharray:1.000000,3.000000;stroke-dashoffset:0.0;stroke-width:0.5;"/>
     </g>
     <g id="line2d_44">
      <g>
       <use style="stroke:#000000;stroke-width:0.5;" x="228.04489623" xlink:href="#mc01e0468bf" y="359.056342822"/>
      </g>
     </g>
     <g id="line2d_45">
      <g>
       <use style="stroke:#000000;stroke-width:0.5;" x="228.04489623" xlink:href="#maa24a794ca" y="13.4563428218"/>
      </g>
     </g>
     <g id="text_2">
      <!-- 1 -->
      <defs>
       <path d="M 12.40625 8.296875 
L 28.515625 8.296875 
L 28.515625 63.921875 
L 10.984375 60.40625 
L 10.984375 69.390625 
L 28.421875 72.90625 
L 38.28125 72.90625 
L 38.28125 8.296875 
L 54.390625 8.296875 
L 54.390625 0 
L 12.40625 0 
z
" id="BitstreamVeraSans-Roman-31"/>
      </defs>
      <g transform="translate(221.68239623 378.253217822)scale(0.2 -0.2)">
       <use xlink:href="#BitstreamVeraSans-Roman-31"/>
      </g>
     </g>
    </g>
    <g id="xtick_3">
     <g id="line2d_46">
      <path clip-path="url(#pe3724f2a49)" d="M 388.727292 359.056343 
L 388.727292 13.456343 
" style="fill:none;stroke:#000000;stroke-dasharray:1.000000,3.000000;stroke-dashoffset:0.0;stroke-width:0.5;"/>
     </g>
     <g id="line2d_47">
      <g>
       <use style="stroke:#000000;stroke-width:0.5;" x="388.727292459" xlink:href="#mc01e0468bf" y="359.056342822"/>
      </g>
     </g>
     <g id="line2d_48">
      <g>
       <use style="stroke:#000000;stroke-width:0.5;" x="388.727292459" xlink:href="#maa24a794ca" y="13.4563428218"/>
      </g>
     </g>
     <g id="text_3">
      <!-- 2 -->
      <defs>
       <path d="M 19.1875 8.296875 
L 53.609375 8.296875 
L 53.609375 0 
L 7.328125 0 
L 7.328125 8.296875 
Q 12.9375 14.109375 22.625 23.890625 
Q 32.328125 33.6875 34.8125 36.53125 
Q 39.546875 41.84375 41.421875 45.53125 
Q 43.3125 49.21875 43.3125 52.78125 
Q 43.3125 58.59375 39.234375 62.25 
Q 35.15625 65.921875 28.609375 65.921875 
Q 23.96875 65.921875 18.8125 64.3125 
Q 13.671875 62.703125 7.8125 59.421875 
L 7.8125 69.390625 
Q 13.765625 71.78125 18.9375 73 
Q 24.125 74.21875 28.421875 74.21875 
Q 39.75 74.21875 46.484375 68.546875 
Q 53.21875 62.890625 53.21875 53.421875 
Q 53.21875 48.921875 51.53125 44.890625 
Q 49.859375 40.875 45.40625 35.40625 
Q 44.1875 33.984375 37.640625 27.21875 
Q 31.109375 20.453125 19.1875 8.296875 
" id="BitstreamVeraSans-Roman-32"/>
      </defs>
      <g transform="translate(382.364792459 378.253217822)scale(0.2 -0.2)">
       <use xlink:href="#BitstreamVeraSans-Roman-32"/>
      </g>
     </g>
    </g>
    <g id="xtick_4">
     <g id="line2d_49">
      <defs>
       <path d="M 0 0 
L 0 -2 
" id="m487fa77359" style="stroke:#000000;stroke-width:0.5;"/>
      </defs>
      <g>
       <use style="stroke:#000000;stroke-width:0.5;" x="115.73272104" xlink:href="#m487fa77359" y="359.056342822"/>
      </g>
     </g>
     <g id="line2d_50">
      <defs>
       <path d="M 0 0 
L 0 2 
" id="mbf29dda4ab" style="stroke:#000000;stroke-width:0.5;"/>
      </defs>
      <g>
       <use style="stroke:#000000;stroke-width:0.5;" x="115.73272104" xlink:href="#mbf29dda4ab" y="13.4563428218"/>
      </g>
     </g>
    </g>
    <g id="xtick_5">
     <g id="line2d_51">
      <g>
       <use style="stroke:#000000;stroke-width:0.5;" x="144.0274865" xlink:href="#m487fa77359" y="359.056342822"/>
      </g>
     </g>
     <g id="line2d_52">
      <g>
       <use style="stroke:#000000;stroke-width:0.5;" x="144.0274865" xlink:href="#mbf29dda4ab" y="13.4563428218"/>
      </g>
     </g>
    </g>
    <g id="xtick_6">
     <g id="line2d_53">
      <g>
       <use style="stroke:#000000;stroke-width:0.5;" x="164.102942081" xlink:href="#m487fa77359" y="359.056342822"/>
      </g>
     </g>
     <g id="line2d_54">
      <g>
       <use style="stroke:#000000;stroke-width:0.5;" x="164.102942081" xlink:href="#mbf29dda4ab" y="13.4563428218"/>
      </g>
     </g>
    </g>
    <g id="xtick_7">
     <g id="line2d_55">
      <g>
       <use style="stroke:#000000;stroke-width:0.5;" x="179.674675189" xlink:href="#m487fa77359" y="359.056342822"/>
      </g>
     </g>
     <g id="line2d_56">
      <g>
       <use style="stroke:#000000;stroke-width:0.5;" x="179.674675189" xlink:href="#mbf29dda4ab" y="13.4563428218"/>
      </g>
     </g>
    </g>
    <g id="xtick_8">
     <g id="line2d_57">
      <g>
       <use style="stroke:#000000;stroke-width:0.5;" x="192.397707541" xlink:href="#m487fa77359" y="359.056342822"/>
      </g>
     </g>
     <g id="line2d_58">
      <g>
       <use style="stroke:#000000;stroke-width:0.5;" x="192.397707541" xlink:href="#mbf29dda4ab" y="13.4563428218"/>
      </g>
     </g>
    </g>
    <g id="xtick_9">
     <g id="line2d_59">
      <g>
       <use style="stroke:#000000;stroke-width:0.5;" x="203.154878118" xlink:href="#m487fa77359" y="359.056342822"/>
      </g>
     </g>
     <g id="line2d_60">
      <g>
       <use style="stroke:#000000;stroke-width:0.5;" x="203.154878118" xlink:href="#mbf29dda4ab" y="13.4563428218"/>
      </g>
     </g>
    </g>
    <g id="xtick_10">
     <g id="line2d_61">
      <g>
       <use style="stroke:#000000;stroke-width:0.5;" x="212.473163121" xlink:href="#m487fa77359" y="359.056342822"/>
      </g>
     </g>
     <g id="line2d_62">
      <g>
       <use style="stroke:#000000;stroke-width:0.5;" x="212.473163121" xlink:href="#mbf29dda4ab" y="13.4563428218"/>
      </g>
     </g>
    </g>
    <g id="xtick_11">
     <g id="line2d_63">
      <g>
       <use style="stroke:#000000;stroke-width:0.5;" x="220.692473001" xlink:href="#m487fa77359" y="359.056342822"/>
      </g>
     </g>
     <g id="line2d_64">
      <g>
       <use style="stroke:#000000;stroke-width:0.5;" x="220.692473001" xlink:href="#mbf29dda4ab" y="13.4563428218"/>
      </g>
     </g>
    </g>
    <g id="xtick_12">
     <g id="line2d_65">
      <g>
       <use style="stroke:#000000;stroke-width:0.5;" x="276.41511727" xlink:href="#m487fa77359" y="359.056342822"/>
      </g>
     </g>
     <g id="line2d_66">
      <g>
       <use style="stroke:#000000;stroke-width:0.5;" x="276.41511727" xlink:href="#mbf29dda4ab" y="13.4563428218"/>
      </g>
     </g>
    </g>
    <g id="xtick_13">
     <g id="line2d_67">
      <g>
       <use style="stroke:#000000;stroke-width:0.5;" x="304.70988273" xlink:href="#m487fa77359" y="359.056342822"/>
      </g>
     </g>
     <g id="line2d_68">
      <g>
       <use style="stroke:#000000;stroke-width:0.5;" x="304.70988273" xlink:href="#mbf29dda4ab" y="13.4563428218"/>
      </g>
     </g>
    </g>
    <g id="xtick_14">
     <g id="line2d_69">
      <g>
       <use style="stroke:#000000;stroke-width:0.5;" x="324.78533831" xlink:href="#m487fa77359" y="359.056342822"/>
      </g>
     </g>
     <g id="line2d_70">
      <g>
       <use style="stroke:#000000;stroke-width:0.5;" x="324.78533831" xlink:href="#mbf29dda4ab" y="13.4563428218"/>
      </g>
     </g>
    </g>
    <g id="xtick_15">
     <g id="line2d_71">
      <g>
       <use style="stroke:#000000;stroke-width:0.5;" x="340.357071419" xlink:href="#m487fa77359" y="359.056342822"/>
      </g>
     </g>
     <g id="line2d_72">
      <g>
       <use style="stroke:#000000;stroke-width:0.5;" x="340.357071419" xlink:href="#mbf29dda4ab" y="13.4563428218"/>
      </g>
     </g>
    </g>
    <g id="xtick_16">
     <g id="line2d_73">
      <g>
       <use style="stroke:#000000;stroke-width:0.5;" x="353.08010377" xlink:href="#m487fa77359" y="359.056342822"/>
      </g>
     </g>
     <g id="line2d_74">
      <g>
       <use style="stroke:#000000;stroke-width:0.5;" x="353.08010377" xlink:href="#mbf29dda4ab" y="13.4563428218"/>
      </g>
     </g>
    </g>
    <g id="xtick_17">
     <g id="line2d_75">
      <g>
       <use style="stroke:#000000;stroke-width:0.5;" x="363.837274348" xlink:href="#m487fa77359" y="359.056342822"/>
      </g>
     </g>
     <g id="line2d_76">
      <g>
       <use style="stroke:#000000;stroke-width:0.5;" x="363.837274348" xlink:href="#mbf29dda4ab" y="13.4563428218"/>
      </g>
     </g>
    </g>
    <g id="xtick_18">
     <g id="line2d_77">
      <g>
       <use style="stroke:#000000;stroke-width:0.5;" x="373.15555935" xlink:href="#m487fa77359" y="359.056342822"/>
      </g>
     </g>
     <g id="line2d_78">
      <g>
       <use style="stroke:#000000;stroke-width:0.5;" x="373.15555935" xlink:href="#mbf29dda4ab" y="13.4563428218"/>
      </g>
     </g>
    </g>
    <g id="xtick_19">
     <g id="line2d_79">
      <g>
       <use style="stroke:#000000;stroke-width:0.5;" x="381.374869231" xlink:href="#m487fa77359" y="359.056342822"/>
      </g>
     </g>
     <g id="line2d_80">
      <g>
       <use style="stroke:#000000;stroke-width:0.5;" x="381.374869231" xlink:href="#mbf29dda4ab" y="13.4563428218"/>
      </g>
     </g>
    </g>
    <g id="xtick_20">
     <g id="line2d_81">
      <g>
       <use style="stroke:#000000;stroke-width:0.5;" x="437.0975135" xlink:href="#m487fa77359" y="359.056342822"/>
      </g>
     </g>
     <g id="line2d_82">
      <g>
       <use style="stroke:#000000;stroke-width:0.5;" x="437.0975135" xlink:href="#mbf29dda4ab" y="13.4563428218"/>
      </g>
     </g>
    </g>
    <g id="xtick_21">
     <g id="line2d_83">
      <g>
       <use style="stroke:#000000;stroke-width:0.5;" x="465.39227896" xlink:href="#m487fa77359" y="359.056342822"/>
      </g>
     </g>
     <g id="line2d_84">
      <g>
       <use style="stroke:#000000;stroke-width:0.5;" x="465.39227896" xlink:href="#mbf29dda4ab" y="13.4563428218"/>
      </g>
     </g>
    </g>
    <g id="xtick_22">
     <g id="line2d_85">
      <g>
       <use style="stroke:#000000;stroke-width:0.5;" x="485.46773454" xlink:href="#m487fa77359" y="359.056342822"/>
      </g>
     </g>
     <g id="line2d_86">
      <g>
       <use style="stroke:#000000;stroke-width:0.5;" x="485.46773454" xlink:href="#mbf29dda4ab" y="13.4563428218"/>
      </g>
     </g>
    </g>
    <g id="xtick_23">
     <g id="line2d_87">
      <g>
       <use style="stroke:#000000;stroke-width:0.5;" x="501.039467649" xlink:href="#m487fa77359" y="359.056342822"/>
      </g>
     </g>
     <g id="line2d_88">
      <g>
       <use style="stroke:#000000;stroke-width:0.5;" x="501.039467649" xlink:href="#mbf29dda4ab" y="13.4563428218"/>
      </g>
     </g>
    </g>
    <g id="xtick_24">
     <g id="line2d_89">
      <g>
       <use style="stroke:#000000;stroke-width:0.5;" x="513.7625" xlink:href="#m487fa77359" y="359.056342822"/>
      </g>
     </g>
     <g id="line2d_90">
      <g>
       <use style="stroke:#000000;stroke-width:0.5;" x="513.7625" xlink:href="#mbf29dda4ab" y="13.4563428218"/>
      </g>
     </g>
    </g>
    <g id="text_4">
     <!-- log10 of FEvals / DIM -->
     <defs>
      <path id="BitstreamVeraSans-Roman-20"/>
      <path d="M 9.8125 72.90625 
L 24.515625 72.90625 
L 43.109375 23.296875 
L 61.8125 72.90625 
L 76.515625 72.90625 
L 76.515625 0 
L 66.890625 0 
L 66.890625 64.015625 
L 48.09375 14.015625 
L 38.1875 14.015625 
L 19.390625 64.015625 
L 19.390625 0 
L 9.8125 0 
z
" id="BitstreamVeraSans-Roman-4d"/>
      <path d="M 30.609375 48.390625 
Q 23.390625 48.390625 19.1875 42.75 
Q 14.984375 37.109375 14.984375 27.296875 
Q 14.984375 17.484375 19.15625 11.84375 
Q 23.34375 6.203125 30.609375 6.203125 
Q 37.796875 6.203125 41.984375 11.859375 
Q 46.1875 17.53125 46.1875 27.296875 
Q 46.1875 37.015625 41.984375 42.703125 
Q 37.796875 48.390625 30.609375 48.390625 
M 30.609375 56 
Q 42.328125 56 49.015625 48.375 
Q 55.71875 40.765625 55.71875 27.296875 
Q 55.71875 13.875 49.015625 6.21875 
Q 42.328125 -1.421875 30.609375 -1.421875 
Q 18.84375 -1.421875 12.171875 6.21875 
Q 5.515625 13.875 5.515625 27.296875 
Q 5.515625 40.765625 12.171875 48.375 
Q 18.84375 56 30.609375 56 
" id="BitstreamVeraSans-Roman-6f"/>
      <path d="M 9.421875 75.984375 
L 18.40625 75.984375 
L 18.40625 0 
L 9.421875 0 
z
" id="BitstreamVeraSans-Roman-6c"/>
      <path d="M 9.8125 72.90625 
L 51.703125 72.90625 
L 51.703125 64.59375 
L 19.671875 64.59375 
L 19.671875 43.109375 
L 48.578125 43.109375 
L 48.578125 34.8125 
L 19.671875 34.8125 
L 19.671875 0 
L 9.8125 0 
z
" id="BitstreamVeraSans-Roman-46"/>
      <path d="M 9.8125 72.90625 
L 55.90625 72.90625 
L 55.90625 64.59375 
L 19.671875 64.59375 
L 19.671875 43.015625 
L 54.390625 43.015625 
L 54.390625 34.71875 
L 19.671875 34.71875 
L 19.671875 8.296875 
L 56.78125 8.296875 
L 56.78125 0 
L 9.8125 0 
z
" id="BitstreamVeraSans-Roman-45"/>
      <path d="M 19.671875 64.796875 
L 19.671875 8.109375 
L 31.59375 8.109375 
Q 46.6875 8.109375 53.6875 14.9375 
Q 60.6875 21.78125 60.6875 36.53125 
Q 60.6875 51.171875 53.6875 57.984375 
Q 46.6875 64.796875 31.59375 64.796875 
z
M 9.8125 72.90625 
L 30.078125 72.90625 
Q 51.265625 72.90625 61.171875 64.09375 
Q 71.09375 55.28125 71.09375 36.53125 
Q 71.09375 17.671875 61.125 8.828125 
Q 51.171875 0 30.078125 0 
L 9.8125 0 
z
" id="BitstreamVeraSans-Roman-44"/>
      <path d="M 25.390625 72.90625 
L 33.6875 72.90625 
L 8.296875 -9.28125 
L 0 -9.28125 
z
" id="BitstreamVeraSans-Roman-2f"/>
      <path d="M 2.984375 54.6875 
L 12.5 54.6875 
L 29.59375 8.796875 
L 46.6875 54.6875 
L 56.203125 54.6875 
L 35.6875 0 
L 23.484375 0 
z
" id="BitstreamVeraSans-Roman-76"/>
      <path d="M 45.40625 27.984375 
Q 45.40625 37.75 41.375 43.109375 
Q 37.359375 48.484375 30.078125 48.484375 
Q 22.859375 48.484375 18.828125 43.109375 
Q 14.796875 37.75 14.796875 27.984375 
Q 14.796875 18.265625 18.828125 12.890625 
Q 22.859375 7.515625 30.078125 7.515625 
Q 37.359375 7.515625 41.375 12.890625 
Q 45.40625 18.265625 45.40625 27.984375 
M 54.390625 6.78125 
Q 54.390625 -7.171875 48.1875 -13.984375 
Q 42 -20.796875 29.203125 -20.796875 
Q 24.46875 -20.796875 20.265625 -20.09375 
Q 16.0625 -19.390625 12.109375 -17.921875 
L 12.109375 -9.1875 
Q 16.0625 -11.328125 19.921875 -12.34375 
Q 23.78125 -13.375 27.78125 -13.375 
Q 36.625 -13.375 41.015625 -8.765625 
Q 45.40625 -4.15625 45.40625 5.171875 
L 45.40625 9.625 
Q 42.625 4.78125 38.28125 2.390625 
Q 33.9375 0 27.875 0 
Q 17.828125 0 11.671875 7.65625 
Q 5.515625 15.328125 5.515625 27.984375 
Q 5.515625 40.671875 11.671875 48.328125 
Q 17.828125 56 27.875 56 
Q 33.9375 56 38.28125 53.609375 
Q 42.625 51.21875 45.40625 46.390625 
L 45.40625 54.6875 
L 54.390625 54.6875 
z
" id="BitstreamVeraSans-Roman-67"/>
      <path d="M 37.109375 75.984375 
L 37.109375 68.5 
L 28.515625 68.5 
Q 23.6875 68.5 21.796875 66.546875 
Q 19.921875 64.59375 19.921875 59.515625 
L 19.921875 54.6875 
L 34.71875 54.6875 
L 34.71875 47.703125 
L 19.921875 47.703125 
L 19.921875 0 
L 10.890625 0 
L 10.890625 47.703125 
L 2.296875 47.703125 
L 2.296875 54.6875 
L 10.890625 54.6875 
L 10.890625 58.5 
Q 10.890625 67.625 15.140625 71.796875 
Q 19.390625 75.984375 28.609375 75.984375 
z
" id="BitstreamVeraSans-Roman-66"/>
      <path d="M 34.28125 27.484375 
Q 23.390625 27.484375 19.1875 25 
Q 14.984375 22.515625 14.984375 16.5 
Q 14.984375 11.71875 18.140625 8.90625 
Q 21.296875 6.109375 26.703125 6.109375 
Q 34.1875 6.109375 38.703125 11.40625 
Q 43.21875 16.703125 43.21875 25.484375 
L 43.21875 27.484375 
z
M 52.203125 31.203125 
L 52.203125 0 
L 43.21875 0 
L 43.21875 8.296875 
Q 40.140625 3.328125 35.546875 0.953125 
Q 30.953125 -1.421875 24.3125 -1.421875 
Q 15.921875 -1.421875 10.953125 3.296875 
Q 6 8.015625 6 15.921875 
Q 6 25.140625 12.171875 29.828125 
Q 18.359375 34.515625 30.609375 34.515625 
L 43.21875 34.515625 
L 43.21875 35.40625 
Q 43.21875 41.609375 39.140625 45 
Q 35.0625 48.390625 27.6875 48.390625 
Q 23 48.390625 18.546875 47.265625 
Q 14.109375 46.140625 10.015625 43.890625 
L 10.015625 52.203125 
Q 14.9375 54.109375 19.578125 55.046875 
Q 24.21875 56 28.609375 56 
Q 40.484375 56 46.34375 49.84375 
Q 52.203125 43.703125 52.203125 31.203125 
" id="BitstreamVeraSans-Roman-61"/>
      <path d="M 44.28125 53.078125 
L 44.28125 44.578125 
Q 40.484375 46.53125 36.375 47.5 
Q 32.28125 48.484375 27.875 48.484375 
Q 21.1875 48.484375 17.84375 46.4375 
Q 14.5 44.390625 14.5 40.28125 
Q 14.5 37.15625 16.890625 35.375 
Q 19.28125 33.59375 26.515625 31.984375 
L 29.59375 31.296875 
Q 39.15625 29.25 43.1875 25.515625 
Q 47.21875 21.78125 47.21875 15.09375 
Q 47.21875 7.46875 41.1875 3.015625 
Q 35.15625 -1.421875 24.609375 -1.421875 
Q 20.21875 -1.421875 15.453125 -0.5625 
Q 10.6875 0.296875 5.421875 2 
L 5.421875 11.28125 
Q 10.40625 8.6875 15.234375 7.390625 
Q 20.0625 6.109375 24.8125 6.109375 
Q 31.15625 6.109375 34.5625 8.28125 
Q 37.984375 10.453125 37.984375 14.40625 
Q 37.984375 18.0625 35.515625 20.015625 
Q 33.0625 21.96875 24.703125 23.78125 
L 21.578125 24.515625 
Q 13.234375 26.265625 9.515625 29.90625 
Q 5.8125 33.546875 5.8125 39.890625 
Q 5.8125 47.609375 11.28125 51.796875 
Q 16.75 56 26.8125 56 
Q 31.78125 56 36.171875 55.265625 
Q 40.578125 54.546875 44.28125 53.078125 
" id="BitstreamVeraSans-Roman-73"/>
      <path d="M 9.8125 72.90625 
L 19.671875 72.90625 
L 19.671875 0 
L 9.8125 0 
z
" id="BitstreamVeraSans-Roman-49"/>
     </defs>
     <g transform="translate(185.4890625 402.609467822)scale(0.2 -0.2)">
      <use xlink:href="#BitstreamVeraSans-Roman-6c"/>
      <use x="27.783203125" xlink:href="#BitstreamVeraSans-Roman-6f"/>
      <use x="88.96484375" xlink:href="#BitstreamVeraSans-Roman-67"/>
      <use x="152.44140625" xlink:href="#BitstreamVeraSans-Roman-31"/>
      <use x="216.064453125" xlink:href="#BitstreamVeraSans-Roman-30"/>
      <use x="279.6875" xlink:href="#BitstreamVeraSans-Roman-20"/>
      <use x="311.474609375" xlink:href="#BitstreamVeraSans-Roman-6f"/>
      <use x="372.65625" xlink:href="#BitstreamVeraSans-Roman-66"/>
      <use x="407.861328125" xlink:href="#BitstreamVeraSans-Roman-20"/>
      <use x="439.6484375" xlink:href="#BitstreamVeraSans-Roman-46"/>
      <use x="497.16796875" xlink:href="#BitstreamVeraSans-Roman-45"/>
      <use x="560.3515625" xlink:href="#BitstreamVeraSans-Roman-76"/>
      <use x="619.53125" xlink:href="#BitstreamVeraSans-Roman-61"/>
      <use x="680.810546875" xlink:href="#BitstreamVeraSans-Roman-6c"/>
      <use x="708.59375" xlink:href="#BitstreamVeraSans-Roman-73"/>
      <use x="760.693359375" xlink:href="#BitstreamVeraSans-Roman-20"/>
      <use x="792.48046875" xlink:href="#BitstreamVeraSans-Roman-2f"/>
      <use x="826.171875" xlink:href="#BitstreamVeraSans-Roman-20"/>
      <use x="857.958984375" xlink:href="#BitstreamVeraSans-Roman-44"/>
      <use x="934.9609375" xlink:href="#BitstreamVeraSans-Roman-49"/>
      <use x="964.453125" xlink:href="#BitstreamVeraSans-Roman-4d"/>
     </g>
    </g>
   </g>
   <g id="matplotlib.axis_2">
    <g id="ytick_1">
     <g id="line2d_91">
      <path clip-path="url(#pe3724f2a49)" d="M 67.3625 359.056343 
L 513.7625 359.056343 
" style="fill:none;stroke:#000000;stroke-dasharray:1.000000,3.000000;stroke-dashoffset:0.0;stroke-width:0.5;"/>
     </g>
     <g id="line2d_92">
      <defs>
       <path d="M 0 0 
L 4 0 
" id="m5a4ea6d28e" style="stroke:#000000;stroke-width:0.5;"/>
      </defs>
      <g>
       <use style="stroke:#000000;stroke-width:0.5;" x="67.3625" xlink:href="#m5a4ea6d28e" y="359.056342822"/>
      </g>
     </g>
     <g id="line2d_93">
      <defs>
       <path d="M 0 0 
L -4 0 
" id="mfe1ef3790a" style="stroke:#000000;stroke-width:0.5;"/>
      </defs>
      <g>
       <use style="stroke:#000000;stroke-width:0.5;" x="513.7625" xlink:href="#mfe1ef3790a" y="359.056342822"/>
      </g>
     </g>
     <g id="text_5">
      <!-- 0.0 -->
      <defs>
       <path d="M 10.6875 12.40625 
L 21 12.40625 
L 21 0 
L 10.6875 0 
z
" id="BitstreamVeraSans-Roman-2e"/>
      </defs>
      <g transform="translate(31.55625 364.575092822)scale(0.2 -0.2)">
       <use xlink:href="#BitstreamVeraSans-Roman-30"/>
       <use x="63.623046875" xlink:href="#BitstreamVeraSans-Roman-2e"/>
       <use x="95.41015625" xlink:href="#BitstreamVeraSans-Roman-30"/>
      </g>
     </g>
    </g>
    <g id="ytick_2">
     <g id="line2d_94">
      <path clip-path="url(#pe3724f2a49)" d="M 67.3625 290.620699 
L 513.7625 290.620699 
" style="fill:none;stroke:#000000;stroke-dasharray:1.000000,3.000000;stroke-dashoffset:0.0;stroke-width:0.5;"/>
     </g>
     <g id="line2d_95">
      <g>
       <use style="stroke:#000000;stroke-width:0.5;" x="67.3625" xlink:href="#m5a4ea6d28e" y="290.620699257"/>
      </g>
     </g>
     <g id="line2d_96">
      <g>
       <use style="stroke:#000000;stroke-width:0.5;" x="513.7625" xlink:href="#mfe1ef3790a" y="290.620699257"/>
      </g>
     </g>
     <g id="text_6">
      <!-- 0.2 -->
      <g transform="translate(31.55625 296.139449257)scale(0.2 -0.2)">
       <use xlink:href="#BitstreamVeraSans-Roman-30"/>
       <use x="63.623046875" xlink:href="#BitstreamVeraSans-Roman-2e"/>
       <use x="95.41015625" xlink:href="#BitstreamVeraSans-Roman-32"/>
      </g>
     </g>
    </g>
    <g id="ytick_3">
     <g id="line2d_97">
      <path clip-path="url(#pe3724f2a49)" d="M 67.3625 222.185056 
L 513.7625 222.185056 
" style="fill:none;stroke:#000000;stroke-dasharray:1.000000,3.000000;stroke-dashoffset:0.0;stroke-width:0.5;"/>
     </g>
     <g id="line2d_98">
      <g>
       <use style="stroke:#000000;stroke-width:0.5;" x="67.3625" xlink:href="#m5a4ea6d28e" y="222.185055693"/>
      </g>
     </g>
     <g id="line2d_99">
      <g>
       <use style="stroke:#000000;stroke-width:0.5;" x="513.7625" xlink:href="#mfe1ef3790a" y="222.185055693"/>
      </g>
     </g>
     <g id="text_7">
      <!-- 0.4 -->
      <defs>
       <path d="M 37.796875 64.3125 
L 12.890625 25.390625 
L 37.796875 25.390625 
z
M 35.203125 72.90625 
L 47.609375 72.90625 
L 47.609375 25.390625 
L 58.015625 25.390625 
L 58.015625 17.1875 
L 47.609375 17.1875 
L 47.609375 0 
L 37.796875 0 
L 37.796875 17.1875 
L 4.890625 17.1875 
L 4.890625 26.703125 
z
" id="BitstreamVeraSans-Roman-34"/>
      </defs>
      <g transform="translate(31.55625 227.703805693)scale(0.2 -0.2)">
       <use xlink:href="#BitstreamVeraSans-Roman-30"/>
       <use x="63.623046875" xlink:href="#BitstreamVeraSans-Roman-2e"/>
       <use x="95.41015625" xlink:href="#BitstreamVeraSans-Roman-34"/>
      </g>
     </g>
    </g>
    <g id="ytick_4">
     <g id="line2d_100">
      <path clip-path="url(#pe3724f2a49)" d="M 67.3625 153.749412 
L 513.7625 153.749412 
" style="fill:none;stroke:#000000;stroke-dasharray:1.000000,3.000000;stroke-dashoffset:0.0;stroke-width:0.5;"/>
     </g>
     <g id="line2d_101">
      <g>
       <use style="stroke:#000000;stroke-width:0.5;" x="67.3625" xlink:href="#m5a4ea6d28e" y="153.749412129"/>
      </g>
     </g>
     <g id="line2d_102">
      <g>
       <use style="stroke:#000000;stroke-width:0.5;" x="513.7625" xlink:href="#mfe1ef3790a" y="153.749412129"/>
      </g>
     </g>
     <g id="text_8">
      <!-- 0.6 -->
      <defs>
       <path d="M 33.015625 40.375 
Q 26.375 40.375 22.484375 35.828125 
Q 18.609375 31.296875 18.609375 23.390625 
Q 18.609375 15.53125 22.484375 10.953125 
Q 26.375 6.390625 33.015625 6.390625 
Q 39.65625 6.390625 43.53125 10.953125 
Q 47.40625 15.53125 47.40625 23.390625 
Q 47.40625 31.296875 43.53125 35.828125 
Q 39.65625 40.375 33.015625 40.375 
M 52.59375 71.296875 
L 52.59375 62.3125 
Q 48.875 64.0625 45.09375 64.984375 
Q 41.3125 65.921875 37.59375 65.921875 
Q 27.828125 65.921875 22.671875 59.328125 
Q 17.53125 52.734375 16.796875 39.40625 
Q 19.671875 43.65625 24.015625 45.921875 
Q 28.375 48.1875 33.59375 48.1875 
Q 44.578125 48.1875 50.953125 41.515625 
Q 57.328125 34.859375 57.328125 23.390625 
Q 57.328125 12.15625 50.6875 5.359375 
Q 44.046875 -1.421875 33.015625 -1.421875 
Q 20.359375 -1.421875 13.671875 8.265625 
Q 6.984375 17.96875 6.984375 36.375 
Q 6.984375 53.65625 15.1875 63.9375 
Q 23.390625 74.21875 37.203125 74.21875 
Q 40.921875 74.21875 44.703125 73.484375 
Q 48.484375 72.75 52.59375 71.296875 
" id="BitstreamVeraSans-Roman-36"/>
      </defs>
      <g transform="translate(31.55625 159.268162129)scale(0.2 -0.2)">
       <use xlink:href="#BitstreamVeraSans-Roman-30"/>
       <use x="63.623046875" xlink:href="#BitstreamVeraSans-Roman-2e"/>
       <use x="95.41015625" xlink:href="#BitstreamVeraSans-Roman-36"/>
      </g>
     </g>
    </g>
    <g id="ytick_5">
     <g id="line2d_103">
      <path clip-path="url(#pe3724f2a49)" d="M 67.3625 85.313769 
L 513.7625 85.313769 
" style="fill:none;stroke:#000000;stroke-dasharray:1.000000,3.000000;stroke-dashoffset:0.0;stroke-width:0.5;"/>
     </g>
     <g id="line2d_104">
      <g>
       <use style="stroke:#000000;stroke-width:0.5;" x="67.3625" xlink:href="#m5a4ea6d28e" y="85.3137685644"/>
      </g>
     </g>
     <g id="line2d_105">
      <g>
       <use style="stroke:#000000;stroke-width:0.5;" x="513.7625" xlink:href="#mfe1ef3790a" y="85.3137685644"/>
      </g>
     </g>
     <g id="text_9">
      <!-- 0.8 -->
      <defs>
       <path d="M 31.78125 34.625 
Q 24.75 34.625 20.71875 30.859375 
Q 16.703125 27.09375 16.703125 20.515625 
Q 16.703125 13.921875 20.71875 10.15625 
Q 24.75 6.390625 31.78125 6.390625 
Q 38.8125 6.390625 42.859375 10.171875 
Q 46.921875 13.96875 46.921875 20.515625 
Q 46.921875 27.09375 42.890625 30.859375 
Q 38.875 34.625 31.78125 34.625 
M 21.921875 38.8125 
Q 15.578125 40.375 12.03125 44.71875 
Q 8.5 49.078125 8.5 55.328125 
Q 8.5 64.0625 14.71875 69.140625 
Q 20.953125 74.21875 31.78125 74.21875 
Q 42.671875 74.21875 48.875 69.140625 
Q 55.078125 64.0625 55.078125 55.328125 
Q 55.078125 49.078125 51.53125 44.71875 
Q 48 40.375 41.703125 38.8125 
Q 48.828125 37.15625 52.796875 32.3125 
Q 56.78125 27.484375 56.78125 20.515625 
Q 56.78125 9.90625 50.3125 4.234375 
Q 43.84375 -1.421875 31.78125 -1.421875 
Q 19.734375 -1.421875 13.25 4.234375 
Q 6.78125 9.90625 6.78125 20.515625 
Q 6.78125 27.484375 10.78125 32.3125 
Q 14.796875 37.15625 21.921875 38.8125 
M 18.3125 54.390625 
Q 18.3125 48.734375 21.84375 45.5625 
Q 25.390625 42.390625 31.78125 42.390625 
Q 38.140625 42.390625 41.71875 45.5625 
Q 45.3125 48.734375 45.3125 54.390625 
Q 45.3125 60.0625 41.71875 63.234375 
Q 38.140625 66.40625 31.78125 66.40625 
Q 25.390625 66.40625 21.84375 63.234375 
Q 18.3125 60.0625 18.3125 54.390625 
" id="BitstreamVeraSans-Roman-38"/>
      </defs>
      <g transform="translate(31.55625 90.8325185644)scale(0.2 -0.2)">
       <use xlink:href="#BitstreamVeraSans-Roman-30"/>
       <use x="63.623046875" xlink:href="#BitstreamVeraSans-Roman-2e"/>
       <use x="95.41015625" xlink:href="#BitstreamVeraSans-Roman-38"/>
      </g>
     </g>
    </g>
    <g id="ytick_6">
     <g id="line2d_106">
      <path clip-path="url(#pe3724f2a49)" d="M 67.3625 16.878125 
L 513.7625 16.878125 
" style="fill:none;stroke:#000000;stroke-dasharray:1.000000,3.000000;stroke-dashoffset:0.0;stroke-width:0.5;"/>
     </g>
     <g id="line2d_107">
      <g>
       <use style="stroke:#000000;stroke-width:0.5;" x="67.3625" xlink:href="#m5a4ea6d28e" y="16.878125"/>
      </g>
     </g>
     <g id="line2d_108">
      <g>
       <use style="stroke:#000000;stroke-width:0.5;" x="513.7625" xlink:href="#mfe1ef3790a" y="16.878125"/>
      </g>
     </g>
     <g id="text_10">
      <!-- 1.0 -->
      <g transform="translate(31.55625 22.396875)scale(0.2 -0.2)">
       <use xlink:href="#BitstreamVeraSans-Roman-31"/>
       <use x="63.623046875" xlink:href="#BitstreamVeraSans-Roman-2e"/>
       <use x="95.41015625" xlink:href="#BitstreamVeraSans-Roman-30"/>
      </g>
     </g>
    </g>
    <g id="text_11">
     <!-- proportion of trials -->
     <defs>
      <path d="M 54.890625 33.015625 
L 54.890625 0 
L 45.90625 0 
L 45.90625 32.71875 
Q 45.90625 40.484375 42.875 44.328125 
Q 39.84375 48.1875 33.796875 48.1875 
Q 26.515625 48.1875 22.3125 43.546875 
Q 18.109375 38.921875 18.109375 30.90625 
L 18.109375 0 
L 9.078125 0 
L 9.078125 54.6875 
L 18.109375 54.6875 
L 18.109375 46.1875 
Q 21.34375 51.125 25.703125 53.5625 
Q 30.078125 56 35.796875 56 
Q 45.21875 56 50.046875 50.171875 
Q 54.890625 44.34375 54.890625 33.015625 
" id="BitstreamVeraSans-Roman-6e"/>
      <path d="M 9.421875 54.6875 
L 18.40625 54.6875 
L 18.40625 0 
L 9.421875 0 
z
M 9.421875 75.984375 
L 18.40625 75.984375 
L 18.40625 64.59375 
L 9.421875 64.59375 
z
" id="BitstreamVeraSans-Roman-69"/>
      <path d="M 18.3125 70.21875 
L 18.3125 54.6875 
L 36.8125 54.6875 
L 36.8125 47.703125 
L 18.3125 47.703125 
L 18.3125 18.015625 
Q 18.3125 11.328125 20.140625 9.421875 
Q 21.96875 7.515625 27.59375 7.515625 
L 36.8125 7.515625 
L 36.8125 0 
L 27.59375 0 
Q 17.1875 0 13.234375 3.875 
Q 9.28125 7.765625 9.28125 18.015625 
L 9.28125 47.703125 
L 2.6875 47.703125 
L 2.6875 54.6875 
L 9.28125 54.6875 
L 9.28125 70.21875 
z
" id="BitstreamVeraSans-Roman-74"/>
      <path d="M 41.109375 46.296875 
Q 39.59375 47.171875 37.8125 47.578125 
Q 36.03125 48 33.890625 48 
Q 26.265625 48 22.1875 43.046875 
Q 18.109375 38.09375 18.109375 28.8125 
L 18.109375 0 
L 9.078125 0 
L 9.078125 54.6875 
L 18.109375 54.6875 
L 18.109375 46.1875 
Q 20.953125 51.171875 25.484375 53.578125 
Q 30.03125 56 36.53125 56 
Q 37.453125 56 38.578125 55.875 
Q 39.703125 55.765625 41.0625 55.515625 
z
" id="BitstreamVeraSans-Roman-72"/>
      <path d="M 18.109375 8.203125 
L 18.109375 -20.796875 
L 9.078125 -20.796875 
L 9.078125 54.6875 
L 18.109375 54.6875 
L 18.109375 46.390625 
Q 20.953125 51.265625 25.265625 53.625 
Q 29.59375 56 35.59375 56 
Q 45.5625 56 51.78125 48.09375 
Q 58.015625 40.1875 58.015625 27.296875 
Q 58.015625 14.40625 51.78125 6.484375 
Q 45.5625 -1.421875 35.59375 -1.421875 
Q 29.59375 -1.421875 25.265625 0.953125 
Q 20.953125 3.328125 18.109375 8.203125 
M 48.6875 27.296875 
Q 48.6875 37.203125 44.609375 42.84375 
Q 40.53125 48.484375 33.40625 48.484375 
Q 26.265625 48.484375 22.1875 42.84375 
Q 18.109375 37.203125 18.109375 27.296875 
Q 18.109375 17.390625 22.1875 11.75 
Q 26.265625 6.109375 33.40625 6.109375 
Q 40.53125 6.109375 44.609375 11.75 
Q 48.6875 17.390625 48.6875 27.296875 
" id="BitstreamVeraSans-Roman-70"/>
     </defs>
     <g transform="translate(22.396875 279.484467822)rotate(-90.0)scale(0.2 -0.2)">
      <use xlink:href="#BitstreamVeraSans-Roman-70"/>
      <use x="63.4765625" xlink:href="#BitstreamVeraSans-Roman-72"/>
      <use x="104.55859375" xlink:href="#BitstreamVeraSans-Roman-6f"/>
      <use x="165.740234375" xlink:href="#BitstreamVeraSans-Roman-70"/>
      <use x="229.216796875" xlink:href="#BitstreamVeraSans-Roman-6f"/>
      <use x="290.3984375" xlink:href="#BitstreamVeraSans-Roman-72"/>
      <use x="331.51171875" xlink:href="#BitstreamVeraSans-Roman-74"/>
      <use x="370.720703125" xlink:href="#BitstreamVeraSans-Roman-69"/>
      <use x="398.50390625" xlink:href="#BitstreamVeraSans-Roman-6f"/>
      <use x="459.685546875" xlink:href="#BitstreamVeraSans-Roman-6e"/>
      <use x="523.064453125" xlink:href="#BitstreamVeraSans-Roman-20"/>
      <use x="554.8515625" xlink:href="#BitstreamVeraSans-Roman-6f"/>
      <use x="616.033203125" xlink:href="#BitstreamVeraSans-Roman-66"/>
      <use x="651.23828125" xlink:href="#BitstreamVeraSans-Roman-20"/>
      <use x="683.025390625" xlink:href="#BitstreamVeraSans-Roman-74"/>
      <use x="722.234375" xlink:href="#BitstreamVeraSans-Roman-72"/>
      <use x="763.34765625" xlink:href="#BitstreamVeraSans-Roman-69"/>
      <use x="791.130859375" xlink:href="#BitstreamVeraSans-Roman-61"/>
      <use x="852.41015625" xlink:href="#BitstreamVeraSans-Roman-6c"/>
      <use x="880.193359375" xlink:href="#BitstreamVeraSans-Roman-73"/>
     </g>
    </g>
   </g>
   <g id="text_12">
    <!-- {f1-f5}, 20-D -->
    <defs>
     <path d="M 11.71875 12.40625 
L 22.015625 12.40625 
L 22.015625 4 
L 14.015625 -11.625 
L 7.71875 -11.625 
L 11.71875 4 
z
" id="BitstreamVeraSans-Roman-2c"/>
     <path d="M 12.5 -9.28125 
L 15.921875 -9.28125 
Q 22.75 -9.28125 24.828125 -7.171875 
Q 26.90625 -5.078125 26.90625 1.90625 
L 26.90625 14.015625 
Q 26.90625 21.625 29.09375 25.09375 
Q 31.296875 28.5625 36.71875 29.890625 
Q 31.296875 31.109375 29.09375 34.5625 
Q 26.90625 38.03125 26.90625 45.703125 
L 26.90625 57.8125 
Q 26.90625 64.75 24.828125 66.875 
Q 22.75 69 15.921875 69 
L 12.5 69 
L 12.5 75.984375 
L 15.578125 75.984375 
Q 27.734375 75.984375 31.8125 72.390625 
Q 35.890625 68.796875 35.890625 58.015625 
L 35.890625 46.296875 
Q 35.890625 39.015625 38.515625 36.203125 
Q 41.15625 33.40625 48.09375 33.40625 
L 51.125 33.40625 
L 51.125 26.421875 
L 48.09375 26.421875 
Q 41.15625 26.421875 38.515625 23.578125 
Q 35.890625 20.75 35.890625 13.375 
L 35.890625 1.703125 
Q 35.890625 -9.078125 31.8125 -12.6875 
Q 27.734375 -16.3125 15.578125 -16.3125 
L 12.5 -16.3125 
z
" id="BitstreamVeraSans-Roman-7d"/>
     <path d="M 51.125 -9.28125 
L 51.125 -16.3125 
L 48.09375 -16.3125 
Q 35.9375 -16.3125 31.8125 -12.6875 
Q 27.6875 -9.078125 27.6875 1.703125 
L 27.6875 13.375 
Q 27.6875 20.75 25.046875 23.578125 
Q 22.40625 26.421875 15.484375 26.421875 
L 12.5 26.421875 
L 12.5 33.40625 
L 15.484375 33.40625 
Q 22.46875 33.40625 25.078125 36.203125 
Q 27.6875 39.015625 27.6875 46.296875 
L 27.6875 58.015625 
Q 27.6875 68.796875 31.8125 72.390625 
Q 35.9375 75.984375 48.09375 75.984375 
L 51.125 75.984375 
L 51.125 69 
L 47.796875 69 
Q 40.921875 69 38.8125 66.84375 
Q 36.71875 64.703125 36.71875 57.8125 
L 36.71875 45.703125 
Q 36.71875 38.03125 34.5 34.5625 
Q 32.28125 31.109375 26.90625 29.890625 
Q 32.328125 28.5625 34.515625 25.09375 
Q 36.71875 21.625 36.71875 14.015625 
L 36.71875 1.90625 
Q 36.71875 -4.984375 38.8125 -7.125 
Q 40.921875 -9.28125 47.796875 -9.28125 
z
" id="BitstreamVeraSans-Roman-7b"/>
     <path d="M 4.890625 31.390625 
L 31.203125 31.390625 
L 31.203125 23.390625 
L 4.890625 23.390625 
z
" id="BitstreamVeraSans-Roman-2d"/>
     <path d="M 10.796875 72.90625 
L 49.515625 72.90625 
L 49.515625 64.59375 
L 19.828125 64.59375 
L 19.828125 46.734375 
Q 21.96875 47.46875 24.109375 47.828125 
Q 26.265625 48.1875 28.421875 48.1875 
Q 40.625 48.1875 47.75 41.5 
Q 54.890625 34.8125 54.890625 23.390625 
Q 54.890625 11.625 47.5625 5.09375 
Q 40.234375 -1.421875 26.90625 -1.421875 
Q 22.3125 -1.421875 17.546875 -0.640625 
Q 12.796875 0.140625 7.71875 1.703125 
L 7.71875 11.625 
Q 12.109375 9.234375 16.796875 8.0625 
Q 21.484375 6.890625 26.703125 6.890625 
Q 35.15625 6.890625 40.078125 11.328125 
Q 45.015625 15.765625 45.015625 23.390625 
Q 45.015625 31 40.078125 35.4375 
Q 35.15625 39.890625 26.703125 39.890625 
Q 22.75 39.890625 18.8125 39.015625 
Q 14.890625 38.140625 10.796875 36.28125 
z
" id="BitstreamVeraSans-Roman-35"/>
    </defs>
    <g transform="translate(224.075 35.5652178218)scale(0.2 -0.2)">
     <use xlink:href="#BitstreamVeraSans-Roman-7b"/>
     <use x="63.623046875" xlink:href="#BitstreamVeraSans-Roman-66"/>
     <use x="98.828125" xlink:href="#BitstreamVeraSans-Roman-31"/>
     <use x="162.451171875" xlink:href="#BitstreamVeraSans-Roman-2d"/>
     <use x="198.53515625" xlink:href="#BitstreamVeraSans-Roman-66"/>
     <use x="233.740234375" xlink:href="#BitstreamVeraSans-Roman-35"/>
     <use x="297.36328125" xlink:href="#BitstreamVeraSans-Roman-7d"/>
     <use x="360.986328125" xlink:href="#BitstreamVeraSans-Roman-2c"/>
     <use x="392.7734375" xlink:href="#BitstreamVeraSans-Roman-20"/>
     <use x="424.560546875" xlink:href="#BitstreamVeraSans-Roman-32"/>
     <use x="488.18359375" xlink:href="#BitstreamVeraSans-Roman-30"/>
     <use x="551.806640625" xlink:href="#BitstreamVeraSans-Roman-2d"/>
     <use x="587.890625" xlink:href="#BitstreamVeraSans-Roman-44"/>
    </g>
   </g>
   <g id="text_13">
    <!-- absolute targets -->
    <defs>
     <path d="M 56.203125 29.59375 
L 56.203125 25.203125 
L 14.890625 25.203125 
Q 15.484375 15.921875 20.484375 11.0625 
Q 25.484375 6.203125 34.421875 6.203125 
Q 39.59375 6.203125 44.453125 7.46875 
Q 49.3125 8.734375 54.109375 11.28125 
L 54.109375 2.78125 
Q 49.265625 0.734375 44.1875 -0.34375 
Q 39.109375 -1.421875 33.890625 -1.421875 
Q 20.796875 -1.421875 13.15625 6.1875 
Q 5.515625 13.8125 5.515625 26.8125 
Q 5.515625 40.234375 12.765625 48.109375 
Q 20.015625 56 32.328125 56 
Q 43.359375 56 49.78125 48.890625 
Q 56.203125 41.796875 56.203125 29.59375 
M 47.21875 32.234375 
Q 47.125 39.59375 43.09375 43.984375 
Q 39.0625 48.390625 32.421875 48.390625 
Q 24.90625 48.390625 20.390625 44.140625 
Q 15.875 39.890625 15.1875 32.171875 
z
" id="BitstreamVeraSans-Roman-65"/>
     <path d="M 8.5 21.578125 
L 8.5 54.6875 
L 17.484375 54.6875 
L 17.484375 21.921875 
Q 17.484375 14.15625 20.5 10.265625 
Q 23.53125 6.390625 29.59375 6.390625 
Q 36.859375 6.390625 41.078125 11.03125 
Q 45.3125 15.671875 45.3125 23.6875 
L 45.3125 54.6875 
L 54.296875 54.6875 
L 54.296875 0 
L 45.3125 0 
L 45.3125 8.40625 
Q 42.046875 3.421875 37.71875 1 
Q 33.40625 -1.421875 27.6875 -1.421875 
Q 18.265625 -1.421875 13.375 4.4375 
Q 8.5 10.296875 8.5 21.578125 
" id="BitstreamVeraSans-Roman-75"/>
     <path d="M 48.6875 27.296875 
Q 48.6875 37.203125 44.609375 42.84375 
Q 40.53125 48.484375 33.40625 48.484375 
Q 26.265625 48.484375 22.1875 42.84375 
Q 18.109375 37.203125 18.109375 27.296875 
Q 18.109375 17.390625 22.1875 11.75 
Q 26.265625 6.109375 33.40625 6.109375 
Q 40.53125 6.109375 44.609375 11.75 
Q 48.6875 17.390625 48.6875 27.296875 
M 18.109375 46.390625 
Q 20.953125 51.265625 25.265625 53.625 
Q 29.59375 56 35.59375 56 
Q 45.5625 56 51.78125 48.09375 
Q 58.015625 40.1875 58.015625 27.296875 
Q 58.015625 14.40625 51.78125 6.484375 
Q 45.5625 -1.421875 35.59375 -1.421875 
Q 29.59375 -1.421875 25.265625 0.953125 
Q 20.953125 3.328125 18.109375 8.203125 
L 18.109375 0 
L 9.078125 0 
L 9.078125 75.984375 
L 18.109375 75.984375 
z
" id="BitstreamVeraSans-Roman-62"/>
    </defs>
    <g transform="translate(67.3625 359.056342822)scale(0.14 -0.14)">
     <use xlink:href="#BitstreamVeraSans-Roman-61"/>
     <use x="61.279296875" xlink:href="#BitstreamVeraSans-Roman-62"/>
     <use x="124.755859375" xlink:href="#BitstreamVeraSans-Roman-73"/>
     <use x="176.85546875" xlink:href="#BitstreamVeraSans-Roman-6f"/>
     <use x="238.037109375" xlink:href="#BitstreamVeraSans-Roman-6c"/>
     <use x="265.8203125" xlink:href="#BitstreamVeraSans-Roman-75"/>
     <use x="329.19921875" xlink:href="#BitstreamVeraSans-Roman-74"/>
     <use x="368.408203125" xlink:href="#BitstreamVeraSans-Roman-65"/>
     <use x="429.931640625" xlink:href="#BitstreamVeraSans-Roman-20"/>
     <use x="461.71875" xlink:href="#BitstreamVeraSans-Roman-74"/>
     <use x="500.927734375" xlink:href="#BitstreamVeraSans-Roman-61"/>
     <use x="562.20703125" xlink:href="#BitstreamVeraSans-Roman-72"/>
     <use x="603.3046875" xlink:href="#BitstreamVeraSans-Roman-67"/>
     <use x="666.78125" xlink:href="#BitstreamVeraSans-Roman-65"/>
     <use x="728.3046875" xlink:href="#BitstreamVeraSans-Roman-74"/>
     <use x="767.513671875" xlink:href="#BitstreamVeraSans-Roman-73"/>
    </g>
   </g>
   <g id="text_14">
    <!-- 0.0.0 -->
    <g style="fill:#808080;" transform="translate(277.840625 353.520655322)scale(0.1 -0.1)">
     <use xlink:href="#BitstreamVeraSans-Roman-30"/>
     <use x="63.623046875" xlink:href="#BitstreamVeraSans-Roman-2e"/>
     <use x="95.41015625" xlink:href="#BitstreamVeraSans-Roman-30"/>
     <use x="159.033203125" xlink:href="#BitstreamVeraSans-Roman-2e"/>
     <use x="190.8203125" xlink:href="#BitstreamVeraSans-Roman-30"/>
    </g>
   </g>
   <g id="legend_1">
    <g id="patch_7">
     <path d="M 77.3625 146.881343 
L 214.584375 146.881343 
L 214.584375 23.456343 
L 77.3625 23.456343 
z
" style="fill:#ffffff;opacity:0.2;stroke:#000000;stroke-linejoin:miter;"/>
    </g>
    <g id="line2d_109">
     <path d="M 91.3625 39.653218 
L 119.3625 39.653218 
" style="fill:none;stroke:#000000;stroke-linecap:square;"/>
    </g>
    <g id="line2d_110"/>
    <g id="text_15">
     <!-- 1: 3/5 -->
     <defs>
      <path d="M 40.578125 39.3125 
Q 47.65625 37.796875 51.625 33 
Q 55.609375 28.21875 55.609375 21.1875 
Q 55.609375 10.40625 48.1875 4.484375 
Q 40.765625 -1.421875 27.09375 -1.421875 
Q 22.515625 -1.421875 17.65625 -0.515625 
Q 12.796875 0.390625 7.625 2.203125 
L 7.625 11.71875 
Q 11.71875 9.328125 16.59375 8.109375 
Q 21.484375 6.890625 26.8125 6.890625 
Q 36.078125 6.890625 40.9375 10.546875 
Q 45.796875 14.203125 45.796875 21.1875 
Q 45.796875 27.640625 41.28125 31.265625 
Q 36.765625 34.90625 28.71875 34.90625 
L 20.21875 34.90625 
L 20.21875 43.015625 
L 29.109375 43.015625 
Q 36.375 43.015625 40.234375 45.921875 
Q 44.09375 48.828125 44.09375 54.296875 
Q 44.09375 59.90625 40.109375 62.90625 
Q 36.140625 65.921875 28.71875 65.921875 
Q 24.65625 65.921875 20.015625 65.03125 
Q 15.375 64.15625 9.8125 62.3125 
L 9.8125 71.09375 
Q 15.4375 72.65625 20.34375 73.4375 
Q 25.25 74.21875 29.59375 74.21875 
Q 40.828125 74.21875 47.359375 69.109375 
Q 53.90625 64.015625 53.90625 55.328125 
Q 53.90625 49.265625 50.4375 45.09375 
Q 46.96875 40.921875 40.578125 39.3125 
" id="BitstreamVeraSans-Roman-33"/>
      <path d="M 11.71875 12.40625 
L 22.015625 12.40625 
L 22.015625 0 
L 11.71875 0 
z
M 11.71875 51.703125 
L 22.015625 51.703125 
L 22.015625 39.3125 
L 11.71875 39.3125 
z
" id="BitstreamVeraSans-Roman-3a"/>
     </defs>
     <g transform="translate(141.3625 46.6532178218)scale(0.2 -0.2)">
      <use xlink:href="#BitstreamVeraSans-Roman-31"/>
      <use x="63.623046875" xlink:href="#BitstreamVeraSans-Roman-3a"/>
      <use x="97.314453125" xlink:href="#BitstreamVeraSans-Roman-20"/>
      <use x="129.1015625" xlink:href="#BitstreamVeraSans-Roman-33"/>
      <use x="192.724609375" xlink:href="#BitstreamVeraSans-Roman-2f"/>
      <use x="226.416015625" xlink:href="#BitstreamVeraSans-Roman-35"/>
     </g>
    </g>
    <g id="line2d_111">
     <path d="M 91.3625 69.009468 
L 119.3625 69.009468 
" style="fill:none;stroke:#00bfbf;stroke-linecap:square;"/>
    </g>
    <g id="line2d_112"/>
    <g id="text_16">
     <!-- -1: 3/5 -->
     <g transform="translate(141.3625 76.0094678218)scale(0.2 -0.2)">
      <use xlink:href="#BitstreamVeraSans-Roman-2d"/>
      <use x="36.083984375" xlink:href="#BitstreamVeraSans-Roman-31"/>
      <use x="99.70703125" xlink:href="#BitstreamVeraSans-Roman-3a"/>
      <use x="133.3984375" xlink:href="#BitstreamVeraSans-Roman-20"/>
      <use x="165.185546875" xlink:href="#BitstreamVeraSans-Roman-33"/>
      <use x="228.80859375" xlink:href="#BitstreamVeraSans-Roman-2f"/>
      <use x="262.5" xlink:href="#BitstreamVeraSans-Roman-35"/>
     </g>
    </g>
    <g id="line2d_113">
     <path d="M 91.3625 98.365718 
L 119.3625 98.365718 
" style="fill:none;stroke:#bf00bf;stroke-linecap:square;"/>
    </g>
    <g id="line2d_114"/>
    <g id="text_17">
     <!-- -4: 2/5 -->
     <g transform="translate(141.3625 105.365717822)scale(0.2 -0.2)">
      <use xlink:href="#BitstreamVeraSans-Roman-2d"/>
      <use x="36.083984375" xlink:href="#BitstreamVeraSans-Roman-34"/>
      <use x="99.70703125" xlink:href="#BitstreamVeraSans-Roman-3a"/>
      <use x="133.3984375" xlink:href="#BitstreamVeraSans-Roman-20"/>
      <use x="165.185546875" xlink:href="#BitstreamVeraSans-Roman-32"/>
      <use x="228.80859375" xlink:href="#BitstreamVeraSans-Roman-2f"/>
      <use x="262.5" xlink:href="#BitstreamVeraSans-Roman-35"/>
     </g>
    </g>
    <g id="line2d_115">
     <path d="M 91.3625 127.721968 
L 119.3625 127.721968 
" style="fill:none;stroke:#ff0000;stroke-linecap:square;stroke-width:3.0;"/>
    </g>
    <g id="line2d_116"/>
    <g id="text_18">
     <!-- -8: 2/5 -->
     <g transform="translate(141.3625 134.721967822)scale(0.2 -0.2)">
      <use xlink:href="#BitstreamVeraSans-Roman-2d"/>
      <use x="36.083984375" xlink:href="#BitstreamVeraSans-Roman-38"/>
      <use x="99.70703125" xlink:href="#BitstreamVeraSans-Roman-3a"/>
      <use x="133.3984375" xlink:href="#BitstreamVeraSans-Roman-20"/>
      <use x="165.185546875" xlink:href="#BitstreamVeraSans-Roman-32"/>
      <use x="228.80859375" xlink:href="#BitstreamVeraSans-Roman-2f"/>
      <use x="262.5" xlink:href="#BitstreamVeraSans-Roman-35"/>
     </g>
    </g>
   </g>
  </g>
 </g>
 <defs>
  <clipPath id="pe3724f2a49">
   <rect height="345.6" width="446.4" x="67.3625" y="13.4563428218"/>
  </clipPath>
 </defs>
</svg>
