<?xml version="1.0" encoding="utf-8" standalone="no"?>
<!DOCTYPE svg PUBLIC "-//W3C//DTD SVG 1.1//EN"
  "http://www.w3.org/Graphics/SVG/1.1/DTD/svg11.dtd">
<!-- Created with matplotlib (http://matplotlib.org/) -->
<svg height="407pt" version="1.1" viewBox="0 0 460 407" width="460pt" xmlns="http://www.w3.org/2000/svg" xmlns:xlink="http://www.w3.org/1999/xlink">
 <defs>
  <style type="text/css">
*{stroke-linecap:butt;stroke-linejoin:round;stroke-miterlimit:100000;}
  </style>
 </defs>
 <g id="figure_1">
  <g id="patch_1">
   <path d="M 0 407.7125 
L 460.8 407.7125 
L 460.8 0 
L 0 0 
z
" style="fill:#ffffff;"/>
  </g>
  <g id="axes_1">
   <g id="patch_2">
    <path d="M 7.2 352.8 
L 453.6 352.8 
L 453.6 7.2 
L 7.2 7.2 
z
" style="fill:#ffffff;"/>
   </g>
   <g id="line2d_1">
    <path clip-path="url(#pace674aa8d)" d="M 146.690574 352.8 
L 146.690574 348.237624 
L 158.413536 348.237624 
L 158.413536 343.675248 
L 163.501703 343.675248 
L 163.501703 339.112871 
L 164.517218 339.112871 
L 164.517218 334.550495 
L 171.212557 334.550495 
L 171.212557 329.988119 
L 171.574765 329.988119 
L 171.574765 325.425743 
L 173.8635 325.425743 
L 173.8635 320.863366 
L 178.947574 320.863366 
L 178.947574 316.30099 
L 179.603492 316.30099 
L 179.603492 311.738614 
L 181.991292 311.738614 
L 181.991292 307.176238 
L 182.461104 307.176238 
L 182.461104 302.613861 
L 187.129962 302.613861 
L 187.129962 298.051485 
L 192.427545 298.051485 
L 192.427545 293.489109 
L 195.696662 293.489109 
L 195.696662 288.926733 
L 203.693717 288.926733 
L 203.693717 284.364356 
L 227.059032 284.364356 
L 227.059032 279.80198 
L 228.402126 279.80198 
L 228.402126 275.239604 
L 229.441797 275.239604 
L 229.441797 270.677228 
L 231.337447 270.677228 
L 231.337447 266.114851 
L 232.171145 266.114851 
L 232.171145 261.552475 
L 233.69937 261.552475 
L 233.69937 256.990099 
L 234.049728 256.990099 
L 234.049728 252.427723 
L 234.460118 252.427723 
L 234.460118 247.865347 
L 236.268548 247.865347 
L 236.268548 243.30297 
L 236.924008 243.30297 
L 236.924008 238.740594 
L 237.752153 238.740594 
L 237.752153 234.178218 
L 238.986779 234.178218 
L 239.050917 225.053465 
L 239.343461 225.053465 
L 239.343461 220.491089 
L 239.823039 220.491089 
L 239.823039 215.928713 
L 240.918939 215.928713 
L 240.918939 211.366337 
L 241.553993 211.366337 
L 241.553993 206.80396 
L 241.753702 206.80396 
L 241.753702 202.241584 
L 242.959861 202.241584 
L 242.959861 197.679208 
L 246.229289 197.679208 
L 246.229289 193.116832 
L 246.560972 193.116832 
L 246.560972 188.554455 
L 247.640583 188.554455 
L 247.640583 183.992079 
L 248.097286 183.992079 
L 248.097286 179.429703 
L 249.74121 179.429703 
L 249.74121 174.867327 
L 251.559204 174.867327 
L 251.559204 170.30495 
L 252.122753 170.30495 
L 252.122753 165.742574 
L 253.772058 165.742574 
L 253.772058 161.180198 
L 255.801716 161.180198 
L 255.801716 156.617822 
L 256.735244 156.617822 
L 256.753799 147.493069 
L 265.803571 147.493069 
L 265.803571 142.930693 
L 273.676589 142.930693 
L 273.676589 138.368317 
L 276.079351 138.368317 
L 276.079351 133.805941 
L 277.62525 133.805941 
L 277.62525 129.243564 
L 279.587714 129.243564 
L 279.587714 124.681188 
L 284.539822 124.681188 
L 284.539822 120.118812 
L 285.919547 120.118812 
L 285.986702 110.994059 
L 287.118049 110.994059 
L 287.184849 101.869307 
L 289.120225 101.869307 
L 289.120225 97.306931 
L 289.908712 97.306931 
L 289.908712 92.744554 
L 293.343857 92.744554 
L 293.418516 83.619802 
L 294.457543 83.619802 
L 294.457543 79.057426 
L 297.639863 79.057426 
L 297.639863 74.49505 
L 298.613499 74.49505 
L 298.613499 69.932673 
L 299.577075 69.932673 
L 299.577075 65.370297 
L 302.66216 65.370297 
L 302.66216 60.807921 
L 302.90623 60.807921 
L 302.90623 56.245545 
L 303.421306 56.245545 
L 303.421306 51.683168 
L 303.848918 51.683168 
L 303.848918 47.120792 
L 305.115267 47.120792 
L 305.115267 42.558416 
L 305.541839 42.558416 
L 305.541839 37.99604 
L 306.651162 37.99604 
L 306.65757 28.871287 
L 309.29329 28.871287 
L 309.29329 24.308911 
L 309.583447 24.308911 
L 309.583447 19.746535 
L 310.344473 19.746535 
L 310.344473 15.184158 
L 347.632377 15.184158 
L 347.632377 10.621782 
L 347.632377 10.621782 
L 453.6 10.621782 
L 453.6 10.621782 
" style="fill:none;stroke:#ff0000;stroke-linecap:square;stroke-width:3.0;"/>
   </g>
   <g id="line2d_2">
    <path clip-path="url(#pace674aa8d)" d="M 216.788192 352.8 
L 216.788192 348.237624 
L 219.96102 348.237624 
L 219.96102 343.675248 
L 223.386325 343.675248 
L 223.386325 339.112871 
L 224.783859 339.112871 
L 224.783859 334.550495 
L 225.391163 334.550495 
L 225.391163 329.988119 
L 232.717121 329.988119 
L 232.717121 325.425743 
L 235.214558 325.425743 
L 235.214558 320.863366 
L 238.251431 320.863366 
L 238.251431 316.30099 
L 239.938026 316.30099 
L 239.938026 311.738614 
L 245.244502 311.738614 
L 245.244502 307.176238 
L 245.840494 307.176238 
L 245.840494 302.613861 
L 247.861529 302.613861 
L 247.861529 298.051485 
L 248.004129 298.051485 
L 248.004129 293.489109 
L 257.456595 293.489109 
L 257.456595 288.926733 
L 260.398501 288.926733 
L 260.398501 284.364356 
L 260.969702 284.364356 
L 260.969702 279.80198 
L 261.257617 279.80198 
L 261.257617 275.239604 
L 262.754083 275.239604 
L 262.754083 270.677228 
L 267.421438 270.677228 
L 267.421438 266.114851 
L 267.69983 266.114851 
L 267.69983 261.552475 
L 268.260011 261.552475 
L 268.260011 256.990099 
L 268.376309 256.990099 
L 268.376309 252.427723 
L 269.705236 252.427723 
L 269.705236 247.865347 
L 271.066727 247.865347 
L 271.077278 238.740594 
L 271.676029 238.740594 
L 271.676029 234.178218 
L 272.474532 234.178218 
L 272.474532 229.615842 
L 273.644813 229.615842 
L 273.644813 225.053465 
L 273.770923 225.053465 
L 273.770923 220.491089 
L 274.144254 220.491089 
L 274.144254 215.928713 
L 275.86209 215.928713 
L 275.86209 211.366337 
L 294.869429 211.366337 
L 294.97796 202.241584 
L 317.493795 202.241584 
L 317.493795 197.679208 
L 319.614509 197.679208 
L 319.614509 193.116832 
L 323.258845 193.116832 
L 323.258845 188.554455 
L 323.712031 188.554455 
L 323.712031 183.992079 
L 328.60318 183.992079 
L 328.60318 179.429703 
L 330.868106 179.429703 
L 330.868106 174.867327 
L 331.474816 174.867327 
L 331.474816 170.30495 
L 331.9186 170.30495 
L 331.9186 165.742574 
L 340.606034 165.742574 
L 340.606034 161.180198 
L 341.556152 161.180198 
L 341.556152 156.617822 
L 343.675454 156.617822 
L 343.675454 152.055446 
L 346.498976 152.055446 
L 346.498976 147.493069 
L 348.207466 147.493069 
L 348.207466 142.930693 
L 348.323907 142.930693 
L 348.323907 138.368317 
L 348.921877 138.368317 
L 348.921877 133.805941 
L 349.159501 133.805941 
L 349.159501 129.243564 
L 351.050039 129.243564 
L 351.050039 124.681188 
L 354.816227 124.681188 
L 354.816227 120.118812 
L 356.647881 120.118812 
L 356.647881 115.556436 
L 358.202696 115.556436 
L 358.202696 110.994059 
L 360.400621 110.994059 
L 360.400621 106.431683 
L 364.042222 106.431683 
L 364.042222 101.869307 
L 366.593808 101.869307 
L 366.593808 97.306931 
L 367.380656 97.306931 
L 367.380656 92.744554 
L 370.43933 92.744554 
L 370.43933 88.182178 
L 375.010026 88.182178 
L 375.010026 83.619802 
L 376.702307 83.619802 
L 376.702307 79.057426 
L 377.538271 79.057426 
L 377.538271 74.49505 
L 380.557845 74.49505 
L 380.557845 69.932673 
L 381.690276 69.932673 
L 381.690276 65.370297 
L 383.515258 65.370297 
L 383.515258 60.807921 
L 387.256455 60.807921 
L 387.256455 56.245545 
L 392.909752 56.245545 
L 392.909752 51.683168 
L 394.620308 51.683168 
L 394.620308 47.120792 
L 395.381992 47.120792 
L 395.381992 42.558416 
L 397.018573 42.558416 
L 397.018573 37.99604 
L 399.106353 37.99604 
L 399.106353 33.433663 
L 401.46275 33.433663 
L 401.46275 28.871287 
L 402.999396 28.871287 
L 402.999396 24.308911 
L 404.031218 24.308911 
L 404.031218 19.746535 
L 429.845476 19.746535 
L 429.845476 15.184158 
L 440.96694 15.184158 
L 440.96694 10.621782 
L 440.96694 10.621782 
L 453.6 10.621782 
L 453.6 10.621782 
" style="fill:none;stroke:#00bfbf;stroke-linecap:square;"/>
   </g>
   <g id="line2d_3">
    <path clip-path="url(#pace674aa8d)" d="M 211.172714 352.8 
L 211.172714 348.237624 
L 219.96102 348.237624 
L 220.04376 339.112871 
L 220.146476 339.112871 
L 220.146476 334.550495 
L 222.907714 334.550495 
L 222.907714 329.988119 
L 223.386325 329.988119 
L 223.386325 325.425743 
L 224.783859 325.425743 
L 224.783859 320.863366 
L 225.391163 320.863366 
L 225.391163 316.30099 
L 225.683106 316.30099 
L 225.683106 311.738614 
L 228.174559 311.738614 
L 228.174559 307.176238 
L 232.085471 307.176238 
L 232.085471 302.613861 
L 235.768949 302.613861 
L 235.768949 298.051485 
L 238.251431 298.051485 
L 238.251431 293.489109 
L 239.690326 293.489109 
L 239.690326 288.926733 
L 256.748602 288.926733 
L 256.748602 284.364356 
L 257.180648 284.364356 
L 257.180648 279.80198 
L 260.04123 279.80198 
L 260.04123 275.239604 
L 260.398501 275.239604 
L 260.398501 270.677228 
L 263.24419 270.677228 
L 263.24419 266.114851 
L 264.075407 266.114851 
L 264.075407 261.552475 
L 264.628298 261.552475 
L 264.628298 256.990099 
L 267.421438 256.990099 
L 267.421438 252.427723 
L 267.69983 252.427723 
L 267.69983 247.865347 
L 268.260011 247.865347 
L 268.260011 243.30297 
L 268.376309 243.30297 
L 268.376309 238.740594 
L 268.573762 238.740594 
L 268.573762 234.178218 
L 269.368128 234.178218 
L 269.368128 229.615842 
L 271.158956 229.615842 
L 271.158956 225.053465 
L 272.258061 225.053465 
L 272.258061 220.491089 
L 272.526075 220.491089 
L 272.526075 215.928713 
L 273.644813 215.928713 
L 273.644813 211.366337 
L 286.810758 211.366337 
L 286.810758 206.80396 
L 294.869429 206.80396 
L 294.97796 197.679208 
L 308.919073 197.679208 
L 308.919073 193.116832 
L 313.046965 193.116832 
L 313.046965 188.554455 
L 313.4911 188.554455 
L 313.4911 183.992079 
L 315.121178 183.992079 
L 315.121178 179.429703 
L 316.289844 179.429703 
L 316.289844 174.867327 
L 317.493795 174.867327 
L 317.493795 170.30495 
L 321.736494 170.30495 
L 321.736494 165.742574 
L 322.698516 165.742574 
L 322.698516 161.180198 
L 323.364899 161.180198 
L 323.364899 156.617822 
L 323.712031 156.617822 
L 323.712031 152.055446 
L 324.591536 152.055446 
L 324.591536 147.493069 
L 325.386927 147.493069 
L 325.386927 142.930693 
L 328.60318 142.930693 
L 328.60318 138.368317 
L 329.812512 138.368317 
L 329.812512 133.805941 
L 330.868106 133.805941 
L 330.868106 129.243564 
L 331.9186 129.243564 
L 331.9186 124.681188 
L 337.743811 124.681188 
L 337.743811 120.118812 
L 341.556152 120.118812 
L 341.556152 115.556436 
L 344.855046 115.556436 
L 344.855046 110.994059 
L 348.323907 110.994059 
L 348.323907 106.431683 
L 349.050905 106.431683 
L 349.050905 101.869307 
L 351.050039 101.869307 
L 351.050039 97.306931 
L 353.298526 97.306931 
L 353.298526 92.744554 
L 354.968767 92.744554 
L 354.968767 88.182178 
L 360.584825 88.182178 
L 360.584825 83.619802 
L 365.117092 83.619802 
L 365.117092 79.057426 
L 365.543779 79.057426 
L 365.543779 74.49505 
L 367.380656 74.49505 
L 367.380656 69.932673 
L 367.76285 69.932673 
L 367.76285 65.370297 
L 369.722616 65.370297 
L 369.722616 60.807921 
L 374.595158 60.807921 
L 374.595158 56.245545 
L 377.20162 56.245545 
L 377.20162 51.683168 
L 378.162271 51.683168 
L 378.241777 42.558416 
L 379.372437 42.558416 
L 379.372437 37.99604 
L 380.52491 37.99604 
L 380.52491 33.433663 
L 380.989068 33.433663 
L 380.989068 28.871287 
L 388.772708 28.871287 
L 388.772708 24.308911 
L 390.986893 24.308911 
L 390.986893 19.746535 
L 391.250777 19.746535 
L 391.250777 15.184158 
L 395.07747 15.184158 
L 395.07747 10.621782 
L 395.07747 10.621782 
L 453.6 10.621782 
L 453.6 10.621782 
" style="fill:none;stroke:#bf00bf;stroke-linecap:square;"/>
   </g>
   <g id="line2d_4">
    <path clip-path="url(#pace674aa8d)" d="M 211.172714 352.8 
L 211.172714 348.237624 
L 215.89512 348.237624 
L 215.89512 343.675248 
L 217.883837 343.675248 
L 217.883837 339.112871 
L 219.107159 339.112871 
L 219.107159 334.550495 
L 219.96102 334.550495 
L 219.96102 329.988119 
L 220.146476 329.988119 
L 220.146476 325.425743 
L 222.607455 325.425743 
L 222.607455 320.863366 
L 222.907714 320.863366 
L 222.907714 316.30099 
L 224.721103 316.30099 
L 224.721103 311.738614 
L 225.616284 311.738614 
L 225.683106 302.613861 
L 225.918555 302.613861 
L 226.022334 293.489109 
L 232.085471 293.489109 
L 232.085471 288.926733 
L 253.668849 288.926733 
L 253.668849 284.364356 
L 257.180648 284.364356 
L 257.180648 279.80198 
L 259.659752 279.80198 
L 259.659752 275.239604 
L 260.001183 275.239604 
L 260.001183 270.677228 
L 260.398501 270.677228 
L 260.398501 266.114851 
L 260.615652 266.114851 
L 260.615652 261.552475 
L 260.979285 261.552475 
L 260.979285 256.990099 
L 263.24419 256.990099 
L 263.24419 252.427723 
L 264.075407 252.427723 
L 264.075407 247.865347 
L 265.639512 247.865347 
L 265.639512 243.30297 
L 266.194898 243.30297 
L 266.194898 238.740594 
L 266.420474 238.740594 
L 266.420474 234.178218 
L 267.69983 234.178218 
L 267.69983 229.615842 
L 268.376309 229.615842 
L 268.376309 225.053465 
L 268.543529 225.053465 
L 268.543529 220.491089 
L 269.295822 220.491089 
L 269.295822 215.928713 
L 273.644813 215.928713 
L 273.644813 211.366337 
L 276.335493 211.366337 
L 276.335493 206.80396 
L 276.640767 206.80396 
L 276.640767 202.241584 
L 278.434161 202.241584 
L 278.434161 197.679208 
L 286.810758 197.679208 
L 286.810758 193.116832 
L 294.869429 193.116832 
L 294.869429 188.554455 
L 304.62266 188.554455 
L 304.62266 183.992079 
L 313.046965 183.992079 
L 313.046965 179.429703 
L 313.359588 179.429703 
L 313.359588 174.867327 
L 314.526947 174.867327 
L 314.526947 170.30495 
L 315.019847 170.30495 
L 315.121178 161.180198 
L 317.493795 161.180198 
L 317.493795 156.617822 
L 321.56971 156.617822 
L 321.56971 152.055446 
L 321.736494 152.055446 
L 321.736494 147.493069 
L 322.20255 147.493069 
L 322.20255 142.930693 
L 322.698516 142.930693 
L 322.698516 138.368317 
L 323.712031 138.368317 
L 323.712031 133.805941 
L 324.591536 133.805941 
L 324.591536 129.243564 
L 325.386927 129.243564 
L 325.386927 124.681188 
L 329.812512 124.681188 
L 329.812512 120.118812 
L 330.785727 120.118812 
L 330.868106 110.994059 
L 331.9186 110.994059 
L 331.9186 106.431683 
L 334.139833 106.431683 
L 334.139833 101.869307 
L 341.556152 101.869307 
L 341.556152 97.306931 
L 349.050905 97.306931 
L 349.050905 92.744554 
L 350.223442 92.744554 
L 350.223442 88.182178 
L 351.050039 88.182178 
L 351.050039 83.619802 
L 352.583153 83.619802 
L 352.583153 79.057426 
L 354.968767 79.057426 
L 354.968767 74.49505 
L 358.413618 74.49505 
L 358.413618 69.932673 
L 361.5401 69.932673 
L 361.5401 65.370297 
L 365.029874 65.370297 
L 365.117092 56.245545 
L 365.656778 56.245545 
L 365.656778 51.683168 
L 367.76285 51.683168 
L 367.76285 47.120792 
L 372.726848 47.120792 
L 372.740251 37.99604 
L 377.089047 37.99604 
L 377.089047 33.433663 
L 377.913676 33.433663 
L 377.913676 28.871287 
L 378.162271 28.871287 
L 378.162271 24.308911 
L 388.772708 24.308911 
L 388.772708 19.746535 
L 389.217049 19.746535 
L 389.217049 15.184158 
L 391.250777 15.184158 
L 391.250777 10.621782 
L 391.250777 10.621782 
L 453.6 10.621782 
L 453.6 10.621782 
" style="fill:none;stroke:#000000;stroke-linecap:square;"/>
   </g>
   <g id="line2d_5">
    <path clip-path="url(#pace674aa8d)" d="M 207.542454 352.8 
L 207.542454 348.237624 
L 209.203584 348.237624 
L 209.203584 343.675248 
L 210.800616 343.675248 
L 210.800616 339.112871 
L 211.867468 339.112871 
L 211.867468 334.550495 
L 212.535637 334.550495 
L 212.595641 325.425743 
L 215.444088 325.425743 
L 215.444088 320.863366 
L 215.887493 320.863366 
L 215.887493 316.30099 
L 218.86672 316.30099 
L 218.86672 311.738614 
L 219.107159 311.738614 
L 219.107159 307.176238 
L 219.647919 307.176238 
L 219.647919 302.613861 
L 220.115074 302.613861 
L 220.115074 298.051485 
L 221.546282 298.051485 
L 221.546282 293.489109 
L 222.607455 293.489109 
L 222.607455 288.926733 
L 223.673799 288.926733 
L 223.673799 284.364356 
L 245.500419 284.364356 
L 245.500419 279.80198 
L 246.567433 279.80198 
L 246.567433 275.239604 
L 250.935828 275.239604 
L 250.935828 270.677228 
L 251.567617 270.677228 
L 251.567617 266.114851 
L 253.31426 266.114851 
L 253.31426 261.552475 
L 255.461918 261.552475 
L 255.461918 256.990099 
L 257.180648 256.990099 
L 257.180648 252.427723 
L 257.64788 252.427723 
L 257.64788 247.865347 
L 257.860071 247.865347 
L 257.860071 243.30297 
L 258.010975 243.30297 
L 258.010975 238.740594 
L 258.288068 238.740594 
L 258.288068 234.178218 
L 258.504943 234.178218 
L 258.504943 229.615842 
L 258.692978 229.615842 
L 258.692978 225.053465 
L 259.38047 225.053465 
L 259.38047 220.491089 
L 260.694105 220.491089 
L 260.694105 215.928713 
L 263.16219 215.928713 
L 263.16219 211.366337 
L 265.841259 211.366337 
L 265.841259 206.80396 
L 266.893051 206.80396 
L 266.893051 202.241584 
L 273.644813 202.241584 
L 273.644813 197.679208 
L 276.335493 197.679208 
L 276.335493 193.116832 
L 278.434161 193.116832 
L 278.434161 188.554455 
L 279.05909 188.554455 
L 279.05909 183.992079 
L 279.283611 183.992079 
L 279.283611 179.429703 
L 279.477028 179.429703 
L 279.477028 174.867327 
L 280.224204 174.867327 
L 280.224204 170.30495 
L 286.810758 170.30495 
L 286.810758 165.742574 
L 287.184849 165.742574 
L 287.184849 161.180198 
L 299.860729 161.180198 
L 299.860729 156.617822 
L 303.743089 156.617822 
L 303.778952 147.493069 
L 306.215193 147.493069 
L 306.215193 142.930693 
L 307.340289 142.930693 
L 307.340289 138.368317 
L 308.33721 138.368317 
L 308.33721 133.805941 
L 309.583447 133.805941 
L 309.583447 129.243564 
L 312.145908 129.243564 
L 312.145908 124.681188 
L 313.046965 124.681188 
L 313.046965 120.118812 
L 315.019847 120.118812 
L 315.019847 115.556436 
L 315.293405 115.556436 
L 315.293405 110.994059 
L 317.5946 110.994059 
L 317.5946 106.431683 
L 318.864726 106.431683 
L 318.864726 101.869307 
L 319.444505 101.869307 
L 319.444505 97.306931 
L 319.839386 97.306931 
L 319.839386 92.744554 
L 321.56971 92.744554 
L 321.679185 83.619802 
L 324.724585 83.619802 
L 324.724585 79.057426 
L 346.461869 79.057426 
L 346.555827 69.932673 
L 349.050905 69.932673 
L 349.050905 65.370297 
L 351.506773 65.370297 
L 351.506773 60.807921 
L 354.439068 60.807921 
L 354.439068 56.245545 
L 355.168507 56.245545 
L 355.168507 51.683168 
L 360.787958 51.683168 
L 360.787958 47.120792 
L 360.925656 47.120792 
L 360.925656 42.558416 
L 361.060277 42.558416 
L 361.060277 37.99604 
L 367.106911 37.99604 
L 367.106911 33.433663 
L 368.350923 33.433663 
L 368.350923 28.871287 
L 369.998684 28.871287 
L 369.998684 24.308911 
L 379.110975 24.308911 
L 379.110975 19.746535 
L 381.440577 19.746535 
L 381.440577 15.184158 
L 383.208385 15.184158 
L 383.208385 10.621782 
L 383.208385 10.621782 
L 453.6 10.621782 
L 453.6 10.621782 
" style="fill:none;stroke:#00bfbf;stroke-linecap:square;"/>
   </g>
   <g id="patch_3">
    <path d="M 7.2 7.2 
L 453.6 7.2 
" style="fill:none;stroke:#000000;stroke-linecap:square;stroke-linejoin:miter;"/>
   </g>
   <g id="patch_4">
    <path d="M 453.6 352.8 
L 453.6 7.2 
" style="fill:none;stroke:#000000;stroke-linecap:square;stroke-linejoin:miter;"/>
   </g>
   <g id="patch_5">
    <path d="M 7.2 352.8 
L 453.6 352.8 
" style="fill:none;stroke:#000000;stroke-linecap:square;stroke-linejoin:miter;"/>
   </g>
   <g id="patch_6">
    <path d="M 7.2 352.8 
L 7.2 7.2 
" style="fill:none;stroke:#000000;stroke-linecap:square;stroke-linejoin:miter;"/>
   </g>
   <g id="matplotlib.axis_1">
    <g id="xtick_1"/>
    <g id="xtick_2">
     <g id="line2d_6">
      <path clip-path="url(#pace674aa8d)" d="M 54.098611 352.8 
L 54.098611 7.2 
" style="fill:none;stroke:#000000;stroke-dasharray:1.000000,3.000000;stroke-dashoffset:0.0;stroke-width:0.5;"/>
     </g>
     <g id="line2d_7">
      <defs>
       <path d="M 0 0 
L 0 -4 
" id="m3a98455c25" style="stroke:#000000;stroke-width:0.5;"/>
      </defs>
      <g>
       <use style="stroke:#000000;stroke-width:0.5;" x="54.0986107985" xlink:href="#m3a98455c25" y="352.8"/>
      </g>
     </g>
     <g id="line2d_8">
      <defs>
       <path d="M 0 0 
L 0 4 
" id="ma50fe5304f" style="stroke:#000000;stroke-width:0.5;"/>
      </defs>
      <g>
       <use style="stroke:#000000;stroke-width:0.5;" x="54.0986107985" xlink:href="#ma50fe5304f" y="7.2"/>
      </g>
     </g>
     <g id="text_1">
      <!-- -6 -->
      <defs>
       <path d="M 33.015625 40.375 
Q 26.375 40.375 22.484375 35.828125 
Q 18.609375 31.296875 18.609375 23.390625 
Q 18.609375 15.53125 22.484375 10.953125 
Q 26.375 6.390625 33.015625 6.390625 
Q 39.65625 6.390625 43.53125 10.953125 
Q 47.40625 15.53125 47.40625 23.390625 
Q 47.40625 31.296875 43.53125 35.828125 
Q 39.65625 40.375 33.015625 40.375 
M 52.59375 71.296875 
L 52.59375 62.3125 
Q 48.875 64.0625 45.09375 64.984375 
Q 41.3125 65.921875 37.59375 65.921875 
Q 27.828125 65.921875 22.671875 59.328125 
Q 17.53125 52.734375 16.796875 39.40625 
Q 19.671875 43.65625 24.015625 45.921875 
Q 28.375 48.1875 33.59375 48.1875 
Q 44.578125 48.1875 50.953125 41.515625 
Q 57.328125 34.859375 57.328125 23.390625 
Q 57.328125 12.15625 50.6875 5.359375 
Q 44.046875 -1.421875 33.015625 -1.421875 
Q 20.359375 -1.421875 13.671875 8.265625 
Q 6.984375 17.96875 6.984375 36.375 
Q 6.984375 53.65625 15.1875 63.9375 
Q 23.390625 74.21875 37.203125 74.21875 
Q 40.921875 74.21875 44.703125 73.484375 
Q 48.484375 72.75 52.59375 71.296875 
" id="BitstreamVeraSans-Roman-36"/>
       <path d="M 4.890625 31.390625 
L 31.203125 31.390625 
L 31.203125 23.390625 
L 4.890625 23.390625 
z
" id="BitstreamVeraSans-Roman-2d"/>
      </defs>
      <g transform="translate(44.1282982985 371.996875)scale(0.2 -0.2)">
       <use xlink:href="#BitstreamVeraSans-Roman-2d"/>
       <use x="36.083984375" xlink:href="#BitstreamVeraSans-Roman-36"/>
      </g>
     </g>
    </g>
    <g id="xtick_3">
     <g id="line2d_9">
      <path clip-path="url(#pace674aa8d)" d="M 101.098774 352.8 
L 101.098774 7.2 
" style="fill:none;stroke:#000000;stroke-dasharray:1.000000,3.000000;stroke-dashoffset:0.0;stroke-width:0.5;"/>
     </g>
     <g id="line2d_10">
      <g>
       <use style="stroke:#000000;stroke-width:0.5;" x="101.098774234" xlink:href="#m3a98455c25" y="352.8"/>
      </g>
     </g>
     <g id="line2d_11">
      <g>
       <use style="stroke:#000000;stroke-width:0.5;" x="101.098774234" xlink:href="#ma50fe5304f" y="7.2"/>
      </g>
     </g>
     <g id="text_2">
      <!-- -4 -->
      <defs>
       <path d="M 37.796875 64.3125 
L 12.890625 25.390625 
L 37.796875 25.390625 
z
M 35.203125 72.90625 
L 47.609375 72.90625 
L 47.609375 25.390625 
L 58.015625 25.390625 
L 58.015625 17.1875 
L 47.609375 17.1875 
L 47.609375 0 
L 37.796875 0 
L 37.796875 17.1875 
L 4.890625 17.1875 
L 4.890625 26.703125 
z
" id="BitstreamVeraSans-Roman-34"/>
      </defs>
      <g transform="translate(91.1284617339 371.996875)scale(0.2 -0.2)">
       <use xlink:href="#BitstreamVeraSans-Roman-2d"/>
       <use x="36.083984375" xlink:href="#BitstreamVeraSans-Roman-34"/>
      </g>
     </g>
    </g>
    <g id="xtick_4">
     <g id="line2d_12">
      <path clip-path="url(#pace674aa8d)" d="M 148.098938 352.8 
L 148.098938 7.2 
" style="fill:none;stroke:#000000;stroke-dasharray:1.000000,3.000000;stroke-dashoffset:0.0;stroke-width:0.5;"/>
     </g>
     <g id="line2d_13">
      <g>
       <use style="stroke:#000000;stroke-width:0.5;" x="148.098937669" xlink:href="#m3a98455c25" y="352.8"/>
      </g>
     </g>
     <g id="line2d_14">
      <g>
       <use style="stroke:#000000;stroke-width:0.5;" x="148.098937669" xlink:href="#ma50fe5304f" y="7.2"/>
      </g>
     </g>
     <g id="text_3">
      <!-- -2 -->
      <defs>
       <path d="M 19.1875 8.296875 
L 53.609375 8.296875 
L 53.609375 0 
L 7.328125 0 
L 7.328125 8.296875 
Q 12.9375 14.109375 22.625 23.890625 
Q 32.328125 33.6875 34.8125 36.53125 
Q 39.546875 41.84375 41.421875 45.53125 
Q 43.3125 49.21875 43.3125 52.78125 
Q 43.3125 58.59375 39.234375 62.25 
Q 35.15625 65.921875 28.609375 65.921875 
Q 23.96875 65.921875 18.8125 64.3125 
Q 13.671875 62.703125 7.8125 59.421875 
L 7.8125 69.390625 
Q 13.765625 71.78125 18.9375 73 
Q 24.125 74.21875 28.421875 74.21875 
Q 39.75 74.21875 46.484375 68.546875 
Q 53.21875 62.890625 53.21875 53.421875 
Q 53.21875 48.921875 51.53125 44.890625 
Q 49.859375 40.875 45.40625 35.40625 
Q 44.1875 33.984375 37.640625 27.21875 
Q 31.109375 20.453125 19.1875 8.296875 
" id="BitstreamVeraSans-Roman-32"/>
      </defs>
      <g transform="translate(138.128625169 371.996875)scale(0.2 -0.2)">
       <use xlink:href="#BitstreamVeraSans-Roman-2d"/>
       <use x="36.083984375" xlink:href="#BitstreamVeraSans-Roman-32"/>
      </g>
     </g>
    </g>
    <g id="xtick_5">
     <g id="line2d_15">
      <path clip-path="url(#pace674aa8d)" d="M 195.099101 352.8 
L 195.099101 7.2 
" style="fill:none;stroke:#000000;stroke-dasharray:1.000000,3.000000;stroke-dashoffset:0.0;stroke-width:0.5;"/>
     </g>
     <g id="line2d_16">
      <g>
       <use style="stroke:#000000;stroke-width:0.5;" x="195.099101105" xlink:href="#m3a98455c25" y="352.8"/>
      </g>
     </g>
     <g id="line2d_17">
      <g>
       <use style="stroke:#000000;stroke-width:0.5;" x="195.099101105" xlink:href="#ma50fe5304f" y="7.2"/>
      </g>
     </g>
     <g id="text_4">
      <!-- 0 -->
      <defs>
       <path d="M 31.78125 66.40625 
Q 24.171875 66.40625 20.328125 58.90625 
Q 16.5 51.421875 16.5 36.375 
Q 16.5 21.390625 20.328125 13.890625 
Q 24.171875 6.390625 31.78125 6.390625 
Q 39.453125 6.390625 43.28125 13.890625 
Q 47.125 21.390625 47.125 36.375 
Q 47.125 51.421875 43.28125 58.90625 
Q 39.453125 66.40625 31.78125 66.40625 
M 31.78125 74.21875 
Q 44.046875 74.21875 50.515625 64.515625 
Q 56.984375 54.828125 56.984375 36.375 
Q 56.984375 17.96875 50.515625 8.265625 
Q 44.046875 -1.421875 31.78125 -1.421875 
Q 19.53125 -1.421875 13.0625 8.265625 
Q 6.59375 17.96875 6.59375 36.375 
Q 6.59375 54.828125 13.0625 64.515625 
Q 19.53125 74.21875 31.78125 74.21875 
" id="BitstreamVeraSans-Roman-30"/>
      </defs>
      <g transform="translate(188.736601105 371.996875)scale(0.2 -0.2)">
       <use xlink:href="#BitstreamVeraSans-Roman-30"/>
      </g>
     </g>
    </g>
    <g id="xtick_6">
     <g id="line2d_18">
      <path clip-path="url(#pace674aa8d)" d="M 242.099265 352.8 
L 242.099265 7.2 
" style="fill:none;stroke:#000000;stroke-dasharray:1.000000,3.000000;stroke-dashoffset:0.0;stroke-width:0.5;"/>
     </g>
     <g id="line2d_19">
      <g>
       <use style="stroke:#000000;stroke-width:0.5;" x="242.09926454" xlink:href="#m3a98455c25" y="352.8"/>
      </g>
     </g>
     <g id="line2d_20">
      <g>
       <use style="stroke:#000000;stroke-width:0.5;" x="242.09926454" xlink:href="#ma50fe5304f" y="7.2"/>
      </g>
     </g>
     <g id="text_5">
      <!-- 2 -->
      <g transform="translate(235.73676454 371.996875)scale(0.2 -0.2)">
       <use xlink:href="#BitstreamVeraSans-Roman-32"/>
      </g>
     </g>
    </g>
    <g id="xtick_7">
     <g id="line2d_21">
      <path clip-path="url(#pace674aa8d)" d="M 289.099428 352.8 
L 289.099428 7.2 
" style="fill:none;stroke:#000000;stroke-dasharray:1.000000,3.000000;stroke-dashoffset:0.0;stroke-width:0.5;"/>
     </g>
     <g id="line2d_22">
      <g>
       <use style="stroke:#000000;stroke-width:0.5;" x="289.099427976" xlink:href="#m3a98455c25" y="352.8"/>
      </g>
     </g>
     <g id="line2d_23">
      <g>
       <use style="stroke:#000000;stroke-width:0.5;" x="289.099427976" xlink:href="#ma50fe5304f" y="7.2"/>
      </g>
     </g>
     <g id="text_6">
      <!-- 4 -->
      <g transform="translate(282.736927976 371.996875)scale(0.2 -0.2)">
       <use xlink:href="#BitstreamVeraSans-Roman-34"/>
      </g>
     </g>
    </g>
    <g id="xtick_8">
     <g id="line2d_24">
      <path clip-path="url(#pace674aa8d)" d="M 336.099591 352.8 
L 336.099591 7.2 
" style="fill:none;stroke:#000000;stroke-dasharray:1.000000,3.000000;stroke-dashoffset:0.0;stroke-width:0.5;"/>
     </g>
     <g id="line2d_25">
      <g>
       <use style="stroke:#000000;stroke-width:0.5;" x="336.099591411" xlink:href="#m3a98455c25" y="352.8"/>
      </g>
     </g>
     <g id="line2d_26">
      <g>
       <use style="stroke:#000000;stroke-width:0.5;" x="336.099591411" xlink:href="#ma50fe5304f" y="7.2"/>
      </g>
     </g>
     <g id="text_7">
      <!-- 6 -->
      <g transform="translate(329.737091411 371.996875)scale(0.2 -0.2)">
       <use xlink:href="#BitstreamVeraSans-Roman-36"/>
      </g>
     </g>
    </g>
    <g id="xtick_9">
     <g id="line2d_27">
      <path clip-path="url(#pace674aa8d)" d="M 383.099755 352.8 
L 383.099755 7.2 
" style="fill:none;stroke:#000000;stroke-dasharray:1.000000,3.000000;stroke-dashoffset:0.0;stroke-width:0.5;"/>
     </g>
     <g id="line2d_28">
      <g>
       <use style="stroke:#000000;stroke-width:0.5;" x="383.099754847" xlink:href="#m3a98455c25" y="352.8"/>
      </g>
     </g>
     <g id="line2d_29">
      <g>
       <use style="stroke:#000000;stroke-width:0.5;" x="383.099754847" xlink:href="#ma50fe5304f" y="7.2"/>
      </g>
     </g>
     <g id="text_8">
      <!-- 8 -->
      <defs>
       <path d="M 31.78125 34.625 
Q 24.75 34.625 20.71875 30.859375 
Q 16.703125 27.09375 16.703125 20.515625 
Q 16.703125 13.921875 20.71875 10.15625 
Q 24.75 6.390625 31.78125 6.390625 
Q 38.8125 6.390625 42.859375 10.171875 
Q 46.921875 13.96875 46.921875 20.515625 
Q 46.921875 27.09375 42.890625 30.859375 
Q 38.875 34.625 31.78125 34.625 
M 21.921875 38.8125 
Q 15.578125 40.375 12.03125 44.71875 
Q 8.5 49.078125 8.5 55.328125 
Q 8.5 64.0625 14.71875 69.140625 
Q 20.953125 74.21875 31.78125 74.21875 
Q 42.671875 74.21875 48.875 69.140625 
Q 55.078125 64.0625 55.078125 55.328125 
Q 55.078125 49.078125 51.53125 44.71875 
Q 48 40.375 41.703125 38.8125 
Q 48.828125 37.15625 52.796875 32.3125 
Q 56.78125 27.484375 56.78125 20.515625 
Q 56.78125 9.90625 50.3125 4.234375 
Q 43.84375 -1.421875 31.78125 -1.421875 
Q 19.734375 -1.421875 13.25 4.234375 
Q 6.78125 9.90625 6.78125 20.515625 
Q 6.78125 27.484375 10.78125 32.3125 
Q 14.796875 37.15625 21.921875 38.8125 
M 18.3125 54.390625 
Q 18.3125 48.734375 21.84375 45.5625 
Q 25.390625 42.390625 31.78125 42.390625 
Q 38.140625 42.390625 41.71875 45.5625 
Q 45.3125 48.734375 45.3125 54.390625 
Q 45.3125 60.0625 41.71875 63.234375 
Q 38.140625 66.40625 31.78125 66.40625 
Q 25.390625 66.40625 21.84375 63.234375 
Q 18.3125 60.0625 18.3125 54.390625 
" id="BitstreamVeraSans-Roman-38"/>
      </defs>
      <g transform="translate(376.737254847 371.996875)scale(0.2 -0.2)">
       <use xlink:href="#BitstreamVeraSans-Roman-38"/>
      </g>
     </g>
    </g>
    <g id="xtick_10">
     <g id="line2d_30">
      <path clip-path="url(#pace674aa8d)" d="M 430.099918 352.8 
L 430.099918 7.2 
" style="fill:none;stroke:#000000;stroke-dasharray:1.000000,3.000000;stroke-dashoffset:0.0;stroke-width:0.5;"/>
     </g>
     <g id="line2d_31">
      <g>
       <use style="stroke:#000000;stroke-width:0.5;" x="430.099918282" xlink:href="#m3a98455c25" y="352.8"/>
      </g>
     </g>
     <g id="line2d_32">
      <g>
       <use style="stroke:#000000;stroke-width:0.5;" x="430.099918282" xlink:href="#ma50fe5304f" y="7.2"/>
      </g>
     </g>
     <g id="text_9">
      <!-- 10 -->
      <defs>
       <path d="M 12.40625 8.296875 
L 28.515625 8.296875 
L 28.515625 63.921875 
L 10.984375 60.40625 
L 10.984375 69.390625 
L 28.421875 72.90625 
L 38.28125 72.90625 
L 38.28125 8.296875 
L 54.390625 8.296875 
L 54.390625 0 
L 12.40625 0 
z
" id="BitstreamVeraSans-Roman-31"/>
      </defs>
      <g transform="translate(417.374918282 371.996875)scale(0.2 -0.2)">
       <use xlink:href="#BitstreamVeraSans-Roman-31"/>
       <use x="63.623046875" xlink:href="#BitstreamVeraSans-Roman-30"/>
      </g>
     </g>
    </g>
    <g id="xtick_11"/>
    <g id="xtick_12">
     <g id="line2d_33">
      <defs>
       <path d="M 0 0 
L 0 -2 
" id="m9156692bc8" style="stroke:#000000;stroke-width:0.5;"/>
      </defs>
      <g>
       <use style="stroke:#000000;stroke-width:0.5;" x="54.0986107985" xlink:href="#m9156692bc8" y="352.8"/>
      </g>
     </g>
     <g id="line2d_34">
      <defs>
       <path d="M 0 0 
L 0 2 
" id="m0e97773732" style="stroke:#000000;stroke-width:0.5;"/>
      </defs>
      <g>
       <use style="stroke:#000000;stroke-width:0.5;" x="54.0986107985" xlink:href="#m0e97773732" y="7.2"/>
      </g>
     </g>
    </g>
    <g id="xtick_13">
     <g id="line2d_35">
      <g>
       <use style="stroke:#000000;stroke-width:0.5;" x="101.098774234" xlink:href="#m9156692bc8" y="352.8"/>
      </g>
     </g>
     <g id="line2d_36">
      <g>
       <use style="stroke:#000000;stroke-width:0.5;" x="101.098774234" xlink:href="#m0e97773732" y="7.2"/>
      </g>
     </g>
    </g>
    <g id="xtick_14">
     <g id="line2d_37">
      <g>
       <use style="stroke:#000000;stroke-width:0.5;" x="148.098937669" xlink:href="#m9156692bc8" y="352.8"/>
      </g>
     </g>
     <g id="line2d_38">
      <g>
       <use style="stroke:#000000;stroke-width:0.5;" x="148.098937669" xlink:href="#m0e97773732" y="7.2"/>
      </g>
     </g>
    </g>
    <g id="xtick_15">
     <g id="line2d_39">
      <g>
       <use style="stroke:#000000;stroke-width:0.5;" x="195.099101105" xlink:href="#m9156692bc8" y="352.8"/>
      </g>
     </g>
     <g id="line2d_40">
      <g>
       <use style="stroke:#000000;stroke-width:0.5;" x="195.099101105" xlink:href="#m0e97773732" y="7.2"/>
      </g>
     </g>
    </g>
    <g id="xtick_16">
     <g id="line2d_41">
      <g>
       <use style="stroke:#000000;stroke-width:0.5;" x="242.09926454" xlink:href="#m9156692bc8" y="352.8"/>
      </g>
     </g>
     <g id="line2d_42">
      <g>
       <use style="stroke:#000000;stroke-width:0.5;" x="242.09926454" xlink:href="#m0e97773732" y="7.2"/>
      </g>
     </g>
    </g>
    <g id="xtick_17">
     <g id="line2d_43">
      <g>
       <use style="stroke:#000000;stroke-width:0.5;" x="289.099427976" xlink:href="#m9156692bc8" y="352.8"/>
      </g>
     </g>
     <g id="line2d_44">
      <g>
       <use style="stroke:#000000;stroke-width:0.5;" x="289.099427976" xlink:href="#m0e97773732" y="7.2"/>
      </g>
     </g>
    </g>
    <g id="xtick_18">
     <g id="line2d_45">
      <g>
       <use style="stroke:#000000;stroke-width:0.5;" x="336.099591411" xlink:href="#m9156692bc8" y="352.8"/>
      </g>
     </g>
     <g id="line2d_46">
      <g>
       <use style="stroke:#000000;stroke-width:0.5;" x="336.099591411" xlink:href="#m0e97773732" y="7.2"/>
      </g>
     </g>
    </g>
    <g id="xtick_19">
     <g id="line2d_47">
      <g>
       <use style="stroke:#000000;stroke-width:0.5;" x="383.099754847" xlink:href="#m9156692bc8" y="352.8"/>
      </g>
     </g>
     <g id="line2d_48">
      <g>
       <use style="stroke:#000000;stroke-width:0.5;" x="383.099754847" xlink:href="#m0e97773732" y="7.2"/>
      </g>
     </g>
    </g>
    <g id="xtick_20">
     <g id="line2d_49">
      <g>
       <use style="stroke:#000000;stroke-width:0.5;" x="430.099918282" xlink:href="#m9156692bc8" y="352.8"/>
      </g>
     </g>
     <g id="line2d_50">
      <g>
       <use style="stroke:#000000;stroke-width:0.5;" x="430.099918282" xlink:href="#m0e97773732" y="7.2"/>
      </g>
     </g>
    </g>
    <g id="text_10">
     <!-- log10 of Df -->
     <defs>
      <path id="BitstreamVeraSans-Roman-20"/>
      <path d="M 30.609375 48.390625 
Q 23.390625 48.390625 19.1875 42.75 
Q 14.984375 37.109375 14.984375 27.296875 
Q 14.984375 17.484375 19.15625 11.84375 
Q 23.34375 6.203125 30.609375 6.203125 
Q 37.796875 6.203125 41.984375 11.859375 
Q 46.1875 17.53125 46.1875 27.296875 
Q 46.1875 37.015625 41.984375 42.703125 
Q 37.796875 48.390625 30.609375 48.390625 
M 30.609375 56 
Q 42.328125 56 49.015625 48.375 
Q 55.71875 40.765625 55.71875 27.296875 
Q 55.71875 13.875 49.015625 6.21875 
Q 42.328125 -1.421875 30.609375 -1.421875 
Q 18.84375 -1.421875 12.171875 6.21875 
Q 5.515625 13.875 5.515625 27.296875 
Q 5.515625 40.765625 12.171875 48.375 
Q 18.84375 56 30.609375 56 
" id="BitstreamVeraSans-Roman-6f"/>
      <path d="M 9.421875 75.984375 
L 18.40625 75.984375 
L 18.40625 0 
L 9.421875 0 
z
" id="BitstreamVeraSans-Roman-6c"/>
      <path d="M 19.671875 64.796875 
L 19.671875 8.109375 
L 31.59375 8.109375 
Q 46.6875 8.109375 53.6875 14.9375 
Q 60.6875 21.78125 60.6875 36.53125 
Q 60.6875 51.171875 53.6875 57.984375 
Q 46.6875 64.796875 31.59375 64.796875 
z
M 9.8125 72.90625 
L 30.078125 72.90625 
Q 51.265625 72.90625 61.171875 64.09375 
Q 71.09375 55.28125 71.09375 36.53125 
Q 71.09375 17.671875 61.125 8.828125 
Q 51.171875 0 30.078125 0 
L 9.8125 0 
z
" id="BitstreamVeraSans-Roman-44"/>
      <path d="M 45.40625 27.984375 
Q 45.40625 37.75 41.375 43.109375 
Q 37.359375 48.484375 30.078125 48.484375 
Q 22.859375 48.484375 18.828125 43.109375 
Q 14.796875 37.75 14.796875 27.984375 
Q 14.796875 18.265625 18.828125 12.890625 
Q 22.859375 7.515625 30.078125 7.515625 
Q 37.359375 7.515625 41.375 12.890625 
Q 45.40625 18.265625 45.40625 27.984375 
M 54.390625 6.78125 
Q 54.390625 -7.171875 48.1875 -13.984375 
Q 42 -20.796875 29.203125 -20.796875 
Q 24.46875 -20.796875 20.265625 -20.09375 
Q 16.0625 -19.390625 12.109375 -17.921875 
L 12.109375 -9.1875 
Q 16.0625 -11.328125 19.921875 -12.34375 
Q 23.78125 -13.375 27.78125 -13.375 
Q 36.625 -13.375 41.015625 -8.765625 
Q 45.40625 -4.15625 45.40625 5.171875 
L 45.40625 9.625 
Q 42.625 4.78125 38.28125 2.390625 
Q 33.9375 0 27.875 0 
Q 17.828125 0 11.671875 7.65625 
Q 5.515625 15.328125 5.515625 27.984375 
Q 5.515625 40.671875 11.671875 48.328125 
Q 17.828125 56 27.875 56 
Q 33.9375 56 38.28125 53.609375 
Q 42.625 51.21875 45.40625 46.390625 
L 45.40625 54.6875 
L 54.390625 54.6875 
z
" id="BitstreamVeraSans-Roman-67"/>
      <path d="M 37.109375 75.984375 
L 37.109375 68.5 
L 28.515625 68.5 
Q 23.6875 68.5 21.796875 66.546875 
Q 19.921875 64.59375 19.921875 59.515625 
L 19.921875 54.6875 
L 34.71875 54.6875 
L 34.71875 47.703125 
L 19.921875 47.703125 
L 19.921875 0 
L 10.890625 0 
L 10.890625 47.703125 
L 2.296875 47.703125 
L 2.296875 54.6875 
L 10.890625 54.6875 
L 10.890625 58.5 
Q 10.890625 67.625 15.140625 71.796875 
Q 19.390625 75.984375 28.609375 75.984375 
z
" id="BitstreamVeraSans-Roman-66"/>
     </defs>
     <g transform="translate(175.2140625 396.353125)scale(0.2 -0.2)">
      <use xlink:href="#BitstreamVeraSans-Roman-6c"/>
      <use x="27.783203125" xlink:href="#BitstreamVeraSans-Roman-6f"/>
      <use x="88.96484375" xlink:href="#BitstreamVeraSans-Roman-67"/>
      <use x="152.44140625" xlink:href="#BitstreamVeraSans-Roman-31"/>
      <use x="216.064453125" xlink:href="#BitstreamVeraSans-Roman-30"/>
      <use x="279.6875" xlink:href="#BitstreamVeraSans-Roman-20"/>
      <use x="311.474609375" xlink:href="#BitstreamVeraSans-Roman-6f"/>
      <use x="372.65625" xlink:href="#BitstreamVeraSans-Roman-66"/>
      <use x="407.861328125" xlink:href="#BitstreamVeraSans-Roman-20"/>
      <use x="439.6484375" xlink:href="#BitstreamVeraSans-Roman-44"/>
      <use x="516.650390625" xlink:href="#BitstreamVeraSans-Roman-66"/>
     </g>
    </g>
   </g>
   <g id="matplotlib.axis_2">
    <g id="ytick_1">
     <g id="line2d_51">
      <path clip-path="url(#pace674aa8d)" d="M 7.2 352.8 
L 453.6 352.8 
" style="fill:none;stroke:#000000;stroke-dasharray:1.000000,3.000000;stroke-dashoffset:0.0;stroke-width:0.5;"/>
     </g>
     <g id="line2d_52">
      <defs>
       <path d="M 0 0 
L 4 0 
" id="me959a5c911" style="stroke:#000000;stroke-width:0.5;"/>
      </defs>
      <g>
       <use style="stroke:#000000;stroke-width:0.5;" x="7.2" xlink:href="#me959a5c911" y="352.8"/>
      </g>
     </g>
     <g id="line2d_53">
      <defs>
       <path d="M 0 0 
L -4 0 
" id="mac5715c952" style="stroke:#000000;stroke-width:0.5;"/>
      </defs>
      <g>
       <use style="stroke:#000000;stroke-width:0.5;" x="453.6" xlink:href="#mac5715c952" y="352.8"/>
      </g>
     </g>
    </g>
    <g id="ytick_2">
     <g id="line2d_54">
      <path clip-path="url(#pace674aa8d)" d="M 7.2 284.364356 
L 453.6 284.364356 
" style="fill:none;stroke:#000000;stroke-dasharray:1.000000,3.000000;stroke-dashoffset:0.0;stroke-width:0.5;"/>
     </g>
     <g id="line2d_55">
      <g>
       <use style="stroke:#000000;stroke-width:0.5;" x="7.2" xlink:href="#me959a5c911" y="284.364356436"/>
      </g>
     </g>
     <g id="line2d_56">
      <g>
       <use style="stroke:#000000;stroke-width:0.5;" x="453.6" xlink:href="#mac5715c952" y="284.364356436"/>
      </g>
     </g>
    </g>
    <g id="ytick_3">
     <g id="line2d_57">
      <path clip-path="url(#pace674aa8d)" d="M 7.2 215.928713 
L 453.6 215.928713 
" style="fill:none;stroke:#000000;stroke-dasharray:1.000000,3.000000;stroke-dashoffset:0.0;stroke-width:0.5;"/>
     </g>
     <g id="line2d_58">
      <g>
       <use style="stroke:#000000;stroke-width:0.5;" x="7.2" xlink:href="#me959a5c911" y="215.928712871"/>
      </g>
     </g>
     <g id="line2d_59">
      <g>
       <use style="stroke:#000000;stroke-width:0.5;" x="453.6" xlink:href="#mac5715c952" y="215.928712871"/>
      </g>
     </g>
    </g>
    <g id="ytick_4">
     <g id="line2d_60">
      <path clip-path="url(#pace674aa8d)" d="M 7.2 147.493069 
L 453.6 147.493069 
" style="fill:none;stroke:#000000;stroke-dasharray:1.000000,3.000000;stroke-dashoffset:0.0;stroke-width:0.5;"/>
     </g>
     <g id="line2d_61">
      <g>
       <use style="stroke:#000000;stroke-width:0.5;" x="7.2" xlink:href="#me959a5c911" y="147.493069307"/>
      </g>
     </g>
     <g id="line2d_62">
      <g>
       <use style="stroke:#000000;stroke-width:0.5;" x="453.6" xlink:href="#mac5715c952" y="147.493069307"/>
      </g>
     </g>
    </g>
    <g id="ytick_5">
     <g id="line2d_63">
      <path clip-path="url(#pace674aa8d)" d="M 7.2 79.057426 
L 453.6 79.057426 
" style="fill:none;stroke:#000000;stroke-dasharray:1.000000,3.000000;stroke-dashoffset:0.0;stroke-width:0.5;"/>
     </g>
     <g id="line2d_64">
      <g>
       <use style="stroke:#000000;stroke-width:0.5;" x="7.2" xlink:href="#me959a5c911" y="79.0574257426"/>
      </g>
     </g>
     <g id="line2d_65">
      <g>
       <use style="stroke:#000000;stroke-width:0.5;" x="453.6" xlink:href="#mac5715c952" y="79.0574257426"/>
      </g>
     </g>
    </g>
    <g id="ytick_6">
     <g id="line2d_66">
      <path clip-path="url(#pace674aa8d)" d="M 7.2 10.621782 
L 453.6 10.621782 
" style="fill:none;stroke:#000000;stroke-dasharray:1.000000,3.000000;stroke-dashoffset:0.0;stroke-width:0.5;"/>
     </g>
     <g id="line2d_67">
      <g>
       <use style="stroke:#000000;stroke-width:0.5;" x="7.2" xlink:href="#me959a5c911" y="10.6217821782"/>
      </g>
     </g>
     <g id="line2d_68">
      <g>
       <use style="stroke:#000000;stroke-width:0.5;" x="453.6" xlink:href="#mac5715c952" y="10.6217821782"/>
      </g>
     </g>
    </g>
   </g>
   <g id="text_11">
    <!-- {f10-f14}, 5-D -->
    <defs>
     <path d="M 12.5 -9.28125 
L 15.921875 -9.28125 
Q 22.75 -9.28125 24.828125 -7.171875 
Q 26.90625 -5.078125 26.90625 1.90625 
L 26.90625 14.015625 
Q 26.90625 21.625 29.09375 25.09375 
Q 31.296875 28.5625 36.71875 29.890625 
Q 31.296875 31.109375 29.09375 34.5625 
Q 26.90625 38.03125 26.90625 45.703125 
L 26.90625 57.8125 
Q 26.90625 64.75 24.828125 66.875 
Q 22.75 69 15.921875 69 
L 12.5 69 
L 12.5 75.984375 
L 15.578125 75.984375 
Q 27.734375 75.984375 31.8125 72.390625 
Q 35.890625 68.796875 35.890625 58.015625 
L 35.890625 46.296875 
Q 35.890625 39.015625 38.515625 36.203125 
Q 41.15625 33.40625 48.09375 33.40625 
L 51.125 33.40625 
L 51.125 26.421875 
L 48.09375 26.421875 
Q 41.15625 26.421875 38.515625 23.578125 
Q 35.890625 20.75 35.890625 13.375 
L 35.890625 1.703125 
Q 35.890625 -9.078125 31.8125 -12.6875 
Q 27.734375 -16.3125 15.578125 -16.3125 
L 12.5 -16.3125 
z
" id="BitstreamVeraSans-Roman-7d"/>
     <path d="M 51.125 -9.28125 
L 51.125 -16.3125 
L 48.09375 -16.3125 
Q 35.9375 -16.3125 31.8125 -12.6875 
Q 27.6875 -9.078125 27.6875 1.703125 
L 27.6875 13.375 
Q 27.6875 20.75 25.046875 23.578125 
Q 22.40625 26.421875 15.484375 26.421875 
L 12.5 26.421875 
L 12.5 33.40625 
L 15.484375 33.40625 
Q 22.46875 33.40625 25.078125 36.203125 
Q 27.6875 39.015625 27.6875 46.296875 
L 27.6875 58.015625 
Q 27.6875 68.796875 31.8125 72.390625 
Q 35.9375 75.984375 48.09375 75.984375 
L 51.125 75.984375 
L 51.125 69 
L 47.796875 69 
Q 40.921875 69 38.8125 66.84375 
Q 36.71875 64.703125 36.71875 57.8125 
L 36.71875 45.703125 
Q 36.71875 38.03125 34.5 34.5625 
Q 32.28125 31.109375 26.90625 29.890625 
Q 32.328125 28.5625 34.515625 25.09375 
Q 36.71875 21.625 36.71875 14.015625 
L 36.71875 1.90625 
Q 36.71875 -4.984375 38.8125 -7.125 
Q 40.921875 -9.28125 47.796875 -9.28125 
z
" id="BitstreamVeraSans-Roman-7b"/>
     <path d="M 11.71875 12.40625 
L 22.015625 12.40625 
L 22.015625 4 
L 14.015625 -11.625 
L 7.71875 -11.625 
L 11.71875 4 
z
" id="BitstreamVeraSans-Roman-2c"/>
     <path d="M 10.796875 72.90625 
L 49.515625 72.90625 
L 49.515625 64.59375 
L 19.828125 64.59375 
L 19.828125 46.734375 
Q 21.96875 47.46875 24.109375 47.828125 
Q 26.265625 48.1875 28.421875 48.1875 
Q 40.625 48.1875 47.75 41.5 
Q 54.890625 34.8125 54.890625 23.390625 
Q 54.890625 11.625 47.5625 5.09375 
Q 40.234375 -1.421875 26.90625 -1.421875 
Q 22.3125 -1.421875 17.546875 -0.640625 
Q 12.796875 0.140625 7.71875 1.703125 
L 7.71875 11.625 
Q 12.109375 9.234375 16.796875 8.0625 
Q 21.484375 6.890625 26.703125 6.890625 
Q 35.15625 6.890625 40.078125 11.328125 
Q 45.015625 15.765625 45.015625 23.390625 
Q 45.015625 31 40.078125 35.4375 
Q 35.15625 39.890625 26.703125 39.890625 
Q 22.75 39.890625 18.8125 39.015625 
Q 14.890625 38.140625 10.796875 36.28125 
z
" id="BitstreamVeraSans-Roman-35"/>
    </defs>
    <g transform="translate(298.972 345.888)scale(0.2 -0.2)">
     <use xlink:href="#BitstreamVeraSans-Roman-7b"/>
     <use x="63.623046875" xlink:href="#BitstreamVeraSans-Roman-66"/>
     <use x="98.828125" xlink:href="#BitstreamVeraSans-Roman-31"/>
     <use x="162.451171875" xlink:href="#BitstreamVeraSans-Roman-30"/>
     <use x="226.07421875" xlink:href="#BitstreamVeraSans-Roman-2d"/>
     <use x="262.158203125" xlink:href="#BitstreamVeraSans-Roman-66"/>
     <use x="297.36328125" xlink:href="#BitstreamVeraSans-Roman-31"/>
     <use x="360.986328125" xlink:href="#BitstreamVeraSans-Roman-34"/>
     <use x="424.609375" xlink:href="#BitstreamVeraSans-Roman-7d"/>
     <use x="488.232421875" xlink:href="#BitstreamVeraSans-Roman-2c"/>
     <use x="520.01953125" xlink:href="#BitstreamVeraSans-Roman-20"/>
     <use x="551.806640625" xlink:href="#BitstreamVeraSans-Roman-35"/>
     <use x="615.4296875" xlink:href="#BitstreamVeraSans-Roman-2d"/>
     <use x="651.513671875" xlink:href="#BitstreamVeraSans-Roman-44"/>
    </g>
   </g>
   <g id="text_12">
    <!-- 0.0.0 -->
    <defs>
     <path d="M 10.6875 12.40625 
L 21 12.40625 
L 21 0 
L 10.6875 0 
z
" id="BitstreamVeraSans-Roman-2e"/>
    </defs>
    <g style="fill:#808080;" transform="translate(217.678125 347.2643125)scale(0.1 -0.1)">
     <use xlink:href="#BitstreamVeraSans-Roman-30"/>
     <use x="63.623046875" xlink:href="#BitstreamVeraSans-Roman-2e"/>
     <use x="95.41015625" xlink:href="#BitstreamVeraSans-Roman-30"/>
     <use x="159.033203125" xlink:href="#BitstreamVeraSans-Roman-2e"/>
     <use x="190.8203125" xlink:href="#BitstreamVeraSans-Roman-30"/>
    </g>
   </g>
  </g>
 </g>
 <defs>
  <clipPath id="pace674aa8d">
   <rect height="345.6" width="446.4" x="7.2" y="7.2"/>
  </clipPath>
 </defs>
</svg>
