<?xml version="1.0" encoding="utf-8" standalone="no"?>
<!DOCTYPE svg PUBLIC "-//W3C//DTD SVG 1.1//EN"
  "http://www.w3.org/Graphics/SVG/1.1/DTD/svg11.dtd">
<!-- Created with matplotlib (http://matplotlib.org/) -->
<svg height="407pt" version="1.1" viewBox="0 0 460 407" width="460pt" xmlns="http://www.w3.org/2000/svg" xmlns:xlink="http://www.w3.org/1999/xlink">
 <defs>
  <style type="text/css">
*{stroke-linecap:butt;stroke-linejoin:round;stroke-miterlimit:100000;}
  </style>
 </defs>
 <g id="figure_1">
  <g id="patch_1">
   <path d="M 0 407.7125 
L 460.8 407.7125 
L 460.8 0 
L 0 0 
z
" style="fill:#ffffff;"/>
  </g>
  <g id="axes_1">
   <g id="patch_2">
    <path d="M 7.2 352.8 
L 453.6 352.8 
L 453.6 7.2 
L 7.2 7.2 
z
" style="fill:#ffffff;"/>
   </g>
   <g id="line2d_1">
    <path clip-path="url(#pc99005a909)" d="M 181.841966 352.8 
L 181.841966 348.237624 
L 187.646053 348.237624 
L 187.646053 343.675248 
L 188.221882 343.675248 
L 188.221882 339.112871 
L 189.335761 339.112871 
L 189.335761 334.550495 
L 193.525432 334.550495 
L 193.630336 325.425743 
L 194.19908 325.425743 
L 194.19908 320.863366 
L 194.311632 320.863366 
L 194.311632 316.30099 
L 195.712693 316.30099 
L 195.712693 311.738614 
L 195.958599 311.738614 
L 195.958599 307.176238 
L 196.185927 307.176238 
L 196.185927 302.613861 
L 196.391621 302.613861 
L 196.391621 298.051485 
L 197.413081 298.051485 
L 197.413081 293.489109 
L 197.879162 293.489109 
L 197.879162 288.926733 
L 198.768841 288.926733 
L 198.768841 284.364356 
L 199.187466 284.364356 
L 199.187466 279.80198 
L 200.315741 279.80198 
L 200.315741 275.239604 
L 201.412222 275.239604 
L 201.412222 270.677228 
L 201.660088 270.677228 
L 201.660088 266.114851 
L 203.389036 266.114851 
L 203.389036 261.552475 
L 203.80385 261.552475 
L 203.80385 256.990099 
L 204.308732 256.990099 
L 204.414426 247.865347 
L 205.032175 247.865347 
L 205.032175 243.30297 
L 205.188894 243.30297 
L 205.188894 238.740594 
L 205.46865 238.740594 
L 205.46865 234.178218 
L 206.491995 234.178218 
L 206.491995 229.615842 
L 206.871639 229.615842 
L 206.871639 225.053465 
L 207.076441 225.053465 
L 207.076441 220.491089 
L 207.374943 220.491089 
L 207.374943 215.928713 
L 207.552268 215.928713 
L 207.587899 206.80396 
L 207.797689 206.80396 
L 207.895397 193.116832 
L 208.462796 193.116832 
L 208.462796 188.554455 
L 208.855813 188.554455 
L 208.855813 183.992079 
L 209.238323 183.992079 
L 209.238323 179.429703 
L 210.425209 179.429703 
L 210.425209 174.867327 
L 211.552122 174.867327 
L 211.552122 170.30495 
L 212.576618 170.30495 
L 212.576618 165.742574 
L 213.364148 165.742574 
L 213.364148 161.180198 
L 213.579342 161.180198 
L 213.579342 156.617822 
L 214.05121 156.617822 
L 214.05121 152.055446 
L 215.541577 152.055446 
L 215.541577 147.493069 
L 215.798213 147.493069 
L 215.798213 142.930693 
L 217.871442 142.930693 
L 217.871442 138.368317 
L 218.223977 138.368317 
L 218.223977 133.805941 
L 218.816611 133.805941 
L 218.816611 129.243564 
L 219.328048 129.243564 
L 219.423854 120.118812 
L 219.755735 120.118812 
L 219.755735 115.556436 
L 220.105116 115.556436 
L 220.215357 106.431683 
L 220.651652 106.431683 
L 220.651652 101.869307 
L 221.098286 101.869307 
L 221.098286 97.306931 
L 221.453517 97.306931 
L 221.453517 92.744554 
L 221.78836 92.744554 
L 221.78836 88.182178 
L 221.91552 88.182178 
L 221.91552 83.619802 
L 222.879495 83.619802 
L 222.879495 79.057426 
L 223.521142 79.057426 
L 223.521142 74.49505 
L 223.667555 74.49505 
L 223.667555 69.932673 
L 223.977534 69.932673 
L 223.977534 65.370297 
L 224.658758 65.370297 
L 224.658758 60.807921 
L 225.216551 60.807921 
L 225.216551 56.245545 
L 225.550385 56.245545 
L 225.658954 42.558416 
L 226.317419 42.558416 
L 226.317419 37.99604 
L 227.146104 37.99604 
L 227.149415 28.871287 
L 227.321149 28.871287 
L 227.372798 19.746535 
L 227.775438 19.746535 
L 227.775438 15.184158 
L 229.452762 15.184158 
L 229.452762 10.621782 
L 229.452762 10.621782 
L 453.6 10.621782 
L 453.6 10.621782 
" style="fill:none;stroke:#ff0000;stroke-linecap:square;stroke-width:3.0;"/>
   </g>
   <g id="line2d_2">
    <path clip-path="url(#pc99005a909)" d="M 219.295949 352.8 
L 219.295949 348.237624 
L 220.464676 348.237624 
L 220.464676 343.675248 
L 220.935263 343.675248 
L 220.935263 339.112871 
L 223.299314 339.112871 
L 223.299314 334.550495 
L 223.435584 334.550495 
L 223.435584 329.988119 
L 224.609443 329.988119 
L 224.609443 325.425743 
L 225.025 325.425743 
L 225.025 320.863366 
L 225.198763 320.863366 
L 225.198763 316.30099 
L 226.177998 316.30099 
L 226.177998 311.738614 
L 226.33887 311.738614 
L 226.33887 307.176238 
L 227.307822 307.176238 
L 227.307822 302.613861 
L 227.44591 302.613861 
L 227.44591 298.051485 
L 227.96664 298.051485 
L 227.96664 293.489109 
L 229.702587 293.489109 
L 229.702587 288.926733 
L 230.129885 288.926733 
L 230.129885 284.364356 
L 231.611726 284.364356 
L 231.611726 279.80198 
L 231.936219 279.80198 
L 231.980061 270.677228 
L 232.783997 270.677228 
L 232.783997 266.114851 
L 235.068184 266.114851 
L 235.068184 261.552475 
L 235.4524 261.552475 
L 235.551117 247.865347 
L 235.76951 247.865347 
L 235.76951 243.30297 
L 236.665161 243.30297 
L 236.665161 238.740594 
L 237.482412 238.740594 
L 237.482412 234.178218 
L 237.975117 234.178218 
L 237.975117 229.615842 
L 238.603325 229.615842 
L 238.603325 225.053465 
L 238.91899 225.053465 
L 238.91899 220.491089 
L 239.274843 220.491089 
L 239.274843 215.928713 
L 239.395536 215.928713 
L 239.473164 206.80396 
L 239.566298 206.80396 
L 239.566298 202.241584 
L 240.217735 202.241584 
L 240.217735 197.679208 
L 240.39153 197.679208 
L 240.39153 193.116832 
L 240.684329 193.116832 
L 240.684329 188.554455 
L 241.027383 188.554455 
L 241.027383 183.992079 
L 241.408626 183.992079 
L 241.408626 179.429703 
L 241.601359 179.429703 
L 241.601359 174.867327 
L 241.744237 174.867327 
L 241.744237 170.30495 
L 242.141153 170.30495 
L 242.141153 165.742574 
L 243.730646 165.742574 
L 243.767683 156.617822 
L 243.955819 156.617822 
L 243.98797 147.493069 
L 244.17064 147.493069 
L 244.17064 142.930693 
L 245.40216 142.930693 
L 245.40216 138.368317 
L 245.788956 138.368317 
L 245.811225 129.243564 
L 245.916949 129.243564 
L 245.916949 124.681188 
L 246.2867 124.681188 
L 246.2867 120.118812 
L 247.359616 120.118812 
L 247.359616 115.556436 
L 247.495321 115.556436 
L 247.585835 106.431683 
L 248.068185 106.431683 
L 248.068185 101.869307 
L 248.623778 101.869307 
L 248.623778 97.306931 
L 249.735685 97.306931 
L 249.735685 92.744554 
L 251.352886 92.744554 
L 251.352886 88.182178 
L 252.290171 88.182178 
L 252.290171 83.619802 
L 252.412769 83.619802 
L 252.50143 74.49505 
L 254.205465 74.49505 
L 254.205465 69.932673 
L 255.63783 69.932673 
L 255.63783 65.370297 
L 256.933573 65.370297 
L 256.933573 60.807921 
L 259.258965 60.807921 
L 259.258965 56.245545 
L 259.642461 56.245545 
L 259.737003 47.120792 
L 260.96502 47.120792 
L 260.96502 42.558416 
L 261.539224 42.558416 
L 261.539224 37.99604 
L 263.642052 37.99604 
L 263.642052 33.433663 
L 265.283007 33.433663 
L 265.283007 28.871287 
L 270.97307 28.871287 
L 270.97307 24.308911 
L 275.115024 24.308911 
L 275.115024 19.746535 
L 277.103018 19.746535 
L 277.103018 15.184158 
L 284.476311 15.184158 
L 284.476311 10.621782 
L 284.476311 10.621782 
L 453.6 10.621782 
L 453.6 10.621782 
" style="fill:none;stroke:#00bfbf;stroke-linecap:square;"/>
   </g>
   <g id="line2d_3">
    <path clip-path="url(#pc99005a909)" d="M 203.620122 352.8 
L 203.620122 348.237624 
L 216.713763 348.237624 
L 216.713763 343.675248 
L 218.387182 343.675248 
L 218.387182 339.112871 
L 219.295949 339.112871 
L 219.295949 334.550495 
L 220.464676 334.550495 
L 220.464676 329.988119 
L 220.815105 329.988119 
L 220.815105 325.425743 
L 220.935263 325.425743 
L 220.935263 320.863366 
L 223.299314 320.863366 
L 223.299314 316.30099 
L 223.435584 316.30099 
L 223.435584 311.738614 
L 223.711702 311.738614 
L 223.711702 307.176238 
L 224.756387 307.176238 
L 224.756387 302.613861 
L 225.025 302.613861 
L 225.045941 293.489109 
L 225.144474 293.489109 
L 225.198763 284.364356 
L 225.558054 284.364356 
L 225.558054 279.80198 
L 226.177998 279.80198 
L 226.177998 275.239604 
L 226.491241 275.239604 
L 226.491241 270.677228 
L 227.307822 270.677228 
L 227.307822 266.114851 
L 228.077896 266.114851 
L 228.077896 261.552475 
L 228.249999 261.552475 
L 228.249999 256.990099 
L 228.393789 256.990099 
L 228.393789 252.427723 
L 228.610451 252.427723 
L 228.610451 247.865347 
L 229.259464 247.865347 
L 229.259464 243.30297 
L 229.757687 243.30297 
L 229.757687 238.740594 
L 230.308542 238.740594 
L 230.308542 234.178218 
L 230.447522 234.178218 
L 230.447522 229.615842 
L 230.709252 229.615842 
L 230.709252 225.053465 
L 230.893487 225.053465 
L 230.893487 220.491089 
L 231.611726 220.491089 
L 231.611726 215.928713 
L 231.980061 215.928713 
L 231.980061 211.366337 
L 233.184381 211.366337 
L 233.184381 206.80396 
L 233.887337 206.80396 
L 233.887337 202.241584 
L 234.408339 202.241584 
L 234.461546 193.116832 
L 234.544483 193.116832 
L 234.544483 188.554455 
L 234.948903 188.554455 
L 234.948903 183.992079 
L 235.218674 183.992079 
L 235.218674 179.429703 
L 235.682601 179.429703 
L 235.76951 170.30495 
L 235.884243 170.30495 
L 235.884243 165.742574 
L 237.217237 165.742574 
L 237.254482 152.055446 
L 237.44523 152.055446 
L 237.482412 142.930693 
L 237.975117 142.930693 
L 237.975117 138.368317 
L 238.474863 138.368317 
L 238.527291 129.243564 
L 238.603325 129.243564 
L 238.603325 124.681188 
L 239.473164 124.681188 
L 239.473164 120.118812 
L 240.684329 120.118812 
L 240.684329 115.556436 
L 240.893353 115.556436 
L 240.985483 106.431683 
L 243.071991 106.431683 
L 243.071991 101.869307 
L 243.98797 101.869307 
L 243.98797 97.306931 
L 244.66589 97.306931 
L 244.66589 92.744554 
L 245.40216 92.744554 
L 245.436701 83.619802 
L 245.916949 83.619802 
L 245.916949 79.057426 
L 246.2867 79.057426 
L 246.2867 74.49505 
L 246.954927 74.49505 
L 246.954927 69.932673 
L 247.359616 69.932673 
L 247.359616 65.370297 
L 248.33061 65.370297 
L 248.33061 60.807921 
L 248.999144 60.807921 
L 248.999144 56.245545 
L 250.866465 56.245545 
L 250.866465 51.683168 
L 251.805393 51.683168 
L 251.805393 47.120792 
L 252.85088 47.120792 
L 252.85088 42.558416 
L 255.760082 42.558416 
L 255.760082 37.99604 
L 258.607336 37.99604 
L 258.607336 33.433663 
L 260.735024 33.433663 
L 260.735024 28.871287 
L 261.539224 28.871287 
L 261.539224 24.308911 
L 268.894326 24.308911 
L 268.894326 19.746535 
L 270.026212 19.746535 
L 270.026212 15.184158 
L 272.583621 15.184158 
L 272.583621 10.621782 
L 272.583621 10.621782 
L 453.6 10.621782 
L 453.6 10.621782 
" style="fill:none;stroke:#bf00bf;stroke-linecap:square;"/>
   </g>
   <g id="line2d_4">
    <path clip-path="url(#pc99005a909)" d="M 203.620122 352.8 
L 203.620122 348.237624 
L 216.102752 348.237624 
L 216.102752 343.675248 
L 216.713763 343.675248 
L 216.713763 339.112871 
L 217.071571 339.112871 
L 217.071571 334.550495 
L 218.387182 334.550495 
L 218.399736 325.425743 
L 219.295949 325.425743 
L 219.295949 320.863366 
L 220.935263 320.863366 
L 220.935263 316.30099 
L 222.176392 316.30099 
L 222.176392 311.738614 
L 223.299314 311.738614 
L 223.299314 307.176238 
L 223.425617 307.176238 
L 223.461865 293.489109 
L 223.711702 293.489109 
L 223.711702 288.926733 
L 223.941867 288.926733 
L 223.941867 284.364356 
L 224.310419 284.364356 
L 224.310419 279.80198 
L 224.674073 279.80198 
L 224.756387 266.114851 
L 224.94677 266.114851 
L 225.045941 256.990099 
L 225.198763 256.990099 
L 225.198763 252.427723 
L 225.910847 252.427723 
L 225.910847 247.865347 
L 226.068405 247.865347 
L 226.068405 243.30297 
L 226.783938 243.30297 
L 226.795684 234.178218 
L 227.307822 234.178218 
L 227.376983 225.053465 
L 227.977376 225.053465 
L 227.977376 220.491089 
L 228.393789 220.491089 
L 228.393789 215.928713 
L 229.16766 215.928713 
L 229.265545 202.241584 
L 229.407026 202.241584 
L 229.407026 197.679208 
L 229.590793 197.679208 
L 229.590793 193.116832 
L 230.268989 193.116832 
L 230.308542 183.992079 
L 230.447522 183.992079 
L 230.447522 179.429703 
L 230.597036 179.429703 
L 230.597036 174.867327 
L 230.913531 174.867327 
L 230.913531 170.30495 
L 231.331741 170.30495 
L 231.331741 165.742574 
L 231.611726 165.742574 
L 231.611726 161.180198 
L 231.980061 161.180198 
L 231.980061 156.617822 
L 232.845652 156.617822 
L 232.845652 152.055446 
L 233.955413 152.055446 
L 233.955413 147.493069 
L 234.408339 147.493069 
L 234.408339 142.930693 
L 234.544483 142.930693 
L 234.544483 138.368317 
L 235.218674 138.368317 
L 235.278804 124.681188 
L 235.698692 124.681188 
L 235.781037 115.556436 
L 236.299893 115.556436 
L 236.299893 110.994059 
L 237.482412 110.994059 
L 237.48688 101.869307 
L 238.496825 101.869307 
L 238.603325 92.744554 
L 238.97293 92.744554 
L 238.97293 88.182178 
L 239.473164 88.182178 
L 239.473164 83.619802 
L 240.684329 83.619802 
L 240.684329 79.057426 
L 243.98797 79.057426 
L 244.085966 69.932673 
L 244.524644 69.932673 
L 244.622306 60.807921 
L 245.436701 60.807921 
L 245.464304 51.683168 
L 245.916949 51.683168 
L 245.916949 47.120792 
L 246.771974 47.120792 
L 246.771974 42.558416 
L 248.052959 42.558416 
L 248.052959 37.99604 
L 248.554675 37.99604 
L 248.554675 33.433663 
L 249.322959 33.433663 
L 249.322959 28.871287 
L 254.811958 28.871287 
L 254.811958 24.308911 
L 258.464626 24.308911 
L 258.464626 19.746535 
L 260.077956 19.746535 
L 260.077956 15.184158 
L 267.079009 15.184158 
L 267.079009 10.621782 
L 267.079009 10.621782 
L 453.6 10.621782 
L 453.6 10.621782 
" style="fill:none;stroke:#000000;stroke-linecap:square;"/>
   </g>
   <g id="line2d_5">
    <path clip-path="url(#pc99005a909)" d="M 203.620122 352.8 
L 203.620122 348.237624 
L 209.94201 348.237624 
L 209.94201 343.675248 
L 212.961515 343.675248 
L 212.961515 339.112871 
L 213.5759 339.112871 
L 213.5759 334.550495 
L 214.329812 334.550495 
L 214.329812 329.988119 
L 214.871507 329.988119 
L 214.929993 320.863366 
L 215.322818 320.863366 
L 215.322818 316.30099 
L 216.386964 316.30099 
L 216.387154 307.176238 
L 216.713763 307.176238 
L 216.723525 298.051485 
L 217.043112 298.051485 
L 217.043112 293.489109 
L 217.195394 293.489109 
L 217.200672 284.364356 
L 217.932646 284.364356 
L 217.932646 279.80198 
L 218.362303 279.80198 
L 218.362303 275.239604 
L 219.020317 275.239604 
L 219.05317 266.114851 
L 219.423854 266.114851 
L 219.423854 261.552475 
L 220.105116 261.552475 
L 220.215357 252.427723 
L 220.55525 252.427723 
L 220.55525 247.865347 
L 220.757242 247.865347 
L 220.757242 243.30297 
L 221.522335 243.30297 
L 221.522335 238.740594 
L 221.78836 238.740594 
L 221.78836 234.178218 
L 221.931705 234.178218 
L 221.931705 229.615842 
L 222.176392 229.615842 
L 222.176392 225.053465 
L 223.299314 225.053465 
L 223.359189 215.928713 
L 223.461742 215.928713 
L 223.461742 211.366337 
L 223.808531 211.366337 
L 223.808531 206.80396 
L 223.938187 206.80396 
L 224.02734 193.116832 
L 224.139602 193.116832 
L 224.139602 188.554455 
L 225.045941 188.554455 
L 225.045941 183.992079 
L 226.091944 183.992079 
L 226.164527 174.867327 
L 226.795684 174.867327 
L 226.795684 170.30495 
L 227.307822 170.30495 
L 227.307822 165.742574 
L 228.315512 165.742574 
L 228.315512 161.180198 
L 228.647622 161.180198 
L 228.647622 156.617822 
L 229.259464 156.617822 
L 229.265545 147.493069 
L 229.880573 147.493069 
L 229.985715 138.368317 
L 230.447522 138.368317 
L 230.455088 129.243564 
L 230.597036 129.243564 
L 230.597036 124.681188 
L 231.305462 124.681188 
L 231.331741 115.556436 
L 232.18155 115.556436 
L 232.18155 110.994059 
L 232.384071 110.994059 
L 232.384071 106.431683 
L 232.588603 106.431683 
L 232.588603 101.869307 
L 233.141224 101.869307 
L 233.141224 97.306931 
L 233.955413 97.306931 
L 234.026997 88.182178 
L 234.087427 88.182178 
L 234.087427 83.619802 
L 234.530101 83.619802 
L 234.593309 74.49505 
L 235.014923 74.49505 
L 235.014923 69.932673 
L 238.546264 69.932673 
L 238.546264 65.370297 
L 238.862967 65.370297 
L 238.927569 56.245545 
L 239.565154 56.245545 
L 239.565154 51.683168 
L 240.954914 51.683168 
L 240.954914 47.120792 
L 242.149204 47.120792 
L 242.149204 42.558416 
L 242.329002 42.558416 
L 242.329002 37.99604 
L 244.526289 37.99604 
L 244.526289 33.433663 
L 245.27941 33.433663 
L 245.27941 28.871287 
L 245.464304 28.871287 
L 245.464304 24.308911 
L 251.130252 24.308911 
L 251.130252 19.746535 
L 254.167002 19.746535 
L 254.167002 15.184158 
L 254.761985 15.184158 
L 254.761985 10.621782 
L 254.761985 10.621782 
L 453.6 10.621782 
L 453.6 10.621782 
" style="fill:none;stroke:#00bfbf;stroke-linecap:square;"/>
   </g>
   <g id="patch_3">
    <path d="M 7.2 7.2 
L 453.6 7.2 
" style="fill:none;stroke:#000000;stroke-linecap:square;stroke-linejoin:miter;"/>
   </g>
   <g id="patch_4">
    <path d="M 453.6 352.8 
L 453.6 7.2 
" style="fill:none;stroke:#000000;stroke-linecap:square;stroke-linejoin:miter;"/>
   </g>
   <g id="patch_5">
    <path d="M 7.2 352.8 
L 453.6 352.8 
" style="fill:none;stroke:#000000;stroke-linecap:square;stroke-linejoin:miter;"/>
   </g>
   <g id="patch_6">
    <path d="M 7.2 352.8 
L 7.2 7.2 
" style="fill:none;stroke:#000000;stroke-linecap:square;stroke-linejoin:miter;"/>
   </g>
   <g id="matplotlib.axis_1">
    <g id="xtick_1"/>
    <g id="xtick_2">
     <g id="line2d_6">
      <path clip-path="url(#pc99005a909)" d="M 54.098611 352.8 
L 54.098611 7.2 
" style="fill:none;stroke:#000000;stroke-dasharray:1.000000,3.000000;stroke-dashoffset:0.0;stroke-width:0.5;"/>
     </g>
     <g id="line2d_7">
      <defs>
       <path d="M 0 0 
L 0 -4 
" id="m0577175190" style="stroke:#000000;stroke-width:0.5;"/>
      </defs>
      <g>
       <use style="stroke:#000000;stroke-width:0.5;" x="54.0986107985" xlink:href="#m0577175190" y="352.8"/>
      </g>
     </g>
     <g id="line2d_8">
      <defs>
       <path d="M 0 0 
L 0 4 
" id="mf424de0cce" style="stroke:#000000;stroke-width:0.5;"/>
      </defs>
      <g>
       <use style="stroke:#000000;stroke-width:0.5;" x="54.0986107985" xlink:href="#mf424de0cce" y="7.2"/>
      </g>
     </g>
     <g id="text_1">
      <!-- -6 -->
      <defs>
       <path d="M 33.015625 40.375 
Q 26.375 40.375 22.484375 35.828125 
Q 18.609375 31.296875 18.609375 23.390625 
Q 18.609375 15.53125 22.484375 10.953125 
Q 26.375 6.390625 33.015625 6.390625 
Q 39.65625 6.390625 43.53125 10.953125 
Q 47.40625 15.53125 47.40625 23.390625 
Q 47.40625 31.296875 43.53125 35.828125 
Q 39.65625 40.375 33.015625 40.375 
M 52.59375 71.296875 
L 52.59375 62.3125 
Q 48.875 64.0625 45.09375 64.984375 
Q 41.3125 65.921875 37.59375 65.921875 
Q 27.828125 65.921875 22.671875 59.328125 
Q 17.53125 52.734375 16.796875 39.40625 
Q 19.671875 43.65625 24.015625 45.921875 
Q 28.375 48.1875 33.59375 48.1875 
Q 44.578125 48.1875 50.953125 41.515625 
Q 57.328125 34.859375 57.328125 23.390625 
Q 57.328125 12.15625 50.6875 5.359375 
Q 44.046875 -1.421875 33.015625 -1.421875 
Q 20.359375 -1.421875 13.671875 8.265625 
Q 6.984375 17.96875 6.984375 36.375 
Q 6.984375 53.65625 15.1875 63.9375 
Q 23.390625 74.21875 37.203125 74.21875 
Q 40.921875 74.21875 44.703125 73.484375 
Q 48.484375 72.75 52.59375 71.296875 
" id="BitstreamVeraSans-Roman-36"/>
       <path d="M 4.890625 31.390625 
L 31.203125 31.390625 
L 31.203125 23.390625 
L 4.890625 23.390625 
z
" id="BitstreamVeraSans-Roman-2d"/>
      </defs>
      <g transform="translate(44.1282982985 371.996875)scale(0.2 -0.2)">
       <use xlink:href="#BitstreamVeraSans-Roman-2d"/>
       <use x="36.083984375" xlink:href="#BitstreamVeraSans-Roman-36"/>
      </g>
     </g>
    </g>
    <g id="xtick_3">
     <g id="line2d_9">
      <path clip-path="url(#pc99005a909)" d="M 101.098774 352.8 
L 101.098774 7.2 
" style="fill:none;stroke:#000000;stroke-dasharray:1.000000,3.000000;stroke-dashoffset:0.0;stroke-width:0.5;"/>
     </g>
     <g id="line2d_10">
      <g>
       <use style="stroke:#000000;stroke-width:0.5;" x="101.098774234" xlink:href="#m0577175190" y="352.8"/>
      </g>
     </g>
     <g id="line2d_11">
      <g>
       <use style="stroke:#000000;stroke-width:0.5;" x="101.098774234" xlink:href="#mf424de0cce" y="7.2"/>
      </g>
     </g>
     <g id="text_2">
      <!-- -4 -->
      <defs>
       <path d="M 37.796875 64.3125 
L 12.890625 25.390625 
L 37.796875 25.390625 
z
M 35.203125 72.90625 
L 47.609375 72.90625 
L 47.609375 25.390625 
L 58.015625 25.390625 
L 58.015625 17.1875 
L 47.609375 17.1875 
L 47.609375 0 
L 37.796875 0 
L 37.796875 17.1875 
L 4.890625 17.1875 
L 4.890625 26.703125 
z
" id="BitstreamVeraSans-Roman-34"/>
      </defs>
      <g transform="translate(91.1284617339 371.996875)scale(0.2 -0.2)">
       <use xlink:href="#BitstreamVeraSans-Roman-2d"/>
       <use x="36.083984375" xlink:href="#BitstreamVeraSans-Roman-34"/>
      </g>
     </g>
    </g>
    <g id="xtick_4">
     <g id="line2d_12">
      <path clip-path="url(#pc99005a909)" d="M 148.098938 352.8 
L 148.098938 7.2 
" style="fill:none;stroke:#000000;stroke-dasharray:1.000000,3.000000;stroke-dashoffset:0.0;stroke-width:0.5;"/>
     </g>
     <g id="line2d_13">
      <g>
       <use style="stroke:#000000;stroke-width:0.5;" x="148.098937669" xlink:href="#m0577175190" y="352.8"/>
      </g>
     </g>
     <g id="line2d_14">
      <g>
       <use style="stroke:#000000;stroke-width:0.5;" x="148.098937669" xlink:href="#mf424de0cce" y="7.2"/>
      </g>
     </g>
     <g id="text_3">
      <!-- -2 -->
      <defs>
       <path d="M 19.1875 8.296875 
L 53.609375 8.296875 
L 53.609375 0 
L 7.328125 0 
L 7.328125 8.296875 
Q 12.9375 14.109375 22.625 23.890625 
Q 32.328125 33.6875 34.8125 36.53125 
Q 39.546875 41.84375 41.421875 45.53125 
Q 43.3125 49.21875 43.3125 52.78125 
Q 43.3125 58.59375 39.234375 62.25 
Q 35.15625 65.921875 28.609375 65.921875 
Q 23.96875 65.921875 18.8125 64.3125 
Q 13.671875 62.703125 7.8125 59.421875 
L 7.8125 69.390625 
Q 13.765625 71.78125 18.9375 73 
Q 24.125 74.21875 28.421875 74.21875 
Q 39.75 74.21875 46.484375 68.546875 
Q 53.21875 62.890625 53.21875 53.421875 
Q 53.21875 48.921875 51.53125 44.890625 
Q 49.859375 40.875 45.40625 35.40625 
Q 44.1875 33.984375 37.640625 27.21875 
Q 31.109375 20.453125 19.1875 8.296875 
" id="BitstreamVeraSans-Roman-32"/>
      </defs>
      <g transform="translate(138.128625169 371.996875)scale(0.2 -0.2)">
       <use xlink:href="#BitstreamVeraSans-Roman-2d"/>
       <use x="36.083984375" xlink:href="#BitstreamVeraSans-Roman-32"/>
      </g>
     </g>
    </g>
    <g id="xtick_5">
     <g id="line2d_15">
      <path clip-path="url(#pc99005a909)" d="M 195.099101 352.8 
L 195.099101 7.2 
" style="fill:none;stroke:#000000;stroke-dasharray:1.000000,3.000000;stroke-dashoffset:0.0;stroke-width:0.5;"/>
     </g>
     <g id="line2d_16">
      <g>
       <use style="stroke:#000000;stroke-width:0.5;" x="195.099101105" xlink:href="#m0577175190" y="352.8"/>
      </g>
     </g>
     <g id="line2d_17">
      <g>
       <use style="stroke:#000000;stroke-width:0.5;" x="195.099101105" xlink:href="#mf424de0cce" y="7.2"/>
      </g>
     </g>
     <g id="text_4">
      <!-- 0 -->
      <defs>
       <path d="M 31.78125 66.40625 
Q 24.171875 66.40625 20.328125 58.90625 
Q 16.5 51.421875 16.5 36.375 
Q 16.5 21.390625 20.328125 13.890625 
Q 24.171875 6.390625 31.78125 6.390625 
Q 39.453125 6.390625 43.28125 13.890625 
Q 47.125 21.390625 47.125 36.375 
Q 47.125 51.421875 43.28125 58.90625 
Q 39.453125 66.40625 31.78125 66.40625 
M 31.78125 74.21875 
Q 44.046875 74.21875 50.515625 64.515625 
Q 56.984375 54.828125 56.984375 36.375 
Q 56.984375 17.96875 50.515625 8.265625 
Q 44.046875 -1.421875 31.78125 -1.421875 
Q 19.53125 -1.421875 13.0625 8.265625 
Q 6.59375 17.96875 6.59375 36.375 
Q 6.59375 54.828125 13.0625 64.515625 
Q 19.53125 74.21875 31.78125 74.21875 
" id="BitstreamVeraSans-Roman-30"/>
      </defs>
      <g transform="translate(188.736601105 371.996875)scale(0.2 -0.2)">
       <use xlink:href="#BitstreamVeraSans-Roman-30"/>
      </g>
     </g>
    </g>
    <g id="xtick_6">
     <g id="line2d_18">
      <path clip-path="url(#pc99005a909)" d="M 242.099265 352.8 
L 242.099265 7.2 
" style="fill:none;stroke:#000000;stroke-dasharray:1.000000,3.000000;stroke-dashoffset:0.0;stroke-width:0.5;"/>
     </g>
     <g id="line2d_19">
      <g>
       <use style="stroke:#000000;stroke-width:0.5;" x="242.09926454" xlink:href="#m0577175190" y="352.8"/>
      </g>
     </g>
     <g id="line2d_20">
      <g>
       <use style="stroke:#000000;stroke-width:0.5;" x="242.09926454" xlink:href="#mf424de0cce" y="7.2"/>
      </g>
     </g>
     <g id="text_5">
      <!-- 2 -->
      <g transform="translate(235.73676454 371.996875)scale(0.2 -0.2)">
       <use xlink:href="#BitstreamVeraSans-Roman-32"/>
      </g>
     </g>
    </g>
    <g id="xtick_7">
     <g id="line2d_21">
      <path clip-path="url(#pc99005a909)" d="M 289.099428 352.8 
L 289.099428 7.2 
" style="fill:none;stroke:#000000;stroke-dasharray:1.000000,3.000000;stroke-dashoffset:0.0;stroke-width:0.5;"/>
     </g>
     <g id="line2d_22">
      <g>
       <use style="stroke:#000000;stroke-width:0.5;" x="289.099427976" xlink:href="#m0577175190" y="352.8"/>
      </g>
     </g>
     <g id="line2d_23">
      <g>
       <use style="stroke:#000000;stroke-width:0.5;" x="289.099427976" xlink:href="#mf424de0cce" y="7.2"/>
      </g>
     </g>
     <g id="text_6">
      <!-- 4 -->
      <g transform="translate(282.736927976 371.996875)scale(0.2 -0.2)">
       <use xlink:href="#BitstreamVeraSans-Roman-34"/>
      </g>
     </g>
    </g>
    <g id="xtick_8">
     <g id="line2d_24">
      <path clip-path="url(#pc99005a909)" d="M 336.099591 352.8 
L 336.099591 7.2 
" style="fill:none;stroke:#000000;stroke-dasharray:1.000000,3.000000;stroke-dashoffset:0.0;stroke-width:0.5;"/>
     </g>
     <g id="line2d_25">
      <g>
       <use style="stroke:#000000;stroke-width:0.5;" x="336.099591411" xlink:href="#m0577175190" y="352.8"/>
      </g>
     </g>
     <g id="line2d_26">
      <g>
       <use style="stroke:#000000;stroke-width:0.5;" x="336.099591411" xlink:href="#mf424de0cce" y="7.2"/>
      </g>
     </g>
     <g id="text_7">
      <!-- 6 -->
      <g transform="translate(329.737091411 371.996875)scale(0.2 -0.2)">
       <use xlink:href="#BitstreamVeraSans-Roman-36"/>
      </g>
     </g>
    </g>
    <g id="xtick_9">
     <g id="line2d_27">
      <path clip-path="url(#pc99005a909)" d="M 383.099755 352.8 
L 383.099755 7.2 
" style="fill:none;stroke:#000000;stroke-dasharray:1.000000,3.000000;stroke-dashoffset:0.0;stroke-width:0.5;"/>
     </g>
     <g id="line2d_28">
      <g>
       <use style="stroke:#000000;stroke-width:0.5;" x="383.099754847" xlink:href="#m0577175190" y="352.8"/>
      </g>
     </g>
     <g id="line2d_29">
      <g>
       <use style="stroke:#000000;stroke-width:0.5;" x="383.099754847" xlink:href="#mf424de0cce" y="7.2"/>
      </g>
     </g>
     <g id="text_8">
      <!-- 8 -->
      <defs>
       <path d="M 31.78125 34.625 
Q 24.75 34.625 20.71875 30.859375 
Q 16.703125 27.09375 16.703125 20.515625 
Q 16.703125 13.921875 20.71875 10.15625 
Q 24.75 6.390625 31.78125 6.390625 
Q 38.8125 6.390625 42.859375 10.171875 
Q 46.921875 13.96875 46.921875 20.515625 
Q 46.921875 27.09375 42.890625 30.859375 
Q 38.875 34.625 31.78125 34.625 
M 21.921875 38.8125 
Q 15.578125 40.375 12.03125 44.71875 
Q 8.5 49.078125 8.5 55.328125 
Q 8.5 64.0625 14.71875 69.140625 
Q 20.953125 74.21875 31.78125 74.21875 
Q 42.671875 74.21875 48.875 69.140625 
Q 55.078125 64.0625 55.078125 55.328125 
Q 55.078125 49.078125 51.53125 44.71875 
Q 48 40.375 41.703125 38.8125 
Q 48.828125 37.15625 52.796875 32.3125 
Q 56.78125 27.484375 56.78125 20.515625 
Q 56.78125 9.90625 50.3125 4.234375 
Q 43.84375 -1.421875 31.78125 -1.421875 
Q 19.734375 -1.421875 13.25 4.234375 
Q 6.78125 9.90625 6.78125 20.515625 
Q 6.78125 27.484375 10.78125 32.3125 
Q 14.796875 37.15625 21.921875 38.8125 
M 18.3125 54.390625 
Q 18.3125 48.734375 21.84375 45.5625 
Q 25.390625 42.390625 31.78125 42.390625 
Q 38.140625 42.390625 41.71875 45.5625 
Q 45.3125 48.734375 45.3125 54.390625 
Q 45.3125 60.0625 41.71875 63.234375 
Q 38.140625 66.40625 31.78125 66.40625 
Q 25.390625 66.40625 21.84375 63.234375 
Q 18.3125 60.0625 18.3125 54.390625 
" id="BitstreamVeraSans-Roman-38"/>
      </defs>
      <g transform="translate(376.737254847 371.996875)scale(0.2 -0.2)">
       <use xlink:href="#BitstreamVeraSans-Roman-38"/>
      </g>
     </g>
    </g>
    <g id="xtick_10">
     <g id="line2d_30">
      <path clip-path="url(#pc99005a909)" d="M 430.099918 352.8 
L 430.099918 7.2 
" style="fill:none;stroke:#000000;stroke-dasharray:1.000000,3.000000;stroke-dashoffset:0.0;stroke-width:0.5;"/>
     </g>
     <g id="line2d_31">
      <g>
       <use style="stroke:#000000;stroke-width:0.5;" x="430.099918282" xlink:href="#m0577175190" y="352.8"/>
      </g>
     </g>
     <g id="line2d_32">
      <g>
       <use style="stroke:#000000;stroke-width:0.5;" x="430.099918282" xlink:href="#mf424de0cce" y="7.2"/>
      </g>
     </g>
     <g id="text_9">
      <!-- 10 -->
      <defs>
       <path d="M 12.40625 8.296875 
L 28.515625 8.296875 
L 28.515625 63.921875 
L 10.984375 60.40625 
L 10.984375 69.390625 
L 28.421875 72.90625 
L 38.28125 72.90625 
L 38.28125 8.296875 
L 54.390625 8.296875 
L 54.390625 0 
L 12.40625 0 
z
" id="BitstreamVeraSans-Roman-31"/>
      </defs>
      <g transform="translate(417.374918282 371.996875)scale(0.2 -0.2)">
       <use xlink:href="#BitstreamVeraSans-Roman-31"/>
       <use x="63.623046875" xlink:href="#BitstreamVeraSans-Roman-30"/>
      </g>
     </g>
    </g>
    <g id="xtick_11"/>
    <g id="xtick_12">
     <g id="line2d_33">
      <defs>
       <path d="M 0 0 
L 0 -2 
" id="m1deb6994b3" style="stroke:#000000;stroke-width:0.5;"/>
      </defs>
      <g>
       <use style="stroke:#000000;stroke-width:0.5;" x="54.0986107985" xlink:href="#m1deb6994b3" y="352.8"/>
      </g>
     </g>
     <g id="line2d_34">
      <defs>
       <path d="M 0 0 
L 0 2 
" id="m52a613443b" style="stroke:#000000;stroke-width:0.5;"/>
      </defs>
      <g>
       <use style="stroke:#000000;stroke-width:0.5;" x="54.0986107985" xlink:href="#m52a613443b" y="7.2"/>
      </g>
     </g>
    </g>
    <g id="xtick_13">
     <g id="line2d_35">
      <g>
       <use style="stroke:#000000;stroke-width:0.5;" x="101.098774234" xlink:href="#m1deb6994b3" y="352.8"/>
      </g>
     </g>
     <g id="line2d_36">
      <g>
       <use style="stroke:#000000;stroke-width:0.5;" x="101.098774234" xlink:href="#m52a613443b" y="7.2"/>
      </g>
     </g>
    </g>
    <g id="xtick_14">
     <g id="line2d_37">
      <g>
       <use style="stroke:#000000;stroke-width:0.5;" x="148.098937669" xlink:href="#m1deb6994b3" y="352.8"/>
      </g>
     </g>
     <g id="line2d_38">
      <g>
       <use style="stroke:#000000;stroke-width:0.5;" x="148.098937669" xlink:href="#m52a613443b" y="7.2"/>
      </g>
     </g>
    </g>
    <g id="xtick_15">
     <g id="line2d_39">
      <g>
       <use style="stroke:#000000;stroke-width:0.5;" x="195.099101105" xlink:href="#m1deb6994b3" y="352.8"/>
      </g>
     </g>
     <g id="line2d_40">
      <g>
       <use style="stroke:#000000;stroke-width:0.5;" x="195.099101105" xlink:href="#m52a613443b" y="7.2"/>
      </g>
     </g>
    </g>
    <g id="xtick_16">
     <g id="line2d_41">
      <g>
       <use style="stroke:#000000;stroke-width:0.5;" x="242.09926454" xlink:href="#m1deb6994b3" y="352.8"/>
      </g>
     </g>
     <g id="line2d_42">
      <g>
       <use style="stroke:#000000;stroke-width:0.5;" x="242.09926454" xlink:href="#m52a613443b" y="7.2"/>
      </g>
     </g>
    </g>
    <g id="xtick_17">
     <g id="line2d_43">
      <g>
       <use style="stroke:#000000;stroke-width:0.5;" x="289.099427976" xlink:href="#m1deb6994b3" y="352.8"/>
      </g>
     </g>
     <g id="line2d_44">
      <g>
       <use style="stroke:#000000;stroke-width:0.5;" x="289.099427976" xlink:href="#m52a613443b" y="7.2"/>
      </g>
     </g>
    </g>
    <g id="xtick_18">
     <g id="line2d_45">
      <g>
       <use style="stroke:#000000;stroke-width:0.5;" x="336.099591411" xlink:href="#m1deb6994b3" y="352.8"/>
      </g>
     </g>
     <g id="line2d_46">
      <g>
       <use style="stroke:#000000;stroke-width:0.5;" x="336.099591411" xlink:href="#m52a613443b" y="7.2"/>
      </g>
     </g>
    </g>
    <g id="xtick_19">
     <g id="line2d_47">
      <g>
       <use style="stroke:#000000;stroke-width:0.5;" x="383.099754847" xlink:href="#m1deb6994b3" y="352.8"/>
      </g>
     </g>
     <g id="line2d_48">
      <g>
       <use style="stroke:#000000;stroke-width:0.5;" x="383.099754847" xlink:href="#m52a613443b" y="7.2"/>
      </g>
     </g>
    </g>
    <g id="xtick_20">
     <g id="line2d_49">
      <g>
       <use style="stroke:#000000;stroke-width:0.5;" x="430.099918282" xlink:href="#m1deb6994b3" y="352.8"/>
      </g>
     </g>
     <g id="line2d_50">
      <g>
       <use style="stroke:#000000;stroke-width:0.5;" x="430.099918282" xlink:href="#m52a613443b" y="7.2"/>
      </g>
     </g>
    </g>
    <g id="text_10">
     <!-- log10 of Df -->
     <defs>
      <path id="BitstreamVeraSans-Roman-20"/>
      <path d="M 30.609375 48.390625 
Q 23.390625 48.390625 19.1875 42.75 
Q 14.984375 37.109375 14.984375 27.296875 
Q 14.984375 17.484375 19.15625 11.84375 
Q 23.34375 6.203125 30.609375 6.203125 
Q 37.796875 6.203125 41.984375 11.859375 
Q 46.1875 17.53125 46.1875 27.296875 
Q 46.1875 37.015625 41.984375 42.703125 
Q 37.796875 48.390625 30.609375 48.390625 
M 30.609375 56 
Q 42.328125 56 49.015625 48.375 
Q 55.71875 40.765625 55.71875 27.296875 
Q 55.71875 13.875 49.015625 6.21875 
Q 42.328125 -1.421875 30.609375 -1.421875 
Q 18.84375 -1.421875 12.171875 6.21875 
Q 5.515625 13.875 5.515625 27.296875 
Q 5.515625 40.765625 12.171875 48.375 
Q 18.84375 56 30.609375 56 
" id="BitstreamVeraSans-Roman-6f"/>
      <path d="M 9.421875 75.984375 
L 18.40625 75.984375 
L 18.40625 0 
L 9.421875 0 
z
" id="BitstreamVeraSans-Roman-6c"/>
      <path d="M 19.671875 64.796875 
L 19.671875 8.109375 
L 31.59375 8.109375 
Q 46.6875 8.109375 53.6875 14.9375 
Q 60.6875 21.78125 60.6875 36.53125 
Q 60.6875 51.171875 53.6875 57.984375 
Q 46.6875 64.796875 31.59375 64.796875 
z
M 9.8125 72.90625 
L 30.078125 72.90625 
Q 51.265625 72.90625 61.171875 64.09375 
Q 71.09375 55.28125 71.09375 36.53125 
Q 71.09375 17.671875 61.125 8.828125 
Q 51.171875 0 30.078125 0 
L 9.8125 0 
z
" id="BitstreamVeraSans-Roman-44"/>
      <path d="M 45.40625 27.984375 
Q 45.40625 37.75 41.375 43.109375 
Q 37.359375 48.484375 30.078125 48.484375 
Q 22.859375 48.484375 18.828125 43.109375 
Q 14.796875 37.75 14.796875 27.984375 
Q 14.796875 18.265625 18.828125 12.890625 
Q 22.859375 7.515625 30.078125 7.515625 
Q 37.359375 7.515625 41.375 12.890625 
Q 45.40625 18.265625 45.40625 27.984375 
M 54.390625 6.78125 
Q 54.390625 -7.171875 48.1875 -13.984375 
Q 42 -20.796875 29.203125 -20.796875 
Q 24.46875 -20.796875 20.265625 -20.09375 
Q 16.0625 -19.390625 12.109375 -17.921875 
L 12.109375 -9.1875 
Q 16.0625 -11.328125 19.921875 -12.34375 
Q 23.78125 -13.375 27.78125 -13.375 
Q 36.625 -13.375 41.015625 -8.765625 
Q 45.40625 -4.15625 45.40625 5.171875 
L 45.40625 9.625 
Q 42.625 4.78125 38.28125 2.390625 
Q 33.9375 0 27.875 0 
Q 17.828125 0 11.671875 7.65625 
Q 5.515625 15.328125 5.515625 27.984375 
Q 5.515625 40.671875 11.671875 48.328125 
Q 17.828125 56 27.875 56 
Q 33.9375 56 38.28125 53.609375 
Q 42.625 51.21875 45.40625 46.390625 
L 45.40625 54.6875 
L 54.390625 54.6875 
z
" id="BitstreamVeraSans-Roman-67"/>
      <path d="M 37.109375 75.984375 
L 37.109375 68.5 
L 28.515625 68.5 
Q 23.6875 68.5 21.796875 66.546875 
Q 19.921875 64.59375 19.921875 59.515625 
L 19.921875 54.6875 
L 34.71875 54.6875 
L 34.71875 47.703125 
L 19.921875 47.703125 
L 19.921875 0 
L 10.890625 0 
L 10.890625 47.703125 
L 2.296875 47.703125 
L 2.296875 54.6875 
L 10.890625 54.6875 
L 10.890625 58.5 
Q 10.890625 67.625 15.140625 71.796875 
Q 19.390625 75.984375 28.609375 75.984375 
z
" id="BitstreamVeraSans-Roman-66"/>
     </defs>
     <g transform="translate(175.2140625 396.353125)scale(0.2 -0.2)">
      <use xlink:href="#BitstreamVeraSans-Roman-6c"/>
      <use x="27.783203125" xlink:href="#BitstreamVeraSans-Roman-6f"/>
      <use x="88.96484375" xlink:href="#BitstreamVeraSans-Roman-67"/>
      <use x="152.44140625" xlink:href="#BitstreamVeraSans-Roman-31"/>
      <use x="216.064453125" xlink:href="#BitstreamVeraSans-Roman-30"/>
      <use x="279.6875" xlink:href="#BitstreamVeraSans-Roman-20"/>
      <use x="311.474609375" xlink:href="#BitstreamVeraSans-Roman-6f"/>
      <use x="372.65625" xlink:href="#BitstreamVeraSans-Roman-66"/>
      <use x="407.861328125" xlink:href="#BitstreamVeraSans-Roman-20"/>
      <use x="439.6484375" xlink:href="#BitstreamVeraSans-Roman-44"/>
      <use x="516.650390625" xlink:href="#BitstreamVeraSans-Roman-66"/>
     </g>
    </g>
   </g>
   <g id="matplotlib.axis_2">
    <g id="ytick_1">
     <g id="line2d_51">
      <path clip-path="url(#pc99005a909)" d="M 7.2 352.8 
L 453.6 352.8 
" style="fill:none;stroke:#000000;stroke-dasharray:1.000000,3.000000;stroke-dashoffset:0.0;stroke-width:0.5;"/>
     </g>
     <g id="line2d_52">
      <defs>
       <path d="M 0 0 
L 4 0 
" id="m6ed55b56e7" style="stroke:#000000;stroke-width:0.5;"/>
      </defs>
      <g>
       <use style="stroke:#000000;stroke-width:0.5;" x="7.2" xlink:href="#m6ed55b56e7" y="352.8"/>
      </g>
     </g>
     <g id="line2d_53">
      <defs>
       <path d="M 0 0 
L -4 0 
" id="md699c775e4" style="stroke:#000000;stroke-width:0.5;"/>
      </defs>
      <g>
       <use style="stroke:#000000;stroke-width:0.5;" x="453.6" xlink:href="#md699c775e4" y="352.8"/>
      </g>
     </g>
    </g>
    <g id="ytick_2">
     <g id="line2d_54">
      <path clip-path="url(#pc99005a909)" d="M 7.2 284.364356 
L 453.6 284.364356 
" style="fill:none;stroke:#000000;stroke-dasharray:1.000000,3.000000;stroke-dashoffset:0.0;stroke-width:0.5;"/>
     </g>
     <g id="line2d_55">
      <g>
       <use style="stroke:#000000;stroke-width:0.5;" x="7.2" xlink:href="#m6ed55b56e7" y="284.364356436"/>
      </g>
     </g>
     <g id="line2d_56">
      <g>
       <use style="stroke:#000000;stroke-width:0.5;" x="453.6" xlink:href="#md699c775e4" y="284.364356436"/>
      </g>
     </g>
    </g>
    <g id="ytick_3">
     <g id="line2d_57">
      <path clip-path="url(#pc99005a909)" d="M 7.2 215.928713 
L 453.6 215.928713 
" style="fill:none;stroke:#000000;stroke-dasharray:1.000000,3.000000;stroke-dashoffset:0.0;stroke-width:0.5;"/>
     </g>
     <g id="line2d_58">
      <g>
       <use style="stroke:#000000;stroke-width:0.5;" x="7.2" xlink:href="#m6ed55b56e7" y="215.928712871"/>
      </g>
     </g>
     <g id="line2d_59">
      <g>
       <use style="stroke:#000000;stroke-width:0.5;" x="453.6" xlink:href="#md699c775e4" y="215.928712871"/>
      </g>
     </g>
    </g>
    <g id="ytick_4">
     <g id="line2d_60">
      <path clip-path="url(#pc99005a909)" d="M 7.2 147.493069 
L 453.6 147.493069 
" style="fill:none;stroke:#000000;stroke-dasharray:1.000000,3.000000;stroke-dashoffset:0.0;stroke-width:0.5;"/>
     </g>
     <g id="line2d_61">
      <g>
       <use style="stroke:#000000;stroke-width:0.5;" x="7.2" xlink:href="#m6ed55b56e7" y="147.493069307"/>
      </g>
     </g>
     <g id="line2d_62">
      <g>
       <use style="stroke:#000000;stroke-width:0.5;" x="453.6" xlink:href="#md699c775e4" y="147.493069307"/>
      </g>
     </g>
    </g>
    <g id="ytick_5">
     <g id="line2d_63">
      <path clip-path="url(#pc99005a909)" d="M 7.2 79.057426 
L 453.6 79.057426 
" style="fill:none;stroke:#000000;stroke-dasharray:1.000000,3.000000;stroke-dashoffset:0.0;stroke-width:0.5;"/>
     </g>
     <g id="line2d_64">
      <g>
       <use style="stroke:#000000;stroke-width:0.5;" x="7.2" xlink:href="#m6ed55b56e7" y="79.0574257426"/>
      </g>
     </g>
     <g id="line2d_65">
      <g>
       <use style="stroke:#000000;stroke-width:0.5;" x="453.6" xlink:href="#md699c775e4" y="79.0574257426"/>
      </g>
     </g>
    </g>
    <g id="ytick_6">
     <g id="line2d_66">
      <path clip-path="url(#pc99005a909)" d="M 7.2 10.621782 
L 453.6 10.621782 
" style="fill:none;stroke:#000000;stroke-dasharray:1.000000,3.000000;stroke-dashoffset:0.0;stroke-width:0.5;"/>
     </g>
     <g id="line2d_67">
      <g>
       <use style="stroke:#000000;stroke-width:0.5;" x="7.2" xlink:href="#m6ed55b56e7" y="10.6217821782"/>
      </g>
     </g>
     <g id="line2d_68">
      <g>
       <use style="stroke:#000000;stroke-width:0.5;" x="453.6" xlink:href="#md699c775e4" y="10.6217821782"/>
      </g>
     </g>
    </g>
   </g>
   <g id="text_11">
    <!-- {f15-f19}, 5-D -->
    <defs>
     <path d="M 12.5 -9.28125 
L 15.921875 -9.28125 
Q 22.75 -9.28125 24.828125 -7.171875 
Q 26.90625 -5.078125 26.90625 1.90625 
L 26.90625 14.015625 
Q 26.90625 21.625 29.09375 25.09375 
Q 31.296875 28.5625 36.71875 29.890625 
Q 31.296875 31.109375 29.09375 34.5625 
Q 26.90625 38.03125 26.90625 45.703125 
L 26.90625 57.8125 
Q 26.90625 64.75 24.828125 66.875 
Q 22.75 69 15.921875 69 
L 12.5 69 
L 12.5 75.984375 
L 15.578125 75.984375 
Q 27.734375 75.984375 31.8125 72.390625 
Q 35.890625 68.796875 35.890625 58.015625 
L 35.890625 46.296875 
Q 35.890625 39.015625 38.515625 36.203125 
Q 41.15625 33.40625 48.09375 33.40625 
L 51.125 33.40625 
L 51.125 26.421875 
L 48.09375 26.421875 
Q 41.15625 26.421875 38.515625 23.578125 
Q 35.890625 20.75 35.890625 13.375 
L 35.890625 1.703125 
Q 35.890625 -9.078125 31.8125 -12.6875 
Q 27.734375 -16.3125 15.578125 -16.3125 
L 12.5 -16.3125 
z
" id="BitstreamVeraSans-Roman-7d"/>
     <path d="M 10.984375 1.515625 
L 10.984375 10.5 
Q 14.703125 8.734375 18.5 7.8125 
Q 22.3125 6.890625 25.984375 6.890625 
Q 35.75 6.890625 40.890625 13.453125 
Q 46.046875 20.015625 46.78125 33.40625 
Q 43.953125 29.203125 39.59375 26.953125 
Q 35.25 24.703125 29.984375 24.703125 
Q 19.046875 24.703125 12.671875 31.3125 
Q 6.296875 37.9375 6.296875 49.421875 
Q 6.296875 60.640625 12.9375 67.421875 
Q 19.578125 74.21875 30.609375 74.21875 
Q 43.265625 74.21875 49.921875 64.515625 
Q 56.59375 54.828125 56.59375 36.375 
Q 56.59375 19.140625 48.40625 8.859375 
Q 40.234375 -1.421875 26.421875 -1.421875 
Q 22.703125 -1.421875 18.890625 -0.6875 
Q 15.09375 0.046875 10.984375 1.515625 
M 30.609375 32.421875 
Q 37.25 32.421875 41.125 36.953125 
Q 45.015625 41.5 45.015625 49.421875 
Q 45.015625 57.28125 41.125 61.84375 
Q 37.25 66.40625 30.609375 66.40625 
Q 23.96875 66.40625 20.09375 61.84375 
Q 16.21875 57.28125 16.21875 49.421875 
Q 16.21875 41.5 20.09375 36.953125 
Q 23.96875 32.421875 30.609375 32.421875 
" id="BitstreamVeraSans-Roman-39"/>
     <path d="M 51.125 -9.28125 
L 51.125 -16.3125 
L 48.09375 -16.3125 
Q 35.9375 -16.3125 31.8125 -12.6875 
Q 27.6875 -9.078125 27.6875 1.703125 
L 27.6875 13.375 
Q 27.6875 20.75 25.046875 23.578125 
Q 22.40625 26.421875 15.484375 26.421875 
L 12.5 26.421875 
L 12.5 33.40625 
L 15.484375 33.40625 
Q 22.46875 33.40625 25.078125 36.203125 
Q 27.6875 39.015625 27.6875 46.296875 
L 27.6875 58.015625 
Q 27.6875 68.796875 31.8125 72.390625 
Q 35.9375 75.984375 48.09375 75.984375 
L 51.125 75.984375 
L 51.125 69 
L 47.796875 69 
Q 40.921875 69 38.8125 66.84375 
Q 36.71875 64.703125 36.71875 57.8125 
L 36.71875 45.703125 
Q 36.71875 38.03125 34.5 34.5625 
Q 32.28125 31.109375 26.90625 29.890625 
Q 32.328125 28.5625 34.515625 25.09375 
Q 36.71875 21.625 36.71875 14.015625 
L 36.71875 1.90625 
Q 36.71875 -4.984375 38.8125 -7.125 
Q 40.921875 -9.28125 47.796875 -9.28125 
z
" id="BitstreamVeraSans-Roman-7b"/>
     <path d="M 11.71875 12.40625 
L 22.015625 12.40625 
L 22.015625 4 
L 14.015625 -11.625 
L 7.71875 -11.625 
L 11.71875 4 
z
" id="BitstreamVeraSans-Roman-2c"/>
     <path d="M 10.796875 72.90625 
L 49.515625 72.90625 
L 49.515625 64.59375 
L 19.828125 64.59375 
L 19.828125 46.734375 
Q 21.96875 47.46875 24.109375 47.828125 
Q 26.265625 48.1875 28.421875 48.1875 
Q 40.625 48.1875 47.75 41.5 
Q 54.890625 34.8125 54.890625 23.390625 
Q 54.890625 11.625 47.5625 5.09375 
Q 40.234375 -1.421875 26.90625 -1.421875 
Q 22.3125 -1.421875 17.546875 -0.640625 
Q 12.796875 0.140625 7.71875 1.703125 
L 7.71875 11.625 
Q 12.109375 9.234375 16.796875 8.0625 
Q 21.484375 6.890625 26.703125 6.890625 
Q 35.15625 6.890625 40.078125 11.328125 
Q 45.015625 15.765625 45.015625 23.390625 
Q 45.015625 31 40.078125 35.4375 
Q 35.15625 39.890625 26.703125 39.890625 
Q 22.75 39.890625 18.8125 39.015625 
Q 14.890625 38.140625 10.796875 36.28125 
z
" id="BitstreamVeraSans-Roman-35"/>
    </defs>
    <g transform="translate(298.972 345.888)scale(0.2 -0.2)">
     <use xlink:href="#BitstreamVeraSans-Roman-7b"/>
     <use x="63.623046875" xlink:href="#BitstreamVeraSans-Roman-66"/>
     <use x="98.828125" xlink:href="#BitstreamVeraSans-Roman-31"/>
     <use x="162.451171875" xlink:href="#BitstreamVeraSans-Roman-35"/>
     <use x="226.07421875" xlink:href="#BitstreamVeraSans-Roman-2d"/>
     <use x="262.158203125" xlink:href="#BitstreamVeraSans-Roman-66"/>
     <use x="297.36328125" xlink:href="#BitstreamVeraSans-Roman-31"/>
     <use x="360.986328125" xlink:href="#BitstreamVeraSans-Roman-39"/>
     <use x="424.609375" xlink:href="#BitstreamVeraSans-Roman-7d"/>
     <use x="488.232421875" xlink:href="#BitstreamVeraSans-Roman-2c"/>
     <use x="520.01953125" xlink:href="#BitstreamVeraSans-Roman-20"/>
     <use x="551.806640625" xlink:href="#BitstreamVeraSans-Roman-35"/>
     <use x="615.4296875" xlink:href="#BitstreamVeraSans-Roman-2d"/>
     <use x="651.513671875" xlink:href="#BitstreamVeraSans-Roman-44"/>
    </g>
   </g>
   <g id="text_12">
    <!-- 0.0.0 -->
    <defs>
     <path d="M 10.6875 12.40625 
L 21 12.40625 
L 21 0 
L 10.6875 0 
z
" id="BitstreamVeraSans-Roman-2e"/>
    </defs>
    <g style="fill:#808080;" transform="translate(217.678125 347.2643125)scale(0.1 -0.1)">
     <use xlink:href="#BitstreamVeraSans-Roman-30"/>
     <use x="63.623046875" xlink:href="#BitstreamVeraSans-Roman-2e"/>
     <use x="95.41015625" xlink:href="#BitstreamVeraSans-Roman-30"/>
     <use x="159.033203125" xlink:href="#BitstreamVeraSans-Roman-2e"/>
     <use x="190.8203125" xlink:href="#BitstreamVeraSans-Roman-30"/>
    </g>
   </g>
  </g>
 </g>
 <defs>
  <clipPath id="pc99005a909">
   <rect height="345.6" width="446.4" x="7.2" y="7.2"/>
  </clipPath>
 </defs>
</svg>
