<?xml version="1.0" encoding="utf-8" standalone="no"?>
<!DOCTYPE svg PUBLIC "-//W3C//DTD SVG 1.1//EN"
  "http://www.w3.org/Graphics/SVG/1.1/DTD/svg11.dtd">
<!-- Created with matplotlib (http://matplotlib.org/) -->
<svg height="407pt" version="1.1" viewBox="0 0 460 407" width="460pt" xmlns="http://www.w3.org/2000/svg" xmlns:xlink="http://www.w3.org/1999/xlink">
 <defs>
  <style type="text/css">
*{stroke-linecap:butt;stroke-linejoin:round;stroke-miterlimit:100000;}
  </style>
 </defs>
 <g id="figure_1">
  <g id="patch_1">
   <path d="M 0 407.7125 
L 460.8 407.7125 
L 460.8 0 
L 0 0 
z
" style="fill:#ffffff;"/>
  </g>
  <g id="axes_1">
   <g id="patch_2">
    <path d="M 7.2 352.8 
L 453.6 352.8 
L 453.6 7.2 
L 7.2 7.2 
z
" style="fill:#ffffff;"/>
   </g>
   <g id="line2d_1">
    <path clip-path="url(#p6bb69c003d)" d="M 152.0102 352.8 
L 152.0102 348.237624 
L 169.891271 348.237624 
L 169.891271 343.675248 
L 188.73488 343.675248 
L 188.73488 339.112871 
L 196.375727 339.112871 
L 196.375727 334.550495 
L 198.885513 334.550495 
L 198.956272 325.425743 
L 200.290333 325.425743 
L 200.290333 320.863366 
L 200.922986 320.863366 
L 200.922986 316.30099 
L 201.44179 316.30099 
L 201.44179 311.738614 
L 202.073151 311.738614 
L 202.073151 307.176238 
L 202.232637 307.176238 
L 202.232637 302.613861 
L 202.496942 302.613861 
L 202.586677 284.364356 
L 202.820743 284.364356 
L 202.826417 275.239604 
L 203.053346 275.239604 
L 203.053346 270.677228 
L 203.382453 270.677228 
L 203.382453 266.114851 
L 203.54825 266.114851 
L 203.604441 256.990099 
L 204.036962 256.990099 
L 204.036962 252.427723 
L 204.556389 252.427723 
L 204.556389 247.865347 
L 204.744149 247.865347 
L 204.836985 238.740594 
L 204.913915 238.740594 
L 204.913915 234.178218 
L 205.143019 234.178218 
L 205.185917 225.053465 
L 206.147516 225.053465 
L 206.147516 220.491089 
L 206.449493 220.491089 
L 206.449493 215.928713 
L 206.797558 215.928713 
L 206.860699 206.80396 
L 206.934865 206.80396 
L 206.934865 202.241584 
L 207.126682 202.241584 
L 207.126682 197.679208 
L 207.478471 197.679208 
L 207.478471 193.116832 
L 208.056935 193.116832 
L 208.056935 188.554455 
L 208.287182 188.554455 
L 208.368816 174.867327 
L 208.524648 174.867327 
L 208.524648 170.30495 
L 209.705493 170.30495 
L 209.705493 165.742574 
L 210.125613 165.742574 
L 210.125613 161.180198 
L 210.503402 161.180198 
L 210.503402 156.617822 
L 211.095514 156.617822 
L 211.095514 152.055446 
L 211.579057 152.055446 
L 211.579057 147.493069 
L 213.964932 147.493069 
L 214.065433 138.368317 
L 215.116484 138.368317 
L 215.116484 133.805941 
L 215.703456 133.805941 
L 215.724036 124.681188 
L 215.898349 124.681188 
L 215.982161 115.556436 
L 216.07841 115.556436 
L 216.18593 106.431683 
L 216.208303 106.431683 
L 216.208303 101.869307 
L 217.003333 101.869307 
L 217.003333 97.306931 
L 217.422706 97.306931 
L 217.422706 92.744554 
L 217.908621 92.744554 
L 217.908621 88.182178 
L 218.190998 88.182178 
L 218.190998 83.619802 
L 219.233439 83.619802 
L 219.233439 79.057426 
L 221.343537 79.057426 
L 221.343537 74.49505 
L 224.021181 74.49505 
L 224.021181 69.932673 
L 224.602585 69.932673 
L 224.602585 65.370297 
L 225.689567 65.370297 
L 225.689567 60.807921 
L 226.001336 60.807921 
L 226.051191 51.683168 
L 226.284118 51.683168 
L 226.284118 47.120792 
L 227.221351 47.120792 
L 227.221351 42.558416 
L 227.377272 42.558416 
L 227.416991 33.433663 
L 227.534069 33.433663 
L 227.534069 28.871287 
L 227.716877 28.871287 
L 227.716877 24.308911 
L 230.490514 24.308911 
L 230.490514 19.746535 
L 232.222525 19.746535 
L 232.222525 15.184158 
L 232.413375 15.184158 
L 232.413375 10.621782 
L 232.413375 10.621782 
L 453.6 10.621782 
L 453.6 10.621782 
" style="fill:none;stroke:#ff0000;stroke-linecap:square;stroke-width:3.0;"/>
   </g>
   <g id="line2d_2">
    <path clip-path="url(#p6bb69c003d)" d="M 214.662799 352.8 
L 214.662799 348.237624 
L 219.831738 348.237624 
L 219.831738 343.675248 
L 220.602729 343.675248 
L 220.602729 339.112871 
L 222.428891 339.112871 
L 222.428891 334.550495 
L 222.754296 334.550495 
L 222.754296 329.988119 
L 223.070016 329.988119 
L 223.160836 320.863366 
L 223.572986 320.863366 
L 223.572986 316.30099 
L 224.197542 316.30099 
L 224.197542 311.738614 
L 225.635646 311.738614 
L 225.635646 307.176238 
L 227.027413 307.176238 
L 227.027413 302.613861 
L 227.167373 302.613861 
L 227.167373 298.051485 
L 227.65389 298.051485 
L 227.65389 293.489109 
L 229.700952 293.489109 
L 229.700952 288.926733 
L 230.326367 288.926733 
L 230.326367 284.364356 
L 230.635364 284.364356 
L 230.635364 279.80198 
L 231.746421 279.80198 
L 231.746421 275.239604 
L 232.263898 275.239604 
L 232.263898 270.677228 
L 234.164469 270.677228 
L 234.164469 266.114851 
L 235.966909 266.114851 
L 235.966909 261.552475 
L 236.387454 261.552475 
L 236.387454 256.990099 
L 237.279088 256.990099 
L 237.279088 252.427723 
L 238.220536 252.427723 
L 238.316562 243.30297 
L 238.551597 243.30297 
L 238.621661 229.615842 
L 238.714086 229.615842 
L 238.80571 215.928713 
L 239.247017 215.928713 
L 239.328054 206.80396 
L 239.447704 206.80396 
L 239.448947 197.679208 
L 239.68304 197.679208 
L 239.74725 188.554455 
L 239.890484 188.554455 
L 239.890484 183.992079 
L 240.054171 183.992079 
L 240.054171 179.429703 
L 240.185056 179.429703 
L 240.185056 174.867327 
L 240.437431 174.867327 
L 240.495664 165.742574 
L 240.789581 165.742574 
L 240.789581 161.180198 
L 240.940021 161.180198 
L 241.025513 152.055446 
L 241.386125 152.055446 
L 241.386125 147.493069 
L 241.752126 147.493069 
L 241.752126 142.930693 
L 242.347838 142.930693 
L 242.347838 138.368317 
L 244.11501 138.368317 
L 244.11501 133.805941 
L 245.987122 133.805941 
L 246.032127 124.681188 
L 252.81267 124.681188 
L 252.81267 120.118812 
L 254.202119 120.118812 
L 254.202119 115.556436 
L 265.858924 115.556436 
L 265.858924 110.994059 
L 277.245695 110.994059 
L 277.245695 106.431683 
L 277.50305 106.431683 
L 277.50305 101.869307 
L 278.797478 101.869307 
L 278.797478 97.306931 
L 282.774803 97.306931 
L 282.774803 92.744554 
L 286.50875 92.744554 
L 286.50875 88.182178 
L 288.336855 88.182178 
L 288.336855 83.619802 
L 289.275762 83.619802 
L 289.275762 79.057426 
L 292.79855 79.057426 
L 292.79855 74.49505 
L 295.045882 74.49505 
L 295.045882 69.932673 
L 297.376395 69.932673 
L 297.3957 60.807921 
L 297.837063 60.807921 
L 297.837063 56.245545 
L 298.740546 56.245545 
L 298.740546 51.683168 
L 303.160881 51.683168 
L 303.160881 47.120792 
L 304.121872 47.120792 
L 304.121872 42.558416 
L 305.401403 42.558416 
L 305.401403 37.99604 
L 306.958339 37.99604 
L 306.958339 33.433663 
L 307.774746 33.433663 
L 307.791737 24.308911 
L 309.828198 24.308911 
L 309.830343 15.184158 
L 317.37693 15.184158 
L 317.37693 10.621782 
L 317.37693 10.621782 
L 453.6 10.621782 
L 453.6 10.621782 
" style="fill:none;stroke:#00bfbf;stroke-linecap:square;"/>
   </g>
   <g id="line2d_3">
    <path clip-path="url(#p6bb69c003d)" d="M 214.662799 352.8 
L 214.662799 348.237624 
L 218.13205 348.237624 
L 218.13205 343.675248 
L 218.792014 343.675248 
L 218.792014 339.112871 
L 219.179432 339.112871 
L 219.179432 334.550495 
L 219.831738 334.550495 
L 219.831738 329.988119 
L 220.592793 329.988119 
L 220.602729 320.863366 
L 220.738492 320.863366 
L 220.738492 316.30099 
L 222.754296 316.30099 
L 222.754296 311.738614 
L 223.070016 311.738614 
L 223.160836 302.613861 
L 223.325368 302.613861 
L 223.325368 298.051485 
L 224.605964 298.051485 
L 224.605964 293.489109 
L 225.154461 293.489109 
L 225.154461 288.926733 
L 225.835649 288.926733 
L 225.835649 284.364356 
L 227.65389 284.364356 
L 227.65389 279.80198 
L 229.651408 279.80198 
L 229.651408 275.239604 
L 229.903428 275.239604 
L 229.967725 266.114851 
L 230.534471 266.114851 
L 230.635364 256.990099 
L 231.746421 256.990099 
L 231.746421 252.427723 
L 232.263898 252.427723 
L 232.263898 247.865347 
L 232.709024 247.865347 
L 232.709024 243.30297 
L 233.305388 243.30297 
L 233.305388 238.740594 
L 234.735253 238.740594 
L 234.735253 234.178218 
L 236.208153 234.178218 
L 236.208153 229.615842 
L 236.387454 229.615842 
L 236.387454 225.053465 
L 237.279088 225.053465 
L 237.279088 220.491089 
L 238.258032 220.491089 
L 238.258032 215.928713 
L 238.369405 215.928713 
L 238.39206 206.80396 
L 238.531729 206.80396 
L 238.621661 197.679208 
L 238.823195 197.679208 
L 238.823195 193.116832 
L 239.207466 193.116832 
L 239.247017 179.429703 
L 239.328054 179.429703 
L 239.328054 174.867327 
L 239.448947 174.867327 
L 239.448947 170.30495 
L 239.575062 170.30495 
L 239.575062 165.742574 
L 239.74725 165.742574 
L 239.74725 161.180198 
L 239.890484 161.180198 
L 239.894796 152.055446 
L 240.14739 152.055446 
L 240.158615 142.930693 
L 240.388194 142.930693 
L 240.457415 133.805941 
L 240.5949 133.805941 
L 240.5949 129.243564 
L 240.880083 129.243564 
L 240.940021 120.118812 
L 242.347838 120.118812 
L 242.347838 115.556436 
L 243.097848 115.556436 
L 243.181329 106.431683 
L 244.896972 106.431683 
L 244.896972 101.869307 
L 245.383103 101.869307 
L 245.383103 97.306931 
L 248.691278 97.306931 
L 248.691278 92.744554 
L 248.82399 92.744554 
L 248.82399 88.182178 
L 251.643786 88.182178 
L 251.643786 83.619802 
L 260.733229 83.619802 
L 260.733229 79.057426 
L 265.858924 79.057426 
L 265.858924 74.49505 
L 278.797478 74.49505 
L 278.797478 69.932673 
L 286.50875 69.932673 
L 286.50875 65.370297 
L 289.275762 65.370297 
L 289.275762 60.807921 
L 292.680697 60.807921 
L 292.680697 56.245545 
L 295.045882 56.245545 
L 295.045882 51.683168 
L 295.816197 51.683168 
L 295.816197 47.120792 
L 297.376395 47.120792 
L 297.3957 37.99604 
L 298.176439 37.99604 
L 298.176439 33.433663 
L 298.740546 33.433663 
L 298.740546 28.871287 
L 301.924722 28.871287 
L 301.924722 24.308911 
L 306.200275 24.308911 
L 306.200275 19.746535 
L 307.791737 19.746535 
L 307.791737 15.184158 
L 308.438216 15.184158 
L 308.438216 10.621782 
L 308.438216 10.621782 
L 453.6 10.621782 
L 453.6 10.621782 
" style="fill:none;stroke:#bf00bf;stroke-linecap:square;"/>
   </g>
   <g id="line2d_4">
    <path clip-path="url(#p6bb69c003d)" d="M 206.860699 352.8 
L 206.860699 348.237624 
L 210.367818 348.237624 
L 210.367818 343.675248 
L 212.644753 343.675248 
L 212.644753 339.112871 
L 213.278922 339.112871 
L 213.278922 334.550495 
L 214.662799 334.550495 
L 214.662799 329.988119 
L 215.64266 329.988119 
L 215.64266 325.425743 
L 216.914789 325.425743 
L 216.914789 320.863366 
L 218.13205 320.863366 
L 218.13205 316.30099 
L 218.639898 316.30099 
L 218.639898 311.738614 
L 219.179432 311.738614 
L 219.179432 307.176238 
L 219.831738 307.176238 
L 219.941372 298.051485 
L 220.602729 298.051485 
L 220.615321 288.926733 
L 220.738492 288.926733 
L 220.738492 284.364356 
L 221.132366 284.364356 
L 221.132366 279.80198 
L 221.450587 279.80198 
L 221.450587 275.239604 
L 223.148019 275.239604 
L 223.148019 270.677228 
L 224.357923 270.677228 
L 224.357923 266.114851 
L 224.605964 266.114851 
L 224.605964 261.552475 
L 227.65389 261.552475 
L 227.65389 256.990099 
L 229.122762 256.990099 
L 229.122762 252.427723 
L 230.534471 252.427723 
L 230.635364 243.30297 
L 231.746421 243.30297 
L 231.746421 238.740594 
L 232.263898 238.740594 
L 232.363838 229.615842 
L 232.709024 229.615842 
L 232.709024 225.053465 
L 234.653726 225.053465 
L 234.735253 215.928713 
L 236.208153 215.928713 
L 236.208153 211.366337 
L 236.785985 211.366337 
L 236.785985 206.80396 
L 237.279088 206.80396 
L 237.279088 202.241584 
L 237.840197 202.241584 
L 237.840197 197.679208 
L 238.158821 197.679208 
L 238.258032 183.992079 
L 238.279955 183.992079 
L 238.279955 179.429703 
L 238.427099 179.429703 
L 238.508795 170.30495 
L 238.681985 170.30495 
L 238.681985 165.742574 
L 238.823195 165.742574 
L 238.823195 161.180198 
L 239.223163 161.180198 
L 239.247017 152.055446 
L 239.481767 152.055446 
L 239.484503 142.930693 
L 239.607323 142.930693 
L 239.607323 138.368317 
L 239.759679 138.368317 
L 239.759679 133.805941 
L 239.872126 133.805941 
L 239.872126 129.243564 
L 240.158615 129.243564 
L 240.158615 124.681188 
L 240.5949 124.681188 
L 240.5949 120.118812 
L 240.880083 120.118812 
L 240.880083 115.556436 
L 242.265474 115.556436 
L 242.347838 106.431683 
L 243.181329 106.431683 
L 243.181329 101.869307 
L 243.609502 101.869307 
L 243.609502 97.306931 
L 244.896972 97.306931 
L 244.896972 92.744554 
L 245.359049 92.744554 
L 245.359049 88.182178 
L 246.420427 88.182178 
L 246.420427 83.619802 
L 247.29933 83.619802 
L 247.29933 79.057426 
L 249.197096 79.057426 
L 249.197096 74.49505 
L 264.935089 74.49505 
L 264.935089 69.932673 
L 278.797478 69.932673 
L 278.797478 65.370297 
L 280.874545 65.370297 
L 280.874545 60.807921 
L 284.731718 60.807921 
L 284.731718 56.245545 
L 286.137238 56.245545 
L 286.137238 51.683168 
L 286.50875 51.683168 
L 286.50875 47.120792 
L 287.892776 47.120792 
L 287.892776 42.558416 
L 288.808122 42.558416 
L 288.808122 37.99604 
L 289.256487 37.99604 
L 289.275762 28.871287 
L 290.353434 28.871287 
L 290.353434 24.308911 
L 291.663236 24.308911 
L 291.663236 19.746535 
L 293.968963 19.746535 
L 293.968963 15.184158 
L 296.822588 15.184158 
L 296.822588 10.621782 
L 296.822588 10.621782 
L 453.6 10.621782 
L 453.6 10.621782 
" style="fill:none;stroke:#000000;stroke-linecap:square;"/>
   </g>
   <g id="line2d_5">
    <path clip-path="url(#p6bb69c003d)" d="M 206.860699 352.8 
L 206.860699 348.237624 
L 207.494564 348.237624 
L 207.494564 343.675248 
L 208.287182 343.675248 
L 208.287182 339.112871 
L 210.125613 339.112871 
L 210.125613 334.550495 
L 210.367818 334.550495 
L 210.367818 329.988119 
L 210.972218 329.988119 
L 210.972218 325.425743 
L 212.144577 325.425743 
L 212.144577 320.863366 
L 212.644753 320.863366 
L 212.644753 316.30099 
L 213.278922 316.30099 
L 213.278922 311.738614 
L 213.752957 311.738614 
L 213.831945 302.613861 
L 214.662799 302.613861 
L 214.662799 298.051485 
L 215.354765 298.051485 
L 215.354765 293.489109 
L 216.510377 293.489109 
L 216.548786 284.364356 
L 216.650406 284.364356 
L 216.735252 275.239604 
L 217.321719 275.239604 
L 217.422706 266.114851 
L 218.319993 266.114851 
L 218.382567 252.427723 
L 219.170424 252.427723 
L 219.170424 247.865347 
L 221.450587 247.865347 
L 221.450587 243.30297 
L 224.605964 243.30297 
L 224.605964 238.740594 
L 225.756287 238.740594 
L 225.756287 234.178218 
L 226.432317 234.178218 
L 226.432317 229.615842 
L 227.196428 229.615842 
L 227.29191 215.928713 
L 227.649385 215.928713 
L 227.649385 211.366337 
L 228.14215 211.366337 
L 228.14215 206.80396 
L 229.122762 206.80396 
L 229.122762 202.241584 
L 229.307086 202.241584 
L 229.307086 197.679208 
L 229.938046 197.679208 
L 229.938046 193.116832 
L 230.359736 193.116832 
L 230.359736 188.554455 
L 230.635364 188.554455 
L 230.635364 183.992079 
L 231.559685 183.992079 
L 231.559685 179.429703 
L 232.021171 179.429703 
L 232.021171 174.867327 
L 232.470318 174.867327 
L 232.470318 170.30495 
L 232.709024 170.30495 
L 232.722629 161.180198 
L 233.962577 161.180198 
L 233.962577 156.617822 
L 235.234286 156.617822 
L 235.234286 152.055446 
L 235.548545 152.055446 
L 235.548545 147.493069 
L 236.013073 147.493069 
L 236.013073 142.930693 
L 236.208153 142.930693 
L 236.208153 138.368317 
L 236.806333 138.368317 
L 236.806333 133.805941 
L 237.041012 133.805941 
L 237.041012 129.243564 
L 237.605872 129.243564 
L 237.605872 124.681188 
L 237.732062 124.681188 
L 237.732062 120.118812 
L 237.907802 120.118812 
L 237.950803 110.994059 
L 238.37073 110.994059 
L 238.37073 106.431683 
L 238.722109 106.431683 
L 238.722109 101.869307 
L 240.306538 101.869307 
L 240.306538 97.306931 
L 241.44945 97.306931 
L 241.44945 92.744554 
L 241.977552 92.744554 
L 241.977552 88.182178 
L 242.839965 88.182178 
L 242.839965 83.619802 
L 243.609502 83.619802 
L 243.609502 79.057426 
L 245.714239 79.057426 
L 245.714239 74.49505 
L 247.29933 74.49505 
L 247.29933 69.932673 
L 250.567738 69.932673 
L 250.567738 65.370297 
L 251.473623 65.370297 
L 251.473623 60.807921 
L 259.516228 60.807921 
L 259.516228 56.245545 
L 261.959848 56.245545 
L 261.959848 51.683168 
L 276.017769 51.683168 
L 276.117154 42.558416 
L 277.008012 42.558416 
L 277.008012 37.99604 
L 278.616628 37.99604 
L 278.616628 33.433663 
L 279.010956 33.433663 
L 279.010956 28.871287 
L 280.498064 28.871287 
L 280.498064 24.308911 
L 281.7493 24.308911 
L 281.7493 19.746535 
L 284.731718 19.746535 
L 284.731718 15.184158 
L 291.663236 15.184158 
L 291.663236 10.621782 
L 291.663236 10.621782 
L 453.6 10.621782 
L 453.6 10.621782 
" style="fill:none;stroke:#00bfbf;stroke-linecap:square;"/>
   </g>
   <g id="patch_3">
    <path d="M 7.2 7.2 
L 453.6 7.2 
" style="fill:none;stroke:#000000;stroke-linecap:square;stroke-linejoin:miter;"/>
   </g>
   <g id="patch_4">
    <path d="M 453.6 352.8 
L 453.6 7.2 
" style="fill:none;stroke:#000000;stroke-linecap:square;stroke-linejoin:miter;"/>
   </g>
   <g id="patch_5">
    <path d="M 7.2 352.8 
L 453.6 352.8 
" style="fill:none;stroke:#000000;stroke-linecap:square;stroke-linejoin:miter;"/>
   </g>
   <g id="patch_6">
    <path d="M 7.2 352.8 
L 7.2 7.2 
" style="fill:none;stroke:#000000;stroke-linecap:square;stroke-linejoin:miter;"/>
   </g>
   <g id="matplotlib.axis_1">
    <g id="xtick_1"/>
    <g id="xtick_2">
     <g id="line2d_6">
      <path clip-path="url(#p6bb69c003d)" d="M 54.098611 352.8 
L 54.098611 7.2 
" style="fill:none;stroke:#000000;stroke-dasharray:1.000000,3.000000;stroke-dashoffset:0.0;stroke-width:0.5;"/>
     </g>
     <g id="line2d_7">
      <defs>
       <path d="M 0 0 
L 0 -4 
" id="m92280b8df3" style="stroke:#000000;stroke-width:0.5;"/>
      </defs>
      <g>
       <use style="stroke:#000000;stroke-width:0.5;" x="54.0986107985" xlink:href="#m92280b8df3" y="352.8"/>
      </g>
     </g>
     <g id="line2d_8">
      <defs>
       <path d="M 0 0 
L 0 4 
" id="m3e4665641c" style="stroke:#000000;stroke-width:0.5;"/>
      </defs>
      <g>
       <use style="stroke:#000000;stroke-width:0.5;" x="54.0986107985" xlink:href="#m3e4665641c" y="7.2"/>
      </g>
     </g>
     <g id="text_1">
      <!-- -6 -->
      <defs>
       <path d="M 33.015625 40.375 
Q 26.375 40.375 22.484375 35.828125 
Q 18.609375 31.296875 18.609375 23.390625 
Q 18.609375 15.53125 22.484375 10.953125 
Q 26.375 6.390625 33.015625 6.390625 
Q 39.65625 6.390625 43.53125 10.953125 
Q 47.40625 15.53125 47.40625 23.390625 
Q 47.40625 31.296875 43.53125 35.828125 
Q 39.65625 40.375 33.015625 40.375 
M 52.59375 71.296875 
L 52.59375 62.3125 
Q 48.875 64.0625 45.09375 64.984375 
Q 41.3125 65.921875 37.59375 65.921875 
Q 27.828125 65.921875 22.671875 59.328125 
Q 17.53125 52.734375 16.796875 39.40625 
Q 19.671875 43.65625 24.015625 45.921875 
Q 28.375 48.1875 33.59375 48.1875 
Q 44.578125 48.1875 50.953125 41.515625 
Q 57.328125 34.859375 57.328125 23.390625 
Q 57.328125 12.15625 50.6875 5.359375 
Q 44.046875 -1.421875 33.015625 -1.421875 
Q 20.359375 -1.421875 13.671875 8.265625 
Q 6.984375 17.96875 6.984375 36.375 
Q 6.984375 53.65625 15.1875 63.9375 
Q 23.390625 74.21875 37.203125 74.21875 
Q 40.921875 74.21875 44.703125 73.484375 
Q 48.484375 72.75 52.59375 71.296875 
" id="BitstreamVeraSans-Roman-36"/>
       <path d="M 4.890625 31.390625 
L 31.203125 31.390625 
L 31.203125 23.390625 
L 4.890625 23.390625 
z
" id="BitstreamVeraSans-Roman-2d"/>
      </defs>
      <g transform="translate(44.1282982985 371.996875)scale(0.2 -0.2)">
       <use xlink:href="#BitstreamVeraSans-Roman-2d"/>
       <use x="36.083984375" xlink:href="#BitstreamVeraSans-Roman-36"/>
      </g>
     </g>
    </g>
    <g id="xtick_3">
     <g id="line2d_9">
      <path clip-path="url(#p6bb69c003d)" d="M 101.098774 352.8 
L 101.098774 7.2 
" style="fill:none;stroke:#000000;stroke-dasharray:1.000000,3.000000;stroke-dashoffset:0.0;stroke-width:0.5;"/>
     </g>
     <g id="line2d_10">
      <g>
       <use style="stroke:#000000;stroke-width:0.5;" x="101.098774234" xlink:href="#m92280b8df3" y="352.8"/>
      </g>
     </g>
     <g id="line2d_11">
      <g>
       <use style="stroke:#000000;stroke-width:0.5;" x="101.098774234" xlink:href="#m3e4665641c" y="7.2"/>
      </g>
     </g>
     <g id="text_2">
      <!-- -4 -->
      <defs>
       <path d="M 37.796875 64.3125 
L 12.890625 25.390625 
L 37.796875 25.390625 
z
M 35.203125 72.90625 
L 47.609375 72.90625 
L 47.609375 25.390625 
L 58.015625 25.390625 
L 58.015625 17.1875 
L 47.609375 17.1875 
L 47.609375 0 
L 37.796875 0 
L 37.796875 17.1875 
L 4.890625 17.1875 
L 4.890625 26.703125 
z
" id="BitstreamVeraSans-Roman-34"/>
      </defs>
      <g transform="translate(91.1284617339 371.996875)scale(0.2 -0.2)">
       <use xlink:href="#BitstreamVeraSans-Roman-2d"/>
       <use x="36.083984375" xlink:href="#BitstreamVeraSans-Roman-34"/>
      </g>
     </g>
    </g>
    <g id="xtick_4">
     <g id="line2d_12">
      <path clip-path="url(#p6bb69c003d)" d="M 148.098938 352.8 
L 148.098938 7.2 
" style="fill:none;stroke:#000000;stroke-dasharray:1.000000,3.000000;stroke-dashoffset:0.0;stroke-width:0.5;"/>
     </g>
     <g id="line2d_13">
      <g>
       <use style="stroke:#000000;stroke-width:0.5;" x="148.098937669" xlink:href="#m92280b8df3" y="352.8"/>
      </g>
     </g>
     <g id="line2d_14">
      <g>
       <use style="stroke:#000000;stroke-width:0.5;" x="148.098937669" xlink:href="#m3e4665641c" y="7.2"/>
      </g>
     </g>
     <g id="text_3">
      <!-- -2 -->
      <defs>
       <path d="M 19.1875 8.296875 
L 53.609375 8.296875 
L 53.609375 0 
L 7.328125 0 
L 7.328125 8.296875 
Q 12.9375 14.109375 22.625 23.890625 
Q 32.328125 33.6875 34.8125 36.53125 
Q 39.546875 41.84375 41.421875 45.53125 
Q 43.3125 49.21875 43.3125 52.78125 
Q 43.3125 58.59375 39.234375 62.25 
Q 35.15625 65.921875 28.609375 65.921875 
Q 23.96875 65.921875 18.8125 64.3125 
Q 13.671875 62.703125 7.8125 59.421875 
L 7.8125 69.390625 
Q 13.765625 71.78125 18.9375 73 
Q 24.125 74.21875 28.421875 74.21875 
Q 39.75 74.21875 46.484375 68.546875 
Q 53.21875 62.890625 53.21875 53.421875 
Q 53.21875 48.921875 51.53125 44.890625 
Q 49.859375 40.875 45.40625 35.40625 
Q 44.1875 33.984375 37.640625 27.21875 
Q 31.109375 20.453125 19.1875 8.296875 
" id="BitstreamVeraSans-Roman-32"/>
      </defs>
      <g transform="translate(138.128625169 371.996875)scale(0.2 -0.2)">
       <use xlink:href="#BitstreamVeraSans-Roman-2d"/>
       <use x="36.083984375" xlink:href="#BitstreamVeraSans-Roman-32"/>
      </g>
     </g>
    </g>
    <g id="xtick_5">
     <g id="line2d_15">
      <path clip-path="url(#p6bb69c003d)" d="M 195.099101 352.8 
L 195.099101 7.2 
" style="fill:none;stroke:#000000;stroke-dasharray:1.000000,3.000000;stroke-dashoffset:0.0;stroke-width:0.5;"/>
     </g>
     <g id="line2d_16">
      <g>
       <use style="stroke:#000000;stroke-width:0.5;" x="195.099101105" xlink:href="#m92280b8df3" y="352.8"/>
      </g>
     </g>
     <g id="line2d_17">
      <g>
       <use style="stroke:#000000;stroke-width:0.5;" x="195.099101105" xlink:href="#m3e4665641c" y="7.2"/>
      </g>
     </g>
     <g id="text_4">
      <!-- 0 -->
      <defs>
       <path d="M 31.78125 66.40625 
Q 24.171875 66.40625 20.328125 58.90625 
Q 16.5 51.421875 16.5 36.375 
Q 16.5 21.390625 20.328125 13.890625 
Q 24.171875 6.390625 31.78125 6.390625 
Q 39.453125 6.390625 43.28125 13.890625 
Q 47.125 21.390625 47.125 36.375 
Q 47.125 51.421875 43.28125 58.90625 
Q 39.453125 66.40625 31.78125 66.40625 
M 31.78125 74.21875 
Q 44.046875 74.21875 50.515625 64.515625 
Q 56.984375 54.828125 56.984375 36.375 
Q 56.984375 17.96875 50.515625 8.265625 
Q 44.046875 -1.421875 31.78125 -1.421875 
Q 19.53125 -1.421875 13.0625 8.265625 
Q 6.59375 17.96875 6.59375 36.375 
Q 6.59375 54.828125 13.0625 64.515625 
Q 19.53125 74.21875 31.78125 74.21875 
" id="BitstreamVeraSans-Roman-30"/>
      </defs>
      <g transform="translate(188.736601105 371.996875)scale(0.2 -0.2)">
       <use xlink:href="#BitstreamVeraSans-Roman-30"/>
      </g>
     </g>
    </g>
    <g id="xtick_6">
     <g id="line2d_18">
      <path clip-path="url(#p6bb69c003d)" d="M 242.099265 352.8 
L 242.099265 7.2 
" style="fill:none;stroke:#000000;stroke-dasharray:1.000000,3.000000;stroke-dashoffset:0.0;stroke-width:0.5;"/>
     </g>
     <g id="line2d_19">
      <g>
       <use style="stroke:#000000;stroke-width:0.5;" x="242.09926454" xlink:href="#m92280b8df3" y="352.8"/>
      </g>
     </g>
     <g id="line2d_20">
      <g>
       <use style="stroke:#000000;stroke-width:0.5;" x="242.09926454" xlink:href="#m3e4665641c" y="7.2"/>
      </g>
     </g>
     <g id="text_5">
      <!-- 2 -->
      <g transform="translate(235.73676454 371.996875)scale(0.2 -0.2)">
       <use xlink:href="#BitstreamVeraSans-Roman-32"/>
      </g>
     </g>
    </g>
    <g id="xtick_7">
     <g id="line2d_21">
      <path clip-path="url(#p6bb69c003d)" d="M 289.099428 352.8 
L 289.099428 7.2 
" style="fill:none;stroke:#000000;stroke-dasharray:1.000000,3.000000;stroke-dashoffset:0.0;stroke-width:0.5;"/>
     </g>
     <g id="line2d_22">
      <g>
       <use style="stroke:#000000;stroke-width:0.5;" x="289.099427976" xlink:href="#m92280b8df3" y="352.8"/>
      </g>
     </g>
     <g id="line2d_23">
      <g>
       <use style="stroke:#000000;stroke-width:0.5;" x="289.099427976" xlink:href="#m3e4665641c" y="7.2"/>
      </g>
     </g>
     <g id="text_6">
      <!-- 4 -->
      <g transform="translate(282.736927976 371.996875)scale(0.2 -0.2)">
       <use xlink:href="#BitstreamVeraSans-Roman-34"/>
      </g>
     </g>
    </g>
    <g id="xtick_8">
     <g id="line2d_24">
      <path clip-path="url(#p6bb69c003d)" d="M 336.099591 352.8 
L 336.099591 7.2 
" style="fill:none;stroke:#000000;stroke-dasharray:1.000000,3.000000;stroke-dashoffset:0.0;stroke-width:0.5;"/>
     </g>
     <g id="line2d_25">
      <g>
       <use style="stroke:#000000;stroke-width:0.5;" x="336.099591411" xlink:href="#m92280b8df3" y="352.8"/>
      </g>
     </g>
     <g id="line2d_26">
      <g>
       <use style="stroke:#000000;stroke-width:0.5;" x="336.099591411" xlink:href="#m3e4665641c" y="7.2"/>
      </g>
     </g>
     <g id="text_7">
      <!-- 6 -->
      <g transform="translate(329.737091411 371.996875)scale(0.2 -0.2)">
       <use xlink:href="#BitstreamVeraSans-Roman-36"/>
      </g>
     </g>
    </g>
    <g id="xtick_9">
     <g id="line2d_27">
      <path clip-path="url(#p6bb69c003d)" d="M 383.099755 352.8 
L 383.099755 7.2 
" style="fill:none;stroke:#000000;stroke-dasharray:1.000000,3.000000;stroke-dashoffset:0.0;stroke-width:0.5;"/>
     </g>
     <g id="line2d_28">
      <g>
       <use style="stroke:#000000;stroke-width:0.5;" x="383.099754847" xlink:href="#m92280b8df3" y="352.8"/>
      </g>
     </g>
     <g id="line2d_29">
      <g>
       <use style="stroke:#000000;stroke-width:0.5;" x="383.099754847" xlink:href="#m3e4665641c" y="7.2"/>
      </g>
     </g>
     <g id="text_8">
      <!-- 8 -->
      <defs>
       <path d="M 31.78125 34.625 
Q 24.75 34.625 20.71875 30.859375 
Q 16.703125 27.09375 16.703125 20.515625 
Q 16.703125 13.921875 20.71875 10.15625 
Q 24.75 6.390625 31.78125 6.390625 
Q 38.8125 6.390625 42.859375 10.171875 
Q 46.921875 13.96875 46.921875 20.515625 
Q 46.921875 27.09375 42.890625 30.859375 
Q 38.875 34.625 31.78125 34.625 
M 21.921875 38.8125 
Q 15.578125 40.375 12.03125 44.71875 
Q 8.5 49.078125 8.5 55.328125 
Q 8.5 64.0625 14.71875 69.140625 
Q 20.953125 74.21875 31.78125 74.21875 
Q 42.671875 74.21875 48.875 69.140625 
Q 55.078125 64.0625 55.078125 55.328125 
Q 55.078125 49.078125 51.53125 44.71875 
Q 48 40.375 41.703125 38.8125 
Q 48.828125 37.15625 52.796875 32.3125 
Q 56.78125 27.484375 56.78125 20.515625 
Q 56.78125 9.90625 50.3125 4.234375 
Q 43.84375 -1.421875 31.78125 -1.421875 
Q 19.734375 -1.421875 13.25 4.234375 
Q 6.78125 9.90625 6.78125 20.515625 
Q 6.78125 27.484375 10.78125 32.3125 
Q 14.796875 37.15625 21.921875 38.8125 
M 18.3125 54.390625 
Q 18.3125 48.734375 21.84375 45.5625 
Q 25.390625 42.390625 31.78125 42.390625 
Q 38.140625 42.390625 41.71875 45.5625 
Q 45.3125 48.734375 45.3125 54.390625 
Q 45.3125 60.0625 41.71875 63.234375 
Q 38.140625 66.40625 31.78125 66.40625 
Q 25.390625 66.40625 21.84375 63.234375 
Q 18.3125 60.0625 18.3125 54.390625 
" id="BitstreamVeraSans-Roman-38"/>
      </defs>
      <g transform="translate(376.737254847 371.996875)scale(0.2 -0.2)">
       <use xlink:href="#BitstreamVeraSans-Roman-38"/>
      </g>
     </g>
    </g>
    <g id="xtick_10">
     <g id="line2d_30">
      <path clip-path="url(#p6bb69c003d)" d="M 430.099918 352.8 
L 430.099918 7.2 
" style="fill:none;stroke:#000000;stroke-dasharray:1.000000,3.000000;stroke-dashoffset:0.0;stroke-width:0.5;"/>
     </g>
     <g id="line2d_31">
      <g>
       <use style="stroke:#000000;stroke-width:0.5;" x="430.099918282" xlink:href="#m92280b8df3" y="352.8"/>
      </g>
     </g>
     <g id="line2d_32">
      <g>
       <use style="stroke:#000000;stroke-width:0.5;" x="430.099918282" xlink:href="#m3e4665641c" y="7.2"/>
      </g>
     </g>
     <g id="text_9">
      <!-- 10 -->
      <defs>
       <path d="M 12.40625 8.296875 
L 28.515625 8.296875 
L 28.515625 63.921875 
L 10.984375 60.40625 
L 10.984375 69.390625 
L 28.421875 72.90625 
L 38.28125 72.90625 
L 38.28125 8.296875 
L 54.390625 8.296875 
L 54.390625 0 
L 12.40625 0 
z
" id="BitstreamVeraSans-Roman-31"/>
      </defs>
      <g transform="translate(417.374918282 371.996875)scale(0.2 -0.2)">
       <use xlink:href="#BitstreamVeraSans-Roman-31"/>
       <use x="63.623046875" xlink:href="#BitstreamVeraSans-Roman-30"/>
      </g>
     </g>
    </g>
    <g id="xtick_11"/>
    <g id="xtick_12">
     <g id="line2d_33">
      <defs>
       <path d="M 0 0 
L 0 -2 
" id="m310b55391a" style="stroke:#000000;stroke-width:0.5;"/>
      </defs>
      <g>
       <use style="stroke:#000000;stroke-width:0.5;" x="54.0986107985" xlink:href="#m310b55391a" y="352.8"/>
      </g>
     </g>
     <g id="line2d_34">
      <defs>
       <path d="M 0 0 
L 0 2 
" id="m64e4704a39" style="stroke:#000000;stroke-width:0.5;"/>
      </defs>
      <g>
       <use style="stroke:#000000;stroke-width:0.5;" x="54.0986107985" xlink:href="#m64e4704a39" y="7.2"/>
      </g>
     </g>
    </g>
    <g id="xtick_13">
     <g id="line2d_35">
      <g>
       <use style="stroke:#000000;stroke-width:0.5;" x="101.098774234" xlink:href="#m310b55391a" y="352.8"/>
      </g>
     </g>
     <g id="line2d_36">
      <g>
       <use style="stroke:#000000;stroke-width:0.5;" x="101.098774234" xlink:href="#m64e4704a39" y="7.2"/>
      </g>
     </g>
    </g>
    <g id="xtick_14">
     <g id="line2d_37">
      <g>
       <use style="stroke:#000000;stroke-width:0.5;" x="148.098937669" xlink:href="#m310b55391a" y="352.8"/>
      </g>
     </g>
     <g id="line2d_38">
      <g>
       <use style="stroke:#000000;stroke-width:0.5;" x="148.098937669" xlink:href="#m64e4704a39" y="7.2"/>
      </g>
     </g>
    </g>
    <g id="xtick_15">
     <g id="line2d_39">
      <g>
       <use style="stroke:#000000;stroke-width:0.5;" x="195.099101105" xlink:href="#m310b55391a" y="352.8"/>
      </g>
     </g>
     <g id="line2d_40">
      <g>
       <use style="stroke:#000000;stroke-width:0.5;" x="195.099101105" xlink:href="#m64e4704a39" y="7.2"/>
      </g>
     </g>
    </g>
    <g id="xtick_16">
     <g id="line2d_41">
      <g>
       <use style="stroke:#000000;stroke-width:0.5;" x="242.09926454" xlink:href="#m310b55391a" y="352.8"/>
      </g>
     </g>
     <g id="line2d_42">
      <g>
       <use style="stroke:#000000;stroke-width:0.5;" x="242.09926454" xlink:href="#m64e4704a39" y="7.2"/>
      </g>
     </g>
    </g>
    <g id="xtick_17">
     <g id="line2d_43">
      <g>
       <use style="stroke:#000000;stroke-width:0.5;" x="289.099427976" xlink:href="#m310b55391a" y="352.8"/>
      </g>
     </g>
     <g id="line2d_44">
      <g>
       <use style="stroke:#000000;stroke-width:0.5;" x="289.099427976" xlink:href="#m64e4704a39" y="7.2"/>
      </g>
     </g>
    </g>
    <g id="xtick_18">
     <g id="line2d_45">
      <g>
       <use style="stroke:#000000;stroke-width:0.5;" x="336.099591411" xlink:href="#m310b55391a" y="352.8"/>
      </g>
     </g>
     <g id="line2d_46">
      <g>
       <use style="stroke:#000000;stroke-width:0.5;" x="336.099591411" xlink:href="#m64e4704a39" y="7.2"/>
      </g>
     </g>
    </g>
    <g id="xtick_19">
     <g id="line2d_47">
      <g>
       <use style="stroke:#000000;stroke-width:0.5;" x="383.099754847" xlink:href="#m310b55391a" y="352.8"/>
      </g>
     </g>
     <g id="line2d_48">
      <g>
       <use style="stroke:#000000;stroke-width:0.5;" x="383.099754847" xlink:href="#m64e4704a39" y="7.2"/>
      </g>
     </g>
    </g>
    <g id="xtick_20">
     <g id="line2d_49">
      <g>
       <use style="stroke:#000000;stroke-width:0.5;" x="430.099918282" xlink:href="#m310b55391a" y="352.8"/>
      </g>
     </g>
     <g id="line2d_50">
      <g>
       <use style="stroke:#000000;stroke-width:0.5;" x="430.099918282" xlink:href="#m64e4704a39" y="7.2"/>
      </g>
     </g>
    </g>
    <g id="text_10">
     <!-- log10 of Df -->
     <defs>
      <path id="BitstreamVeraSans-Roman-20"/>
      <path d="M 30.609375 48.390625 
Q 23.390625 48.390625 19.1875 42.75 
Q 14.984375 37.109375 14.984375 27.296875 
Q 14.984375 17.484375 19.15625 11.84375 
Q 23.34375 6.203125 30.609375 6.203125 
Q 37.796875 6.203125 41.984375 11.859375 
Q 46.1875 17.53125 46.1875 27.296875 
Q 46.1875 37.015625 41.984375 42.703125 
Q 37.796875 48.390625 30.609375 48.390625 
M 30.609375 56 
Q 42.328125 56 49.015625 48.375 
Q 55.71875 40.765625 55.71875 27.296875 
Q 55.71875 13.875 49.015625 6.21875 
Q 42.328125 -1.421875 30.609375 -1.421875 
Q 18.84375 -1.421875 12.171875 6.21875 
Q 5.515625 13.875 5.515625 27.296875 
Q 5.515625 40.765625 12.171875 48.375 
Q 18.84375 56 30.609375 56 
" id="BitstreamVeraSans-Roman-6f"/>
      <path d="M 9.421875 75.984375 
L 18.40625 75.984375 
L 18.40625 0 
L 9.421875 0 
z
" id="BitstreamVeraSans-Roman-6c"/>
      <path d="M 19.671875 64.796875 
L 19.671875 8.109375 
L 31.59375 8.109375 
Q 46.6875 8.109375 53.6875 14.9375 
Q 60.6875 21.78125 60.6875 36.53125 
Q 60.6875 51.171875 53.6875 57.984375 
Q 46.6875 64.796875 31.59375 64.796875 
z
M 9.8125 72.90625 
L 30.078125 72.90625 
Q 51.265625 72.90625 61.171875 64.09375 
Q 71.09375 55.28125 71.09375 36.53125 
Q 71.09375 17.671875 61.125 8.828125 
Q 51.171875 0 30.078125 0 
L 9.8125 0 
z
" id="BitstreamVeraSans-Roman-44"/>
      <path d="M 45.40625 27.984375 
Q 45.40625 37.75 41.375 43.109375 
Q 37.359375 48.484375 30.078125 48.484375 
Q 22.859375 48.484375 18.828125 43.109375 
Q 14.796875 37.75 14.796875 27.984375 
Q 14.796875 18.265625 18.828125 12.890625 
Q 22.859375 7.515625 30.078125 7.515625 
Q 37.359375 7.515625 41.375 12.890625 
Q 45.40625 18.265625 45.40625 27.984375 
M 54.390625 6.78125 
Q 54.390625 -7.171875 48.1875 -13.984375 
Q 42 -20.796875 29.203125 -20.796875 
Q 24.46875 -20.796875 20.265625 -20.09375 
Q 16.0625 -19.390625 12.109375 -17.921875 
L 12.109375 -9.1875 
Q 16.0625 -11.328125 19.921875 -12.34375 
Q 23.78125 -13.375 27.78125 -13.375 
Q 36.625 -13.375 41.015625 -8.765625 
Q 45.40625 -4.15625 45.40625 5.171875 
L 45.40625 9.625 
Q 42.625 4.78125 38.28125 2.390625 
Q 33.9375 0 27.875 0 
Q 17.828125 0 11.671875 7.65625 
Q 5.515625 15.328125 5.515625 27.984375 
Q 5.515625 40.671875 11.671875 48.328125 
Q 17.828125 56 27.875 56 
Q 33.9375 56 38.28125 53.609375 
Q 42.625 51.21875 45.40625 46.390625 
L 45.40625 54.6875 
L 54.390625 54.6875 
z
" id="BitstreamVeraSans-Roman-67"/>
      <path d="M 37.109375 75.984375 
L 37.109375 68.5 
L 28.515625 68.5 
Q 23.6875 68.5 21.796875 66.546875 
Q 19.921875 64.59375 19.921875 59.515625 
L 19.921875 54.6875 
L 34.71875 54.6875 
L 34.71875 47.703125 
L 19.921875 47.703125 
L 19.921875 0 
L 10.890625 0 
L 10.890625 47.703125 
L 2.296875 47.703125 
L 2.296875 54.6875 
L 10.890625 54.6875 
L 10.890625 58.5 
Q 10.890625 67.625 15.140625 71.796875 
Q 19.390625 75.984375 28.609375 75.984375 
z
" id="BitstreamVeraSans-Roman-66"/>
     </defs>
     <g transform="translate(175.2140625 396.353125)scale(0.2 -0.2)">
      <use xlink:href="#BitstreamVeraSans-Roman-6c"/>
      <use x="27.783203125" xlink:href="#BitstreamVeraSans-Roman-6f"/>
      <use x="88.96484375" xlink:href="#BitstreamVeraSans-Roman-67"/>
      <use x="152.44140625" xlink:href="#BitstreamVeraSans-Roman-31"/>
      <use x="216.064453125" xlink:href="#BitstreamVeraSans-Roman-30"/>
      <use x="279.6875" xlink:href="#BitstreamVeraSans-Roman-20"/>
      <use x="311.474609375" xlink:href="#BitstreamVeraSans-Roman-6f"/>
      <use x="372.65625" xlink:href="#BitstreamVeraSans-Roman-66"/>
      <use x="407.861328125" xlink:href="#BitstreamVeraSans-Roman-20"/>
      <use x="439.6484375" xlink:href="#BitstreamVeraSans-Roman-44"/>
      <use x="516.650390625" xlink:href="#BitstreamVeraSans-Roman-66"/>
     </g>
    </g>
   </g>
   <g id="matplotlib.axis_2">
    <g id="ytick_1">
     <g id="line2d_51">
      <path clip-path="url(#p6bb69c003d)" d="M 7.2 352.8 
L 453.6 352.8 
" style="fill:none;stroke:#000000;stroke-dasharray:1.000000,3.000000;stroke-dashoffset:0.0;stroke-width:0.5;"/>
     </g>
     <g id="line2d_52">
      <defs>
       <path d="M 0 0 
L 4 0 
" id="m361e6d61e2" style="stroke:#000000;stroke-width:0.5;"/>
      </defs>
      <g>
       <use style="stroke:#000000;stroke-width:0.5;" x="7.2" xlink:href="#m361e6d61e2" y="352.8"/>
      </g>
     </g>
     <g id="line2d_53">
      <defs>
       <path d="M 0 0 
L -4 0 
" id="m78f6c1c0c5" style="stroke:#000000;stroke-width:0.5;"/>
      </defs>
      <g>
       <use style="stroke:#000000;stroke-width:0.5;" x="453.6" xlink:href="#m78f6c1c0c5" y="352.8"/>
      </g>
     </g>
    </g>
    <g id="ytick_2">
     <g id="line2d_54">
      <path clip-path="url(#p6bb69c003d)" d="M 7.2 284.364356 
L 453.6 284.364356 
" style="fill:none;stroke:#000000;stroke-dasharray:1.000000,3.000000;stroke-dashoffset:0.0;stroke-width:0.5;"/>
     </g>
     <g id="line2d_55">
      <g>
       <use style="stroke:#000000;stroke-width:0.5;" x="7.2" xlink:href="#m361e6d61e2" y="284.364356436"/>
      </g>
     </g>
     <g id="line2d_56">
      <g>
       <use style="stroke:#000000;stroke-width:0.5;" x="453.6" xlink:href="#m78f6c1c0c5" y="284.364356436"/>
      </g>
     </g>
    </g>
    <g id="ytick_3">
     <g id="line2d_57">
      <path clip-path="url(#p6bb69c003d)" d="M 7.2 215.928713 
L 453.6 215.928713 
" style="fill:none;stroke:#000000;stroke-dasharray:1.000000,3.000000;stroke-dashoffset:0.0;stroke-width:0.5;"/>
     </g>
     <g id="line2d_58">
      <g>
       <use style="stroke:#000000;stroke-width:0.5;" x="7.2" xlink:href="#m361e6d61e2" y="215.928712871"/>
      </g>
     </g>
     <g id="line2d_59">
      <g>
       <use style="stroke:#000000;stroke-width:0.5;" x="453.6" xlink:href="#m78f6c1c0c5" y="215.928712871"/>
      </g>
     </g>
    </g>
    <g id="ytick_4">
     <g id="line2d_60">
      <path clip-path="url(#p6bb69c003d)" d="M 7.2 147.493069 
L 453.6 147.493069 
" style="fill:none;stroke:#000000;stroke-dasharray:1.000000,3.000000;stroke-dashoffset:0.0;stroke-width:0.5;"/>
     </g>
     <g id="line2d_61">
      <g>
       <use style="stroke:#000000;stroke-width:0.5;" x="7.2" xlink:href="#m361e6d61e2" y="147.493069307"/>
      </g>
     </g>
     <g id="line2d_62">
      <g>
       <use style="stroke:#000000;stroke-width:0.5;" x="453.6" xlink:href="#m78f6c1c0c5" y="147.493069307"/>
      </g>
     </g>
    </g>
    <g id="ytick_5">
     <g id="line2d_63">
      <path clip-path="url(#p6bb69c003d)" d="M 7.2 79.057426 
L 453.6 79.057426 
" style="fill:none;stroke:#000000;stroke-dasharray:1.000000,3.000000;stroke-dashoffset:0.0;stroke-width:0.5;"/>
     </g>
     <g id="line2d_64">
      <g>
       <use style="stroke:#000000;stroke-width:0.5;" x="7.2" xlink:href="#m361e6d61e2" y="79.0574257426"/>
      </g>
     </g>
     <g id="line2d_65">
      <g>
       <use style="stroke:#000000;stroke-width:0.5;" x="453.6" xlink:href="#m78f6c1c0c5" y="79.0574257426"/>
      </g>
     </g>
    </g>
    <g id="ytick_6">
     <g id="line2d_66">
      <path clip-path="url(#p6bb69c003d)" d="M 7.2 10.621782 
L 453.6 10.621782 
" style="fill:none;stroke:#000000;stroke-dasharray:1.000000,3.000000;stroke-dashoffset:0.0;stroke-width:0.5;"/>
     </g>
     <g id="line2d_67">
      <g>
       <use style="stroke:#000000;stroke-width:0.5;" x="7.2" xlink:href="#m361e6d61e2" y="10.6217821782"/>
      </g>
     </g>
     <g id="line2d_68">
      <g>
       <use style="stroke:#000000;stroke-width:0.5;" x="453.6" xlink:href="#m78f6c1c0c5" y="10.6217821782"/>
      </g>
     </g>
    </g>
   </g>
   <g id="text_11">
    <!-- {f20-f24}, 5-D -->
    <defs>
     <path d="M 12.5 -9.28125 
L 15.921875 -9.28125 
Q 22.75 -9.28125 24.828125 -7.171875 
Q 26.90625 -5.078125 26.90625 1.90625 
L 26.90625 14.015625 
Q 26.90625 21.625 29.09375 25.09375 
Q 31.296875 28.5625 36.71875 29.890625 
Q 31.296875 31.109375 29.09375 34.5625 
Q 26.90625 38.03125 26.90625 45.703125 
L 26.90625 57.8125 
Q 26.90625 64.75 24.828125 66.875 
Q 22.75 69 15.921875 69 
L 12.5 69 
L 12.5 75.984375 
L 15.578125 75.984375 
Q 27.734375 75.984375 31.8125 72.390625 
Q 35.890625 68.796875 35.890625 58.015625 
L 35.890625 46.296875 
Q 35.890625 39.015625 38.515625 36.203125 
Q 41.15625 33.40625 48.09375 33.40625 
L 51.125 33.40625 
L 51.125 26.421875 
L 48.09375 26.421875 
Q 41.15625 26.421875 38.515625 23.578125 
Q 35.890625 20.75 35.890625 13.375 
L 35.890625 1.703125 
Q 35.890625 -9.078125 31.8125 -12.6875 
Q 27.734375 -16.3125 15.578125 -16.3125 
L 12.5 -16.3125 
z
" id="BitstreamVeraSans-Roman-7d"/>
     <path d="M 51.125 -9.28125 
L 51.125 -16.3125 
L 48.09375 -16.3125 
Q 35.9375 -16.3125 31.8125 -12.6875 
Q 27.6875 -9.078125 27.6875 1.703125 
L 27.6875 13.375 
Q 27.6875 20.75 25.046875 23.578125 
Q 22.40625 26.421875 15.484375 26.421875 
L 12.5 26.421875 
L 12.5 33.40625 
L 15.484375 33.40625 
Q 22.46875 33.40625 25.078125 36.203125 
Q 27.6875 39.015625 27.6875 46.296875 
L 27.6875 58.015625 
Q 27.6875 68.796875 31.8125 72.390625 
Q 35.9375 75.984375 48.09375 75.984375 
L 51.125 75.984375 
L 51.125 69 
L 47.796875 69 
Q 40.921875 69 38.8125 66.84375 
Q 36.71875 64.703125 36.71875 57.8125 
L 36.71875 45.703125 
Q 36.71875 38.03125 34.5 34.5625 
Q 32.28125 31.109375 26.90625 29.890625 
Q 32.328125 28.5625 34.515625 25.09375 
Q 36.71875 21.625 36.71875 14.015625 
L 36.71875 1.90625 
Q 36.71875 -4.984375 38.8125 -7.125 
Q 40.921875 -9.28125 47.796875 -9.28125 
z
" id="BitstreamVeraSans-Roman-7b"/>
     <path d="M 11.71875 12.40625 
L 22.015625 12.40625 
L 22.015625 4 
L 14.015625 -11.625 
L 7.71875 -11.625 
L 11.71875 4 
z
" id="BitstreamVeraSans-Roman-2c"/>
     <path d="M 10.796875 72.90625 
L 49.515625 72.90625 
L 49.515625 64.59375 
L 19.828125 64.59375 
L 19.828125 46.734375 
Q 21.96875 47.46875 24.109375 47.828125 
Q 26.265625 48.1875 28.421875 48.1875 
Q 40.625 48.1875 47.75 41.5 
Q 54.890625 34.8125 54.890625 23.390625 
Q 54.890625 11.625 47.5625 5.09375 
Q 40.234375 -1.421875 26.90625 -1.421875 
Q 22.3125 -1.421875 17.546875 -0.640625 
Q 12.796875 0.140625 7.71875 1.703125 
L 7.71875 11.625 
Q 12.109375 9.234375 16.796875 8.0625 
Q 21.484375 6.890625 26.703125 6.890625 
Q 35.15625 6.890625 40.078125 11.328125 
Q 45.015625 15.765625 45.015625 23.390625 
Q 45.015625 31 40.078125 35.4375 
Q 35.15625 39.890625 26.703125 39.890625 
Q 22.75 39.890625 18.8125 39.015625 
Q 14.890625 38.140625 10.796875 36.28125 
z
" id="BitstreamVeraSans-Roman-35"/>
    </defs>
    <g transform="translate(298.972 345.888)scale(0.2 -0.2)">
     <use xlink:href="#BitstreamVeraSans-Roman-7b"/>
     <use x="63.623046875" xlink:href="#BitstreamVeraSans-Roman-66"/>
     <use x="98.828125" xlink:href="#BitstreamVeraSans-Roman-32"/>
     <use x="162.451171875" xlink:href="#BitstreamVeraSans-Roman-30"/>
     <use x="226.07421875" xlink:href="#BitstreamVeraSans-Roman-2d"/>
     <use x="262.158203125" xlink:href="#BitstreamVeraSans-Roman-66"/>
     <use x="297.36328125" xlink:href="#BitstreamVeraSans-Roman-32"/>
     <use x="360.986328125" xlink:href="#BitstreamVeraSans-Roman-34"/>
     <use x="424.609375" xlink:href="#BitstreamVeraSans-Roman-7d"/>
     <use x="488.232421875" xlink:href="#BitstreamVeraSans-Roman-2c"/>
     <use x="520.01953125" xlink:href="#BitstreamVeraSans-Roman-20"/>
     <use x="551.806640625" xlink:href="#BitstreamVeraSans-Roman-35"/>
     <use x="615.4296875" xlink:href="#BitstreamVeraSans-Roman-2d"/>
     <use x="651.513671875" xlink:href="#BitstreamVeraSans-Roman-44"/>
    </g>
   </g>
   <g id="text_12">
    <!-- 0.0.0 -->
    <defs>
     <path d="M 10.6875 12.40625 
L 21 12.40625 
L 21 0 
L 10.6875 0 
z
" id="BitstreamVeraSans-Roman-2e"/>
    </defs>
    <g style="fill:#808080;" transform="translate(217.678125 347.2643125)scale(0.1 -0.1)">
     <use xlink:href="#BitstreamVeraSans-Roman-30"/>
     <use x="63.623046875" xlink:href="#BitstreamVeraSans-Roman-2e"/>
     <use x="95.41015625" xlink:href="#BitstreamVeraSans-Roman-30"/>
     <use x="159.033203125" xlink:href="#BitstreamVeraSans-Roman-2e"/>
     <use x="190.8203125" xlink:href="#BitstreamVeraSans-Roman-30"/>
    </g>
   </g>
  </g>
 </g>
 <defs>
  <clipPath id="p6bb69c003d">
   <rect height="345.6" width="446.4" x="7.2" y="7.2"/>
  </clipPath>
 </defs>
</svg>
