<?xml version="1.0" encoding="utf-8" standalone="no"?>
<!DOCTYPE svg PUBLIC "-//W3C//DTD SVG 1.1//EN"
  "http://www.w3.org/Graphics/SVG/1.1/DTD/svg11.dtd">
<!-- Created with matplotlib (http://matplotlib.org/) -->
<svg height="413pt" version="1.1" viewBox="0 0 520 413" width="520pt" xmlns="http://www.w3.org/2000/svg" xmlns:xlink="http://www.w3.org/1999/xlink">
 <defs>
  <style type="text/css">
*{stroke-linecap:butt;stroke-linejoin:round;stroke-miterlimit:100000;}
  </style>
 </defs>
 <g id="figure_1">
  <g id="patch_1">
   <path d="M 0 413.968843 
L 520.9625 413.968843 
L 520.9625 0 
L 0 0 
z
" style="fill:#ffffff;"/>
  </g>
  <g id="axes_1">
   <g id="patch_2">
    <path d="M 67.3625 359.056343 
L 513.7625 359.056343 
L 513.7625 13.456343 
L 67.3625 13.456343 
z
" style="fill:#ffffff;"/>
   </g>
   <g id="line2d_1">
    <path clip-path="url(#pe09d653632)" d="M 356.878765 359.056343 
L 356.878765 354.493967 
L 356.878765 354.493967 
L 356.878765 349.93159 
L 356.878765 349.93159 
L 356.878765 345.369214 
L 356.878765 345.369214 
L 356.878765 340.806838 
L 356.878765 340.806838 
L 356.878765 336.244462 
L 356.878765 336.244462 
L 356.878765 331.682085 
L 356.878765 331.682085 
L 356.878765 327.119709 
L 356.878765 327.119709 
L 356.878765 322.557333 
L 356.878765 322.557333 
L 356.878765 317.994957 
L 356.878765 317.994957 
L 356.878765 313.43258 
L 356.878765 313.43258 
L 356.878765 308.870204 
L 356.878765 308.870204 
L 356.878765 304.307828 
L 356.878765 304.307828 
L 356.878765 299.745452 
L 356.878765 299.745452 
L 356.878765 295.183075 
L 356.878765 295.183075 
L 356.878765 290.620699 
L 368.646141 290.620699 
L 368.646141 286.058323 
L 374.056474 286.058323 
L 374.056474 281.495947 
L 374.056474 281.495947 
L 374.056474 276.933571 
L 379.193899 276.933571 
L 379.193899 272.371194 
L 379.193899 272.371194 
L 379.193899 267.808818 
L 379.193899 267.808818 
L 379.193899 263.246442 
L 379.193899 263.246442 
L 379.193899 258.684066 
L 384.084631 258.684066 
L 384.084631 254.121689 
L 384.084631 254.121689 
L 384.084631 249.559313 
L 384.084631 249.559313 
L 384.084631 244.996937 
L 388.751279 244.996937 
L 388.751279 240.434561 
L 388.751279 240.434561 
L 388.751279 235.872184 
L 388.751279 235.872184 
L 388.751279 231.309808 
L 388.751279 231.309808 
L 388.751279 226.747432 
L 393.213481 226.747432 
L 393.213481 222.185056 
L 521.9625 222.185056 
" style="fill:none;stroke:#f5deb3;stroke-linecap:square;"/>
   </g>
   <g id="line2d_2">
    <path clip-path="url(#pe09d653632)" d="M 691.57749 359.056343 
" style="fill:none;stroke:#f5deb3;stroke-linecap:square;"/>
   </g>
   <g id="line2d_3">
    <path clip-path="url(#pe09d653632)" d="M 317.486192 359.056343 
L 317.486192 354.493967 
L 317.486192 354.493967 
L 317.486192 349.93159 
L 317.486192 349.93159 
L 317.486192 345.369214 
L 317.486192 345.369214 
L 317.486192 340.806838 
L 317.922469 340.806838 
L 317.922469 336.244462 
L 318.356886 336.244462 
L 318.356886 331.682085 
L 318.356886 331.682085 
L 318.356886 327.119709 
L 318.356886 327.119709 
L 318.356886 322.557333 
L 318.356886 322.557333 
L 318.356886 317.994957 
L 318.356886 317.994957 
L 318.356886 313.43258 
L 318.356886 313.43258 
L 318.356886 308.870204 
L 318.356886 308.870204 
L 318.356886 304.307828 
L 318.356886 304.307828 
L 318.356886 299.745452 
L 318.356886 299.745452 
L 318.356886 295.183075 
L 318.789459 295.183075 
L 318.789459 290.620699 
L 319.220202 290.620699 
L 319.220202 286.058323 
L 320.076264 286.058323 
L 320.076264 281.495947 
L 324.251876 281.495947 
L 324.251876 276.933571 
L 325.875347 276.933571 
L 325.875347 272.371194 
L 329.046675 272.371194 
L 329.046675 267.808818 
L 329.046675 267.808818 
L 329.046675 263.246442 
L 330.210924 263.246442 
L 330.210924 258.684066 
L 330.596068 258.684066 
L 330.596068 254.121689 
L 330.979762 254.121689 
L 330.979762 249.559313 
L 332.87685 249.559313 
L 332.87685 244.996937 
L 333.252065 244.996937 
L 333.252065 240.434561 
L 334.369488 240.434561 
L 334.369488 235.872184 
L 337.650043 235.872184 
L 337.650043 231.309808 
L 343.233395 231.309808 
L 343.233395 226.747432 
L 347.554822 226.747432 
L 347.554822 222.185056 
L 347.554822 222.185056 
L 347.554822 222.185056 
L 513.7625 222.185056 
" style="fill:none;stroke:#f5deb3;stroke-linecap:square;"/>
   </g>
   <g id="line2d_4">
    <path clip-path="url(#pe09d653632)" d="M 243.767415 359.056343 
L 243.767415 354.493967 
L 245.554665 354.493967 
L 245.554665 349.93159 
L 248.17809 349.93159 
L 248.17809 345.369214 
L 251.574093 345.369214 
L 251.574093 340.806838 
L 254.860529 340.806838 
L 254.860529 336.244462 
L 266.318737 336.244462 
L 266.318737 331.682085 
L 266.318737 331.682085 
L 266.318737 327.119709 
L 267.038674 327.119709 
L 267.038674 322.557333 
L 271.940614 322.557333 
L 271.940614 317.994957 
L 271.940614 317.994957 
L 271.940614 313.43258 
L 277.915199 313.43258 
L 277.915199 308.870204 
L 284.771471 308.870204 
L 284.771471 304.307828 
L 285.969963 304.307828 
L 285.969963 299.745452 
L 288.325459 299.745452 
L 288.325459 295.183075 
L 329.046675 295.183075 
L 329.046675 290.620699 
L 514.143801 290.620699 
L 514.143801 286.058323 
L 518.732787 286.058323 
L 518.732787 281.495947 
L 519.397623 281.495947 
L 519.397623 276.933571 
L 520.177785 276.933571 
L 520.177785 272.371194 
L 521.307381 272.371194 
L 521.307381 267.808818 
L 521.9625 267.808818 
" style="fill:none;stroke:#f5deb3;stroke-linecap:square;"/>
   </g>
   <g id="line2d_5">
    <path clip-path="url(#pe09d653632)" d="M 430.417654 359.056343 
L 430.417654 354.493967 
L 430.417654 354.493967 
L 430.417654 349.93159 
L 437.522931 349.93159 
L 437.522931 345.369214 
L 440.441301 345.369214 
L 440.441301 340.806838 
L 444.290777 340.806838 
L 444.290777 336.244462 
L 464.136224 336.244462 
L 464.136224 331.682085 
L 474.287369 331.682085 
L 474.287369 327.119709 
L 474.38113 327.119709 
L 474.38113 322.557333 
L 474.941887 322.557333 
L 474.941887 317.994957 
L 479.230851 317.994957 
L 479.230851 313.43258 
L 486.390179 313.43258 
L 486.390179 308.870204 
L 496.379283 308.870204 
L 496.379283 304.307828 
L 504.014979 304.307828 
L 504.014979 299.745452 
L 504.782765 299.745452 
L 504.782765 295.183075 
L 512.867209 295.183075 
L 512.867209 290.620699 
L 521.9625 290.620699 
" style="fill:none;stroke:#f5deb3;stroke-linecap:square;"/>
   </g>
   <g id="line2d_6"/>
   <g id="line2d_7">
    <path clip-path="url(#pe09d653632)" d="M 315.276329 359.056343 
L 315.276329 354.493967 
L 336.205045 354.493967 
L 336.205045 349.93159 
L 338.008113 349.93159 
L 338.008113 345.369214 
L 339.427936 345.369214 
L 339.427936 340.806838 
L 339.779821 340.806838 
L 339.779821 336.244462 
L 340.828242 336.244462 
L 340.828242 331.682085 
L 342.551983 331.682085 
L 342.551983 327.119709 
L 342.551983 327.119709 
L 342.551983 322.557333 
L 343.233395 322.557333 
L 343.233395 317.994957 
L 352.323431 317.994957 
L 352.323431 313.43258 
L 355.38284 313.43258 
L 355.38284 308.870204 
L 358.059888 308.870204 
L 358.059888 304.307828 
L 360.668383 304.307828 
L 360.668383 299.745452 
L 375.055214 299.745452 
L 375.055214 295.183075 
L 375.055214 295.183075 
L 375.055214 290.620699 
L 521.9625 290.620699 
" style="fill:none;stroke:#f5deb3;stroke-linecap:square;"/>
   </g>
   <g id="line2d_8">
    <path clip-path="url(#pe09d653632)" d="M 723.408525 359.056343 
" style="fill:none;stroke:#f5deb3;stroke-linecap:square;"/>
   </g>
   <g id="line2d_9">
    <path clip-path="url(#pe09d653632)" d="M 304.939567 359.056343 
L 304.939567 354.493967 
L 308.343677 354.493967 
L 308.343677 349.93159 
L 314.828545 349.93159 
L 314.828545 345.369214 
L 316.607991 345.369214 
L 316.607991 340.806838 
L 317.048038 340.806838 
L 317.048038 336.244462 
L 318.356886 336.244462 
L 318.356886 331.682085 
L 320.925191 331.682085 
L 320.925191 327.119709 
L 321.347016 327.119709 
L 321.347016 322.557333 
L 323.841933 322.557333 
L 323.841933 317.994957 
L 331.742842 317.994957 
L 331.742842 313.43258 
L 333.625903 313.43258 
L 333.625903 308.870204 
L 340.828242 308.870204 
L 340.828242 304.307828 
L 343.233395 304.307828 
L 343.233395 299.745452 
L 347.554822 299.745452 
L 347.554822 295.183075 
L 351.073468 295.183075 
L 351.073468 290.620699 
L 521.9625 290.620699 
" style="fill:none;stroke:#f5deb3;stroke-linecap:square;"/>
   </g>
   <g id="line2d_10">
    <path clip-path="url(#pe09d653632)" d="M 382.249073 359.056343 
L 382.249073 354.493967 
L 385.439915 354.493967 
L 385.439915 349.93159 
L 399.462702 349.93159 
L 399.462702 345.369214 
L 399.462702 345.369214 
L 399.462702 340.806838 
L 406.998164 340.806838 
L 406.998164 336.244462 
L 418.815051 336.244462 
L 418.815051 331.682085 
L 426.894398 331.682085 
L 426.894398 327.119709 
L 521.9625 327.119709 
" style="fill:none;stroke:#f5deb3;stroke-linecap:square;"/>
   </g>
   <g id="line2d_11">
    <path clip-path="url(#pe09d653632)" d="M 227.158458 359.056343 
L 227.158458 354.493967 
L 242.861892 354.493967 
L 242.861892 349.93159 
L 245.554665 349.93159 
L 245.554665 345.369214 
L 247.3111 345.369214 
L 247.3111 340.806838 
L 249.890242 340.806838 
L 249.890242 336.244462 
L 252.405695 336.244462 
L 252.405695 331.682085 
L 258.824868 331.682085 
L 258.824868 327.119709 
L 265.593675 327.119709 
L 265.593675 322.557333 
L 266.318737 322.557333 
L 266.318737 317.994957 
L 270.563962 317.994957 
L 270.563962 313.43258 
L 279.196608 313.43258 
L 279.196608 308.870204 
L 288.325459 308.870204 
L 288.325459 304.307828 
L 288.90592 304.307828 
L 288.90592 299.745452 
L 306.412422 299.745452 
L 306.412422 295.183075 
L 321.347016 295.183075 
L 321.347016 290.620699 
L 496.22814 290.620699 
L 496.22814 286.058323 
L 497.655028 286.058323 
L 497.655028 281.495947 
L 500.013934 281.495947 
L 500.013934 276.933571 
L 500.232306 276.933571 
L 500.232306 272.371194 
L 502.816901 272.371194 
L 502.816901 267.808818 
L 503.382458 267.808818 
L 503.382458 263.246442 
L 505.475765 263.246442 
L 505.475765 258.684066 
L 506.438113 258.684066 
L 506.438113 254.121689 
L 506.643153 254.121689 
L 506.643153 249.559313 
L 508.67117 249.559313 
L 508.67117 244.996937 
L 509.404775 244.996937 
L 509.404775 240.434561 
L 509.935008 240.434561 
L 509.935008 235.872184 
L 511.379075 235.872184 
L 511.379075 231.309808 
L 513.12381 231.309808 
L 513.12381 226.747432 
L 514.902147 226.747432 
L 514.902147 222.185056 
L 514.902147 222.185056 
" style="fill:none;stroke:#f5deb3;stroke-linecap:square;"/>
   </g>
   <g id="line2d_12">
    <path clip-path="url(#pe09d653632)" d="M 145.341224 359.056343 
L 145.341224 354.493967 
L 145.341224 354.493967 
L 145.341224 349.93159 
L 145.341224 349.93159 
L 145.341224 345.369214 
L 145.341224 345.369214 
L 145.341224 340.806838 
L 145.341224 340.806838 
L 145.341224 336.244462 
L 145.341224 336.244462 
L 145.341224 331.682085 
L 145.341224 331.682085 
L 145.341224 327.119709 
L 145.341224 327.119709 
L 145.341224 322.557333 
L 145.341224 322.557333 
L 145.341224 317.994957 
L 145.341224 317.994957 
L 145.341224 313.43258 
L 145.341224 313.43258 
L 145.341224 308.870204 
L 145.341224 308.870204 
L 145.341224 304.307828 
L 145.341224 304.307828 
L 145.341224 299.745452 
L 145.341224 299.745452 
L 145.341224 295.183075 
L 145.341224 295.183075 
L 145.341224 290.620699 
L 214.76111 290.620699 
L 214.76111 286.058323 
L 237.252915 286.058323 
L 237.252915 281.495947 
L 237.252915 281.495947 
L 237.252915 276.933571 
L 237.252915 276.933571 
L 237.252915 272.371194 
L 237.252915 272.371194 
L 237.252915 267.808818 
L 237.252915 267.808818 
L 237.252915 263.246442 
L 237.252915 263.246442 
L 237.252915 258.684066 
L 237.252915 258.684066 
L 237.252915 254.121689 
L 237.252915 254.121689 
L 237.252915 249.559313 
L 237.252915 249.559313 
L 237.252915 244.996937 
L 255.665835 244.996937 
L 255.665835 240.434561 
L 255.665835 240.434561 
L 255.665835 235.872184 
L 255.665835 235.872184 
L 255.665835 231.309808 
L 255.665835 231.309808 
L 255.665835 226.747432 
L 284.771471 226.747432 
L 284.771471 222.185056 
L 521.9625 222.185056 
" style="fill:none;stroke:#f5deb3;stroke-linecap:square;"/>
   </g>
   <g id="line2d_13">
    <path clip-path="url(#pe09d653632)" d="M 528.991861 359.056343 
" style="fill:none;stroke:#f5deb3;stroke-linecap:square;"/>
   </g>
   <g id="line2d_14">
    <path clip-path="url(#pe09d653632)" d="M 279.831318 359.056343 
L 279.831318 354.493967 
L 282.946872 354.493967 
L 282.946872 349.93159 
L 284.771471 349.93159 
L 284.771471 345.369214 
L 287.154519 345.369214 
L 287.154519 340.806838 
L 287.741671 340.806838 
L 287.741671 336.244462 
L 287.741671 336.244462 
L 287.741671 331.682085 
L 288.325459 331.682085 
L 288.325459 327.119709 
L 288.90592 327.119709 
L 288.90592 322.557333 
L 290.057014 322.557333 
L 290.057014 317.994957 
L 290.057014 317.994957 
L 290.057014 313.43258 
L 290.057014 313.43258 
L 290.057014 308.870204 
L 290.057014 308.870204 
L 290.057014 304.307828 
L 290.627719 304.307828 
L 290.627719 299.745452 
L 291.195245 299.745452 
L 291.195245 295.183075 
L 291.195245 295.183075 
L 291.195245 290.620699 
L 434.518485 290.620699 
L 434.518485 286.058323 
L 436.576548 286.058323 
L 436.576548 281.495947 
L 439.521766 281.495947 
L 439.521766 276.933571 
L 440.571988 276.933571 
L 440.571988 272.371194 
L 441.482135 272.371194 
L 441.482135 267.808818 
L 446.28586 267.808818 
L 446.28586 263.246442 
L 446.655627 263.246442 
L 446.655627 258.684066 
L 446.901395 258.684066 
L 446.901395 254.121689 
L 447.878579 254.121689 
L 447.878579 249.559313 
L 449.327002 249.559313 
L 449.327002 244.996937 
L 449.685912 244.996937 
L 449.685912 240.434561 
L 449.924485 240.434561 
L 449.924485 235.872184 
L 452.396339 235.872184 
L 452.396339 231.309808 
L 453.091704 231.309808 
L 453.091704 226.747432 
L 453.552658 226.747432 
L 453.552658 222.185056 
L 471.337148 222.185056 
L 471.337148 217.622679 
L 477.427784 217.622679 
L 477.427784 213.060303 
L 478.152845 213.060303 
L 478.152845 208.497927 
L 481.090342 208.497927 
L 481.090342 203.935551 
L 481.876992 203.935551 
L 481.876992 199.373175 
L 482.830276 199.373175 
L 482.830276 194.810798 
L 484.456134 194.810798 
L 484.456134 190.248422 
L 486.223451 190.248422 
L 486.223451 185.686046 
L 486.971587 185.686046 
L 486.971587 181.12367 
L 491.030716 181.12367 
L 491.030716 176.561293 
L 503.664064 176.561293 
L 503.664064 171.998917 
L 508.470175 171.998917 
L 508.470175 167.436541 
L 515.654889 167.436541 
L 515.654889 162.874165 
L 521.9625 162.874165 
" style="fill:none;stroke:#f5deb3;stroke-linecap:square;"/>
   </g>
   <g id="line2d_15"/>
   <g id="line2d_16">
    <path clip-path="url(#pe09d653632)" d="M 550.421413 359.056343 
" style="fill:none;stroke:#f5deb3;stroke-linecap:square;"/>
   </g>
   <g id="line2d_17">
    <path clip-path="url(#pe09d653632)" d="M 599.90434 359.056343 
" style="fill:none;stroke:#f5deb3;stroke-linecap:square;"/>
   </g>
   <g id="line2d_18">
    <path clip-path="url(#pe09d653632)" d="M 145.341224 359.056343 
L 145.341224 354.493967 
L 145.341224 354.493967 
L 145.341224 349.93159 
L 145.341224 349.93159 
L 145.341224 345.369214 
L 145.341224 345.369214 
L 145.341224 340.806838 
L 145.341224 340.806838 
L 145.341224 336.244462 
L 145.341224 336.244462 
L 145.341224 331.682085 
L 145.341224 331.682085 
L 145.341224 327.119709 
L 145.341224 327.119709 
L 145.341224 322.557333 
L 147.683182 322.557333 
L 147.683182 317.994957 
L 147.683182 317.994957 
L 147.683182 313.43258 
L 147.683182 313.43258 
L 147.683182 308.870204 
L 147.683182 308.870204 
L 147.683182 304.307828 
L 147.683182 304.307828 
L 147.683182 299.745452 
L 147.683182 299.745452 
L 147.683182 295.183075 
L 152.211512 295.183075 
L 152.211512 290.620699 
L 154.402364 290.620699 
L 154.402364 286.058323 
L 154.402364 286.058323 
L 154.402364 281.495947 
L 160.705653 281.495947 
L 160.705653 276.933571 
L 162.72296 276.933571 
L 162.72296 272.371194 
L 166.641546 272.371194 
L 166.641546 267.808818 
L 177.56672 267.808818 
L 177.56672 263.246442 
L 179.278873 263.246442 
L 179.278873 258.684066 
L 179.278873 258.684066 
L 179.278873 254.121689 
L 184.249159 254.121689 
L 184.249159 249.559313 
L 204.691618 249.559313 
L 204.691618 244.996937 
L 206.006097 244.996937 
L 206.006097 240.434561 
L 206.006097 240.434561 
L 206.006097 235.872184 
L 213.555526 235.872184 
L 213.555526 231.309808 
L 215.952593 231.309808 
L 215.952593 226.747432 
L 219.445644 226.747432 
L 219.445644 222.185056 
L 521.9625 222.185056 
" style="fill:none;stroke:#f5deb3;stroke-linecap:square;"/>
   </g>
   <g id="line2d_19">
    <path clip-path="url(#pe09d653632)" d="M 694.113 359.056343 
" style="fill:none;stroke:#f5deb3;stroke-linecap:square;"/>
   </g>
   <g id="line2d_20">
    <path clip-path="url(#pe09d653632)" d="M 275.302988 359.056343 
L 275.302988 354.493967 
L 288.325459 354.493967 
L 288.325459 349.93159 
L 289.483093 349.93159 
L 289.483093 345.369214 
L 297.237865 345.369214 
L 297.237865 340.806838 
L 312.099703 340.806838 
L 312.099703 336.244462 
L 317.922469 336.244462 
L 317.922469 331.682085 
L 320.501611 331.682085 
L 320.501611 327.119709 
L 321.767102 327.119709 
L 321.767102 322.557333 
L 333.252065 322.557333 
L 333.252065 317.994957 
L 338.008113 317.994957 
L 338.008113 313.43258 
L 341.175332 313.43258 
L 341.175332 308.870204 
L 345.914357 308.870204 
L 345.914357 304.307828 
L 350.442688 304.307828 
L 350.442688 299.745452 
L 357.471038 299.745452 
L 357.471038 295.183075 
L 374.806446 295.183075 
L 374.806446 290.620699 
L 512.545546 290.620699 
L 512.545546 286.058323 
L 514.902147 286.058323 
L 514.902147 281.495947 
L 519.337362 281.495947 
L 519.337362 276.933571 
L 520.356977 276.933571 
L 520.356977 272.371194 
L 521.9625 272.371194 
" style="fill:none;stroke:#f5deb3;stroke-linecap:square;"/>
   </g>
   <g id="line2d_21">
    <path clip-path="url(#pe09d653632)" d="M 657.531745 359.056343 
" style="fill:none;stroke:#f5deb3;stroke-linecap:square;"/>
   </g>
   <g id="line2d_22">
    <path clip-path="url(#pe09d653632)" d="M 323.430333 359.056343 
L 323.430333 354.493967 
L 330.979762 354.493967 
L 330.979762 349.93159 
L 341.175332 349.93159 
L 341.175332 345.369214 
L 347.228835 345.369214 
L 347.228835 340.806838 
L 354.474626 340.806838 
L 354.474626 336.244462 
L 361.239089 336.244462 
L 361.239089 331.682085 
L 361.523247 331.682085 
L 361.523247 327.119709 
L 362.932269 327.119709 
L 362.932269 322.557333 
L 365.420414 322.557333 
L 365.420414 317.994957 
L 366.236472 317.994957 
L 366.236472 313.43258 
L 373.553408 313.43258 
L 373.553408 308.870204 
L 374.056474 308.870204 
L 374.056474 304.307828 
L 375.797896 304.307828 
L 375.797896 299.745452 
L 384.538398 299.745452 
L 384.538398 295.183075 
L 418.491138 295.183075 
L 418.491138 290.620699 
L 521.011331 290.620699 
L 521.011331 286.058323 
L 521.9625 286.058323 
" style="fill:none;stroke:#f5deb3;stroke-linecap:square;"/>
   </g>
   <g id="line2d_23">
    <path clip-path="url(#pe09d653632)" d="M 427.192702 359.056343 
L 427.192702 354.493967 
L 444.54231 354.493967 
L 444.54231 349.93159 
L 448.24262 349.93159 
L 448.24262 345.369214 
L 450.043563 345.369214 
L 450.043563 340.806838 
L 453.091704 340.806838 
L 453.091704 336.244462 
L 457.94092 336.244462 
L 457.94092 331.682085 
L 461.83041 331.682085 
L 461.83041 327.119709 
L 484.540991 327.119709 
L 484.540991 322.557333 
L 521.9625 322.557333 
" style="fill:none;stroke:#f5deb3;stroke-linecap:square;"/>
   </g>
   <g id="line2d_24">
    <path clip-path="url(#pe09d653632)" d="M 538.010997 359.056343 
" style="fill:none;stroke:#f5deb3;stroke-linecap:square;"/>
   </g>
   <g id="line2d_25">
    <path clip-path="url(#pe09d653632)" d="M 438.460604 359.056343 
L 438.460604 354.493967 
L 444.667844 354.493967 
L 444.667844 349.93159 
L 445.914746 349.93159 
L 445.914746 345.369214 
L 447.878579 345.369214 
L 447.878579 340.806838 
L 470.950175 340.806838 
L 470.950175 336.244462 
L 473.534163 336.244462 
L 473.534163 331.682085 
L 474.099589 331.682085 
L 474.099589 327.119709 
L 481.353234 327.119709 
L 481.353234 322.557333 
L 495.240203 322.557333 
L 495.240203 317.994957 
L 504.643597 317.994957 
L 504.643597 313.43258 
L 506.779618 313.43258 
L 506.779618 308.870204 
L 516.649971 308.870204 
L 516.649971 304.307828 
L 518.24653 304.307828 
L 518.24653 299.745452 
L 521.9625 299.745452 
" style="fill:none;stroke:#f5deb3;stroke-linecap:square;"/>
   </g>
   <g id="line2d_26">
    <path clip-path="url(#pe09d653632)" d="M 515.153679 359.056343 
L 515.153679 354.493967 
L 516.773675 354.493967 
L 516.773675 349.93159 
L 521.9625 349.93159 
" style="fill:none;stroke:#f5deb3;stroke-linecap:square;"/>
   </g>
   <g id="line2d_27">
    <path clip-path="url(#pe09d653632)" d="M 671.859794 359.056343 
" style="fill:none;stroke:#f5deb3;stroke-linecap:square;"/>
   </g>
   <g id="line2d_28">
    <path clip-path="url(#pe09d653632)" d="M 369.699077 359.056343 
L 369.699077 354.493967 
L 369.960619 354.493967 
L 369.960619 349.93159 
L 370.221492 349.93159 
L 370.221492 345.369214 
L 370.481698 345.369214 
L 370.481698 340.806838 
L 380.379834 340.806838 
L 380.379834 336.244462 
L 380.379834 336.244462 
L 380.379834 331.682085 
L 380.379834 331.682085 
L 380.379834 327.119709 
L 380.379834 327.119709 
L 380.379834 322.557333 
L 380.615373 322.557333 
L 380.615373 317.994957 
L 390.046262 317.994957 
L 390.046262 313.43258 
L 390.046262 313.43258 
L 390.046262 308.870204 
L 390.687633 308.870204 
L 390.687633 304.307828 
L 399.853012 304.307828 
L 399.853012 299.745452 
L 407.17959 299.745452 
L 407.17959 295.183075 
L 422.155373 295.183075 
L 422.155373 290.620699 
L 521.9625 290.620699 
" style="fill:none;stroke:#f5deb3;stroke-linecap:square;"/>
   </g>
   <g id="line2d_29">
    <path clip-path="url(#pe09d653632)" d="M 137.973869 359.056343 
L 137.973869 354.493967 
L 137.973869 354.493967 
L 137.973869 349.93159 
L 137.973869 349.93159 
L 137.973869 345.369214 
L 137.973869 345.369214 
L 137.973869 340.806838 
L 137.973869 340.806838 
L 137.973869 336.244462 
L 137.973869 336.244462 
L 137.973869 331.682085 
L 140.489322 331.682085 
L 140.489322 327.119709 
L 140.489322 327.119709 
L 140.489322 322.557333 
L 140.489322 322.557333 
L 140.489322 317.994957 
L 140.489322 317.994957 
L 140.489322 313.43258 
L 140.489322 313.43258 
L 140.489322 308.870204 
L 140.489322 308.870204 
L 140.489322 304.307828 
L 140.489322 304.307828 
L 140.489322 299.745452 
L 140.489322 299.745452 
L 140.489322 295.183075 
L 140.489322 295.183075 
L 140.489322 290.620699 
L 188.988185 290.620699 
L 188.988185 286.058323 
L 188.988185 286.058323 
L 188.988185 281.495947 
L 188.988185 281.495947 
L 188.988185 276.933571 
L 359.227473 276.933571 
L 359.227473 272.371194 
L 359.227473 272.371194 
L 359.227473 267.808818 
L 359.227473 267.808818 
L 359.227473 263.246442 
L 360.668383 263.246442 
L 360.668383 258.684066 
L 360.668383 258.684066 
L 360.668383 254.121689 
L 360.668383 254.121689 
L 360.668383 249.559313 
L 361.806615 249.559313 
L 361.806615 244.996937 
L 361.806615 244.996937 
L 361.806615 240.434561 
L 361.806615 240.434561 
L 361.806615 235.872184 
L 362.370997 235.872184 
L 362.370997 231.309808 
L 362.370997 231.309808 
L 362.370997 226.747432 
L 362.370997 226.747432 
L 362.370997 222.185056 
L 362.370997 222.185056 
L 362.370997 222.185056 
L 513.7625 222.185056 
" style="fill:none;stroke:#f5deb3;stroke-linecap:square;"/>
   </g>
   <g id="line2d_30">
    <path clip-path="url(#pe09d653632)" d="M 362.089196 359.056343 
L 362.089196 354.493967 
L 362.089196 354.493967 
L 362.089196 349.93159 
L 363.490466 349.93159 
L 363.490466 345.369214 
L 365.965179 345.369214 
L 365.965179 340.806838 
L 367.046045 340.806838 
L 367.046045 336.244462 
L 367.046045 336.244462 
L 367.046045 331.682085 
L 368.646141 331.682085 
L 368.646141 327.119709 
L 369.173969 327.119709 
L 369.173969 322.557333 
L 369.436861 322.557333 
L 369.436861 317.994957 
L 369.699077 317.994957 
L 369.699077 313.43258 
L 370.481698 313.43258 
L 370.481698 308.870204 
L 372.02913 308.870204 
L 372.02913 304.307828 
L 373.30094 304.307828 
L 373.30094 299.745452 
L 373.553408 299.745452 
L 373.553408 295.183075 
L 375.797896 295.183075 
L 375.797896 290.620699 
L 376.290025 290.620699 
L 376.290025 286.058323 
L 377.023791 286.058323 
L 377.023791 281.495947 
L 378.715632 281.495947 
L 378.715632 276.933571 
L 379.432193 276.933571 
L 379.432193 272.371194 
L 380.379834 272.371194 
L 380.379834 267.808818 
L 382.017286 267.808818 
L 382.017286 263.246442 
L 382.711073 263.246442 
L 382.711073 258.684066 
L 384.990154 258.684066 
L 384.990154 254.121689 
L 387.439621 254.121689 
L 387.439621 249.559313 
L 388.097561 249.559313 
L 388.097561 244.996937 
L 388.533839 244.996937 
L 388.533839 240.434561 
L 390.260502 240.434561 
L 390.260502 235.872184 
L 391.53656 235.872184 
L 391.53656 231.309808 
L 391.958385 231.309808 
L 391.958385 226.747432 
L 414.521648 226.747432 
L 414.521648 222.185056 
L 422.311736 222.185056 
L 422.311736 217.622679 
L 422.311736 217.622679 
L 422.311736 213.060303 
L 422.311736 213.060303 
L 422.311736 208.497927 
L 422.311736 208.497927 
L 422.311736 203.935551 
L 422.311736 203.935551 
L 422.311736 199.373175 
L 422.311736 199.373175 
L 422.311736 194.810798 
L 422.311736 194.810798 
L 422.311736 190.248422 
L 422.311736 190.248422 
L 422.311736 185.686046 
L 422.311736 185.686046 
L 422.311736 181.12367 
L 422.311736 181.12367 
L 422.311736 176.561293 
L 422.311736 176.561293 
L 422.311736 171.998917 
L 422.311736 171.998917 
L 422.311736 167.436541 
L 422.311736 167.436541 
L 422.311736 162.874165 
L 422.311736 162.874165 
L 422.311736 158.311788 
L 422.311736 158.311788 
L 422.311736 153.749412 
L 422.311736 153.749412 
L 422.311736 153.749412 
L 513.7625 153.749412 
" style="fill:none;stroke:#f5deb3;stroke-linecap:square;"/>
   </g>
   <g id="line2d_31">
    <path clip-path="url(#pe09d653632)" d="M 448.846479 359.056343 
L 448.846479 354.493967 
L 452.976139 354.493967 
L 452.976139 349.93159 
L 455.488772 349.93159 
L 455.488772 345.369214 
L 455.93903 345.369214 
L 455.93903 340.806838 
L 456.163415 340.806838 
L 456.163415 336.244462 
L 463.199236 336.244462 
L 463.199236 331.682085 
L 463.928748 331.682085 
L 463.928748 327.119709 
L 464.961927 327.119709 
L 464.961927 322.557333 
L 465.269849 322.557333 
L 465.269849 317.994957 
L 467.499943 317.994957 
L 467.499943 313.43258 
L 469.190369 313.43258 
L 469.190369 308.870204 
L 470.074072 308.870204 
L 470.074072 304.307828 
L 473.250269 304.307828 
L 473.250269 299.745452 
L 480.562513 299.745452 
L 480.562513 295.183075 
L 481.964023 295.183075 
L 481.964023 290.620699 
L 486.05645 290.620699 
L 486.05645 286.058323 
L 486.722818 286.058323 
L 486.722818 281.495947 
L 487.549695 281.495947 
L 487.549695 276.933571 
L 488.533169 276.933571 
L 488.533169 272.371194 
L 493.157201 272.371194 
L 493.157201 267.808818 
L 493.933658 267.808818 
L 493.933658 263.246442 
L 494.857662 263.246442 
L 494.857662 258.684066 
L 496.303739 258.684066 
L 496.303739 254.121689 
L 500.377628 254.121689 
L 500.377628 249.559313 
L 501.173214 249.559313 
L 501.173214 244.996937 
L 503.664064 244.996937 
L 503.664064 240.434561 
L 506.438113 240.434561 
L 506.438113 235.872184 
L 506.574852 235.872184 
L 506.574852 231.309808 
L 509.670236 231.309808 
L 509.670236 226.747432 
L 509.670236 226.747432 
L 509.670236 226.747432 
L 513.7625 226.747432 
" style="fill:none;stroke:#000000;stroke-linecap:square;"/>
   </g>
   <g id="line2d_32"/>
   <g id="line2d_33">
    <path clip-path="url(#pe09d653632)" d="M 468.992945 359.056343 
L 468.992945 354.493967 
L 470.171789 354.493967 
L 470.171789 349.93159 
L 484.115998 349.93159 
L 484.115998 345.369214 
L 484.540991 345.369214 
L 484.540991 340.806838 
L 485.133018 340.806838 
L 485.133018 336.244462 
L 487.137096 336.244462 
L 487.137096 331.682085 
L 488.288189 331.682085 
L 488.288189 327.119709 
L 489.507238 327.119709 
L 489.507238 322.557333 
L 491.902427 322.557333 
L 491.902427 317.994957 
L 494.242591 317.994957 
L 494.242591 313.43258 
L 494.704242 313.43258 
L 494.704242 308.870204 
L 495.697365 308.870204 
L 495.697365 304.307828 
L 496.454771 304.307828 
L 496.454771 299.745452 
L 502.034098 299.745452 
L 502.034098 295.183075 
L 506.643153 295.183075 
L 506.643153 290.620699 
L 506.643153 290.620699 
L 506.643153 290.620699 
L 513.7625 290.620699 
" style="fill:none;stroke:#00bfbf;stroke-linecap:square;"/>
   </g>
   <g id="line2d_34"/>
   <g id="line2d_35">
    <path clip-path="url(#pe09d653632)" d="M 470.171789 359.056343 
L 470.171789 354.493967 
L 480.650675 354.493967 
L 480.650675 349.93159 
L 484.115998 349.93159 
L 484.115998 345.369214 
L 484.540991 345.369214 
L 484.540991 340.806838 
L 485.133018 340.806838 
L 485.133018 336.244462 
L 487.137096 336.244462 
L 487.137096 331.682085 
L 489.507238 331.682085 
L 489.507238 327.119709 
L 491.902427 327.119709 
L 491.902427 322.557333 
L 492.610138 322.557333 
L 492.610138 317.994957 
L 494.704242 317.994957 
L 494.704242 313.43258 
L 495.697365 313.43258 
L 495.697365 308.870204 
L 496.454771 308.870204 
L 496.454771 304.307828 
L 502.034098 304.307828 
L 502.034098 299.745452 
L 506.643153 299.745452 
L 506.643153 295.183075 
L 506.643153 295.183075 
L 506.643153 295.183075 
L 513.7625 295.183075 
" style="fill:none;stroke:#bf00bf;stroke-linecap:square;"/>
   </g>
   <g id="line2d_36"/>
   <g id="line2d_37">
    <path clip-path="url(#pe09d653632)" d="M 470.171789 359.056343 
L 470.171789 354.493967 
L 480.650675 354.493967 
L 480.650675 349.93159 
L 484.115998 349.93159 
L 484.115998 345.369214 
L 484.540991 345.369214 
L 484.540991 340.806838 
L 485.133018 340.806838 
L 485.133018 336.244462 
L 487.137096 336.244462 
L 487.137096 331.682085 
L 489.507238 331.682085 
L 489.507238 327.119709 
L 491.902427 327.119709 
L 491.902427 322.557333 
L 492.610138 322.557333 
L 492.610138 317.994957 
L 494.704242 317.994957 
L 494.704242 313.43258 
L 495.697365 313.43258 
L 495.697365 308.870204 
L 496.454771 308.870204 
L 496.454771 304.307828 
L 502.034098 304.307828 
L 502.034098 299.745452 
L 506.643153 299.745452 
L 506.643153 295.183075 
L 506.643153 295.183075 
L 506.643153 295.183075 
L 513.7625 295.183075 
" style="fill:none;stroke:#ff0000;stroke-linecap:square;stroke-width:3.0;"/>
   </g>
   <g id="line2d_38"/>
   <g id="line2d_39">
    <path clip-path="url(#pe09d653632)" d="M 513.7625 359.056343 
L 513.7625 13.456343 
" style="fill:none;stroke:#000000;stroke-linecap:square;"/>
   </g>
   <g id="patch_3">
    <path d="M 67.3625 13.456343 
L 513.7625 13.456343 
" style="fill:none;stroke:#000000;stroke-linecap:square;stroke-linejoin:miter;"/>
   </g>
   <g id="patch_4">
    <path d="M 513.7625 359.056343 
L 513.7625 13.456343 
" style="fill:none;stroke:#000000;stroke-linecap:square;stroke-linejoin:miter;"/>
   </g>
   <g id="patch_5">
    <path d="M 67.3625 359.056343 
L 513.7625 359.056343 
" style="fill:none;stroke:#000000;stroke-linecap:square;stroke-linejoin:miter;"/>
   </g>
   <g id="patch_6">
    <path d="M 67.3625 359.056343 
L 67.3625 13.456343 
" style="fill:none;stroke:#000000;stroke-linecap:square;stroke-linejoin:miter;"/>
   </g>
   <g id="matplotlib.axis_1">
    <g id="xtick_1">
     <g id="line2d_40">
      <path clip-path="url(#pe09d653632)" d="M 67.3625 359.056343 
L 67.3625 13.456343 
" style="fill:none;stroke:#000000;stroke-dasharray:1.000000,3.000000;stroke-dashoffset:0.0;stroke-width:0.5;"/>
     </g>
     <g id="line2d_41">
      <defs>
       <path d="M 0 0 
L 0 -4 
" id="m19a97c4d81" style="stroke:#000000;stroke-width:0.5;"/>
      </defs>
      <g>
       <use style="stroke:#000000;stroke-width:0.5;" x="67.3625" xlink:href="#m19a97c4d81" y="359.056342822"/>
      </g>
     </g>
     <g id="line2d_42">
      <defs>
       <path d="M 0 0 
L 0 4 
" id="m227579fc0e" style="stroke:#000000;stroke-width:0.5;"/>
      </defs>
      <g>
       <use style="stroke:#000000;stroke-width:0.5;" x="67.3625" xlink:href="#m227579fc0e" y="13.4563428218"/>
      </g>
     </g>
     <g id="text_1">
      <!-- 0 -->
      <defs>
       <path d="M 31.78125 66.40625 
Q 24.171875 66.40625 20.328125 58.90625 
Q 16.5 51.421875 16.5 36.375 
Q 16.5 21.390625 20.328125 13.890625 
Q 24.171875 6.390625 31.78125 6.390625 
Q 39.453125 6.390625 43.28125 13.890625 
Q 47.125 21.390625 47.125 36.375 
Q 47.125 51.421875 43.28125 58.90625 
Q 39.453125 66.40625 31.78125 66.40625 
M 31.78125 74.21875 
Q 44.046875 74.21875 50.515625 64.515625 
Q 56.984375 54.828125 56.984375 36.375 
Q 56.984375 17.96875 50.515625 8.265625 
Q 44.046875 -1.421875 31.78125 -1.421875 
Q 19.53125 -1.421875 13.0625 8.265625 
Q 6.59375 17.96875 6.59375 36.375 
Q 6.59375 54.828125 13.0625 64.515625 
Q 19.53125 74.21875 31.78125 74.21875 
" id="BitstreamVeraSans-Roman-30"/>
      </defs>
      <g transform="translate(61.0 378.253217822)scale(0.2 -0.2)">
       <use xlink:href="#BitstreamVeraSans-Roman-30"/>
      </g>
     </g>
    </g>
    <g id="xtick_2">
     <g id="line2d_43">
      <path clip-path="url(#pe09d653632)" d="M 301.928392 359.056343 
L 301.928392 13.456343 
" style="fill:none;stroke:#000000;stroke-dasharray:1.000000,3.000000;stroke-dashoffset:0.0;stroke-width:0.5;"/>
     </g>
     <g id="line2d_44">
      <g>
       <use style="stroke:#000000;stroke-width:0.5;" x="301.928391813" xlink:href="#m19a97c4d81" y="359.056342822"/>
      </g>
     </g>
     <g id="line2d_45">
      <g>
       <use style="stroke:#000000;stroke-width:0.5;" x="301.928391813" xlink:href="#m227579fc0e" y="13.4563428218"/>
      </g>
     </g>
     <g id="text_2">
      <!-- 1 -->
      <defs>
       <path d="M 12.40625 8.296875 
L 28.515625 8.296875 
L 28.515625 63.921875 
L 10.984375 60.40625 
L 10.984375 69.390625 
L 28.421875 72.90625 
L 38.28125 72.90625 
L 38.28125 8.296875 
L 54.390625 8.296875 
L 54.390625 0 
L 12.40625 0 
z
" id="BitstreamVeraSans-Roman-31"/>
      </defs>
      <g transform="translate(295.565891813 378.253217822)scale(0.2 -0.2)">
       <use xlink:href="#BitstreamVeraSans-Roman-31"/>
      </g>
     </g>
    </g>
    <g id="xtick_3">
     <g id="line2d_46">
      <defs>
       <path d="M 0 0 
L 0 -2 
" id="mbfa4d741ca" style="stroke:#000000;stroke-width:0.5;"/>
      </defs>
      <g>
       <use style="stroke:#000000;stroke-width:0.5;" x="137.973869396" xlink:href="#mbfa4d741ca" y="359.056342822"/>
      </g>
     </g>
     <g id="line2d_47">
      <defs>
       <path d="M 0 0 
L 0 2 
" id="mbf10f8e044" style="stroke:#000000;stroke-width:0.5;"/>
      </defs>
      <g>
       <use style="stroke:#000000;stroke-width:0.5;" x="137.973869396" xlink:href="#mbf10f8e044" y="13.4563428218"/>
      </g>
     </g>
    </g>
    <g id="xtick_4">
     <g id="line2d_48">
      <g>
       <use style="stroke:#000000;stroke-width:0.5;" x="179.278872616" xlink:href="#mbfa4d741ca" y="359.056342822"/>
      </g>
     </g>
     <g id="line2d_49">
      <g>
       <use style="stroke:#000000;stroke-width:0.5;" x="179.278872616" xlink:href="#mbf10f8e044" y="13.4563428218"/>
      </g>
     </g>
    </g>
    <g id="xtick_5">
     <g id="line2d_50">
      <g>
       <use style="stroke:#000000;stroke-width:0.5;" x="208.585238791" xlink:href="#mbfa4d741ca" y="359.056342822"/>
      </g>
     </g>
     <g id="line2d_51">
      <g>
       <use style="stroke:#000000;stroke-width:0.5;" x="208.585238791" xlink:href="#mbf10f8e044" y="13.4563428218"/>
      </g>
     </g>
    </g>
    <g id="xtick_6">
     <g id="line2d_52">
      <g>
       <use style="stroke:#000000;stroke-width:0.5;" x="231.317022418" xlink:href="#mbfa4d741ca" y="359.056342822"/>
      </g>
     </g>
     <g id="line2d_53">
      <g>
       <use style="stroke:#000000;stroke-width:0.5;" x="231.317022418" xlink:href="#mbf10f8e044" y="13.4563428218"/>
      </g>
     </g>
    </g>
    <g id="xtick_7">
     <g id="line2d_54">
      <g>
       <use style="stroke:#000000;stroke-width:0.5;" x="249.890242012" xlink:href="#mbfa4d741ca" y="359.056342822"/>
      </g>
     </g>
     <g id="line2d_55">
      <g>
       <use style="stroke:#000000;stroke-width:0.5;" x="249.890242012" xlink:href="#mbf10f8e044" y="13.4563428218"/>
      </g>
     </g>
    </g>
    <g id="xtick_8">
     <g id="line2d_56">
      <g>
       <use style="stroke:#000000;stroke-width:0.5;" x="265.593675426" xlink:href="#mbfa4d741ca" y="359.056342822"/>
      </g>
     </g>
     <g id="line2d_57">
      <g>
       <use style="stroke:#000000;stroke-width:0.5;" x="265.593675426" xlink:href="#mbf10f8e044" y="13.4563428218"/>
      </g>
     </g>
    </g>
    <g id="xtick_9">
     <g id="line2d_58">
      <g>
       <use style="stroke:#000000;stroke-width:0.5;" x="279.196608187" xlink:href="#mbfa4d741ca" y="359.056342822"/>
      </g>
     </g>
     <g id="line2d_59">
      <g>
       <use style="stroke:#000000;stroke-width:0.5;" x="279.196608187" xlink:href="#mbf10f8e044" y="13.4563428218"/>
      </g>
     </g>
    </g>
    <g id="xtick_10">
     <g id="line2d_60">
      <g>
       <use style="stroke:#000000;stroke-width:0.5;" x="291.195245233" xlink:href="#mbfa4d741ca" y="359.056342822"/>
      </g>
     </g>
     <g id="line2d_61">
      <g>
       <use style="stroke:#000000;stroke-width:0.5;" x="291.195245233" xlink:href="#mbf10f8e044" y="13.4563428218"/>
      </g>
     </g>
    </g>
    <g id="xtick_11">
     <g id="line2d_62">
      <g>
       <use style="stroke:#000000;stroke-width:0.5;" x="372.539761209" xlink:href="#mbfa4d741ca" y="359.056342822"/>
      </g>
     </g>
     <g id="line2d_63">
      <g>
       <use style="stroke:#000000;stroke-width:0.5;" x="372.539761209" xlink:href="#mbf10f8e044" y="13.4563428218"/>
      </g>
     </g>
    </g>
    <g id="xtick_12">
     <g id="line2d_64">
      <g>
       <use style="stroke:#000000;stroke-width:0.5;" x="413.84476443" xlink:href="#mbfa4d741ca" y="359.056342822"/>
      </g>
     </g>
     <g id="line2d_65">
      <g>
       <use style="stroke:#000000;stroke-width:0.5;" x="413.84476443" xlink:href="#mbf10f8e044" y="13.4563428218"/>
      </g>
     </g>
    </g>
    <g id="xtick_13">
     <g id="line2d_66">
      <g>
       <use style="stroke:#000000;stroke-width:0.5;" x="443.151130604" xlink:href="#mbfa4d741ca" y="359.056342822"/>
      </g>
     </g>
     <g id="line2d_67">
      <g>
       <use style="stroke:#000000;stroke-width:0.5;" x="443.151130604" xlink:href="#mbf10f8e044" y="13.4563428218"/>
      </g>
     </g>
    </g>
    <g id="xtick_14">
     <g id="line2d_68">
      <g>
       <use style="stroke:#000000;stroke-width:0.5;" x="465.882914231" xlink:href="#mbfa4d741ca" y="359.056342822"/>
      </g>
     </g>
     <g id="line2d_69">
      <g>
       <use style="stroke:#000000;stroke-width:0.5;" x="465.882914231" xlink:href="#mbf10f8e044" y="13.4563428218"/>
      </g>
     </g>
    </g>
    <g id="xtick_15">
     <g id="line2d_70">
      <g>
       <use style="stroke:#000000;stroke-width:0.5;" x="484.456133825" xlink:href="#mbfa4d741ca" y="359.056342822"/>
      </g>
     </g>
     <g id="line2d_71">
      <g>
       <use style="stroke:#000000;stroke-width:0.5;" x="484.456133825" xlink:href="#mbf10f8e044" y="13.4563428218"/>
      </g>
     </g>
    </g>
    <g id="xtick_16">
     <g id="line2d_72">
      <g>
       <use style="stroke:#000000;stroke-width:0.5;" x="500.159567239" xlink:href="#mbfa4d741ca" y="359.056342822"/>
      </g>
     </g>
     <g id="line2d_73">
      <g>
       <use style="stroke:#000000;stroke-width:0.5;" x="500.159567239" xlink:href="#mbf10f8e044" y="13.4563428218"/>
      </g>
     </g>
    </g>
    <g id="xtick_17">
     <g id="line2d_74">
      <g>
       <use style="stroke:#000000;stroke-width:0.5;" x="513.7625" xlink:href="#mbfa4d741ca" y="359.056342822"/>
      </g>
     </g>
     <g id="line2d_75">
      <g>
       <use style="stroke:#000000;stroke-width:0.5;" x="513.7625" xlink:href="#mbf10f8e044" y="13.4563428218"/>
      </g>
     </g>
    </g>
    <g id="text_3">
     <!-- log10 of FEvals / DIM -->
     <defs>
      <path id="BitstreamVeraSans-Roman-20"/>
      <path d="M 9.8125 72.90625 
L 24.515625 72.90625 
L 43.109375 23.296875 
L 61.8125 72.90625 
L 76.515625 72.90625 
L 76.515625 0 
L 66.890625 0 
L 66.890625 64.015625 
L 48.09375 14.015625 
L 38.1875 14.015625 
L 19.390625 64.015625 
L 19.390625 0 
L 9.8125 0 
z
" id="BitstreamVeraSans-Roman-4d"/>
      <path d="M 30.609375 48.390625 
Q 23.390625 48.390625 19.1875 42.75 
Q 14.984375 37.109375 14.984375 27.296875 
Q 14.984375 17.484375 19.15625 11.84375 
Q 23.34375 6.203125 30.609375 6.203125 
Q 37.796875 6.203125 41.984375 11.859375 
Q 46.1875 17.53125 46.1875 27.296875 
Q 46.1875 37.015625 41.984375 42.703125 
Q 37.796875 48.390625 30.609375 48.390625 
M 30.609375 56 
Q 42.328125 56 49.015625 48.375 
Q 55.71875 40.765625 55.71875 27.296875 
Q 55.71875 13.875 49.015625 6.21875 
Q 42.328125 -1.421875 30.609375 -1.421875 
Q 18.84375 -1.421875 12.171875 6.21875 
Q 5.515625 13.875 5.515625 27.296875 
Q 5.515625 40.765625 12.171875 48.375 
Q 18.84375 56 30.609375 56 
" id="BitstreamVeraSans-Roman-6f"/>
      <path d="M 9.421875 75.984375 
L 18.40625 75.984375 
L 18.40625 0 
L 9.421875 0 
z
" id="BitstreamVeraSans-Roman-6c"/>
      <path d="M 9.8125 72.90625 
L 51.703125 72.90625 
L 51.703125 64.59375 
L 19.671875 64.59375 
L 19.671875 43.109375 
L 48.578125 43.109375 
L 48.578125 34.8125 
L 19.671875 34.8125 
L 19.671875 0 
L 9.8125 0 
z
" id="BitstreamVeraSans-Roman-46"/>
      <path d="M 9.8125 72.90625 
L 55.90625 72.90625 
L 55.90625 64.59375 
L 19.671875 64.59375 
L 19.671875 43.015625 
L 54.390625 43.015625 
L 54.390625 34.71875 
L 19.671875 34.71875 
L 19.671875 8.296875 
L 56.78125 8.296875 
L 56.78125 0 
L 9.8125 0 
z
" id="BitstreamVeraSans-Roman-45"/>
      <path d="M 19.671875 64.796875 
L 19.671875 8.109375 
L 31.59375 8.109375 
Q 46.6875 8.109375 53.6875 14.9375 
Q 60.6875 21.78125 60.6875 36.53125 
Q 60.6875 51.171875 53.6875 57.984375 
Q 46.6875 64.796875 31.59375 64.796875 
z
M 9.8125 72.90625 
L 30.078125 72.90625 
Q 51.265625 72.90625 61.171875 64.09375 
Q 71.09375 55.28125 71.09375 36.53125 
Q 71.09375 17.671875 61.125 8.828125 
Q 51.171875 0 30.078125 0 
L 9.8125 0 
z
" id="BitstreamVeraSans-Roman-44"/>
      <path d="M 25.390625 72.90625 
L 33.6875 72.90625 
L 8.296875 -9.28125 
L 0 -9.28125 
z
" id="BitstreamVeraSans-Roman-2f"/>
      <path d="M 2.984375 54.6875 
L 12.5 54.6875 
L 29.59375 8.796875 
L 46.6875 54.6875 
L 56.203125 54.6875 
L 35.6875 0 
L 23.484375 0 
z
" id="BitstreamVeraSans-Roman-76"/>
      <path d="M 45.40625 27.984375 
Q 45.40625 37.75 41.375 43.109375 
Q 37.359375 48.484375 30.078125 48.484375 
Q 22.859375 48.484375 18.828125 43.109375 
Q 14.796875 37.75 14.796875 27.984375 
Q 14.796875 18.265625 18.828125 12.890625 
Q 22.859375 7.515625 30.078125 7.515625 
Q 37.359375 7.515625 41.375 12.890625 
Q 45.40625 18.265625 45.40625 27.984375 
M 54.390625 6.78125 
Q 54.390625 -7.171875 48.1875 -13.984375 
Q 42 -20.796875 29.203125 -20.796875 
Q 24.46875 -20.796875 20.265625 -20.09375 
Q 16.0625 -19.390625 12.109375 -17.921875 
L 12.109375 -9.1875 
Q 16.0625 -11.328125 19.921875 -12.34375 
Q 23.78125 -13.375 27.78125 -13.375 
Q 36.625 -13.375 41.015625 -8.765625 
Q 45.40625 -4.15625 45.40625 5.171875 
L 45.40625 9.625 
Q 42.625 4.78125 38.28125 2.390625 
Q 33.9375 0 27.875 0 
Q 17.828125 0 11.671875 7.65625 
Q 5.515625 15.328125 5.515625 27.984375 
Q 5.515625 40.671875 11.671875 48.328125 
Q 17.828125 56 27.875 56 
Q 33.9375 56 38.28125 53.609375 
Q 42.625 51.21875 45.40625 46.390625 
L 45.40625 54.6875 
L 54.390625 54.6875 
z
" id="BitstreamVeraSans-Roman-67"/>
      <path d="M 37.109375 75.984375 
L 37.109375 68.5 
L 28.515625 68.5 
Q 23.6875 68.5 21.796875 66.546875 
Q 19.921875 64.59375 19.921875 59.515625 
L 19.921875 54.6875 
L 34.71875 54.6875 
L 34.71875 47.703125 
L 19.921875 47.703125 
L 19.921875 0 
L 10.890625 0 
L 10.890625 47.703125 
L 2.296875 47.703125 
L 2.296875 54.6875 
L 10.890625 54.6875 
L 10.890625 58.5 
Q 10.890625 67.625 15.140625 71.796875 
Q 19.390625 75.984375 28.609375 75.984375 
z
" id="BitstreamVeraSans-Roman-66"/>
      <path d="M 34.28125 27.484375 
Q 23.390625 27.484375 19.1875 25 
Q 14.984375 22.515625 14.984375 16.5 
Q 14.984375 11.71875 18.140625 8.90625 
Q 21.296875 6.109375 26.703125 6.109375 
Q 34.1875 6.109375 38.703125 11.40625 
Q 43.21875 16.703125 43.21875 25.484375 
L 43.21875 27.484375 
z
M 52.203125 31.203125 
L 52.203125 0 
L 43.21875 0 
L 43.21875 8.296875 
Q 40.140625 3.328125 35.546875 0.953125 
Q 30.953125 -1.421875 24.3125 -1.421875 
Q 15.921875 -1.421875 10.953125 3.296875 
Q 6 8.015625 6 15.921875 
Q 6 25.140625 12.171875 29.828125 
Q 18.359375 34.515625 30.609375 34.515625 
L 43.21875 34.515625 
L 43.21875 35.40625 
Q 43.21875 41.609375 39.140625 45 
Q 35.0625 48.390625 27.6875 48.390625 
Q 23 48.390625 18.546875 47.265625 
Q 14.109375 46.140625 10.015625 43.890625 
L 10.015625 52.203125 
Q 14.9375 54.109375 19.578125 55.046875 
Q 24.21875 56 28.609375 56 
Q 40.484375 56 46.34375 49.84375 
Q 52.203125 43.703125 52.203125 31.203125 
" id="BitstreamVeraSans-Roman-61"/>
      <path d="M 44.28125 53.078125 
L 44.28125 44.578125 
Q 40.484375 46.53125 36.375 47.5 
Q 32.28125 48.484375 27.875 48.484375 
Q 21.1875 48.484375 17.84375 46.4375 
Q 14.5 44.390625 14.5 40.28125 
Q 14.5 37.15625 16.890625 35.375 
Q 19.28125 33.59375 26.515625 31.984375 
L 29.59375 31.296875 
Q 39.15625 29.25 43.1875 25.515625 
Q 47.21875 21.78125 47.21875 15.09375 
Q 47.21875 7.46875 41.1875 3.015625 
Q 35.15625 -1.421875 24.609375 -1.421875 
Q 20.21875 -1.421875 15.453125 -0.5625 
Q 10.6875 0.296875 5.421875 2 
L 5.421875 11.28125 
Q 10.40625 8.6875 15.234375 7.390625 
Q 20.0625 6.109375 24.8125 6.109375 
Q 31.15625 6.109375 34.5625 8.28125 
Q 37.984375 10.453125 37.984375 14.40625 
Q 37.984375 18.0625 35.515625 20.015625 
Q 33.0625 21.96875 24.703125 23.78125 
L 21.578125 24.515625 
Q 13.234375 26.265625 9.515625 29.90625 
Q 5.8125 33.546875 5.8125 39.890625 
Q 5.8125 47.609375 11.28125 51.796875 
Q 16.75 56 26.8125 56 
Q 31.78125 56 36.171875 55.265625 
Q 40.578125 54.546875 44.28125 53.078125 
" id="BitstreamVeraSans-Roman-73"/>
      <path d="M 9.8125 72.90625 
L 19.671875 72.90625 
L 19.671875 0 
L 9.8125 0 
z
" id="BitstreamVeraSans-Roman-49"/>
     </defs>
     <g transform="translate(185.4890625 402.609467822)scale(0.2 -0.2)">
      <use xlink:href="#BitstreamVeraSans-Roman-6c"/>
      <use x="27.783203125" xlink:href="#BitstreamVeraSans-Roman-6f"/>
      <use x="88.96484375" xlink:href="#BitstreamVeraSans-Roman-67"/>
      <use x="152.44140625" xlink:href="#BitstreamVeraSans-Roman-31"/>
      <use x="216.064453125" xlink:href="#BitstreamVeraSans-Roman-30"/>
      <use x="279.6875" xlink:href="#BitstreamVeraSans-Roman-20"/>
      <use x="311.474609375" xlink:href="#BitstreamVeraSans-Roman-6f"/>
      <use x="372.65625" xlink:href="#BitstreamVeraSans-Roman-66"/>
      <use x="407.861328125" xlink:href="#BitstreamVeraSans-Roman-20"/>
      <use x="439.6484375" xlink:href="#BitstreamVeraSans-Roman-46"/>
      <use x="497.16796875" xlink:href="#BitstreamVeraSans-Roman-45"/>
      <use x="560.3515625" xlink:href="#BitstreamVeraSans-Roman-76"/>
      <use x="619.53125" xlink:href="#BitstreamVeraSans-Roman-61"/>
      <use x="680.810546875" xlink:href="#BitstreamVeraSans-Roman-6c"/>
      <use x="708.59375" xlink:href="#BitstreamVeraSans-Roman-73"/>
      <use x="760.693359375" xlink:href="#BitstreamVeraSans-Roman-20"/>
      <use x="792.48046875" xlink:href="#BitstreamVeraSans-Roman-2f"/>
      <use x="826.171875" xlink:href="#BitstreamVeraSans-Roman-20"/>
      <use x="857.958984375" xlink:href="#BitstreamVeraSans-Roman-44"/>
      <use x="934.9609375" xlink:href="#BitstreamVeraSans-Roman-49"/>
      <use x="964.453125" xlink:href="#BitstreamVeraSans-Roman-4d"/>
     </g>
    </g>
   </g>
   <g id="matplotlib.axis_2">
    <g id="ytick_1">
     <g id="line2d_76">
      <path clip-path="url(#pe09d653632)" d="M 67.3625 359.056343 
L 513.7625 359.056343 
" style="fill:none;stroke:#000000;stroke-dasharray:1.000000,3.000000;stroke-dashoffset:0.0;stroke-width:0.5;"/>
     </g>
     <g id="line2d_77">
      <defs>
       <path d="M 0 0 
L 4 0 
" id="m06d2cb7d71" style="stroke:#000000;stroke-width:0.5;"/>
      </defs>
      <g>
       <use style="stroke:#000000;stroke-width:0.5;" x="67.3625" xlink:href="#m06d2cb7d71" y="359.056342822"/>
      </g>
     </g>
     <g id="line2d_78">
      <defs>
       <path d="M 0 0 
L -4 0 
" id="ma1dd789402" style="stroke:#000000;stroke-width:0.5;"/>
      </defs>
      <g>
       <use style="stroke:#000000;stroke-width:0.5;" x="513.7625" xlink:href="#ma1dd789402" y="359.056342822"/>
      </g>
     </g>
     <g id="text_4">
      <!-- 0.0 -->
      <defs>
       <path d="M 10.6875 12.40625 
L 21 12.40625 
L 21 0 
L 10.6875 0 
z
" id="BitstreamVeraSans-Roman-2e"/>
      </defs>
      <g transform="translate(31.55625 364.575092822)scale(0.2 -0.2)">
       <use xlink:href="#BitstreamVeraSans-Roman-30"/>
       <use x="63.623046875" xlink:href="#BitstreamVeraSans-Roman-2e"/>
       <use x="95.41015625" xlink:href="#BitstreamVeraSans-Roman-30"/>
      </g>
     </g>
    </g>
    <g id="ytick_2">
     <g id="line2d_79">
      <path clip-path="url(#pe09d653632)" d="M 67.3625 290.620699 
L 513.7625 290.620699 
" style="fill:none;stroke:#000000;stroke-dasharray:1.000000,3.000000;stroke-dashoffset:0.0;stroke-width:0.5;"/>
     </g>
     <g id="line2d_80">
      <g>
       <use style="stroke:#000000;stroke-width:0.5;" x="67.3625" xlink:href="#m06d2cb7d71" y="290.620699257"/>
      </g>
     </g>
     <g id="line2d_81">
      <g>
       <use style="stroke:#000000;stroke-width:0.5;" x="513.7625" xlink:href="#ma1dd789402" y="290.620699257"/>
      </g>
     </g>
     <g id="text_5">
      <!-- 0.2 -->
      <defs>
       <path d="M 19.1875 8.296875 
L 53.609375 8.296875 
L 53.609375 0 
L 7.328125 0 
L 7.328125 8.296875 
Q 12.9375 14.109375 22.625 23.890625 
Q 32.328125 33.6875 34.8125 36.53125 
Q 39.546875 41.84375 41.421875 45.53125 
Q 43.3125 49.21875 43.3125 52.78125 
Q 43.3125 58.59375 39.234375 62.25 
Q 35.15625 65.921875 28.609375 65.921875 
Q 23.96875 65.921875 18.8125 64.3125 
Q 13.671875 62.703125 7.8125 59.421875 
L 7.8125 69.390625 
Q 13.765625 71.78125 18.9375 73 
Q 24.125 74.21875 28.421875 74.21875 
Q 39.75 74.21875 46.484375 68.546875 
Q 53.21875 62.890625 53.21875 53.421875 
Q 53.21875 48.921875 51.53125 44.890625 
Q 49.859375 40.875 45.40625 35.40625 
Q 44.1875 33.984375 37.640625 27.21875 
Q 31.109375 20.453125 19.1875 8.296875 
" id="BitstreamVeraSans-Roman-32"/>
      </defs>
      <g transform="translate(31.55625 296.139449257)scale(0.2 -0.2)">
       <use xlink:href="#BitstreamVeraSans-Roman-30"/>
       <use x="63.623046875" xlink:href="#BitstreamVeraSans-Roman-2e"/>
       <use x="95.41015625" xlink:href="#BitstreamVeraSans-Roman-32"/>
      </g>
     </g>
    </g>
    <g id="ytick_3">
     <g id="line2d_82">
      <path clip-path="url(#pe09d653632)" d="M 67.3625 222.185056 
L 513.7625 222.185056 
" style="fill:none;stroke:#000000;stroke-dasharray:1.000000,3.000000;stroke-dashoffset:0.0;stroke-width:0.5;"/>
     </g>
     <g id="line2d_83">
      <g>
       <use style="stroke:#000000;stroke-width:0.5;" x="67.3625" xlink:href="#m06d2cb7d71" y="222.185055693"/>
      </g>
     </g>
     <g id="line2d_84">
      <g>
       <use style="stroke:#000000;stroke-width:0.5;" x="513.7625" xlink:href="#ma1dd789402" y="222.185055693"/>
      </g>
     </g>
     <g id="text_6">
      <!-- 0.4 -->
      <defs>
       <path d="M 37.796875 64.3125 
L 12.890625 25.390625 
L 37.796875 25.390625 
z
M 35.203125 72.90625 
L 47.609375 72.90625 
L 47.609375 25.390625 
L 58.015625 25.390625 
L 58.015625 17.1875 
L 47.609375 17.1875 
L 47.609375 0 
L 37.796875 0 
L 37.796875 17.1875 
L 4.890625 17.1875 
L 4.890625 26.703125 
z
" id="BitstreamVeraSans-Roman-34"/>
      </defs>
      <g transform="translate(31.55625 227.703805693)scale(0.2 -0.2)">
       <use xlink:href="#BitstreamVeraSans-Roman-30"/>
       <use x="63.623046875" xlink:href="#BitstreamVeraSans-Roman-2e"/>
       <use x="95.41015625" xlink:href="#BitstreamVeraSans-Roman-34"/>
      </g>
     </g>
    </g>
    <g id="ytick_4">
     <g id="line2d_85">
      <path clip-path="url(#pe09d653632)" d="M 67.3625 153.749412 
L 513.7625 153.749412 
" style="fill:none;stroke:#000000;stroke-dasharray:1.000000,3.000000;stroke-dashoffset:0.0;stroke-width:0.5;"/>
     </g>
     <g id="line2d_86">
      <g>
       <use style="stroke:#000000;stroke-width:0.5;" x="67.3625" xlink:href="#m06d2cb7d71" y="153.749412129"/>
      </g>
     </g>
     <g id="line2d_87">
      <g>
       <use style="stroke:#000000;stroke-width:0.5;" x="513.7625" xlink:href="#ma1dd789402" y="153.749412129"/>
      </g>
     </g>
     <g id="text_7">
      <!-- 0.6 -->
      <defs>
       <path d="M 33.015625 40.375 
Q 26.375 40.375 22.484375 35.828125 
Q 18.609375 31.296875 18.609375 23.390625 
Q 18.609375 15.53125 22.484375 10.953125 
Q 26.375 6.390625 33.015625 6.390625 
Q 39.65625 6.390625 43.53125 10.953125 
Q 47.40625 15.53125 47.40625 23.390625 
Q 47.40625 31.296875 43.53125 35.828125 
Q 39.65625 40.375 33.015625 40.375 
M 52.59375 71.296875 
L 52.59375 62.3125 
Q 48.875 64.0625 45.09375 64.984375 
Q 41.3125 65.921875 37.59375 65.921875 
Q 27.828125 65.921875 22.671875 59.328125 
Q 17.53125 52.734375 16.796875 39.40625 
Q 19.671875 43.65625 24.015625 45.921875 
Q 28.375 48.1875 33.59375 48.1875 
Q 44.578125 48.1875 50.953125 41.515625 
Q 57.328125 34.859375 57.328125 23.390625 
Q 57.328125 12.15625 50.6875 5.359375 
Q 44.046875 -1.421875 33.015625 -1.421875 
Q 20.359375 -1.421875 13.671875 8.265625 
Q 6.984375 17.96875 6.984375 36.375 
Q 6.984375 53.65625 15.1875 63.9375 
Q 23.390625 74.21875 37.203125 74.21875 
Q 40.921875 74.21875 44.703125 73.484375 
Q 48.484375 72.75 52.59375 71.296875 
" id="BitstreamVeraSans-Roman-36"/>
      </defs>
      <g transform="translate(31.55625 159.268162129)scale(0.2 -0.2)">
       <use xlink:href="#BitstreamVeraSans-Roman-30"/>
       <use x="63.623046875" xlink:href="#BitstreamVeraSans-Roman-2e"/>
       <use x="95.41015625" xlink:href="#BitstreamVeraSans-Roman-36"/>
      </g>
     </g>
    </g>
    <g id="ytick_5">
     <g id="line2d_88">
      <path clip-path="url(#pe09d653632)" d="M 67.3625 85.313769 
L 513.7625 85.313769 
" style="fill:none;stroke:#000000;stroke-dasharray:1.000000,3.000000;stroke-dashoffset:0.0;stroke-width:0.5;"/>
     </g>
     <g id="line2d_89">
      <g>
       <use style="stroke:#000000;stroke-width:0.5;" x="67.3625" xlink:href="#m06d2cb7d71" y="85.3137685644"/>
      </g>
     </g>
     <g id="line2d_90">
      <g>
       <use style="stroke:#000000;stroke-width:0.5;" x="513.7625" xlink:href="#ma1dd789402" y="85.3137685644"/>
      </g>
     </g>
     <g id="text_8">
      <!-- 0.8 -->
      <defs>
       <path d="M 31.78125 34.625 
Q 24.75 34.625 20.71875 30.859375 
Q 16.703125 27.09375 16.703125 20.515625 
Q 16.703125 13.921875 20.71875 10.15625 
Q 24.75 6.390625 31.78125 6.390625 
Q 38.8125 6.390625 42.859375 10.171875 
Q 46.921875 13.96875 46.921875 20.515625 
Q 46.921875 27.09375 42.890625 30.859375 
Q 38.875 34.625 31.78125 34.625 
M 21.921875 38.8125 
Q 15.578125 40.375 12.03125 44.71875 
Q 8.5 49.078125 8.5 55.328125 
Q 8.5 64.0625 14.71875 69.140625 
Q 20.953125 74.21875 31.78125 74.21875 
Q 42.671875 74.21875 48.875 69.140625 
Q 55.078125 64.0625 55.078125 55.328125 
Q 55.078125 49.078125 51.53125 44.71875 
Q 48 40.375 41.703125 38.8125 
Q 48.828125 37.15625 52.796875 32.3125 
Q 56.78125 27.484375 56.78125 20.515625 
Q 56.78125 9.90625 50.3125 4.234375 
Q 43.84375 -1.421875 31.78125 -1.421875 
Q 19.734375 -1.421875 13.25 4.234375 
Q 6.78125 9.90625 6.78125 20.515625 
Q 6.78125 27.484375 10.78125 32.3125 
Q 14.796875 37.15625 21.921875 38.8125 
M 18.3125 54.390625 
Q 18.3125 48.734375 21.84375 45.5625 
Q 25.390625 42.390625 31.78125 42.390625 
Q 38.140625 42.390625 41.71875 45.5625 
Q 45.3125 48.734375 45.3125 54.390625 
Q 45.3125 60.0625 41.71875 63.234375 
Q 38.140625 66.40625 31.78125 66.40625 
Q 25.390625 66.40625 21.84375 63.234375 
Q 18.3125 60.0625 18.3125 54.390625 
" id="BitstreamVeraSans-Roman-38"/>
      </defs>
      <g transform="translate(31.55625 90.8325185644)scale(0.2 -0.2)">
       <use xlink:href="#BitstreamVeraSans-Roman-30"/>
       <use x="63.623046875" xlink:href="#BitstreamVeraSans-Roman-2e"/>
       <use x="95.41015625" xlink:href="#BitstreamVeraSans-Roman-38"/>
      </g>
     </g>
    </g>
    <g id="ytick_6">
     <g id="line2d_91">
      <path clip-path="url(#pe09d653632)" d="M 67.3625 16.878125 
L 513.7625 16.878125 
" style="fill:none;stroke:#000000;stroke-dasharray:1.000000,3.000000;stroke-dashoffset:0.0;stroke-width:0.5;"/>
     </g>
     <g id="line2d_92">
      <g>
       <use style="stroke:#000000;stroke-width:0.5;" x="67.3625" xlink:href="#m06d2cb7d71" y="16.878125"/>
      </g>
     </g>
     <g id="line2d_93">
      <g>
       <use style="stroke:#000000;stroke-width:0.5;" x="513.7625" xlink:href="#ma1dd789402" y="16.878125"/>
      </g>
     </g>
     <g id="text_9">
      <!-- 1.0 -->
      <g transform="translate(31.55625 22.396875)scale(0.2 -0.2)">
       <use xlink:href="#BitstreamVeraSans-Roman-31"/>
       <use x="63.623046875" xlink:href="#BitstreamVeraSans-Roman-2e"/>
       <use x="95.41015625" xlink:href="#BitstreamVeraSans-Roman-30"/>
      </g>
     </g>
    </g>
    <g id="text_10">
     <!-- proportion of trials -->
     <defs>
      <path d="M 54.890625 33.015625 
L 54.890625 0 
L 45.90625 0 
L 45.90625 32.71875 
Q 45.90625 40.484375 42.875 44.328125 
Q 39.84375 48.1875 33.796875 48.1875 
Q 26.515625 48.1875 22.3125 43.546875 
Q 18.109375 38.921875 18.109375 30.90625 
L 18.109375 0 
L 9.078125 0 
L 9.078125 54.6875 
L 18.109375 54.6875 
L 18.109375 46.1875 
Q 21.34375 51.125 25.703125 53.5625 
Q 30.078125 56 35.796875 56 
Q 45.21875 56 50.046875 50.171875 
Q 54.890625 44.34375 54.890625 33.015625 
" id="BitstreamVeraSans-Roman-6e"/>
      <path d="M 9.421875 54.6875 
L 18.40625 54.6875 
L 18.40625 0 
L 9.421875 0 
z
M 9.421875 75.984375 
L 18.40625 75.984375 
L 18.40625 64.59375 
L 9.421875 64.59375 
z
" id="BitstreamVeraSans-Roman-69"/>
      <path d="M 18.3125 70.21875 
L 18.3125 54.6875 
L 36.8125 54.6875 
L 36.8125 47.703125 
L 18.3125 47.703125 
L 18.3125 18.015625 
Q 18.3125 11.328125 20.140625 9.421875 
Q 21.96875 7.515625 27.59375 7.515625 
L 36.8125 7.515625 
L 36.8125 0 
L 27.59375 0 
Q 17.1875 0 13.234375 3.875 
Q 9.28125 7.765625 9.28125 18.015625 
L 9.28125 47.703125 
L 2.6875 47.703125 
L 2.6875 54.6875 
L 9.28125 54.6875 
L 9.28125 70.21875 
z
" id="BitstreamVeraSans-Roman-74"/>
      <path d="M 41.109375 46.296875 
Q 39.59375 47.171875 37.8125 47.578125 
Q 36.03125 48 33.890625 48 
Q 26.265625 48 22.1875 43.046875 
Q 18.109375 38.09375 18.109375 28.8125 
L 18.109375 0 
L 9.078125 0 
L 9.078125 54.6875 
L 18.109375 54.6875 
L 18.109375 46.1875 
Q 20.953125 51.171875 25.484375 53.578125 
Q 30.03125 56 36.53125 56 
Q 37.453125 56 38.578125 55.875 
Q 39.703125 55.765625 41.0625 55.515625 
z
" id="BitstreamVeraSans-Roman-72"/>
      <path d="M 18.109375 8.203125 
L 18.109375 -20.796875 
L 9.078125 -20.796875 
L 9.078125 54.6875 
L 18.109375 54.6875 
L 18.109375 46.390625 
Q 20.953125 51.265625 25.265625 53.625 
Q 29.59375 56 35.59375 56 
Q 45.5625 56 51.78125 48.09375 
Q 58.015625 40.1875 58.015625 27.296875 
Q 58.015625 14.40625 51.78125 6.484375 
Q 45.5625 -1.421875 35.59375 -1.421875 
Q 29.59375 -1.421875 25.265625 0.953125 
Q 20.953125 3.328125 18.109375 8.203125 
M 48.6875 27.296875 
Q 48.6875 37.203125 44.609375 42.84375 
Q 40.53125 48.484375 33.40625 48.484375 
Q 26.265625 48.484375 22.1875 42.84375 
Q 18.109375 37.203125 18.109375 27.296875 
Q 18.109375 17.390625 22.1875 11.75 
Q 26.265625 6.109375 33.40625 6.109375 
Q 40.53125 6.109375 44.609375 11.75 
Q 48.6875 17.390625 48.6875 27.296875 
" id="BitstreamVeraSans-Roman-70"/>
     </defs>
     <g transform="translate(22.396875 279.484467822)rotate(-90.0)scale(0.2 -0.2)">
      <use xlink:href="#BitstreamVeraSans-Roman-70"/>
      <use x="63.4765625" xlink:href="#BitstreamVeraSans-Roman-72"/>
      <use x="104.55859375" xlink:href="#BitstreamVeraSans-Roman-6f"/>
      <use x="165.740234375" xlink:href="#BitstreamVeraSans-Roman-70"/>
      <use x="229.216796875" xlink:href="#BitstreamVeraSans-Roman-6f"/>
      <use x="290.3984375" xlink:href="#BitstreamVeraSans-Roman-72"/>
      <use x="331.51171875" xlink:href="#BitstreamVeraSans-Roman-74"/>
      <use x="370.720703125" xlink:href="#BitstreamVeraSans-Roman-69"/>
      <use x="398.50390625" xlink:href="#BitstreamVeraSans-Roman-6f"/>
      <use x="459.685546875" xlink:href="#BitstreamVeraSans-Roman-6e"/>
      <use x="523.064453125" xlink:href="#BitstreamVeraSans-Roman-20"/>
      <use x="554.8515625" xlink:href="#BitstreamVeraSans-Roman-6f"/>
      <use x="616.033203125" xlink:href="#BitstreamVeraSans-Roman-66"/>
      <use x="651.23828125" xlink:href="#BitstreamVeraSans-Roman-20"/>
      <use x="683.025390625" xlink:href="#BitstreamVeraSans-Roman-74"/>
      <use x="722.234375" xlink:href="#BitstreamVeraSans-Roman-72"/>
      <use x="763.34765625" xlink:href="#BitstreamVeraSans-Roman-69"/>
      <use x="791.130859375" xlink:href="#BitstreamVeraSans-Roman-61"/>
      <use x="852.41015625" xlink:href="#BitstreamVeraSans-Roman-6c"/>
      <use x="880.193359375" xlink:href="#BitstreamVeraSans-Roman-73"/>
     </g>
    </g>
   </g>
   <g id="text_11">
    <!-- {f1-f5}, 20-D -->
    <defs>
     <path d="M 11.71875 12.40625 
L 22.015625 12.40625 
L 22.015625 4 
L 14.015625 -11.625 
L 7.71875 -11.625 
L 11.71875 4 
z
" id="BitstreamVeraSans-Roman-2c"/>
     <path d="M 12.5 -9.28125 
L 15.921875 -9.28125 
Q 22.75 -9.28125 24.828125 -7.171875 
Q 26.90625 -5.078125 26.90625 1.90625 
L 26.90625 14.015625 
Q 26.90625 21.625 29.09375 25.09375 
Q 31.296875 28.5625 36.71875 29.890625 
Q 31.296875 31.109375 29.09375 34.5625 
Q 26.90625 38.03125 26.90625 45.703125 
L 26.90625 57.8125 
Q 26.90625 64.75 24.828125 66.875 
Q 22.75 69 15.921875 69 
L 12.5 69 
L 12.5 75.984375 
L 15.578125 75.984375 
Q 27.734375 75.984375 31.8125 72.390625 
Q 35.890625 68.796875 35.890625 58.015625 
L 35.890625 46.296875 
Q 35.890625 39.015625 38.515625 36.203125 
Q 41.15625 33.40625 48.09375 33.40625 
L 51.125 33.40625 
L 51.125 26.421875 
L 48.09375 26.421875 
Q 41.15625 26.421875 38.515625 23.578125 
Q 35.890625 20.75 35.890625 13.375 
L 35.890625 1.703125 
Q 35.890625 -9.078125 31.8125 -12.6875 
Q 27.734375 -16.3125 15.578125 -16.3125 
L 12.5 -16.3125 
z
" id="BitstreamVeraSans-Roman-7d"/>
     <path d="M 51.125 -9.28125 
L 51.125 -16.3125 
L 48.09375 -16.3125 
Q 35.9375 -16.3125 31.8125 -12.6875 
Q 27.6875 -9.078125 27.6875 1.703125 
L 27.6875 13.375 
Q 27.6875 20.75 25.046875 23.578125 
Q 22.40625 26.421875 15.484375 26.421875 
L 12.5 26.421875 
L 12.5 33.40625 
L 15.484375 33.40625 
Q 22.46875 33.40625 25.078125 36.203125 
Q 27.6875 39.015625 27.6875 46.296875 
L 27.6875 58.015625 
Q 27.6875 68.796875 31.8125 72.390625 
Q 35.9375 75.984375 48.09375 75.984375 
L 51.125 75.984375 
L 51.125 69 
L 47.796875 69 
Q 40.921875 69 38.8125 66.84375 
Q 36.71875 64.703125 36.71875 57.8125 
L 36.71875 45.703125 
Q 36.71875 38.03125 34.5 34.5625 
Q 32.28125 31.109375 26.90625 29.890625 
Q 32.328125 28.5625 34.515625 25.09375 
Q 36.71875 21.625 36.71875 14.015625 
L 36.71875 1.90625 
Q 36.71875 -4.984375 38.8125 -7.125 
Q 40.921875 -9.28125 47.796875 -9.28125 
z
" id="BitstreamVeraSans-Roman-7b"/>
     <path d="M 4.890625 31.390625 
L 31.203125 31.390625 
L 31.203125 23.390625 
L 4.890625 23.390625 
z
" id="BitstreamVeraSans-Roman-2d"/>
     <path d="M 10.796875 72.90625 
L 49.515625 72.90625 
L 49.515625 64.59375 
L 19.828125 64.59375 
L 19.828125 46.734375 
Q 21.96875 47.46875 24.109375 47.828125 
Q 26.265625 48.1875 28.421875 48.1875 
Q 40.625 48.1875 47.75 41.5 
Q 54.890625 34.8125 54.890625 23.390625 
Q 54.890625 11.625 47.5625 5.09375 
Q 40.234375 -1.421875 26.90625 -1.421875 
Q 22.3125 -1.421875 17.546875 -0.640625 
Q 12.796875 0.140625 7.71875 1.703125 
L 7.71875 11.625 
Q 12.109375 9.234375 16.796875 8.0625 
Q 21.484375 6.890625 26.703125 6.890625 
Q 35.15625 6.890625 40.078125 11.328125 
Q 45.015625 15.765625 45.015625 23.390625 
Q 45.015625 31 40.078125 35.4375 
Q 35.15625 39.890625 26.703125 39.890625 
Q 22.75 39.890625 18.8125 39.015625 
Q 14.890625 38.140625 10.796875 36.28125 
z
" id="BitstreamVeraSans-Roman-35"/>
    </defs>
    <g transform="translate(224.075 35.5652178218)scale(0.2 -0.2)">
     <use xlink:href="#BitstreamVeraSans-Roman-7b"/>
     <use x="63.623046875" xlink:href="#BitstreamVeraSans-Roman-66"/>
     <use x="98.828125" xlink:href="#BitstreamVeraSans-Roman-31"/>
     <use x="162.451171875" xlink:href="#BitstreamVeraSans-Roman-2d"/>
     <use x="198.53515625" xlink:href="#BitstreamVeraSans-Roman-66"/>
     <use x="233.740234375" xlink:href="#BitstreamVeraSans-Roman-35"/>
     <use x="297.36328125" xlink:href="#BitstreamVeraSans-Roman-7d"/>
     <use x="360.986328125" xlink:href="#BitstreamVeraSans-Roman-2c"/>
     <use x="392.7734375" xlink:href="#BitstreamVeraSans-Roman-20"/>
     <use x="424.560546875" xlink:href="#BitstreamVeraSans-Roman-32"/>
     <use x="488.18359375" xlink:href="#BitstreamVeraSans-Roman-30"/>
     <use x="551.806640625" xlink:href="#BitstreamVeraSans-Roman-2d"/>
     <use x="587.890625" xlink:href="#BitstreamVeraSans-Roman-44"/>
    </g>
   </g>
   <g id="text_12">
    <!-- absolute targets -->
    <defs>
     <path d="M 56.203125 29.59375 
L 56.203125 25.203125 
L 14.890625 25.203125 
Q 15.484375 15.921875 20.484375 11.0625 
Q 25.484375 6.203125 34.421875 6.203125 
Q 39.59375 6.203125 44.453125 7.46875 
Q 49.3125 8.734375 54.109375 11.28125 
L 54.109375 2.78125 
Q 49.265625 0.734375 44.1875 -0.34375 
Q 39.109375 -1.421875 33.890625 -1.421875 
Q 20.796875 -1.421875 13.15625 6.1875 
Q 5.515625 13.8125 5.515625 26.8125 
Q 5.515625 40.234375 12.765625 48.109375 
Q 20.015625 56 32.328125 56 
Q 43.359375 56 49.78125 48.890625 
Q 56.203125 41.796875 56.203125 29.59375 
M 47.21875 32.234375 
Q 47.125 39.59375 43.09375 43.984375 
Q 39.0625 48.390625 32.421875 48.390625 
Q 24.90625 48.390625 20.390625 44.140625 
Q 15.875 39.890625 15.1875 32.171875 
z
" id="BitstreamVeraSans-Roman-65"/>
     <path d="M 8.5 21.578125 
L 8.5 54.6875 
L 17.484375 54.6875 
L 17.484375 21.921875 
Q 17.484375 14.15625 20.5 10.265625 
Q 23.53125 6.390625 29.59375 6.390625 
Q 36.859375 6.390625 41.078125 11.03125 
Q 45.3125 15.671875 45.3125 23.6875 
L 45.3125 54.6875 
L 54.296875 54.6875 
L 54.296875 0 
L 45.3125 0 
L 45.3125 8.40625 
Q 42.046875 3.421875 37.71875 1 
Q 33.40625 -1.421875 27.6875 -1.421875 
Q 18.265625 -1.421875 13.375 4.4375 
Q 8.5 10.296875 8.5 21.578125 
" id="BitstreamVeraSans-Roman-75"/>
     <path d="M 48.6875 27.296875 
Q 48.6875 37.203125 44.609375 42.84375 
Q 40.53125 48.484375 33.40625 48.484375 
Q 26.265625 48.484375 22.1875 42.84375 
Q 18.109375 37.203125 18.109375 27.296875 
Q 18.109375 17.390625 22.1875 11.75 
Q 26.265625 6.109375 33.40625 6.109375 
Q 40.53125 6.109375 44.609375 11.75 
Q 48.6875 17.390625 48.6875 27.296875 
M 18.109375 46.390625 
Q 20.953125 51.265625 25.265625 53.625 
Q 29.59375 56 35.59375 56 
Q 45.5625 56 51.78125 48.09375 
Q 58.015625 40.1875 58.015625 27.296875 
Q 58.015625 14.40625 51.78125 6.484375 
Q 45.5625 -1.421875 35.59375 -1.421875 
Q 29.59375 -1.421875 25.265625 0.953125 
Q 20.953125 3.328125 18.109375 8.203125 
L 18.109375 0 
L 9.078125 0 
L 9.078125 75.984375 
L 18.109375 75.984375 
z
" id="BitstreamVeraSans-Roman-62"/>
    </defs>
    <g transform="translate(67.3625 359.056342822)scale(0.14 -0.14)">
     <use xlink:href="#BitstreamVeraSans-Roman-61"/>
     <use x="61.279296875" xlink:href="#BitstreamVeraSans-Roman-62"/>
     <use x="124.755859375" xlink:href="#BitstreamVeraSans-Roman-73"/>
     <use x="176.85546875" xlink:href="#BitstreamVeraSans-Roman-6f"/>
     <use x="238.037109375" xlink:href="#BitstreamVeraSans-Roman-6c"/>
     <use x="265.8203125" xlink:href="#BitstreamVeraSans-Roman-75"/>
     <use x="329.19921875" xlink:href="#BitstreamVeraSans-Roman-74"/>
     <use x="368.408203125" xlink:href="#BitstreamVeraSans-Roman-65"/>
     <use x="429.931640625" xlink:href="#BitstreamVeraSans-Roman-20"/>
     <use x="461.71875" xlink:href="#BitstreamVeraSans-Roman-74"/>
     <use x="500.927734375" xlink:href="#BitstreamVeraSans-Roman-61"/>
     <use x="562.20703125" xlink:href="#BitstreamVeraSans-Roman-72"/>
     <use x="603.3046875" xlink:href="#BitstreamVeraSans-Roman-67"/>
     <use x="666.78125" xlink:href="#BitstreamVeraSans-Roman-65"/>
     <use x="728.3046875" xlink:href="#BitstreamVeraSans-Roman-74"/>
     <use x="767.513671875" xlink:href="#BitstreamVeraSans-Roman-73"/>
    </g>
   </g>
   <g id="text_13">
    <!-- 0.0.0 -->
    <g style="fill:#808080;" transform="translate(277.840625 353.520655322)scale(0.1 -0.1)">
     <use xlink:href="#BitstreamVeraSans-Roman-30"/>
     <use x="63.623046875" xlink:href="#BitstreamVeraSans-Roman-2e"/>
     <use x="95.41015625" xlink:href="#BitstreamVeraSans-Roman-30"/>
     <use x="159.033203125" xlink:href="#BitstreamVeraSans-Roman-2e"/>
     <use x="190.8203125" xlink:href="#BitstreamVeraSans-Roman-30"/>
    </g>
   </g>
   <g id="legend_1">
    <g id="patch_7">
     <path d="M 366.540625 146.881343 
L 503.7625 146.881343 
L 503.7625 23.456343 
L 366.540625 23.456343 
z
" style="fill:#ffffff;opacity:0.2;stroke:#000000;stroke-linejoin:miter;"/>
    </g>
    <g id="line2d_94">
     <path d="M 380.540625 39.653218 
L 408.540625 39.653218 
" style="fill:none;stroke:#000000;stroke-linecap:square;"/>
    </g>
    <g id="line2d_95"/>
    <g id="text_14">
     <!-- 1: 2/5 -->
     <defs>
      <path d="M 11.71875 12.40625 
L 22.015625 12.40625 
L 22.015625 0 
L 11.71875 0 
z
M 11.71875 51.703125 
L 22.015625 51.703125 
L 22.015625 39.3125 
L 11.71875 39.3125 
z
" id="BitstreamVeraSans-Roman-3a"/>
     </defs>
     <g transform="translate(430.540625 46.6532178218)scale(0.2 -0.2)">
      <use xlink:href="#BitstreamVeraSans-Roman-31"/>
      <use x="63.623046875" xlink:href="#BitstreamVeraSans-Roman-3a"/>
      <use x="97.314453125" xlink:href="#BitstreamVeraSans-Roman-20"/>
      <use x="129.1015625" xlink:href="#BitstreamVeraSans-Roman-32"/>
      <use x="192.724609375" xlink:href="#BitstreamVeraSans-Roman-2f"/>
      <use x="226.416015625" xlink:href="#BitstreamVeraSans-Roman-35"/>
     </g>
    </g>
    <g id="line2d_96">
     <path d="M 380.540625 69.009468 
L 408.540625 69.009468 
" style="fill:none;stroke:#00bfbf;stroke-linecap:square;"/>
    </g>
    <g id="line2d_97"/>
    <g id="text_15">
     <!-- -1: 1/5 -->
     <g transform="translate(430.540625 76.0094678218)scale(0.2 -0.2)">
      <use xlink:href="#BitstreamVeraSans-Roman-2d"/>
      <use x="36.083984375" xlink:href="#BitstreamVeraSans-Roman-31"/>
      <use x="99.70703125" xlink:href="#BitstreamVeraSans-Roman-3a"/>
      <use x="133.3984375" xlink:href="#BitstreamVeraSans-Roman-20"/>
      <use x="165.185546875" xlink:href="#BitstreamVeraSans-Roman-31"/>
      <use x="228.80859375" xlink:href="#BitstreamVeraSans-Roman-2f"/>
      <use x="262.5" xlink:href="#BitstreamVeraSans-Roman-35"/>
     </g>
    </g>
    <g id="line2d_98">
     <path d="M 380.540625 98.365718 
L 408.540625 98.365718 
" style="fill:none;stroke:#bf00bf;stroke-linecap:square;"/>
    </g>
    <g id="line2d_99"/>
    <g id="text_16">
     <!-- -4: 1/5 -->
     <g transform="translate(430.540625 105.365717822)scale(0.2 -0.2)">
      <use xlink:href="#BitstreamVeraSans-Roman-2d"/>
      <use x="36.083984375" xlink:href="#BitstreamVeraSans-Roman-34"/>
      <use x="99.70703125" xlink:href="#BitstreamVeraSans-Roman-3a"/>
      <use x="133.3984375" xlink:href="#BitstreamVeraSans-Roman-20"/>
      <use x="165.185546875" xlink:href="#BitstreamVeraSans-Roman-31"/>
      <use x="228.80859375" xlink:href="#BitstreamVeraSans-Roman-2f"/>
      <use x="262.5" xlink:href="#BitstreamVeraSans-Roman-35"/>
     </g>
    </g>
    <g id="line2d_100">
     <path d="M 380.540625 127.721968 
L 408.540625 127.721968 
" style="fill:none;stroke:#ff0000;stroke-linecap:square;stroke-width:3.0;"/>
    </g>
    <g id="line2d_101"/>
    <g id="text_17">
     <!-- -8: 1/5 -->
     <g transform="translate(430.540625 134.721967822)scale(0.2 -0.2)">
      <use xlink:href="#BitstreamVeraSans-Roman-2d"/>
      <use x="36.083984375" xlink:href="#BitstreamVeraSans-Roman-38"/>
      <use x="99.70703125" xlink:href="#BitstreamVeraSans-Roman-3a"/>
      <use x="133.3984375" xlink:href="#BitstreamVeraSans-Roman-20"/>
      <use x="165.185546875" xlink:href="#BitstreamVeraSans-Roman-31"/>
      <use x="228.80859375" xlink:href="#BitstreamVeraSans-Roman-2f"/>
      <use x="262.5" xlink:href="#BitstreamVeraSans-Roman-35"/>
     </g>
    </g>
   </g>
  </g>
 </g>
 <defs>
  <clipPath id="pe09d653632">
   <rect height="345.6" width="446.4" x="67.3625" y="13.4563428218"/>
  </clipPath>
 </defs>
</svg>
