<?xml version="1.0" encoding="utf-8" standalone="no"?>
<!DOCTYPE svg PUBLIC "-//W3C//DTD SVG 1.1//EN"
  "http://www.w3.org/Graphics/SVG/1.1/DTD/svg11.dtd">
<!-- Created with matplotlib (http://matplotlib.org/) -->
<svg height="413pt" version="1.1" viewBox="0 0 520 413" width="520pt" xmlns="http://www.w3.org/2000/svg" xmlns:xlink="http://www.w3.org/1999/xlink">
 <defs>
  <style type="text/css">
*{stroke-linecap:butt;stroke-linejoin:round;stroke-miterlimit:100000;}
  </style>
 </defs>
 <g id="figure_1">
  <g id="patch_1">
   <path d="M 0 413.968843 
L 520.9625 413.968843 
L 520.9625 0 
L 0 0 
z
" style="fill:#ffffff;"/>
  </g>
  <g id="axes_1">
   <g id="patch_2">
    <path d="M 67.3625 359.056343 
L 513.7625 359.056343 
L 513.7625 13.456343 
L 67.3625 13.456343 
z
" style="fill:#ffffff;"/>
   </g>
   <g id="line2d_1">
    <path clip-path="url(#p198cd10d0a)" d="M 491.665427 359.056343 
L 491.665427 358.105848 
L 491.665427 358.105848 
L 491.665427 358.105848 
L 491.665427 357.155353 
L 492.296207 357.155353 
L 492.296207 354.303868 
L 492.610138 354.303868 
L 492.610138 352.402877 
L 493.546169 352.402877 
L 493.546169 351.452382 
L 496.303739 351.452382 
L 496.303739 349.551392 
L 498.101504 349.551392 
L 498.101504 348.600897 
L 498.988627 348.600897 
L 498.988627 347.650402 
L 502.176874 347.650402 
L 502.176874 346.699907 
L 505.820505 346.699907 
L 505.820505 345.749412 
L 508.804946 345.749412 
L 508.804946 344.798917 
L 513.7625 344.798917 
L 513.7625 343.848422 
L 521.9625 343.848422 
L 521.9625 343.848422 
" style="fill:none;stroke:#f5deb3;stroke-linecap:square;"/>
   </g>
   <g id="line2d_2">
    <path clip-path="url(#p198cd10d0a)" d="M 400.822293 359.056343 
L 400.822293 356.204858 
L 400.822293 356.204858 
L 400.822293 353.353373 
L 401.591132 353.353373 
L 401.591132 350.501887 
L 401.591132 350.501887 
L 401.591132 347.650402 
L 401.591132 347.650402 
L 401.591132 344.798917 
L 521.9625 344.798917 
" style="fill:none;stroke:#f5deb3;stroke-linecap:square;"/>
   </g>
   <g id="line2d_3">
    <path clip-path="url(#p198cd10d0a)" d="M 218.294551 359.056343 
L 218.294551 358.105848 
L 218.294551 358.105848 
L 218.294551 358.105848 
L 218.294551 357.155353 
L 218.294551 357.155353 
L 218.294551 357.155353 
L 218.294551 356.204858 
L 218.294551 356.204858 
L 218.294551 356.204858 
L 218.294551 355.254363 
L 218.294551 355.254363 
L 218.294551 355.254363 
L 218.294551 354.303868 
L 218.294551 354.303868 
L 218.294551 354.303868 
L 218.294551 353.353373 
L 218.294551 353.353373 
L 218.294551 353.353373 
L 218.294551 352.402877 
L 218.294551 352.402877 
L 218.294551 352.402877 
L 218.294551 351.452382 
L 218.294551 351.452382 
L 218.294551 351.452382 
L 218.294551 350.501887 
L 218.294551 350.501887 
L 218.294551 350.501887 
L 218.294551 349.551392 
L 218.294551 349.551392 
L 218.294551 349.551392 
L 218.294551 348.600897 
L 218.294551 348.600897 
L 218.294551 348.600897 
L 218.294551 347.650402 
L 218.294551 347.650402 
L 218.294551 347.650402 
L 218.294551 346.699907 
L 218.294551 346.699907 
L 218.294551 346.699907 
L 218.294551 345.749412 
L 218.294551 345.749412 
L 218.294551 345.749412 
L 218.294551 344.798917 
L 218.294551 344.798917 
L 218.294551 344.798917 
L 218.294551 343.848422 
L 218.294551 343.848422 
L 218.294551 343.848422 
L 218.294551 342.897927 
L 218.294551 342.897927 
L 218.294551 342.897927 
L 218.294551 341.947432 
L 218.294551 341.947432 
L 218.294551 341.947432 
L 218.294551 340.996937 
L 222.822882 340.996937 
L 222.822882 338.145452 
L 227.158458 338.145452 
L 227.158458 336.244462 
L 231.317022 336.244462 
L 231.317022 333.392976 
L 235.312463 333.392976 
L 235.312463 332.442481 
L 239.157095 332.442481 
L 239.157095 331.491986 
L 256.464825 331.491986 
L 256.464825 330.541491 
L 336.205045 330.541491 
L 336.205045 329.590996 
L 339.074831 329.590996 
L 339.074831 328.640501 
L 365.146936 328.640501 
L 365.146936 327.690006 
L 366.236472 327.690006 
L 366.236472 326.739511 
L 413.163353 326.739511 
L 413.163353 325.789016 
L 425.389634 325.789016 
L 425.389634 324.838521 
L 462.569755 324.838521 
L 462.569755 323.888026 
L 462.989841 323.888026 
L 462.989841 322.937531 
L 465.064671 322.937531 
L 465.064671 321.987036 
L 470.269413 321.987036 
L 470.269413 321.036541 
L 473.722987 321.036541 
L 473.722987 320.086046 
L 477.427784 320.086046 
L 477.427784 319.135551 
L 481.702705 319.135551 
L 481.702705 318.185056 
L 484.115998 318.185056 
L 484.115998 317.234561 
L 484.795138 317.234561 
L 484.795138 316.284066 
L 485.469781 316.284066 
L 485.469781 315.333571 
L 488.124541 315.333571 
L 488.124541 314.383075 
L 489.749307 314.383075 
L 489.749307 313.43258 
L 493.546169 313.43258 
L 493.546169 312.482085 
L 496.906526 312.482085 
L 496.906526 310.581095 
L 505.268359 310.581095 
L 505.268359 309.6306 
L 505.820505 309.6306 
L 505.820505 308.680105 
L 508.537218 308.680105 
L 508.537218 307.72961 
L 512.481091 307.72961 
L 512.481091 306.779115 
L 516.526116 306.779115 
L 516.526116 305.82862 
L 521.602573 305.82862 
L 521.602573 304.878125 
L 521.9625 304.878125 
L 521.9625 304.878125 
" style="fill:none;stroke:#f5deb3;stroke-linecap:square;"/>
   </g>
   <g id="line2d_4">
    <path clip-path="url(#p198cd10d0a)" d="M 156.547089 359.056343 
L 156.547089 358.105848 
L 197.852092 358.105848 
L 197.852092 357.155353 
L 222.822882 357.155353 
L 222.822882 356.204858 
L 227.158458 356.204858 
L 227.158458 355.254363 
L 239.157095 355.254363 
L 239.157095 354.303868 
L 249.890242 354.303868 
L 249.890242 353.353373 
L 256.464825 353.353373 
L 256.464825 352.402877 
L 259.599554 352.402877 
L 259.599554 349.551392 
L 268.463462 349.551392 
L 268.463462 348.600897 
L 276.617466 348.600897 
L 276.617466 347.650402 
L 279.196608 347.650402 
L 279.196608 346.699907 
L 286.563963 346.699907 
L 286.563963 345.749412 
L 301.928392 345.749412 
L 301.928392 344.798917 
L 489.749307 344.798917 
L 489.749307 343.848422 
L 491.981305 343.848422 
L 491.981305 342.897927 
L 509.071973 342.897927 
L 509.071973 341.947432 
L 514.776147 341.947432 
L 514.776147 340.996937 
L 518.24653 340.996937 
L 518.24653 340.046442 
L 519.457848 340.046442 
L 519.457848 339.095947 
L 519.698393 339.095947 
L 519.698393 338.145452 
L 520.416638 338.145452 
L 520.416638 337.194957 
L 520.89267 337.194957 
L 520.89267 336.244462 
L 521.9625 336.244462 
L 521.9625 336.244462 
" style="fill:none;stroke:#f5deb3;stroke-linecap:square;"/>
   </g>
   <g id="line2d_5">
    <path clip-path="url(#p198cd10d0a)" d="M 413.163353 359.056343 
L 413.163353 358.105848 
L 435.209136 358.105848 
L 435.209136 357.155353 
L 436.30453 357.155353 
L 436.30453 356.204858 
L 440.048231 356.204858 
L 440.048231 355.254363 
L 451.461739 355.254363 
L 451.461739 353.353373 
L 452.860443 353.353373 
L 452.860443 352.402877 
L 460.012198 352.402877 
L 460.012198 351.452382 
L 477.790959 351.452382 
L 477.790959 350.501887 
L 483.088722 350.501887 
L 483.088722 349.551392 
L 491.348566 349.551392 
L 491.348566 348.600897 
L 496.303739 348.600897 
L 496.303739 347.650402 
L 499.282626 347.650402 
L 499.282626 346.699907 
L 516.773675 346.699907 
L 516.773675 345.749412 
L 517.266996 345.749412 
L 517.266996 344.798917 
L 521.9625 344.798917 
L 521.9625 344.798917 
" style="fill:none;stroke:#f5deb3;stroke-linecap:square;"/>
   </g>
   <g id="line2d_6"/>
   <g id="line2d_7">
    <path clip-path="url(#p198cd10d0a)" d="M 393.628434 359.056343 
L 393.628434 358.105848 
L 396.888574 358.105848 
L 396.888574 357.155353 
L 404.609743 357.155353 
L 404.609743 356.204858 
L 408.261413 356.204858 
L 408.261413 355.254363 
L 410.391191 355.254363 
L 410.391191 354.303868 
L 415.194065 354.303868 
L 415.194065 352.402877 
L 416.525726 352.402877 
L 416.525726 351.452382 
L 417.185086 351.452382 
L 417.185086 350.501887 
L 418.491138 350.501887 
L 418.491138 349.551392 
L 422.311736 349.551392 
L 422.311736 348.600897 
L 424.781449 348.600897 
L 424.781449 347.650402 
L 425.389634 347.650402 
L 425.389634 346.699907 
L 427.192702 346.699907 
L 427.192702 345.749412 
L 434.101835 345.749412 
L 434.101835 344.798917 
L 521.9625 344.798917 
L 521.9625 344.798917 
" style="fill:none;stroke:#f5deb3;stroke-linecap:square;"/>
   </g>
   <g id="line2d_8">
    <path clip-path="url(#p198cd10d0a)" d="M 677.869714 359.056343 
" style="fill:none;stroke:#f5deb3;stroke-linecap:square;"/>
   </g>
   <g id="line2d_9">
    <path clip-path="url(#p198cd10d0a)" d="M 265.593675 359.056343 
L 265.593675 358.105848 
L 276.617466 358.105848 
L 276.617466 357.155353 
L 284.166895 357.155353 
L 284.166895 356.204858 
L 295.625103 356.204858 
L 295.625103 355.254363 
L 297.769828 355.254363 
L 297.769828 354.303868 
L 322.185463 354.303868 
L 322.185463 353.353373 
L 328.655616 353.353373 
L 328.655616 352.402877 
L 343.233395 352.402877 
L 343.233395 350.501887 
L 349.807978 350.501887 
L 349.807978 348.600897 
L 355.983849 348.600897 
L 355.983849 347.650402 
L 357.175332 347.650402 
L 357.175332 346.699907 
L 358.353041 346.699907 
L 358.353041 345.749412 
L 359.51729 345.749412 
L 359.51729 344.798917 
L 509.071973 344.798917 
L 509.071973 343.848422 
L 521.9625 343.848422 
L 521.9625 343.848422 
" style="fill:none;stroke:#f5deb3;stroke-linecap:square;"/>
   </g>
   <g id="line2d_10">
    <path clip-path="url(#p198cd10d0a)" d="M 373.553408 359.056343 
L 373.553408 358.105848 
L 391.958385 358.105848 
L 391.958385 357.155353 
L 392.796832 357.155353 
L 392.796832 354.303868 
L 396.083268 354.303868 
L 396.083268 353.353373 
L 398.480335 353.353373 
L 398.480335 352.402877 
L 408.976297 352.402877 
L 408.976297 351.452382 
L 410.391191 351.452382 
L 410.391191 350.501887 
L 424.169611 350.501887 
L 424.169611 349.551392 
L 431.279752 349.551392 
L 431.279752 348.600897 
L 448.121417 348.600897 
L 448.121417 347.650402 
L 448.605365 347.650402 
L 448.605365 346.699907 
L 465.474614 346.699907 
L 465.474614 345.749412 
L 467.499943 345.749412 
L 467.499943 344.798917 
L 521.9625 344.798917 
L 521.9625 344.798917 
" style="fill:none;stroke:#f5deb3;stroke-linecap:square;"/>
   </g>
   <g id="line2d_11">
    <path clip-path="url(#p198cd10d0a)" d="M 179.278873 359.056343 
L 179.278873 358.105848 
L 208.585239 358.105848 
L 208.585239 357.155353 
L 213.555526 357.155353 
L 213.555526 354.303868 
L 218.294551 354.303868 
L 218.294551 352.402877 
L 222.822882 352.402877 
L 222.822882 350.501887 
L 239.157095 350.501887 
L 239.157095 348.600897 
L 259.599554 348.600897 
L 259.599554 346.699907 
L 271.254614 346.699907 
L 271.254614 345.749412 
L 273.971326 345.749412 
L 273.971326 344.798917 
L 493.856278 344.798917 
L 493.856278 343.848422 
L 501.891122 343.848422 
L 501.891122 341.947432 
L 502.745986 341.947432 
L 502.745986 340.996937 
L 504.713205 340.996937 
L 504.713205 340.046442 
L 506.369675 340.046442 
L 506.369675 339.095947 
L 506.643153 339.095947 
L 506.643153 338.145452 
L 508.537218 338.145452 
L 508.537218 337.194957 
L 509.071973 337.194957 
L 509.071973 336.244462 
L 512.481091 336.244462 
L 512.481091 335.293967 
L 514.016859 335.293967 
L 514.016859 333.392976 
L 516.029184 333.392976 
L 516.029184 332.442481 
L 516.526116 332.442481 
L 516.526116 331.491986 
L 520.89267 331.491986 
L 520.89267 330.541491 
L 521.602573 330.541491 
L 521.602573 329.590996 
L 521.9625 329.590996 
L 521.9625 329.590996 
" style="fill:none;stroke:#f5deb3;stroke-linecap:square;"/>
   </g>
   <g id="line2d_12">
    <path clip-path="url(#p198cd10d0a)" d="M 164.701093 359.056343 
L 164.701093 358.105848 
L 164.701093 358.105848 
L 164.701093 358.105848 
L 164.701093 357.155353 
L 164.701093 357.155353 
L 164.701093 357.155353 
L 164.701093 356.204858 
L 164.701093 356.204858 
L 164.701093 356.204858 
L 164.701093 355.254363 
L 164.701093 355.254363 
L 164.701093 355.254363 
L 164.701093 354.303868 
L 164.701093 354.303868 
L 164.701093 354.303868 
L 164.701093 353.353373 
L 164.701093 353.353373 
L 164.701093 353.353373 
L 164.701093 352.402877 
L 164.701093 352.402877 
L 164.701093 352.402877 
L 164.701093 351.452382 
L 164.701093 351.452382 
L 164.701093 351.452382 
L 164.701093 350.501887 
L 164.701093 350.501887 
L 164.701093 350.501887 
L 164.701093 349.551392 
L 164.701093 349.551392 
L 164.701093 349.551392 
L 164.701093 348.600897 
L 164.701093 348.600897 
L 164.701093 348.600897 
L 164.701093 347.650402 
L 164.701093 347.650402 
L 164.701093 347.650402 
L 164.701093 346.699907 
L 164.701093 346.699907 
L 164.701093 346.699907 
L 164.701093 345.749412 
L 164.701093 345.749412 
L 164.701093 345.749412 
L 164.701093 344.798917 
L 203.359956 344.798917 
L 203.359956 342.897927 
L 231.317022 342.897927 
L 231.317022 341.947432 
L 253.230563 341.947432 
L 253.230563 334.343472 
L 271.254614 334.343472 
L 271.254614 331.491986 
L 286.563963 331.491986 
L 286.563963 330.541491 
L 478.513449 330.541491 
L 478.513449 329.590996 
L 490.711872 329.590996 
L 490.711872 328.640501 
L 494.473678 328.640501 
L 494.473678 327.690006 
L 496.303739 327.690006 
L 496.303739 325.789016 
L 503.311935 325.789016 
L 503.311935 324.838521 
L 506.643153 324.838521 
L 506.643153 322.937531 
L 508.268784 322.937531 
L 508.268784 321.987036 
L 512.99559 321.987036 
L 512.99559 321.036541 
L 514.523679 321.036541 
L 514.523679 320.086046 
L 517.512764 320.086046 
L 517.512764 318.185056 
L 521.9625 318.185056 
L 521.9625 318.185056 
" style="fill:none;stroke:#f5deb3;stroke-linecap:square;"/>
   </g>
   <g id="line2d_13">
    <path clip-path="url(#p198cd10d0a)" d="M 497.206587 359.056343 
L 497.206587 358.105848 
L 497.206587 358.105848 
L 497.206587 358.105848 
L 497.206587 357.155353 
L 497.206587 357.155353 
L 497.206587 357.155353 
L 497.206587 356.204858 
L 505.820505 356.204858 
L 505.820505 353.353373 
L 506.643153 353.353373 
L 506.643153 350.501887 
L 521.9625 350.501887 
L 521.9625 350.501887 
" style="fill:none;stroke:#f5deb3;stroke-linecap:square;"/>
   </g>
   <g id="line2d_14">
    <path clip-path="url(#p198cd10d0a)" d="M 265.593675 359.056343 
L 265.593675 358.105848 
L 265.593675 358.105848 
L 265.593675 358.105848 
L 265.593675 357.155353 
L 268.463462 357.155353 
L 268.463462 356.204858 
L 273.971326 356.204858 
L 273.971326 355.254363 
L 281.712061 355.254363 
L 281.712061 352.402877 
L 288.90592 352.402877 
L 288.90592 351.452382 
L 293.434251 351.452382 
L 293.434251 344.798917 
L 417.840205 344.798917 
L 417.840205 343.848422 
L 424.781449 343.848422 
L 424.781449 342.897927 
L 430.705832 342.897927 
L 430.705832 341.947432 
L 434.101835 341.947432 
L 434.101835 340.046442 
L 436.30453 340.046442 
L 436.30453 339.095947 
L 437.388271 339.095947 
L 437.388271 338.145452 
L 438.460604 338.145452 
L 438.460604 337.194957 
L 442.6405 337.194957 
L 442.6405 336.244462 
L 444.667844 336.244462 
L 444.667844 335.293967 
L 446.162306 335.293967 
L 446.162306 334.343472 
L 449.087023 334.343472 
L 449.087023 333.392976 
L 450.518485 333.392976 
L 450.518485 332.442481 
L 453.782356 332.442481 
L 453.782356 330.541491 
L 469.878355 330.541491 
L 469.878355 329.590996 
L 474.848641 329.590996 
L 474.848641 328.640501 
L 521.9625 328.640501 
L 521.9625 328.640501 
" style="fill:none;stroke:#f5deb3;stroke-linecap:square;"/>
   </g>
   <g id="line2d_15">
    <path clip-path="url(#p198cd10d0a)" d="M 1023.322835 359.056343 
" style="fill:none;stroke:#f5deb3;stroke-linecap:square;"/>
   </g>
   <g id="line2d_16">
    <path clip-path="url(#p198cd10d0a)" d="M 539.900307 359.056343 
" style="fill:none;stroke:#f5deb3;stroke-linecap:square;"/>
   </g>
   <g id="line2d_17">
    <path clip-path="url(#p198cd10d0a)" d="M 392.796832 359.056343 
L 392.796832 358.105848 
L 403.863434 358.105848 
L 403.863434 357.155353 
L 427.786701 357.155353 
L 427.786701 356.204858 
L 449.087023 356.204858 
L 449.087023 355.254363 
L 452.396339 355.254363 
L 452.396339 354.303868 
L 481.00256 354.303868 
L 481.00256 353.353373 
L 489.749307 353.353373 
L 489.749307 352.402877 
L 490.071174 352.402877 
L 490.071174 351.452382 
L 496.001003 351.452382 
L 496.001003 350.501887 
L 521.9625 350.501887 
L 521.9625 350.501887 
" style="fill:none;stroke:#f5deb3;stroke-linecap:square;"/>
   </g>
   <g id="line2d_18">
    <path clip-path="url(#p198cd10d0a)" d="M 156.547089 359.056343 
L 156.547089 358.105848 
L 156.547089 358.105848 
L 156.547089 358.105848 
L 156.547089 357.155353 
L 156.547089 357.155353 
L 156.547089 357.155353 
L 156.547089 356.204858 
L 156.547089 356.204858 
L 156.547089 356.204858 
L 156.547089 355.254363 
L 156.547089 355.254363 
L 156.547089 355.254363 
L 156.547089 354.303868 
L 156.547089 354.303868 
L 156.547089 354.303868 
L 156.547089 353.353373 
L 156.547089 353.353373 
L 156.547089 353.353373 
L 156.547089 352.402877 
L 156.547089 352.402877 
L 156.547089 352.402877 
L 156.547089 351.452382 
L 156.547089 351.452382 
L 156.547089 351.452382 
L 156.547089 350.501887 
L 156.547089 350.501887 
L 156.547089 350.501887 
L 156.547089 349.551392 
L 156.547089 349.551392 
L 156.547089 349.551392 
L 156.547089 348.600897 
L 156.547089 348.600897 
L 156.547089 348.600897 
L 156.547089 347.650402 
L 156.547089 347.650402 
L 156.547089 347.650402 
L 156.547089 346.699907 
L 156.547089 346.699907 
L 156.547089 346.699907 
L 156.547089 345.749412 
L 156.547089 345.749412 
L 156.547089 345.749412 
L 156.547089 344.798917 
L 164.701093 344.798917 
L 164.701093 340.046442 
L 172.250522 340.046442 
L 172.250522 339.095947 
L 179.278873 339.095947 
L 179.278873 338.145452 
L 185.853455 338.145452 
L 185.853455 336.244462 
L 192.029326 336.244462 
L 192.029326 332.442481 
L 197.852092 332.442481 
L 197.852092 331.491986 
L 213.555526 331.491986 
L 213.555526 330.541491 
L 472.202501 330.541491 
L 472.202501 329.590996 
L 487.467309 329.590996 
L 487.467309 328.640501 
L 489.749307 328.640501 
L 489.749307 327.690006 
L 490.071174 327.690006 
L 490.071174 326.739511 
L 493.546169 326.739511 
L 493.546169 325.789016 
L 498.693777 325.789016 
L 498.693777 324.838521 
L 504.155008 324.838521 
L 504.155008 323.888026 
L 505.268359 323.888026 
L 505.268359 322.937531 
L 506.643153 322.937531 
L 506.643153 321.987036 
L 509.071973 321.987036 
L 509.071973 321.036541 
L 511.704437 321.036541 
L 511.704437 320.086046 
L 514.016859 320.086046 
L 514.016859 319.135551 
L 517.020634 319.135551 
L 517.020634 318.185056 
L 517.512764 318.185056 
L 517.512764 317.234561 
L 520.416638 317.234561 
L 520.416638 316.284066 
L 521.9625 316.284066 
L 521.9625 316.284066 
" style="fill:none;stroke:#f5deb3;stroke-linecap:square;"/>
   </g>
   <g id="line2d_19">
    <path clip-path="url(#p198cd10d0a)" d="M 574.064302 359.056343 
" style="fill:none;stroke:#f5deb3;stroke-linecap:square;"/>
   </g>
   <g id="line2d_20">
    <path clip-path="url(#p198cd10d0a)" d="M 179.278873 359.056343 
L 179.278873 358.105848 
L 192.029326 358.105848 
L 192.029326 357.155353 
L 197.852092 357.155353 
L 197.852092 355.254363 
L 213.555526 355.254363 
L 213.555526 354.303868 
L 222.822882 354.303868 
L 222.822882 353.353373 
L 227.158458 353.353373 
L 227.158458 352.402877 
L 235.312463 352.402877 
L 235.312463 351.452382 
L 239.157095 351.452382 
L 239.157095 349.551392 
L 242.861892 349.551392 
L 242.861892 348.600897 
L 249.890242 348.600897 
L 249.890242 347.650402 
L 256.464825 347.650402 
L 256.464825 346.699907 
L 259.599554 346.699907 
L 259.599554 345.749412 
L 268.463462 345.749412 
L 268.463462 344.798917 
L 438.992567 344.798917 
L 438.992567 343.848422 
L 448.121417 343.848422 
L 448.121417 342.897927 
L 448.605365 342.897927 
L 448.605365 341.947432 
L 450.043563 341.947432 
L 450.043563 340.996937 
L 451.93011 340.996937 
L 451.93011 340.046442 
L 454.240202 340.046442 
L 454.240202 339.095947 
L 456.051284 339.095947 
L 456.051284 338.145452 
L 457.388774 338.145452 
L 457.388774 337.194957 
L 460.012198 337.194957 
L 460.012198 335.293967 
L 461.299002 335.293967 
L 461.299002 334.343472 
L 462.147929 334.343472 
L 462.147929 333.392976 
L 466.694637 333.392976 
L 466.694637 332.442481 
L 469.091705 332.442481 
L 469.091705 331.491986 
L 470.658977 331.491986 
L 470.658977 330.541491 
L 473.344988 330.541491 
L 473.344988 329.590996 
L 476.330423 329.590996 
L 476.330423 328.640501 
L 478.872782 328.640501 
L 478.872782 327.690006 
L 479.230851 327.690006 
L 479.230851 326.739511 
L 509.868879 326.739511 
L 509.868879 325.789016 
L 520.416638 325.789016 
L 520.416638 324.838521 
L 521.9625 324.838521 
L 521.9625 324.838521 
" style="fill:none;stroke:#f5deb3;stroke-linecap:square;"/>
   </g>
   <g id="line2d_21">
    <path clip-path="url(#p198cd10d0a)" d="M 634.223936 359.056343 
" style="fill:none;stroke:#f5deb3;stroke-linecap:square;"/>
   </g>
   <g id="line2d_22">
    <path clip-path="url(#p198cd10d0a)" d="M 197.852092 359.056343 
L 197.852092 358.105848 
L 197.852092 358.105848 
L 197.852092 358.105848 
L 197.852092 357.155353 
L 213.555526 357.155353 
L 213.555526 356.204858 
L 218.294551 356.204858 
L 218.294551 355.254363 
L 231.317022 355.254363 
L 231.317022 352.402877 
L 242.861892 352.402877 
L 242.861892 351.452382 
L 268.463462 351.452382 
L 268.463462 350.501887 
L 281.712061 350.501887 
L 281.712061 349.551392 
L 284.166895 349.551392 
L 284.166895 348.600897 
L 295.625103 348.600897 
L 295.625103 347.650402 
L 299.870328 347.650402 
L 299.870328 346.699907 
L 382.249073 346.699907 
L 382.249073 345.749412 
L 399.266985 345.749412 
L 399.266985 344.798917 
L 422.311736 344.798917 
L 422.311736 343.848422 
L 437.925848 343.848422 
L 437.925848 342.897927 
L 446.655627 342.897927 
L 446.655627 341.947432 
L 448.605365 341.947432 
L 448.605365 340.996937 
L 450.043563 340.996937 
L 450.043563 340.046442 
L 452.860443 340.046442 
L 452.860443 339.095947 
L 455.149768 339.095947 
L 455.149768 338.145452 
L 456.944892 338.145452 
L 456.944892 337.194957 
L 457.388774 337.194957 
L 457.388774 336.244462 
L 458.270776 336.244462 
L 458.270776 334.343472 
L 458.70893 334.343472 
L 458.70893 333.392976 
L 460.871871 333.392976 
L 460.871871 332.442481 
L 462.989841 332.442481 
L 462.989841 331.491986 
L 463.824851 331.491986 
L 463.824851 330.541491 
L 466.694637 330.541491 
L 466.694637 329.590996 
L 467.098086 329.590996 
L 467.098086 328.640501 
L 470.269413 328.640501 
L 470.269413 327.690006 
L 476.330423 327.690006 
L 476.330423 326.739511 
L 476.697525 326.739511 
L 476.697525 325.789016 
L 484.795138 325.789016 
L 484.795138 324.838521 
L 511.96398 324.838521 
L 511.96398 323.888026 
L 518.732787 323.888026 
L 518.732787 322.937531 
L 519.216734 322.937531 
L 519.216734 321.987036 
L 521.366488 321.987036 
L 521.366488 321.036541 
L 521.9625 321.036541 
L 521.9625 321.036541 
" style="fill:none;stroke:#f5deb3;stroke-linecap:square;"/>
   </g>
   <g id="line2d_23">
    <path clip-path="url(#p198cd10d0a)" d="M 351.073468 359.056343 
L 351.073468 358.105848 
L 387.659407 358.105848 
L 387.659407 357.155353 
L 391.958385 357.155353 
L 391.958385 356.204858 
L 394.453302 356.204858 
L 394.453302 355.254363 
L 407.541475 355.254363 
L 407.541475 353.353373 
L 418.491138 353.353373 
L 418.491138 352.402877 
L 419.137938 352.402877 
L 419.137938 351.452382 
L 421.684837 351.452382 
L 421.684837 350.501887 
L 422.311736 350.501887 
L 422.311736 349.551392 
L 422.9348 349.551392 
L 422.9348 348.600897 
L 440.048231 348.600897 
L 440.048231 347.650402 
L 451.461739 347.650402 
L 451.461739 346.699907 
L 459.145208 346.699907 
L 459.145208 345.749412 
L 477.790959 345.749412 
L 477.790959 344.798917 
L 521.9625 344.798917 
L 521.9625 344.798917 
" style="fill:none;stroke:#f5deb3;stroke-linecap:square;"/>
   </g>
   <g id="line2d_24">
    <path clip-path="url(#p198cd10d0a)" d="M 444.667844 359.056343 
L 444.667844 358.105848 
L 444.667844 358.105848 
L 444.667844 358.105848 
L 444.667844 357.155353 
L 445.168438 357.155353 
L 445.168438 356.204858 
L 464.653072 356.204858 
L 464.653072 354.303868 
L 465.064671 354.303868 
L 465.064671 353.353373 
L 483.088722 353.353373 
L 483.088722 351.452382 
L 483.432299 351.452382 
L 483.432299 350.501887 
L 483.774722 350.501887 
L 483.774722 349.551392 
L 498.693777 349.551392 
L 498.693777 347.650402 
L 498.988627 347.650402 
L 498.988627 346.699907 
L 499.282626 346.699907 
L 499.282626 345.749412 
L 521.9625 345.749412 
L 521.9625 345.749412 
" style="fill:none;stroke:#f5deb3;stroke-linecap:square;"/>
   </g>
   <g id="line2d_25">
    <path clip-path="url(#p198cd10d0a)" d="M 375.550936 359.056343 
L 375.550936 358.105848 
L 392.796832 358.105848 
L 392.796832 357.155353 
L 396.888574 357.155353 
L 396.888574 356.204858 
L 406.816414 356.204858 
L 406.816414 355.254363 
L 408.976297 355.254363 
L 408.976297 354.303868 
L 421.684837 354.303868 
L 421.684837 353.353373 
L 422.311736 353.353373 
L 422.311736 352.402877 
L 423.554077 352.402877 
L 423.554077 350.501887 
L 425.389634 350.501887 
L 425.389634 349.551392 
L 429.548198 349.551392 
L 429.548198 348.600897 
L 431.850458 348.600897 
L 431.850458 347.650402 
L 454.696 347.650402 
L 454.696 346.699907 
L 456.051284 346.699907 
L 456.051284 345.749412 
L 457.83073 345.749412 
L 457.83073 344.798917 
L 521.9625 344.798917 
L 521.9625 344.798917 
" style="fill:none;stroke:#f5deb3;stroke-linecap:square;"/>
   </g>
   <g id="line2d_26">
    <path clip-path="url(#p198cd10d0a)" d="M 559.713877 359.056343 
" style="fill:none;stroke:#f5deb3;stroke-linecap:square;"/>
   </g>
   <g id="line2d_27">
    <path clip-path="url(#p198cd10d0a)" d="M 521.129854 359.056343 
L 521.129854 358.105848 
L 521.9625 358.105848 
" style="fill:none;stroke:#f5deb3;stroke-linecap:square;"/>
   </g>
   <g id="line2d_28">
    <path clip-path="url(#p198cd10d0a)" d="M 291.195245 359.056343 
L 291.195245 358.105848 
L 330.210924 358.105848 
L 330.210924 357.155353 
L 357.175332 357.155353 
L 357.175332 355.254363 
L 359.51729 355.254363 
L 359.51729 354.303868 
L 370.481698 354.303868 
L 370.481698 353.353373 
L 379.432193 353.353373 
L 379.432193 351.452382 
L 380.379834 351.452382 
L 380.379834 350.501887 
L 397.687563 350.501887 
L 397.687563 349.551392 
L 398.480335 349.551392 
L 398.480335 347.650402 
L 413.844764 347.650402 
L 413.844764 346.699907 
L 436.847842 346.699907 
L 436.847842 345.749412 
L 449.566416 345.749412 
L 449.566416 344.798917 
L 521.9625 344.798917 
L 521.9625 344.798917 
" style="fill:none;stroke:#f5deb3;stroke-linecap:square;"/>
   </g>
   <g id="line2d_29">
    <path clip-path="url(#p198cd10d0a)" d="M 137.973869 359.056343 
L 137.973869 358.105848 
L 137.973869 358.105848 
L 137.973869 358.105848 
L 137.973869 357.155353 
L 137.973869 357.155353 
L 137.973869 357.155353 
L 137.973869 356.204858 
L 137.973869 356.204858 
L 137.973869 356.204858 
L 137.973869 355.254363 
L 137.973869 355.254363 
L 137.973869 355.254363 
L 137.973869 354.303868 
L 137.973869 354.303868 
L 137.973869 354.303868 
L 137.973869 353.353373 
L 137.973869 353.353373 
L 137.973869 353.353373 
L 137.973869 352.402877 
L 137.973869 352.402877 
L 137.973869 352.402877 
L 137.973869 351.452382 
L 137.973869 351.452382 
L 137.973869 351.452382 
L 137.973869 350.501887 
L 137.973869 350.501887 
L 137.973869 350.501887 
L 137.973869 349.551392 
L 137.973869 349.551392 
L 137.973869 349.551392 
L 137.973869 348.600897 
L 137.973869 348.600897 
L 137.973869 348.600897 
L 137.973869 347.650402 
L 137.973869 347.650402 
L 137.973869 347.650402 
L 137.973869 346.699907 
L 137.973869 346.699907 
L 137.973869 346.699907 
L 137.973869 345.749412 
L 137.973869 345.749412 
L 137.973869 345.749412 
L 137.973869 344.798917 
L 185.853455 344.798917 
L 185.853455 341.947432 
L 192.029326 341.947432 
L 192.029326 336.244462 
L 309.768465 336.244462 
L 309.768465 333.392976 
L 311.637704 333.392976 
L 311.637704 330.541491 
L 455.601523 330.541491 
L 455.601523 327.690006 
L 494.473678 327.690006 
L 494.473678 324.838521 
L 498.101504 324.838521 
L 498.101504 321.987036 
L 498.988627 321.987036 
L 498.988627 319.135551 
L 504.713205 319.135551 
L 504.713205 316.284066 
L 514.016859 316.284066 
L 514.016859 313.43258 
L 514.776147 313.43258 
L 514.776147 310.581095 
L 518.732787 310.581095 
L 518.732787 307.72961 
L 521.9625 307.72961 
L 521.9625 307.72961 
" style="fill:none;stroke:#f5deb3;stroke-linecap:square;"/>
   </g>
   <g id="line2d_30">
    <path clip-path="url(#p198cd10d0a)" d="M 281.712061 359.056343 
L 281.712061 358.105848 
L 291.195245 358.105848 
L 291.195245 357.155353 
L 336.205045 357.155353 
L 336.205045 356.204858 
L 337.650043 356.204858 
L 337.650043 355.254363 
L 345.914357 355.254363 
L 345.914357 354.303868 
L 351.073468 354.303868 
L 351.073468 353.353373 
L 353.558242 353.353373 
L 353.558242 352.402877 
L 353.558242 352.402877 
L 353.558242 351.452382 
L 354.778264 351.452382 
L 354.778264 350.501887 
L 354.778264 350.501887 
L 354.778264 349.551392 
L 354.778264 349.551392 
L 354.778264 348.600897 
L 359.51729 348.600897 
L 359.51729 347.650402 
L 360.668383 347.650402 
L 360.668383 346.699907 
L 361.806615 346.699907 
L 361.806615 345.749412 
L 361.806615 345.749412 
L 361.806615 344.798917 
L 361.806615 344.798917 
L 361.806615 343.848422 
L 362.932269 343.848422 
L 362.932269 342.897927 
L 364.045621 342.897927 
L 364.045621 341.947432 
L 364.045621 341.947432 
L 364.045621 340.996937 
L 365.146936 340.996937 
L 365.146936 340.046442 
L 367.314479 340.046442 
L 367.314479 339.095947 
L 368.381197 339.095947 
L 368.381197 338.145452 
L 369.436861 338.145452 
L 369.436861 337.194957 
L 374.557068 337.194957 
L 374.557068 336.244462 
L 376.535202 336.244462 
L 376.535202 335.293967 
L 378.475654 335.293967 
L 378.475654 334.343472 
L 378.475654 334.343472 
L 378.475654 333.392976 
L 380.379834 333.392976 
L 380.379834 332.442481 
L 381.318741 332.442481 
L 381.318741 331.491986 
L 390.260502 331.491986 
L 390.260502 330.541491 
L 408.261413 330.541491 
L 408.261413 329.590996 
L 408.261413 329.590996 
L 408.261413 328.640501 
L 408.261413 328.640501 
L 408.261413 327.690006 
L 408.261413 327.690006 
L 408.261413 326.739511 
L 408.261413 326.739511 
L 408.261413 325.789016 
L 408.261413 325.789016 
L 408.261413 324.838521 
L 408.261413 324.838521 
L 408.261413 323.888026 
L 408.261413 323.888026 
L 408.261413 322.937531 
L 408.261413 322.937531 
L 408.261413 321.987036 
L 408.261413 321.987036 
L 408.261413 321.036541 
L 408.261413 321.036541 
L 408.261413 320.086046 
L 408.261413 320.086046 
L 408.261413 319.135551 
L 408.261413 319.135551 
L 408.261413 318.185056 
L 408.261413 318.185056 
L 408.261413 317.234561 
L 408.261413 317.234561 
L 408.261413 316.284066 
L 521.9625 316.284066 
" style="fill:none;stroke:#f5deb3;stroke-linecap:square;"/>
   </g>
   <g id="line2d_31">
    <path clip-path="url(#p198cd10d0a)" d="M -1 356.204858 
L 44.630716 356.204858 
L 44.630716 355.254363 
L 67.3625 355.254363 
L 67.3625 354.303868 
L 85.93572 354.303868 
L 85.93572 352.402877 
L 115.242086 352.402877 
L 115.242086 351.452382 
L 127.240723 351.452382 
L 127.240723 349.551392 
L 137.973869 349.551392 
L 137.973869 344.798917 
L 147.683182 344.798917 
L 147.683182 343.848422 
L 172.250522 343.848422 
L 172.250522 342.897927 
L 179.278873 342.897927 
L 179.278873 341.947432 
L 185.853455 341.947432 
L 185.853455 340.046442 
L 197.852092 340.046442 
L 197.852092 339.095947 
L 208.585239 339.095947 
L 208.585239 338.145452 
L 213.555526 338.145452 
L 213.555526 336.244462 
L 218.294551 336.244462 
L 218.294551 333.392976 
L 222.822882 333.392976 
L 222.822882 331.491986 
L 227.158458 331.491986 
L 227.158458 330.541491 
L 231.317022 330.541491 
L 231.317022 329.590996 
L 235.312463 329.590996 
L 235.312463 328.640501 
L 239.157095 328.640501 
L 239.157095 327.690006 
L 249.890242 327.690006 
L 249.890242 326.739511 
L 253.230563 326.739511 
L 253.230563 325.789016 
L 256.464825 325.789016 
L 256.464825 323.888026 
L 259.599554 323.888026 
L 259.599554 322.937531 
L 262.640696 322.937531 
L 262.640696 321.036541 
L 265.593675 321.036541 
L 265.593675 320.086046 
L 268.463462 320.086046 
L 268.463462 318.185056 
L 271.254614 318.185056 
L 271.254614 316.284066 
L 273.971326 316.284066 
L 273.971326 315.333571 
L 276.617466 315.333571 
L 276.617466 312.482085 
L 281.712061 312.482085 
L 281.712061 310.581095 
L 284.166895 310.581095 
L 284.166895 309.6306 
L 288.90592 309.6306 
L 288.90592 308.680105 
L 291.195245 308.680105 
L 291.195245 306.779115 
L 295.625103 306.779115 
L 295.625103 304.878125 
L 303.945699 304.878125 
L 303.945699 303.92763 
L 305.923832 303.92763 
L 305.923832 301.076145 
L 307.864285 301.076145 
L 307.864285 300.12565 
L 309.768465 300.12565 
L 309.768465 298.22466 
L 311.637704 298.22466 
L 311.637704 294.422679 
L 313.473261 294.422679 
L 313.473261 293.472184 
L 315.276329 293.472184 
L 315.276329 292.521689 
L 317.048038 292.521689 
L 317.048038 288.719709 
L 318.789459 288.719709 
L 318.789459 287.769214 
L 320.501611 287.769214 
L 320.501611 285.868224 
L 322.185463 285.868224 
L 322.185463 283.967234 
L 323.841933 283.967234 
L 323.841933 282.066244 
L 327.076194 282.066244 
L 327.076194 281.115749 
L 328.655616 281.115749 
L 328.655616 280.165254 
L 330.210924 280.165254 
L 330.210924 279.214759 
L 333.252065 279.214759 
L 333.252065 278.264264 
L 334.739254 278.264264 
L 334.739254 277.313769 
L 340.479966 277.313769 
L 340.479966 276.363274 
L 341.865983 276.363274 
L 341.865983 275.412778 
L 343.233395 275.412778 
L 343.233395 274.462283 
L 345.914357 274.462283 
L 345.914357 273.511788 
L 347.228835 273.511788 
L 347.228835 270.660303 
L 349.807978 270.660303 
L 349.807978 266.858323 
L 354.778264 266.858323 
L 354.778264 265.907828 
L 355.983849 265.907828 
L 355.983849 264.957333 
L 357.175332 264.957333 
L 357.175332 263.056343 
L 358.353041 263.056343 
L 358.353041 262.105848 
L 360.668383 262.105848 
L 360.668383 261.155353 
L 362.932269 261.155353 
L 362.932269 260.204858 
L 372.539761 260.204858 
L 372.539761 259.254363 
L 373.553408 259.254363 
L 373.553408 258.303868 
L 376.535202 258.303868 
L 376.535202 257.353373 
L 379.432193 257.353373 
L 379.432193 255.452382 
L 383.170986 255.452382 
L 383.170986 254.501887 
L 384.990154 254.501887 
L 384.990154 253.551392 
L 385.887698 253.551392 
L 385.887698 252.600897 
L 386.777404 252.600897 
L 386.777404 251.650402 
L 388.533839 251.650402 
L 388.533839 250.699907 
L 403.111618 250.699907 
L 403.111618 249.749412 
L 403.863434 249.749412 
L 403.863434 248.798917 
L 405.350624 248.798917 
L 405.350624 247.848422 
L 406.086155 247.848422 
L 406.086155 246.897927 
L 408.261413 246.897927 
L 408.261413 245.947432 
L 411.091335 245.947432 
L 411.091335 244.996937 
L 411.786701 244.996937 
L 411.786701 244.046442 
L 412.477352 244.046442 
L 412.477352 243.095947 
L 415.194065 243.095947 
L 415.194065 242.145452 
L 415.862071 242.145452 
L 415.862071 241.194957 
L 417.185086 241.194957 
L 417.185086 240.244462 
L 418.491138 240.244462 
L 418.491138 239.293967 
L 419.137938 239.293967 
L 419.137938 238.343472 
L 424.169611 238.343472 
L 424.169611 237.392976 
L 424.781449 237.392976 
L 424.781449 236.442481 
L 427.192702 236.442481 
L 427.192702 235.491986 
L 428.96441 235.491986 
L 428.96441 234.541491 
L 432.982366 234.541491 
L 432.982366 233.590996 
L 436.30453 233.590996 
L 436.30453 232.640501 
L 438.460604 232.640501 
L 438.460604 231.690006 
L 440.048231 231.690006 
L 440.048231 230.739511 
L 443.659215 230.739511 
L 443.659215 229.789016 
L 445.666584 229.789016 
L 445.666584 228.838521 
L 448.121417 228.838521 
L 448.121417 226.937531 
L 448.605365 226.937531 
L 448.605365 225.987036 
L 450.043563 225.987036 
L 450.043563 225.036541 
L 452.396339 225.036541 
L 452.396339 224.086046 
L 452.860443 224.086046 
L 452.860443 223.135551 
L 455.601523 223.135551 
L 455.601523 222.185056 
L 456.944892 222.185056 
L 456.944892 221.234561 
L 457.83073 221.234561 
L 457.83073 220.284066 
L 460.871871 220.284066 
L 460.871871 219.333571 
L 466.289584 219.333571 
L 466.289584 218.383075 
L 467.900221 218.383075 
L 467.900221 217.43258 
L 472.965581 217.43258 
L 472.965581 216.482085 
L 475.961993 216.482085 
L 475.961993 214.581095 
L 476.330423 214.581095 
L 476.330423 213.6306 
L 479.943237 213.6306 
L 479.943237 212.680105 
L 481.353234 212.680105 
L 481.353234 211.72961 
L 482.39807 211.72961 
L 482.39807 209.82862 
L 483.774722 209.82862 
L 483.774722 208.878125 
L 486.805809 208.878125 
L 486.805809 207.92763 
L 489.102507 207.92763 
L 489.102507 206.977135 
L 490.071174 206.977135 
L 490.071174 205.076145 
L 491.030716 205.076145 
L 491.030716 204.12565 
L 491.981305 204.12565 
L 491.981305 202.22466 
L 492.296207 202.22466 
L 492.296207 201.274165 
L 496.605579 201.274165 
L 496.605579 200.32367 
L 501.317201 200.32367 
L 501.317201 199.373175 
L 501.604566 199.373175 
L 501.604566 198.422679 
L 501.891122 198.422679 
L 501.891122 197.472184 
L 503.311935 197.472184 
L 503.311935 196.521689 
L 505.820505 196.521689 
L 505.820505 195.571194 
L 506.643153 195.571194 
L 506.643153 194.620699 
L 511.183358 194.620699 
L 511.183358 193.670204 
L 511.44423 193.670204 
L 511.44423 192.719709 
L 512.738666 192.719709 
L 512.738666 191.769214 
L 512.738666 191.769214 
L 513.7625 191.769214 
L 513.7625 191.769214 
" style="fill:none;stroke:#000000;stroke-linecap:square;"/>
   </g>
   <g id="line2d_32"/>
   <g id="line2d_33">
    <path clip-path="url(#p198cd10d0a)" d="M 330.210924 359.056343 
L 330.210924 358.105848 
L 340.479966 358.105848 
L 340.479966 357.155353 
L 341.865983 357.155353 
L 341.865983 356.204858 
L 344.582695 356.204858 
L 344.582695 355.254363 
L 344.582695 355.254363 
L 344.582695 354.303868 
L 351.073468 354.303868 
L 351.073468 353.353373 
L 354.778264 353.353373 
L 354.778264 352.402877 
L 359.51729 352.402877 
L 359.51729 351.452382 
L 368.381197 351.452382 
L 368.381197 350.501887 
L 374.557068 350.501887 
L 374.557068 349.551392 
L 374.557068 349.551392 
L 374.557068 348.600897 
L 375.550936 348.600897 
L 375.550936 347.650402 
L 405.350624 347.650402 
L 405.350624 346.699907 
L 408.261413 346.699907 
L 408.261413 345.749412 
L 418.491138 345.749412 
L 418.491138 344.798917 
L 434.65699 344.798917 
L 434.65699 343.848422 
L 445.168438 343.848422 
L 445.168438 342.897927 
L 450.518485 342.897927 
L 450.518485 341.947432 
L 464.239803 341.947432 
L 464.239803 340.996937 
L 473.722987 340.996937 
L 473.722987 340.046442 
L 476.697525 340.046442 
L 476.697525 339.095947 
L 484.795138 339.095947 
L 484.795138 338.145452 
L 486.473441 338.145452 
L 486.473441 337.194957 
L 489.102507 337.194957 
L 489.102507 336.244462 
L 489.749307 336.244462 
L 489.749307 335.293967 
L 491.665427 335.293967 
L 491.665427 334.343472 
L 491.665427 334.343472 
L 491.665427 333.392976 
L 492.923105 333.392976 
L 492.923105 332.442481 
L 494.165446 332.442481 
L 494.165446 331.491986 
L 500.450211 331.491986 
L 500.450211 330.541491 
L 500.740028 330.541491 
L 500.740028 329.590996 
L 504.99116 329.590996 
L 504.99116 328.640501 
L 507.729784 328.640501 
L 507.729784 327.690006 
L 507.99964 327.690006 
L 507.99964 326.739511 
L 509.338302 326.739511 
L 509.338302 325.789016 
L 509.338302 325.789016 
L 509.338302 325.789016 
L 513.7625 325.789016 
" style="fill:none;stroke:#00bfbf;stroke-linecap:square;"/>
   </g>
   <g id="line2d_34"/>
   <g id="line2d_35">
    <path clip-path="url(#p198cd10d0a)" d="M 330.210924 359.056343 
L 330.210924 358.105848 
L 340.479966 358.105848 
L 340.479966 357.155353 
L 341.865983 357.155353 
L 341.865983 356.204858 
L 344.582695 356.204858 
L 344.582695 355.254363 
L 351.073468 355.254363 
L 351.073468 354.303868 
L 354.778264 354.303868 
L 354.778264 353.353373 
L 357.175332 353.353373 
L 357.175332 352.402877 
L 359.51729 352.402877 
L 359.51729 351.452382 
L 368.381197 351.452382 
L 368.381197 350.501887 
L 374.557068 350.501887 
L 374.557068 349.551392 
L 374.557068 349.551392 
L 374.557068 348.600897 
L 375.550936 348.600897 
L 375.550936 347.650402 
L 405.350624 347.650402 
L 405.350624 346.699907 
L 408.261413 346.699907 
L 408.261413 345.749412 
L 418.491138 345.749412 
L 418.491138 344.798917 
L 418.491138 344.798917 
L 418.491138 344.798917 
L 513.7625 344.798917 
" style="fill:none;stroke:#bf00bf;stroke-linecap:square;"/>
   </g>
   <g id="line2d_36"/>
   <g id="line2d_37">
    <path clip-path="url(#p198cd10d0a)" d="M 330.210924 359.056343 
L 330.210924 358.105848 
L 340.479966 358.105848 
L 340.479966 357.155353 
L 341.865983 357.155353 
L 341.865983 356.204858 
L 344.582695 356.204858 
L 344.582695 355.254363 
L 351.073468 355.254363 
L 351.073468 354.303868 
L 354.778264 354.303868 
L 354.778264 353.353373 
L 357.175332 353.353373 
L 357.175332 352.402877 
L 359.51729 352.402877 
L 359.51729 351.452382 
L 368.381197 351.452382 
L 368.381197 350.501887 
L 374.557068 350.501887 
L 374.557068 349.551392 
L 374.557068 349.551392 
L 374.557068 348.600897 
L 375.550936 348.600897 
L 375.550936 347.650402 
L 405.350624 347.650402 
L 405.350624 346.699907 
L 408.261413 346.699907 
L 408.261413 345.749412 
L 418.491138 345.749412 
L 418.491138 344.798917 
L 418.491138 344.798917 
L 418.491138 344.798917 
L 513.7625 344.798917 
" style="fill:none;stroke:#ff0000;stroke-linecap:square;stroke-width:3.0;"/>
   </g>
   <g id="line2d_38"/>
   <g id="line2d_39">
    <path clip-path="url(#p198cd10d0a)" d="M 513.7625 359.056343 
L 513.7625 13.456343 
" style="fill:none;stroke:#000000;stroke-linecap:square;"/>
   </g>
   <g id="patch_3">
    <path d="M 67.3625 13.456343 
L 513.7625 13.456343 
" style="fill:none;stroke:#000000;stroke-linecap:square;stroke-linejoin:miter;"/>
   </g>
   <g id="patch_4">
    <path d="M 513.7625 359.056343 
L 513.7625 13.456343 
" style="fill:none;stroke:#000000;stroke-linecap:square;stroke-linejoin:miter;"/>
   </g>
   <g id="patch_5">
    <path d="M 67.3625 359.056343 
L 513.7625 359.056343 
" style="fill:none;stroke:#000000;stroke-linecap:square;stroke-linejoin:miter;"/>
   </g>
   <g id="patch_6">
    <path d="M 67.3625 359.056343 
L 67.3625 13.456343 
" style="fill:none;stroke:#000000;stroke-linecap:square;stroke-linejoin:miter;"/>
   </g>
   <g id="matplotlib.axis_1">
    <g id="xtick_1">
     <g id="line2d_40">
      <path clip-path="url(#p198cd10d0a)" d="M 67.3625 359.056343 
L 67.3625 13.456343 
" style="fill:none;stroke:#000000;stroke-dasharray:1.000000,3.000000;stroke-dashoffset:0.0;stroke-width:0.5;"/>
     </g>
     <g id="line2d_41">
      <defs>
       <path d="M 0 0 
L 0 -4 
" id="mbea54e8d2b" style="stroke:#000000;stroke-width:0.5;"/>
      </defs>
      <g>
       <use style="stroke:#000000;stroke-width:0.5;" x="67.3625" xlink:href="#mbea54e8d2b" y="359.056342822"/>
      </g>
     </g>
     <g id="line2d_42">
      <defs>
       <path d="M 0 0 
L 0 4 
" id="m0b99893e4a" style="stroke:#000000;stroke-width:0.5;"/>
      </defs>
      <g>
       <use style="stroke:#000000;stroke-width:0.5;" x="67.3625" xlink:href="#m0b99893e4a" y="13.4563428218"/>
      </g>
     </g>
     <g id="text_1">
      <!-- 0 -->
      <defs>
       <path d="M 31.78125 66.40625 
Q 24.171875 66.40625 20.328125 58.90625 
Q 16.5 51.421875 16.5 36.375 
Q 16.5 21.390625 20.328125 13.890625 
Q 24.171875 6.390625 31.78125 6.390625 
Q 39.453125 6.390625 43.28125 13.890625 
Q 47.125 21.390625 47.125 36.375 
Q 47.125 51.421875 43.28125 58.90625 
Q 39.453125 66.40625 31.78125 66.40625 
M 31.78125 74.21875 
Q 44.046875 74.21875 50.515625 64.515625 
Q 56.984375 54.828125 56.984375 36.375 
Q 56.984375 17.96875 50.515625 8.265625 
Q 44.046875 -1.421875 31.78125 -1.421875 
Q 19.53125 -1.421875 13.0625 8.265625 
Q 6.59375 17.96875 6.59375 36.375 
Q 6.59375 54.828125 13.0625 64.515625 
Q 19.53125 74.21875 31.78125 74.21875 
" id="BitstreamVeraSans-Roman-30"/>
      </defs>
      <g transform="translate(61.0 378.253217822)scale(0.2 -0.2)">
       <use xlink:href="#BitstreamVeraSans-Roman-30"/>
      </g>
     </g>
    </g>
    <g id="xtick_2">
     <g id="line2d_43">
      <path clip-path="url(#p198cd10d0a)" d="M 301.928392 359.056343 
L 301.928392 13.456343 
" style="fill:none;stroke:#000000;stroke-dasharray:1.000000,3.000000;stroke-dashoffset:0.0;stroke-width:0.5;"/>
     </g>
     <g id="line2d_44">
      <g>
       <use style="stroke:#000000;stroke-width:0.5;" x="301.928391813" xlink:href="#mbea54e8d2b" y="359.056342822"/>
      </g>
     </g>
     <g id="line2d_45">
      <g>
       <use style="stroke:#000000;stroke-width:0.5;" x="301.928391813" xlink:href="#m0b99893e4a" y="13.4563428218"/>
      </g>
     </g>
     <g id="text_2">
      <!-- 1 -->
      <defs>
       <path d="M 12.40625 8.296875 
L 28.515625 8.296875 
L 28.515625 63.921875 
L 10.984375 60.40625 
L 10.984375 69.390625 
L 28.421875 72.90625 
L 38.28125 72.90625 
L 38.28125 8.296875 
L 54.390625 8.296875 
L 54.390625 0 
L 12.40625 0 
z
" id="BitstreamVeraSans-Roman-31"/>
      </defs>
      <g transform="translate(295.565891813 378.253217822)scale(0.2 -0.2)">
       <use xlink:href="#BitstreamVeraSans-Roman-31"/>
      </g>
     </g>
    </g>
    <g id="xtick_3">
     <g id="line2d_46">
      <defs>
       <path d="M 0 0 
L 0 -2 
" id="mddb63f4b8f" style="stroke:#000000;stroke-width:0.5;"/>
      </defs>
      <g>
       <use style="stroke:#000000;stroke-width:0.5;" x="137.973869396" xlink:href="#mddb63f4b8f" y="359.056342822"/>
      </g>
     </g>
     <g id="line2d_47">
      <defs>
       <path d="M 0 0 
L 0 2 
" id="m479c714010" style="stroke:#000000;stroke-width:0.5;"/>
      </defs>
      <g>
       <use style="stroke:#000000;stroke-width:0.5;" x="137.973869396" xlink:href="#m479c714010" y="13.4563428218"/>
      </g>
     </g>
    </g>
    <g id="xtick_4">
     <g id="line2d_48">
      <g>
       <use style="stroke:#000000;stroke-width:0.5;" x="179.278872616" xlink:href="#mddb63f4b8f" y="359.056342822"/>
      </g>
     </g>
     <g id="line2d_49">
      <g>
       <use style="stroke:#000000;stroke-width:0.5;" x="179.278872616" xlink:href="#m479c714010" y="13.4563428218"/>
      </g>
     </g>
    </g>
    <g id="xtick_5">
     <g id="line2d_50">
      <g>
       <use style="stroke:#000000;stroke-width:0.5;" x="208.585238791" xlink:href="#mddb63f4b8f" y="359.056342822"/>
      </g>
     </g>
     <g id="line2d_51">
      <g>
       <use style="stroke:#000000;stroke-width:0.5;" x="208.585238791" xlink:href="#m479c714010" y="13.4563428218"/>
      </g>
     </g>
    </g>
    <g id="xtick_6">
     <g id="line2d_52">
      <g>
       <use style="stroke:#000000;stroke-width:0.5;" x="231.317022418" xlink:href="#mddb63f4b8f" y="359.056342822"/>
      </g>
     </g>
     <g id="line2d_53">
      <g>
       <use style="stroke:#000000;stroke-width:0.5;" x="231.317022418" xlink:href="#m479c714010" y="13.4563428218"/>
      </g>
     </g>
    </g>
    <g id="xtick_7">
     <g id="line2d_54">
      <g>
       <use style="stroke:#000000;stroke-width:0.5;" x="249.890242012" xlink:href="#mddb63f4b8f" y="359.056342822"/>
      </g>
     </g>
     <g id="line2d_55">
      <g>
       <use style="stroke:#000000;stroke-width:0.5;" x="249.890242012" xlink:href="#m479c714010" y="13.4563428218"/>
      </g>
     </g>
    </g>
    <g id="xtick_8">
     <g id="line2d_56">
      <g>
       <use style="stroke:#000000;stroke-width:0.5;" x="265.593675426" xlink:href="#mddb63f4b8f" y="359.056342822"/>
      </g>
     </g>
     <g id="line2d_57">
      <g>
       <use style="stroke:#000000;stroke-width:0.5;" x="265.593675426" xlink:href="#m479c714010" y="13.4563428218"/>
      </g>
     </g>
    </g>
    <g id="xtick_9">
     <g id="line2d_58">
      <g>
       <use style="stroke:#000000;stroke-width:0.5;" x="279.196608187" xlink:href="#mddb63f4b8f" y="359.056342822"/>
      </g>
     </g>
     <g id="line2d_59">
      <g>
       <use style="stroke:#000000;stroke-width:0.5;" x="279.196608187" xlink:href="#m479c714010" y="13.4563428218"/>
      </g>
     </g>
    </g>
    <g id="xtick_10">
     <g id="line2d_60">
      <g>
       <use style="stroke:#000000;stroke-width:0.5;" x="291.195245233" xlink:href="#mddb63f4b8f" y="359.056342822"/>
      </g>
     </g>
     <g id="line2d_61">
      <g>
       <use style="stroke:#000000;stroke-width:0.5;" x="291.195245233" xlink:href="#m479c714010" y="13.4563428218"/>
      </g>
     </g>
    </g>
    <g id="xtick_11">
     <g id="line2d_62">
      <g>
       <use style="stroke:#000000;stroke-width:0.5;" x="372.539761209" xlink:href="#mddb63f4b8f" y="359.056342822"/>
      </g>
     </g>
     <g id="line2d_63">
      <g>
       <use style="stroke:#000000;stroke-width:0.5;" x="372.539761209" xlink:href="#m479c714010" y="13.4563428218"/>
      </g>
     </g>
    </g>
    <g id="xtick_12">
     <g id="line2d_64">
      <g>
       <use style="stroke:#000000;stroke-width:0.5;" x="413.84476443" xlink:href="#mddb63f4b8f" y="359.056342822"/>
      </g>
     </g>
     <g id="line2d_65">
      <g>
       <use style="stroke:#000000;stroke-width:0.5;" x="413.84476443" xlink:href="#m479c714010" y="13.4563428218"/>
      </g>
     </g>
    </g>
    <g id="xtick_13">
     <g id="line2d_66">
      <g>
       <use style="stroke:#000000;stroke-width:0.5;" x="443.151130604" xlink:href="#mddb63f4b8f" y="359.056342822"/>
      </g>
     </g>
     <g id="line2d_67">
      <g>
       <use style="stroke:#000000;stroke-width:0.5;" x="443.151130604" xlink:href="#m479c714010" y="13.4563428218"/>
      </g>
     </g>
    </g>
    <g id="xtick_14">
     <g id="line2d_68">
      <g>
       <use style="stroke:#000000;stroke-width:0.5;" x="465.882914231" xlink:href="#mddb63f4b8f" y="359.056342822"/>
      </g>
     </g>
     <g id="line2d_69">
      <g>
       <use style="stroke:#000000;stroke-width:0.5;" x="465.882914231" xlink:href="#m479c714010" y="13.4563428218"/>
      </g>
     </g>
    </g>
    <g id="xtick_15">
     <g id="line2d_70">
      <g>
       <use style="stroke:#000000;stroke-width:0.5;" x="484.456133825" xlink:href="#mddb63f4b8f" y="359.056342822"/>
      </g>
     </g>
     <g id="line2d_71">
      <g>
       <use style="stroke:#000000;stroke-width:0.5;" x="484.456133825" xlink:href="#m479c714010" y="13.4563428218"/>
      </g>
     </g>
    </g>
    <g id="xtick_16">
     <g id="line2d_72">
      <g>
       <use style="stroke:#000000;stroke-width:0.5;" x="500.159567239" xlink:href="#mddb63f4b8f" y="359.056342822"/>
      </g>
     </g>
     <g id="line2d_73">
      <g>
       <use style="stroke:#000000;stroke-width:0.5;" x="500.159567239" xlink:href="#m479c714010" y="13.4563428218"/>
      </g>
     </g>
    </g>
    <g id="xtick_17">
     <g id="line2d_74">
      <g>
       <use style="stroke:#000000;stroke-width:0.5;" x="513.7625" xlink:href="#mddb63f4b8f" y="359.056342822"/>
      </g>
     </g>
     <g id="line2d_75">
      <g>
       <use style="stroke:#000000;stroke-width:0.5;" x="513.7625" xlink:href="#m479c714010" y="13.4563428218"/>
      </g>
     </g>
    </g>
    <g id="text_3">
     <!-- log10 of FEvals / DIM -->
     <defs>
      <path id="BitstreamVeraSans-Roman-20"/>
      <path d="M 9.8125 72.90625 
L 24.515625 72.90625 
L 43.109375 23.296875 
L 61.8125 72.90625 
L 76.515625 72.90625 
L 76.515625 0 
L 66.890625 0 
L 66.890625 64.015625 
L 48.09375 14.015625 
L 38.1875 14.015625 
L 19.390625 64.015625 
L 19.390625 0 
L 9.8125 0 
z
" id="BitstreamVeraSans-Roman-4d"/>
      <path d="M 30.609375 48.390625 
Q 23.390625 48.390625 19.1875 42.75 
Q 14.984375 37.109375 14.984375 27.296875 
Q 14.984375 17.484375 19.15625 11.84375 
Q 23.34375 6.203125 30.609375 6.203125 
Q 37.796875 6.203125 41.984375 11.859375 
Q 46.1875 17.53125 46.1875 27.296875 
Q 46.1875 37.015625 41.984375 42.703125 
Q 37.796875 48.390625 30.609375 48.390625 
M 30.609375 56 
Q 42.328125 56 49.015625 48.375 
Q 55.71875 40.765625 55.71875 27.296875 
Q 55.71875 13.875 49.015625 6.21875 
Q 42.328125 -1.421875 30.609375 -1.421875 
Q 18.84375 -1.421875 12.171875 6.21875 
Q 5.515625 13.875 5.515625 27.296875 
Q 5.515625 40.765625 12.171875 48.375 
Q 18.84375 56 30.609375 56 
" id="BitstreamVeraSans-Roman-6f"/>
      <path d="M 9.421875 75.984375 
L 18.40625 75.984375 
L 18.40625 0 
L 9.421875 0 
z
" id="BitstreamVeraSans-Roman-6c"/>
      <path d="M 9.8125 72.90625 
L 51.703125 72.90625 
L 51.703125 64.59375 
L 19.671875 64.59375 
L 19.671875 43.109375 
L 48.578125 43.109375 
L 48.578125 34.8125 
L 19.671875 34.8125 
L 19.671875 0 
L 9.8125 0 
z
" id="BitstreamVeraSans-Roman-46"/>
      <path d="M 9.8125 72.90625 
L 55.90625 72.90625 
L 55.90625 64.59375 
L 19.671875 64.59375 
L 19.671875 43.015625 
L 54.390625 43.015625 
L 54.390625 34.71875 
L 19.671875 34.71875 
L 19.671875 8.296875 
L 56.78125 8.296875 
L 56.78125 0 
L 9.8125 0 
z
" id="BitstreamVeraSans-Roman-45"/>
      <path d="M 19.671875 64.796875 
L 19.671875 8.109375 
L 31.59375 8.109375 
Q 46.6875 8.109375 53.6875 14.9375 
Q 60.6875 21.78125 60.6875 36.53125 
Q 60.6875 51.171875 53.6875 57.984375 
Q 46.6875 64.796875 31.59375 64.796875 
z
M 9.8125 72.90625 
L 30.078125 72.90625 
Q 51.265625 72.90625 61.171875 64.09375 
Q 71.09375 55.28125 71.09375 36.53125 
Q 71.09375 17.671875 61.125 8.828125 
Q 51.171875 0 30.078125 0 
L 9.8125 0 
z
" id="BitstreamVeraSans-Roman-44"/>
      <path d="M 25.390625 72.90625 
L 33.6875 72.90625 
L 8.296875 -9.28125 
L 0 -9.28125 
z
" id="BitstreamVeraSans-Roman-2f"/>
      <path d="M 2.984375 54.6875 
L 12.5 54.6875 
L 29.59375 8.796875 
L 46.6875 54.6875 
L 56.203125 54.6875 
L 35.6875 0 
L 23.484375 0 
z
" id="BitstreamVeraSans-Roman-76"/>
      <path d="M 45.40625 27.984375 
Q 45.40625 37.75 41.375 43.109375 
Q 37.359375 48.484375 30.078125 48.484375 
Q 22.859375 48.484375 18.828125 43.109375 
Q 14.796875 37.75 14.796875 27.984375 
Q 14.796875 18.265625 18.828125 12.890625 
Q 22.859375 7.515625 30.078125 7.515625 
Q 37.359375 7.515625 41.375 12.890625 
Q 45.40625 18.265625 45.40625 27.984375 
M 54.390625 6.78125 
Q 54.390625 -7.171875 48.1875 -13.984375 
Q 42 -20.796875 29.203125 -20.796875 
Q 24.46875 -20.796875 20.265625 -20.09375 
Q 16.0625 -19.390625 12.109375 -17.921875 
L 12.109375 -9.1875 
Q 16.0625 -11.328125 19.921875 -12.34375 
Q 23.78125 -13.375 27.78125 -13.375 
Q 36.625 -13.375 41.015625 -8.765625 
Q 45.40625 -4.15625 45.40625 5.171875 
L 45.40625 9.625 
Q 42.625 4.78125 38.28125 2.390625 
Q 33.9375 0 27.875 0 
Q 17.828125 0 11.671875 7.65625 
Q 5.515625 15.328125 5.515625 27.984375 
Q 5.515625 40.671875 11.671875 48.328125 
Q 17.828125 56 27.875 56 
Q 33.9375 56 38.28125 53.609375 
Q 42.625 51.21875 45.40625 46.390625 
L 45.40625 54.6875 
L 54.390625 54.6875 
z
" id="BitstreamVeraSans-Roman-67"/>
      <path d="M 37.109375 75.984375 
L 37.109375 68.5 
L 28.515625 68.5 
Q 23.6875 68.5 21.796875 66.546875 
Q 19.921875 64.59375 19.921875 59.515625 
L 19.921875 54.6875 
L 34.71875 54.6875 
L 34.71875 47.703125 
L 19.921875 47.703125 
L 19.921875 0 
L 10.890625 0 
L 10.890625 47.703125 
L 2.296875 47.703125 
L 2.296875 54.6875 
L 10.890625 54.6875 
L 10.890625 58.5 
Q 10.890625 67.625 15.140625 71.796875 
Q 19.390625 75.984375 28.609375 75.984375 
z
" id="BitstreamVeraSans-Roman-66"/>
      <path d="M 34.28125 27.484375 
Q 23.390625 27.484375 19.1875 25 
Q 14.984375 22.515625 14.984375 16.5 
Q 14.984375 11.71875 18.140625 8.90625 
Q 21.296875 6.109375 26.703125 6.109375 
Q 34.1875 6.109375 38.703125 11.40625 
Q 43.21875 16.703125 43.21875 25.484375 
L 43.21875 27.484375 
z
M 52.203125 31.203125 
L 52.203125 0 
L 43.21875 0 
L 43.21875 8.296875 
Q 40.140625 3.328125 35.546875 0.953125 
Q 30.953125 -1.421875 24.3125 -1.421875 
Q 15.921875 -1.421875 10.953125 3.296875 
Q 6 8.015625 6 15.921875 
Q 6 25.140625 12.171875 29.828125 
Q 18.359375 34.515625 30.609375 34.515625 
L 43.21875 34.515625 
L 43.21875 35.40625 
Q 43.21875 41.609375 39.140625 45 
Q 35.0625 48.390625 27.6875 48.390625 
Q 23 48.390625 18.546875 47.265625 
Q 14.109375 46.140625 10.015625 43.890625 
L 10.015625 52.203125 
Q 14.9375 54.109375 19.578125 55.046875 
Q 24.21875 56 28.609375 56 
Q 40.484375 56 46.34375 49.84375 
Q 52.203125 43.703125 52.203125 31.203125 
" id="BitstreamVeraSans-Roman-61"/>
      <path d="M 44.28125 53.078125 
L 44.28125 44.578125 
Q 40.484375 46.53125 36.375 47.5 
Q 32.28125 48.484375 27.875 48.484375 
Q 21.1875 48.484375 17.84375 46.4375 
Q 14.5 44.390625 14.5 40.28125 
Q 14.5 37.15625 16.890625 35.375 
Q 19.28125 33.59375 26.515625 31.984375 
L 29.59375 31.296875 
Q 39.15625 29.25 43.1875 25.515625 
Q 47.21875 21.78125 47.21875 15.09375 
Q 47.21875 7.46875 41.1875 3.015625 
Q 35.15625 -1.421875 24.609375 -1.421875 
Q 20.21875 -1.421875 15.453125 -0.5625 
Q 10.6875 0.296875 5.421875 2 
L 5.421875 11.28125 
Q 10.40625 8.6875 15.234375 7.390625 
Q 20.0625 6.109375 24.8125 6.109375 
Q 31.15625 6.109375 34.5625 8.28125 
Q 37.984375 10.453125 37.984375 14.40625 
Q 37.984375 18.0625 35.515625 20.015625 
Q 33.0625 21.96875 24.703125 23.78125 
L 21.578125 24.515625 
Q 13.234375 26.265625 9.515625 29.90625 
Q 5.8125 33.546875 5.8125 39.890625 
Q 5.8125 47.609375 11.28125 51.796875 
Q 16.75 56 26.8125 56 
Q 31.78125 56 36.171875 55.265625 
Q 40.578125 54.546875 44.28125 53.078125 
" id="BitstreamVeraSans-Roman-73"/>
      <path d="M 9.8125 72.90625 
L 19.671875 72.90625 
L 19.671875 0 
L 9.8125 0 
z
" id="BitstreamVeraSans-Roman-49"/>
     </defs>
     <g transform="translate(185.4890625 402.609467822)scale(0.2 -0.2)">
      <use xlink:href="#BitstreamVeraSans-Roman-6c"/>
      <use x="27.783203125" xlink:href="#BitstreamVeraSans-Roman-6f"/>
      <use x="88.96484375" xlink:href="#BitstreamVeraSans-Roman-67"/>
      <use x="152.44140625" xlink:href="#BitstreamVeraSans-Roman-31"/>
      <use x="216.064453125" xlink:href="#BitstreamVeraSans-Roman-30"/>
      <use x="279.6875" xlink:href="#BitstreamVeraSans-Roman-20"/>
      <use x="311.474609375" xlink:href="#BitstreamVeraSans-Roman-6f"/>
      <use x="372.65625" xlink:href="#BitstreamVeraSans-Roman-66"/>
      <use x="407.861328125" xlink:href="#BitstreamVeraSans-Roman-20"/>
      <use x="439.6484375" xlink:href="#BitstreamVeraSans-Roman-46"/>
      <use x="497.16796875" xlink:href="#BitstreamVeraSans-Roman-45"/>
      <use x="560.3515625" xlink:href="#BitstreamVeraSans-Roman-76"/>
      <use x="619.53125" xlink:href="#BitstreamVeraSans-Roman-61"/>
      <use x="680.810546875" xlink:href="#BitstreamVeraSans-Roman-6c"/>
      <use x="708.59375" xlink:href="#BitstreamVeraSans-Roman-73"/>
      <use x="760.693359375" xlink:href="#BitstreamVeraSans-Roman-20"/>
      <use x="792.48046875" xlink:href="#BitstreamVeraSans-Roman-2f"/>
      <use x="826.171875" xlink:href="#BitstreamVeraSans-Roman-20"/>
      <use x="857.958984375" xlink:href="#BitstreamVeraSans-Roman-44"/>
      <use x="934.9609375" xlink:href="#BitstreamVeraSans-Roman-49"/>
      <use x="964.453125" xlink:href="#BitstreamVeraSans-Roman-4d"/>
     </g>
    </g>
   </g>
   <g id="matplotlib.axis_2">
    <g id="ytick_1">
     <g id="line2d_76">
      <path clip-path="url(#p198cd10d0a)" d="M 67.3625 359.056343 
L 513.7625 359.056343 
" style="fill:none;stroke:#000000;stroke-dasharray:1.000000,3.000000;stroke-dashoffset:0.0;stroke-width:0.5;"/>
     </g>
     <g id="line2d_77">
      <defs>
       <path d="M 0 0 
L 4 0 
" id="m3dadf16c7c" style="stroke:#000000;stroke-width:0.5;"/>
      </defs>
      <g>
       <use style="stroke:#000000;stroke-width:0.5;" x="67.3625" xlink:href="#m3dadf16c7c" y="359.056342822"/>
      </g>
     </g>
     <g id="line2d_78">
      <defs>
       <path d="M 0 0 
L -4 0 
" id="m27859d1d6e" style="stroke:#000000;stroke-width:0.5;"/>
      </defs>
      <g>
       <use style="stroke:#000000;stroke-width:0.5;" x="513.7625" xlink:href="#m27859d1d6e" y="359.056342822"/>
      </g>
     </g>
     <g id="text_4">
      <!-- 0.0 -->
      <defs>
       <path d="M 10.6875 12.40625 
L 21 12.40625 
L 21 0 
L 10.6875 0 
z
" id="BitstreamVeraSans-Roman-2e"/>
      </defs>
      <g transform="translate(31.55625 364.575092822)scale(0.2 -0.2)">
       <use xlink:href="#BitstreamVeraSans-Roman-30"/>
       <use x="63.623046875" xlink:href="#BitstreamVeraSans-Roman-2e"/>
       <use x="95.41015625" xlink:href="#BitstreamVeraSans-Roman-30"/>
      </g>
     </g>
    </g>
    <g id="ytick_2">
     <g id="line2d_79">
      <path clip-path="url(#p198cd10d0a)" d="M 67.3625 290.620699 
L 513.7625 290.620699 
" style="fill:none;stroke:#000000;stroke-dasharray:1.000000,3.000000;stroke-dashoffset:0.0;stroke-width:0.5;"/>
     </g>
     <g id="line2d_80">
      <g>
       <use style="stroke:#000000;stroke-width:0.5;" x="67.3625" xlink:href="#m3dadf16c7c" y="290.620699257"/>
      </g>
     </g>
     <g id="line2d_81">
      <g>
       <use style="stroke:#000000;stroke-width:0.5;" x="513.7625" xlink:href="#m27859d1d6e" y="290.620699257"/>
      </g>
     </g>
     <g id="text_5">
      <!-- 0.2 -->
      <defs>
       <path d="M 19.1875 8.296875 
L 53.609375 8.296875 
L 53.609375 0 
L 7.328125 0 
L 7.328125 8.296875 
Q 12.9375 14.109375 22.625 23.890625 
Q 32.328125 33.6875 34.8125 36.53125 
Q 39.546875 41.84375 41.421875 45.53125 
Q 43.3125 49.21875 43.3125 52.78125 
Q 43.3125 58.59375 39.234375 62.25 
Q 35.15625 65.921875 28.609375 65.921875 
Q 23.96875 65.921875 18.8125 64.3125 
Q 13.671875 62.703125 7.8125 59.421875 
L 7.8125 69.390625 
Q 13.765625 71.78125 18.9375 73 
Q 24.125 74.21875 28.421875 74.21875 
Q 39.75 74.21875 46.484375 68.546875 
Q 53.21875 62.890625 53.21875 53.421875 
Q 53.21875 48.921875 51.53125 44.890625 
Q 49.859375 40.875 45.40625 35.40625 
Q 44.1875 33.984375 37.640625 27.21875 
Q 31.109375 20.453125 19.1875 8.296875 
" id="BitstreamVeraSans-Roman-32"/>
      </defs>
      <g transform="translate(31.55625 296.139449257)scale(0.2 -0.2)">
       <use xlink:href="#BitstreamVeraSans-Roman-30"/>
       <use x="63.623046875" xlink:href="#BitstreamVeraSans-Roman-2e"/>
       <use x="95.41015625" xlink:href="#BitstreamVeraSans-Roman-32"/>
      </g>
     </g>
    </g>
    <g id="ytick_3">
     <g id="line2d_82">
      <path clip-path="url(#p198cd10d0a)" d="M 67.3625 222.185056 
L 513.7625 222.185056 
" style="fill:none;stroke:#000000;stroke-dasharray:1.000000,3.000000;stroke-dashoffset:0.0;stroke-width:0.5;"/>
     </g>
     <g id="line2d_83">
      <g>
       <use style="stroke:#000000;stroke-width:0.5;" x="67.3625" xlink:href="#m3dadf16c7c" y="222.185055693"/>
      </g>
     </g>
     <g id="line2d_84">
      <g>
       <use style="stroke:#000000;stroke-width:0.5;" x="513.7625" xlink:href="#m27859d1d6e" y="222.185055693"/>
      </g>
     </g>
     <g id="text_6">
      <!-- 0.4 -->
      <defs>
       <path d="M 37.796875 64.3125 
L 12.890625 25.390625 
L 37.796875 25.390625 
z
M 35.203125 72.90625 
L 47.609375 72.90625 
L 47.609375 25.390625 
L 58.015625 25.390625 
L 58.015625 17.1875 
L 47.609375 17.1875 
L 47.609375 0 
L 37.796875 0 
L 37.796875 17.1875 
L 4.890625 17.1875 
L 4.890625 26.703125 
z
" id="BitstreamVeraSans-Roman-34"/>
      </defs>
      <g transform="translate(31.55625 227.703805693)scale(0.2 -0.2)">
       <use xlink:href="#BitstreamVeraSans-Roman-30"/>
       <use x="63.623046875" xlink:href="#BitstreamVeraSans-Roman-2e"/>
       <use x="95.41015625" xlink:href="#BitstreamVeraSans-Roman-34"/>
      </g>
     </g>
    </g>
    <g id="ytick_4">
     <g id="line2d_85">
      <path clip-path="url(#p198cd10d0a)" d="M 67.3625 153.749412 
L 513.7625 153.749412 
" style="fill:none;stroke:#000000;stroke-dasharray:1.000000,3.000000;stroke-dashoffset:0.0;stroke-width:0.5;"/>
     </g>
     <g id="line2d_86">
      <g>
       <use style="stroke:#000000;stroke-width:0.5;" x="67.3625" xlink:href="#m3dadf16c7c" y="153.749412129"/>
      </g>
     </g>
     <g id="line2d_87">
      <g>
       <use style="stroke:#000000;stroke-width:0.5;" x="513.7625" xlink:href="#m27859d1d6e" y="153.749412129"/>
      </g>
     </g>
     <g id="text_7">
      <!-- 0.6 -->
      <defs>
       <path d="M 33.015625 40.375 
Q 26.375 40.375 22.484375 35.828125 
Q 18.609375 31.296875 18.609375 23.390625 
Q 18.609375 15.53125 22.484375 10.953125 
Q 26.375 6.390625 33.015625 6.390625 
Q 39.65625 6.390625 43.53125 10.953125 
Q 47.40625 15.53125 47.40625 23.390625 
Q 47.40625 31.296875 43.53125 35.828125 
Q 39.65625 40.375 33.015625 40.375 
M 52.59375 71.296875 
L 52.59375 62.3125 
Q 48.875 64.0625 45.09375 64.984375 
Q 41.3125 65.921875 37.59375 65.921875 
Q 27.828125 65.921875 22.671875 59.328125 
Q 17.53125 52.734375 16.796875 39.40625 
Q 19.671875 43.65625 24.015625 45.921875 
Q 28.375 48.1875 33.59375 48.1875 
Q 44.578125 48.1875 50.953125 41.515625 
Q 57.328125 34.859375 57.328125 23.390625 
Q 57.328125 12.15625 50.6875 5.359375 
Q 44.046875 -1.421875 33.015625 -1.421875 
Q 20.359375 -1.421875 13.671875 8.265625 
Q 6.984375 17.96875 6.984375 36.375 
Q 6.984375 53.65625 15.1875 63.9375 
Q 23.390625 74.21875 37.203125 74.21875 
Q 40.921875 74.21875 44.703125 73.484375 
Q 48.484375 72.75 52.59375 71.296875 
" id="BitstreamVeraSans-Roman-36"/>
      </defs>
      <g transform="translate(31.55625 159.268162129)scale(0.2 -0.2)">
       <use xlink:href="#BitstreamVeraSans-Roman-30"/>
       <use x="63.623046875" xlink:href="#BitstreamVeraSans-Roman-2e"/>
       <use x="95.41015625" xlink:href="#BitstreamVeraSans-Roman-36"/>
      </g>
     </g>
    </g>
    <g id="ytick_5">
     <g id="line2d_88">
      <path clip-path="url(#p198cd10d0a)" d="M 67.3625 85.313769 
L 513.7625 85.313769 
" style="fill:none;stroke:#000000;stroke-dasharray:1.000000,3.000000;stroke-dashoffset:0.0;stroke-width:0.5;"/>
     </g>
     <g id="line2d_89">
      <g>
       <use style="stroke:#000000;stroke-width:0.5;" x="67.3625" xlink:href="#m3dadf16c7c" y="85.3137685644"/>
      </g>
     </g>
     <g id="line2d_90">
      <g>
       <use style="stroke:#000000;stroke-width:0.5;" x="513.7625" xlink:href="#m27859d1d6e" y="85.3137685644"/>
      </g>
     </g>
     <g id="text_8">
      <!-- 0.8 -->
      <defs>
       <path d="M 31.78125 34.625 
Q 24.75 34.625 20.71875 30.859375 
Q 16.703125 27.09375 16.703125 20.515625 
Q 16.703125 13.921875 20.71875 10.15625 
Q 24.75 6.390625 31.78125 6.390625 
Q 38.8125 6.390625 42.859375 10.171875 
Q 46.921875 13.96875 46.921875 20.515625 
Q 46.921875 27.09375 42.890625 30.859375 
Q 38.875 34.625 31.78125 34.625 
M 21.921875 38.8125 
Q 15.578125 40.375 12.03125 44.71875 
Q 8.5 49.078125 8.5 55.328125 
Q 8.5 64.0625 14.71875 69.140625 
Q 20.953125 74.21875 31.78125 74.21875 
Q 42.671875 74.21875 48.875 69.140625 
Q 55.078125 64.0625 55.078125 55.328125 
Q 55.078125 49.078125 51.53125 44.71875 
Q 48 40.375 41.703125 38.8125 
Q 48.828125 37.15625 52.796875 32.3125 
Q 56.78125 27.484375 56.78125 20.515625 
Q 56.78125 9.90625 50.3125 4.234375 
Q 43.84375 -1.421875 31.78125 -1.421875 
Q 19.734375 -1.421875 13.25 4.234375 
Q 6.78125 9.90625 6.78125 20.515625 
Q 6.78125 27.484375 10.78125 32.3125 
Q 14.796875 37.15625 21.921875 38.8125 
M 18.3125 54.390625 
Q 18.3125 48.734375 21.84375 45.5625 
Q 25.390625 42.390625 31.78125 42.390625 
Q 38.140625 42.390625 41.71875 45.5625 
Q 45.3125 48.734375 45.3125 54.390625 
Q 45.3125 60.0625 41.71875 63.234375 
Q 38.140625 66.40625 31.78125 66.40625 
Q 25.390625 66.40625 21.84375 63.234375 
Q 18.3125 60.0625 18.3125 54.390625 
" id="BitstreamVeraSans-Roman-38"/>
      </defs>
      <g transform="translate(31.55625 90.8325185644)scale(0.2 -0.2)">
       <use xlink:href="#BitstreamVeraSans-Roman-30"/>
       <use x="63.623046875" xlink:href="#BitstreamVeraSans-Roman-2e"/>
       <use x="95.41015625" xlink:href="#BitstreamVeraSans-Roman-38"/>
      </g>
     </g>
    </g>
    <g id="ytick_6">
     <g id="line2d_91">
      <path clip-path="url(#p198cd10d0a)" d="M 67.3625 16.878125 
L 513.7625 16.878125 
" style="fill:none;stroke:#000000;stroke-dasharray:1.000000,3.000000;stroke-dashoffset:0.0;stroke-width:0.5;"/>
     </g>
     <g id="line2d_92">
      <g>
       <use style="stroke:#000000;stroke-width:0.5;" x="67.3625" xlink:href="#m3dadf16c7c" y="16.878125"/>
      </g>
     </g>
     <g id="line2d_93">
      <g>
       <use style="stroke:#000000;stroke-width:0.5;" x="513.7625" xlink:href="#m27859d1d6e" y="16.878125"/>
      </g>
     </g>
     <g id="text_9">
      <!-- 1.0 -->
      <g transform="translate(31.55625 22.396875)scale(0.2 -0.2)">
       <use xlink:href="#BitstreamVeraSans-Roman-31"/>
       <use x="63.623046875" xlink:href="#BitstreamVeraSans-Roman-2e"/>
       <use x="95.41015625" xlink:href="#BitstreamVeraSans-Roman-30"/>
      </g>
     </g>
    </g>
    <g id="text_10">
     <!-- proportion of trials -->
     <defs>
      <path d="M 54.890625 33.015625 
L 54.890625 0 
L 45.90625 0 
L 45.90625 32.71875 
Q 45.90625 40.484375 42.875 44.328125 
Q 39.84375 48.1875 33.796875 48.1875 
Q 26.515625 48.1875 22.3125 43.546875 
Q 18.109375 38.921875 18.109375 30.90625 
L 18.109375 0 
L 9.078125 0 
L 9.078125 54.6875 
L 18.109375 54.6875 
L 18.109375 46.1875 
Q 21.34375 51.125 25.703125 53.5625 
Q 30.078125 56 35.796875 56 
Q 45.21875 56 50.046875 50.171875 
Q 54.890625 44.34375 54.890625 33.015625 
" id="BitstreamVeraSans-Roman-6e"/>
      <path d="M 9.421875 54.6875 
L 18.40625 54.6875 
L 18.40625 0 
L 9.421875 0 
z
M 9.421875 75.984375 
L 18.40625 75.984375 
L 18.40625 64.59375 
L 9.421875 64.59375 
z
" id="BitstreamVeraSans-Roman-69"/>
      <path d="M 18.3125 70.21875 
L 18.3125 54.6875 
L 36.8125 54.6875 
L 36.8125 47.703125 
L 18.3125 47.703125 
L 18.3125 18.015625 
Q 18.3125 11.328125 20.140625 9.421875 
Q 21.96875 7.515625 27.59375 7.515625 
L 36.8125 7.515625 
L 36.8125 0 
L 27.59375 0 
Q 17.1875 0 13.234375 3.875 
Q 9.28125 7.765625 9.28125 18.015625 
L 9.28125 47.703125 
L 2.6875 47.703125 
L 2.6875 54.6875 
L 9.28125 54.6875 
L 9.28125 70.21875 
z
" id="BitstreamVeraSans-Roman-74"/>
      <path d="M 41.109375 46.296875 
Q 39.59375 47.171875 37.8125 47.578125 
Q 36.03125 48 33.890625 48 
Q 26.265625 48 22.1875 43.046875 
Q 18.109375 38.09375 18.109375 28.8125 
L 18.109375 0 
L 9.078125 0 
L 9.078125 54.6875 
L 18.109375 54.6875 
L 18.109375 46.1875 
Q 20.953125 51.171875 25.484375 53.578125 
Q 30.03125 56 36.53125 56 
Q 37.453125 56 38.578125 55.875 
Q 39.703125 55.765625 41.0625 55.515625 
z
" id="BitstreamVeraSans-Roman-72"/>
      <path d="M 18.109375 8.203125 
L 18.109375 -20.796875 
L 9.078125 -20.796875 
L 9.078125 54.6875 
L 18.109375 54.6875 
L 18.109375 46.390625 
Q 20.953125 51.265625 25.265625 53.625 
Q 29.59375 56 35.59375 56 
Q 45.5625 56 51.78125 48.09375 
Q 58.015625 40.1875 58.015625 27.296875 
Q 58.015625 14.40625 51.78125 6.484375 
Q 45.5625 -1.421875 35.59375 -1.421875 
Q 29.59375 -1.421875 25.265625 0.953125 
Q 20.953125 3.328125 18.109375 8.203125 
M 48.6875 27.296875 
Q 48.6875 37.203125 44.609375 42.84375 
Q 40.53125 48.484375 33.40625 48.484375 
Q 26.265625 48.484375 22.1875 42.84375 
Q 18.109375 37.203125 18.109375 27.296875 
Q 18.109375 17.390625 22.1875 11.75 
Q 26.265625 6.109375 33.40625 6.109375 
Q 40.53125 6.109375 44.609375 11.75 
Q 48.6875 17.390625 48.6875 27.296875 
" id="BitstreamVeraSans-Roman-70"/>
     </defs>
     <g transform="translate(22.396875 279.484467822)rotate(-90.0)scale(0.2 -0.2)">
      <use xlink:href="#BitstreamVeraSans-Roman-70"/>
      <use x="63.4765625" xlink:href="#BitstreamVeraSans-Roman-72"/>
      <use x="104.55859375" xlink:href="#BitstreamVeraSans-Roman-6f"/>
      <use x="165.740234375" xlink:href="#BitstreamVeraSans-Roman-70"/>
      <use x="229.216796875" xlink:href="#BitstreamVeraSans-Roman-6f"/>
      <use x="290.3984375" xlink:href="#BitstreamVeraSans-Roman-72"/>
      <use x="331.51171875" xlink:href="#BitstreamVeraSans-Roman-74"/>
      <use x="370.720703125" xlink:href="#BitstreamVeraSans-Roman-69"/>
      <use x="398.50390625" xlink:href="#BitstreamVeraSans-Roman-6f"/>
      <use x="459.685546875" xlink:href="#BitstreamVeraSans-Roman-6e"/>
      <use x="523.064453125" xlink:href="#BitstreamVeraSans-Roman-20"/>
      <use x="554.8515625" xlink:href="#BitstreamVeraSans-Roman-6f"/>
      <use x="616.033203125" xlink:href="#BitstreamVeraSans-Roman-66"/>
      <use x="651.23828125" xlink:href="#BitstreamVeraSans-Roman-20"/>
      <use x="683.025390625" xlink:href="#BitstreamVeraSans-Roman-74"/>
      <use x="722.234375" xlink:href="#BitstreamVeraSans-Roman-72"/>
      <use x="763.34765625" xlink:href="#BitstreamVeraSans-Roman-69"/>
      <use x="791.130859375" xlink:href="#BitstreamVeraSans-Roman-61"/>
      <use x="852.41015625" xlink:href="#BitstreamVeraSans-Roman-6c"/>
      <use x="880.193359375" xlink:href="#BitstreamVeraSans-Roman-73"/>
     </g>
    </g>
   </g>
   <g id="text_11">
    <!-- {f1-f24}, 5-D -->
    <defs>
     <path d="M 11.71875 12.40625 
L 22.015625 12.40625 
L 22.015625 4 
L 14.015625 -11.625 
L 7.71875 -11.625 
L 11.71875 4 
z
" id="BitstreamVeraSans-Roman-2c"/>
     <path d="M 12.5 -9.28125 
L 15.921875 -9.28125 
Q 22.75 -9.28125 24.828125 -7.171875 
Q 26.90625 -5.078125 26.90625 1.90625 
L 26.90625 14.015625 
Q 26.90625 21.625 29.09375 25.09375 
Q 31.296875 28.5625 36.71875 29.890625 
Q 31.296875 31.109375 29.09375 34.5625 
Q 26.90625 38.03125 26.90625 45.703125 
L 26.90625 57.8125 
Q 26.90625 64.75 24.828125 66.875 
Q 22.75 69 15.921875 69 
L 12.5 69 
L 12.5 75.984375 
L 15.578125 75.984375 
Q 27.734375 75.984375 31.8125 72.390625 
Q 35.890625 68.796875 35.890625 58.015625 
L 35.890625 46.296875 
Q 35.890625 39.015625 38.515625 36.203125 
Q 41.15625 33.40625 48.09375 33.40625 
L 51.125 33.40625 
L 51.125 26.421875 
L 48.09375 26.421875 
Q 41.15625 26.421875 38.515625 23.578125 
Q 35.890625 20.75 35.890625 13.375 
L 35.890625 1.703125 
Q 35.890625 -9.078125 31.8125 -12.6875 
Q 27.734375 -16.3125 15.578125 -16.3125 
L 12.5 -16.3125 
z
" id="BitstreamVeraSans-Roman-7d"/>
     <path d="M 51.125 -9.28125 
L 51.125 -16.3125 
L 48.09375 -16.3125 
Q 35.9375 -16.3125 31.8125 -12.6875 
Q 27.6875 -9.078125 27.6875 1.703125 
L 27.6875 13.375 
Q 27.6875 20.75 25.046875 23.578125 
Q 22.40625 26.421875 15.484375 26.421875 
L 12.5 26.421875 
L 12.5 33.40625 
L 15.484375 33.40625 
Q 22.46875 33.40625 25.078125 36.203125 
Q 27.6875 39.015625 27.6875 46.296875 
L 27.6875 58.015625 
Q 27.6875 68.796875 31.8125 72.390625 
Q 35.9375 75.984375 48.09375 75.984375 
L 51.125 75.984375 
L 51.125 69 
L 47.796875 69 
Q 40.921875 69 38.8125 66.84375 
Q 36.71875 64.703125 36.71875 57.8125 
L 36.71875 45.703125 
Q 36.71875 38.03125 34.5 34.5625 
Q 32.28125 31.109375 26.90625 29.890625 
Q 32.328125 28.5625 34.515625 25.09375 
Q 36.71875 21.625 36.71875 14.015625 
L 36.71875 1.90625 
Q 36.71875 -4.984375 38.8125 -7.125 
Q 40.921875 -9.28125 47.796875 -9.28125 
z
" id="BitstreamVeraSans-Roman-7b"/>
     <path d="M 4.890625 31.390625 
L 31.203125 31.390625 
L 31.203125 23.390625 
L 4.890625 23.390625 
z
" id="BitstreamVeraSans-Roman-2d"/>
     <path d="M 10.796875 72.90625 
L 49.515625 72.90625 
L 49.515625 64.59375 
L 19.828125 64.59375 
L 19.828125 46.734375 
Q 21.96875 47.46875 24.109375 47.828125 
Q 26.265625 48.1875 28.421875 48.1875 
Q 40.625 48.1875 47.75 41.5 
Q 54.890625 34.8125 54.890625 23.390625 
Q 54.890625 11.625 47.5625 5.09375 
Q 40.234375 -1.421875 26.90625 -1.421875 
Q 22.3125 -1.421875 17.546875 -0.640625 
Q 12.796875 0.140625 7.71875 1.703125 
L 7.71875 11.625 
Q 12.109375 9.234375 16.796875 8.0625 
Q 21.484375 6.890625 26.703125 6.890625 
Q 35.15625 6.890625 40.078125 11.328125 
Q 45.015625 15.765625 45.015625 23.390625 
Q 45.015625 31 40.078125 35.4375 
Q 35.15625 39.890625 26.703125 39.890625 
Q 22.75 39.890625 18.8125 39.015625 
Q 14.890625 38.140625 10.796875 36.28125 
z
" id="BitstreamVeraSans-Roman-35"/>
    </defs>
    <g transform="translate(224.075 35.5652178218)scale(0.2 -0.2)">
     <use xlink:href="#BitstreamVeraSans-Roman-7b"/>
     <use x="63.623046875" xlink:href="#BitstreamVeraSans-Roman-66"/>
     <use x="98.828125" xlink:href="#BitstreamVeraSans-Roman-31"/>
     <use x="162.451171875" xlink:href="#BitstreamVeraSans-Roman-2d"/>
     <use x="198.53515625" xlink:href="#BitstreamVeraSans-Roman-66"/>
     <use x="233.740234375" xlink:href="#BitstreamVeraSans-Roman-32"/>
     <use x="297.36328125" xlink:href="#BitstreamVeraSans-Roman-34"/>
     <use x="360.986328125" xlink:href="#BitstreamVeraSans-Roman-7d"/>
     <use x="424.609375" xlink:href="#BitstreamVeraSans-Roman-2c"/>
     <use x="456.396484375" xlink:href="#BitstreamVeraSans-Roman-20"/>
     <use x="488.18359375" xlink:href="#BitstreamVeraSans-Roman-35"/>
     <use x="551.806640625" xlink:href="#BitstreamVeraSans-Roman-2d"/>
     <use x="587.890625" xlink:href="#BitstreamVeraSans-Roman-44"/>
    </g>
   </g>
   <g id="text_12">
    <!-- absolute targets -->
    <defs>
     <path d="M 56.203125 29.59375 
L 56.203125 25.203125 
L 14.890625 25.203125 
Q 15.484375 15.921875 20.484375 11.0625 
Q 25.484375 6.203125 34.421875 6.203125 
Q 39.59375 6.203125 44.453125 7.46875 
Q 49.3125 8.734375 54.109375 11.28125 
L 54.109375 2.78125 
Q 49.265625 0.734375 44.1875 -0.34375 
Q 39.109375 -1.421875 33.890625 -1.421875 
Q 20.796875 -1.421875 13.15625 6.1875 
Q 5.515625 13.8125 5.515625 26.8125 
Q 5.515625 40.234375 12.765625 48.109375 
Q 20.015625 56 32.328125 56 
Q 43.359375 56 49.78125 48.890625 
Q 56.203125 41.796875 56.203125 29.59375 
M 47.21875 32.234375 
Q 47.125 39.59375 43.09375 43.984375 
Q 39.0625 48.390625 32.421875 48.390625 
Q 24.90625 48.390625 20.390625 44.140625 
Q 15.875 39.890625 15.1875 32.171875 
z
" id="BitstreamVeraSans-Roman-65"/>
     <path d="M 8.5 21.578125 
L 8.5 54.6875 
L 17.484375 54.6875 
L 17.484375 21.921875 
Q 17.484375 14.15625 20.5 10.265625 
Q 23.53125 6.390625 29.59375 6.390625 
Q 36.859375 6.390625 41.078125 11.03125 
Q 45.3125 15.671875 45.3125 23.6875 
L 45.3125 54.6875 
L 54.296875 54.6875 
L 54.296875 0 
L 45.3125 0 
L 45.3125 8.40625 
Q 42.046875 3.421875 37.71875 1 
Q 33.40625 -1.421875 27.6875 -1.421875 
Q 18.265625 -1.421875 13.375 4.4375 
Q 8.5 10.296875 8.5 21.578125 
" id="BitstreamVeraSans-Roman-75"/>
     <path d="M 48.6875 27.296875 
Q 48.6875 37.203125 44.609375 42.84375 
Q 40.53125 48.484375 33.40625 48.484375 
Q 26.265625 48.484375 22.1875 42.84375 
Q 18.109375 37.203125 18.109375 27.296875 
Q 18.109375 17.390625 22.1875 11.75 
Q 26.265625 6.109375 33.40625 6.109375 
Q 40.53125 6.109375 44.609375 11.75 
Q 48.6875 17.390625 48.6875 27.296875 
M 18.109375 46.390625 
Q 20.953125 51.265625 25.265625 53.625 
Q 29.59375 56 35.59375 56 
Q 45.5625 56 51.78125 48.09375 
Q 58.015625 40.1875 58.015625 27.296875 
Q 58.015625 14.40625 51.78125 6.484375 
Q 45.5625 -1.421875 35.59375 -1.421875 
Q 29.59375 -1.421875 25.265625 0.953125 
Q 20.953125 3.328125 18.109375 8.203125 
L 18.109375 0 
L 9.078125 0 
L 9.078125 75.984375 
L 18.109375 75.984375 
z
" id="BitstreamVeraSans-Roman-62"/>
    </defs>
    <g transform="translate(67.3625 359.056342822)scale(0.14 -0.14)">
     <use xlink:href="#BitstreamVeraSans-Roman-61"/>
     <use x="61.279296875" xlink:href="#BitstreamVeraSans-Roman-62"/>
     <use x="124.755859375" xlink:href="#BitstreamVeraSans-Roman-73"/>
     <use x="176.85546875" xlink:href="#BitstreamVeraSans-Roman-6f"/>
     <use x="238.037109375" xlink:href="#BitstreamVeraSans-Roman-6c"/>
     <use x="265.8203125" xlink:href="#BitstreamVeraSans-Roman-75"/>
     <use x="329.19921875" xlink:href="#BitstreamVeraSans-Roman-74"/>
     <use x="368.408203125" xlink:href="#BitstreamVeraSans-Roman-65"/>
     <use x="429.931640625" xlink:href="#BitstreamVeraSans-Roman-20"/>
     <use x="461.71875" xlink:href="#BitstreamVeraSans-Roman-74"/>
     <use x="500.927734375" xlink:href="#BitstreamVeraSans-Roman-61"/>
     <use x="562.20703125" xlink:href="#BitstreamVeraSans-Roman-72"/>
     <use x="603.3046875" xlink:href="#BitstreamVeraSans-Roman-67"/>
     <use x="666.78125" xlink:href="#BitstreamVeraSans-Roman-65"/>
     <use x="728.3046875" xlink:href="#BitstreamVeraSans-Roman-74"/>
     <use x="767.513671875" xlink:href="#BitstreamVeraSans-Roman-73"/>
    </g>
   </g>
   <g id="text_13">
    <!-- 0.0.0 -->
    <g style="fill:#808080;" transform="translate(277.840625 353.520655322)scale(0.1 -0.1)">
     <use xlink:href="#BitstreamVeraSans-Roman-30"/>
     <use x="63.623046875" xlink:href="#BitstreamVeraSans-Roman-2e"/>
     <use x="95.41015625" xlink:href="#BitstreamVeraSans-Roman-30"/>
     <use x="159.033203125" xlink:href="#BitstreamVeraSans-Roman-2e"/>
     <use x="190.8203125" xlink:href="#BitstreamVeraSans-Roman-30"/>
    </g>
   </g>
   <g id="legend_1">
    <g id="patch_7">
     <path d="M 348.30625 146.881343 
L 503.7625 146.881343 
L 503.7625 23.456343 
L 348.30625 23.456343 
z
" style="fill:#ffffff;opacity:0.2;stroke:#000000;stroke-linejoin:miter;"/>
    </g>
    <g id="line2d_94">
     <path d="M 362.30625 39.653218 
L 390.30625 39.653218 
" style="fill:none;stroke:#000000;stroke-linecap:square;"/>
    </g>
    <g id="line2d_95"/>
    <g id="text_14">
     <!-- 1: 17/24 -->
     <defs>
      <path d="M 11.71875 12.40625 
L 22.015625 12.40625 
L 22.015625 0 
L 11.71875 0 
z
M 11.71875 51.703125 
L 22.015625 51.703125 
L 22.015625 39.3125 
L 11.71875 39.3125 
z
" id="BitstreamVeraSans-Roman-3a"/>
      <path d="M 8.203125 72.90625 
L 55.078125 72.90625 
L 55.078125 68.703125 
L 28.609375 0 
L 18.3125 0 
L 43.21875 64.59375 
L 8.203125 64.59375 
z
" id="BitstreamVeraSans-Roman-37"/>
     </defs>
     <g transform="translate(412.30625 46.6532178218)scale(0.2 -0.2)">
      <use xlink:href="#BitstreamVeraSans-Roman-31"/>
      <use x="63.623046875" xlink:href="#BitstreamVeraSans-Roman-3a"/>
      <use x="97.314453125" xlink:href="#BitstreamVeraSans-Roman-20"/>
      <use x="129.1015625" xlink:href="#BitstreamVeraSans-Roman-31"/>
      <use x="192.724609375" xlink:href="#BitstreamVeraSans-Roman-37"/>
      <use x="256.34765625" xlink:href="#BitstreamVeraSans-Roman-2f"/>
      <use x="290.0390625" xlink:href="#BitstreamVeraSans-Roman-32"/>
      <use x="353.662109375" xlink:href="#BitstreamVeraSans-Roman-34"/>
     </g>
    </g>
    <g id="line2d_96">
     <path d="M 362.30625 69.009468 
L 390.30625 69.009468 
" style="fill:none;stroke:#00bfbf;stroke-linecap:square;"/>
    </g>
    <g id="line2d_97"/>
    <g id="text_15">
     <!-- -1: 5/24 -->
     <g transform="translate(412.30625 76.0094678218)scale(0.2 -0.2)">
      <use xlink:href="#BitstreamVeraSans-Roman-2d"/>
      <use x="36.083984375" xlink:href="#BitstreamVeraSans-Roman-31"/>
      <use x="99.70703125" xlink:href="#BitstreamVeraSans-Roman-3a"/>
      <use x="133.3984375" xlink:href="#BitstreamVeraSans-Roman-20"/>
      <use x="165.185546875" xlink:href="#BitstreamVeraSans-Roman-35"/>
      <use x="228.80859375" xlink:href="#BitstreamVeraSans-Roman-2f"/>
      <use x="262.5" xlink:href="#BitstreamVeraSans-Roman-32"/>
      <use x="326.123046875" xlink:href="#BitstreamVeraSans-Roman-34"/>
     </g>
    </g>
    <g id="line2d_98">
     <path d="M 362.30625 98.365718 
L 390.30625 98.365718 
" style="fill:none;stroke:#bf00bf;stroke-linecap:square;"/>
    </g>
    <g id="line2d_99"/>
    <g id="text_16">
     <!-- -4: 1/24 -->
     <g transform="translate(412.30625 105.365717822)scale(0.2 -0.2)">
      <use xlink:href="#BitstreamVeraSans-Roman-2d"/>
      <use x="36.083984375" xlink:href="#BitstreamVeraSans-Roman-34"/>
      <use x="99.70703125" xlink:href="#BitstreamVeraSans-Roman-3a"/>
      <use x="133.3984375" xlink:href="#BitstreamVeraSans-Roman-20"/>
      <use x="165.185546875" xlink:href="#BitstreamVeraSans-Roman-31"/>
      <use x="228.80859375" xlink:href="#BitstreamVeraSans-Roman-2f"/>
      <use x="262.5" xlink:href="#BitstreamVeraSans-Roman-32"/>
      <use x="326.123046875" xlink:href="#BitstreamVeraSans-Roman-34"/>
     </g>
    </g>
    <g id="line2d_100">
     <path d="M 362.30625 127.721968 
L 390.30625 127.721968 
" style="fill:none;stroke:#ff0000;stroke-linecap:square;stroke-width:3.0;"/>
    </g>
    <g id="line2d_101"/>
    <g id="text_17">
     <!-- -8: 1/24 -->
     <g transform="translate(412.30625 134.721967822)scale(0.2 -0.2)">
      <use xlink:href="#BitstreamVeraSans-Roman-2d"/>
      <use x="36.083984375" xlink:href="#BitstreamVeraSans-Roman-38"/>
      <use x="99.70703125" xlink:href="#BitstreamVeraSans-Roman-3a"/>
      <use x="133.3984375" xlink:href="#BitstreamVeraSans-Roman-20"/>
      <use x="165.185546875" xlink:href="#BitstreamVeraSans-Roman-31"/>
      <use x="228.80859375" xlink:href="#BitstreamVeraSans-Roman-2f"/>
      <use x="262.5" xlink:href="#BitstreamVeraSans-Roman-32"/>
      <use x="326.123046875" xlink:href="#BitstreamVeraSans-Roman-34"/>
     </g>
    </g>
   </g>
  </g>
 </g>
 <defs>
  <clipPath id="p198cd10d0a">
   <rect height="345.6" width="446.4" x="67.3625" y="13.4563428218"/>
  </clipPath>
 </defs>
</svg>
