<?xml version="1.0" encoding="utf-8" standalone="no"?>
<!DOCTYPE svg PUBLIC "-//W3C//DTD SVG 1.1//EN"
  "http://www.w3.org/Graphics/SVG/1.1/DTD/svg11.dtd">
<!-- Created with matplotlib (http://matplotlib.org/) -->
<svg height="407pt" version="1.1" viewBox="0 0 460 407" width="460pt" xmlns="http://www.w3.org/2000/svg" xmlns:xlink="http://www.w3.org/1999/xlink">
 <defs>
  <style type="text/css">
*{stroke-linecap:butt;stroke-linejoin:round;stroke-miterlimit:100000;}
  </style>
 </defs>
 <g id="figure_1">
  <g id="patch_1">
   <path d="M 0 407.7125 
L 460.8 407.7125 
L 460.8 0 
L 0 0 
z
" style="fill:#ffffff;"/>
  </g>
  <g id="axes_1">
   <g id="patch_2">
    <path d="M 7.2 352.8 
L 453.6 352.8 
L 453.6 7.2 
L 7.2 7.2 
z
" style="fill:#ffffff;"/>
   </g>
   <g id="line2d_1">
    <path clip-path="url(#p1b021dad3f)" d="M 246.818304 352.8 
L 246.818304 348.237624 
L 248.140931 348.237624 
L 248.140931 343.675248 
L 248.748485 343.675248 
L 248.748485 339.112871 
L 249.822619 339.112871 
L 249.822619 334.550495 
L 251.342129 334.550495 
L 251.342129 329.988119 
L 251.803446 329.988119 
L 251.84164 320.863366 
L 251.971728 320.863366 
L 251.971728 316.30099 
L 252.753216 316.30099 
L 252.753216 311.738614 
L 253.059678 311.738614 
L 253.059678 307.176238 
L 253.748725 307.176238 
L 253.836503 298.051485 
L 254.242517 298.051485 
L 254.242517 293.489109 
L 254.480682 293.489109 
L 254.510447 284.364356 
L 254.694941 284.364356 
L 254.694941 279.80198 
L 254.864072 279.80198 
L 254.915228 270.677228 
L 255.030716 270.677228 
L 255.030716 266.114851 
L 255.432619 266.114851 
L 255.432619 261.552475 
L 255.777826 261.552475 
L 255.777826 256.990099 
L 256.789373 256.990099 
L 256.789373 252.427723 
L 257.004335 252.427723 
L 257.01976 243.30297 
L 257.66861 243.30297 
L 257.754743 234.178218 
L 258.853379 234.178218 
L 258.866367 225.053465 
L 259.679504 225.053465 
L 259.679504 220.491089 
L 259.988824 220.491089 
L 259.988824 215.928713 
L 270.757751 215.928713 
L 270.757751 211.366337 
L 272.561462 211.366337 
L 272.561462 206.80396 
L 272.675668 206.80396 
L 272.675668 202.241584 
L 273.186222 202.241584 
L 273.186222 197.679208 
L 274.117414 197.679208 
L 274.163032 188.554455 
L 274.621648 188.554455 
L 274.621648 183.992079 
L 274.809103 183.992079 
L 274.809103 179.429703 
L 275.13744 179.429703 
L 275.13744 174.867327 
L 275.264403 174.867327 
L 275.311568 165.742574 
L 275.702214 165.742574 
L 275.702214 161.180198 
L 276.017659 161.180198 
L 276.041954 147.493069 
L 276.322837 147.493069 
L 276.322837 142.930693 
L 277.114329 142.930693 
L 277.114329 138.368317 
L 277.336011 138.368317 
L 277.336011 133.805941 
L 277.483148 133.805941 
L 277.483148 129.243564 
L 277.833621 129.243564 
L 277.833621 124.681188 
L 278.180163 124.681188 
L 278.180163 120.118812 
L 278.666472 120.118812 
L 278.666472 115.556436 
L 278.792585 115.556436 
L 278.820733 106.431683 
L 278.96843 106.431683 
L 278.96843 101.869307 
L 280.539026 101.869307 
L 280.539026 97.306931 
L 280.907934 97.306931 
L 280.907934 92.744554 
L 281.902324 92.744554 
L 281.902324 88.182178 
L 282.11661 88.182178 
L 282.11661 83.619802 
L 284.7867 83.619802 
L 284.7867 79.057426 
L 348.164991 79.057426 
L 348.164991 74.49505 
L 349.6807 74.49505 
L 349.6807 69.932673 
L 351.196631 69.932673 
L 351.196631 65.370297 
L 353.067676 65.370297 
L 353.067676 60.807921 
L 355.187818 60.807921 
L 355.187818 56.245545 
L 357.258109 56.245545 
L 357.258109 51.683168 
L 357.613394 51.683168 
L 357.613394 47.120792 
L 359.177245 47.120792 
L 359.177245 42.558416 
L 359.51444 42.558416 
L 359.51444 37.99604 
L 360.815198 37.99604 
L 360.815198 33.433663 
L 360.974371 33.433663 
L 360.974371 28.871287 
L 361.389588 28.871287 
L 361.389588 24.308911 
L 363.961711 24.308911 
L 363.961711 19.746535 
L 366.523393 19.746535 
L 366.523393 15.184158 
L 370.493571 15.184158 
L 370.493571 10.621782 
L 370.493571 10.621782 
L 453.6 10.621782 
L 453.6 10.621782 
" style="fill:none;stroke:#ff0000;stroke-linecap:square;stroke-width:3.0;"/>
   </g>
   <g id="line2d_2">
    <path clip-path="url(#p1b021dad3f)" d="M 256.907048 352.8 
L 256.907048 348.237624 
L 261.436389 348.237624 
L 261.436389 343.675248 
L 263.726137 343.675248 
L 263.726137 339.112871 
L 264.154436 339.112871 
L 264.154436 334.550495 
L 265.227728 334.550495 
L 265.279671 325.425743 
L 265.81884 325.425743 
L 265.81884 320.863366 
L 265.958661 320.863366 
L 265.974485 311.738614 
L 266.242182 311.738614 
L 266.278463 302.613861 
L 266.399886 302.613861 
L 266.399886 298.051485 
L 266.652665 298.051485 
L 266.652665 293.489109 
L 266.793922 293.489109 
L 266.793922 288.926733 
L 266.906407 288.926733 
L 266.906407 284.364356 
L 267.037455 284.364356 
L 267.037455 279.80198 
L 267.271885 279.80198 
L 267.271885 275.239604 
L 267.825667 275.239604 
L 267.903595 266.114851 
L 268.047978 266.114851 
L 268.047978 261.552475 
L 268.830546 261.552475 
L 268.856177 252.427723 
L 269.069096 252.427723 
L 269.117959 243.30297 
L 269.182333 243.30297 
L 269.182333 238.740594 
L 269.565723 238.740594 
L 269.565723 234.178218 
L 270.330203 234.178218 
L 270.330203 229.615842 
L 270.514026 229.615842 
L 270.514026 225.053465 
L 271.037046 225.053465 
L 271.072208 215.928713 
L 278.366569 215.928713 
L 278.366569 211.366337 
L 281.383634 211.366337 
L 281.383634 206.80396 
L 281.822325 206.80396 
L 281.822325 202.241584 
L 282.221071 202.241584 
L 282.221071 197.679208 
L 282.565586 197.679208 
L 282.565586 193.116832 
L 282.708509 193.116832 
L 282.708509 188.554455 
L 284.034751 188.554455 
L 284.034751 183.992079 
L 284.858452 183.992079 
L 284.91763 170.30495 
L 285.240417 170.30495 
L 285.240417 165.742574 
L 285.528185 165.742574 
L 285.528185 161.180198 
L 286.074773 161.180198 
L 286.074773 156.617822 
L 287.0566 156.617822 
L 287.0566 152.055446 
L 287.194487 152.055446 
L 287.194487 147.493069 
L 288.824279 147.493069 
L 288.824279 142.930693 
L 290.464933 142.930693 
L 290.464933 138.368317 
L 290.748566 138.368317 
L 290.748566 133.805941 
L 291.353346 133.805941 
L 291.353346 129.243564 
L 291.873622 129.243564 
L 291.873622 124.681188 
L 292.860166 124.681188 
L 292.860166 120.118812 
L 293.95483 120.118812 
L 293.95483 115.556436 
L 294.552652 115.556436 
L 294.552652 110.994059 
L 296.353118 110.994059 
L 296.353118 106.431683 
L 297.316534 106.431683 
L 297.316534 101.869307 
L 300.656025 101.869307 
L 300.656025 97.306931 
L 303.067424 97.306931 
L 303.067424 92.744554 
L 303.849552 92.744554 
L 303.849552 88.182178 
L 305.55415 88.182178 
L 305.55415 83.619802 
L 312.898683 83.619802 
L 312.898683 79.057426 
L 370.761923 79.057426 
L 370.761923 74.49505 
L 373.201219 74.49505 
L 373.201219 69.932673 
L 375.358399 69.932673 
L 375.358399 65.370297 
L 378.318568 65.370297 
L 378.318568 60.807921 
L 380.517724 60.807921 
L 380.576102 51.683168 
L 380.768872 51.683168 
L 380.768872 47.120792 
L 382.106586 47.120792 
L 382.106586 42.558416 
L 382.311885 42.558416 
L 382.414626 33.433663 
L 384.299465 33.433663 
L 384.299465 28.871287 
L 386.806833 28.871287 
L 386.806833 24.308911 
L 390.368847 24.308911 
L 390.368847 19.746535 
L 394.544118 19.746535 
L 394.544118 15.184158 
L 399.027965 15.184158 
L 399.027965 10.621782 
L 399.027965 10.621782 
L 453.6 10.621782 
L 453.6 10.621782 
" style="fill:none;stroke:#00bfbf;stroke-linecap:square;"/>
   </g>
   <g id="line2d_3">
    <path clip-path="url(#p1b021dad3f)" d="M 256.907048 352.8 
L 256.907048 348.237624 
L 261.302524 348.237624 
L 261.302524 343.675248 
L 263.726137 343.675248 
L 263.726137 339.112871 
L 264.039473 339.112871 
L 264.040623 329.988119 
L 264.154436 329.988119 
L 264.154436 325.425743 
L 264.479584 325.425743 
L 264.479584 320.863366 
L 265.227728 320.863366 
L 265.227728 316.30099 
L 265.457945 316.30099 
L 265.558147 307.176238 
L 265.602597 307.176238 
L 265.602597 302.613861 
L 265.81884 302.613861 
L 265.81884 298.051485 
L 265.974485 298.051485 
L 265.974485 293.489109 
L 266.254102 293.489109 
L 266.254102 288.926733 
L 266.365808 288.926733 
L 266.366669 279.80198 
L 266.555307 279.80198 
L 266.652665 270.677228 
L 266.793922 270.677228 
L 266.793922 266.114851 
L 266.906407 266.114851 
L 266.906407 261.552475 
L 267.098407 261.552475 
L 267.098407 256.990099 
L 267.271885 256.990099 
L 267.284225 247.865347 
L 268.047978 247.865347 
L 268.047978 243.30297 
L 268.194459 243.30297 
L 268.194459 238.740594 
L 269.069096 238.740594 
L 269.069096 234.178218 
L 270.330203 234.178218 
L 270.393877 225.053465 
L 270.927446 225.053465 
L 270.927446 220.491089 
L 271.072208 220.491089 
L 271.072208 215.928713 
L 278.366569 215.928713 
L 278.366569 211.366337 
L 280.204756 211.366337 
L 280.204756 206.80396 
L 280.964014 206.80396 
L 280.964014 202.241584 
L 281.383634 202.241584 
L 281.383634 197.679208 
L 281.536982 197.679208 
L 281.536982 193.116832 
L 282.172354 193.116832 
L 282.221071 183.992079 
L 282.708509 183.992079 
L 282.708509 179.429703 
L 283.443113 179.429703 
L 283.443113 174.867327 
L 284.034751 174.867327 
L 284.034751 170.30495 
L 284.858452 170.30495 
L 284.908457 161.180198 
L 285.063097 161.180198 
L 285.063097 156.617822 
L 285.528185 156.617822 
L 285.528185 152.055446 
L 286.074773 152.055446 
L 286.074773 147.493069 
L 286.940328 147.493069 
L 286.940328 142.930693 
L 287.0566 142.930693 
L 287.0566 138.368317 
L 288.233766 138.368317 
L 288.233766 133.805941 
L 289.28399 133.805941 
L 289.28399 129.243564 
L 289.451159 129.243564 
L 289.451159 124.681188 
L 289.83321 124.681188 
L 289.83321 120.118812 
L 290.464933 120.118812 
L 290.464933 115.556436 
L 291.954433 115.556436 
L 291.954433 110.994059 
L 292.1299 110.994059 
L 292.1299 106.431683 
L 292.659278 106.431683 
L 292.659278 101.869307 
L 293.95483 101.869307 
L 293.95483 97.306931 
L 296.740901 97.306931 
L 296.740901 92.744554 
L 297.900329 92.744554 
L 297.900329 88.182178 
L 304.883374 88.182178 
L 304.883374 83.619802 
L 309.830021 83.619802 
L 309.830021 79.057426 
L 370.193425 79.057426 
L 370.193425 74.49505 
L 370.761923 74.49505 
L 370.761923 69.932673 
L 371.705987 69.932673 
L 371.705987 65.370297 
L 373.201219 65.370297 
L 373.201219 60.807921 
L 375.069001 60.807921 
L 375.069001 56.245545 
L 377.917047 56.245545 
L 377.917047 51.683168 
L 379.163361 51.683168 
L 379.163361 47.120792 
L 380.576102 47.120792 
L 380.576102 42.558416 
L 380.768872 42.558416 
L 380.768872 37.99604 
L 382.106586 37.99604 
L 382.106586 33.433663 
L 382.414626 33.433663 
L 382.414626 28.871287 
L 382.767177 28.871287 
L 382.767177 24.308911 
L 388.613255 24.308911 
L 388.613255 19.746535 
L 390.368847 19.746535 
L 390.368847 15.184158 
L 394.041813 15.184158 
L 394.041813 10.621782 
L 394.041813 10.621782 
L 453.6 10.621782 
L 453.6 10.621782 
" style="fill:none;stroke:#bf00bf;stroke-linecap:square;"/>
   </g>
   <g id="line2d_4">
    <path clip-path="url(#p1b021dad3f)" d="M 256.907048 352.8 
L 256.907048 348.237624 
L 261.302524 348.237624 
L 261.302524 343.675248 
L 261.702428 343.675248 
L 261.702428 339.112871 
L 262.236266 339.112871 
L 262.236266 334.550495 
L 263.503838 334.550495 
L 263.503838 329.988119 
L 263.726137 329.988119 
L 263.726137 325.425743 
L 263.964264 325.425743 
L 264.040623 316.30099 
L 264.139608 316.30099 
L 264.139608 311.738614 
L 264.595611 311.738614 
L 264.595611 307.176238 
L 264.836162 307.176238 
L 264.836162 302.613861 
L 265.227728 302.613861 
L 265.227728 298.051485 
L 265.369039 298.051485 
L 265.457945 288.926733 
L 265.602597 288.926733 
L 265.602597 284.364356 
L 265.974485 284.364356 
L 265.974485 279.80198 
L 266.239481 279.80198 
L 266.254102 270.677228 
L 266.366669 270.677228 
L 266.366669 266.114851 
L 266.66138 266.114851 
L 266.66138 261.552475 
L 266.793922 261.552475 
L 266.793922 256.990099 
L 266.906407 256.990099 
L 266.906407 252.427723 
L 267.028792 252.427723 
L 267.028792 247.865347 
L 267.284225 247.865347 
L 267.322486 238.740594 
L 268.502487 238.740594 
L 268.502487 234.178218 
L 269.069096 234.178218 
L 269.069096 229.615842 
L 269.255253 229.615842 
L 269.281792 220.491089 
L 269.404261 220.491089 
L 269.404261 215.928713 
L 278.033029 215.928713 
L 278.033029 211.366337 
L 278.366569 211.366337 
L 278.366569 206.80396 
L 278.757196 206.80396 
L 278.757196 202.241584 
L 279.158014 202.241584 
L 279.195755 193.116832 
L 279.580724 193.116832 
L 279.580724 188.554455 
L 281.198805 188.554455 
L 281.198805 183.992079 
L 281.383634 183.992079 
L 281.410669 174.867327 
L 281.536982 174.867327 
L 281.536982 170.30495 
L 281.912058 170.30495 
L 281.912058 165.742574 
L 282.905451 165.742574 
L 282.905451 161.180198 
L 283.235453 161.180198 
L 283.235453 156.617822 
L 284.034751 156.617822 
L 284.034751 152.055446 
L 284.376236 152.055446 
L 284.376236 147.493069 
L 284.858452 147.493069 
L 284.858452 142.930693 
L 285.063097 142.930693 
L 285.063097 138.368317 
L 285.704926 138.368317 
L 285.704926 133.805941 
L 285.971356 133.805941 
L 285.971356 129.243564 
L 287.0566 129.243564 
L 287.059145 120.118812 
L 288.233766 120.118812 
L 288.233766 115.556436 
L 289.176164 115.556436 
L 289.176164 110.994059 
L 289.44306 110.994059 
L 289.44306 106.431683 
L 289.693033 106.431683 
L 289.693033 101.869307 
L 289.994076 101.869307 
L 289.994076 97.306931 
L 290.731739 97.306931 
L 290.731739 92.744554 
L 293.95483 92.744554 
L 293.95483 88.182178 
L 296.830151 88.182178 
L 296.830151 83.619802 
L 300.137944 83.619802 
L 300.137944 79.057426 
L 364.325956 79.057426 
L 364.325956 74.49505 
L 368.112266 74.49505 
L 368.112266 69.932673 
L 368.770501 69.932673 
L 368.770501 65.370297 
L 370.568004 65.370297 
L 370.568004 60.807921 
L 370.761923 60.807921 
L 370.761923 56.245545 
L 371.281825 56.245545 
L 371.281825 51.683168 
L 372.322408 51.683168 
L 372.322408 47.120792 
L 373.165083 47.120792 
L 373.165083 42.558416 
L 373.396708 42.558416 
L 373.396708 37.99604 
L 380.521314 37.99604 
L 380.521314 33.433663 
L 382.106586 33.433663 
L 382.201526 19.746535 
L 382.767177 19.746535 
L 382.767177 15.184158 
L 388.613255 15.184158 
L 388.613255 10.621782 
L 388.613255 10.621782 
L 453.6 10.621782 
L 453.6 10.621782 
" style="fill:none;stroke:#000000;stroke-linecap:square;"/>
   </g>
   <g id="line2d_5">
    <path clip-path="url(#p1b021dad3f)" d="M 255.789789 352.8 
L 255.789789 348.237624 
L 256.87233 348.237624 
L 256.87233 343.675248 
L 257.28623 343.675248 
L 257.28623 339.112871 
L 257.66861 339.112871 
L 257.66861 334.550495 
L 258.041927 334.550495 
L 258.041927 329.988119 
L 258.653948 329.988119 
L 258.653948 325.425743 
L 259.330249 325.425743 
L 259.330249 320.863366 
L 259.468063 320.863366 
L 259.468063 316.30099 
L 259.936706 316.30099 
L 259.936706 311.738614 
L 260.397802 311.738614 
L 260.397802 307.176238 
L 260.683838 307.176238 
L 260.683838 302.613861 
L 261.152982 302.613861 
L 261.246944 293.489109 
L 261.421348 293.489109 
L 261.421348 288.926733 
L 261.615655 288.926733 
L 261.615655 284.364356 
L 261.866983 284.364356 
L 261.930565 275.239604 
L 262.005357 275.239604 
L 262.005357 270.677228 
L 262.452812 270.677228 
L 262.504494 261.552475 
L 262.641836 261.552475 
L 262.641836 256.990099 
L 262.961131 256.990099 
L 262.961131 252.427723 
L 263.114666 252.427723 
L 263.114666 247.865347 
L 263.32342 247.865347 
L 263.32342 243.30297 
L 264.604441 243.30297 
L 264.604441 238.740594 
L 265.040233 238.740594 
L 265.040233 234.178218 
L 265.762323 234.178218 
L 265.762323 229.615842 
L 266.417486 229.615842 
L 266.417486 225.053465 
L 266.58845 225.053465 
L 266.58845 220.491089 
L 267.0926 220.491089 
L 267.0926 215.928713 
L 273.066065 215.928713 
L 273.066065 211.366337 
L 275.105662 211.366337 
L 275.105662 206.80396 
L 275.311568 206.80396 
L 275.311568 202.241584 
L 276.773028 202.241584 
L 276.773028 197.679208 
L 277.928148 197.679208 
L 277.928148 193.116832 
L 278.18556 193.116832 
L 278.18556 188.554455 
L 278.366569 188.554455 
L 278.366569 183.992079 
L 278.626387 183.992079 
L 278.626387 179.429703 
L 278.757196 179.429703 
L 278.757196 174.867327 
L 279.231149 174.867327 
L 279.231149 170.30495 
L 279.486862 170.30495 
L 279.486862 165.742574 
L 280.062551 165.742574 
L 280.119249 152.055446 
L 280.242876 152.055446 
L 280.242876 147.493069 
L 280.528686 147.493069 
L 280.528686 142.930693 
L 281.177841 142.930693 
L 281.177841 138.368317 
L 281.383634 138.368317 
L 281.383634 133.805941 
L 281.551887 133.805941 
L 281.551887 129.243564 
L 281.710172 129.243564 
L 281.716733 120.118812 
L 281.987528 120.118812 
L 281.987528 115.556436 
L 282.169251 115.556436 
L 282.172177 106.431683 
L 283.064875 106.431683 
L 283.064875 101.869307 
L 283.750259 101.869307 
L 283.750259 97.306931 
L 284.034751 97.306931 
L 284.034751 92.744554 
L 284.7867 92.744554 
L 284.7867 88.182178 
L 285.726812 88.182178 
L 285.726812 83.619802 
L 293.859327 83.619802 
L 293.859327 79.057426 
L 356.784679 79.057426 
L 356.784679 74.49505 
L 358.164066 74.49505 
L 358.164066 69.932673 
L 359.177245 69.932673 
L 359.177245 65.370297 
L 363.423764 65.370297 
L 363.423764 60.807921 
L 364.700846 60.807921 
L 364.751789 51.683168 
L 365.322824 51.683168 
L 365.322824 47.120792 
L 365.488587 47.120792 
L 365.488587 42.558416 
L 366.542349 42.558416 
L 366.542349 37.99604 
L 366.771845 37.99604 
L 366.771845 33.433663 
L 368.016 33.433663 
L 368.016 28.871287 
L 370.237705 28.871287 
L 370.237705 24.308911 
L 370.698123 24.308911 
L 370.698123 19.746535 
L 371.807601 19.746535 
L 371.807601 15.184158 
L 377.744527 15.184158 
L 377.744527 10.621782 
L 377.744527 10.621782 
L 453.6 10.621782 
L 453.6 10.621782 
" style="fill:none;stroke:#00bfbf;stroke-linecap:square;"/>
   </g>
   <g id="patch_3">
    <path d="M 7.2 7.2 
L 453.6 7.2 
" style="fill:none;stroke:#000000;stroke-linecap:square;stroke-linejoin:miter;"/>
   </g>
   <g id="patch_4">
    <path d="M 453.6 352.8 
L 453.6 7.2 
" style="fill:none;stroke:#000000;stroke-linecap:square;stroke-linejoin:miter;"/>
   </g>
   <g id="patch_5">
    <path d="M 7.2 352.8 
L 453.6 352.8 
" style="fill:none;stroke:#000000;stroke-linecap:square;stroke-linejoin:miter;"/>
   </g>
   <g id="patch_6">
    <path d="M 7.2 352.8 
L 7.2 7.2 
" style="fill:none;stroke:#000000;stroke-linecap:square;stroke-linejoin:miter;"/>
   </g>
   <g id="matplotlib.axis_1">
    <g id="xtick_1"/>
    <g id="xtick_2">
     <g id="line2d_6">
      <path clip-path="url(#p1b021dad3f)" d="M 56.704715 352.8 
L 56.704715 7.2 
" style="fill:none;stroke:#000000;stroke-dasharray:1.000000,3.000000;stroke-dashoffset:0.0;stroke-width:0.5;"/>
     </g>
     <g id="line2d_7">
      <defs>
       <path d="M 0 0 
L 0 -4 
" id="ma69334b6b1" style="stroke:#000000;stroke-width:0.5;"/>
      </defs>
      <g>
       <use style="stroke:#000000;stroke-width:0.5;" x="56.70471484" xlink:href="#ma69334b6b1" y="352.8"/>
      </g>
     </g>
     <g id="line2d_8">
      <defs>
       <path d="M 0 0 
L 0 4 
" id="m326ae02c0d" style="stroke:#000000;stroke-width:0.5;"/>
      </defs>
      <g>
       <use style="stroke:#000000;stroke-width:0.5;" x="56.70471484" xlink:href="#m326ae02c0d" y="7.2"/>
      </g>
     </g>
     <g id="text_1">
      <!-- -6 -->
      <defs>
       <path d="M 33.015625 40.375 
Q 26.375 40.375 22.484375 35.828125 
Q 18.609375 31.296875 18.609375 23.390625 
Q 18.609375 15.53125 22.484375 10.953125 
Q 26.375 6.390625 33.015625 6.390625 
Q 39.65625 6.390625 43.53125 10.953125 
Q 47.40625 15.53125 47.40625 23.390625 
Q 47.40625 31.296875 43.53125 35.828125 
Q 39.65625 40.375 33.015625 40.375 
M 52.59375 71.296875 
L 52.59375 62.3125 
Q 48.875 64.0625 45.09375 64.984375 
Q 41.3125 65.921875 37.59375 65.921875 
Q 27.828125 65.921875 22.671875 59.328125 
Q 17.53125 52.734375 16.796875 39.40625 
Q 19.671875 43.65625 24.015625 45.921875 
Q 28.375 48.1875 33.59375 48.1875 
Q 44.578125 48.1875 50.953125 41.515625 
Q 57.328125 34.859375 57.328125 23.390625 
Q 57.328125 12.15625 50.6875 5.359375 
Q 44.046875 -1.421875 33.015625 -1.421875 
Q 20.359375 -1.421875 13.671875 8.265625 
Q 6.984375 17.96875 6.984375 36.375 
Q 6.984375 53.65625 15.1875 63.9375 
Q 23.390625 74.21875 37.203125 74.21875 
Q 40.921875 74.21875 44.703125 73.484375 
Q 48.484375 72.75 52.59375 71.296875 
" id="BitstreamVeraSans-Roman-36"/>
       <path d="M 4.890625 31.390625 
L 31.203125 31.390625 
L 31.203125 23.390625 
L 4.890625 23.390625 
z
" id="BitstreamVeraSans-Roman-2d"/>
      </defs>
      <g transform="translate(46.73440234 371.996875)scale(0.2 -0.2)">
       <use xlink:href="#BitstreamVeraSans-Roman-2d"/>
       <use x="36.083984375" xlink:href="#BitstreamVeraSans-Roman-36"/>
      </g>
     </g>
    </g>
    <g id="xtick_3">
     <g id="line2d_9">
      <path clip-path="url(#p1b021dad3f)" d="M 106.316625 352.8 
L 106.316625 7.2 
" style="fill:none;stroke:#000000;stroke-dasharray:1.000000,3.000000;stroke-dashoffset:0.0;stroke-width:0.5;"/>
     </g>
     <g id="line2d_10">
      <g>
       <use style="stroke:#000000;stroke-width:0.5;" x="106.316625485" xlink:href="#ma69334b6b1" y="352.8"/>
      </g>
     </g>
     <g id="line2d_11">
      <g>
       <use style="stroke:#000000;stroke-width:0.5;" x="106.316625485" xlink:href="#m326ae02c0d" y="7.2"/>
      </g>
     </g>
     <g id="text_2">
      <!-- -4 -->
      <defs>
       <path d="M 37.796875 64.3125 
L 12.890625 25.390625 
L 37.796875 25.390625 
z
M 35.203125 72.90625 
L 47.609375 72.90625 
L 47.609375 25.390625 
L 58.015625 25.390625 
L 58.015625 17.1875 
L 47.609375 17.1875 
L 47.609375 0 
L 37.796875 0 
L 37.796875 17.1875 
L 4.890625 17.1875 
L 4.890625 26.703125 
z
" id="BitstreamVeraSans-Roman-34"/>
      </defs>
      <g transform="translate(96.346312985 371.996875)scale(0.2 -0.2)">
       <use xlink:href="#BitstreamVeraSans-Roman-2d"/>
       <use x="36.083984375" xlink:href="#BitstreamVeraSans-Roman-34"/>
      </g>
     </g>
    </g>
    <g id="xtick_4">
     <g id="line2d_12">
      <path clip-path="url(#p1b021dad3f)" d="M 155.928536 352.8 
L 155.928536 7.2 
" style="fill:none;stroke:#000000;stroke-dasharray:1.000000,3.000000;stroke-dashoffset:0.0;stroke-width:0.5;"/>
     </g>
     <g id="line2d_13">
      <g>
       <use style="stroke:#000000;stroke-width:0.5;" x="155.92853613" xlink:href="#ma69334b6b1" y="352.8"/>
      </g>
     </g>
     <g id="line2d_14">
      <g>
       <use style="stroke:#000000;stroke-width:0.5;" x="155.92853613" xlink:href="#m326ae02c0d" y="7.2"/>
      </g>
     </g>
     <g id="text_3">
      <!-- -2 -->
      <defs>
       <path d="M 19.1875 8.296875 
L 53.609375 8.296875 
L 53.609375 0 
L 7.328125 0 
L 7.328125 8.296875 
Q 12.9375 14.109375 22.625 23.890625 
Q 32.328125 33.6875 34.8125 36.53125 
Q 39.546875 41.84375 41.421875 45.53125 
Q 43.3125 49.21875 43.3125 52.78125 
Q 43.3125 58.59375 39.234375 62.25 
Q 35.15625 65.921875 28.609375 65.921875 
Q 23.96875 65.921875 18.8125 64.3125 
Q 13.671875 62.703125 7.8125 59.421875 
L 7.8125 69.390625 
Q 13.765625 71.78125 18.9375 73 
Q 24.125 74.21875 28.421875 74.21875 
Q 39.75 74.21875 46.484375 68.546875 
Q 53.21875 62.890625 53.21875 53.421875 
Q 53.21875 48.921875 51.53125 44.890625 
Q 49.859375 40.875 45.40625 35.40625 
Q 44.1875 33.984375 37.640625 27.21875 
Q 31.109375 20.453125 19.1875 8.296875 
" id="BitstreamVeraSans-Roman-32"/>
      </defs>
      <g transform="translate(145.95822363 371.996875)scale(0.2 -0.2)">
       <use xlink:href="#BitstreamVeraSans-Roman-2d"/>
       <use x="36.083984375" xlink:href="#BitstreamVeraSans-Roman-32"/>
      </g>
     </g>
    </g>
    <g id="xtick_5">
     <g id="line2d_15">
      <path clip-path="url(#p1b021dad3f)" d="M 205.540447 352.8 
L 205.540447 7.2 
" style="fill:none;stroke:#000000;stroke-dasharray:1.000000,3.000000;stroke-dashoffset:0.0;stroke-width:0.5;"/>
     </g>
     <g id="line2d_16">
      <g>
       <use style="stroke:#000000;stroke-width:0.5;" x="205.540446775" xlink:href="#ma69334b6b1" y="352.8"/>
      </g>
     </g>
     <g id="line2d_17">
      <g>
       <use style="stroke:#000000;stroke-width:0.5;" x="205.540446775" xlink:href="#m326ae02c0d" y="7.2"/>
      </g>
     </g>
     <g id="text_4">
      <!-- 0 -->
      <defs>
       <path d="M 31.78125 66.40625 
Q 24.171875 66.40625 20.328125 58.90625 
Q 16.5 51.421875 16.5 36.375 
Q 16.5 21.390625 20.328125 13.890625 
Q 24.171875 6.390625 31.78125 6.390625 
Q 39.453125 6.390625 43.28125 13.890625 
Q 47.125 21.390625 47.125 36.375 
Q 47.125 51.421875 43.28125 58.90625 
Q 39.453125 66.40625 31.78125 66.40625 
M 31.78125 74.21875 
Q 44.046875 74.21875 50.515625 64.515625 
Q 56.984375 54.828125 56.984375 36.375 
Q 56.984375 17.96875 50.515625 8.265625 
Q 44.046875 -1.421875 31.78125 -1.421875 
Q 19.53125 -1.421875 13.0625 8.265625 
Q 6.59375 17.96875 6.59375 36.375 
Q 6.59375 54.828125 13.0625 64.515625 
Q 19.53125 74.21875 31.78125 74.21875 
" id="BitstreamVeraSans-Roman-30"/>
      </defs>
      <g transform="translate(199.177946775 371.996875)scale(0.2 -0.2)">
       <use xlink:href="#BitstreamVeraSans-Roman-30"/>
      </g>
     </g>
    </g>
    <g id="xtick_6">
     <g id="line2d_18">
      <path clip-path="url(#p1b021dad3f)" d="M 255.152357 352.8 
L 255.152357 7.2 
" style="fill:none;stroke:#000000;stroke-dasharray:1.000000,3.000000;stroke-dashoffset:0.0;stroke-width:0.5;"/>
     </g>
     <g id="line2d_19">
      <g>
       <use style="stroke:#000000;stroke-width:0.5;" x="255.15235742" xlink:href="#ma69334b6b1" y="352.8"/>
      </g>
     </g>
     <g id="line2d_20">
      <g>
       <use style="stroke:#000000;stroke-width:0.5;" x="255.15235742" xlink:href="#m326ae02c0d" y="7.2"/>
      </g>
     </g>
     <g id="text_5">
      <!-- 2 -->
      <g transform="translate(248.78985742 371.996875)scale(0.2 -0.2)">
       <use xlink:href="#BitstreamVeraSans-Roman-32"/>
      </g>
     </g>
    </g>
    <g id="xtick_7">
     <g id="line2d_21">
      <path clip-path="url(#p1b021dad3f)" d="M 304.764268 352.8 
L 304.764268 7.2 
" style="fill:none;stroke:#000000;stroke-dasharray:1.000000,3.000000;stroke-dashoffset:0.0;stroke-width:0.5;"/>
     </g>
     <g id="line2d_22">
      <g>
       <use style="stroke:#000000;stroke-width:0.5;" x="304.764268065" xlink:href="#ma69334b6b1" y="352.8"/>
      </g>
     </g>
     <g id="line2d_23">
      <g>
       <use style="stroke:#000000;stroke-width:0.5;" x="304.764268065" xlink:href="#m326ae02c0d" y="7.2"/>
      </g>
     </g>
     <g id="text_6">
      <!-- 4 -->
      <g transform="translate(298.401768065 371.996875)scale(0.2 -0.2)">
       <use xlink:href="#BitstreamVeraSans-Roman-34"/>
      </g>
     </g>
    </g>
    <g id="xtick_8">
     <g id="line2d_24">
      <path clip-path="url(#p1b021dad3f)" d="M 354.376179 352.8 
L 354.376179 7.2 
" style="fill:none;stroke:#000000;stroke-dasharray:1.000000,3.000000;stroke-dashoffset:0.0;stroke-width:0.5;"/>
     </g>
     <g id="line2d_25">
      <g>
       <use style="stroke:#000000;stroke-width:0.5;" x="354.37617871" xlink:href="#ma69334b6b1" y="352.8"/>
      </g>
     </g>
     <g id="line2d_26">
      <g>
       <use style="stroke:#000000;stroke-width:0.5;" x="354.37617871" xlink:href="#m326ae02c0d" y="7.2"/>
      </g>
     </g>
     <g id="text_7">
      <!-- 6 -->
      <g transform="translate(348.01367871 371.996875)scale(0.2 -0.2)">
       <use xlink:href="#BitstreamVeraSans-Roman-36"/>
      </g>
     </g>
    </g>
    <g id="xtick_9">
     <g id="line2d_27">
      <path clip-path="url(#p1b021dad3f)" d="M 403.988089 352.8 
L 403.988089 7.2 
" style="fill:none;stroke:#000000;stroke-dasharray:1.000000,3.000000;stroke-dashoffset:0.0;stroke-width:0.5;"/>
     </g>
     <g id="line2d_28">
      <g>
       <use style="stroke:#000000;stroke-width:0.5;" x="403.988089355" xlink:href="#ma69334b6b1" y="352.8"/>
      </g>
     </g>
     <g id="line2d_29">
      <g>
       <use style="stroke:#000000;stroke-width:0.5;" x="403.988089355" xlink:href="#m326ae02c0d" y="7.2"/>
      </g>
     </g>
     <g id="text_8">
      <!-- 8 -->
      <defs>
       <path d="M 31.78125 34.625 
Q 24.75 34.625 20.71875 30.859375 
Q 16.703125 27.09375 16.703125 20.515625 
Q 16.703125 13.921875 20.71875 10.15625 
Q 24.75 6.390625 31.78125 6.390625 
Q 38.8125 6.390625 42.859375 10.171875 
Q 46.921875 13.96875 46.921875 20.515625 
Q 46.921875 27.09375 42.890625 30.859375 
Q 38.875 34.625 31.78125 34.625 
M 21.921875 38.8125 
Q 15.578125 40.375 12.03125 44.71875 
Q 8.5 49.078125 8.5 55.328125 
Q 8.5 64.0625 14.71875 69.140625 
Q 20.953125 74.21875 31.78125 74.21875 
Q 42.671875 74.21875 48.875 69.140625 
Q 55.078125 64.0625 55.078125 55.328125 
Q 55.078125 49.078125 51.53125 44.71875 
Q 48 40.375 41.703125 38.8125 
Q 48.828125 37.15625 52.796875 32.3125 
Q 56.78125 27.484375 56.78125 20.515625 
Q 56.78125 9.90625 50.3125 4.234375 
Q 43.84375 -1.421875 31.78125 -1.421875 
Q 19.734375 -1.421875 13.25 4.234375 
Q 6.78125 9.90625 6.78125 20.515625 
Q 6.78125 27.484375 10.78125 32.3125 
Q 14.796875 37.15625 21.921875 38.8125 
M 18.3125 54.390625 
Q 18.3125 48.734375 21.84375 45.5625 
Q 25.390625 42.390625 31.78125 42.390625 
Q 38.140625 42.390625 41.71875 45.5625 
Q 45.3125 48.734375 45.3125 54.390625 
Q 45.3125 60.0625 41.71875 63.234375 
Q 38.140625 66.40625 31.78125 66.40625 
Q 25.390625 66.40625 21.84375 63.234375 
Q 18.3125 60.0625 18.3125 54.390625 
" id="BitstreamVeraSans-Roman-38"/>
      </defs>
      <g transform="translate(397.625589355 371.996875)scale(0.2 -0.2)">
       <use xlink:href="#BitstreamVeraSans-Roman-38"/>
      </g>
     </g>
    </g>
    <g id="xtick_10">
     <g id="line2d_30">
      <path clip-path="url(#p1b021dad3f)" d="M 453.6 352.8 
L 453.6 7.2 
" style="fill:none;stroke:#000000;stroke-dasharray:1.000000,3.000000;stroke-dashoffset:0.0;stroke-width:0.5;"/>
     </g>
     <g id="line2d_31">
      <g>
       <use style="stroke:#000000;stroke-width:0.5;" x="453.6" xlink:href="#ma69334b6b1" y="352.8"/>
      </g>
     </g>
     <g id="line2d_32">
      <g>
       <use style="stroke:#000000;stroke-width:0.5;" x="453.6" xlink:href="#m326ae02c0d" y="7.2"/>
      </g>
     </g>
    </g>
    <g id="xtick_11"/>
    <g id="xtick_12">
     <g id="line2d_33">
      <defs>
       <path d="M 0 0 
L 0 -2 
" id="mc11d013779" style="stroke:#000000;stroke-width:0.5;"/>
      </defs>
      <g>
       <use style="stroke:#000000;stroke-width:0.5;" x="56.70471484" xlink:href="#mc11d013779" y="352.8"/>
      </g>
     </g>
     <g id="line2d_34">
      <defs>
       <path d="M 0 0 
L 0 2 
" id="m4eac05790e" style="stroke:#000000;stroke-width:0.5;"/>
      </defs>
      <g>
       <use style="stroke:#000000;stroke-width:0.5;" x="56.70471484" xlink:href="#m4eac05790e" y="7.2"/>
      </g>
     </g>
    </g>
    <g id="xtick_13">
     <g id="line2d_35">
      <g>
       <use style="stroke:#000000;stroke-width:0.5;" x="106.316625485" xlink:href="#mc11d013779" y="352.8"/>
      </g>
     </g>
     <g id="line2d_36">
      <g>
       <use style="stroke:#000000;stroke-width:0.5;" x="106.316625485" xlink:href="#m4eac05790e" y="7.2"/>
      </g>
     </g>
    </g>
    <g id="xtick_14">
     <g id="line2d_37">
      <g>
       <use style="stroke:#000000;stroke-width:0.5;" x="155.92853613" xlink:href="#mc11d013779" y="352.8"/>
      </g>
     </g>
     <g id="line2d_38">
      <g>
       <use style="stroke:#000000;stroke-width:0.5;" x="155.92853613" xlink:href="#m4eac05790e" y="7.2"/>
      </g>
     </g>
    </g>
    <g id="xtick_15">
     <g id="line2d_39">
      <g>
       <use style="stroke:#000000;stroke-width:0.5;" x="205.540446775" xlink:href="#mc11d013779" y="352.8"/>
      </g>
     </g>
     <g id="line2d_40">
      <g>
       <use style="stroke:#000000;stroke-width:0.5;" x="205.540446775" xlink:href="#m4eac05790e" y="7.2"/>
      </g>
     </g>
    </g>
    <g id="xtick_16">
     <g id="line2d_41">
      <g>
       <use style="stroke:#000000;stroke-width:0.5;" x="255.15235742" xlink:href="#mc11d013779" y="352.8"/>
      </g>
     </g>
     <g id="line2d_42">
      <g>
       <use style="stroke:#000000;stroke-width:0.5;" x="255.15235742" xlink:href="#m4eac05790e" y="7.2"/>
      </g>
     </g>
    </g>
    <g id="xtick_17">
     <g id="line2d_43">
      <g>
       <use style="stroke:#000000;stroke-width:0.5;" x="304.764268065" xlink:href="#mc11d013779" y="352.8"/>
      </g>
     </g>
     <g id="line2d_44">
      <g>
       <use style="stroke:#000000;stroke-width:0.5;" x="304.764268065" xlink:href="#m4eac05790e" y="7.2"/>
      </g>
     </g>
    </g>
    <g id="xtick_18">
     <g id="line2d_45">
      <g>
       <use style="stroke:#000000;stroke-width:0.5;" x="354.37617871" xlink:href="#mc11d013779" y="352.8"/>
      </g>
     </g>
     <g id="line2d_46">
      <g>
       <use style="stroke:#000000;stroke-width:0.5;" x="354.37617871" xlink:href="#m4eac05790e" y="7.2"/>
      </g>
     </g>
    </g>
    <g id="xtick_19">
     <g id="line2d_47">
      <g>
       <use style="stroke:#000000;stroke-width:0.5;" x="403.988089355" xlink:href="#mc11d013779" y="352.8"/>
      </g>
     </g>
     <g id="line2d_48">
      <g>
       <use style="stroke:#000000;stroke-width:0.5;" x="403.988089355" xlink:href="#m4eac05790e" y="7.2"/>
      </g>
     </g>
    </g>
    <g id="xtick_20">
     <g id="line2d_49">
      <g>
       <use style="stroke:#000000;stroke-width:0.5;" x="453.6" xlink:href="#mc11d013779" y="352.8"/>
      </g>
     </g>
     <g id="line2d_50">
      <g>
       <use style="stroke:#000000;stroke-width:0.5;" x="453.6" xlink:href="#m4eac05790e" y="7.2"/>
      </g>
     </g>
    </g>
    <g id="text_9">
     <!-- log10 of Df -->
     <defs>
      <path id="BitstreamVeraSans-Roman-20"/>
      <path d="M 12.40625 8.296875 
L 28.515625 8.296875 
L 28.515625 63.921875 
L 10.984375 60.40625 
L 10.984375 69.390625 
L 28.421875 72.90625 
L 38.28125 72.90625 
L 38.28125 8.296875 
L 54.390625 8.296875 
L 54.390625 0 
L 12.40625 0 
z
" id="BitstreamVeraSans-Roman-31"/>
      <path d="M 30.609375 48.390625 
Q 23.390625 48.390625 19.1875 42.75 
Q 14.984375 37.109375 14.984375 27.296875 
Q 14.984375 17.484375 19.15625 11.84375 
Q 23.34375 6.203125 30.609375 6.203125 
Q 37.796875 6.203125 41.984375 11.859375 
Q 46.1875 17.53125 46.1875 27.296875 
Q 46.1875 37.015625 41.984375 42.703125 
Q 37.796875 48.390625 30.609375 48.390625 
M 30.609375 56 
Q 42.328125 56 49.015625 48.375 
Q 55.71875 40.765625 55.71875 27.296875 
Q 55.71875 13.875 49.015625 6.21875 
Q 42.328125 -1.421875 30.609375 -1.421875 
Q 18.84375 -1.421875 12.171875 6.21875 
Q 5.515625 13.875 5.515625 27.296875 
Q 5.515625 40.765625 12.171875 48.375 
Q 18.84375 56 30.609375 56 
" id="BitstreamVeraSans-Roman-6f"/>
      <path d="M 9.421875 75.984375 
L 18.40625 75.984375 
L 18.40625 0 
L 9.421875 0 
z
" id="BitstreamVeraSans-Roman-6c"/>
      <path d="M 19.671875 64.796875 
L 19.671875 8.109375 
L 31.59375 8.109375 
Q 46.6875 8.109375 53.6875 14.9375 
Q 60.6875 21.78125 60.6875 36.53125 
Q 60.6875 51.171875 53.6875 57.984375 
Q 46.6875 64.796875 31.59375 64.796875 
z
M 9.8125 72.90625 
L 30.078125 72.90625 
Q 51.265625 72.90625 61.171875 64.09375 
Q 71.09375 55.28125 71.09375 36.53125 
Q 71.09375 17.671875 61.125 8.828125 
Q 51.171875 0 30.078125 0 
L 9.8125 0 
z
" id="BitstreamVeraSans-Roman-44"/>
      <path d="M 45.40625 27.984375 
Q 45.40625 37.75 41.375 43.109375 
Q 37.359375 48.484375 30.078125 48.484375 
Q 22.859375 48.484375 18.828125 43.109375 
Q 14.796875 37.75 14.796875 27.984375 
Q 14.796875 18.265625 18.828125 12.890625 
Q 22.859375 7.515625 30.078125 7.515625 
Q 37.359375 7.515625 41.375 12.890625 
Q 45.40625 18.265625 45.40625 27.984375 
M 54.390625 6.78125 
Q 54.390625 -7.171875 48.1875 -13.984375 
Q 42 -20.796875 29.203125 -20.796875 
Q 24.46875 -20.796875 20.265625 -20.09375 
Q 16.0625 -19.390625 12.109375 -17.921875 
L 12.109375 -9.1875 
Q 16.0625 -11.328125 19.921875 -12.34375 
Q 23.78125 -13.375 27.78125 -13.375 
Q 36.625 -13.375 41.015625 -8.765625 
Q 45.40625 -4.15625 45.40625 5.171875 
L 45.40625 9.625 
Q 42.625 4.78125 38.28125 2.390625 
Q 33.9375 0 27.875 0 
Q 17.828125 0 11.671875 7.65625 
Q 5.515625 15.328125 5.515625 27.984375 
Q 5.515625 40.671875 11.671875 48.328125 
Q 17.828125 56 27.875 56 
Q 33.9375 56 38.28125 53.609375 
Q 42.625 51.21875 45.40625 46.390625 
L 45.40625 54.6875 
L 54.390625 54.6875 
z
" id="BitstreamVeraSans-Roman-67"/>
      <path d="M 37.109375 75.984375 
L 37.109375 68.5 
L 28.515625 68.5 
Q 23.6875 68.5 21.796875 66.546875 
Q 19.921875 64.59375 19.921875 59.515625 
L 19.921875 54.6875 
L 34.71875 54.6875 
L 34.71875 47.703125 
L 19.921875 47.703125 
L 19.921875 0 
L 10.890625 0 
L 10.890625 47.703125 
L 2.296875 47.703125 
L 2.296875 54.6875 
L 10.890625 54.6875 
L 10.890625 58.5 
Q 10.890625 67.625 15.140625 71.796875 
Q 19.390625 75.984375 28.609375 75.984375 
z
" id="BitstreamVeraSans-Roman-66"/>
     </defs>
     <g transform="translate(175.2140625 396.353125)scale(0.2 -0.2)">
      <use xlink:href="#BitstreamVeraSans-Roman-6c"/>
      <use x="27.783203125" xlink:href="#BitstreamVeraSans-Roman-6f"/>
      <use x="88.96484375" xlink:href="#BitstreamVeraSans-Roman-67"/>
      <use x="152.44140625" xlink:href="#BitstreamVeraSans-Roman-31"/>
      <use x="216.064453125" xlink:href="#BitstreamVeraSans-Roman-30"/>
      <use x="279.6875" xlink:href="#BitstreamVeraSans-Roman-20"/>
      <use x="311.474609375" xlink:href="#BitstreamVeraSans-Roman-6f"/>
      <use x="372.65625" xlink:href="#BitstreamVeraSans-Roman-66"/>
      <use x="407.861328125" xlink:href="#BitstreamVeraSans-Roman-20"/>
      <use x="439.6484375" xlink:href="#BitstreamVeraSans-Roman-44"/>
      <use x="516.650390625" xlink:href="#BitstreamVeraSans-Roman-66"/>
     </g>
    </g>
   </g>
   <g id="matplotlib.axis_2">
    <g id="ytick_1">
     <g id="line2d_51">
      <path clip-path="url(#p1b021dad3f)" d="M 7.2 352.8 
L 453.6 352.8 
" style="fill:none;stroke:#000000;stroke-dasharray:1.000000,3.000000;stroke-dashoffset:0.0;stroke-width:0.5;"/>
     </g>
     <g id="line2d_52">
      <defs>
       <path d="M 0 0 
L 4 0 
" id="m33592b6df6" style="stroke:#000000;stroke-width:0.5;"/>
      </defs>
      <g>
       <use style="stroke:#000000;stroke-width:0.5;" x="7.2" xlink:href="#m33592b6df6" y="352.8"/>
      </g>
     </g>
     <g id="line2d_53">
      <defs>
       <path d="M 0 0 
L -4 0 
" id="me99462bec4" style="stroke:#000000;stroke-width:0.5;"/>
      </defs>
      <g>
       <use style="stroke:#000000;stroke-width:0.5;" x="453.6" xlink:href="#me99462bec4" y="352.8"/>
      </g>
     </g>
    </g>
    <g id="ytick_2">
     <g id="line2d_54">
      <path clip-path="url(#p1b021dad3f)" d="M 7.2 284.364356 
L 453.6 284.364356 
" style="fill:none;stroke:#000000;stroke-dasharray:1.000000,3.000000;stroke-dashoffset:0.0;stroke-width:0.5;"/>
     </g>
     <g id="line2d_55">
      <g>
       <use style="stroke:#000000;stroke-width:0.5;" x="7.2" xlink:href="#m33592b6df6" y="284.364356436"/>
      </g>
     </g>
     <g id="line2d_56">
      <g>
       <use style="stroke:#000000;stroke-width:0.5;" x="453.6" xlink:href="#me99462bec4" y="284.364356436"/>
      </g>
     </g>
    </g>
    <g id="ytick_3">
     <g id="line2d_57">
      <path clip-path="url(#p1b021dad3f)" d="M 7.2 215.928713 
L 453.6 215.928713 
" style="fill:none;stroke:#000000;stroke-dasharray:1.000000,3.000000;stroke-dashoffset:0.0;stroke-width:0.5;"/>
     </g>
     <g id="line2d_58">
      <g>
       <use style="stroke:#000000;stroke-width:0.5;" x="7.2" xlink:href="#m33592b6df6" y="215.928712871"/>
      </g>
     </g>
     <g id="line2d_59">
      <g>
       <use style="stroke:#000000;stroke-width:0.5;" x="453.6" xlink:href="#me99462bec4" y="215.928712871"/>
      </g>
     </g>
    </g>
    <g id="ytick_4">
     <g id="line2d_60">
      <path clip-path="url(#p1b021dad3f)" d="M 7.2 147.493069 
L 453.6 147.493069 
" style="fill:none;stroke:#000000;stroke-dasharray:1.000000,3.000000;stroke-dashoffset:0.0;stroke-width:0.5;"/>
     </g>
     <g id="line2d_61">
      <g>
       <use style="stroke:#000000;stroke-width:0.5;" x="7.2" xlink:href="#m33592b6df6" y="147.493069307"/>
      </g>
     </g>
     <g id="line2d_62">
      <g>
       <use style="stroke:#000000;stroke-width:0.5;" x="453.6" xlink:href="#me99462bec4" y="147.493069307"/>
      </g>
     </g>
    </g>
    <g id="ytick_5">
     <g id="line2d_63">
      <path clip-path="url(#p1b021dad3f)" d="M 7.2 79.057426 
L 453.6 79.057426 
" style="fill:none;stroke:#000000;stroke-dasharray:1.000000,3.000000;stroke-dashoffset:0.0;stroke-width:0.5;"/>
     </g>
     <g id="line2d_64">
      <g>
       <use style="stroke:#000000;stroke-width:0.5;" x="7.2" xlink:href="#m33592b6df6" y="79.0574257426"/>
      </g>
     </g>
     <g id="line2d_65">
      <g>
       <use style="stroke:#000000;stroke-width:0.5;" x="453.6" xlink:href="#me99462bec4" y="79.0574257426"/>
      </g>
     </g>
    </g>
    <g id="ytick_6">
     <g id="line2d_66">
      <path clip-path="url(#p1b021dad3f)" d="M 7.2 10.621782 
L 453.6 10.621782 
" style="fill:none;stroke:#000000;stroke-dasharray:1.000000,3.000000;stroke-dashoffset:0.0;stroke-width:0.5;"/>
     </g>
     <g id="line2d_67">
      <g>
       <use style="stroke:#000000;stroke-width:0.5;" x="7.2" xlink:href="#m33592b6df6" y="10.6217821782"/>
      </g>
     </g>
     <g id="line2d_68">
      <g>
       <use style="stroke:#000000;stroke-width:0.5;" x="453.6" xlink:href="#me99462bec4" y="10.6217821782"/>
      </g>
     </g>
    </g>
   </g>
   <g id="text_10">
    <!-- {f1-f5}, 20-D -->
    <defs>
     <path d="M 12.5 -9.28125 
L 15.921875 -9.28125 
Q 22.75 -9.28125 24.828125 -7.171875 
Q 26.90625 -5.078125 26.90625 1.90625 
L 26.90625 14.015625 
Q 26.90625 21.625 29.09375 25.09375 
Q 31.296875 28.5625 36.71875 29.890625 
Q 31.296875 31.109375 29.09375 34.5625 
Q 26.90625 38.03125 26.90625 45.703125 
L 26.90625 57.8125 
Q 26.90625 64.75 24.828125 66.875 
Q 22.75 69 15.921875 69 
L 12.5 69 
L 12.5 75.984375 
L 15.578125 75.984375 
Q 27.734375 75.984375 31.8125 72.390625 
Q 35.890625 68.796875 35.890625 58.015625 
L 35.890625 46.296875 
Q 35.890625 39.015625 38.515625 36.203125 
Q 41.15625 33.40625 48.09375 33.40625 
L 51.125 33.40625 
L 51.125 26.421875 
L 48.09375 26.421875 
Q 41.15625 26.421875 38.515625 23.578125 
Q 35.890625 20.75 35.890625 13.375 
L 35.890625 1.703125 
Q 35.890625 -9.078125 31.8125 -12.6875 
Q 27.734375 -16.3125 15.578125 -16.3125 
L 12.5 -16.3125 
z
" id="BitstreamVeraSans-Roman-7d"/>
     <path d="M 51.125 -9.28125 
L 51.125 -16.3125 
L 48.09375 -16.3125 
Q 35.9375 -16.3125 31.8125 -12.6875 
Q 27.6875 -9.078125 27.6875 1.703125 
L 27.6875 13.375 
Q 27.6875 20.75 25.046875 23.578125 
Q 22.40625 26.421875 15.484375 26.421875 
L 12.5 26.421875 
L 12.5 33.40625 
L 15.484375 33.40625 
Q 22.46875 33.40625 25.078125 36.203125 
Q 27.6875 39.015625 27.6875 46.296875 
L 27.6875 58.015625 
Q 27.6875 68.796875 31.8125 72.390625 
Q 35.9375 75.984375 48.09375 75.984375 
L 51.125 75.984375 
L 51.125 69 
L 47.796875 69 
Q 40.921875 69 38.8125 66.84375 
Q 36.71875 64.703125 36.71875 57.8125 
L 36.71875 45.703125 
Q 36.71875 38.03125 34.5 34.5625 
Q 32.28125 31.109375 26.90625 29.890625 
Q 32.328125 28.5625 34.515625 25.09375 
Q 36.71875 21.625 36.71875 14.015625 
L 36.71875 1.90625 
Q 36.71875 -4.984375 38.8125 -7.125 
Q 40.921875 -9.28125 47.796875 -9.28125 
z
" id="BitstreamVeraSans-Roman-7b"/>
     <path d="M 11.71875 12.40625 
L 22.015625 12.40625 
L 22.015625 4 
L 14.015625 -11.625 
L 7.71875 -11.625 
L 11.71875 4 
z
" id="BitstreamVeraSans-Roman-2c"/>
     <path d="M 10.796875 72.90625 
L 49.515625 72.90625 
L 49.515625 64.59375 
L 19.828125 64.59375 
L 19.828125 46.734375 
Q 21.96875 47.46875 24.109375 47.828125 
Q 26.265625 48.1875 28.421875 48.1875 
Q 40.625 48.1875 47.75 41.5 
Q 54.890625 34.8125 54.890625 23.390625 
Q 54.890625 11.625 47.5625 5.09375 
Q 40.234375 -1.421875 26.90625 -1.421875 
Q 22.3125 -1.421875 17.546875 -0.640625 
Q 12.796875 0.140625 7.71875 1.703125 
L 7.71875 11.625 
Q 12.109375 9.234375 16.796875 8.0625 
Q 21.484375 6.890625 26.703125 6.890625 
Q 35.15625 6.890625 40.078125 11.328125 
Q 45.015625 15.765625 45.015625 23.390625 
Q 45.015625 31 40.078125 35.4375 
Q 35.15625 39.890625 26.703125 39.890625 
Q 22.75 39.890625 18.8125 39.015625 
Q 14.890625 38.140625 10.796875 36.28125 
z
" id="BitstreamVeraSans-Roman-35"/>
    </defs>
    <g transform="translate(311.697 345.888)scale(0.2 -0.2)">
     <use xlink:href="#BitstreamVeraSans-Roman-7b"/>
     <use x="63.623046875" xlink:href="#BitstreamVeraSans-Roman-66"/>
     <use x="98.828125" xlink:href="#BitstreamVeraSans-Roman-31"/>
     <use x="162.451171875" xlink:href="#BitstreamVeraSans-Roman-2d"/>
     <use x="198.53515625" xlink:href="#BitstreamVeraSans-Roman-66"/>
     <use x="233.740234375" xlink:href="#BitstreamVeraSans-Roman-35"/>
     <use x="297.36328125" xlink:href="#BitstreamVeraSans-Roman-7d"/>
     <use x="360.986328125" xlink:href="#BitstreamVeraSans-Roman-2c"/>
     <use x="392.7734375" xlink:href="#BitstreamVeraSans-Roman-20"/>
     <use x="424.560546875" xlink:href="#BitstreamVeraSans-Roman-32"/>
     <use x="488.18359375" xlink:href="#BitstreamVeraSans-Roman-30"/>
     <use x="551.806640625" xlink:href="#BitstreamVeraSans-Roman-2d"/>
     <use x="587.890625" xlink:href="#BitstreamVeraSans-Roman-44"/>
    </g>
   </g>
   <g id="text_11">
    <!-- 0.0.0 -->
    <defs>
     <path d="M 10.6875 12.40625 
L 21 12.40625 
L 21 0 
L 10.6875 0 
z
" id="BitstreamVeraSans-Roman-2e"/>
    </defs>
    <g style="fill:#808080;" transform="translate(217.678125 347.2643125)scale(0.1 -0.1)">
     <use xlink:href="#BitstreamVeraSans-Roman-30"/>
     <use x="63.623046875" xlink:href="#BitstreamVeraSans-Roman-2e"/>
     <use x="95.41015625" xlink:href="#BitstreamVeraSans-Roman-30"/>
     <use x="159.033203125" xlink:href="#BitstreamVeraSans-Roman-2e"/>
     <use x="190.8203125" xlink:href="#BitstreamVeraSans-Roman-30"/>
    </g>
   </g>
  </g>
 </g>
 <defs>
  <clipPath id="p1b021dad3f">
   <rect height="345.6" width="446.4" x="7.2" y="7.2"/>
  </clipPath>
 </defs>
</svg>
