<?xml version="1.0" encoding="utf-8" standalone="no"?>
<!DOCTYPE svg PUBLIC "-//W3C//DTD SVG 1.1//EN"
  "http://www.w3.org/Graphics/SVG/1.1/DTD/svg11.dtd">
<!-- Created with matplotlib (http://matplotlib.org/) -->
<svg height="407pt" version="1.1" viewBox="0 0 460 407" width="460pt" xmlns="http://www.w3.org/2000/svg" xmlns:xlink="http://www.w3.org/1999/xlink">
 <defs>
  <style type="text/css">
*{stroke-linecap:butt;stroke-linejoin:round;stroke-miterlimit:100000;}
  </style>
 </defs>
 <g id="figure_1">
  <g id="patch_1">
   <path d="M 0 407.7125 
L 460.8 407.7125 
L 460.8 0 
L 0 0 
z
" style="fill:#ffffff;"/>
  </g>
  <g id="axes_1">
   <g id="patch_2">
    <path d="M 7.2 352.8 
L 453.6 352.8 
L 453.6 7.2 
L 7.2 7.2 
z
" style="fill:#ffffff;"/>
   </g>
   <g id="line2d_1">
    <path clip-path="url(#pc00cc25973)" d="M 211.298534 352.8 
L 211.298534 348.237624 
L 215.670272 348.237624 
L 215.670272 343.675248 
L 215.897217 343.675248 
L 215.897217 339.112871 
L 216.378447 339.112871 
L 216.378447 334.550495 
L 217.143873 334.550495 
L 217.143873 329.988119 
L 217.969464 329.988119 
L 217.969464 325.425743 
L 218.335376 325.425743 
L 218.350379 316.30099 
L 218.761129 316.30099 
L 218.761129 311.738614 
L 219.153804 311.738614 
L 219.153804 307.176238 
L 219.709913 307.176238 
L 219.74321 298.051485 
L 220.189242 298.051485 
L 220.189242 293.489109 
L 222.39534 293.489109 
L 222.39534 288.926733 
L 222.636266 288.926733 
L 222.636266 284.364356 
L 222.933231 284.364356 
L 222.933231 279.80198 
L 224.835914 279.80198 
L 224.835914 275.239604 
L 225.285314 275.239604 
L 225.285314 270.677228 
L 226.515356 270.677228 
L 226.521258 261.552475 
L 226.977548 261.552475 
L 226.977548 256.990099 
L 227.884178 256.990099 
L 227.884178 252.427723 
L 228.306684 252.427723 
L 228.306684 247.865347 
L 229.627086 247.865347 
L 229.627086 243.30297 
L 233.215576 243.30297 
L 233.215576 238.740594 
L 234.028983 238.740594 
L 234.028983 234.178218 
L 234.677767 234.178218 
L 234.677767 229.615842 
L 234.913087 229.615842 
L 234.913087 225.053465 
L 235.17362 225.053465 
L 235.17362 220.491089 
L 235.821695 220.491089 
L 235.821695 215.928713 
L 236.887308 215.928713 
L 236.887308 211.366337 
L 237.252592 211.366337 
L 237.252592 206.80396 
L 237.836531 206.80396 
L 237.836531 202.241584 
L 238.170392 202.241584 
L 238.170392 197.679208 
L 238.821452 197.679208 
L 238.821452 193.116832 
L 239.069478 193.116832 
L 239.069478 188.554455 
L 239.392013 188.554455 
L 239.392013 183.992079 
L 240.08526 183.992079 
L 240.156041 174.867327 
L 240.847175 174.867327 
L 240.847175 170.30495 
L 241.892222 170.30495 
L 241.892222 165.742574 
L 242.37163 165.742574 
L 242.37163 161.180198 
L 242.812488 161.180198 
L 242.812488 156.617822 
L 243.243707 156.617822 
L 243.257922 147.493069 
L 243.979896 147.493069 
L 243.979896 142.930693 
L 244.481436 142.930693 
L 244.491335 133.805941 
L 244.660555 133.805941 
L 244.660555 129.243564 
L 245.829979 129.243564 
L 245.829979 124.681188 
L 246.1931 124.681188 
L 246.1931 120.118812 
L 247.512445 120.118812 
L 247.588383 110.994059 
L 249.094389 110.994059 
L 249.094389 106.431683 
L 249.238673 106.431683 
L 249.238673 101.869307 
L 249.623697 101.869307 
L 249.716638 92.744554 
L 249.963807 92.744554 
L 249.963807 88.182178 
L 250.161312 88.182178 
L 250.161312 83.619802 
L 250.557231 83.619802 
L 250.557231 79.057426 
L 250.84383 79.057426 
L 250.84383 74.49505 
L 251.795526 74.49505 
L 251.795526 69.932673 
L 252.036185 69.932673 
L 252.036185 65.370297 
L 252.714356 65.370297 
L 252.714356 60.807921 
L 253.389005 60.807921 
L 253.470345 51.683168 
L 257.231873 51.683168 
L 257.231873 47.120792 
L 267.315715 47.120792 
L 267.315715 42.558416 
L 271.311372 42.558416 
L 271.311372 37.99604 
L 282.253089 37.99604 
L 282.253089 33.433663 
L 284.297734 33.433663 
L 284.297734 28.871287 
L 289.47344 28.871287 
L 289.47344 24.308911 
L 292.440264 24.308911 
L 292.440264 19.746535 
L 292.998885 19.746535 
L 292.998885 15.184158 
L 303.745669 15.184158 
L 303.745669 10.621782 
L 303.745669 10.621782 
L 453.6 10.621782 
L 453.6 10.621782 
" style="fill:none;stroke:#ff0000;stroke-linecap:square;stroke-width:3.0;"/>
   </g>
   <g id="line2d_2">
    <path clip-path="url(#pc00cc25973)" d="M 224.385622 352.8 
L 224.385622 348.237624 
L 226.539971 348.237624 
L 226.539971 343.675248 
L 227.068502 343.675248 
L 227.068502 339.112871 
L 229.160969 339.112871 
L 229.160969 334.550495 
L 234.028983 334.550495 
L 234.028983 329.988119 
L 235.507927 329.988119 
L 235.507927 325.425743 
L 236.499522 325.425743 
L 236.499522 320.863366 
L 237.720571 320.863366 
L 237.720571 316.30099 
L 237.85399 316.30099 
L 237.929156 307.176238 
L 238.454994 307.176238 
L 238.454994 302.613861 
L 239.145643 302.613861 
L 239.24245 293.489109 
L 241.694175 293.489109 
L 241.694175 288.926733 
L 242.297561 288.926733 
L 242.297561 284.364356 
L 246.87743 284.364356 
L 246.87743 279.80198 
L 247.522657 279.80198 
L 247.522657 275.239604 
L 247.725235 275.239604 
L 247.725235 270.677228 
L 248.327929 270.677228 
L 248.327929 266.114851 
L 248.651637 266.114851 
L 248.651637 261.552475 
L 248.776214 261.552475 
L 248.776214 256.990099 
L 249.862402 256.990099 
L 249.862402 252.427723 
L 250.028956 252.427723 
L 250.028956 247.865347 
L 250.453812 247.865347 
L 250.453812 243.30297 
L 251.598476 243.30297 
L 251.661856 229.615842 
L 251.795526 229.615842 
L 251.795526 225.053465 
L 251.942273 225.053465 
L 251.942273 220.491089 
L 252.131808 220.491089 
L 252.132142 211.366337 
L 252.280352 211.366337 
L 252.280352 206.80396 
L 252.773823 206.80396 
L 252.773823 202.241584 
L 253.177937 202.241584 
L 253.246764 188.554455 
L 253.331981 188.554455 
L 253.382139 174.867327 
L 253.527709 174.867327 
L 253.527709 170.30495 
L 253.757 170.30495 
L 253.757 165.742574 
L 254.774566 165.742574 
L 254.774566 161.180198 
L 255.887633 161.180198 
L 255.985214 152.055446 
L 256.363619 152.055446 
L 256.421517 142.930693 
L 258.752698 142.930693 
L 258.752698 138.368317 
L 259.476412 138.368317 
L 259.476412 133.805941 
L 261.347106 133.805941 
L 261.408858 124.681188 
L 262.152833 124.681188 
L 262.152833 120.118812 
L 263.304696 120.118812 
L 263.304696 115.556436 
L 264.374578 115.556436 
L 264.374578 110.994059 
L 265.250419 110.994059 
L 265.250419 106.431683 
L 266.056398 106.431683 
L 266.056398 101.869307 
L 290.853788 101.869307 
L 290.853788 97.306931 
L 300.512217 97.306931 
L 300.512217 92.744554 
L 308.081188 92.744554 
L 308.081188 88.182178 
L 311.358546 88.182178 
L 311.358546 83.619802 
L 314.23121 83.619802 
L 314.23121 79.057426 
L 320.904087 79.057426 
L 320.904087 74.49505 
L 321.752265 74.49505 
L 321.752265 69.932673 
L 323.600213 69.932673 
L 323.600213 65.370297 
L 324.067309 65.370297 
L 324.067309 60.807921 
L 325.110052 60.807921 
L 325.147703 51.683168 
L 326.286743 51.683168 
L 326.286743 47.120792 
L 326.443979 47.120792 
L 326.443979 42.558416 
L 330.620987 42.558416 
L 330.620987 37.99604 
L 334.123908 37.99604 
L 334.123908 33.433663 
L 334.297767 33.433663 
L 334.297767 28.871287 
L 335.920428 28.871287 
L 335.920428 24.308911 
L 336.392454 24.308911 
L 336.392454 19.746535 
L 345.420961 19.746535 
L 345.420961 15.184158 
L 349.118461 15.184158 
L 349.118461 10.621782 
L 349.118461 10.621782 
L 453.6 10.621782 
L 453.6 10.621782 
" style="fill:none;stroke:#00bfbf;stroke-linecap:square;"/>
   </g>
   <g id="line2d_3">
    <path clip-path="url(#pc00cc25973)" d="M 224.385622 352.8 
L 224.385622 348.237624 
L 224.385622 348.237624 
L 224.385622 348.237624 
L 224.417365 348.237624 
L 224.417365 343.675248 
L 226.539971 343.675248 
L 226.539971 339.112871 
L 227.068502 339.112871 
L 227.068502 334.550495 
L 230.482203 334.550495 
L 230.482203 329.988119 
L 233.987817 329.988119 
L 234.028983 320.863366 
L 234.300475 320.863366 
L 234.300475 316.30099 
L 234.818499 316.30099 
L 234.818499 311.738614 
L 235.098151 311.738614 
L 235.098151 307.176238 
L 235.563821 307.176238 
L 235.563821 302.613861 
L 235.70964 302.613861 
L 235.70964 298.051485 
L 235.892478 298.051485 
L 235.892478 293.489109 
L 236.330623 293.489109 
L 236.330623 288.926733 
L 237.720571 288.926733 
L 237.720571 284.364356 
L 239.145643 284.364356 
L 239.145643 279.80198 
L 239.459626 279.80198 
L 239.459626 275.239604 
L 242.37163 275.239604 
L 242.37163 270.677228 
L 243.614442 270.677228 
L 243.614442 266.114851 
L 245.295955 266.114851 
L 245.295955 261.552475 
L 246.707747 261.552475 
L 246.707747 256.990099 
L 246.87743 256.990099 
L 246.87743 252.427723 
L 247.495655 252.427723 
L 247.495655 247.865347 
L 247.725235 247.865347 
L 247.80498 238.740594 
L 248.327929 238.740594 
L 248.385569 229.615842 
L 248.651637 229.615842 
L 248.651637 225.053465 
L 249.473865 225.053465 
L 249.473865 220.491089 
L 249.862402 220.491089 
L 249.881758 211.366337 
L 250.219006 211.366337 
L 250.219006 206.80396 
L 250.439198 206.80396 
L 250.547504 197.679208 
L 251.135682 197.679208 
L 251.204667 188.554455 
L 251.286443 188.554455 
L 251.286443 183.992079 
L 251.50485 183.992079 
L 251.50485 179.429703 
L 251.661856 179.429703 
L 251.765857 165.742574 
L 251.795526 165.742574 
L 251.795526 161.180198 
L 251.942273 161.180198 
L 251.990024 152.055446 
L 252.131808 152.055446 
L 252.131808 147.493069 
L 252.546567 147.493069 
L 252.546567 142.930693 
L 252.928729 142.930693 
L 252.928729 138.368317 
L 253.056218 138.368317 
L 253.056218 133.805941 
L 253.277337 133.805941 
L 253.277337 129.243564 
L 253.723454 129.243564 
L 253.723454 124.681188 
L 256.848939 124.681188 
L 256.848939 120.118812 
L 257.399276 120.118812 
L 257.399276 115.556436 
L 258.752698 115.556436 
L 258.752698 110.994059 
L 260.413374 110.994059 
L 260.413374 106.431683 
L 261.456514 106.431683 
L 261.456514 101.869307 
L 262.152833 101.869307 
L 262.152833 97.306931 
L 265.250419 97.306931 
L 265.250419 92.744554 
L 285.191366 92.744554 
L 285.191366 88.182178 
L 290.853788 88.182178 
L 290.853788 83.619802 
L 293.954593 83.619802 
L 293.954593 79.057426 
L 294.232335 79.057426 
L 294.232335 74.49505 
L 295.772428 74.49505 
L 295.772428 69.932673 
L 301.082181 69.932673 
L 301.082181 65.370297 
L 309.345706 65.370297 
L 309.345706 60.807921 
L 313.732632 60.807921 
L 313.732632 56.245545 
L 314.23121 56.245545 
L 314.23121 51.683168 
L 315.06004 51.683168 
L 315.06004 47.120792 
L 315.408934 47.120792 
L 315.408934 42.558416 
L 315.589287 42.558416 
L 315.589287 37.99604 
L 320.138692 37.99604 
L 320.138692 33.433663 
L 322.182034 33.433663 
L 322.182034 28.871287 
L 325.32262 28.871287 
L 325.32262 24.308911 
L 325.44927 24.308911 
L 325.44927 19.746535 
L 326.286743 19.746535 
L 326.286743 15.184158 
L 335.920428 15.184158 
L 335.920428 10.621782 
L 335.920428 10.621782 
L 453.6 10.621782 
L 453.6 10.621782 
" style="fill:none;stroke:#bf00bf;stroke-linecap:square;"/>
   </g>
   <g id="line2d_4">
    <path clip-path="url(#pc00cc25973)" d="M 219.861996 352.8 
L 219.861996 348.237624 
L 224.385622 348.237624 
L 224.417365 339.112871 
L 224.924914 339.112871 
L 224.924914 334.550495 
L 226.009303 334.550495 
L 226.009303 329.988119 
L 226.539971 329.988119 
L 226.539971 325.425743 
L 226.696521 325.425743 
L 226.696521 320.863366 
L 228.034604 320.863366 
L 228.034604 316.30099 
L 230.408749 316.30099 
L 230.430634 307.176238 
L 231.049552 307.176238 
L 231.049552 302.613861 
L 231.195728 302.613861 
L 231.195728 298.051485 
L 231.64469 298.051485 
L 231.64469 293.489109 
L 232.107867 293.489109 
L 232.107867 288.926733 
L 232.870429 288.926733 
L 232.870429 284.364356 
L 233.297167 284.364356 
L 233.297167 279.80198 
L 234.028983 279.80198 
L 234.028983 275.239604 
L 238.583263 275.239604 
L 238.583263 270.677228 
L 239.459626 270.677228 
L 239.459626 266.114851 
L 240.072664 266.114851 
L 240.072664 261.552475 
L 242.37163 261.552475 
L 242.37163 256.990099 
L 243.166051 256.990099 
L 243.166051 252.427723 
L 243.614442 252.427723 
L 243.614442 247.865347 
L 243.84959 247.865347 
L 243.84959 243.30297 
L 243.963038 243.30297 
L 243.963038 238.740594 
L 246.842162 238.740594 
L 246.87743 229.615842 
L 247.725235 229.615842 
L 247.80498 220.491089 
L 247.974207 220.491089 
L 248.072304 211.366337 
L 248.327929 211.366337 
L 248.385569 202.241584 
L 249.28107 202.241584 
L 249.28107 197.679208 
L 249.473865 197.679208 
L 249.473865 193.116832 
L 249.862402 193.116832 
L 249.862402 188.554455 
L 250.219006 188.554455 
L 250.219006 183.992079 
L 250.439198 183.992079 
L 250.547504 174.867327 
L 251.135682 174.867327 
L 251.135682 170.30495 
L 251.50485 170.30495 
L 251.57462 161.180198 
L 251.729118 161.180198 
L 251.795526 147.493069 
L 251.890594 147.493069 
L 251.890594 142.930693 
L 252.131808 142.930693 
L 252.238902 133.805941 
L 252.546567 133.805941 
L 252.546567 129.243564 
L 253.723454 129.243564 
L 253.723454 124.681188 
L 254.819541 124.681188 
L 254.819541 120.118812 
L 256.038346 120.118812 
L 256.038346 115.556436 
L 256.219383 115.556436 
L 256.219383 110.994059 
L 257.399276 110.994059 
L 257.399276 106.431683 
L 258.06108 106.431683 
L 258.06108 101.869307 
L 258.752698 101.869307 
L 258.752698 97.306931 
L 259.668505 97.306931 
L 259.668505 92.744554 
L 260.548444 92.744554 
L 260.548444 88.182178 
L 261.24105 88.182178 
L 261.24105 83.619802 
L 262.094076 83.619802 
L 262.094076 79.057426 
L 282.289371 79.057426 
L 282.289371 74.49505 
L 285.191366 74.49505 
L 285.191366 69.932673 
L 286.118177 69.932673 
L 286.118177 65.370297 
L 290.853788 65.370297 
L 290.853788 60.807921 
L 293.822165 60.807921 
L 293.822165 56.245545 
L 293.954593 56.245545 
L 293.954593 51.683168 
L 306.570094 51.683168 
L 306.570094 47.120792 
L 309.500697 47.120792 
L 309.500697 42.558416 
L 311.819227 42.558416 
L 311.819227 37.99604 
L 314.23121 37.99604 
L 314.299657 28.871287 
L 320.138692 28.871287 
L 320.138692 24.308911 
L 322.182034 24.308911 
L 322.182034 19.746535 
L 324.386622 19.746535 
L 324.386622 15.184158 
L 325.44927 15.184158 
L 325.44927 10.621782 
L 325.44927 10.621782 
L 453.6 10.621782 
L 453.6 10.621782 
" style="fill:none;stroke:#000000;stroke-linecap:square;"/>
   </g>
   <g id="line2d_5">
    <path clip-path="url(#pc00cc25973)" d="M 215.670272 352.8 
L 215.670272 348.237624 
L 215.897217 348.237624 
L 215.897217 343.675248 
L 216.378447 343.675248 
L 216.378447 339.112871 
L 219.153804 339.112871 
L 219.153804 334.550495 
L 219.861996 334.550495 
L 219.861996 329.988119 
L 221.325955 329.988119 
L 221.325955 325.425743 
L 222.636266 325.425743 
L 222.636266 320.863366 
L 222.881975 320.863366 
L 222.933231 311.738614 
L 223.649377 311.738614 
L 223.649377 307.176238 
L 224.417365 307.176238 
L 224.417365 302.613861 
L 224.924914 302.613861 
L 224.924914 298.051485 
L 226.539971 298.051485 
L 226.631196 288.926733 
L 227.884178 288.926733 
L 227.884178 284.364356 
L 228.306684 284.364356 
L 228.306684 279.80198 
L 229.37193 279.80198 
L 229.37193 275.239604 
L 230.67126 275.239604 
L 230.67126 270.677228 
L 232.778567 270.677228 
L 232.778567 266.114851 
L 233.297167 266.114851 
L 233.297167 261.552475 
L 234.028983 261.552475 
L 234.028983 256.990099 
L 237.252592 256.990099 
L 237.252592 252.427723 
L 239.392013 252.427723 
L 239.392013 247.865347 
L 240.072664 247.865347 
L 240.072664 243.30297 
L 240.319363 243.30297 
L 240.319363 238.740594 
L 240.4461 238.740594 
L 240.4461 234.178218 
L 240.845583 234.178218 
L 240.845583 229.615842 
L 241.416773 229.615842 
L 241.416773 225.053465 
L 241.854862 225.053465 
L 241.854862 220.491089 
L 242.37163 220.491089 
L 242.37163 215.928713 
L 242.557779 215.928713 
L 242.557779 211.366337 
L 242.812488 211.366337 
L 242.812488 206.80396 
L 243.18518 206.80396 
L 243.18518 202.241584 
L 245.653462 202.241584 
L 245.685175 193.116832 
L 246.352004 193.116832 
L 246.352004 188.554455 
L 246.730607 188.554455 
L 246.730607 183.992079 
L 247.318192 183.992079 
L 247.364321 170.30495 
L 248.072304 170.30495 
L 248.157853 161.180198 
L 249.095689 161.180198 
L 249.196086 152.055446 
L 249.662246 152.055446 
L 249.662246 147.493069 
L 249.862402 147.493069 
L 249.963807 138.368317 
L 250.180664 138.368317 
L 250.180664 133.805941 
L 250.36748 133.805941 
L 250.36748 129.243564 
L 250.561151 129.243564 
L 250.561151 124.681188 
L 251.362829 124.681188 
L 251.431705 115.556436 
L 251.795526 115.556436 
L 251.795526 110.994059 
L 252.527335 110.994059 
L 252.527335 106.431683 
L 253.764818 106.431683 
L 253.764818 101.869307 
L 254.399328 101.869307 
L 254.399328 97.306931 
L 254.819541 97.306931 
L 254.880152 88.182178 
L 256.102335 88.182178 
L 256.102335 83.619802 
L 257.275759 83.619802 
L 257.275759 79.057426 
L 259.231947 79.057426 
L 259.239633 69.932673 
L 274.827398 69.932673 
L 274.827398 65.370297 
L 282.802531 65.370297 
L 282.802531 60.807921 
L 283.314769 60.807921 
L 283.314769 56.245545 
L 284.575171 56.245545 
L 284.575171 51.683168 
L 289.046575 51.683168 
L 289.046575 47.120792 
L 291.905336 47.120792 
L 291.905336 42.558416 
L 293.822165 42.558416 
L 293.822165 37.99604 
L 293.954593 37.99604 
L 293.954593 33.433663 
L 294.659797 33.433663 
L 294.659797 28.871287 
L 302.933405 28.871287 
L 302.933405 24.308911 
L 303.745669 24.308911 
L 303.745669 19.746535 
L 305.74129 19.746535 
L 305.74129 15.184158 
L 318.598301 15.184158 
L 318.598301 10.621782 
L 318.598301 10.621782 
L 453.6 10.621782 
L 453.6 10.621782 
" style="fill:none;stroke:#00bfbf;stroke-linecap:square;"/>
   </g>
   <g id="patch_3">
    <path d="M 7.2 7.2 
L 453.6 7.2 
" style="fill:none;stroke:#000000;stroke-linecap:square;stroke-linejoin:miter;"/>
   </g>
   <g id="patch_4">
    <path d="M 453.6 352.8 
L 453.6 7.2 
" style="fill:none;stroke:#000000;stroke-linecap:square;stroke-linejoin:miter;"/>
   </g>
   <g id="patch_5">
    <path d="M 7.2 352.8 
L 453.6 352.8 
" style="fill:none;stroke:#000000;stroke-linecap:square;stroke-linejoin:miter;"/>
   </g>
   <g id="patch_6">
    <path d="M 7.2 352.8 
L 7.2 7.2 
" style="fill:none;stroke:#000000;stroke-linecap:square;stroke-linejoin:miter;"/>
   </g>
   <g id="matplotlib.axis_1">
    <g id="xtick_1"/>
    <g id="xtick_2">
     <g id="line2d_6">
      <path clip-path="url(#pc00cc25973)" d="M 56.704715 352.8 
L 56.704715 7.2 
" style="fill:none;stroke:#000000;stroke-dasharray:1.000000,3.000000;stroke-dashoffset:0.0;stroke-width:0.5;"/>
     </g>
     <g id="line2d_7">
      <defs>
       <path d="M 0 0 
L 0 -4 
" id="m72881ec146" style="stroke:#000000;stroke-width:0.5;"/>
      </defs>
      <g>
       <use style="stroke:#000000;stroke-width:0.5;" x="56.70471484" xlink:href="#m72881ec146" y="352.8"/>
      </g>
     </g>
     <g id="line2d_8">
      <defs>
       <path d="M 0 0 
L 0 4 
" id="me2ff3d7596" style="stroke:#000000;stroke-width:0.5;"/>
      </defs>
      <g>
       <use style="stroke:#000000;stroke-width:0.5;" x="56.70471484" xlink:href="#me2ff3d7596" y="7.2"/>
      </g>
     </g>
     <g id="text_1">
      <!-- -6 -->
      <defs>
       <path d="M 33.015625 40.375 
Q 26.375 40.375 22.484375 35.828125 
Q 18.609375 31.296875 18.609375 23.390625 
Q 18.609375 15.53125 22.484375 10.953125 
Q 26.375 6.390625 33.015625 6.390625 
Q 39.65625 6.390625 43.53125 10.953125 
Q 47.40625 15.53125 47.40625 23.390625 
Q 47.40625 31.296875 43.53125 35.828125 
Q 39.65625 40.375 33.015625 40.375 
M 52.59375 71.296875 
L 52.59375 62.3125 
Q 48.875 64.0625 45.09375 64.984375 
Q 41.3125 65.921875 37.59375 65.921875 
Q 27.828125 65.921875 22.671875 59.328125 
Q 17.53125 52.734375 16.796875 39.40625 
Q 19.671875 43.65625 24.015625 45.921875 
Q 28.375 48.1875 33.59375 48.1875 
Q 44.578125 48.1875 50.953125 41.515625 
Q 57.328125 34.859375 57.328125 23.390625 
Q 57.328125 12.15625 50.6875 5.359375 
Q 44.046875 -1.421875 33.015625 -1.421875 
Q 20.359375 -1.421875 13.671875 8.265625 
Q 6.984375 17.96875 6.984375 36.375 
Q 6.984375 53.65625 15.1875 63.9375 
Q 23.390625 74.21875 37.203125 74.21875 
Q 40.921875 74.21875 44.703125 73.484375 
Q 48.484375 72.75 52.59375 71.296875 
" id="BitstreamVeraSans-Roman-36"/>
       <path d="M 4.890625 31.390625 
L 31.203125 31.390625 
L 31.203125 23.390625 
L 4.890625 23.390625 
z
" id="BitstreamVeraSans-Roman-2d"/>
      </defs>
      <g transform="translate(46.73440234 371.996875)scale(0.2 -0.2)">
       <use xlink:href="#BitstreamVeraSans-Roman-2d"/>
       <use x="36.083984375" xlink:href="#BitstreamVeraSans-Roman-36"/>
      </g>
     </g>
    </g>
    <g id="xtick_3">
     <g id="line2d_9">
      <path clip-path="url(#pc00cc25973)" d="M 106.316625 352.8 
L 106.316625 7.2 
" style="fill:none;stroke:#000000;stroke-dasharray:1.000000,3.000000;stroke-dashoffset:0.0;stroke-width:0.5;"/>
     </g>
     <g id="line2d_10">
      <g>
       <use style="stroke:#000000;stroke-width:0.5;" x="106.316625485" xlink:href="#m72881ec146" y="352.8"/>
      </g>
     </g>
     <g id="line2d_11">
      <g>
       <use style="stroke:#000000;stroke-width:0.5;" x="106.316625485" xlink:href="#me2ff3d7596" y="7.2"/>
      </g>
     </g>
     <g id="text_2">
      <!-- -4 -->
      <defs>
       <path d="M 37.796875 64.3125 
L 12.890625 25.390625 
L 37.796875 25.390625 
z
M 35.203125 72.90625 
L 47.609375 72.90625 
L 47.609375 25.390625 
L 58.015625 25.390625 
L 58.015625 17.1875 
L 47.609375 17.1875 
L 47.609375 0 
L 37.796875 0 
L 37.796875 17.1875 
L 4.890625 17.1875 
L 4.890625 26.703125 
z
" id="BitstreamVeraSans-Roman-34"/>
      </defs>
      <g transform="translate(96.346312985 371.996875)scale(0.2 -0.2)">
       <use xlink:href="#BitstreamVeraSans-Roman-2d"/>
       <use x="36.083984375" xlink:href="#BitstreamVeraSans-Roman-34"/>
      </g>
     </g>
    </g>
    <g id="xtick_4">
     <g id="line2d_12">
      <path clip-path="url(#pc00cc25973)" d="M 155.928536 352.8 
L 155.928536 7.2 
" style="fill:none;stroke:#000000;stroke-dasharray:1.000000,3.000000;stroke-dashoffset:0.0;stroke-width:0.5;"/>
     </g>
     <g id="line2d_13">
      <g>
       <use style="stroke:#000000;stroke-width:0.5;" x="155.92853613" xlink:href="#m72881ec146" y="352.8"/>
      </g>
     </g>
     <g id="line2d_14">
      <g>
       <use style="stroke:#000000;stroke-width:0.5;" x="155.92853613" xlink:href="#me2ff3d7596" y="7.2"/>
      </g>
     </g>
     <g id="text_3">
      <!-- -2 -->
      <defs>
       <path d="M 19.1875 8.296875 
L 53.609375 8.296875 
L 53.609375 0 
L 7.328125 0 
L 7.328125 8.296875 
Q 12.9375 14.109375 22.625 23.890625 
Q 32.328125 33.6875 34.8125 36.53125 
Q 39.546875 41.84375 41.421875 45.53125 
Q 43.3125 49.21875 43.3125 52.78125 
Q 43.3125 58.59375 39.234375 62.25 
Q 35.15625 65.921875 28.609375 65.921875 
Q 23.96875 65.921875 18.8125 64.3125 
Q 13.671875 62.703125 7.8125 59.421875 
L 7.8125 69.390625 
Q 13.765625 71.78125 18.9375 73 
Q 24.125 74.21875 28.421875 74.21875 
Q 39.75 74.21875 46.484375 68.546875 
Q 53.21875 62.890625 53.21875 53.421875 
Q 53.21875 48.921875 51.53125 44.890625 
Q 49.859375 40.875 45.40625 35.40625 
Q 44.1875 33.984375 37.640625 27.21875 
Q 31.109375 20.453125 19.1875 8.296875 
" id="BitstreamVeraSans-Roman-32"/>
      </defs>
      <g transform="translate(145.95822363 371.996875)scale(0.2 -0.2)">
       <use xlink:href="#BitstreamVeraSans-Roman-2d"/>
       <use x="36.083984375" xlink:href="#BitstreamVeraSans-Roman-32"/>
      </g>
     </g>
    </g>
    <g id="xtick_5">
     <g id="line2d_15">
      <path clip-path="url(#pc00cc25973)" d="M 205.540447 352.8 
L 205.540447 7.2 
" style="fill:none;stroke:#000000;stroke-dasharray:1.000000,3.000000;stroke-dashoffset:0.0;stroke-width:0.5;"/>
     </g>
     <g id="line2d_16">
      <g>
       <use style="stroke:#000000;stroke-width:0.5;" x="205.540446775" xlink:href="#m72881ec146" y="352.8"/>
      </g>
     </g>
     <g id="line2d_17">
      <g>
       <use style="stroke:#000000;stroke-width:0.5;" x="205.540446775" xlink:href="#me2ff3d7596" y="7.2"/>
      </g>
     </g>
     <g id="text_4">
      <!-- 0 -->
      <defs>
       <path d="M 31.78125 66.40625 
Q 24.171875 66.40625 20.328125 58.90625 
Q 16.5 51.421875 16.5 36.375 
Q 16.5 21.390625 20.328125 13.890625 
Q 24.171875 6.390625 31.78125 6.390625 
Q 39.453125 6.390625 43.28125 13.890625 
Q 47.125 21.390625 47.125 36.375 
Q 47.125 51.421875 43.28125 58.90625 
Q 39.453125 66.40625 31.78125 66.40625 
M 31.78125 74.21875 
Q 44.046875 74.21875 50.515625 64.515625 
Q 56.984375 54.828125 56.984375 36.375 
Q 56.984375 17.96875 50.515625 8.265625 
Q 44.046875 -1.421875 31.78125 -1.421875 
Q 19.53125 -1.421875 13.0625 8.265625 
Q 6.59375 17.96875 6.59375 36.375 
Q 6.59375 54.828125 13.0625 64.515625 
Q 19.53125 74.21875 31.78125 74.21875 
" id="BitstreamVeraSans-Roman-30"/>
      </defs>
      <g transform="translate(199.177946775 371.996875)scale(0.2 -0.2)">
       <use xlink:href="#BitstreamVeraSans-Roman-30"/>
      </g>
     </g>
    </g>
    <g id="xtick_6">
     <g id="line2d_18">
      <path clip-path="url(#pc00cc25973)" d="M 255.152357 352.8 
L 255.152357 7.2 
" style="fill:none;stroke:#000000;stroke-dasharray:1.000000,3.000000;stroke-dashoffset:0.0;stroke-width:0.5;"/>
     </g>
     <g id="line2d_19">
      <g>
       <use style="stroke:#000000;stroke-width:0.5;" x="255.15235742" xlink:href="#m72881ec146" y="352.8"/>
      </g>
     </g>
     <g id="line2d_20">
      <g>
       <use style="stroke:#000000;stroke-width:0.5;" x="255.15235742" xlink:href="#me2ff3d7596" y="7.2"/>
      </g>
     </g>
     <g id="text_5">
      <!-- 2 -->
      <g transform="translate(248.78985742 371.996875)scale(0.2 -0.2)">
       <use xlink:href="#BitstreamVeraSans-Roman-32"/>
      </g>
     </g>
    </g>
    <g id="xtick_7">
     <g id="line2d_21">
      <path clip-path="url(#pc00cc25973)" d="M 304.764268 352.8 
L 304.764268 7.2 
" style="fill:none;stroke:#000000;stroke-dasharray:1.000000,3.000000;stroke-dashoffset:0.0;stroke-width:0.5;"/>
     </g>
     <g id="line2d_22">
      <g>
       <use style="stroke:#000000;stroke-width:0.5;" x="304.764268065" xlink:href="#m72881ec146" y="352.8"/>
      </g>
     </g>
     <g id="line2d_23">
      <g>
       <use style="stroke:#000000;stroke-width:0.5;" x="304.764268065" xlink:href="#me2ff3d7596" y="7.2"/>
      </g>
     </g>
     <g id="text_6">
      <!-- 4 -->
      <g transform="translate(298.401768065 371.996875)scale(0.2 -0.2)">
       <use xlink:href="#BitstreamVeraSans-Roman-34"/>
      </g>
     </g>
    </g>
    <g id="xtick_8">
     <g id="line2d_24">
      <path clip-path="url(#pc00cc25973)" d="M 354.376179 352.8 
L 354.376179 7.2 
" style="fill:none;stroke:#000000;stroke-dasharray:1.000000,3.000000;stroke-dashoffset:0.0;stroke-width:0.5;"/>
     </g>
     <g id="line2d_25">
      <g>
       <use style="stroke:#000000;stroke-width:0.5;" x="354.37617871" xlink:href="#m72881ec146" y="352.8"/>
      </g>
     </g>
     <g id="line2d_26">
      <g>
       <use style="stroke:#000000;stroke-width:0.5;" x="354.37617871" xlink:href="#me2ff3d7596" y="7.2"/>
      </g>
     </g>
     <g id="text_7">
      <!-- 6 -->
      <g transform="translate(348.01367871 371.996875)scale(0.2 -0.2)">
       <use xlink:href="#BitstreamVeraSans-Roman-36"/>
      </g>
     </g>
    </g>
    <g id="xtick_9">
     <g id="line2d_27">
      <path clip-path="url(#pc00cc25973)" d="M 403.988089 352.8 
L 403.988089 7.2 
" style="fill:none;stroke:#000000;stroke-dasharray:1.000000,3.000000;stroke-dashoffset:0.0;stroke-width:0.5;"/>
     </g>
     <g id="line2d_28">
      <g>
       <use style="stroke:#000000;stroke-width:0.5;" x="403.988089355" xlink:href="#m72881ec146" y="352.8"/>
      </g>
     </g>
     <g id="line2d_29">
      <g>
       <use style="stroke:#000000;stroke-width:0.5;" x="403.988089355" xlink:href="#me2ff3d7596" y="7.2"/>
      </g>
     </g>
     <g id="text_8">
      <!-- 8 -->
      <defs>
       <path d="M 31.78125 34.625 
Q 24.75 34.625 20.71875 30.859375 
Q 16.703125 27.09375 16.703125 20.515625 
Q 16.703125 13.921875 20.71875 10.15625 
Q 24.75 6.390625 31.78125 6.390625 
Q 38.8125 6.390625 42.859375 10.171875 
Q 46.921875 13.96875 46.921875 20.515625 
Q 46.921875 27.09375 42.890625 30.859375 
Q 38.875 34.625 31.78125 34.625 
M 21.921875 38.8125 
Q 15.578125 40.375 12.03125 44.71875 
Q 8.5 49.078125 8.5 55.328125 
Q 8.5 64.0625 14.71875 69.140625 
Q 20.953125 74.21875 31.78125 74.21875 
Q 42.671875 74.21875 48.875 69.140625 
Q 55.078125 64.0625 55.078125 55.328125 
Q 55.078125 49.078125 51.53125 44.71875 
Q 48 40.375 41.703125 38.8125 
Q 48.828125 37.15625 52.796875 32.3125 
Q 56.78125 27.484375 56.78125 20.515625 
Q 56.78125 9.90625 50.3125 4.234375 
Q 43.84375 -1.421875 31.78125 -1.421875 
Q 19.734375 -1.421875 13.25 4.234375 
Q 6.78125 9.90625 6.78125 20.515625 
Q 6.78125 27.484375 10.78125 32.3125 
Q 14.796875 37.15625 21.921875 38.8125 
M 18.3125 54.390625 
Q 18.3125 48.734375 21.84375 45.5625 
Q 25.390625 42.390625 31.78125 42.390625 
Q 38.140625 42.390625 41.71875 45.5625 
Q 45.3125 48.734375 45.3125 54.390625 
Q 45.3125 60.0625 41.71875 63.234375 
Q 38.140625 66.40625 31.78125 66.40625 
Q 25.390625 66.40625 21.84375 63.234375 
Q 18.3125 60.0625 18.3125 54.390625 
" id="BitstreamVeraSans-Roman-38"/>
      </defs>
      <g transform="translate(397.625589355 371.996875)scale(0.2 -0.2)">
       <use xlink:href="#BitstreamVeraSans-Roman-38"/>
      </g>
     </g>
    </g>
    <g id="xtick_10">
     <g id="line2d_30">
      <path clip-path="url(#pc00cc25973)" d="M 453.6 352.8 
L 453.6 7.2 
" style="fill:none;stroke:#000000;stroke-dasharray:1.000000,3.000000;stroke-dashoffset:0.0;stroke-width:0.5;"/>
     </g>
     <g id="line2d_31">
      <g>
       <use style="stroke:#000000;stroke-width:0.5;" x="453.6" xlink:href="#m72881ec146" y="352.8"/>
      </g>
     </g>
     <g id="line2d_32">
      <g>
       <use style="stroke:#000000;stroke-width:0.5;" x="453.6" xlink:href="#me2ff3d7596" y="7.2"/>
      </g>
     </g>
    </g>
    <g id="xtick_11"/>
    <g id="xtick_12">
     <g id="line2d_33">
      <defs>
       <path d="M 0 0 
L 0 -2 
" id="m2eaf730f5f" style="stroke:#000000;stroke-width:0.5;"/>
      </defs>
      <g>
       <use style="stroke:#000000;stroke-width:0.5;" x="56.70471484" xlink:href="#m2eaf730f5f" y="352.8"/>
      </g>
     </g>
     <g id="line2d_34">
      <defs>
       <path d="M 0 0 
L 0 2 
" id="m833d0f8942" style="stroke:#000000;stroke-width:0.5;"/>
      </defs>
      <g>
       <use style="stroke:#000000;stroke-width:0.5;" x="56.70471484" xlink:href="#m833d0f8942" y="7.2"/>
      </g>
     </g>
    </g>
    <g id="xtick_13">
     <g id="line2d_35">
      <g>
       <use style="stroke:#000000;stroke-width:0.5;" x="106.316625485" xlink:href="#m2eaf730f5f" y="352.8"/>
      </g>
     </g>
     <g id="line2d_36">
      <g>
       <use style="stroke:#000000;stroke-width:0.5;" x="106.316625485" xlink:href="#m833d0f8942" y="7.2"/>
      </g>
     </g>
    </g>
    <g id="xtick_14">
     <g id="line2d_37">
      <g>
       <use style="stroke:#000000;stroke-width:0.5;" x="155.92853613" xlink:href="#m2eaf730f5f" y="352.8"/>
      </g>
     </g>
     <g id="line2d_38">
      <g>
       <use style="stroke:#000000;stroke-width:0.5;" x="155.92853613" xlink:href="#m833d0f8942" y="7.2"/>
      </g>
     </g>
    </g>
    <g id="xtick_15">
     <g id="line2d_39">
      <g>
       <use style="stroke:#000000;stroke-width:0.5;" x="205.540446775" xlink:href="#m2eaf730f5f" y="352.8"/>
      </g>
     </g>
     <g id="line2d_40">
      <g>
       <use style="stroke:#000000;stroke-width:0.5;" x="205.540446775" xlink:href="#m833d0f8942" y="7.2"/>
      </g>
     </g>
    </g>
    <g id="xtick_16">
     <g id="line2d_41">
      <g>
       <use style="stroke:#000000;stroke-width:0.5;" x="255.15235742" xlink:href="#m2eaf730f5f" y="352.8"/>
      </g>
     </g>
     <g id="line2d_42">
      <g>
       <use style="stroke:#000000;stroke-width:0.5;" x="255.15235742" xlink:href="#m833d0f8942" y="7.2"/>
      </g>
     </g>
    </g>
    <g id="xtick_17">
     <g id="line2d_43">
      <g>
       <use style="stroke:#000000;stroke-width:0.5;" x="304.764268065" xlink:href="#m2eaf730f5f" y="352.8"/>
      </g>
     </g>
     <g id="line2d_44">
      <g>
       <use style="stroke:#000000;stroke-width:0.5;" x="304.764268065" xlink:href="#m833d0f8942" y="7.2"/>
      </g>
     </g>
    </g>
    <g id="xtick_18">
     <g id="line2d_45">
      <g>
       <use style="stroke:#000000;stroke-width:0.5;" x="354.37617871" xlink:href="#m2eaf730f5f" y="352.8"/>
      </g>
     </g>
     <g id="line2d_46">
      <g>
       <use style="stroke:#000000;stroke-width:0.5;" x="354.37617871" xlink:href="#m833d0f8942" y="7.2"/>
      </g>
     </g>
    </g>
    <g id="xtick_19">
     <g id="line2d_47">
      <g>
       <use style="stroke:#000000;stroke-width:0.5;" x="403.988089355" xlink:href="#m2eaf730f5f" y="352.8"/>
      </g>
     </g>
     <g id="line2d_48">
      <g>
       <use style="stroke:#000000;stroke-width:0.5;" x="403.988089355" xlink:href="#m833d0f8942" y="7.2"/>
      </g>
     </g>
    </g>
    <g id="xtick_20">
     <g id="line2d_49">
      <g>
       <use style="stroke:#000000;stroke-width:0.5;" x="453.6" xlink:href="#m2eaf730f5f" y="352.8"/>
      </g>
     </g>
     <g id="line2d_50">
      <g>
       <use style="stroke:#000000;stroke-width:0.5;" x="453.6" xlink:href="#m833d0f8942" y="7.2"/>
      </g>
     </g>
    </g>
    <g id="text_9">
     <!-- log10 of Df -->
     <defs>
      <path id="BitstreamVeraSans-Roman-20"/>
      <path d="M 12.40625 8.296875 
L 28.515625 8.296875 
L 28.515625 63.921875 
L 10.984375 60.40625 
L 10.984375 69.390625 
L 28.421875 72.90625 
L 38.28125 72.90625 
L 38.28125 8.296875 
L 54.390625 8.296875 
L 54.390625 0 
L 12.40625 0 
z
" id="BitstreamVeraSans-Roman-31"/>
      <path d="M 30.609375 48.390625 
Q 23.390625 48.390625 19.1875 42.75 
Q 14.984375 37.109375 14.984375 27.296875 
Q 14.984375 17.484375 19.15625 11.84375 
Q 23.34375 6.203125 30.609375 6.203125 
Q 37.796875 6.203125 41.984375 11.859375 
Q 46.1875 17.53125 46.1875 27.296875 
Q 46.1875 37.015625 41.984375 42.703125 
Q 37.796875 48.390625 30.609375 48.390625 
M 30.609375 56 
Q 42.328125 56 49.015625 48.375 
Q 55.71875 40.765625 55.71875 27.296875 
Q 55.71875 13.875 49.015625 6.21875 
Q 42.328125 -1.421875 30.609375 -1.421875 
Q 18.84375 -1.421875 12.171875 6.21875 
Q 5.515625 13.875 5.515625 27.296875 
Q 5.515625 40.765625 12.171875 48.375 
Q 18.84375 56 30.609375 56 
" id="BitstreamVeraSans-Roman-6f"/>
      <path d="M 9.421875 75.984375 
L 18.40625 75.984375 
L 18.40625 0 
L 9.421875 0 
z
" id="BitstreamVeraSans-Roman-6c"/>
      <path d="M 19.671875 64.796875 
L 19.671875 8.109375 
L 31.59375 8.109375 
Q 46.6875 8.109375 53.6875 14.9375 
Q 60.6875 21.78125 60.6875 36.53125 
Q 60.6875 51.171875 53.6875 57.984375 
Q 46.6875 64.796875 31.59375 64.796875 
z
M 9.8125 72.90625 
L 30.078125 72.90625 
Q 51.265625 72.90625 61.171875 64.09375 
Q 71.09375 55.28125 71.09375 36.53125 
Q 71.09375 17.671875 61.125 8.828125 
Q 51.171875 0 30.078125 0 
L 9.8125 0 
z
" id="BitstreamVeraSans-Roman-44"/>
      <path d="M 45.40625 27.984375 
Q 45.40625 37.75 41.375 43.109375 
Q 37.359375 48.484375 30.078125 48.484375 
Q 22.859375 48.484375 18.828125 43.109375 
Q 14.796875 37.75 14.796875 27.984375 
Q 14.796875 18.265625 18.828125 12.890625 
Q 22.859375 7.515625 30.078125 7.515625 
Q 37.359375 7.515625 41.375 12.890625 
Q 45.40625 18.265625 45.40625 27.984375 
M 54.390625 6.78125 
Q 54.390625 -7.171875 48.1875 -13.984375 
Q 42 -20.796875 29.203125 -20.796875 
Q 24.46875 -20.796875 20.265625 -20.09375 
Q 16.0625 -19.390625 12.109375 -17.921875 
L 12.109375 -9.1875 
Q 16.0625 -11.328125 19.921875 -12.34375 
Q 23.78125 -13.375 27.78125 -13.375 
Q 36.625 -13.375 41.015625 -8.765625 
Q 45.40625 -4.15625 45.40625 5.171875 
L 45.40625 9.625 
Q 42.625 4.78125 38.28125 2.390625 
Q 33.9375 0 27.875 0 
Q 17.828125 0 11.671875 7.65625 
Q 5.515625 15.328125 5.515625 27.984375 
Q 5.515625 40.671875 11.671875 48.328125 
Q 17.828125 56 27.875 56 
Q 33.9375 56 38.28125 53.609375 
Q 42.625 51.21875 45.40625 46.390625 
L 45.40625 54.6875 
L 54.390625 54.6875 
z
" id="BitstreamVeraSans-Roman-67"/>
      <path d="M 37.109375 75.984375 
L 37.109375 68.5 
L 28.515625 68.5 
Q 23.6875 68.5 21.796875 66.546875 
Q 19.921875 64.59375 19.921875 59.515625 
L 19.921875 54.6875 
L 34.71875 54.6875 
L 34.71875 47.703125 
L 19.921875 47.703125 
L 19.921875 0 
L 10.890625 0 
L 10.890625 47.703125 
L 2.296875 47.703125 
L 2.296875 54.6875 
L 10.890625 54.6875 
L 10.890625 58.5 
Q 10.890625 67.625 15.140625 71.796875 
Q 19.390625 75.984375 28.609375 75.984375 
z
" id="BitstreamVeraSans-Roman-66"/>
     </defs>
     <g transform="translate(175.2140625 396.353125)scale(0.2 -0.2)">
      <use xlink:href="#BitstreamVeraSans-Roman-6c"/>
      <use x="27.783203125" xlink:href="#BitstreamVeraSans-Roman-6f"/>
      <use x="88.96484375" xlink:href="#BitstreamVeraSans-Roman-67"/>
      <use x="152.44140625" xlink:href="#BitstreamVeraSans-Roman-31"/>
      <use x="216.064453125" xlink:href="#BitstreamVeraSans-Roman-30"/>
      <use x="279.6875" xlink:href="#BitstreamVeraSans-Roman-20"/>
      <use x="311.474609375" xlink:href="#BitstreamVeraSans-Roman-6f"/>
      <use x="372.65625" xlink:href="#BitstreamVeraSans-Roman-66"/>
      <use x="407.861328125" xlink:href="#BitstreamVeraSans-Roman-20"/>
      <use x="439.6484375" xlink:href="#BitstreamVeraSans-Roman-44"/>
      <use x="516.650390625" xlink:href="#BitstreamVeraSans-Roman-66"/>
     </g>
    </g>
   </g>
   <g id="matplotlib.axis_2">
    <g id="ytick_1">
     <g id="line2d_51">
      <path clip-path="url(#pc00cc25973)" d="M 7.2 352.8 
L 453.6 352.8 
" style="fill:none;stroke:#000000;stroke-dasharray:1.000000,3.000000;stroke-dashoffset:0.0;stroke-width:0.5;"/>
     </g>
     <g id="line2d_52">
      <defs>
       <path d="M 0 0 
L 4 0 
" id="m8d86b451ee" style="stroke:#000000;stroke-width:0.5;"/>
      </defs>
      <g>
       <use style="stroke:#000000;stroke-width:0.5;" x="7.2" xlink:href="#m8d86b451ee" y="352.8"/>
      </g>
     </g>
     <g id="line2d_53">
      <defs>
       <path d="M 0 0 
L -4 0 
" id="ma410845162" style="stroke:#000000;stroke-width:0.5;"/>
      </defs>
      <g>
       <use style="stroke:#000000;stroke-width:0.5;" x="453.6" xlink:href="#ma410845162" y="352.8"/>
      </g>
     </g>
    </g>
    <g id="ytick_2">
     <g id="line2d_54">
      <path clip-path="url(#pc00cc25973)" d="M 7.2 284.364356 
L 453.6 284.364356 
" style="fill:none;stroke:#000000;stroke-dasharray:1.000000,3.000000;stroke-dashoffset:0.0;stroke-width:0.5;"/>
     </g>
     <g id="line2d_55">
      <g>
       <use style="stroke:#000000;stroke-width:0.5;" x="7.2" xlink:href="#m8d86b451ee" y="284.364356436"/>
      </g>
     </g>
     <g id="line2d_56">
      <g>
       <use style="stroke:#000000;stroke-width:0.5;" x="453.6" xlink:href="#ma410845162" y="284.364356436"/>
      </g>
     </g>
    </g>
    <g id="ytick_3">
     <g id="line2d_57">
      <path clip-path="url(#pc00cc25973)" d="M 7.2 215.928713 
L 453.6 215.928713 
" style="fill:none;stroke:#000000;stroke-dasharray:1.000000,3.000000;stroke-dashoffset:0.0;stroke-width:0.5;"/>
     </g>
     <g id="line2d_58">
      <g>
       <use style="stroke:#000000;stroke-width:0.5;" x="7.2" xlink:href="#m8d86b451ee" y="215.928712871"/>
      </g>
     </g>
     <g id="line2d_59">
      <g>
       <use style="stroke:#000000;stroke-width:0.5;" x="453.6" xlink:href="#ma410845162" y="215.928712871"/>
      </g>
     </g>
    </g>
    <g id="ytick_4">
     <g id="line2d_60">
      <path clip-path="url(#pc00cc25973)" d="M 7.2 147.493069 
L 453.6 147.493069 
" style="fill:none;stroke:#000000;stroke-dasharray:1.000000,3.000000;stroke-dashoffset:0.0;stroke-width:0.5;"/>
     </g>
     <g id="line2d_61">
      <g>
       <use style="stroke:#000000;stroke-width:0.5;" x="7.2" xlink:href="#m8d86b451ee" y="147.493069307"/>
      </g>
     </g>
     <g id="line2d_62">
      <g>
       <use style="stroke:#000000;stroke-width:0.5;" x="453.6" xlink:href="#ma410845162" y="147.493069307"/>
      </g>
     </g>
    </g>
    <g id="ytick_5">
     <g id="line2d_63">
      <path clip-path="url(#pc00cc25973)" d="M 7.2 79.057426 
L 453.6 79.057426 
" style="fill:none;stroke:#000000;stroke-dasharray:1.000000,3.000000;stroke-dashoffset:0.0;stroke-width:0.5;"/>
     </g>
     <g id="line2d_64">
      <g>
       <use style="stroke:#000000;stroke-width:0.5;" x="7.2" xlink:href="#m8d86b451ee" y="79.0574257426"/>
      </g>
     </g>
     <g id="line2d_65">
      <g>
       <use style="stroke:#000000;stroke-width:0.5;" x="453.6" xlink:href="#ma410845162" y="79.0574257426"/>
      </g>
     </g>
    </g>
    <g id="ytick_6">
     <g id="line2d_66">
      <path clip-path="url(#pc00cc25973)" d="M 7.2 10.621782 
L 453.6 10.621782 
" style="fill:none;stroke:#000000;stroke-dasharray:1.000000,3.000000;stroke-dashoffset:0.0;stroke-width:0.5;"/>
     </g>
     <g id="line2d_67">
      <g>
       <use style="stroke:#000000;stroke-width:0.5;" x="7.2" xlink:href="#m8d86b451ee" y="10.6217821782"/>
      </g>
     </g>
     <g id="line2d_68">
      <g>
       <use style="stroke:#000000;stroke-width:0.5;" x="453.6" xlink:href="#ma410845162" y="10.6217821782"/>
      </g>
     </g>
    </g>
   </g>
   <g id="text_10">
    <!-- {f20-f24}, 5-D -->
    <defs>
     <path d="M 12.5 -9.28125 
L 15.921875 -9.28125 
Q 22.75 -9.28125 24.828125 -7.171875 
Q 26.90625 -5.078125 26.90625 1.90625 
L 26.90625 14.015625 
Q 26.90625 21.625 29.09375 25.09375 
Q 31.296875 28.5625 36.71875 29.890625 
Q 31.296875 31.109375 29.09375 34.5625 
Q 26.90625 38.03125 26.90625 45.703125 
L 26.90625 57.8125 
Q 26.90625 64.75 24.828125 66.875 
Q 22.75 69 15.921875 69 
L 12.5 69 
L 12.5 75.984375 
L 15.578125 75.984375 
Q 27.734375 75.984375 31.8125 72.390625 
Q 35.890625 68.796875 35.890625 58.015625 
L 35.890625 46.296875 
Q 35.890625 39.015625 38.515625 36.203125 
Q 41.15625 33.40625 48.09375 33.40625 
L 51.125 33.40625 
L 51.125 26.421875 
L 48.09375 26.421875 
Q 41.15625 26.421875 38.515625 23.578125 
Q 35.890625 20.75 35.890625 13.375 
L 35.890625 1.703125 
Q 35.890625 -9.078125 31.8125 -12.6875 
Q 27.734375 -16.3125 15.578125 -16.3125 
L 12.5 -16.3125 
z
" id="BitstreamVeraSans-Roman-7d"/>
     <path d="M 51.125 -9.28125 
L 51.125 -16.3125 
L 48.09375 -16.3125 
Q 35.9375 -16.3125 31.8125 -12.6875 
Q 27.6875 -9.078125 27.6875 1.703125 
L 27.6875 13.375 
Q 27.6875 20.75 25.046875 23.578125 
Q 22.40625 26.421875 15.484375 26.421875 
L 12.5 26.421875 
L 12.5 33.40625 
L 15.484375 33.40625 
Q 22.46875 33.40625 25.078125 36.203125 
Q 27.6875 39.015625 27.6875 46.296875 
L 27.6875 58.015625 
Q 27.6875 68.796875 31.8125 72.390625 
Q 35.9375 75.984375 48.09375 75.984375 
L 51.125 75.984375 
L 51.125 69 
L 47.796875 69 
Q 40.921875 69 38.8125 66.84375 
Q 36.71875 64.703125 36.71875 57.8125 
L 36.71875 45.703125 
Q 36.71875 38.03125 34.5 34.5625 
Q 32.28125 31.109375 26.90625 29.890625 
Q 32.328125 28.5625 34.515625 25.09375 
Q 36.71875 21.625 36.71875 14.015625 
L 36.71875 1.90625 
Q 36.71875 -4.984375 38.8125 -7.125 
Q 40.921875 -9.28125 47.796875 -9.28125 
z
" id="BitstreamVeraSans-Roman-7b"/>
     <path d="M 11.71875 12.40625 
L 22.015625 12.40625 
L 22.015625 4 
L 14.015625 -11.625 
L 7.71875 -11.625 
L 11.71875 4 
z
" id="BitstreamVeraSans-Roman-2c"/>
     <path d="M 10.796875 72.90625 
L 49.515625 72.90625 
L 49.515625 64.59375 
L 19.828125 64.59375 
L 19.828125 46.734375 
Q 21.96875 47.46875 24.109375 47.828125 
Q 26.265625 48.1875 28.421875 48.1875 
Q 40.625 48.1875 47.75 41.5 
Q 54.890625 34.8125 54.890625 23.390625 
Q 54.890625 11.625 47.5625 5.09375 
Q 40.234375 -1.421875 26.90625 -1.421875 
Q 22.3125 -1.421875 17.546875 -0.640625 
Q 12.796875 0.140625 7.71875 1.703125 
L 7.71875 11.625 
Q 12.109375 9.234375 16.796875 8.0625 
Q 21.484375 6.890625 26.703125 6.890625 
Q 35.15625 6.890625 40.078125 11.328125 
Q 45.015625 15.765625 45.015625 23.390625 
Q 45.015625 31 40.078125 35.4375 
Q 35.15625 39.890625 26.703125 39.890625 
Q 22.75 39.890625 18.8125 39.015625 
Q 14.890625 38.140625 10.796875 36.28125 
z
" id="BitstreamVeraSans-Roman-35"/>
    </defs>
    <g transform="translate(298.972 345.888)scale(0.2 -0.2)">
     <use xlink:href="#BitstreamVeraSans-Roman-7b"/>
     <use x="63.623046875" xlink:href="#BitstreamVeraSans-Roman-66"/>
     <use x="98.828125" xlink:href="#BitstreamVeraSans-Roman-32"/>
     <use x="162.451171875" xlink:href="#BitstreamVeraSans-Roman-30"/>
     <use x="226.07421875" xlink:href="#BitstreamVeraSans-Roman-2d"/>
     <use x="262.158203125" xlink:href="#BitstreamVeraSans-Roman-66"/>
     <use x="297.36328125" xlink:href="#BitstreamVeraSans-Roman-32"/>
     <use x="360.986328125" xlink:href="#BitstreamVeraSans-Roman-34"/>
     <use x="424.609375" xlink:href="#BitstreamVeraSans-Roman-7d"/>
     <use x="488.232421875" xlink:href="#BitstreamVeraSans-Roman-2c"/>
     <use x="520.01953125" xlink:href="#BitstreamVeraSans-Roman-20"/>
     <use x="551.806640625" xlink:href="#BitstreamVeraSans-Roman-35"/>
     <use x="615.4296875" xlink:href="#BitstreamVeraSans-Roman-2d"/>
     <use x="651.513671875" xlink:href="#BitstreamVeraSans-Roman-44"/>
    </g>
   </g>
   <g id="text_11">
    <!-- 0.0.0 -->
    <defs>
     <path d="M 10.6875 12.40625 
L 21 12.40625 
L 21 0 
L 10.6875 0 
z
" id="BitstreamVeraSans-Roman-2e"/>
    </defs>
    <g style="fill:#808080;" transform="translate(217.678125 347.2643125)scale(0.1 -0.1)">
     <use xlink:href="#BitstreamVeraSans-Roman-30"/>
     <use x="63.623046875" xlink:href="#BitstreamVeraSans-Roman-2e"/>
     <use x="95.41015625" xlink:href="#BitstreamVeraSans-Roman-30"/>
     <use x="159.033203125" xlink:href="#BitstreamVeraSans-Roman-2e"/>
     <use x="190.8203125" xlink:href="#BitstreamVeraSans-Roman-30"/>
    </g>
   </g>
  </g>
 </g>
 <defs>
  <clipPath id="pc00cc25973">
   <rect height="345.6" width="446.4" x="7.2" y="7.2"/>
  </clipPath>
 </defs>
</svg>
