<?xml version="1.0" encoding="utf-8" standalone="no"?>
<!DOCTYPE svg PUBLIC "-//W3C//DTD SVG 1.1//EN"
  "http://www.w3.org/Graphics/SVG/1.1/DTD/svg11.dtd">
<!-- Created with matplotlib (http://matplotlib.org/) -->
<svg height="407pt" version="1.1" viewBox="0 0 460 407" width="460pt" xmlns="http://www.w3.org/2000/svg" xmlns:xlink="http://www.w3.org/1999/xlink">
 <defs>
  <style type="text/css">
*{stroke-linecap:butt;stroke-linejoin:round;stroke-miterlimit:100000;}
  </style>
 </defs>
 <g id="figure_1">
  <g id="patch_1">
   <path d="M 0 407.7125 
L 460.8 407.7125 
L 460.8 0 
L 0 0 
z
" style="fill:#ffffff;"/>
  </g>
  <g id="axes_1">
   <g id="patch_2">
    <path d="M 7.2 352.8 
L 453.6 352.8 
L 453.6 7.2 
L 7.2 7.2 
z
" style="fill:#ffffff;"/>
   </g>
   <g id="line2d_1">
    <path clip-path="url(#pc147643da5)" d="M 218.044918 352.8 
L 218.044918 348.237624 
L 220.969593 348.237624 
L 220.969593 343.675248 
L 223.193324 343.675248 
L 223.21011 334.550495 
L 224.139682 334.550495 
L 224.139682 329.988119 
L 224.286234 329.988119 
L 224.286234 325.425743 
L 224.484744 325.425743 
L 224.484744 320.863366 
L 224.754604 320.863366 
L 224.754604 316.30099 
L 225.004565 316.30099 
L 225.004565 311.738614 
L 226.312232 311.738614 
L 226.371815 298.051485 
L 227.611362 298.051485 
L 227.611362 293.489109 
L 227.871826 293.489109 
L 227.871826 288.926733 
L 228.288126 288.926733 
L 228.288126 284.364356 
L 251.088158 284.364356 
L 251.088158 279.80198 
L 251.608388 279.80198 
L 251.662922 270.677228 
L 251.842962 270.677228 
L 251.842962 266.114851 
L 252.102097 266.114851 
L 252.201031 252.427723 
L 252.333598 252.427723 
L 252.443467 234.178218 
L 252.480189 234.178218 
L 252.586934 220.491089 
L 252.680696 220.491089 
L 252.783871 202.241584 
L 252.800491 202.241584 
L 252.901018 188.554455 
L 252.916437 188.554455 
L 252.993635 179.429703 
L 253.145822 179.429703 
L 253.238357 165.742574 
L 253.295593 165.742574 
L 253.352013 156.617822 
L 253.411976 156.617822 
L 253.501013 147.493069 
L 269.945318 147.493069 
L 269.945318 142.930693 
L 270.181657 142.930693 
L 270.181657 138.368317 
L 270.695736 138.368317 
L 270.793352 124.681188 
L 271.490416 124.681188 
L 271.490416 120.118812 
L 271.706428 120.118812 
L 271.718719 110.994059 
L 272.09815 110.994059 
L 272.09815 106.431683 
L 272.318109 106.431683 
L 272.318109 101.869307 
L 272.537765 101.869307 
L 272.613411 92.744554 
L 273.078335 92.744554 
L 273.078335 88.182178 
L 273.598472 88.182178 
L 273.598472 83.619802 
L 273.75417 83.619802 
L 273.75417 79.057426 
L 302.35588 79.057426 
L 302.35588 74.49505 
L 306.718693 74.49505 
L 306.718693 69.932673 
L 308.957869 69.932673 
L 308.957869 65.370297 
L 309.165484 65.370297 
L 309.165484 60.807921 
L 310.153522 60.807921 
L 310.153522 56.245545 
L 311.715826 56.245545 
L 311.715826 51.683168 
L 313.663831 51.683168 
L 313.663831 47.120792 
L 315.076744 47.120792 
L 315.08081 37.99604 
L 316.407581 37.99604 
L 316.407581 33.433663 
L 316.861418 33.433663 
L 316.861418 28.871287 
L 317.007113 28.871287 
L 317.007113 24.308911 
L 317.978492 24.308911 
L 317.978492 19.746535 
L 318.223336 19.746535 
L 318.223336 15.184158 
L 323.384028 15.184158 
L 323.384028 10.621782 
L 323.384028 10.621782 
L 453.6 10.621782 
L 453.6 10.621782 
" style="fill:none;stroke:#ff0000;stroke-linecap:square;stroke-width:3.0;"/>
   </g>
   <g id="line2d_2">
    <path clip-path="url(#pc147643da5)" d="M 228.82787 352.8 
L 228.82787 348.237624 
L 229.832867 348.237624 
L 229.883677 339.112871 
L 230.901836 339.112871 
L 230.901836 334.550495 
L 233.167143 334.550495 
L 233.268667 325.425743 
L 234.680914 325.425743 
L 234.680914 320.863366 
L 234.837335 320.863366 
L 234.906246 311.738614 
L 236.119007 311.738614 
L 236.119007 307.176238 
L 236.23563 307.176238 
L 236.23563 302.613861 
L 236.780069 302.613861 
L 236.780069 298.051485 
L 237.501341 298.051485 
L 237.501341 293.489109 
L 238.7424 293.489109 
L 238.7424 288.926733 
L 241.05477 288.926733 
L 241.05477 284.364356 
L 253.182879 284.364356 
L 253.228121 270.677228 
L 253.488943 270.677228 
L 253.562002 247.865347 
L 253.602168 247.865347 
L 253.67945 220.491089 
L 253.761536 220.491089 
L 253.813734 193.116832 
L 253.883845 193.116832 
L 253.978265 179.429703 
L 254.022382 179.429703 
L 254.049998 170.30495 
L 254.133739 170.30495 
L 254.133739 165.742574 
L 254.262098 165.742574 
L 254.276602 156.617822 
L 254.75854 156.617822 
L 254.75854 152.055446 
L 254.971128 152.055446 
L 254.971128 147.493069 
L 280.410536 147.493069 
L 280.410536 142.930693 
L 287.046252 142.930693 
L 287.046252 138.368317 
L 291.577538 138.368317 
L 291.577538 133.805941 
L 294.993561 133.805941 
L 294.993561 129.243564 
L 296.463805 129.243564 
L 296.463805 124.681188 
L 300.403376 124.681188 
L 300.403376 120.118812 
L 301.004938 120.118812 
L 301.004938 115.556436 
L 305.848344 115.556436 
L 305.848344 110.994059 
L 308.234512 110.994059 
L 308.234512 106.431683 
L 309.451089 106.431683 
L 309.451089 101.869307 
L 311.823773 101.869307 
L 311.823773 97.306931 
L 315.271401 97.306931 
L 315.271401 92.744554 
L 317.207319 92.744554 
L 317.207319 88.182178 
L 322.300182 88.182178 
L 322.300182 83.619802 
L 325.068132 83.619802 
L 325.068132 79.057426 
L 328.127801 79.057426 
L 328.127801 74.49505 
L 332.03701 74.49505 
L 332.03701 69.932673 
L 332.391413 69.932673 
L 332.391413 65.370297 
L 332.755716 65.370297 
L 332.755716 60.807921 
L 332.901309 60.807921 
L 333.011775 51.683168 
L 333.092704 51.683168 
L 333.092704 47.120792 
L 333.535232 47.120792 
L 333.535232 42.558416 
L 334.163436 42.558416 
L 334.163436 37.99604 
L 335.43554 37.99604 
L 335.43554 33.433663 
L 335.750838 33.433663 
L 335.750838 28.871287 
L 336.769966 28.871287 
L 336.769966 24.308911 
L 337.958748 24.308911 
L 337.974536 15.184158 
L 343.591729 15.184158 
L 343.591729 10.621782 
L 343.591729 10.621782 
L 453.6 10.621782 
L 453.6 10.621782 
" style="fill:none;stroke:#00bfbf;stroke-linecap:square;"/>
   </g>
   <g id="line2d_3">
    <path clip-path="url(#pc147643da5)" d="M 228.82787 352.8 
L 228.82787 348.237624 
L 229.832867 348.237624 
L 229.883677 339.112871 
L 230.901836 339.112871 
L 230.921899 329.988119 
L 231.361947 329.988119 
L 231.361947 325.425743 
L 232.104622 325.425743 
L 232.12909 316.30099 
L 232.92369 316.30099 
L 232.92369 311.738614 
L 233.076266 311.738614 
L 233.076266 307.176238 
L 233.325704 307.176238 
L 233.325704 302.613861 
L 234.680914 302.613861 
L 234.680914 298.051485 
L 235.333517 298.051485 
L 235.333517 293.489109 
L 236.119007 293.489109 
L 236.119007 288.926733 
L 236.780069 288.926733 
L 236.780069 284.364356 
L 253.182879 284.364356 
L 253.228121 270.677228 
L 253.374427 270.677228 
L 253.436716 256.990099 
L 253.497494 256.990099 
L 253.602168 202.241584 
L 253.622746 202.241584 
L 253.725493 170.30495 
L 253.77316 170.30495 
L 253.807121 156.617822 
L 253.903457 156.617822 
L 253.903457 152.055446 
L 254.022382 152.055446 
L 254.022382 147.493069 
L 275.201944 147.493069 
L 275.201944 142.930693 
L 276.602751 142.930693 
L 276.602751 138.368317 
L 277.578666 138.368317 
L 277.578666 133.805941 
L 277.800209 133.805941 
L 277.800209 129.243564 
L 277.927435 129.243564 
L 277.927435 124.681188 
L 280.410536 124.681188 
L 280.410536 120.118812 
L 287.495527 120.118812 
L 287.495527 115.556436 
L 291.577538 115.556436 
L 291.577538 110.994059 
L 294.619733 110.994059 
L 294.619733 106.431683 
L 294.993561 106.431683 
L 294.993561 101.869307 
L 300.594569 101.869307 
L 300.594569 97.306931 
L 301.004938 97.306931 
L 301.004938 92.744554 
L 309.39146 92.744554 
L 309.39146 88.182178 
L 319.878115 88.182178 
L 319.878115 83.619802 
L 322.300182 83.619802 
L 322.300182 79.057426 
L 324.214456 79.057426 
L 324.214456 74.49505 
L 325.068132 74.49505 
L 325.068132 69.932673 
L 328.127801 69.932673 
L 328.127801 65.370297 
L 329.855212 65.370297 
L 329.92997 56.245545 
L 332.391413 56.245545 
L 332.391413 51.683168 
L 332.901309 51.683168 
L 333.011775 42.558416 
L 333.092704 42.558416 
L 333.092704 37.99604 
L 333.535232 37.99604 
L 333.535232 33.433663 
L 334.163436 33.433663 
L 334.163436 28.871287 
L 334.451943 28.871287 
L 334.451943 24.308911 
L 335.750838 24.308911 
L 335.750838 19.746535 
L 336.469132 19.746535 
L 336.469132 15.184158 
L 338.915749 15.184158 
L 338.915749 10.621782 
L 338.915749 10.621782 
L 453.6 10.621782 
L 453.6 10.621782 
" style="fill:none;stroke:#bf00bf;stroke-linecap:square;"/>
   </g>
   <g id="line2d_4">
    <path clip-path="url(#pc147643da5)" d="M 218.044918 352.8 
L 218.044918 348.237624 
L 227.946039 348.237624 
L 227.946039 343.675248 
L 228.854359 343.675248 
L 228.854359 339.112871 
L 229.134291 339.112871 
L 229.134291 334.550495 
L 229.577021 334.550495 
L 229.577021 329.988119 
L 229.883677 329.988119 
L 229.896254 320.863366 
L 230.469926 320.863366 
L 230.549424 311.738614 
L 230.901836 311.738614 
L 230.921899 302.613861 
L 232.12909 302.613861 
L 232.12909 298.051485 
L 232.28097 298.051485 
L 232.28097 293.489109 
L 234.30327 293.489109 
L 234.30327 288.926733 
L 234.906358 288.926733 
L 234.906358 284.364356 
L 252.378594 284.364356 
L 252.378594 279.80198 
L 252.836037 279.80198 
L 252.89385 270.677228 
L 253.019589 270.677228 
L 253.019589 266.114851 
L 253.131401 266.114851 
L 253.228121 256.990099 
L 253.314694 256.990099 
L 253.314694 252.427723 
L 253.447552 252.427723 
L 253.557341 193.116832 
L 253.562249 193.116832 
L 253.622918 156.617822 
L 253.70234 156.617822 
L 253.807121 147.493069 
L 271.115595 147.493069 
L 271.115595 142.930693 
L 275.049409 142.930693 
L 275.049409 138.368317 
L 275.442682 138.368317 
L 275.442682 133.805941 
L 276.602751 133.805941 
L 276.602751 129.243564 
L 277.236142 129.243564 
L 277.236142 124.681188 
L 277.578666 124.681188 
L 277.578666 120.118812 
L 277.927435 120.118812 
L 277.927435 115.556436 
L 280.410536 115.556436 
L 280.410536 110.994059 
L 283.31881 110.994059 
L 283.31881 106.431683 
L 292.840813 106.431683 
L 292.840813 101.869307 
L 293.536972 101.869307 
L 293.536972 97.306931 
L 294.603127 97.306931 
L 294.619733 88.182178 
L 300.594569 88.182178 
L 300.594569 83.619802 
L 309.39146 83.619802 
L 309.39146 79.057426 
L 319.878115 79.057426 
L 319.878115 74.49505 
L 321.083473 74.49505 
L 321.083473 69.932673 
L 321.266663 69.932673 
L 321.266663 65.370297 
L 325.44683 65.370297 
L 325.44683 60.807921 
L 326.645999 60.807921 
L 326.645999 56.245545 
L 327.539072 56.245545 
L 327.539072 51.683168 
L 328.574313 51.683168 
L 328.574313 47.120792 
L 329.305157 47.120792 
L 329.305157 42.558416 
L 329.92997 42.558416 
L 329.92997 37.99604 
L 330.076856 37.99604 
L 330.076856 33.433663 
L 330.689975 33.433663 
L 330.689975 28.871287 
L 331.590457 28.871287 
L 331.590457 24.308911 
L 333.535232 24.308911 
L 333.535232 19.746535 
L 335.750838 19.746535 
L 335.750838 15.184158 
L 338.915749 15.184158 
L 338.915749 10.621782 
L 338.915749 10.621782 
L 453.6 10.621782 
L 453.6 10.621782 
" style="fill:none;stroke:#000000;stroke-linecap:square;"/>
   </g>
   <g id="line2d_5">
    <path clip-path="url(#pc147643da5)" d="M 218.044918 352.8 
L 218.044918 348.237624 
L 223.193324 348.237624 
L 223.193324 343.675248 
L 224.107693 343.675248 
L 224.107693 339.112871 
L 224.484744 339.112871 
L 224.484744 334.550495 
L 226.312232 334.550495 
L 226.312232 329.988119 
L 226.628664 329.988119 
L 226.628664 325.425743 
L 227.406965 325.425743 
L 227.4802 316.30099 
L 227.871826 316.30099 
L 227.871826 311.738614 
L 228.077729 311.738614 
L 228.077729 307.176238 
L 228.44987 307.176238 
L 228.44987 302.613861 
L 228.963227 302.613861 
L 228.963227 298.051485 
L 229.355136 298.051485 
L 229.355136 293.489109 
L 230.91058 293.489109 
L 230.91058 288.926733 
L 231.298227 288.926733 
L 231.298227 284.364356 
L 252.226306 284.364356 
L 252.226306 279.80198 
L 252.365903 279.80198 
L 252.378594 270.677228 
L 252.586934 270.677228 
L 252.680696 256.990099 
L 252.741672 256.990099 
L 252.755347 247.865347 
L 252.863588 247.865347 
L 252.956175 220.491089 
L 253.120504 220.491089 
L 253.120504 215.928713 
L 253.243181 215.928713 
L 253.306759 202.241584 
L 253.379375 202.241584 
L 253.452195 174.867327 
L 253.492144 174.867327 
L 253.56937 147.493069 
L 271.115595 147.493069 
L 271.115595 142.930693 
L 272.09815 142.930693 
L 272.09815 138.368317 
L 273.126069 138.368317 
L 273.126069 133.805941 
L 273.35865 133.805941 
L 273.35865 129.243564 
L 273.821229 129.243564 
L 273.821229 124.681188 
L 274.551329 124.681188 
L 274.589897 115.556436 
L 274.958645 115.556436 
L 274.958645 110.994059 
L 275.192569 110.994059 
L 275.192569 106.431683 
L 275.314056 106.431683 
L 275.314056 101.869307 
L 276.195506 101.869307 
L 276.195506 97.306931 
L 276.482629 97.306931 
L 276.482629 92.744554 
L 276.776132 92.744554 
L 276.776132 88.182178 
L 277.442943 88.182178 
L 277.442943 83.619802 
L 288.182979 83.619802 
L 288.182979 79.057426 
L 319.735245 79.057426 
L 319.735245 74.49505 
L 320.951644 74.49505 
L 320.951644 69.932673 
L 321.083473 69.932673 
L 321.083473 65.370297 
L 321.266663 65.370297 
L 321.266663 60.807921 
L 321.594703 60.807921 
L 321.594703 56.245545 
L 321.783567 56.245545 
L 321.783567 51.683168 
L 321.927421 51.683168 
L 321.927421 47.120792 
L 324.200017 47.120792 
L 324.200017 42.558416 
L 324.420994 42.558416 
L 324.420994 37.99604 
L 325.253147 37.99604 
L 325.253147 33.433663 
L 325.632502 33.433663 
L 325.632502 28.871287 
L 326.790509 28.871287 
L 326.895759 19.746535 
L 327.864752 19.746535 
L 327.864752 15.184158 
L 331.13134 15.184158 
L 331.13134 10.621782 
L 331.13134 10.621782 
L 453.6 10.621782 
L 453.6 10.621782 
" style="fill:none;stroke:#00bfbf;stroke-linecap:square;"/>
   </g>
   <g id="patch_3">
    <path d="M 7.2 7.2 
L 453.6 7.2 
" style="fill:none;stroke:#000000;stroke-linecap:square;stroke-linejoin:miter;"/>
   </g>
   <g id="patch_4">
    <path d="M 453.6 352.8 
L 453.6 7.2 
" style="fill:none;stroke:#000000;stroke-linecap:square;stroke-linejoin:miter;"/>
   </g>
   <g id="patch_5">
    <path d="M 7.2 352.8 
L 453.6 352.8 
" style="fill:none;stroke:#000000;stroke-linecap:square;stroke-linejoin:miter;"/>
   </g>
   <g id="patch_6">
    <path d="M 7.2 352.8 
L 7.2 7.2 
" style="fill:none;stroke:#000000;stroke-linecap:square;stroke-linejoin:miter;"/>
   </g>
   <g id="matplotlib.axis_1">
    <g id="xtick_1"/>
    <g id="xtick_2">
     <g id="line2d_6">
      <path clip-path="url(#pc147643da5)" d="M 56.704715 352.8 
L 56.704715 7.2 
" style="fill:none;stroke:#000000;stroke-dasharray:1.000000,3.000000;stroke-dashoffset:0.0;stroke-width:0.5;"/>
     </g>
     <g id="line2d_7">
      <defs>
       <path d="M 0 0 
L 0 -4 
" id="meb2392be86" style="stroke:#000000;stroke-width:0.5;"/>
      </defs>
      <g>
       <use style="stroke:#000000;stroke-width:0.5;" x="56.70471484" xlink:href="#meb2392be86" y="352.8"/>
      </g>
     </g>
     <g id="line2d_8">
      <defs>
       <path d="M 0 0 
L 0 4 
" id="me7958ff6ca" style="stroke:#000000;stroke-width:0.5;"/>
      </defs>
      <g>
       <use style="stroke:#000000;stroke-width:0.5;" x="56.70471484" xlink:href="#me7958ff6ca" y="7.2"/>
      </g>
     </g>
     <g id="text_1">
      <!-- -6 -->
      <defs>
       <path d="M 33.015625 40.375 
Q 26.375 40.375 22.484375 35.828125 
Q 18.609375 31.296875 18.609375 23.390625 
Q 18.609375 15.53125 22.484375 10.953125 
Q 26.375 6.390625 33.015625 6.390625 
Q 39.65625 6.390625 43.53125 10.953125 
Q 47.40625 15.53125 47.40625 23.390625 
Q 47.40625 31.296875 43.53125 35.828125 
Q 39.65625 40.375 33.015625 40.375 
M 52.59375 71.296875 
L 52.59375 62.3125 
Q 48.875 64.0625 45.09375 64.984375 
Q 41.3125 65.921875 37.59375 65.921875 
Q 27.828125 65.921875 22.671875 59.328125 
Q 17.53125 52.734375 16.796875 39.40625 
Q 19.671875 43.65625 24.015625 45.921875 
Q 28.375 48.1875 33.59375 48.1875 
Q 44.578125 48.1875 50.953125 41.515625 
Q 57.328125 34.859375 57.328125 23.390625 
Q 57.328125 12.15625 50.6875 5.359375 
Q 44.046875 -1.421875 33.015625 -1.421875 
Q 20.359375 -1.421875 13.671875 8.265625 
Q 6.984375 17.96875 6.984375 36.375 
Q 6.984375 53.65625 15.1875 63.9375 
Q 23.390625 74.21875 37.203125 74.21875 
Q 40.921875 74.21875 44.703125 73.484375 
Q 48.484375 72.75 52.59375 71.296875 
" id="BitstreamVeraSans-Roman-36"/>
       <path d="M 4.890625 31.390625 
L 31.203125 31.390625 
L 31.203125 23.390625 
L 4.890625 23.390625 
z
" id="BitstreamVeraSans-Roman-2d"/>
      </defs>
      <g transform="translate(46.73440234 371.996875)scale(0.2 -0.2)">
       <use xlink:href="#BitstreamVeraSans-Roman-2d"/>
       <use x="36.083984375" xlink:href="#BitstreamVeraSans-Roman-36"/>
      </g>
     </g>
    </g>
    <g id="xtick_3">
     <g id="line2d_9">
      <path clip-path="url(#pc147643da5)" d="M 106.316625 352.8 
L 106.316625 7.2 
" style="fill:none;stroke:#000000;stroke-dasharray:1.000000,3.000000;stroke-dashoffset:0.0;stroke-width:0.5;"/>
     </g>
     <g id="line2d_10">
      <g>
       <use style="stroke:#000000;stroke-width:0.5;" x="106.316625485" xlink:href="#meb2392be86" y="352.8"/>
      </g>
     </g>
     <g id="line2d_11">
      <g>
       <use style="stroke:#000000;stroke-width:0.5;" x="106.316625485" xlink:href="#me7958ff6ca" y="7.2"/>
      </g>
     </g>
     <g id="text_2">
      <!-- -4 -->
      <defs>
       <path d="M 37.796875 64.3125 
L 12.890625 25.390625 
L 37.796875 25.390625 
z
M 35.203125 72.90625 
L 47.609375 72.90625 
L 47.609375 25.390625 
L 58.015625 25.390625 
L 58.015625 17.1875 
L 47.609375 17.1875 
L 47.609375 0 
L 37.796875 0 
L 37.796875 17.1875 
L 4.890625 17.1875 
L 4.890625 26.703125 
z
" id="BitstreamVeraSans-Roman-34"/>
      </defs>
      <g transform="translate(96.346312985 371.996875)scale(0.2 -0.2)">
       <use xlink:href="#BitstreamVeraSans-Roman-2d"/>
       <use x="36.083984375" xlink:href="#BitstreamVeraSans-Roman-34"/>
      </g>
     </g>
    </g>
    <g id="xtick_4">
     <g id="line2d_12">
      <path clip-path="url(#pc147643da5)" d="M 155.928536 352.8 
L 155.928536 7.2 
" style="fill:none;stroke:#000000;stroke-dasharray:1.000000,3.000000;stroke-dashoffset:0.0;stroke-width:0.5;"/>
     </g>
     <g id="line2d_13">
      <g>
       <use style="stroke:#000000;stroke-width:0.5;" x="155.92853613" xlink:href="#meb2392be86" y="352.8"/>
      </g>
     </g>
     <g id="line2d_14">
      <g>
       <use style="stroke:#000000;stroke-width:0.5;" x="155.92853613" xlink:href="#me7958ff6ca" y="7.2"/>
      </g>
     </g>
     <g id="text_3">
      <!-- -2 -->
      <defs>
       <path d="M 19.1875 8.296875 
L 53.609375 8.296875 
L 53.609375 0 
L 7.328125 0 
L 7.328125 8.296875 
Q 12.9375 14.109375 22.625 23.890625 
Q 32.328125 33.6875 34.8125 36.53125 
Q 39.546875 41.84375 41.421875 45.53125 
Q 43.3125 49.21875 43.3125 52.78125 
Q 43.3125 58.59375 39.234375 62.25 
Q 35.15625 65.921875 28.609375 65.921875 
Q 23.96875 65.921875 18.8125 64.3125 
Q 13.671875 62.703125 7.8125 59.421875 
L 7.8125 69.390625 
Q 13.765625 71.78125 18.9375 73 
Q 24.125 74.21875 28.421875 74.21875 
Q 39.75 74.21875 46.484375 68.546875 
Q 53.21875 62.890625 53.21875 53.421875 
Q 53.21875 48.921875 51.53125 44.890625 
Q 49.859375 40.875 45.40625 35.40625 
Q 44.1875 33.984375 37.640625 27.21875 
Q 31.109375 20.453125 19.1875 8.296875 
" id="BitstreamVeraSans-Roman-32"/>
      </defs>
      <g transform="translate(145.95822363 371.996875)scale(0.2 -0.2)">
       <use xlink:href="#BitstreamVeraSans-Roman-2d"/>
       <use x="36.083984375" xlink:href="#BitstreamVeraSans-Roman-32"/>
      </g>
     </g>
    </g>
    <g id="xtick_5">
     <g id="line2d_15">
      <path clip-path="url(#pc147643da5)" d="M 205.540447 352.8 
L 205.540447 7.2 
" style="fill:none;stroke:#000000;stroke-dasharray:1.000000,3.000000;stroke-dashoffset:0.0;stroke-width:0.5;"/>
     </g>
     <g id="line2d_16">
      <g>
       <use style="stroke:#000000;stroke-width:0.5;" x="205.540446775" xlink:href="#meb2392be86" y="352.8"/>
      </g>
     </g>
     <g id="line2d_17">
      <g>
       <use style="stroke:#000000;stroke-width:0.5;" x="205.540446775" xlink:href="#me7958ff6ca" y="7.2"/>
      </g>
     </g>
     <g id="text_4">
      <!-- 0 -->
      <defs>
       <path d="M 31.78125 66.40625 
Q 24.171875 66.40625 20.328125 58.90625 
Q 16.5 51.421875 16.5 36.375 
Q 16.5 21.390625 20.328125 13.890625 
Q 24.171875 6.390625 31.78125 6.390625 
Q 39.453125 6.390625 43.28125 13.890625 
Q 47.125 21.390625 47.125 36.375 
Q 47.125 51.421875 43.28125 58.90625 
Q 39.453125 66.40625 31.78125 66.40625 
M 31.78125 74.21875 
Q 44.046875 74.21875 50.515625 64.515625 
Q 56.984375 54.828125 56.984375 36.375 
Q 56.984375 17.96875 50.515625 8.265625 
Q 44.046875 -1.421875 31.78125 -1.421875 
Q 19.53125 -1.421875 13.0625 8.265625 
Q 6.59375 17.96875 6.59375 36.375 
Q 6.59375 54.828125 13.0625 64.515625 
Q 19.53125 74.21875 31.78125 74.21875 
" id="BitstreamVeraSans-Roman-30"/>
      </defs>
      <g transform="translate(199.177946775 371.996875)scale(0.2 -0.2)">
       <use xlink:href="#BitstreamVeraSans-Roman-30"/>
      </g>
     </g>
    </g>
    <g id="xtick_6">
     <g id="line2d_18">
      <path clip-path="url(#pc147643da5)" d="M 255.152357 352.8 
L 255.152357 7.2 
" style="fill:none;stroke:#000000;stroke-dasharray:1.000000,3.000000;stroke-dashoffset:0.0;stroke-width:0.5;"/>
     </g>
     <g id="line2d_19">
      <g>
       <use style="stroke:#000000;stroke-width:0.5;" x="255.15235742" xlink:href="#meb2392be86" y="352.8"/>
      </g>
     </g>
     <g id="line2d_20">
      <g>
       <use style="stroke:#000000;stroke-width:0.5;" x="255.15235742" xlink:href="#me7958ff6ca" y="7.2"/>
      </g>
     </g>
     <g id="text_5">
      <!-- 2 -->
      <g transform="translate(248.78985742 371.996875)scale(0.2 -0.2)">
       <use xlink:href="#BitstreamVeraSans-Roman-32"/>
      </g>
     </g>
    </g>
    <g id="xtick_7">
     <g id="line2d_21">
      <path clip-path="url(#pc147643da5)" d="M 304.764268 352.8 
L 304.764268 7.2 
" style="fill:none;stroke:#000000;stroke-dasharray:1.000000,3.000000;stroke-dashoffset:0.0;stroke-width:0.5;"/>
     </g>
     <g id="line2d_22">
      <g>
       <use style="stroke:#000000;stroke-width:0.5;" x="304.764268065" xlink:href="#meb2392be86" y="352.8"/>
      </g>
     </g>
     <g id="line2d_23">
      <g>
       <use style="stroke:#000000;stroke-width:0.5;" x="304.764268065" xlink:href="#me7958ff6ca" y="7.2"/>
      </g>
     </g>
     <g id="text_6">
      <!-- 4 -->
      <g transform="translate(298.401768065 371.996875)scale(0.2 -0.2)">
       <use xlink:href="#BitstreamVeraSans-Roman-34"/>
      </g>
     </g>
    </g>
    <g id="xtick_8">
     <g id="line2d_24">
      <path clip-path="url(#pc147643da5)" d="M 354.376179 352.8 
L 354.376179 7.2 
" style="fill:none;stroke:#000000;stroke-dasharray:1.000000,3.000000;stroke-dashoffset:0.0;stroke-width:0.5;"/>
     </g>
     <g id="line2d_25">
      <g>
       <use style="stroke:#000000;stroke-width:0.5;" x="354.37617871" xlink:href="#meb2392be86" y="352.8"/>
      </g>
     </g>
     <g id="line2d_26">
      <g>
       <use style="stroke:#000000;stroke-width:0.5;" x="354.37617871" xlink:href="#me7958ff6ca" y="7.2"/>
      </g>
     </g>
     <g id="text_7">
      <!-- 6 -->
      <g transform="translate(348.01367871 371.996875)scale(0.2 -0.2)">
       <use xlink:href="#BitstreamVeraSans-Roman-36"/>
      </g>
     </g>
    </g>
    <g id="xtick_9">
     <g id="line2d_27">
      <path clip-path="url(#pc147643da5)" d="M 403.988089 352.8 
L 403.988089 7.2 
" style="fill:none;stroke:#000000;stroke-dasharray:1.000000,3.000000;stroke-dashoffset:0.0;stroke-width:0.5;"/>
     </g>
     <g id="line2d_28">
      <g>
       <use style="stroke:#000000;stroke-width:0.5;" x="403.988089355" xlink:href="#meb2392be86" y="352.8"/>
      </g>
     </g>
     <g id="line2d_29">
      <g>
       <use style="stroke:#000000;stroke-width:0.5;" x="403.988089355" xlink:href="#me7958ff6ca" y="7.2"/>
      </g>
     </g>
     <g id="text_8">
      <!-- 8 -->
      <defs>
       <path d="M 31.78125 34.625 
Q 24.75 34.625 20.71875 30.859375 
Q 16.703125 27.09375 16.703125 20.515625 
Q 16.703125 13.921875 20.71875 10.15625 
Q 24.75 6.390625 31.78125 6.390625 
Q 38.8125 6.390625 42.859375 10.171875 
Q 46.921875 13.96875 46.921875 20.515625 
Q 46.921875 27.09375 42.890625 30.859375 
Q 38.875 34.625 31.78125 34.625 
M 21.921875 38.8125 
Q 15.578125 40.375 12.03125 44.71875 
Q 8.5 49.078125 8.5 55.328125 
Q 8.5 64.0625 14.71875 69.140625 
Q 20.953125 74.21875 31.78125 74.21875 
Q 42.671875 74.21875 48.875 69.140625 
Q 55.078125 64.0625 55.078125 55.328125 
Q 55.078125 49.078125 51.53125 44.71875 
Q 48 40.375 41.703125 38.8125 
Q 48.828125 37.15625 52.796875 32.3125 
Q 56.78125 27.484375 56.78125 20.515625 
Q 56.78125 9.90625 50.3125 4.234375 
Q 43.84375 -1.421875 31.78125 -1.421875 
Q 19.734375 -1.421875 13.25 4.234375 
Q 6.78125 9.90625 6.78125 20.515625 
Q 6.78125 27.484375 10.78125 32.3125 
Q 14.796875 37.15625 21.921875 38.8125 
M 18.3125 54.390625 
Q 18.3125 48.734375 21.84375 45.5625 
Q 25.390625 42.390625 31.78125 42.390625 
Q 38.140625 42.390625 41.71875 45.5625 
Q 45.3125 48.734375 45.3125 54.390625 
Q 45.3125 60.0625 41.71875 63.234375 
Q 38.140625 66.40625 31.78125 66.40625 
Q 25.390625 66.40625 21.84375 63.234375 
Q 18.3125 60.0625 18.3125 54.390625 
" id="BitstreamVeraSans-Roman-38"/>
      </defs>
      <g transform="translate(397.625589355 371.996875)scale(0.2 -0.2)">
       <use xlink:href="#BitstreamVeraSans-Roman-38"/>
      </g>
     </g>
    </g>
    <g id="xtick_10">
     <g id="line2d_30">
      <path clip-path="url(#pc147643da5)" d="M 453.6 352.8 
L 453.6 7.2 
" style="fill:none;stroke:#000000;stroke-dasharray:1.000000,3.000000;stroke-dashoffset:0.0;stroke-width:0.5;"/>
     </g>
     <g id="line2d_31">
      <g>
       <use style="stroke:#000000;stroke-width:0.5;" x="453.6" xlink:href="#meb2392be86" y="352.8"/>
      </g>
     </g>
     <g id="line2d_32">
      <g>
       <use style="stroke:#000000;stroke-width:0.5;" x="453.6" xlink:href="#me7958ff6ca" y="7.2"/>
      </g>
     </g>
    </g>
    <g id="xtick_11"/>
    <g id="xtick_12">
     <g id="line2d_33">
      <defs>
       <path d="M 0 0 
L 0 -2 
" id="mae8e0784fb" style="stroke:#000000;stroke-width:0.5;"/>
      </defs>
      <g>
       <use style="stroke:#000000;stroke-width:0.5;" x="56.70471484" xlink:href="#mae8e0784fb" y="352.8"/>
      </g>
     </g>
     <g id="line2d_34">
      <defs>
       <path d="M 0 0 
L 0 2 
" id="m4d7ad41664" style="stroke:#000000;stroke-width:0.5;"/>
      </defs>
      <g>
       <use style="stroke:#000000;stroke-width:0.5;" x="56.70471484" xlink:href="#m4d7ad41664" y="7.2"/>
      </g>
     </g>
    </g>
    <g id="xtick_13">
     <g id="line2d_35">
      <g>
       <use style="stroke:#000000;stroke-width:0.5;" x="106.316625485" xlink:href="#mae8e0784fb" y="352.8"/>
      </g>
     </g>
     <g id="line2d_36">
      <g>
       <use style="stroke:#000000;stroke-width:0.5;" x="106.316625485" xlink:href="#m4d7ad41664" y="7.2"/>
      </g>
     </g>
    </g>
    <g id="xtick_14">
     <g id="line2d_37">
      <g>
       <use style="stroke:#000000;stroke-width:0.5;" x="155.92853613" xlink:href="#mae8e0784fb" y="352.8"/>
      </g>
     </g>
     <g id="line2d_38">
      <g>
       <use style="stroke:#000000;stroke-width:0.5;" x="155.92853613" xlink:href="#m4d7ad41664" y="7.2"/>
      </g>
     </g>
    </g>
    <g id="xtick_15">
     <g id="line2d_39">
      <g>
       <use style="stroke:#000000;stroke-width:0.5;" x="205.540446775" xlink:href="#mae8e0784fb" y="352.8"/>
      </g>
     </g>
     <g id="line2d_40">
      <g>
       <use style="stroke:#000000;stroke-width:0.5;" x="205.540446775" xlink:href="#m4d7ad41664" y="7.2"/>
      </g>
     </g>
    </g>
    <g id="xtick_16">
     <g id="line2d_41">
      <g>
       <use style="stroke:#000000;stroke-width:0.5;" x="255.15235742" xlink:href="#mae8e0784fb" y="352.8"/>
      </g>
     </g>
     <g id="line2d_42">
      <g>
       <use style="stroke:#000000;stroke-width:0.5;" x="255.15235742" xlink:href="#m4d7ad41664" y="7.2"/>
      </g>
     </g>
    </g>
    <g id="xtick_17">
     <g id="line2d_43">
      <g>
       <use style="stroke:#000000;stroke-width:0.5;" x="304.764268065" xlink:href="#mae8e0784fb" y="352.8"/>
      </g>
     </g>
     <g id="line2d_44">
      <g>
       <use style="stroke:#000000;stroke-width:0.5;" x="304.764268065" xlink:href="#m4d7ad41664" y="7.2"/>
      </g>
     </g>
    </g>
    <g id="xtick_18">
     <g id="line2d_45">
      <g>
       <use style="stroke:#000000;stroke-width:0.5;" x="354.37617871" xlink:href="#mae8e0784fb" y="352.8"/>
      </g>
     </g>
     <g id="line2d_46">
      <g>
       <use style="stroke:#000000;stroke-width:0.5;" x="354.37617871" xlink:href="#m4d7ad41664" y="7.2"/>
      </g>
     </g>
    </g>
    <g id="xtick_19">
     <g id="line2d_47">
      <g>
       <use style="stroke:#000000;stroke-width:0.5;" x="403.988089355" xlink:href="#mae8e0784fb" y="352.8"/>
      </g>
     </g>
     <g id="line2d_48">
      <g>
       <use style="stroke:#000000;stroke-width:0.5;" x="403.988089355" xlink:href="#m4d7ad41664" y="7.2"/>
      </g>
     </g>
    </g>
    <g id="xtick_20">
     <g id="line2d_49">
      <g>
       <use style="stroke:#000000;stroke-width:0.5;" x="453.6" xlink:href="#mae8e0784fb" y="352.8"/>
      </g>
     </g>
     <g id="line2d_50">
      <g>
       <use style="stroke:#000000;stroke-width:0.5;" x="453.6" xlink:href="#m4d7ad41664" y="7.2"/>
      </g>
     </g>
    </g>
    <g id="text_9">
     <!-- log10 of Df -->
     <defs>
      <path id="BitstreamVeraSans-Roman-20"/>
      <path d="M 12.40625 8.296875 
L 28.515625 8.296875 
L 28.515625 63.921875 
L 10.984375 60.40625 
L 10.984375 69.390625 
L 28.421875 72.90625 
L 38.28125 72.90625 
L 38.28125 8.296875 
L 54.390625 8.296875 
L 54.390625 0 
L 12.40625 0 
z
" id="BitstreamVeraSans-Roman-31"/>
      <path d="M 30.609375 48.390625 
Q 23.390625 48.390625 19.1875 42.75 
Q 14.984375 37.109375 14.984375 27.296875 
Q 14.984375 17.484375 19.15625 11.84375 
Q 23.34375 6.203125 30.609375 6.203125 
Q 37.796875 6.203125 41.984375 11.859375 
Q 46.1875 17.53125 46.1875 27.296875 
Q 46.1875 37.015625 41.984375 42.703125 
Q 37.796875 48.390625 30.609375 48.390625 
M 30.609375 56 
Q 42.328125 56 49.015625 48.375 
Q 55.71875 40.765625 55.71875 27.296875 
Q 55.71875 13.875 49.015625 6.21875 
Q 42.328125 -1.421875 30.609375 -1.421875 
Q 18.84375 -1.421875 12.171875 6.21875 
Q 5.515625 13.875 5.515625 27.296875 
Q 5.515625 40.765625 12.171875 48.375 
Q 18.84375 56 30.609375 56 
" id="BitstreamVeraSans-Roman-6f"/>
      <path d="M 9.421875 75.984375 
L 18.40625 75.984375 
L 18.40625 0 
L 9.421875 0 
z
" id="BitstreamVeraSans-Roman-6c"/>
      <path d="M 19.671875 64.796875 
L 19.671875 8.109375 
L 31.59375 8.109375 
Q 46.6875 8.109375 53.6875 14.9375 
Q 60.6875 21.78125 60.6875 36.53125 
Q 60.6875 51.171875 53.6875 57.984375 
Q 46.6875 64.796875 31.59375 64.796875 
z
M 9.8125 72.90625 
L 30.078125 72.90625 
Q 51.265625 72.90625 61.171875 64.09375 
Q 71.09375 55.28125 71.09375 36.53125 
Q 71.09375 17.671875 61.125 8.828125 
Q 51.171875 0 30.078125 0 
L 9.8125 0 
z
" id="BitstreamVeraSans-Roman-44"/>
      <path d="M 45.40625 27.984375 
Q 45.40625 37.75 41.375 43.109375 
Q 37.359375 48.484375 30.078125 48.484375 
Q 22.859375 48.484375 18.828125 43.109375 
Q 14.796875 37.75 14.796875 27.984375 
Q 14.796875 18.265625 18.828125 12.890625 
Q 22.859375 7.515625 30.078125 7.515625 
Q 37.359375 7.515625 41.375 12.890625 
Q 45.40625 18.265625 45.40625 27.984375 
M 54.390625 6.78125 
Q 54.390625 -7.171875 48.1875 -13.984375 
Q 42 -20.796875 29.203125 -20.796875 
Q 24.46875 -20.796875 20.265625 -20.09375 
Q 16.0625 -19.390625 12.109375 -17.921875 
L 12.109375 -9.1875 
Q 16.0625 -11.328125 19.921875 -12.34375 
Q 23.78125 -13.375 27.78125 -13.375 
Q 36.625 -13.375 41.015625 -8.765625 
Q 45.40625 -4.15625 45.40625 5.171875 
L 45.40625 9.625 
Q 42.625 4.78125 38.28125 2.390625 
Q 33.9375 0 27.875 0 
Q 17.828125 0 11.671875 7.65625 
Q 5.515625 15.328125 5.515625 27.984375 
Q 5.515625 40.671875 11.671875 48.328125 
Q 17.828125 56 27.875 56 
Q 33.9375 56 38.28125 53.609375 
Q 42.625 51.21875 45.40625 46.390625 
L 45.40625 54.6875 
L 54.390625 54.6875 
z
" id="BitstreamVeraSans-Roman-67"/>
      <path d="M 37.109375 75.984375 
L 37.109375 68.5 
L 28.515625 68.5 
Q 23.6875 68.5 21.796875 66.546875 
Q 19.921875 64.59375 19.921875 59.515625 
L 19.921875 54.6875 
L 34.71875 54.6875 
L 34.71875 47.703125 
L 19.921875 47.703125 
L 19.921875 0 
L 10.890625 0 
L 10.890625 47.703125 
L 2.296875 47.703125 
L 2.296875 54.6875 
L 10.890625 54.6875 
L 10.890625 58.5 
Q 10.890625 67.625 15.140625 71.796875 
Q 19.390625 75.984375 28.609375 75.984375 
z
" id="BitstreamVeraSans-Roman-66"/>
     </defs>
     <g transform="translate(175.2140625 396.353125)scale(0.2 -0.2)">
      <use xlink:href="#BitstreamVeraSans-Roman-6c"/>
      <use x="27.783203125" xlink:href="#BitstreamVeraSans-Roman-6f"/>
      <use x="88.96484375" xlink:href="#BitstreamVeraSans-Roman-67"/>
      <use x="152.44140625" xlink:href="#BitstreamVeraSans-Roman-31"/>
      <use x="216.064453125" xlink:href="#BitstreamVeraSans-Roman-30"/>
      <use x="279.6875" xlink:href="#BitstreamVeraSans-Roman-20"/>
      <use x="311.474609375" xlink:href="#BitstreamVeraSans-Roman-6f"/>
      <use x="372.65625" xlink:href="#BitstreamVeraSans-Roman-66"/>
      <use x="407.861328125" xlink:href="#BitstreamVeraSans-Roman-20"/>
      <use x="439.6484375" xlink:href="#BitstreamVeraSans-Roman-44"/>
      <use x="516.650390625" xlink:href="#BitstreamVeraSans-Roman-66"/>
     </g>
    </g>
   </g>
   <g id="matplotlib.axis_2">
    <g id="ytick_1">
     <g id="line2d_51">
      <path clip-path="url(#pc147643da5)" d="M 7.2 352.8 
L 453.6 352.8 
" style="fill:none;stroke:#000000;stroke-dasharray:1.000000,3.000000;stroke-dashoffset:0.0;stroke-width:0.5;"/>
     </g>
     <g id="line2d_52">
      <defs>
       <path d="M 0 0 
L 4 0 
" id="m1c8bb1ae4f" style="stroke:#000000;stroke-width:0.5;"/>
      </defs>
      <g>
       <use style="stroke:#000000;stroke-width:0.5;" x="7.2" xlink:href="#m1c8bb1ae4f" y="352.8"/>
      </g>
     </g>
     <g id="line2d_53">
      <defs>
       <path d="M 0 0 
L -4 0 
" id="m86db74186c" style="stroke:#000000;stroke-width:0.5;"/>
      </defs>
      <g>
       <use style="stroke:#000000;stroke-width:0.5;" x="453.6" xlink:href="#m86db74186c" y="352.8"/>
      </g>
     </g>
    </g>
    <g id="ytick_2">
     <g id="line2d_54">
      <path clip-path="url(#pc147643da5)" d="M 7.2 284.364356 
L 453.6 284.364356 
" style="fill:none;stroke:#000000;stroke-dasharray:1.000000,3.000000;stroke-dashoffset:0.0;stroke-width:0.5;"/>
     </g>
     <g id="line2d_55">
      <g>
       <use style="stroke:#000000;stroke-width:0.5;" x="7.2" xlink:href="#m1c8bb1ae4f" y="284.364356436"/>
      </g>
     </g>
     <g id="line2d_56">
      <g>
       <use style="stroke:#000000;stroke-width:0.5;" x="453.6" xlink:href="#m86db74186c" y="284.364356436"/>
      </g>
     </g>
    </g>
    <g id="ytick_3">
     <g id="line2d_57">
      <path clip-path="url(#pc147643da5)" d="M 7.2 215.928713 
L 453.6 215.928713 
" style="fill:none;stroke:#000000;stroke-dasharray:1.000000,3.000000;stroke-dashoffset:0.0;stroke-width:0.5;"/>
     </g>
     <g id="line2d_58">
      <g>
       <use style="stroke:#000000;stroke-width:0.5;" x="7.2" xlink:href="#m1c8bb1ae4f" y="215.928712871"/>
      </g>
     </g>
     <g id="line2d_59">
      <g>
       <use style="stroke:#000000;stroke-width:0.5;" x="453.6" xlink:href="#m86db74186c" y="215.928712871"/>
      </g>
     </g>
    </g>
    <g id="ytick_4">
     <g id="line2d_60">
      <path clip-path="url(#pc147643da5)" d="M 7.2 147.493069 
L 453.6 147.493069 
" style="fill:none;stroke:#000000;stroke-dasharray:1.000000,3.000000;stroke-dashoffset:0.0;stroke-width:0.5;"/>
     </g>
     <g id="line2d_61">
      <g>
       <use style="stroke:#000000;stroke-width:0.5;" x="7.2" xlink:href="#m1c8bb1ae4f" y="147.493069307"/>
      </g>
     </g>
     <g id="line2d_62">
      <g>
       <use style="stroke:#000000;stroke-width:0.5;" x="453.6" xlink:href="#m86db74186c" y="147.493069307"/>
      </g>
     </g>
    </g>
    <g id="ytick_5">
     <g id="line2d_63">
      <path clip-path="url(#pc147643da5)" d="M 7.2 79.057426 
L 453.6 79.057426 
" style="fill:none;stroke:#000000;stroke-dasharray:1.000000,3.000000;stroke-dashoffset:0.0;stroke-width:0.5;"/>
     </g>
     <g id="line2d_64">
      <g>
       <use style="stroke:#000000;stroke-width:0.5;" x="7.2" xlink:href="#m1c8bb1ae4f" y="79.0574257426"/>
      </g>
     </g>
     <g id="line2d_65">
      <g>
       <use style="stroke:#000000;stroke-width:0.5;" x="453.6" xlink:href="#m86db74186c" y="79.0574257426"/>
      </g>
     </g>
    </g>
    <g id="ytick_6">
     <g id="line2d_66">
      <path clip-path="url(#pc147643da5)" d="M 7.2 10.621782 
L 453.6 10.621782 
" style="fill:none;stroke:#000000;stroke-dasharray:1.000000,3.000000;stroke-dashoffset:0.0;stroke-width:0.5;"/>
     </g>
     <g id="line2d_67">
      <g>
       <use style="stroke:#000000;stroke-width:0.5;" x="7.2" xlink:href="#m1c8bb1ae4f" y="10.6217821782"/>
      </g>
     </g>
     <g id="line2d_68">
      <g>
       <use style="stroke:#000000;stroke-width:0.5;" x="453.6" xlink:href="#m86db74186c" y="10.6217821782"/>
      </g>
     </g>
    </g>
   </g>
   <g id="text_10">
    <!-- {f20-f24}, 20-D -->
    <defs>
     <path d="M 12.5 -9.28125 
L 15.921875 -9.28125 
Q 22.75 -9.28125 24.828125 -7.171875 
Q 26.90625 -5.078125 26.90625 1.90625 
L 26.90625 14.015625 
Q 26.90625 21.625 29.09375 25.09375 
Q 31.296875 28.5625 36.71875 29.890625 
Q 31.296875 31.109375 29.09375 34.5625 
Q 26.90625 38.03125 26.90625 45.703125 
L 26.90625 57.8125 
Q 26.90625 64.75 24.828125 66.875 
Q 22.75 69 15.921875 69 
L 12.5 69 
L 12.5 75.984375 
L 15.578125 75.984375 
Q 27.734375 75.984375 31.8125 72.390625 
Q 35.890625 68.796875 35.890625 58.015625 
L 35.890625 46.296875 
Q 35.890625 39.015625 38.515625 36.203125 
Q 41.15625 33.40625 48.09375 33.40625 
L 51.125 33.40625 
L 51.125 26.421875 
L 48.09375 26.421875 
Q 41.15625 26.421875 38.515625 23.578125 
Q 35.890625 20.75 35.890625 13.375 
L 35.890625 1.703125 
Q 35.890625 -9.078125 31.8125 -12.6875 
Q 27.734375 -16.3125 15.578125 -16.3125 
L 12.5 -16.3125 
z
" id="BitstreamVeraSans-Roman-7d"/>
     <path d="M 51.125 -9.28125 
L 51.125 -16.3125 
L 48.09375 -16.3125 
Q 35.9375 -16.3125 31.8125 -12.6875 
Q 27.6875 -9.078125 27.6875 1.703125 
L 27.6875 13.375 
Q 27.6875 20.75 25.046875 23.578125 
Q 22.40625 26.421875 15.484375 26.421875 
L 12.5 26.421875 
L 12.5 33.40625 
L 15.484375 33.40625 
Q 22.46875 33.40625 25.078125 36.203125 
Q 27.6875 39.015625 27.6875 46.296875 
L 27.6875 58.015625 
Q 27.6875 68.796875 31.8125 72.390625 
Q 35.9375 75.984375 48.09375 75.984375 
L 51.125 75.984375 
L 51.125 69 
L 47.796875 69 
Q 40.921875 69 38.8125 66.84375 
Q 36.71875 64.703125 36.71875 57.8125 
L 36.71875 45.703125 
Q 36.71875 38.03125 34.5 34.5625 
Q 32.28125 31.109375 26.90625 29.890625 
Q 32.328125 28.5625 34.515625 25.09375 
Q 36.71875 21.625 36.71875 14.015625 
L 36.71875 1.90625 
Q 36.71875 -4.984375 38.8125 -7.125 
Q 40.921875 -9.28125 47.796875 -9.28125 
z
" id="BitstreamVeraSans-Roman-7b"/>
     <path d="M 11.71875 12.40625 
L 22.015625 12.40625 
L 22.015625 4 
L 14.015625 -11.625 
L 7.71875 -11.625 
L 11.71875 4 
z
" id="BitstreamVeraSans-Roman-2c"/>
    </defs>
    <g transform="translate(286.247 345.888)scale(0.2 -0.2)">
     <use xlink:href="#BitstreamVeraSans-Roman-7b"/>
     <use x="63.623046875" xlink:href="#BitstreamVeraSans-Roman-66"/>
     <use x="98.828125" xlink:href="#BitstreamVeraSans-Roman-32"/>
     <use x="162.451171875" xlink:href="#BitstreamVeraSans-Roman-30"/>
     <use x="226.07421875" xlink:href="#BitstreamVeraSans-Roman-2d"/>
     <use x="262.158203125" xlink:href="#BitstreamVeraSans-Roman-66"/>
     <use x="297.36328125" xlink:href="#BitstreamVeraSans-Roman-32"/>
     <use x="360.986328125" xlink:href="#BitstreamVeraSans-Roman-34"/>
     <use x="424.609375" xlink:href="#BitstreamVeraSans-Roman-7d"/>
     <use x="488.232421875" xlink:href="#BitstreamVeraSans-Roman-2c"/>
     <use x="520.01953125" xlink:href="#BitstreamVeraSans-Roman-20"/>
     <use x="551.806640625" xlink:href="#BitstreamVeraSans-Roman-32"/>
     <use x="615.4296875" xlink:href="#BitstreamVeraSans-Roman-30"/>
     <use x="679.052734375" xlink:href="#BitstreamVeraSans-Roman-2d"/>
     <use x="715.13671875" xlink:href="#BitstreamVeraSans-Roman-44"/>
    </g>
   </g>
   <g id="text_11">
    <!-- 0.0.0 -->
    <defs>
     <path d="M 10.6875 12.40625 
L 21 12.40625 
L 21 0 
L 10.6875 0 
z
" id="BitstreamVeraSans-Roman-2e"/>
    </defs>
    <g style="fill:#808080;" transform="translate(217.678125 347.2643125)scale(0.1 -0.1)">
     <use xlink:href="#BitstreamVeraSans-Roman-30"/>
     <use x="63.623046875" xlink:href="#BitstreamVeraSans-Roman-2e"/>
     <use x="95.41015625" xlink:href="#BitstreamVeraSans-Roman-30"/>
     <use x="159.033203125" xlink:href="#BitstreamVeraSans-Roman-2e"/>
     <use x="190.8203125" xlink:href="#BitstreamVeraSans-Roman-30"/>
    </g>
   </g>
  </g>
 </g>
 <defs>
  <clipPath id="pc147643da5">
   <rect height="345.6" width="446.4" x="7.2" y="7.2"/>
  </clipPath>
 </defs>
</svg>
