<?xml version="1.0" encoding="utf-8" standalone="no"?>
<!DOCTYPE svg PUBLIC "-//W3C//DTD SVG 1.1//EN"
  "http://www.w3.org/Graphics/SVG/1.1/DTD/svg11.dtd">
<!-- Created with matplotlib (http://matplotlib.org/) -->
<svg height="407pt" version="1.1" viewBox="0 0 460 407" width="460pt" xmlns="http://www.w3.org/2000/svg" xmlns:xlink="http://www.w3.org/1999/xlink">
 <defs>
  <style type="text/css">
*{stroke-linecap:butt;stroke-linejoin:round;stroke-miterlimit:100000;}
  </style>
 </defs>
 <g id="figure_1">
  <g id="patch_1">
   <path d="M 0 407.7125 
L 460.8 407.7125 
L 460.8 0 
L 0 0 
z
" style="fill:#ffffff;"/>
  </g>
  <g id="axes_1">
   <g id="patch_2">
    <path d="M 7.2 352.8 
L 453.6 352.8 
L 453.6 7.2 
L 7.2 7.2 
z
" style="fill:#ffffff;"/>
   </g>
   <g id="line2d_1">
    <path clip-path="url(#pf2d0b1eee4)" d="M 230.721392 352.8 
L 230.721392 348.237624 
L 231.167987 348.237624 
L 231.167987 343.675248 
L 232.530085 343.675248 
L 232.554722 334.550495 
L 233.131059 334.550495 
L 233.177379 325.425743 
L 233.808356 325.425743 
L 233.808356 320.863366 
L 234.041403 320.863366 
L 234.041403 316.30099 
L 234.453135 316.30099 
L 234.541798 302.613861 
L 234.716344 302.613861 
L 234.716344 298.051485 
L 234.888481 298.051485 
L 234.963181 288.926733 
L 235.006222 288.926733 
L 235.045562 279.80198 
L 235.41883 279.80198 
L 235.41883 275.239604 
L 235.790293 275.239604 
L 235.816694 266.114851 
L 236.557357 266.114851 
L 236.55792 256.990099 
L 236.740005 256.990099 
L 236.768624 247.865347 
L 237.344035 247.865347 
L 237.344035 243.30297 
L 239.817034 243.30297 
L 239.817034 238.740594 
L 240.219431 238.740594 
L 240.219431 234.178218 
L 240.494016 234.178218 
L 240.540643 225.053465 
L 240.756325 225.053465 
L 240.831413 215.928713 
L 242.241717 215.928713 
L 242.241717 211.366337 
L 243.384711 211.366337 
L 243.384711 206.80396 
L 243.694838 206.80396 
L 243.694838 202.241584 
L 244.121588 202.241584 
L 244.121588 197.679208 
L 244.341882 197.679208 
L 244.412355 183.992079 
L 244.720809 183.992079 
L 244.753973 174.867327 
L 244.986642 174.867327 
L 244.986642 170.30495 
L 245.129257 170.30495 
L 245.129257 165.742574 
L 245.449992 165.742574 
L 245.449992 161.180198 
L 245.574276 161.180198 
L 245.574276 156.617822 
L 246.057227 156.617822 
L 246.058929 147.493069 
L 246.30218 147.493069 
L 246.30218 142.930693 
L 247.379094 142.930693 
L 247.379094 138.368317 
L 247.805848 138.368317 
L 247.874731 129.243564 
L 248.567933 129.243564 
L 248.567933 124.681188 
L 248.696221 124.681188 
L 248.696221 120.118812 
L 249.06407 120.118812 
L 249.105047 110.994059 
L 249.377132 110.994059 
L 249.377132 106.431683 
L 249.5663 106.431683 
L 249.5663 101.869307 
L 250.360975 101.869307 
L 250.368796 92.744554 
L 250.833335 92.744554 
L 250.833335 88.182178 
L 251.38566 88.182178 
L 251.38566 83.619802 
L 258.352855 83.619802 
L 258.352855 79.057426 
L 270.229174 79.057426 
L 270.229174 74.49505 
L 271.9818 74.49505 
L 271.9818 69.932673 
L 273.40333 69.932673 
L 273.40333 65.370297 
L 273.926694 65.370297 
L 273.926694 60.807921 
L 274.106971 60.807921 
L 274.106971 56.245545 
L 274.925434 56.245545 
L 274.925434 51.683168 
L 275.201597 51.683168 
L 275.201597 47.120792 
L 275.759297 47.120792 
L 275.759297 42.558416 
L 276.216713 42.558416 
L 276.216713 37.99604 
L 276.720792 37.99604 
L 276.720792 33.433663 
L 277.63216 33.433663 
L 277.63216 28.871287 
L 277.823789 28.871287 
L 277.894526 19.746535 
L 279.625031 19.746535 
L 279.625031 15.184158 
L 281.645109 15.184158 
L 281.645109 10.621782 
L 281.645109 10.621782 
L 453.6 10.621782 
L 453.6 10.621782 
" style="fill:none;stroke:#ff0000;stroke-linecap:square;stroke-width:3.0;"/>
   </g>
   <g id="line2d_2">
    <path clip-path="url(#pf2d0b1eee4)" d="M 234.67105 352.8 
L 234.67105 348.237624 
L 239.737865 348.237624 
L 239.737865 343.675248 
L 240.308643 343.675248 
L 240.308643 339.112871 
L 241.650348 339.112871 
L 241.650348 334.550495 
L 245.061418 334.550495 
L 245.061418 329.988119 
L 245.236821 329.988119 
L 245.328734 316.30099 
L 245.824467 316.30099 
L 245.824467 311.738614 
L 246.528476 311.738614 
L 246.528476 307.176238 
L 246.733902 307.176238 
L 246.733902 302.613861 
L 246.851968 302.613861 
L 246.851968 298.051485 
L 247.033088 298.051485 
L 247.057142 288.926733 
L 247.379094 288.926733 
L 247.379094 284.364356 
L 247.60695 284.364356 
L 247.60695 279.80198 
L 247.972141 279.80198 
L 247.972141 275.239604 
L 248.574283 275.239604 
L 248.669382 261.552475 
L 249.270933 261.552475 
L 249.288202 252.427723 
L 249.776176 252.427723 
L 249.776176 247.865347 
L 250.158711 247.865347 
L 250.21022 238.740594 
L 250.784722 238.740594 
L 250.784722 234.178218 
L 250.986812 234.178218 
L 250.986812 229.615842 
L 251.31239 229.615842 
L 251.31239 225.053465 
L 251.550952 225.053465 
L 251.550952 220.491089 
L 251.732249 220.491089 
L 251.732249 215.928713 
L 251.895579 215.928713 
L 251.895579 211.366337 
L 252.816938 211.366337 
L 252.894772 202.241584 
L 254.01803 202.241584 
L 254.01803 197.679208 
L 254.22985 197.679208 
L 254.22985 193.116832 
L 254.543304 193.116832 
L 254.543304 188.554455 
L 254.735742 188.554455 
L 254.735742 183.992079 
L 254.923855 183.992079 
L 254.923855 179.429703 
L 255.411595 179.429703 
L 255.411595 174.867327 
L 255.684352 174.867327 
L 255.684352 170.30495 
L 256.706167 170.30495 
L 256.706167 165.742574 
L 256.963785 165.742574 
L 257.013308 156.617822 
L 257.860815 156.617822 
L 257.919569 147.493069 
L 258.458244 147.493069 
L 258.458244 142.930693 
L 259.153015 142.930693 
L 259.153015 138.368317 
L 260.74938 138.368317 
L 260.74938 133.805941 
L 260.881323 133.805941 
L 260.881323 129.243564 
L 261.198309 129.243564 
L 261.198309 124.681188 
L 262.341977 124.681188 
L 262.345884 115.556436 
L 263.385951 115.556436 
L 263.385951 110.994059 
L 264.189931 110.994059 
L 264.189931 106.431683 
L 264.924743 106.431683 
L 264.924743 101.869307 
L 265.387422 101.869307 
L 265.387422 97.306931 
L 265.502776 97.306931 
L 265.502776 92.744554 
L 265.937677 92.744554 
L 265.937677 88.182178 
L 267.019955 88.182178 
L 267.019955 83.619802 
L 275.679997 83.619802 
L 275.679997 79.057426 
L 276.974716 79.057426 
L 276.974716 74.49505 
L 277.863945 74.49505 
L 277.863945 69.932673 
L 279.411487 69.932673 
L 279.411487 65.370297 
L 283.539833 65.370297 
L 283.539833 60.807921 
L 284.321681 60.807921 
L 284.321681 56.245545 
L 285.172125 56.245545 
L 285.172125 51.683168 
L 287.98576 51.683168 
L 287.98576 47.120792 
L 288.56114 47.120792 
L 288.56114 42.558416 
L 289.30701 42.558416 
L 289.33201 33.433663 
L 289.541646 33.433663 
L 289.541646 28.871287 
L 291.493898 28.871287 
L 291.493898 24.308911 
L 293.434736 24.308911 
L 293.434736 19.746535 
L 296.698079 19.746535 
L 296.698079 15.184158 
L 297.283902 15.184158 
L 297.283902 10.621782 
L 297.283902 10.621782 
L 453.6 10.621782 
L 453.6 10.621782 
" style="fill:none;stroke:#00bfbf;stroke-linecap:square;"/>
   </g>
   <g id="line2d_3">
    <path clip-path="url(#pf2d0b1eee4)" d="M 234.67105 352.8 
L 234.67105 348.237624 
L 239.737865 348.237624 
L 239.737865 343.675248 
L 240.308643 343.675248 
L 240.308643 339.112871 
L 241.292802 339.112871 
L 241.292802 334.550495 
L 241.650348 334.550495 
L 241.650348 329.988119 
L 243.202953 329.988119 
L 243.202953 325.425743 
L 243.651167 325.425743 
L 243.762163 316.30099 
L 245.061418 316.30099 
L 245.061418 311.738614 
L 245.236821 311.738614 
L 245.328734 298.051485 
L 245.824467 298.051485 
L 245.824467 293.489109 
L 246.528476 293.489109 
L 246.528476 288.926733 
L 246.695408 288.926733 
L 246.733902 275.239604 
L 246.881098 275.239604 
L 246.964482 266.114851 
L 247.033088 266.114851 
L 247.033088 261.552475 
L 247.379094 261.552475 
L 247.379094 256.990099 
L 247.60695 256.990099 
L 247.60695 252.427723 
L 248.250637 252.427723 
L 248.250637 247.865347 
L 248.574283 247.865347 
L 248.669382 234.178218 
L 249.164448 234.178218 
L 249.270933 225.053465 
L 249.288202 225.053465 
L 249.288202 220.491089 
L 249.43334 220.491089 
L 249.506606 211.366337 
L 249.603813 211.366337 
L 249.603813 206.80396 
L 249.776176 206.80396 
L 249.776176 202.241584 
L 250.51541 202.241584 
L 250.51541 197.679208 
L 250.784722 197.679208 
L 250.79814 188.554455 
L 251.067167 188.554455 
L 251.067167 183.992079 
L 251.732249 183.992079 
L 251.732249 179.429703 
L 252.757193 179.429703 
L 252.816938 170.30495 
L 253.001007 170.30495 
L 253.001007 165.742574 
L 253.910501 165.742574 
L 253.910501 161.180198 
L 254.22985 161.180198 
L 254.22985 156.617822 
L 255.411595 156.617822 
L 255.48302 147.493069 
L 255.684352 147.493069 
L 255.684352 142.930693 
L 256.671941 142.930693 
L 256.671941 138.368317 
L 256.963785 138.368317 
L 257.013308 129.243564 
L 257.338539 129.243564 
L 257.338539 124.681188 
L 257.919569 124.681188 
L 257.919569 120.118812 
L 258.618289 120.118812 
L 258.618289 115.556436 
L 259.153015 115.556436 
L 259.153015 110.994059 
L 259.976742 110.994059 
L 259.976742 106.431683 
L 260.245555 106.431683 
L 260.245555 101.869307 
L 262.341977 101.869307 
L 262.341977 97.306931 
L 262.878224 97.306931 
L 262.878224 92.744554 
L 263.385951 92.744554 
L 263.385951 88.182178 
L 265.937677 88.182178 
L 265.937677 83.619802 
L 272.62634 83.619802 
L 272.62634 79.057426 
L 275.679997 79.057426 
L 275.679997 74.49505 
L 275.950122 74.49505 
L 275.950122 69.932673 
L 279.411487 69.932673 
L 279.411487 65.370297 
L 283.539833 65.370297 
L 283.539833 60.807921 
L 284.321681 60.807921 
L 284.404236 51.683168 
L 285.085004 51.683168 
L 285.085004 47.120792 
L 286.196777 47.120792 
L 286.196777 42.558416 
L 287.98576 42.558416 
L 287.98576 37.99604 
L 288.56114 37.99604 
L 288.56114 33.433663 
L 288.910443 33.433663 
L 288.910443 28.871287 
L 289.30701 28.871287 
L 289.320125 19.746535 
L 293.772472 19.746535 
L 293.772472 15.184158 
L 297.283902 15.184158 
L 297.283902 10.621782 
L 297.283902 10.621782 
L 453.6 10.621782 
L 453.6 10.621782 
" style="fill:none;stroke:#bf00bf;stroke-linecap:square;"/>
   </g>
   <g id="line2d_4">
    <path clip-path="url(#pf2d0b1eee4)" d="M 234.67105 352.8 
L 234.67105 348.237624 
L 239.675055 348.237624 
L 239.737865 339.112871 
L 240.308643 339.112871 
L 240.308643 334.550495 
L 241.292802 334.550495 
L 241.372976 325.425743 
L 243.002288 325.425743 
L 243.002288 320.863366 
L 243.188101 320.863366 
L 243.262797 302.613861 
L 243.651167 302.613861 
L 243.762163 293.489109 
L 244.398513 293.489109 
L 244.496579 284.364356 
L 244.788572 284.364356 
L 244.788572 279.80198 
L 244.946585 279.80198 
L 244.946585 275.239604 
L 245.061418 275.239604 
L 245.061418 270.677228 
L 245.236821 270.677228 
L 245.328734 261.552475 
L 245.824467 261.552475 
L 245.824467 256.990099 
L 246.521814 256.990099 
L 246.521814 252.427723 
L 246.718566 252.427723 
L 246.733902 243.30297 
L 246.881098 243.30297 
L 246.964482 234.178218 
L 247.375494 234.178218 
L 247.448062 220.491089 
L 247.57167 220.491089 
L 247.57167 215.928713 
L 247.849345 215.928713 
L 247.849345 211.366337 
L 247.995222 211.366337 
L 248.046771 202.241584 
L 248.188464 202.241584 
L 248.28451 193.116832 
L 248.455919 193.116832 
L 248.455919 188.554455 
L 248.574283 188.554455 
L 248.62541 179.429703 
L 248.754385 179.429703 
L 248.754385 174.867327 
L 249.288202 174.867327 
L 249.288202 170.30495 
L 249.506606 170.30495 
L 249.506606 165.742574 
L 249.674525 165.742574 
L 249.674525 161.180198 
L 252.216723 161.180198 
L 252.216723 156.617822 
L 252.821624 156.617822 
L 252.821624 152.055446 
L 254.22985 152.055446 
L 254.22985 147.493069 
L 254.915 147.493069 
L 254.915 142.930693 
L 255.129325 142.930693 
L 255.129325 138.368317 
L 255.411595 138.368317 
L 255.520575 124.681188 
L 257.013308 124.681188 
L 257.013308 120.118812 
L 257.919569 120.118812 
L 257.919569 115.556436 
L 259.021537 115.556436 
L 259.021537 110.994059 
L 259.153015 110.994059 
L 259.153015 106.431683 
L 260.245555 106.431683 
L 260.245555 101.869307 
L 260.667938 101.869307 
L 260.667938 97.306931 
L 262.341977 97.306931 
L 262.341977 92.744554 
L 262.878224 92.744554 
L 262.878224 88.182178 
L 263.385951 88.182178 
L 263.385951 83.619802 
L 270.056747 83.619802 
L 270.056747 79.057426 
L 275.679997 79.057426 
L 275.679997 74.49505 
L 275.950122 74.49505 
L 275.950122 69.932673 
L 279.089631 69.932673 
L 279.089631 65.370297 
L 281.152155 65.370297 
L 281.152155 60.807921 
L 281.297824 60.807921 
L 281.297824 56.245545 
L 283.539833 56.245545 
L 283.539833 51.683168 
L 284.08098 51.683168 
L 284.08098 47.120792 
L 284.321681 47.120792 
L 284.321681 42.558416 
L 285.448201 42.558416 
L 285.448201 37.99604 
L 285.974572 37.99604 
L 286.036101 28.871287 
L 287.774544 28.871287 
L 287.774544 24.308911 
L 287.936412 24.308911 
L 287.936412 19.746535 
L 289.320125 19.746535 
L 289.320125 15.184158 
L 291.95923 15.184158 
L 291.95923 10.621782 
L 291.95923 10.621782 
L 453.6 10.621782 
L 453.6 10.621782 
" style="fill:none;stroke:#000000;stroke-linecap:square;"/>
   </g>
   <g id="line2d_5">
    <path clip-path="url(#pf2d0b1eee4)" d="M 234.67105 352.8 
L 234.67105 348.237624 
L 235.41883 348.237624 
L 235.41883 343.675248 
L 236.557357 343.675248 
L 236.557357 339.112871 
L 237.022518 339.112871 
L 237.022518 334.550495 
L 237.293498 334.550495 
L 237.370073 325.425743 
L 237.451311 325.425743 
L 237.451311 320.863366 
L 238.481168 320.863366 
L 238.583647 307.176238 
L 238.67467 307.176238 
L 238.709103 298.051485 
L 238.896572 298.051485 
L 238.909867 288.926733 
L 239.737865 288.926733 
L 239.737865 284.364356 
L 240.443374 284.364356 
L 240.443374 279.80198 
L 240.80426 279.80198 
L 240.885994 270.677228 
L 241.372976 270.677228 
L 241.372976 266.114851 
L 241.654811 266.114851 
L 241.654811 261.552475 
L 242.241717 261.552475 
L 242.241717 256.990099 
L 242.483844 256.990099 
L 242.483844 252.427723 
L 242.768237 252.427723 
L 242.870795 243.30297 
L 242.884747 243.30297 
L 242.884747 238.740594 
L 243.366597 238.740594 
L 243.366597 234.178218 
L 243.484485 234.178218 
L 243.484485 229.615842 
L 244.297841 229.615842 
L 244.40069 211.366337 
L 244.525451 211.366337 
L 244.525451 206.80396 
L 244.693174 206.80396 
L 244.788572 197.679208 
L 245.32687 197.679208 
L 245.4043 188.554455 
L 245.449992 188.554455 
L 245.457411 179.429703 
L 245.705955 179.429703 
L 245.705955 174.867327 
L 245.857618 174.867327 
L 245.857618 170.30495 
L 245.991996 170.30495 
L 246.057227 161.180198 
L 246.408354 161.180198 
L 246.408354 156.617822 
L 246.879015 156.617822 
L 246.881098 147.493069 
L 247.379094 147.493069 
L 247.379094 142.930693 
L 250.808909 142.930693 
L 250.808909 138.368317 
L 251.347856 138.368317 
L 251.347856 133.805941 
L 251.880387 133.805941 
L 251.880387 129.243564 
L 252.216723 129.243564 
L 252.216723 124.681188 
L 252.413948 124.681188 
L 252.500894 115.556436 
L 252.679262 115.556436 
L 252.679262 110.994059 
L 252.879361 110.994059 
L 252.879361 106.431683 
L 253.558499 106.431683 
L 253.558499 101.869307 
L 255.049527 101.869307 
L 255.049527 97.306931 
L 255.323887 97.306931 
L 255.323887 92.744554 
L 255.97757 92.744554 
L 255.97757 88.182178 
L 256.541583 88.182178 
L 256.541583 83.619802 
L 265.150835 83.619802 
L 265.150835 79.057426 
L 273.193656 79.057426 
L 273.193656 74.49505 
L 275.191773 74.49505 
L 275.235433 65.370297 
L 276.500208 65.370297 
L 276.500208 60.807921 
L 277.853348 60.807921 
L 277.853348 56.245545 
L 278.556666 56.245545 
L 278.556666 51.683168 
L 279.762655 51.683168 
L 279.762655 47.120792 
L 280.167451 47.120792 
L 280.175017 37.99604 
L 280.7141 37.99604 
L 280.7141 33.433663 
L 282.433718 33.433663 
L 282.433718 28.871287 
L 283.722281 28.871287 
L 283.722281 24.308911 
L 284.287067 24.308911 
L 284.287067 19.746535 
L 284.471743 19.746535 
L 284.471743 15.184158 
L 288.316965 15.184158 
L 288.316965 10.621782 
L 288.316965 10.621782 
L 453.6 10.621782 
L 453.6 10.621782 
" style="fill:none;stroke:#00bfbf;stroke-linecap:square;"/>
   </g>
   <g id="patch_3">
    <path d="M 7.2 7.2 
L 453.6 7.2 
" style="fill:none;stroke:#000000;stroke-linecap:square;stroke-linejoin:miter;"/>
   </g>
   <g id="patch_4">
    <path d="M 453.6 352.8 
L 453.6 7.2 
" style="fill:none;stroke:#000000;stroke-linecap:square;stroke-linejoin:miter;"/>
   </g>
   <g id="patch_5">
    <path d="M 7.2 352.8 
L 453.6 352.8 
" style="fill:none;stroke:#000000;stroke-linecap:square;stroke-linejoin:miter;"/>
   </g>
   <g id="patch_6">
    <path d="M 7.2 352.8 
L 7.2 7.2 
" style="fill:none;stroke:#000000;stroke-linecap:square;stroke-linejoin:miter;"/>
   </g>
   <g id="matplotlib.axis_1">
    <g id="xtick_1"/>
    <g id="xtick_2">
     <g id="line2d_6">
      <path clip-path="url(#pf2d0b1eee4)" d="M 56.704715 352.8 
L 56.704715 7.2 
" style="fill:none;stroke:#000000;stroke-dasharray:1.000000,3.000000;stroke-dashoffset:0.0;stroke-width:0.5;"/>
     </g>
     <g id="line2d_7">
      <defs>
       <path d="M 0 0 
L 0 -4 
" id="mbd1ce0845d" style="stroke:#000000;stroke-width:0.5;"/>
      </defs>
      <g>
       <use style="stroke:#000000;stroke-width:0.5;" x="56.70471484" xlink:href="#mbd1ce0845d" y="352.8"/>
      </g>
     </g>
     <g id="line2d_8">
      <defs>
       <path d="M 0 0 
L 0 4 
" id="m66fa541ea2" style="stroke:#000000;stroke-width:0.5;"/>
      </defs>
      <g>
       <use style="stroke:#000000;stroke-width:0.5;" x="56.70471484" xlink:href="#m66fa541ea2" y="7.2"/>
      </g>
     </g>
     <g id="text_1">
      <!-- -6 -->
      <defs>
       <path d="M 33.015625 40.375 
Q 26.375 40.375 22.484375 35.828125 
Q 18.609375 31.296875 18.609375 23.390625 
Q 18.609375 15.53125 22.484375 10.953125 
Q 26.375 6.390625 33.015625 6.390625 
Q 39.65625 6.390625 43.53125 10.953125 
Q 47.40625 15.53125 47.40625 23.390625 
Q 47.40625 31.296875 43.53125 35.828125 
Q 39.65625 40.375 33.015625 40.375 
M 52.59375 71.296875 
L 52.59375 62.3125 
Q 48.875 64.0625 45.09375 64.984375 
Q 41.3125 65.921875 37.59375 65.921875 
Q 27.828125 65.921875 22.671875 59.328125 
Q 17.53125 52.734375 16.796875 39.40625 
Q 19.671875 43.65625 24.015625 45.921875 
Q 28.375 48.1875 33.59375 48.1875 
Q 44.578125 48.1875 50.953125 41.515625 
Q 57.328125 34.859375 57.328125 23.390625 
Q 57.328125 12.15625 50.6875 5.359375 
Q 44.046875 -1.421875 33.015625 -1.421875 
Q 20.359375 -1.421875 13.671875 8.265625 
Q 6.984375 17.96875 6.984375 36.375 
Q 6.984375 53.65625 15.1875 63.9375 
Q 23.390625 74.21875 37.203125 74.21875 
Q 40.921875 74.21875 44.703125 73.484375 
Q 48.484375 72.75 52.59375 71.296875 
" id="BitstreamVeraSans-Roman-36"/>
       <path d="M 4.890625 31.390625 
L 31.203125 31.390625 
L 31.203125 23.390625 
L 4.890625 23.390625 
z
" id="BitstreamVeraSans-Roman-2d"/>
      </defs>
      <g transform="translate(46.73440234 371.996875)scale(0.2 -0.2)">
       <use xlink:href="#BitstreamVeraSans-Roman-2d"/>
       <use x="36.083984375" xlink:href="#BitstreamVeraSans-Roman-36"/>
      </g>
     </g>
    </g>
    <g id="xtick_3">
     <g id="line2d_9">
      <path clip-path="url(#pf2d0b1eee4)" d="M 106.316625 352.8 
L 106.316625 7.2 
" style="fill:none;stroke:#000000;stroke-dasharray:1.000000,3.000000;stroke-dashoffset:0.0;stroke-width:0.5;"/>
     </g>
     <g id="line2d_10">
      <g>
       <use style="stroke:#000000;stroke-width:0.5;" x="106.316625485" xlink:href="#mbd1ce0845d" y="352.8"/>
      </g>
     </g>
     <g id="line2d_11">
      <g>
       <use style="stroke:#000000;stroke-width:0.5;" x="106.316625485" xlink:href="#m66fa541ea2" y="7.2"/>
      </g>
     </g>
     <g id="text_2">
      <!-- -4 -->
      <defs>
       <path d="M 37.796875 64.3125 
L 12.890625 25.390625 
L 37.796875 25.390625 
z
M 35.203125 72.90625 
L 47.609375 72.90625 
L 47.609375 25.390625 
L 58.015625 25.390625 
L 58.015625 17.1875 
L 47.609375 17.1875 
L 47.609375 0 
L 37.796875 0 
L 37.796875 17.1875 
L 4.890625 17.1875 
L 4.890625 26.703125 
z
" id="BitstreamVeraSans-Roman-34"/>
      </defs>
      <g transform="translate(96.346312985 371.996875)scale(0.2 -0.2)">
       <use xlink:href="#BitstreamVeraSans-Roman-2d"/>
       <use x="36.083984375" xlink:href="#BitstreamVeraSans-Roman-34"/>
      </g>
     </g>
    </g>
    <g id="xtick_4">
     <g id="line2d_12">
      <path clip-path="url(#pf2d0b1eee4)" d="M 155.928536 352.8 
L 155.928536 7.2 
" style="fill:none;stroke:#000000;stroke-dasharray:1.000000,3.000000;stroke-dashoffset:0.0;stroke-width:0.5;"/>
     </g>
     <g id="line2d_13">
      <g>
       <use style="stroke:#000000;stroke-width:0.5;" x="155.92853613" xlink:href="#mbd1ce0845d" y="352.8"/>
      </g>
     </g>
     <g id="line2d_14">
      <g>
       <use style="stroke:#000000;stroke-width:0.5;" x="155.92853613" xlink:href="#m66fa541ea2" y="7.2"/>
      </g>
     </g>
     <g id="text_3">
      <!-- -2 -->
      <defs>
       <path d="M 19.1875 8.296875 
L 53.609375 8.296875 
L 53.609375 0 
L 7.328125 0 
L 7.328125 8.296875 
Q 12.9375 14.109375 22.625 23.890625 
Q 32.328125 33.6875 34.8125 36.53125 
Q 39.546875 41.84375 41.421875 45.53125 
Q 43.3125 49.21875 43.3125 52.78125 
Q 43.3125 58.59375 39.234375 62.25 
Q 35.15625 65.921875 28.609375 65.921875 
Q 23.96875 65.921875 18.8125 64.3125 
Q 13.671875 62.703125 7.8125 59.421875 
L 7.8125 69.390625 
Q 13.765625 71.78125 18.9375 73 
Q 24.125 74.21875 28.421875 74.21875 
Q 39.75 74.21875 46.484375 68.546875 
Q 53.21875 62.890625 53.21875 53.421875 
Q 53.21875 48.921875 51.53125 44.890625 
Q 49.859375 40.875 45.40625 35.40625 
Q 44.1875 33.984375 37.640625 27.21875 
Q 31.109375 20.453125 19.1875 8.296875 
" id="BitstreamVeraSans-Roman-32"/>
      </defs>
      <g transform="translate(145.95822363 371.996875)scale(0.2 -0.2)">
       <use xlink:href="#BitstreamVeraSans-Roman-2d"/>
       <use x="36.083984375" xlink:href="#BitstreamVeraSans-Roman-32"/>
      </g>
     </g>
    </g>
    <g id="xtick_5">
     <g id="line2d_15">
      <path clip-path="url(#pf2d0b1eee4)" d="M 205.540447 352.8 
L 205.540447 7.2 
" style="fill:none;stroke:#000000;stroke-dasharray:1.000000,3.000000;stroke-dashoffset:0.0;stroke-width:0.5;"/>
     </g>
     <g id="line2d_16">
      <g>
       <use style="stroke:#000000;stroke-width:0.5;" x="205.540446775" xlink:href="#mbd1ce0845d" y="352.8"/>
      </g>
     </g>
     <g id="line2d_17">
      <g>
       <use style="stroke:#000000;stroke-width:0.5;" x="205.540446775" xlink:href="#m66fa541ea2" y="7.2"/>
      </g>
     </g>
     <g id="text_4">
      <!-- 0 -->
      <defs>
       <path d="M 31.78125 66.40625 
Q 24.171875 66.40625 20.328125 58.90625 
Q 16.5 51.421875 16.5 36.375 
Q 16.5 21.390625 20.328125 13.890625 
Q 24.171875 6.390625 31.78125 6.390625 
Q 39.453125 6.390625 43.28125 13.890625 
Q 47.125 21.390625 47.125 36.375 
Q 47.125 51.421875 43.28125 58.90625 
Q 39.453125 66.40625 31.78125 66.40625 
M 31.78125 74.21875 
Q 44.046875 74.21875 50.515625 64.515625 
Q 56.984375 54.828125 56.984375 36.375 
Q 56.984375 17.96875 50.515625 8.265625 
Q 44.046875 -1.421875 31.78125 -1.421875 
Q 19.53125 -1.421875 13.0625 8.265625 
Q 6.59375 17.96875 6.59375 36.375 
Q 6.59375 54.828125 13.0625 64.515625 
Q 19.53125 74.21875 31.78125 74.21875 
" id="BitstreamVeraSans-Roman-30"/>
      </defs>
      <g transform="translate(199.177946775 371.996875)scale(0.2 -0.2)">
       <use xlink:href="#BitstreamVeraSans-Roman-30"/>
      </g>
     </g>
    </g>
    <g id="xtick_6">
     <g id="line2d_18">
      <path clip-path="url(#pf2d0b1eee4)" d="M 255.152357 352.8 
L 255.152357 7.2 
" style="fill:none;stroke:#000000;stroke-dasharray:1.000000,3.000000;stroke-dashoffset:0.0;stroke-width:0.5;"/>
     </g>
     <g id="line2d_19">
      <g>
       <use style="stroke:#000000;stroke-width:0.5;" x="255.15235742" xlink:href="#mbd1ce0845d" y="352.8"/>
      </g>
     </g>
     <g id="line2d_20">
      <g>
       <use style="stroke:#000000;stroke-width:0.5;" x="255.15235742" xlink:href="#m66fa541ea2" y="7.2"/>
      </g>
     </g>
     <g id="text_5">
      <!-- 2 -->
      <g transform="translate(248.78985742 371.996875)scale(0.2 -0.2)">
       <use xlink:href="#BitstreamVeraSans-Roman-32"/>
      </g>
     </g>
    </g>
    <g id="xtick_7">
     <g id="line2d_21">
      <path clip-path="url(#pf2d0b1eee4)" d="M 304.764268 352.8 
L 304.764268 7.2 
" style="fill:none;stroke:#000000;stroke-dasharray:1.000000,3.000000;stroke-dashoffset:0.0;stroke-width:0.5;"/>
     </g>
     <g id="line2d_22">
      <g>
       <use style="stroke:#000000;stroke-width:0.5;" x="304.764268065" xlink:href="#mbd1ce0845d" y="352.8"/>
      </g>
     </g>
     <g id="line2d_23">
      <g>
       <use style="stroke:#000000;stroke-width:0.5;" x="304.764268065" xlink:href="#m66fa541ea2" y="7.2"/>
      </g>
     </g>
     <g id="text_6">
      <!-- 4 -->
      <g transform="translate(298.401768065 371.996875)scale(0.2 -0.2)">
       <use xlink:href="#BitstreamVeraSans-Roman-34"/>
      </g>
     </g>
    </g>
    <g id="xtick_8">
     <g id="line2d_24">
      <path clip-path="url(#pf2d0b1eee4)" d="M 354.376179 352.8 
L 354.376179 7.2 
" style="fill:none;stroke:#000000;stroke-dasharray:1.000000,3.000000;stroke-dashoffset:0.0;stroke-width:0.5;"/>
     </g>
     <g id="line2d_25">
      <g>
       <use style="stroke:#000000;stroke-width:0.5;" x="354.37617871" xlink:href="#mbd1ce0845d" y="352.8"/>
      </g>
     </g>
     <g id="line2d_26">
      <g>
       <use style="stroke:#000000;stroke-width:0.5;" x="354.37617871" xlink:href="#m66fa541ea2" y="7.2"/>
      </g>
     </g>
     <g id="text_7">
      <!-- 6 -->
      <g transform="translate(348.01367871 371.996875)scale(0.2 -0.2)">
       <use xlink:href="#BitstreamVeraSans-Roman-36"/>
      </g>
     </g>
    </g>
    <g id="xtick_9">
     <g id="line2d_27">
      <path clip-path="url(#pf2d0b1eee4)" d="M 403.988089 352.8 
L 403.988089 7.2 
" style="fill:none;stroke:#000000;stroke-dasharray:1.000000,3.000000;stroke-dashoffset:0.0;stroke-width:0.5;"/>
     </g>
     <g id="line2d_28">
      <g>
       <use style="stroke:#000000;stroke-width:0.5;" x="403.988089355" xlink:href="#mbd1ce0845d" y="352.8"/>
      </g>
     </g>
     <g id="line2d_29">
      <g>
       <use style="stroke:#000000;stroke-width:0.5;" x="403.988089355" xlink:href="#m66fa541ea2" y="7.2"/>
      </g>
     </g>
     <g id="text_8">
      <!-- 8 -->
      <defs>
       <path d="M 31.78125 34.625 
Q 24.75 34.625 20.71875 30.859375 
Q 16.703125 27.09375 16.703125 20.515625 
Q 16.703125 13.921875 20.71875 10.15625 
Q 24.75 6.390625 31.78125 6.390625 
Q 38.8125 6.390625 42.859375 10.171875 
Q 46.921875 13.96875 46.921875 20.515625 
Q 46.921875 27.09375 42.890625 30.859375 
Q 38.875 34.625 31.78125 34.625 
M 21.921875 38.8125 
Q 15.578125 40.375 12.03125 44.71875 
Q 8.5 49.078125 8.5 55.328125 
Q 8.5 64.0625 14.71875 69.140625 
Q 20.953125 74.21875 31.78125 74.21875 
Q 42.671875 74.21875 48.875 69.140625 
Q 55.078125 64.0625 55.078125 55.328125 
Q 55.078125 49.078125 51.53125 44.71875 
Q 48 40.375 41.703125 38.8125 
Q 48.828125 37.15625 52.796875 32.3125 
Q 56.78125 27.484375 56.78125 20.515625 
Q 56.78125 9.90625 50.3125 4.234375 
Q 43.84375 -1.421875 31.78125 -1.421875 
Q 19.734375 -1.421875 13.25 4.234375 
Q 6.78125 9.90625 6.78125 20.515625 
Q 6.78125 27.484375 10.78125 32.3125 
Q 14.796875 37.15625 21.921875 38.8125 
M 18.3125 54.390625 
Q 18.3125 48.734375 21.84375 45.5625 
Q 25.390625 42.390625 31.78125 42.390625 
Q 38.140625 42.390625 41.71875 45.5625 
Q 45.3125 48.734375 45.3125 54.390625 
Q 45.3125 60.0625 41.71875 63.234375 
Q 38.140625 66.40625 31.78125 66.40625 
Q 25.390625 66.40625 21.84375 63.234375 
Q 18.3125 60.0625 18.3125 54.390625 
" id="BitstreamVeraSans-Roman-38"/>
      </defs>
      <g transform="translate(397.625589355 371.996875)scale(0.2 -0.2)">
       <use xlink:href="#BitstreamVeraSans-Roman-38"/>
      </g>
     </g>
    </g>
    <g id="xtick_10">
     <g id="line2d_30">
      <path clip-path="url(#pf2d0b1eee4)" d="M 453.6 352.8 
L 453.6 7.2 
" style="fill:none;stroke:#000000;stroke-dasharray:1.000000,3.000000;stroke-dashoffset:0.0;stroke-width:0.5;"/>
     </g>
     <g id="line2d_31">
      <g>
       <use style="stroke:#000000;stroke-width:0.5;" x="453.6" xlink:href="#mbd1ce0845d" y="352.8"/>
      </g>
     </g>
     <g id="line2d_32">
      <g>
       <use style="stroke:#000000;stroke-width:0.5;" x="453.6" xlink:href="#m66fa541ea2" y="7.2"/>
      </g>
     </g>
    </g>
    <g id="xtick_11"/>
    <g id="xtick_12">
     <g id="line2d_33">
      <defs>
       <path d="M 0 0 
L 0 -2 
" id="mcbcd0015cf" style="stroke:#000000;stroke-width:0.5;"/>
      </defs>
      <g>
       <use style="stroke:#000000;stroke-width:0.5;" x="56.70471484" xlink:href="#mcbcd0015cf" y="352.8"/>
      </g>
     </g>
     <g id="line2d_34">
      <defs>
       <path d="M 0 0 
L 0 2 
" id="m6aefa707ec" style="stroke:#000000;stroke-width:0.5;"/>
      </defs>
      <g>
       <use style="stroke:#000000;stroke-width:0.5;" x="56.70471484" xlink:href="#m6aefa707ec" y="7.2"/>
      </g>
     </g>
    </g>
    <g id="xtick_13">
     <g id="line2d_35">
      <g>
       <use style="stroke:#000000;stroke-width:0.5;" x="106.316625485" xlink:href="#mcbcd0015cf" y="352.8"/>
      </g>
     </g>
     <g id="line2d_36">
      <g>
       <use style="stroke:#000000;stroke-width:0.5;" x="106.316625485" xlink:href="#m6aefa707ec" y="7.2"/>
      </g>
     </g>
    </g>
    <g id="xtick_14">
     <g id="line2d_37">
      <g>
       <use style="stroke:#000000;stroke-width:0.5;" x="155.92853613" xlink:href="#mcbcd0015cf" y="352.8"/>
      </g>
     </g>
     <g id="line2d_38">
      <g>
       <use style="stroke:#000000;stroke-width:0.5;" x="155.92853613" xlink:href="#m6aefa707ec" y="7.2"/>
      </g>
     </g>
    </g>
    <g id="xtick_15">
     <g id="line2d_39">
      <g>
       <use style="stroke:#000000;stroke-width:0.5;" x="205.540446775" xlink:href="#mcbcd0015cf" y="352.8"/>
      </g>
     </g>
     <g id="line2d_40">
      <g>
       <use style="stroke:#000000;stroke-width:0.5;" x="205.540446775" xlink:href="#m6aefa707ec" y="7.2"/>
      </g>
     </g>
    </g>
    <g id="xtick_16">
     <g id="line2d_41">
      <g>
       <use style="stroke:#000000;stroke-width:0.5;" x="255.15235742" xlink:href="#mcbcd0015cf" y="352.8"/>
      </g>
     </g>
     <g id="line2d_42">
      <g>
       <use style="stroke:#000000;stroke-width:0.5;" x="255.15235742" xlink:href="#m6aefa707ec" y="7.2"/>
      </g>
     </g>
    </g>
    <g id="xtick_17">
     <g id="line2d_43">
      <g>
       <use style="stroke:#000000;stroke-width:0.5;" x="304.764268065" xlink:href="#mcbcd0015cf" y="352.8"/>
      </g>
     </g>
     <g id="line2d_44">
      <g>
       <use style="stroke:#000000;stroke-width:0.5;" x="304.764268065" xlink:href="#m6aefa707ec" y="7.2"/>
      </g>
     </g>
    </g>
    <g id="xtick_18">
     <g id="line2d_45">
      <g>
       <use style="stroke:#000000;stroke-width:0.5;" x="354.37617871" xlink:href="#mcbcd0015cf" y="352.8"/>
      </g>
     </g>
     <g id="line2d_46">
      <g>
       <use style="stroke:#000000;stroke-width:0.5;" x="354.37617871" xlink:href="#m6aefa707ec" y="7.2"/>
      </g>
     </g>
    </g>
    <g id="xtick_19">
     <g id="line2d_47">
      <g>
       <use style="stroke:#000000;stroke-width:0.5;" x="403.988089355" xlink:href="#mcbcd0015cf" y="352.8"/>
      </g>
     </g>
     <g id="line2d_48">
      <g>
       <use style="stroke:#000000;stroke-width:0.5;" x="403.988089355" xlink:href="#m6aefa707ec" y="7.2"/>
      </g>
     </g>
    </g>
    <g id="xtick_20">
     <g id="line2d_49">
      <g>
       <use style="stroke:#000000;stroke-width:0.5;" x="453.6" xlink:href="#mcbcd0015cf" y="352.8"/>
      </g>
     </g>
     <g id="line2d_50">
      <g>
       <use style="stroke:#000000;stroke-width:0.5;" x="453.6" xlink:href="#m6aefa707ec" y="7.2"/>
      </g>
     </g>
    </g>
    <g id="text_9">
     <!-- log10 of Df -->
     <defs>
      <path id="BitstreamVeraSans-Roman-20"/>
      <path d="M 12.40625 8.296875 
L 28.515625 8.296875 
L 28.515625 63.921875 
L 10.984375 60.40625 
L 10.984375 69.390625 
L 28.421875 72.90625 
L 38.28125 72.90625 
L 38.28125 8.296875 
L 54.390625 8.296875 
L 54.390625 0 
L 12.40625 0 
z
" id="BitstreamVeraSans-Roman-31"/>
      <path d="M 30.609375 48.390625 
Q 23.390625 48.390625 19.1875 42.75 
Q 14.984375 37.109375 14.984375 27.296875 
Q 14.984375 17.484375 19.15625 11.84375 
Q 23.34375 6.203125 30.609375 6.203125 
Q 37.796875 6.203125 41.984375 11.859375 
Q 46.1875 17.53125 46.1875 27.296875 
Q 46.1875 37.015625 41.984375 42.703125 
Q 37.796875 48.390625 30.609375 48.390625 
M 30.609375 56 
Q 42.328125 56 49.015625 48.375 
Q 55.71875 40.765625 55.71875 27.296875 
Q 55.71875 13.875 49.015625 6.21875 
Q 42.328125 -1.421875 30.609375 -1.421875 
Q 18.84375 -1.421875 12.171875 6.21875 
Q 5.515625 13.875 5.515625 27.296875 
Q 5.515625 40.765625 12.171875 48.375 
Q 18.84375 56 30.609375 56 
" id="BitstreamVeraSans-Roman-6f"/>
      <path d="M 9.421875 75.984375 
L 18.40625 75.984375 
L 18.40625 0 
L 9.421875 0 
z
" id="BitstreamVeraSans-Roman-6c"/>
      <path d="M 19.671875 64.796875 
L 19.671875 8.109375 
L 31.59375 8.109375 
Q 46.6875 8.109375 53.6875 14.9375 
Q 60.6875 21.78125 60.6875 36.53125 
Q 60.6875 51.171875 53.6875 57.984375 
Q 46.6875 64.796875 31.59375 64.796875 
z
M 9.8125 72.90625 
L 30.078125 72.90625 
Q 51.265625 72.90625 61.171875 64.09375 
Q 71.09375 55.28125 71.09375 36.53125 
Q 71.09375 17.671875 61.125 8.828125 
Q 51.171875 0 30.078125 0 
L 9.8125 0 
z
" id="BitstreamVeraSans-Roman-44"/>
      <path d="M 45.40625 27.984375 
Q 45.40625 37.75 41.375 43.109375 
Q 37.359375 48.484375 30.078125 48.484375 
Q 22.859375 48.484375 18.828125 43.109375 
Q 14.796875 37.75 14.796875 27.984375 
Q 14.796875 18.265625 18.828125 12.890625 
Q 22.859375 7.515625 30.078125 7.515625 
Q 37.359375 7.515625 41.375 12.890625 
Q 45.40625 18.265625 45.40625 27.984375 
M 54.390625 6.78125 
Q 54.390625 -7.171875 48.1875 -13.984375 
Q 42 -20.796875 29.203125 -20.796875 
Q 24.46875 -20.796875 20.265625 -20.09375 
Q 16.0625 -19.390625 12.109375 -17.921875 
L 12.109375 -9.1875 
Q 16.0625 -11.328125 19.921875 -12.34375 
Q 23.78125 -13.375 27.78125 -13.375 
Q 36.625 -13.375 41.015625 -8.765625 
Q 45.40625 -4.15625 45.40625 5.171875 
L 45.40625 9.625 
Q 42.625 4.78125 38.28125 2.390625 
Q 33.9375 0 27.875 0 
Q 17.828125 0 11.671875 7.65625 
Q 5.515625 15.328125 5.515625 27.984375 
Q 5.515625 40.671875 11.671875 48.328125 
Q 17.828125 56 27.875 56 
Q 33.9375 56 38.28125 53.609375 
Q 42.625 51.21875 45.40625 46.390625 
L 45.40625 54.6875 
L 54.390625 54.6875 
z
" id="BitstreamVeraSans-Roman-67"/>
      <path d="M 37.109375 75.984375 
L 37.109375 68.5 
L 28.515625 68.5 
Q 23.6875 68.5 21.796875 66.546875 
Q 19.921875 64.59375 19.921875 59.515625 
L 19.921875 54.6875 
L 34.71875 54.6875 
L 34.71875 47.703125 
L 19.921875 47.703125 
L 19.921875 0 
L 10.890625 0 
L 10.890625 47.703125 
L 2.296875 47.703125 
L 2.296875 54.6875 
L 10.890625 54.6875 
L 10.890625 58.5 
Q 10.890625 67.625 15.140625 71.796875 
Q 19.390625 75.984375 28.609375 75.984375 
z
" id="BitstreamVeraSans-Roman-66"/>
     </defs>
     <g transform="translate(175.2140625 396.353125)scale(0.2 -0.2)">
      <use xlink:href="#BitstreamVeraSans-Roman-6c"/>
      <use x="27.783203125" xlink:href="#BitstreamVeraSans-Roman-6f"/>
      <use x="88.96484375" xlink:href="#BitstreamVeraSans-Roman-67"/>
      <use x="152.44140625" xlink:href="#BitstreamVeraSans-Roman-31"/>
      <use x="216.064453125" xlink:href="#BitstreamVeraSans-Roman-30"/>
      <use x="279.6875" xlink:href="#BitstreamVeraSans-Roman-20"/>
      <use x="311.474609375" xlink:href="#BitstreamVeraSans-Roman-6f"/>
      <use x="372.65625" xlink:href="#BitstreamVeraSans-Roman-66"/>
      <use x="407.861328125" xlink:href="#BitstreamVeraSans-Roman-20"/>
      <use x="439.6484375" xlink:href="#BitstreamVeraSans-Roman-44"/>
      <use x="516.650390625" xlink:href="#BitstreamVeraSans-Roman-66"/>
     </g>
    </g>
   </g>
   <g id="matplotlib.axis_2">
    <g id="ytick_1">
     <g id="line2d_51">
      <path clip-path="url(#pf2d0b1eee4)" d="M 7.2 352.8 
L 453.6 352.8 
" style="fill:none;stroke:#000000;stroke-dasharray:1.000000,3.000000;stroke-dashoffset:0.0;stroke-width:0.5;"/>
     </g>
     <g id="line2d_52">
      <defs>
       <path d="M 0 0 
L 4 0 
" id="mfa9cd86a7d" style="stroke:#000000;stroke-width:0.5;"/>
      </defs>
      <g>
       <use style="stroke:#000000;stroke-width:0.5;" x="7.2" xlink:href="#mfa9cd86a7d" y="352.8"/>
      </g>
     </g>
     <g id="line2d_53">
      <defs>
       <path d="M 0 0 
L -4 0 
" id="mcc51bd5fb9" style="stroke:#000000;stroke-width:0.5;"/>
      </defs>
      <g>
       <use style="stroke:#000000;stroke-width:0.5;" x="453.6" xlink:href="#mcc51bd5fb9" y="352.8"/>
      </g>
     </g>
    </g>
    <g id="ytick_2">
     <g id="line2d_54">
      <path clip-path="url(#pf2d0b1eee4)" d="M 7.2 284.364356 
L 453.6 284.364356 
" style="fill:none;stroke:#000000;stroke-dasharray:1.000000,3.000000;stroke-dashoffset:0.0;stroke-width:0.5;"/>
     </g>
     <g id="line2d_55">
      <g>
       <use style="stroke:#000000;stroke-width:0.5;" x="7.2" xlink:href="#mfa9cd86a7d" y="284.364356436"/>
      </g>
     </g>
     <g id="line2d_56">
      <g>
       <use style="stroke:#000000;stroke-width:0.5;" x="453.6" xlink:href="#mcc51bd5fb9" y="284.364356436"/>
      </g>
     </g>
    </g>
    <g id="ytick_3">
     <g id="line2d_57">
      <path clip-path="url(#pf2d0b1eee4)" d="M 7.2 215.928713 
L 453.6 215.928713 
" style="fill:none;stroke:#000000;stroke-dasharray:1.000000,3.000000;stroke-dashoffset:0.0;stroke-width:0.5;"/>
     </g>
     <g id="line2d_58">
      <g>
       <use style="stroke:#000000;stroke-width:0.5;" x="7.2" xlink:href="#mfa9cd86a7d" y="215.928712871"/>
      </g>
     </g>
     <g id="line2d_59">
      <g>
       <use style="stroke:#000000;stroke-width:0.5;" x="453.6" xlink:href="#mcc51bd5fb9" y="215.928712871"/>
      </g>
     </g>
    </g>
    <g id="ytick_4">
     <g id="line2d_60">
      <path clip-path="url(#pf2d0b1eee4)" d="M 7.2 147.493069 
L 453.6 147.493069 
" style="fill:none;stroke:#000000;stroke-dasharray:1.000000,3.000000;stroke-dashoffset:0.0;stroke-width:0.5;"/>
     </g>
     <g id="line2d_61">
      <g>
       <use style="stroke:#000000;stroke-width:0.5;" x="7.2" xlink:href="#mfa9cd86a7d" y="147.493069307"/>
      </g>
     </g>
     <g id="line2d_62">
      <g>
       <use style="stroke:#000000;stroke-width:0.5;" x="453.6" xlink:href="#mcc51bd5fb9" y="147.493069307"/>
      </g>
     </g>
    </g>
    <g id="ytick_5">
     <g id="line2d_63">
      <path clip-path="url(#pf2d0b1eee4)" d="M 7.2 79.057426 
L 453.6 79.057426 
" style="fill:none;stroke:#000000;stroke-dasharray:1.000000,3.000000;stroke-dashoffset:0.0;stroke-width:0.5;"/>
     </g>
     <g id="line2d_64">
      <g>
       <use style="stroke:#000000;stroke-width:0.5;" x="7.2" xlink:href="#mfa9cd86a7d" y="79.0574257426"/>
      </g>
     </g>
     <g id="line2d_65">
      <g>
       <use style="stroke:#000000;stroke-width:0.5;" x="453.6" xlink:href="#mcc51bd5fb9" y="79.0574257426"/>
      </g>
     </g>
    </g>
    <g id="ytick_6">
     <g id="line2d_66">
      <path clip-path="url(#pf2d0b1eee4)" d="M 7.2 10.621782 
L 453.6 10.621782 
" style="fill:none;stroke:#000000;stroke-dasharray:1.000000,3.000000;stroke-dashoffset:0.0;stroke-width:0.5;"/>
     </g>
     <g id="line2d_67">
      <g>
       <use style="stroke:#000000;stroke-width:0.5;" x="7.2" xlink:href="#mfa9cd86a7d" y="10.6217821782"/>
      </g>
     </g>
     <g id="line2d_68">
      <g>
       <use style="stroke:#000000;stroke-width:0.5;" x="453.6" xlink:href="#mcc51bd5fb9" y="10.6217821782"/>
      </g>
     </g>
    </g>
   </g>
   <g id="text_10">
    <!-- {f15-f19}, 20-D -->
    <defs>
     <path d="M 12.5 -9.28125 
L 15.921875 -9.28125 
Q 22.75 -9.28125 24.828125 -7.171875 
Q 26.90625 -5.078125 26.90625 1.90625 
L 26.90625 14.015625 
Q 26.90625 21.625 29.09375 25.09375 
Q 31.296875 28.5625 36.71875 29.890625 
Q 31.296875 31.109375 29.09375 34.5625 
Q 26.90625 38.03125 26.90625 45.703125 
L 26.90625 57.8125 
Q 26.90625 64.75 24.828125 66.875 
Q 22.75 69 15.921875 69 
L 12.5 69 
L 12.5 75.984375 
L 15.578125 75.984375 
Q 27.734375 75.984375 31.8125 72.390625 
Q 35.890625 68.796875 35.890625 58.015625 
L 35.890625 46.296875 
Q 35.890625 39.015625 38.515625 36.203125 
Q 41.15625 33.40625 48.09375 33.40625 
L 51.125 33.40625 
L 51.125 26.421875 
L 48.09375 26.421875 
Q 41.15625 26.421875 38.515625 23.578125 
Q 35.890625 20.75 35.890625 13.375 
L 35.890625 1.703125 
Q 35.890625 -9.078125 31.8125 -12.6875 
Q 27.734375 -16.3125 15.578125 -16.3125 
L 12.5 -16.3125 
z
" id="BitstreamVeraSans-Roman-7d"/>
     <path d="M 10.984375 1.515625 
L 10.984375 10.5 
Q 14.703125 8.734375 18.5 7.8125 
Q 22.3125 6.890625 25.984375 6.890625 
Q 35.75 6.890625 40.890625 13.453125 
Q 46.046875 20.015625 46.78125 33.40625 
Q 43.953125 29.203125 39.59375 26.953125 
Q 35.25 24.703125 29.984375 24.703125 
Q 19.046875 24.703125 12.671875 31.3125 
Q 6.296875 37.9375 6.296875 49.421875 
Q 6.296875 60.640625 12.9375 67.421875 
Q 19.578125 74.21875 30.609375 74.21875 
Q 43.265625 74.21875 49.921875 64.515625 
Q 56.59375 54.828125 56.59375 36.375 
Q 56.59375 19.140625 48.40625 8.859375 
Q 40.234375 -1.421875 26.421875 -1.421875 
Q 22.703125 -1.421875 18.890625 -0.6875 
Q 15.09375 0.046875 10.984375 1.515625 
M 30.609375 32.421875 
Q 37.25 32.421875 41.125 36.953125 
Q 45.015625 41.5 45.015625 49.421875 
Q 45.015625 57.28125 41.125 61.84375 
Q 37.25 66.40625 30.609375 66.40625 
Q 23.96875 66.40625 20.09375 61.84375 
Q 16.21875 57.28125 16.21875 49.421875 
Q 16.21875 41.5 20.09375 36.953125 
Q 23.96875 32.421875 30.609375 32.421875 
" id="BitstreamVeraSans-Roman-39"/>
     <path d="M 51.125 -9.28125 
L 51.125 -16.3125 
L 48.09375 -16.3125 
Q 35.9375 -16.3125 31.8125 -12.6875 
Q 27.6875 -9.078125 27.6875 1.703125 
L 27.6875 13.375 
Q 27.6875 20.75 25.046875 23.578125 
Q 22.40625 26.421875 15.484375 26.421875 
L 12.5 26.421875 
L 12.5 33.40625 
L 15.484375 33.40625 
Q 22.46875 33.40625 25.078125 36.203125 
Q 27.6875 39.015625 27.6875 46.296875 
L 27.6875 58.015625 
Q 27.6875 68.796875 31.8125 72.390625 
Q 35.9375 75.984375 48.09375 75.984375 
L 51.125 75.984375 
L 51.125 69 
L 47.796875 69 
Q 40.921875 69 38.8125 66.84375 
Q 36.71875 64.703125 36.71875 57.8125 
L 36.71875 45.703125 
Q 36.71875 38.03125 34.5 34.5625 
Q 32.28125 31.109375 26.90625 29.890625 
Q 32.328125 28.5625 34.515625 25.09375 
Q 36.71875 21.625 36.71875 14.015625 
L 36.71875 1.90625 
Q 36.71875 -4.984375 38.8125 -7.125 
Q 40.921875 -9.28125 47.796875 -9.28125 
z
" id="BitstreamVeraSans-Roman-7b"/>
     <path d="M 11.71875 12.40625 
L 22.015625 12.40625 
L 22.015625 4 
L 14.015625 -11.625 
L 7.71875 -11.625 
L 11.71875 4 
z
" id="BitstreamVeraSans-Roman-2c"/>
     <path d="M 10.796875 72.90625 
L 49.515625 72.90625 
L 49.515625 64.59375 
L 19.828125 64.59375 
L 19.828125 46.734375 
Q 21.96875 47.46875 24.109375 47.828125 
Q 26.265625 48.1875 28.421875 48.1875 
Q 40.625 48.1875 47.75 41.5 
Q 54.890625 34.8125 54.890625 23.390625 
Q 54.890625 11.625 47.5625 5.09375 
Q 40.234375 -1.421875 26.90625 -1.421875 
Q 22.3125 -1.421875 17.546875 -0.640625 
Q 12.796875 0.140625 7.71875 1.703125 
L 7.71875 11.625 
Q 12.109375 9.234375 16.796875 8.0625 
Q 21.484375 6.890625 26.703125 6.890625 
Q 35.15625 6.890625 40.078125 11.328125 
Q 45.015625 15.765625 45.015625 23.390625 
Q 45.015625 31 40.078125 35.4375 
Q 35.15625 39.890625 26.703125 39.890625 
Q 22.75 39.890625 18.8125 39.015625 
Q 14.890625 38.140625 10.796875 36.28125 
z
" id="BitstreamVeraSans-Roman-35"/>
    </defs>
    <g transform="translate(286.247 345.888)scale(0.2 -0.2)">
     <use xlink:href="#BitstreamVeraSans-Roman-7b"/>
     <use x="63.623046875" xlink:href="#BitstreamVeraSans-Roman-66"/>
     <use x="98.828125" xlink:href="#BitstreamVeraSans-Roman-31"/>
     <use x="162.451171875" xlink:href="#BitstreamVeraSans-Roman-35"/>
     <use x="226.07421875" xlink:href="#BitstreamVeraSans-Roman-2d"/>
     <use x="262.158203125" xlink:href="#BitstreamVeraSans-Roman-66"/>
     <use x="297.36328125" xlink:href="#BitstreamVeraSans-Roman-31"/>
     <use x="360.986328125" xlink:href="#BitstreamVeraSans-Roman-39"/>
     <use x="424.609375" xlink:href="#BitstreamVeraSans-Roman-7d"/>
     <use x="488.232421875" xlink:href="#BitstreamVeraSans-Roman-2c"/>
     <use x="520.01953125" xlink:href="#BitstreamVeraSans-Roman-20"/>
     <use x="551.806640625" xlink:href="#BitstreamVeraSans-Roman-32"/>
     <use x="615.4296875" xlink:href="#BitstreamVeraSans-Roman-30"/>
     <use x="679.052734375" xlink:href="#BitstreamVeraSans-Roman-2d"/>
     <use x="715.13671875" xlink:href="#BitstreamVeraSans-Roman-44"/>
    </g>
   </g>
   <g id="text_11">
    <!-- 0.0.0 -->
    <defs>
     <path d="M 10.6875 12.40625 
L 21 12.40625 
L 21 0 
L 10.6875 0 
z
" id="BitstreamVeraSans-Roman-2e"/>
    </defs>
    <g style="fill:#808080;" transform="translate(217.678125 347.2643125)scale(0.1 -0.1)">
     <use xlink:href="#BitstreamVeraSans-Roman-30"/>
     <use x="63.623046875" xlink:href="#BitstreamVeraSans-Roman-2e"/>
     <use x="95.41015625" xlink:href="#BitstreamVeraSans-Roman-30"/>
     <use x="159.033203125" xlink:href="#BitstreamVeraSans-Roman-2e"/>
     <use x="190.8203125" xlink:href="#BitstreamVeraSans-Roman-30"/>
    </g>
   </g>
  </g>
 </g>
 <defs>
  <clipPath id="pf2d0b1eee4">
   <rect height="345.6" width="446.4" x="7.2" y="7.2"/>
  </clipPath>
 </defs>
</svg>
