<?xml version="1.0" encoding="utf-8" standalone="no"?>
<!DOCTYPE svg PUBLIC "-//W3C//DTD SVG 1.1//EN"
  "http://www.w3.org/Graphics/SVG/1.1/DTD/svg11.dtd">
<!-- Created with matplotlib (http://matplotlib.org/) -->
<svg height="432pt" version="1.1" viewBox="0 0 574 432" width="574pt" xmlns="http://www.w3.org/2000/svg" xmlns:xlink="http://www.w3.org/1999/xlink">
 <defs>
  <style type="text/css">
*{stroke-linecap:butt;stroke-linejoin:round;stroke-miterlimit:100000;}
  </style>
 </defs>
 <g id="figure_1">
  <g id="patch_1">
   <path d="M 0 432.43625 
L 574.589062 432.43625 
L 574.589062 0 
L 0 0 
z
" style="fill:#ffffff;"/>
  </g>
  <g id="axes_1">
   <g id="patch_2">
    <path d="M 85.2 376.03625 
L 531.6 376.03625 
L 531.6 30.43625 
L 85.2 30.43625 
z
" style="fill:#ffffff;"/>
   </g>
   <g id="line2d_1">
    <path d="M 60.662335 376.03625 
L 60.662335 342.489366 
L 117.950851 342.489366 
L 117.950851 340.476553 
L 119.606063 340.476553 
L 119.606063 339.805615 
L 121.147029 339.805615 
L 121.147029 337.792802 
L 126.426806 337.792802 
L 126.426806 335.109051 
L 129.701216 335.109051 
L 129.701216 333.767176 
L 131.644628 333.767176 
L 131.644628 333.096238 
L 132.556393 333.096238 
L 132.556393 319.006547 
L 133.432393 319.006547 
L 133.432393 315.651859 
L 135.087606 315.651859 
L 135.087606 314.980921 
L 135.871375 314.980921 
L 135.871375 312.968108 
L 136.628571 312.968108 
L 136.628571 312.29717 
L 137.360937 312.29717 
L 137.360937 308.942482 
L 138.070049 308.942482 
L 138.070049 308.271544 
L 138.757338 308.271544 
L 138.757338 306.258731 
L 141.31271 306.258731 
L 141.31271 305.587793 
L 145.182759 305.587793 
L 145.182759 304.916856 
L 147.586705 304.916856 
L 147.586705 304.245918 
L 148.037936 304.245918 
L 148.037936 302.233105 
L 148.48023 302.233105 
L 148.48023 296.194666 
L 149.756872 296.194666 
L 149.756872 294.85279 
L 153.199849 294.85279 
L 153.199849 294.181853 
L 153.89788 294.181853 
L 153.89788 291.498102 
L 154.905651 291.498102 
L 154.905651 289.485289 
L 156.794252 289.485289 
L 156.794252 288.814351 
L 157.094058 288.814351 
L 157.094058 287.472476 
L 158.254586 287.472476 
L 158.254586 283.44685 
L 158.535535 283.44685 
L 158.535535 282.775912 
L 159.35778 282.775912 
L 159.35778 281.434037 
L 160.150827 281.434037 
L 160.150827 279.421224 
L 160.40904 279.421224 
L 160.40904 277.408411 
L 160.916679 277.408411 
L 160.916679 274.72466 
L 161.413036 274.72466 
L 161.413036 272.040909 
L 161.898601 272.040909 
L 161.898601 271.369972 
L 162.607713 271.369972 
L 162.607713 270.028096 
L 162.839168 270.028096 
L 162.839168 269.357159 
L 163.068248 269.357159 
L 163.068248 266.00247 
L 163.295003 266.00247 
L 163.295003 263.318719 
L 163.961773 263.318719 
L 163.961773 259.964031 
L 164.395479 259.964031 
L 164.395479 257.951218 
L 164.609214 257.951218 
L 164.609214 254.59653 
L 165.030644 254.59653 
L 165.030644 253.925592 
L 165.238414 253.925592 
L 165.238414 249.899966 
L 165.44427 249.899966 
L 165.44427 246.545277 
L 165.648245 246.545277 
L 165.648245 245.203402 
L 165.850374 245.203402 
L 165.850374 241.177776 
L 166.050691 241.177776 
L 166.050691 240.506838 
L 166.446014 240.506838 
L 166.446014 238.494025 
L 166.834461 238.494025 
L 166.834461 237.823088 
L 167.02618 237.823088 
L 167.02618 237.15215 
L 167.216267 237.15215 
L 167.216267 233.126524 
L 167.404751 233.126524 
L 167.404751 231.784648 
L 167.777012 231.784648 
L 167.777012 227.088085 
L 167.960841 227.088085 
L 167.960841 219.70777 
L 168.14317 219.70777 
L 168.14317 209.643705 
L 168.324022 209.643705 
L 168.324022 206.959954 
L 168.503422 206.959954 
L 168.503422 204.947141 
L 168.681392 204.947141 
L 168.681392 203.605266 
L 168.857955 203.605266 
L 168.857955 200.250577 
L 169.033134 200.250577 
L 169.033134 198.237764 
L 169.206949 198.237764 
L 169.206949 196.224951 
L 169.379422 196.224951 
L 169.379422 194.212138 
L 169.550574 194.212138 
L 169.550574 192.870263 
L 169.720423 192.870263 
L 169.720423 192.199325 
L 169.888991 192.199325 
L 169.888991 187.502761 
L 170.056297 187.502761 
L 170.056297 185.489948 
L 170.222358 185.489948 
L 170.222358 184.148073 
L 170.387194 184.148073 
L 170.387194 177.438696 
L 170.550822 177.438696 
L 170.550822 174.754945 
L 170.71326 174.754945 
L 170.71326 173.41307 
L 170.874525 173.41307 
L 170.874525 168.045569 
L 171.034634 168.045569 
L 171.034634 167.374631 
L 171.193604 167.374631 
L 171.193604 160.665254 
L 171.35145 160.665254 
L 171.35145 159.323379 
L 171.508189 159.323379 
L 171.508189 158.652441 
L 171.663835 158.652441 
L 171.663835 156.639628 
L 171.818404 156.639628 
L 171.818404 155.297753 
L 171.971911 155.297753 
L 171.971911 154.626815 
L 172.12437 154.626815 
L 172.12437 152.614002 
L 172.275795 152.614002 
L 172.275795 150.601189 
L 172.426201 150.601189 
L 172.426201 149.259313 
L 172.5756 149.259313 
L 172.5756 144.56275 
L 172.724007 144.56275 
L 172.724007 142.549937 
L 172.871434 142.549937 
L 172.871434 141.208061 
L 173.307966 141.208061 
L 173.307966 139.866186 
L 173.451601 139.866186 
L 173.451601 139.195248 
L 173.594318 139.195248 
L 173.594318 133.156809 
L 173.736129 133.156809 
L 173.736129 129.131183 
L 174.017077 129.131183 
L 174.017077 126.447432 
L 174.156238 126.447432 
L 174.156238 125.776495 
L 174.294536 125.776495 
L 174.294536 124.434619 
L 174.431984 124.434619 
L 174.431984 121.750869 
L 174.568591 121.750869 
L 174.568591 119.067118 
L 175.239366 119.067118 
L 175.239366 112.357741 
L 175.371137 112.357741 
L 175.371137 111.686803 
L 175.502135 111.686803 
L 175.502135 109.67399 
L 175.63237 109.67399 
L 175.63237 109.003053 
L 175.761849 109.003053 
L 175.761849 107.661177 
L 175.890583 107.661177 
L 175.890583 104.306489 
L 176.398221 104.306489 
L 176.398221 103.635551 
L 176.523348 103.635551 
L 176.523348 102.293676 
L 176.647779 102.293676 
L 176.647779 98.938987 
L 177.259739 98.938987 
L 177.259739 95.584299 
L 177.499904 95.584299 
L 177.499904 94.913361 
L 177.619025 94.913361 
L 177.619025 93.571486 
L 178.089256 93.571486 
L 178.089256 92.900548 
L 178.205283 92.900548 
L 178.205283 89.54586 
L 178.435544 89.54586 
L 178.435544 88.874922 
L 178.663456 88.874922 
L 178.663456 87.533047 
L 179.223263 87.533047 
L 179.223263 86.862109 
L 179.443316 86.862109 
L 179.443316 84.178358 
L 180.090756 84.178358 
L 180.196862 79.481795 
L 180.719957 79.481795 
L 180.719957 74.785231 
L 181.028033 74.785231 
L 181.028033 74.114293 
L 181.532234 74.114293 
L 181.532234 73.443355 
L 181.730769 73.443355 
L 181.82938 71.430542 
L 182.122624 71.430542 
L 182.122624 70.088667 
L 182.412069 70.088667 
L 182.412069 69.417729 
L 183.442384 69.417729 
L 183.442384 66.733979 
L 188.13147 66.733979 
L 188.13147 65.392103 
L 189.146878 65.392103 
L 189.146878 64.050228 
L 189.28824 64.050228 
L 189.28824 63.37929 
L 189.63778 63.37929 
L 189.63778 62.708353 
L 189.776079 62.708353 
L 189.844908 58.011789 
L 189.913526 58.011789 
L 189.913526 56.669913 
L 190.118125 56.669913 
L 190.118125 54.6571 
L 190.388039 54.6571 
L 190.455011 48.618661 
L 190.521783 48.618661 
L 190.521783 45.263973 
L 190.918275 45.263973 
L 190.918275 44.593035 
L 191.113913 44.593035 
L 191.113913 41.238347 
L 191.307851 41.238347 
L 191.307851 40.567409 
L 191.436215 40.567409 
L 191.500121 36.541783 
L 191.563844 36.541783 
L 191.563844 35.199908 
L 191.816936 35.199908 
L 191.816936 33.858032 
L 445.2 33.858032 
L 445.2 33.858032 
" style="fill:none;stroke:#f5deb3;stroke-linecap:square;stroke-width:6.0;"/>
   </g>
   <g id="line2d_2"/>
   <g id="line2d_3">
    <path d="M 445.2 33.858032 
L 484.8 40.701597 
" style="fill:none;stroke:#f5deb3;stroke-linecap:square;stroke-width:6.0;"/>
    <defs>
     <path d="M -0 7.778175 
L 7.778175 0 
L 0 -7.778175 
L -7.778175 -0 
z
" id="mfe059a0d28" style="stroke:#f5deb3;stroke-linejoin:miter;stroke-width:1.5;"/>
    </defs>
    <g>
     <use style="fill:#f5deb3;stroke:#f5deb3;stroke-linejoin:miter;stroke-width:1.5;" x="445.2" xlink:href="#mfe059a0d28" y="33.8580321782"/>
     <use style="fill:#f5deb3;stroke:#f5deb3;stroke-linejoin:miter;stroke-width:1.5;" x="484.8" xlink:href="#mfe059a0d28" y="40.7015965347"/>
    </g>
   </g>
   <g id="line2d_4">
    <defs>
     <path d="M 0 1.5 
C 0.397805 1.5 0.77937 1.341951 1.06066 1.06066 
C 1.341951 0.77937 1.5 0.397805 1.5 0 
C 1.5 -0.397805 1.341951 -0.77937 1.06066 -1.06066 
C 0.77937 -1.341951 0.397805 -1.5 0 -1.5 
C -0.397805 -1.5 -0.77937 -1.341951 -1.06066 -1.06066 
C -1.341951 -0.77937 -1.5 -0.397805 -1.5 0 
C -1.5 0.397805 -1.341951 0.77937 -1.06066 1.06066 
C -0.77937 1.341951 -0.397805 1.5 0 1.5 
z
" id="mf5b55c73ee" style="stroke:#f5deb3;stroke-width:0.5;"/>
    </defs>
    <g>
     <use style="fill:#f5deb3;stroke:#f5deb3;stroke-width:0.5;" x="191.816936486" xlink:href="#mf5b55c73ee" y="33.8580321782"/>
     <use style="fill:#f5deb3;stroke:#f5deb3;stroke-width:0.5;" x="191.816936486" xlink:href="#mf5b55c73ee" y="33.8580321782"/>
    </g>
   </g>
   <g id="line2d_5">
    <g>
     <use style="fill:#f5deb3;stroke:#f5deb3;stroke-linejoin:miter;stroke-width:1.5;" x="160.91667867" xlink:href="#mfe059a0d28" y="274.724660017"/>
     <use style="fill:#f5deb3;stroke:#f5deb3;stroke-linejoin:miter;stroke-width:1.5;" x="174.431983698" xlink:href="#mfe059a0d28" y="124.434619249"/>
     <use style="fill:#f5deb3;stroke:#f5deb3;stroke-linejoin:miter;stroke-width:1.5;" x="191.816936486" xlink:href="#mfe059a0d28" y="35.1999075422"/>
     <use style="fill:#f5deb3;stroke:#f5deb3;stroke-linejoin:miter;stroke-width:1.5;" x="191.816936486" xlink:href="#mfe059a0d28" y="33.8580321782"/>
     <use style="fill:#f5deb3;stroke:#f5deb3;stroke-linejoin:miter;stroke-width:1.5;" x="191.816936486" xlink:href="#mfe059a0d28" y="33.8580321782"/>
     <use style="fill:#f5deb3;stroke:#f5deb3;stroke-linejoin:miter;stroke-width:1.5;" x="445.2" xlink:href="#mfe059a0d28" y="33.8580321782"/>
    </g>
   </g>
   <g id="line2d_6">
    <defs>
     <path d="M 0 1.5 
C 0.397805 1.5 0.77937 1.341951 1.06066 1.06066 
C 1.341951 0.77937 1.5 0.397805 1.5 0 
C 1.5 -0.397805 1.341951 -0.77937 1.06066 -1.06066 
C 0.77937 -1.341951 0.397805 -1.5 0 -1.5 
C -0.397805 -1.5 -0.77937 -1.341951 -1.06066 -1.06066 
C -1.341951 -0.77937 -1.5 -0.397805 -1.5 0 
C -1.5 0.397805 -1.341951 0.77937 -1.06066 1.06066 
C -0.77937 1.341951 -0.397805 1.5 0 1.5 
z
" id="m40241c4a60" style="stroke:#000080;stroke-width:0.5;"/>
    </defs>
    <g>
     <use style="fill:#000080;stroke:#000080;stroke-width:0.5;" x="369.685625618" xlink:href="#m40241c4a60" y="33.8580321782"/>
     <use style="fill:#000080;stroke:#000080;stroke-width:0.5;" x="369.685625618" xlink:href="#m40241c4a60" y="33.8580321782"/>
    </g>
   </g>
   <g id="line2d_7">
    <path d="M 107.106963 376.03625 
L 107.106963 374.694375 
L 114.219674 374.694375 
L 114.219674 372.681562 
L 123.942566 372.681562 
L 123.942566 371.339686 
L 125.219207 371.339686 
L 125.219207 370.668749 
L 129.701216 370.668749 
L 129.701216 369.997811 
L 130.694053 369.997811 
L 130.694053 368.655935 
L 137.360937 368.655935 
L 137.360937 367.31406 
L 139.424108 367.31406 
L 139.424108 365.301247 
L 143.605505 365.301247 
L 143.605505 360.604683 
L 147.126171 360.604683 
L 147.126171 356.579057 
L 148.48023 356.579057 
L 148.48023 355.90812 
L 150.166702 355.90812 
L 150.166702 355.237182 
L 150.569148 355.237182 
L 150.569148 354.566244 
L 150.964471 354.566244 
L 150.964471 352.553431 
L 153.89788 352.553431 
L 153.89788 351.211556 
L 155.231717 351.211556 
L 155.231717 349.198743 
L 156.490368 349.198743 
L 156.490368 348.527805 
L 156.794252 348.527805 
L 156.794252 347.18593 
L 157.389892 347.18593 
L 157.389892 345.844054 
L 157.681858 345.844054 
L 157.681858 344.502179 
L 157.970058 344.502179 
L 157.970058 342.489366 
L 159.35778 342.489366 
L 159.35778 341.818428 
L 159.889595 341.818428 
L 159.889595 339.805615 
L 160.664301 339.805615 
L 160.664301 339.134677 
L 161.166236 339.134677 
L 161.166236 337.792802 
L 161.898601 337.792802 
L 161.898601 337.121864 
L 162.137482 337.121864 
L 162.137482 335.779989 
L 162.839168 335.779989 
L 162.839168 335.109051 
L 163.068248 335.109051 
L 163.068248 334.438114 
L 163.295003 334.438114 
L 163.295003 333.767176 
L 167.404751 333.767176 
L 167.404751 333.096238 
L 168.14317 333.096238 
L 168.14317 332.425301 
L 170.874525 332.425301 
L 170.874525 331.754363 
L 171.663835 331.754363 
L 171.663835 330.412488 
L 172.275795 330.412488 
L 172.275795 328.399675 
L 173.307966 328.399675 
L 173.307966 327.728737 
L 175.371137 327.728737 
L 175.371137 327.057799 
L 175.63237 327.057799 
L 175.63237 325.044986 
L 176.018578 325.044986 
L 176.018578 324.374048 
L 176.398221 324.374048 
L 176.398221 323.703111 
L 176.894578 323.703111 
L 176.894578 323.032173 
L 177.855378 323.032173 
L 177.855378 321.01936 
L 179.112418 321.01936 
L 179.112418 319.677485 
L 181.4323 319.677485 
L 181.4323 318.335609 
L 181.730769 318.335609 
L 181.730769 317.664672 
L 182.69781 317.664672 
L 182.69781 316.993734 
L 186.113731 316.993734 
L 186.113731 316.322796 
L 186.832993 316.322796 
L 186.832993 315.651859 
L 189.146878 315.651859 
L 189.146878 314.980921 
L 192.253062 314.980921 
L 192.253062 313.639046 
L 194.704806 313.639046 
L 194.704806 311.626233 
L 195.678404 311.626233 
L 195.678404 310.955295 
L 196.913842 310.955295 
L 196.913842 309.613419 
L 220.409296 309.613419 
L 220.409296 308.942482 
L 221.946763 308.942482 
L 221.946763 307.600606 
L 224.80847 307.600606 
L 224.80847 306.929669 
L 225.47355 306.929669 
L 225.47355 305.587793 
L 228.32315 305.587793 
L 228.32315 304.245918 
L 228.506476 304.245918 
L 228.506476 303.57498 
L 234.714797 303.57498 
L 234.751638 302.233105 
L 236.030325 302.233105 
L 236.030325 301.562167 
L 236.966411 301.562167 
L 236.966411 300.89123 
L 238.782366 300.89123 
L 238.782366 300.220292 
L 240.660374 300.220292 
L 240.660374 299.549354 
L 243.663116 299.549354 
L 243.663116 298.878417 
L 244.964444 298.878417 
L 244.964444 298.207479 
L 247.671394 298.207479 
L 247.671394 297.536541 
L 249.446453 297.536541 
L 249.555811 294.181853 
L 252.576758 294.181853 
L 252.576758 293.510915 
L 254.436115 293.510915 
L 254.436115 292.839977 
L 254.896417 292.839977 
L 254.896417 291.498102 
L 257.048596 291.498102 
L 257.048596 290.827164 
L 257.438563 290.827164 
L 257.438563 290.156227 
L 259.135394 290.156227 
L 259.135394 289.485289 
L 259.657431 289.485289 
L 259.657431 288.814351 
L 260.884397 288.814351 
L 260.884397 287.472476 
L 262.244504 287.472476 
L 262.244504 286.130601 
L 263.776331 286.130601 
L 263.776331 285.459663 
L 264.426711 285.459663 
L 264.426711 284.788725 
L 269.783834 284.788725 
L 269.783834 284.117788 
L 270.201752 284.117788 
L 270.203634 282.104975 
L 270.929381 282.104975 
L 270.929381 281.434037 
L 272.337703 281.434037 
L 272.337703 280.763099 
L 274.500805 280.763099 
L 274.500805 279.421224 
L 274.620025 279.421224 
L 274.620025 278.750286 
L 275.042206 278.750286 
L 275.042206 278.079348 
L 275.699169 278.079348 
L 275.699169 277.408411 
L 276.591858 277.408411 
L 276.591858 276.066535 
L 277.295977 276.066535 
L 277.405296 273.382785 
L 279.665651 273.382785 
L 279.665651 272.040909 
L 280.711345 272.040909 
L 280.711345 270.699034 
L 281.322447 270.699034 
L 281.322447 269.357159 
L 281.90056 269.357159 
L 281.90056 268.686221 
L 282.941517 268.686221 
L 282.941517 268.015283 
L 283.160662 268.015283 
L 283.160662 267.344346 
L 283.305573 267.344346 
L 283.305573 266.673408 
L 283.56986 266.673408 
L 283.56986 266.00247 
L 283.902507 266.00247 
L 283.902507 265.331532 
L 285.131711 265.331532 
L 285.131711 263.989657 
L 285.54454 263.989657 
L 285.54454 263.318719 
L 285.710566 263.318719 
L 285.710566 262.647782 
L 286.365336 262.647782 
L 286.467324 260.634969 
L 287.235298 260.634969 
L 287.235298 259.293093 
L 287.434549 259.293093 
L 287.503175 256.609343 
L 288.237751 256.609343 
L 288.237751 254.59653 
L 289.36614 254.59653 
L 289.371725 252.583717 
L 290.609198 252.583717 
L 290.609198 251.912779 
L 291.586048 251.912779 
L 291.586048 251.241841 
L 291.98132 251.241841 
L 291.98132 250.570903 
L 292.411531 250.570903 
L 292.411531 249.229028 
L 293.552265 249.229028 
L 293.552265 248.55809 
L 294.206151 248.55809 
L 294.304234 247.216215 
L 294.334917 247.216215 
L 294.334917 245.87434 
L 294.807064 245.87434 
L 294.807064 245.203402 
L 295.166281 245.203402 
L 295.275562 243.190589 
L 295.464617 243.190589 
L 295.464617 242.519651 
L 295.935721 242.519651 
L 295.935721 241.848714 
L 296.161124 241.848714 
L 296.246313 239.835901 
L 297.301145 239.835901 
L 297.301145 239.164963 
L 297.668945 239.164963 
L 297.668945 238.494025 
L 297.866692 238.494025 
L 297.866692 235.810274 
L 298.646945 235.810274 
L 298.646945 235.139337 
L 299.006881 235.139337 
L 299.006881 234.468399 
L 299.177241 234.468399 
L 299.177241 233.126524 
L 299.52019 233.126524 
L 299.53639 231.784648 
L 300.427782 231.784648 
L 300.487514 230.442773 
L 301.206671 230.442773 
L 301.206671 229.771835 
L 301.362973 229.771835 
L 301.450937 228.42996 
L 301.553819 228.42996 
L 301.553819 225.746209 
L 301.672333 225.746209 
L 301.672333 224.404334 
L 301.861477 224.404334 
L 301.861477 223.062459 
L 302.308904 223.062459 
L 302.308904 222.391521 
L 302.667189 222.391521 
L 302.667189 221.720583 
L 303.371228 221.720583 
L 303.371228 221.049645 
L 303.668458 221.049645 
L 303.668458 220.378708 
L 304.111141 220.378708 
L 304.111141 219.70777 
L 305.106308 219.70777 
L 305.106308 218.365895 
L 305.310839 218.365895 
L 305.310839 217.694957 
L 305.633626 217.694957 
L 305.633626 216.353082 
L 305.747731 216.353082 
L 305.747731 215.011206 
L 305.876501 215.011206 
L 305.894021 213.669331 
L 306.010594 213.669331 
L 306.010594 210.98558 
L 306.137862 210.98558 
L 306.137862 210.314643 
L 306.77087 210.314643 
L 306.77087 209.643705 
L 307.25679 209.643705 
L 307.261446 208.301829 
L 307.498323 208.301829 
L 307.498323 207.630892 
L 307.693058 207.630892 
L 307.693058 206.959954 
L 307.851261 206.959954 
L 307.851261 205.618079 
L 307.976813 205.618079 
L 307.976813 204.947141 
L 308.533054 204.947141 
L 308.533054 204.276203 
L 309.597887 204.276203 
L 309.597887 203.605266 
L 309.965438 203.605266 
L 309.965438 202.934328 
L 310.525013 202.934328 
L 310.525013 202.26339 
L 310.746691 202.26339 
L 310.746691 200.921515 
L 310.867987 200.921515 
L 310.867987 200.250577 
L 311.300416 200.250577 
L 311.307289 198.237764 
L 311.612331 198.237764 
L 311.612331 197.566827 
L 311.857366 197.566827 
L 311.857366 196.895889 
L 312.006118 196.895889 
L 312.006118 196.224951 
L 313.016662 196.224951 
L 313.016662 194.883076 
L 313.200775 194.883076 
L 313.200775 194.212138 
L 313.460025 194.212138 
L 313.460025 193.5412 
L 313.759443 193.5412 
L 313.775232 192.199325 
L 313.947648 192.199325 
L 313.947648 191.528387 
L 314.390265 191.528387 
L 314.390265 188.844637 
L 314.505259 188.844637 
L 314.587184 186.160886 
L 314.93402 186.160886 
L 315.017427 184.819011 
L 315.511184 184.819011 
L 315.534191 181.464322 
L 315.948921 181.464322 
L 315.948921 180.793385 
L 316.147059 180.793385 
L 316.147059 180.122447 
L 316.474698 180.122447 
L 316.474698 179.451509 
L 317.230551 179.451509 
L 317.230551 178.109634 
L 317.527862 178.109634 
L 317.541879 176.767758 
L 317.737414 176.767758 
L 317.837555 175.425883 
L 317.850041 175.425883 
L 317.850041 174.754945 
L 318.363242 174.754945 
L 318.42133 172.742132 
L 318.570964 172.742132 
L 318.570964 172.071195 
L 318.729676 172.071195 
L 318.729676 171.400257 
L 319.00315 171.400257 
L 319.00315 170.729319 
L 319.155258 170.729319 
L 319.155258 170.058382 
L 319.741661 170.058382 
L 319.845867 168.716506 
L 319.965004 168.716506 
L 319.986284 167.374631 
L 320.306472 167.374631 
L 320.389985 165.361818 
L 320.579567 165.361818 
L 320.579567 164.019942 
L 320.775767 164.019942 
L 320.775767 162.007129 
L 321.304257 162.007129 
L 321.342417 159.323379 
L 321.713539 159.323379 
L 321.713539 158.652441 
L 321.824822 158.652441 
L 321.889652 156.639628 
L 321.95856 156.639628 
L 321.95856 155.96869 
L 322.073983 155.96869 
L 322.073983 155.297753 
L 322.229523 155.297753 
L 322.229523 153.955877 
L 322.533415 153.955877 
L 322.577652 152.614002 
L 322.738512 152.614002 
L 322.835902 149.930251 
L 322.85034 149.930251 
L 322.91493 148.588376 
L 323.537289 148.588376 
L 323.616289 146.575563 
L 323.726217 146.575563 
L 323.833901 145.233687 
L 323.986332 145.233687 
L 323.986332 144.56275 
L 324.185954 144.56275 
L 324.185954 143.220874 
L 324.378817 143.220874 
L 324.378817 142.549937 
L 324.497812 142.549937 
L 324.58075 140.537124 
L 324.955881 140.537124 
L 325.039561 138.524311 
L 325.298961 138.524311 
L 325.327686 136.511498 
L 325.694972 136.511498 
L 325.715985 134.498684 
L 326.071285 134.498684 
L 326.071285 133.827747 
L 326.217355 133.827747 
L 326.217355 133.156809 
L 326.648417 133.156809 
L 326.70037 131.143996 
L 326.886167 131.143996 
L 326.925102 129.802121 
L 327.032045 129.802121 
L 327.076921 127.11837 
L 327.476365 127.11837 
L 327.476365 126.447432 
L 327.628812 126.447432 
L 327.628812 125.776495 
L 327.869929 125.776495 
L 327.869929 125.105557 
L 327.988173 125.105557 
L 327.988173 124.434619 
L 328.52379 124.434619 
L 328.52379 123.763682 
L 328.66749 123.763682 
L 328.751654 121.079931 
L 328.7831 121.079931 
L 328.7831 120.408993 
L 329.179329 120.408993 
L 329.193686 117.054305 
L 329.308213 117.054305 
L 329.308213 115.712429 
L 329.419366 115.712429 
L 329.457974 113.699616 
L 329.542783 113.699616 
L 329.542783 112.357741 
L 329.750986 112.357741 
L 329.750986 111.686803 
L 330.102237 111.686803 
L 330.141355 109.67399 
L 330.436507 109.67399 
L 330.522237 107.661177 
L 330.689832 107.661177 
L 330.735323 104.306489 
L 330.853938 104.306489 
L 330.853938 103.635551 
L 330.99087 103.635551 
L 330.99087 101.622738 
L 331.882393 101.622738 
L 331.882393 100.280863 
L 332.000764 100.280863 
L 332.07823 97.597112 
L 332.27143 97.597112 
L 332.27143 96.926174 
L 332.496898 96.926174 
L 332.572205 94.913361 
L 332.743697 94.913361 
L 332.743697 94.242424 
L 333.002167 94.242424 
L 333.002167 93.571486 
L 333.138497 93.571486 
L 333.239894 92.229611 
L 333.437656 92.229611 
L 333.485081 89.54586 
L 333.885049 89.54586 
L 333.885049 87.533047 
L 334.080977 87.533047 
L 334.174759 85.520234 
L 334.23799 85.520234 
L 334.27659 82.836483 
L 334.580488 82.836483 
L 334.580488 82.165545 
L 334.893819 82.165545 
L 334.893819 81.494608 
L 335.056797 81.494608 
L 335.056797 80.82367 
L 335.426768 80.82367 
L 335.426768 79.481795 
L 335.663361 79.481795 
L 335.663361 78.810857 
L 336.284082 78.810857 
L 336.330321 77.468982 
L 336.47931 77.468982 
L 336.496824 76.127106 
L 337.126916 76.127106 
L 337.126916 75.456168 
L 337.40066 75.456168 
L 337.499554 72.772418 
L 338.232319 72.772418 
L 338.232319 72.10148 
L 339.06561 72.10148 
L 339.06561 71.430542 
L 340.017971 71.430542 
L 340.017971 70.759605 
L 340.372627 70.759605 
L 340.372627 69.417729 
L 340.726943 69.417729 
L 340.836484 68.075854 
L 340.883664 68.075854 
L 340.883664 67.404916 
L 341.248643 67.404916 
L 341.248643 66.063041 
L 342.409762 66.063041 
L 342.409762 65.392103 
L 342.652353 65.392103 
L 342.652353 64.721166 
L 342.917601 64.721166 
L 343.027114 63.37929 
L 343.11316 63.37929 
L 343.155915 62.037415 
L 343.489174 62.037415 
L 343.489174 61.366477 
L 343.698879 61.366477 
L 343.786986 60.024602 
L 344.033443 60.024602 
L 344.033443 59.353664 
L 344.905224 59.353664 
L 344.905224 58.682726 
L 345.296218 58.682726 
L 345.296218 58.011789 
L 345.821797 58.011789 
L 345.821797 57.340851 
L 346.057305 57.340851 
L 346.057305 56.669913 
L 347.663917 56.669913 
L 347.663917 55.998976 
L 348.221806 55.998976 
L 348.221806 55.328038 
L 348.482579 55.328038 
L 348.539346 53.986163 
L 348.909103 53.986163 
L 348.909103 53.315225 
L 349.113522 53.315225 
L 349.113522 52.644287 
L 349.333841 52.644287 
L 349.42208 50.631474 
L 349.634612 50.631474 
L 349.695761 49.289599 
L 350.140356 49.289599 
L 350.140356 48.618661 
L 350.434727 48.618661 
L 350.434727 47.947724 
L 350.592437 47.947724 
L 350.592437 46.605848 
L 350.899379 46.605848 
L 350.899379 45.93491 
L 351.138728 45.93491 
L 351.186382 44.593035 
L 352.017409 44.593035 
L 352.017409 43.922097 
L 352.244749 43.922097 
L 352.244749 43.25116 
L 352.467953 43.25116 
L 352.539142 41.909284 
L 352.759017 41.909284 
L 352.766348 40.567409 
L 352.965924 40.567409 
L 352.965924 39.896471 
L 353.40023 39.896471 
L 353.40023 39.225534 
L 353.831771 39.225534 
L 353.831771 38.554596 
L 354.29179 38.554596 
L 354.29179 37.883658 
L 358.842797 37.883658 
L 358.842797 37.212721 
L 360.162371 37.212721 
L 360.162371 36.541783 
L 361.031199 36.541783 
L 361.031199 35.870845 
L 362.040917 35.870845 
L 362.040917 35.199908 
L 365.273517 35.199908 
L 365.273517 34.52897 
L 369.685626 34.52897 
L 369.685626 33.858032 
L 445.2 33.858032 
L 445.2 33.858032 
" style="fill:none;stroke:#000080;stroke-linecap:square;stroke-width:1.5;"/>
   </g>
   <g id="line2d_8">
    <defs>
     <path d="M 0 6 
C 1.591219 6 3.117479 5.367802 4.242641 4.242641 
C 5.367802 3.117479 6 1.591219 6 0 
C 6 -1.591219 5.367802 -3.117479 4.242641 -4.242641 
C 3.117479 -5.367802 1.591219 -6 0 -6 
C -1.591219 -6 -3.117479 -5.367802 -4.242641 -4.242641 
C -5.367802 -3.117479 -6 -1.591219 -6 0 
C -6 1.591219 -5.367802 3.117479 -4.242641 4.242641 
C -3.117479 5.367802 -1.591219 6 0 6 
z
" id="m3926630f08" style="stroke:#000080;stroke-width:1.5;"/>
    </defs>
    <g>
     <use style="fill:none;stroke:#000080;stroke-width:1.5;" x="264.426711041" xlink:href="#m3926630f08" y="284.788725248"/>
     <use style="fill:none;stroke:#000080;stroke-width:1.5;" x="327.476365051" xlink:href="#m3926630f08" y="127.118369977"/>
     <use style="fill:none;stroke:#000080;stroke-width:1.5;" x="369.685625618" xlink:href="#m3926630f08" y="34.5289698602"/>
     <use style="fill:none;stroke:#000080;stroke-width:1.5;" x="369.685625618" xlink:href="#m3926630f08" y="33.8580321782"/>
     <use style="fill:none;stroke:#000080;stroke-width:1.5;" x="445.2" xlink:href="#m3926630f08" y="33.8580321782"/>
    </g>
   </g>
   <g id="line2d_9"/>
   <g id="line2d_10">
    <path clip-path="url(#p4a1578bf15)" d="M 342.342857 66.063041 
" style="fill:none;stroke:#000080;stroke-linecap:square;"/>
    <defs>
     <path d="M -12 12 
L 12 -12 
M -12 -12 
L 12 12 
" id="m66b1f25253" style="stroke:#000080;stroke-width:3.0;"/>
    </defs>
    <g clip-path="url(#p4a1578bf15)">
     <use style="fill:#000080;stroke:#000080;stroke-width:3.0;" x="342.342857143" xlink:href="#m66b1f25253" y="66.0630409144"/>
    </g>
   </g>
   <g id="line2d_11">
    <path d="M 445.2 33.858032 
L 484.8 369.192686 
" style="fill:none;stroke:#000080;stroke-linecap:square;stroke-width:1.5;"/>
    <g>
     <use style="fill:none;stroke:#000080;stroke-width:1.5;" x="445.2" xlink:href="#m3926630f08" y="33.8580321782"/>
     <use style="fill:none;stroke:#000080;stroke-width:1.5;" x="484.8" xlink:href="#m3926630f08" y="369.192685644"/>
    </g>
   </g>
   <g id="line2d_12">
    <path d="M 445.2 376.03625 
L 445.2 33.858032 
" style="fill:none;stroke:#000000;stroke-linecap:square;"/>
   </g>
   <g id="patch_3">
    <path d="M 85.2 30.43625 
L 531.6 30.43625 
" style="fill:none;stroke:#000000;stroke-linecap:square;stroke-linejoin:miter;"/>
   </g>
   <g id="patch_4">
    <path d="M 531.6 376.03625 
L 531.6 30.43625 
" style="fill:none;stroke:#000000;stroke-linecap:square;stroke-linejoin:miter;"/>
   </g>
   <g id="patch_5">
    <path d="M 85.2 376.03625 
L 531.6 376.03625 
" style="fill:none;stroke:#000000;stroke-linecap:square;stroke-linejoin:miter;"/>
   </g>
   <g id="patch_6">
    <path d="M 85.2 376.03625 
L 85.2 30.43625 
" style="fill:none;stroke:#000000;stroke-linecap:square;stroke-linejoin:miter;"/>
   </g>
   <g id="matplotlib.axis_1">
    <g id="xtick_1">
     <g id="line2d_13">
      <path clip-path="url(#p4a1578bf15)" d="M 85.2 376.03625 
L 85.2 30.43625 
" style="fill:none;stroke:#000000;stroke-dasharray:1.000000,3.000000;stroke-dashoffset:0.0;stroke-width:0.5;"/>
     </g>
     <g id="line2d_14">
      <defs>
       <path d="M 0 0 
L 0 -4 
" id="mc0f55287cf" style="stroke:#000000;stroke-width:0.5;"/>
      </defs>
      <g>
       <use style="stroke:#000000;stroke-width:0.5;" x="85.2" xlink:href="#mc0f55287cf" y="376.03625"/>
      </g>
     </g>
     <g id="line2d_15">
      <defs>
       <path d="M 0 0 
L 0 4 
" id="m9bd8e94154" style="stroke:#000000;stroke-width:0.5;"/>
      </defs>
      <g>
       <use style="stroke:#000000;stroke-width:0.5;" x="85.2" xlink:href="#m9bd8e94154" y="30.43625"/>
      </g>
     </g>
     <g id="text_1">
      <!-- 0 -->
      <defs>
       <path d="M 31.78125 66.40625 
Q 24.171875 66.40625 20.328125 58.90625 
Q 16.5 51.421875 16.5 36.375 
Q 16.5 21.390625 20.328125 13.890625 
Q 24.171875 6.390625 31.78125 6.390625 
Q 39.453125 6.390625 43.28125 13.890625 
Q 47.125 21.390625 47.125 36.375 
Q 47.125 51.421875 43.28125 58.90625 
Q 39.453125 66.40625 31.78125 66.40625 
M 31.78125 74.21875 
Q 44.046875 74.21875 50.515625 64.515625 
Q 56.984375 54.828125 56.984375 36.375 
Q 56.984375 17.96875 50.515625 8.265625 
Q 44.046875 -1.421875 31.78125 -1.421875 
Q 19.53125 -1.421875 13.0625 8.265625 
Q 6.59375 17.96875 6.59375 36.375 
Q 6.59375 54.828125 13.0625 64.515625 
Q 19.53125 74.21875 31.78125 74.21875 
" id="BitstreamVeraSans-Roman-30"/>
      </defs>
      <g transform="translate(78.8375 395.233125)scale(0.2 -0.2)">
       <use xlink:href="#BitstreamVeraSans-Roman-30"/>
      </g>
     </g>
    </g>
    <g id="xtick_2">
     <g id="line2d_16">
      <path clip-path="url(#p4a1578bf15)" d="M 136.628571 376.03625 
L 136.628571 30.43625 
" style="fill:none;stroke:#000000;stroke-dasharray:1.000000,3.000000;stroke-dashoffset:0.0;stroke-width:0.5;"/>
     </g>
     <g id="line2d_17">
      <g>
       <use style="stroke:#000000;stroke-width:0.5;" x="136.628571429" xlink:href="#mc0f55287cf" y="376.03625"/>
      </g>
     </g>
     <g id="line2d_18">
      <g>
       <use style="stroke:#000000;stroke-width:0.5;" x="136.628571429" xlink:href="#m9bd8e94154" y="30.43625"/>
      </g>
     </g>
     <g id="text_2">
      <!-- 1 -->
      <defs>
       <path d="M 12.40625 8.296875 
L 28.515625 8.296875 
L 28.515625 63.921875 
L 10.984375 60.40625 
L 10.984375 69.390625 
L 28.421875 72.90625 
L 38.28125 72.90625 
L 38.28125 8.296875 
L 54.390625 8.296875 
L 54.390625 0 
L 12.40625 0 
z
" id="BitstreamVeraSans-Roman-31"/>
      </defs>
      <g transform="translate(130.266071429 395.233125)scale(0.2 -0.2)">
       <use xlink:href="#BitstreamVeraSans-Roman-31"/>
      </g>
     </g>
    </g>
    <g id="xtick_3">
     <g id="line2d_19">
      <path clip-path="url(#p4a1578bf15)" d="M 188.057143 376.03625 
L 188.057143 30.43625 
" style="fill:none;stroke:#000000;stroke-dasharray:1.000000,3.000000;stroke-dashoffset:0.0;stroke-width:0.5;"/>
     </g>
     <g id="line2d_20">
      <g>
       <use style="stroke:#000000;stroke-width:0.5;" x="188.057142857" xlink:href="#mc0f55287cf" y="376.03625"/>
      </g>
     </g>
     <g id="line2d_21">
      <g>
       <use style="stroke:#000000;stroke-width:0.5;" x="188.057142857" xlink:href="#m9bd8e94154" y="30.43625"/>
      </g>
     </g>
     <g id="text_3">
      <!-- 2 -->
      <defs>
       <path d="M 19.1875 8.296875 
L 53.609375 8.296875 
L 53.609375 0 
L 7.328125 0 
L 7.328125 8.296875 
Q 12.9375 14.109375 22.625 23.890625 
Q 32.328125 33.6875 34.8125 36.53125 
Q 39.546875 41.84375 41.421875 45.53125 
Q 43.3125 49.21875 43.3125 52.78125 
Q 43.3125 58.59375 39.234375 62.25 
Q 35.15625 65.921875 28.609375 65.921875 
Q 23.96875 65.921875 18.8125 64.3125 
Q 13.671875 62.703125 7.8125 59.421875 
L 7.8125 69.390625 
Q 13.765625 71.78125 18.9375 73 
Q 24.125 74.21875 28.421875 74.21875 
Q 39.75 74.21875 46.484375 68.546875 
Q 53.21875 62.890625 53.21875 53.421875 
Q 53.21875 48.921875 51.53125 44.890625 
Q 49.859375 40.875 45.40625 35.40625 
Q 44.1875 33.984375 37.640625 27.21875 
Q 31.109375 20.453125 19.1875 8.296875 
" id="BitstreamVeraSans-Roman-32"/>
      </defs>
      <g transform="translate(181.694642857 395.233125)scale(0.2 -0.2)">
       <use xlink:href="#BitstreamVeraSans-Roman-32"/>
      </g>
     </g>
    </g>
    <g id="xtick_4">
     <g id="line2d_22">
      <path clip-path="url(#p4a1578bf15)" d="M 239.485714 376.03625 
L 239.485714 30.43625 
" style="fill:none;stroke:#000000;stroke-dasharray:1.000000,3.000000;stroke-dashoffset:0.0;stroke-width:0.5;"/>
     </g>
     <g id="line2d_23">
      <g>
       <use style="stroke:#000000;stroke-width:0.5;" x="239.485714286" xlink:href="#mc0f55287cf" y="376.03625"/>
      </g>
     </g>
     <g id="line2d_24">
      <g>
       <use style="stroke:#000000;stroke-width:0.5;" x="239.485714286" xlink:href="#m9bd8e94154" y="30.43625"/>
      </g>
     </g>
     <g id="text_4">
      <!-- 3 -->
      <defs>
       <path d="M 40.578125 39.3125 
Q 47.65625 37.796875 51.625 33 
Q 55.609375 28.21875 55.609375 21.1875 
Q 55.609375 10.40625 48.1875 4.484375 
Q 40.765625 -1.421875 27.09375 -1.421875 
Q 22.515625 -1.421875 17.65625 -0.515625 
Q 12.796875 0.390625 7.625 2.203125 
L 7.625 11.71875 
Q 11.71875 9.328125 16.59375 8.109375 
Q 21.484375 6.890625 26.8125 6.890625 
Q 36.078125 6.890625 40.9375 10.546875 
Q 45.796875 14.203125 45.796875 21.1875 
Q 45.796875 27.640625 41.28125 31.265625 
Q 36.765625 34.90625 28.71875 34.90625 
L 20.21875 34.90625 
L 20.21875 43.015625 
L 29.109375 43.015625 
Q 36.375 43.015625 40.234375 45.921875 
Q 44.09375 48.828125 44.09375 54.296875 
Q 44.09375 59.90625 40.109375 62.90625 
Q 36.140625 65.921875 28.71875 65.921875 
Q 24.65625 65.921875 20.015625 65.03125 
Q 15.375 64.15625 9.8125 62.3125 
L 9.8125 71.09375 
Q 15.4375 72.65625 20.34375 73.4375 
Q 25.25 74.21875 29.59375 74.21875 
Q 40.828125 74.21875 47.359375 69.109375 
Q 53.90625 64.015625 53.90625 55.328125 
Q 53.90625 49.265625 50.4375 45.09375 
Q 46.96875 40.921875 40.578125 39.3125 
" id="BitstreamVeraSans-Roman-33"/>
      </defs>
      <g transform="translate(233.123214286 395.233125)scale(0.2 -0.2)">
       <use xlink:href="#BitstreamVeraSans-Roman-33"/>
      </g>
     </g>
    </g>
    <g id="xtick_5">
     <g id="line2d_25">
      <path clip-path="url(#p4a1578bf15)" d="M 290.914286 376.03625 
L 290.914286 30.43625 
" style="fill:none;stroke:#000000;stroke-dasharray:1.000000,3.000000;stroke-dashoffset:0.0;stroke-width:0.5;"/>
     </g>
     <g id="line2d_26">
      <g>
       <use style="stroke:#000000;stroke-width:0.5;" x="290.914285714" xlink:href="#mc0f55287cf" y="376.03625"/>
      </g>
     </g>
     <g id="line2d_27">
      <g>
       <use style="stroke:#000000;stroke-width:0.5;" x="290.914285714" xlink:href="#m9bd8e94154" y="30.43625"/>
      </g>
     </g>
     <g id="text_5">
      <!-- 4 -->
      <defs>
       <path d="M 37.796875 64.3125 
L 12.890625 25.390625 
L 37.796875 25.390625 
z
M 35.203125 72.90625 
L 47.609375 72.90625 
L 47.609375 25.390625 
L 58.015625 25.390625 
L 58.015625 17.1875 
L 47.609375 17.1875 
L 47.609375 0 
L 37.796875 0 
L 37.796875 17.1875 
L 4.890625 17.1875 
L 4.890625 26.703125 
z
" id="BitstreamVeraSans-Roman-34"/>
      </defs>
      <g transform="translate(284.551785714 395.233125)scale(0.2 -0.2)">
       <use xlink:href="#BitstreamVeraSans-Roman-34"/>
      </g>
     </g>
    </g>
    <g id="xtick_6">
     <g id="line2d_28">
      <path clip-path="url(#p4a1578bf15)" d="M 342.342857 376.03625 
L 342.342857 30.43625 
" style="fill:none;stroke:#000000;stroke-dasharray:1.000000,3.000000;stroke-dashoffset:0.0;stroke-width:0.5;"/>
     </g>
     <g id="line2d_29">
      <g>
       <use style="stroke:#000000;stroke-width:0.5;" x="342.342857143" xlink:href="#mc0f55287cf" y="376.03625"/>
      </g>
     </g>
     <g id="line2d_30">
      <g>
       <use style="stroke:#000000;stroke-width:0.5;" x="342.342857143" xlink:href="#m9bd8e94154" y="30.43625"/>
      </g>
     </g>
     <g id="text_6">
      <!-- 5 -->
      <defs>
       <path d="M 10.796875 72.90625 
L 49.515625 72.90625 
L 49.515625 64.59375 
L 19.828125 64.59375 
L 19.828125 46.734375 
Q 21.96875 47.46875 24.109375 47.828125 
Q 26.265625 48.1875 28.421875 48.1875 
Q 40.625 48.1875 47.75 41.5 
Q 54.890625 34.8125 54.890625 23.390625 
Q 54.890625 11.625 47.5625 5.09375 
Q 40.234375 -1.421875 26.90625 -1.421875 
Q 22.3125 -1.421875 17.546875 -0.640625 
Q 12.796875 0.140625 7.71875 1.703125 
L 7.71875 11.625 
Q 12.109375 9.234375 16.796875 8.0625 
Q 21.484375 6.890625 26.703125 6.890625 
Q 35.15625 6.890625 40.078125 11.328125 
Q 45.015625 15.765625 45.015625 23.390625 
Q 45.015625 31 40.078125 35.4375 
Q 35.15625 39.890625 26.703125 39.890625 
Q 22.75 39.890625 18.8125 39.015625 
Q 14.890625 38.140625 10.796875 36.28125 
z
" id="BitstreamVeraSans-Roman-35"/>
      </defs>
      <g transform="translate(335.980357143 395.233125)scale(0.2 -0.2)">
       <use xlink:href="#BitstreamVeraSans-Roman-35"/>
      </g>
     </g>
    </g>
    <g id="xtick_7">
     <g id="line2d_31">
      <path clip-path="url(#p4a1578bf15)" d="M 393.771429 376.03625 
L 393.771429 30.43625 
" style="fill:none;stroke:#000000;stroke-dasharray:1.000000,3.000000;stroke-dashoffset:0.0;stroke-width:0.5;"/>
     </g>
     <g id="line2d_32">
      <g>
       <use style="stroke:#000000;stroke-width:0.5;" x="393.771428571" xlink:href="#mc0f55287cf" y="376.03625"/>
      </g>
     </g>
     <g id="line2d_33">
      <g>
       <use style="stroke:#000000;stroke-width:0.5;" x="393.771428571" xlink:href="#m9bd8e94154" y="30.43625"/>
      </g>
     </g>
     <g id="text_7">
      <!-- 6 -->
      <defs>
       <path d="M 33.015625 40.375 
Q 26.375 40.375 22.484375 35.828125 
Q 18.609375 31.296875 18.609375 23.390625 
Q 18.609375 15.53125 22.484375 10.953125 
Q 26.375 6.390625 33.015625 6.390625 
Q 39.65625 6.390625 43.53125 10.953125 
Q 47.40625 15.53125 47.40625 23.390625 
Q 47.40625 31.296875 43.53125 35.828125 
Q 39.65625 40.375 33.015625 40.375 
M 52.59375 71.296875 
L 52.59375 62.3125 
Q 48.875 64.0625 45.09375 64.984375 
Q 41.3125 65.921875 37.59375 65.921875 
Q 27.828125 65.921875 22.671875 59.328125 
Q 17.53125 52.734375 16.796875 39.40625 
Q 19.671875 43.65625 24.015625 45.921875 
Q 28.375 48.1875 33.59375 48.1875 
Q 44.578125 48.1875 50.953125 41.515625 
Q 57.328125 34.859375 57.328125 23.390625 
Q 57.328125 12.15625 50.6875 5.359375 
Q 44.046875 -1.421875 33.015625 -1.421875 
Q 20.359375 -1.421875 13.671875 8.265625 
Q 6.984375 17.96875 6.984375 36.375 
Q 6.984375 53.65625 15.1875 63.9375 
Q 23.390625 74.21875 37.203125 74.21875 
Q 40.921875 74.21875 44.703125 73.484375 
Q 48.484375 72.75 52.59375 71.296875 
" id="BitstreamVeraSans-Roman-36"/>
      </defs>
      <g transform="translate(387.408928571 395.233125)scale(0.2 -0.2)">
       <use xlink:href="#BitstreamVeraSans-Roman-36"/>
      </g>
     </g>
    </g>
    <g id="xtick_8">
     <g id="line2d_34">
      <path clip-path="url(#p4a1578bf15)" d="M 445.2 376.03625 
L 445.2 30.43625 
" style="fill:none;stroke:#000000;stroke-dasharray:1.000000,3.000000;stroke-dashoffset:0.0;stroke-width:0.5;"/>
     </g>
     <g id="line2d_35">
      <g>
       <use style="stroke:#000000;stroke-width:0.5;" x="445.2" xlink:href="#mc0f55287cf" y="376.03625"/>
      </g>
     </g>
     <g id="line2d_36">
      <g>
       <use style="stroke:#000000;stroke-width:0.5;" x="445.2" xlink:href="#m9bd8e94154" y="30.43625"/>
      </g>
     </g>
     <g id="text_8">
      <!-- 7 -->
      <defs>
       <path d="M 8.203125 72.90625 
L 55.078125 72.90625 
L 55.078125 68.703125 
L 28.609375 0 
L 18.3125 0 
L 43.21875 64.59375 
L 8.203125 64.59375 
z
" id="BitstreamVeraSans-Roman-37"/>
      </defs>
      <g transform="translate(438.8375 395.233125)scale(0.2 -0.2)">
       <use xlink:href="#BitstreamVeraSans-Roman-37"/>
      </g>
     </g>
    </g>
    <g id="xtick_9">
     <g id="line2d_37">
      <path clip-path="url(#p4a1578bf15)" d="M 496.628571 376.03625 
L 496.628571 30.43625 
" style="fill:none;stroke:#000000;stroke-dasharray:1.000000,3.000000;stroke-dashoffset:0.0;stroke-width:0.5;"/>
     </g>
     <g id="line2d_38">
      <g>
       <use style="stroke:#000000;stroke-width:0.5;" x="496.628571429" xlink:href="#mc0f55287cf" y="376.03625"/>
      </g>
     </g>
     <g id="line2d_39">
      <g>
       <use style="stroke:#000000;stroke-width:0.5;" x="496.628571429" xlink:href="#m9bd8e94154" y="30.43625"/>
      </g>
     </g>
     <g id="text_9">
      <!-- 8 -->
      <defs>
       <path d="M 31.78125 34.625 
Q 24.75 34.625 20.71875 30.859375 
Q 16.703125 27.09375 16.703125 20.515625 
Q 16.703125 13.921875 20.71875 10.15625 
Q 24.75 6.390625 31.78125 6.390625 
Q 38.8125 6.390625 42.859375 10.171875 
Q 46.921875 13.96875 46.921875 20.515625 
Q 46.921875 27.09375 42.890625 30.859375 
Q 38.875 34.625 31.78125 34.625 
M 21.921875 38.8125 
Q 15.578125 40.375 12.03125 44.71875 
Q 8.5 49.078125 8.5 55.328125 
Q 8.5 64.0625 14.71875 69.140625 
Q 20.953125 74.21875 31.78125 74.21875 
Q 42.671875 74.21875 48.875 69.140625 
Q 55.078125 64.0625 55.078125 55.328125 
Q 55.078125 49.078125 51.53125 44.71875 
Q 48 40.375 41.703125 38.8125 
Q 48.828125 37.15625 52.796875 32.3125 
Q 56.78125 27.484375 56.78125 20.515625 
Q 56.78125 9.90625 50.3125 4.234375 
Q 43.84375 -1.421875 31.78125 -1.421875 
Q 19.734375 -1.421875 13.25 4.234375 
Q 6.78125 9.90625 6.78125 20.515625 
Q 6.78125 27.484375 10.78125 32.3125 
Q 14.796875 37.15625 21.921875 38.8125 
M 18.3125 54.390625 
Q 18.3125 48.734375 21.84375 45.5625 
Q 25.390625 42.390625 31.78125 42.390625 
Q 38.140625 42.390625 41.71875 45.5625 
Q 45.3125 48.734375 45.3125 54.390625 
Q 45.3125 60.0625 41.71875 63.234375 
Q 38.140625 66.40625 31.78125 66.40625 
Q 25.390625 66.40625 21.84375 63.234375 
Q 18.3125 60.0625 18.3125 54.390625 
" id="BitstreamVeraSans-Roman-38"/>
      </defs>
      <g transform="translate(490.266071429 395.233125)scale(0.2 -0.2)">
       <use xlink:href="#BitstreamVeraSans-Roman-38"/>
      </g>
     </g>
    </g>
    <g id="xtick_10">
     <g id="line2d_40">
      <defs>
       <path d="M 0 0 
L 0 -2 
" id="me3e6d0a3e5" style="stroke:#000000;stroke-width:0.5;"/>
      </defs>
      <g>
       <use style="stroke:#000000;stroke-width:0.5;" x="100.681542634" xlink:href="#me3e6d0a3e5" y="376.03625"/>
      </g>
     </g>
     <g id="line2d_41">
      <defs>
       <path d="M 0 0 
L 0 2 
" id="m5b146080c3" style="stroke:#000000;stroke-width:0.5;"/>
      </defs>
      <g>
       <use style="stroke:#000000;stroke-width:0.5;" x="100.681542634" xlink:href="#m5b146080c3" y="30.43625"/>
      </g>
     </g>
    </g>
    <g id="xtick_11">
     <g id="line2d_42">
      <g>
       <use style="stroke:#000000;stroke-width:0.5;" x="116.163085268" xlink:href="#me3e6d0a3e5" y="376.03625"/>
      </g>
     </g>
     <g id="line2d_43">
      <g>
       <use style="stroke:#000000;stroke-width:0.5;" x="116.163085268" xlink:href="#m5b146080c3" y="30.43625"/>
      </g>
     </g>
    </g>
    <g id="xtick_12">
     <g id="line2d_44">
      <g>
       <use style="stroke:#000000;stroke-width:0.5;" x="125.219207163" xlink:href="#me3e6d0a3e5" y="376.03625"/>
      </g>
     </g>
     <g id="line2d_45">
      <g>
       <use style="stroke:#000000;stroke-width:0.5;" x="125.219207163" xlink:href="#m5b146080c3" y="30.43625"/>
      </g>
     </g>
    </g>
    <g id="xtick_13">
     <g id="line2d_46">
      <g>
       <use style="stroke:#000000;stroke-width:0.5;" x="131.644627902" xlink:href="#me3e6d0a3e5" y="376.03625"/>
      </g>
     </g>
     <g id="line2d_47">
      <g>
       <use style="stroke:#000000;stroke-width:0.5;" x="131.644627902" xlink:href="#m5b146080c3" y="30.43625"/>
      </g>
     </g>
    </g>
    <g id="xtick_14">
     <g id="line2d_48">
      <g>
       <use style="stroke:#000000;stroke-width:0.5;" x="152.110114063" xlink:href="#me3e6d0a3e5" y="376.03625"/>
      </g>
     </g>
     <g id="line2d_49">
      <g>
       <use style="stroke:#000000;stroke-width:0.5;" x="152.110114063" xlink:href="#m5b146080c3" y="30.43625"/>
      </g>
     </g>
    </g>
    <g id="xtick_15">
     <g id="line2d_50">
      <g>
       <use style="stroke:#000000;stroke-width:0.5;" x="167.591656697" xlink:href="#me3e6d0a3e5" y="376.03625"/>
      </g>
     </g>
     <g id="line2d_51">
      <g>
       <use style="stroke:#000000;stroke-width:0.5;" x="167.591656697" xlink:href="#m5b146080c3" y="30.43625"/>
      </g>
     </g>
    </g>
    <g id="xtick_16">
     <g id="line2d_52">
      <g>
       <use style="stroke:#000000;stroke-width:0.5;" x="176.647778591" xlink:href="#me3e6d0a3e5" y="376.03625"/>
      </g>
     </g>
     <g id="line2d_53">
      <g>
       <use style="stroke:#000000;stroke-width:0.5;" x="176.647778591" xlink:href="#m5b146080c3" y="30.43625"/>
      </g>
     </g>
    </g>
    <g id="xtick_17">
     <g id="line2d_54">
      <g>
       <use style="stroke:#000000;stroke-width:0.5;" x="183.073199331" xlink:href="#me3e6d0a3e5" y="376.03625"/>
      </g>
     </g>
     <g id="line2d_55">
      <g>
       <use style="stroke:#000000;stroke-width:0.5;" x="183.073199331" xlink:href="#m5b146080c3" y="30.43625"/>
      </g>
     </g>
    </g>
    <g id="xtick_18">
     <g id="line2d_56">
      <g>
       <use style="stroke:#000000;stroke-width:0.5;" x="203.538685491" xlink:href="#me3e6d0a3e5" y="376.03625"/>
      </g>
     </g>
     <g id="line2d_57">
      <g>
       <use style="stroke:#000000;stroke-width:0.5;" x="203.538685491" xlink:href="#m5b146080c3" y="30.43625"/>
      </g>
     </g>
    </g>
    <g id="xtick_19">
     <g id="line2d_58">
      <g>
       <use style="stroke:#000000;stroke-width:0.5;" x="219.020228125" xlink:href="#me3e6d0a3e5" y="376.03625"/>
      </g>
     </g>
     <g id="line2d_59">
      <g>
       <use style="stroke:#000000;stroke-width:0.5;" x="219.020228125" xlink:href="#m5b146080c3" y="30.43625"/>
      </g>
     </g>
    </g>
    <g id="xtick_20">
     <g id="line2d_60">
      <g>
       <use style="stroke:#000000;stroke-width:0.5;" x="228.07635002" xlink:href="#me3e6d0a3e5" y="376.03625"/>
      </g>
     </g>
     <g id="line2d_61">
      <g>
       <use style="stroke:#000000;stroke-width:0.5;" x="228.07635002" xlink:href="#m5b146080c3" y="30.43625"/>
      </g>
     </g>
    </g>
    <g id="xtick_21">
     <g id="line2d_62">
      <g>
       <use style="stroke:#000000;stroke-width:0.5;" x="234.50177076" xlink:href="#me3e6d0a3e5" y="376.03625"/>
      </g>
     </g>
     <g id="line2d_63">
      <g>
       <use style="stroke:#000000;stroke-width:0.5;" x="234.50177076" xlink:href="#m5b146080c3" y="30.43625"/>
      </g>
     </g>
    </g>
    <g id="xtick_22">
     <g id="line2d_64">
      <g>
       <use style="stroke:#000000;stroke-width:0.5;" x="254.96725692" xlink:href="#me3e6d0a3e5" y="376.03625"/>
      </g>
     </g>
     <g id="line2d_65">
      <g>
       <use style="stroke:#000000;stroke-width:0.5;" x="254.96725692" xlink:href="#m5b146080c3" y="30.43625"/>
      </g>
     </g>
    </g>
    <g id="xtick_23">
     <g id="line2d_66">
      <g>
       <use style="stroke:#000000;stroke-width:0.5;" x="270.448799554" xlink:href="#me3e6d0a3e5" y="376.03625"/>
      </g>
     </g>
     <g id="line2d_67">
      <g>
       <use style="stroke:#000000;stroke-width:0.5;" x="270.448799554" xlink:href="#m5b146080c3" y="30.43625"/>
      </g>
     </g>
    </g>
    <g id="xtick_24">
     <g id="line2d_68">
      <g>
       <use style="stroke:#000000;stroke-width:0.5;" x="279.504921448" xlink:href="#me3e6d0a3e5" y="376.03625"/>
      </g>
     </g>
     <g id="line2d_69">
      <g>
       <use style="stroke:#000000;stroke-width:0.5;" x="279.504921448" xlink:href="#m5b146080c3" y="30.43625"/>
      </g>
     </g>
    </g>
    <g id="xtick_25">
     <g id="line2d_70">
      <g>
       <use style="stroke:#000000;stroke-width:0.5;" x="285.930342188" xlink:href="#me3e6d0a3e5" y="376.03625"/>
      </g>
     </g>
     <g id="line2d_71">
      <g>
       <use style="stroke:#000000;stroke-width:0.5;" x="285.930342188" xlink:href="#m5b146080c3" y="30.43625"/>
      </g>
     </g>
    </g>
    <g id="xtick_26">
     <g id="line2d_72">
      <g>
       <use style="stroke:#000000;stroke-width:0.5;" x="306.395828348" xlink:href="#me3e6d0a3e5" y="376.03625"/>
      </g>
     </g>
     <g id="line2d_73">
      <g>
       <use style="stroke:#000000;stroke-width:0.5;" x="306.395828348" xlink:href="#m5b146080c3" y="30.43625"/>
      </g>
     </g>
    </g>
    <g id="xtick_27">
     <g id="line2d_74">
      <g>
       <use style="stroke:#000000;stroke-width:0.5;" x="321.877370983" xlink:href="#me3e6d0a3e5" y="376.03625"/>
      </g>
     </g>
     <g id="line2d_75">
      <g>
       <use style="stroke:#000000;stroke-width:0.5;" x="321.877370983" xlink:href="#m5b146080c3" y="30.43625"/>
      </g>
     </g>
    </g>
    <g id="xtick_28">
     <g id="line2d_76">
      <g>
       <use style="stroke:#000000;stroke-width:0.5;" x="330.933492877" xlink:href="#me3e6d0a3e5" y="376.03625"/>
      </g>
     </g>
     <g id="line2d_77">
      <g>
       <use style="stroke:#000000;stroke-width:0.5;" x="330.933492877" xlink:href="#m5b146080c3" y="30.43625"/>
      </g>
     </g>
    </g>
    <g id="xtick_29">
     <g id="line2d_78">
      <g>
       <use style="stroke:#000000;stroke-width:0.5;" x="337.358913617" xlink:href="#me3e6d0a3e5" y="376.03625"/>
      </g>
     </g>
     <g id="line2d_79">
      <g>
       <use style="stroke:#000000;stroke-width:0.5;" x="337.358913617" xlink:href="#m5b146080c3" y="30.43625"/>
      </g>
     </g>
    </g>
    <g id="xtick_30">
     <g id="line2d_80">
      <g>
       <use style="stroke:#000000;stroke-width:0.5;" x="357.824399777" xlink:href="#me3e6d0a3e5" y="376.03625"/>
      </g>
     </g>
     <g id="line2d_81">
      <g>
       <use style="stroke:#000000;stroke-width:0.5;" x="357.824399777" xlink:href="#m5b146080c3" y="30.43625"/>
      </g>
     </g>
    </g>
    <g id="xtick_31">
     <g id="line2d_82">
      <g>
       <use style="stroke:#000000;stroke-width:0.5;" x="373.305942411" xlink:href="#me3e6d0a3e5" y="376.03625"/>
      </g>
     </g>
     <g id="line2d_83">
      <g>
       <use style="stroke:#000000;stroke-width:0.5;" x="373.305942411" xlink:href="#m5b146080c3" y="30.43625"/>
      </g>
     </g>
    </g>
    <g id="xtick_32">
     <g id="line2d_84">
      <g>
       <use style="stroke:#000000;stroke-width:0.5;" x="382.362064305" xlink:href="#me3e6d0a3e5" y="376.03625"/>
      </g>
     </g>
     <g id="line2d_85">
      <g>
       <use style="stroke:#000000;stroke-width:0.5;" x="382.362064305" xlink:href="#m5b146080c3" y="30.43625"/>
      </g>
     </g>
    </g>
    <g id="xtick_33">
     <g id="line2d_86">
      <g>
       <use style="stroke:#000000;stroke-width:0.5;" x="388.787485045" xlink:href="#me3e6d0a3e5" y="376.03625"/>
      </g>
     </g>
     <g id="line2d_87">
      <g>
       <use style="stroke:#000000;stroke-width:0.5;" x="388.787485045" xlink:href="#m5b146080c3" y="30.43625"/>
      </g>
     </g>
    </g>
    <g id="xtick_34">
     <g id="line2d_88">
      <g>
       <use style="stroke:#000000;stroke-width:0.5;" x="409.252971206" xlink:href="#me3e6d0a3e5" y="376.03625"/>
      </g>
     </g>
     <g id="line2d_89">
      <g>
       <use style="stroke:#000000;stroke-width:0.5;" x="409.252971206" xlink:href="#m5b146080c3" y="30.43625"/>
      </g>
     </g>
    </g>
    <g id="xtick_35">
     <g id="line2d_90">
      <g>
       <use style="stroke:#000000;stroke-width:0.5;" x="424.73451384" xlink:href="#me3e6d0a3e5" y="376.03625"/>
      </g>
     </g>
     <g id="line2d_91">
      <g>
       <use style="stroke:#000000;stroke-width:0.5;" x="424.73451384" xlink:href="#m5b146080c3" y="30.43625"/>
      </g>
     </g>
    </g>
    <g id="xtick_36">
     <g id="line2d_92">
      <g>
       <use style="stroke:#000000;stroke-width:0.5;" x="433.790635734" xlink:href="#me3e6d0a3e5" y="376.03625"/>
      </g>
     </g>
     <g id="line2d_93">
      <g>
       <use style="stroke:#000000;stroke-width:0.5;" x="433.790635734" xlink:href="#m5b146080c3" y="30.43625"/>
      </g>
     </g>
    </g>
    <g id="xtick_37">
     <g id="line2d_94">
      <g>
       <use style="stroke:#000000;stroke-width:0.5;" x="440.216056474" xlink:href="#me3e6d0a3e5" y="376.03625"/>
      </g>
     </g>
     <g id="line2d_95">
      <g>
       <use style="stroke:#000000;stroke-width:0.5;" x="440.216056474" xlink:href="#m5b146080c3" y="30.43625"/>
      </g>
     </g>
    </g>
    <g id="xtick_38">
     <g id="line2d_96">
      <g>
       <use style="stroke:#000000;stroke-width:0.5;" x="460.681542634" xlink:href="#me3e6d0a3e5" y="376.03625"/>
      </g>
     </g>
     <g id="line2d_97">
      <g>
       <use style="stroke:#000000;stroke-width:0.5;" x="460.681542634" xlink:href="#m5b146080c3" y="30.43625"/>
      </g>
     </g>
    </g>
    <g id="xtick_39">
     <g id="line2d_98">
      <g>
       <use style="stroke:#000000;stroke-width:0.5;" x="476.163085268" xlink:href="#me3e6d0a3e5" y="376.03625"/>
      </g>
     </g>
     <g id="line2d_99">
      <g>
       <use style="stroke:#000000;stroke-width:0.5;" x="476.163085268" xlink:href="#m5b146080c3" y="30.43625"/>
      </g>
     </g>
    </g>
    <g id="xtick_40">
     <g id="line2d_100">
      <g>
       <use style="stroke:#000000;stroke-width:0.5;" x="485.219207163" xlink:href="#me3e6d0a3e5" y="376.03625"/>
      </g>
     </g>
     <g id="line2d_101">
      <g>
       <use style="stroke:#000000;stroke-width:0.5;" x="485.219207163" xlink:href="#m5b146080c3" y="30.43625"/>
      </g>
     </g>
    </g>
    <g id="xtick_41">
     <g id="line2d_102">
      <g>
       <use style="stroke:#000000;stroke-width:0.5;" x="491.644627902" xlink:href="#me3e6d0a3e5" y="376.03625"/>
      </g>
     </g>
     <g id="line2d_103">
      <g>
       <use style="stroke:#000000;stroke-width:0.5;" x="491.644627902" xlink:href="#m5b146080c3" y="30.43625"/>
      </g>
     </g>
    </g>
    <g id="xtick_42">
     <g id="line2d_104">
      <g>
       <use style="stroke:#000000;stroke-width:0.5;" x="512.110114063" xlink:href="#me3e6d0a3e5" y="376.03625"/>
      </g>
     </g>
     <g id="line2d_105">
      <g>
       <use style="stroke:#000000;stroke-width:0.5;" x="512.110114063" xlink:href="#m5b146080c3" y="30.43625"/>
      </g>
     </g>
    </g>
    <g id="xtick_43">
     <g id="line2d_106">
      <g>
       <use style="stroke:#000000;stroke-width:0.5;" x="527.591656697" xlink:href="#me3e6d0a3e5" y="376.03625"/>
      </g>
     </g>
     <g id="line2d_107">
      <g>
       <use style="stroke:#000000;stroke-width:0.5;" x="527.591656697" xlink:href="#m5b146080c3" y="30.43625"/>
      </g>
     </g>
    </g>
    <g id="text_10">
     <!-- log10 of (# f-evals / dimension) -->
     <defs>
      <path id="BitstreamVeraSans-Roman-20"/>
      <path d="M 51.125 44 
L 36.921875 44 
L 32.8125 27.6875 
L 47.125 27.6875 
z
M 43.796875 71.78125 
L 38.71875 51.515625 
L 52.984375 51.515625 
L 58.109375 71.78125 
L 65.921875 71.78125 
L 60.890625 51.515625 
L 76.125 51.515625 
L 76.125 44 
L 58.984375 44 
L 54.984375 27.6875 
L 70.515625 27.6875 
L 70.515625 20.21875 
L 53.078125 20.21875 
L 48 0 
L 40.1875 0 
L 45.21875 20.21875 
L 30.90625 20.21875 
L 25.875 0 
L 18.015625 0 
L 23.09375 20.21875 
L 7.71875 20.21875 
L 7.71875 27.6875 
L 24.90625 27.6875 
L 29 44 
L 13.28125 44 
L 13.28125 51.515625 
L 30.90625 51.515625 
L 35.890625 71.78125 
z
" id="BitstreamVeraSans-Roman-23"/>
      <path d="M 52 44.1875 
Q 55.375 50.25 60.0625 53.125 
Q 64.75 56 71.09375 56 
Q 79.640625 56 84.28125 50.015625 
Q 88.921875 44.046875 88.921875 33.015625 
L 88.921875 0 
L 79.890625 0 
L 79.890625 32.71875 
Q 79.890625 40.578125 77.09375 44.375 
Q 74.3125 48.1875 68.609375 48.1875 
Q 61.625 48.1875 57.5625 43.546875 
Q 53.515625 38.921875 53.515625 30.90625 
L 53.515625 0 
L 44.484375 0 
L 44.484375 32.71875 
Q 44.484375 40.625 41.703125 44.40625 
Q 38.921875 48.1875 33.109375 48.1875 
Q 26.21875 48.1875 22.15625 43.53125 
Q 18.109375 38.875 18.109375 30.90625 
L 18.109375 0 
L 9.078125 0 
L 9.078125 54.6875 
L 18.109375 54.6875 
L 18.109375 46.1875 
Q 21.1875 51.21875 25.484375 53.609375 
Q 29.78125 56 35.6875 56 
Q 41.65625 56 45.828125 52.96875 
Q 50 49.953125 52 44.1875 
" id="BitstreamVeraSans-Roman-6d"/>
      <path d="M 54.890625 33.015625 
L 54.890625 0 
L 45.90625 0 
L 45.90625 32.71875 
Q 45.90625 40.484375 42.875 44.328125 
Q 39.84375 48.1875 33.796875 48.1875 
Q 26.515625 48.1875 22.3125 43.546875 
Q 18.109375 38.921875 18.109375 30.90625 
L 18.109375 0 
L 9.078125 0 
L 9.078125 54.6875 
L 18.109375 54.6875 
L 18.109375 46.1875 
Q 21.34375 51.125 25.703125 53.5625 
Q 30.078125 56 35.796875 56 
Q 45.21875 56 50.046875 50.171875 
Q 54.890625 44.34375 54.890625 33.015625 
" id="BitstreamVeraSans-Roman-6e"/>
      <path d="M 31 75.875 
Q 24.46875 64.65625 21.28125 53.65625 
Q 18.109375 42.671875 18.109375 31.390625 
Q 18.109375 20.125 21.3125 9.0625 
Q 24.515625 -2 31 -13.1875 
L 23.1875 -13.1875 
Q 15.875 -1.703125 12.234375 9.375 
Q 8.59375 20.453125 8.59375 31.390625 
Q 8.59375 42.28125 12.203125 53.3125 
Q 15.828125 64.359375 23.1875 75.875 
z
" id="BitstreamVeraSans-Roman-28"/>
      <path d="M 30.609375 48.390625 
Q 23.390625 48.390625 19.1875 42.75 
Q 14.984375 37.109375 14.984375 27.296875 
Q 14.984375 17.484375 19.15625 11.84375 
Q 23.34375 6.203125 30.609375 6.203125 
Q 37.796875 6.203125 41.984375 11.859375 
Q 46.1875 17.53125 46.1875 27.296875 
Q 46.1875 37.015625 41.984375 42.703125 
Q 37.796875 48.390625 30.609375 48.390625 
M 30.609375 56 
Q 42.328125 56 49.015625 48.375 
Q 55.71875 40.765625 55.71875 27.296875 
Q 55.71875 13.875 49.015625 6.21875 
Q 42.328125 -1.421875 30.609375 -1.421875 
Q 18.84375 -1.421875 12.171875 6.21875 
Q 5.515625 13.875 5.515625 27.296875 
Q 5.515625 40.765625 12.171875 48.375 
Q 18.84375 56 30.609375 56 
" id="BitstreamVeraSans-Roman-6f"/>
      <path d="M 9.421875 75.984375 
L 18.40625 75.984375 
L 18.40625 0 
L 9.421875 0 
z
" id="BitstreamVeraSans-Roman-6c"/>
      <path d="M 2.984375 54.6875 
L 12.5 54.6875 
L 29.59375 8.796875 
L 46.6875 54.6875 
L 56.203125 54.6875 
L 35.6875 0 
L 23.484375 0 
z
" id="BitstreamVeraSans-Roman-76"/>
      <path d="M 9.421875 54.6875 
L 18.40625 54.6875 
L 18.40625 0 
L 9.421875 0 
z
M 9.421875 75.984375 
L 18.40625 75.984375 
L 18.40625 64.59375 
L 9.421875 64.59375 
z
" id="BitstreamVeraSans-Roman-69"/>
      <path d="M 4.890625 31.390625 
L 31.203125 31.390625 
L 31.203125 23.390625 
L 4.890625 23.390625 
z
" id="BitstreamVeraSans-Roman-2d"/>
      <path d="M 25.390625 72.90625 
L 33.6875 72.90625 
L 8.296875 -9.28125 
L 0 -9.28125 
z
" id="BitstreamVeraSans-Roman-2f"/>
      <path d="M 56.203125 29.59375 
L 56.203125 25.203125 
L 14.890625 25.203125 
Q 15.484375 15.921875 20.484375 11.0625 
Q 25.484375 6.203125 34.421875 6.203125 
Q 39.59375 6.203125 44.453125 7.46875 
Q 49.3125 8.734375 54.109375 11.28125 
L 54.109375 2.78125 
Q 49.265625 0.734375 44.1875 -0.34375 
Q 39.109375 -1.421875 33.890625 -1.421875 
Q 20.796875 -1.421875 13.15625 6.1875 
Q 5.515625 13.8125 5.515625 26.8125 
Q 5.515625 40.234375 12.765625 48.109375 
Q 20.015625 56 32.328125 56 
Q 43.359375 56 49.78125 48.890625 
Q 56.203125 41.796875 56.203125 29.59375 
M 47.21875 32.234375 
Q 47.125 39.59375 43.09375 43.984375 
Q 39.0625 48.390625 32.421875 48.390625 
Q 24.90625 48.390625 20.390625 44.140625 
Q 15.875 39.890625 15.1875 32.171875 
z
" id="BitstreamVeraSans-Roman-65"/>
      <path d="M 45.40625 46.390625 
L 45.40625 75.984375 
L 54.390625 75.984375 
L 54.390625 0 
L 45.40625 0 
L 45.40625 8.203125 
Q 42.578125 3.328125 38.25 0.953125 
Q 33.9375 -1.421875 27.875 -1.421875 
Q 17.96875 -1.421875 11.734375 6.484375 
Q 5.515625 14.40625 5.515625 27.296875 
Q 5.515625 40.1875 11.734375 48.09375 
Q 17.96875 56 27.875 56 
Q 33.9375 56 38.25 53.625 
Q 42.578125 51.265625 45.40625 46.390625 
M 14.796875 27.296875 
Q 14.796875 17.390625 18.875 11.75 
Q 22.953125 6.109375 30.078125 6.109375 
Q 37.203125 6.109375 41.296875 11.75 
Q 45.40625 17.390625 45.40625 27.296875 
Q 45.40625 37.203125 41.296875 42.84375 
Q 37.203125 48.484375 30.078125 48.484375 
Q 22.953125 48.484375 18.875 42.84375 
Q 14.796875 37.203125 14.796875 27.296875 
" id="BitstreamVeraSans-Roman-64"/>
      <path d="M 45.40625 27.984375 
Q 45.40625 37.75 41.375 43.109375 
Q 37.359375 48.484375 30.078125 48.484375 
Q 22.859375 48.484375 18.828125 43.109375 
Q 14.796875 37.75 14.796875 27.984375 
Q 14.796875 18.265625 18.828125 12.890625 
Q 22.859375 7.515625 30.078125 7.515625 
Q 37.359375 7.515625 41.375 12.890625 
Q 45.40625 18.265625 45.40625 27.984375 
M 54.390625 6.78125 
Q 54.390625 -7.171875 48.1875 -13.984375 
Q 42 -20.796875 29.203125 -20.796875 
Q 24.46875 -20.796875 20.265625 -20.09375 
Q 16.0625 -19.390625 12.109375 -17.921875 
L 12.109375 -9.1875 
Q 16.0625 -11.328125 19.921875 -12.34375 
Q 23.78125 -13.375 27.78125 -13.375 
Q 36.625 -13.375 41.015625 -8.765625 
Q 45.40625 -4.15625 45.40625 5.171875 
L 45.40625 9.625 
Q 42.625 4.78125 38.28125 2.390625 
Q 33.9375 0 27.875 0 
Q 17.828125 0 11.671875 7.65625 
Q 5.515625 15.328125 5.515625 27.984375 
Q 5.515625 40.671875 11.671875 48.328125 
Q 17.828125 56 27.875 56 
Q 33.9375 56 38.28125 53.609375 
Q 42.625 51.21875 45.40625 46.390625 
L 45.40625 54.6875 
L 54.390625 54.6875 
z
" id="BitstreamVeraSans-Roman-67"/>
      <path d="M 37.109375 75.984375 
L 37.109375 68.5 
L 28.515625 68.5 
Q 23.6875 68.5 21.796875 66.546875 
Q 19.921875 64.59375 19.921875 59.515625 
L 19.921875 54.6875 
L 34.71875 54.6875 
L 34.71875 47.703125 
L 19.921875 47.703125 
L 19.921875 0 
L 10.890625 0 
L 10.890625 47.703125 
L 2.296875 47.703125 
L 2.296875 54.6875 
L 10.890625 54.6875 
L 10.890625 58.5 
Q 10.890625 67.625 15.140625 71.796875 
Q 19.390625 75.984375 28.609375 75.984375 
z
" id="BitstreamVeraSans-Roman-66"/>
      <path d="M 34.28125 27.484375 
Q 23.390625 27.484375 19.1875 25 
Q 14.984375 22.515625 14.984375 16.5 
Q 14.984375 11.71875 18.140625 8.90625 
Q 21.296875 6.109375 26.703125 6.109375 
Q 34.1875 6.109375 38.703125 11.40625 
Q 43.21875 16.703125 43.21875 25.484375 
L 43.21875 27.484375 
z
M 52.203125 31.203125 
L 52.203125 0 
L 43.21875 0 
L 43.21875 8.296875 
Q 40.140625 3.328125 35.546875 0.953125 
Q 30.953125 -1.421875 24.3125 -1.421875 
Q 15.921875 -1.421875 10.953125 3.296875 
Q 6 8.015625 6 15.921875 
Q 6 25.140625 12.171875 29.828125 
Q 18.359375 34.515625 30.609375 34.515625 
L 43.21875 34.515625 
L 43.21875 35.40625 
Q 43.21875 41.609375 39.140625 45 
Q 35.0625 48.390625 27.6875 48.390625 
Q 23 48.390625 18.546875 47.265625 
Q 14.109375 46.140625 10.015625 43.890625 
L 10.015625 52.203125 
Q 14.9375 54.109375 19.578125 55.046875 
Q 24.21875 56 28.609375 56 
Q 40.484375 56 46.34375 49.84375 
Q 52.203125 43.703125 52.203125 31.203125 
" id="BitstreamVeraSans-Roman-61"/>
      <path d="M 44.28125 53.078125 
L 44.28125 44.578125 
Q 40.484375 46.53125 36.375 47.5 
Q 32.28125 48.484375 27.875 48.484375 
Q 21.1875 48.484375 17.84375 46.4375 
Q 14.5 44.390625 14.5 40.28125 
Q 14.5 37.15625 16.890625 35.375 
Q 19.28125 33.59375 26.515625 31.984375 
L 29.59375 31.296875 
Q 39.15625 29.25 43.1875 25.515625 
Q 47.21875 21.78125 47.21875 15.09375 
Q 47.21875 7.46875 41.1875 3.015625 
Q 35.15625 -1.421875 24.609375 -1.421875 
Q 20.21875 -1.421875 15.453125 -0.5625 
Q 10.6875 0.296875 5.421875 2 
L 5.421875 11.28125 
Q 10.40625 8.6875 15.234375 7.390625 
Q 20.0625 6.109375 24.8125 6.109375 
Q 31.15625 6.109375 34.5625 8.28125 
Q 37.984375 10.453125 37.984375 14.40625 
Q 37.984375 18.0625 35.515625 20.015625 
Q 33.0625 21.96875 24.703125 23.78125 
L 21.578125 24.515625 
Q 13.234375 26.265625 9.515625 29.90625 
Q 5.8125 33.546875 5.8125 39.890625 
Q 5.8125 47.609375 11.28125 51.796875 
Q 16.75 56 26.8125 56 
Q 31.78125 56 36.171875 55.265625 
Q 40.578125 54.546875 44.28125 53.078125 
" id="BitstreamVeraSans-Roman-73"/>
      <path d="M 8.015625 75.875 
L 15.828125 75.875 
Q 23.140625 64.359375 26.78125 53.3125 
Q 30.421875 42.28125 30.421875 31.390625 
Q 30.421875 20.453125 26.78125 9.375 
Q 23.140625 -1.703125 15.828125 -13.1875 
L 8.015625 -13.1875 
Q 14.5 -2 17.703125 9.0625 
Q 20.90625 20.125 20.90625 31.390625 
Q 20.90625 42.671875 17.703125 53.65625 
Q 14.5 64.65625 8.015625 75.875 
" id="BitstreamVeraSans-Roman-29"/>
     </defs>
     <g transform="translate(166.05515625 418.0696875)scale(0.18 -0.18)">
      <use xlink:href="#BitstreamVeraSans-Roman-6c"/>
      <use x="27.783203125" xlink:href="#BitstreamVeraSans-Roman-6f"/>
      <use x="88.96484375" xlink:href="#BitstreamVeraSans-Roman-67"/>
      <use x="152.44140625" xlink:href="#BitstreamVeraSans-Roman-31"/>
      <use x="216.064453125" xlink:href="#BitstreamVeraSans-Roman-30"/>
      <use x="279.6875" xlink:href="#BitstreamVeraSans-Roman-20"/>
      <use x="311.474609375" xlink:href="#BitstreamVeraSans-Roman-6f"/>
      <use x="372.65625" xlink:href="#BitstreamVeraSans-Roman-66"/>
      <use x="407.861328125" xlink:href="#BitstreamVeraSans-Roman-20"/>
      <use x="439.6484375" xlink:href="#BitstreamVeraSans-Roman-28"/>
      <use x="478.662109375" xlink:href="#BitstreamVeraSans-Roman-23"/>
      <use x="562.451171875" xlink:href="#BitstreamVeraSans-Roman-20"/>
      <use x="594.23828125" xlink:href="#BitstreamVeraSans-Roman-66"/>
      <use x="629.365234375" xlink:href="#BitstreamVeraSans-Roman-2d"/>
      <use x="665.44921875" xlink:href="#BitstreamVeraSans-Roman-65"/>
      <use x="726.97265625" xlink:href="#BitstreamVeraSans-Roman-76"/>
      <use x="786.15234375" xlink:href="#BitstreamVeraSans-Roman-61"/>
      <use x="847.431640625" xlink:href="#BitstreamVeraSans-Roman-6c"/>
      <use x="875.21484375" xlink:href="#BitstreamVeraSans-Roman-73"/>
      <use x="927.314453125" xlink:href="#BitstreamVeraSans-Roman-20"/>
      <use x="959.1015625" xlink:href="#BitstreamVeraSans-Roman-2f"/>
      <use x="992.79296875" xlink:href="#BitstreamVeraSans-Roman-20"/>
      <use x="1024.58007812" xlink:href="#BitstreamVeraSans-Roman-64"/>
      <use x="1088.05664062" xlink:href="#BitstreamVeraSans-Roman-69"/>
      <use x="1115.83984375" xlink:href="#BitstreamVeraSans-Roman-6d"/>
      <use x="1213.25195312" xlink:href="#BitstreamVeraSans-Roman-65"/>
      <use x="1274.77539062" xlink:href="#BitstreamVeraSans-Roman-6e"/>
      <use x="1338.15429688" xlink:href="#BitstreamVeraSans-Roman-73"/>
      <use x="1390.25390625" xlink:href="#BitstreamVeraSans-Roman-69"/>
      <use x="1418.03710938" xlink:href="#BitstreamVeraSans-Roman-6f"/>
      <use x="1479.21875" xlink:href="#BitstreamVeraSans-Roman-6e"/>
      <use x="1542.59765625" xlink:href="#BitstreamVeraSans-Roman-29"/>
     </g>
    </g>
   </g>
   <g id="matplotlib.axis_2">
    <g id="ytick_1">
     <g id="line2d_108">
      <path clip-path="url(#p4a1578bf15)" d="M 85.2 376.03625 
L 531.6 376.03625 
" style="fill:none;stroke:#000000;stroke-dasharray:1.000000,3.000000;stroke-dashoffset:0.0;stroke-width:0.5;"/>
     </g>
     <g id="line2d_109">
      <defs>
       <path d="M 0 0 
L 4 0 
" id="m8ba8cb9359" style="stroke:#000000;stroke-width:0.5;"/>
      </defs>
      <g>
       <use style="stroke:#000000;stroke-width:0.5;" x="85.2" xlink:href="#m8ba8cb9359" y="376.03625"/>
      </g>
     </g>
     <g id="line2d_110">
      <defs>
       <path d="M 0 0 
L -4 0 
" id="m4344915d5f" style="stroke:#000000;stroke-width:0.5;"/>
      </defs>
      <g>
       <use style="stroke:#000000;stroke-width:0.5;" x="531.6" xlink:href="#m4344915d5f" y="376.03625"/>
      </g>
     </g>
     <g id="text_11">
      <!-- 0.0 -->
      <defs>
       <path d="M 10.6875 12.40625 
L 21 12.40625 
L 21 0 
L 10.6875 0 
z
" id="BitstreamVeraSans-Roman-2e"/>
      </defs>
      <g transform="translate(49.39375 381.555)scale(0.2 -0.2)">
       <use xlink:href="#BitstreamVeraSans-Roman-30"/>
       <use x="63.623046875" xlink:href="#BitstreamVeraSans-Roman-2e"/>
       <use x="95.41015625" xlink:href="#BitstreamVeraSans-Roman-30"/>
      </g>
     </g>
    </g>
    <g id="ytick_2">
     <g id="line2d_111">
      <path clip-path="url(#p4a1578bf15)" d="M 85.2 307.600606 
L 531.6 307.600606 
" style="fill:none;stroke:#000000;stroke-dasharray:1.000000,3.000000;stroke-dashoffset:0.0;stroke-width:0.5;"/>
     </g>
     <g id="line2d_112">
      <g>
       <use style="stroke:#000000;stroke-width:0.5;" x="85.2" xlink:href="#m8ba8cb9359" y="307.600606436"/>
      </g>
     </g>
     <g id="line2d_113">
      <g>
       <use style="stroke:#000000;stroke-width:0.5;" x="531.6" xlink:href="#m4344915d5f" y="307.600606436"/>
      </g>
     </g>
     <g id="text_12">
      <!-- 0.2 -->
      <g transform="translate(49.39375 313.119356436)scale(0.2 -0.2)">
       <use xlink:href="#BitstreamVeraSans-Roman-30"/>
       <use x="63.623046875" xlink:href="#BitstreamVeraSans-Roman-2e"/>
       <use x="95.41015625" xlink:href="#BitstreamVeraSans-Roman-32"/>
      </g>
     </g>
    </g>
    <g id="ytick_3">
     <g id="line2d_114">
      <path clip-path="url(#p4a1578bf15)" d="M 85.2 239.164963 
L 531.6 239.164963 
" style="fill:none;stroke:#000000;stroke-dasharray:1.000000,3.000000;stroke-dashoffset:0.0;stroke-width:0.5;"/>
     </g>
     <g id="line2d_115">
      <g>
       <use style="stroke:#000000;stroke-width:0.5;" x="85.2" xlink:href="#m8ba8cb9359" y="239.164962871"/>
      </g>
     </g>
     <g id="line2d_116">
      <g>
       <use style="stroke:#000000;stroke-width:0.5;" x="531.6" xlink:href="#m4344915d5f" y="239.164962871"/>
      </g>
     </g>
     <g id="text_13">
      <!-- 0.4 -->
      <g transform="translate(49.39375 244.683712871)scale(0.2 -0.2)">
       <use xlink:href="#BitstreamVeraSans-Roman-30"/>
       <use x="63.623046875" xlink:href="#BitstreamVeraSans-Roman-2e"/>
       <use x="95.41015625" xlink:href="#BitstreamVeraSans-Roman-34"/>
      </g>
     </g>
    </g>
    <g id="ytick_4">
     <g id="line2d_117">
      <path clip-path="url(#p4a1578bf15)" d="M 85.2 170.729319 
L 531.6 170.729319 
" style="fill:none;stroke:#000000;stroke-dasharray:1.000000,3.000000;stroke-dashoffset:0.0;stroke-width:0.5;"/>
     </g>
     <g id="line2d_118">
      <g>
       <use style="stroke:#000000;stroke-width:0.5;" x="85.2" xlink:href="#m8ba8cb9359" y="170.729319307"/>
      </g>
     </g>
     <g id="line2d_119">
      <g>
       <use style="stroke:#000000;stroke-width:0.5;" x="531.6" xlink:href="#m4344915d5f" y="170.729319307"/>
      </g>
     </g>
     <g id="text_14">
      <!-- 0.6 -->
      <g transform="translate(49.39375 176.248069307)scale(0.2 -0.2)">
       <use xlink:href="#BitstreamVeraSans-Roman-30"/>
       <use x="63.623046875" xlink:href="#BitstreamVeraSans-Roman-2e"/>
       <use x="95.41015625" xlink:href="#BitstreamVeraSans-Roman-36"/>
      </g>
     </g>
    </g>
    <g id="ytick_5">
     <g id="line2d_120">
      <path clip-path="url(#p4a1578bf15)" d="M 85.2 102.293676 
L 531.6 102.293676 
" style="fill:none;stroke:#000000;stroke-dasharray:1.000000,3.000000;stroke-dashoffset:0.0;stroke-width:0.5;"/>
     </g>
     <g id="line2d_121">
      <g>
       <use style="stroke:#000000;stroke-width:0.5;" x="85.2" xlink:href="#m8ba8cb9359" y="102.293675743"/>
      </g>
     </g>
     <g id="line2d_122">
      <g>
       <use style="stroke:#000000;stroke-width:0.5;" x="531.6" xlink:href="#m4344915d5f" y="102.293675743"/>
      </g>
     </g>
     <g id="text_15">
      <!-- 0.8 -->
      <g transform="translate(49.39375 107.812425743)scale(0.2 -0.2)">
       <use xlink:href="#BitstreamVeraSans-Roman-30"/>
       <use x="63.623046875" xlink:href="#BitstreamVeraSans-Roman-2e"/>
       <use x="95.41015625" xlink:href="#BitstreamVeraSans-Roman-38"/>
      </g>
     </g>
    </g>
    <g id="ytick_6">
     <g id="line2d_123">
      <path clip-path="url(#p4a1578bf15)" d="M 85.2 33.858032 
L 531.6 33.858032 
" style="fill:none;stroke:#000000;stroke-dasharray:1.000000,3.000000;stroke-dashoffset:0.0;stroke-width:0.5;"/>
     </g>
     <g id="line2d_124">
      <g>
       <use style="stroke:#000000;stroke-width:0.5;" x="85.2" xlink:href="#m8ba8cb9359" y="33.8580321782"/>
      </g>
     </g>
     <g id="line2d_125">
      <g>
       <use style="stroke:#000000;stroke-width:0.5;" x="531.6" xlink:href="#m4344915d5f" y="33.8580321782"/>
      </g>
     </g>
     <g id="text_16">
      <!-- 1.0 -->
      <g transform="translate(49.39375 39.3767821782)scale(0.2 -0.2)">
       <use xlink:href="#BitstreamVeraSans-Roman-31"/>
       <use x="63.623046875" xlink:href="#BitstreamVeraSans-Roman-2e"/>
       <use x="95.41015625" xlink:href="#BitstreamVeraSans-Roman-30"/>
      </g>
     </g>
    </g>
    <g id="text_17">
     <!-- Proportion of function+target pairs -->
     <defs>
      <path d="M 19.671875 64.796875 
L 19.671875 37.40625 
L 32.078125 37.40625 
Q 38.96875 37.40625 42.71875 40.96875 
Q 46.484375 44.53125 46.484375 51.125 
Q 46.484375 57.671875 42.71875 61.234375 
Q 38.96875 64.796875 32.078125 64.796875 
z
M 9.8125 72.90625 
L 32.078125 72.90625 
Q 44.34375 72.90625 50.609375 67.359375 
Q 56.890625 61.8125 56.890625 51.125 
Q 56.890625 40.328125 50.609375 34.8125 
Q 44.34375 29.296875 32.078125 29.296875 
L 19.671875 29.296875 
L 19.671875 0 
L 9.8125 0 
z
" id="BitstreamVeraSans-Roman-50"/>
      <path d="M 46 62.703125 
L 46 35.5 
L 73.1875 35.5 
L 73.1875 27.203125 
L 46 27.203125 
L 46 0 
L 37.796875 0 
L 37.796875 27.203125 
L 10.59375 27.203125 
L 10.59375 35.5 
L 37.796875 35.5 
L 37.796875 62.703125 
z
" id="BitstreamVeraSans-Roman-2b"/>
      <path d="M 18.109375 8.203125 
L 18.109375 -20.796875 
L 9.078125 -20.796875 
L 9.078125 54.6875 
L 18.109375 54.6875 
L 18.109375 46.390625 
Q 20.953125 51.265625 25.265625 53.625 
Q 29.59375 56 35.59375 56 
Q 45.5625 56 51.78125 48.09375 
Q 58.015625 40.1875 58.015625 27.296875 
Q 58.015625 14.40625 51.78125 6.484375 
Q 45.5625 -1.421875 35.59375 -1.421875 
Q 29.59375 -1.421875 25.265625 0.953125 
Q 20.953125 3.328125 18.109375 8.203125 
M 48.6875 27.296875 
Q 48.6875 37.203125 44.609375 42.84375 
Q 40.53125 48.484375 33.40625 48.484375 
Q 26.265625 48.484375 22.1875 42.84375 
Q 18.109375 37.203125 18.109375 27.296875 
Q 18.109375 17.390625 22.1875 11.75 
Q 26.265625 6.109375 33.40625 6.109375 
Q 40.53125 6.109375 44.609375 11.75 
Q 48.6875 17.390625 48.6875 27.296875 
" id="BitstreamVeraSans-Roman-70"/>
      <path d="M 18.3125 70.21875 
L 18.3125 54.6875 
L 36.8125 54.6875 
L 36.8125 47.703125 
L 18.3125 47.703125 
L 18.3125 18.015625 
Q 18.3125 11.328125 20.140625 9.421875 
Q 21.96875 7.515625 27.59375 7.515625 
L 36.8125 7.515625 
L 36.8125 0 
L 27.59375 0 
Q 17.1875 0 13.234375 3.875 
Q 9.28125 7.765625 9.28125 18.015625 
L 9.28125 47.703125 
L 2.6875 47.703125 
L 2.6875 54.6875 
L 9.28125 54.6875 
L 9.28125 70.21875 
z
" id="BitstreamVeraSans-Roman-74"/>
      <path d="M 8.5 21.578125 
L 8.5 54.6875 
L 17.484375 54.6875 
L 17.484375 21.921875 
Q 17.484375 14.15625 20.5 10.265625 
Q 23.53125 6.390625 29.59375 6.390625 
Q 36.859375 6.390625 41.078125 11.03125 
Q 45.3125 15.671875 45.3125 23.6875 
L 45.3125 54.6875 
L 54.296875 54.6875 
L 54.296875 0 
L 45.3125 0 
L 45.3125 8.40625 
Q 42.046875 3.421875 37.71875 1 
Q 33.40625 -1.421875 27.6875 -1.421875 
Q 18.265625 -1.421875 13.375 4.4375 
Q 8.5 10.296875 8.5 21.578125 
" id="BitstreamVeraSans-Roman-75"/>
      <path d="M 41.109375 46.296875 
Q 39.59375 47.171875 37.8125 47.578125 
Q 36.03125 48 33.890625 48 
Q 26.265625 48 22.1875 43.046875 
Q 18.109375 38.09375 18.109375 28.8125 
L 18.109375 0 
L 9.078125 0 
L 9.078125 54.6875 
L 18.109375 54.6875 
L 18.109375 46.1875 
Q 20.953125 51.171875 25.484375 53.578125 
Q 30.03125 56 36.53125 56 
Q 37.453125 56 38.578125 55.875 
Q 39.703125 55.765625 41.0625 55.515625 
z
" id="BitstreamVeraSans-Roman-72"/>
      <path d="M 48.78125 52.59375 
L 48.78125 44.1875 
Q 44.96875 46.296875 41.140625 47.34375 
Q 37.3125 48.390625 33.40625 48.390625 
Q 24.65625 48.390625 19.8125 42.84375 
Q 14.984375 37.3125 14.984375 27.296875 
Q 14.984375 17.28125 19.8125 11.734375 
Q 24.65625 6.203125 33.40625 6.203125 
Q 37.3125 6.203125 41.140625 7.25 
Q 44.96875 8.296875 48.78125 10.40625 
L 48.78125 2.09375 
Q 45.015625 0.34375 40.984375 -0.53125 
Q 36.96875 -1.421875 32.421875 -1.421875 
Q 20.0625 -1.421875 12.78125 6.34375 
Q 5.515625 14.109375 5.515625 27.296875 
Q 5.515625 40.671875 12.859375 48.328125 
Q 20.21875 56 33.015625 56 
Q 37.15625 56 41.109375 55.140625 
Q 45.0625 54.296875 48.78125 52.59375 
" id="BitstreamVeraSans-Roman-63"/>
     </defs>
     <g transform="translate(40.6503125 361.225625)rotate(-90.0)scale(0.18 -0.18)">
      <use xlink:href="#BitstreamVeraSans-Roman-50"/>
      <use x="60.287109375" xlink:href="#BitstreamVeraSans-Roman-72"/>
      <use x="101.369140625" xlink:href="#BitstreamVeraSans-Roman-6f"/>
      <use x="162.55078125" xlink:href="#BitstreamVeraSans-Roman-70"/>
      <use x="226.02734375" xlink:href="#BitstreamVeraSans-Roman-6f"/>
      <use x="287.208984375" xlink:href="#BitstreamVeraSans-Roman-72"/>
      <use x="328.322265625" xlink:href="#BitstreamVeraSans-Roman-74"/>
      <use x="367.53125" xlink:href="#BitstreamVeraSans-Roman-69"/>
      <use x="395.314453125" xlink:href="#BitstreamVeraSans-Roman-6f"/>
      <use x="456.49609375" xlink:href="#BitstreamVeraSans-Roman-6e"/>
      <use x="519.875" xlink:href="#BitstreamVeraSans-Roman-20"/>
      <use x="551.662109375" xlink:href="#BitstreamVeraSans-Roman-6f"/>
      <use x="612.84375" xlink:href="#BitstreamVeraSans-Roman-66"/>
      <use x="648.048828125" xlink:href="#BitstreamVeraSans-Roman-20"/>
      <use x="679.8359375" xlink:href="#BitstreamVeraSans-Roman-66"/>
      <use x="715.041015625" xlink:href="#BitstreamVeraSans-Roman-75"/>
      <use x="778.419921875" xlink:href="#BitstreamVeraSans-Roman-6e"/>
      <use x="841.798828125" xlink:href="#BitstreamVeraSans-Roman-63"/>
      <use x="896.779296875" xlink:href="#BitstreamVeraSans-Roman-74"/>
      <use x="935.98828125" xlink:href="#BitstreamVeraSans-Roman-69"/>
      <use x="963.771484375" xlink:href="#BitstreamVeraSans-Roman-6f"/>
      <use x="1024.953125" xlink:href="#BitstreamVeraSans-Roman-6e"/>
      <use x="1088.33203125" xlink:href="#BitstreamVeraSans-Roman-2b"/>
      <use x="1172.12109375" xlink:href="#BitstreamVeraSans-Roman-74"/>
      <use x="1211.33007812" xlink:href="#BitstreamVeraSans-Roman-61"/>
      <use x="1272.609375" xlink:href="#BitstreamVeraSans-Roman-72"/>
      <use x="1313.70703125" xlink:href="#BitstreamVeraSans-Roman-67"/>
      <use x="1377.18359375" xlink:href="#BitstreamVeraSans-Roman-65"/>
      <use x="1438.70703125" xlink:href="#BitstreamVeraSans-Roman-74"/>
      <use x="1477.91601562" xlink:href="#BitstreamVeraSans-Roman-20"/>
      <use x="1509.703125" xlink:href="#BitstreamVeraSans-Roman-70"/>
      <use x="1573.1796875" xlink:href="#BitstreamVeraSans-Roman-61"/>
      <use x="1634.45898438" xlink:href="#BitstreamVeraSans-Roman-69"/>
      <use x="1662.2421875" xlink:href="#BitstreamVeraSans-Roman-72"/>
      <use x="1703.35546875" xlink:href="#BitstreamVeraSans-Roman-73"/>
     </g>
    </g>
   </g>
   <g id="text_18">
    <!-- RS -->
    <defs>
     <path d="M 44.390625 34.1875 
Q 47.5625 33.109375 50.5625 29.59375 
Q 53.5625 26.078125 56.59375 19.921875 
L 66.609375 0 
L 56 0 
L 46.6875 18.703125 
Q 43.0625 26.03125 39.671875 28.421875 
Q 36.28125 30.8125 30.421875 30.8125 
L 19.671875 30.8125 
L 19.671875 0 
L 9.8125 0 
L 9.8125 72.90625 
L 32.078125 72.90625 
Q 44.578125 72.90625 50.734375 67.671875 
Q 56.890625 62.453125 56.890625 51.90625 
Q 56.890625 45.015625 53.6875 40.46875 
Q 50.484375 35.9375 44.390625 34.1875 
M 19.671875 64.796875 
L 19.671875 38.921875 
L 32.078125 38.921875 
Q 39.203125 38.921875 42.84375 42.21875 
Q 46.484375 45.515625 46.484375 51.90625 
Q 46.484375 58.296875 42.84375 61.546875 
Q 39.203125 64.796875 32.078125 64.796875 
z
" id="BitstreamVeraSans-Roman-52"/>
     <path d="M 53.515625 70.515625 
L 53.515625 60.890625 
Q 47.90625 63.578125 42.921875 64.890625 
Q 37.9375 66.21875 33.296875 66.21875 
Q 25.25 66.21875 20.875 63.09375 
Q 16.5 59.96875 16.5 54.203125 
Q 16.5 49.359375 19.40625 46.890625 
Q 22.3125 44.4375 30.421875 42.921875 
L 36.375 41.703125 
Q 47.40625 39.59375 52.65625 34.296875 
Q 57.90625 29 57.90625 20.125 
Q 57.90625 9.515625 50.796875 4.046875 
Q 43.703125 -1.421875 29.984375 -1.421875 
Q 24.8125 -1.421875 18.96875 -0.25 
Q 13.140625 0.921875 6.890625 3.21875 
L 6.890625 13.375 
Q 12.890625 10.015625 18.65625 8.296875 
Q 24.421875 6.59375 29.984375 6.59375 
Q 38.421875 6.59375 43.015625 9.90625 
Q 47.609375 13.234375 47.609375 19.390625 
Q 47.609375 24.75 44.3125 27.78125 
Q 41.015625 30.8125 33.5 32.328125 
L 27.484375 33.5 
Q 16.453125 35.6875 11.515625 40.375 
Q 6.59375 45.0625 6.59375 53.421875 
Q 6.59375 63.09375 13.40625 68.65625 
Q 20.21875 74.21875 32.171875 74.21875 
Q 37.3125 74.21875 42.625 73.28125 
Q 47.953125 72.359375 53.515625 70.515625 
" id="BitstreamVeraSans-Roman-53"/>
    </defs>
    <g transform="translate(492.0 373.331748144)scale(0.15 -0.15)">
     <use xlink:href="#BitstreamVeraSans-Roman-52"/>
     <use x="69.482421875" xlink:href="#BitstreamVeraSans-Roman-53"/>
    </g>
   </g>
   <g id="text_19">
    <!-- best 2009 -->
    <defs>
     <path d="M 10.984375 1.515625 
L 10.984375 10.5 
Q 14.703125 8.734375 18.5 7.8125 
Q 22.3125 6.890625 25.984375 6.890625 
Q 35.75 6.890625 40.890625 13.453125 
Q 46.046875 20.015625 46.78125 33.40625 
Q 43.953125 29.203125 39.59375 26.953125 
Q 35.25 24.703125 29.984375 24.703125 
Q 19.046875 24.703125 12.671875 31.3125 
Q 6.296875 37.9375 6.296875 49.421875 
Q 6.296875 60.640625 12.9375 67.421875 
Q 19.578125 74.21875 30.609375 74.21875 
Q 43.265625 74.21875 49.921875 64.515625 
Q 56.59375 54.828125 56.59375 36.375 
Q 56.59375 19.140625 48.40625 8.859375 
Q 40.234375 -1.421875 26.421875 -1.421875 
Q 22.703125 -1.421875 18.890625 -0.6875 
Q 15.09375 0.046875 10.984375 1.515625 
M 30.609375 32.421875 
Q 37.25 32.421875 41.125 36.953125 
Q 45.015625 41.5 45.015625 49.421875 
Q 45.015625 57.28125 41.125 61.84375 
Q 37.25 66.40625 30.609375 66.40625 
Q 23.96875 66.40625 20.09375 61.84375 
Q 16.21875 57.28125 16.21875 49.421875 
Q 16.21875 41.5 20.09375 36.953125 
Q 23.96875 32.421875 30.609375 32.421875 
" id="BitstreamVeraSans-Roman-39"/>
     <path d="M 48.6875 27.296875 
Q 48.6875 37.203125 44.609375 42.84375 
Q 40.53125 48.484375 33.40625 48.484375 
Q 26.265625 48.484375 22.1875 42.84375 
Q 18.109375 37.203125 18.109375 27.296875 
Q 18.109375 17.390625 22.1875 11.75 
Q 26.265625 6.109375 33.40625 6.109375 
Q 40.53125 6.109375 44.609375 11.75 
Q 48.6875 17.390625 48.6875 27.296875 
M 18.109375 46.390625 
Q 20.953125 51.265625 25.265625 53.625 
Q 29.59375 56 35.59375 56 
Q 45.5625 56 51.78125 48.09375 
Q 58.015625 40.1875 58.015625 27.296875 
Q 58.015625 14.40625 51.78125 6.484375 
Q 45.5625 -1.421875 35.59375 -1.421875 
Q 29.59375 -1.421875 25.265625 0.953125 
Q 20.953125 3.328125 18.109375 8.203125 
L 18.109375 0 
L 9.078125 0 
L 9.078125 75.984375 
L 18.109375 75.984375 
z
" id="BitstreamVeraSans-Roman-62"/>
    </defs>
    <g transform="translate(492.0 44.8406590347)scale(0.15 -0.15)">
     <use xlink:href="#BitstreamVeraSans-Roman-62"/>
     <use x="63.4765625" xlink:href="#BitstreamVeraSans-Roman-65"/>
     <use x="125.0" xlink:href="#BitstreamVeraSans-Roman-73"/>
     <use x="177.099609375" xlink:href="#BitstreamVeraSans-Roman-74"/>
     <use x="216.30859375" xlink:href="#BitstreamVeraSans-Roman-20"/>
     <use x="248.095703125" xlink:href="#BitstreamVeraSans-Roman-32"/>
     <use x="311.71875" xlink:href="#BitstreamVeraSans-Roman-30"/>
     <use x="375.341796875" xlink:href="#BitstreamVeraSans-Roman-30"/>
     <use x="438.96484375" xlink:href="#BitstreamVeraSans-Roman-39"/>
    </g>
   </g>
   <g id="text_20">
    <!-- bbob - f9, 3-D -->
    <defs>
     <path d="M 11.71875 12.40625 
L 22.015625 12.40625 
L 22.015625 4 
L 14.015625 -11.625 
L 7.71875 -11.625 
L 11.71875 4 
z
" id="BitstreamVeraSans-Roman-2c"/>
     <path d="M 19.671875 64.796875 
L 19.671875 8.109375 
L 31.59375 8.109375 
Q 46.6875 8.109375 53.6875 14.9375 
Q 60.6875 21.78125 60.6875 36.53125 
Q 60.6875 51.171875 53.6875 57.984375 
Q 46.6875 64.796875 31.59375 64.796875 
z
M 9.8125 72.90625 
L 30.078125 72.90625 
Q 51.265625 72.90625 61.171875 64.09375 
Q 71.09375 55.28125 71.09375 36.53125 
Q 71.09375 17.671875 61.125 8.828125 
Q 51.171875 0 30.078125 0 
L 9.8125 0 
z
" id="BitstreamVeraSans-Roman-44"/>
    </defs>
    <g transform="translate(89.664 50.007246875)scale(0.1666 -0.1666)">
     <use xlink:href="#BitstreamVeraSans-Roman-62"/>
     <use x="63.4765625" xlink:href="#BitstreamVeraSans-Roman-62"/>
     <use x="126.953125" xlink:href="#BitstreamVeraSans-Roman-6f"/>
     <use x="188.134765625" xlink:href="#BitstreamVeraSans-Roman-62"/>
     <use x="251.611328125" xlink:href="#BitstreamVeraSans-Roman-20"/>
     <use x="283.3984375" xlink:href="#BitstreamVeraSans-Roman-2d"/>
     <use x="319.482421875" xlink:href="#BitstreamVeraSans-Roman-20"/>
     <use x="351.26953125" xlink:href="#BitstreamVeraSans-Roman-66"/>
     <use x="386.474609375" xlink:href="#BitstreamVeraSans-Roman-39"/>
     <use x="450.09765625" xlink:href="#BitstreamVeraSans-Roman-2c"/>
     <use x="481.884765625" xlink:href="#BitstreamVeraSans-Roman-20"/>
     <use x="513.671875" xlink:href="#BitstreamVeraSans-Roman-33"/>
     <use x="577.294921875" xlink:href="#BitstreamVeraSans-Roman-2d"/>
     <use x="613.37890625" xlink:href="#BitstreamVeraSans-Roman-44"/>
    </g>
    <!-- 51 targets in 100..1e-08 -->
    <g transform="translate(89.664 68.6628025)scale(0.1666 -0.1666)">
     <use xlink:href="#BitstreamVeraSans-Roman-35"/>
     <use x="63.623046875" xlink:href="#BitstreamVeraSans-Roman-31"/>
     <use x="127.24609375" xlink:href="#BitstreamVeraSans-Roman-20"/>
     <use x="159.033203125" xlink:href="#BitstreamVeraSans-Roman-74"/>
     <use x="198.2421875" xlink:href="#BitstreamVeraSans-Roman-61"/>
     <use x="259.521484375" xlink:href="#BitstreamVeraSans-Roman-72"/>
     <use x="300.619140625" xlink:href="#BitstreamVeraSans-Roman-67"/>
     <use x="364.095703125" xlink:href="#BitstreamVeraSans-Roman-65"/>
     <use x="425.619140625" xlink:href="#BitstreamVeraSans-Roman-74"/>
     <use x="464.828125" xlink:href="#BitstreamVeraSans-Roman-73"/>
     <use x="516.927734375" xlink:href="#BitstreamVeraSans-Roman-20"/>
     <use x="548.71484375" xlink:href="#BitstreamVeraSans-Roman-69"/>
     <use x="576.498046875" xlink:href="#BitstreamVeraSans-Roman-6e"/>
     <use x="639.876953125" xlink:href="#BitstreamVeraSans-Roman-20"/>
     <use x="671.6640625" xlink:href="#BitstreamVeraSans-Roman-31"/>
     <use x="735.287109375" xlink:href="#BitstreamVeraSans-Roman-30"/>
     <use x="798.91015625" xlink:href="#BitstreamVeraSans-Roman-30"/>
     <use x="862.533203125" xlink:href="#BitstreamVeraSans-Roman-2e"/>
     <use x="894.3203125" xlink:href="#BitstreamVeraSans-Roman-2e"/>
     <use x="926.107421875" xlink:href="#BitstreamVeraSans-Roman-31"/>
     <use x="989.73046875" xlink:href="#BitstreamVeraSans-Roman-65"/>
     <use x="1051.25390625" xlink:href="#BitstreamVeraSans-Roman-2d"/>
     <use x="1087.33789062" xlink:href="#BitstreamVeraSans-Roman-30"/>
     <use x="1150.9609375" xlink:href="#BitstreamVeraSans-Roman-38"/>
    </g>
    <!-- 15 instances -->
    <g transform="translate(89.664 87.318358125)scale(0.1666 -0.1666)">
     <use xlink:href="#BitstreamVeraSans-Roman-31"/>
     <use x="63.623046875" xlink:href="#BitstreamVeraSans-Roman-35"/>
     <use x="127.24609375" xlink:href="#BitstreamVeraSans-Roman-20"/>
     <use x="159.033203125" xlink:href="#BitstreamVeraSans-Roman-69"/>
     <use x="186.81640625" xlink:href="#BitstreamVeraSans-Roman-6e"/>
     <use x="250.1953125" xlink:href="#BitstreamVeraSans-Roman-73"/>
     <use x="302.294921875" xlink:href="#BitstreamVeraSans-Roman-74"/>
     <use x="341.50390625" xlink:href="#BitstreamVeraSans-Roman-61"/>
     <use x="402.783203125" xlink:href="#BitstreamVeraSans-Roman-6e"/>
     <use x="466.162109375" xlink:href="#BitstreamVeraSans-Roman-63"/>
     <use x="521.142578125" xlink:href="#BitstreamVeraSans-Roman-65"/>
     <use x="582.666015625" xlink:href="#BitstreamVeraSans-Roman-73"/>
    </g>
   </g>
   <g id="text_21">
    <!-- 0.0.0 -->
    <g style="fill:#808080;" transform="translate(295.678125 370.5005625)scale(0.1 -0.1)">
     <use xlink:href="#BitstreamVeraSans-Roman-30"/>
     <use x="63.623046875" xlink:href="#BitstreamVeraSans-Roman-2e"/>
     <use x="95.41015625" xlink:href="#BitstreamVeraSans-Roman-30"/>
     <use x="159.033203125" xlink:href="#BitstreamVeraSans-Roman-2e"/>
     <use x="190.8203125" xlink:href="#BitstreamVeraSans-Roman-30"/>
    </g>
   </g>
   <g id="text_22">
    <!-- 9 Rosenbrock rotated -->
    <defs>
     <path d="M 9.078125 75.984375 
L 18.109375 75.984375 
L 18.109375 31.109375 
L 44.921875 54.6875 
L 56.390625 54.6875 
L 27.390625 29.109375 
L 57.625 0 
L 45.90625 0 
L 18.109375 26.703125 
L 18.109375 0 
L 9.078125 0 
z
" id="BitstreamVeraSans-Roman-6b"/>
    </defs>
    <g transform="translate(178.75125 25.43625)scale(0.24 -0.24)">
     <use xlink:href="#BitstreamVeraSans-Roman-39"/>
     <use x="63.623046875" xlink:href="#BitstreamVeraSans-Roman-20"/>
     <use x="95.41015625" xlink:href="#BitstreamVeraSans-Roman-52"/>
     <use x="164.830078125" xlink:href="#BitstreamVeraSans-Roman-6f"/>
     <use x="226.01171875" xlink:href="#BitstreamVeraSans-Roman-73"/>
     <use x="278.111328125" xlink:href="#BitstreamVeraSans-Roman-65"/>
     <use x="339.634765625" xlink:href="#BitstreamVeraSans-Roman-6e"/>
     <use x="403.013671875" xlink:href="#BitstreamVeraSans-Roman-62"/>
     <use x="466.490234375" xlink:href="#BitstreamVeraSans-Roman-72"/>
     <use x="507.572265625" xlink:href="#BitstreamVeraSans-Roman-6f"/>
     <use x="568.75390625" xlink:href="#BitstreamVeraSans-Roman-63"/>
     <use x="623.734375" xlink:href="#BitstreamVeraSans-Roman-6b"/>
     <use x="681.64453125" xlink:href="#BitstreamVeraSans-Roman-20"/>
     <use x="713.431640625" xlink:href="#BitstreamVeraSans-Roman-72"/>
     <use x="754.513671875" xlink:href="#BitstreamVeraSans-Roman-6f"/>
     <use x="815.6953125" xlink:href="#BitstreamVeraSans-Roman-74"/>
     <use x="854.904296875" xlink:href="#BitstreamVeraSans-Roman-61"/>
     <use x="916.18359375" xlink:href="#BitstreamVeraSans-Roman-74"/>
     <use x="955.392578125" xlink:href="#BitstreamVeraSans-Roman-65"/>
     <use x="1016.91601562" xlink:href="#BitstreamVeraSans-Roman-64"/>
    </g>
   </g>
  </g>
 </g>
 <defs>
  <clipPath id="p4a1578bf15">
   <rect height="345.6" width="446.4" x="85.2" y="30.43625"/>
  </clipPath>
 </defs>
</svg>
