<?xml version="1.0" encoding="utf-8" standalone="no"?>
<!DOCTYPE svg PUBLIC "-//W3C//DTD SVG 1.1//EN"
  "http://www.w3.org/Graphics/SVG/1.1/DTD/svg11.dtd">
<!-- Created with matplotlib (http://matplotlib.org/) -->
<svg height="432pt" version="1.1" viewBox="0 0 574 432" width="574pt" xmlns="http://www.w3.org/2000/svg" xmlns:xlink="http://www.w3.org/1999/xlink">
 <defs>
  <style type="text/css">
*{stroke-linecap:butt;stroke-linejoin:round;stroke-miterlimit:100000;}
  </style>
 </defs>
 <g id="figure_1">
  <g id="patch_1">
   <path d="M 0 432.43625 
L 574.589062 432.43625 
L 574.589062 0 
L 0 0 
z
" style="fill:#ffffff;"/>
  </g>
  <g id="axes_1">
   <g id="patch_2">
    <path d="M 85.2 376.03625 
L 531.6 376.03625 
L 531.6 30.43625 
L 85.2 30.43625 
z
" style="fill:#ffffff;"/>
   </g>
   <g id="line2d_1">
    <path d="M 141.342872 376.03625 
L 141.342872 375.365312 
L 146.632166 375.365312 
L 146.632166 374.023437 
L 149.063765 374.023437 
L 149.063765 372.681562 
L 154.44101 372.681562 
L 154.44101 372.010624 
L 154.889222 372.010624 
L 154.889222 371.339686 
L 157.404581 371.339686 
L 157.404581 369.997811 
L 157.754258 369.997811 
L 157.754258 369.326873 
L 159.545359 369.326873 
L 159.545359 368.655935 
L 160.293213 368.655935 
L 160.293213 367.31406 
L 161.20343 367.31406 
L 161.20343 366.643122 
L 162.006414 366.643122 
L 162.006414 365.972185 
L 162.502771 365.972185 
L 162.502771 365.301247 
L 162.954001 365.301247 
L 162.954001 363.959372 
L 163.463571 363.959372 
L 163.463571 363.288434 
L 165.30037 363.288434 
L 165.30037 361.946559 
L 166.446014 361.946559 
L 166.446014 361.275621 
L 167.054796 361.275621 
L 167.054796 360.604683 
L 167.197331 360.604683 
L 167.197331 359.933746 
L 167.924196 359.933746 
L 167.924196 359.262808 
L 168.62815 359.262808 
L 168.62815 357.920933 
L 168.866747 357.920933 
L 168.866747 357.249995 
L 169.439474 357.249995 
L 169.49082 354.566244 
L 169.618669 354.566244 
L 169.618669 353.895306 
L 169.74579 353.895306 
L 169.74579 352.553431 
L 170.370765 352.553431 
L 170.370765 351.882493 
L 170.834318 351.882493 
L 170.834318 351.211556 
L 171.617255 351.211556 
L 171.640557 349.86968 
L 171.84919 349.86968 
L 171.84919 349.198743 
L 172.508494 349.198743 
L 172.5756 346.514992 
L 173.665336 346.514992 
L 173.665336 345.173117 
L 174.065882 345.173117 
L 174.1493 343.831241 
L 174.190893 343.831241 
L 174.190893 343.160304 
L 174.56178 343.160304 
L 174.56178 342.489366 
L 175.006879 342.489366 
L 175.006879 341.818428 
L 175.226146 341.818428 
L 175.226146 340.476553 
L 175.794102 340.476553 
L 175.890583 338.46374 
L 176.38567 338.46374 
L 176.404494 336.450927 
L 176.888441 336.450927 
L 176.888441 335.779989 
L 177.235579 335.779989 
L 177.235579 335.109051 
L 177.861255 335.109051 
L 177.949223 332.425301 
L 178.036846 332.425301 
L 178.036846 331.754363 
L 178.911501 331.754363 
L 178.911501 331.083425 
L 179.295018 331.083425 
L 179.295018 330.412488 
L 179.49253 330.412488 
L 179.49253 329.070612 
L 179.704548 329.070612 
L 179.704548 328.399675 
L 180.265561 328.399675 
L 180.265561 327.728737 
L 180.688914 327.728737 
L 180.797375 326.386862 
L 180.859117 326.386862 
L 180.905312 323.703111 
L 181.587007 323.703111 
L 181.661482 322.361235 
L 181.986256 322.361235 
L 181.986256 321.690298 
L 182.848724 321.690298 
L 182.848724 319.006547 
L 183.433228 319.006547 
L 183.433228 318.335609 
L 183.881986 318.335609 
L 183.881986 317.664672 
L 184.519038 317.664672 
L 184.519038 315.651859 
L 184.753325 315.651859 
L 184.843777 313.639046 
L 185.02359 313.639046 
L 185.049159 311.626233 
L 186.279612 311.626233 
L 186.279612 310.955295 
L 186.80545 310.955295 
L 186.80545 310.284357 
L 187.249829 310.284357 
L 187.249829 308.942482 
L 188.09062 308.942482 
L 188.09062 308.271544 
L 188.389682 308.271544 
L 188.389682 306.929669 
L 188.619548 306.929669 
L 188.619548 305.587793 
L 189.305848 305.587793 
L 189.379648 304.245918 
L 189.858649 304.245918 
L 189.858649 302.233105 
L 190.277094 302.233105 
L 190.357836 299.549354 
L 191.013047 299.549354 
L 191.042378 298.207479 
L 191.592461 298.207479 
L 191.592461 296.865604 
L 192.259231 296.865604 
L 192.259231 295.523728 
L 192.960535 295.523728 
L 192.960535 294.85279 
L 193.316339 294.85279 
L 193.316339 294.181853 
L 193.439544 294.181853 
L 193.535872 292.839977 
L 194.577287 292.839977 
L 194.577287 290.827164 
L 194.916645 290.827164 
L 194.933068 289.485289 
L 195.643975 289.485289 
L 195.643975 288.143414 
L 195.928403 288.143414 
L 195.928403 286.801538 
L 196.178222 286.801538 
L 196.178222 285.459663 
L 196.555422 285.459663 
L 196.555422 283.44685 
L 196.790811 283.44685 
L 196.790811 282.775912 
L 196.97885 282.775912 
L 196.97885 282.104975 
L 197.511722 282.104975 
L 197.511722 281.434037 
L 198.428752 281.434037 
L 198.428752 280.763099 
L 198.983347 280.763099 
L 199.017556 278.750286 
L 199.235262 278.750286 
L 199.235262 277.408411 
L 199.370259 277.408411 
L 199.370259 276.737473 
L 199.987493 276.737473 
L 200.04633 275.395598 
L 200.28014 275.395598 
L 200.389705 272.711847 
L 200.65176 272.711847 
L 200.65176 271.369972 
L 200.917056 271.369972 
L 200.917056 270.028096 
L 201.054773 270.028096 
L 201.054773 269.357159 
L 201.253585 269.357159 
L 201.253585 268.686221 
L 201.554627 268.686221 
L 201.554627 268.015283 
L 201.845643 268.015283 
L 201.911804 266.00247 
L 201.995725 266.00247 
L 202.019645 263.989657 
L 202.481034 263.989657 
L 202.49274 261.976844 
L 202.632736 261.976844 
L 202.702406 259.964031 
L 202.78919 259.964031 
L 202.835337 258.622156 
L 202.944555 258.622156 
L 202.944555 257.28028 
L 203.178433 257.28028 
L 203.178433 256.609343 
L 203.460375 256.609343 
L 203.460375 255.267467 
L 203.611157 255.267467 
L 203.611157 253.925592 
L 203.915192 253.925592 
L 203.915192 253.254654 
L 204.166335 253.254654 
L 204.204306 251.241841 
L 204.596491 251.241841 
L 204.596491 250.570903 
L 204.797948 250.570903 
L 204.813776 247.216215 
L 205.028967 247.216215 
L 205.028967 245.87434 
L 205.242106 245.87434 
L 205.329887 243.190589 
L 205.859518 243.190589 
L 205.91481 241.177776 
L 206.004992 241.177776 
L 206.099791 239.835901 
L 206.124672 239.835901 
L 206.199147 238.494025 
L 206.357203 238.494025 
L 206.421095 236.481212 
L 206.737841 236.481212 
L 206.757188 234.468399 
L 206.973685 234.468399 
L 207.021512 232.455586 
L 207.221274 232.455586 
L 207.244936 230.442773 
L 207.386388 230.442773 
L 207.489553 228.42996 
L 207.587586 228.42996 
L 207.587586 227.759022 
L 207.740774 227.759022 
L 207.833106 226.417147 
L 207.911289 226.417147 
L 207.998348 223.733396 
L 208.166916 223.733396 
L 208.166916 222.391521 
L 208.433109 222.391521 
L 208.527096 217.694957 
L 208.544953 217.694957 
L 208.544953 217.024019 
L 208.696167 217.024019 
L 208.780226 212.998393 
L 208.811115 212.998393 
L 208.841961 211.656518 
L 208.943016 211.656518 
L 208.943016 210.98558 
L 209.12203 210.98558 
L 209.217498 206.959954 
L 209.411511 206.959954 
L 209.411511 206.289016 
L 209.764997 206.289016 
L 209.798774 204.276203 
L 209.958522 204.276203 
L 210.021267 198.237764 
L 210.121294 198.237764 
L 210.212593 195.554014 
L 210.27463 195.554014 
L 210.278759 194.212138 
L 210.39408 194.212138 
L 210.504721 192.199325 
L 210.508809 192.199325 
L 210.59447 188.844637 
L 210.937877 188.844637 
L 211.025905 185.489948 
L 211.200928 185.489948 
L 211.287927 182.13526 
L 211.500046 182.13526 
L 211.54301 180.793385 
L 211.68692 180.793385 
L 211.76046 177.438696 
L 211.818349 177.438696 
L 211.818349 175.425883 
L 211.937511 175.425883 
L 211.994942 171.400257 
L 212.143577 171.400257 
L 212.143577 170.729319 
L 212.310089 170.729319 
L 212.407901 165.361818 
L 212.434163 165.361818 
L 212.475368 164.019942 
L 212.669134 164.019942 
L 212.761696 161.336192 
L 212.791235 161.336192 
L 212.897987 159.994316 
L 213.069924 159.994316 
L 213.109974 157.310566 
L 213.305548 157.310566 
L 213.327173 155.96869 
L 213.417053 155.96869 
L 213.417053 155.297753 
L 213.549415 155.297753 
L 213.652613 152.614002 
L 213.730584 152.614002 
L 213.730584 151.943064 
L 213.85407 151.943064 
L 213.927836 148.588376 
L 214.133788 148.588376 
L 214.133788 147.917438 
L 214.344743 147.917438 
L 214.344743 147.2465 
L 214.471735 147.2465 
L 214.533255 145.233687 
L 214.808017 145.233687 
L 214.8955 142.549937 
L 214.939114 142.549937 
L 214.965911 141.208061 
L 215.07944 141.208061 
L 215.07944 139.866186 
L 215.32785 139.866186 
L 215.373915 135.169622 
L 215.651577 135.169622 
L 215.687259 133.156809 
L 215.768142 133.156809 
L 215.842297 131.814934 
L 215.887315 131.814934 
L 215.929036 130.473058 
L 215.999463 130.473058 
L 215.999463 129.802121 
L 216.149183 129.802121 
L 216.222085 127.11837 
L 216.263186 127.11837 
L 216.263186 126.447432 
L 216.420565 126.447432 
L 216.483208 125.105557 
L 216.741312 125.105557 
L 216.815393 122.421806 
L 216.90151 122.421806 
L 216.965881 119.738055 
L 217.075801 119.738055 
L 217.176088 117.054305 
L 217.191244 117.054305 
L 217.209418 115.041492 
L 217.336219 115.041492 
L 217.426353 113.699616 
L 217.501188 113.699616 
L 217.548951 111.015866 
L 217.623377 111.015866 
L 217.626348 109.003053 
L 217.747856 109.003053 
L 217.824569 102.964613 
L 217.921557 102.964613 
L 217.985982 101.622738 
L 218.041474 101.622738 
L 218.056054 97.597112 
L 218.19554 97.597112 
L 218.262069 95.584299 
L 218.322641 95.584299 
L 218.322641 93.571486 
L 218.446159 93.571486 
L 218.523369 90.887735 
L 218.69683 90.887735 
L 218.69683 89.54586 
L 218.871765 89.54586 
L 218.871765 88.203984 
L 218.9867 88.203984 
L 219.034183 86.191171 
L 219.151063 86.191171 
L 219.151063 85.520234 
L 219.325244 85.520234 
L 219.432394 83.507421 
L 219.470733 83.507421 
L 219.558118 81.494608 
L 219.617998 81.494608 
L 219.693977 79.481795 
L 219.758897 79.481795 
L 219.807463 78.139919 
L 219.915012 78.139919 
L 219.979294 73.443355 
L 220.027384 73.443355 
L 220.123254 70.088667 
L 220.165732 70.088667 
L 220.202833 68.075854 
L 220.292681 68.075854 
L 220.374288 66.733979 
L 220.439883 66.733979 
L 220.452979 65.392103 
L 220.617333 65.392103 
L 220.658882 64.050228 
L 220.780487 64.050228 
L 220.860334 62.037415 
L 220.962942 62.037415 
L 221.019176 60.024602 
L 221.131221 60.024602 
L 221.131221 59.353664 
L 221.242707 59.353664 
L 221.32344 56.669913 
L 221.598753 56.669913 
L 221.695555 55.328038 
L 221.787006 55.328038 
L 221.89282 53.315225 
L 221.92226 53.315225 
L 221.92226 52.644287 
L 222.064008 52.644287 
L 222.064008 51.302412 
L 222.241147 51.302412 
L 222.250813 49.289599 
L 222.555546 49.289599 
L 222.555546 48.618661 
L 222.683868 48.618661 
L 222.792601 44.593035 
L 223.127278 44.593035 
L 223.129601 41.909284 
L 223.270838 41.909284 
L 223.270838 41.238347 
L 223.399717 41.238347 
L 223.399717 40.567409 
L 223.546103 40.567409 
L 223.580274 37.212721 
L 224.653527 37.212721 
L 224.701205 35.870845 
L 225.848905 35.870845 
L 225.848905 35.199908 
L 226.409394 35.199908 
L 226.409394 34.52897 
L 226.965945 34.52897 
L 226.965945 33.858032 
L 445.2 33.858032 
L 445.2 33.858032 
" style="fill:none;stroke:#f5deb3;stroke-linecap:square;stroke-width:6.0;"/>
   </g>
   <g id="line2d_2"/>
   <g id="line2d_3">
    <path d="M 445.2 33.858032 
L 484.8 40.701597 
" style="fill:none;stroke:#f5deb3;stroke-linecap:square;stroke-width:6.0;"/>
    <defs>
     <path d="M -0 7.778175 
L 7.778175 0 
L 0 -7.778175 
L -7.778175 -0 
z
" id="m34fca14b92" style="stroke:#f5deb3;stroke-linejoin:miter;stroke-width:1.5;"/>
    </defs>
    <g>
     <use style="fill:#f5deb3;stroke:#f5deb3;stroke-linejoin:miter;stroke-width:1.5;" x="445.2" xlink:href="#m34fca14b92" y="33.8580321782"/>
     <use style="fill:#f5deb3;stroke:#f5deb3;stroke-linejoin:miter;stroke-width:1.5;" x="484.8" xlink:href="#m34fca14b92" y="40.7015965347"/>
    </g>
   </g>
   <g id="line2d_4">
    <defs>
     <path d="M 0 1.5 
C 0.397805 1.5 0.77937 1.341951 1.06066 1.06066 
C 1.341951 0.77937 1.5 0.397805 1.5 0 
C 1.5 -0.397805 1.341951 -0.77937 1.06066 -1.06066 
C 0.77937 -1.341951 0.397805 -1.5 0 -1.5 
C -0.397805 -1.5 -0.77937 -1.341951 -1.06066 -1.06066 
C -1.341951 -0.77937 -1.5 -0.397805 -1.5 0 
C -1.5 0.397805 -1.341951 0.77937 -1.06066 1.06066 
C -0.77937 1.341951 -0.397805 1.5 0 1.5 
z
" id="mf89b9e2920" style="stroke:#f5deb3;stroke-width:0.5;"/>
    </defs>
    <g>
     <use style="fill:#f5deb3;stroke:#f5deb3;stroke-width:0.5;" x="226.965945069" xlink:href="#mf89b9e2920" y="33.8580321782"/>
     <use style="fill:#f5deb3;stroke:#f5deb3;stroke-width:0.5;" x="226.965945069" xlink:href="#mf89b9e2920" y="33.8580321782"/>
    </g>
   </g>
   <g id="line2d_5">
    <g>
     <use style="fill:#f5deb3;stroke:#f5deb3;stroke-linejoin:miter;stroke-width:1.5;" x="207.961733209" xlink:href="#m34fca14b92" y="225.075271549"/>
     <use style="fill:#f5deb3;stroke:#f5deb3;stroke-linejoin:miter;stroke-width:1.5;" x="221.01917593" xlink:href="#m34fca14b92" y="60.6955394584"/>
     <use style="fill:#f5deb3;stroke:#f5deb3;stroke-linejoin:miter;stroke-width:1.5;" x="226.965945069" xlink:href="#m34fca14b92" y="33.8580321782"/>
     <use style="fill:#f5deb3;stroke:#f5deb3;stroke-linejoin:miter;stroke-width:1.5;" x="226.965945069" xlink:href="#m34fca14b92" y="33.8580321782"/>
     <use style="fill:#f5deb3;stroke:#f5deb3;stroke-linejoin:miter;stroke-width:1.5;" x="445.2" xlink:href="#m34fca14b92" y="33.8580321782"/>
    </g>
   </g>
   <g id="line2d_6">
    <defs>
     <path d="M 0 1.5 
C 0.397805 1.5 0.77937 1.341951 1.06066 1.06066 
C 1.341951 0.77937 1.5 0.397805 1.5 0 
C 1.5 -0.397805 1.341951 -0.77937 1.06066 -1.06066 
C 0.77937 -1.341951 0.397805 -1.5 0 -1.5 
C -0.397805 -1.5 -0.77937 -1.341951 -1.06066 -1.06066 
C -1.341951 -0.77937 -1.5 -0.397805 -1.5 0 
C -1.5 0.397805 -1.341951 0.77937 -1.06066 1.06066 
C -0.77937 1.341951 -0.397805 1.5 0 1.5 
z
" id="m067a6cee9c" style="stroke:#000080;stroke-width:0.5;"/>
    </defs>
    <g>
     <use style="fill:#000080;stroke:#000080;stroke-width:0.5;" x="293.231192769" xlink:href="#m067a6cee9c" y="33.8580321782"/>
     <use style="fill:#000080;stroke:#000080;stroke-width:0.5;" x="293.231192769" xlink:href="#m067a6cee9c" y="33.8580321782"/>
    </g>
   </g>
   <g id="line2d_7">
    <path d="M 199.967846 376.03625 
L 199.967846 375.365312 
L 202.609464 375.365312 
L 202.609464 374.694375 
L 205.345342 374.694375 
L 205.345342 373.352499 
L 206.853668 373.352499 
L 206.853668 372.681562 
L 207.03584 372.681562 
L 207.03584 372.010624 
L 207.150135 372.010624 
L 207.150135 369.997811 
L 208.544953 369.997811 
L 208.544953 369.326873 
L 209.174154 369.326873 
L 209.174154 367.984998 
L 210.262236 367.984998 
L 210.262236 367.31406 
L 210.957914 367.31406 
L 210.957914 366.643122 
L 211.503955 366.643122 
L 211.601463 365.301247 
L 211.663646 365.301247 
L 211.663646 363.288434 
L 211.945177 363.288434 
L 211.945177 361.275621 
L 213.348777 361.275621 
L 213.348777 360.604683 
L 213.983875 360.604683 
L 214.053727 358.59187 
L 214.330971 358.59187 
L 214.330971 357.249995 
L 214.451191 357.249995 
L 214.451191 355.90812 
L 214.975951 355.90812 
L 214.975951 355.237182 
L 215.664559 355.237182 
L 215.664559 353.895306 
L 216.199923 353.895306 
L 216.199923 352.553431 
L 216.370324 352.553431 
L 216.470693 351.211556 
L 217.033119 351.211556 
L 217.033119 350.540618 
L 218.175252 350.540618 
L 218.175252 349.86968 
L 218.722309 349.86968 
L 218.787291 347.18593 
L 219.462523 347.18593 
L 219.462523 346.514992 
L 219.598963 346.514992 
L 219.598963 345.844054 
L 220.205481 345.844054 
L 220.205481 345.173117 
L 220.497448 345.173117 
L 220.497448 344.502179 
L 221.28311 344.502179 
L 221.28311 343.831241 
L 221.653411 343.831241 
L 221.695555 342.489366 
L 222.849122 342.489366 
L 222.882027 339.805615 
L 223.003821 339.805615 
L 223.003821 339.134677 
L 223.124955 339.134677 
L 223.215376 337.792802 
L 223.486749 337.792802 
L 223.486749 337.121864 
L 224.592698 337.121864 
L 224.655696 335.109051 
L 225.042797 335.109051 
L 225.127916 333.767176 
L 225.588277 333.767176 
L 225.588277 333.096238 
L 225.951492 333.096238 
L 225.951492 331.754363 
L 226.463477 331.754363 
L 226.463477 331.083425 
L 226.779335 331.083425 
L 226.779335 329.74155 
L 226.952248 329.74155 
L 226.983543 328.399675 
L 227.102456 328.399675 
L 227.102456 327.057799 
L 227.562356 327.057799 
L 227.562356 326.386862 
L 228.21736 326.386862 
L 228.21736 325.715924 
L 228.567859 325.715924 
L 228.567859 325.044986 
L 229.036307 325.044986 
L 229.036307 323.703111 
L 229.164313 323.703111 
L 229.164313 323.032173 
L 229.360229 323.032173 
L 229.360229 322.361235 
L 229.606642 322.361235 
L 229.714139 321.01936 
L 229.753886 321.01936 
L 229.783219 318.335609 
L 230.086358 318.335609 
L 230.086358 317.664672 
L 230.252444 317.664672 
L 230.252444 316.322796 
L 230.472546 316.322796 
L 230.472546 315.651859 
L 231.068097 315.651859 
L 231.068097 314.980921 
L 231.640248 314.980921 
L 231.640248 314.309983 
L 231.867579 314.309983 
L 231.873861 312.968108 
L 232.15163 312.968108 
L 232.15163 312.29717 
L 232.323113 312.29717 
L 232.323113 311.626233 
L 232.895899 311.626233 
L 232.945345 308.942482 
L 233.624877 308.942482 
L 233.624877 307.600606 
L 233.768149 307.600606 
L 233.878951 305.587793 
L 234.618724 305.587793 
L 234.678356 304.245918 
L 234.755779 304.245918 
L 234.755779 303.57498 
L 235.049198 303.57498 
L 235.049198 302.904043 
L 235.677755 302.904043 
L 235.677755 302.233105 
L 235.931903 302.233105 
L 235.99597 300.89123 
L 236.439365 300.89123 
L 236.439365 300.220292 
L 236.602601 300.220292 
L 236.602601 299.549354 
L 236.870363 299.549354 
L 236.870363 298.207479 
L 237.381726 298.207479 
L 237.381726 297.536541 
L 237.658548 297.536541 
L 237.658548 296.194666 
L 238.101342 296.194666 
L 238.101342 294.85279 
L 239.07092 294.85279 
L 239.16175 291.498102 
L 239.280407 291.498102 
L 239.352423 289.485289 
L 239.643734 289.485289 
L 239.643734 288.814351 
L 240.414269 288.814351 
L 240.492336 286.801538 
L 241.242877 286.801538 
L 241.335588 284.788725 
L 241.659107 284.788725 
L 241.767258 283.44685 
L 242.039849 283.44685 
L 242.039849 282.104975 
L 242.611202 282.104975 
L 242.611202 281.434037 
L 242.920714 281.434037 
L 242.920714 280.092161 
L 243.127544 280.092161 
L 243.127544 278.750286 
L 243.478649 278.750286 
L 243.478649 278.079348 
L 243.665586 278.079348 
L 243.665586 277.408411 
L 244.301063 277.408411 
L 244.301063 276.737473 
L 244.458934 276.737473 
L 244.458934 276.066535 
L 244.810118 276.066535 
L 244.822433 274.053722 
L 245.017684 274.053722 
L 245.017684 273.382785 
L 245.196547 273.382785 
L 245.196547 272.040909 
L 245.362832 272.040909 
L 245.362832 271.369972 
L 245.524481 271.369972 
L 245.524481 270.699034 
L 245.640927 270.699034 
L 245.640927 270.028096 
L 245.945728 270.028096 
L 245.945728 268.686221 
L 246.200999 268.686221 
L 246.271988 266.673408 
L 246.607357 266.673408 
L 246.711034 261.305906 
L 246.994488 261.305906 
L 246.994488 259.964031 
L 247.152711 259.964031 
L 247.171717 257.951218 
L 247.432996 257.951218 
L 247.515777 256.609343 
L 247.79542 256.609343 
L 247.79542 255.938405 
L 247.957261 255.938405 
L 247.95879 253.254654 
L 248.185367 253.254654 
L 248.185367 252.583717 
L 249.210708 252.583717 
L 249.22371 251.241841 
L 249.750376 251.241841 
L 249.750376 250.570903 
L 250.011912 250.570903 
L 250.064132 247.216215 
L 250.529378 247.216215 
L 250.529378 246.545277 
L 250.708473 246.545277 
L 250.767179 243.861527 
L 250.86334 243.861527 
L 250.88145 241.848714 
L 251.088997 241.848714 
L 251.158636 239.164963 
L 251.255767 239.164963 
L 251.329489 235.139337 
L 251.753247 235.139337 
L 251.807987 231.784648 
L 252.586078 231.784648 
L 252.586078 231.113711 
L 252.714915 231.113711 
L 252.714915 230.442773 
L 252.862655 230.442773 
L 252.862655 229.771835 
L 253.019175 229.771835 
L 253.019175 228.42996 
L 253.192144 228.42996 
L 253.300101 227.088085 
L 253.475693 227.088085 
L 253.475693 225.075272 
L 253.9178 225.075272 
L 254.011826 223.062459 
L 254.265637 223.062459 
L 254.265637 222.391521 
L 254.462975 222.391521 
L 254.464117 221.049645 
L 254.719644 221.049645 
L 254.804737 217.024019 
L 254.836774 217.024019 
L 254.946028 215.682144 
L 255.35968 215.682144 
L 255.453849 213.669331 
L 255.50024 213.669331 
L 255.536196 211.656518 
L 255.653463 211.656518 
L 255.745866 210.314643 
L 255.952518 210.314643 
L 255.95786 208.972767 
L 256.32447 208.972767 
L 256.401579 206.289016 
L 256.657221 206.289016 
L 256.657221 205.618079 
L 256.852568 205.618079 
L 256.852568 204.276203 
L 257.077234 204.276203 
L 257.176083 201.592453 
L 257.205906 201.592453 
L 257.205906 199.57964 
L 257.320778 199.57964 
L 257.320778 198.908702 
L 257.468037 198.908702 
L 257.507442 197.566827 
L 257.85212 197.566827 
L 257.85212 196.895889 
L 257.99934 196.895889 
L 258.097113 195.554014 
L 258.331284 195.554014 
L 258.331284 194.883076 
L 258.505911 194.883076 
L 258.505911 194.212138 
L 258.62521 194.212138 
L 258.686748 192.199325 
L 259.429663 192.199325 
L 259.429663 191.528387 
L 259.839245 191.528387 
L 259.839245 190.186512 
L 259.961919 190.186512 
L 260.036358 188.844637 
L 260.118089 188.844637 
L 260.148661 187.502761 
L 260.368957 187.502761 
L 260.368957 186.831824 
L 260.620506 186.831824 
L 260.620506 186.160886 
L 260.811733 186.160886 
L 260.893249 184.148073 
L 260.93988 184.148073 
L 260.93988 183.477135 
L 261.150428 183.477135 
L 261.170317 182.13526 
L 261.426852 182.13526 
L 261.509908 179.451509 
L 261.541963 179.451509 
L 261.600956 176.767758 
L 261.758063 176.767758 
L 261.804158 174.754945 
L 261.878041 174.754945 
L 261.878041 173.41307 
L 262.15254 173.41307 
L 262.208329 170.058382 
L 262.324312 170.058382 
L 262.380075 167.374631 
L 262.767355 167.374631 
L 262.807092 166.032756 
L 262.913756 166.032756 
L 262.986794 163.349005 
L 263.122468 163.349005 
L 263.122468 162.678067 
L 263.239596 162.678067 
L 263.239596 160.665254 
L 263.476221 160.665254 
L 263.582782 158.652441 
L 263.649504 158.652441 
L 263.667288 157.310566 
L 263.766919 157.310566 
L 263.766919 156.639628 
L 263.950671 156.639628 
L 263.999542 155.297753 
L 264.069119 155.297753 
L 264.069119 154.626815 
L 264.332067 154.626815 
L 264.332067 153.955877 
L 264.465308 153.955877 
L 264.465308 152.614002 
L 264.649219 152.614002 
L 264.649219 151.943064 
L 264.868934 151.943064 
L 264.868934 151.272127 
L 265.208632 151.272127 
L 265.228744 149.930251 
L 265.373584 149.930251 
L 265.439715 147.917438 
L 265.534197 147.917438 
L 265.538023 145.904625 
L 265.895515 145.904625 
L 265.989115 144.56275 
L 266.093523 144.56275 
L 266.198122 142.549937 
L 266.2467 142.549937 
L 266.2467 141.878999 
L 266.394817 141.878999 
L 266.394817 141.208061 
L 266.622623 141.208061 
L 266.728736 138.524311 
L 267.025217 138.524311 
L 267.120691 136.511498 
L 267.149513 136.511498 
L 267.149513 135.84056 
L 267.321989 135.84056 
L 267.339324 133.827747 
L 267.481986 133.827747 
L 267.579976 131.143996 
L 267.815551 131.143996 
L 267.856349 129.802121 
L 267.987654 129.802121 
L 268.036539 128.460245 
L 268.132751 128.460245 
L 268.132751 127.789308 
L 268.250434 127.789308 
L 268.349412 125.776495 
L 268.441235 125.776495 
L 268.441235 125.105557 
L 268.591314 125.105557 
L 268.648281 123.763682 
L 268.746419 123.763682 
L 268.797882 122.421806 
L 268.892673 122.421806 
L 268.955743 121.079931 
L 269.287575 121.079931 
L 269.356286 118.39618 
L 269.934235 118.39618 
L 269.934235 117.725242 
L 270.088264 117.725242 
L 270.088264 116.383367 
L 270.22376 116.383367 
L 270.32309 113.699616 
L 270.720743 113.699616 
L 270.787939 112.357741 
L 270.918722 112.357741 
L 270.990505 109.67399 
L 271.180174 109.67399 
L 271.180174 109.003053 
L 271.337145 109.003053 
L 271.438334 107.661177 
L 271.566702 107.661177 
L 271.623195 105.648364 
L 271.710701 105.648364 
L 271.807589 102.293676 
L 271.965966 102.293676 
L 272.06565 100.280863 
L 272.130479 100.280863 
L 272.151961 98.938987 
L 272.366674 98.938987 
L 272.42476 94.913361 
L 272.489066 94.913361 
L 272.507405 92.229611 
L 272.900101 92.229611 
L 272.99322 90.216797 
L 273.110996 90.216797 
L 273.110996 88.874922 
L 273.257471 88.874922 
L 273.278634 87.533047 
L 273.505001 87.533047 
L 273.505001 86.862109 
L 273.616724 86.862109 
L 273.682042 84.178358 
L 273.969814 84.178358 
L 273.969814 83.507421 
L 274.149847 83.507421 
L 274.248509 80.82367 
L 274.459005 80.82367 
L 274.503056 79.481795 
L 274.717405 79.481795 
L 274.717405 78.139919 
L 274.832878 78.139919 
L 274.930174 76.798044 
L 275.057505 76.798044 
L 275.160161 74.785231 
L 275.258071 74.785231 
L 275.258071 73.443355 
L 275.425371 73.443355 
L 275.425371 72.772418 
L 275.59808 72.772418 
L 275.66825 71.430542 
L 275.725197 71.430542 
L 275.770123 69.417729 
L 276.032361 69.417729 
L 276.032361 68.746792 
L 276.201751 68.746792 
L 276.201751 67.404916 
L 276.64636 67.404916 
L 276.671308 66.063041 
L 276.861723 66.063041 
L 276.908186 63.37929 
L 277.100954 63.37929 
L 277.100954 62.708353 
L 277.307891 62.708353 
L 277.307891 62.037415 
L 277.43506 62.037415 
L 277.443839 60.695539 
L 277.603298 60.695539 
L 277.603298 59.353664 
L 278.176916 59.353664 
L 278.242005 58.011789 
L 278.714583 58.011789 
L 278.748303 55.328038 
L 278.94288 55.328038 
L 278.94288 54.6571 
L 279.256368 54.6571 
L 279.256368 53.986163 
L 279.546203 53.986163 
L 279.547318 52.644287 
L 279.836544 52.644287 
L 279.836544 51.97335 
L 279.965639 51.97335 
L 279.965639 50.631474 
L 280.333804 50.631474 
L 280.333804 49.960537 
L 280.529684 49.960537 
L 280.529684 49.289599 
L 280.685585 49.289599 
L 280.767878 47.947724 
L 281.152914 47.947724 
L 281.152914 47.276786 
L 281.329081 47.276786 
L 281.329081 45.93491 
L 282.141743 45.93491 
L 282.141743 45.263973 
L 282.303907 45.263973 
L 282.303907 44.593035 
L 282.832095 44.593035 
L 282.832095 43.922097 
L 283.765992 43.922097 
L 283.765992 43.25116 
L 284.992679 43.25116 
L 284.992679 41.909284 
L 286.265769 41.909284 
L 286.265769 41.238347 
L 286.477088 41.238347 
L 286.477088 40.567409 
L 286.87389 40.567409 
L 286.87389 39.896471 
L 287.214924 39.896471 
L 287.214924 39.225534 
L 287.781886 39.225534 
L 287.781886 38.554596 
L 288.070654 38.554596 
L 288.070654 37.883658 
L 289.616008 37.883658 
L 289.616008 37.212721 
L 290.037624 37.212721 
L 290.037624 35.870845 
L 291.567112 35.870845 
L 291.567112 35.199908 
L 292.085873 35.199908 
L 292.085873 34.52897 
L 293.231193 34.52897 
L 293.231193 33.858032 
L 445.2 33.858032 
L 445.2 33.858032 
" style="fill:none;stroke:#000080;stroke-linecap:square;stroke-width:1.5;"/>
   </g>
   <g id="line2d_8">
    <defs>
     <path d="M 0 6 
C 1.591219 6 3.117479 5.367802 4.242641 4.242641 
C 5.367802 3.117479 6 1.591219 6 0 
C 6 -1.591219 5.367802 -3.117479 4.242641 -4.242641 
C 3.117479 -5.367802 1.591219 -6 0 -6 
C -1.591219 -6 -3.117479 -5.367802 -4.242641 -4.242641 
C -5.367802 -3.117479 -6 -1.591219 -6 0 
C -6 1.591219 -5.367802 3.117479 -4.242641 4.242641 
C -3.117479 5.367802 -1.591219 6 0 6 
z
" id="mdd8d5f9914" style="stroke:#000080;stroke-width:1.5;"/>
    </defs>
    <g>
     <use style="fill:none;stroke:#000080;stroke-width:1.5;" x="246.607356749" xlink:href="#mdd8d5f9914" y="265.331532469"/>
     <use style="fill:none;stroke:#000080;stroke-width:1.5;" x="270.088263743" xlink:href="#mdd8d5f9914" y="116.383367065"/>
     <use style="fill:none;stroke:#000080;stroke-width:1.5;" x="293.231192769" xlink:href="#mdd8d5f9914" y="34.5289698602"/>
     <use style="fill:none;stroke:#000080;stroke-width:1.5;" x="293.231192769" xlink:href="#mdd8d5f9914" y="33.8580321782"/>
     <use style="fill:none;stroke:#000080;stroke-width:1.5;" x="445.2" xlink:href="#mdd8d5f9914" y="33.8580321782"/>
    </g>
   </g>
   <g id="line2d_9"/>
   <g id="line2d_10">
    <path d="M 445.2 33.858032 
L 484.8 369.192686 
" style="fill:none;stroke:#000080;stroke-linecap:square;stroke-width:1.5;"/>
    <g>
     <use style="fill:none;stroke:#000080;stroke-width:1.5;" x="445.2" xlink:href="#mdd8d5f9914" y="33.8580321782"/>
     <use style="fill:none;stroke:#000080;stroke-width:1.5;" x="484.8" xlink:href="#mdd8d5f9914" y="369.192685644"/>
    </g>
   </g>
   <g id="line2d_11">
    <path d="M 445.2 376.03625 
L 445.2 33.858032 
" style="fill:none;stroke:#000000;stroke-linecap:square;"/>
   </g>
   <g id="patch_3">
    <path d="M 85.2 30.43625 
L 531.6 30.43625 
" style="fill:none;stroke:#000000;stroke-linecap:square;stroke-linejoin:miter;"/>
   </g>
   <g id="patch_4">
    <path d="M 531.6 376.03625 
L 531.6 30.43625 
" style="fill:none;stroke:#000000;stroke-linecap:square;stroke-linejoin:miter;"/>
   </g>
   <g id="patch_5">
    <path d="M 85.2 376.03625 
L 531.6 376.03625 
" style="fill:none;stroke:#000000;stroke-linecap:square;stroke-linejoin:miter;"/>
   </g>
   <g id="patch_6">
    <path d="M 85.2 376.03625 
L 85.2 30.43625 
" style="fill:none;stroke:#000000;stroke-linecap:square;stroke-linejoin:miter;"/>
   </g>
   <g id="matplotlib.axis_1">
    <g id="xtick_1">
     <g id="line2d_12">
      <path clip-path="url(#p51c2698421)" d="M 85.2 376.03625 
L 85.2 30.43625 
" style="fill:none;stroke:#000000;stroke-dasharray:1.000000,3.000000;stroke-dashoffset:0.0;stroke-width:0.5;"/>
     </g>
     <g id="line2d_13">
      <defs>
       <path d="M 0 0 
L 0 -4 
" id="m88bd4d6b95" style="stroke:#000000;stroke-width:0.5;"/>
      </defs>
      <g>
       <use style="stroke:#000000;stroke-width:0.5;" x="85.2" xlink:href="#m88bd4d6b95" y="376.03625"/>
      </g>
     </g>
     <g id="line2d_14">
      <defs>
       <path d="M 0 0 
L 0 4 
" id="m296be2cc00" style="stroke:#000000;stroke-width:0.5;"/>
      </defs>
      <g>
       <use style="stroke:#000000;stroke-width:0.5;" x="85.2" xlink:href="#m296be2cc00" y="30.43625"/>
      </g>
     </g>
     <g id="text_1">
      <!-- 0 -->
      <defs>
       <path d="M 31.78125 66.40625 
Q 24.171875 66.40625 20.328125 58.90625 
Q 16.5 51.421875 16.5 36.375 
Q 16.5 21.390625 20.328125 13.890625 
Q 24.171875 6.390625 31.78125 6.390625 
Q 39.453125 6.390625 43.28125 13.890625 
Q 47.125 21.390625 47.125 36.375 
Q 47.125 51.421875 43.28125 58.90625 
Q 39.453125 66.40625 31.78125 66.40625 
M 31.78125 74.21875 
Q 44.046875 74.21875 50.515625 64.515625 
Q 56.984375 54.828125 56.984375 36.375 
Q 56.984375 17.96875 50.515625 8.265625 
Q 44.046875 -1.421875 31.78125 -1.421875 
Q 19.53125 -1.421875 13.0625 8.265625 
Q 6.59375 17.96875 6.59375 36.375 
Q 6.59375 54.828125 13.0625 64.515625 
Q 19.53125 74.21875 31.78125 74.21875 
" id="BitstreamVeraSans-Roman-30"/>
      </defs>
      <g transform="translate(78.8375 395.233125)scale(0.2 -0.2)">
       <use xlink:href="#BitstreamVeraSans-Roman-30"/>
      </g>
     </g>
    </g>
    <g id="xtick_2">
     <g id="line2d_15">
      <path clip-path="url(#p51c2698421)" d="M 136.628571 376.03625 
L 136.628571 30.43625 
" style="fill:none;stroke:#000000;stroke-dasharray:1.000000,3.000000;stroke-dashoffset:0.0;stroke-width:0.5;"/>
     </g>
     <g id="line2d_16">
      <g>
       <use style="stroke:#000000;stroke-width:0.5;" x="136.628571429" xlink:href="#m88bd4d6b95" y="376.03625"/>
      </g>
     </g>
     <g id="line2d_17">
      <g>
       <use style="stroke:#000000;stroke-width:0.5;" x="136.628571429" xlink:href="#m296be2cc00" y="30.43625"/>
      </g>
     </g>
     <g id="text_2">
      <!-- 1 -->
      <defs>
       <path d="M 12.40625 8.296875 
L 28.515625 8.296875 
L 28.515625 63.921875 
L 10.984375 60.40625 
L 10.984375 69.390625 
L 28.421875 72.90625 
L 38.28125 72.90625 
L 38.28125 8.296875 
L 54.390625 8.296875 
L 54.390625 0 
L 12.40625 0 
z
" id="BitstreamVeraSans-Roman-31"/>
      </defs>
      <g transform="translate(130.266071429 395.233125)scale(0.2 -0.2)">
       <use xlink:href="#BitstreamVeraSans-Roman-31"/>
      </g>
     </g>
    </g>
    <g id="xtick_3">
     <g id="line2d_18">
      <path clip-path="url(#p51c2698421)" d="M 188.057143 376.03625 
L 188.057143 30.43625 
" style="fill:none;stroke:#000000;stroke-dasharray:1.000000,3.000000;stroke-dashoffset:0.0;stroke-width:0.5;"/>
     </g>
     <g id="line2d_19">
      <g>
       <use style="stroke:#000000;stroke-width:0.5;" x="188.057142857" xlink:href="#m88bd4d6b95" y="376.03625"/>
      </g>
     </g>
     <g id="line2d_20">
      <g>
       <use style="stroke:#000000;stroke-width:0.5;" x="188.057142857" xlink:href="#m296be2cc00" y="30.43625"/>
      </g>
     </g>
     <g id="text_3">
      <!-- 2 -->
      <defs>
       <path d="M 19.1875 8.296875 
L 53.609375 8.296875 
L 53.609375 0 
L 7.328125 0 
L 7.328125 8.296875 
Q 12.9375 14.109375 22.625 23.890625 
Q 32.328125 33.6875 34.8125 36.53125 
Q 39.546875 41.84375 41.421875 45.53125 
Q 43.3125 49.21875 43.3125 52.78125 
Q 43.3125 58.59375 39.234375 62.25 
Q 35.15625 65.921875 28.609375 65.921875 
Q 23.96875 65.921875 18.8125 64.3125 
Q 13.671875 62.703125 7.8125 59.421875 
L 7.8125 69.390625 
Q 13.765625 71.78125 18.9375 73 
Q 24.125 74.21875 28.421875 74.21875 
Q 39.75 74.21875 46.484375 68.546875 
Q 53.21875 62.890625 53.21875 53.421875 
Q 53.21875 48.921875 51.53125 44.890625 
Q 49.859375 40.875 45.40625 35.40625 
Q 44.1875 33.984375 37.640625 27.21875 
Q 31.109375 20.453125 19.1875 8.296875 
" id="BitstreamVeraSans-Roman-32"/>
      </defs>
      <g transform="translate(181.694642857 395.233125)scale(0.2 -0.2)">
       <use xlink:href="#BitstreamVeraSans-Roman-32"/>
      </g>
     </g>
    </g>
    <g id="xtick_4">
     <g id="line2d_21">
      <path clip-path="url(#p51c2698421)" d="M 239.485714 376.03625 
L 239.485714 30.43625 
" style="fill:none;stroke:#000000;stroke-dasharray:1.000000,3.000000;stroke-dashoffset:0.0;stroke-width:0.5;"/>
     </g>
     <g id="line2d_22">
      <g>
       <use style="stroke:#000000;stroke-width:0.5;" x="239.485714286" xlink:href="#m88bd4d6b95" y="376.03625"/>
      </g>
     </g>
     <g id="line2d_23">
      <g>
       <use style="stroke:#000000;stroke-width:0.5;" x="239.485714286" xlink:href="#m296be2cc00" y="30.43625"/>
      </g>
     </g>
     <g id="text_4">
      <!-- 3 -->
      <defs>
       <path d="M 40.578125 39.3125 
Q 47.65625 37.796875 51.625 33 
Q 55.609375 28.21875 55.609375 21.1875 
Q 55.609375 10.40625 48.1875 4.484375 
Q 40.765625 -1.421875 27.09375 -1.421875 
Q 22.515625 -1.421875 17.65625 -0.515625 
Q 12.796875 0.390625 7.625 2.203125 
L 7.625 11.71875 
Q 11.71875 9.328125 16.59375 8.109375 
Q 21.484375 6.890625 26.8125 6.890625 
Q 36.078125 6.890625 40.9375 10.546875 
Q 45.796875 14.203125 45.796875 21.1875 
Q 45.796875 27.640625 41.28125 31.265625 
Q 36.765625 34.90625 28.71875 34.90625 
L 20.21875 34.90625 
L 20.21875 43.015625 
L 29.109375 43.015625 
Q 36.375 43.015625 40.234375 45.921875 
Q 44.09375 48.828125 44.09375 54.296875 
Q 44.09375 59.90625 40.109375 62.90625 
Q 36.140625 65.921875 28.71875 65.921875 
Q 24.65625 65.921875 20.015625 65.03125 
Q 15.375 64.15625 9.8125 62.3125 
L 9.8125 71.09375 
Q 15.4375 72.65625 20.34375 73.4375 
Q 25.25 74.21875 29.59375 74.21875 
Q 40.828125 74.21875 47.359375 69.109375 
Q 53.90625 64.015625 53.90625 55.328125 
Q 53.90625 49.265625 50.4375 45.09375 
Q 46.96875 40.921875 40.578125 39.3125 
" id="BitstreamVeraSans-Roman-33"/>
      </defs>
      <g transform="translate(233.123214286 395.233125)scale(0.2 -0.2)">
       <use xlink:href="#BitstreamVeraSans-Roman-33"/>
      </g>
     </g>
    </g>
    <g id="xtick_5">
     <g id="line2d_24">
      <path clip-path="url(#p51c2698421)" d="M 290.914286 376.03625 
L 290.914286 30.43625 
" style="fill:none;stroke:#000000;stroke-dasharray:1.000000,3.000000;stroke-dashoffset:0.0;stroke-width:0.5;"/>
     </g>
     <g id="line2d_25">
      <g>
       <use style="stroke:#000000;stroke-width:0.5;" x="290.914285714" xlink:href="#m88bd4d6b95" y="376.03625"/>
      </g>
     </g>
     <g id="line2d_26">
      <g>
       <use style="stroke:#000000;stroke-width:0.5;" x="290.914285714" xlink:href="#m296be2cc00" y="30.43625"/>
      </g>
     </g>
     <g id="text_5">
      <!-- 4 -->
      <defs>
       <path d="M 37.796875 64.3125 
L 12.890625 25.390625 
L 37.796875 25.390625 
z
M 35.203125 72.90625 
L 47.609375 72.90625 
L 47.609375 25.390625 
L 58.015625 25.390625 
L 58.015625 17.1875 
L 47.609375 17.1875 
L 47.609375 0 
L 37.796875 0 
L 37.796875 17.1875 
L 4.890625 17.1875 
L 4.890625 26.703125 
z
" id="BitstreamVeraSans-Roman-34"/>
      </defs>
      <g transform="translate(284.551785714 395.233125)scale(0.2 -0.2)">
       <use xlink:href="#BitstreamVeraSans-Roman-34"/>
      </g>
     </g>
    </g>
    <g id="xtick_6">
     <g id="line2d_27">
      <path clip-path="url(#p51c2698421)" d="M 342.342857 376.03625 
L 342.342857 30.43625 
" style="fill:none;stroke:#000000;stroke-dasharray:1.000000,3.000000;stroke-dashoffset:0.0;stroke-width:0.5;"/>
     </g>
     <g id="line2d_28">
      <g>
       <use style="stroke:#000000;stroke-width:0.5;" x="342.342857143" xlink:href="#m88bd4d6b95" y="376.03625"/>
      </g>
     </g>
     <g id="line2d_29">
      <g>
       <use style="stroke:#000000;stroke-width:0.5;" x="342.342857143" xlink:href="#m296be2cc00" y="30.43625"/>
      </g>
     </g>
     <g id="text_6">
      <!-- 5 -->
      <defs>
       <path d="M 10.796875 72.90625 
L 49.515625 72.90625 
L 49.515625 64.59375 
L 19.828125 64.59375 
L 19.828125 46.734375 
Q 21.96875 47.46875 24.109375 47.828125 
Q 26.265625 48.1875 28.421875 48.1875 
Q 40.625 48.1875 47.75 41.5 
Q 54.890625 34.8125 54.890625 23.390625 
Q 54.890625 11.625 47.5625 5.09375 
Q 40.234375 -1.421875 26.90625 -1.421875 
Q 22.3125 -1.421875 17.546875 -0.640625 
Q 12.796875 0.140625 7.71875 1.703125 
L 7.71875 11.625 
Q 12.109375 9.234375 16.796875 8.0625 
Q 21.484375 6.890625 26.703125 6.890625 
Q 35.15625 6.890625 40.078125 11.328125 
Q 45.015625 15.765625 45.015625 23.390625 
Q 45.015625 31 40.078125 35.4375 
Q 35.15625 39.890625 26.703125 39.890625 
Q 22.75 39.890625 18.8125 39.015625 
Q 14.890625 38.140625 10.796875 36.28125 
z
" id="BitstreamVeraSans-Roman-35"/>
      </defs>
      <g transform="translate(335.980357143 395.233125)scale(0.2 -0.2)">
       <use xlink:href="#BitstreamVeraSans-Roman-35"/>
      </g>
     </g>
    </g>
    <g id="xtick_7">
     <g id="line2d_30">
      <path clip-path="url(#p51c2698421)" d="M 393.771429 376.03625 
L 393.771429 30.43625 
" style="fill:none;stroke:#000000;stroke-dasharray:1.000000,3.000000;stroke-dashoffset:0.0;stroke-width:0.5;"/>
     </g>
     <g id="line2d_31">
      <g>
       <use style="stroke:#000000;stroke-width:0.5;" x="393.771428571" xlink:href="#m88bd4d6b95" y="376.03625"/>
      </g>
     </g>
     <g id="line2d_32">
      <g>
       <use style="stroke:#000000;stroke-width:0.5;" x="393.771428571" xlink:href="#m296be2cc00" y="30.43625"/>
      </g>
     </g>
     <g id="text_7">
      <!-- 6 -->
      <defs>
       <path d="M 33.015625 40.375 
Q 26.375 40.375 22.484375 35.828125 
Q 18.609375 31.296875 18.609375 23.390625 
Q 18.609375 15.53125 22.484375 10.953125 
Q 26.375 6.390625 33.015625 6.390625 
Q 39.65625 6.390625 43.53125 10.953125 
Q 47.40625 15.53125 47.40625 23.390625 
Q 47.40625 31.296875 43.53125 35.828125 
Q 39.65625 40.375 33.015625 40.375 
M 52.59375 71.296875 
L 52.59375 62.3125 
Q 48.875 64.0625 45.09375 64.984375 
Q 41.3125 65.921875 37.59375 65.921875 
Q 27.828125 65.921875 22.671875 59.328125 
Q 17.53125 52.734375 16.796875 39.40625 
Q 19.671875 43.65625 24.015625 45.921875 
Q 28.375 48.1875 33.59375 48.1875 
Q 44.578125 48.1875 50.953125 41.515625 
Q 57.328125 34.859375 57.328125 23.390625 
Q 57.328125 12.15625 50.6875 5.359375 
Q 44.046875 -1.421875 33.015625 -1.421875 
Q 20.359375 -1.421875 13.671875 8.265625 
Q 6.984375 17.96875 6.984375 36.375 
Q 6.984375 53.65625 15.1875 63.9375 
Q 23.390625 74.21875 37.203125 74.21875 
Q 40.921875 74.21875 44.703125 73.484375 
Q 48.484375 72.75 52.59375 71.296875 
" id="BitstreamVeraSans-Roman-36"/>
      </defs>
      <g transform="translate(387.408928571 395.233125)scale(0.2 -0.2)">
       <use xlink:href="#BitstreamVeraSans-Roman-36"/>
      </g>
     </g>
    </g>
    <g id="xtick_8">
     <g id="line2d_33">
      <path clip-path="url(#p51c2698421)" d="M 445.2 376.03625 
L 445.2 30.43625 
" style="fill:none;stroke:#000000;stroke-dasharray:1.000000,3.000000;stroke-dashoffset:0.0;stroke-width:0.5;"/>
     </g>
     <g id="line2d_34">
      <g>
       <use style="stroke:#000000;stroke-width:0.5;" x="445.2" xlink:href="#m88bd4d6b95" y="376.03625"/>
      </g>
     </g>
     <g id="line2d_35">
      <g>
       <use style="stroke:#000000;stroke-width:0.5;" x="445.2" xlink:href="#m296be2cc00" y="30.43625"/>
      </g>
     </g>
     <g id="text_8">
      <!-- 7 -->
      <defs>
       <path d="M 8.203125 72.90625 
L 55.078125 72.90625 
L 55.078125 68.703125 
L 28.609375 0 
L 18.3125 0 
L 43.21875 64.59375 
L 8.203125 64.59375 
z
" id="BitstreamVeraSans-Roman-37"/>
      </defs>
      <g transform="translate(438.8375 395.233125)scale(0.2 -0.2)">
       <use xlink:href="#BitstreamVeraSans-Roman-37"/>
      </g>
     </g>
    </g>
    <g id="xtick_9">
     <g id="line2d_36">
      <path clip-path="url(#p51c2698421)" d="M 496.628571 376.03625 
L 496.628571 30.43625 
" style="fill:none;stroke:#000000;stroke-dasharray:1.000000,3.000000;stroke-dashoffset:0.0;stroke-width:0.5;"/>
     </g>
     <g id="line2d_37">
      <g>
       <use style="stroke:#000000;stroke-width:0.5;" x="496.628571429" xlink:href="#m88bd4d6b95" y="376.03625"/>
      </g>
     </g>
     <g id="line2d_38">
      <g>
       <use style="stroke:#000000;stroke-width:0.5;" x="496.628571429" xlink:href="#m296be2cc00" y="30.43625"/>
      </g>
     </g>
     <g id="text_9">
      <!-- 8 -->
      <defs>
       <path d="M 31.78125 34.625 
Q 24.75 34.625 20.71875 30.859375 
Q 16.703125 27.09375 16.703125 20.515625 
Q 16.703125 13.921875 20.71875 10.15625 
Q 24.75 6.390625 31.78125 6.390625 
Q 38.8125 6.390625 42.859375 10.171875 
Q 46.921875 13.96875 46.921875 20.515625 
Q 46.921875 27.09375 42.890625 30.859375 
Q 38.875 34.625 31.78125 34.625 
M 21.921875 38.8125 
Q 15.578125 40.375 12.03125 44.71875 
Q 8.5 49.078125 8.5 55.328125 
Q 8.5 64.0625 14.71875 69.140625 
Q 20.953125 74.21875 31.78125 74.21875 
Q 42.671875 74.21875 48.875 69.140625 
Q 55.078125 64.0625 55.078125 55.328125 
Q 55.078125 49.078125 51.53125 44.71875 
Q 48 40.375 41.703125 38.8125 
Q 48.828125 37.15625 52.796875 32.3125 
Q 56.78125 27.484375 56.78125 20.515625 
Q 56.78125 9.90625 50.3125 4.234375 
Q 43.84375 -1.421875 31.78125 -1.421875 
Q 19.734375 -1.421875 13.25 4.234375 
Q 6.78125 9.90625 6.78125 20.515625 
Q 6.78125 27.484375 10.78125 32.3125 
Q 14.796875 37.15625 21.921875 38.8125 
M 18.3125 54.390625 
Q 18.3125 48.734375 21.84375 45.5625 
Q 25.390625 42.390625 31.78125 42.390625 
Q 38.140625 42.390625 41.71875 45.5625 
Q 45.3125 48.734375 45.3125 54.390625 
Q 45.3125 60.0625 41.71875 63.234375 
Q 38.140625 66.40625 31.78125 66.40625 
Q 25.390625 66.40625 21.84375 63.234375 
Q 18.3125 60.0625 18.3125 54.390625 
" id="BitstreamVeraSans-Roman-38"/>
      </defs>
      <g transform="translate(490.266071429 395.233125)scale(0.2 -0.2)">
       <use xlink:href="#BitstreamVeraSans-Roman-38"/>
      </g>
     </g>
    </g>
    <g id="xtick_10">
     <g id="line2d_39">
      <defs>
       <path d="M 0 0 
L 0 -2 
" id="ma24b23ea1d" style="stroke:#000000;stroke-width:0.5;"/>
      </defs>
      <g>
       <use style="stroke:#000000;stroke-width:0.5;" x="100.681542634" xlink:href="#ma24b23ea1d" y="376.03625"/>
      </g>
     </g>
     <g id="line2d_40">
      <defs>
       <path d="M 0 0 
L 0 2 
" id="m85d1dc996b" style="stroke:#000000;stroke-width:0.5;"/>
      </defs>
      <g>
       <use style="stroke:#000000;stroke-width:0.5;" x="100.681542634" xlink:href="#m85d1dc996b" y="30.43625"/>
      </g>
     </g>
    </g>
    <g id="xtick_11">
     <g id="line2d_41">
      <g>
       <use style="stroke:#000000;stroke-width:0.5;" x="116.163085268" xlink:href="#ma24b23ea1d" y="376.03625"/>
      </g>
     </g>
     <g id="line2d_42">
      <g>
       <use style="stroke:#000000;stroke-width:0.5;" x="116.163085268" xlink:href="#m85d1dc996b" y="30.43625"/>
      </g>
     </g>
    </g>
    <g id="xtick_12">
     <g id="line2d_43">
      <g>
       <use style="stroke:#000000;stroke-width:0.5;" x="125.219207163" xlink:href="#ma24b23ea1d" y="376.03625"/>
      </g>
     </g>
     <g id="line2d_44">
      <g>
       <use style="stroke:#000000;stroke-width:0.5;" x="125.219207163" xlink:href="#m85d1dc996b" y="30.43625"/>
      </g>
     </g>
    </g>
    <g id="xtick_13">
     <g id="line2d_45">
      <g>
       <use style="stroke:#000000;stroke-width:0.5;" x="131.644627902" xlink:href="#ma24b23ea1d" y="376.03625"/>
      </g>
     </g>
     <g id="line2d_46">
      <g>
       <use style="stroke:#000000;stroke-width:0.5;" x="131.644627902" xlink:href="#m85d1dc996b" y="30.43625"/>
      </g>
     </g>
    </g>
    <g id="xtick_14">
     <g id="line2d_47">
      <g>
       <use style="stroke:#000000;stroke-width:0.5;" x="152.110114063" xlink:href="#ma24b23ea1d" y="376.03625"/>
      </g>
     </g>
     <g id="line2d_48">
      <g>
       <use style="stroke:#000000;stroke-width:0.5;" x="152.110114063" xlink:href="#m85d1dc996b" y="30.43625"/>
      </g>
     </g>
    </g>
    <g id="xtick_15">
     <g id="line2d_49">
      <g>
       <use style="stroke:#000000;stroke-width:0.5;" x="167.591656697" xlink:href="#ma24b23ea1d" y="376.03625"/>
      </g>
     </g>
     <g id="line2d_50">
      <g>
       <use style="stroke:#000000;stroke-width:0.5;" x="167.591656697" xlink:href="#m85d1dc996b" y="30.43625"/>
      </g>
     </g>
    </g>
    <g id="xtick_16">
     <g id="line2d_51">
      <g>
       <use style="stroke:#000000;stroke-width:0.5;" x="176.647778591" xlink:href="#ma24b23ea1d" y="376.03625"/>
      </g>
     </g>
     <g id="line2d_52">
      <g>
       <use style="stroke:#000000;stroke-width:0.5;" x="176.647778591" xlink:href="#m85d1dc996b" y="30.43625"/>
      </g>
     </g>
    </g>
    <g id="xtick_17">
     <g id="line2d_53">
      <g>
       <use style="stroke:#000000;stroke-width:0.5;" x="183.073199331" xlink:href="#ma24b23ea1d" y="376.03625"/>
      </g>
     </g>
     <g id="line2d_54">
      <g>
       <use style="stroke:#000000;stroke-width:0.5;" x="183.073199331" xlink:href="#m85d1dc996b" y="30.43625"/>
      </g>
     </g>
    </g>
    <g id="xtick_18">
     <g id="line2d_55">
      <g>
       <use style="stroke:#000000;stroke-width:0.5;" x="203.538685491" xlink:href="#ma24b23ea1d" y="376.03625"/>
      </g>
     </g>
     <g id="line2d_56">
      <g>
       <use style="stroke:#000000;stroke-width:0.5;" x="203.538685491" xlink:href="#m85d1dc996b" y="30.43625"/>
      </g>
     </g>
    </g>
    <g id="xtick_19">
     <g id="line2d_57">
      <g>
       <use style="stroke:#000000;stroke-width:0.5;" x="219.020228125" xlink:href="#ma24b23ea1d" y="376.03625"/>
      </g>
     </g>
     <g id="line2d_58">
      <g>
       <use style="stroke:#000000;stroke-width:0.5;" x="219.020228125" xlink:href="#m85d1dc996b" y="30.43625"/>
      </g>
     </g>
    </g>
    <g id="xtick_20">
     <g id="line2d_59">
      <g>
       <use style="stroke:#000000;stroke-width:0.5;" x="228.07635002" xlink:href="#ma24b23ea1d" y="376.03625"/>
      </g>
     </g>
     <g id="line2d_60">
      <g>
       <use style="stroke:#000000;stroke-width:0.5;" x="228.07635002" xlink:href="#m85d1dc996b" y="30.43625"/>
      </g>
     </g>
    </g>
    <g id="xtick_21">
     <g id="line2d_61">
      <g>
       <use style="stroke:#000000;stroke-width:0.5;" x="234.50177076" xlink:href="#ma24b23ea1d" y="376.03625"/>
      </g>
     </g>
     <g id="line2d_62">
      <g>
       <use style="stroke:#000000;stroke-width:0.5;" x="234.50177076" xlink:href="#m85d1dc996b" y="30.43625"/>
      </g>
     </g>
    </g>
    <g id="xtick_22">
     <g id="line2d_63">
      <g>
       <use style="stroke:#000000;stroke-width:0.5;" x="254.96725692" xlink:href="#ma24b23ea1d" y="376.03625"/>
      </g>
     </g>
     <g id="line2d_64">
      <g>
       <use style="stroke:#000000;stroke-width:0.5;" x="254.96725692" xlink:href="#m85d1dc996b" y="30.43625"/>
      </g>
     </g>
    </g>
    <g id="xtick_23">
     <g id="line2d_65">
      <g>
       <use style="stroke:#000000;stroke-width:0.5;" x="270.448799554" xlink:href="#ma24b23ea1d" y="376.03625"/>
      </g>
     </g>
     <g id="line2d_66">
      <g>
       <use style="stroke:#000000;stroke-width:0.5;" x="270.448799554" xlink:href="#m85d1dc996b" y="30.43625"/>
      </g>
     </g>
    </g>
    <g id="xtick_24">
     <g id="line2d_67">
      <g>
       <use style="stroke:#000000;stroke-width:0.5;" x="279.504921448" xlink:href="#ma24b23ea1d" y="376.03625"/>
      </g>
     </g>
     <g id="line2d_68">
      <g>
       <use style="stroke:#000000;stroke-width:0.5;" x="279.504921448" xlink:href="#m85d1dc996b" y="30.43625"/>
      </g>
     </g>
    </g>
    <g id="xtick_25">
     <g id="line2d_69">
      <g>
       <use style="stroke:#000000;stroke-width:0.5;" x="285.930342188" xlink:href="#ma24b23ea1d" y="376.03625"/>
      </g>
     </g>
     <g id="line2d_70">
      <g>
       <use style="stroke:#000000;stroke-width:0.5;" x="285.930342188" xlink:href="#m85d1dc996b" y="30.43625"/>
      </g>
     </g>
    </g>
    <g id="xtick_26">
     <g id="line2d_71">
      <g>
       <use style="stroke:#000000;stroke-width:0.5;" x="306.395828348" xlink:href="#ma24b23ea1d" y="376.03625"/>
      </g>
     </g>
     <g id="line2d_72">
      <g>
       <use style="stroke:#000000;stroke-width:0.5;" x="306.395828348" xlink:href="#m85d1dc996b" y="30.43625"/>
      </g>
     </g>
    </g>
    <g id="xtick_27">
     <g id="line2d_73">
      <g>
       <use style="stroke:#000000;stroke-width:0.5;" x="321.877370983" xlink:href="#ma24b23ea1d" y="376.03625"/>
      </g>
     </g>
     <g id="line2d_74">
      <g>
       <use style="stroke:#000000;stroke-width:0.5;" x="321.877370983" xlink:href="#m85d1dc996b" y="30.43625"/>
      </g>
     </g>
    </g>
    <g id="xtick_28">
     <g id="line2d_75">
      <g>
       <use style="stroke:#000000;stroke-width:0.5;" x="330.933492877" xlink:href="#ma24b23ea1d" y="376.03625"/>
      </g>
     </g>
     <g id="line2d_76">
      <g>
       <use style="stroke:#000000;stroke-width:0.5;" x="330.933492877" xlink:href="#m85d1dc996b" y="30.43625"/>
      </g>
     </g>
    </g>
    <g id="xtick_29">
     <g id="line2d_77">
      <g>
       <use style="stroke:#000000;stroke-width:0.5;" x="337.358913617" xlink:href="#ma24b23ea1d" y="376.03625"/>
      </g>
     </g>
     <g id="line2d_78">
      <g>
       <use style="stroke:#000000;stroke-width:0.5;" x="337.358913617" xlink:href="#m85d1dc996b" y="30.43625"/>
      </g>
     </g>
    </g>
    <g id="xtick_30">
     <g id="line2d_79">
      <g>
       <use style="stroke:#000000;stroke-width:0.5;" x="357.824399777" xlink:href="#ma24b23ea1d" y="376.03625"/>
      </g>
     </g>
     <g id="line2d_80">
      <g>
       <use style="stroke:#000000;stroke-width:0.5;" x="357.824399777" xlink:href="#m85d1dc996b" y="30.43625"/>
      </g>
     </g>
    </g>
    <g id="xtick_31">
     <g id="line2d_81">
      <g>
       <use style="stroke:#000000;stroke-width:0.5;" x="373.305942411" xlink:href="#ma24b23ea1d" y="376.03625"/>
      </g>
     </g>
     <g id="line2d_82">
      <g>
       <use style="stroke:#000000;stroke-width:0.5;" x="373.305942411" xlink:href="#m85d1dc996b" y="30.43625"/>
      </g>
     </g>
    </g>
    <g id="xtick_32">
     <g id="line2d_83">
      <g>
       <use style="stroke:#000000;stroke-width:0.5;" x="382.362064305" xlink:href="#ma24b23ea1d" y="376.03625"/>
      </g>
     </g>
     <g id="line2d_84">
      <g>
       <use style="stroke:#000000;stroke-width:0.5;" x="382.362064305" xlink:href="#m85d1dc996b" y="30.43625"/>
      </g>
     </g>
    </g>
    <g id="xtick_33">
     <g id="line2d_85">
      <g>
       <use style="stroke:#000000;stroke-width:0.5;" x="388.787485045" xlink:href="#ma24b23ea1d" y="376.03625"/>
      </g>
     </g>
     <g id="line2d_86">
      <g>
       <use style="stroke:#000000;stroke-width:0.5;" x="388.787485045" xlink:href="#m85d1dc996b" y="30.43625"/>
      </g>
     </g>
    </g>
    <g id="xtick_34">
     <g id="line2d_87">
      <g>
       <use style="stroke:#000000;stroke-width:0.5;" x="409.252971206" xlink:href="#ma24b23ea1d" y="376.03625"/>
      </g>
     </g>
     <g id="line2d_88">
      <g>
       <use style="stroke:#000000;stroke-width:0.5;" x="409.252971206" xlink:href="#m85d1dc996b" y="30.43625"/>
      </g>
     </g>
    </g>
    <g id="xtick_35">
     <g id="line2d_89">
      <g>
       <use style="stroke:#000000;stroke-width:0.5;" x="424.73451384" xlink:href="#ma24b23ea1d" y="376.03625"/>
      </g>
     </g>
     <g id="line2d_90">
      <g>
       <use style="stroke:#000000;stroke-width:0.5;" x="424.73451384" xlink:href="#m85d1dc996b" y="30.43625"/>
      </g>
     </g>
    </g>
    <g id="xtick_36">
     <g id="line2d_91">
      <g>
       <use style="stroke:#000000;stroke-width:0.5;" x="433.790635734" xlink:href="#ma24b23ea1d" y="376.03625"/>
      </g>
     </g>
     <g id="line2d_92">
      <g>
       <use style="stroke:#000000;stroke-width:0.5;" x="433.790635734" xlink:href="#m85d1dc996b" y="30.43625"/>
      </g>
     </g>
    </g>
    <g id="xtick_37">
     <g id="line2d_93">
      <g>
       <use style="stroke:#000000;stroke-width:0.5;" x="440.216056474" xlink:href="#ma24b23ea1d" y="376.03625"/>
      </g>
     </g>
     <g id="line2d_94">
      <g>
       <use style="stroke:#000000;stroke-width:0.5;" x="440.216056474" xlink:href="#m85d1dc996b" y="30.43625"/>
      </g>
     </g>
    </g>
    <g id="xtick_38">
     <g id="line2d_95">
      <g>
       <use style="stroke:#000000;stroke-width:0.5;" x="460.681542634" xlink:href="#ma24b23ea1d" y="376.03625"/>
      </g>
     </g>
     <g id="line2d_96">
      <g>
       <use style="stroke:#000000;stroke-width:0.5;" x="460.681542634" xlink:href="#m85d1dc996b" y="30.43625"/>
      </g>
     </g>
    </g>
    <g id="xtick_39">
     <g id="line2d_97">
      <g>
       <use style="stroke:#000000;stroke-width:0.5;" x="476.163085268" xlink:href="#ma24b23ea1d" y="376.03625"/>
      </g>
     </g>
     <g id="line2d_98">
      <g>
       <use style="stroke:#000000;stroke-width:0.5;" x="476.163085268" xlink:href="#m85d1dc996b" y="30.43625"/>
      </g>
     </g>
    </g>
    <g id="xtick_40">
     <g id="line2d_99">
      <g>
       <use style="stroke:#000000;stroke-width:0.5;" x="485.219207163" xlink:href="#ma24b23ea1d" y="376.03625"/>
      </g>
     </g>
     <g id="line2d_100">
      <g>
       <use style="stroke:#000000;stroke-width:0.5;" x="485.219207163" xlink:href="#m85d1dc996b" y="30.43625"/>
      </g>
     </g>
    </g>
    <g id="xtick_41">
     <g id="line2d_101">
      <g>
       <use style="stroke:#000000;stroke-width:0.5;" x="491.644627902" xlink:href="#ma24b23ea1d" y="376.03625"/>
      </g>
     </g>
     <g id="line2d_102">
      <g>
       <use style="stroke:#000000;stroke-width:0.5;" x="491.644627902" xlink:href="#m85d1dc996b" y="30.43625"/>
      </g>
     </g>
    </g>
    <g id="xtick_42">
     <g id="line2d_103">
      <g>
       <use style="stroke:#000000;stroke-width:0.5;" x="512.110114063" xlink:href="#ma24b23ea1d" y="376.03625"/>
      </g>
     </g>
     <g id="line2d_104">
      <g>
       <use style="stroke:#000000;stroke-width:0.5;" x="512.110114063" xlink:href="#m85d1dc996b" y="30.43625"/>
      </g>
     </g>
    </g>
    <g id="xtick_43">
     <g id="line2d_105">
      <g>
       <use style="stroke:#000000;stroke-width:0.5;" x="527.591656697" xlink:href="#ma24b23ea1d" y="376.03625"/>
      </g>
     </g>
     <g id="line2d_106">
      <g>
       <use style="stroke:#000000;stroke-width:0.5;" x="527.591656697" xlink:href="#m85d1dc996b" y="30.43625"/>
      </g>
     </g>
    </g>
    <g id="text_10">
     <!-- log10 of (# f-evals / dimension) -->
     <defs>
      <path id="BitstreamVeraSans-Roman-20"/>
      <path d="M 51.125 44 
L 36.921875 44 
L 32.8125 27.6875 
L 47.125 27.6875 
z
M 43.796875 71.78125 
L 38.71875 51.515625 
L 52.984375 51.515625 
L 58.109375 71.78125 
L 65.921875 71.78125 
L 60.890625 51.515625 
L 76.125 51.515625 
L 76.125 44 
L 58.984375 44 
L 54.984375 27.6875 
L 70.515625 27.6875 
L 70.515625 20.21875 
L 53.078125 20.21875 
L 48 0 
L 40.1875 0 
L 45.21875 20.21875 
L 30.90625 20.21875 
L 25.875 0 
L 18.015625 0 
L 23.09375 20.21875 
L 7.71875 20.21875 
L 7.71875 27.6875 
L 24.90625 27.6875 
L 29 44 
L 13.28125 44 
L 13.28125 51.515625 
L 30.90625 51.515625 
L 35.890625 71.78125 
z
" id="BitstreamVeraSans-Roman-23"/>
      <path d="M 52 44.1875 
Q 55.375 50.25 60.0625 53.125 
Q 64.75 56 71.09375 56 
Q 79.640625 56 84.28125 50.015625 
Q 88.921875 44.046875 88.921875 33.015625 
L 88.921875 0 
L 79.890625 0 
L 79.890625 32.71875 
Q 79.890625 40.578125 77.09375 44.375 
Q 74.3125 48.1875 68.609375 48.1875 
Q 61.625 48.1875 57.5625 43.546875 
Q 53.515625 38.921875 53.515625 30.90625 
L 53.515625 0 
L 44.484375 0 
L 44.484375 32.71875 
Q 44.484375 40.625 41.703125 44.40625 
Q 38.921875 48.1875 33.109375 48.1875 
Q 26.21875 48.1875 22.15625 43.53125 
Q 18.109375 38.875 18.109375 30.90625 
L 18.109375 0 
L 9.078125 0 
L 9.078125 54.6875 
L 18.109375 54.6875 
L 18.109375 46.1875 
Q 21.1875 51.21875 25.484375 53.609375 
Q 29.78125 56 35.6875 56 
Q 41.65625 56 45.828125 52.96875 
Q 50 49.953125 52 44.1875 
" id="BitstreamVeraSans-Roman-6d"/>
      <path d="M 54.890625 33.015625 
L 54.890625 0 
L 45.90625 0 
L 45.90625 32.71875 
Q 45.90625 40.484375 42.875 44.328125 
Q 39.84375 48.1875 33.796875 48.1875 
Q 26.515625 48.1875 22.3125 43.546875 
Q 18.109375 38.921875 18.109375 30.90625 
L 18.109375 0 
L 9.078125 0 
L 9.078125 54.6875 
L 18.109375 54.6875 
L 18.109375 46.1875 
Q 21.34375 51.125 25.703125 53.5625 
Q 30.078125 56 35.796875 56 
Q 45.21875 56 50.046875 50.171875 
Q 54.890625 44.34375 54.890625 33.015625 
" id="BitstreamVeraSans-Roman-6e"/>
      <path d="M 31 75.875 
Q 24.46875 64.65625 21.28125 53.65625 
Q 18.109375 42.671875 18.109375 31.390625 
Q 18.109375 20.125 21.3125 9.0625 
Q 24.515625 -2 31 -13.1875 
L 23.1875 -13.1875 
Q 15.875 -1.703125 12.234375 9.375 
Q 8.59375 20.453125 8.59375 31.390625 
Q 8.59375 42.28125 12.203125 53.3125 
Q 15.828125 64.359375 23.1875 75.875 
z
" id="BitstreamVeraSans-Roman-28"/>
      <path d="M 30.609375 48.390625 
Q 23.390625 48.390625 19.1875 42.75 
Q 14.984375 37.109375 14.984375 27.296875 
Q 14.984375 17.484375 19.15625 11.84375 
Q 23.34375 6.203125 30.609375 6.203125 
Q 37.796875 6.203125 41.984375 11.859375 
Q 46.1875 17.53125 46.1875 27.296875 
Q 46.1875 37.015625 41.984375 42.703125 
Q 37.796875 48.390625 30.609375 48.390625 
M 30.609375 56 
Q 42.328125 56 49.015625 48.375 
Q 55.71875 40.765625 55.71875 27.296875 
Q 55.71875 13.875 49.015625 6.21875 
Q 42.328125 -1.421875 30.609375 -1.421875 
Q 18.84375 -1.421875 12.171875 6.21875 
Q 5.515625 13.875 5.515625 27.296875 
Q 5.515625 40.765625 12.171875 48.375 
Q 18.84375 56 30.609375 56 
" id="BitstreamVeraSans-Roman-6f"/>
      <path d="M 9.421875 75.984375 
L 18.40625 75.984375 
L 18.40625 0 
L 9.421875 0 
z
" id="BitstreamVeraSans-Roman-6c"/>
      <path d="M 2.984375 54.6875 
L 12.5 54.6875 
L 29.59375 8.796875 
L 46.6875 54.6875 
L 56.203125 54.6875 
L 35.6875 0 
L 23.484375 0 
z
" id="BitstreamVeraSans-Roman-76"/>
      <path d="M 9.421875 54.6875 
L 18.40625 54.6875 
L 18.40625 0 
L 9.421875 0 
z
M 9.421875 75.984375 
L 18.40625 75.984375 
L 18.40625 64.59375 
L 9.421875 64.59375 
z
" id="BitstreamVeraSans-Roman-69"/>
      <path d="M 4.890625 31.390625 
L 31.203125 31.390625 
L 31.203125 23.390625 
L 4.890625 23.390625 
z
" id="BitstreamVeraSans-Roman-2d"/>
      <path d="M 25.390625 72.90625 
L 33.6875 72.90625 
L 8.296875 -9.28125 
L 0 -9.28125 
z
" id="BitstreamVeraSans-Roman-2f"/>
      <path d="M 56.203125 29.59375 
L 56.203125 25.203125 
L 14.890625 25.203125 
Q 15.484375 15.921875 20.484375 11.0625 
Q 25.484375 6.203125 34.421875 6.203125 
Q 39.59375 6.203125 44.453125 7.46875 
Q 49.3125 8.734375 54.109375 11.28125 
L 54.109375 2.78125 
Q 49.265625 0.734375 44.1875 -0.34375 
Q 39.109375 -1.421875 33.890625 -1.421875 
Q 20.796875 -1.421875 13.15625 6.1875 
Q 5.515625 13.8125 5.515625 26.8125 
Q 5.515625 40.234375 12.765625 48.109375 
Q 20.015625 56 32.328125 56 
Q 43.359375 56 49.78125 48.890625 
Q 56.203125 41.796875 56.203125 29.59375 
M 47.21875 32.234375 
Q 47.125 39.59375 43.09375 43.984375 
Q 39.0625 48.390625 32.421875 48.390625 
Q 24.90625 48.390625 20.390625 44.140625 
Q 15.875 39.890625 15.1875 32.171875 
z
" id="BitstreamVeraSans-Roman-65"/>
      <path d="M 45.40625 46.390625 
L 45.40625 75.984375 
L 54.390625 75.984375 
L 54.390625 0 
L 45.40625 0 
L 45.40625 8.203125 
Q 42.578125 3.328125 38.25 0.953125 
Q 33.9375 -1.421875 27.875 -1.421875 
Q 17.96875 -1.421875 11.734375 6.484375 
Q 5.515625 14.40625 5.515625 27.296875 
Q 5.515625 40.1875 11.734375 48.09375 
Q 17.96875 56 27.875 56 
Q 33.9375 56 38.25 53.625 
Q 42.578125 51.265625 45.40625 46.390625 
M 14.796875 27.296875 
Q 14.796875 17.390625 18.875 11.75 
Q 22.953125 6.109375 30.078125 6.109375 
Q 37.203125 6.109375 41.296875 11.75 
Q 45.40625 17.390625 45.40625 27.296875 
Q 45.40625 37.203125 41.296875 42.84375 
Q 37.203125 48.484375 30.078125 48.484375 
Q 22.953125 48.484375 18.875 42.84375 
Q 14.796875 37.203125 14.796875 27.296875 
" id="BitstreamVeraSans-Roman-64"/>
      <path d="M 45.40625 27.984375 
Q 45.40625 37.75 41.375 43.109375 
Q 37.359375 48.484375 30.078125 48.484375 
Q 22.859375 48.484375 18.828125 43.109375 
Q 14.796875 37.75 14.796875 27.984375 
Q 14.796875 18.265625 18.828125 12.890625 
Q 22.859375 7.515625 30.078125 7.515625 
Q 37.359375 7.515625 41.375 12.890625 
Q 45.40625 18.265625 45.40625 27.984375 
M 54.390625 6.78125 
Q 54.390625 -7.171875 48.1875 -13.984375 
Q 42 -20.796875 29.203125 -20.796875 
Q 24.46875 -20.796875 20.265625 -20.09375 
Q 16.0625 -19.390625 12.109375 -17.921875 
L 12.109375 -9.1875 
Q 16.0625 -11.328125 19.921875 -12.34375 
Q 23.78125 -13.375 27.78125 -13.375 
Q 36.625 -13.375 41.015625 -8.765625 
Q 45.40625 -4.15625 45.40625 5.171875 
L 45.40625 9.625 
Q 42.625 4.78125 38.28125 2.390625 
Q 33.9375 0 27.875 0 
Q 17.828125 0 11.671875 7.65625 
Q 5.515625 15.328125 5.515625 27.984375 
Q 5.515625 40.671875 11.671875 48.328125 
Q 17.828125 56 27.875 56 
Q 33.9375 56 38.28125 53.609375 
Q 42.625 51.21875 45.40625 46.390625 
L 45.40625 54.6875 
L 54.390625 54.6875 
z
" id="BitstreamVeraSans-Roman-67"/>
      <path d="M 37.109375 75.984375 
L 37.109375 68.5 
L 28.515625 68.5 
Q 23.6875 68.5 21.796875 66.546875 
Q 19.921875 64.59375 19.921875 59.515625 
L 19.921875 54.6875 
L 34.71875 54.6875 
L 34.71875 47.703125 
L 19.921875 47.703125 
L 19.921875 0 
L 10.890625 0 
L 10.890625 47.703125 
L 2.296875 47.703125 
L 2.296875 54.6875 
L 10.890625 54.6875 
L 10.890625 58.5 
Q 10.890625 67.625 15.140625 71.796875 
Q 19.390625 75.984375 28.609375 75.984375 
z
" id="BitstreamVeraSans-Roman-66"/>
      <path d="M 34.28125 27.484375 
Q 23.390625 27.484375 19.1875 25 
Q 14.984375 22.515625 14.984375 16.5 
Q 14.984375 11.71875 18.140625 8.90625 
Q 21.296875 6.109375 26.703125 6.109375 
Q 34.1875 6.109375 38.703125 11.40625 
Q 43.21875 16.703125 43.21875 25.484375 
L 43.21875 27.484375 
z
M 52.203125 31.203125 
L 52.203125 0 
L 43.21875 0 
L 43.21875 8.296875 
Q 40.140625 3.328125 35.546875 0.953125 
Q 30.953125 -1.421875 24.3125 -1.421875 
Q 15.921875 -1.421875 10.953125 3.296875 
Q 6 8.015625 6 15.921875 
Q 6 25.140625 12.171875 29.828125 
Q 18.359375 34.515625 30.609375 34.515625 
L 43.21875 34.515625 
L 43.21875 35.40625 
Q 43.21875 41.609375 39.140625 45 
Q 35.0625 48.390625 27.6875 48.390625 
Q 23 48.390625 18.546875 47.265625 
Q 14.109375 46.140625 10.015625 43.890625 
L 10.015625 52.203125 
Q 14.9375 54.109375 19.578125 55.046875 
Q 24.21875 56 28.609375 56 
Q 40.484375 56 46.34375 49.84375 
Q 52.203125 43.703125 52.203125 31.203125 
" id="BitstreamVeraSans-Roman-61"/>
      <path d="M 44.28125 53.078125 
L 44.28125 44.578125 
Q 40.484375 46.53125 36.375 47.5 
Q 32.28125 48.484375 27.875 48.484375 
Q 21.1875 48.484375 17.84375 46.4375 
Q 14.5 44.390625 14.5 40.28125 
Q 14.5 37.15625 16.890625 35.375 
Q 19.28125 33.59375 26.515625 31.984375 
L 29.59375 31.296875 
Q 39.15625 29.25 43.1875 25.515625 
Q 47.21875 21.78125 47.21875 15.09375 
Q 47.21875 7.46875 41.1875 3.015625 
Q 35.15625 -1.421875 24.609375 -1.421875 
Q 20.21875 -1.421875 15.453125 -0.5625 
Q 10.6875 0.296875 5.421875 2 
L 5.421875 11.28125 
Q 10.40625 8.6875 15.234375 7.390625 
Q 20.0625 6.109375 24.8125 6.109375 
Q 31.15625 6.109375 34.5625 8.28125 
Q 37.984375 10.453125 37.984375 14.40625 
Q 37.984375 18.0625 35.515625 20.015625 
Q 33.0625 21.96875 24.703125 23.78125 
L 21.578125 24.515625 
Q 13.234375 26.265625 9.515625 29.90625 
Q 5.8125 33.546875 5.8125 39.890625 
Q 5.8125 47.609375 11.28125 51.796875 
Q 16.75 56 26.8125 56 
Q 31.78125 56 36.171875 55.265625 
Q 40.578125 54.546875 44.28125 53.078125 
" id="BitstreamVeraSans-Roman-73"/>
      <path d="M 8.015625 75.875 
L 15.828125 75.875 
Q 23.140625 64.359375 26.78125 53.3125 
Q 30.421875 42.28125 30.421875 31.390625 
Q 30.421875 20.453125 26.78125 9.375 
Q 23.140625 -1.703125 15.828125 -13.1875 
L 8.015625 -13.1875 
Q 14.5 -2 17.703125 9.0625 
Q 20.90625 20.125 20.90625 31.390625 
Q 20.90625 42.671875 17.703125 53.65625 
Q 14.5 64.65625 8.015625 75.875 
" id="BitstreamVeraSans-Roman-29"/>
     </defs>
     <g transform="translate(166.05515625 418.0696875)scale(0.18 -0.18)">
      <use xlink:href="#BitstreamVeraSans-Roman-6c"/>
      <use x="27.783203125" xlink:href="#BitstreamVeraSans-Roman-6f"/>
      <use x="88.96484375" xlink:href="#BitstreamVeraSans-Roman-67"/>
      <use x="152.44140625" xlink:href="#BitstreamVeraSans-Roman-31"/>
      <use x="216.064453125" xlink:href="#BitstreamVeraSans-Roman-30"/>
      <use x="279.6875" xlink:href="#BitstreamVeraSans-Roman-20"/>
      <use x="311.474609375" xlink:href="#BitstreamVeraSans-Roman-6f"/>
      <use x="372.65625" xlink:href="#BitstreamVeraSans-Roman-66"/>
      <use x="407.861328125" xlink:href="#BitstreamVeraSans-Roman-20"/>
      <use x="439.6484375" xlink:href="#BitstreamVeraSans-Roman-28"/>
      <use x="478.662109375" xlink:href="#BitstreamVeraSans-Roman-23"/>
      <use x="562.451171875" xlink:href="#BitstreamVeraSans-Roman-20"/>
      <use x="594.23828125" xlink:href="#BitstreamVeraSans-Roman-66"/>
      <use x="629.365234375" xlink:href="#BitstreamVeraSans-Roman-2d"/>
      <use x="665.44921875" xlink:href="#BitstreamVeraSans-Roman-65"/>
      <use x="726.97265625" xlink:href="#BitstreamVeraSans-Roman-76"/>
      <use x="786.15234375" xlink:href="#BitstreamVeraSans-Roman-61"/>
      <use x="847.431640625" xlink:href="#BitstreamVeraSans-Roman-6c"/>
      <use x="875.21484375" xlink:href="#BitstreamVeraSans-Roman-73"/>
      <use x="927.314453125" xlink:href="#BitstreamVeraSans-Roman-20"/>
      <use x="959.1015625" xlink:href="#BitstreamVeraSans-Roman-2f"/>
      <use x="992.79296875" xlink:href="#BitstreamVeraSans-Roman-20"/>
      <use x="1024.58007812" xlink:href="#BitstreamVeraSans-Roman-64"/>
      <use x="1088.05664062" xlink:href="#BitstreamVeraSans-Roman-69"/>
      <use x="1115.83984375" xlink:href="#BitstreamVeraSans-Roman-6d"/>
      <use x="1213.25195312" xlink:href="#BitstreamVeraSans-Roman-65"/>
      <use x="1274.77539062" xlink:href="#BitstreamVeraSans-Roman-6e"/>
      <use x="1338.15429688" xlink:href="#BitstreamVeraSans-Roman-73"/>
      <use x="1390.25390625" xlink:href="#BitstreamVeraSans-Roman-69"/>
      <use x="1418.03710938" xlink:href="#BitstreamVeraSans-Roman-6f"/>
      <use x="1479.21875" xlink:href="#BitstreamVeraSans-Roman-6e"/>
      <use x="1542.59765625" xlink:href="#BitstreamVeraSans-Roman-29"/>
     </g>
    </g>
   </g>
   <g id="matplotlib.axis_2">
    <g id="ytick_1">
     <g id="line2d_107">
      <path clip-path="url(#p51c2698421)" d="M 85.2 376.03625 
L 531.6 376.03625 
" style="fill:none;stroke:#000000;stroke-dasharray:1.000000,3.000000;stroke-dashoffset:0.0;stroke-width:0.5;"/>
     </g>
     <g id="line2d_108">
      <defs>
       <path d="M 0 0 
L 4 0 
" id="m0f776e5e3d" style="stroke:#000000;stroke-width:0.5;"/>
      </defs>
      <g>
       <use style="stroke:#000000;stroke-width:0.5;" x="85.2" xlink:href="#m0f776e5e3d" y="376.03625"/>
      </g>
     </g>
     <g id="line2d_109">
      <defs>
       <path d="M 0 0 
L -4 0 
" id="m0f863fef5c" style="stroke:#000000;stroke-width:0.5;"/>
      </defs>
      <g>
       <use style="stroke:#000000;stroke-width:0.5;" x="531.6" xlink:href="#m0f863fef5c" y="376.03625"/>
      </g>
     </g>
     <g id="text_11">
      <!-- 0.0 -->
      <defs>
       <path d="M 10.6875 12.40625 
L 21 12.40625 
L 21 0 
L 10.6875 0 
z
" id="BitstreamVeraSans-Roman-2e"/>
      </defs>
      <g transform="translate(49.39375 381.555)scale(0.2 -0.2)">
       <use xlink:href="#BitstreamVeraSans-Roman-30"/>
       <use x="63.623046875" xlink:href="#BitstreamVeraSans-Roman-2e"/>
       <use x="95.41015625" xlink:href="#BitstreamVeraSans-Roman-30"/>
      </g>
     </g>
    </g>
    <g id="ytick_2">
     <g id="line2d_110">
      <path clip-path="url(#p51c2698421)" d="M 85.2 307.600606 
L 531.6 307.600606 
" style="fill:none;stroke:#000000;stroke-dasharray:1.000000,3.000000;stroke-dashoffset:0.0;stroke-width:0.5;"/>
     </g>
     <g id="line2d_111">
      <g>
       <use style="stroke:#000000;stroke-width:0.5;" x="85.2" xlink:href="#m0f776e5e3d" y="307.600606436"/>
      </g>
     </g>
     <g id="line2d_112">
      <g>
       <use style="stroke:#000000;stroke-width:0.5;" x="531.6" xlink:href="#m0f863fef5c" y="307.600606436"/>
      </g>
     </g>
     <g id="text_12">
      <!-- 0.2 -->
      <g transform="translate(49.39375 313.119356436)scale(0.2 -0.2)">
       <use xlink:href="#BitstreamVeraSans-Roman-30"/>
       <use x="63.623046875" xlink:href="#BitstreamVeraSans-Roman-2e"/>
       <use x="95.41015625" xlink:href="#BitstreamVeraSans-Roman-32"/>
      </g>
     </g>
    </g>
    <g id="ytick_3">
     <g id="line2d_113">
      <path clip-path="url(#p51c2698421)" d="M 85.2 239.164963 
L 531.6 239.164963 
" style="fill:none;stroke:#000000;stroke-dasharray:1.000000,3.000000;stroke-dashoffset:0.0;stroke-width:0.5;"/>
     </g>
     <g id="line2d_114">
      <g>
       <use style="stroke:#000000;stroke-width:0.5;" x="85.2" xlink:href="#m0f776e5e3d" y="239.164962871"/>
      </g>
     </g>
     <g id="line2d_115">
      <g>
       <use style="stroke:#000000;stroke-width:0.5;" x="531.6" xlink:href="#m0f863fef5c" y="239.164962871"/>
      </g>
     </g>
     <g id="text_13">
      <!-- 0.4 -->
      <g transform="translate(49.39375 244.683712871)scale(0.2 -0.2)">
       <use xlink:href="#BitstreamVeraSans-Roman-30"/>
       <use x="63.623046875" xlink:href="#BitstreamVeraSans-Roman-2e"/>
       <use x="95.41015625" xlink:href="#BitstreamVeraSans-Roman-34"/>
      </g>
     </g>
    </g>
    <g id="ytick_4">
     <g id="line2d_116">
      <path clip-path="url(#p51c2698421)" d="M 85.2 170.729319 
L 531.6 170.729319 
" style="fill:none;stroke:#000000;stroke-dasharray:1.000000,3.000000;stroke-dashoffset:0.0;stroke-width:0.5;"/>
     </g>
     <g id="line2d_117">
      <g>
       <use style="stroke:#000000;stroke-width:0.5;" x="85.2" xlink:href="#m0f776e5e3d" y="170.729319307"/>
      </g>
     </g>
     <g id="line2d_118">
      <g>
       <use style="stroke:#000000;stroke-width:0.5;" x="531.6" xlink:href="#m0f863fef5c" y="170.729319307"/>
      </g>
     </g>
     <g id="text_14">
      <!-- 0.6 -->
      <g transform="translate(49.39375 176.248069307)scale(0.2 -0.2)">
       <use xlink:href="#BitstreamVeraSans-Roman-30"/>
       <use x="63.623046875" xlink:href="#BitstreamVeraSans-Roman-2e"/>
       <use x="95.41015625" xlink:href="#BitstreamVeraSans-Roman-36"/>
      </g>
     </g>
    </g>
    <g id="ytick_5">
     <g id="line2d_119">
      <path clip-path="url(#p51c2698421)" d="M 85.2 102.293676 
L 531.6 102.293676 
" style="fill:none;stroke:#000000;stroke-dasharray:1.000000,3.000000;stroke-dashoffset:0.0;stroke-width:0.5;"/>
     </g>
     <g id="line2d_120">
      <g>
       <use style="stroke:#000000;stroke-width:0.5;" x="85.2" xlink:href="#m0f776e5e3d" y="102.293675743"/>
      </g>
     </g>
     <g id="line2d_121">
      <g>
       <use style="stroke:#000000;stroke-width:0.5;" x="531.6" xlink:href="#m0f863fef5c" y="102.293675743"/>
      </g>
     </g>
     <g id="text_15">
      <!-- 0.8 -->
      <g transform="translate(49.39375 107.812425743)scale(0.2 -0.2)">
       <use xlink:href="#BitstreamVeraSans-Roman-30"/>
       <use x="63.623046875" xlink:href="#BitstreamVeraSans-Roman-2e"/>
       <use x="95.41015625" xlink:href="#BitstreamVeraSans-Roman-38"/>
      </g>
     </g>
    </g>
    <g id="ytick_6">
     <g id="line2d_122">
      <path clip-path="url(#p51c2698421)" d="M 85.2 33.858032 
L 531.6 33.858032 
" style="fill:none;stroke:#000000;stroke-dasharray:1.000000,3.000000;stroke-dashoffset:0.0;stroke-width:0.5;"/>
     </g>
     <g id="line2d_123">
      <g>
       <use style="stroke:#000000;stroke-width:0.5;" x="85.2" xlink:href="#m0f776e5e3d" y="33.8580321782"/>
      </g>
     </g>
     <g id="line2d_124">
      <g>
       <use style="stroke:#000000;stroke-width:0.5;" x="531.6" xlink:href="#m0f863fef5c" y="33.8580321782"/>
      </g>
     </g>
     <g id="text_16">
      <!-- 1.0 -->
      <g transform="translate(49.39375 39.3767821782)scale(0.2 -0.2)">
       <use xlink:href="#BitstreamVeraSans-Roman-31"/>
       <use x="63.623046875" xlink:href="#BitstreamVeraSans-Roman-2e"/>
       <use x="95.41015625" xlink:href="#BitstreamVeraSans-Roman-30"/>
      </g>
     </g>
    </g>
    <g id="text_17">
     <!-- Proportion of function+target pairs -->
     <defs>
      <path d="M 19.671875 64.796875 
L 19.671875 37.40625 
L 32.078125 37.40625 
Q 38.96875 37.40625 42.71875 40.96875 
Q 46.484375 44.53125 46.484375 51.125 
Q 46.484375 57.671875 42.71875 61.234375 
Q 38.96875 64.796875 32.078125 64.796875 
z
M 9.8125 72.90625 
L 32.078125 72.90625 
Q 44.34375 72.90625 50.609375 67.359375 
Q 56.890625 61.8125 56.890625 51.125 
Q 56.890625 40.328125 50.609375 34.8125 
Q 44.34375 29.296875 32.078125 29.296875 
L 19.671875 29.296875 
L 19.671875 0 
L 9.8125 0 
z
" id="BitstreamVeraSans-Roman-50"/>
      <path d="M 46 62.703125 
L 46 35.5 
L 73.1875 35.5 
L 73.1875 27.203125 
L 46 27.203125 
L 46 0 
L 37.796875 0 
L 37.796875 27.203125 
L 10.59375 27.203125 
L 10.59375 35.5 
L 37.796875 35.5 
L 37.796875 62.703125 
z
" id="BitstreamVeraSans-Roman-2b"/>
      <path d="M 18.109375 8.203125 
L 18.109375 -20.796875 
L 9.078125 -20.796875 
L 9.078125 54.6875 
L 18.109375 54.6875 
L 18.109375 46.390625 
Q 20.953125 51.265625 25.265625 53.625 
Q 29.59375 56 35.59375 56 
Q 45.5625 56 51.78125 48.09375 
Q 58.015625 40.1875 58.015625 27.296875 
Q 58.015625 14.40625 51.78125 6.484375 
Q 45.5625 -1.421875 35.59375 -1.421875 
Q 29.59375 -1.421875 25.265625 0.953125 
Q 20.953125 3.328125 18.109375 8.203125 
M 48.6875 27.296875 
Q 48.6875 37.203125 44.609375 42.84375 
Q 40.53125 48.484375 33.40625 48.484375 
Q 26.265625 48.484375 22.1875 42.84375 
Q 18.109375 37.203125 18.109375 27.296875 
Q 18.109375 17.390625 22.1875 11.75 
Q 26.265625 6.109375 33.40625 6.109375 
Q 40.53125 6.109375 44.609375 11.75 
Q 48.6875 17.390625 48.6875 27.296875 
" id="BitstreamVeraSans-Roman-70"/>
      <path d="M 18.3125 70.21875 
L 18.3125 54.6875 
L 36.8125 54.6875 
L 36.8125 47.703125 
L 18.3125 47.703125 
L 18.3125 18.015625 
Q 18.3125 11.328125 20.140625 9.421875 
Q 21.96875 7.515625 27.59375 7.515625 
L 36.8125 7.515625 
L 36.8125 0 
L 27.59375 0 
Q 17.1875 0 13.234375 3.875 
Q 9.28125 7.765625 9.28125 18.015625 
L 9.28125 47.703125 
L 2.6875 47.703125 
L 2.6875 54.6875 
L 9.28125 54.6875 
L 9.28125 70.21875 
z
" id="BitstreamVeraSans-Roman-74"/>
      <path d="M 8.5 21.578125 
L 8.5 54.6875 
L 17.484375 54.6875 
L 17.484375 21.921875 
Q 17.484375 14.15625 20.5 10.265625 
Q 23.53125 6.390625 29.59375 6.390625 
Q 36.859375 6.390625 41.078125 11.03125 
Q 45.3125 15.671875 45.3125 23.6875 
L 45.3125 54.6875 
L 54.296875 54.6875 
L 54.296875 0 
L 45.3125 0 
L 45.3125 8.40625 
Q 42.046875 3.421875 37.71875 1 
Q 33.40625 -1.421875 27.6875 -1.421875 
Q 18.265625 -1.421875 13.375 4.4375 
Q 8.5 10.296875 8.5 21.578125 
" id="BitstreamVeraSans-Roman-75"/>
      <path d="M 41.109375 46.296875 
Q 39.59375 47.171875 37.8125 47.578125 
Q 36.03125 48 33.890625 48 
Q 26.265625 48 22.1875 43.046875 
Q 18.109375 38.09375 18.109375 28.8125 
L 18.109375 0 
L 9.078125 0 
L 9.078125 54.6875 
L 18.109375 54.6875 
L 18.109375 46.1875 
Q 20.953125 51.171875 25.484375 53.578125 
Q 30.03125 56 36.53125 56 
Q 37.453125 56 38.578125 55.875 
Q 39.703125 55.765625 41.0625 55.515625 
z
" id="BitstreamVeraSans-Roman-72"/>
      <path d="M 48.78125 52.59375 
L 48.78125 44.1875 
Q 44.96875 46.296875 41.140625 47.34375 
Q 37.3125 48.390625 33.40625 48.390625 
Q 24.65625 48.390625 19.8125 42.84375 
Q 14.984375 37.3125 14.984375 27.296875 
Q 14.984375 17.28125 19.8125 11.734375 
Q 24.65625 6.203125 33.40625 6.203125 
Q 37.3125 6.203125 41.140625 7.25 
Q 44.96875 8.296875 48.78125 10.40625 
L 48.78125 2.09375 
Q 45.015625 0.34375 40.984375 -0.53125 
Q 36.96875 -1.421875 32.421875 -1.421875 
Q 20.0625 -1.421875 12.78125 6.34375 
Q 5.515625 14.109375 5.515625 27.296875 
Q 5.515625 40.671875 12.859375 48.328125 
Q 20.21875 56 33.015625 56 
Q 37.15625 56 41.109375 55.140625 
Q 45.0625 54.296875 48.78125 52.59375 
" id="BitstreamVeraSans-Roman-63"/>
     </defs>
     <g transform="translate(40.6503125 361.225625)rotate(-90.0)scale(0.18 -0.18)">
      <use xlink:href="#BitstreamVeraSans-Roman-50"/>
      <use x="60.287109375" xlink:href="#BitstreamVeraSans-Roman-72"/>
      <use x="101.369140625" xlink:href="#BitstreamVeraSans-Roman-6f"/>
      <use x="162.55078125" xlink:href="#BitstreamVeraSans-Roman-70"/>
      <use x="226.02734375" xlink:href="#BitstreamVeraSans-Roman-6f"/>
      <use x="287.208984375" xlink:href="#BitstreamVeraSans-Roman-72"/>
      <use x="328.322265625" xlink:href="#BitstreamVeraSans-Roman-74"/>
      <use x="367.53125" xlink:href="#BitstreamVeraSans-Roman-69"/>
      <use x="395.314453125" xlink:href="#BitstreamVeraSans-Roman-6f"/>
      <use x="456.49609375" xlink:href="#BitstreamVeraSans-Roman-6e"/>
      <use x="519.875" xlink:href="#BitstreamVeraSans-Roman-20"/>
      <use x="551.662109375" xlink:href="#BitstreamVeraSans-Roman-6f"/>
      <use x="612.84375" xlink:href="#BitstreamVeraSans-Roman-66"/>
      <use x="648.048828125" xlink:href="#BitstreamVeraSans-Roman-20"/>
      <use x="679.8359375" xlink:href="#BitstreamVeraSans-Roman-66"/>
      <use x="715.041015625" xlink:href="#BitstreamVeraSans-Roman-75"/>
      <use x="778.419921875" xlink:href="#BitstreamVeraSans-Roman-6e"/>
      <use x="841.798828125" xlink:href="#BitstreamVeraSans-Roman-63"/>
      <use x="896.779296875" xlink:href="#BitstreamVeraSans-Roman-74"/>
      <use x="935.98828125" xlink:href="#BitstreamVeraSans-Roman-69"/>
      <use x="963.771484375" xlink:href="#BitstreamVeraSans-Roman-6f"/>
      <use x="1024.953125" xlink:href="#BitstreamVeraSans-Roman-6e"/>
      <use x="1088.33203125" xlink:href="#BitstreamVeraSans-Roman-2b"/>
      <use x="1172.12109375" xlink:href="#BitstreamVeraSans-Roman-74"/>
      <use x="1211.33007812" xlink:href="#BitstreamVeraSans-Roman-61"/>
      <use x="1272.609375" xlink:href="#BitstreamVeraSans-Roman-72"/>
      <use x="1313.70703125" xlink:href="#BitstreamVeraSans-Roman-67"/>
      <use x="1377.18359375" xlink:href="#BitstreamVeraSans-Roman-65"/>
      <use x="1438.70703125" xlink:href="#BitstreamVeraSans-Roman-74"/>
      <use x="1477.91601562" xlink:href="#BitstreamVeraSans-Roman-20"/>
      <use x="1509.703125" xlink:href="#BitstreamVeraSans-Roman-70"/>
      <use x="1573.1796875" xlink:href="#BitstreamVeraSans-Roman-61"/>
      <use x="1634.45898438" xlink:href="#BitstreamVeraSans-Roman-69"/>
      <use x="1662.2421875" xlink:href="#BitstreamVeraSans-Roman-72"/>
      <use x="1703.35546875" xlink:href="#BitstreamVeraSans-Roman-73"/>
     </g>
    </g>
   </g>
   <g id="text_18">
    <!-- RS -->
    <defs>
     <path d="M 44.390625 34.1875 
Q 47.5625 33.109375 50.5625 29.59375 
Q 53.5625 26.078125 56.59375 19.921875 
L 66.609375 0 
L 56 0 
L 46.6875 18.703125 
Q 43.0625 26.03125 39.671875 28.421875 
Q 36.28125 30.8125 30.421875 30.8125 
L 19.671875 30.8125 
L 19.671875 0 
L 9.8125 0 
L 9.8125 72.90625 
L 32.078125 72.90625 
Q 44.578125 72.90625 50.734375 67.671875 
Q 56.890625 62.453125 56.890625 51.90625 
Q 56.890625 45.015625 53.6875 40.46875 
Q 50.484375 35.9375 44.390625 34.1875 
M 19.671875 64.796875 
L 19.671875 38.921875 
L 32.078125 38.921875 
Q 39.203125 38.921875 42.84375 42.21875 
Q 46.484375 45.515625 46.484375 51.90625 
Q 46.484375 58.296875 42.84375 61.546875 
Q 39.203125 64.796875 32.078125 64.796875 
z
" id="BitstreamVeraSans-Roman-52"/>
     <path d="M 53.515625 70.515625 
L 53.515625 60.890625 
Q 47.90625 63.578125 42.921875 64.890625 
Q 37.9375 66.21875 33.296875 66.21875 
Q 25.25 66.21875 20.875 63.09375 
Q 16.5 59.96875 16.5 54.203125 
Q 16.5 49.359375 19.40625 46.890625 
Q 22.3125 44.4375 30.421875 42.921875 
L 36.375 41.703125 
Q 47.40625 39.59375 52.65625 34.296875 
Q 57.90625 29 57.90625 20.125 
Q 57.90625 9.515625 50.796875 4.046875 
Q 43.703125 -1.421875 29.984375 -1.421875 
Q 24.8125 -1.421875 18.96875 -0.25 
Q 13.140625 0.921875 6.890625 3.21875 
L 6.890625 13.375 
Q 12.890625 10.015625 18.65625 8.296875 
Q 24.421875 6.59375 29.984375 6.59375 
Q 38.421875 6.59375 43.015625 9.90625 
Q 47.609375 13.234375 47.609375 19.390625 
Q 47.609375 24.75 44.3125 27.78125 
Q 41.015625 30.8125 33.5 32.328125 
L 27.484375 33.5 
Q 16.453125 35.6875 11.515625 40.375 
Q 6.59375 45.0625 6.59375 53.421875 
Q 6.59375 63.09375 13.40625 68.65625 
Q 20.21875 74.21875 32.171875 74.21875 
Q 37.3125 74.21875 42.625 73.28125 
Q 47.953125 72.359375 53.515625 70.515625 
" id="BitstreamVeraSans-Roman-53"/>
    </defs>
    <g transform="translate(492.0 373.331748144)scale(0.15 -0.15)">
     <use xlink:href="#BitstreamVeraSans-Roman-52"/>
     <use x="69.482421875" xlink:href="#BitstreamVeraSans-Roman-53"/>
    </g>
   </g>
   <g id="text_19">
    <!-- best 2009 -->
    <defs>
     <path d="M 10.984375 1.515625 
L 10.984375 10.5 
Q 14.703125 8.734375 18.5 7.8125 
Q 22.3125 6.890625 25.984375 6.890625 
Q 35.75 6.890625 40.890625 13.453125 
Q 46.046875 20.015625 46.78125 33.40625 
Q 43.953125 29.203125 39.59375 26.953125 
Q 35.25 24.703125 29.984375 24.703125 
Q 19.046875 24.703125 12.671875 31.3125 
Q 6.296875 37.9375 6.296875 49.421875 
Q 6.296875 60.640625 12.9375 67.421875 
Q 19.578125 74.21875 30.609375 74.21875 
Q 43.265625 74.21875 49.921875 64.515625 
Q 56.59375 54.828125 56.59375 36.375 
Q 56.59375 19.140625 48.40625 8.859375 
Q 40.234375 -1.421875 26.421875 -1.421875 
Q 22.703125 -1.421875 18.890625 -0.6875 
Q 15.09375 0.046875 10.984375 1.515625 
M 30.609375 32.421875 
Q 37.25 32.421875 41.125 36.953125 
Q 45.015625 41.5 45.015625 49.421875 
Q 45.015625 57.28125 41.125 61.84375 
Q 37.25 66.40625 30.609375 66.40625 
Q 23.96875 66.40625 20.09375 61.84375 
Q 16.21875 57.28125 16.21875 49.421875 
Q 16.21875 41.5 20.09375 36.953125 
Q 23.96875 32.421875 30.609375 32.421875 
" id="BitstreamVeraSans-Roman-39"/>
     <path d="M 48.6875 27.296875 
Q 48.6875 37.203125 44.609375 42.84375 
Q 40.53125 48.484375 33.40625 48.484375 
Q 26.265625 48.484375 22.1875 42.84375 
Q 18.109375 37.203125 18.109375 27.296875 
Q 18.109375 17.390625 22.1875 11.75 
Q 26.265625 6.109375 33.40625 6.109375 
Q 40.53125 6.109375 44.609375 11.75 
Q 48.6875 17.390625 48.6875 27.296875 
M 18.109375 46.390625 
Q 20.953125 51.265625 25.265625 53.625 
Q 29.59375 56 35.59375 56 
Q 45.5625 56 51.78125 48.09375 
Q 58.015625 40.1875 58.015625 27.296875 
Q 58.015625 14.40625 51.78125 6.484375 
Q 45.5625 -1.421875 35.59375 -1.421875 
Q 29.59375 -1.421875 25.265625 0.953125 
Q 20.953125 3.328125 18.109375 8.203125 
L 18.109375 0 
L 9.078125 0 
L 9.078125 75.984375 
L 18.109375 75.984375 
z
" id="BitstreamVeraSans-Roman-62"/>
    </defs>
    <g transform="translate(492.0 44.8406590347)scale(0.15 -0.15)">
     <use xlink:href="#BitstreamVeraSans-Roman-62"/>
     <use x="63.4765625" xlink:href="#BitstreamVeraSans-Roman-65"/>
     <use x="125.0" xlink:href="#BitstreamVeraSans-Roman-73"/>
     <use x="177.099609375" xlink:href="#BitstreamVeraSans-Roman-74"/>
     <use x="216.30859375" xlink:href="#BitstreamVeraSans-Roman-20"/>
     <use x="248.095703125" xlink:href="#BitstreamVeraSans-Roman-32"/>
     <use x="311.71875" xlink:href="#BitstreamVeraSans-Roman-30"/>
     <use x="375.341796875" xlink:href="#BitstreamVeraSans-Roman-30"/>
     <use x="438.96484375" xlink:href="#BitstreamVeraSans-Roman-39"/>
    </g>
   </g>
   <g id="text_20">
    <!-- bbob - f6, 20-D -->
    <defs>
     <path d="M 11.71875 12.40625 
L 22.015625 12.40625 
L 22.015625 4 
L 14.015625 -11.625 
L 7.71875 -11.625 
L 11.71875 4 
z
" id="BitstreamVeraSans-Roman-2c"/>
     <path d="M 19.671875 64.796875 
L 19.671875 8.109375 
L 31.59375 8.109375 
Q 46.6875 8.109375 53.6875 14.9375 
Q 60.6875 21.78125 60.6875 36.53125 
Q 60.6875 51.171875 53.6875 57.984375 
Q 46.6875 64.796875 31.59375 64.796875 
z
M 9.8125 72.90625 
L 30.078125 72.90625 
Q 51.265625 72.90625 61.171875 64.09375 
Q 71.09375 55.28125 71.09375 36.53125 
Q 71.09375 17.671875 61.125 8.828125 
Q 51.171875 0 30.078125 0 
L 9.8125 0 
z
" id="BitstreamVeraSans-Roman-44"/>
    </defs>
    <g transform="translate(89.664 50.007246875)scale(0.1666 -0.1666)">
     <use xlink:href="#BitstreamVeraSans-Roman-62"/>
     <use x="63.4765625" xlink:href="#BitstreamVeraSans-Roman-62"/>
     <use x="126.953125" xlink:href="#BitstreamVeraSans-Roman-6f"/>
     <use x="188.134765625" xlink:href="#BitstreamVeraSans-Roman-62"/>
     <use x="251.611328125" xlink:href="#BitstreamVeraSans-Roman-20"/>
     <use x="283.3984375" xlink:href="#BitstreamVeraSans-Roman-2d"/>
     <use x="319.482421875" xlink:href="#BitstreamVeraSans-Roman-20"/>
     <use x="351.26953125" xlink:href="#BitstreamVeraSans-Roman-66"/>
     <use x="386.474609375" xlink:href="#BitstreamVeraSans-Roman-36"/>
     <use x="450.09765625" xlink:href="#BitstreamVeraSans-Roman-2c"/>
     <use x="481.884765625" xlink:href="#BitstreamVeraSans-Roman-20"/>
     <use x="513.671875" xlink:href="#BitstreamVeraSans-Roman-32"/>
     <use x="577.294921875" xlink:href="#BitstreamVeraSans-Roman-30"/>
     <use x="640.91796875" xlink:href="#BitstreamVeraSans-Roman-2d"/>
     <use x="677.001953125" xlink:href="#BitstreamVeraSans-Roman-44"/>
    </g>
    <!-- 51 targets in 100..1e-08 -->
    <g transform="translate(89.664 68.6628025)scale(0.1666 -0.1666)">
     <use xlink:href="#BitstreamVeraSans-Roman-35"/>
     <use x="63.623046875" xlink:href="#BitstreamVeraSans-Roman-31"/>
     <use x="127.24609375" xlink:href="#BitstreamVeraSans-Roman-20"/>
     <use x="159.033203125" xlink:href="#BitstreamVeraSans-Roman-74"/>
     <use x="198.2421875" xlink:href="#BitstreamVeraSans-Roman-61"/>
     <use x="259.521484375" xlink:href="#BitstreamVeraSans-Roman-72"/>
     <use x="300.619140625" xlink:href="#BitstreamVeraSans-Roman-67"/>
     <use x="364.095703125" xlink:href="#BitstreamVeraSans-Roman-65"/>
     <use x="425.619140625" xlink:href="#BitstreamVeraSans-Roman-74"/>
     <use x="464.828125" xlink:href="#BitstreamVeraSans-Roman-73"/>
     <use x="516.927734375" xlink:href="#BitstreamVeraSans-Roman-20"/>
     <use x="548.71484375" xlink:href="#BitstreamVeraSans-Roman-69"/>
     <use x="576.498046875" xlink:href="#BitstreamVeraSans-Roman-6e"/>
     <use x="639.876953125" xlink:href="#BitstreamVeraSans-Roman-20"/>
     <use x="671.6640625" xlink:href="#BitstreamVeraSans-Roman-31"/>
     <use x="735.287109375" xlink:href="#BitstreamVeraSans-Roman-30"/>
     <use x="798.91015625" xlink:href="#BitstreamVeraSans-Roman-30"/>
     <use x="862.533203125" xlink:href="#BitstreamVeraSans-Roman-2e"/>
     <use x="894.3203125" xlink:href="#BitstreamVeraSans-Roman-2e"/>
     <use x="926.107421875" xlink:href="#BitstreamVeraSans-Roman-31"/>
     <use x="989.73046875" xlink:href="#BitstreamVeraSans-Roman-65"/>
     <use x="1051.25390625" xlink:href="#BitstreamVeraSans-Roman-2d"/>
     <use x="1087.33789062" xlink:href="#BitstreamVeraSans-Roman-30"/>
     <use x="1150.9609375" xlink:href="#BitstreamVeraSans-Roman-38"/>
    </g>
    <!-- 15 instances -->
    <g transform="translate(89.664 87.318358125)scale(0.1666 -0.1666)">
     <use xlink:href="#BitstreamVeraSans-Roman-31"/>
     <use x="63.623046875" xlink:href="#BitstreamVeraSans-Roman-35"/>
     <use x="127.24609375" xlink:href="#BitstreamVeraSans-Roman-20"/>
     <use x="159.033203125" xlink:href="#BitstreamVeraSans-Roman-69"/>
     <use x="186.81640625" xlink:href="#BitstreamVeraSans-Roman-6e"/>
     <use x="250.1953125" xlink:href="#BitstreamVeraSans-Roman-73"/>
     <use x="302.294921875" xlink:href="#BitstreamVeraSans-Roman-74"/>
     <use x="341.50390625" xlink:href="#BitstreamVeraSans-Roman-61"/>
     <use x="402.783203125" xlink:href="#BitstreamVeraSans-Roman-6e"/>
     <use x="466.162109375" xlink:href="#BitstreamVeraSans-Roman-63"/>
     <use x="521.142578125" xlink:href="#BitstreamVeraSans-Roman-65"/>
     <use x="582.666015625" xlink:href="#BitstreamVeraSans-Roman-73"/>
    </g>
   </g>
   <g id="text_21">
    <!-- 0.0.0 -->
    <g style="fill:#808080;" transform="translate(295.678125 370.5005625)scale(0.1 -0.1)">
     <use xlink:href="#BitstreamVeraSans-Roman-30"/>
     <use x="63.623046875" xlink:href="#BitstreamVeraSans-Roman-2e"/>
     <use x="95.41015625" xlink:href="#BitstreamVeraSans-Roman-30"/>
     <use x="159.033203125" xlink:href="#BitstreamVeraSans-Roman-2e"/>
     <use x="190.8203125" xlink:href="#BitstreamVeraSans-Roman-30"/>
    </g>
   </g>
   <g id="text_22">
    <!-- 6 Attractive sector -->
    <defs>
     <path d="M 34.1875 63.1875 
L 20.796875 26.90625 
L 47.609375 26.90625 
z
M 28.609375 72.90625 
L 39.796875 72.90625 
L 67.578125 0 
L 57.328125 0 
L 50.6875 18.703125 
L 17.828125 18.703125 
L 11.1875 0 
L 0.78125 0 
z
" id="BitstreamVeraSans-Roman-41"/>
    </defs>
    <g transform="translate(196.899375 25.43625)scale(0.24 -0.24)">
     <use xlink:href="#BitstreamVeraSans-Roman-36"/>
     <use x="63.623046875" xlink:href="#BitstreamVeraSans-Roman-20"/>
     <use x="95.41015625" xlink:href="#BitstreamVeraSans-Roman-41"/>
     <use x="163.802734375" xlink:href="#BitstreamVeraSans-Roman-74"/>
     <use x="203.01171875" xlink:href="#BitstreamVeraSans-Roman-74"/>
     <use x="242.220703125" xlink:href="#BitstreamVeraSans-Roman-72"/>
     <use x="283.333984375" xlink:href="#BitstreamVeraSans-Roman-61"/>
     <use x="344.61328125" xlink:href="#BitstreamVeraSans-Roman-63"/>
     <use x="399.59375" xlink:href="#BitstreamVeraSans-Roman-74"/>
     <use x="438.802734375" xlink:href="#BitstreamVeraSans-Roman-69"/>
     <use x="466.5859375" xlink:href="#BitstreamVeraSans-Roman-76"/>
     <use x="525.765625" xlink:href="#BitstreamVeraSans-Roman-65"/>
     <use x="587.2890625" xlink:href="#BitstreamVeraSans-Roman-20"/>
     <use x="619.076171875" xlink:href="#BitstreamVeraSans-Roman-73"/>
     <use x="671.17578125" xlink:href="#BitstreamVeraSans-Roman-65"/>
     <use x="732.69921875" xlink:href="#BitstreamVeraSans-Roman-63"/>
     <use x="787.6796875" xlink:href="#BitstreamVeraSans-Roman-74"/>
     <use x="826.888671875" xlink:href="#BitstreamVeraSans-Roman-6f"/>
     <use x="888.0703125" xlink:href="#BitstreamVeraSans-Roman-72"/>
    </g>
   </g>
  </g>
 </g>
 <defs>
  <clipPath id="p51c2698421">
   <rect height="345.6" width="446.4" x="85.2" y="30.43625"/>
  </clipPath>
 </defs>
</svg>
