<?xml version="1.0" encoding="utf-8" standalone="no"?>
<!DOCTYPE svg PUBLIC "-//W3C//DTD SVG 1.1//EN"
  "http://www.w3.org/Graphics/SVG/1.1/DTD/svg11.dtd">
<!-- Created with matplotlib (http://matplotlib.org/) -->
<svg height="413pt" version="1.1" viewBox="0 0 527 413" width="527pt" xmlns="http://www.w3.org/2000/svg" xmlns:xlink="http://www.w3.org/1999/xlink">
 <defs>
  <style type="text/css">
*{stroke-linecap:butt;stroke-linejoin:round;stroke-miterlimit:100000;}
  </style>
 </defs>
 <g id="figure_1">
  <g id="patch_1">
   <path d="M 0 413.968843 
L 527.325 413.968843 
L 527.325 0 
L 0 0 
z
" style="fill:#ffffff;"/>
  </g>
  <g id="axes_1">
   <g id="patch_2">
    <path d="M 67.3625 359.056343 
L 513.7625 359.056343 
L 513.7625 13.456343 
L 67.3625 13.456343 
z
" style="fill:#ffffff;"/>
   </g>
   <g id="line2d_1">
    <path clip-path="url(#pca3703533f)" d="M 314.183131 359.056343 
L 314.183131 354.493967 
L 317.851435 354.493967 
L 317.851435 349.93159 
L 319.158497 349.93159 
L 319.158497 345.369214 
L 319.639698 345.369214 
L 319.639698 340.806838 
L 320.063459 340.806838 
L 320.063459 336.244462 
L 320.900023 336.244462 
L 320.900023 331.682085 
L 320.951832 331.682085 
L 320.951832 327.119709 
L 321.261528 327.119709 
L 321.261528 322.557333 
L 323.32642 322.557333 
L 323.32642 317.994957 
L 324.591702 317.994957 
L 324.591702 313.43258 
L 325.117227 313.43258 
L 325.117227 308.870204 
L 325.448709 308.870204 
L 325.448709 304.307828 
L 341.729623 304.307828 
L 341.729623 299.745452 
L 348.2226 299.745452 
L 348.2226 295.183075 
L 348.575304 295.183075 
L 348.575304 290.620699 
L 353.868905 290.620699 
L 353.868905 286.058323 
L 354.261143 286.058323 
L 354.261143 281.495947 
L 360.804611 281.495947 
L 360.804611 276.933571 
L 372.690962 276.933571 
L 372.690962 272.371194 
L 373.257423 272.371194 
L 373.257423 267.808818 
L 377.063716 267.808818 
L 377.063716 263.246442 
L 388.87405 263.246442 
L 388.87405 258.684066 
L 398.613918 258.684066 
L 398.613918 254.121689 
L 423.140142 254.121689 
L 423.140142 249.559313 
L 427.16834 249.559313 
L 427.16834 244.996937 
L 433.302003 244.996937 
L 433.302003 240.434561 
L 458.129615 240.434561 
L 458.129615 235.872184 
L 469.846656 235.872184 
L 469.846656 231.309808 
L 475.802784 231.309808 
L 475.802784 226.747432 
L 475.802784 226.747432 
L 475.802784 226.747432 
L 513.7625 226.747432 
" style="fill:none;stroke:#f5deb3;stroke-linecap:square;"/>
   </g>
   <g id="line2d_2"/>
   <g id="line2d_3">
    <path clip-path="url(#pca3703533f)" d="M 195.270389 359.056343 
L 195.270389 354.493967 
L 196.635754 354.493967 
L 196.635754 349.93159 
L 209.040145 349.93159 
L 209.040145 345.369214 
L 289.3851 345.369214 
L 289.3851 340.806838 
L 309.694523 340.806838 
L 309.694523 336.244462 
L 353.340934 336.244462 
L 353.340934 331.682085 
L 365.216732 331.682085 
L 365.216732 327.119709 
L 371.245149 327.119709 
L 371.245149 322.557333 
L 383.995083 322.557333 
L 383.995083 317.994957 
L 386.240807 317.994957 
L 386.240807 313.43258 
L 392.342746 313.43258 
L 392.342746 308.870204 
L 399.819095 308.870204 
L 399.819095 304.307828 
L 405.730764 304.307828 
L 405.730764 299.745452 
L 408.427976 299.745452 
L 408.427976 295.183075 
L 413.838501 295.183075 
L 413.838501 290.620699 
L 438.599868 290.620699 
L 438.599868 286.058323 
L 441.30208 286.058323 
L 441.30208 281.495947 
L 442.884062 281.495947 
L 442.884062 276.933571 
L 443.313107 276.933571 
L 443.313107 272.371194 
L 444.086559 272.371194 
L 444.086559 267.808818 
L 444.379537 267.808818 
L 444.379537 263.246442 
L 446.112901 263.246442 
L 446.112901 258.684066 
L 446.241902 258.684066 
L 446.241902 254.121689 
L 448.110529 254.121689 
L 448.110529 249.559313 
L 448.283011 249.559313 
L 448.283011 244.996937 
L 451.255435 244.996937 
L 451.255435 240.434561 
L 451.867602 240.434561 
L 451.867602 235.872184 
L 452.417175 235.872184 
L 452.417175 231.309808 
L 452.465268 231.309808 
L 452.465268 226.747432 
L 453.625525 226.747432 
L 453.625525 222.185056 
L 453.892968 222.185056 
L 453.892968 217.622679 
L 455.460903 217.622679 
L 455.460903 213.060303 
L 464.680113 213.060303 
L 464.680113 208.497927 
L 466.707934 208.497927 
L 466.707934 203.935551 
L 472.032285 203.935551 
L 472.032285 199.373175 
L 476.718993 199.373175 
L 476.718993 194.810798 
L 489.09618 194.810798 
L 489.09618 190.248422 
L 499.50815 190.248422 
L 499.50815 185.686046 
L 504.806302 185.686046 
L 504.806302 181.12367 
L 508.430336 181.12367 
L 508.430336 176.561293 
L 508.430336 176.561293 
L 508.430336 176.561293 
L 513.7625 176.561293 
" style="fill:none;stroke:#f5deb3;stroke-linecap:square;"/>
   </g>
   <g id="line2d_4">
    <path clip-path="url(#pca3703533f)" d="M 327.97721 359.056343 
L 327.97721 354.493967 
L 334.778347 354.493967 
L 334.778347 349.93159 
L 336.0842 349.93159 
L 336.0842 345.369214 
L 336.197751 345.369214 
L 336.197751 340.806838 
L 336.34874 340.806838 
L 336.34874 336.244462 
L 338.30616 336.244462 
L 338.30616 331.682085 
L 339.131613 331.682085 
L 339.131613 327.119709 
L 340.844662 327.119709 
L 340.844662 322.557333 
L 341.118683 322.557333 
L 341.118683 317.994957 
L 342.863022 317.994957 
L 342.863022 313.43258 
L 344.034886 313.43258 
L 344.034886 308.870204 
L 344.737323 308.870204 
L 344.737323 304.307828 
L 345.492182 304.307828 
L 345.492182 299.745452 
L 345.710153 299.745452 
L 345.710153 295.183075 
L 346.143175 295.183075 
L 346.143175 290.620699 
L 346.450125 290.620699 
L 346.541833 281.495947 
L 346.572363 281.495947 
L 346.572363 276.933571 
L 346.906936 276.933571 
L 346.906936 272.371194 
L 347.028029 272.371194 
L 347.028029 267.808818 
L 347.26931 267.808818 
L 347.26931 263.246442 
L 348.428656 263.246442 
L 348.428656 258.684066 
L 349.359628 258.684066 
L 349.359628 254.121689 
L 349.732786 254.121689 
L 349.732786 249.559313 
L 349.904049 249.559313 
L 349.904049 244.996937 
L 350.695369 244.996937 
L 350.695369 240.434561 
L 350.807367 240.434561 
L 350.807367 235.872184 
L 352.699682 235.872184 
L 352.699682 231.309808 
L 353.181414 231.309808 
L 353.181414 226.747432 
L 353.552813 226.747432 
L 353.552813 222.185056 
L 354.026181 222.185056 
L 354.026181 217.622679 
L 354.753463 217.622679 
L 354.856476 208.497927 
L 355.138636 208.497927 
L 355.138636 203.935551 
L 356.000524 203.935551 
L 356.000524 199.373175 
L 356.748491 199.373175 
L 356.748491 194.810798 
L 357.142736 194.810798 
L 357.142736 190.248422 
L 357.265283 190.248422 
L 357.314215 181.12367 
L 357.703904 181.12367 
L 357.728155 171.998917 
L 358.426231 171.998917 
L 358.497875 162.874165 
L 358.90187 162.874165 
L 358.949178 153.749412 
L 359.630009 153.749412 
L 359.653316 144.62466 
L 359.932131 144.62466 
L 359.978445 135.499907 
L 360.781851 135.499907 
L 360.781851 130.937531 
L 361.099522 130.937531 
L 361.099522 126.375155 
L 363.654499 126.375155 
L 363.654499 121.812778 
L 366.649568 121.812778 
L 366.649568 117.250402 
L 368.373295 117.250402 
L 368.373295 112.688026 
L 370.000187 112.688026 
L 370.000187 108.12565 
L 374.71363 108.12565 
L 374.71363 103.563274 
L 384.276298 103.563274 
L 384.276298 99.000897 
L 384.681183 99.000897 
L 384.681183 94.438521 
L 386.227342 94.438521 
L 386.227342 89.876145 
L 386.776362 89.876145 
L 386.776362 85.313769 
L 387.081648 85.313769 
L 387.081648 80.751392 
L 390.713137 80.751392 
L 390.713137 76.189016 
L 394.637895 76.189016 
L 394.637895 71.62664 
L 404.453315 71.62664 
L 404.453315 67.064264 
L 409.805171 67.064264 
L 409.805171 62.501887 
L 416.49907 62.501887 
L 416.49907 57.939511 
L 416.722107 57.939511 
L 416.722107 53.377135 
L 421.788428 53.377135 
L 421.788428 48.814759 
L 428.92974 48.814759 
L 428.92974 44.252382 
L 432.546654 44.252382 
L 432.546654 39.690006 
L 447.975114 39.690006 
L 447.975114 35.12763 
L 455.052496 35.12763 
L 455.052496 30.565254 
L 458.854265 30.565254 
L 458.854265 26.002877 
L 461.097744 26.002877 
L 461.097744 21.440501 
L 471.16002 21.440501 
L 471.16002 16.878125 
L 471.16002 16.878125 
L 513.7625 16.878125 
L 513.7625 16.878125 
" style="fill:none;stroke:#f5deb3;stroke-linecap:square;"/>
   </g>
   <g id="line2d_5">
    <path clip-path="url(#pca3703533f)" d="M 383.938644 359.056343 
L 383.938644 354.493967 
L 385.343994 354.493967 
L 385.343994 349.93159 
L 398.373437 349.93159 
L 398.373437 345.369214 
L 399.184188 345.369214 
L 399.184188 340.806838 
L 399.523158 340.806838 
L 399.523158 336.244462 
L 408.852015 336.244462 
L 408.852015 331.682085 
L 417.122429 331.682085 
L 417.122429 327.119709 
L 427.560229 327.119709 
L 427.560229 322.557333 
L 428.005882 322.557333 
L 428.005882 317.994957 
L 429.962113 317.994957 
L 429.962113 313.43258 
L 436.774213 313.43258 
L 436.774213 308.870204 
L 437.802623 308.870204 
L 437.802623 304.307828 
L 442.430072 304.307828 
L 442.430072 299.745452 
L 444.359248 299.745452 
L 444.359248 295.183075 
L 454.479493 295.183075 
L 454.479493 290.620699 
L 508.096995 290.620699 
L 508.096995 286.058323 
L 513.27245 286.058323 
L 513.27245 281.495947 
L 513.27245 281.495947 
L 513.27245 276.933571 
L 514.195793 276.933571 
L 514.195793 272.371194 
L 518.348426 272.371194 
L 518.348426 267.808818 
L 523.453462 267.808818 
L 523.453462 263.246442 
L 524.995385 263.246442 
L 524.995385 258.684066 
L 525.689253 258.684066 
L 525.689253 254.121689 
L 528.325 254.121689 
" style="fill:none;stroke:#f5deb3;stroke-linecap:square;"/>
   </g>
   <g id="line2d_6"/>
   <g id="line2d_7">
    <path clip-path="url(#pca3703533f)" d="M 361.370163 359.056343 
L 361.370163 354.493967 
L 362.151011 354.493967 
L 362.151011 349.93159 
L 362.832267 349.93159 
L 362.832267 345.369214 
L 363.547104 345.369214 
L 363.547104 340.806838 
L 363.69739 340.806838 
L 363.69739 336.244462 
L 366.020246 336.244462 
L 366.020246 331.682085 
L 366.203796 331.682085 
L 366.203796 327.119709 
L 366.931122 327.119709 
L 366.931122 322.557333 
L 367.370284 322.557333 
L 367.410012 313.43258 
L 367.667448 313.43258 
L 367.746385 299.745452 
L 367.844876 299.745452 
L 367.844876 295.183075 
L 367.962801 295.183075 
L 367.962801 290.620699 
L 368.373295 290.620699 
L 368.451091 281.495947 
L 368.528763 281.495947 
L 368.586936 272.371194 
L 368.780341 272.371194 
L 368.838212 254.121689 
L 369.470278 254.121689 
L 369.470278 249.559313 
L 369.660197 249.559313 
L 369.660197 244.996937 
L 370.019005 244.996937 
L 370.019005 240.434561 
L 370.858367 240.434561 
L 370.858367 235.872184 
L 371.153338 235.872184 
L 371.153338 231.309808 
L 371.46479 231.309808 
L 371.5013 222.185056 
L 371.647067 222.185056 
L 371.647067 217.622679 
L 371.810531 217.622679 
L 371.810531 213.060303 
L 372.225787 213.060303 
L 372.315591 203.935551 
L 372.921886 203.935551 
L 372.939604 194.810798 
L 373.222212 194.810798 
L 373.222212 190.248422 
L 374.319237 190.248422 
L 374.319237 185.686046 
L 375.053992 185.686046 
L 375.053992 181.12367 
L 375.643933 181.12367 
L 375.643933 176.561293 
L 375.761064 176.561293 
L 375.794478 167.436541 
L 376.027735 167.436541 
L 376.027735 162.874165 
L 376.259874 162.874165 
L 376.259874 158.311788 
L 377.40418 158.311788 
L 377.484891 149.187036 
L 378.5063 149.187036 
L 378.5063 144.62466 
L 382.258028 144.62466 
L 382.258028 140.062283 
L 382.578522 140.062283 
L 382.578522 135.499907 
L 387.39817 135.499907 
L 387.39817 130.937531 
L 387.581857 130.937531 
L 387.581857 126.375155 
L 389.720937 126.375155 
L 389.720937 121.812778 
L 391.140918 121.812778 
L 391.140918 117.250402 
L 391.323103 117.250402 
L 391.323103 112.688026 
L 392.744672 112.688026 
L 392.838761 103.563274 
L 393.619662 103.563274 
L 393.619662 99.000897 
L 393.815816 99.000897 
L 393.861854 89.876145 
L 394.784851 89.876145 
L 394.784851 85.313769 
L 396.219458 85.313769 
L 396.219458 80.751392 
L 396.677523 80.751392 
L 396.677523 76.189016 
L 398.289511 76.189016 
L 398.289511 71.62664 
L 401.173438 71.62664 
L 401.173438 67.064264 
L 401.87082 67.064264 
L 401.87082 62.501887 
L 404.471803 62.501887 
L 404.471803 57.939511 
L 407.211811 57.939511 
L 407.211811 53.377135 
L 414.496797 53.377135 
L 414.496797 48.814759 
L 423.671689 48.814759 
L 423.671689 44.252382 
L 435.074111 44.252382 
L 435.074111 39.690006 
L 437.988126 39.690006 
L 437.988126 35.12763 
L 442.010145 35.12763 
L 442.010145 30.565254 
L 442.791926 30.565254 
L 442.791926 26.002877 
L 453.822907 26.002877 
L 453.822907 21.440501 
L 505.030836 21.440501 
L 505.030836 16.878125 
L 505.030836 16.878125 
L 513.7625 16.878125 
L 513.7625 16.878125 
" style="fill:none;stroke:#f5deb3;stroke-linecap:square;"/>
   </g>
   <g id="line2d_8">
    <path clip-path="url(#pca3703533f)" d="M 616.129031 359.056343 
" style="fill:none;stroke:#f5deb3;stroke-linecap:square;"/>
   </g>
   <g id="line2d_9">
    <path clip-path="url(#pca3703533f)" d="M 355.138636 359.056343 
L 355.138636 354.493967 
L 356.351012 354.493967 
L 356.351012 349.93159 
L 357.289755 349.93159 
L 357.289755 345.369214 
L 358.830821 345.369214 
L 358.830821 340.806838 
L 359.232062 340.806838 
L 359.232062 336.244462 
L 359.372887 336.244462 
L 359.372887 331.682085 
L 360.140195 331.682085 
L 360.140195 327.119709 
L 360.963632 327.119709 
L 360.963632 322.557333 
L 361.50492 322.557333 
L 361.50492 317.994957 
L 361.773313 317.994957 
L 361.862448 308.870204 
L 361.906954 308.870204 
L 361.929192 299.745452 
L 362.635467 299.745452 
L 362.635467 295.183075 
L 362.919477 295.183075 
L 362.919477 290.620699 
L 363.13682 290.620699 
L 363.1585 281.495947 
L 363.331598 281.495947 
L 363.331598 276.933571 
L 363.482553 276.933571 
L 363.482553 272.371194 
L 363.783059 272.371194 
L 363.889933 263.246442 
L 364.526274 263.246442 
L 364.526274 258.684066 
L 365.05025 258.684066 
L 365.05025 254.121689 
L 365.29976 254.121689 
L 365.29976 249.559313 
L 365.506708 249.559313 
L 365.506708 244.996937 
L 365.835999 244.996937 
L 365.938445 231.309808 
L 366.224148 231.309808 
L 366.325777 208.497927 
L 366.386653 208.497927 
L 366.386653 203.935551 
L 366.710039 203.935551 
L 366.710039 199.373175 
L 367.011266 199.373175 
L 367.031281 190.248422 
L 367.766099 190.248422 
L 367.825194 181.12367 
L 368.392756 181.12367 
L 368.392756 176.561293 
L 368.818929 176.561293 
L 368.915267 167.436541 
L 369.451245 167.436541 
L 369.451245 162.874165 
L 369.56533 162.874165 
L 369.56533 158.311788 
L 369.887122 158.311788 
L 369.887122 153.749412 
L 371.098168 153.749412 
L 371.208446 140.062283 
L 372.423137 140.062283 
L 372.423137 135.499907 
L 373.257423 135.499907 
L 373.257423 130.937531 
L 379.553015 130.937531 
L 379.553015 126.375155 
L 380.350091 126.375155 
L 380.350091 121.812778 
L 381.223942 121.812778 
L 381.223942 117.250402 
L 382.680055 117.250402 
L 382.680055 112.688026 
L 382.968981 112.688026 
L 382.968981 108.12565 
L 384.681183 108.12565 
L 384.681183 103.563274 
L 386.509324 103.563274 
L 386.509324 99.000897 
L 386.763045 99.000897 
L 386.763045 94.438521 
L 387.200586 94.438521 
L 387.200586 89.876145 
L 389.469681 89.876145 
L 389.469681 85.313769 
L 390.664006 85.313769 
L 390.664006 80.751392 
L 391.456271 80.751392 
L 391.456271 76.189016 
L 394.319852 76.189016 
L 394.319852 71.62664 
L 403.444322 71.62664 
L 403.444322 67.064264 
L 403.651568 67.064264 
L 403.651568 62.501887 
L 404.821749 62.501887 
L 404.821749 57.939511 
L 411.21674 57.939511 
L 411.21674 53.377135 
L 417.934295 53.377135 
L 417.934295 48.814759 
L 419.518333 48.814759 
L 419.518333 44.252382 
L 420.577257 44.252382 
L 420.577257 39.690006 
L 421.006261 39.690006 
L 421.006261 35.12763 
L 422.653538 35.12763 
L 422.653538 30.565254 
L 424.754115 30.565254 
L 424.754115 26.002877 
L 428.946477 26.002877 
L 428.946477 21.440501 
L 432.099229 21.440501 
L 432.099229 16.878125 
L 432.099229 16.878125 
L 513.7625 16.878125 
L 513.7625 16.878125 
" style="fill:none;stroke:#f5deb3;stroke-linecap:square;"/>
   </g>
   <g id="line2d_10">
    <path clip-path="url(#pca3703533f)" d="M 602.520011 359.056343 
" style="fill:none;stroke:#f5deb3;stroke-linecap:square;"/>
   </g>
   <g id="line2d_11">
    <path clip-path="url(#pca3703533f)" d="M 700.655296 359.056343 
" style="fill:none;stroke:#f5deb3;stroke-linecap:square;"/>
   </g>
   <g id="line2d_12">
    <path clip-path="url(#pca3703533f)" d="M 315.417658 359.056343 
L 315.417658 354.493967 
L 373.695409 354.493967 
L 373.695409 349.93159 
L 376.638848 349.93159 
L 376.638848 345.369214 
L 445.080339 345.369214 
L 445.080339 340.806838 
L 455.58662 340.806838 
L 455.58662 336.244462 
L 484.434974 336.244462 
L 484.434974 331.682085 
L 500.597579 331.682085 
L 500.597579 327.119709 
L 505.36397 327.119709 
L 505.36397 322.557333 
L 508.747427 322.557333 
L 508.747427 317.994957 
L 528.325 317.994957 
" style="fill:none;stroke:#f5deb3;stroke-linecap:square;"/>
   </g>
   <g id="line2d_13"/>
   <g id="line2d_14">
    <path clip-path="url(#pca3703533f)" d="M 347.778079 359.056343 
L 347.778079 354.493967 
L 354.313202 354.493967 
L 354.313202 349.93159 
L 367.923525 349.93159 
L 367.923525 345.369214 
L 369.56533 345.369214 
L 369.56533 340.806838 
L 375.307703 340.806838 
L 375.307703 336.244462 
L 375.7109 336.244462 
L 375.7109 331.682085 
L 378.899514 331.682085 
L 378.899514 327.119709 
L 382.766914 327.119709 
L 382.766914 322.557333 
L 383.797257 322.557333 
L 383.797257 317.994957 
L 389.293023 317.994957 
L 389.293023 313.43258 
L 390.503987 313.43258 
L 390.503987 308.870204 
L 392.211995 308.870204 
L 392.211995 304.307828 
L 393.387871 304.307828 
L 393.387871 299.745452 
L 398.634773 299.745452 
L 398.634773 295.183075 
L 402.807648 295.183075 
L 402.807648 290.620699 
L 403.378194 290.620699 
L 403.378194 286.058323 
L 404.895101 286.058323 
L 404.895101 281.495947 
L 405.54128 281.495947 
L 405.54128 276.933571 
L 415.419869 276.933571 
L 415.419869 272.371194 
L 416.650272 272.371194 
L 416.650272 267.808818 
L 421.561597 267.808818 
L 421.561597 263.246442 
L 425.214155 263.246442 
L 425.214155 258.684066 
L 425.919885 258.684066 
L 425.919885 254.121689 
L 428.419288 254.121689 
L 428.419288 249.559313 
L 431.14917 249.559313 
L 431.14917 244.996937 
L 433.164145 244.996937 
L 433.164145 240.434561 
L 434.341096 240.434561 
L 434.341096 235.872184 
L 437.765437 235.872184 
L 437.765437 231.309808 
L 438.68207 231.309808 
L 438.68207 226.747432 
L 448.069193 226.747432 
L 448.069193 222.185056 
L 449.862705 222.185056 
L 449.862705 217.622679 
L 452.382794 217.622679 
L 452.382794 213.060303 
L 468.610036 213.060303 
L 468.610036 208.497927 
L 485.67759 208.497927 
L 485.67759 203.935551 
L 488.521963 203.935551 
L 488.521963 199.373175 
L 494.162548 199.373175 
L 494.162548 194.810798 
L 499.947122 194.810798 
L 499.947122 190.248422 
L 509.452856 190.248422 
L 509.452856 185.686046 
L 510.094872 185.686046 
L 510.094872 181.12367 
L 510.094872 181.12367 
L 510.094872 181.12367 
L 513.7625 181.12367 
" style="fill:none;stroke:#f5deb3;stroke-linecap:square;"/>
   </g>
   <g id="line2d_15"/>
   <g id="line2d_16"/>
   <g id="line2d_17">
    <path clip-path="url(#pca3703533f)" d="M 427.341623 359.056343 
L 427.341623 354.493967 
L 428.912997 354.493967 
L 428.912997 349.93159 
L 430.332136 349.93159 
L 430.332136 345.369214 
L 430.881926 345.369214 
L 430.881926 340.806838 
L 433.23057 340.806838 
L 433.23057 336.244462 
L 433.778917 336.244462 
L 433.778917 331.682085 
L 433.965359 331.682085 
L 433.965359 327.119709 
L 434.281173 327.119709 
L 434.281173 322.557333 
L 435.128152 322.557333 
L 435.187037 313.43258 
L 436.191702 313.43258 
L 436.263701 295.183075 
L 437.807269 295.183075 
L 437.858349 286.058323 
L 438.122173 286.058323 
L 438.145247 276.933571 
L 438.55414 276.933571 
L 438.55414 272.371194 
L 438.836962 272.371194 
L 438.836962 267.808818 
L 439.339217 267.808818 
L 439.339217 263.246442 
L 439.671186 263.246442 
L 439.671186 258.684066 
L 440.23567 258.684066 
L 440.23567 254.121689 
L 440.601064 254.121689 
L 440.601064 249.559313 
L 441.70673 249.559313 
L 441.70673 244.996937 
L 441.963261 244.996937 
L 441.963261 240.434561 
L 442.201472 240.434561 
L 442.201472 235.872184 
L 442.370909 235.872184 
L 442.434295 226.747432 
L 442.67441 226.747432 
L 442.741597 217.622679 
L 442.934243 217.622679 
L 442.934243 213.060303 
L 443.482841 213.060303 
L 443.482841 208.497927 
L 443.746609 208.497927 
L 443.746609 203.935551 
L 444.476804 203.935551 
L 444.476804 199.373175 
L 445.072341 199.373175 
L 445.072341 194.810798 
L 445.24799 194.810798 
L 445.331599 185.686046 
L 446.506645 185.686046 
L 446.506645 181.12367 
L 447.425829 181.12367 
L 447.425829 176.561293 
L 447.642498 176.561293 
L 447.642498 171.998917 
L 448.076711 171.998917 
L 448.076711 167.436541 
L 449.389423 167.436541 
L 449.389423 162.874165 
L 452.307069 162.874165 
L 452.307069 158.311788 
L 452.875546 158.311788 
L 452.875546 153.749412 
L 457.219969 153.749412 
L 457.238642 144.62466 
L 459.704459 144.62466 
L 459.704459 140.062283 
L 461.589454 140.062283 
L 461.589454 135.499907 
L 462.014235 135.499907 
L 462.056509 126.375155 
L 463.32161 126.375155 
L 463.32161 121.812778 
L 464.011033 121.812778 
L 464.011033 117.250402 
L 464.768097 117.250402 
L 464.784077 108.12565 
L 465.24522 108.12565 
L 465.24522 103.563274 
L 465.403222 103.563274 
L 465.403222 99.000897 
L 466.094971 99.000897 
L 466.094971 94.438521 
L 469.050963 94.438521 
L 469.050963 89.876145 
L 469.238363 89.876145 
L 469.238363 85.313769 
L 469.579658 85.313769 
L 469.579658 80.751392 
L 469.798656 80.751392 
L 469.798656 76.189016 
L 471.439371 76.189016 
L 471.439371 71.62664 
L 472.988152 71.62664 
L 472.988152 67.064264 
L 475.498473 67.064264 
L 475.498473 62.501887 
L 475.637033 62.501887 
L 475.637033 57.939511 
L 478.295936 57.939511 
L 478.295936 53.377135 
L 481.694207 53.377135 
L 481.694207 48.814759 
L 484.262464 48.814759 
L 484.262464 44.252382 
L 486.187088 44.252382 
L 486.187088 39.690006 
L 489.22501 39.690006 
L 489.22501 35.12763 
L 494.691255 35.12763 
L 494.691255 30.565254 
L 494.843307 30.565254 
L 494.843307 26.002877 
L 498.062441 26.002877 
L 498.062441 21.440501 
L 501.283332 21.440501 
L 501.283332 16.878125 
L 501.283332 16.878125 
L 513.7625 16.878125 
L 513.7625 16.878125 
" style="fill:none;stroke:#f5deb3;stroke-linecap:square;"/>
   </g>
   <g id="line2d_18">
    <path clip-path="url(#pca3703533f)" d="M 267.236814 359.056343 
L 267.236814 354.493967 
L 301.06647 354.493967 
L 301.06647 349.93159 
L 302.602804 349.93159 
L 302.602804 345.369214 
L 310.728531 345.369214 
L 310.728531 340.806838 
L 311.678279 340.806838 
L 311.678279 336.244462 
L 326.568311 336.244462 
L 326.568311 331.682085 
L 330.677792 331.682085 
L 330.677792 327.119709 
L 347.058255 327.119709 
L 347.058255 322.557333 
L 351.058421 322.557333 
L 351.058421 317.994957 
L 367.071287 317.994957 
L 367.071287 313.43258 
L 367.687195 313.43258 
L 367.687195 308.870204 
L 374.867089 308.870204 
L 374.867089 304.307828 
L 379.3051 304.307828 
L 379.3051 299.745452 
L 381.209008 299.745452 
L 381.209008 295.183075 
L 381.402788 295.183075 
L 381.402788 290.620699 
L 381.521653 290.620699 
L 381.521653 286.058323 
L 386.856187 286.058323 
L 386.856187 281.495947 
L 387.738752 281.495947 
L 387.738752 276.933571 
L 388.399945 276.933571 
L 388.399945 272.371194 
L 388.528539 272.371194 
L 388.528539 267.808818 
L 389.179116 267.808818 
L 389.179116 263.246442 
L 389.908528 263.246442 
L 389.908528 258.684066 
L 395.099867 258.684066 
L 395.099867 254.121689 
L 400.153668 254.121689 
L 400.153668 249.559313 
L 400.355321 249.559313 
L 400.355321 244.996937 
L 404.425569 244.996937 
L 404.425569 240.434561 
L 406.098587 240.434561 
L 406.098587 235.872184 
L 407.473137 235.872184 
L 407.473137 231.309808 
L 422.226117 231.309808 
L 422.226117 226.747432 
L 427.029266 226.747432 
L 427.029266 222.185056 
L 443.092811 222.185056 
L 443.092811 217.622679 
L 447.767497 217.622679 
L 447.767497 213.060303 
L 450.958826 213.060303 
L 450.958826 208.497927 
L 457.477634 208.497927 
L 457.477634 203.935551 
L 462.666767 203.935551 
L 462.666767 199.373175 
L 464.267395 199.373175 
L 464.267395 194.810798 
L 466.641348 194.810798 
L 466.641348 190.248422 
L 472.21081 190.248422 
L 472.21081 185.686046 
L 483.829382 185.686046 
L 483.829382 181.12367 
L 499.761141 181.12367 
L 499.761141 176.561293 
L 503.854825 176.561293 
L 503.854825 171.998917 
L 510.952942 171.998917 
L 510.952942 167.436541 
L 511.972423 167.436541 
L 511.972423 162.874165 
L 512.469753 162.874165 
L 512.469753 158.311788 
L 528.325 158.311788 
" style="fill:none;stroke:#f5deb3;stroke-linecap:square;"/>
   </g>
   <g id="line2d_19">
    <path clip-path="url(#pca3703533f)" d="M 725.790415 359.056343 
" style="fill:none;stroke:#f5deb3;stroke-linecap:square;"/>
   </g>
   <g id="line2d_20">
    <path clip-path="url(#pca3703533f)" d="M 285.023218 359.056343 
L 285.023218 354.493967 
L 290.368242 354.493967 
L 290.368242 349.93159 
L 294.561108 349.93159 
L 294.561108 345.369214 
L 295.533137 345.369214 
L 295.533137 340.806838 
L 297.504668 340.806838 
L 297.504668 331.682085 
L 297.839504 331.682085 
L 297.839504 327.119709 
L 298.66661 327.119709 
L 298.66661 322.557333 
L 299.07493 322.557333 
L 299.07493 317.994957 
L 300.753272 317.994957 
L 300.831761 308.870204 
L 302.070609 308.870204 
L 302.070609 304.307828 
L 303.054365 304.307828 
L 303.054365 299.745452 
L 306.173006 299.745452 
L 306.173006 295.183075 
L 307.215353 295.183075 
L 307.215353 286.058323 
L 309.62916 286.058323 
L 309.62916 281.495947 
L 311.866016 281.495947 
L 311.866016 276.933571 
L 315.359579 276.933571 
L 315.359579 267.808818 
L 315.764681 267.808818 
L 315.764681 263.246442 
L 316.451359 263.246442 
L 316.451359 258.684066 
L 316.960058 258.684066 
L 316.960058 254.121689 
L 317.796202 254.121689 
L 317.796202 249.559313 
L 320.273957 249.559313 
L 320.273957 244.996937 
L 321.055284 244.996937 
L 321.055284 240.434561 
L 321.976548 240.434561 
L 321.976548 235.872184 
L 322.930363 235.872184 
L 322.930363 231.309808 
L 326.011743 231.309808 
L 326.011743 226.747432 
L 326.151485 226.747432 
L 326.197976 217.622679 
L 326.660454 217.622679 
L 326.660454 213.060303 
L 327.707697 213.060303 
L 327.75272 203.935551 
L 329.822968 203.935551 
L 329.822968 199.373175 
L 333.235807 199.373175 
L 333.235807 194.810798 
L 333.755461 194.810798 
L 333.755461 190.248422 
L 335.894356 190.248422 
L 335.894356 185.686046 
L 336.008352 185.686046 
L 336.008352 181.12367 
L 341.560688 181.12367 
L 341.560688 176.561293 
L 342.299635 176.561293 
L 342.299635 171.998917 
L 342.466018 171.998917 
L 342.466018 167.436541 
L 343.289471 167.436541 
L 343.289471 162.874165 
L 343.7122 162.874165 
L 343.809232 153.749412 
L 351.086236 153.749412 
L 351.086236 149.187036 
L 357.069059 149.187036 
L 357.069059 144.62466 
L 357.825041 144.62466 
L 357.825041 140.062283 
L 360.462085 140.062283 
L 360.462085 135.499907 
L 365.279016 135.499907 
L 365.279016 130.937531 
L 365.938445 130.937531 
L 365.938445 126.375155 
L 368.431654 126.375155 
L 368.431654 121.812778 
L 373.415554 121.812778 
L 373.415554 117.250402 
L 376.110769 117.250402 
L 376.110769 112.688026 
L 378.726893 112.688026 
L 378.726893 108.12565 
L 379.165089 108.12565 
L 379.165089 103.563274 
L 383.527481 103.563274 
L 383.527481 99.000897 
L 383.740587 99.000897 
L 383.740587 94.438521 
L 385.521956 94.438521 
L 385.521956 89.876145 
L 387.226977 89.876145 
L 387.226977 85.313769 
L 389.090337 85.313769 
L 389.090337 80.751392 
L 391.189567 80.751392 
L 391.189567 76.189016 
L 403.236186 76.189016 
L 403.236186 71.62664 
L 407.438375 71.62664 
L 407.438375 67.064264 
L 407.991601 67.064264 
L 407.991601 62.501887 
L 414.721738 62.501887 
L 414.721738 57.939511 
L 420.749314 57.939511 
L 420.749314 53.377135 
L 427.966055 53.377135 
L 427.966055 48.814759 
L 440.758695 48.814759 
L 440.758695 44.252382 
L 446.924169 44.252382 
L 446.924169 39.690006 
L 448.324166 39.690006 
L 448.324166 35.12763 
L 450.649697 35.12763 
L 450.649697 30.565254 
L 453.346484 30.565254 
L 453.346484 26.002877 
L 477.427794 26.002877 
L 477.427794 21.440501 
L 511.21928 21.440501 
L 511.21928 16.878125 
L 511.21928 16.878125 
L 513.7625 16.878125 
L 513.7625 16.878125 
" style="fill:none;stroke:#f5deb3;stroke-linecap:square;"/>
   </g>
   <g id="line2d_21"/>
   <g id="line2d_22">
    <path clip-path="url(#pca3703533f)" d="M 283.365111 359.056343 
L 283.365111 354.493967 
L 285.778007 354.493967 
L 285.778007 349.93159 
L 290.852435 349.93159 
L 290.852435 345.369214 
L 291.427152 345.369214 
L 291.427152 340.806838 
L 292.182992 340.806838 
L 292.182992 336.244462 
L 292.370125 336.244462 
L 292.370125 331.682085 
L 292.834819 331.682085 
L 292.834819 327.119709 
L 293.386635 327.119709 
L 293.477996 317.994957 
L 294.561108 317.994957 
L 294.561108 313.43258 
L 295.620544 313.43258 
L 295.620544 308.870204 
L 297.504668 308.870204 
L 297.504668 304.307828 
L 298.830351 304.307828 
L 298.830351 299.745452 
L 300.358906 299.745452 
L 300.358906 295.183075 
L 301.06647 295.183075 
L 301.06647 290.620699 
L 301.222314 290.620699 
L 301.222314 286.058323 
L 301.532505 286.058323 
L 301.532505 281.495947 
L 304.165199 281.495947 
L 304.165199 276.933571 
L 305.394114 276.933571 
L 305.394114 272.371194 
L 306.313288 272.371194 
L 306.313288 267.808818 
L 307.421159 267.808818 
L 307.421159 263.246442 
L 315.126563 263.246442 
L 315.126563 258.684066 
L 315.764681 258.684066 
L 315.764681 254.121689 
L 316.394506 254.121689 
L 316.394506 249.559313 
L 318.835021 249.559313 
L 318.835021 244.996937 
L 320.848159 244.996937 
L 320.848159 240.434561 
L 323.375701 240.434561 
L 323.375701 235.872184 
L 324.543643 235.872184 
L 324.543643 231.309808 
L 326.568311 231.309808 
L 326.568311 226.747432 
L 330.72014 226.747432 
L 330.72014 222.185056 
L 332.466148 222.185056 
L 332.466148 217.622679 
L 333.034447 217.622679 
L 333.034447 213.060303 
L 333.953854 213.060303 
L 333.953854 208.497927 
L 334.269603 208.497927 
L 334.269603 203.935551 
L 335.970383 203.935551 
L 335.970383 199.373175 
L 337.022427 199.373175 
L 337.022427 194.810798 
L 340.569084 194.810798 
L 340.569084 190.248422 
L 345.021775 190.248422 
L 345.021775 185.686046 
L 345.834269 185.686046 
L 345.834269 181.12367 
L 346.541833 181.12367 
L 346.541833 176.561293 
L 348.92546 176.561293 
L 348.92546 171.998917 
L 351.308181 171.998917 
L 351.308181 167.436541 
L 353.895153 167.436541 
L 353.895153 162.874165 
L 355.061846 162.874165 
L 355.061846 158.311788 
L 356.326061 158.311788 
L 356.326061 153.749412 
L 357.728155 153.749412 
L 357.825041 144.62466 
L 357.897579 144.62466 
L 357.897579 140.062283 
L 358.99644 140.062283 
L 358.99644 135.499907 
L 359.769684 135.499907 
L 359.769684 130.937531 
L 360.690705 130.937531 
L 360.690705 126.375155 
L 364.778489 126.375155 
L 364.799448 117.250402 
L 367.746385 117.250402 
L 367.746385 112.688026 
L 369.183997 112.688026 
L 369.183997 108.12565 
L 369.735956 108.12565 
L 369.735956 103.563274 
L 372.619686 103.563274 
L 372.619686 99.000897 
L 373.327767 99.000897 
L 373.327767 94.438521 
L 373.852121 94.438521 
L 373.852121 89.876145 
L 374.233073 89.876145 
L 374.233073 85.313769 
L 374.525408 85.313769 
L 374.525408 80.751392 
L 375.00309 80.751392 
L 375.070947 71.62664 
L 378.284699 71.62664 
L 378.284699 67.064264 
L 385.889495 67.064264 
L 385.889495 62.501887 
L 387.226977 62.501887 
L 387.226977 57.939511 
L 392.697559 57.939511 
L 392.697559 53.377135 
L 393.166639 53.377135 
L 393.166639 48.814759 
L 396.405387 48.814759 
L 396.405387 44.252382 
L 397.238718 44.252382 
L 397.238718 39.690006 
L 398.676456 39.690006 
L 398.676456 35.12763 
L 407.307794 35.12763 
L 407.307794 30.565254 
L 408.051729 30.565254 
L 408.051729 26.002877 
L 423.026827 26.002877 
L 423.026827 21.440501 
L 433.8092 21.440501 
L 433.8092 16.878125 
L 433.8092 16.878125 
L 513.7625 16.878125 
L 513.7625 16.878125 
" style="fill:none;stroke:#f5deb3;stroke-linecap:square;"/>
   </g>
   <g id="line2d_23">
    <path clip-path="url(#pca3703533f)" d="M 611.24441 359.056343 
" style="fill:none;stroke:#f5deb3;stroke-linecap:square;"/>
   </g>
   <g id="line2d_24">
    <path clip-path="url(#pca3703533f)" d="M 339.344656 359.056343 
L 339.344656 354.493967 
L 341.594522 354.493967 
L 341.594522 349.93159 
L 347.299386 349.93159 
L 347.299386 345.369214 
L 347.986029 345.369214 
L 347.986029 340.806838 
L 348.104459 340.806838 
L 348.104459 336.244462 
L 348.25209 336.244462 
L 348.25209 331.682085 
L 348.838158 331.682085 
L 348.838158 327.119709 
L 349.301963 327.119709 
L 349.301963 322.557333 
L 352.591977 322.557333 
L 352.618925 313.43258 
L 353.021368 313.43258 
L 353.021368 308.870204 
L 353.420497 308.870204 
L 353.420497 304.307828 
L 353.973812 304.307828 
L 353.973812 299.745452 
L 354.830743 299.745452 
L 354.830743 295.183075 
L 355.317341 295.183075 
L 355.317341 290.620699 
L 356.425788 290.620699 
L 356.425788 286.058323 
L 356.872037 286.058323 
L 356.872037 281.495947 
L 358.258648 281.495947 
L 358.258648 276.933571 
L 359.161496 276.933571 
L 359.232062 267.808818 
L 360.713507 267.808818 
L 360.713507 263.246442 
L 362.128875 263.246442 
L 362.128875 258.684066 
L 362.963024 258.684066 
L 362.963024 254.121689 
L 364.610492 254.121689 
L 364.610492 249.559313 
L 364.820398 249.559313 
L 364.925011 240.434561 
L 365.237503 240.434561 
L 365.237503 235.872184 
L 365.856505 235.872184 
L 365.856505 231.309808 
L 365.979363 231.309808 
L 365.979363 226.747432 
L 366.305469 226.747432 
L 366.386653 217.622679 
L 367.011266 217.622679 
L 367.011266 213.060303 
L 367.785805 213.060303 
L 367.785805 208.497927 
L 368.060854 208.497927 
L 368.060854 203.935551 
L 369.222265 203.935551 
L 369.222265 199.373175 
L 370.169292 199.373175 
L 370.169292 194.810798 
L 370.524365 194.810798 
L 370.598787 185.686046 
L 372.063719 185.686046 
L 372.063719 181.12367 
L 373.433093 181.12367 
L 373.433093 176.561293 
L 374.042971 176.561293 
L 374.042971 171.998917 
L 375.121778 171.998917 
L 375.121778 167.436541 
L 375.7109 167.436541 
L 375.7109 162.874165 
L 375.861238 162.874165 
L 375.861238 158.311788 
L 378.395626 158.311788 
L 378.395626 153.749412 
L 379.242923 153.749412 
L 379.242923 149.187036 
L 381.238871 149.187036 
L 381.238871 144.62466 
L 381.891239 144.62466 
L 381.891239 140.062283 
L 382.564 140.062283 
L 382.564 135.499907 
L 383.342029 135.499907 
L 383.342029 130.937531 
L 383.740587 130.937531 
L 383.740587 126.375155 
L 384.149953 126.375155 
L 384.149953 121.812778 
L 385.889495 121.812778 
L 385.889495 117.250402 
L 387.319233 117.250402 
L 387.358717 108.12565 
L 387.476978 108.12565 
L 387.476978 103.563274 
L 388.11583 103.563274 
L 388.11583 99.000897 
L 388.759153 99.000897 
L 388.759153 94.438521 
L 389.783548 94.438521 
L 389.783548 89.876145 
L 390.107829 89.876145 
L 390.107829 85.313769 
L 391.092219 85.313769 
L 391.092219 80.751392 
L 391.213874 80.751392 
L 391.213874 76.189016 
L 396.164637 76.189016 
L 396.164637 71.62664 
L 397.761655 71.62664 
L 397.761655 67.064264 
L 399.081001 67.064264 
L 399.081001 62.501887 
L 399.564084 62.501887 
L 399.564084 57.939511 
L 409.330936 57.939511 
L 409.330936 53.377135 
L 413.708817 53.377135 
L 413.708817 48.814759 
L 419.829022 48.814759 
L 419.829022 44.252382 
L 434.535333 44.252382 
L 434.535333 39.690006 
L 434.699083 39.690006 
L 434.699083 35.12763 
L 438.791457 35.12763 
L 438.791457 30.565254 
L 442.569243 30.565254 
L 442.569243 26.002877 
L 464.89579 26.002877 
L 464.89579 21.440501 
L 467.277845 21.440501 
L 467.277845 16.878125 
L 467.277845 16.878125 
L 513.7625 16.878125 
L 513.7625 16.878125 
" style="fill:none;stroke:#f5deb3;stroke-linecap:square;"/>
   </g>
   <g id="line2d_25"/>
   <g id="line2d_26">
    <path clip-path="url(#pca3703533f)" d="M 398.707695 359.056343 
L 398.707695 354.493967 
L 400.435748 354.493967 
L 400.435748 349.93159 
L 401.508648 349.93159 
L 401.596993 340.806838 
L 401.646005 340.806838 
L 401.646005 336.244462 
L 401.802509 336.244462 
L 401.802509 331.682085 
L 401.939036 331.682085 
L 401.939036 327.119709 
L 406.896347 327.119709 
L 406.931501 317.994957 
L 407.168119 317.994957 
L 407.168119 313.43258 
L 407.655231 313.43258 
L 407.655231 308.870204 
L 407.776248 308.870204 
L 407.776248 304.307828 
L 408.043144 304.307828 
L 408.137497 295.183075 
L 408.248768 295.183075 
L 408.248768 290.620699 
L 408.419458 290.620699 
L 408.487566 281.495947 
L 408.742121 281.495947 
L 408.852015 272.371194 
L 409.205362 272.371194 
L 409.205362 267.808818 
L 409.381074 267.808818 
L 409.381074 263.246442 
L 409.547829 263.246442 
L 409.547829 258.684066 
L 409.920943 258.684066 
L 409.970475 244.996937 
L 410.274811 244.996937 
L 410.274811 240.434561 
L 410.617972 240.434561 
L 410.723698 222.185056 
L 414.759127 222.185056 
L 414.811423 208.497927 
L 415.146272 208.497927 
L 415.220369 199.373175 
L 415.69193 199.373175 
L 415.69193 194.810798 
L 415.940594 194.810798 
L 416.013488 185.686046 
L 416.65746 185.686046 
L 416.65746 181.12367 
L 417.079695 181.12367 
L 417.079695 176.561293 
L 417.71678 176.561293 
L 417.71678 171.998917 
L 421.924019 171.998917 
L 421.924019 167.436541 
L 422.558174 167.436541 
L 422.5709 158.311788 
L 422.995304 158.311788 
L 422.995304 153.749412 
L 423.3472 153.749412 
L 423.3472 149.187036 
L 428.227181 149.187036 
L 428.227181 144.62466 
L 429.62776 144.62466 
L 429.63326 135.499907 
L 429.814405 135.499907 
L 429.852743 121.812778 
L 430.223599 121.812778 
L 430.223599 117.250402 
L 433.388602 117.250402 
L 433.388602 112.688026 
L 434.025673 112.688026 
L 434.025673 108.12565 
L 434.390974 108.12565 
L 434.495553 94.438521 
L 435.314376 94.438521 
L 435.314376 89.876145 
L 438.357016 89.876145 
L 438.357016 85.313769 
L 438.47172 85.313769 
L 438.47172 80.751392 
L 438.97322 80.751392 
L 438.97322 76.189016 
L 439.733736 76.189016 
L 439.751593 67.064264 
L 444.037557 67.064264 
L 444.037557 62.501887 
L 447.120089 62.501887 
L 447.120089 57.939511 
L 456.444979 57.939511 
L 456.444979 53.377135 
L 457.307046 53.377135 
L 457.316366 44.252382 
L 457.440466 44.252382 
L 457.440466 39.690006 
L 458.784998 39.690006 
L 458.784998 35.12763 
L 460.002212 35.12763 
L 460.002212 30.565254 
L 465.628798 30.565254 
L 465.628798 26.002877 
L 469.114322 26.002877 
L 469.114322 21.440501 
L 488.86018 21.440501 
L 488.86018 16.878125 
L 488.86018 16.878125 
L 513.7625 16.878125 
L 513.7625 16.878125 
" style="fill:none;stroke:#f5deb3;stroke-linecap:square;"/>
   </g>
   <g id="line2d_27"/>
   <g id="line2d_28">
    <path clip-path="url(#pca3703533f)" d="M 331.601006 359.056343 
L 331.601006 354.493967 
L 332.097262 354.493967 
L 332.097262 349.93159 
L 333.356223 349.93159 
L 333.356223 345.369214 
L 335.435672 345.369214 
L 335.435672 340.806838 
L 335.780091 340.806838 
L 335.780091 336.244462 
L 336.273304 336.244462 
L 336.273304 331.682085 
L 337.942835 331.682085 
L 337.942835 327.119709 
L 339.873203 327.119709 
L 339.873203 322.557333 
L 340.048112 322.557333 
L 340.048112 317.994957 
L 341.560688 317.994957 
L 341.560688 313.43258 
L 342.166117 313.43258 
L 342.166117 308.870204 
L 342.432787 308.870204 
L 342.432787 304.307828 
L 343.647405 304.307828 
L 343.647405 299.745452 
L 344.737323 299.745452 
L 344.737323 295.183075 
L 344.927143 295.183075 
L 344.927143 290.620699 
L 345.304567 290.620699 
L 345.304567 286.058323 
L 345.492182 286.058323 
L 345.492182 281.495947 
L 345.958068 281.495947 
L 345.958068 276.933571 
L 346.327578 276.933571 
L 346.327578 272.371194 
L 346.66384 272.371194 
L 346.66384 267.808818 
L 346.876616 267.808818 
L 346.876616 263.246442 
L 347.658848 263.246442 
L 347.658848 258.684066 
L 347.897017 258.684066 
L 347.897017 254.121689 
L 348.074878 254.121689 
L 348.074878 249.559313 
L 349.273105 249.559313 
L 349.273105 244.996937 
L 349.932534 244.996937 
L 349.932534 240.434561 
L 350.159813 240.434561 
L 350.159813 235.872184 
L 351.363509 235.872184 
L 351.363509 231.309808 
L 352.213113 231.309808 
L 352.213113 226.747432 
L 353.26124 226.747432 
L 353.26124 222.185056 
L 353.76377 222.185056 
L 353.76377 217.622679 
L 354.804997 217.622679 
L 354.804997 213.060303 
L 356.201113 213.060303 
L 356.201113 208.497927 
L 356.822656 208.497927 
L 356.822656 203.935551 
L 357.118189 203.935551 
L 357.118189 199.373175 
L 357.338662 199.373175 
L 357.338662 194.810798 
L 358.830821 194.810798 
L 358.830821 190.248422 
L 359.020054 190.248422 
L 359.020054 185.686046 
L 359.583361 185.686046 
L 359.583361 181.12367 
L 359.769684 181.12367 
L 359.769684 176.561293 
L 360.232382 176.561293 
L 360.232382 171.998917 
L 360.462085 171.998917 
L 360.462085 167.436541 
L 360.645067 167.436541 
L 360.645067 162.874165 
L 361.212473 162.874165 
L 361.212473 158.311788 
L 362.062405 158.311788 
L 362.062405 153.749412 
L 362.591625 153.749412 
L 362.591625 149.187036 
L 363.02827 149.187036 
L 363.02827 144.62466 
L 363.1585 144.62466 
L 363.245126 130.937531 
L 364.102976 130.937531 
L 364.102976 126.375155 
L 365.279016 126.375155 
L 365.279016 121.812778 
L 366.508176 121.812778 
L 366.508176 117.250402 
L 366.870926 117.250402 
L 366.870926 112.688026 
L 367.726663 112.688026 
L 367.726663 108.12565 
L 368.002046 108.12565 
L 368.002046 103.563274 
L 369.508321 103.563274 
L 369.508321 99.000897 
L 370.300411 99.000897 
L 370.300411 94.438521 
L 370.765819 94.438521 
L 370.765819 89.876145 
L 371.134955 89.876145 
L 371.134955 85.313769 
L 372.512576 85.313769 
L 372.512576 80.751392 
L 372.921886 80.751392 
L 372.921886 76.189016 
L 373.380458 76.189016 
L 373.380458 71.62664 
L 373.956314 71.62664 
L 373.956314 67.064264 
L 374.336451 67.064264 
L 374.336451 62.501887 
L 375.408817 62.501887 
L 375.408817 57.939511 
L 377.484891 57.939511 
L 377.484891 53.377135 
L 377.886445 53.377135 
L 377.886445 48.814759 
L 378.411452 48.814759 
L 378.411452 44.252382 
L 395.357107 44.252382 
L 395.357107 39.690006 
L 396.208499 39.690006 
L 396.208499 35.12763 
L 399.451453 35.12763 
L 399.451453 30.565254 
L 402.317348 30.565254 
L 402.317348 26.002877 
L 405.13273 26.002877 
L 405.13273 21.440501 
L 420.887839 21.440501 
L 420.887839 16.878125 
L 420.887839 16.878125 
L 513.7625 16.878125 
L 513.7625 16.878125 
" style="fill:none;stroke:#f5deb3;stroke-linecap:square;"/>
   </g>
   <g id="line2d_29">
    <path clip-path="url(#pca3703533f)" d="M 411.329194 359.056343 
L 411.329194 354.493967 
L 411.329194 354.493967 
L 411.329194 349.93159 
L 411.329194 349.93159 
L 411.329194 345.369214 
L 443.404258 345.369214 
L 443.404258 340.806838 
L 443.404258 340.806838 
L 443.404258 336.244462 
L 443.404258 336.244462 
L 443.404258 331.682085 
L 443.404258 331.682085 
L 443.404258 331.682085 
L 513.7625 331.682085 
" style="fill:none;stroke:#f5deb3;stroke-linecap:square;"/>
   </g>
   <g id="line2d_30"/>
   <g id="line2d_31">
    <path clip-path="url(#pca3703533f)" d="M 22.952395 359.056343 
L 22.952395 354.493967 
L 90.14229 354.493967 
L 90.14229 349.93159 
L 90.14229 349.93159 
L 90.14229 345.369214 
L 120.609232 345.369214 
L 120.609232 340.806838 
L 136.917121 340.806838 
L 136.917121 336.244462 
L 154.20418 336.244462 
L 154.20418 331.682085 
L 155.793413 331.682085 
L 155.793413 327.119709 
L 168.147343 327.119709 
L 168.147343 322.557333 
L 185.313081 322.557333 
L 185.313081 317.994957 
L 199.889812 317.994957 
L 199.889812 313.43258 
L 200.515205 313.43258 
L 200.515205 308.870204 
L 204.107016 308.870204 
L 204.107016 304.307828 
L 210.071402 304.307828 
L 210.071402 299.745452 
L 234.419849 299.745452 
L 234.419849 295.183075 
L 263.657067 295.183075 
L 263.657067 290.620699 
L 284.805387 290.620699 
L 284.805387 286.058323 
L 295.269966 286.058323 
L 295.269966 281.495947 
L 297.756012 281.495947 
L 297.756012 276.933571 
L 300.59591 276.933571 
L 300.59591 272.371194 
L 301.994102 272.371194 
L 301.994102 267.808818 
L 303.797743 267.808818 
L 303.797743 263.246442 
L 305.251143 263.246442 
L 305.251143 258.684066 
L 308.637974 258.684066 
L 308.637974 254.121689 
L 312.36312 254.121689 
L 312.36312 249.559313 
L 313.402836 249.559313 
L 313.402836 244.996937 
L 317.851435 244.996937 
L 317.851435 240.434561 
L 318.345723 240.434561 
L 318.345723 235.872184 
L 319.104734 235.872184 
L 319.104734 231.309808 
L 324.35093 231.309808 
L 324.35093 226.747432 
L 326.752422 226.747432 
L 326.752422 222.185056 
L 331.141597 222.185056 
L 331.141597 217.622679 
L 335.166087 217.622679 
L 335.166087 213.060303 
L 339.873203 213.060303 
L 339.873203 208.497927 
L 339.873203 208.497927 
L 339.873203 208.497927 
L 513.7625 208.497927 
" style="fill:none;stroke:#000000;stroke-linecap:square;"/>
   </g>
   <g id="line2d_32"/>
   <g id="line2d_33">
    <path clip-path="url(#pca3703533f)" d="M 253.136544 359.056343 
L 253.136544 354.493967 
L 257.73689 354.493967 
L 257.73689 349.93159 
L 261.762901 349.93159 
L 261.762901 345.369214 
L 270.716458 345.369214 
L 270.716458 340.806838 
L 274.909324 340.806838 
L 274.909324 336.244462 
L 283.252527 336.244462 
L 283.252527 331.682085 
L 283.812849 331.682085 
L 283.812849 327.119709 
L 285.56355 327.119709 
L 285.56355 322.557333 
L 289.780753 322.557333 
L 289.780753 317.994957 
L 295.968605 317.994957 
L 295.968605 313.43258 
L 299.881392 313.43258 
L 299.881392 308.870204 
L 300.120737 308.870204 
L 300.120737 304.307828 
L 301.222314 304.307828 
L 301.222314 299.745452 
L 312.855178 299.745452 
L 312.855178 295.183075 
L 319.639698 295.183075 
L 319.639698 290.620699 
L 325.495879 290.620699 
L 325.495879 286.058323 
L 325.495879 286.058323 
L 325.495879 286.058323 
L 513.7625 286.058323 
" style="fill:none;stroke:#00bfbf;stroke-linecap:square;"/>
   </g>
   <g id="line2d_34"/>
   <g id="line2d_35">
    <path clip-path="url(#pca3703533f)" d="M 451.040221 359.056343 
L 451.040221 354.493967 
L 452.048023 354.493967 
L 452.048023 349.93159 
L 458.911411 349.93159 
L 458.911411 345.369214 
L 465.290039 345.369214 
L 465.290039 340.806838 
L 468.142706 340.806838 
L 468.142706 336.244462 
L 499.846471 336.244462 
L 499.846471 331.682085 
L 499.846471 331.682085 
L 499.846471 331.682085 
L 513.7625 331.682085 
" style="fill:none;stroke:#bf00bf;stroke-linecap:square;"/>
   </g>
   <g id="line2d_36"/>
   <g id="line2d_37"/>
   <g id="line2d_38">
    <path clip-path="url(#pca3703533f)" d="M 513.7625 359.056343 
L 513.7625 13.456343 
" style="fill:none;stroke:#000000;stroke-linecap:square;"/>
   </g>
   <g id="patch_3">
    <path d="M 67.3625 13.456343 
L 513.7625 13.456343 
" style="fill:none;stroke:#000000;stroke-linecap:square;stroke-linejoin:miter;"/>
   </g>
   <g id="patch_4">
    <path d="M 513.7625 359.056343 
L 513.7625 13.456343 
" style="fill:none;stroke:#000000;stroke-linecap:square;stroke-linejoin:miter;"/>
   </g>
   <g id="patch_5">
    <path d="M 67.3625 359.056343 
L 513.7625 359.056343 
" style="fill:none;stroke:#000000;stroke-linecap:square;stroke-linejoin:miter;"/>
   </g>
   <g id="patch_6">
    <path d="M 67.3625 359.056343 
L 67.3625 13.456343 
" style="fill:none;stroke:#000000;stroke-linecap:square;stroke-linejoin:miter;"/>
   </g>
   <g id="matplotlib.axis_1">
    <g id="xtick_1">
     <g id="line2d_39">
      <path clip-path="url(#pca3703533f)" d="M 67.3625 359.056343 
L 67.3625 13.456343 
" style="fill:none;stroke:#000000;stroke-dasharray:1.000000,3.000000;stroke-dashoffset:0.0;stroke-width:0.5;"/>
     </g>
     <g id="line2d_40">
      <defs>
       <path d="M 0 0 
L 0 -4 
" id="m1f8f5403e8" style="stroke:#000000;stroke-width:0.5;"/>
      </defs>
      <g>
       <use style="stroke:#000000;stroke-width:0.5;" x="67.3625" xlink:href="#m1f8f5403e8" y="359.056342822"/>
      </g>
     </g>
     <g id="line2d_41">
      <defs>
       <path d="M 0 0 
L 0 4 
" id="mc7c77c50b9" style="stroke:#000000;stroke-width:0.5;"/>
      </defs>
      <g>
       <use style="stroke:#000000;stroke-width:0.5;" x="67.3625" xlink:href="#mc7c77c50b9" y="13.4563428218"/>
      </g>
     </g>
     <g id="text_1">
      <!-- 0 -->
      <defs>
       <path d="M 31.78125 66.40625 
Q 24.171875 66.40625 20.328125 58.90625 
Q 16.5 51.421875 16.5 36.375 
Q 16.5 21.390625 20.328125 13.890625 
Q 24.171875 6.390625 31.78125 6.390625 
Q 39.453125 6.390625 43.28125 13.890625 
Q 47.125 21.390625 47.125 36.375 
Q 47.125 51.421875 43.28125 58.90625 
Q 39.453125 66.40625 31.78125 66.40625 
M 31.78125 74.21875 
Q 44.046875 74.21875 50.515625 64.515625 
Q 56.984375 54.828125 56.984375 36.375 
Q 56.984375 17.96875 50.515625 8.265625 
Q 44.046875 -1.421875 31.78125 -1.421875 
Q 19.53125 -1.421875 13.0625 8.265625 
Q 6.59375 17.96875 6.59375 36.375 
Q 6.59375 54.828125 13.0625 64.515625 
Q 19.53125 74.21875 31.78125 74.21875 
" id="BitstreamVeraSans-Roman-30"/>
      </defs>
      <g transform="translate(61.0 378.253217822)scale(0.2 -0.2)">
       <use xlink:href="#BitstreamVeraSans-Roman-30"/>
      </g>
     </g>
    </g>
    <g id="xtick_2">
     <g id="line2d_42">
      <path clip-path="url(#pca3703533f)" d="M 178.9625 359.056343 
L 178.9625 13.456343 
" style="fill:none;stroke:#000000;stroke-dasharray:1.000000,3.000000;stroke-dashoffset:0.0;stroke-width:0.5;"/>
     </g>
     <g id="line2d_43">
      <g>
       <use style="stroke:#000000;stroke-width:0.5;" x="178.9625" xlink:href="#m1f8f5403e8" y="359.056342822"/>
      </g>
     </g>
     <g id="line2d_44">
      <g>
       <use style="stroke:#000000;stroke-width:0.5;" x="178.9625" xlink:href="#mc7c77c50b9" y="13.4563428218"/>
      </g>
     </g>
     <g id="text_2">
      <!-- 1 -->
      <defs>
       <path d="M 12.40625 8.296875 
L 28.515625 8.296875 
L 28.515625 63.921875 
L 10.984375 60.40625 
L 10.984375 69.390625 
L 28.421875 72.90625 
L 38.28125 72.90625 
L 38.28125 8.296875 
L 54.390625 8.296875 
L 54.390625 0 
L 12.40625 0 
z
" id="BitstreamVeraSans-Roman-31"/>
      </defs>
      <g transform="translate(172.6 378.253217822)scale(0.2 -0.2)">
       <use xlink:href="#BitstreamVeraSans-Roman-31"/>
      </g>
     </g>
    </g>
    <g id="xtick_3">
     <g id="line2d_45">
      <path clip-path="url(#pca3703533f)" d="M 290.5625 359.056343 
L 290.5625 13.456343 
" style="fill:none;stroke:#000000;stroke-dasharray:1.000000,3.000000;stroke-dashoffset:0.0;stroke-width:0.5;"/>
     </g>
     <g id="line2d_46">
      <g>
       <use style="stroke:#000000;stroke-width:0.5;" x="290.5625" xlink:href="#m1f8f5403e8" y="359.056342822"/>
      </g>
     </g>
     <g id="line2d_47">
      <g>
       <use style="stroke:#000000;stroke-width:0.5;" x="290.5625" xlink:href="#mc7c77c50b9" y="13.4563428218"/>
      </g>
     </g>
     <g id="text_3">
      <!-- 2 -->
      <defs>
       <path d="M 19.1875 8.296875 
L 53.609375 8.296875 
L 53.609375 0 
L 7.328125 0 
L 7.328125 8.296875 
Q 12.9375 14.109375 22.625 23.890625 
Q 32.328125 33.6875 34.8125 36.53125 
Q 39.546875 41.84375 41.421875 45.53125 
Q 43.3125 49.21875 43.3125 52.78125 
Q 43.3125 58.59375 39.234375 62.25 
Q 35.15625 65.921875 28.609375 65.921875 
Q 23.96875 65.921875 18.8125 64.3125 
Q 13.671875 62.703125 7.8125 59.421875 
L 7.8125 69.390625 
Q 13.765625 71.78125 18.9375 73 
Q 24.125 74.21875 28.421875 74.21875 
Q 39.75 74.21875 46.484375 68.546875 
Q 53.21875 62.890625 53.21875 53.421875 
Q 53.21875 48.921875 51.53125 44.890625 
Q 49.859375 40.875 45.40625 35.40625 
Q 44.1875 33.984375 37.640625 27.21875 
Q 31.109375 20.453125 19.1875 8.296875 
" id="BitstreamVeraSans-Roman-32"/>
      </defs>
      <g transform="translate(284.2 378.253217822)scale(0.2 -0.2)">
       <use xlink:href="#BitstreamVeraSans-Roman-32"/>
      </g>
     </g>
    </g>
    <g id="xtick_4">
     <g id="line2d_48">
      <path clip-path="url(#pca3703533f)" d="M 402.1625 359.056343 
L 402.1625 13.456343 
" style="fill:none;stroke:#000000;stroke-dasharray:1.000000,3.000000;stroke-dashoffset:0.0;stroke-width:0.5;"/>
     </g>
     <g id="line2d_49">
      <g>
       <use style="stroke:#000000;stroke-width:0.5;" x="402.1625" xlink:href="#m1f8f5403e8" y="359.056342822"/>
      </g>
     </g>
     <g id="line2d_50">
      <g>
       <use style="stroke:#000000;stroke-width:0.5;" x="402.1625" xlink:href="#mc7c77c50b9" y="13.4563428218"/>
      </g>
     </g>
     <g id="text_4">
      <!-- 3 -->
      <defs>
       <path d="M 40.578125 39.3125 
Q 47.65625 37.796875 51.625 33 
Q 55.609375 28.21875 55.609375 21.1875 
Q 55.609375 10.40625 48.1875 4.484375 
Q 40.765625 -1.421875 27.09375 -1.421875 
Q 22.515625 -1.421875 17.65625 -0.515625 
Q 12.796875 0.390625 7.625 2.203125 
L 7.625 11.71875 
Q 11.71875 9.328125 16.59375 8.109375 
Q 21.484375 6.890625 26.8125 6.890625 
Q 36.078125 6.890625 40.9375 10.546875 
Q 45.796875 14.203125 45.796875 21.1875 
Q 45.796875 27.640625 41.28125 31.265625 
Q 36.765625 34.90625 28.71875 34.90625 
L 20.21875 34.90625 
L 20.21875 43.015625 
L 29.109375 43.015625 
Q 36.375 43.015625 40.234375 45.921875 
Q 44.09375 48.828125 44.09375 54.296875 
Q 44.09375 59.90625 40.109375 62.90625 
Q 36.140625 65.921875 28.71875 65.921875 
Q 24.65625 65.921875 20.015625 65.03125 
Q 15.375 64.15625 9.8125 62.3125 
L 9.8125 71.09375 
Q 15.4375 72.65625 20.34375 73.4375 
Q 25.25 74.21875 29.59375 74.21875 
Q 40.828125 74.21875 47.359375 69.109375 
Q 53.90625 64.015625 53.90625 55.328125 
Q 53.90625 49.265625 50.4375 45.09375 
Q 46.96875 40.921875 40.578125 39.3125 
" id="BitstreamVeraSans-Roman-33"/>
      </defs>
      <g transform="translate(395.8 378.253217822)scale(0.2 -0.2)">
       <use xlink:href="#BitstreamVeraSans-Roman-33"/>
      </g>
     </g>
    </g>
    <g id="xtick_5">
     <g id="line2d_51">
      <path clip-path="url(#pca3703533f)" d="M 513.7625 359.056343 
L 513.7625 13.456343 
" style="fill:none;stroke:#000000;stroke-dasharray:1.000000,3.000000;stroke-dashoffset:0.0;stroke-width:0.5;"/>
     </g>
     <g id="line2d_52">
      <g>
       <use style="stroke:#000000;stroke-width:0.5;" x="513.7625" xlink:href="#m1f8f5403e8" y="359.056342822"/>
      </g>
     </g>
     <g id="line2d_53">
      <g>
       <use style="stroke:#000000;stroke-width:0.5;" x="513.7625" xlink:href="#mc7c77c50b9" y="13.4563428218"/>
      </g>
     </g>
     <g id="text_5">
      <!-- 4 -->
      <defs>
       <path d="M 37.796875 64.3125 
L 12.890625 25.390625 
L 37.796875 25.390625 
z
M 35.203125 72.90625 
L 47.609375 72.90625 
L 47.609375 25.390625 
L 58.015625 25.390625 
L 58.015625 17.1875 
L 47.609375 17.1875 
L 47.609375 0 
L 37.796875 0 
L 37.796875 17.1875 
L 4.890625 17.1875 
L 4.890625 26.703125 
z
" id="BitstreamVeraSans-Roman-34"/>
      </defs>
      <g transform="translate(507.4 378.253217822)scale(0.2 -0.2)">
       <use xlink:href="#BitstreamVeraSans-Roman-34"/>
      </g>
     </g>
    </g>
    <g id="xtick_6">
     <g id="line2d_54">
      <defs>
       <path d="M 0 0 
L 0 -2 
" id="m303c4ebb97" style="stroke:#000000;stroke-width:0.5;"/>
      </defs>
      <g>
       <use style="stroke:#000000;stroke-width:0.5;" x="100.957447516" xlink:href="#m303c4ebb97" y="359.056342822"/>
      </g>
     </g>
     <g id="line2d_55">
      <defs>
       <path d="M 0 0 
L 0 2 
" id="m6835a112f7" style="stroke:#000000;stroke-width:0.5;"/>
      </defs>
      <g>
       <use style="stroke:#000000;stroke-width:0.5;" x="100.957447516" xlink:href="#m6835a112f7" y="13.4563428218"/>
      </g>
     </g>
    </g>
    <g id="xtick_7">
     <g id="line2d_56">
      <g>
       <use style="stroke:#000000;stroke-width:0.5;" x="120.609232027" xlink:href="#m303c4ebb97" y="359.056342822"/>
      </g>
     </g>
     <g id="line2d_57">
      <g>
       <use style="stroke:#000000;stroke-width:0.5;" x="120.609232027" xlink:href="#m6835a112f7" y="13.4563428218"/>
      </g>
     </g>
    </g>
    <g id="xtick_8">
     <g id="line2d_58">
      <g>
       <use style="stroke:#000000;stroke-width:0.5;" x="134.552395032" xlink:href="#m303c4ebb97" y="359.056342822"/>
      </g>
     </g>
     <g id="line2d_59">
      <g>
       <use style="stroke:#000000;stroke-width:0.5;" x="134.552395032" xlink:href="#m6835a112f7" y="13.4563428218"/>
      </g>
     </g>
    </g>
    <g id="xtick_9">
     <g id="line2d_60">
      <g>
       <use style="stroke:#000000;stroke-width:0.5;" x="145.367552484" xlink:href="#m303c4ebb97" y="359.056342822"/>
      </g>
     </g>
     <g id="line2d_61">
      <g>
       <use style="stroke:#000000;stroke-width:0.5;" x="145.367552484" xlink:href="#m6835a112f7" y="13.4563428218"/>
      </g>
     </g>
    </g>
    <g id="xtick_10">
     <g id="line2d_62">
      <g>
       <use style="stroke:#000000;stroke-width:0.5;" x="154.204179543" xlink:href="#m303c4ebb97" y="359.056342822"/>
      </g>
     </g>
     <g id="line2d_63">
      <g>
       <use style="stroke:#000000;stroke-width:0.5;" x="154.204179543" xlink:href="#m6835a112f7" y="13.4563428218"/>
      </g>
     </g>
    </g>
    <g id="xtick_11">
     <g id="line2d_64">
      <g>
       <use style="stroke:#000000;stroke-width:0.5;" x="161.675441266" xlink:href="#m303c4ebb97" y="359.056342822"/>
      </g>
     </g>
     <g id="line2d_65">
      <g>
       <use style="stroke:#000000;stroke-width:0.5;" x="161.675441266" xlink:href="#m6835a112f7" y="13.4563428218"/>
      </g>
     </g>
    </g>
    <g id="xtick_12">
     <g id="line2d_66">
      <g>
       <use style="stroke:#000000;stroke-width:0.5;" x="168.147342548" xlink:href="#m303c4ebb97" y="359.056342822"/>
      </g>
     </g>
     <g id="line2d_67">
      <g>
       <use style="stroke:#000000;stroke-width:0.5;" x="168.147342548" xlink:href="#m6835a112f7" y="13.4563428218"/>
      </g>
     </g>
    </g>
    <g id="xtick_13">
     <g id="line2d_68">
      <g>
       <use style="stroke:#000000;stroke-width:0.5;" x="173.855964053" xlink:href="#m303c4ebb97" y="359.056342822"/>
      </g>
     </g>
     <g id="line2d_69">
      <g>
       <use style="stroke:#000000;stroke-width:0.5;" x="173.855964053" xlink:href="#m6835a112f7" y="13.4563428218"/>
      </g>
     </g>
    </g>
    <g id="xtick_14">
     <g id="line2d_70">
      <g>
       <use style="stroke:#000000;stroke-width:0.5;" x="212.557447516" xlink:href="#m303c4ebb97" y="359.056342822"/>
      </g>
     </g>
     <g id="line2d_71">
      <g>
       <use style="stroke:#000000;stroke-width:0.5;" x="212.557447516" xlink:href="#m6835a112f7" y="13.4563428218"/>
      </g>
     </g>
    </g>
    <g id="xtick_15">
     <g id="line2d_72">
      <g>
       <use style="stroke:#000000;stroke-width:0.5;" x="232.209232027" xlink:href="#m303c4ebb97" y="359.056342822"/>
      </g>
     </g>
     <g id="line2d_73">
      <g>
       <use style="stroke:#000000;stroke-width:0.5;" x="232.209232027" xlink:href="#m6835a112f7" y="13.4563428218"/>
      </g>
     </g>
    </g>
    <g id="xtick_16">
     <g id="line2d_74">
      <g>
       <use style="stroke:#000000;stroke-width:0.5;" x="246.152395032" xlink:href="#m303c4ebb97" y="359.056342822"/>
      </g>
     </g>
     <g id="line2d_75">
      <g>
       <use style="stroke:#000000;stroke-width:0.5;" x="246.152395032" xlink:href="#m6835a112f7" y="13.4563428218"/>
      </g>
     </g>
    </g>
    <g id="xtick_17">
     <g id="line2d_76">
      <g>
       <use style="stroke:#000000;stroke-width:0.5;" x="256.967552484" xlink:href="#m303c4ebb97" y="359.056342822"/>
      </g>
     </g>
     <g id="line2d_77">
      <g>
       <use style="stroke:#000000;stroke-width:0.5;" x="256.967552484" xlink:href="#m6835a112f7" y="13.4563428218"/>
      </g>
     </g>
    </g>
    <g id="xtick_18">
     <g id="line2d_78">
      <g>
       <use style="stroke:#000000;stroke-width:0.5;" x="265.804179543" xlink:href="#m303c4ebb97" y="359.056342822"/>
      </g>
     </g>
     <g id="line2d_79">
      <g>
       <use style="stroke:#000000;stroke-width:0.5;" x="265.804179543" xlink:href="#m6835a112f7" y="13.4563428218"/>
      </g>
     </g>
    </g>
    <g id="xtick_19">
     <g id="line2d_80">
      <g>
       <use style="stroke:#000000;stroke-width:0.5;" x="273.275441266" xlink:href="#m303c4ebb97" y="359.056342822"/>
      </g>
     </g>
     <g id="line2d_81">
      <g>
       <use style="stroke:#000000;stroke-width:0.5;" x="273.275441266" xlink:href="#m6835a112f7" y="13.4563428218"/>
      </g>
     </g>
    </g>
    <g id="xtick_20">
     <g id="line2d_82">
      <g>
       <use style="stroke:#000000;stroke-width:0.5;" x="279.747342548" xlink:href="#m303c4ebb97" y="359.056342822"/>
      </g>
     </g>
     <g id="line2d_83">
      <g>
       <use style="stroke:#000000;stroke-width:0.5;" x="279.747342548" xlink:href="#m6835a112f7" y="13.4563428218"/>
      </g>
     </g>
    </g>
    <g id="xtick_21">
     <g id="line2d_84">
      <g>
       <use style="stroke:#000000;stroke-width:0.5;" x="285.455964053" xlink:href="#m303c4ebb97" y="359.056342822"/>
      </g>
     </g>
     <g id="line2d_85">
      <g>
       <use style="stroke:#000000;stroke-width:0.5;" x="285.455964053" xlink:href="#m6835a112f7" y="13.4563428218"/>
      </g>
     </g>
    </g>
    <g id="xtick_22">
     <g id="line2d_86">
      <g>
       <use style="stroke:#000000;stroke-width:0.5;" x="324.157447516" xlink:href="#m303c4ebb97" y="359.056342822"/>
      </g>
     </g>
     <g id="line2d_87">
      <g>
       <use style="stroke:#000000;stroke-width:0.5;" x="324.157447516" xlink:href="#m6835a112f7" y="13.4563428218"/>
      </g>
     </g>
    </g>
    <g id="xtick_23">
     <g id="line2d_88">
      <g>
       <use style="stroke:#000000;stroke-width:0.5;" x="343.809232027" xlink:href="#m303c4ebb97" y="359.056342822"/>
      </g>
     </g>
     <g id="line2d_89">
      <g>
       <use style="stroke:#000000;stroke-width:0.5;" x="343.809232027" xlink:href="#m6835a112f7" y="13.4563428218"/>
      </g>
     </g>
    </g>
    <g id="xtick_24">
     <g id="line2d_90">
      <g>
       <use style="stroke:#000000;stroke-width:0.5;" x="357.752395032" xlink:href="#m303c4ebb97" y="359.056342822"/>
      </g>
     </g>
     <g id="line2d_91">
      <g>
       <use style="stroke:#000000;stroke-width:0.5;" x="357.752395032" xlink:href="#m6835a112f7" y="13.4563428218"/>
      </g>
     </g>
    </g>
    <g id="xtick_25">
     <g id="line2d_92">
      <g>
       <use style="stroke:#000000;stroke-width:0.5;" x="368.567552484" xlink:href="#m303c4ebb97" y="359.056342822"/>
      </g>
     </g>
     <g id="line2d_93">
      <g>
       <use style="stroke:#000000;stroke-width:0.5;" x="368.567552484" xlink:href="#m6835a112f7" y="13.4563428218"/>
      </g>
     </g>
    </g>
    <g id="xtick_26">
     <g id="line2d_94">
      <g>
       <use style="stroke:#000000;stroke-width:0.5;" x="377.404179543" xlink:href="#m303c4ebb97" y="359.056342822"/>
      </g>
     </g>
     <g id="line2d_95">
      <g>
       <use style="stroke:#000000;stroke-width:0.5;" x="377.404179543" xlink:href="#m6835a112f7" y="13.4563428218"/>
      </g>
     </g>
    </g>
    <g id="xtick_27">
     <g id="line2d_96">
      <g>
       <use style="stroke:#000000;stroke-width:0.5;" x="384.875441266" xlink:href="#m303c4ebb97" y="359.056342822"/>
      </g>
     </g>
     <g id="line2d_97">
      <g>
       <use style="stroke:#000000;stroke-width:0.5;" x="384.875441266" xlink:href="#m6835a112f7" y="13.4563428218"/>
      </g>
     </g>
    </g>
    <g id="xtick_28">
     <g id="line2d_98">
      <g>
       <use style="stroke:#000000;stroke-width:0.5;" x="391.347342548" xlink:href="#m303c4ebb97" y="359.056342822"/>
      </g>
     </g>
     <g id="line2d_99">
      <g>
       <use style="stroke:#000000;stroke-width:0.5;" x="391.347342548" xlink:href="#m6835a112f7" y="13.4563428218"/>
      </g>
     </g>
    </g>
    <g id="xtick_29">
     <g id="line2d_100">
      <g>
       <use style="stroke:#000000;stroke-width:0.5;" x="397.055964053" xlink:href="#m303c4ebb97" y="359.056342822"/>
      </g>
     </g>
     <g id="line2d_101">
      <g>
       <use style="stroke:#000000;stroke-width:0.5;" x="397.055964053" xlink:href="#m6835a112f7" y="13.4563428218"/>
      </g>
     </g>
    </g>
    <g id="xtick_30">
     <g id="line2d_102">
      <g>
       <use style="stroke:#000000;stroke-width:0.5;" x="435.757447516" xlink:href="#m303c4ebb97" y="359.056342822"/>
      </g>
     </g>
     <g id="line2d_103">
      <g>
       <use style="stroke:#000000;stroke-width:0.5;" x="435.757447516" xlink:href="#m6835a112f7" y="13.4563428218"/>
      </g>
     </g>
    </g>
    <g id="xtick_31">
     <g id="line2d_104">
      <g>
       <use style="stroke:#000000;stroke-width:0.5;" x="455.409232027" xlink:href="#m303c4ebb97" y="359.056342822"/>
      </g>
     </g>
     <g id="line2d_105">
      <g>
       <use style="stroke:#000000;stroke-width:0.5;" x="455.409232027" xlink:href="#m6835a112f7" y="13.4563428218"/>
      </g>
     </g>
    </g>
    <g id="xtick_32">
     <g id="line2d_106">
      <g>
       <use style="stroke:#000000;stroke-width:0.5;" x="469.352395032" xlink:href="#m303c4ebb97" y="359.056342822"/>
      </g>
     </g>
     <g id="line2d_107">
      <g>
       <use style="stroke:#000000;stroke-width:0.5;" x="469.352395032" xlink:href="#m6835a112f7" y="13.4563428218"/>
      </g>
     </g>
    </g>
    <g id="xtick_33">
     <g id="line2d_108">
      <g>
       <use style="stroke:#000000;stroke-width:0.5;" x="480.167552484" xlink:href="#m303c4ebb97" y="359.056342822"/>
      </g>
     </g>
     <g id="line2d_109">
      <g>
       <use style="stroke:#000000;stroke-width:0.5;" x="480.167552484" xlink:href="#m6835a112f7" y="13.4563428218"/>
      </g>
     </g>
    </g>
    <g id="xtick_34">
     <g id="line2d_110">
      <g>
       <use style="stroke:#000000;stroke-width:0.5;" x="489.004179543" xlink:href="#m303c4ebb97" y="359.056342822"/>
      </g>
     </g>
     <g id="line2d_111">
      <g>
       <use style="stroke:#000000;stroke-width:0.5;" x="489.004179543" xlink:href="#m6835a112f7" y="13.4563428218"/>
      </g>
     </g>
    </g>
    <g id="xtick_35">
     <g id="line2d_112">
      <g>
       <use style="stroke:#000000;stroke-width:0.5;" x="496.475441266" xlink:href="#m303c4ebb97" y="359.056342822"/>
      </g>
     </g>
     <g id="line2d_113">
      <g>
       <use style="stroke:#000000;stroke-width:0.5;" x="496.475441266" xlink:href="#m6835a112f7" y="13.4563428218"/>
      </g>
     </g>
    </g>
    <g id="xtick_36">
     <g id="line2d_114">
      <g>
       <use style="stroke:#000000;stroke-width:0.5;" x="502.947342548" xlink:href="#m303c4ebb97" y="359.056342822"/>
      </g>
     </g>
     <g id="line2d_115">
      <g>
       <use style="stroke:#000000;stroke-width:0.5;" x="502.947342548" xlink:href="#m6835a112f7" y="13.4563428218"/>
      </g>
     </g>
    </g>
    <g id="xtick_37">
     <g id="line2d_116">
      <g>
       <use style="stroke:#000000;stroke-width:0.5;" x="508.655964053" xlink:href="#m303c4ebb97" y="359.056342822"/>
      </g>
     </g>
     <g id="line2d_117">
      <g>
       <use style="stroke:#000000;stroke-width:0.5;" x="508.655964053" xlink:href="#m6835a112f7" y="13.4563428218"/>
      </g>
     </g>
    </g>
    <g id="text_6">
     <!-- log10 of FEvals / DIM -->
     <defs>
      <path id="BitstreamVeraSans-Roman-20"/>
      <path d="M 9.8125 72.90625 
L 24.515625 72.90625 
L 43.109375 23.296875 
L 61.8125 72.90625 
L 76.515625 72.90625 
L 76.515625 0 
L 66.890625 0 
L 66.890625 64.015625 
L 48.09375 14.015625 
L 38.1875 14.015625 
L 19.390625 64.015625 
L 19.390625 0 
L 9.8125 0 
z
" id="BitstreamVeraSans-Roman-4d"/>
      <path d="M 30.609375 48.390625 
Q 23.390625 48.390625 19.1875 42.75 
Q 14.984375 37.109375 14.984375 27.296875 
Q 14.984375 17.484375 19.15625 11.84375 
Q 23.34375 6.203125 30.609375 6.203125 
Q 37.796875 6.203125 41.984375 11.859375 
Q 46.1875 17.53125 46.1875 27.296875 
Q 46.1875 37.015625 41.984375 42.703125 
Q 37.796875 48.390625 30.609375 48.390625 
M 30.609375 56 
Q 42.328125 56 49.015625 48.375 
Q 55.71875 40.765625 55.71875 27.296875 
Q 55.71875 13.875 49.015625 6.21875 
Q 42.328125 -1.421875 30.609375 -1.421875 
Q 18.84375 -1.421875 12.171875 6.21875 
Q 5.515625 13.875 5.515625 27.296875 
Q 5.515625 40.765625 12.171875 48.375 
Q 18.84375 56 30.609375 56 
" id="BitstreamVeraSans-Roman-6f"/>
      <path d="M 9.421875 75.984375 
L 18.40625 75.984375 
L 18.40625 0 
L 9.421875 0 
z
" id="BitstreamVeraSans-Roman-6c"/>
      <path d="M 9.8125 72.90625 
L 51.703125 72.90625 
L 51.703125 64.59375 
L 19.671875 64.59375 
L 19.671875 43.109375 
L 48.578125 43.109375 
L 48.578125 34.8125 
L 19.671875 34.8125 
L 19.671875 0 
L 9.8125 0 
z
" id="BitstreamVeraSans-Roman-46"/>
      <path d="M 9.8125 72.90625 
L 55.90625 72.90625 
L 55.90625 64.59375 
L 19.671875 64.59375 
L 19.671875 43.015625 
L 54.390625 43.015625 
L 54.390625 34.71875 
L 19.671875 34.71875 
L 19.671875 8.296875 
L 56.78125 8.296875 
L 56.78125 0 
L 9.8125 0 
z
" id="BitstreamVeraSans-Roman-45"/>
      <path d="M 19.671875 64.796875 
L 19.671875 8.109375 
L 31.59375 8.109375 
Q 46.6875 8.109375 53.6875 14.9375 
Q 60.6875 21.78125 60.6875 36.53125 
Q 60.6875 51.171875 53.6875 57.984375 
Q 46.6875 64.796875 31.59375 64.796875 
z
M 9.8125 72.90625 
L 30.078125 72.90625 
Q 51.265625 72.90625 61.171875 64.09375 
Q 71.09375 55.28125 71.09375 36.53125 
Q 71.09375 17.671875 61.125 8.828125 
Q 51.171875 0 30.078125 0 
L 9.8125 0 
z
" id="BitstreamVeraSans-Roman-44"/>
      <path d="M 25.390625 72.90625 
L 33.6875 72.90625 
L 8.296875 -9.28125 
L 0 -9.28125 
z
" id="BitstreamVeraSans-Roman-2f"/>
      <path d="M 2.984375 54.6875 
L 12.5 54.6875 
L 29.59375 8.796875 
L 46.6875 54.6875 
L 56.203125 54.6875 
L 35.6875 0 
L 23.484375 0 
z
" id="BitstreamVeraSans-Roman-76"/>
      <path d="M 45.40625 27.984375 
Q 45.40625 37.75 41.375 43.109375 
Q 37.359375 48.484375 30.078125 48.484375 
Q 22.859375 48.484375 18.828125 43.109375 
Q 14.796875 37.75 14.796875 27.984375 
Q 14.796875 18.265625 18.828125 12.890625 
Q 22.859375 7.515625 30.078125 7.515625 
Q 37.359375 7.515625 41.375 12.890625 
Q 45.40625 18.265625 45.40625 27.984375 
M 54.390625 6.78125 
Q 54.390625 -7.171875 48.1875 -13.984375 
Q 42 -20.796875 29.203125 -20.796875 
Q 24.46875 -20.796875 20.265625 -20.09375 
Q 16.0625 -19.390625 12.109375 -17.921875 
L 12.109375 -9.1875 
Q 16.0625 -11.328125 19.921875 -12.34375 
Q 23.78125 -13.375 27.78125 -13.375 
Q 36.625 -13.375 41.015625 -8.765625 
Q 45.40625 -4.15625 45.40625 5.171875 
L 45.40625 9.625 
Q 42.625 4.78125 38.28125 2.390625 
Q 33.9375 0 27.875 0 
Q 17.828125 0 11.671875 7.65625 
Q 5.515625 15.328125 5.515625 27.984375 
Q 5.515625 40.671875 11.671875 48.328125 
Q 17.828125 56 27.875 56 
Q 33.9375 56 38.28125 53.609375 
Q 42.625 51.21875 45.40625 46.390625 
L 45.40625 54.6875 
L 54.390625 54.6875 
z
" id="BitstreamVeraSans-Roman-67"/>
      <path d="M 37.109375 75.984375 
L 37.109375 68.5 
L 28.515625 68.5 
Q 23.6875 68.5 21.796875 66.546875 
Q 19.921875 64.59375 19.921875 59.515625 
L 19.921875 54.6875 
L 34.71875 54.6875 
L 34.71875 47.703125 
L 19.921875 47.703125 
L 19.921875 0 
L 10.890625 0 
L 10.890625 47.703125 
L 2.296875 47.703125 
L 2.296875 54.6875 
L 10.890625 54.6875 
L 10.890625 58.5 
Q 10.890625 67.625 15.140625 71.796875 
Q 19.390625 75.984375 28.609375 75.984375 
z
" id="BitstreamVeraSans-Roman-66"/>
      <path d="M 34.28125 27.484375 
Q 23.390625 27.484375 19.1875 25 
Q 14.984375 22.515625 14.984375 16.5 
Q 14.984375 11.71875 18.140625 8.90625 
Q 21.296875 6.109375 26.703125 6.109375 
Q 34.1875 6.109375 38.703125 11.40625 
Q 43.21875 16.703125 43.21875 25.484375 
L 43.21875 27.484375 
z
M 52.203125 31.203125 
L 52.203125 0 
L 43.21875 0 
L 43.21875 8.296875 
Q 40.140625 3.328125 35.546875 0.953125 
Q 30.953125 -1.421875 24.3125 -1.421875 
Q 15.921875 -1.421875 10.953125 3.296875 
Q 6 8.015625 6 15.921875 
Q 6 25.140625 12.171875 29.828125 
Q 18.359375 34.515625 30.609375 34.515625 
L 43.21875 34.515625 
L 43.21875 35.40625 
Q 43.21875 41.609375 39.140625 45 
Q 35.0625 48.390625 27.6875 48.390625 
Q 23 48.390625 18.546875 47.265625 
Q 14.109375 46.140625 10.015625 43.890625 
L 10.015625 52.203125 
Q 14.9375 54.109375 19.578125 55.046875 
Q 24.21875 56 28.609375 56 
Q 40.484375 56 46.34375 49.84375 
Q 52.203125 43.703125 52.203125 31.203125 
" id="BitstreamVeraSans-Roman-61"/>
      <path d="M 44.28125 53.078125 
L 44.28125 44.578125 
Q 40.484375 46.53125 36.375 47.5 
Q 32.28125 48.484375 27.875 48.484375 
Q 21.1875 48.484375 17.84375 46.4375 
Q 14.5 44.390625 14.5 40.28125 
Q 14.5 37.15625 16.890625 35.375 
Q 19.28125 33.59375 26.515625 31.984375 
L 29.59375 31.296875 
Q 39.15625 29.25 43.1875 25.515625 
Q 47.21875 21.78125 47.21875 15.09375 
Q 47.21875 7.46875 41.1875 3.015625 
Q 35.15625 -1.421875 24.609375 -1.421875 
Q 20.21875 -1.421875 15.453125 -0.5625 
Q 10.6875 0.296875 5.421875 2 
L 5.421875 11.28125 
Q 10.40625 8.6875 15.234375 7.390625 
Q 20.0625 6.109375 24.8125 6.109375 
Q 31.15625 6.109375 34.5625 8.28125 
Q 37.984375 10.453125 37.984375 14.40625 
Q 37.984375 18.0625 35.515625 20.015625 
Q 33.0625 21.96875 24.703125 23.78125 
L 21.578125 24.515625 
Q 13.234375 26.265625 9.515625 29.90625 
Q 5.8125 33.546875 5.8125 39.890625 
Q 5.8125 47.609375 11.28125 51.796875 
Q 16.75 56 26.8125 56 
Q 31.78125 56 36.171875 55.265625 
Q 40.578125 54.546875 44.28125 53.078125 
" id="BitstreamVeraSans-Roman-73"/>
      <path d="M 9.8125 72.90625 
L 19.671875 72.90625 
L 19.671875 0 
L 9.8125 0 
z
" id="BitstreamVeraSans-Roman-49"/>
     </defs>
     <g transform="translate(185.4890625 402.609467822)scale(0.2 -0.2)">
      <use xlink:href="#BitstreamVeraSans-Roman-6c"/>
      <use x="27.783203125" xlink:href="#BitstreamVeraSans-Roman-6f"/>
      <use x="88.96484375" xlink:href="#BitstreamVeraSans-Roman-67"/>
      <use x="152.44140625" xlink:href="#BitstreamVeraSans-Roman-31"/>
      <use x="216.064453125" xlink:href="#BitstreamVeraSans-Roman-30"/>
      <use x="279.6875" xlink:href="#BitstreamVeraSans-Roman-20"/>
      <use x="311.474609375" xlink:href="#BitstreamVeraSans-Roman-6f"/>
      <use x="372.65625" xlink:href="#BitstreamVeraSans-Roman-66"/>
      <use x="407.861328125" xlink:href="#BitstreamVeraSans-Roman-20"/>
      <use x="439.6484375" xlink:href="#BitstreamVeraSans-Roman-46"/>
      <use x="497.16796875" xlink:href="#BitstreamVeraSans-Roman-45"/>
      <use x="560.3515625" xlink:href="#BitstreamVeraSans-Roman-76"/>
      <use x="619.53125" xlink:href="#BitstreamVeraSans-Roman-61"/>
      <use x="680.810546875" xlink:href="#BitstreamVeraSans-Roman-6c"/>
      <use x="708.59375" xlink:href="#BitstreamVeraSans-Roman-73"/>
      <use x="760.693359375" xlink:href="#BitstreamVeraSans-Roman-20"/>
      <use x="792.48046875" xlink:href="#BitstreamVeraSans-Roman-2f"/>
      <use x="826.171875" xlink:href="#BitstreamVeraSans-Roman-20"/>
      <use x="857.958984375" xlink:href="#BitstreamVeraSans-Roman-44"/>
      <use x="934.9609375" xlink:href="#BitstreamVeraSans-Roman-49"/>
      <use x="964.453125" xlink:href="#BitstreamVeraSans-Roman-4d"/>
     </g>
    </g>
   </g>
   <g id="matplotlib.axis_2">
    <g id="ytick_1">
     <g id="line2d_118">
      <path clip-path="url(#pca3703533f)" d="M 67.3625 359.056343 
L 513.7625 359.056343 
" style="fill:none;stroke:#000000;stroke-dasharray:1.000000,3.000000;stroke-dashoffset:0.0;stroke-width:0.5;"/>
     </g>
     <g id="line2d_119">
      <defs>
       <path d="M 0 0 
L 4 0 
" id="m9dcc300536" style="stroke:#000000;stroke-width:0.5;"/>
      </defs>
      <g>
       <use style="stroke:#000000;stroke-width:0.5;" x="67.3625" xlink:href="#m9dcc300536" y="359.056342822"/>
      </g>
     </g>
     <g id="line2d_120">
      <defs>
       <path d="M 0 0 
L -4 0 
" id="mfce51b4527" style="stroke:#000000;stroke-width:0.5;"/>
      </defs>
      <g>
       <use style="stroke:#000000;stroke-width:0.5;" x="513.7625" xlink:href="#mfce51b4527" y="359.056342822"/>
      </g>
     </g>
     <g id="text_7">
      <!-- 0.0 -->
      <defs>
       <path d="M 10.6875 12.40625 
L 21 12.40625 
L 21 0 
L 10.6875 0 
z
" id="BitstreamVeraSans-Roman-2e"/>
      </defs>
      <g transform="translate(31.55625 364.575092822)scale(0.2 -0.2)">
       <use xlink:href="#BitstreamVeraSans-Roman-30"/>
       <use x="63.623046875" xlink:href="#BitstreamVeraSans-Roman-2e"/>
       <use x="95.41015625" xlink:href="#BitstreamVeraSans-Roman-30"/>
      </g>
     </g>
    </g>
    <g id="ytick_2">
     <g id="line2d_121">
      <path clip-path="url(#pca3703533f)" d="M 67.3625 290.620699 
L 513.7625 290.620699 
" style="fill:none;stroke:#000000;stroke-dasharray:1.000000,3.000000;stroke-dashoffset:0.0;stroke-width:0.5;"/>
     </g>
     <g id="line2d_122">
      <g>
       <use style="stroke:#000000;stroke-width:0.5;" x="67.3625" xlink:href="#m9dcc300536" y="290.620699257"/>
      </g>
     </g>
     <g id="line2d_123">
      <g>
       <use style="stroke:#000000;stroke-width:0.5;" x="513.7625" xlink:href="#mfce51b4527" y="290.620699257"/>
      </g>
     </g>
     <g id="text_8">
      <!-- 0.2 -->
      <g transform="translate(31.55625 296.139449257)scale(0.2 -0.2)">
       <use xlink:href="#BitstreamVeraSans-Roman-30"/>
       <use x="63.623046875" xlink:href="#BitstreamVeraSans-Roman-2e"/>
       <use x="95.41015625" xlink:href="#BitstreamVeraSans-Roman-32"/>
      </g>
     </g>
    </g>
    <g id="ytick_3">
     <g id="line2d_124">
      <path clip-path="url(#pca3703533f)" d="M 67.3625 222.185056 
L 513.7625 222.185056 
" style="fill:none;stroke:#000000;stroke-dasharray:1.000000,3.000000;stroke-dashoffset:0.0;stroke-width:0.5;"/>
     </g>
     <g id="line2d_125">
      <g>
       <use style="stroke:#000000;stroke-width:0.5;" x="67.3625" xlink:href="#m9dcc300536" y="222.185055693"/>
      </g>
     </g>
     <g id="line2d_126">
      <g>
       <use style="stroke:#000000;stroke-width:0.5;" x="513.7625" xlink:href="#mfce51b4527" y="222.185055693"/>
      </g>
     </g>
     <g id="text_9">
      <!-- 0.4 -->
      <g transform="translate(31.55625 227.703805693)scale(0.2 -0.2)">
       <use xlink:href="#BitstreamVeraSans-Roman-30"/>
       <use x="63.623046875" xlink:href="#BitstreamVeraSans-Roman-2e"/>
       <use x="95.41015625" xlink:href="#BitstreamVeraSans-Roman-34"/>
      </g>
     </g>
    </g>
    <g id="ytick_4">
     <g id="line2d_127">
      <path clip-path="url(#pca3703533f)" d="M 67.3625 153.749412 
L 513.7625 153.749412 
" style="fill:none;stroke:#000000;stroke-dasharray:1.000000,3.000000;stroke-dashoffset:0.0;stroke-width:0.5;"/>
     </g>
     <g id="line2d_128">
      <g>
       <use style="stroke:#000000;stroke-width:0.5;" x="67.3625" xlink:href="#m9dcc300536" y="153.749412129"/>
      </g>
     </g>
     <g id="line2d_129">
      <g>
       <use style="stroke:#000000;stroke-width:0.5;" x="513.7625" xlink:href="#mfce51b4527" y="153.749412129"/>
      </g>
     </g>
     <g id="text_10">
      <!-- 0.6 -->
      <defs>
       <path d="M 33.015625 40.375 
Q 26.375 40.375 22.484375 35.828125 
Q 18.609375 31.296875 18.609375 23.390625 
Q 18.609375 15.53125 22.484375 10.953125 
Q 26.375 6.390625 33.015625 6.390625 
Q 39.65625 6.390625 43.53125 10.953125 
Q 47.40625 15.53125 47.40625 23.390625 
Q 47.40625 31.296875 43.53125 35.828125 
Q 39.65625 40.375 33.015625 40.375 
M 52.59375 71.296875 
L 52.59375 62.3125 
Q 48.875 64.0625 45.09375 64.984375 
Q 41.3125 65.921875 37.59375 65.921875 
Q 27.828125 65.921875 22.671875 59.328125 
Q 17.53125 52.734375 16.796875 39.40625 
Q 19.671875 43.65625 24.015625 45.921875 
Q 28.375 48.1875 33.59375 48.1875 
Q 44.578125 48.1875 50.953125 41.515625 
Q 57.328125 34.859375 57.328125 23.390625 
Q 57.328125 12.15625 50.6875 5.359375 
Q 44.046875 -1.421875 33.015625 -1.421875 
Q 20.359375 -1.421875 13.671875 8.265625 
Q 6.984375 17.96875 6.984375 36.375 
Q 6.984375 53.65625 15.1875 63.9375 
Q 23.390625 74.21875 37.203125 74.21875 
Q 40.921875 74.21875 44.703125 73.484375 
Q 48.484375 72.75 52.59375 71.296875 
" id="BitstreamVeraSans-Roman-36"/>
      </defs>
      <g transform="translate(31.55625 159.268162129)scale(0.2 -0.2)">
       <use xlink:href="#BitstreamVeraSans-Roman-30"/>
       <use x="63.623046875" xlink:href="#BitstreamVeraSans-Roman-2e"/>
       <use x="95.41015625" xlink:href="#BitstreamVeraSans-Roman-36"/>
      </g>
     </g>
    </g>
    <g id="ytick_5">
     <g id="line2d_130">
      <path clip-path="url(#pca3703533f)" d="M 67.3625 85.313769 
L 513.7625 85.313769 
" style="fill:none;stroke:#000000;stroke-dasharray:1.000000,3.000000;stroke-dashoffset:0.0;stroke-width:0.5;"/>
     </g>
     <g id="line2d_131">
      <g>
       <use style="stroke:#000000;stroke-width:0.5;" x="67.3625" xlink:href="#m9dcc300536" y="85.3137685644"/>
      </g>
     </g>
     <g id="line2d_132">
      <g>
       <use style="stroke:#000000;stroke-width:0.5;" x="513.7625" xlink:href="#mfce51b4527" y="85.3137685644"/>
      </g>
     </g>
     <g id="text_11">
      <!-- 0.8 -->
      <defs>
       <path d="M 31.78125 34.625 
Q 24.75 34.625 20.71875 30.859375 
Q 16.703125 27.09375 16.703125 20.515625 
Q 16.703125 13.921875 20.71875 10.15625 
Q 24.75 6.390625 31.78125 6.390625 
Q 38.8125 6.390625 42.859375 10.171875 
Q 46.921875 13.96875 46.921875 20.515625 
Q 46.921875 27.09375 42.890625 30.859375 
Q 38.875 34.625 31.78125 34.625 
M 21.921875 38.8125 
Q 15.578125 40.375 12.03125 44.71875 
Q 8.5 49.078125 8.5 55.328125 
Q 8.5 64.0625 14.71875 69.140625 
Q 20.953125 74.21875 31.78125 74.21875 
Q 42.671875 74.21875 48.875 69.140625 
Q 55.078125 64.0625 55.078125 55.328125 
Q 55.078125 49.078125 51.53125 44.71875 
Q 48 40.375 41.703125 38.8125 
Q 48.828125 37.15625 52.796875 32.3125 
Q 56.78125 27.484375 56.78125 20.515625 
Q 56.78125 9.90625 50.3125 4.234375 
Q 43.84375 -1.421875 31.78125 -1.421875 
Q 19.734375 -1.421875 13.25 4.234375 
Q 6.78125 9.90625 6.78125 20.515625 
Q 6.78125 27.484375 10.78125 32.3125 
Q 14.796875 37.15625 21.921875 38.8125 
M 18.3125 54.390625 
Q 18.3125 48.734375 21.84375 45.5625 
Q 25.390625 42.390625 31.78125 42.390625 
Q 38.140625 42.390625 41.71875 45.5625 
Q 45.3125 48.734375 45.3125 54.390625 
Q 45.3125 60.0625 41.71875 63.234375 
Q 38.140625 66.40625 31.78125 66.40625 
Q 25.390625 66.40625 21.84375 63.234375 
Q 18.3125 60.0625 18.3125 54.390625 
" id="BitstreamVeraSans-Roman-38"/>
      </defs>
      <g transform="translate(31.55625 90.8325185644)scale(0.2 -0.2)">
       <use xlink:href="#BitstreamVeraSans-Roman-30"/>
       <use x="63.623046875" xlink:href="#BitstreamVeraSans-Roman-2e"/>
       <use x="95.41015625" xlink:href="#BitstreamVeraSans-Roman-38"/>
      </g>
     </g>
    </g>
    <g id="ytick_6">
     <g id="line2d_133">
      <path clip-path="url(#pca3703533f)" d="M 67.3625 16.878125 
L 513.7625 16.878125 
" style="fill:none;stroke:#000000;stroke-dasharray:1.000000,3.000000;stroke-dashoffset:0.0;stroke-width:0.5;"/>
     </g>
     <g id="line2d_134">
      <g>
       <use style="stroke:#000000;stroke-width:0.5;" x="67.3625" xlink:href="#m9dcc300536" y="16.878125"/>
      </g>
     </g>
     <g id="line2d_135">
      <g>
       <use style="stroke:#000000;stroke-width:0.5;" x="513.7625" xlink:href="#mfce51b4527" y="16.878125"/>
      </g>
     </g>
     <g id="text_12">
      <!-- 1.0 -->
      <g transform="translate(31.55625 22.396875)scale(0.2 -0.2)">
       <use xlink:href="#BitstreamVeraSans-Roman-31"/>
       <use x="63.623046875" xlink:href="#BitstreamVeraSans-Roman-2e"/>
       <use x="95.41015625" xlink:href="#BitstreamVeraSans-Roman-30"/>
      </g>
     </g>
    </g>
    <g id="text_13">
     <!-- proportion of trials -->
     <defs>
      <path d="M 54.890625 33.015625 
L 54.890625 0 
L 45.90625 0 
L 45.90625 32.71875 
Q 45.90625 40.484375 42.875 44.328125 
Q 39.84375 48.1875 33.796875 48.1875 
Q 26.515625 48.1875 22.3125 43.546875 
Q 18.109375 38.921875 18.109375 30.90625 
L 18.109375 0 
L 9.078125 0 
L 9.078125 54.6875 
L 18.109375 54.6875 
L 18.109375 46.1875 
Q 21.34375 51.125 25.703125 53.5625 
Q 30.078125 56 35.796875 56 
Q 45.21875 56 50.046875 50.171875 
Q 54.890625 44.34375 54.890625 33.015625 
" id="BitstreamVeraSans-Roman-6e"/>
      <path d="M 9.421875 54.6875 
L 18.40625 54.6875 
L 18.40625 0 
L 9.421875 0 
z
M 9.421875 75.984375 
L 18.40625 75.984375 
L 18.40625 64.59375 
L 9.421875 64.59375 
z
" id="BitstreamVeraSans-Roman-69"/>
      <path d="M 18.3125 70.21875 
L 18.3125 54.6875 
L 36.8125 54.6875 
L 36.8125 47.703125 
L 18.3125 47.703125 
L 18.3125 18.015625 
Q 18.3125 11.328125 20.140625 9.421875 
Q 21.96875 7.515625 27.59375 7.515625 
L 36.8125 7.515625 
L 36.8125 0 
L 27.59375 0 
Q 17.1875 0 13.234375 3.875 
Q 9.28125 7.765625 9.28125 18.015625 
L 9.28125 47.703125 
L 2.6875 47.703125 
L 2.6875 54.6875 
L 9.28125 54.6875 
L 9.28125 70.21875 
z
" id="BitstreamVeraSans-Roman-74"/>
      <path d="M 41.109375 46.296875 
Q 39.59375 47.171875 37.8125 47.578125 
Q 36.03125 48 33.890625 48 
Q 26.265625 48 22.1875 43.046875 
Q 18.109375 38.09375 18.109375 28.8125 
L 18.109375 0 
L 9.078125 0 
L 9.078125 54.6875 
L 18.109375 54.6875 
L 18.109375 46.1875 
Q 20.953125 51.171875 25.484375 53.578125 
Q 30.03125 56 36.53125 56 
Q 37.453125 56 38.578125 55.875 
Q 39.703125 55.765625 41.0625 55.515625 
z
" id="BitstreamVeraSans-Roman-72"/>
      <path d="M 18.109375 8.203125 
L 18.109375 -20.796875 
L 9.078125 -20.796875 
L 9.078125 54.6875 
L 18.109375 54.6875 
L 18.109375 46.390625 
Q 20.953125 51.265625 25.265625 53.625 
Q 29.59375 56 35.59375 56 
Q 45.5625 56 51.78125 48.09375 
Q 58.015625 40.1875 58.015625 27.296875 
Q 58.015625 14.40625 51.78125 6.484375 
Q 45.5625 -1.421875 35.59375 -1.421875 
Q 29.59375 -1.421875 25.265625 0.953125 
Q 20.953125 3.328125 18.109375 8.203125 
M 48.6875 27.296875 
Q 48.6875 37.203125 44.609375 42.84375 
Q 40.53125 48.484375 33.40625 48.484375 
Q 26.265625 48.484375 22.1875 42.84375 
Q 18.109375 37.203125 18.109375 27.296875 
Q 18.109375 17.390625 22.1875 11.75 
Q 26.265625 6.109375 33.40625 6.109375 
Q 40.53125 6.109375 44.609375 11.75 
Q 48.6875 17.390625 48.6875 27.296875 
" id="BitstreamVeraSans-Roman-70"/>
     </defs>
     <g transform="translate(22.396875 279.484467822)rotate(-90.0)scale(0.2 -0.2)">
      <use xlink:href="#BitstreamVeraSans-Roman-70"/>
      <use x="63.4765625" xlink:href="#BitstreamVeraSans-Roman-72"/>
      <use x="104.55859375" xlink:href="#BitstreamVeraSans-Roman-6f"/>
      <use x="165.740234375" xlink:href="#BitstreamVeraSans-Roman-70"/>
      <use x="229.216796875" xlink:href="#BitstreamVeraSans-Roman-6f"/>
      <use x="290.3984375" xlink:href="#BitstreamVeraSans-Roman-72"/>
      <use x="331.51171875" xlink:href="#BitstreamVeraSans-Roman-74"/>
      <use x="370.720703125" xlink:href="#BitstreamVeraSans-Roman-69"/>
      <use x="398.50390625" xlink:href="#BitstreamVeraSans-Roman-6f"/>
      <use x="459.685546875" xlink:href="#BitstreamVeraSans-Roman-6e"/>
      <use x="523.064453125" xlink:href="#BitstreamVeraSans-Roman-20"/>
      <use x="554.8515625" xlink:href="#BitstreamVeraSans-Roman-6f"/>
      <use x="616.033203125" xlink:href="#BitstreamVeraSans-Roman-66"/>
      <use x="651.23828125" xlink:href="#BitstreamVeraSans-Roman-20"/>
      <use x="683.025390625" xlink:href="#BitstreamVeraSans-Roman-74"/>
      <use x="722.234375" xlink:href="#BitstreamVeraSans-Roman-72"/>
      <use x="763.34765625" xlink:href="#BitstreamVeraSans-Roman-69"/>
      <use x="791.130859375" xlink:href="#BitstreamVeraSans-Roman-61"/>
      <use x="852.41015625" xlink:href="#BitstreamVeraSans-Roman-6c"/>
      <use x="880.193359375" xlink:href="#BitstreamVeraSans-Roman-73"/>
     </g>
    </g>
   </g>
   <g id="text_14">
    <!-- {f10-f14}, 5-D -->
    <defs>
     <path d="M 11.71875 12.40625 
L 22.015625 12.40625 
L 22.015625 4 
L 14.015625 -11.625 
L 7.71875 -11.625 
L 11.71875 4 
z
" id="BitstreamVeraSans-Roman-2c"/>
     <path d="M 12.5 -9.28125 
L 15.921875 -9.28125 
Q 22.75 -9.28125 24.828125 -7.171875 
Q 26.90625 -5.078125 26.90625 1.90625 
L 26.90625 14.015625 
Q 26.90625 21.625 29.09375 25.09375 
Q 31.296875 28.5625 36.71875 29.890625 
Q 31.296875 31.109375 29.09375 34.5625 
Q 26.90625 38.03125 26.90625 45.703125 
L 26.90625 57.8125 
Q 26.90625 64.75 24.828125 66.875 
Q 22.75 69 15.921875 69 
L 12.5 69 
L 12.5 75.984375 
L 15.578125 75.984375 
Q 27.734375 75.984375 31.8125 72.390625 
Q 35.890625 68.796875 35.890625 58.015625 
L 35.890625 46.296875 
Q 35.890625 39.015625 38.515625 36.203125 
Q 41.15625 33.40625 48.09375 33.40625 
L 51.125 33.40625 
L 51.125 26.421875 
L 48.09375 26.421875 
Q 41.15625 26.421875 38.515625 23.578125 
Q 35.890625 20.75 35.890625 13.375 
L 35.890625 1.703125 
Q 35.890625 -9.078125 31.8125 -12.6875 
Q 27.734375 -16.3125 15.578125 -16.3125 
L 12.5 -16.3125 
z
" id="BitstreamVeraSans-Roman-7d"/>
     <path d="M 51.125 -9.28125 
L 51.125 -16.3125 
L 48.09375 -16.3125 
Q 35.9375 -16.3125 31.8125 -12.6875 
Q 27.6875 -9.078125 27.6875 1.703125 
L 27.6875 13.375 
Q 27.6875 20.75 25.046875 23.578125 
Q 22.40625 26.421875 15.484375 26.421875 
L 12.5 26.421875 
L 12.5 33.40625 
L 15.484375 33.40625 
Q 22.46875 33.40625 25.078125 36.203125 
Q 27.6875 39.015625 27.6875 46.296875 
L 27.6875 58.015625 
Q 27.6875 68.796875 31.8125 72.390625 
Q 35.9375 75.984375 48.09375 75.984375 
L 51.125 75.984375 
L 51.125 69 
L 47.796875 69 
Q 40.921875 69 38.8125 66.84375 
Q 36.71875 64.703125 36.71875 57.8125 
L 36.71875 45.703125 
Q 36.71875 38.03125 34.5 34.5625 
Q 32.28125 31.109375 26.90625 29.890625 
Q 32.328125 28.5625 34.515625 25.09375 
Q 36.71875 21.625 36.71875 14.015625 
L 36.71875 1.90625 
Q 36.71875 -4.984375 38.8125 -7.125 
Q 40.921875 -9.28125 47.796875 -9.28125 
z
" id="BitstreamVeraSans-Roman-7b"/>
     <path d="M 4.890625 31.390625 
L 31.203125 31.390625 
L 31.203125 23.390625 
L 4.890625 23.390625 
z
" id="BitstreamVeraSans-Roman-2d"/>
     <path d="M 10.796875 72.90625 
L 49.515625 72.90625 
L 49.515625 64.59375 
L 19.828125 64.59375 
L 19.828125 46.734375 
Q 21.96875 47.46875 24.109375 47.828125 
Q 26.265625 48.1875 28.421875 48.1875 
Q 40.625 48.1875 47.75 41.5 
Q 54.890625 34.8125 54.890625 23.390625 
Q 54.890625 11.625 47.5625 5.09375 
Q 40.234375 -1.421875 26.90625 -1.421875 
Q 22.3125 -1.421875 17.546875 -0.640625 
Q 12.796875 0.140625 7.71875 1.703125 
L 7.71875 11.625 
Q 12.109375 9.234375 16.796875 8.0625 
Q 21.484375 6.890625 26.703125 6.890625 
Q 35.15625 6.890625 40.078125 11.328125 
Q 45.015625 15.765625 45.015625 23.390625 
Q 45.015625 31 40.078125 35.4375 
Q 35.15625 39.890625 26.703125 39.890625 
Q 22.75 39.890625 18.8125 39.015625 
Q 14.890625 38.140625 10.796875 36.28125 
z
" id="BitstreamVeraSans-Roman-35"/>
    </defs>
    <g transform="translate(217.7125 35.5652178218)scale(0.2 -0.2)">
     <use xlink:href="#BitstreamVeraSans-Roman-7b"/>
     <use x="63.623046875" xlink:href="#BitstreamVeraSans-Roman-66"/>
     <use x="98.828125" xlink:href="#BitstreamVeraSans-Roman-31"/>
     <use x="162.451171875" xlink:href="#BitstreamVeraSans-Roman-30"/>
     <use x="226.07421875" xlink:href="#BitstreamVeraSans-Roman-2d"/>
     <use x="262.158203125" xlink:href="#BitstreamVeraSans-Roman-66"/>
     <use x="297.36328125" xlink:href="#BitstreamVeraSans-Roman-31"/>
     <use x="360.986328125" xlink:href="#BitstreamVeraSans-Roman-34"/>
     <use x="424.609375" xlink:href="#BitstreamVeraSans-Roman-7d"/>
     <use x="488.232421875" xlink:href="#BitstreamVeraSans-Roman-2c"/>
     <use x="520.01953125" xlink:href="#BitstreamVeraSans-Roman-20"/>
     <use x="551.806640625" xlink:href="#BitstreamVeraSans-Roman-35"/>
     <use x="615.4296875" xlink:href="#BitstreamVeraSans-Roman-2d"/>
     <use x="651.513671875" xlink:href="#BitstreamVeraSans-Roman-44"/>
    </g>
   </g>
   <g id="text_15">
    <!-- absolute targets -->
    <defs>
     <path d="M 56.203125 29.59375 
L 56.203125 25.203125 
L 14.890625 25.203125 
Q 15.484375 15.921875 20.484375 11.0625 
Q 25.484375 6.203125 34.421875 6.203125 
Q 39.59375 6.203125 44.453125 7.46875 
Q 49.3125 8.734375 54.109375 11.28125 
L 54.109375 2.78125 
Q 49.265625 0.734375 44.1875 -0.34375 
Q 39.109375 -1.421875 33.890625 -1.421875 
Q 20.796875 -1.421875 13.15625 6.1875 
Q 5.515625 13.8125 5.515625 26.8125 
Q 5.515625 40.234375 12.765625 48.109375 
Q 20.015625 56 32.328125 56 
Q 43.359375 56 49.78125 48.890625 
Q 56.203125 41.796875 56.203125 29.59375 
M 47.21875 32.234375 
Q 47.125 39.59375 43.09375 43.984375 
Q 39.0625 48.390625 32.421875 48.390625 
Q 24.90625 48.390625 20.390625 44.140625 
Q 15.875 39.890625 15.1875 32.171875 
z
" id="BitstreamVeraSans-Roman-65"/>
     <path d="M 8.5 21.578125 
L 8.5 54.6875 
L 17.484375 54.6875 
L 17.484375 21.921875 
Q 17.484375 14.15625 20.5 10.265625 
Q 23.53125 6.390625 29.59375 6.390625 
Q 36.859375 6.390625 41.078125 11.03125 
Q 45.3125 15.671875 45.3125 23.6875 
L 45.3125 54.6875 
L 54.296875 54.6875 
L 54.296875 0 
L 45.3125 0 
L 45.3125 8.40625 
Q 42.046875 3.421875 37.71875 1 
Q 33.40625 -1.421875 27.6875 -1.421875 
Q 18.265625 -1.421875 13.375 4.4375 
Q 8.5 10.296875 8.5 21.578125 
" id="BitstreamVeraSans-Roman-75"/>
     <path d="M 48.6875 27.296875 
Q 48.6875 37.203125 44.609375 42.84375 
Q 40.53125 48.484375 33.40625 48.484375 
Q 26.265625 48.484375 22.1875 42.84375 
Q 18.109375 37.203125 18.109375 27.296875 
Q 18.109375 17.390625 22.1875 11.75 
Q 26.265625 6.109375 33.40625 6.109375 
Q 40.53125 6.109375 44.609375 11.75 
Q 48.6875 17.390625 48.6875 27.296875 
M 18.109375 46.390625 
Q 20.953125 51.265625 25.265625 53.625 
Q 29.59375 56 35.59375 56 
Q 45.5625 56 51.78125 48.09375 
Q 58.015625 40.1875 58.015625 27.296875 
Q 58.015625 14.40625 51.78125 6.484375 
Q 45.5625 -1.421875 35.59375 -1.421875 
Q 29.59375 -1.421875 25.265625 0.953125 
Q 20.953125 3.328125 18.109375 8.203125 
L 18.109375 0 
L 9.078125 0 
L 9.078125 75.984375 
L 18.109375 75.984375 
z
" id="BitstreamVeraSans-Roman-62"/>
    </defs>
    <g transform="translate(67.3625 359.056342822)scale(0.14 -0.14)">
     <use xlink:href="#BitstreamVeraSans-Roman-61"/>
     <use x="61.279296875" xlink:href="#BitstreamVeraSans-Roman-62"/>
     <use x="124.755859375" xlink:href="#BitstreamVeraSans-Roman-73"/>
     <use x="176.85546875" xlink:href="#BitstreamVeraSans-Roman-6f"/>
     <use x="238.037109375" xlink:href="#BitstreamVeraSans-Roman-6c"/>
     <use x="265.8203125" xlink:href="#BitstreamVeraSans-Roman-75"/>
     <use x="329.19921875" xlink:href="#BitstreamVeraSans-Roman-74"/>
     <use x="368.408203125" xlink:href="#BitstreamVeraSans-Roman-65"/>
     <use x="429.931640625" xlink:href="#BitstreamVeraSans-Roman-20"/>
     <use x="461.71875" xlink:href="#BitstreamVeraSans-Roman-74"/>
     <use x="500.927734375" xlink:href="#BitstreamVeraSans-Roman-61"/>
     <use x="562.20703125" xlink:href="#BitstreamVeraSans-Roman-72"/>
     <use x="603.3046875" xlink:href="#BitstreamVeraSans-Roman-67"/>
     <use x="666.78125" xlink:href="#BitstreamVeraSans-Roman-65"/>
     <use x="728.3046875" xlink:href="#BitstreamVeraSans-Roman-74"/>
     <use x="767.513671875" xlink:href="#BitstreamVeraSans-Roman-73"/>
    </g>
   </g>
   <g id="text_16">
    <!-- 0.0.0 -->
    <g style="fill:#808080;" transform="translate(277.840625 353.520655322)scale(0.1 -0.1)">
     <use xlink:href="#BitstreamVeraSans-Roman-30"/>
     <use x="63.623046875" xlink:href="#BitstreamVeraSans-Roman-2e"/>
     <use x="95.41015625" xlink:href="#BitstreamVeraSans-Roman-30"/>
     <use x="159.033203125" xlink:href="#BitstreamVeraSans-Roman-2e"/>
     <use x="190.8203125" xlink:href="#BitstreamVeraSans-Roman-30"/>
    </g>
   </g>
   <g id="legend_1">
    <g id="patch_7">
     <path d="M 77.3625 146.881343 
L 214.584375 146.881343 
L 214.584375 23.456343 
L 77.3625 23.456343 
z
" style="fill:#ffffff;opacity:0.2;stroke:#000000;stroke-linejoin:miter;"/>
    </g>
    <g id="line2d_136">
     <path d="M 91.3625 39.653218 
L 119.3625 39.653218 
" style="fill:none;stroke:#000000;stroke-linecap:square;"/>
    </g>
    <g id="line2d_137"/>
    <g id="text_17">
     <!-- 1: 3/5 -->
     <defs>
      <path d="M 11.71875 12.40625 
L 22.015625 12.40625 
L 22.015625 0 
L 11.71875 0 
z
M 11.71875 51.703125 
L 22.015625 51.703125 
L 22.015625 39.3125 
L 11.71875 39.3125 
z
" id="BitstreamVeraSans-Roman-3a"/>
     </defs>
     <g transform="translate(141.3625 46.6532178218)scale(0.2 -0.2)">
      <use xlink:href="#BitstreamVeraSans-Roman-31"/>
      <use x="63.623046875" xlink:href="#BitstreamVeraSans-Roman-3a"/>
      <use x="97.314453125" xlink:href="#BitstreamVeraSans-Roman-20"/>
      <use x="129.1015625" xlink:href="#BitstreamVeraSans-Roman-33"/>
      <use x="192.724609375" xlink:href="#BitstreamVeraSans-Roman-2f"/>
      <use x="226.416015625" xlink:href="#BitstreamVeraSans-Roman-35"/>
     </g>
    </g>
    <g id="line2d_138">
     <path d="M 91.3625 69.009468 
L 119.3625 69.009468 
" style="fill:none;stroke:#00bfbf;stroke-linecap:square;"/>
    </g>
    <g id="line2d_139"/>
    <g id="text_18">
     <!-- -1: 2/5 -->
     <g transform="translate(141.3625 76.0094678218)scale(0.2 -0.2)">
      <use xlink:href="#BitstreamVeraSans-Roman-2d"/>
      <use x="36.083984375" xlink:href="#BitstreamVeraSans-Roman-31"/>
      <use x="99.70703125" xlink:href="#BitstreamVeraSans-Roman-3a"/>
      <use x="133.3984375" xlink:href="#BitstreamVeraSans-Roman-20"/>
      <use x="165.185546875" xlink:href="#BitstreamVeraSans-Roman-32"/>
      <use x="228.80859375" xlink:href="#BitstreamVeraSans-Roman-2f"/>
      <use x="262.5" xlink:href="#BitstreamVeraSans-Roman-35"/>
     </g>
    </g>
    <g id="line2d_140">
     <path d="M 91.3625 98.365718 
L 119.3625 98.365718 
" style="fill:none;stroke:#bf00bf;stroke-linecap:square;"/>
    </g>
    <g id="line2d_141"/>
    <g id="text_19">
     <!-- -4: 1/5 -->
     <g transform="translate(141.3625 105.365717822)scale(0.2 -0.2)">
      <use xlink:href="#BitstreamVeraSans-Roman-2d"/>
      <use x="36.083984375" xlink:href="#BitstreamVeraSans-Roman-34"/>
      <use x="99.70703125" xlink:href="#BitstreamVeraSans-Roman-3a"/>
      <use x="133.3984375" xlink:href="#BitstreamVeraSans-Roman-20"/>
      <use x="165.185546875" xlink:href="#BitstreamVeraSans-Roman-31"/>
      <use x="228.80859375" xlink:href="#BitstreamVeraSans-Roman-2f"/>
      <use x="262.5" xlink:href="#BitstreamVeraSans-Roman-35"/>
     </g>
    </g>
    <g id="line2d_142">
     <path d="M 91.3625 127.721968 
L 119.3625 127.721968 
" style="fill:none;stroke:#ff0000;stroke-linecap:square;stroke-width:3.0;"/>
    </g>
    <g id="line2d_143"/>
    <g id="text_20">
     <!-- -8: 0/5 -->
     <g transform="translate(141.3625 134.721967822)scale(0.2 -0.2)">
      <use xlink:href="#BitstreamVeraSans-Roman-2d"/>
      <use x="36.083984375" xlink:href="#BitstreamVeraSans-Roman-38"/>
      <use x="99.70703125" xlink:href="#BitstreamVeraSans-Roman-3a"/>
      <use x="133.3984375" xlink:href="#BitstreamVeraSans-Roman-20"/>
      <use x="165.185546875" xlink:href="#BitstreamVeraSans-Roman-30"/>
      <use x="228.80859375" xlink:href="#BitstreamVeraSans-Roman-2f"/>
      <use x="262.5" xlink:href="#BitstreamVeraSans-Roman-35"/>
     </g>
    </g>
   </g>
  </g>
 </g>
 <defs>
  <clipPath id="pca3703533f">
   <rect height="345.6" width="446.4" x="67.3625" y="13.4563428218"/>
  </clipPath>
 </defs>
</svg>
