<?xml version="1.0" encoding="utf-8" standalone="no"?>
<!DOCTYPE svg PUBLIC "-//W3C//DTD SVG 1.1//EN"
  "http://www.w3.org/Graphics/SVG/1.1/DTD/svg11.dtd">
<!-- Created with matplotlib (http://matplotlib.org/) -->
<svg height="407pt" version="1.1" viewBox="0 0 460 407" width="460pt" xmlns="http://www.w3.org/2000/svg" xmlns:xlink="http://www.w3.org/1999/xlink">
 <defs>
  <style type="text/css">
*{stroke-linecap:butt;stroke-linejoin:round;stroke-miterlimit:100000;}
  </style>
 </defs>
 <g id="figure_1">
  <g id="patch_1">
   <path d="M 0 407.7125 
L 460.8 407.7125 
L 460.8 0 
L 0 0 
z
" style="fill:#ffffff;"/>
  </g>
  <g id="axes_1">
   <g id="patch_2">
    <path d="M 7.2 352.8 
L 453.6 352.8 
L 453.6 7.2 
L 7.2 7.2 
z
" style="fill:#ffffff;"/>
   </g>
   <g id="line2d_1">
    <path clip-path="url(#pb49f36b365)" d="M 7.103526 352.8 
L 7.103526 348.237624 
L 7.103526 348.237624 
L 7.103526 348.237624 
L 7.103526 343.675248 
L 7.103526 343.675248 
L 7.103526 343.675248 
L 7.103526 339.112871 
L 7.103526 339.112871 
L 7.103526 339.112871 
L 7.103526 334.550495 
L 7.103526 334.550495 
L 7.103526 334.550495 
L 7.103526 329.988119 
L 7.103526 329.988119 
L 7.103526 329.988119 
L 7.103526 325.425743 
L 7.103526 325.425743 
L 7.103526 325.425743 
L 7.103526 320.863366 
L 7.103526 320.863366 
L 7.103526 320.863366 
L 7.103526 316.30099 
L 7.103526 316.30099 
L 7.103526 316.30099 
L 7.103526 311.738614 
L 7.103526 311.738614 
L 7.103526 311.738614 
L 7.103526 307.176238 
L 7.103526 307.176238 
L 7.103526 307.176238 
L 7.103526 302.613861 
L 7.103526 302.613861 
L 7.103526 302.613861 
L 7.103526 298.051485 
L 7.103526 298.051485 
L 7.103526 298.051485 
L 7.103526 293.489109 
L 7.103526 293.489109 
L 7.103526 293.489109 
L 7.103526 288.926733 
L 7.103526 288.926733 
L 7.103526 288.926733 
L 7.103526 284.364356 
L 126.47925 284.364356 
L 126.47925 279.80198 
L 127.047377 279.80198 
L 127.047377 275.239604 
L 129.208147 275.239604 
L 129.208147 270.677228 
L 130.778954 270.677228 
L 130.778954 266.114851 
L 134.246562 266.114851 
L 134.347483 256.990099 
L 134.802593 256.990099 
L 134.802593 252.427723 
L 135.551671 252.427723 
L 135.551671 247.865347 
L 137.560482 247.865347 
L 137.560482 243.30297 
L 142.586998 243.30297 
L 142.586998 238.740594 
L 144.470457 238.740594 
L 144.470457 234.178218 
L 146.679423 234.178218 
L 146.679423 229.615842 
L 148.136458 229.615842 
L 148.136458 225.053465 
L 155.503332 225.053465 
L 155.503332 220.491089 
L 166.945674 220.491089 
L 166.945674 215.928713 
L 204.331054 215.928713 
L 204.331054 211.366337 
L 207.212681 211.366337 
L 207.212681 206.80396 
L 208.501409 206.80396 
L 208.501409 202.241584 
L 208.906976 202.241584 
L 208.906976 197.679208 
L 210.676557 197.679208 
L 210.676557 193.116832 
L 211.420476 193.116832 
L 211.420476 188.554455 
L 212.299477 188.554455 
L 212.299477 183.992079 
L 212.763216 183.992079 
L 212.83334 174.867327 
L 212.920407 174.867327 
L 212.920407 170.30495 
L 213.05892 170.30495 
L 213.05892 165.742574 
L 213.798122 165.742574 
L 213.798122 161.180198 
L 213.976122 161.180198 
L 213.976122 156.617822 
L 214.113331 156.617822 
L 214.113331 152.055446 
L 214.53811 152.055446 
L 214.581965 142.930693 
L 214.824188 142.930693 
L 214.824188 138.368317 
L 215.678145 138.368317 
L 215.678145 133.805941 
L 216.880315 133.805941 
L 216.922474 124.681188 
L 216.999764 124.681188 
L 217.041933 110.994059 
L 217.111524 110.994059 
L 217.111524 106.431683 
L 217.638422 106.431683 
L 217.638422 101.869307 
L 218.65972 101.869307 
L 218.65972 97.306931 
L 219.028059 97.306931 
L 219.028059 92.744554 
L 220.05019 92.744554 
L 220.05019 88.182178 
L 220.607867 88.182178 
L 220.607867 83.619802 
L 220.824313 83.619802 
L 220.824313 79.057426 
L 222.328555 79.057426 
L 222.333605 69.932673 
L 222.649187 69.932673 
L 222.649187 65.370297 
L 227.091726 65.370297 
L 227.091726 60.807921 
L 227.637707 60.807921 
L 227.637707 56.245545 
L 227.989434 56.245545 
L 227.989434 51.683168 
L 228.62395 51.683168 
L 228.62395 47.120792 
L 236.216083 47.120792 
L 236.216083 42.558416 
L 237.357344 42.558416 
L 237.357344 37.99604 
L 240.219628 37.99604 
L 240.219628 33.433663 
L 242.702783 33.433663 
L 242.702783 28.871287 
L 245.24068 28.871287 
L 245.24068 24.308911 
L 250.591043 24.308911 
L 250.591043 19.746535 
L 253.359272 19.746535 
L 253.359272 15.184158 
L 263.341698 15.184158 
L 263.341698 10.621782 
L 263.341698 10.621782 
L 453.6 10.621782 
L 453.6 10.621782 
" style="fill:none;stroke:#ff0000;stroke-linecap:square;stroke-width:3.0;"/>
   </g>
   <g id="line2d_2">
    <path clip-path="url(#pb49f36b365)" d="M 211.350402 352.8 
L 211.350402 348.237624 
L 219.00207 348.237624 
L 219.00207 343.675248 
L 222.783363 343.675248 
L 222.783363 339.112871 
L 223.758969 339.112871 
L 223.758969 334.550495 
L 224.02832 334.550495 
L 224.02832 329.988119 
L 225.727987 329.988119 
L 225.727987 325.425743 
L 225.972354 325.425743 
L 225.972354 320.863366 
L 227.005311 320.863366 
L 227.005311 316.30099 
L 227.235226 316.30099 
L 227.326923 307.176238 
L 228.252455 307.176238 
L 228.252455 302.613861 
L 228.451832 302.613861 
L 228.451832 298.051485 
L 229.467816 298.051485 
L 229.467816 293.489109 
L 229.593067 293.489109 
L 229.652614 284.364356 
L 229.891494 284.364356 
L 229.891494 279.80198 
L 230.261315 279.80198 
L 230.315506 270.677228 
L 231.509504 270.677228 
L 231.509504 266.114851 
L 231.732554 266.114851 
L 231.732554 261.552475 
L 232.233081 261.552475 
L 232.233081 256.990099 
L 232.769765 256.990099 
L 232.769765 252.427723 
L 233.624379 252.427723 
L 233.624379 247.865347 
L 233.737211 247.865347 
L 233.737211 243.30297 
L 233.958537 243.30297 
L 233.958537 238.740594 
L 234.09663 238.740594 
L 234.09663 234.178218 
L 235.086674 234.178218 
L 235.112036 225.053465 
L 235.237454 225.053465 
L 235.294861 215.928713 
L 236.376861 215.928713 
L 236.376861 211.366337 
L 236.870818 211.366337 
L 236.870818 206.80396 
L 238.008122 206.80396 
L 238.008122 202.241584 
L 238.323285 202.241584 
L 238.323285 197.679208 
L 238.972649 197.679208 
L 238.972649 193.116832 
L 239.221919 193.116832 
L 239.221919 188.554455 
L 242.471172 188.554455 
L 242.471172 183.992079 
L 242.70501 183.992079 
L 242.70501 179.429703 
L 242.960132 179.429703 
L 242.960132 174.867327 
L 243.59508 174.867327 
L 243.695837 165.742574 
L 243.939592 165.742574 
L 243.939592 161.180198 
L 245.311973 161.180198 
L 245.311973 156.617822 
L 247.812873 156.617822 
L 247.812873 152.055446 
L 247.978076 152.055446 
L 247.978076 147.493069 
L 248.101576 147.493069 
L 248.101576 142.930693 
L 250.954109 142.930693 
L 250.954109 138.368317 
L 251.225776 138.368317 
L 251.225776 133.805941 
L 251.337498 133.805941 
L 251.337498 129.243564 
L 251.524769 129.243564 
L 251.524769 124.681188 
L 253.20244 124.681188 
L 253.20244 120.118812 
L 255.290895 120.118812 
L 255.290895 115.556436 
L 256.538686 115.556436 
L 256.538686 110.994059 
L 257.657102 110.994059 
L 257.715788 101.869307 
L 259.290118 101.869307 
L 259.290118 97.306931 
L 263.048648 97.306931 
L 263.048648 92.744554 
L 266.548253 92.744554 
L 266.548253 88.182178 
L 267.984718 88.182178 
L 267.984718 83.619802 
L 277.602087 83.619802 
L 277.602087 79.057426 
L 299.035658 79.057426 
L 299.035658 74.49505 
L 314.235464 74.49505 
L 314.235464 69.932673 
L 321.675748 69.932673 
L 321.675748 65.370297 
L 328.138266 65.370297 
L 328.138266 60.807921 
L 331.823225 60.807921 
L 331.823225 56.245545 
L 334.357681 56.245545 
L 334.357681 51.683168 
L 337.730969 51.683168 
L 337.730969 47.120792 
L 338.159719 47.120792 
L 338.159719 42.558416 
L 340.903142 42.558416 
L 340.903142 37.99604 
L 341.470036 37.99604 
L 341.470036 33.433663 
L 342.315462 33.433663 
L 342.315462 28.871287 
L 346.272827 28.871287 
L 346.272827 24.308911 
L 353.360865 24.308911 
L 353.360865 19.746535 
L 354.711113 19.746535 
L 354.711113 15.184158 
L 358.472192 15.184158 
L 358.472192 10.621782 
L 358.472192 10.621782 
L 453.6 10.621782 
L 453.6 10.621782 
" style="fill:none;stroke:#00bfbf;stroke-linecap:square;"/>
   </g>
   <g id="line2d_3">
    <path clip-path="url(#pb49f36b365)" d="M 210.776664 352.8 
L 210.776664 348.237624 
L 211.350402 348.237624 
L 211.350402 343.675248 
L 219.00207 343.675248 
L 219.00207 339.112871 
L 220.148805 339.112871 
L 220.148805 334.550495 
L 221.858803 334.550495 
L 221.858803 329.988119 
L 222.83762 329.988119 
L 222.83762 325.425743 
L 223.159482 325.425743 
L 223.234216 316.30099 
L 223.758969 316.30099 
L 223.758969 311.738614 
L 223.970471 311.738614 
L 223.970471 307.176238 
L 224.40634 307.176238 
L 224.40634 302.613861 
L 224.934255 302.613861 
L 224.934255 298.051485 
L 225.483484 298.051485 
L 225.483484 293.489109 
L 225.596919 293.489109 
L 225.675501 284.364356 
L 225.805276 284.364356 
L 225.805276 279.80198 
L 227.005311 279.80198 
L 227.005311 275.239604 
L 227.326923 275.239604 
L 227.326923 270.677228 
L 228.326184 270.677228 
L 228.393286 261.552475 
L 228.451832 261.552475 
L 228.451832 256.990099 
L 228.742978 256.990099 
L 228.742978 252.427723 
L 229.467816 252.427723 
L 229.467816 247.865347 
L 229.593067 247.865347 
L 229.593067 243.30297 
L 229.825276 243.30297 
L 229.825276 238.740594 
L 230.099148 238.740594 
L 230.099148 234.178218 
L 230.315506 234.178218 
L 230.315506 229.615842 
L 231.795235 229.615842 
L 231.795235 225.053465 
L 232.310635 225.053465 
L 232.310635 220.491089 
L 232.53692 220.491089 
L 232.53692 215.928713 
L 232.769765 215.928713 
L 232.769765 211.366337 
L 233.053767 211.366337 
L 233.053767 206.80396 
L 233.449349 206.80396 
L 233.449349 202.241584 
L 233.728548 202.241584 
L 233.728548 197.679208 
L 234.117643 197.679208 
L 234.117643 193.116832 
L 234.547322 193.116832 
L 234.547322 188.554455 
L 234.703357 188.554455 
L 234.703357 183.992079 
L 235.294861 183.992079 
L 235.294861 179.429703 
L 236.376861 179.429703 
L 236.376861 174.867327 
L 238.432549 174.867327 
L 238.432549 170.30495 
L 238.972649 170.30495 
L 238.972649 165.742574 
L 239.221919 165.742574 
L 239.296504 156.617822 
L 239.812788 156.617822 
L 239.812788 152.055446 
L 242.03998 152.055446 
L 242.150993 142.930693 
L 242.471172 142.930693 
L 242.471172 138.368317 
L 243.59508 138.368317 
L 243.695837 129.243564 
L 245.054668 129.243564 
L 245.054668 124.681188 
L 247.812873 124.681188 
L 247.812873 120.118812 
L 248.101576 120.118812 
L 248.101576 115.556436 
L 249.105172 115.556436 
L 249.105172 110.994059 
L 250.03467 110.994059 
L 250.03467 106.431683 
L 250.29067 106.431683 
L 250.29067 101.869307 
L 251.736483 101.869307 
L 251.736483 97.306931 
L 254.014434 97.306931 
L 254.014434 92.744554 
L 255.553159 92.744554 
L 255.553159 88.182178 
L 256.771406 88.182178 
L 256.771406 83.619802 
L 257.715788 83.619802 
L 257.715788 79.057426 
L 299.035658 79.057426 
L 299.035658 74.49505 
L 312.876521 74.49505 
L 312.876521 69.932673 
L 314.235464 69.932673 
L 314.235464 65.370297 
L 318.817064 65.370297 
L 318.817064 60.807921 
L 328.44081 60.807921 
L 328.44081 56.245545 
L 328.663716 56.245545 
L 328.697377 47.120792 
L 329.754761 47.120792 
L 329.754761 42.558416 
L 331.823225 42.558416 
L 331.823225 37.99604 
L 337.730969 37.99604 
L 337.730969 33.433663 
L 338.159719 33.433663 
L 338.159719 28.871287 
L 338.801921 28.871287 
L 338.801921 24.308911 
L 341.440399 24.308911 
L 341.440399 19.746535 
L 347.337 19.746535 
L 347.337 15.184158 
L 354.711113 15.184158 
L 354.711113 10.621782 
L 354.711113 10.621782 
L 453.6 10.621782 
L 453.6 10.621782 
" style="fill:none;stroke:#bf00bf;stroke-linecap:square;"/>
   </g>
   <g id="line2d_4">
    <path clip-path="url(#pb49f36b365)" d="M 206.787744 352.8 
L 206.787744 348.237624 
L 210.776664 348.237624 
L 210.776664 343.675248 
L 211.350402 343.675248 
L 211.350402 339.112871 
L 211.823715 339.112871 
L 211.823715 334.550495 
L 214.39045 334.550495 
L 214.39045 329.988119 
L 216.52429 329.988119 
L 216.52429 325.425743 
L 219.00207 325.425743 
L 219.00207 320.863366 
L 219.779232 320.863366 
L 219.779232 316.30099 
L 221.026339 316.30099 
L 221.026339 311.738614 
L 221.22053 311.738614 
L 221.22053 307.176238 
L 222.464041 307.176238 
L 222.464041 302.613861 
L 222.76185 302.613861 
L 222.83762 293.489109 
L 223.159482 293.489109 
L 223.234216 284.364356 
L 223.922888 284.364356 
L 223.922888 279.80198 
L 224.40634 279.80198 
L 224.447613 270.677228 
L 225.276458 270.677228 
L 225.276458 266.114851 
L 225.675501 266.114851 
L 225.675501 261.552475 
L 225.805276 261.552475 
L 225.805276 256.990099 
L 226.548554 256.990099 
L 226.548554 252.427723 
L 227.005311 252.427723 
L 227.005311 247.865347 
L 227.146993 247.865347 
L 227.246663 238.740594 
L 227.673692 238.740594 
L 227.673692 234.178218 
L 227.85077 234.178218 
L 227.85077 229.615842 
L 228.368997 229.615842 
L 228.368997 225.053465 
L 228.742978 225.053465 
L 228.742978 220.491089 
L 229.564041 220.491089 
L 229.593067 211.366337 
L 230.181325 211.366337 
L 230.181325 206.80396 
L 230.315506 206.80396 
L 230.315506 202.241584 
L 232.239111 202.241584 
L 232.239111 197.679208 
L 232.53692 197.679208 
L 232.53692 193.116832 
L 233.053767 193.116832 
L 233.053767 188.554455 
L 234.117643 188.554455 
L 234.117643 183.992079 
L 234.240003 183.992079 
L 234.240003 179.429703 
L 234.703357 179.429703 
L 234.762933 170.30495 
L 235.602337 170.30495 
L 235.602337 165.742574 
L 238.258295 165.742574 
L 238.258295 161.180198 
L 238.432549 161.180198 
L 238.432549 156.617822 
L 239.165472 156.617822 
L 239.165472 152.055446 
L 239.296504 152.055446 
L 239.296504 147.493069 
L 240.322875 147.493069 
L 240.322875 142.930693 
L 241.11421 142.930693 
L 241.190146 133.805941 
L 242.03998 133.805941 
L 242.150993 124.681188 
L 243.59508 124.681188 
L 243.59508 120.118812 
L 244.064168 120.118812 
L 244.064168 115.556436 
L 244.882305 115.556436 
L 244.882305 110.994059 
L 245.054668 110.994059 
L 245.054668 106.431683 
L 245.184705 106.431683 
L 245.184705 101.869307 
L 247.790066 101.869307 
L 247.812873 92.744554 
L 248.101576 92.744554 
L 248.101576 88.182178 
L 251.736483 88.182178 
L 251.736483 83.619802 
L 252.489052 83.619802 
L 252.489052 79.057426 
L 296.684684 79.057426 
L 296.684684 74.49505 
L 305.666609 74.49505 
L 305.666609 69.932673 
L 309.771941 69.932673 
L 309.771941 65.370297 
L 311.38404 65.370297 
L 311.38404 60.807921 
L 311.799278 60.807921 
L 311.799278 56.245545 
L 312.876521 56.245545 
L 312.876521 51.683168 
L 313.099629 51.683168 
L 313.099629 47.120792 
L 314.136438 47.120792 
L 314.136438 42.558416 
L 316.740845 42.558416 
L 316.740845 37.99604 
L 323.050673 37.99604 
L 323.050673 33.433663 
L 328.099606 33.433663 
L 328.099606 28.871287 
L 328.44081 28.871287 
L 328.44081 24.308911 
L 328.697377 24.308911 
L 328.697377 19.746535 
L 336.843644 19.746535 
L 336.843644 15.184158 
L 338.159719 15.184158 
L 338.159719 10.621782 
L 338.159719 10.621782 
L 453.6 10.621782 
L 453.6 10.621782 
" style="fill:none;stroke:#000000;stroke-linecap:square;"/>
   </g>
   <g id="line2d_5">
    <path clip-path="url(#pb49f36b365)" d="M 188.42337 352.8 
L 188.42337 348.237624 
L 190.720946 348.237624 
L 190.720946 343.675248 
L 197.296062 343.675248 
L 197.296062 339.112871 
L 201.290963 339.112871 
L 201.290963 334.550495 
L 207.588598 334.550495 
L 207.588598 329.988119 
L 208.181759 329.988119 
L 208.181759 325.425743 
L 209.213827 325.425743 
L 209.213827 320.863366 
L 210.809841 320.863366 
L 210.809841 316.30099 
L 211.21683 316.30099 
L 211.21683 311.738614 
L 211.350402 311.738614 
L 211.350402 307.176238 
L 211.823715 307.176238 
L 211.823715 302.613861 
L 212.555906 302.613861 
L 212.555906 298.051485 
L 213.525126 298.051485 
L 213.525126 293.489109 
L 215.375847 293.489109 
L 215.375847 288.926733 
L 215.879011 288.926733 
L 215.879011 284.364356 
L 216.251964 284.364356 
L 216.341005 275.239604 
L 216.48892 275.239604 
L 216.52429 266.114851 
L 217.105647 266.114851 
L 217.105647 261.552475 
L 218.099251 261.552475 
L 218.099251 256.990099 
L 219.971884 256.990099 
L 219.971884 252.427723 
L 220.208509 252.427723 
L 220.208509 247.865347 
L 221.191296 247.865347 
L 221.191296 243.30297 
L 221.371323 243.30297 
L 221.371323 238.740594 
L 222.947767 238.740594 
L 222.947767 234.178218 
L 223.481995 234.178218 
L 223.481995 229.615842 
L 223.901598 229.615842 
L 223.901598 225.053465 
L 224.709402 225.053465 
L 224.709402 220.491089 
L 224.845188 220.491089 
L 224.845188 215.928713 
L 225.406456 215.928713 
L 225.406456 211.366337 
L 225.929977 211.366337 
L 225.929977 206.80396 
L 226.627301 206.80396 
L 226.627301 202.241584 
L 226.913561 202.241584 
L 226.968874 193.116832 
L 227.225598 193.116832 
L 227.246663 183.992079 
L 227.596847 183.992079 
L 227.596847 179.429703 
L 228.784638 179.429703 
L 228.784638 174.867327 
L 229.191959 174.867327 
L 229.191959 170.30495 
L 229.605721 170.30495 
L 229.605721 165.742574 
L 230.635096 165.742574 
L 230.635096 161.180198 
L 231.626421 161.180198 
L 231.677991 152.055446 
L 231.779136 152.055446 
L 231.834182 142.930693 
L 232.108639 142.930693 
L 232.108639 138.368317 
L 232.327689 138.368317 
L 232.327689 133.805941 
L 233.097013 133.805941 
L 233.097013 129.243564 
L 233.289479 129.243564 
L 233.289479 124.681188 
L 233.844965 124.681188 
L 233.844965 120.118812 
L 234.762933 120.118812 
L 234.762933 115.556436 
L 235.250582 115.556436 
L 235.250582 110.994059 
L 236.790983 110.994059 
L 236.790983 106.431683 
L 237.065386 106.431683 
L 237.065386 101.869307 
L 237.895471 101.869307 
L 237.895471 97.306931 
L 238.694859 97.306931 
L 238.694859 92.744554 
L 239.287592 92.744554 
L 239.287592 88.182178 
L 241.608624 88.182178 
L 241.608624 83.619802 
L 243.342584 83.619802 
L 243.342584 79.057426 
L 289.92571 79.057426 
L 289.92571 74.49505 
L 290.491346 74.49505 
L 290.491346 69.932673 
L 294.715558 69.932673 
L 294.715558 65.370297 
L 300.413024 65.370297 
L 300.413024 60.807921 
L 302.635416 60.807921 
L 302.635416 56.245545 
L 303.397722 56.245545 
L 303.397722 51.683168 
L 304.050331 51.683168 
L 304.07461 42.558416 
L 306.547097 42.558416 
L 306.547097 37.99604 
L 309.771941 37.99604 
L 309.771941 33.433663 
L 310.190585 33.433663 
L 310.190585 28.871287 
L 311.38404 28.871287 
L 311.38404 24.308911 
L 313.317702 24.308911 
L 313.317702 19.746535 
L 315.079321 19.746535 
L 315.079321 15.184158 
L 315.35636 15.184158 
L 315.35636 10.621782 
L 315.35636 10.621782 
L 453.6 10.621782 
L 453.6 10.621782 
" style="fill:none;stroke:#00bfbf;stroke-linecap:square;"/>
   </g>
   <g id="line2d_6">
    <path clip-path="url(#pb49f36b365)" d="M 7.103526 352.8 
L 7.103526 348.237624 
L 7.103526 348.237624 
L 7.103526 348.237624 
L 7.103526 343.675248 
L 7.103526 343.675248 
L 7.103526 343.675248 
L 7.103526 339.112871 
L 7.103526 339.112871 
L 7.103526 339.112871 
L 7.103526 334.550495 
L 7.103526 334.550495 
L 7.103526 334.550495 
L 7.103526 329.988119 
L 7.103526 329.988119 
L 7.103526 329.988119 
L 7.103526 325.425743 
L 7.103526 325.425743 
L 7.103526 325.425743 
L 7.103526 320.863366 
L 7.103526 320.863366 
L 7.103526 320.863366 
L 7.103526 316.30099 
L 7.103526 316.30099 
L 7.103526 316.30099 
L 7.103526 311.738614 
L 7.103526 311.738614 
L 7.103526 311.738614 
L 7.103526 307.176238 
L 7.103526 307.176238 
L 7.103526 307.176238 
L 7.103526 302.613861 
L 7.103526 302.613861 
L 7.103526 302.613861 
L 7.103526 298.051485 
L 7.103526 298.051485 
L 7.103526 298.051485 
L 7.103526 293.489109 
L 7.103526 293.489109 
L 7.103526 293.489109 
L 7.103526 288.926733 
L 7.103526 288.926733 
L 7.103526 288.926733 
L 7.103526 284.364356 
L 126.47925 284.364356 
L 126.47925 279.80198 
L 127.047377 279.80198 
L 127.047377 275.239604 
L 129.208147 275.239604 
L 129.208147 270.677228 
L 130.778954 270.677228 
L 130.778954 266.114851 
L 134.246562 266.114851 
L 134.347483 256.990099 
L 134.802593 256.990099 
L 134.802593 252.427723 
L 135.551671 252.427723 
L 135.551671 247.865347 
L 137.560482 247.865347 
L 137.560482 243.30297 
L 142.586998 243.30297 
L 142.586998 238.740594 
L 144.470457 238.740594 
L 144.470457 234.178218 
L 146.679423 234.178218 
L 146.679423 229.615842 
L 148.136458 229.615842 
L 148.136458 225.053465 
L 155.503332 225.053465 
L 155.503332 220.491089 
L 166.945674 220.491089 
L 166.945674 215.928713 
L 204.331054 215.928713 
L 204.331054 211.366337 
L 207.212681 211.366337 
L 207.212681 206.80396 
L 208.501409 206.80396 
L 208.501409 202.241584 
L 208.906976 202.241584 
L 208.906976 197.679208 
L 210.676557 197.679208 
L 210.676557 193.116832 
L 211.420476 193.116832 
L 211.420476 188.554455 
L 212.299477 188.554455 
L 212.299477 183.992079 
L 212.763216 183.992079 
L 212.83334 174.867327 
L 212.920407 174.867327 
L 212.920407 170.30495 
L 213.05892 170.30495 
L 213.05892 165.742574 
L 213.798122 165.742574 
L 213.798122 161.180198 
L 213.976122 161.180198 
L 213.976122 156.617822 
L 214.113331 156.617822 
L 214.113331 152.055446 
L 214.53811 152.055446 
L 214.581965 142.930693 
L 214.824188 142.930693 
L 214.824188 138.368317 
L 215.678145 138.368317 
L 215.678145 133.805941 
L 216.880315 133.805941 
L 216.922474 124.681188 
L 216.999764 124.681188 
L 217.041933 110.994059 
L 217.111524 110.994059 
L 217.111524 106.431683 
L 217.638422 106.431683 
L 217.638422 101.869307 
L 218.65972 101.869307 
L 218.65972 97.306931 
L 219.028059 97.306931 
L 219.028059 92.744554 
L 220.05019 92.744554 
L 220.05019 88.182178 
L 220.607867 88.182178 
L 220.607867 83.619802 
L 220.824313 83.619802 
L 220.824313 79.057426 
L 222.328555 79.057426 
L 222.333605 69.932673 
L 222.649187 69.932673 
L 222.649187 65.370297 
L 227.091726 65.370297 
L 227.091726 60.807921 
L 227.637707 60.807921 
L 227.637707 56.245545 
L 227.989434 56.245545 
L 227.989434 51.683168 
L 228.62395 51.683168 
L 228.62395 47.120792 
L 236.216083 47.120792 
L 236.216083 42.558416 
L 237.357344 42.558416 
L 237.357344 37.99604 
L 240.219628 37.99604 
L 240.219628 33.433663 
L 242.702783 33.433663 
L 242.702783 28.871287 
L 245.24068 28.871287 
L 245.24068 24.308911 
L 250.591043 24.308911 
L 250.591043 19.746535 
L 253.359272 19.746535 
L 253.359272 15.184158 
L 263.341698 15.184158 
L 263.341698 10.621782 
L 263.341698 10.621782 
L 453.6 10.621782 
L 453.6 10.621782 
" style="fill:none;stroke:#bf00bf;stroke-linecap:square;"/>
   </g>
   <g id="patch_3">
    <path d="M 7.2 7.2 
L 453.6 7.2 
" style="fill:none;stroke:#000000;stroke-linecap:square;stroke-linejoin:miter;"/>
   </g>
   <g id="patch_4">
    <path d="M 453.6 352.8 
L 453.6 7.2 
" style="fill:none;stroke:#000000;stroke-linecap:square;stroke-linejoin:miter;"/>
   </g>
   <g id="patch_5">
    <path d="M 7.2 352.8 
L 453.6 352.8 
" style="fill:none;stroke:#000000;stroke-linecap:square;stroke-linejoin:miter;"/>
   </g>
   <g id="patch_6">
    <path d="M 7.2 352.8 
L 7.2 7.2 
" style="fill:none;stroke:#000000;stroke-linecap:square;stroke-linejoin:miter;"/>
   </g>
   <g id="matplotlib.axis_1">
    <g id="xtick_1"/>
    <g id="xtick_2">
     <g id="line2d_7">
      <path clip-path="url(#pb49f36b365)" d="M 51.753173 352.8 
L 51.753173 7.2 
" style="fill:none;stroke:#000000;stroke-dasharray:1.000000,3.000000;stroke-dashoffset:0.0;stroke-width:0.5;"/>
     </g>
     <g id="line2d_8">
      <defs>
       <path d="M 0 0 
L 0 -4 
" id="mfc0a323334" style="stroke:#000000;stroke-width:0.5;"/>
      </defs>
      <g>
       <use style="stroke:#000000;stroke-width:0.5;" x="51.753173483" xlink:href="#mfc0a323334" y="352.8"/>
      </g>
     </g>
     <g id="line2d_9">
      <defs>
       <path d="M 0 0 
L 0 4 
" id="m7877271f88" style="stroke:#000000;stroke-width:0.5;"/>
      </defs>
      <g>
       <use style="stroke:#000000;stroke-width:0.5;" x="51.753173483" xlink:href="#m7877271f88" y="7.2"/>
      </g>
     </g>
     <g id="text_1">
      <!-- -6 -->
      <defs>
       <path d="M 33.015625 40.375 
Q 26.375 40.375 22.484375 35.828125 
Q 18.609375 31.296875 18.609375 23.390625 
Q 18.609375 15.53125 22.484375 10.953125 
Q 26.375 6.390625 33.015625 6.390625 
Q 39.65625 6.390625 43.53125 10.953125 
Q 47.40625 15.53125 47.40625 23.390625 
Q 47.40625 31.296875 43.53125 35.828125 
Q 39.65625 40.375 33.015625 40.375 
M 52.59375 71.296875 
L 52.59375 62.3125 
Q 48.875 64.0625 45.09375 64.984375 
Q 41.3125 65.921875 37.59375 65.921875 
Q 27.828125 65.921875 22.671875 59.328125 
Q 17.53125 52.734375 16.796875 39.40625 
Q 19.671875 43.65625 24.015625 45.921875 
Q 28.375 48.1875 33.59375 48.1875 
Q 44.578125 48.1875 50.953125 41.515625 
Q 57.328125 34.859375 57.328125 23.390625 
Q 57.328125 12.15625 50.6875 5.359375 
Q 44.046875 -1.421875 33.015625 -1.421875 
Q 20.359375 -1.421875 13.671875 8.265625 
Q 6.984375 17.96875 6.984375 36.375 
Q 6.984375 53.65625 15.1875 63.9375 
Q 23.390625 74.21875 37.203125 74.21875 
Q 40.921875 74.21875 44.703125 73.484375 
Q 48.484375 72.75 52.59375 71.296875 
" id="BitstreamVeraSans-Roman-36"/>
       <path d="M 4.890625 31.390625 
L 31.203125 31.390625 
L 31.203125 23.390625 
L 4.890625 23.390625 
z
" id="BitstreamVeraSans-Roman-2d"/>
      </defs>
      <g transform="translate(41.782860983 371.996875)scale(0.2 -0.2)">
       <use xlink:href="#BitstreamVeraSans-Roman-2d"/>
       <use x="36.083984375" xlink:href="#BitstreamVeraSans-Roman-36"/>
      </g>
     </g>
    </g>
    <g id="xtick_3">
     <g id="line2d_10">
      <path clip-path="url(#pb49f36b365)" d="M 96.402821 352.8 
L 96.402821 7.2 
" style="fill:none;stroke:#000000;stroke-dasharray:1.000000,3.000000;stroke-dashoffset:0.0;stroke-width:0.5;"/>
     </g>
     <g id="line2d_11">
      <g>
       <use style="stroke:#000000;stroke-width:0.5;" x="96.4028208737" xlink:href="#mfc0a323334" y="352.8"/>
      </g>
     </g>
     <g id="line2d_12">
      <g>
       <use style="stroke:#000000;stroke-width:0.5;" x="96.4028208737" xlink:href="#m7877271f88" y="7.2"/>
      </g>
     </g>
     <g id="text_2">
      <!-- -4 -->
      <defs>
       <path d="M 37.796875 64.3125 
L 12.890625 25.390625 
L 37.796875 25.390625 
z
M 35.203125 72.90625 
L 47.609375 72.90625 
L 47.609375 25.390625 
L 58.015625 25.390625 
L 58.015625 17.1875 
L 47.609375 17.1875 
L 47.609375 0 
L 37.796875 0 
L 37.796875 17.1875 
L 4.890625 17.1875 
L 4.890625 26.703125 
z
" id="BitstreamVeraSans-Roman-34"/>
      </defs>
      <g transform="translate(86.4325083737 371.996875)scale(0.2 -0.2)">
       <use xlink:href="#BitstreamVeraSans-Roman-2d"/>
       <use x="36.083984375" xlink:href="#BitstreamVeraSans-Roman-34"/>
      </g>
     </g>
    </g>
    <g id="xtick_4">
     <g id="line2d_13">
      <path clip-path="url(#pb49f36b365)" d="M 141.052468 352.8 
L 141.052468 7.2 
" style="fill:none;stroke:#000000;stroke-dasharray:1.000000,3.000000;stroke-dashoffset:0.0;stroke-width:0.5;"/>
     </g>
     <g id="line2d_14">
      <g>
       <use style="stroke:#000000;stroke-width:0.5;" x="141.052468265" xlink:href="#mfc0a323334" y="352.8"/>
      </g>
     </g>
     <g id="line2d_15">
      <g>
       <use style="stroke:#000000;stroke-width:0.5;" x="141.052468265" xlink:href="#m7877271f88" y="7.2"/>
      </g>
     </g>
     <g id="text_3">
      <!-- -2 -->
      <defs>
       <path d="M 19.1875 8.296875 
L 53.609375 8.296875 
L 53.609375 0 
L 7.328125 0 
L 7.328125 8.296875 
Q 12.9375 14.109375 22.625 23.890625 
Q 32.328125 33.6875 34.8125 36.53125 
Q 39.546875 41.84375 41.421875 45.53125 
Q 43.3125 49.21875 43.3125 52.78125 
Q 43.3125 58.59375 39.234375 62.25 
Q 35.15625 65.921875 28.609375 65.921875 
Q 23.96875 65.921875 18.8125 64.3125 
Q 13.671875 62.703125 7.8125 59.421875 
L 7.8125 69.390625 
Q 13.765625 71.78125 18.9375 73 
Q 24.125 74.21875 28.421875 74.21875 
Q 39.75 74.21875 46.484375 68.546875 
Q 53.21875 62.890625 53.21875 53.421875 
Q 53.21875 48.921875 51.53125 44.890625 
Q 49.859375 40.875 45.40625 35.40625 
Q 44.1875 33.984375 37.640625 27.21875 
Q 31.109375 20.453125 19.1875 8.296875 
" id="BitstreamVeraSans-Roman-32"/>
      </defs>
      <g transform="translate(131.082155765 371.996875)scale(0.2 -0.2)">
       <use xlink:href="#BitstreamVeraSans-Roman-2d"/>
       <use x="36.083984375" xlink:href="#BitstreamVeraSans-Roman-32"/>
      </g>
     </g>
    </g>
    <g id="xtick_5">
     <g id="line2d_16">
      <path clip-path="url(#pb49f36b365)" d="M 185.702116 352.8 
L 185.702116 7.2 
" style="fill:none;stroke:#000000;stroke-dasharray:1.000000,3.000000;stroke-dashoffset:0.0;stroke-width:0.5;"/>
     </g>
     <g id="line2d_17">
      <g>
       <use style="stroke:#000000;stroke-width:0.5;" x="185.702115655" xlink:href="#mfc0a323334" y="352.8"/>
      </g>
     </g>
     <g id="line2d_18">
      <g>
       <use style="stroke:#000000;stroke-width:0.5;" x="185.702115655" xlink:href="#m7877271f88" y="7.2"/>
      </g>
     </g>
     <g id="text_4">
      <!-- 0 -->
      <defs>
       <path d="M 31.78125 66.40625 
Q 24.171875 66.40625 20.328125 58.90625 
Q 16.5 51.421875 16.5 36.375 
Q 16.5 21.390625 20.328125 13.890625 
Q 24.171875 6.390625 31.78125 6.390625 
Q 39.453125 6.390625 43.28125 13.890625 
Q 47.125 21.390625 47.125 36.375 
Q 47.125 51.421875 43.28125 58.90625 
Q 39.453125 66.40625 31.78125 66.40625 
M 31.78125 74.21875 
Q 44.046875 74.21875 50.515625 64.515625 
Q 56.984375 54.828125 56.984375 36.375 
Q 56.984375 17.96875 50.515625 8.265625 
Q 44.046875 -1.421875 31.78125 -1.421875 
Q 19.53125 -1.421875 13.0625 8.265625 
Q 6.59375 17.96875 6.59375 36.375 
Q 6.59375 54.828125 13.0625 64.515625 
Q 19.53125 74.21875 31.78125 74.21875 
" id="BitstreamVeraSans-Roman-30"/>
      </defs>
      <g transform="translate(179.339615655 371.996875)scale(0.2 -0.2)">
       <use xlink:href="#BitstreamVeraSans-Roman-30"/>
      </g>
     </g>
    </g>
    <g id="xtick_6">
     <g id="line2d_19">
      <path clip-path="url(#pb49f36b365)" d="M 230.351763 352.8 
L 230.351763 7.2 
" style="fill:none;stroke:#000000;stroke-dasharray:1.000000,3.000000;stroke-dashoffset:0.0;stroke-width:0.5;"/>
     </g>
     <g id="line2d_20">
      <g>
       <use style="stroke:#000000;stroke-width:0.5;" x="230.351763046" xlink:href="#mfc0a323334" y="352.8"/>
      </g>
     </g>
     <g id="line2d_21">
      <g>
       <use style="stroke:#000000;stroke-width:0.5;" x="230.351763046" xlink:href="#m7877271f88" y="7.2"/>
      </g>
     </g>
     <g id="text_5">
      <!-- 2 -->
      <g transform="translate(223.989263046 371.996875)scale(0.2 -0.2)">
       <use xlink:href="#BitstreamVeraSans-Roman-32"/>
      </g>
     </g>
    </g>
    <g id="xtick_7">
     <g id="line2d_22">
      <path clip-path="url(#pb49f36b365)" d="M 275.00141 352.8 
L 275.00141 7.2 
" style="fill:none;stroke:#000000;stroke-dasharray:1.000000,3.000000;stroke-dashoffset:0.0;stroke-width:0.5;"/>
     </g>
     <g id="line2d_23">
      <g>
       <use style="stroke:#000000;stroke-width:0.5;" x="275.001410437" xlink:href="#mfc0a323334" y="352.8"/>
      </g>
     </g>
     <g id="line2d_24">
      <g>
       <use style="stroke:#000000;stroke-width:0.5;" x="275.001410437" xlink:href="#m7877271f88" y="7.2"/>
      </g>
     </g>
     <g id="text_6">
      <!-- 4 -->
      <g transform="translate(268.638910437 371.996875)scale(0.2 -0.2)">
       <use xlink:href="#BitstreamVeraSans-Roman-34"/>
      </g>
     </g>
    </g>
    <g id="xtick_8">
     <g id="line2d_25">
      <path clip-path="url(#pb49f36b365)" d="M 319.651058 352.8 
L 319.651058 7.2 
" style="fill:none;stroke:#000000;stroke-dasharray:1.000000,3.000000;stroke-dashoffset:0.0;stroke-width:0.5;"/>
     </g>
     <g id="line2d_26">
      <g>
       <use style="stroke:#000000;stroke-width:0.5;" x="319.651057828" xlink:href="#mfc0a323334" y="352.8"/>
      </g>
     </g>
     <g id="line2d_27">
      <g>
       <use style="stroke:#000000;stroke-width:0.5;" x="319.651057828" xlink:href="#m7877271f88" y="7.2"/>
      </g>
     </g>
     <g id="text_7">
      <!-- 6 -->
      <g transform="translate(313.288557828 371.996875)scale(0.2 -0.2)">
       <use xlink:href="#BitstreamVeraSans-Roman-36"/>
      </g>
     </g>
    </g>
    <g id="xtick_9">
     <g id="line2d_28">
      <path clip-path="url(#pb49f36b365)" d="M 364.300705 352.8 
L 364.300705 7.2 
" style="fill:none;stroke:#000000;stroke-dasharray:1.000000,3.000000;stroke-dashoffset:0.0;stroke-width:0.5;"/>
     </g>
     <g id="line2d_29">
      <g>
       <use style="stroke:#000000;stroke-width:0.5;" x="364.300705218" xlink:href="#mfc0a323334" y="352.8"/>
      </g>
     </g>
     <g id="line2d_30">
      <g>
       <use style="stroke:#000000;stroke-width:0.5;" x="364.300705218" xlink:href="#m7877271f88" y="7.2"/>
      </g>
     </g>
     <g id="text_8">
      <!-- 8 -->
      <defs>
       <path d="M 31.78125 34.625 
Q 24.75 34.625 20.71875 30.859375 
Q 16.703125 27.09375 16.703125 20.515625 
Q 16.703125 13.921875 20.71875 10.15625 
Q 24.75 6.390625 31.78125 6.390625 
Q 38.8125 6.390625 42.859375 10.171875 
Q 46.921875 13.96875 46.921875 20.515625 
Q 46.921875 27.09375 42.890625 30.859375 
Q 38.875 34.625 31.78125 34.625 
M 21.921875 38.8125 
Q 15.578125 40.375 12.03125 44.71875 
Q 8.5 49.078125 8.5 55.328125 
Q 8.5 64.0625 14.71875 69.140625 
Q 20.953125 74.21875 31.78125 74.21875 
Q 42.671875 74.21875 48.875 69.140625 
Q 55.078125 64.0625 55.078125 55.328125 
Q 55.078125 49.078125 51.53125 44.71875 
Q 48 40.375 41.703125 38.8125 
Q 48.828125 37.15625 52.796875 32.3125 
Q 56.78125 27.484375 56.78125 20.515625 
Q 56.78125 9.90625 50.3125 4.234375 
Q 43.84375 -1.421875 31.78125 -1.421875 
Q 19.734375 -1.421875 13.25 4.234375 
Q 6.78125 9.90625 6.78125 20.515625 
Q 6.78125 27.484375 10.78125 32.3125 
Q 14.796875 37.15625 21.921875 38.8125 
M 18.3125 54.390625 
Q 18.3125 48.734375 21.84375 45.5625 
Q 25.390625 42.390625 31.78125 42.390625 
Q 38.140625 42.390625 41.71875 45.5625 
Q 45.3125 48.734375 45.3125 54.390625 
Q 45.3125 60.0625 41.71875 63.234375 
Q 38.140625 66.40625 31.78125 66.40625 
Q 25.390625 66.40625 21.84375 63.234375 
Q 18.3125 60.0625 18.3125 54.390625 
" id="BitstreamVeraSans-Roman-38"/>
      </defs>
      <g transform="translate(357.938205218 371.996875)scale(0.2 -0.2)">
       <use xlink:href="#BitstreamVeraSans-Roman-38"/>
      </g>
     </g>
    </g>
    <g id="xtick_10">
     <g id="line2d_31">
      <path clip-path="url(#pb49f36b365)" d="M 408.950353 352.8 
L 408.950353 7.2 
" style="fill:none;stroke:#000000;stroke-dasharray:1.000000,3.000000;stroke-dashoffset:0.0;stroke-width:0.5;"/>
     </g>
     <g id="line2d_32">
      <g>
       <use style="stroke:#000000;stroke-width:0.5;" x="408.950352609" xlink:href="#mfc0a323334" y="352.8"/>
      </g>
     </g>
     <g id="line2d_33">
      <g>
       <use style="stroke:#000000;stroke-width:0.5;" x="408.950352609" xlink:href="#m7877271f88" y="7.2"/>
      </g>
     </g>
     <g id="text_9">
      <!-- 10 -->
      <defs>
       <path d="M 12.40625 8.296875 
L 28.515625 8.296875 
L 28.515625 63.921875 
L 10.984375 60.40625 
L 10.984375 69.390625 
L 28.421875 72.90625 
L 38.28125 72.90625 
L 38.28125 8.296875 
L 54.390625 8.296875 
L 54.390625 0 
L 12.40625 0 
z
" id="BitstreamVeraSans-Roman-31"/>
      </defs>
      <g transform="translate(396.225352609 371.996875)scale(0.2 -0.2)">
       <use xlink:href="#BitstreamVeraSans-Roman-31"/>
       <use x="63.623046875" xlink:href="#BitstreamVeraSans-Roman-30"/>
      </g>
     </g>
    </g>
    <g id="xtick_11">
     <g id="line2d_34">
      <path clip-path="url(#pb49f36b365)" d="M 453.6 352.8 
L 453.6 7.2 
" style="fill:none;stroke:#000000;stroke-dasharray:1.000000,3.000000;stroke-dashoffset:0.0;stroke-width:0.5;"/>
     </g>
     <g id="line2d_35">
      <g>
       <use style="stroke:#000000;stroke-width:0.5;" x="453.6" xlink:href="#mfc0a323334" y="352.8"/>
      </g>
     </g>
     <g id="line2d_36">
      <g>
       <use style="stroke:#000000;stroke-width:0.5;" x="453.6" xlink:href="#m7877271f88" y="7.2"/>
      </g>
     </g>
    </g>
    <g id="xtick_12"/>
    <g id="xtick_13">
     <g id="line2d_37">
      <defs>
       <path d="M 0 0 
L 0 -2 
" id="m4e256ad1e9" style="stroke:#000000;stroke-width:0.5;"/>
      </defs>
      <g>
       <use style="stroke:#000000;stroke-width:0.5;" x="51.753173483" xlink:href="#m4e256ad1e9" y="352.8"/>
      </g>
     </g>
     <g id="line2d_38">
      <defs>
       <path d="M 0 0 
L 0 2 
" id="mc46c56ade9" style="stroke:#000000;stroke-width:0.5;"/>
      </defs>
      <g>
       <use style="stroke:#000000;stroke-width:0.5;" x="51.753173483" xlink:href="#mc46c56ade9" y="7.2"/>
      </g>
     </g>
    </g>
    <g id="xtick_14">
     <g id="line2d_39">
      <g>
       <use style="stroke:#000000;stroke-width:0.5;" x="96.4028208737" xlink:href="#m4e256ad1e9" y="352.8"/>
      </g>
     </g>
     <g id="line2d_40">
      <g>
       <use style="stroke:#000000;stroke-width:0.5;" x="96.4028208737" xlink:href="#mc46c56ade9" y="7.2"/>
      </g>
     </g>
    </g>
    <g id="xtick_15">
     <g id="line2d_41">
      <g>
       <use style="stroke:#000000;stroke-width:0.5;" x="141.052468265" xlink:href="#m4e256ad1e9" y="352.8"/>
      </g>
     </g>
     <g id="line2d_42">
      <g>
       <use style="stroke:#000000;stroke-width:0.5;" x="141.052468265" xlink:href="#mc46c56ade9" y="7.2"/>
      </g>
     </g>
    </g>
    <g id="xtick_16">
     <g id="line2d_43">
      <g>
       <use style="stroke:#000000;stroke-width:0.5;" x="185.702115655" xlink:href="#m4e256ad1e9" y="352.8"/>
      </g>
     </g>
     <g id="line2d_44">
      <g>
       <use style="stroke:#000000;stroke-width:0.5;" x="185.702115655" xlink:href="#mc46c56ade9" y="7.2"/>
      </g>
     </g>
    </g>
    <g id="xtick_17">
     <g id="line2d_45">
      <g>
       <use style="stroke:#000000;stroke-width:0.5;" x="230.351763046" xlink:href="#m4e256ad1e9" y="352.8"/>
      </g>
     </g>
     <g id="line2d_46">
      <g>
       <use style="stroke:#000000;stroke-width:0.5;" x="230.351763046" xlink:href="#mc46c56ade9" y="7.2"/>
      </g>
     </g>
    </g>
    <g id="xtick_18">
     <g id="line2d_47">
      <g>
       <use style="stroke:#000000;stroke-width:0.5;" x="275.001410437" xlink:href="#m4e256ad1e9" y="352.8"/>
      </g>
     </g>
     <g id="line2d_48">
      <g>
       <use style="stroke:#000000;stroke-width:0.5;" x="275.001410437" xlink:href="#mc46c56ade9" y="7.2"/>
      </g>
     </g>
    </g>
    <g id="xtick_19">
     <g id="line2d_49">
      <g>
       <use style="stroke:#000000;stroke-width:0.5;" x="319.651057828" xlink:href="#m4e256ad1e9" y="352.8"/>
      </g>
     </g>
     <g id="line2d_50">
      <g>
       <use style="stroke:#000000;stroke-width:0.5;" x="319.651057828" xlink:href="#mc46c56ade9" y="7.2"/>
      </g>
     </g>
    </g>
    <g id="xtick_20">
     <g id="line2d_51">
      <g>
       <use style="stroke:#000000;stroke-width:0.5;" x="364.300705218" xlink:href="#m4e256ad1e9" y="352.8"/>
      </g>
     </g>
     <g id="line2d_52">
      <g>
       <use style="stroke:#000000;stroke-width:0.5;" x="364.300705218" xlink:href="#mc46c56ade9" y="7.2"/>
      </g>
     </g>
    </g>
    <g id="xtick_21">
     <g id="line2d_53">
      <g>
       <use style="stroke:#000000;stroke-width:0.5;" x="408.950352609" xlink:href="#m4e256ad1e9" y="352.8"/>
      </g>
     </g>
     <g id="line2d_54">
      <g>
       <use style="stroke:#000000;stroke-width:0.5;" x="408.950352609" xlink:href="#mc46c56ade9" y="7.2"/>
      </g>
     </g>
    </g>
    <g id="xtick_22">
     <g id="line2d_55">
      <g>
       <use style="stroke:#000000;stroke-width:0.5;" x="453.6" xlink:href="#m4e256ad1e9" y="352.8"/>
      </g>
     </g>
     <g id="line2d_56">
      <g>
       <use style="stroke:#000000;stroke-width:0.5;" x="453.6" xlink:href="#mc46c56ade9" y="7.2"/>
      </g>
     </g>
    </g>
    <g id="text_10">
     <!-- log10 of Df -->
     <defs>
      <path id="BitstreamVeraSans-Roman-20"/>
      <path d="M 30.609375 48.390625 
Q 23.390625 48.390625 19.1875 42.75 
Q 14.984375 37.109375 14.984375 27.296875 
Q 14.984375 17.484375 19.15625 11.84375 
Q 23.34375 6.203125 30.609375 6.203125 
Q 37.796875 6.203125 41.984375 11.859375 
Q 46.1875 17.53125 46.1875 27.296875 
Q 46.1875 37.015625 41.984375 42.703125 
Q 37.796875 48.390625 30.609375 48.390625 
M 30.609375 56 
Q 42.328125 56 49.015625 48.375 
Q 55.71875 40.765625 55.71875 27.296875 
Q 55.71875 13.875 49.015625 6.21875 
Q 42.328125 -1.421875 30.609375 -1.421875 
Q 18.84375 -1.421875 12.171875 6.21875 
Q 5.515625 13.875 5.515625 27.296875 
Q 5.515625 40.765625 12.171875 48.375 
Q 18.84375 56 30.609375 56 
" id="BitstreamVeraSans-Roman-6f"/>
      <path d="M 9.421875 75.984375 
L 18.40625 75.984375 
L 18.40625 0 
L 9.421875 0 
z
" id="BitstreamVeraSans-Roman-6c"/>
      <path d="M 19.671875 64.796875 
L 19.671875 8.109375 
L 31.59375 8.109375 
Q 46.6875 8.109375 53.6875 14.9375 
Q 60.6875 21.78125 60.6875 36.53125 
Q 60.6875 51.171875 53.6875 57.984375 
Q 46.6875 64.796875 31.59375 64.796875 
z
M 9.8125 72.90625 
L 30.078125 72.90625 
Q 51.265625 72.90625 61.171875 64.09375 
Q 71.09375 55.28125 71.09375 36.53125 
Q 71.09375 17.671875 61.125 8.828125 
Q 51.171875 0 30.078125 0 
L 9.8125 0 
z
" id="BitstreamVeraSans-Roman-44"/>
      <path d="M 45.40625 27.984375 
Q 45.40625 37.75 41.375 43.109375 
Q 37.359375 48.484375 30.078125 48.484375 
Q 22.859375 48.484375 18.828125 43.109375 
Q 14.796875 37.75 14.796875 27.984375 
Q 14.796875 18.265625 18.828125 12.890625 
Q 22.859375 7.515625 30.078125 7.515625 
Q 37.359375 7.515625 41.375 12.890625 
Q 45.40625 18.265625 45.40625 27.984375 
M 54.390625 6.78125 
Q 54.390625 -7.171875 48.1875 -13.984375 
Q 42 -20.796875 29.203125 -20.796875 
Q 24.46875 -20.796875 20.265625 -20.09375 
Q 16.0625 -19.390625 12.109375 -17.921875 
L 12.109375 -9.1875 
Q 16.0625 -11.328125 19.921875 -12.34375 
Q 23.78125 -13.375 27.78125 -13.375 
Q 36.625 -13.375 41.015625 -8.765625 
Q 45.40625 -4.15625 45.40625 5.171875 
L 45.40625 9.625 
Q 42.625 4.78125 38.28125 2.390625 
Q 33.9375 0 27.875 0 
Q 17.828125 0 11.671875 7.65625 
Q 5.515625 15.328125 5.515625 27.984375 
Q 5.515625 40.671875 11.671875 48.328125 
Q 17.828125 56 27.875 56 
Q 33.9375 56 38.28125 53.609375 
Q 42.625 51.21875 45.40625 46.390625 
L 45.40625 54.6875 
L 54.390625 54.6875 
z
" id="BitstreamVeraSans-Roman-67"/>
      <path d="M 37.109375 75.984375 
L 37.109375 68.5 
L 28.515625 68.5 
Q 23.6875 68.5 21.796875 66.546875 
Q 19.921875 64.59375 19.921875 59.515625 
L 19.921875 54.6875 
L 34.71875 54.6875 
L 34.71875 47.703125 
L 19.921875 47.703125 
L 19.921875 0 
L 10.890625 0 
L 10.890625 47.703125 
L 2.296875 47.703125 
L 2.296875 54.6875 
L 10.890625 54.6875 
L 10.890625 58.5 
Q 10.890625 67.625 15.140625 71.796875 
Q 19.390625 75.984375 28.609375 75.984375 
z
" id="BitstreamVeraSans-Roman-66"/>
     </defs>
     <g transform="translate(175.2140625 396.353125)scale(0.2 -0.2)">
      <use xlink:href="#BitstreamVeraSans-Roman-6c"/>
      <use x="27.783203125" xlink:href="#BitstreamVeraSans-Roman-6f"/>
      <use x="88.96484375" xlink:href="#BitstreamVeraSans-Roman-67"/>
      <use x="152.44140625" xlink:href="#BitstreamVeraSans-Roman-31"/>
      <use x="216.064453125" xlink:href="#BitstreamVeraSans-Roman-30"/>
      <use x="279.6875" xlink:href="#BitstreamVeraSans-Roman-20"/>
      <use x="311.474609375" xlink:href="#BitstreamVeraSans-Roman-6f"/>
      <use x="372.65625" xlink:href="#BitstreamVeraSans-Roman-66"/>
      <use x="407.861328125" xlink:href="#BitstreamVeraSans-Roman-20"/>
      <use x="439.6484375" xlink:href="#BitstreamVeraSans-Roman-44"/>
      <use x="516.650390625" xlink:href="#BitstreamVeraSans-Roman-66"/>
     </g>
    </g>
   </g>
   <g id="matplotlib.axis_2">
    <g id="ytick_1">
     <g id="line2d_57">
      <path clip-path="url(#pb49f36b365)" d="M 7.2 352.8 
L 453.6 352.8 
" style="fill:none;stroke:#000000;stroke-dasharray:1.000000,3.000000;stroke-dashoffset:0.0;stroke-width:0.5;"/>
     </g>
     <g id="line2d_58">
      <defs>
       <path d="M 0 0 
L 4 0 
" id="m7e5fdfe69e" style="stroke:#000000;stroke-width:0.5;"/>
      </defs>
      <g>
       <use style="stroke:#000000;stroke-width:0.5;" x="7.2" xlink:href="#m7e5fdfe69e" y="352.8"/>
      </g>
     </g>
     <g id="line2d_59">
      <defs>
       <path d="M 0 0 
L -4 0 
" id="m13c4aa28c2" style="stroke:#000000;stroke-width:0.5;"/>
      </defs>
      <g>
       <use style="stroke:#000000;stroke-width:0.5;" x="453.6" xlink:href="#m13c4aa28c2" y="352.8"/>
      </g>
     </g>
    </g>
    <g id="ytick_2">
     <g id="line2d_60">
      <path clip-path="url(#pb49f36b365)" d="M 7.2 284.364356 
L 453.6 284.364356 
" style="fill:none;stroke:#000000;stroke-dasharray:1.000000,3.000000;stroke-dashoffset:0.0;stroke-width:0.5;"/>
     </g>
     <g id="line2d_61">
      <g>
       <use style="stroke:#000000;stroke-width:0.5;" x="7.2" xlink:href="#m7e5fdfe69e" y="284.364356436"/>
      </g>
     </g>
     <g id="line2d_62">
      <g>
       <use style="stroke:#000000;stroke-width:0.5;" x="453.6" xlink:href="#m13c4aa28c2" y="284.364356436"/>
      </g>
     </g>
    </g>
    <g id="ytick_3">
     <g id="line2d_63">
      <path clip-path="url(#pb49f36b365)" d="M 7.2 215.928713 
L 453.6 215.928713 
" style="fill:none;stroke:#000000;stroke-dasharray:1.000000,3.000000;stroke-dashoffset:0.0;stroke-width:0.5;"/>
     </g>
     <g id="line2d_64">
      <g>
       <use style="stroke:#000000;stroke-width:0.5;" x="7.2" xlink:href="#m7e5fdfe69e" y="215.928712871"/>
      </g>
     </g>
     <g id="line2d_65">
      <g>
       <use style="stroke:#000000;stroke-width:0.5;" x="453.6" xlink:href="#m13c4aa28c2" y="215.928712871"/>
      </g>
     </g>
    </g>
    <g id="ytick_4">
     <g id="line2d_66">
      <path clip-path="url(#pb49f36b365)" d="M 7.2 147.493069 
L 453.6 147.493069 
" style="fill:none;stroke:#000000;stroke-dasharray:1.000000,3.000000;stroke-dashoffset:0.0;stroke-width:0.5;"/>
     </g>
     <g id="line2d_67">
      <g>
       <use style="stroke:#000000;stroke-width:0.5;" x="7.2" xlink:href="#m7e5fdfe69e" y="147.493069307"/>
      </g>
     </g>
     <g id="line2d_68">
      <g>
       <use style="stroke:#000000;stroke-width:0.5;" x="453.6" xlink:href="#m13c4aa28c2" y="147.493069307"/>
      </g>
     </g>
    </g>
    <g id="ytick_5">
     <g id="line2d_69">
      <path clip-path="url(#pb49f36b365)" d="M 7.2 79.057426 
L 453.6 79.057426 
" style="fill:none;stroke:#000000;stroke-dasharray:1.000000,3.000000;stroke-dashoffset:0.0;stroke-width:0.5;"/>
     </g>
     <g id="line2d_70">
      <g>
       <use style="stroke:#000000;stroke-width:0.5;" x="7.2" xlink:href="#m7e5fdfe69e" y="79.0574257426"/>
      </g>
     </g>
     <g id="line2d_71">
      <g>
       <use style="stroke:#000000;stroke-width:0.5;" x="453.6" xlink:href="#m13c4aa28c2" y="79.0574257426"/>
      </g>
     </g>
    </g>
    <g id="ytick_6">
     <g id="line2d_72">
      <path clip-path="url(#pb49f36b365)" d="M 7.2 10.621782 
L 453.6 10.621782 
" style="fill:none;stroke:#000000;stroke-dasharray:1.000000,3.000000;stroke-dashoffset:0.0;stroke-width:0.5;"/>
     </g>
     <g id="line2d_73">
      <g>
       <use style="stroke:#000000;stroke-width:0.5;" x="7.2" xlink:href="#m7e5fdfe69e" y="10.6217821782"/>
      </g>
     </g>
     <g id="line2d_74">
      <g>
       <use style="stroke:#000000;stroke-width:0.5;" x="453.6" xlink:href="#m13c4aa28c2" y="10.6217821782"/>
      </g>
     </g>
    </g>
   </g>
   <g id="text_11">
    <!-- {f1-f5}, 5-D -->
    <defs>
     <path d="M 12.5 -9.28125 
L 15.921875 -9.28125 
Q 22.75 -9.28125 24.828125 -7.171875 
Q 26.90625 -5.078125 26.90625 1.90625 
L 26.90625 14.015625 
Q 26.90625 21.625 29.09375 25.09375 
Q 31.296875 28.5625 36.71875 29.890625 
Q 31.296875 31.109375 29.09375 34.5625 
Q 26.90625 38.03125 26.90625 45.703125 
L 26.90625 57.8125 
Q 26.90625 64.75 24.828125 66.875 
Q 22.75 69 15.921875 69 
L 12.5 69 
L 12.5 75.984375 
L 15.578125 75.984375 
Q 27.734375 75.984375 31.8125 72.390625 
Q 35.890625 68.796875 35.890625 58.015625 
L 35.890625 46.296875 
Q 35.890625 39.015625 38.515625 36.203125 
Q 41.15625 33.40625 48.09375 33.40625 
L 51.125 33.40625 
L 51.125 26.421875 
L 48.09375 26.421875 
Q 41.15625 26.421875 38.515625 23.578125 
Q 35.890625 20.75 35.890625 13.375 
L 35.890625 1.703125 
Q 35.890625 -9.078125 31.8125 -12.6875 
Q 27.734375 -16.3125 15.578125 -16.3125 
L 12.5 -16.3125 
z
" id="BitstreamVeraSans-Roman-7d"/>
     <path d="M 51.125 -9.28125 
L 51.125 -16.3125 
L 48.09375 -16.3125 
Q 35.9375 -16.3125 31.8125 -12.6875 
Q 27.6875 -9.078125 27.6875 1.703125 
L 27.6875 13.375 
Q 27.6875 20.75 25.046875 23.578125 
Q 22.40625 26.421875 15.484375 26.421875 
L 12.5 26.421875 
L 12.5 33.40625 
L 15.484375 33.40625 
Q 22.46875 33.40625 25.078125 36.203125 
Q 27.6875 39.015625 27.6875 46.296875 
L 27.6875 58.015625 
Q 27.6875 68.796875 31.8125 72.390625 
Q 35.9375 75.984375 48.09375 75.984375 
L 51.125 75.984375 
L 51.125 69 
L 47.796875 69 
Q 40.921875 69 38.8125 66.84375 
Q 36.71875 64.703125 36.71875 57.8125 
L 36.71875 45.703125 
Q 36.71875 38.03125 34.5 34.5625 
Q 32.28125 31.109375 26.90625 29.890625 
Q 32.328125 28.5625 34.515625 25.09375 
Q 36.71875 21.625 36.71875 14.015625 
L 36.71875 1.90625 
Q 36.71875 -4.984375 38.8125 -7.125 
Q 40.921875 -9.28125 47.796875 -9.28125 
z
" id="BitstreamVeraSans-Roman-7b"/>
     <path d="M 11.71875 12.40625 
L 22.015625 12.40625 
L 22.015625 4 
L 14.015625 -11.625 
L 7.71875 -11.625 
L 11.71875 4 
z
" id="BitstreamVeraSans-Roman-2c"/>
     <path d="M 10.796875 72.90625 
L 49.515625 72.90625 
L 49.515625 64.59375 
L 19.828125 64.59375 
L 19.828125 46.734375 
Q 21.96875 47.46875 24.109375 47.828125 
Q 26.265625 48.1875 28.421875 48.1875 
Q 40.625 48.1875 47.75 41.5 
Q 54.890625 34.8125 54.890625 23.390625 
Q 54.890625 11.625 47.5625 5.09375 
Q 40.234375 -1.421875 26.90625 -1.421875 
Q 22.3125 -1.421875 17.546875 -0.640625 
Q 12.796875 0.140625 7.71875 1.703125 
L 7.71875 11.625 
Q 12.109375 9.234375 16.796875 8.0625 
Q 21.484375 6.890625 26.703125 6.890625 
Q 35.15625 6.890625 40.078125 11.328125 
Q 45.015625 15.765625 45.015625 23.390625 
Q 45.015625 31 40.078125 35.4375 
Q 35.15625 39.890625 26.703125 39.890625 
Q 22.75 39.890625 18.8125 39.015625 
Q 14.890625 38.140625 10.796875 36.28125 
z
" id="BitstreamVeraSans-Roman-35"/>
    </defs>
    <g transform="translate(324.422 345.888)scale(0.2 -0.2)">
     <use xlink:href="#BitstreamVeraSans-Roman-7b"/>
     <use x="63.623046875" xlink:href="#BitstreamVeraSans-Roman-66"/>
     <use x="98.828125" xlink:href="#BitstreamVeraSans-Roman-31"/>
     <use x="162.451171875" xlink:href="#BitstreamVeraSans-Roman-2d"/>
     <use x="198.53515625" xlink:href="#BitstreamVeraSans-Roman-66"/>
     <use x="233.740234375" xlink:href="#BitstreamVeraSans-Roman-35"/>
     <use x="297.36328125" xlink:href="#BitstreamVeraSans-Roman-7d"/>
     <use x="360.986328125" xlink:href="#BitstreamVeraSans-Roman-2c"/>
     <use x="392.7734375" xlink:href="#BitstreamVeraSans-Roman-20"/>
     <use x="424.560546875" xlink:href="#BitstreamVeraSans-Roman-35"/>
     <use x="488.18359375" xlink:href="#BitstreamVeraSans-Roman-2d"/>
     <use x="524.267578125" xlink:href="#BitstreamVeraSans-Roman-44"/>
    </g>
   </g>
   <g id="text_12">
    <!-- 0.0.0 -->
    <defs>
     <path d="M 10.6875 12.40625 
L 21 12.40625 
L 21 0 
L 10.6875 0 
z
" id="BitstreamVeraSans-Roman-2e"/>
    </defs>
    <g style="fill:#808080;" transform="translate(217.678125 347.2643125)scale(0.1 -0.1)">
     <use xlink:href="#BitstreamVeraSans-Roman-30"/>
     <use x="63.623046875" xlink:href="#BitstreamVeraSans-Roman-2e"/>
     <use x="95.41015625" xlink:href="#BitstreamVeraSans-Roman-30"/>
     <use x="159.033203125" xlink:href="#BitstreamVeraSans-Roman-2e"/>
     <use x="190.8203125" xlink:href="#BitstreamVeraSans-Roman-30"/>
    </g>
   </g>
  </g>
 </g>
 <defs>
  <clipPath id="pb49f36b365">
   <rect height="345.6" width="446.4" x="7.2" y="7.2"/>
  </clipPath>
 </defs>
</svg>
