<?xml version="1.0" encoding="utf-8" standalone="no"?>
<!DOCTYPE svg PUBLIC "-//W3C//DTD SVG 1.1//EN"
  "http://www.w3.org/Graphics/SVG/1.1/DTD/svg11.dtd">
<!-- Created with matplotlib (http://matplotlib.org/) -->
<svg height="407pt" version="1.1" viewBox="0 0 460 407" width="460pt" xmlns="http://www.w3.org/2000/svg" xmlns:xlink="http://www.w3.org/1999/xlink">
 <defs>
  <style type="text/css">
*{stroke-linecap:butt;stroke-linejoin:round;stroke-miterlimit:100000;}
  </style>
 </defs>
 <g id="figure_1">
  <g id="patch_1">
   <path d="M 0 407.7125 
L 460.8 407.7125 
L 460.8 0 
L 0 0 
z
" style="fill:#ffffff;"/>
  </g>
  <g id="axes_1">
   <g id="patch_2">
    <path d="M 7.2 352.8 
L 453.6 352.8 
L 453.6 7.2 
L 7.2 7.2 
z
" style="fill:#ffffff;"/>
   </g>
   <g id="line2d_1">
    <path clip-path="url(#pf7e543db63)" d="M 7.098447 352.8 
L 7.098447 348.237624 
L 7.098447 348.237624 
L 7.098447 348.237624 
L 7.098447 343.675248 
L 7.098447 343.675248 
L 7.098447 343.675248 
L 7.098447 339.112871 
L 7.098447 339.112871 
L 7.098447 339.112871 
L 7.098447 334.550495 
L 7.098447 334.550495 
L 7.098447 334.550495 
L 7.098447 329.988119 
L 7.098447 329.988119 
L 7.098447 329.988119 
L 7.098447 325.425743 
L 7.098447 325.425743 
L 7.098447 325.425743 
L 7.098447 320.863366 
L 7.098447 320.863366 
L 7.098447 320.863366 
L 7.098447 316.30099 
L 7.098447 316.30099 
L 7.098447 316.30099 
L 7.098447 311.738614 
L 7.098447 311.738614 
L 7.098447 311.738614 
L 7.098447 307.176238 
L 7.098447 307.176238 
L 7.098447 307.176238 
L 7.098447 302.613861 
L 7.098447 302.613861 
L 7.098447 302.613861 
L 7.098447 298.051485 
L 7.098447 298.051485 
L 7.098447 298.051485 
L 7.098447 293.489109 
L 7.098447 293.489109 
L 7.098447 293.489109 
L 7.098447 288.926733 
L 7.098447 288.926733 
L 7.098447 288.926733 
L 7.098447 284.364356 
L 7.098447 284.364356 
L 7.098447 284.364356 
L 7.098447 279.80198 
L 7.098447 279.80198 
L 7.098447 279.80198 
L 7.098447 275.239604 
L 7.098447 275.239604 
L 7.098447 275.239604 
L 7.098447 270.677228 
L 7.098447 270.677228 
L 7.098447 270.677228 
L 7.098447 266.114851 
L 7.098447 266.114851 
L 7.098447 266.114851 
L 7.098447 261.552475 
L 7.098447 261.552475 
L 7.098447 261.552475 
L 7.098447 256.990099 
L 7.098447 256.990099 
L 7.098447 256.990099 
L 7.098447 252.427723 
L 7.098447 252.427723 
L 7.098447 252.427723 
L 7.098447 247.865347 
L 7.098447 247.865347 
L 7.098447 247.865347 
L 7.098447 243.30297 
L 7.098447 243.30297 
L 7.098447 243.30297 
L 7.098447 238.740594 
L 7.098447 238.740594 
L 7.098447 238.740594 
L 7.098447 234.178218 
L 7.098447 234.178218 
L 7.098447 234.178218 
L 7.098447 229.615842 
L 7.098447 229.615842 
L 7.098447 229.615842 
L 7.098447 225.053465 
L 7.098447 225.053465 
L 7.098447 225.053465 
L 7.098447 220.491089 
L 7.098447 220.491089 
L 7.098447 220.491089 
L 7.098447 215.928713 
L 7.098447 215.928713 
L 7.098447 215.928713 
L 7.098447 211.366337 
L 7.098447 211.366337 
L 7.098447 211.366337 
L 7.098447 206.80396 
L 7.098447 206.80396 
L 7.098447 206.80396 
L 7.098447 202.241584 
L 7.098447 202.241584 
L 7.098447 202.241584 
L 7.098447 197.679208 
L 7.098447 197.679208 
L 7.098447 197.679208 
L 7.098447 193.116832 
L 7.098447 193.116832 
L 7.098447 193.116832 
L 7.098447 188.554455 
L 7.098447 188.554455 
L 7.098447 188.554455 
L 7.098447 183.992079 
L 7.098447 183.992079 
L 7.098447 183.992079 
L 7.098447 179.429703 
L 7.098447 179.429703 
L 7.098447 179.429703 
L 7.098447 174.867327 
L 7.098447 174.867327 
L 7.098447 174.867327 
L 7.098447 170.30495 
L 7.098447 170.30495 
L 7.098447 170.30495 
L 7.098447 165.742574 
L 7.098447 165.742574 
L 7.098447 165.742574 
L 7.098447 161.180198 
L 7.098447 161.180198 
L 7.098447 161.180198 
L 7.098447 156.617822 
L 7.098447 156.617822 
L 7.098447 156.617822 
L 7.098447 152.055446 
L 7.098447 152.055446 
L 7.098447 152.055446 
L 7.098447 147.493069 
L 190.077078 147.493069 
L 190.077078 142.930693 
L 195.047523 142.930693 
L 195.047523 129.243564 
L 201.852697 129.243564 
L 201.852697 124.681188 
L 202.121753 124.681188 
L 202.121753 120.118812 
L 202.928587 120.118812 
L 202.928587 115.556436 
L 203.042937 115.556436 
L 203.042937 110.994059 
L 204.003667 110.994059 
L 204.003667 106.431683 
L 206.259912 106.431683 
L 206.259912 79.057426 
L 209.195982 79.057426 
L 209.195982 69.932673 
L 211.343413 69.932673 
L 211.343413 65.370297 
L 211.473376 65.370297 
L 211.473376 60.807921 
L 211.850001 60.807921 
L 211.850001 56.245545 
L 213.801146 56.245545 
L 213.801146 51.683168 
L 214.907389 51.683168 
L 214.907389 42.558416 
L 216.235201 42.558416 
L 216.235201 37.99604 
L 217.447374 37.99604 
L 217.472289 24.308911 
L 218.547595 24.308911 
L 218.547595 19.746535 
L 221.225271 19.746535 
L 221.225271 15.184158 
L 221.951928 15.184158 
L 221.951928 10.621782 
L 221.951928 10.621782 
L 453.6 10.621782 
L 453.6 10.621782 
" style="fill:none;stroke:#ff0000;stroke-linecap:square;stroke-width:3.0;"/>
   </g>
   <g id="line2d_2">
    <path clip-path="url(#pf7e543db63)" d="M 224.628314 352.8 
L 224.628314 348.237624 
L 226.516867 348.237624 
L 226.516867 343.675248 
L 230.682966 343.675248 
L 230.682966 339.112871 
L 232.738061 339.112871 
L 232.771719 329.988119 
L 234.902583 329.988119 
L 234.902583 325.425743 
L 235.869746 325.425743 
L 235.869746 320.863366 
L 235.991713 320.863366 
L 235.991713 316.30099 
L 236.127992 316.30099 
L 236.127992 311.738614 
L 236.651843 311.738614 
L 236.656478 302.613861 
L 237.855434 302.613861 
L 237.89943 293.489109 
L 238.30081 293.489109 
L 238.344616 279.80198 
L 238.988877 279.80198 
L 238.988877 275.239604 
L 239.450563 275.239604 
L 239.450563 270.677228 
L 241.227281 270.677228 
L 241.227281 266.114851 
L 241.791314 266.114851 
L 241.79688 256.990099 
L 241.991398 256.990099 
L 241.991398 252.427723 
L 242.857079 252.427723 
L 242.857079 247.865347 
L 243.830747 247.865347 
L 243.830747 243.30297 
L 244.130429 243.30297 
L 244.130429 238.740594 
L 244.434558 238.740594 
L 244.526925 229.615842 
L 244.643321 229.615842 
L 244.643321 225.053465 
L 245.796799 225.053465 
L 245.796799 220.491089 
L 246.101745 220.491089 
L 246.125594 211.366337 
L 246.704198 211.366337 
L 246.704198 206.80396 
L 246.965108 206.80396 
L 246.965108 202.241584 
L 247.478896 202.241584 
L 247.478896 197.679208 
L 250.645167 197.679208 
L 250.645167 193.116832 
L 252.539609 193.116832 
L 252.539609 188.554455 
L 254.745482 188.554455 
L 254.745482 183.992079 
L 256.229916 183.992079 
L 256.229916 179.429703 
L 256.724807 179.429703 
L 256.724807 174.867327 
L 257.102446 174.867327 
L 257.102446 170.30495 
L 258.121088 170.30495 
L 258.121088 165.742574 
L 258.496931 165.742574 
L 258.496931 161.180198 
L 259.006416 161.180198 
L 259.006416 156.617822 
L 260.400764 156.617822 
L 260.400764 152.055446 
L 260.903836 152.055446 
L 260.903836 147.493069 
L 261.443413 147.493069 
L 261.443413 142.930693 
L 262.77544 142.930693 
L 262.77544 138.368317 
L 264.040348 138.368317 
L 264.040348 133.805941 
L 264.456062 133.805941 
L 264.456062 129.243564 
L 269.027851 129.243564 
L 269.027851 124.681188 
L 271.703417 124.681188 
L 271.703417 120.118812 
L 272.268522 120.118812 
L 272.268522 115.556436 
L 273.562798 115.556436 
L 273.562798 110.994059 
L 278.749933 110.994059 
L 278.749933 106.431683 
L 279.352819 106.431683 
L 279.352819 101.869307 
L 280.017855 101.869307 
L 280.017855 97.306931 
L 282.390709 97.306931 
L 282.390709 92.744554 
L 284.439003 92.744554 
L 284.439003 88.182178 
L 287.789986 88.182178 
L 287.789986 83.619802 
L 294.630148 83.619802 
L 294.630148 79.057426 
L 317.649867 79.057426 
L 317.649867 74.49505 
L 327.720567 74.49505 
L 327.720567 69.932673 
L 337.412043 69.932673 
L 337.412043 65.370297 
L 343.099271 65.370297 
L 343.099271 60.807921 
L 348.699648 60.807921 
L 348.699648 56.245545 
L 351.851505 56.245545 
L 351.851505 51.683168 
L 357.594856 51.683168 
L 357.594856 47.120792 
L 358.062391 47.120792 
L 358.062391 42.558416 
L 359.378725 42.558416 
L 359.378725 37.99604 
L 360.377542 37.99604 
L 360.377542 33.433663 
L 360.77961 33.433663 
L 360.77961 28.871287 
L 364.704158 28.871287 
L 364.704158 24.308911 
L 370.080333 24.308911 
L 370.080333 19.746535 
L 372.192145 19.746535 
L 372.192145 15.184158 
L 377.167914 15.184158 
L 377.167914 10.621782 
L 377.167914 10.621782 
L 453.6 10.621782 
L 453.6 10.621782 
" style="fill:none;stroke:#00bfbf;stroke-linecap:square;"/>
   </g>
   <g id="line2d_3">
    <path clip-path="url(#pf7e543db63)" d="M 224.628314 352.8 
L 224.628314 348.237624 
L 226.516867 348.237624 
L 226.516867 343.675248 
L 226.628814 343.675248 
L 226.628814 339.112871 
L 227.552544 339.112871 
L 227.552544 334.550495 
L 229.082365 334.550495 
L 229.082365 329.988119 
L 230.682966 329.988119 
L 230.682966 325.425743 
L 230.863544 325.425743 
L 230.863544 320.863366 
L 232.279447 320.863366 
L 232.279447 316.30099 
L 232.496427 316.30099 
L 232.496427 311.738614 
L 232.738061 311.738614 
L 232.771719 302.613861 
L 233.282871 302.613861 
L 233.282871 298.051485 
L 233.651846 298.051485 
L 233.756967 288.926733 
L 234.343156 288.926733 
L 234.343156 284.364356 
L 235.826189 284.364356 
L 235.869746 275.239604 
L 236.456937 275.239604 
L 236.456937 270.677228 
L 236.656478 270.677228 
L 236.689419 261.552475 
L 236.857337 261.552475 
L 236.857337 256.990099 
L 237.195584 256.990099 
L 237.195584 252.427723 
L 237.855434 252.427723 
L 237.855434 247.865347 
L 239.450563 247.865347 
L 239.450563 243.30297 
L 240.952825 243.30297 
L 241.028345 234.178218 
L 241.192344 234.178218 
L 241.192344 229.615842 
L 241.791314 229.615842 
L 241.79688 220.491089 
L 241.991398 220.491089 
L 241.991398 215.928713 
L 244.192774 215.928713 
L 244.192774 211.366337 
L 244.453308 211.366337 
L 244.453308 206.80396 
L 245.468069 206.80396 
L 245.468069 202.241584 
L 245.796799 202.241584 
L 245.796799 197.679208 
L 246.032804 197.679208 
L 246.032804 193.116832 
L 246.965108 193.116832 
L 246.965108 188.554455 
L 247.478896 188.554455 
L 247.478896 183.992079 
L 249.317335 183.992079 
L 249.317335 179.429703 
L 250.645167 179.429703 
L 250.645167 174.867327 
L 251.947328 174.867327 
L 251.997406 165.742574 
L 252.539609 165.742574 
L 252.539609 161.180198 
L 252.9431 161.180198 
L 252.9431 156.617822 
L 253.498796 156.617822 
L 253.498796 152.055446 
L 255.212613 152.055446 
L 255.212613 147.493069 
L 257.102446 147.493069 
L 257.102446 142.930693 
L 258.771958 142.930693 
L 258.771958 138.368317 
L 260.903836 138.368317 
L 260.903836 133.805941 
L 261.375877 133.805941 
L 261.443413 124.681188 
L 262.104906 124.681188 
L 262.104906 120.118812 
L 262.425093 120.118812 
L 262.425093 115.556436 
L 262.77544 115.556436 
L 262.86683 106.431683 
L 264.456062 106.431683 
L 264.456062 101.869307 
L 268.581443 101.869307 
L 268.581443 97.306931 
L 268.78386 97.306931 
L 268.78386 92.744554 
L 270.165483 92.744554 
L 270.165483 88.182178 
L 272.268522 88.182178 
L 272.268522 83.619802 
L 284.439003 83.619802 
L 284.439003 79.057426 
L 315.952406 79.057426 
L 315.952406 74.49505 
L 317.649867 74.49505 
L 317.649867 69.932673 
L 323.386986 69.932673 
L 323.386986 65.370297 
L 323.902682 65.370297 
L 323.902682 60.807921 
L 327.720567 60.807921 
L 327.720567 56.245545 
L 330.152454 56.245545 
L 330.152454 51.683168 
L 330.656612 51.683168 
L 330.656612 47.120792 
L 331.893034 47.120792 
L 331.893034 42.558416 
L 336.459908 42.558416 
L 336.459908 37.99604 
L 337.412043 37.99604 
L 337.412043 33.433663 
L 343.771111 33.433663 
L 343.771111 28.871287 
L 347.017502 28.871287 
L 347.017502 24.308911 
L 351.851505 24.308911 
L 351.851505 19.746535 
L 358.399091 19.746535 
L 358.399091 15.184158 
L 371.355828 15.184158 
L 371.355828 10.621782 
L 371.355828 10.621782 
L 453.6 10.621782 
L 453.6 10.621782 
" style="fill:none;stroke:#bf00bf;stroke-linecap:square;"/>
   </g>
   <g id="line2d_4">
    <path clip-path="url(#pf7e543db63)" d="M 217.22151 352.8 
L 217.22151 348.237624 
L 219.329193 348.237624 
L 219.329193 343.675248 
L 221.339945 343.675248 
L 221.339945 339.112871 
L 223.329859 339.112871 
L 223.329859 334.550495 
L 224.496556 334.550495 
L 224.496556 329.988119 
L 224.628314 329.988119 
L 224.628314 325.425743 
L 226.628814 325.425743 
L 226.628814 320.863366 
L 227.20479 320.863366 
L 227.20479 316.30099 
L 227.65378 316.30099 
L 227.65378 311.738614 
L 229.082365 311.738614 
L 229.082365 307.176238 
L 229.303865 307.176238 
L 229.303865 302.613861 
L 230.826821 302.613861 
L 230.826821 298.051485 
L 231.189167 298.051485 
L 231.189167 293.489109 
L 232.202644 293.489109 
L 232.279447 284.364356 
L 232.771719 284.364356 
L 232.771719 279.80198 
L 233.651846 279.80198 
L 233.756967 270.677228 
L 234.343156 270.677228 
L 234.37804 261.552475 
L 235.080294 261.552475 
L 235.080294 256.990099 
L 235.826189 256.990099 
L 235.826189 252.427723 
L 236.689419 252.427723 
L 236.689419 247.865347 
L 237.195584 247.865347 
L 237.195584 243.30297 
L 237.372008 243.30297 
L 237.372008 238.740594 
L 237.855434 238.740594 
L 237.855434 234.178218 
L 238.676967 234.178218 
L 238.676967 229.615842 
L 240.236161 229.615842 
L 240.236161 225.053465 
L 240.891024 225.053465 
L 240.891024 220.491089 
L 241.240423 220.491089 
L 241.318385 211.366337 
L 241.532432 211.366337 
L 241.532432 206.80396 
L 241.791314 206.80396 
L 241.791314 202.241584 
L 244.192774 202.241584 
L 244.288684 193.116832 
L 244.624005 193.116832 
L 244.624005 188.554455 
L 245.468069 188.554455 
L 245.468069 183.992079 
L 246.032804 183.992079 
L 246.032804 179.429703 
L 246.807268 179.429703 
L 246.807268 174.867327 
L 246.952574 174.867327 
L 246.965108 165.742574 
L 247.713339 165.742574 
L 247.713339 161.180198 
L 248.278025 161.180198 
L 248.278025 156.617822 
L 249.291635 156.617822 
L 249.291635 152.055446 
L 250.574129 152.055446 
L 250.645167 142.930693 
L 251.947328 142.930693 
L 251.997406 133.805941 
L 252.539609 133.805941 
L 252.640373 124.681188 
L 253.865352 124.681188 
L 253.865352 120.118812 
L 254.395705 120.118812 
L 254.395705 115.556436 
L 255.825432 115.556436 
L 255.825432 110.994059 
L 256.090466 110.994059 
L 256.090466 106.431683 
L 258.771958 106.431683 
L 258.771958 101.869307 
L 260.500744 101.869307 
L 260.500744 97.306931 
L 262.86683 97.306931 
L 262.86683 92.744554 
L 264.456062 92.744554 
L 264.456062 88.182178 
L 268.78386 88.182178 
L 268.78386 83.619802 
L 281.249283 83.619802 
L 281.249283 79.057426 
L 312.672972 79.057426 
L 312.672972 74.49505 
L 314.784435 74.49505 
L 314.784435 69.932673 
L 315.952406 69.932673 
L 315.952406 65.370297 
L 317.649867 65.370297 
L 317.649867 60.807921 
L 320.425154 60.807921 
L 320.425154 56.245545 
L 323.386986 56.245545 
L 323.386986 51.683168 
L 323.52665 51.683168 
L 323.52665 47.120792 
L 327.720567 47.120792 
L 327.720567 42.558416 
L 329.611709 42.558416 
L 329.611709 37.99604 
L 331.893034 37.99604 
L 331.893034 33.433663 
L 337.412043 33.433663 
L 337.412043 28.871287 
L 341.483862 28.871287 
L 341.483862 24.308911 
L 351.851505 24.308911 
L 351.851505 19.746535 
L 353.040201 19.746535 
L 353.040201 15.184158 
L 358.427056 15.184158 
L 358.427056 10.621782 
L 358.427056 10.621782 
L 453.6 10.621782 
L 453.6 10.621782 
" style="fill:none;stroke:#000000;stroke-linecap:square;"/>
   </g>
   <g id="line2d_5">
    <path clip-path="url(#pf7e543db63)" d="M 7.098447 352.8 
L 7.098447 348.237624 
L 203.312918 348.237624 
L 203.312918 343.675248 
L 205.041897 343.675248 
L 205.041897 339.112871 
L 210.315375 339.112871 
L 210.315375 334.550495 
L 212.42008 334.550495 
L 212.42008 329.988119 
L 213.779861 329.988119 
L 213.779861 325.425743 
L 214.093233 325.425743 
L 214.093233 320.863366 
L 214.419998 320.863366 
L 214.419998 316.30099 
L 214.943195 316.30099 
L 214.943195 311.738614 
L 215.539528 311.738614 
L 215.60306 298.051485 
L 216.767392 298.051485 
L 216.767392 293.489109 
L 222.500487 293.489109 
L 222.500487 288.926733 
L 223.329859 288.926733 
L 223.329859 284.364356 
L 224.933678 284.364356 
L 224.933678 279.80198 
L 226.414539 279.80198 
L 226.414539 275.239604 
L 227.358124 275.239604 
L 227.358124 270.677228 
L 228.119192 270.677228 
L 228.119192 266.114851 
L 228.603491 266.114851 
L 228.603491 261.552475 
L 228.750176 261.552475 
L 228.750176 256.990099 
L 229.066227 256.990099 
L 229.115212 247.865347 
L 229.955355 247.865347 
L 229.955355 243.30297 
L 230.544643 243.30297 
L 230.544643 238.740594 
L 231.43679 238.740594 
L 231.43679 234.178218 
L 232.320765 234.178218 
L 232.320765 229.615842 
L 232.899421 229.615842 
L 232.899421 225.053465 
L 233.076709 225.053465 
L 233.076709 220.491089 
L 233.319391 220.491089 
L 233.319391 215.928713 
L 234.812308 215.928713 
L 234.812308 211.366337 
L 236.103958 211.366337 
L 236.103958 206.80396 
L 237.370386 206.80396 
L 237.422926 197.679208 
L 240.739921 197.679208 
L 240.739921 193.116832 
L 240.890945 193.116832 
L 240.891024 183.992079 
L 242.081822 183.992079 
L 242.081822 179.429703 
L 243.222209 179.429703 
L 243.222209 174.867327 
L 243.337376 174.867327 
L 243.361594 165.742574 
L 243.979958 165.742574 
L 244.064118 156.617822 
L 244.288684 156.617822 
L 244.349282 147.493069 
L 244.596176 147.493069 
L 244.624005 138.368317 
L 245.312682 138.368317 
L 245.312682 133.805941 
L 245.698549 133.805941 
L 245.760871 124.681188 
L 247.97791 124.681188 
L 247.97791 120.118812 
L 248.430745 120.118812 
L 248.430745 115.556436 
L 248.596283 115.556436 
L 248.596283 110.994059 
L 249.621923 110.994059 
L 249.621923 106.431683 
L 250.250734 106.431683 
L 250.250734 101.869307 
L 250.574129 101.869307 
L 250.574129 97.306931 
L 253.551414 97.306931 
L 253.551414 92.744554 
L 254.367205 92.744554 
L 254.367205 88.182178 
L 255.064446 88.182178 
L 255.064446 83.619802 
L 257.966916 83.619802 
L 257.966916 79.057426 
L 299.050877 79.057426 
L 299.050877 74.49505 
L 304.043266 74.49505 
L 304.043266 69.932673 
L 309.182811 69.932673 
L 309.182811 65.370297 
L 309.318292 65.370297 
L 309.318292 60.807921 
L 309.918109 60.807921 
L 309.918109 56.245545 
L 311.489483 56.245545 
L 311.489483 51.683168 
L 312.020136 51.683168 
L 312.020136 47.120792 
L 312.965861 47.120792 
L 312.965861 42.558416 
L 314.784435 42.558416 
L 314.784435 37.99604 
L 323.386986 37.99604 
L 323.386986 33.433663 
L 324.604652 33.433663 
L 324.604652 28.871287 
L 331.893034 28.871287 
L 331.893034 24.308911 
L 334.746662 24.308911 
L 334.746662 19.746535 
L 338.190495 19.746535 
L 338.190495 15.184158 
L 347.39799 15.184158 
L 347.39799 10.621782 
L 347.39799 10.621782 
L 453.6 10.621782 
L 453.6 10.621782 
" style="fill:none;stroke:#00bfbf;stroke-linecap:square;"/>
   </g>
   <g id="line2d_6">
    <path clip-path="url(#pf7e543db63)" d="M 7.098447 352.8 
L 7.098447 348.237624 
L 7.098447 348.237624 
L 7.098447 348.237624 
L 7.098447 343.675248 
L 7.098447 343.675248 
L 7.098447 343.675248 
L 7.098447 339.112871 
L 7.098447 339.112871 
L 7.098447 339.112871 
L 7.098447 334.550495 
L 7.098447 334.550495 
L 7.098447 334.550495 
L 7.098447 329.988119 
L 7.098447 329.988119 
L 7.098447 329.988119 
L 7.098447 325.425743 
L 7.098447 325.425743 
L 7.098447 325.425743 
L 7.098447 320.863366 
L 7.098447 320.863366 
L 7.098447 320.863366 
L 7.098447 316.30099 
L 7.098447 316.30099 
L 7.098447 316.30099 
L 7.098447 311.738614 
L 7.098447 311.738614 
L 7.098447 311.738614 
L 7.098447 307.176238 
L 7.098447 307.176238 
L 7.098447 307.176238 
L 7.098447 302.613861 
L 7.098447 302.613861 
L 7.098447 302.613861 
L 7.098447 298.051485 
L 7.098447 298.051485 
L 7.098447 298.051485 
L 7.098447 293.489109 
L 7.098447 293.489109 
L 7.098447 293.489109 
L 7.098447 288.926733 
L 7.098447 288.926733 
L 7.098447 288.926733 
L 7.098447 284.364356 
L 116.995147 284.364356 
L 116.995147 279.80198 
L 124.955177 279.80198 
L 124.955177 275.239604 
L 131.774117 275.239604 
L 131.774117 270.677228 
L 132.74945 270.677228 
L 132.74945 266.114851 
L 133.435461 266.114851 
L 133.435461 261.552475 
L 134.567691 261.552475 
L 134.567691 256.990099 
L 135.425517 256.990099 
L 135.425517 252.427723 
L 136.111104 252.427723 
L 136.111104 247.865347 
L 140.07452 247.865347 
L 140.07452 243.30297 
L 144.209834 243.30297 
L 144.209834 238.740594 
L 149.365537 238.740594 
L 149.365537 234.178218 
L 159.094664 234.178218 
L 159.094664 229.615842 
L 165.058714 229.615842 
L 165.058714 225.053465 
L 167.060018 225.053465 
L 167.060018 220.491089 
L 167.981478 220.491089 
L 167.981478 215.928713 
L 220.510739 215.928713 
L 220.510739 211.366337 
L 220.714868 211.366337 
L 220.766626 202.241584 
L 221.191119 202.241584 
L 221.191119 197.679208 
L 222.358318 197.679208 
L 222.358318 193.116832 
L 223.082283 193.116832 
L 223.082283 188.554455 
L 223.59214 188.554455 
L 223.59214 183.992079 
L 224.486561 183.992079 
L 224.486561 179.429703 
L 224.874584 179.429703 
L 224.874584 174.867327 
L 225.429859 174.867327 
L 225.524567 165.742574 
L 226.175118 165.742574 
L 226.175118 161.180198 
L 226.628486 161.180198 
L 226.649248 152.055446 
L 226.761911 152.055446 
L 226.864016 138.368317 
L 227.12873 138.368317 
L 227.12873 133.805941 
L 227.670359 133.805941 
L 227.670359 129.243564 
L 228.207458 129.243564 
L 228.271814 120.118812 
L 228.471025 120.118812 
L 228.574708 110.994059 
L 229.430551 110.994059 
L 229.430551 106.431683 
L 230.319988 106.431683 
L 230.319988 101.869307 
L 230.478658 101.869307 
L 230.478658 97.306931 
L 230.693813 97.306931 
L 230.693813 92.744554 
L 231.176469 92.744554 
L 231.176469 88.182178 
L 231.58295 88.182178 
L 231.666142 79.057426 
L 231.826368 79.057426 
L 231.852377 69.932673 
L 233.505344 69.932673 
L 233.505344 65.370297 
L 234.134964 65.370297 
L 234.134964 60.807921 
L 236.928666 60.807921 
L 236.928666 56.245545 
L 240.966342 56.245545 
L 240.966342 51.683168 
L 247.910954 51.683168 
L 247.910954 47.120792 
L 249.597168 47.120792 
L 249.597168 42.558416 
L 250.876206 42.558416 
L 250.876206 37.99604 
L 252.653771 37.99604 
L 252.653771 33.433663 
L 254.052278 33.433663 
L 254.052278 28.871287 
L 254.596685 28.871287 
L 254.596685 24.308911 
L 255.236301 24.308911 
L 255.236301 19.746535 
L 269.978137 19.746535 
L 269.978137 15.184158 
L 273.230094 15.184158 
L 273.230094 10.621782 
L 273.230094 10.621782 
L 453.6 10.621782 
L 453.6 10.621782 
" style="fill:none;stroke:#bf00bf;stroke-linecap:square;"/>
   </g>
   <g id="line2d_7">
    <path clip-path="url(#pf7e543db63)" d="M 7.098447 352.8 
L 7.098447 348.237624 
L 7.098447 348.237624 
L 7.098447 348.237624 
L 7.098447 343.675248 
L 7.098447 343.675248 
L 7.098447 343.675248 
L 7.098447 339.112871 
L 7.098447 339.112871 
L 7.098447 339.112871 
L 7.098447 334.550495 
L 7.098447 334.550495 
L 7.098447 334.550495 
L 7.098447 329.988119 
L 7.098447 329.988119 
L 7.098447 329.988119 
L 7.098447 325.425743 
L 7.098447 325.425743 
L 7.098447 325.425743 
L 7.098447 320.863366 
L 7.098447 320.863366 
L 7.098447 320.863366 
L 7.098447 316.30099 
L 7.098447 316.30099 
L 7.098447 316.30099 
L 7.098447 311.738614 
L 7.098447 311.738614 
L 7.098447 311.738614 
L 7.098447 307.176238 
L 7.098447 307.176238 
L 7.098447 307.176238 
L 7.098447 302.613861 
L 7.098447 302.613861 
L 7.098447 302.613861 
L 7.098447 298.051485 
L 7.098447 298.051485 
L 7.098447 298.051485 
L 7.098447 293.489109 
L 7.098447 293.489109 
L 7.098447 293.489109 
L 7.098447 288.926733 
L 7.098447 288.926733 
L 7.098447 288.926733 
L 7.098447 284.364356 
L 7.098447 284.364356 
L 7.098447 284.364356 
L 7.098447 279.80198 
L 7.098447 279.80198 
L 7.098447 279.80198 
L 7.098447 275.239604 
L 7.098447 275.239604 
L 7.098447 275.239604 
L 7.098447 270.677228 
L 7.098447 270.677228 
L 7.098447 270.677228 
L 7.098447 266.114851 
L 7.098447 266.114851 
L 7.098447 266.114851 
L 7.098447 261.552475 
L 7.098447 261.552475 
L 7.098447 261.552475 
L 7.098447 256.990099 
L 7.098447 256.990099 
L 7.098447 256.990099 
L 7.098447 252.427723 
L 7.098447 252.427723 
L 7.098447 252.427723 
L 7.098447 247.865347 
L 7.098447 247.865347 
L 7.098447 247.865347 
L 7.098447 243.30297 
L 7.098447 243.30297 
L 7.098447 243.30297 
L 7.098447 238.740594 
L 7.098447 238.740594 
L 7.098447 238.740594 
L 7.098447 234.178218 
L 7.098447 234.178218 
L 7.098447 234.178218 
L 7.098447 229.615842 
L 7.098447 229.615842 
L 7.098447 229.615842 
L 7.098447 225.053465 
L 7.098447 225.053465 
L 7.098447 225.053465 
L 7.098447 220.491089 
L 7.098447 220.491089 
L 7.098447 220.491089 
L 7.098447 215.928713 
L 7.098447 215.928713 
L 7.098447 215.928713 
L 7.098447 211.366337 
L 7.098447 211.366337 
L 7.098447 211.366337 
L 7.098447 206.80396 
L 7.098447 206.80396 
L 7.098447 206.80396 
L 7.098447 202.241584 
L 7.098447 202.241584 
L 7.098447 202.241584 
L 7.098447 197.679208 
L 7.098447 197.679208 
L 7.098447 197.679208 
L 7.098447 193.116832 
L 7.098447 193.116832 
L 7.098447 193.116832 
L 7.098447 188.554455 
L 7.098447 188.554455 
L 7.098447 188.554455 
L 7.098447 183.992079 
L 7.098447 183.992079 
L 7.098447 183.992079 
L 7.098447 179.429703 
L 7.098447 179.429703 
L 7.098447 179.429703 
L 7.098447 174.867327 
L 7.098447 174.867327 
L 7.098447 174.867327 
L 7.098447 170.30495 
L 7.098447 170.30495 
L 7.098447 170.30495 
L 7.098447 165.742574 
L 7.098447 165.742574 
L 7.098447 165.742574 
L 7.098447 161.180198 
L 7.098447 161.180198 
L 7.098447 161.180198 
L 7.098447 156.617822 
L 7.098447 156.617822 
L 7.098447 156.617822 
L 7.098447 152.055446 
L 7.098447 152.055446 
L 7.098447 152.055446 
L 7.098447 147.493069 
L 195.047523 147.493069 
L 195.047523 142.930693 
L 201.852697 142.930693 
L 201.852697 138.368317 
L 202.121753 138.368317 
L 202.121753 133.805941 
L 202.928587 133.805941 
L 202.928587 129.243564 
L 203.042937 129.243564 
L 203.109367 120.118812 
L 204.003667 120.118812 
L 204.003667 115.556436 
L 206.259912 115.556436 
L 206.259912 101.869307 
L 209.195982 101.869307 
L 209.196193 92.744554 
L 210.380708 92.744554 
L 210.380708 88.182178 
L 210.628652 88.182178 
L 210.628652 83.619802 
L 211.343413 83.619802 
L 211.343413 79.057426 
L 211.473376 79.057426 
L 211.473376 74.49505 
L 211.759876 74.49505 
L 211.850001 65.370297 
L 213.154945 65.370297 
L 213.154945 60.807921 
L 213.778776 60.807921 
L 213.801146 51.683168 
L 214.907389 51.683168 
L 214.907389 42.558416 
L 216.235201 42.558416 
L 216.235201 37.99604 
L 217.447374 37.99604 
L 217.472289 24.308911 
L 218.547595 24.308911 
L 218.547595 19.746535 
L 221.225271 19.746535 
L 221.225271 15.184158 
L 221.951928 15.184158 
L 221.951928 10.621782 
L 221.951928 10.621782 
L 453.6 10.621782 
L 453.6 10.621782 
" style="fill:none;stroke:#000000;stroke-linecap:square;"/>
   </g>
   <g id="line2d_8">
    <path clip-path="url(#pf7e543db63)" d="M 7.098447 352.8 
L 7.098447 348.237624 
L 7.098447 348.237624 
L 7.098447 348.237624 
L 7.098447 343.675248 
L 7.098447 343.675248 
L 7.098447 343.675248 
L 7.098447 339.112871 
L 7.098447 339.112871 
L 7.098447 339.112871 
L 7.098447 334.550495 
L 7.098447 334.550495 
L 7.098447 334.550495 
L 7.098447 329.988119 
L 7.098447 329.988119 
L 7.098447 329.988119 
L 7.098447 325.425743 
L 7.098447 325.425743 
L 7.098447 325.425743 
L 7.098447 320.863366 
L 7.098447 320.863366 
L 7.098447 320.863366 
L 7.098447 316.30099 
L 7.098447 316.30099 
L 7.098447 316.30099 
L 7.098447 311.738614 
L 7.098447 311.738614 
L 7.098447 311.738614 
L 7.098447 307.176238 
L 7.098447 307.176238 
L 7.098447 307.176238 
L 7.098447 302.613861 
L 7.098447 302.613861 
L 7.098447 302.613861 
L 7.098447 298.051485 
L 7.098447 298.051485 
L 7.098447 298.051485 
L 7.098447 293.489109 
L 7.098447 293.489109 
L 7.098447 293.489109 
L 7.098447 288.926733 
L 7.098447 288.926733 
L 7.098447 288.926733 
L 7.098447 284.364356 
L 7.098447 284.364356 
L 7.098447 284.364356 
L 7.098447 279.80198 
L 7.098447 279.80198 
L 7.098447 279.80198 
L 7.098447 275.239604 
L 7.098447 275.239604 
L 7.098447 275.239604 
L 7.098447 270.677228 
L 7.098447 270.677228 
L 7.098447 270.677228 
L 7.098447 266.114851 
L 7.098447 266.114851 
L 7.098447 266.114851 
L 7.098447 261.552475 
L 7.098447 261.552475 
L 7.098447 261.552475 
L 7.098447 256.990099 
L 7.098447 256.990099 
L 7.098447 256.990099 
L 7.098447 252.427723 
L 7.098447 252.427723 
L 7.098447 252.427723 
L 7.098447 247.865347 
L 7.098447 247.865347 
L 7.098447 247.865347 
L 7.098447 243.30297 
L 7.098447 243.30297 
L 7.098447 243.30297 
L 7.098447 238.740594 
L 7.098447 238.740594 
L 7.098447 238.740594 
L 7.098447 234.178218 
L 7.098447 234.178218 
L 7.098447 234.178218 
L 7.098447 229.615842 
L 7.098447 229.615842 
L 7.098447 229.615842 
L 7.098447 225.053465 
L 7.098447 225.053465 
L 7.098447 225.053465 
L 7.098447 220.491089 
L 7.098447 220.491089 
L 7.098447 220.491089 
L 7.098447 215.928713 
L 7.098447 215.928713 
L 7.098447 215.928713 
L 7.098447 211.366337 
L 7.098447 211.366337 
L 7.098447 211.366337 
L 7.098447 206.80396 
L 7.098447 206.80396 
L 7.098447 206.80396 
L 7.098447 202.241584 
L 7.098447 202.241584 
L 7.098447 202.241584 
L 7.098447 197.679208 
L 7.098447 197.679208 
L 7.098447 197.679208 
L 7.098447 193.116832 
L 7.098447 193.116832 
L 7.098447 193.116832 
L 7.098447 188.554455 
L 7.098447 188.554455 
L 7.098447 188.554455 
L 7.098447 183.992079 
L 7.098447 183.992079 
L 7.098447 183.992079 
L 7.098447 179.429703 
L 7.098447 179.429703 
L 7.098447 179.429703 
L 7.098447 174.867327 
L 7.098447 174.867327 
L 7.098447 174.867327 
L 7.098447 170.30495 
L 7.098447 170.30495 
L 7.098447 170.30495 
L 7.098447 165.742574 
L 7.098447 165.742574 
L 7.098447 165.742574 
L 7.098447 161.180198 
L 7.098447 161.180198 
L 7.098447 161.180198 
L 7.098447 156.617822 
L 7.098447 156.617822 
L 7.098447 156.617822 
L 7.098447 152.055446 
L 7.098447 152.055446 
L 7.098447 152.055446 
L 7.098447 147.493069 
L 190.077078 147.493069 
L 190.077078 142.930693 
L 195.047523 142.930693 
L 195.047523 129.243564 
L 201.852697 129.243564 
L 201.852697 124.681188 
L 202.121753 124.681188 
L 202.121753 120.118812 
L 202.928587 120.118812 
L 202.928587 115.556436 
L 203.042937 115.556436 
L 203.042937 110.994059 
L 204.003667 110.994059 
L 204.003667 106.431683 
L 206.259912 106.431683 
L 206.259912 79.057426 
L 209.195982 79.057426 
L 209.195982 69.932673 
L 211.343413 69.932673 
L 211.343413 65.370297 
L 211.473376 65.370297 
L 211.473376 60.807921 
L 211.850001 60.807921 
L 211.850001 56.245545 
L 213.801146 56.245545 
L 213.801146 51.683168 
L 214.907389 51.683168 
L 214.907389 42.558416 
L 216.235201 42.558416 
L 216.235201 37.99604 
L 217.447374 37.99604 
L 217.472289 24.308911 
L 218.547595 24.308911 
L 218.547595 19.746535 
L 221.225271 19.746535 
L 221.225271 15.184158 
L 221.951928 15.184158 
L 221.951928 10.621782 
L 221.951928 10.621782 
L 453.6 10.621782 
L 453.6 10.621782 
" style="fill:none;stroke:#00bfbf;stroke-linecap:square;"/>
   </g>
   <g id="line2d_9">
    <path clip-path="url(#pf7e543db63)" d="M 7.098447 352.8 
L 7.098447 348.237624 
L 7.098447 348.237624 
L 7.098447 348.237624 
L 7.098447 343.675248 
L 7.098447 343.675248 
L 7.098447 343.675248 
L 7.098447 339.112871 
L 7.098447 339.112871 
L 7.098447 339.112871 
L 7.098447 334.550495 
L 7.098447 334.550495 
L 7.098447 334.550495 
L 7.098447 329.988119 
L 7.098447 329.988119 
L 7.098447 329.988119 
L 7.098447 325.425743 
L 7.098447 325.425743 
L 7.098447 325.425743 
L 7.098447 320.863366 
L 7.098447 320.863366 
L 7.098447 320.863366 
L 7.098447 316.30099 
L 7.098447 316.30099 
L 7.098447 316.30099 
L 7.098447 311.738614 
L 7.098447 311.738614 
L 7.098447 311.738614 
L 7.098447 307.176238 
L 7.098447 307.176238 
L 7.098447 307.176238 
L 7.098447 302.613861 
L 7.098447 302.613861 
L 7.098447 302.613861 
L 7.098447 298.051485 
L 7.098447 298.051485 
L 7.098447 298.051485 
L 7.098447 293.489109 
L 7.098447 293.489109 
L 7.098447 293.489109 
L 7.098447 288.926733 
L 7.098447 288.926733 
L 7.098447 288.926733 
L 7.098447 284.364356 
L 7.098447 284.364356 
L 7.098447 284.364356 
L 7.098447 279.80198 
L 7.098447 279.80198 
L 7.098447 279.80198 
L 7.098447 275.239604 
L 7.098447 275.239604 
L 7.098447 275.239604 
L 7.098447 270.677228 
L 7.098447 270.677228 
L 7.098447 270.677228 
L 7.098447 266.114851 
L 7.098447 266.114851 
L 7.098447 266.114851 
L 7.098447 261.552475 
L 7.098447 261.552475 
L 7.098447 261.552475 
L 7.098447 256.990099 
L 7.098447 256.990099 
L 7.098447 256.990099 
L 7.098447 252.427723 
L 7.098447 252.427723 
L 7.098447 252.427723 
L 7.098447 247.865347 
L 7.098447 247.865347 
L 7.098447 247.865347 
L 7.098447 243.30297 
L 7.098447 243.30297 
L 7.098447 243.30297 
L 7.098447 238.740594 
L 7.098447 238.740594 
L 7.098447 238.740594 
L 7.098447 234.178218 
L 7.098447 234.178218 
L 7.098447 234.178218 
L 7.098447 229.615842 
L 7.098447 229.615842 
L 7.098447 229.615842 
L 7.098447 225.053465 
L 7.098447 225.053465 
L 7.098447 225.053465 
L 7.098447 220.491089 
L 7.098447 220.491089 
L 7.098447 220.491089 
L 7.098447 215.928713 
L 7.098447 215.928713 
L 7.098447 215.928713 
L 7.098447 211.366337 
L 7.098447 211.366337 
L 7.098447 211.366337 
L 7.098447 206.80396 
L 7.098447 206.80396 
L 7.098447 206.80396 
L 7.098447 202.241584 
L 7.098447 202.241584 
L 7.098447 202.241584 
L 7.098447 197.679208 
L 7.098447 197.679208 
L 7.098447 197.679208 
L 7.098447 193.116832 
L 7.098447 193.116832 
L 7.098447 193.116832 
L 7.098447 188.554455 
L 7.098447 188.554455 
L 7.098447 188.554455 
L 7.098447 183.992079 
L 7.098447 183.992079 
L 7.098447 183.992079 
L 7.098447 179.429703 
L 7.098447 179.429703 
L 7.098447 179.429703 
L 7.098447 174.867327 
L 7.098447 174.867327 
L 7.098447 174.867327 
L 7.098447 170.30495 
L 7.098447 170.30495 
L 7.098447 170.30495 
L 7.098447 165.742574 
L 7.098447 165.742574 
L 7.098447 165.742574 
L 7.098447 161.180198 
L 7.098447 161.180198 
L 7.098447 161.180198 
L 7.098447 156.617822 
L 7.098447 156.617822 
L 7.098447 156.617822 
L 7.098447 152.055446 
L 7.098447 152.055446 
L 7.098447 152.055446 
L 7.098447 147.493069 
L 190.077078 147.493069 
L 190.077078 142.930693 
L 195.047523 142.930693 
L 195.047523 129.243564 
L 201.852697 129.243564 
L 201.852697 124.681188 
L 202.121753 124.681188 
L 202.121753 120.118812 
L 202.928587 120.118812 
L 202.928587 115.556436 
L 203.042937 115.556436 
L 203.042937 110.994059 
L 204.003667 110.994059 
L 204.003667 106.431683 
L 206.259912 106.431683 
L 206.259912 79.057426 
L 209.195982 79.057426 
L 209.195982 69.932673 
L 211.343413 69.932673 
L 211.343413 65.370297 
L 211.473376 65.370297 
L 211.473376 60.807921 
L 211.850001 60.807921 
L 211.850001 56.245545 
L 213.801146 56.245545 
L 213.801146 51.683168 
L 214.907389 51.683168 
L 214.907389 42.558416 
L 216.235201 42.558416 
L 216.235201 37.99604 
L 217.447374 37.99604 
L 217.472289 24.308911 
L 218.547595 24.308911 
L 218.547595 19.746535 
L 221.225271 19.746535 
L 221.225271 15.184158 
L 221.951928 15.184158 
L 221.951928 10.621782 
L 221.951928 10.621782 
L 453.6 10.621782 
L 453.6 10.621782 
" style="fill:none;stroke:#bf00bf;stroke-linecap:square;"/>
   </g>
   <g id="patch_3">
    <path d="M 7.2 7.2 
L 453.6 7.2 
" style="fill:none;stroke:#000000;stroke-linecap:square;stroke-linejoin:miter;"/>
   </g>
   <g id="patch_4">
    <path d="M 453.6 352.8 
L 453.6 7.2 
" style="fill:none;stroke:#000000;stroke-linecap:square;stroke-linejoin:miter;"/>
   </g>
   <g id="patch_5">
    <path d="M 7.2 352.8 
L 453.6 352.8 
" style="fill:none;stroke:#000000;stroke-linecap:square;stroke-linejoin:miter;"/>
   </g>
   <g id="patch_6">
    <path d="M 7.2 352.8 
L 7.2 7.2 
" style="fill:none;stroke:#000000;stroke-linecap:square;stroke-linejoin:miter;"/>
   </g>
   <g id="matplotlib.axis_1">
    <g id="xtick_1"/>
    <g id="xtick_2">
     <g id="line2d_10">
      <path clip-path="url(#pf7e543db63)" d="M 54.098611 352.8 
L 54.098611 7.2 
" style="fill:none;stroke:#000000;stroke-dasharray:1.000000,3.000000;stroke-dashoffset:0.0;stroke-width:0.5;"/>
     </g>
     <g id="line2d_11">
      <defs>
       <path d="M 0 0 
L 0 -4 
" id="mf804481d9f" style="stroke:#000000;stroke-width:0.5;"/>
      </defs>
      <g>
       <use style="stroke:#000000;stroke-width:0.5;" x="54.0986107985" xlink:href="#mf804481d9f" y="352.8"/>
      </g>
     </g>
     <g id="line2d_12">
      <defs>
       <path d="M 0 0 
L 0 4 
" id="m0dc243cc25" style="stroke:#000000;stroke-width:0.5;"/>
      </defs>
      <g>
       <use style="stroke:#000000;stroke-width:0.5;" x="54.0986107985" xlink:href="#m0dc243cc25" y="7.2"/>
      </g>
     </g>
     <g id="text_1">
      <!-- -6 -->
      <defs>
       <path d="M 33.015625 40.375 
Q 26.375 40.375 22.484375 35.828125 
Q 18.609375 31.296875 18.609375 23.390625 
Q 18.609375 15.53125 22.484375 10.953125 
Q 26.375 6.390625 33.015625 6.390625 
Q 39.65625 6.390625 43.53125 10.953125 
Q 47.40625 15.53125 47.40625 23.390625 
Q 47.40625 31.296875 43.53125 35.828125 
Q 39.65625 40.375 33.015625 40.375 
M 52.59375 71.296875 
L 52.59375 62.3125 
Q 48.875 64.0625 45.09375 64.984375 
Q 41.3125 65.921875 37.59375 65.921875 
Q 27.828125 65.921875 22.671875 59.328125 
Q 17.53125 52.734375 16.796875 39.40625 
Q 19.671875 43.65625 24.015625 45.921875 
Q 28.375 48.1875 33.59375 48.1875 
Q 44.578125 48.1875 50.953125 41.515625 
Q 57.328125 34.859375 57.328125 23.390625 
Q 57.328125 12.15625 50.6875 5.359375 
Q 44.046875 -1.421875 33.015625 -1.421875 
Q 20.359375 -1.421875 13.671875 8.265625 
Q 6.984375 17.96875 6.984375 36.375 
Q 6.984375 53.65625 15.1875 63.9375 
Q 23.390625 74.21875 37.203125 74.21875 
Q 40.921875 74.21875 44.703125 73.484375 
Q 48.484375 72.75 52.59375 71.296875 
" id="BitstreamVeraSans-Roman-36"/>
       <path d="M 4.890625 31.390625 
L 31.203125 31.390625 
L 31.203125 23.390625 
L 4.890625 23.390625 
z
" id="BitstreamVeraSans-Roman-2d"/>
      </defs>
      <g transform="translate(44.1282982985 371.996875)scale(0.2 -0.2)">
       <use xlink:href="#BitstreamVeraSans-Roman-2d"/>
       <use x="36.083984375" xlink:href="#BitstreamVeraSans-Roman-36"/>
      </g>
     </g>
    </g>
    <g id="xtick_3">
     <g id="line2d_13">
      <path clip-path="url(#pf7e543db63)" d="M 101.098774 352.8 
L 101.098774 7.2 
" style="fill:none;stroke:#000000;stroke-dasharray:1.000000,3.000000;stroke-dashoffset:0.0;stroke-width:0.5;"/>
     </g>
     <g id="line2d_14">
      <g>
       <use style="stroke:#000000;stroke-width:0.5;" x="101.098774234" xlink:href="#mf804481d9f" y="352.8"/>
      </g>
     </g>
     <g id="line2d_15">
      <g>
       <use style="stroke:#000000;stroke-width:0.5;" x="101.098774234" xlink:href="#m0dc243cc25" y="7.2"/>
      </g>
     </g>
     <g id="text_2">
      <!-- -4 -->
      <defs>
       <path d="M 37.796875 64.3125 
L 12.890625 25.390625 
L 37.796875 25.390625 
z
M 35.203125 72.90625 
L 47.609375 72.90625 
L 47.609375 25.390625 
L 58.015625 25.390625 
L 58.015625 17.1875 
L 47.609375 17.1875 
L 47.609375 0 
L 37.796875 0 
L 37.796875 17.1875 
L 4.890625 17.1875 
L 4.890625 26.703125 
z
" id="BitstreamVeraSans-Roman-34"/>
      </defs>
      <g transform="translate(91.1284617339 371.996875)scale(0.2 -0.2)">
       <use xlink:href="#BitstreamVeraSans-Roman-2d"/>
       <use x="36.083984375" xlink:href="#BitstreamVeraSans-Roman-34"/>
      </g>
     </g>
    </g>
    <g id="xtick_4">
     <g id="line2d_16">
      <path clip-path="url(#pf7e543db63)" d="M 148.098938 352.8 
L 148.098938 7.2 
" style="fill:none;stroke:#000000;stroke-dasharray:1.000000,3.000000;stroke-dashoffset:0.0;stroke-width:0.5;"/>
     </g>
     <g id="line2d_17">
      <g>
       <use style="stroke:#000000;stroke-width:0.5;" x="148.098937669" xlink:href="#mf804481d9f" y="352.8"/>
      </g>
     </g>
     <g id="line2d_18">
      <g>
       <use style="stroke:#000000;stroke-width:0.5;" x="148.098937669" xlink:href="#m0dc243cc25" y="7.2"/>
      </g>
     </g>
     <g id="text_3">
      <!-- -2 -->
      <defs>
       <path d="M 19.1875 8.296875 
L 53.609375 8.296875 
L 53.609375 0 
L 7.328125 0 
L 7.328125 8.296875 
Q 12.9375 14.109375 22.625 23.890625 
Q 32.328125 33.6875 34.8125 36.53125 
Q 39.546875 41.84375 41.421875 45.53125 
Q 43.3125 49.21875 43.3125 52.78125 
Q 43.3125 58.59375 39.234375 62.25 
Q 35.15625 65.921875 28.609375 65.921875 
Q 23.96875 65.921875 18.8125 64.3125 
Q 13.671875 62.703125 7.8125 59.421875 
L 7.8125 69.390625 
Q 13.765625 71.78125 18.9375 73 
Q 24.125 74.21875 28.421875 74.21875 
Q 39.75 74.21875 46.484375 68.546875 
Q 53.21875 62.890625 53.21875 53.421875 
Q 53.21875 48.921875 51.53125 44.890625 
Q 49.859375 40.875 45.40625 35.40625 
Q 44.1875 33.984375 37.640625 27.21875 
Q 31.109375 20.453125 19.1875 8.296875 
" id="BitstreamVeraSans-Roman-32"/>
      </defs>
      <g transform="translate(138.128625169 371.996875)scale(0.2 -0.2)">
       <use xlink:href="#BitstreamVeraSans-Roman-2d"/>
       <use x="36.083984375" xlink:href="#BitstreamVeraSans-Roman-32"/>
      </g>
     </g>
    </g>
    <g id="xtick_5">
     <g id="line2d_19">
      <path clip-path="url(#pf7e543db63)" d="M 195.099101 352.8 
L 195.099101 7.2 
" style="fill:none;stroke:#000000;stroke-dasharray:1.000000,3.000000;stroke-dashoffset:0.0;stroke-width:0.5;"/>
     </g>
     <g id="line2d_20">
      <g>
       <use style="stroke:#000000;stroke-width:0.5;" x="195.099101105" xlink:href="#mf804481d9f" y="352.8"/>
      </g>
     </g>
     <g id="line2d_21">
      <g>
       <use style="stroke:#000000;stroke-width:0.5;" x="195.099101105" xlink:href="#m0dc243cc25" y="7.2"/>
      </g>
     </g>
     <g id="text_4">
      <!-- 0 -->
      <defs>
       <path d="M 31.78125 66.40625 
Q 24.171875 66.40625 20.328125 58.90625 
Q 16.5 51.421875 16.5 36.375 
Q 16.5 21.390625 20.328125 13.890625 
Q 24.171875 6.390625 31.78125 6.390625 
Q 39.453125 6.390625 43.28125 13.890625 
Q 47.125 21.390625 47.125 36.375 
Q 47.125 51.421875 43.28125 58.90625 
Q 39.453125 66.40625 31.78125 66.40625 
M 31.78125 74.21875 
Q 44.046875 74.21875 50.515625 64.515625 
Q 56.984375 54.828125 56.984375 36.375 
Q 56.984375 17.96875 50.515625 8.265625 
Q 44.046875 -1.421875 31.78125 -1.421875 
Q 19.53125 -1.421875 13.0625 8.265625 
Q 6.59375 17.96875 6.59375 36.375 
Q 6.59375 54.828125 13.0625 64.515625 
Q 19.53125 74.21875 31.78125 74.21875 
" id="BitstreamVeraSans-Roman-30"/>
      </defs>
      <g transform="translate(188.736601105 371.996875)scale(0.2 -0.2)">
       <use xlink:href="#BitstreamVeraSans-Roman-30"/>
      </g>
     </g>
    </g>
    <g id="xtick_6">
     <g id="line2d_22">
      <path clip-path="url(#pf7e543db63)" d="M 242.099265 352.8 
L 242.099265 7.2 
" style="fill:none;stroke:#000000;stroke-dasharray:1.000000,3.000000;stroke-dashoffset:0.0;stroke-width:0.5;"/>
     </g>
     <g id="line2d_23">
      <g>
       <use style="stroke:#000000;stroke-width:0.5;" x="242.09926454" xlink:href="#mf804481d9f" y="352.8"/>
      </g>
     </g>
     <g id="line2d_24">
      <g>
       <use style="stroke:#000000;stroke-width:0.5;" x="242.09926454" xlink:href="#m0dc243cc25" y="7.2"/>
      </g>
     </g>
     <g id="text_5">
      <!-- 2 -->
      <g transform="translate(235.73676454 371.996875)scale(0.2 -0.2)">
       <use xlink:href="#BitstreamVeraSans-Roman-32"/>
      </g>
     </g>
    </g>
    <g id="xtick_7">
     <g id="line2d_25">
      <path clip-path="url(#pf7e543db63)" d="M 289.099428 352.8 
L 289.099428 7.2 
" style="fill:none;stroke:#000000;stroke-dasharray:1.000000,3.000000;stroke-dashoffset:0.0;stroke-width:0.5;"/>
     </g>
     <g id="line2d_26">
      <g>
       <use style="stroke:#000000;stroke-width:0.5;" x="289.099427976" xlink:href="#mf804481d9f" y="352.8"/>
      </g>
     </g>
     <g id="line2d_27">
      <g>
       <use style="stroke:#000000;stroke-width:0.5;" x="289.099427976" xlink:href="#m0dc243cc25" y="7.2"/>
      </g>
     </g>
     <g id="text_6">
      <!-- 4 -->
      <g transform="translate(282.736927976 371.996875)scale(0.2 -0.2)">
       <use xlink:href="#BitstreamVeraSans-Roman-34"/>
      </g>
     </g>
    </g>
    <g id="xtick_8">
     <g id="line2d_28">
      <path clip-path="url(#pf7e543db63)" d="M 336.099591 352.8 
L 336.099591 7.2 
" style="fill:none;stroke:#000000;stroke-dasharray:1.000000,3.000000;stroke-dashoffset:0.0;stroke-width:0.5;"/>
     </g>
     <g id="line2d_29">
      <g>
       <use style="stroke:#000000;stroke-width:0.5;" x="336.099591411" xlink:href="#mf804481d9f" y="352.8"/>
      </g>
     </g>
     <g id="line2d_30">
      <g>
       <use style="stroke:#000000;stroke-width:0.5;" x="336.099591411" xlink:href="#m0dc243cc25" y="7.2"/>
      </g>
     </g>
     <g id="text_7">
      <!-- 6 -->
      <g transform="translate(329.737091411 371.996875)scale(0.2 -0.2)">
       <use xlink:href="#BitstreamVeraSans-Roman-36"/>
      </g>
     </g>
    </g>
    <g id="xtick_9">
     <g id="line2d_31">
      <path clip-path="url(#pf7e543db63)" d="M 383.099755 352.8 
L 383.099755 7.2 
" style="fill:none;stroke:#000000;stroke-dasharray:1.000000,3.000000;stroke-dashoffset:0.0;stroke-width:0.5;"/>
     </g>
     <g id="line2d_32">
      <g>
       <use style="stroke:#000000;stroke-width:0.5;" x="383.099754847" xlink:href="#mf804481d9f" y="352.8"/>
      </g>
     </g>
     <g id="line2d_33">
      <g>
       <use style="stroke:#000000;stroke-width:0.5;" x="383.099754847" xlink:href="#m0dc243cc25" y="7.2"/>
      </g>
     </g>
     <g id="text_8">
      <!-- 8 -->
      <defs>
       <path d="M 31.78125 34.625 
Q 24.75 34.625 20.71875 30.859375 
Q 16.703125 27.09375 16.703125 20.515625 
Q 16.703125 13.921875 20.71875 10.15625 
Q 24.75 6.390625 31.78125 6.390625 
Q 38.8125 6.390625 42.859375 10.171875 
Q 46.921875 13.96875 46.921875 20.515625 
Q 46.921875 27.09375 42.890625 30.859375 
Q 38.875 34.625 31.78125 34.625 
M 21.921875 38.8125 
Q 15.578125 40.375 12.03125 44.71875 
Q 8.5 49.078125 8.5 55.328125 
Q 8.5 64.0625 14.71875 69.140625 
Q 20.953125 74.21875 31.78125 74.21875 
Q 42.671875 74.21875 48.875 69.140625 
Q 55.078125 64.0625 55.078125 55.328125 
Q 55.078125 49.078125 51.53125 44.71875 
Q 48 40.375 41.703125 38.8125 
Q 48.828125 37.15625 52.796875 32.3125 
Q 56.78125 27.484375 56.78125 20.515625 
Q 56.78125 9.90625 50.3125 4.234375 
Q 43.84375 -1.421875 31.78125 -1.421875 
Q 19.734375 -1.421875 13.25 4.234375 
Q 6.78125 9.90625 6.78125 20.515625 
Q 6.78125 27.484375 10.78125 32.3125 
Q 14.796875 37.15625 21.921875 38.8125 
M 18.3125 54.390625 
Q 18.3125 48.734375 21.84375 45.5625 
Q 25.390625 42.390625 31.78125 42.390625 
Q 38.140625 42.390625 41.71875 45.5625 
Q 45.3125 48.734375 45.3125 54.390625 
Q 45.3125 60.0625 41.71875 63.234375 
Q 38.140625 66.40625 31.78125 66.40625 
Q 25.390625 66.40625 21.84375 63.234375 
Q 18.3125 60.0625 18.3125 54.390625 
" id="BitstreamVeraSans-Roman-38"/>
      </defs>
      <g transform="translate(376.737254847 371.996875)scale(0.2 -0.2)">
       <use xlink:href="#BitstreamVeraSans-Roman-38"/>
      </g>
     </g>
    </g>
    <g id="xtick_10">
     <g id="line2d_34">
      <path clip-path="url(#pf7e543db63)" d="M 430.099918 352.8 
L 430.099918 7.2 
" style="fill:none;stroke:#000000;stroke-dasharray:1.000000,3.000000;stroke-dashoffset:0.0;stroke-width:0.5;"/>
     </g>
     <g id="line2d_35">
      <g>
       <use style="stroke:#000000;stroke-width:0.5;" x="430.099918282" xlink:href="#mf804481d9f" y="352.8"/>
      </g>
     </g>
     <g id="line2d_36">
      <g>
       <use style="stroke:#000000;stroke-width:0.5;" x="430.099918282" xlink:href="#m0dc243cc25" y="7.2"/>
      </g>
     </g>
     <g id="text_9">
      <!-- 10 -->
      <defs>
       <path d="M 12.40625 8.296875 
L 28.515625 8.296875 
L 28.515625 63.921875 
L 10.984375 60.40625 
L 10.984375 69.390625 
L 28.421875 72.90625 
L 38.28125 72.90625 
L 38.28125 8.296875 
L 54.390625 8.296875 
L 54.390625 0 
L 12.40625 0 
z
" id="BitstreamVeraSans-Roman-31"/>
      </defs>
      <g transform="translate(417.374918282 371.996875)scale(0.2 -0.2)">
       <use xlink:href="#BitstreamVeraSans-Roman-31"/>
       <use x="63.623046875" xlink:href="#BitstreamVeraSans-Roman-30"/>
      </g>
     </g>
    </g>
    <g id="xtick_11"/>
    <g id="xtick_12">
     <g id="line2d_37">
      <defs>
       <path d="M 0 0 
L 0 -2 
" id="mb5e92b4578" style="stroke:#000000;stroke-width:0.5;"/>
      </defs>
      <g>
       <use style="stroke:#000000;stroke-width:0.5;" x="54.0986107985" xlink:href="#mb5e92b4578" y="352.8"/>
      </g>
     </g>
     <g id="line2d_38">
      <defs>
       <path d="M 0 0 
L 0 2 
" id="m232b53dcff" style="stroke:#000000;stroke-width:0.5;"/>
      </defs>
      <g>
       <use style="stroke:#000000;stroke-width:0.5;" x="54.0986107985" xlink:href="#m232b53dcff" y="7.2"/>
      </g>
     </g>
    </g>
    <g id="xtick_13">
     <g id="line2d_39">
      <g>
       <use style="stroke:#000000;stroke-width:0.5;" x="101.098774234" xlink:href="#mb5e92b4578" y="352.8"/>
      </g>
     </g>
     <g id="line2d_40">
      <g>
       <use style="stroke:#000000;stroke-width:0.5;" x="101.098774234" xlink:href="#m232b53dcff" y="7.2"/>
      </g>
     </g>
    </g>
    <g id="xtick_14">
     <g id="line2d_41">
      <g>
       <use style="stroke:#000000;stroke-width:0.5;" x="148.098937669" xlink:href="#mb5e92b4578" y="352.8"/>
      </g>
     </g>
     <g id="line2d_42">
      <g>
       <use style="stroke:#000000;stroke-width:0.5;" x="148.098937669" xlink:href="#m232b53dcff" y="7.2"/>
      </g>
     </g>
    </g>
    <g id="xtick_15">
     <g id="line2d_43">
      <g>
       <use style="stroke:#000000;stroke-width:0.5;" x="195.099101105" xlink:href="#mb5e92b4578" y="352.8"/>
      </g>
     </g>
     <g id="line2d_44">
      <g>
       <use style="stroke:#000000;stroke-width:0.5;" x="195.099101105" xlink:href="#m232b53dcff" y="7.2"/>
      </g>
     </g>
    </g>
    <g id="xtick_16">
     <g id="line2d_45">
      <g>
       <use style="stroke:#000000;stroke-width:0.5;" x="242.09926454" xlink:href="#mb5e92b4578" y="352.8"/>
      </g>
     </g>
     <g id="line2d_46">
      <g>
       <use style="stroke:#000000;stroke-width:0.5;" x="242.09926454" xlink:href="#m232b53dcff" y="7.2"/>
      </g>
     </g>
    </g>
    <g id="xtick_17">
     <g id="line2d_47">
      <g>
       <use style="stroke:#000000;stroke-width:0.5;" x="289.099427976" xlink:href="#mb5e92b4578" y="352.8"/>
      </g>
     </g>
     <g id="line2d_48">
      <g>
       <use style="stroke:#000000;stroke-width:0.5;" x="289.099427976" xlink:href="#m232b53dcff" y="7.2"/>
      </g>
     </g>
    </g>
    <g id="xtick_18">
     <g id="line2d_49">
      <g>
       <use style="stroke:#000000;stroke-width:0.5;" x="336.099591411" xlink:href="#mb5e92b4578" y="352.8"/>
      </g>
     </g>
     <g id="line2d_50">
      <g>
       <use style="stroke:#000000;stroke-width:0.5;" x="336.099591411" xlink:href="#m232b53dcff" y="7.2"/>
      </g>
     </g>
    </g>
    <g id="xtick_19">
     <g id="line2d_51">
      <g>
       <use style="stroke:#000000;stroke-width:0.5;" x="383.099754847" xlink:href="#mb5e92b4578" y="352.8"/>
      </g>
     </g>
     <g id="line2d_52">
      <g>
       <use style="stroke:#000000;stroke-width:0.5;" x="383.099754847" xlink:href="#m232b53dcff" y="7.2"/>
      </g>
     </g>
    </g>
    <g id="xtick_20">
     <g id="line2d_53">
      <g>
       <use style="stroke:#000000;stroke-width:0.5;" x="430.099918282" xlink:href="#mb5e92b4578" y="352.8"/>
      </g>
     </g>
     <g id="line2d_54">
      <g>
       <use style="stroke:#000000;stroke-width:0.5;" x="430.099918282" xlink:href="#m232b53dcff" y="7.2"/>
      </g>
     </g>
    </g>
    <g id="text_10">
     <!-- log10 of Df -->
     <defs>
      <path id="BitstreamVeraSans-Roman-20"/>
      <path d="M 30.609375 48.390625 
Q 23.390625 48.390625 19.1875 42.75 
Q 14.984375 37.109375 14.984375 27.296875 
Q 14.984375 17.484375 19.15625 11.84375 
Q 23.34375 6.203125 30.609375 6.203125 
Q 37.796875 6.203125 41.984375 11.859375 
Q 46.1875 17.53125 46.1875 27.296875 
Q 46.1875 37.015625 41.984375 42.703125 
Q 37.796875 48.390625 30.609375 48.390625 
M 30.609375 56 
Q 42.328125 56 49.015625 48.375 
Q 55.71875 40.765625 55.71875 27.296875 
Q 55.71875 13.875 49.015625 6.21875 
Q 42.328125 -1.421875 30.609375 -1.421875 
Q 18.84375 -1.421875 12.171875 6.21875 
Q 5.515625 13.875 5.515625 27.296875 
Q 5.515625 40.765625 12.171875 48.375 
Q 18.84375 56 30.609375 56 
" id="BitstreamVeraSans-Roman-6f"/>
      <path d="M 9.421875 75.984375 
L 18.40625 75.984375 
L 18.40625 0 
L 9.421875 0 
z
" id="BitstreamVeraSans-Roman-6c"/>
      <path d="M 19.671875 64.796875 
L 19.671875 8.109375 
L 31.59375 8.109375 
Q 46.6875 8.109375 53.6875 14.9375 
Q 60.6875 21.78125 60.6875 36.53125 
Q 60.6875 51.171875 53.6875 57.984375 
Q 46.6875 64.796875 31.59375 64.796875 
z
M 9.8125 72.90625 
L 30.078125 72.90625 
Q 51.265625 72.90625 61.171875 64.09375 
Q 71.09375 55.28125 71.09375 36.53125 
Q 71.09375 17.671875 61.125 8.828125 
Q 51.171875 0 30.078125 0 
L 9.8125 0 
z
" id="BitstreamVeraSans-Roman-44"/>
      <path d="M 45.40625 27.984375 
Q 45.40625 37.75 41.375 43.109375 
Q 37.359375 48.484375 30.078125 48.484375 
Q 22.859375 48.484375 18.828125 43.109375 
Q 14.796875 37.75 14.796875 27.984375 
Q 14.796875 18.265625 18.828125 12.890625 
Q 22.859375 7.515625 30.078125 7.515625 
Q 37.359375 7.515625 41.375 12.890625 
Q 45.40625 18.265625 45.40625 27.984375 
M 54.390625 6.78125 
Q 54.390625 -7.171875 48.1875 -13.984375 
Q 42 -20.796875 29.203125 -20.796875 
Q 24.46875 -20.796875 20.265625 -20.09375 
Q 16.0625 -19.390625 12.109375 -17.921875 
L 12.109375 -9.1875 
Q 16.0625 -11.328125 19.921875 -12.34375 
Q 23.78125 -13.375 27.78125 -13.375 
Q 36.625 -13.375 41.015625 -8.765625 
Q 45.40625 -4.15625 45.40625 5.171875 
L 45.40625 9.625 
Q 42.625 4.78125 38.28125 2.390625 
Q 33.9375 0 27.875 0 
Q 17.828125 0 11.671875 7.65625 
Q 5.515625 15.328125 5.515625 27.984375 
Q 5.515625 40.671875 11.671875 48.328125 
Q 17.828125 56 27.875 56 
Q 33.9375 56 38.28125 53.609375 
Q 42.625 51.21875 45.40625 46.390625 
L 45.40625 54.6875 
L 54.390625 54.6875 
z
" id="BitstreamVeraSans-Roman-67"/>
      <path d="M 37.109375 75.984375 
L 37.109375 68.5 
L 28.515625 68.5 
Q 23.6875 68.5 21.796875 66.546875 
Q 19.921875 64.59375 19.921875 59.515625 
L 19.921875 54.6875 
L 34.71875 54.6875 
L 34.71875 47.703125 
L 19.921875 47.703125 
L 19.921875 0 
L 10.890625 0 
L 10.890625 47.703125 
L 2.296875 47.703125 
L 2.296875 54.6875 
L 10.890625 54.6875 
L 10.890625 58.5 
Q 10.890625 67.625 15.140625 71.796875 
Q 19.390625 75.984375 28.609375 75.984375 
z
" id="BitstreamVeraSans-Roman-66"/>
     </defs>
     <g transform="translate(175.2140625 396.353125)scale(0.2 -0.2)">
      <use xlink:href="#BitstreamVeraSans-Roman-6c"/>
      <use x="27.783203125" xlink:href="#BitstreamVeraSans-Roman-6f"/>
      <use x="88.96484375" xlink:href="#BitstreamVeraSans-Roman-67"/>
      <use x="152.44140625" xlink:href="#BitstreamVeraSans-Roman-31"/>
      <use x="216.064453125" xlink:href="#BitstreamVeraSans-Roman-30"/>
      <use x="279.6875" xlink:href="#BitstreamVeraSans-Roman-20"/>
      <use x="311.474609375" xlink:href="#BitstreamVeraSans-Roman-6f"/>
      <use x="372.65625" xlink:href="#BitstreamVeraSans-Roman-66"/>
      <use x="407.861328125" xlink:href="#BitstreamVeraSans-Roman-20"/>
      <use x="439.6484375" xlink:href="#BitstreamVeraSans-Roman-44"/>
      <use x="516.650390625" xlink:href="#BitstreamVeraSans-Roman-66"/>
     </g>
    </g>
   </g>
   <g id="matplotlib.axis_2">
    <g id="ytick_1">
     <g id="line2d_55">
      <path clip-path="url(#pf7e543db63)" d="M 7.2 352.8 
L 453.6 352.8 
" style="fill:none;stroke:#000000;stroke-dasharray:1.000000,3.000000;stroke-dashoffset:0.0;stroke-width:0.5;"/>
     </g>
     <g id="line2d_56">
      <defs>
       <path d="M 0 0 
L 4 0 
" id="m278ee2b97b" style="stroke:#000000;stroke-width:0.5;"/>
      </defs>
      <g>
       <use style="stroke:#000000;stroke-width:0.5;" x="7.2" xlink:href="#m278ee2b97b" y="352.8"/>
      </g>
     </g>
     <g id="line2d_57">
      <defs>
       <path d="M 0 0 
L -4 0 
" id="m1f4b9ac033" style="stroke:#000000;stroke-width:0.5;"/>
      </defs>
      <g>
       <use style="stroke:#000000;stroke-width:0.5;" x="453.6" xlink:href="#m1f4b9ac033" y="352.8"/>
      </g>
     </g>
    </g>
    <g id="ytick_2">
     <g id="line2d_58">
      <path clip-path="url(#pf7e543db63)" d="M 7.2 284.364356 
L 453.6 284.364356 
" style="fill:none;stroke:#000000;stroke-dasharray:1.000000,3.000000;stroke-dashoffset:0.0;stroke-width:0.5;"/>
     </g>
     <g id="line2d_59">
      <g>
       <use style="stroke:#000000;stroke-width:0.5;" x="7.2" xlink:href="#m278ee2b97b" y="284.364356436"/>
      </g>
     </g>
     <g id="line2d_60">
      <g>
       <use style="stroke:#000000;stroke-width:0.5;" x="453.6" xlink:href="#m1f4b9ac033" y="284.364356436"/>
      </g>
     </g>
    </g>
    <g id="ytick_3">
     <g id="line2d_61">
      <path clip-path="url(#pf7e543db63)" d="M 7.2 215.928713 
L 453.6 215.928713 
" style="fill:none;stroke:#000000;stroke-dasharray:1.000000,3.000000;stroke-dashoffset:0.0;stroke-width:0.5;"/>
     </g>
     <g id="line2d_62">
      <g>
       <use style="stroke:#000000;stroke-width:0.5;" x="7.2" xlink:href="#m278ee2b97b" y="215.928712871"/>
      </g>
     </g>
     <g id="line2d_63">
      <g>
       <use style="stroke:#000000;stroke-width:0.5;" x="453.6" xlink:href="#m1f4b9ac033" y="215.928712871"/>
      </g>
     </g>
    </g>
    <g id="ytick_4">
     <g id="line2d_64">
      <path clip-path="url(#pf7e543db63)" d="M 7.2 147.493069 
L 453.6 147.493069 
" style="fill:none;stroke:#000000;stroke-dasharray:1.000000,3.000000;stroke-dashoffset:0.0;stroke-width:0.5;"/>
     </g>
     <g id="line2d_65">
      <g>
       <use style="stroke:#000000;stroke-width:0.5;" x="7.2" xlink:href="#m278ee2b97b" y="147.493069307"/>
      </g>
     </g>
     <g id="line2d_66">
      <g>
       <use style="stroke:#000000;stroke-width:0.5;" x="453.6" xlink:href="#m1f4b9ac033" y="147.493069307"/>
      </g>
     </g>
    </g>
    <g id="ytick_5">
     <g id="line2d_67">
      <path clip-path="url(#pf7e543db63)" d="M 7.2 79.057426 
L 453.6 79.057426 
" style="fill:none;stroke:#000000;stroke-dasharray:1.000000,3.000000;stroke-dashoffset:0.0;stroke-width:0.5;"/>
     </g>
     <g id="line2d_68">
      <g>
       <use style="stroke:#000000;stroke-width:0.5;" x="7.2" xlink:href="#m278ee2b97b" y="79.0574257426"/>
      </g>
     </g>
     <g id="line2d_69">
      <g>
       <use style="stroke:#000000;stroke-width:0.5;" x="453.6" xlink:href="#m1f4b9ac033" y="79.0574257426"/>
      </g>
     </g>
    </g>
    <g id="ytick_6">
     <g id="line2d_70">
      <path clip-path="url(#pf7e543db63)" d="M 7.2 10.621782 
L 453.6 10.621782 
" style="fill:none;stroke:#000000;stroke-dasharray:1.000000,3.000000;stroke-dashoffset:0.0;stroke-width:0.5;"/>
     </g>
     <g id="line2d_71">
      <g>
       <use style="stroke:#000000;stroke-width:0.5;" x="7.2" xlink:href="#m278ee2b97b" y="10.6217821782"/>
      </g>
     </g>
     <g id="line2d_72">
      <g>
       <use style="stroke:#000000;stroke-width:0.5;" x="453.6" xlink:href="#m1f4b9ac033" y="10.6217821782"/>
      </g>
     </g>
    </g>
   </g>
   <g id="text_11">
    <!-- {f1-f5}, 5-D -->
    <defs>
     <path d="M 12.5 -9.28125 
L 15.921875 -9.28125 
Q 22.75 -9.28125 24.828125 -7.171875 
Q 26.90625 -5.078125 26.90625 1.90625 
L 26.90625 14.015625 
Q 26.90625 21.625 29.09375 25.09375 
Q 31.296875 28.5625 36.71875 29.890625 
Q 31.296875 31.109375 29.09375 34.5625 
Q 26.90625 38.03125 26.90625 45.703125 
L 26.90625 57.8125 
Q 26.90625 64.75 24.828125 66.875 
Q 22.75 69 15.921875 69 
L 12.5 69 
L 12.5 75.984375 
L 15.578125 75.984375 
Q 27.734375 75.984375 31.8125 72.390625 
Q 35.890625 68.796875 35.890625 58.015625 
L 35.890625 46.296875 
Q 35.890625 39.015625 38.515625 36.203125 
Q 41.15625 33.40625 48.09375 33.40625 
L 51.125 33.40625 
L 51.125 26.421875 
L 48.09375 26.421875 
Q 41.15625 26.421875 38.515625 23.578125 
Q 35.890625 20.75 35.890625 13.375 
L 35.890625 1.703125 
Q 35.890625 -9.078125 31.8125 -12.6875 
Q 27.734375 -16.3125 15.578125 -16.3125 
L 12.5 -16.3125 
z
" id="BitstreamVeraSans-Roman-7d"/>
     <path d="M 51.125 -9.28125 
L 51.125 -16.3125 
L 48.09375 -16.3125 
Q 35.9375 -16.3125 31.8125 -12.6875 
Q 27.6875 -9.078125 27.6875 1.703125 
L 27.6875 13.375 
Q 27.6875 20.75 25.046875 23.578125 
Q 22.40625 26.421875 15.484375 26.421875 
L 12.5 26.421875 
L 12.5 33.40625 
L 15.484375 33.40625 
Q 22.46875 33.40625 25.078125 36.203125 
Q 27.6875 39.015625 27.6875 46.296875 
L 27.6875 58.015625 
Q 27.6875 68.796875 31.8125 72.390625 
Q 35.9375 75.984375 48.09375 75.984375 
L 51.125 75.984375 
L 51.125 69 
L 47.796875 69 
Q 40.921875 69 38.8125 66.84375 
Q 36.71875 64.703125 36.71875 57.8125 
L 36.71875 45.703125 
Q 36.71875 38.03125 34.5 34.5625 
Q 32.28125 31.109375 26.90625 29.890625 
Q 32.328125 28.5625 34.515625 25.09375 
Q 36.71875 21.625 36.71875 14.015625 
L 36.71875 1.90625 
Q 36.71875 -4.984375 38.8125 -7.125 
Q 40.921875 -9.28125 47.796875 -9.28125 
z
" id="BitstreamVeraSans-Roman-7b"/>
     <path d="M 11.71875 12.40625 
L 22.015625 12.40625 
L 22.015625 4 
L 14.015625 -11.625 
L 7.71875 -11.625 
L 11.71875 4 
z
" id="BitstreamVeraSans-Roman-2c"/>
     <path d="M 10.796875 72.90625 
L 49.515625 72.90625 
L 49.515625 64.59375 
L 19.828125 64.59375 
L 19.828125 46.734375 
Q 21.96875 47.46875 24.109375 47.828125 
Q 26.265625 48.1875 28.421875 48.1875 
Q 40.625 48.1875 47.75 41.5 
Q 54.890625 34.8125 54.890625 23.390625 
Q 54.890625 11.625 47.5625 5.09375 
Q 40.234375 -1.421875 26.90625 -1.421875 
Q 22.3125 -1.421875 17.546875 -0.640625 
Q 12.796875 0.140625 7.71875 1.703125 
L 7.71875 11.625 
Q 12.109375 9.234375 16.796875 8.0625 
Q 21.484375 6.890625 26.703125 6.890625 
Q 35.15625 6.890625 40.078125 11.328125 
Q 45.015625 15.765625 45.015625 23.390625 
Q 45.015625 31 40.078125 35.4375 
Q 35.15625 39.890625 26.703125 39.890625 
Q 22.75 39.890625 18.8125 39.015625 
Q 14.890625 38.140625 10.796875 36.28125 
z
" id="BitstreamVeraSans-Roman-35"/>
    </defs>
    <g transform="translate(324.422 345.888)scale(0.2 -0.2)">
     <use xlink:href="#BitstreamVeraSans-Roman-7b"/>
     <use x="63.623046875" xlink:href="#BitstreamVeraSans-Roman-66"/>
     <use x="98.828125" xlink:href="#BitstreamVeraSans-Roman-31"/>
     <use x="162.451171875" xlink:href="#BitstreamVeraSans-Roman-2d"/>
     <use x="198.53515625" xlink:href="#BitstreamVeraSans-Roman-66"/>
     <use x="233.740234375" xlink:href="#BitstreamVeraSans-Roman-35"/>
     <use x="297.36328125" xlink:href="#BitstreamVeraSans-Roman-7d"/>
     <use x="360.986328125" xlink:href="#BitstreamVeraSans-Roman-2c"/>
     <use x="392.7734375" xlink:href="#BitstreamVeraSans-Roman-20"/>
     <use x="424.560546875" xlink:href="#BitstreamVeraSans-Roman-35"/>
     <use x="488.18359375" xlink:href="#BitstreamVeraSans-Roman-2d"/>
     <use x="524.267578125" xlink:href="#BitstreamVeraSans-Roman-44"/>
    </g>
   </g>
   <g id="text_12">
    <!-- 0.0.0 -->
    <defs>
     <path d="M 10.6875 12.40625 
L 21 12.40625 
L 21 0 
L 10.6875 0 
z
" id="BitstreamVeraSans-Roman-2e"/>
    </defs>
    <g style="fill:#808080;" transform="translate(217.678125 347.2643125)scale(0.1 -0.1)">
     <use xlink:href="#BitstreamVeraSans-Roman-30"/>
     <use x="63.623046875" xlink:href="#BitstreamVeraSans-Roman-2e"/>
     <use x="95.41015625" xlink:href="#BitstreamVeraSans-Roman-30"/>
     <use x="159.033203125" xlink:href="#BitstreamVeraSans-Roman-2e"/>
     <use x="190.8203125" xlink:href="#BitstreamVeraSans-Roman-30"/>
    </g>
   </g>
  </g>
 </g>
 <defs>
  <clipPath id="pf7e543db63">
   <rect height="345.6" width="446.4" x="7.2" y="7.2"/>
  </clipPath>
 </defs>
</svg>
