<?xml version="1.0" encoding="utf-8" standalone="no"?>
<!DOCTYPE svg PUBLIC "-//W3C//DTD SVG 1.1//EN"
  "http://www.w3.org/Graphics/SVG/1.1/DTD/svg11.dtd">
<!-- Created with matplotlib (http://matplotlib.org/) -->
<svg height="407pt" version="1.1" viewBox="0 0 460 407" width="460pt" xmlns="http://www.w3.org/2000/svg" xmlns:xlink="http://www.w3.org/1999/xlink">
 <defs>
  <style type="text/css">
*{stroke-linecap:butt;stroke-linejoin:round;stroke-miterlimit:100000;}
  </style>
 </defs>
 <g id="figure_1">
  <g id="patch_1">
   <path d="M 0 407.7125 
L 460.8 407.7125 
L 460.8 0 
L 0 0 
z
" style="fill:#ffffff;"/>
  </g>
  <g id="axes_1">
   <g id="patch_2">
    <path d="M 7.2 352.8 
L 453.6 352.8 
L 453.6 7.2 
L 7.2 7.2 
z
" style="fill:#ffffff;"/>
   </g>
   <g id="line2d_1">
    <path clip-path="url(#p4a5cb50557)" d="M 7.098447 352.8 
L 7.098447 348.237624 
L 7.098447 348.237624 
L 7.098447 348.237624 
L 7.098447 343.675248 
L 7.098447 343.675248 
L 7.098447 343.675248 
L 7.098447 339.112871 
L 7.098447 339.112871 
L 7.098447 339.112871 
L 7.098447 334.550495 
L 7.098447 334.550495 
L 7.098447 334.550495 
L 7.098447 329.988119 
L 7.098447 329.988119 
L 7.098447 329.988119 
L 7.098447 325.425743 
L 180.379946 325.425743 
L 180.379946 320.863366 
L 181.637637 320.863366 
L 181.637637 316.30099 
L 184.548147 316.30099 
L 184.548147 311.738614 
L 186.586647 311.738614 
L 186.586647 307.176238 
L 186.756482 307.176238 
L 186.756482 302.613861 
L 189.528637 302.613861 
L 189.626361 293.489109 
L 190.091866 293.489109 
L 190.091866 288.926733 
L 190.210317 288.926733 
L 190.210317 284.364356 
L 190.547083 284.364356 
L 190.547083 279.80198 
L 190.777413 279.80198 
L 190.777413 275.239604 
L 190.954906 275.239604 
L 191.029439 266.114851 
L 191.339471 266.114851 
L 191.339471 252.427723 
L 191.737611 252.427723 
L 191.737611 247.865347 
L 192.370992 247.865347 
L 192.370992 243.30297 
L 192.839089 243.30297 
L 192.946013 234.178218 
L 193.279395 234.178218 
L 193.279395 229.615842 
L 193.660876 229.615842 
L 193.660876 225.053465 
L 194.358419 225.053465 
L 194.358419 220.491089 
L 194.549492 220.491089 
L 194.549492 215.928713 
L 195.196082 215.928713 
L 195.196082 211.366337 
L 195.538975 211.366337 
L 195.538975 206.80396 
L 196.480227 206.80396 
L 196.480227 202.241584 
L 196.988509 202.241584 
L 196.988509 197.679208 
L 197.223819 197.679208 
L 197.223819 193.116832 
L 197.63923 193.116832 
L 197.63923 188.554455 
L 197.799078 188.554455 
L 197.799078 183.992079 
L 199.224264 183.992079 
L 199.238934 174.867327 
L 199.418767 174.867327 
L 199.418767 170.30495 
L 199.657217 170.30495 
L 199.657217 161.180198 
L 200.004383 161.180198 
L 200.007514 152.055446 
L 201.115131 152.055446 
L 201.115131 147.493069 
L 202.170191 147.493069 
L 202.170191 142.930693 
L 203.401715 142.930693 
L 203.401715 138.368317 
L 203.934014 138.368317 
L 203.934014 133.805941 
L 204.813837 133.805941 
L 204.813837 120.118812 
L 205.526802 120.118812 
L 205.526802 115.556436 
L 205.674813 115.556436 
L 205.674813 110.994059 
L 206.227298 110.994059 
L 206.304427 101.869307 
L 207.373541 101.869307 
L 207.373541 97.306931 
L 208.206309 97.306931 
L 208.206309 92.744554 
L 209.187089 92.744554 
L 209.187089 88.182178 
L 211.652216 88.182178 
L 211.652216 74.49505 
L 213.801228 74.49505 
L 213.801228 69.932673 
L 214.223603 69.932673 
L 214.260396 60.807921 
L 214.448591 60.807921 
L 214.448591 56.245545 
L 215.347517 56.245545 
L 215.347517 47.120792 
L 215.609139 47.120792 
L 215.609139 42.558416 
L 216.321776 42.558416 
L 216.394144 33.433663 
L 216.478126 33.433663 
L 216.478126 28.871287 
L 216.765134 28.871287 
L 216.765134 24.308911 
L 217.742706 24.308911 
L 217.742706 19.746535 
L 227.172139 19.746535 
L 227.172139 15.184158 
L 229.839501 15.184158 
L 229.839501 10.621782 
L 229.839501 10.621782 
L 453.6 10.621782 
L 453.6 10.621782 
" style="fill:none;stroke:#ff0000;stroke-linecap:square;stroke-width:3.0;"/>
   </g>
   <g id="line2d_2">
    <path clip-path="url(#p4a5cb50557)" d="M 203.36694 352.8 
L 203.36694 348.237624 
L 215.541818 348.237624 
L 215.541818 343.675248 
L 217.102856 343.675248 
L 217.102856 339.112871 
L 217.333047 339.112871 
L 217.333047 334.550495 
L 220.310162 334.550495 
L 220.310162 329.988119 
L 223.450206 329.988119 
L 223.537312 320.863366 
L 224.049661 320.863366 
L 224.049661 316.30099 
L 224.392274 316.30099 
L 224.392274 311.738614 
L 225.966182 311.738614 
L 226.011952 302.613861 
L 226.329316 302.613861 
L 226.329316 298.051485 
L 227.885352 298.051485 
L 227.885352 293.489109 
L 229.516359 293.489109 
L 229.516359 288.926733 
L 230.707399 288.926733 
L 230.707399 284.364356 
L 231.104634 284.364356 
L 231.104634 279.80198 
L 232.303428 279.80198 
L 232.303428 275.239604 
L 233.393231 275.239604 
L 233.393231 270.677228 
L 234.502878 270.677228 
L 234.502878 266.114851 
L 236.723351 266.114851 
L 236.723351 261.552475 
L 237.188621 261.552475 
L 237.188621 256.990099 
L 237.816215 256.990099 
L 237.904913 247.865347 
L 238.159435 247.865347 
L 238.159435 243.30297 
L 238.358353 243.30297 
L 238.446923 229.615842 
L 238.580227 229.615842 
L 238.66787 220.491089 
L 238.729857 220.491089 
L 238.729857 215.928713 
L 238.890259 215.928713 
L 238.890259 211.366337 
L 239.067827 211.366337 
L 239.092142 202.241584 
L 239.214296 202.241584 
L 239.214296 197.679208 
L 239.500345 197.679208 
L 239.500345 193.116832 
L 239.75139 193.116832 
L 239.75139 188.554455 
L 240.081644 188.554455 
L 240.169052 174.867327 
L 240.414906 174.867327 
L 240.439378 165.742574 
L 240.816574 165.742574 
L 240.816574 161.180198 
L 240.94924 161.180198 
L 241.024169 152.055446 
L 241.254414 152.055446 
L 241.254414 147.493069 
L 243.310345 147.493069 
L 243.310345 142.930693 
L 243.754819 142.930693 
L 243.76039 133.805941 
L 245.042564 133.805941 
L 245.042564 129.243564 
L 245.57333 129.243564 
L 245.57333 124.681188 
L 246.284376 124.681188 
L 246.284376 120.118812 
L 247.730162 120.118812 
L 247.730162 115.556436 
L 250.145521 115.556436 
L 250.145521 110.994059 
L 250.324521 110.994059 
L 250.324521 106.431683 
L 251.933674 106.431683 
L 251.933674 101.869307 
L 278.777324 101.869307 
L 278.777324 97.306931 
L 283.35593 97.306931 
L 283.35593 92.744554 
L 289.934676 92.744554 
L 289.934676 88.182178 
L 290.193366 88.182178 
L 290.193366 83.619802 
L 293.958585 83.619802 
L 293.958585 79.057426 
L 299.936355 79.057426 
L 299.936355 74.49505 
L 301.07051 74.49505 
L 301.07051 69.932673 
L 302.042195 69.932673 
L 302.042195 65.370297 
L 302.522655 65.370297 
L 302.522655 60.807921 
L 304.479473 60.807921 
L 304.479473 56.245545 
L 306.619426 56.245545 
L 306.619426 51.683168 
L 306.913178 51.683168 
L 306.913178 47.120792 
L 308.073923 47.120792 
L 308.073923 42.558416 
L 310.469511 42.558416 
L 310.469511 37.99604 
L 310.89092 37.99604 
L 310.89092 33.433663 
L 311.97929 33.433663 
L 311.97929 28.871287 
L 312.253239 28.871287 
L 312.253239 24.308911 
L 314.848136 24.308911 
L 314.848136 19.746535 
L 318.941086 19.746535 
L 318.941086 15.184158 
L 328.756669 15.184158 
L 328.756669 10.621782 
L 328.756669 10.621782 
L 453.6 10.621782 
L 453.6 10.621782 
" style="fill:none;stroke:#00bfbf;stroke-linecap:square;"/>
   </g>
   <g id="line2d_3">
    <path clip-path="url(#p4a5cb50557)" d="M 203.36694 352.8 
L 203.36694 348.237624 
L 215.541818 348.237624 
L 215.541818 343.675248 
L 217.102856 343.675248 
L 217.137326 334.550495 
L 217.333047 334.550495 
L 217.333047 329.988119 
L 217.700683 329.988119 
L 217.700683 325.425743 
L 217.948594 325.425743 
L 217.948594 320.863366 
L 219.697235 320.863366 
L 219.697235 316.30099 
L 220.210394 316.30099 
L 220.310162 307.176238 
L 221.351667 307.176238 
L 221.351667 302.613861 
L 222.733612 302.613861 
L 222.733612 298.051485 
L 223.111476 298.051485 
L 223.111476 293.489109 
L 223.537312 293.489109 
L 223.537312 288.926733 
L 223.682422 288.926733 
L 223.682422 284.364356 
L 224.392274 284.364356 
L 224.392274 279.80198 
L 226.990196 279.80198 
L 226.990196 275.239604 
L 228.883169 275.239604 
L 228.883169 270.677228 
L 229.457432 270.677228 
L 229.474681 261.552475 
L 230.707399 261.552475 
L 230.707399 256.990099 
L 232.303428 256.990099 
L 232.303428 252.427723 
L 233.393231 252.427723 
L 233.412726 243.30297 
L 235.125699 243.30297 
L 235.125699 238.740594 
L 235.860613 238.740594 
L 235.860613 234.178218 
L 236.111801 234.178218 
L 236.111801 229.615842 
L 237.188621 229.615842 
L 237.188621 225.053465 
L 237.816215 225.053465 
L 237.904913 211.366337 
L 238.114371 211.366337 
L 238.114371 206.80396 
L 238.339998 206.80396 
L 238.446923 183.992079 
L 238.568503 183.992079 
L 238.580227 174.867327 
L 238.700675 174.867327 
L 238.700675 170.30495 
L 238.898258 170.30495 
L 238.936719 156.617822 
L 239.040945 156.617822 
L 239.092142 147.493069 
L 239.500345 147.493069 
L 239.500345 142.930693 
L 239.75139 142.930693 
L 239.75139 138.368317 
L 239.943003 138.368317 
L 239.943003 133.805941 
L 240.816574 133.805941 
L 240.816574 129.243564 
L 243.310345 129.243564 
L 243.310345 124.681188 
L 243.76039 124.681188 
L 243.76039 120.118812 
L 244.009472 120.118812 
L 244.009472 115.556436 
L 244.950282 115.556436 
L 244.950282 110.994059 
L 245.226905 110.994059 
L 245.226905 106.431683 
L 246.026004 106.431683 
L 246.026004 101.869307 
L 247.286465 101.869307 
L 247.375163 92.744554 
L 247.730162 92.744554 
L 247.730162 88.182178 
L 250.145521 88.182178 
L 250.145521 83.619802 
L 250.324521 83.619802 
L 250.324521 79.057426 
L 258.181137 79.057426 
L 258.181137 74.49505 
L 258.89045 74.49505 
L 258.89045 69.932673 
L 264.624251 69.932673 
L 264.624251 65.370297 
L 286.503573 65.370297 
L 286.503573 60.807921 
L 289.934676 60.807921 
L 289.934676 56.245545 
L 295.029148 56.245545 
L 295.029148 51.683168 
L 295.878263 51.683168 
L 295.878263 47.120792 
L 299.239644 47.120792 
L 299.239644 42.558416 
L 299.992006 42.558416 
L 299.992006 37.99604 
L 300.710558 37.99604 
L 300.710558 33.433663 
L 302.042195 33.433663 
L 302.042195 28.871287 
L 305.284465 28.871287 
L 305.284465 24.308911 
L 306.161837 24.308911 
L 306.210414 15.184158 
L 308.513886 15.184158 
L 308.513886 10.621782 
L 308.513886 10.621782 
L 453.6 10.621782 
L 453.6 10.621782 
" style="fill:none;stroke:#bf00bf;stroke-linecap:square;"/>
   </g>
   <g id="line2d_4">
    <path clip-path="url(#p4a5cb50557)" d="M 203.36694 352.8 
L 203.36694 348.237624 
L 213.867728 348.237624 
L 213.867728 343.675248 
L 214.71499 343.675248 
L 214.71499 339.112871 
L 215.541818 339.112871 
L 215.541818 334.550495 
L 215.653573 334.550495 
L 215.653573 329.988119 
L 216.142239 329.988119 
L 216.142239 325.425743 
L 216.999206 325.425743 
L 217.102856 316.30099 
L 217.137326 316.30099 
L 217.137326 311.738614 
L 217.333047 311.738614 
L 217.333047 307.176238 
L 217.700683 307.176238 
L 217.700683 302.613861 
L 218.739554 302.613861 
L 218.739554 298.051485 
L 219.379217 298.051485 
L 219.379217 293.489109 
L 220.210394 293.489109 
L 220.210394 288.926733 
L 221.045173 288.926733 
L 221.045173 284.364356 
L 221.978042 284.364356 
L 221.978042 279.80198 
L 224.06539 279.80198 
L 224.06539 275.239604 
L 228.883169 275.239604 
L 228.883169 270.677228 
L 229.457432 270.677228 
L 229.474681 261.552475 
L 230.707399 261.552475 
L 230.707399 256.990099 
L 232.26452 256.990099 
L 232.303428 247.865347 
L 232.587291 247.865347 
L 232.587291 243.30297 
L 233.393231 243.30297 
L 233.412726 234.178218 
L 233.877189 234.178218 
L 233.877189 229.615842 
L 234.298954 229.615842 
L 234.298954 225.053465 
L 234.43304 225.053465 
L 234.43304 220.491089 
L 235.102465 220.491089 
L 235.125699 211.366337 
L 235.860613 211.366337 
L 235.953719 202.241584 
L 236.111801 202.241584 
L 236.192654 193.116832 
L 237.188621 193.116832 
L 237.188621 188.554455 
L 237.611804 188.554455 
L 237.611804 183.992079 
L 237.904913 183.992079 
L 238.002439 174.867327 
L 238.195445 174.867327 
L 238.195445 170.30495 
L 238.339998 170.30495 
L 238.427833 161.180198 
L 238.526042 161.180198 
L 238.580227 147.493069 
L 238.82651 147.493069 
L 238.892672 138.368317 
L 239.092142 138.368317 
L 239.092142 133.805941 
L 240.816574 133.805941 
L 240.816574 129.243564 
L 241.260719 129.243564 
L 241.314229 120.118812 
L 242.750275 120.118812 
L 242.855386 110.994059 
L 242.910614 110.994059 
L 242.910614 106.431683 
L 243.024759 106.431683 
L 243.024759 101.869307 
L 243.310345 101.869307 
L 243.310345 97.306931 
L 244.288444 97.306931 
L 244.288444 92.744554 
L 247.375163 92.744554 
L 247.375163 88.182178 
L 248.553143 88.182178 
L 248.553143 83.619802 
L 249.441905 83.619802 
L 249.441905 79.057426 
L 249.739844 79.057426 
L 249.739844 74.49505 
L 250.324521 74.49505 
L 250.324521 69.932673 
L 254.044793 69.932673 
L 254.044793 65.370297 
L 264.624251 65.370297 
L 264.624251 60.807921 
L 270.160295 60.807921 
L 270.160295 56.245545 
L 289.556864 56.245545 
L 289.556864 51.683168 
L 289.934676 51.683168 
L 289.934676 47.120792 
L 295.029148 47.120792 
L 295.029148 42.558416 
L 295.878263 42.558416 
L 295.878263 37.99604 
L 297.185331 37.99604 
L 297.185331 33.433663 
L 297.389683 33.433663 
L 297.389683 28.871287 
L 299.560749 28.871287 
L 299.560749 24.308911 
L 300.710558 24.308911 
L 300.710558 19.746535 
L 303.593041 19.746535 
L 303.593041 15.184158 
L 304.157062 15.184158 
L 304.157062 10.621782 
L 304.157062 10.621782 
L 453.6 10.621782 
L 453.6 10.621782 
" style="fill:none;stroke:#000000;stroke-linecap:square;"/>
   </g>
   <g id="line2d_5">
    <path clip-path="url(#p4a5cb50557)" d="M 202.346524 352.8 
L 202.346524 348.237624 
L 203.36694 348.237624 
L 203.36694 343.675248 
L 206.85111 343.675248 
L 206.860689 334.550495 
L 209.176207 334.550495 
L 209.285378 325.425743 
L 210.227284 325.425743 
L 210.227284 320.863366 
L 212.094151 320.863366 
L 212.094151 316.30099 
L 212.402999 316.30099 
L 212.402999 311.738614 
L 213.374233 311.738614 
L 213.374233 307.176238 
L 213.994779 307.176238 
L 213.994779 302.613861 
L 214.539384 302.613861 
L 214.641303 293.489109 
L 215.225935 293.489109 
L 215.225935 288.926733 
L 215.576155 288.926733 
L 215.64941 279.80198 
L 216.040414 279.80198 
L 216.040414 275.239604 
L 217.98125 275.239604 
L 217.98125 270.677228 
L 220.210394 270.677228 
L 220.210394 266.114851 
L 221.978042 266.114851 
L 221.978042 261.552475 
L 225.494473 261.552475 
L 225.513355 252.427723 
L 225.820954 252.427723 
L 225.820954 247.865347 
L 226.156226 247.865347 
L 226.156226 243.30297 
L 226.554006 243.30297 
L 226.598011 234.178218 
L 227.172139 234.178218 
L 227.172546 225.053465 
L 227.72383 225.053465 
L 227.72383 220.491089 
L 228.412484 220.491089 
L 228.412484 215.928713 
L 228.544272 215.928713 
L 228.544272 211.366337 
L 229.457432 211.366337 
L 229.457432 206.80396 
L 231.640753 206.80396 
L 231.690499 197.679208 
L 231.873547 197.679208 
L 231.873547 193.116832 
L 232.686915 193.116832 
L 232.686915 188.554455 
L 232.944106 188.554455 
L 232.944106 183.992079 
L 233.335686 183.992079 
L 233.335686 179.429703 
L 234.199248 179.429703 
L 234.199248 174.867327 
L 234.39553 174.867327 
L 234.43304 165.742574 
L 235.125699 165.742574 
L 235.222955 152.055446 
L 235.34475 152.055446 
L 235.34475 147.493069 
L 235.974508 147.493069 
L 235.974508 142.930693 
L 236.136396 142.930693 
L 236.136396 138.368317 
L 236.340252 138.368317 
L 236.340252 133.805941 
L 236.636648 133.805941 
L 236.636648 129.243564 
L 236.781502 129.243564 
L 236.781502 124.681188 
L 237.162213 124.681188 
L 237.162213 120.118812 
L 238.259771 120.118812 
L 238.259771 115.556436 
L 238.691413 115.556436 
L 238.786169 101.869307 
L 239.376896 101.869307 
L 239.376896 97.306931 
L 239.6034 97.306931 
L 239.6034 92.744554 
L 240.143818 92.744554 
L 240.143818 88.182178 
L 240.816574 88.182178 
L 240.905079 79.057426 
L 241.461377 79.057426 
L 241.461377 74.49505 
L 245.485248 74.49505 
L 245.485248 69.932673 
L 246.656202 69.932673 
L 246.656202 65.370297 
L 248.632733 65.370297 
L 248.632733 60.807921 
L 249.739844 60.807921 
L 249.739844 56.245545 
L 254.044793 56.245545 
L 254.044793 51.683168 
L 264.297947 51.683168 
L 264.333674 42.558416 
L 264.624251 42.558416 
L 264.624251 37.99604 
L 269.566722 37.99604 
L 269.566722 33.433663 
L 277.203573 33.433663 
L 277.203573 28.871287 
L 278.481052 28.871287 
L 278.481052 24.308911 
L 284.100816 24.308911 
L 284.100816 19.746535 
L 284.951777 19.746535 
L 285.040186 10.621782 
L 285.040186 10.621782 
L 453.6 10.621782 
L 453.6 10.621782 
" style="fill:none;stroke:#00bfbf;stroke-linecap:square;"/>
   </g>
   <g id="line2d_6">
    <path clip-path="url(#p4a5cb50557)" d="M 181.028455 352.8 
L 181.028455 348.237624 
L 198.759251 348.237624 
L 198.759251 343.675248 
L 199.696465 343.675248 
L 199.769498 334.550495 
L 200.047951 334.550495 
L 200.047951 329.988119 
L 201.113009 329.988119 
L 201.113009 325.425743 
L 201.34232 325.425743 
L 201.34232 320.863366 
L 201.549727 320.863366 
L 201.549727 316.30099 
L 201.760644 316.30099 
L 201.760644 311.738614 
L 201.917511 311.738614 
L 201.917511 307.176238 
L 202.132478 307.176238 
L 202.132478 302.613861 
L 202.450552 302.613861 
L 202.450552 298.051485 
L 202.575287 298.051485 
L 202.575287 293.489109 
L 202.688811 293.489109 
L 202.688811 288.926733 
L 202.826291 288.926733 
L 202.919154 275.239604 
L 202.995223 275.239604 
L 202.995223 270.677228 
L 203.144252 270.677228 
L 203.144252 266.114851 
L 203.36694 266.114851 
L 203.450287 252.427723 
L 203.591102 252.427723 
L 203.591102 247.865347 
L 203.796278 247.865347 
L 203.90589 225.053465 
L 204.089708 225.053465 
L 204.089708 220.491089 
L 204.206707 220.491089 
L 204.206707 215.928713 
L 204.617564 215.928713 
L 204.668337 206.80396 
L 204.735203 206.80396 
L 204.735203 202.241584 
L 205.386874 202.241584 
L 205.386874 197.679208 
L 205.674813 197.679208 
L 205.674813 193.116832 
L 205.9951 193.116832 
L 205.9951 188.554455 
L 206.193903 188.554455 
L 206.193903 183.992079 
L 206.362047 183.992079 
L 206.362047 179.429703 
L 206.633042 179.429703 
L 206.633042 174.867327 
L 206.860689 174.867327 
L 206.860689 170.30495 
L 207.089751 170.30495 
L 207.128086 161.180198 
L 208.300045 161.180198 
L 208.300045 156.617822 
L 208.501734 156.617822 
L 208.501734 152.055446 
L 209.087633 152.055446 
L 209.137011 142.930693 
L 210.227284 142.930693 
L 210.227284 138.368317 
L 213.187117 138.368317 
L 213.187117 133.805941 
L 213.768253 133.805941 
L 213.768253 129.243564 
L 214.093558 129.243564 
L 214.093558 124.681188 
L 214.63906 124.681188 
L 214.63906 120.118812 
L 214.833221 120.118812 
L 214.833221 115.556436 
L 215.391558 115.556436 
L 215.391558 110.994059 
L 215.664639 110.994059 
L 215.664639 106.431683 
L 219.467797 106.431683 
L 219.467797 101.869307 
L 219.675117 101.869307 
L 219.675117 97.306931 
L 220.411449 97.306931 
L 220.411449 92.744554 
L 220.545905 92.744554 
L 220.545905 88.182178 
L 221.337238 88.182178 
L 221.337238 83.619802 
L 221.789783 83.619802 
L 221.872963 74.49505 
L 223.530258 74.49505 
L 223.530258 69.932673 
L 224.733699 69.932673 
L 224.737427 60.807921 
L 225.012198 60.807921 
L 225.012198 56.245545 
L 225.201352 56.245545 
L 225.201352 51.683168 
L 225.373095 51.683168 
L 225.373095 47.120792 
L 227.172139 47.120792 
L 227.205861 37.99604 
L 227.646621 37.99604 
L 227.646621 33.433663 
L 229.287171 33.433663 
L 229.287171 28.871287 
L 229.595294 28.871287 
L 229.595294 24.308911 
L 230.791769 24.308911 
L 230.791769 19.746535 
L 231.421817 19.746535 
L 231.421817 15.184158 
L 232.685022 15.184158 
L 232.685022 10.621782 
L 232.685022 10.621782 
L 453.6 10.621782 
L 453.6 10.621782 
" style="fill:none;stroke:#bf00bf;stroke-linecap:square;"/>
   </g>
   <g id="line2d_7">
    <path clip-path="url(#p4a5cb50557)" d="M -1 334.550495 
L 130.492845 334.550495 
L 130.492845 329.988119 
L 137.502891 329.988119 
L 137.502891 325.425743 
L 186.689027 325.425743 
L 186.689027 320.863366 
L 191.031404 320.863366 
L 191.031404 316.30099 
L 191.339471 316.30099 
L 191.442357 307.176238 
L 193.249573 307.176238 
L 193.279395 298.051485 
L 193.593775 298.051485 
L 193.593775 293.489109 
L 193.794461 293.489109 
L 193.794461 288.926733 
L 194.358419 288.926733 
L 194.358419 284.364356 
L 194.542682 284.364356 
L 194.542682 279.80198 
L 195.196082 279.80198 
L 195.196082 275.239604 
L 195.498783 275.239604 
L 195.538975 266.114851 
L 196.388135 266.114851 
L 196.388135 261.552475 
L 196.603764 261.552475 
L 196.603764 256.990099 
L 196.882761 256.990099 
L 196.882761 252.427723 
L 197.223819 252.427723 
L 197.223819 247.865347 
L 197.692433 247.865347 
L 197.799078 238.740594 
L 197.989422 238.740594 
L 197.989422 234.178218 
L 198.903962 234.178218 
L 198.903962 229.615842 
L 199.560912 229.615842 
L 199.657217 215.928713 
L 199.791669 215.928713 
L 199.791669 211.366337 
L 200.007514 211.366337 
L 200.007514 206.80396 
L 200.186152 206.80396 
L 200.186152 202.241584 
L 200.493707 202.241584 
L 200.493707 197.679208 
L 200.653755 197.679208 
L 200.677742 183.992079 
L 201.115131 183.992079 
L 201.115131 179.429703 
L 201.427191 179.429703 
L 201.427191 174.867327 
L 201.760644 174.867327 
L 201.782112 165.742574 
L 202.170241 165.742574 
L 202.170241 161.180198 
L 202.556355 161.180198 
L 202.575287 152.055446 
L 203.401715 152.055446 
L 203.401715 147.493069 
L 204.813837 147.493069 
L 204.813837 138.368317 
L 204.951732 138.368317 
L 204.951732 133.805941 
L 205.526802 133.805941 
L 205.526802 129.243564 
L 205.674813 129.243564 
L 205.674813 124.681188 
L 211.652216 124.681188 
L 211.672187 106.431683 
L 213.801228 106.431683 
L 213.801228 101.869307 
L 214.448591 101.869307 
L 214.448591 97.306931 
L 214.871225 97.306931 
L 214.871225 92.744554 
L 215.347517 92.744554 
L 215.393504 79.057426 
L 216.258055 79.057426 
L 216.273068 69.932673 
L 216.478126 69.932673 
L 216.478126 65.370297 
L 217.549181 65.370297 
L 217.549181 60.807921 
L 218.080926 60.807921 
L 218.133142 51.683168 
L 219.467797 51.683168 
L 219.467797 47.120792 
L 220.017804 47.120792 
L 220.017804 42.558416 
L 220.545905 42.558416 
L 220.545905 37.99604 
L 220.762991 37.99604 
L 220.762991 33.433663 
L 222.153282 33.433663 
L 222.153282 28.871287 
L 222.806599 28.871287 
L 222.806599 24.308911 
L 224.430265 24.308911 
L 224.430265 19.746535 
L 227.172139 19.746535 
L 227.172139 15.184158 
L 229.839501 15.184158 
L 229.839501 10.621782 
L 229.839501 10.621782 
L 453.6 10.621782 
L 453.6 10.621782 
" style="fill:none;stroke:#000000;stroke-linecap:square;"/>
   </g>
   <g id="line2d_8">
    <path clip-path="url(#p4a5cb50557)" d="M -1 343.675248 
L 7.098447 343.675248 
L 7.098447 325.425743 
L 186.586647 325.425743 
L 186.586647 320.863366 
L 191.029439 320.863366 
L 191.029439 316.30099 
L 191.339471 316.30099 
L 191.339471 302.613861 
L 193.176605 302.613861 
L 193.279395 284.364356 
L 193.438256 284.364356 
L 193.438256 279.80198 
L 193.593775 279.80198 
L 193.660876 270.677228 
L 193.812849 270.677228 
L 193.812849 266.114851 
L 194.358419 266.114851 
L 194.358419 261.552475 
L 194.499279 261.552475 
L 194.604121 247.865347 
L 195.196082 247.865347 
L 195.275858 238.740594 
L 195.498783 238.740594 
L 195.538975 229.615842 
L 196.021144 229.615842 
L 196.097815 220.491089 
L 196.19534 220.491089 
L 196.19534 215.928713 
L 196.480227 215.928713 
L 196.480227 211.366337 
L 196.988509 211.366337 
L 196.988509 206.80396 
L 197.223819 206.80396 
L 197.223819 202.241584 
L 197.405978 202.241584 
L 197.405978 197.679208 
L 197.63923 197.679208 
L 197.63923 193.116832 
L 197.799078 193.116832 
L 197.811927 183.992079 
L 199.238934 183.992079 
L 199.238934 179.429703 
L 199.418767 179.429703 
L 199.418767 174.867327 
L 199.657217 174.867327 
L 199.657217 165.742574 
L 200.004383 165.742574 
L 200.007514 156.617822 
L 201.115131 156.617822 
L 201.115131 152.055446 
L 202.170191 152.055446 
L 202.170191 147.493069 
L 203.401715 147.493069 
L 203.401715 142.930693 
L 204.813837 142.930693 
L 204.813839 129.243564 
L 205.526802 129.243564 
L 205.526802 124.681188 
L 205.674813 124.681188 
L 205.674813 120.118812 
L 208.719182 120.118812 
L 208.719182 115.556436 
L 209.05504 115.556436 
L 209.05504 110.994059 
L 209.514257 110.994059 
L 209.514257 106.431683 
L 210.87117 106.431683 
L 210.87117 101.869307 
L 211.319536 101.869307 
L 211.319536 97.306931 
L 211.652216 97.306931 
L 211.652216 83.619802 
L 212.651126 83.619802 
L 212.651126 79.057426 
L 213.220854 79.057426 
L 213.220854 74.49505 
L 213.801228 74.49505 
L 213.801228 69.932673 
L 214.448591 69.932673 
L 214.448591 65.370297 
L 215.347517 65.370297 
L 215.347517 56.245545 
L 216.478126 56.245545 
L 216.478126 51.683168 
L 216.856501 51.683168 
L 216.856501 47.120792 
L 217.935589 47.120792 
L 218.020255 37.99604 
L 218.147844 37.99604 
L 218.147844 33.433663 
L 218.357496 33.433663 
L 218.357496 28.871287 
L 218.538435 28.871287 
L 218.538435 24.308911 
L 219.045317 24.308911 
L 219.045317 19.746535 
L 227.172139 19.746535 
L 227.172139 15.184158 
L 229.839501 15.184158 
L 229.839501 10.621782 
L 229.839501 10.621782 
L 453.6 10.621782 
L 453.6 10.621782 
" style="fill:none;stroke:#00bfbf;stroke-linecap:square;"/>
   </g>
   <g id="line2d_9">
    <path clip-path="url(#p4a5cb50557)" d="M 7.098447 352.8 
L 7.098447 348.237624 
L 7.098447 348.237624 
L 7.098447 348.237624 
L 7.098447 343.675248 
L 7.098447 343.675248 
L 7.098447 343.675248 
L 7.098447 339.112871 
L 7.098447 339.112871 
L 7.098447 339.112871 
L 7.098447 334.550495 
L 7.098447 334.550495 
L 7.098447 334.550495 
L 7.098447 329.988119 
L 7.098447 329.988119 
L 7.098447 329.988119 
L 7.098447 325.425743 
L 180.379946 325.425743 
L 180.379946 320.863366 
L 181.637637 320.863366 
L 181.637637 316.30099 
L 184.548147 316.30099 
L 184.548147 311.738614 
L 186.586647 311.738614 
L 186.586647 307.176238 
L 186.756482 307.176238 
L 186.756482 302.613861 
L 189.528637 302.613861 
L 189.626361 293.489109 
L 190.091866 293.489109 
L 190.091866 288.926733 
L 190.210317 288.926733 
L 190.210317 284.364356 
L 190.547083 284.364356 
L 190.547083 279.80198 
L 190.777413 279.80198 
L 190.777413 275.239604 
L 190.954906 275.239604 
L 191.029439 266.114851 
L 191.339471 266.114851 
L 191.339471 252.427723 
L 191.737611 252.427723 
L 191.737611 247.865347 
L 192.370992 247.865347 
L 192.370992 243.30297 
L 192.839089 243.30297 
L 192.946013 234.178218 
L 193.279395 234.178218 
L 193.279395 229.615842 
L 193.660876 229.615842 
L 193.660876 225.053465 
L 194.358419 225.053465 
L 194.358419 220.491089 
L 194.549492 220.491089 
L 194.549492 215.928713 
L 195.196082 215.928713 
L 195.196082 211.366337 
L 195.538975 211.366337 
L 195.538975 206.80396 
L 196.480227 206.80396 
L 196.480227 202.241584 
L 196.988509 202.241584 
L 196.988509 197.679208 
L 197.223819 197.679208 
L 197.223819 193.116832 
L 197.63923 193.116832 
L 197.63923 188.554455 
L 197.799078 188.554455 
L 197.799078 183.992079 
L 199.224264 183.992079 
L 199.238934 174.867327 
L 199.418767 174.867327 
L 199.418767 170.30495 
L 199.657217 170.30495 
L 199.657217 161.180198 
L 200.004383 161.180198 
L 200.007514 152.055446 
L 201.115131 152.055446 
L 201.115131 147.493069 
L 202.170191 147.493069 
L 202.170191 142.930693 
L 203.401715 142.930693 
L 203.401715 138.368317 
L 203.934014 138.368317 
L 203.934014 133.805941 
L 204.813837 133.805941 
L 204.813837 120.118812 
L 205.526802 120.118812 
L 205.526802 115.556436 
L 205.674813 115.556436 
L 205.674813 110.994059 
L 206.227298 110.994059 
L 206.304427 101.869307 
L 207.373541 101.869307 
L 207.373541 97.306931 
L 208.206309 97.306931 
L 208.206309 92.744554 
L 209.187089 92.744554 
L 209.187089 88.182178 
L 211.652216 88.182178 
L 211.652216 74.49505 
L 213.801228 74.49505 
L 213.801228 69.932673 
L 214.223603 69.932673 
L 214.260396 60.807921 
L 214.448591 60.807921 
L 214.448591 56.245545 
L 215.347517 56.245545 
L 215.347517 47.120792 
L 215.609139 47.120792 
L 215.609139 42.558416 
L 216.321776 42.558416 
L 216.394144 33.433663 
L 216.478126 33.433663 
L 216.478126 28.871287 
L 216.765134 28.871287 
L 216.765134 24.308911 
L 217.742706 24.308911 
L 217.742706 19.746535 
L 227.172139 19.746535 
L 227.172139 15.184158 
L 229.839501 15.184158 
L 229.839501 10.621782 
L 229.839501 10.621782 
L 453.6 10.621782 
L 453.6 10.621782 
" style="fill:none;stroke:#bf00bf;stroke-linecap:square;"/>
   </g>
   <g id="patch_3">
    <path d="M 7.2 7.2 
L 453.6 7.2 
" style="fill:none;stroke:#000000;stroke-linecap:square;stroke-linejoin:miter;"/>
   </g>
   <g id="patch_4">
    <path d="M 453.6 352.8 
L 453.6 7.2 
" style="fill:none;stroke:#000000;stroke-linecap:square;stroke-linejoin:miter;"/>
   </g>
   <g id="patch_5">
    <path d="M 7.2 352.8 
L 453.6 352.8 
" style="fill:none;stroke:#000000;stroke-linecap:square;stroke-linejoin:miter;"/>
   </g>
   <g id="patch_6">
    <path d="M 7.2 352.8 
L 7.2 7.2 
" style="fill:none;stroke:#000000;stroke-linecap:square;stroke-linejoin:miter;"/>
   </g>
   <g id="matplotlib.axis_1">
    <g id="xtick_1"/>
    <g id="xtick_2">
     <g id="line2d_10">
      <path clip-path="url(#p4a5cb50557)" d="M 54.098611 352.8 
L 54.098611 7.2 
" style="fill:none;stroke:#000000;stroke-dasharray:1.000000,3.000000;stroke-dashoffset:0.0;stroke-width:0.5;"/>
     </g>
     <g id="line2d_11">
      <defs>
       <path d="M 0 0 
L 0 -4 
" id="m91007774d8" style="stroke:#000000;stroke-width:0.5;"/>
      </defs>
      <g>
       <use style="stroke:#000000;stroke-width:0.5;" x="54.0986107985" xlink:href="#m91007774d8" y="352.8"/>
      </g>
     </g>
     <g id="line2d_12">
      <defs>
       <path d="M 0 0 
L 0 4 
" id="m2302e21f67" style="stroke:#000000;stroke-width:0.5;"/>
      </defs>
      <g>
       <use style="stroke:#000000;stroke-width:0.5;" x="54.0986107985" xlink:href="#m2302e21f67" y="7.2"/>
      </g>
     </g>
     <g id="text_1">
      <!-- -6 -->
      <defs>
       <path d="M 33.015625 40.375 
Q 26.375 40.375 22.484375 35.828125 
Q 18.609375 31.296875 18.609375 23.390625 
Q 18.609375 15.53125 22.484375 10.953125 
Q 26.375 6.390625 33.015625 6.390625 
Q 39.65625 6.390625 43.53125 10.953125 
Q 47.40625 15.53125 47.40625 23.390625 
Q 47.40625 31.296875 43.53125 35.828125 
Q 39.65625 40.375 33.015625 40.375 
M 52.59375 71.296875 
L 52.59375 62.3125 
Q 48.875 64.0625 45.09375 64.984375 
Q 41.3125 65.921875 37.59375 65.921875 
Q 27.828125 65.921875 22.671875 59.328125 
Q 17.53125 52.734375 16.796875 39.40625 
Q 19.671875 43.65625 24.015625 45.921875 
Q 28.375 48.1875 33.59375 48.1875 
Q 44.578125 48.1875 50.953125 41.515625 
Q 57.328125 34.859375 57.328125 23.390625 
Q 57.328125 12.15625 50.6875 5.359375 
Q 44.046875 -1.421875 33.015625 -1.421875 
Q 20.359375 -1.421875 13.671875 8.265625 
Q 6.984375 17.96875 6.984375 36.375 
Q 6.984375 53.65625 15.1875 63.9375 
Q 23.390625 74.21875 37.203125 74.21875 
Q 40.921875 74.21875 44.703125 73.484375 
Q 48.484375 72.75 52.59375 71.296875 
" id="BitstreamVeraSans-Roman-36"/>
       <path d="M 4.890625 31.390625 
L 31.203125 31.390625 
L 31.203125 23.390625 
L 4.890625 23.390625 
z
" id="BitstreamVeraSans-Roman-2d"/>
      </defs>
      <g transform="translate(44.1282982985 371.996875)scale(0.2 -0.2)">
       <use xlink:href="#BitstreamVeraSans-Roman-2d"/>
       <use x="36.083984375" xlink:href="#BitstreamVeraSans-Roman-36"/>
      </g>
     </g>
    </g>
    <g id="xtick_3">
     <g id="line2d_13">
      <path clip-path="url(#p4a5cb50557)" d="M 101.098774 352.8 
L 101.098774 7.2 
" style="fill:none;stroke:#000000;stroke-dasharray:1.000000,3.000000;stroke-dashoffset:0.0;stroke-width:0.5;"/>
     </g>
     <g id="line2d_14">
      <g>
       <use style="stroke:#000000;stroke-width:0.5;" x="101.098774234" xlink:href="#m91007774d8" y="352.8"/>
      </g>
     </g>
     <g id="line2d_15">
      <g>
       <use style="stroke:#000000;stroke-width:0.5;" x="101.098774234" xlink:href="#m2302e21f67" y="7.2"/>
      </g>
     </g>
     <g id="text_2">
      <!-- -4 -->
      <defs>
       <path d="M 37.796875 64.3125 
L 12.890625 25.390625 
L 37.796875 25.390625 
z
M 35.203125 72.90625 
L 47.609375 72.90625 
L 47.609375 25.390625 
L 58.015625 25.390625 
L 58.015625 17.1875 
L 47.609375 17.1875 
L 47.609375 0 
L 37.796875 0 
L 37.796875 17.1875 
L 4.890625 17.1875 
L 4.890625 26.703125 
z
" id="BitstreamVeraSans-Roman-34"/>
      </defs>
      <g transform="translate(91.1284617339 371.996875)scale(0.2 -0.2)">
       <use xlink:href="#BitstreamVeraSans-Roman-2d"/>
       <use x="36.083984375" xlink:href="#BitstreamVeraSans-Roman-34"/>
      </g>
     </g>
    </g>
    <g id="xtick_4">
     <g id="line2d_16">
      <path clip-path="url(#p4a5cb50557)" d="M 148.098938 352.8 
L 148.098938 7.2 
" style="fill:none;stroke:#000000;stroke-dasharray:1.000000,3.000000;stroke-dashoffset:0.0;stroke-width:0.5;"/>
     </g>
     <g id="line2d_17">
      <g>
       <use style="stroke:#000000;stroke-width:0.5;" x="148.098937669" xlink:href="#m91007774d8" y="352.8"/>
      </g>
     </g>
     <g id="line2d_18">
      <g>
       <use style="stroke:#000000;stroke-width:0.5;" x="148.098937669" xlink:href="#m2302e21f67" y="7.2"/>
      </g>
     </g>
     <g id="text_3">
      <!-- -2 -->
      <defs>
       <path d="M 19.1875 8.296875 
L 53.609375 8.296875 
L 53.609375 0 
L 7.328125 0 
L 7.328125 8.296875 
Q 12.9375 14.109375 22.625 23.890625 
Q 32.328125 33.6875 34.8125 36.53125 
Q 39.546875 41.84375 41.421875 45.53125 
Q 43.3125 49.21875 43.3125 52.78125 
Q 43.3125 58.59375 39.234375 62.25 
Q 35.15625 65.921875 28.609375 65.921875 
Q 23.96875 65.921875 18.8125 64.3125 
Q 13.671875 62.703125 7.8125 59.421875 
L 7.8125 69.390625 
Q 13.765625 71.78125 18.9375 73 
Q 24.125 74.21875 28.421875 74.21875 
Q 39.75 74.21875 46.484375 68.546875 
Q 53.21875 62.890625 53.21875 53.421875 
Q 53.21875 48.921875 51.53125 44.890625 
Q 49.859375 40.875 45.40625 35.40625 
Q 44.1875 33.984375 37.640625 27.21875 
Q 31.109375 20.453125 19.1875 8.296875 
" id="BitstreamVeraSans-Roman-32"/>
      </defs>
      <g transform="translate(138.128625169 371.996875)scale(0.2 -0.2)">
       <use xlink:href="#BitstreamVeraSans-Roman-2d"/>
       <use x="36.083984375" xlink:href="#BitstreamVeraSans-Roman-32"/>
      </g>
     </g>
    </g>
    <g id="xtick_5">
     <g id="line2d_19">
      <path clip-path="url(#p4a5cb50557)" d="M 195.099101 352.8 
L 195.099101 7.2 
" style="fill:none;stroke:#000000;stroke-dasharray:1.000000,3.000000;stroke-dashoffset:0.0;stroke-width:0.5;"/>
     </g>
     <g id="line2d_20">
      <g>
       <use style="stroke:#000000;stroke-width:0.5;" x="195.099101105" xlink:href="#m91007774d8" y="352.8"/>
      </g>
     </g>
     <g id="line2d_21">
      <g>
       <use style="stroke:#000000;stroke-width:0.5;" x="195.099101105" xlink:href="#m2302e21f67" y="7.2"/>
      </g>
     </g>
     <g id="text_4">
      <!-- 0 -->
      <defs>
       <path d="M 31.78125 66.40625 
Q 24.171875 66.40625 20.328125 58.90625 
Q 16.5 51.421875 16.5 36.375 
Q 16.5 21.390625 20.328125 13.890625 
Q 24.171875 6.390625 31.78125 6.390625 
Q 39.453125 6.390625 43.28125 13.890625 
Q 47.125 21.390625 47.125 36.375 
Q 47.125 51.421875 43.28125 58.90625 
Q 39.453125 66.40625 31.78125 66.40625 
M 31.78125 74.21875 
Q 44.046875 74.21875 50.515625 64.515625 
Q 56.984375 54.828125 56.984375 36.375 
Q 56.984375 17.96875 50.515625 8.265625 
Q 44.046875 -1.421875 31.78125 -1.421875 
Q 19.53125 -1.421875 13.0625 8.265625 
Q 6.59375 17.96875 6.59375 36.375 
Q 6.59375 54.828125 13.0625 64.515625 
Q 19.53125 74.21875 31.78125 74.21875 
" id="BitstreamVeraSans-Roman-30"/>
      </defs>
      <g transform="translate(188.736601105 371.996875)scale(0.2 -0.2)">
       <use xlink:href="#BitstreamVeraSans-Roman-30"/>
      </g>
     </g>
    </g>
    <g id="xtick_6">
     <g id="line2d_22">
      <path clip-path="url(#p4a5cb50557)" d="M 242.099265 352.8 
L 242.099265 7.2 
" style="fill:none;stroke:#000000;stroke-dasharray:1.000000,3.000000;stroke-dashoffset:0.0;stroke-width:0.5;"/>
     </g>
     <g id="line2d_23">
      <g>
       <use style="stroke:#000000;stroke-width:0.5;" x="242.09926454" xlink:href="#m91007774d8" y="352.8"/>
      </g>
     </g>
     <g id="line2d_24">
      <g>
       <use style="stroke:#000000;stroke-width:0.5;" x="242.09926454" xlink:href="#m2302e21f67" y="7.2"/>
      </g>
     </g>
     <g id="text_5">
      <!-- 2 -->
      <g transform="translate(235.73676454 371.996875)scale(0.2 -0.2)">
       <use xlink:href="#BitstreamVeraSans-Roman-32"/>
      </g>
     </g>
    </g>
    <g id="xtick_7">
     <g id="line2d_25">
      <path clip-path="url(#p4a5cb50557)" d="M 289.099428 352.8 
L 289.099428 7.2 
" style="fill:none;stroke:#000000;stroke-dasharray:1.000000,3.000000;stroke-dashoffset:0.0;stroke-width:0.5;"/>
     </g>
     <g id="line2d_26">
      <g>
       <use style="stroke:#000000;stroke-width:0.5;" x="289.099427976" xlink:href="#m91007774d8" y="352.8"/>
      </g>
     </g>
     <g id="line2d_27">
      <g>
       <use style="stroke:#000000;stroke-width:0.5;" x="289.099427976" xlink:href="#m2302e21f67" y="7.2"/>
      </g>
     </g>
     <g id="text_6">
      <!-- 4 -->
      <g transform="translate(282.736927976 371.996875)scale(0.2 -0.2)">
       <use xlink:href="#BitstreamVeraSans-Roman-34"/>
      </g>
     </g>
    </g>
    <g id="xtick_8">
     <g id="line2d_28">
      <path clip-path="url(#p4a5cb50557)" d="M 336.099591 352.8 
L 336.099591 7.2 
" style="fill:none;stroke:#000000;stroke-dasharray:1.000000,3.000000;stroke-dashoffset:0.0;stroke-width:0.5;"/>
     </g>
     <g id="line2d_29">
      <g>
       <use style="stroke:#000000;stroke-width:0.5;" x="336.099591411" xlink:href="#m91007774d8" y="352.8"/>
      </g>
     </g>
     <g id="line2d_30">
      <g>
       <use style="stroke:#000000;stroke-width:0.5;" x="336.099591411" xlink:href="#m2302e21f67" y="7.2"/>
      </g>
     </g>
     <g id="text_7">
      <!-- 6 -->
      <g transform="translate(329.737091411 371.996875)scale(0.2 -0.2)">
       <use xlink:href="#BitstreamVeraSans-Roman-36"/>
      </g>
     </g>
    </g>
    <g id="xtick_9">
     <g id="line2d_31">
      <path clip-path="url(#p4a5cb50557)" d="M 383.099755 352.8 
L 383.099755 7.2 
" style="fill:none;stroke:#000000;stroke-dasharray:1.000000,3.000000;stroke-dashoffset:0.0;stroke-width:0.5;"/>
     </g>
     <g id="line2d_32">
      <g>
       <use style="stroke:#000000;stroke-width:0.5;" x="383.099754847" xlink:href="#m91007774d8" y="352.8"/>
      </g>
     </g>
     <g id="line2d_33">
      <g>
       <use style="stroke:#000000;stroke-width:0.5;" x="383.099754847" xlink:href="#m2302e21f67" y="7.2"/>
      </g>
     </g>
     <g id="text_8">
      <!-- 8 -->
      <defs>
       <path d="M 31.78125 34.625 
Q 24.75 34.625 20.71875 30.859375 
Q 16.703125 27.09375 16.703125 20.515625 
Q 16.703125 13.921875 20.71875 10.15625 
Q 24.75 6.390625 31.78125 6.390625 
Q 38.8125 6.390625 42.859375 10.171875 
Q 46.921875 13.96875 46.921875 20.515625 
Q 46.921875 27.09375 42.890625 30.859375 
Q 38.875 34.625 31.78125 34.625 
M 21.921875 38.8125 
Q 15.578125 40.375 12.03125 44.71875 
Q 8.5 49.078125 8.5 55.328125 
Q 8.5 64.0625 14.71875 69.140625 
Q 20.953125 74.21875 31.78125 74.21875 
Q 42.671875 74.21875 48.875 69.140625 
Q 55.078125 64.0625 55.078125 55.328125 
Q 55.078125 49.078125 51.53125 44.71875 
Q 48 40.375 41.703125 38.8125 
Q 48.828125 37.15625 52.796875 32.3125 
Q 56.78125 27.484375 56.78125 20.515625 
Q 56.78125 9.90625 50.3125 4.234375 
Q 43.84375 -1.421875 31.78125 -1.421875 
Q 19.734375 -1.421875 13.25 4.234375 
Q 6.78125 9.90625 6.78125 20.515625 
Q 6.78125 27.484375 10.78125 32.3125 
Q 14.796875 37.15625 21.921875 38.8125 
M 18.3125 54.390625 
Q 18.3125 48.734375 21.84375 45.5625 
Q 25.390625 42.390625 31.78125 42.390625 
Q 38.140625 42.390625 41.71875 45.5625 
Q 45.3125 48.734375 45.3125 54.390625 
Q 45.3125 60.0625 41.71875 63.234375 
Q 38.140625 66.40625 31.78125 66.40625 
Q 25.390625 66.40625 21.84375 63.234375 
Q 18.3125 60.0625 18.3125 54.390625 
" id="BitstreamVeraSans-Roman-38"/>
      </defs>
      <g transform="translate(376.737254847 371.996875)scale(0.2 -0.2)">
       <use xlink:href="#BitstreamVeraSans-Roman-38"/>
      </g>
     </g>
    </g>
    <g id="xtick_10">
     <g id="line2d_34">
      <path clip-path="url(#p4a5cb50557)" d="M 430.099918 352.8 
L 430.099918 7.2 
" style="fill:none;stroke:#000000;stroke-dasharray:1.000000,3.000000;stroke-dashoffset:0.0;stroke-width:0.5;"/>
     </g>
     <g id="line2d_35">
      <g>
       <use style="stroke:#000000;stroke-width:0.5;" x="430.099918282" xlink:href="#m91007774d8" y="352.8"/>
      </g>
     </g>
     <g id="line2d_36">
      <g>
       <use style="stroke:#000000;stroke-width:0.5;" x="430.099918282" xlink:href="#m2302e21f67" y="7.2"/>
      </g>
     </g>
     <g id="text_9">
      <!-- 10 -->
      <defs>
       <path d="M 12.40625 8.296875 
L 28.515625 8.296875 
L 28.515625 63.921875 
L 10.984375 60.40625 
L 10.984375 69.390625 
L 28.421875 72.90625 
L 38.28125 72.90625 
L 38.28125 8.296875 
L 54.390625 8.296875 
L 54.390625 0 
L 12.40625 0 
z
" id="BitstreamVeraSans-Roman-31"/>
      </defs>
      <g transform="translate(417.374918282 371.996875)scale(0.2 -0.2)">
       <use xlink:href="#BitstreamVeraSans-Roman-31"/>
       <use x="63.623046875" xlink:href="#BitstreamVeraSans-Roman-30"/>
      </g>
     </g>
    </g>
    <g id="xtick_11"/>
    <g id="xtick_12">
     <g id="line2d_37">
      <defs>
       <path d="M 0 0 
L 0 -2 
" id="mdf42c2e5c5" style="stroke:#000000;stroke-width:0.5;"/>
      </defs>
      <g>
       <use style="stroke:#000000;stroke-width:0.5;" x="54.0986107985" xlink:href="#mdf42c2e5c5" y="352.8"/>
      </g>
     </g>
     <g id="line2d_38">
      <defs>
       <path d="M 0 0 
L 0 2 
" id="m45e86351b1" style="stroke:#000000;stroke-width:0.5;"/>
      </defs>
      <g>
       <use style="stroke:#000000;stroke-width:0.5;" x="54.0986107985" xlink:href="#m45e86351b1" y="7.2"/>
      </g>
     </g>
    </g>
    <g id="xtick_13">
     <g id="line2d_39">
      <g>
       <use style="stroke:#000000;stroke-width:0.5;" x="101.098774234" xlink:href="#mdf42c2e5c5" y="352.8"/>
      </g>
     </g>
     <g id="line2d_40">
      <g>
       <use style="stroke:#000000;stroke-width:0.5;" x="101.098774234" xlink:href="#m45e86351b1" y="7.2"/>
      </g>
     </g>
    </g>
    <g id="xtick_14">
     <g id="line2d_41">
      <g>
       <use style="stroke:#000000;stroke-width:0.5;" x="148.098937669" xlink:href="#mdf42c2e5c5" y="352.8"/>
      </g>
     </g>
     <g id="line2d_42">
      <g>
       <use style="stroke:#000000;stroke-width:0.5;" x="148.098937669" xlink:href="#m45e86351b1" y="7.2"/>
      </g>
     </g>
    </g>
    <g id="xtick_15">
     <g id="line2d_43">
      <g>
       <use style="stroke:#000000;stroke-width:0.5;" x="195.099101105" xlink:href="#mdf42c2e5c5" y="352.8"/>
      </g>
     </g>
     <g id="line2d_44">
      <g>
       <use style="stroke:#000000;stroke-width:0.5;" x="195.099101105" xlink:href="#m45e86351b1" y="7.2"/>
      </g>
     </g>
    </g>
    <g id="xtick_16">
     <g id="line2d_45">
      <g>
       <use style="stroke:#000000;stroke-width:0.5;" x="242.09926454" xlink:href="#mdf42c2e5c5" y="352.8"/>
      </g>
     </g>
     <g id="line2d_46">
      <g>
       <use style="stroke:#000000;stroke-width:0.5;" x="242.09926454" xlink:href="#m45e86351b1" y="7.2"/>
      </g>
     </g>
    </g>
    <g id="xtick_17">
     <g id="line2d_47">
      <g>
       <use style="stroke:#000000;stroke-width:0.5;" x="289.099427976" xlink:href="#mdf42c2e5c5" y="352.8"/>
      </g>
     </g>
     <g id="line2d_48">
      <g>
       <use style="stroke:#000000;stroke-width:0.5;" x="289.099427976" xlink:href="#m45e86351b1" y="7.2"/>
      </g>
     </g>
    </g>
    <g id="xtick_18">
     <g id="line2d_49">
      <g>
       <use style="stroke:#000000;stroke-width:0.5;" x="336.099591411" xlink:href="#mdf42c2e5c5" y="352.8"/>
      </g>
     </g>
     <g id="line2d_50">
      <g>
       <use style="stroke:#000000;stroke-width:0.5;" x="336.099591411" xlink:href="#m45e86351b1" y="7.2"/>
      </g>
     </g>
    </g>
    <g id="xtick_19">
     <g id="line2d_51">
      <g>
       <use style="stroke:#000000;stroke-width:0.5;" x="383.099754847" xlink:href="#mdf42c2e5c5" y="352.8"/>
      </g>
     </g>
     <g id="line2d_52">
      <g>
       <use style="stroke:#000000;stroke-width:0.5;" x="383.099754847" xlink:href="#m45e86351b1" y="7.2"/>
      </g>
     </g>
    </g>
    <g id="xtick_20">
     <g id="line2d_53">
      <g>
       <use style="stroke:#000000;stroke-width:0.5;" x="430.099918282" xlink:href="#mdf42c2e5c5" y="352.8"/>
      </g>
     </g>
     <g id="line2d_54">
      <g>
       <use style="stroke:#000000;stroke-width:0.5;" x="430.099918282" xlink:href="#m45e86351b1" y="7.2"/>
      </g>
     </g>
    </g>
    <g id="text_10">
     <!-- log10 of Df -->
     <defs>
      <path id="BitstreamVeraSans-Roman-20"/>
      <path d="M 30.609375 48.390625 
Q 23.390625 48.390625 19.1875 42.75 
Q 14.984375 37.109375 14.984375 27.296875 
Q 14.984375 17.484375 19.15625 11.84375 
Q 23.34375 6.203125 30.609375 6.203125 
Q 37.796875 6.203125 41.984375 11.859375 
Q 46.1875 17.53125 46.1875 27.296875 
Q 46.1875 37.015625 41.984375 42.703125 
Q 37.796875 48.390625 30.609375 48.390625 
M 30.609375 56 
Q 42.328125 56 49.015625 48.375 
Q 55.71875 40.765625 55.71875 27.296875 
Q 55.71875 13.875 49.015625 6.21875 
Q 42.328125 -1.421875 30.609375 -1.421875 
Q 18.84375 -1.421875 12.171875 6.21875 
Q 5.515625 13.875 5.515625 27.296875 
Q 5.515625 40.765625 12.171875 48.375 
Q 18.84375 56 30.609375 56 
" id="BitstreamVeraSans-Roman-6f"/>
      <path d="M 9.421875 75.984375 
L 18.40625 75.984375 
L 18.40625 0 
L 9.421875 0 
z
" id="BitstreamVeraSans-Roman-6c"/>
      <path d="M 19.671875 64.796875 
L 19.671875 8.109375 
L 31.59375 8.109375 
Q 46.6875 8.109375 53.6875 14.9375 
Q 60.6875 21.78125 60.6875 36.53125 
Q 60.6875 51.171875 53.6875 57.984375 
Q 46.6875 64.796875 31.59375 64.796875 
z
M 9.8125 72.90625 
L 30.078125 72.90625 
Q 51.265625 72.90625 61.171875 64.09375 
Q 71.09375 55.28125 71.09375 36.53125 
Q 71.09375 17.671875 61.125 8.828125 
Q 51.171875 0 30.078125 0 
L 9.8125 0 
z
" id="BitstreamVeraSans-Roman-44"/>
      <path d="M 45.40625 27.984375 
Q 45.40625 37.75 41.375 43.109375 
Q 37.359375 48.484375 30.078125 48.484375 
Q 22.859375 48.484375 18.828125 43.109375 
Q 14.796875 37.75 14.796875 27.984375 
Q 14.796875 18.265625 18.828125 12.890625 
Q 22.859375 7.515625 30.078125 7.515625 
Q 37.359375 7.515625 41.375 12.890625 
Q 45.40625 18.265625 45.40625 27.984375 
M 54.390625 6.78125 
Q 54.390625 -7.171875 48.1875 -13.984375 
Q 42 -20.796875 29.203125 -20.796875 
Q 24.46875 -20.796875 20.265625 -20.09375 
Q 16.0625 -19.390625 12.109375 -17.921875 
L 12.109375 -9.1875 
Q 16.0625 -11.328125 19.921875 -12.34375 
Q 23.78125 -13.375 27.78125 -13.375 
Q 36.625 -13.375 41.015625 -8.765625 
Q 45.40625 -4.15625 45.40625 5.171875 
L 45.40625 9.625 
Q 42.625 4.78125 38.28125 2.390625 
Q 33.9375 0 27.875 0 
Q 17.828125 0 11.671875 7.65625 
Q 5.515625 15.328125 5.515625 27.984375 
Q 5.515625 40.671875 11.671875 48.328125 
Q 17.828125 56 27.875 56 
Q 33.9375 56 38.28125 53.609375 
Q 42.625 51.21875 45.40625 46.390625 
L 45.40625 54.6875 
L 54.390625 54.6875 
z
" id="BitstreamVeraSans-Roman-67"/>
      <path d="M 37.109375 75.984375 
L 37.109375 68.5 
L 28.515625 68.5 
Q 23.6875 68.5 21.796875 66.546875 
Q 19.921875 64.59375 19.921875 59.515625 
L 19.921875 54.6875 
L 34.71875 54.6875 
L 34.71875 47.703125 
L 19.921875 47.703125 
L 19.921875 0 
L 10.890625 0 
L 10.890625 47.703125 
L 2.296875 47.703125 
L 2.296875 54.6875 
L 10.890625 54.6875 
L 10.890625 58.5 
Q 10.890625 67.625 15.140625 71.796875 
Q 19.390625 75.984375 28.609375 75.984375 
z
" id="BitstreamVeraSans-Roman-66"/>
     </defs>
     <g transform="translate(175.2140625 396.353125)scale(0.2 -0.2)">
      <use xlink:href="#BitstreamVeraSans-Roman-6c"/>
      <use x="27.783203125" xlink:href="#BitstreamVeraSans-Roman-6f"/>
      <use x="88.96484375" xlink:href="#BitstreamVeraSans-Roman-67"/>
      <use x="152.44140625" xlink:href="#BitstreamVeraSans-Roman-31"/>
      <use x="216.064453125" xlink:href="#BitstreamVeraSans-Roman-30"/>
      <use x="279.6875" xlink:href="#BitstreamVeraSans-Roman-20"/>
      <use x="311.474609375" xlink:href="#BitstreamVeraSans-Roman-6f"/>
      <use x="372.65625" xlink:href="#BitstreamVeraSans-Roman-66"/>
      <use x="407.861328125" xlink:href="#BitstreamVeraSans-Roman-20"/>
      <use x="439.6484375" xlink:href="#BitstreamVeraSans-Roman-44"/>
      <use x="516.650390625" xlink:href="#BitstreamVeraSans-Roman-66"/>
     </g>
    </g>
   </g>
   <g id="matplotlib.axis_2">
    <g id="ytick_1">
     <g id="line2d_55">
      <path clip-path="url(#p4a5cb50557)" d="M 7.2 352.8 
L 453.6 352.8 
" style="fill:none;stroke:#000000;stroke-dasharray:1.000000,3.000000;stroke-dashoffset:0.0;stroke-width:0.5;"/>
     </g>
     <g id="line2d_56">
      <defs>
       <path d="M 0 0 
L 4 0 
" id="ma1038025f4" style="stroke:#000000;stroke-width:0.5;"/>
      </defs>
      <g>
       <use style="stroke:#000000;stroke-width:0.5;" x="7.2" xlink:href="#ma1038025f4" y="352.8"/>
      </g>
     </g>
     <g id="line2d_57">
      <defs>
       <path d="M 0 0 
L -4 0 
" id="md6ff454a29" style="stroke:#000000;stroke-width:0.5;"/>
      </defs>
      <g>
       <use style="stroke:#000000;stroke-width:0.5;" x="453.6" xlink:href="#md6ff454a29" y="352.8"/>
      </g>
     </g>
    </g>
    <g id="ytick_2">
     <g id="line2d_58">
      <path clip-path="url(#p4a5cb50557)" d="M 7.2 284.364356 
L 453.6 284.364356 
" style="fill:none;stroke:#000000;stroke-dasharray:1.000000,3.000000;stroke-dashoffset:0.0;stroke-width:0.5;"/>
     </g>
     <g id="line2d_59">
      <g>
       <use style="stroke:#000000;stroke-width:0.5;" x="7.2" xlink:href="#ma1038025f4" y="284.364356436"/>
      </g>
     </g>
     <g id="line2d_60">
      <g>
       <use style="stroke:#000000;stroke-width:0.5;" x="453.6" xlink:href="#md6ff454a29" y="284.364356436"/>
      </g>
     </g>
    </g>
    <g id="ytick_3">
     <g id="line2d_61">
      <path clip-path="url(#p4a5cb50557)" d="M 7.2 215.928713 
L 453.6 215.928713 
" style="fill:none;stroke:#000000;stroke-dasharray:1.000000,3.000000;stroke-dashoffset:0.0;stroke-width:0.5;"/>
     </g>
     <g id="line2d_62">
      <g>
       <use style="stroke:#000000;stroke-width:0.5;" x="7.2" xlink:href="#ma1038025f4" y="215.928712871"/>
      </g>
     </g>
     <g id="line2d_63">
      <g>
       <use style="stroke:#000000;stroke-width:0.5;" x="453.6" xlink:href="#md6ff454a29" y="215.928712871"/>
      </g>
     </g>
    </g>
    <g id="ytick_4">
     <g id="line2d_64">
      <path clip-path="url(#p4a5cb50557)" d="M 7.2 147.493069 
L 453.6 147.493069 
" style="fill:none;stroke:#000000;stroke-dasharray:1.000000,3.000000;stroke-dashoffset:0.0;stroke-width:0.5;"/>
     </g>
     <g id="line2d_65">
      <g>
       <use style="stroke:#000000;stroke-width:0.5;" x="7.2" xlink:href="#ma1038025f4" y="147.493069307"/>
      </g>
     </g>
     <g id="line2d_66">
      <g>
       <use style="stroke:#000000;stroke-width:0.5;" x="453.6" xlink:href="#md6ff454a29" y="147.493069307"/>
      </g>
     </g>
    </g>
    <g id="ytick_5">
     <g id="line2d_67">
      <path clip-path="url(#p4a5cb50557)" d="M 7.2 79.057426 
L 453.6 79.057426 
" style="fill:none;stroke:#000000;stroke-dasharray:1.000000,3.000000;stroke-dashoffset:0.0;stroke-width:0.5;"/>
     </g>
     <g id="line2d_68">
      <g>
       <use style="stroke:#000000;stroke-width:0.5;" x="7.2" xlink:href="#ma1038025f4" y="79.0574257426"/>
      </g>
     </g>
     <g id="line2d_69">
      <g>
       <use style="stroke:#000000;stroke-width:0.5;" x="453.6" xlink:href="#md6ff454a29" y="79.0574257426"/>
      </g>
     </g>
    </g>
    <g id="ytick_6">
     <g id="line2d_70">
      <path clip-path="url(#p4a5cb50557)" d="M 7.2 10.621782 
L 453.6 10.621782 
" style="fill:none;stroke:#000000;stroke-dasharray:1.000000,3.000000;stroke-dashoffset:0.0;stroke-width:0.5;"/>
     </g>
     <g id="line2d_71">
      <g>
       <use style="stroke:#000000;stroke-width:0.5;" x="7.2" xlink:href="#ma1038025f4" y="10.6217821782"/>
      </g>
     </g>
     <g id="line2d_72">
      <g>
       <use style="stroke:#000000;stroke-width:0.5;" x="453.6" xlink:href="#md6ff454a29" y="10.6217821782"/>
      </g>
     </g>
    </g>
   </g>
   <g id="text_11">
    <!-- {f20-f24}, 5-D -->
    <defs>
     <path d="M 12.5 -9.28125 
L 15.921875 -9.28125 
Q 22.75 -9.28125 24.828125 -7.171875 
Q 26.90625 -5.078125 26.90625 1.90625 
L 26.90625 14.015625 
Q 26.90625 21.625 29.09375 25.09375 
Q 31.296875 28.5625 36.71875 29.890625 
Q 31.296875 31.109375 29.09375 34.5625 
Q 26.90625 38.03125 26.90625 45.703125 
L 26.90625 57.8125 
Q 26.90625 64.75 24.828125 66.875 
Q 22.75 69 15.921875 69 
L 12.5 69 
L 12.5 75.984375 
L 15.578125 75.984375 
Q 27.734375 75.984375 31.8125 72.390625 
Q 35.890625 68.796875 35.890625 58.015625 
L 35.890625 46.296875 
Q 35.890625 39.015625 38.515625 36.203125 
Q 41.15625 33.40625 48.09375 33.40625 
L 51.125 33.40625 
L 51.125 26.421875 
L 48.09375 26.421875 
Q 41.15625 26.421875 38.515625 23.578125 
Q 35.890625 20.75 35.890625 13.375 
L 35.890625 1.703125 
Q 35.890625 -9.078125 31.8125 -12.6875 
Q 27.734375 -16.3125 15.578125 -16.3125 
L 12.5 -16.3125 
z
" id="BitstreamVeraSans-Roman-7d"/>
     <path d="M 51.125 -9.28125 
L 51.125 -16.3125 
L 48.09375 -16.3125 
Q 35.9375 -16.3125 31.8125 -12.6875 
Q 27.6875 -9.078125 27.6875 1.703125 
L 27.6875 13.375 
Q 27.6875 20.75 25.046875 23.578125 
Q 22.40625 26.421875 15.484375 26.421875 
L 12.5 26.421875 
L 12.5 33.40625 
L 15.484375 33.40625 
Q 22.46875 33.40625 25.078125 36.203125 
Q 27.6875 39.015625 27.6875 46.296875 
L 27.6875 58.015625 
Q 27.6875 68.796875 31.8125 72.390625 
Q 35.9375 75.984375 48.09375 75.984375 
L 51.125 75.984375 
L 51.125 69 
L 47.796875 69 
Q 40.921875 69 38.8125 66.84375 
Q 36.71875 64.703125 36.71875 57.8125 
L 36.71875 45.703125 
Q 36.71875 38.03125 34.5 34.5625 
Q 32.28125 31.109375 26.90625 29.890625 
Q 32.328125 28.5625 34.515625 25.09375 
Q 36.71875 21.625 36.71875 14.015625 
L 36.71875 1.90625 
Q 36.71875 -4.984375 38.8125 -7.125 
Q 40.921875 -9.28125 47.796875 -9.28125 
z
" id="BitstreamVeraSans-Roman-7b"/>
     <path d="M 11.71875 12.40625 
L 22.015625 12.40625 
L 22.015625 4 
L 14.015625 -11.625 
L 7.71875 -11.625 
L 11.71875 4 
z
" id="BitstreamVeraSans-Roman-2c"/>
     <path d="M 10.796875 72.90625 
L 49.515625 72.90625 
L 49.515625 64.59375 
L 19.828125 64.59375 
L 19.828125 46.734375 
Q 21.96875 47.46875 24.109375 47.828125 
Q 26.265625 48.1875 28.421875 48.1875 
Q 40.625 48.1875 47.75 41.5 
Q 54.890625 34.8125 54.890625 23.390625 
Q 54.890625 11.625 47.5625 5.09375 
Q 40.234375 -1.421875 26.90625 -1.421875 
Q 22.3125 -1.421875 17.546875 -0.640625 
Q 12.796875 0.140625 7.71875 1.703125 
L 7.71875 11.625 
Q 12.109375 9.234375 16.796875 8.0625 
Q 21.484375 6.890625 26.703125 6.890625 
Q 35.15625 6.890625 40.078125 11.328125 
Q 45.015625 15.765625 45.015625 23.390625 
Q 45.015625 31 40.078125 35.4375 
Q 35.15625 39.890625 26.703125 39.890625 
Q 22.75 39.890625 18.8125 39.015625 
Q 14.890625 38.140625 10.796875 36.28125 
z
" id="BitstreamVeraSans-Roman-35"/>
    </defs>
    <g transform="translate(298.972 345.888)scale(0.2 -0.2)">
     <use xlink:href="#BitstreamVeraSans-Roman-7b"/>
     <use x="63.623046875" xlink:href="#BitstreamVeraSans-Roman-66"/>
     <use x="98.828125" xlink:href="#BitstreamVeraSans-Roman-32"/>
     <use x="162.451171875" xlink:href="#BitstreamVeraSans-Roman-30"/>
     <use x="226.07421875" xlink:href="#BitstreamVeraSans-Roman-2d"/>
     <use x="262.158203125" xlink:href="#BitstreamVeraSans-Roman-66"/>
     <use x="297.36328125" xlink:href="#BitstreamVeraSans-Roman-32"/>
     <use x="360.986328125" xlink:href="#BitstreamVeraSans-Roman-34"/>
     <use x="424.609375" xlink:href="#BitstreamVeraSans-Roman-7d"/>
     <use x="488.232421875" xlink:href="#BitstreamVeraSans-Roman-2c"/>
     <use x="520.01953125" xlink:href="#BitstreamVeraSans-Roman-20"/>
     <use x="551.806640625" xlink:href="#BitstreamVeraSans-Roman-35"/>
     <use x="615.4296875" xlink:href="#BitstreamVeraSans-Roman-2d"/>
     <use x="651.513671875" xlink:href="#BitstreamVeraSans-Roman-44"/>
    </g>
   </g>
   <g id="text_12">
    <!-- 0.0.0 -->
    <defs>
     <path d="M 10.6875 12.40625 
L 21 12.40625 
L 21 0 
L 10.6875 0 
z
" id="BitstreamVeraSans-Roman-2e"/>
    </defs>
    <g style="fill:#808080;" transform="translate(217.678125 347.2643125)scale(0.1 -0.1)">
     <use xlink:href="#BitstreamVeraSans-Roman-30"/>
     <use x="63.623046875" xlink:href="#BitstreamVeraSans-Roman-2e"/>
     <use x="95.41015625" xlink:href="#BitstreamVeraSans-Roman-30"/>
     <use x="159.033203125" xlink:href="#BitstreamVeraSans-Roman-2e"/>
     <use x="190.8203125" xlink:href="#BitstreamVeraSans-Roman-30"/>
    </g>
   </g>
  </g>
 </g>
 <defs>
  <clipPath id="p4a5cb50557">
   <rect height="345.6" width="446.4" x="7.2" y="7.2"/>
  </clipPath>
 </defs>
</svg>
