<?xml version="1.0" encoding="utf-8" standalone="no"?>
<!DOCTYPE svg PUBLIC "-//W3C//DTD SVG 1.1//EN"
  "http://www.w3.org/Graphics/SVG/1.1/DTD/svg11.dtd">
<!-- Created with matplotlib (http://matplotlib.org/) -->
<svg height="407pt" version="1.1" viewBox="0 0 460 407" width="460pt" xmlns="http://www.w3.org/2000/svg" xmlns:xlink="http://www.w3.org/1999/xlink">
 <defs>
  <style type="text/css">
*{stroke-linecap:butt;stroke-linejoin:round;stroke-miterlimit:100000;}
  </style>
 </defs>
 <g id="figure_1">
  <g id="patch_1">
   <path d="M 0 407.7125 
L 460.8 407.7125 
L 460.8 0 
L 0 0 
z
" style="fill:#ffffff;"/>
  </g>
  <g id="axes_1">
   <g id="patch_2">
    <path d="M 7.2 352.8 
L 453.6 352.8 
L 453.6 7.2 
L 7.2 7.2 
z
" style="fill:#ffffff;"/>
   </g>
   <g id="line2d_1">
    <path clip-path="url(#p8d46076751)" d="M -105.38897 352.8 
M -1 233.037624 
L 1.437036 233.037624 
L 1.437036 227.334653 
L 7.098447 227.334653 
L 7.098447 221.631683 
L 7.098447 221.631683 
L 7.098447 215.928713 
L 7.098447 215.928713 
L 7.098447 210.225743 
L 7.098447 210.225743 
L 7.098447 204.522772 
L 7.098447 204.522772 
L 7.098447 198.819802 
L 7.098447 198.819802 
L 7.098447 193.116832 
L 7.098447 193.116832 
L 7.098447 187.413861 
L 7.098447 187.413861 
L 7.098447 181.710891 
L 7.098447 181.710891 
L 7.098447 176.007921 
L 7.098447 176.007921 
L 7.098447 170.30495 
L 7.098447 170.30495 
L 7.098447 164.60198 
L 7.098447 164.60198 
L 7.098447 158.89901 
L 7.098447 158.89901 
L 7.098447 153.19604 
L 7.098447 153.19604 
L 7.098447 147.493069 
L 7.098447 147.493069 
L 7.098447 141.790099 
L 7.56386 141.790099 
L 7.56386 136.087129 
L 8.436763 136.087129 
L 8.436763 130.384158 
L 50.061208 130.384158 
L 50.061208 124.681188 
L 60.056164 124.681188 
L 60.056164 118.978218 
L 60.912122 118.978218 
L 60.912122 113.275248 
L 63.345764 113.275248 
L 63.345764 107.572277 
L 64.066746 107.572277 
L 64.066746 101.869307 
L 89.848405 101.869307 
L 89.848405 96.166337 
L 118.035976 96.166337 
L 118.035976 90.463366 
L 149.957708 90.463366 
L 149.957708 84.760396 
L 179.943842 84.760396 
L 179.943842 79.057426 
L 181.775273 79.057426 
L 181.775273 73.354455 
L 184.924487 73.354455 
L 184.924487 67.651485 
L 185.08895 67.651485 
L 185.08895 61.948515 
L 185.725756 61.948515 
L 185.725756 56.245545 
L 190.882977 56.245545 
L 190.882977 50.542574 
L 196.493281 50.542574 
L 196.493281 44.839604 
L 198.490818 44.839604 
L 198.490818 39.136634 
L 209.069554 39.136634 
L 209.069554 33.433663 
L 209.069554 33.433663 
L 209.069554 27.730693 
L 209.069554 27.730693 
L 209.069554 22.027723 
L 209.069555 22.027723 
L 209.069555 16.324752 
L 209.07143 16.324752 
L 209.07143 10.621782 
L 209.07143 10.621782 
L 209.07143 10.621782 
L 453.6 10.621782 
" style="fill:none;stroke:#ff0000;stroke-linecap:square;stroke-width:3.0;"/>
   </g>
   <g id="line2d_2">
    <path clip-path="url(#p8d46076751)" d="M 237.319787 352.8 
L 237.319787 347.09703 
L 237.512268 347.09703 
L 237.512268 341.394059 
L 247.957721 341.394059 
L 247.957721 335.691089 
L 250.364491 335.691089 
L 250.364491 329.988119 
L 251.415774 329.988119 
L 251.415774 324.285149 
L 252.610189 324.285149 
L 252.610189 318.582178 
L 254.690723 318.582178 
L 254.690723 312.879208 
L 255.229724 312.879208 
L 255.229724 307.176238 
L 255.462334 307.176238 
L 255.462334 301.473267 
L 258.314403 301.473267 
L 258.314403 295.770297 
L 262.694067 295.770297 
L 262.694067 290.067327 
L 263.667145 290.067327 
L 263.667145 284.364356 
L 268.189999 284.364356 
L 268.189999 278.661386 
L 268.444607 278.661386 
L 268.444607 272.958416 
L 271.925198 272.958416 
L 271.925198 267.255446 
L 284.196824 267.255446 
L 284.196824 261.552475 
L 290.792152 261.552475 
L 290.792152 255.849505 
L 291.441663 255.849505 
L 291.441663 250.146535 
L 292.871876 250.146535 
L 292.871876 244.443564 
L 294.122902 244.443564 
L 294.122902 238.740594 
L 294.306148 238.740594 
L 294.306148 233.037624 
L 301.906809 233.037624 
L 301.906809 227.334653 
L 304.166691 227.334653 
L 304.166691 221.631683 
L 304.357188 221.631683 
L 304.357188 215.928713 
L 304.632539 215.928713 
L 304.632539 210.225743 
L 304.906014 210.225743 
L 304.906014 204.522772 
L 306.147425 204.522772 
L 306.147425 198.819802 
L 306.421656 198.819802 
L 306.421656 193.116832 
L 307.037164 193.116832 
L 307.037164 187.413861 
L 307.072227 187.413861 
L 307.072227 181.710891 
L 307.868726 181.710891 
L 307.868726 176.007921 
L 308.451268 176.007921 
L 308.451268 170.30495 
L 313.829296 170.30495 
L 313.829296 164.60198 
L 313.836603 164.60198 
L 313.836603 158.89901 
L 315.050265 158.89901 
L 315.050265 153.19604 
L 315.920148 153.19604 
L 315.920148 147.493069 
L 316.445764 147.493069 
L 316.445764 141.790099 
L 316.596207 141.790099 
L 316.596207 136.087129 
L 317.35408 136.087129 
L 317.35408 130.384158 
L 320.017081 130.384158 
L 320.017081 124.681188 
L 320.219748 124.681188 
L 320.219748 118.978218 
L 321.051724 118.978218 
L 321.051724 113.275248 
L 322.201168 113.275248 
L 322.201168 107.572277 
L 322.693098 107.572277 
L 322.693098 101.869307 
L 323.044987 101.869307 
L 323.044987 96.166337 
L 323.889597 96.166337 
L 323.889597 90.463366 
L 323.987556 90.463366 
L 323.987556 84.760396 
L 324.158216 84.760396 
L 324.158216 79.057426 
L 325.350698 79.057426 
L 325.350698 73.354455 
L 325.786587 73.354455 
L 325.786587 67.651485 
L 326.003149 67.651485 
L 326.003149 61.948515 
L 326.015631 61.948515 
L 326.015631 56.245545 
L 327.153749 56.245545 
L 327.153749 50.542574 
L 330.599195 50.542574 
L 330.599195 44.839604 
L 332.347254 44.839604 
L 332.347254 39.136634 
L 336.551224 39.136634 
L 336.551224 33.433663 
L 336.598333 33.433663 
L 336.598333 27.730693 
L 338.11033 27.730693 
L 338.11033 22.027723 
L 339.710282 22.027723 
L 339.710282 16.324752 
L 343.74666 16.324752 
L 343.74666 10.621782 
L 343.74666 10.621782 
L 343.74666 10.621782 
L 453.6 10.621782 
" style="fill:none;stroke:#00bfbf;stroke-linecap:square;"/>
   </g>
   <g id="line2d_3">
    <path clip-path="url(#p8d46076751)" d="M 237.319787 352.8 
L 237.319787 347.09703 
L 237.512268 347.09703 
L 237.512268 341.394059 
L 240.433532 341.394059 
L 240.433532 335.691089 
L 240.617524 335.691089 
L 240.617524 329.988119 
L 243.386522 329.988119 
L 243.386522 324.285149 
L 250.364491 324.285149 
L 250.364491 318.582178 
L 251.415774 318.582178 
L 251.415774 312.879208 
L 252.610189 312.879208 
L 252.610189 307.176238 
L 255.229724 307.176238 
L 255.229724 301.473267 
L 255.415697 301.473267 
L 255.415697 295.770297 
L 255.837267 295.770297 
L 255.837267 290.067327 
L 256.555465 290.067327 
L 256.555465 284.364356 
L 259.977198 284.364356 
L 259.977198 278.661386 
L 266.588186 278.661386 
L 266.588186 272.958416 
L 270.673929 272.958416 
L 270.673929 267.255446 
L 283.613649 267.255446 
L 283.613649 261.552475 
L 284.196824 261.552475 
L 284.196824 255.849505 
L 284.420211 255.849505 
L 284.420211 250.146535 
L 286.285173 250.146535 
L 286.285173 244.443564 
L 287.193155 244.443564 
L 287.193155 238.740594 
L 290.792152 238.740594 
L 290.792152 233.037624 
L 291.441663 233.037624 
L 291.441663 227.334653 
L 292.871876 227.334653 
L 292.871876 221.631683 
L 294.122902 221.631683 
L 294.122902 215.928713 
L 294.25533 215.928713 
L 294.25533 210.225743 
L 294.306148 210.225743 
L 294.306148 204.522772 
L 297.399678 204.522772 
L 297.399678 198.819802 
L 298.434532 198.819802 
L 298.434532 193.116832 
L 300.587056 193.116832 
L 300.587056 187.413861 
L 301.336768 187.413861 
L 301.336768 181.710891 
L 301.906809 181.710891 
L 301.906809 176.007921 
L 302.473029 176.007921 
L 302.473029 170.30495 
L 303.854543 170.30495 
L 303.854543 164.60198 
L 304.060189 164.60198 
L 304.060189 158.89901 
L 304.632539 158.89901 
L 304.632539 153.19604 
L 304.906014 153.19604 
L 304.906014 147.493069 
L 304.950821 147.493069 
L 304.950821 141.790099 
L 305.331655 141.790099 
L 305.331655 136.087129 
L 305.546361 136.087129 
L 305.546361 130.384158 
L 306.147425 130.384158 
L 306.147425 124.681188 
L 307.037164 124.681188 
L 307.037164 118.978218 
L 313.489518 118.978218 
L 313.489518 113.275248 
L 313.706782 113.275248 
L 313.706782 107.572277 
L 313.896861 107.572277 
L 313.896861 101.869307 
L 314.401446 101.869307 
L 314.401446 96.166337 
L 316.445764 96.166337 
L 316.445764 90.463366 
L 317.099641 90.463366 
L 317.099641 84.760396 
L 317.365056 84.760396 
L 317.365056 79.057426 
L 317.485516 79.057426 
L 317.485516 73.354455 
L 317.871474 73.354455 
L 317.871474 67.651485 
L 319.1207 67.651485 
L 319.1207 61.948515 
L 319.342982 61.948515 
L 319.342982 56.245545 
L 319.626904 56.245545 
L 319.626904 50.542574 
L 322.730811 50.542574 
L 322.730811 44.839604 
L 323.234017 44.839604 
L 323.234017 39.136634 
L 325.34084 39.136634 
L 325.34084 33.433663 
L 326.015631 33.433663 
L 326.015631 27.730693 
L 327.600551 27.730693 
L 327.600551 22.027723 
L 330.463339 22.027723 
L 330.463339 16.324752 
L 334.866876 16.324752 
L 334.866876 10.621782 
L 334.866876 10.621782 
L 334.866876 10.621782 
L 453.6 10.621782 
" style="fill:none;stroke:#bf00bf;stroke-linecap:square;"/>
   </g>
   <g id="line2d_4">
    <path clip-path="url(#p8d46076751)" d="M 230.26281 352.8 
L 230.26281 347.09703 
L 230.502012 347.09703 
L 230.502012 341.394059 
L 232.654354 341.394059 
L 232.654354 335.691089 
L 237.319787 335.691089 
L 237.319787 329.988119 
L 238.83938 329.988119 
L 238.83938 324.285149 
L 240.433532 324.285149 
L 240.433532 318.582178 
L 246.085326 318.582178 
L 246.085326 312.879208 
L 248.914835 312.879208 
L 248.914835 307.176238 
L 249.706703 307.176238 
L 249.706703 301.473267 
L 249.990037 301.473267 
L 249.990037 295.770297 
L 252.846621 295.770297 
L 252.846621 290.067327 
L 253.307879 290.067327 
L 253.307879 284.364356 
L 253.4003 284.364356 
L 253.4003 278.661386 
L 254.69069 278.661386 
L 254.69069 272.958416 
L 256.261156 272.958416 
L 256.261156 267.255446 
L 259.247718 267.255446 
L 259.247718 261.552475 
L 259.977198 261.552475 
L 259.977198 255.849505 
L 261.799912 255.849505 
L 261.799912 250.146535 
L 274.706024 250.146535 
L 274.706024 244.443564 
L 274.775434 244.443564 
L 274.775434 238.740594 
L 280.52842 238.740594 
L 280.52842 233.037624 
L 280.89469 233.037624 
L 280.89469 227.334653 
L 283.613649 227.334653 
L 283.613649 221.631683 
L 283.70972 221.631683 
L 283.70972 215.928713 
L 284.196824 215.928713 
L 284.196824 210.225743 
L 285.849023 210.225743 
L 285.849023 204.522772 
L 286.285173 204.522772 
L 286.285173 198.819802 
L 287.193155 198.819802 
L 287.193155 193.116832 
L 289.182183 193.116832 
L 289.182183 187.413861 
L 290.792152 187.413861 
L 290.792152 181.710891 
L 290.820092 181.710891 
L 290.820092 176.007921 
L 292.444087 176.007921 
L 292.444087 170.30495 
L 292.871876 170.30495 
L 292.871876 164.60198 
L 293.584142 164.60198 
L 293.584142 158.89901 
L 294.25533 158.89901 
L 294.25533 153.19604 
L 295.617712 153.19604 
L 295.617712 147.493069 
L 298.434532 147.493069 
L 298.434532 141.790099 
L 298.896376 141.790099 
L 298.896376 136.087129 
L 301.605264 136.087129 
L 301.605264 130.384158 
L 302.83166 130.384158 
L 302.83166 124.681188 
L 303.854543 124.681188 
L 303.854543 118.978218 
L 304.351448 118.978218 
L 304.351448 113.275248 
L 304.632539 113.275248 
L 304.632539 107.572277 
L 305.670514 107.572277 
L 305.670514 101.869307 
L 307.24812 101.869307 
L 307.24812 96.166337 
L 312.510309 96.166337 
L 312.510309 90.463366 
L 312.617265 90.463366 
L 312.617265 84.760396 
L 313.489518 84.760396 
L 313.489518 79.057426 
L 313.728776 79.057426 
L 313.728776 73.354455 
L 313.827313 73.354455 
L 313.827313 67.651485 
L 314.401446 67.651485 
L 314.401446 61.948515 
L 315.38635 61.948515 
L 315.38635 56.245545 
L 315.792912 56.245545 
L 315.792912 50.542574 
L 317.099641 50.542574 
L 317.099641 44.839604 
L 317.871474 44.839604 
L 317.871474 39.136634 
L 323.234017 39.136634 
L 323.234017 33.433663 
L 325.34084 33.433663 
L 325.34084 27.730693 
L 327.600551 27.730693 
L 327.600551 22.027723 
L 329.061211 22.027723 
L 329.061211 16.324752 
L 332.588397 16.324752 
L 332.588397 10.621782 
L 332.588397 10.621782 
L 332.588397 10.621782 
L 453.6 10.621782 
" style="fill:none;stroke:#000000;stroke-linecap:square;"/>
   </g>
   <g id="line2d_5">
    <path clip-path="url(#p8d46076751)" d="M 210.16006 352.8 
L 210.16006 347.09703 
L 224.998466 347.09703 
L 224.998466 341.394059 
L 225.28855 341.394059 
L 225.28855 335.691089 
L 228.142233 335.691089 
L 228.142233 329.988119 
L 229.237635 329.988119 
L 229.237635 324.285149 
L 230.502012 324.285149 
L 230.502012 318.582178 
L 232.527073 318.582178 
L 232.527073 312.879208 
L 233.705841 312.879208 
L 233.705841 307.176238 
L 234.083889 307.176238 
L 234.083889 301.473267 
L 235.789669 301.473267 
L 235.789669 295.770297 
L 236.08044 295.770297 
L 236.08044 290.067327 
L 238.706429 290.067327 
L 238.706429 284.364356 
L 239.240879 284.364356 
L 239.240879 278.661386 
L 239.979002 278.661386 
L 239.979002 272.958416 
L 242.09113 272.958416 
L 242.09113 267.255446 
L 243.185693 267.255446 
L 243.185693 261.552475 
L 243.887703 261.552475 
L 243.887703 255.849505 
L 243.995835 255.849505 
L 243.995835 250.146535 
L 244.312948 250.146535 
L 244.312948 244.443564 
L 244.471044 244.443564 
L 244.471044 238.740594 
L 245.545026 238.740594 
L 245.545026 233.037624 
L 249.990037 233.037624 
L 249.990037 227.334653 
L 254.615895 227.334653 
L 254.615895 221.631683 
L 255.598957 221.631683 
L 255.598957 215.928713 
L 256.261156 215.928713 
L 256.261156 210.225743 
L 256.316231 210.225743 
L 256.316231 204.522772 
L 256.956384 204.522772 
L 256.956384 198.819802 
L 259.247718 198.819802 
L 259.247718 193.116832 
L 262.477935 193.116832 
L 262.477935 187.413861 
L 265.562078 187.413861 
L 265.562078 181.710891 
L 269.609459 181.710891 
L 269.609459 176.007921 
L 271.165137 176.007921 
L 271.165137 170.30495 
L 271.882941 170.30495 
L 271.882941 164.60198 
L 271.93894 164.60198 
L 271.93894 158.89901 
L 271.980257 158.89901 
L 271.980257 153.19604 
L 272.253518 153.19604 
L 272.253518 147.493069 
L 273.925531 147.493069 
L 273.925531 141.790099 
L 273.973201 141.790099 
L 273.973201 136.087129 
L 277.549369 136.087129 
L 277.549369 130.384158 
L 277.79813 130.384158 
L 277.79813 124.681188 
L 277.871978 124.681188 
L 277.871978 118.978218 
L 278.941321 118.978218 
L 278.941321 113.275248 
L 279.601781 113.275248 
L 279.601781 107.572277 
L 281.38808 107.572277 
L 281.38808 101.869307 
L 287.193155 101.869307 
L 287.193155 96.166337 
L 287.206384 96.166337 
L 287.206384 90.463366 
L 287.8673 90.463366 
L 287.8673 84.760396 
L 289.083353 84.760396 
L 289.083353 79.057426 
L 292.250388 79.057426 
L 292.250388 73.354455 
L 292.871876 73.354455 
L 292.871876 67.651485 
L 293.161104 67.651485 
L 293.161104 61.948515 
L 295.266018 61.948515 
L 295.266018 56.245545 
L 296.211391 56.245545 
L 296.211391 50.542574 
L 298.553199 50.542574 
L 298.553199 44.839604 
L 299.941333 44.839604 
L 299.941333 39.136634 
L 300.211302 39.136634 
L 300.211302 33.433663 
L 301.883693 33.433663 
L 301.883693 27.730693 
L 311.532407 27.730693 
L 311.532407 22.027723 
L 315.567431 22.027723 
L 315.567431 16.324752 
L 322.923539 16.324752 
L 322.923539 10.621782 
L 322.923539 10.621782 
L 322.923539 10.621782 
L 453.6 10.621782 
" style="fill:none;stroke:#00bfbf;stroke-linecap:square;"/>
   </g>
   <g id="line2d_6">
    <path clip-path="url(#p8d46076751)" d="M 184.592414 352.8 
L 184.592414 347.09703 
L 185.913244 347.09703 
L 185.913244 341.394059 
L 191.886256 341.394059 
L 191.886256 335.691089 
L 195.152722 335.691089 
L 195.152722 329.988119 
L 195.587517 329.988119 
L 195.587517 324.285149 
L 202.061926 324.285149 
L 202.061926 318.582178 
L 203.508786 318.582178 
L 203.508786 312.879208 
L 204.2653 312.879208 
L 204.2653 307.176238 
L 205.21687 307.176238 
L 205.21687 301.473267 
L 205.219083 301.473267 
L 205.219083 295.770297 
L 205.749373 295.770297 
L 205.749373 290.067327 
L 205.969745 290.067327 
L 205.969745 284.364356 
L 206.03913 284.364356 
L 206.03913 278.661386 
L 207.889764 278.661386 
L 207.889764 272.958416 
L 208.201538 272.958416 
L 208.201538 267.255446 
L 209.089925 267.255446 
L 209.089925 261.552475 
L 210.495192 261.552475 
L 210.495192 255.849505 
L 210.594912 255.849505 
L 210.594912 250.146535 
L 210.773292 250.146535 
L 210.773292 244.443564 
L 210.86601 244.443564 
L 210.86601 238.740594 
L 212.004272 238.740594 
L 212.004272 233.037624 
L 212.236738 233.037624 
L 212.236738 227.334653 
L 212.327468 227.334653 
L 212.327468 221.631683 
L 213.430659 221.631683 
L 213.430659 215.928713 
L 213.686169 215.928713 
L 213.686169 210.225743 
L 215.475668 210.225743 
L 215.475668 204.522772 
L 216.144273 204.522772 
L 216.144273 198.819802 
L 216.544773 198.819802 
L 216.544773 193.116832 
L 216.54496 193.116832 
L 216.54496 187.413861 
L 217.134619 187.413861 
L 217.134619 181.710891 
L 218.001948 181.710891 
L 218.001948 176.007921 
L 218.204862 176.007921 
L 218.204862 170.30495 
L 218.744335 170.30495 
L 218.744335 164.60198 
L 220.215375 164.60198 
L 220.215375 158.89901 
L 220.797605 158.89901 
L 220.797605 153.19604 
L 221.065194 153.19604 
L 221.065194 147.493069 
L 221.226638 147.493069 
L 221.226638 141.790099 
L 221.397017 141.790099 
L 221.397017 136.087129 
L 221.796134 136.087129 
L 221.796134 130.384158 
L 221.942265 130.384158 
L 221.942265 124.681188 
L 221.964978 124.681188 
L 221.964978 118.978218 
L 222.724107 118.978218 
L 222.724107 113.275248 
L 222.807702 113.275248 
L 222.807702 107.572277 
L 223.288021 107.572277 
L 223.288021 101.869307 
L 224.032434 101.869307 
L 224.032434 96.166337 
L 225.907511 96.166337 
L 225.907511 90.463366 
L 226.863471 90.463366 
L 226.863471 84.760396 
L 226.980438 84.760396 
L 226.980438 79.057426 
L 227.110124 79.057426 
L 227.110124 73.354455 
L 229.700536 73.354455 
L 229.700536 67.651485 
L 230.190228 67.651485 
L 230.190228 61.948515 
L 231.865234 61.948515 
L 231.865234 56.245545 
L 237.708136 56.245545 
L 237.708136 50.542574 
L 239.487953 50.542574 
L 239.487953 44.839604 
L 240.930699 44.839604 
L 240.930699 39.136634 
L 242.349516 39.136634 
L 242.349516 33.433663 
L 242.505395 33.433663 
L 242.505395 27.730693 
L 242.887429 27.730693 
L 242.887429 22.027723 
L 243.871942 22.027723 
L 243.871942 16.324752 
L 247.48495 16.324752 
L 247.48495 10.621782 
L 247.48495 10.621782 
L 247.48495 10.621782 
L 453.6 10.621782 
" style="fill:none;stroke:#bf00bf;stroke-linecap:square;"/>
   </g>
   <g id="line2d_7">
    <path clip-path="url(#p8d46076751)" d="M -130.315456 352.8 
M -1 341.394059 
L 1.475506 341.394059 
L 1.475506 335.691089 
L 1.661806 335.691089 
L 1.661806 329.988119 
L 29.799286 329.988119 
L 29.799286 324.285149 
L 73.855209 324.285149 
L 73.855209 318.582178 
L 80.043065 318.582178 
L 80.043065 312.879208 
L 83.759118 312.879208 
L 83.759118 307.176238 
L 93.560802 307.176238 
L 93.560802 301.473267 
L 93.671998 301.473267 
L 93.671998 295.770297 
L 94.380263 295.770297 
L 94.380263 290.067327 
L 96.368717 290.067327 
L 96.368717 284.364356 
L 96.539459 284.364356 
L 96.539459 278.661386 
L 104.497967 278.661386 
L 104.497967 272.958416 
L 113.015084 272.958416 
L 113.015084 267.255446 
L 117.856538 267.255446 
L 117.856538 261.552475 
L 153.786382 261.552475 
L 153.786382 255.849505 
L 162.941172 255.849505 
L 162.941172 250.146535 
L 165.084563 250.146535 
L 165.084563 244.443564 
L 172.865812 244.443564 
L 172.865812 238.740594 
L 175.543068 238.740594 
L 175.543068 233.037624 
L 179.943842 233.037624 
L 179.943842 227.334653 
L 180.317302 227.334653 
L 180.317302 221.631683 
L 186.540861 221.631683 
L 186.540861 215.928713 
L 187.138614 215.928713 
L 187.138614 210.225743 
L 192.329297 210.225743 
L 192.329297 204.522772 
L 193.201347 204.522772 
L 193.201347 198.819802 
L 194.458573 198.819802 
L 194.458573 193.116832 
L 195.314814 193.116832 
L 195.314814 187.413861 
L 195.79527 187.413861 
L 195.79527 181.710891 
L 196.473318 181.710891 
L 196.473318 176.007921 
L 197.381116 176.007921 
L 197.381116 170.30495 
L 197.784266 170.30495 
L 197.784266 164.60198 
L 197.972468 164.60198 
L 197.972468 158.89901 
L 198.039343 158.89901 
L 198.039343 153.19604 
L 198.383491 153.19604 
L 198.383491 147.493069 
L 198.964848 147.493069 
L 198.964848 141.790099 
L 199.451986 141.790099 
L 199.451986 136.087129 
L 199.781626 136.087129 
L 199.781626 130.384158 
L 199.811521 130.384158 
L 199.811521 124.681188 
L 200.13509 124.681188 
L 200.13509 118.978218 
L 200.483279 118.978218 
L 200.483279 113.275248 
L 200.624032 113.275248 
L 200.624032 107.572277 
L 201.285309 107.572277 
L 201.285309 101.869307 
L 201.63478 101.869307 
L 201.63478 96.166337 
L 201.783005 96.166337 
L 201.783005 90.463366 
L 201.798529 90.463366 
L 201.798529 84.760396 
L 201.926979 84.760396 
L 201.926979 79.057426 
L 201.999576 79.057426 
L 201.999576 73.354455 
L 202.019082 73.354455 
L 202.019082 67.651485 
L 204.947282 67.651485 
L 204.947282 61.948515 
L 205.211553 61.948515 
L 205.211553 56.245545 
L 205.588458 56.245545 
L 205.588458 50.542574 
L 207.079284 50.542574 
L 207.079284 44.839604 
L 210.255403 44.839604 
L 210.255403 39.136634 
L 210.800372 39.136634 
L 210.800372 33.433663 
L 211.261572 33.433663 
L 211.261572 27.730693 
L 211.967461 27.730693 
L 211.967461 22.027723 
L 214.01248 22.027723 
L 214.01248 16.324752 
L 244.570119 16.324752 
L 244.570119 10.621782 
L 244.570119 10.621782 
L 244.570119 10.621782 
L 453.6 10.621782 
" style="fill:none;stroke:#000000;stroke-linecap:square;"/>
   </g>
   <g id="line2d_8">
    <path clip-path="url(#p8d46076751)" d="M 7.098447 352.8 
L 7.098447 347.09703 
L 7.098447 347.09703 
L 7.098447 341.394059 
L 7.098447 341.394059 
L 7.098447 335.691089 
L 7.098447 335.691089 
L 7.098447 329.988119 
L 7.098447 329.988119 
L 7.098447 324.285149 
L 7.098447 324.285149 
L 7.098447 318.582178 
L 7.098447 318.582178 
L 7.098447 312.879208 
L 7.098447 312.879208 
L 7.098447 307.176238 
L 7.098447 307.176238 
L 7.098447 301.473267 
L 7.098447 301.473267 
L 7.098447 295.770297 
L 7.098447 295.770297 
L 7.098447 290.067327 
L 7.098447 290.067327 
L 7.098447 284.364356 
L 7.098447 284.364356 
L 7.098447 278.661386 
L 7.098447 278.661386 
L 7.098447 272.958416 
L 7.098447 272.958416 
L 7.098447 267.255446 
L 7.098447 267.255446 
L 7.098447 261.552475 
L 7.098447 261.552475 
L 7.098447 255.849505 
L 7.098447 255.849505 
L 7.098447 250.146535 
L 139.466881 250.146535 
L 139.466881 244.443564 
L 143.85417 244.443564 
L 143.85417 238.740594 
L 145.150467 238.740594 
L 145.150467 233.037624 
L 149.957708 233.037624 
L 149.957708 227.334653 
L 151.606384 227.334653 
L 151.606384 221.631683 
L 153.966699 221.631683 
L 153.966699 215.928713 
L 154.430352 215.928713 
L 154.430352 210.225743 
L 160.456286 210.225743 
L 160.456286 204.522772 
L 160.919266 204.522772 
L 160.919266 198.819802 
L 161.673938 198.819802 
L 161.673938 193.116832 
L 161.687096 193.116832 
L 161.687096 187.413861 
L 162.935626 187.413861 
L 162.935626 181.710891 
L 163.314881 181.710891 
L 163.314881 176.007921 
L 165.455063 176.007921 
L 165.455063 170.30495 
L 165.465949 170.30495 
L 165.465949 164.60198 
L 165.860948 164.60198 
L 165.860948 158.89901 
L 166.045356 158.89901 
L 166.045356 153.19604 
L 166.146039 153.19604 
L 166.146039 147.493069 
L 166.296488 147.493069 
L 166.296488 141.790099 
L 166.500301 141.790099 
L 166.500301 136.087129 
L 167.403498 136.087129 
L 167.403498 130.384158 
L 168.160573 130.384158 
L 168.160573 124.681188 
L 169.348049 124.681188 
L 169.348049 118.978218 
L 169.581327 118.978218 
L 169.581327 113.275248 
L 171.873032 113.275248 
L 171.873032 107.572277 
L 173.787186 107.572277 
L 173.787186 101.869307 
L 179.943842 101.869307 
L 179.943842 96.166337 
L 180.317302 96.166337 
L 180.317302 90.463366 
L 181.775273 90.463366 
L 181.775273 84.760396 
L 187.138614 84.760396 
L 187.138614 79.057426 
L 187.149433 79.057426 
L 187.149433 73.354455 
L 195.79527 73.354455 
L 195.79527 67.651485 
L 196.445385 67.651485 
L 196.445385 61.948515 
L 196.493281 61.948515 
L 196.493281 56.245545 
L 198.490818 56.245545 
L 198.490818 50.542574 
L 199.101069 50.542574 
L 199.101069 44.839604 
L 201.285309 44.839604 
L 201.285309 39.136634 
L 209.707497 39.136634 
L 209.707497 33.433663 
L 209.982173 33.433663 
L 209.982173 27.730693 
L 209.992423 27.730693 
L 209.992423 22.027723 
L 210.47205 22.027723 
L 210.47205 16.324752 
L 212.099987 16.324752 
L 212.099987 10.621782 
L 212.099987 10.621782 
L 212.099987 10.621782 
L 453.6 10.621782 
" style="fill:none;stroke:#00bfbf;stroke-linecap:square;"/>
   </g>
   <g id="line2d_9">
    <path clip-path="url(#p8d46076751)" d="M -105.38897 352.8 
M -1 233.037624 
L 1.437036 233.037624 
L 1.437036 227.334653 
L 7.098447 227.334653 
L 7.098447 221.631683 
L 7.098447 221.631683 
L 7.098447 215.928713 
L 7.098447 215.928713 
L 7.098447 210.225743 
L 7.098447 210.225743 
L 7.098447 204.522772 
L 7.098447 204.522772 
L 7.098447 198.819802 
L 7.098447 198.819802 
L 7.098447 193.116832 
L 7.098447 193.116832 
L 7.098447 187.413861 
L 7.098447 187.413861 
L 7.098447 181.710891 
L 7.098447 181.710891 
L 7.098447 176.007921 
L 7.098447 176.007921 
L 7.098447 170.30495 
L 7.098447 170.30495 
L 7.098447 164.60198 
L 7.098447 164.60198 
L 7.098447 158.89901 
L 7.098447 158.89901 
L 7.098447 153.19604 
L 7.098447 153.19604 
L 7.098447 147.493069 
L 7.098447 147.493069 
L 7.098447 141.790099 
L 7.56386 141.790099 
L 7.56386 136.087129 
L 8.436763 136.087129 
L 8.436763 130.384158 
L 50.061208 130.384158 
L 50.061208 124.681188 
L 60.056164 124.681188 
L 60.056164 118.978218 
L 60.912122 118.978218 
L 60.912122 113.275248 
L 63.345764 113.275248 
L 63.345764 107.572277 
L 64.066746 107.572277 
L 64.066746 101.869307 
L 89.848405 101.869307 
L 89.848405 96.166337 
L 118.035976 96.166337 
L 118.035976 90.463366 
L 149.957708 90.463366 
L 149.957708 84.760396 
L 179.943842 84.760396 
L 179.943842 79.057426 
L 181.775273 79.057426 
L 181.775273 73.354455 
L 184.924487 73.354455 
L 184.924487 67.651485 
L 185.08895 67.651485 
L 185.08895 61.948515 
L 185.725756 61.948515 
L 185.725756 56.245545 
L 190.882977 56.245545 
L 190.882977 50.542574 
L 196.493281 50.542574 
L 196.493281 44.839604 
L 198.490818 44.839604 
L 198.490818 39.136634 
L 209.069554 39.136634 
L 209.069554 33.433663 
L 209.069554 33.433663 
L 209.069554 27.730693 
L 209.069554 27.730693 
L 209.069554 22.027723 
L 209.069555 22.027723 
L 209.069555 16.324752 
L 209.07143 16.324752 
L 209.07143 10.621782 
L 209.07143 10.621782 
L 209.07143 10.621782 
L 453.6 10.621782 
" style="fill:none;stroke:#bf00bf;stroke-linecap:square;"/>
   </g>
   <g id="patch_3">
    <path d="M 7.2 7.2 
L 453.6 7.2 
" style="fill:none;stroke:#000000;stroke-linecap:square;stroke-linejoin:miter;"/>
   </g>
   <g id="patch_4">
    <path d="M 453.6 352.8 
L 453.6 7.2 
" style="fill:none;stroke:#000000;stroke-linecap:square;stroke-linejoin:miter;"/>
   </g>
   <g id="patch_5">
    <path d="M 7.2 352.8 
L 453.6 352.8 
" style="fill:none;stroke:#000000;stroke-linecap:square;stroke-linejoin:miter;"/>
   </g>
   <g id="patch_6">
    <path d="M 7.2 352.8 
L 7.2 7.2 
" style="fill:none;stroke:#000000;stroke-linecap:square;stroke-linejoin:miter;"/>
   </g>
   <g id="matplotlib.axis_1">
    <g id="xtick_1"/>
    <g id="xtick_2">
     <g id="line2d_10">
      <path clip-path="url(#p8d46076751)" d="M 54.098611 352.8 
L 54.098611 7.2 
" style="fill:none;stroke:#000000;stroke-dasharray:1.000000,3.000000;stroke-dashoffset:0.0;stroke-width:0.5;"/>
     </g>
     <g id="line2d_11">
      <defs>
       <path d="M 0 0 
L 0 -4 
" id="m259e40c9e6" style="stroke:#000000;stroke-width:0.5;"/>
      </defs>
      <g>
       <use style="stroke:#000000;stroke-width:0.5;" x="54.0986107985" xlink:href="#m259e40c9e6" y="352.8"/>
      </g>
     </g>
     <g id="line2d_12">
      <defs>
       <path d="M 0 0 
L 0 4 
" id="m22fa3d6deb" style="stroke:#000000;stroke-width:0.5;"/>
      </defs>
      <g>
       <use style="stroke:#000000;stroke-width:0.5;" x="54.0986107985" xlink:href="#m22fa3d6deb" y="7.2"/>
      </g>
     </g>
     <g id="text_1">
      <!-- -6 -->
      <defs>
       <path d="M 33.015625 40.375 
Q 26.375 40.375 22.484375 35.828125 
Q 18.609375 31.296875 18.609375 23.390625 
Q 18.609375 15.53125 22.484375 10.953125 
Q 26.375 6.390625 33.015625 6.390625 
Q 39.65625 6.390625 43.53125 10.953125 
Q 47.40625 15.53125 47.40625 23.390625 
Q 47.40625 31.296875 43.53125 35.828125 
Q 39.65625 40.375 33.015625 40.375 
M 52.59375 71.296875 
L 52.59375 62.3125 
Q 48.875 64.0625 45.09375 64.984375 
Q 41.3125 65.921875 37.59375 65.921875 
Q 27.828125 65.921875 22.671875 59.328125 
Q 17.53125 52.734375 16.796875 39.40625 
Q 19.671875 43.65625 24.015625 45.921875 
Q 28.375 48.1875 33.59375 48.1875 
Q 44.578125 48.1875 50.953125 41.515625 
Q 57.328125 34.859375 57.328125 23.390625 
Q 57.328125 12.15625 50.6875 5.359375 
Q 44.046875 -1.421875 33.015625 -1.421875 
Q 20.359375 -1.421875 13.671875 8.265625 
Q 6.984375 17.96875 6.984375 36.375 
Q 6.984375 53.65625 15.1875 63.9375 
Q 23.390625 74.21875 37.203125 74.21875 
Q 40.921875 74.21875 44.703125 73.484375 
Q 48.484375 72.75 52.59375 71.296875 
" id="BitstreamVeraSans-Roman-36"/>
       <path d="M 4.890625 31.390625 
L 31.203125 31.390625 
L 31.203125 23.390625 
L 4.890625 23.390625 
z
" id="BitstreamVeraSans-Roman-2d"/>
      </defs>
      <g transform="translate(44.1282982985 371.996875)scale(0.2 -0.2)">
       <use xlink:href="#BitstreamVeraSans-Roman-2d"/>
       <use x="36.083984375" xlink:href="#BitstreamVeraSans-Roman-36"/>
      </g>
     </g>
    </g>
    <g id="xtick_3">
     <g id="line2d_13">
      <path clip-path="url(#p8d46076751)" d="M 101.098774 352.8 
L 101.098774 7.2 
" style="fill:none;stroke:#000000;stroke-dasharray:1.000000,3.000000;stroke-dashoffset:0.0;stroke-width:0.5;"/>
     </g>
     <g id="line2d_14">
      <g>
       <use style="stroke:#000000;stroke-width:0.5;" x="101.098774234" xlink:href="#m259e40c9e6" y="352.8"/>
      </g>
     </g>
     <g id="line2d_15">
      <g>
       <use style="stroke:#000000;stroke-width:0.5;" x="101.098774234" xlink:href="#m22fa3d6deb" y="7.2"/>
      </g>
     </g>
     <g id="text_2">
      <!-- -4 -->
      <defs>
       <path d="M 37.796875 64.3125 
L 12.890625 25.390625 
L 37.796875 25.390625 
z
M 35.203125 72.90625 
L 47.609375 72.90625 
L 47.609375 25.390625 
L 58.015625 25.390625 
L 58.015625 17.1875 
L 47.609375 17.1875 
L 47.609375 0 
L 37.796875 0 
L 37.796875 17.1875 
L 4.890625 17.1875 
L 4.890625 26.703125 
z
" id="BitstreamVeraSans-Roman-34"/>
      </defs>
      <g transform="translate(91.1284617339 371.996875)scale(0.2 -0.2)">
       <use xlink:href="#BitstreamVeraSans-Roman-2d"/>
       <use x="36.083984375" xlink:href="#BitstreamVeraSans-Roman-34"/>
      </g>
     </g>
    </g>
    <g id="xtick_4">
     <g id="line2d_16">
      <path clip-path="url(#p8d46076751)" d="M 148.098938 352.8 
L 148.098938 7.2 
" style="fill:none;stroke:#000000;stroke-dasharray:1.000000,3.000000;stroke-dashoffset:0.0;stroke-width:0.5;"/>
     </g>
     <g id="line2d_17">
      <g>
       <use style="stroke:#000000;stroke-width:0.5;" x="148.098937669" xlink:href="#m259e40c9e6" y="352.8"/>
      </g>
     </g>
     <g id="line2d_18">
      <g>
       <use style="stroke:#000000;stroke-width:0.5;" x="148.098937669" xlink:href="#m22fa3d6deb" y="7.2"/>
      </g>
     </g>
     <g id="text_3">
      <!-- -2 -->
      <defs>
       <path d="M 19.1875 8.296875 
L 53.609375 8.296875 
L 53.609375 0 
L 7.328125 0 
L 7.328125 8.296875 
Q 12.9375 14.109375 22.625 23.890625 
Q 32.328125 33.6875 34.8125 36.53125 
Q 39.546875 41.84375 41.421875 45.53125 
Q 43.3125 49.21875 43.3125 52.78125 
Q 43.3125 58.59375 39.234375 62.25 
Q 35.15625 65.921875 28.609375 65.921875 
Q 23.96875 65.921875 18.8125 64.3125 
Q 13.671875 62.703125 7.8125 59.421875 
L 7.8125 69.390625 
Q 13.765625 71.78125 18.9375 73 
Q 24.125 74.21875 28.421875 74.21875 
Q 39.75 74.21875 46.484375 68.546875 
Q 53.21875 62.890625 53.21875 53.421875 
Q 53.21875 48.921875 51.53125 44.890625 
Q 49.859375 40.875 45.40625 35.40625 
Q 44.1875 33.984375 37.640625 27.21875 
Q 31.109375 20.453125 19.1875 8.296875 
" id="BitstreamVeraSans-Roman-32"/>
      </defs>
      <g transform="translate(138.128625169 371.996875)scale(0.2 -0.2)">
       <use xlink:href="#BitstreamVeraSans-Roman-2d"/>
       <use x="36.083984375" xlink:href="#BitstreamVeraSans-Roman-32"/>
      </g>
     </g>
    </g>
    <g id="xtick_5">
     <g id="line2d_19">
      <path clip-path="url(#p8d46076751)" d="M 195.099101 352.8 
L 195.099101 7.2 
" style="fill:none;stroke:#000000;stroke-dasharray:1.000000,3.000000;stroke-dashoffset:0.0;stroke-width:0.5;"/>
     </g>
     <g id="line2d_20">
      <g>
       <use style="stroke:#000000;stroke-width:0.5;" x="195.099101105" xlink:href="#m259e40c9e6" y="352.8"/>
      </g>
     </g>
     <g id="line2d_21">
      <g>
       <use style="stroke:#000000;stroke-width:0.5;" x="195.099101105" xlink:href="#m22fa3d6deb" y="7.2"/>
      </g>
     </g>
     <g id="text_4">
      <!-- 0 -->
      <defs>
       <path d="M 31.78125 66.40625 
Q 24.171875 66.40625 20.328125 58.90625 
Q 16.5 51.421875 16.5 36.375 
Q 16.5 21.390625 20.328125 13.890625 
Q 24.171875 6.390625 31.78125 6.390625 
Q 39.453125 6.390625 43.28125 13.890625 
Q 47.125 21.390625 47.125 36.375 
Q 47.125 51.421875 43.28125 58.90625 
Q 39.453125 66.40625 31.78125 66.40625 
M 31.78125 74.21875 
Q 44.046875 74.21875 50.515625 64.515625 
Q 56.984375 54.828125 56.984375 36.375 
Q 56.984375 17.96875 50.515625 8.265625 
Q 44.046875 -1.421875 31.78125 -1.421875 
Q 19.53125 -1.421875 13.0625 8.265625 
Q 6.59375 17.96875 6.59375 36.375 
Q 6.59375 54.828125 13.0625 64.515625 
Q 19.53125 74.21875 31.78125 74.21875 
" id="BitstreamVeraSans-Roman-30"/>
      </defs>
      <g transform="translate(188.736601105 371.996875)scale(0.2 -0.2)">
       <use xlink:href="#BitstreamVeraSans-Roman-30"/>
      </g>
     </g>
    </g>
    <g id="xtick_6">
     <g id="line2d_22">
      <path clip-path="url(#p8d46076751)" d="M 242.099265 352.8 
L 242.099265 7.2 
" style="fill:none;stroke:#000000;stroke-dasharray:1.000000,3.000000;stroke-dashoffset:0.0;stroke-width:0.5;"/>
     </g>
     <g id="line2d_23">
      <g>
       <use style="stroke:#000000;stroke-width:0.5;" x="242.09926454" xlink:href="#m259e40c9e6" y="352.8"/>
      </g>
     </g>
     <g id="line2d_24">
      <g>
       <use style="stroke:#000000;stroke-width:0.5;" x="242.09926454" xlink:href="#m22fa3d6deb" y="7.2"/>
      </g>
     </g>
     <g id="text_5">
      <!-- 2 -->
      <g transform="translate(235.73676454 371.996875)scale(0.2 -0.2)">
       <use xlink:href="#BitstreamVeraSans-Roman-32"/>
      </g>
     </g>
    </g>
    <g id="xtick_7">
     <g id="line2d_25">
      <path clip-path="url(#p8d46076751)" d="M 289.099428 352.8 
L 289.099428 7.2 
" style="fill:none;stroke:#000000;stroke-dasharray:1.000000,3.000000;stroke-dashoffset:0.0;stroke-width:0.5;"/>
     </g>
     <g id="line2d_26">
      <g>
       <use style="stroke:#000000;stroke-width:0.5;" x="289.099427976" xlink:href="#m259e40c9e6" y="352.8"/>
      </g>
     </g>
     <g id="line2d_27">
      <g>
       <use style="stroke:#000000;stroke-width:0.5;" x="289.099427976" xlink:href="#m22fa3d6deb" y="7.2"/>
      </g>
     </g>
     <g id="text_6">
      <!-- 4 -->
      <g transform="translate(282.736927976 371.996875)scale(0.2 -0.2)">
       <use xlink:href="#BitstreamVeraSans-Roman-34"/>
      </g>
     </g>
    </g>
    <g id="xtick_8">
     <g id="line2d_28">
      <path clip-path="url(#p8d46076751)" d="M 336.099591 352.8 
L 336.099591 7.2 
" style="fill:none;stroke:#000000;stroke-dasharray:1.000000,3.000000;stroke-dashoffset:0.0;stroke-width:0.5;"/>
     </g>
     <g id="line2d_29">
      <g>
       <use style="stroke:#000000;stroke-width:0.5;" x="336.099591411" xlink:href="#m259e40c9e6" y="352.8"/>
      </g>
     </g>
     <g id="line2d_30">
      <g>
       <use style="stroke:#000000;stroke-width:0.5;" x="336.099591411" xlink:href="#m22fa3d6deb" y="7.2"/>
      </g>
     </g>
     <g id="text_7">
      <!-- 6 -->
      <g transform="translate(329.737091411 371.996875)scale(0.2 -0.2)">
       <use xlink:href="#BitstreamVeraSans-Roman-36"/>
      </g>
     </g>
    </g>
    <g id="xtick_9">
     <g id="line2d_31">
      <path clip-path="url(#p8d46076751)" d="M 383.099755 352.8 
L 383.099755 7.2 
" style="fill:none;stroke:#000000;stroke-dasharray:1.000000,3.000000;stroke-dashoffset:0.0;stroke-width:0.5;"/>
     </g>
     <g id="line2d_32">
      <g>
       <use style="stroke:#000000;stroke-width:0.5;" x="383.099754847" xlink:href="#m259e40c9e6" y="352.8"/>
      </g>
     </g>
     <g id="line2d_33">
      <g>
       <use style="stroke:#000000;stroke-width:0.5;" x="383.099754847" xlink:href="#m22fa3d6deb" y="7.2"/>
      </g>
     </g>
     <g id="text_8">
      <!-- 8 -->
      <defs>
       <path d="M 31.78125 34.625 
Q 24.75 34.625 20.71875 30.859375 
Q 16.703125 27.09375 16.703125 20.515625 
Q 16.703125 13.921875 20.71875 10.15625 
Q 24.75 6.390625 31.78125 6.390625 
Q 38.8125 6.390625 42.859375 10.171875 
Q 46.921875 13.96875 46.921875 20.515625 
Q 46.921875 27.09375 42.890625 30.859375 
Q 38.875 34.625 31.78125 34.625 
M 21.921875 38.8125 
Q 15.578125 40.375 12.03125 44.71875 
Q 8.5 49.078125 8.5 55.328125 
Q 8.5 64.0625 14.71875 69.140625 
Q 20.953125 74.21875 31.78125 74.21875 
Q 42.671875 74.21875 48.875 69.140625 
Q 55.078125 64.0625 55.078125 55.328125 
Q 55.078125 49.078125 51.53125 44.71875 
Q 48 40.375 41.703125 38.8125 
Q 48.828125 37.15625 52.796875 32.3125 
Q 56.78125 27.484375 56.78125 20.515625 
Q 56.78125 9.90625 50.3125 4.234375 
Q 43.84375 -1.421875 31.78125 -1.421875 
Q 19.734375 -1.421875 13.25 4.234375 
Q 6.78125 9.90625 6.78125 20.515625 
Q 6.78125 27.484375 10.78125 32.3125 
Q 14.796875 37.15625 21.921875 38.8125 
M 18.3125 54.390625 
Q 18.3125 48.734375 21.84375 45.5625 
Q 25.390625 42.390625 31.78125 42.390625 
Q 38.140625 42.390625 41.71875 45.5625 
Q 45.3125 48.734375 45.3125 54.390625 
Q 45.3125 60.0625 41.71875 63.234375 
Q 38.140625 66.40625 31.78125 66.40625 
Q 25.390625 66.40625 21.84375 63.234375 
Q 18.3125 60.0625 18.3125 54.390625 
" id="BitstreamVeraSans-Roman-38"/>
      </defs>
      <g transform="translate(376.737254847 371.996875)scale(0.2 -0.2)">
       <use xlink:href="#BitstreamVeraSans-Roman-38"/>
      </g>
     </g>
    </g>
    <g id="xtick_10">
     <g id="line2d_34">
      <path clip-path="url(#p8d46076751)" d="M 430.099918 352.8 
L 430.099918 7.2 
" style="fill:none;stroke:#000000;stroke-dasharray:1.000000,3.000000;stroke-dashoffset:0.0;stroke-width:0.5;"/>
     </g>
     <g id="line2d_35">
      <g>
       <use style="stroke:#000000;stroke-width:0.5;" x="430.099918282" xlink:href="#m259e40c9e6" y="352.8"/>
      </g>
     </g>
     <g id="line2d_36">
      <g>
       <use style="stroke:#000000;stroke-width:0.5;" x="430.099918282" xlink:href="#m22fa3d6deb" y="7.2"/>
      </g>
     </g>
     <g id="text_9">
      <!-- 10 -->
      <defs>
       <path d="M 12.40625 8.296875 
L 28.515625 8.296875 
L 28.515625 63.921875 
L 10.984375 60.40625 
L 10.984375 69.390625 
L 28.421875 72.90625 
L 38.28125 72.90625 
L 38.28125 8.296875 
L 54.390625 8.296875 
L 54.390625 0 
L 12.40625 0 
z
" id="BitstreamVeraSans-Roman-31"/>
      </defs>
      <g transform="translate(417.374918282 371.996875)scale(0.2 -0.2)">
       <use xlink:href="#BitstreamVeraSans-Roman-31"/>
       <use x="63.623046875" xlink:href="#BitstreamVeraSans-Roman-30"/>
      </g>
     </g>
    </g>
    <g id="xtick_11"/>
    <g id="xtick_12">
     <g id="line2d_37">
      <defs>
       <path d="M 0 0 
L 0 -2 
" id="m060e0f2134" style="stroke:#000000;stroke-width:0.5;"/>
      </defs>
      <g>
       <use style="stroke:#000000;stroke-width:0.5;" x="54.0986107985" xlink:href="#m060e0f2134" y="352.8"/>
      </g>
     </g>
     <g id="line2d_38">
      <defs>
       <path d="M 0 0 
L 0 2 
" id="m1926055a71" style="stroke:#000000;stroke-width:0.5;"/>
      </defs>
      <g>
       <use style="stroke:#000000;stroke-width:0.5;" x="54.0986107985" xlink:href="#m1926055a71" y="7.2"/>
      </g>
     </g>
    </g>
    <g id="xtick_13">
     <g id="line2d_39">
      <g>
       <use style="stroke:#000000;stroke-width:0.5;" x="101.098774234" xlink:href="#m060e0f2134" y="352.8"/>
      </g>
     </g>
     <g id="line2d_40">
      <g>
       <use style="stroke:#000000;stroke-width:0.5;" x="101.098774234" xlink:href="#m1926055a71" y="7.2"/>
      </g>
     </g>
    </g>
    <g id="xtick_14">
     <g id="line2d_41">
      <g>
       <use style="stroke:#000000;stroke-width:0.5;" x="148.098937669" xlink:href="#m060e0f2134" y="352.8"/>
      </g>
     </g>
     <g id="line2d_42">
      <g>
       <use style="stroke:#000000;stroke-width:0.5;" x="148.098937669" xlink:href="#m1926055a71" y="7.2"/>
      </g>
     </g>
    </g>
    <g id="xtick_15">
     <g id="line2d_43">
      <g>
       <use style="stroke:#000000;stroke-width:0.5;" x="195.099101105" xlink:href="#m060e0f2134" y="352.8"/>
      </g>
     </g>
     <g id="line2d_44">
      <g>
       <use style="stroke:#000000;stroke-width:0.5;" x="195.099101105" xlink:href="#m1926055a71" y="7.2"/>
      </g>
     </g>
    </g>
    <g id="xtick_16">
     <g id="line2d_45">
      <g>
       <use style="stroke:#000000;stroke-width:0.5;" x="242.09926454" xlink:href="#m060e0f2134" y="352.8"/>
      </g>
     </g>
     <g id="line2d_46">
      <g>
       <use style="stroke:#000000;stroke-width:0.5;" x="242.09926454" xlink:href="#m1926055a71" y="7.2"/>
      </g>
     </g>
    </g>
    <g id="xtick_17">
     <g id="line2d_47">
      <g>
       <use style="stroke:#000000;stroke-width:0.5;" x="289.099427976" xlink:href="#m060e0f2134" y="352.8"/>
      </g>
     </g>
     <g id="line2d_48">
      <g>
       <use style="stroke:#000000;stroke-width:0.5;" x="289.099427976" xlink:href="#m1926055a71" y="7.2"/>
      </g>
     </g>
    </g>
    <g id="xtick_18">
     <g id="line2d_49">
      <g>
       <use style="stroke:#000000;stroke-width:0.5;" x="336.099591411" xlink:href="#m060e0f2134" y="352.8"/>
      </g>
     </g>
     <g id="line2d_50">
      <g>
       <use style="stroke:#000000;stroke-width:0.5;" x="336.099591411" xlink:href="#m1926055a71" y="7.2"/>
      </g>
     </g>
    </g>
    <g id="xtick_19">
     <g id="line2d_51">
      <g>
       <use style="stroke:#000000;stroke-width:0.5;" x="383.099754847" xlink:href="#m060e0f2134" y="352.8"/>
      </g>
     </g>
     <g id="line2d_52">
      <g>
       <use style="stroke:#000000;stroke-width:0.5;" x="383.099754847" xlink:href="#m1926055a71" y="7.2"/>
      </g>
     </g>
    </g>
    <g id="xtick_20">
     <g id="line2d_53">
      <g>
       <use style="stroke:#000000;stroke-width:0.5;" x="430.099918282" xlink:href="#m060e0f2134" y="352.8"/>
      </g>
     </g>
     <g id="line2d_54">
      <g>
       <use style="stroke:#000000;stroke-width:0.5;" x="430.099918282" xlink:href="#m1926055a71" y="7.2"/>
      </g>
     </g>
    </g>
    <g id="text_10">
     <!-- log10 of Df -->
     <defs>
      <path id="BitstreamVeraSans-Roman-20"/>
      <path d="M 30.609375 48.390625 
Q 23.390625 48.390625 19.1875 42.75 
Q 14.984375 37.109375 14.984375 27.296875 
Q 14.984375 17.484375 19.15625 11.84375 
Q 23.34375 6.203125 30.609375 6.203125 
Q 37.796875 6.203125 41.984375 11.859375 
Q 46.1875 17.53125 46.1875 27.296875 
Q 46.1875 37.015625 41.984375 42.703125 
Q 37.796875 48.390625 30.609375 48.390625 
M 30.609375 56 
Q 42.328125 56 49.015625 48.375 
Q 55.71875 40.765625 55.71875 27.296875 
Q 55.71875 13.875 49.015625 6.21875 
Q 42.328125 -1.421875 30.609375 -1.421875 
Q 18.84375 -1.421875 12.171875 6.21875 
Q 5.515625 13.875 5.515625 27.296875 
Q 5.515625 40.765625 12.171875 48.375 
Q 18.84375 56 30.609375 56 
" id="BitstreamVeraSans-Roman-6f"/>
      <path d="M 9.421875 75.984375 
L 18.40625 75.984375 
L 18.40625 0 
L 9.421875 0 
z
" id="BitstreamVeraSans-Roman-6c"/>
      <path d="M 19.671875 64.796875 
L 19.671875 8.109375 
L 31.59375 8.109375 
Q 46.6875 8.109375 53.6875 14.9375 
Q 60.6875 21.78125 60.6875 36.53125 
Q 60.6875 51.171875 53.6875 57.984375 
Q 46.6875 64.796875 31.59375 64.796875 
z
M 9.8125 72.90625 
L 30.078125 72.90625 
Q 51.265625 72.90625 61.171875 64.09375 
Q 71.09375 55.28125 71.09375 36.53125 
Q 71.09375 17.671875 61.125 8.828125 
Q 51.171875 0 30.078125 0 
L 9.8125 0 
z
" id="BitstreamVeraSans-Roman-44"/>
      <path d="M 45.40625 27.984375 
Q 45.40625 37.75 41.375 43.109375 
Q 37.359375 48.484375 30.078125 48.484375 
Q 22.859375 48.484375 18.828125 43.109375 
Q 14.796875 37.75 14.796875 27.984375 
Q 14.796875 18.265625 18.828125 12.890625 
Q 22.859375 7.515625 30.078125 7.515625 
Q 37.359375 7.515625 41.375 12.890625 
Q 45.40625 18.265625 45.40625 27.984375 
M 54.390625 6.78125 
Q 54.390625 -7.171875 48.1875 -13.984375 
Q 42 -20.796875 29.203125 -20.796875 
Q 24.46875 -20.796875 20.265625 -20.09375 
Q 16.0625 -19.390625 12.109375 -17.921875 
L 12.109375 -9.1875 
Q 16.0625 -11.328125 19.921875 -12.34375 
Q 23.78125 -13.375 27.78125 -13.375 
Q 36.625 -13.375 41.015625 -8.765625 
Q 45.40625 -4.15625 45.40625 5.171875 
L 45.40625 9.625 
Q 42.625 4.78125 38.28125 2.390625 
Q 33.9375 0 27.875 0 
Q 17.828125 0 11.671875 7.65625 
Q 5.515625 15.328125 5.515625 27.984375 
Q 5.515625 40.671875 11.671875 48.328125 
Q 17.828125 56 27.875 56 
Q 33.9375 56 38.28125 53.609375 
Q 42.625 51.21875 45.40625 46.390625 
L 45.40625 54.6875 
L 54.390625 54.6875 
z
" id="BitstreamVeraSans-Roman-67"/>
      <path d="M 37.109375 75.984375 
L 37.109375 68.5 
L 28.515625 68.5 
Q 23.6875 68.5 21.796875 66.546875 
Q 19.921875 64.59375 19.921875 59.515625 
L 19.921875 54.6875 
L 34.71875 54.6875 
L 34.71875 47.703125 
L 19.921875 47.703125 
L 19.921875 0 
L 10.890625 0 
L 10.890625 47.703125 
L 2.296875 47.703125 
L 2.296875 54.6875 
L 10.890625 54.6875 
L 10.890625 58.5 
Q 10.890625 67.625 15.140625 71.796875 
Q 19.390625 75.984375 28.609375 75.984375 
z
" id="BitstreamVeraSans-Roman-66"/>
     </defs>
     <g transform="translate(175.2140625 396.353125)scale(0.2 -0.2)">
      <use xlink:href="#BitstreamVeraSans-Roman-6c"/>
      <use x="27.783203125" xlink:href="#BitstreamVeraSans-Roman-6f"/>
      <use x="88.96484375" xlink:href="#BitstreamVeraSans-Roman-67"/>
      <use x="152.44140625" xlink:href="#BitstreamVeraSans-Roman-31"/>
      <use x="216.064453125" xlink:href="#BitstreamVeraSans-Roman-30"/>
      <use x="279.6875" xlink:href="#BitstreamVeraSans-Roman-20"/>
      <use x="311.474609375" xlink:href="#BitstreamVeraSans-Roman-6f"/>
      <use x="372.65625" xlink:href="#BitstreamVeraSans-Roman-66"/>
      <use x="407.861328125" xlink:href="#BitstreamVeraSans-Roman-20"/>
      <use x="439.6484375" xlink:href="#BitstreamVeraSans-Roman-44"/>
      <use x="516.650390625" xlink:href="#BitstreamVeraSans-Roman-66"/>
     </g>
    </g>
   </g>
   <g id="matplotlib.axis_2">
    <g id="ytick_1">
     <g id="line2d_55">
      <path clip-path="url(#p8d46076751)" d="M 7.2 352.8 
L 453.6 352.8 
" style="fill:none;stroke:#000000;stroke-dasharray:1.000000,3.000000;stroke-dashoffset:0.0;stroke-width:0.5;"/>
     </g>
     <g id="line2d_56">
      <defs>
       <path d="M 0 0 
L 4 0 
" id="m68cf7c76db" style="stroke:#000000;stroke-width:0.5;"/>
      </defs>
      <g>
       <use style="stroke:#000000;stroke-width:0.5;" x="7.2" xlink:href="#m68cf7c76db" y="352.8"/>
      </g>
     </g>
     <g id="line2d_57">
      <defs>
       <path d="M 0 0 
L -4 0 
" id="m76a4560f94" style="stroke:#000000;stroke-width:0.5;"/>
      </defs>
      <g>
       <use style="stroke:#000000;stroke-width:0.5;" x="453.6" xlink:href="#m76a4560f94" y="352.8"/>
      </g>
     </g>
    </g>
    <g id="ytick_2">
     <g id="line2d_58">
      <path clip-path="url(#p8d46076751)" d="M 7.2 284.364356 
L 453.6 284.364356 
" style="fill:none;stroke:#000000;stroke-dasharray:1.000000,3.000000;stroke-dashoffset:0.0;stroke-width:0.5;"/>
     </g>
     <g id="line2d_59">
      <g>
       <use style="stroke:#000000;stroke-width:0.5;" x="7.2" xlink:href="#m68cf7c76db" y="284.364356436"/>
      </g>
     </g>
     <g id="line2d_60">
      <g>
       <use style="stroke:#000000;stroke-width:0.5;" x="453.6" xlink:href="#m76a4560f94" y="284.364356436"/>
      </g>
     </g>
    </g>
    <g id="ytick_3">
     <g id="line2d_61">
      <path clip-path="url(#p8d46076751)" d="M 7.2 215.928713 
L 453.6 215.928713 
" style="fill:none;stroke:#000000;stroke-dasharray:1.000000,3.000000;stroke-dashoffset:0.0;stroke-width:0.5;"/>
     </g>
     <g id="line2d_62">
      <g>
       <use style="stroke:#000000;stroke-width:0.5;" x="7.2" xlink:href="#m68cf7c76db" y="215.928712871"/>
      </g>
     </g>
     <g id="line2d_63">
      <g>
       <use style="stroke:#000000;stroke-width:0.5;" x="453.6" xlink:href="#m76a4560f94" y="215.928712871"/>
      </g>
     </g>
    </g>
    <g id="ytick_4">
     <g id="line2d_64">
      <path clip-path="url(#p8d46076751)" d="M 7.2 147.493069 
L 453.6 147.493069 
" style="fill:none;stroke:#000000;stroke-dasharray:1.000000,3.000000;stroke-dashoffset:0.0;stroke-width:0.5;"/>
     </g>
     <g id="line2d_65">
      <g>
       <use style="stroke:#000000;stroke-width:0.5;" x="7.2" xlink:href="#m68cf7c76db" y="147.493069307"/>
      </g>
     </g>
     <g id="line2d_66">
      <g>
       <use style="stroke:#000000;stroke-width:0.5;" x="453.6" xlink:href="#m76a4560f94" y="147.493069307"/>
      </g>
     </g>
    </g>
    <g id="ytick_5">
     <g id="line2d_67">
      <path clip-path="url(#p8d46076751)" d="M 7.2 79.057426 
L 453.6 79.057426 
" style="fill:none;stroke:#000000;stroke-dasharray:1.000000,3.000000;stroke-dashoffset:0.0;stroke-width:0.5;"/>
     </g>
     <g id="line2d_68">
      <g>
       <use style="stroke:#000000;stroke-width:0.5;" x="7.2" xlink:href="#m68cf7c76db" y="79.0574257426"/>
      </g>
     </g>
     <g id="line2d_69">
      <g>
       <use style="stroke:#000000;stroke-width:0.5;" x="453.6" xlink:href="#m76a4560f94" y="79.0574257426"/>
      </g>
     </g>
    </g>
    <g id="ytick_6">
     <g id="line2d_70">
      <path clip-path="url(#p8d46076751)" d="M 7.2 10.621782 
L 453.6 10.621782 
" style="fill:none;stroke:#000000;stroke-dasharray:1.000000,3.000000;stroke-dashoffset:0.0;stroke-width:0.5;"/>
     </g>
     <g id="line2d_71">
      <g>
       <use style="stroke:#000000;stroke-width:0.5;" x="7.2" xlink:href="#m68cf7c76db" y="10.6217821782"/>
      </g>
     </g>
     <g id="line2d_72">
      <g>
       <use style="stroke:#000000;stroke-width:0.5;" x="453.6" xlink:href="#m76a4560f94" y="10.6217821782"/>
      </g>
     </g>
    </g>
   </g>
   <g id="text_11">
    <!-- {f6-f9}, 5-D -->
    <defs>
     <path d="M 12.5 -9.28125 
L 15.921875 -9.28125 
Q 22.75 -9.28125 24.828125 -7.171875 
Q 26.90625 -5.078125 26.90625 1.90625 
L 26.90625 14.015625 
Q 26.90625 21.625 29.09375 25.09375 
Q 31.296875 28.5625 36.71875 29.890625 
Q 31.296875 31.109375 29.09375 34.5625 
Q 26.90625 38.03125 26.90625 45.703125 
L 26.90625 57.8125 
Q 26.90625 64.75 24.828125 66.875 
Q 22.75 69 15.921875 69 
L 12.5 69 
L 12.5 75.984375 
L 15.578125 75.984375 
Q 27.734375 75.984375 31.8125 72.390625 
Q 35.890625 68.796875 35.890625 58.015625 
L 35.890625 46.296875 
Q 35.890625 39.015625 38.515625 36.203125 
Q 41.15625 33.40625 48.09375 33.40625 
L 51.125 33.40625 
L 51.125 26.421875 
L 48.09375 26.421875 
Q 41.15625 26.421875 38.515625 23.578125 
Q 35.890625 20.75 35.890625 13.375 
L 35.890625 1.703125 
Q 35.890625 -9.078125 31.8125 -12.6875 
Q 27.734375 -16.3125 15.578125 -16.3125 
L 12.5 -16.3125 
z
" id="BitstreamVeraSans-Roman-7d"/>
     <path d="M 10.984375 1.515625 
L 10.984375 10.5 
Q 14.703125 8.734375 18.5 7.8125 
Q 22.3125 6.890625 25.984375 6.890625 
Q 35.75 6.890625 40.890625 13.453125 
Q 46.046875 20.015625 46.78125 33.40625 
Q 43.953125 29.203125 39.59375 26.953125 
Q 35.25 24.703125 29.984375 24.703125 
Q 19.046875 24.703125 12.671875 31.3125 
Q 6.296875 37.9375 6.296875 49.421875 
Q 6.296875 60.640625 12.9375 67.421875 
Q 19.578125 74.21875 30.609375 74.21875 
Q 43.265625 74.21875 49.921875 64.515625 
Q 56.59375 54.828125 56.59375 36.375 
Q 56.59375 19.140625 48.40625 8.859375 
Q 40.234375 -1.421875 26.421875 -1.421875 
Q 22.703125 -1.421875 18.890625 -0.6875 
Q 15.09375 0.046875 10.984375 1.515625 
M 30.609375 32.421875 
Q 37.25 32.421875 41.125 36.953125 
Q 45.015625 41.5 45.015625 49.421875 
Q 45.015625 57.28125 41.125 61.84375 
Q 37.25 66.40625 30.609375 66.40625 
Q 23.96875 66.40625 20.09375 61.84375 
Q 16.21875 57.28125 16.21875 49.421875 
Q 16.21875 41.5 20.09375 36.953125 
Q 23.96875 32.421875 30.609375 32.421875 
" id="BitstreamVeraSans-Roman-39"/>
     <path d="M 51.125 -9.28125 
L 51.125 -16.3125 
L 48.09375 -16.3125 
Q 35.9375 -16.3125 31.8125 -12.6875 
Q 27.6875 -9.078125 27.6875 1.703125 
L 27.6875 13.375 
Q 27.6875 20.75 25.046875 23.578125 
Q 22.40625 26.421875 15.484375 26.421875 
L 12.5 26.421875 
L 12.5 33.40625 
L 15.484375 33.40625 
Q 22.46875 33.40625 25.078125 36.203125 
Q 27.6875 39.015625 27.6875 46.296875 
L 27.6875 58.015625 
Q 27.6875 68.796875 31.8125 72.390625 
Q 35.9375 75.984375 48.09375 75.984375 
L 51.125 75.984375 
L 51.125 69 
L 47.796875 69 
Q 40.921875 69 38.8125 66.84375 
Q 36.71875 64.703125 36.71875 57.8125 
L 36.71875 45.703125 
Q 36.71875 38.03125 34.5 34.5625 
Q 32.28125 31.109375 26.90625 29.890625 
Q 32.328125 28.5625 34.515625 25.09375 
Q 36.71875 21.625 36.71875 14.015625 
L 36.71875 1.90625 
Q 36.71875 -4.984375 38.8125 -7.125 
Q 40.921875 -9.28125 47.796875 -9.28125 
z
" id="BitstreamVeraSans-Roman-7b"/>
     <path d="M 11.71875 12.40625 
L 22.015625 12.40625 
L 22.015625 4 
L 14.015625 -11.625 
L 7.71875 -11.625 
L 11.71875 4 
z
" id="BitstreamVeraSans-Roman-2c"/>
     <path d="M 10.796875 72.90625 
L 49.515625 72.90625 
L 49.515625 64.59375 
L 19.828125 64.59375 
L 19.828125 46.734375 
Q 21.96875 47.46875 24.109375 47.828125 
Q 26.265625 48.1875 28.421875 48.1875 
Q 40.625 48.1875 47.75 41.5 
Q 54.890625 34.8125 54.890625 23.390625 
Q 54.890625 11.625 47.5625 5.09375 
Q 40.234375 -1.421875 26.90625 -1.421875 
Q 22.3125 -1.421875 17.546875 -0.640625 
Q 12.796875 0.140625 7.71875 1.703125 
L 7.71875 11.625 
Q 12.109375 9.234375 16.796875 8.0625 
Q 21.484375 6.890625 26.703125 6.890625 
Q 35.15625 6.890625 40.078125 11.328125 
Q 45.015625 15.765625 45.015625 23.390625 
Q 45.015625 31 40.078125 35.4375 
Q 35.15625 39.890625 26.703125 39.890625 
Q 22.75 39.890625 18.8125 39.015625 
Q 14.890625 38.140625 10.796875 36.28125 
z
" id="BitstreamVeraSans-Roman-35"/>
    </defs>
    <g transform="translate(324.422 345.888)scale(0.2 -0.2)">
     <use xlink:href="#BitstreamVeraSans-Roman-7b"/>
     <use x="63.623046875" xlink:href="#BitstreamVeraSans-Roman-66"/>
     <use x="98.828125" xlink:href="#BitstreamVeraSans-Roman-36"/>
     <use x="162.451171875" xlink:href="#BitstreamVeraSans-Roman-2d"/>
     <use x="198.53515625" xlink:href="#BitstreamVeraSans-Roman-66"/>
     <use x="233.740234375" xlink:href="#BitstreamVeraSans-Roman-39"/>
     <use x="297.36328125" xlink:href="#BitstreamVeraSans-Roman-7d"/>
     <use x="360.986328125" xlink:href="#BitstreamVeraSans-Roman-2c"/>
     <use x="392.7734375" xlink:href="#BitstreamVeraSans-Roman-20"/>
     <use x="424.560546875" xlink:href="#BitstreamVeraSans-Roman-35"/>
     <use x="488.18359375" xlink:href="#BitstreamVeraSans-Roman-2d"/>
     <use x="524.267578125" xlink:href="#BitstreamVeraSans-Roman-44"/>
    </g>
   </g>
   <g id="text_12">
    <!-- 0.0.0 -->
    <defs>
     <path d="M 10.6875 12.40625 
L 21 12.40625 
L 21 0 
L 10.6875 0 
z
" id="BitstreamVeraSans-Roman-2e"/>
    </defs>
    <g style="fill:#808080;" transform="translate(217.678125 347.2643125)scale(0.1 -0.1)">
     <use xlink:href="#BitstreamVeraSans-Roman-30"/>
     <use x="63.623046875" xlink:href="#BitstreamVeraSans-Roman-2e"/>
     <use x="95.41015625" xlink:href="#BitstreamVeraSans-Roman-30"/>
     <use x="159.033203125" xlink:href="#BitstreamVeraSans-Roman-2e"/>
     <use x="190.8203125" xlink:href="#BitstreamVeraSans-Roman-30"/>
    </g>
   </g>
  </g>
 </g>
 <defs>
  <clipPath id="p8d46076751">
   <rect height="345.6" width="446.4" x="7.2" y="7.2"/>
  </clipPath>
 </defs>
</svg>
