<?xml version="1.0" encoding="utf-8" standalone="no"?>
<!DOCTYPE svg PUBLIC "-//W3C//DTD SVG 1.1//EN"
  "http://www.w3.org/Graphics/SVG/1.1/DTD/svg11.dtd">
<!-- Created with matplotlib (http://matplotlib.org/) -->
<svg height="413pt" version="1.1" viewBox="0 0 527 413" width="527pt" xmlns="http://www.w3.org/2000/svg" xmlns:xlink="http://www.w3.org/1999/xlink">
 <defs>
  <style type="text/css">
*{stroke-linecap:butt;stroke-linejoin:round;stroke-miterlimit:100000;}
  </style>
 </defs>
 <g id="figure_1">
  <g id="patch_1">
   <path d="M 0 413.968843 
L 527.325 413.968843 
L 527.325 0 
L 0 0 
z
" style="fill:#ffffff;"/>
  </g>
  <g id="axes_1">
   <g id="patch_2">
    <path d="M 67.3625 359.056343 
L 513.7625 359.056343 
L 513.7625 13.456343 
L 67.3625 13.456343 
z
" style="fill:#ffffff;"/>
   </g>
   <g id="line2d_1">
    <path clip-path="url(#pf94b95e14b)" d="M 406.932339 359.056343 
L 406.932339 353.353373 
L 412.041295 353.353373 
L 412.041295 347.650402 
L 413.976904 347.650402 
L 413.976904 341.947432 
L 413.976904 341.947432 
L 413.976904 336.244462 
L 414.923394 336.244462 
L 414.923394 330.541491 
L 415.235834 330.541491 
L 415.235834 324.838521 
L 415.546772 324.838521 
L 415.546772 319.135551 
L 417.079405 319.135551 
L 417.079405 313.43258 
L 417.981836 313.43258 
L 417.981836 307.72961 
L 418.279867 307.72961 
L 418.279867 302.02664 
L 418.279867 302.02664 
L 418.279867 296.32367 
L 418.57653 296.32367 
L 418.57653 290.620699 
L 418.57653 290.620699 
L 418.57653 284.917729 
L 419.458435 284.917729 
L 419.458435 279.214759 
L 419.458435 279.214759 
L 419.458435 273.511788 
L 421.470582 273.511788 
L 421.470582 267.808818 
L 422.034158 267.808818 
L 422.034158 262.105848 
L 422.314114 262.105848 
L 422.314114 256.402877 
L 422.592862 256.402877 
L 422.592862 250.699907 
L 422.870413 250.699907 
L 422.870413 244.996937 
L 423.695985 244.996937 
L 423.695985 239.293967 
L 423.695985 239.293967 
L 423.695985 233.590996 
L 423.968848 233.590996 
L 423.968848 227.888026 
L 428.693066 227.888026 
L 428.693066 222.185056 
L 431.175689 222.185056 
L 431.175689 216.482085 
L 431.660971 216.482085 
L 431.660971 210.779115 
L 461.212985 210.779115 
L 461.212985 205.076145 
L 466.539538 205.076145 
L 466.539538 199.373175 
L 472.294303 199.373175 
L 472.294303 193.670204 
L 485.038095 193.670204 
L 485.038095 187.967234 
L 485.038095 187.967234 
L 485.038095 187.967234 
L 513.7625 187.967234 
" style="fill:none;stroke:#f5deb3;stroke-linecap:square;"/>
   </g>
   <g id="line2d_2"/>
   <g id="line2d_3">
    <path clip-path="url(#pf94b95e14b)" d="M 407.970348 359.056343 
L 407.970348 353.353373 
L 418.829734 353.353373 
L 418.829734 347.650402 
L 424.098379 347.650402 
L 424.098379 341.947432 
L 432.518584 341.947432 
L 432.518584 336.244462 
L 433.532918 336.244462 
L 433.532918 330.541491 
L 434.056364 330.541491 
L 434.056364 324.838521 
L 434.100718 324.838521 
L 434.100718 319.135551 
L 434.277828 319.135551 
L 434.277828 313.43258 
L 435.742373 313.43258 
L 435.742373 307.72961 
L 436.792828 307.72961 
L 436.792828 302.02664 
L 437.089848 302.02664 
L 437.089848 296.32367 
L 437.627367 296.32367 
L 437.627367 290.620699 
L 437.962364 290.620699 
L 437.962364 284.917729 
L 438.045843 284.917729 
L 438.045843 279.214759 
L 438.097963 279.214759 
L 438.097963 273.511788 
L 438.15004 273.511788 
L 438.15004 267.808818 
L 438.316407 267.808818 
L 438.316407 262.105848 
L 441.140685 262.105848 
L 441.140685 256.402877 
L 442.136954 256.402877 
L 442.136954 250.699907 
L 443.089167 250.699907 
L 443.089167 244.996937 
L 443.89433 244.996937 
L 443.89433 239.293967 
L 445.50305 239.293967 
L 445.50305 233.590996 
L 446.232948 233.590996 
L 446.232948 227.888026 
L 457.94771 227.888026 
L 457.94771 222.185056 
L 459.147419 222.185056 
L 459.147419 216.482085 
L 459.873066 216.482085 
L 459.873066 210.779115 
L 460.994023 210.779115 
L 460.994023 205.076145 
L 461.103597 205.076145 
L 461.103597 199.373175 
L 461.147374 199.373175 
L 461.147374 193.670204 
L 463.362746 193.670204 
L 463.362746 187.967234 
L 463.580865 187.967234 
L 463.580865 182.264264 
L 465.251915 182.264264 
L 465.251915 176.561293 
L 466.257106 176.561293 
L 466.257106 170.858323 
L 466.438811 170.858323 
L 466.438811 165.155353 
L 467.643891 165.155353 
L 467.643891 159.452382 
L 468.528299 159.452382 
L 468.528299 153.749412 
L 470.508181 153.749412 
L 470.508181 148.046442 
L 474.395853 148.046442 
L 474.395853 142.343472 
L 477.538634 142.343472 
L 477.538634 136.640501 
L 489.029615 136.640501 
L 489.029615 130.937531 
L 493.645875 130.937531 
L 493.645875 125.234561 
L 493.958309 125.234561 
L 493.958309 119.53159 
L 495.703637 119.53159 
L 495.703637 113.82862 
L 496.222837 113.82862 
L 496.222837 108.12565 
L 496.98971 108.12565 
L 496.98971 102.422679 
L 496.98971 102.422679 
L 496.98971 102.422679 
L 513.7625 102.422679 
" style="fill:none;stroke:#f5deb3;stroke-linecap:square;"/>
   </g>
   <g id="line2d_4">
    <path clip-path="url(#pf94b95e14b)" d="M 490.412354 359.056343 
L 490.412354 353.353373 
L 498.01612 353.353373 
L 498.01612 347.650402 
L 502.602873 347.650402 
L 502.602873 341.947432 
L 503.404326 341.947432 
L 503.404326 336.244462 
L 508.685954 336.244462 
L 508.685954 330.541491 
L 508.717403 330.541491 
L 508.717403 324.838521 
L 511.419972 324.838521 
L 511.419972 319.135551 
L 512.582108 319.135551 
L 512.582108 313.43258 
L 512.608429 313.43258 
L 512.608429 307.72961 
L 513.305294 307.72961 
L 513.305294 302.02664 
L 514.216494 302.02664 
L 514.216494 296.32367 
L 514.848681 296.32367 
L 514.848681 290.620699 
L 516.739824 290.620699 
L 516.739824 284.917729 
L 517.409021 284.917729 
L 517.409021 279.214759 
L 517.70153 279.214759 
L 517.70153 273.511788 
L 521.391226 273.511788 
L 521.391226 267.808818 
L 523.481854 267.808818 
L 523.481854 262.105848 
L 524.362632 262.105848 
L 524.362632 256.402877 
L 524.944125 256.402877 
L 524.944125 250.699907 
L 528.325 250.699907 
" style="fill:none;stroke:#f5deb3;stroke-linecap:square;"/>
   </g>
   <g id="line2d_5">
    <path clip-path="url(#pf94b95e14b)" d="M 471.801371 359.056343 
L 471.801371 353.353373 
L 475.48 353.353373 
L 475.48 347.650402 
L 479.131861 347.650402 
L 479.131861 341.947432 
L 479.418365 341.947432 
L 479.418365 336.244462 
L 482.078611 336.244462 
L 482.078611 330.541491 
L 482.781727 330.541491 
L 482.781727 324.838521 
L 485.64503 324.838521 
L 485.64503 319.135551 
L 486.345167 319.135551 
L 486.345167 313.43258 
L 486.448797 313.43258 
L 486.448797 307.72961 
L 486.527642 307.72961 
L 486.527642 302.02664 
L 487.514869 302.02664 
L 487.514869 296.32367 
L 490.184718 296.32367 
L 490.184718 290.620699 
L 490.662293 290.620699 
L 490.662293 284.917729 
L 491.48851 284.917729 
L 491.48851 279.214759 
L 491.497631 279.214759 
L 491.497631 273.511788 
L 491.938466 273.511788 
L 491.938466 267.808818 
L 492.114865 267.808818 
L 492.114865 262.105848 
L 492.815685 262.105848 
L 492.815685 256.402877 
L 493.01644 256.402877 
L 493.01644 250.699907 
L 493.389522 250.699907 
L 493.389522 244.996937 
L 493.451494 244.996937 
L 493.451494 239.293967 
L 493.579674 239.293967 
L 493.579674 233.590996 
L 494.243021 233.590996 
L 494.243021 227.888026 
L 494.426324 227.888026 
L 494.426324 222.185056 
L 495.124208 222.185056 
L 495.124208 216.482085 
L 497.152862 216.482085 
L 497.152862 210.779115 
L 497.842735 210.779115 
L 497.842735 205.076145 
L 498.003751 205.076145 
L 498.003751 199.373175 
L 498.336892 199.373175 
L 498.336892 193.670204 
L 499.018364 193.670204 
L 499.018364 187.967234 
L 501.635618 187.967234 
L 501.635618 182.264264 
L 502.95521 182.264264 
L 502.95521 176.561293 
L 503.15351 176.561293 
L 503.15351 170.858323 
L 504.435306 170.858323 
L 504.435306 165.155353 
L 504.863164 165.155353 
L 504.863164 159.452382 
L 509.657277 159.452382 
L 509.657277 153.749412 
L 509.770799 153.749412 
L 509.770799 148.046442 
L 510.593859 148.046442 
L 510.593859 142.343472 
L 528.325 142.343472 
" style="fill:none;stroke:#f5deb3;stroke-linecap:square;"/>
   </g>
   <g id="line2d_6"/>
   <g id="line2d_7">
    <path clip-path="url(#pf94b95e14b)" d="M 465.634099 359.056343 
L 465.634099 353.353373 
L 466.351388 353.353373 
L 466.351388 347.650402 
L 469.36224 347.650402 
L 469.36224 341.947432 
L 470.286945 341.947432 
L 470.286945 336.244462 
L 470.804083 336.244462 
L 470.804083 330.541491 
L 471.24853 330.541491 
L 471.24853 324.838521 
L 472.380181 324.838521 
L 472.380181 319.135551 
L 472.923465 319.135551 
L 472.923465 313.43258 
L 473.40191 313.43258 
L 473.40191 307.72961 
L 475.087331 307.72961 
L 475.087331 302.02664 
L 475.18132 302.02664 
L 475.18132 296.32367 
L 476.574987 296.32367 
L 476.574987 290.620699 
L 478.888438 290.620699 
L 478.888438 284.917729 
L 479.142904 284.917729 
L 479.142904 279.214759 
L 482.173505 279.214759 
L 482.173505 273.511788 
L 515.587923 273.511788 
L 515.587923 267.808818 
L 518.646138 267.808818 
L 518.646138 262.105848 
L 519.473696 262.105848 
L 519.473696 256.402877 
L 521.117869 256.402877 
L 521.117869 250.699907 
L 521.310777 250.699907 
L 521.310777 244.996937 
L 522.36019 244.996937 
L 522.36019 239.293967 
L 522.69311 239.293967 
L 522.69311 233.590996 
L 525.404501 233.590996 
L 525.404501 227.888026 
L 526.024861 227.888026 
L 526.024861 222.185056 
L 527.499275 222.185056 
L 527.499275 216.482085 
L 527.637584 216.482085 
L 527.637584 210.779115 
L 527.799005 210.779115 
L 527.799005 205.076145 
L 527.889952 205.076145 
L 527.889952 199.373175 
L 528.325 199.373175 
" style="fill:none;stroke:#f5deb3;stroke-linecap:square;"/>
   </g>
   <g id="line2d_8">
    <path clip-path="url(#pf94b95e14b)" d="M 675.316631 359.056343 
" style="fill:none;stroke:#f5deb3;stroke-linecap:square;"/>
   </g>
   <g id="line2d_9">
    <path clip-path="url(#pf94b95e14b)" d="M 464.02886 359.056343 
L 464.02886 353.353373 
L 467.828321 353.353373 
L 467.828321 347.650402 
L 468.058122 347.650402 
L 468.058122 341.947432 
L 471.092383 341.947432 
L 471.092383 336.244462 
L 471.541069 336.244462 
L 471.541069 330.541491 
L 471.671351 330.541491 
L 471.671351 324.838521 
L 472.128359 324.838521 
L 472.128359 319.135551 
L 472.777411 319.135551 
L 472.777411 313.43258 
L 473.936708 313.43258 
L 473.936708 307.72961 
L 474.175632 307.72961 
L 474.175632 302.02664 
L 474.727741 302.02664 
L 474.727741 296.32367 
L 477.362944 296.32367 
L 477.362944 290.620699 
L 478.017931 290.620699 
L 478.017931 284.917729 
L 479.648848 284.917729 
L 479.648848 279.214759 
L 483.306676 279.214759 
L 483.306676 273.511788 
L 484.79574 273.511788 
L 484.79574 267.808818 
L 509.715783 267.808818 
L 509.715783 262.105848 
L 510.079394 262.105848 
L 510.079394 256.402877 
L 510.942451 256.402877 
L 510.942451 250.699907 
L 510.949201 250.699907 
L 510.949201 244.996937 
L 511.943859 244.996937 
L 511.943859 239.293967 
L 512.093238 239.293967 
L 512.093238 233.590996 
L 513.862588 233.590996 
L 513.862588 227.888026 
L 514.507813 227.888026 
L 514.507813 222.185056 
L 514.638638 222.185056 
L 514.638638 216.482085 
L 514.766018 216.482085 
L 514.766018 210.779115 
L 514.839148 210.779115 
L 514.839148 205.076145 
L 515.080208 205.076145 
L 515.080208 199.373175 
L 515.490474 199.373175 
L 515.490474 193.670204 
L 516.396405 193.670204 
L 516.396405 187.967234 
L 516.60082 187.967234 
L 516.60082 182.264264 
L 517.534109 182.264264 
L 517.534109 176.561293 
L 518.294656 176.561293 
L 518.294656 170.858323 
L 519.067195 170.858323 
L 519.067195 165.155353 
L 519.12075 165.155353 
L 519.12075 159.452382 
L 519.77175 159.452382 
L 519.77175 153.749412 
L 520.646134 153.749412 
L 520.646134 148.046442 
L 522.552252 148.046442 
L 522.552252 142.343472 
L 523.409534 142.343472 
L 523.409534 136.640501 
L 524.963146 136.640501 
L 524.963146 130.937531 
L 525.848222 130.937531 
L 525.848222 125.234561 
L 528.325 125.234561 
" style="fill:none;stroke:#f5deb3;stroke-linecap:square;"/>
   </g>
   <g id="line2d_10">
    <path clip-path="url(#pf94b95e14b)" d="M 790.154664 359.056343 
" style="fill:none;stroke:#f5deb3;stroke-linecap:square;"/>
   </g>
   <g id="line2d_11">
    <path clip-path="url(#pf94b95e14b)" d="M 481.697634 359.056343 
L 481.697634 353.353373 
L 486.851863 353.353373 
L 486.851863 347.650402 
L 494.14242 347.650402 
L 494.14242 341.947432 
L 505.052007 341.947432 
L 505.052007 336.244462 
L 506.622643 336.244462 
L 506.622643 330.541491 
L 507.440213 330.541491 
L 507.440213 324.838521 
L 512.956165 324.838521 
L 512.956165 319.135551 
L 513.041174 319.135551 
L 513.041174 313.43258 
L 513.952857 313.43258 
L 513.952857 307.72961 
L 528.325 307.72961 
" style="fill:none;stroke:#f5deb3;stroke-linecap:square;"/>
   </g>
   <g id="line2d_12">
    <path clip-path="url(#pf94b95e14b)" d="M 411.947661 359.056343 
L 411.947661 353.353373 
L 419.957029 353.353373 
L 419.957029 347.650402 
L 420.246109 347.650402 
L 420.246109 341.947432 
L 422.791235 341.947432 
L 422.791235 336.244462 
L 423.343459 336.244462 
L 423.343459 330.541491 
L 424.43395 330.541491 
L 424.43395 324.838521 
L 425.239909 324.838521 
L 425.239909 319.135551 
L 425.239909 319.135551 
L 425.239909 313.43258 
L 425.771684 313.43258 
L 425.771684 307.72961 
L 425.771684 307.72961 
L 425.771684 302.02664 
L 426.03594 302.02664 
L 426.03594 296.32367 
L 426.29912 296.32367 
L 426.29912 290.620699 
L 426.561232 290.620699 
L 426.561232 284.917729 
L 426.822285 284.917729 
L 426.822285 279.214759 
L 426.822285 279.214759 
L 426.822285 273.511788 
L 427.599176 273.511788 
L 427.599176 267.808818 
L 427.599176 267.808818 
L 427.599176 262.105848 
L 427.599176 262.105848 
L 427.599176 256.402877 
L 428.366839 256.402877 
L 428.366839 250.699907 
L 428.366839 250.699907 
L 428.366839 244.996937 
L 428.366839 244.996937 
L 428.366839 239.293967 
L 429.125489 239.293967 
L 429.125489 233.590996 
L 429.376406 233.590996 
L 429.376406 227.888026 
L 433.733888 227.888026 
L 433.733888 222.185056 
L 441.240014 222.185056 
L 441.240014 216.482085 
L 468.813955 216.482085 
L 468.813955 210.779115 
L 473.407944 210.779115 
L 473.407944 205.076145 
L 474.038358 205.076145 
L 474.038358 199.373175 
L 474.786827 199.373175 
L 474.786827 193.670204 
L 490.750005 193.670204 
L 490.750005 187.967234 
L 490.750005 187.967234 
L 490.750005 187.967234 
L 513.7625 187.967234 
" style="fill:none;stroke:#f5deb3;stroke-linecap:square;"/>
   </g>
   <g id="line2d_13"/>
   <g id="line2d_14"/>
   <g id="line2d_15"/>
   <g id="line2d_16">
    <path clip-path="url(#pf94b95e14b)" d="M 647.74038 359.056343 
" style="fill:none;stroke:#f5deb3;stroke-linecap:square;"/>
   </g>
   <g id="line2d_17">
    <path clip-path="url(#pf94b95e14b)" d="M 651.419 359.056343 
" style="fill:none;stroke:#f5deb3;stroke-linecap:square;"/>
   </g>
   <g id="line2d_18">
    <path clip-path="url(#pf94b95e14b)" d="M 372.401437 359.056343 
L 372.401437 353.353373 
L 387.074575 353.353373 
L 387.074575 347.650402 
L 387.326517 347.650402 
L 387.326517 341.947432 
L 388.302063 341.947432 
L 388.302063 336.244462 
L 388.66133 336.244462 
L 388.66133 330.541491 
L 392.970406 330.541491 
L 392.970406 324.838521 
L 393.116872 324.838521 
L 393.116872 319.135551 
L 393.263007 319.135551 
L 393.263007 313.43258 
L 393.346365 313.43258 
L 393.346365 307.72961 
L 394.029993 307.72961 
L 394.029993 302.02664 
L 394.543122 302.02664 
L 394.543122 296.32367 
L 394.747237 296.32367 
L 394.747237 290.620699 
L 394.808347 290.620699 
L 394.808347 284.917729 
L 395.113029 284.917729 
L 395.113029 279.214759 
L 395.617662 279.214759 
L 395.617662 273.511788 
L 395.858494 273.511788 
L 395.858494 267.808818 
L 397.636678 267.808818 
L 397.636678 262.105848 
L 398.180057 262.105848 
L 398.180057 256.402877 
L 398.218696 256.402877 
L 398.218696 250.699907 
L 398.315192 250.699907 
L 398.315192 244.996937 
L 399.70786 244.996937 
L 399.70786 239.293967 
L 403.233626 239.293967 
L 403.233626 233.590996 
L 403.678874 233.590996 
L 403.678874 227.888026 
L 411.665942 227.888026 
L 411.665942 222.185056 
L 434.454454 222.185056 
L 434.454454 216.482085 
L 441.655534 216.482085 
L 441.655534 210.779115 
L 444.444477 210.779115 
L 444.444477 205.076145 
L 446.048942 205.076145 
L 446.048942 199.373175 
L 448.720142 199.373175 
L 448.720142 193.670204 
L 449.309748 193.670204 
L 449.309748 187.967234 
L 450.447247 187.967234 
L 450.447247 182.264264 
L 451.132182 182.264264 
L 451.132182 176.561293 
L 452.713767 176.561293 
L 452.713767 170.858323 
L 455.598658 170.858323 
L 455.598658 165.155353 
L 462.718175 165.155353 
L 462.718175 159.452382 
L 465.620488 159.452382 
L 465.620488 153.749412 
L 469.918649 153.749412 
L 469.918649 148.046442 
L 470.627964 148.046442 
L 470.627964 142.343472 
L 475.992144 142.343472 
L 475.992144 136.640501 
L 476.523264 136.640501 
L 476.523264 130.937531 
L 479.40187 130.937531 
L 479.40187 125.234561 
L 489.68014 125.234561 
L 489.68014 119.53159 
L 508.437316 119.53159 
L 508.437316 113.82862 
L 511.674104 113.82862 
L 511.674104 108.12565 
L 522.754991 108.12565 
L 522.754991 102.422679 
L 522.754991 102.422679 
" style="fill:none;stroke:#f5deb3;stroke-linecap:square;"/>
   </g>
   <g id="line2d_19"/>
   <g id="line2d_20">
    <path clip-path="url(#pf94b95e14b)" d="M 503.343612 359.056343 
L 503.343612 353.353373 
L 509.677933 353.353373 
L 509.677933 347.650402 
L 516.582263 347.650402 
L 516.582263 341.947432 
L 523.239543 341.947432 
L 523.239543 336.244462 
L 526.392644 336.244462 
L 526.392644 330.541491 
L 528.325 330.541491 
" style="fill:none;stroke:#f5deb3;stroke-linecap:square;"/>
   </g>
   <g id="line2d_21"/>
   <g id="line2d_22">
    <path clip-path="url(#pf94b95e14b)" d="M 510.536144 359.056343 
L 510.536144 353.353373 
L 510.925573 353.353373 
L 510.925573 347.650402 
L 513.044441 347.650402 
L 513.044441 341.947432 
L 514.479059 341.947432 
L 514.479059 336.244462 
L 515.111859 336.244462 
L 515.111859 330.541491 
L 515.250943 330.541491 
L 515.250943 324.838521 
L 515.970013 324.838521 
L 515.970013 319.135551 
L 516.594635 319.135551 
L 516.594635 313.43258 
L 517.482273 313.43258 
L 517.482273 307.72961 
L 518.125746 307.72961 
L 518.125746 302.02664 
L 519.5476 302.02664 
L 519.5476 296.32367 
L 520.996646 296.32367 
L 520.996646 290.620699 
L 521.14958 290.620699 
L 521.14958 284.917729 
L 523.1446 284.917729 
L 523.1446 279.214759 
L 523.617929 279.214759 
L 523.617929 273.511788 
L 524.526963 273.511788 
L 524.526963 267.808818 
L 524.573448 267.808818 
L 524.573448 262.105848 
L 524.979446 262.105848 
L 524.979446 256.402877 
L 526.312869 256.402877 
L 526.312869 250.699907 
L 527.697513 250.699907 
L 527.697513 244.996937 
L 528.325 244.996937 
" style="fill:none;stroke:#f5deb3;stroke-linecap:square;"/>
   </g>
   <g id="line2d_23">
    <path clip-path="url(#pf94b95e14b)" d="M 733.658016 359.056343 
" style="fill:none;stroke:#f5deb3;stroke-linecap:square;"/>
   </g>
   <g id="line2d_24">
    <path clip-path="url(#pf94b95e14b)" d="M 480.902017 359.056343 
L 480.902017 353.353373 
L 495.360899 353.353373 
L 495.360899 347.650402 
L 497.908841 347.650402 
L 497.908841 341.947432 
L 500.977394 341.947432 
L 500.977394 336.244462 
L 501.036437 336.244462 
L 501.036437 330.541491 
L 502.252466 330.541491 
L 502.252466 324.838521 
L 503.476351 324.838521 
L 503.476351 319.135551 
L 509.1318 319.135551 
L 509.1318 313.43258 
L 510.512363 313.43258 
L 510.512363 307.72961 
L 511.003178 307.72961 
L 511.003178 302.02664 
L 512.677469 302.02664 
L 512.677469 296.32367 
L 513.380095 296.32367 
L 513.380095 290.620699 
L 513.406092 290.620699 
L 513.406092 284.917729 
L 516.396405 284.917729 
L 516.396405 279.214759 
L 516.671904 279.214759 
L 516.671904 273.511788 
L 528.325 273.511788 
" style="fill:none;stroke:#f5deb3;stroke-linecap:square;"/>
   </g>
   <g id="line2d_25">
    <path clip-path="url(#pf94b95e14b)" d="M 685.315096 359.056343 
" style="fill:none;stroke:#f5deb3;stroke-linecap:square;"/>
   </g>
   <g id="line2d_26">
    <path clip-path="url(#pf94b95e14b)" d="M 534.688798 359.056343 
" style="fill:none;stroke:#f5deb3;stroke-linecap:square;"/>
   </g>
   <g id="line2d_27"/>
   <g id="line2d_28">
    <path clip-path="url(#pf94b95e14b)" d="M 442.702202 359.056343 
L 442.702202 353.353373 
L 446.13181 353.353373 
L 446.13181 347.650402 
L 447.722359 347.650402 
L 447.722359 341.947432 
L 448.534228 341.947432 
L 448.534228 336.244462 
L 452.003479 336.244462 
L 452.003479 330.541491 
L 452.338705 330.541491 
L 452.338705 324.838521 
L 452.962604 324.838521 
L 452.962604 319.135551 
L 453.555934 319.135551 
L 453.555934 313.43258 
L 528.325 313.43258 
" style="fill:none;stroke:#f5deb3;stroke-linecap:square;"/>
   </g>
   <g id="line2d_29">
    <path clip-path="url(#pf94b95e14b)" d="M 382.707776 359.056343 
L 382.707776 353.353373 
L 382.707776 353.353373 
L 382.707776 347.650402 
L 382.707776 347.650402 
L 382.707776 341.947432 
L 401.402926 341.947432 
L 401.402926 336.244462 
L 401.402926 336.244462 
L 401.402926 330.541491 
L 401.402926 330.541491 
L 401.402926 324.838521 
L 431.73 324.838521 
L 431.73 319.135551 
L 431.73 319.135551 
L 431.73 313.43258 
L 431.73 313.43258 
L 431.73 307.72961 
L 432.824559 307.72961 
L 432.824559 302.02664 
L 432.824559 302.02664 
L 432.824559 296.32367 
L 432.824559 296.32367 
L 432.824559 290.620699 
L 452.405542 290.620699 
L 452.405542 284.917729 
L 452.405542 284.917729 
L 452.405542 279.214759 
L 452.405542 279.214759 
L 452.405542 273.511788 
L 454.967717 273.511788 
L 454.967717 267.808818 
L 454.967717 267.808818 
L 454.967717 262.105848 
L 454.967717 262.105848 
L 454.967717 256.402877 
L 455.511174 256.402877 
L 455.511174 250.699907 
L 455.511174 250.699907 
L 455.511174 244.996937 
L 455.511174 244.996937 
L 455.511174 239.293967 
L 457.323923 239.293967 
L 457.323923 233.590996 
L 457.323923 233.590996 
L 457.323923 227.888026 
L 457.323923 227.888026 
L 457.323923 222.185056 
L 457.416717 222.185056 
L 457.416717 216.482085 
L 457.416717 216.482085 
L 457.416717 210.779115 
L 457.416717 210.779115 
L 457.416717 205.076145 
L 490.78229 205.076145 
L 490.78229 199.373175 
L 490.78229 199.373175 
L 490.78229 193.670204 
L 490.78229 193.670204 
L 490.78229 187.967234 
L 490.78229 187.967234 
L 490.78229 187.967234 
L 513.7625 187.967234 
" style="fill:none;stroke:#f5deb3;stroke-linecap:square;"/>
   </g>
   <g id="line2d_30"/>
   <g id="line2d_31">
    <path clip-path="url(#pf94b95e14b)" d="M 410.686069 359.056343 
L 410.686069 353.353373 
L 423.500375 353.353373 
L 423.500375 347.650402 
L 424.523999 347.650402 
L 424.523999 341.947432 
L 429.42409 341.947432 
L 429.42409 336.244462 
L 432.790633 336.244462 
L 432.790633 330.541491 
L 443.166283 330.541491 
L 443.166283 324.838521 
L 443.349065 324.838521 
L 443.349065 319.135551 
L 445.027433 319.135551 
L 445.027433 313.43258 
L 445.50305 313.43258 
L 445.50305 307.72961 
L 449.283463 307.72961 
L 449.283463 302.02664 
L 451.734041 302.02664 
L 451.734041 296.32367 
L 456.380732 296.32367 
L 456.380732 290.620699 
L 458.565532 290.620699 
L 458.565532 284.917729 
L 458.87602 284.917729 
L 458.87602 279.214759 
L 459.395204 279.214759 
L 459.395204 273.511788 
L 460.00683 273.511788 
L 460.00683 267.808818 
L 465.073701 267.808818 
L 465.073701 262.105848 
L 468.515285 262.105848 
L 468.515285 256.402877 
L 469.291547 256.402877 
L 469.291547 250.699907 
L 469.714549 250.699907 
L 469.714549 244.996937 
L 469.791162 244.996937 
L 469.791162 239.293967 
L 470.84176 239.293967 
L 470.84176 233.590996 
L 477.021534 233.590996 
L 477.021534 227.888026 
L 479.451341 227.888026 
L 479.451341 222.185056 
L 482.922478 222.185056 
L 482.922478 216.482085 
L 482.922478 216.482085 
L 482.922478 216.482085 
L 513.7625 216.482085 
" style="fill:none;stroke:#000000;stroke-linecap:square;"/>
   </g>
   <g id="line2d_32"/>
   <g id="line2d_33">
    <path clip-path="url(#pf94b95e14b)" d="M 502.499104 359.056343 
L 502.499104 353.353373 
L 506.242624 353.353373 
L 506.242624 347.650402 
L 509.784546 347.650402 
L 509.784546 341.947432 
L 509.784546 341.947432 
L 509.784546 341.947432 
L 513.7625 341.947432 
" style="fill:none;stroke:#00bfbf;stroke-linecap:square;"/>
   </g>
   <g id="line2d_34"/>
   <g id="line2d_35"/>
   <g id="line2d_36"/>
   <g id="line2d_37">
    <path clip-path="url(#pf94b95e14b)" d="M 513.7625 359.056343 
L 513.7625 13.456343 
" style="fill:none;stroke:#000000;stroke-linecap:square;"/>
   </g>
   <g id="patch_3">
    <path d="M 67.3625 13.456343 
L 513.7625 13.456343 
" style="fill:none;stroke:#000000;stroke-linecap:square;stroke-linejoin:miter;"/>
   </g>
   <g id="patch_4">
    <path d="M 513.7625 359.056343 
L 513.7625 13.456343 
" style="fill:none;stroke:#000000;stroke-linecap:square;stroke-linejoin:miter;"/>
   </g>
   <g id="patch_5">
    <path d="M 67.3625 359.056343 
L 513.7625 359.056343 
" style="fill:none;stroke:#000000;stroke-linecap:square;stroke-linejoin:miter;"/>
   </g>
   <g id="patch_6">
    <path d="M 67.3625 359.056343 
L 67.3625 13.456343 
" style="fill:none;stroke:#000000;stroke-linecap:square;stroke-linejoin:miter;"/>
   </g>
   <g id="matplotlib.axis_1">
    <g id="xtick_1">
     <g id="line2d_38">
      <path clip-path="url(#pf94b95e14b)" d="M 216.1625 359.056343 
L 216.1625 13.456343 
" style="fill:none;stroke:#000000;stroke-dasharray:1.000000,3.000000;stroke-dashoffset:0.0;stroke-width:0.5;"/>
     </g>
     <g id="line2d_39">
      <defs>
       <path d="M 0 0 
L 0 -4 
" id="m6cb428eb40" style="stroke:#000000;stroke-width:0.5;"/>
      </defs>
      <g>
       <use style="stroke:#000000;stroke-width:0.5;" x="216.1625" xlink:href="#m6cb428eb40" y="359.056342822"/>
      </g>
     </g>
     <g id="line2d_40">
      <defs>
       <path d="M 0 0 
L 0 4 
" id="m573a9c4f65" style="stroke:#000000;stroke-width:0.5;"/>
      </defs>
      <g>
       <use style="stroke:#000000;stroke-width:0.5;" x="216.1625" xlink:href="#m573a9c4f65" y="13.4563428218"/>
      </g>
     </g>
     <g id="text_1">
      <!-- 1 -->
      <defs>
       <path d="M 12.40625 8.296875 
L 28.515625 8.296875 
L 28.515625 63.921875 
L 10.984375 60.40625 
L 10.984375 69.390625 
L 28.421875 72.90625 
L 38.28125 72.90625 
L 38.28125 8.296875 
L 54.390625 8.296875 
L 54.390625 0 
L 12.40625 0 
z
" id="BitstreamVeraSans-Roman-31"/>
      </defs>
      <g transform="translate(209.8 378.253217822)scale(0.2 -0.2)">
       <use xlink:href="#BitstreamVeraSans-Roman-31"/>
      </g>
     </g>
    </g>
    <g id="xtick_2">
     <g id="line2d_41">
      <path clip-path="url(#pf94b95e14b)" d="M 364.9625 359.056343 
L 364.9625 13.456343 
" style="fill:none;stroke:#000000;stroke-dasharray:1.000000,3.000000;stroke-dashoffset:0.0;stroke-width:0.5;"/>
     </g>
     <g id="line2d_42">
      <g>
       <use style="stroke:#000000;stroke-width:0.5;" x="364.9625" xlink:href="#m6cb428eb40" y="359.056342822"/>
      </g>
     </g>
     <g id="line2d_43">
      <g>
       <use style="stroke:#000000;stroke-width:0.5;" x="364.9625" xlink:href="#m573a9c4f65" y="13.4563428218"/>
      </g>
     </g>
     <g id="text_2">
      <!-- 2 -->
      <defs>
       <path d="M 19.1875 8.296875 
L 53.609375 8.296875 
L 53.609375 0 
L 7.328125 0 
L 7.328125 8.296875 
Q 12.9375 14.109375 22.625 23.890625 
Q 32.328125 33.6875 34.8125 36.53125 
Q 39.546875 41.84375 41.421875 45.53125 
Q 43.3125 49.21875 43.3125 52.78125 
Q 43.3125 58.59375 39.234375 62.25 
Q 35.15625 65.921875 28.609375 65.921875 
Q 23.96875 65.921875 18.8125 64.3125 
Q 13.671875 62.703125 7.8125 59.421875 
L 7.8125 69.390625 
Q 13.765625 71.78125 18.9375 73 
Q 24.125 74.21875 28.421875 74.21875 
Q 39.75 74.21875 46.484375 68.546875 
Q 53.21875 62.890625 53.21875 53.421875 
Q 53.21875 48.921875 51.53125 44.890625 
Q 49.859375 40.875 45.40625 35.40625 
Q 44.1875 33.984375 37.640625 27.21875 
Q 31.109375 20.453125 19.1875 8.296875 
" id="BitstreamVeraSans-Roman-32"/>
      </defs>
      <g transform="translate(358.6 378.253217822)scale(0.2 -0.2)">
       <use xlink:href="#BitstreamVeraSans-Roman-32"/>
      </g>
     </g>
    </g>
    <g id="xtick_3">
     <g id="line2d_44">
      <path clip-path="url(#pf94b95e14b)" d="M 513.7625 359.056343 
L 513.7625 13.456343 
" style="fill:none;stroke:#000000;stroke-dasharray:1.000000,3.000000;stroke-dashoffset:0.0;stroke-width:0.5;"/>
     </g>
     <g id="line2d_45">
      <g>
       <use style="stroke:#000000;stroke-width:0.5;" x="513.7625" xlink:href="#m6cb428eb40" y="359.056342822"/>
      </g>
     </g>
     <g id="line2d_46">
      <g>
       <use style="stroke:#000000;stroke-width:0.5;" x="513.7625" xlink:href="#m573a9c4f65" y="13.4563428218"/>
      </g>
     </g>
     <g id="text_3">
      <!-- 3 -->
      <defs>
       <path d="M 40.578125 39.3125 
Q 47.65625 37.796875 51.625 33 
Q 55.609375 28.21875 55.609375 21.1875 
Q 55.609375 10.40625 48.1875 4.484375 
Q 40.765625 -1.421875 27.09375 -1.421875 
Q 22.515625 -1.421875 17.65625 -0.515625 
Q 12.796875 0.390625 7.625 2.203125 
L 7.625 11.71875 
Q 11.71875 9.328125 16.59375 8.109375 
Q 21.484375 6.890625 26.8125 6.890625 
Q 36.078125 6.890625 40.9375 10.546875 
Q 45.796875 14.203125 45.796875 21.1875 
Q 45.796875 27.640625 41.28125 31.265625 
Q 36.765625 34.90625 28.71875 34.90625 
L 20.21875 34.90625 
L 20.21875 43.015625 
L 29.109375 43.015625 
Q 36.375 43.015625 40.234375 45.921875 
Q 44.09375 48.828125 44.09375 54.296875 
Q 44.09375 59.90625 40.109375 62.90625 
Q 36.140625 65.921875 28.71875 65.921875 
Q 24.65625 65.921875 20.015625 65.03125 
Q 15.375 64.15625 9.8125 62.3125 
L 9.8125 71.09375 
Q 15.4375 72.65625 20.34375 73.4375 
Q 25.25 74.21875 29.59375 74.21875 
Q 40.828125 74.21875 47.359375 69.109375 
Q 53.90625 64.015625 53.90625 55.328125 
Q 53.90625 49.265625 50.4375 45.09375 
Q 46.96875 40.921875 40.578125 39.3125 
" id="BitstreamVeraSans-Roman-33"/>
      </defs>
      <g transform="translate(507.4 378.253217822)scale(0.2 -0.2)">
       <use xlink:href="#BitstreamVeraSans-Roman-33"/>
      </g>
     </g>
    </g>
    <g id="xtick_4">
     <g id="line2d_47">
      <defs>
       <path d="M 0 0 
L 0 -2 
" id="m21c0f91790" style="stroke:#000000;stroke-width:0.5;"/>
      </defs>
      <g>
       <use style="stroke:#000000;stroke-width:0.5;" x="112.155763355" xlink:href="#m21c0f91790" y="359.056342822"/>
      </g>
     </g>
     <g id="line2d_48">
      <defs>
       <path d="M 0 0 
L 0 2 
" id="m6b172c1a86" style="stroke:#000000;stroke-width:0.5;"/>
      </defs>
      <g>
       <use style="stroke:#000000;stroke-width:0.5;" x="112.155763355" xlink:href="#m6b172c1a86" y="13.4563428218"/>
      </g>
     </g>
    </g>
    <g id="xtick_5">
     <g id="line2d_49">
      <g>
       <use style="stroke:#000000;stroke-width:0.5;" x="138.358142702" xlink:href="#m21c0f91790" y="359.056342822"/>
      </g>
     </g>
     <g id="line2d_50">
      <g>
       <use style="stroke:#000000;stroke-width:0.5;" x="138.358142702" xlink:href="#m6b172c1a86" y="13.4563428218"/>
      </g>
     </g>
    </g>
    <g id="xtick_6">
     <g id="line2d_51">
      <g>
       <use style="stroke:#000000;stroke-width:0.5;" x="156.94902671" xlink:href="#m21c0f91790" y="359.056342822"/>
      </g>
     </g>
     <g id="line2d_52">
      <g>
       <use style="stroke:#000000;stroke-width:0.5;" x="156.94902671" xlink:href="#m6b172c1a86" y="13.4563428218"/>
      </g>
     </g>
    </g>
    <g id="xtick_7">
     <g id="line2d_53">
      <g>
       <use style="stroke:#000000;stroke-width:0.5;" x="171.369236645" xlink:href="#m21c0f91790" y="359.056342822"/>
      </g>
     </g>
     <g id="line2d_54">
      <g>
       <use style="stroke:#000000;stroke-width:0.5;" x="171.369236645" xlink:href="#m6b172c1a86" y="13.4563428218"/>
      </g>
     </g>
    </g>
    <g id="xtick_8">
     <g id="line2d_55">
      <g>
       <use style="stroke:#000000;stroke-width:0.5;" x="183.151406057" xlink:href="#m21c0f91790" y="359.056342822"/>
      </g>
     </g>
     <g id="line2d_56">
      <g>
       <use style="stroke:#000000;stroke-width:0.5;" x="183.151406057" xlink:href="#m6b172c1a86" y="13.4563428218"/>
      </g>
     </g>
    </g>
    <g id="xtick_9">
     <g id="line2d_57">
      <g>
       <use style="stroke:#000000;stroke-width:0.5;" x="193.113088354" xlink:href="#m21c0f91790" y="359.056342822"/>
      </g>
     </g>
     <g id="line2d_58">
      <g>
       <use style="stroke:#000000;stroke-width:0.5;" x="193.113088354" xlink:href="#m6b172c1a86" y="13.4563428218"/>
      </g>
     </g>
    </g>
    <g id="xtick_10">
     <g id="line2d_59">
      <g>
       <use style="stroke:#000000;stroke-width:0.5;" x="201.742290064" xlink:href="#m21c0f91790" y="359.056342822"/>
      </g>
     </g>
     <g id="line2d_60">
      <g>
       <use style="stroke:#000000;stroke-width:0.5;" x="201.742290064" xlink:href="#m6b172c1a86" y="13.4563428218"/>
      </g>
     </g>
    </g>
    <g id="xtick_11">
     <g id="line2d_61">
      <g>
       <use style="stroke:#000000;stroke-width:0.5;" x="209.353785405" xlink:href="#m21c0f91790" y="359.056342822"/>
      </g>
     </g>
     <g id="line2d_62">
      <g>
       <use style="stroke:#000000;stroke-width:0.5;" x="209.353785405" xlink:href="#m6b172c1a86" y="13.4563428218"/>
      </g>
     </g>
    </g>
    <g id="xtick_12">
     <g id="line2d_63">
      <g>
       <use style="stroke:#000000;stroke-width:0.5;" x="260.955763355" xlink:href="#m21c0f91790" y="359.056342822"/>
      </g>
     </g>
     <g id="line2d_64">
      <g>
       <use style="stroke:#000000;stroke-width:0.5;" x="260.955763355" xlink:href="#m6b172c1a86" y="13.4563428218"/>
      </g>
     </g>
    </g>
    <g id="xtick_13">
     <g id="line2d_65">
      <g>
       <use style="stroke:#000000;stroke-width:0.5;" x="287.158142702" xlink:href="#m21c0f91790" y="359.056342822"/>
      </g>
     </g>
     <g id="line2d_66">
      <g>
       <use style="stroke:#000000;stroke-width:0.5;" x="287.158142702" xlink:href="#m6b172c1a86" y="13.4563428218"/>
      </g>
     </g>
    </g>
    <g id="xtick_14">
     <g id="line2d_67">
      <g>
       <use style="stroke:#000000;stroke-width:0.5;" x="305.74902671" xlink:href="#m21c0f91790" y="359.056342822"/>
      </g>
     </g>
     <g id="line2d_68">
      <g>
       <use style="stroke:#000000;stroke-width:0.5;" x="305.74902671" xlink:href="#m6b172c1a86" y="13.4563428218"/>
      </g>
     </g>
    </g>
    <g id="xtick_15">
     <g id="line2d_69">
      <g>
       <use style="stroke:#000000;stroke-width:0.5;" x="320.169236645" xlink:href="#m21c0f91790" y="359.056342822"/>
      </g>
     </g>
     <g id="line2d_70">
      <g>
       <use style="stroke:#000000;stroke-width:0.5;" x="320.169236645" xlink:href="#m6b172c1a86" y="13.4563428218"/>
      </g>
     </g>
    </g>
    <g id="xtick_16">
     <g id="line2d_71">
      <g>
       <use style="stroke:#000000;stroke-width:0.5;" x="331.951406057" xlink:href="#m21c0f91790" y="359.056342822"/>
      </g>
     </g>
     <g id="line2d_72">
      <g>
       <use style="stroke:#000000;stroke-width:0.5;" x="331.951406057" xlink:href="#m6b172c1a86" y="13.4563428218"/>
      </g>
     </g>
    </g>
    <g id="xtick_17">
     <g id="line2d_73">
      <g>
       <use style="stroke:#000000;stroke-width:0.5;" x="341.913088354" xlink:href="#m21c0f91790" y="359.056342822"/>
      </g>
     </g>
     <g id="line2d_74">
      <g>
       <use style="stroke:#000000;stroke-width:0.5;" x="341.913088354" xlink:href="#m6b172c1a86" y="13.4563428218"/>
      </g>
     </g>
    </g>
    <g id="xtick_18">
     <g id="line2d_75">
      <g>
       <use style="stroke:#000000;stroke-width:0.5;" x="350.542290064" xlink:href="#m21c0f91790" y="359.056342822"/>
      </g>
     </g>
     <g id="line2d_76">
      <g>
       <use style="stroke:#000000;stroke-width:0.5;" x="350.542290064" xlink:href="#m6b172c1a86" y="13.4563428218"/>
      </g>
     </g>
    </g>
    <g id="xtick_19">
     <g id="line2d_77">
      <g>
       <use style="stroke:#000000;stroke-width:0.5;" x="358.153785405" xlink:href="#m21c0f91790" y="359.056342822"/>
      </g>
     </g>
     <g id="line2d_78">
      <g>
       <use style="stroke:#000000;stroke-width:0.5;" x="358.153785405" xlink:href="#m6b172c1a86" y="13.4563428218"/>
      </g>
     </g>
    </g>
    <g id="xtick_20">
     <g id="line2d_79">
      <g>
       <use style="stroke:#000000;stroke-width:0.5;" x="409.755763355" xlink:href="#m21c0f91790" y="359.056342822"/>
      </g>
     </g>
     <g id="line2d_80">
      <g>
       <use style="stroke:#000000;stroke-width:0.5;" x="409.755763355" xlink:href="#m6b172c1a86" y="13.4563428218"/>
      </g>
     </g>
    </g>
    <g id="xtick_21">
     <g id="line2d_81">
      <g>
       <use style="stroke:#000000;stroke-width:0.5;" x="435.958142702" xlink:href="#m21c0f91790" y="359.056342822"/>
      </g>
     </g>
     <g id="line2d_82">
      <g>
       <use style="stroke:#000000;stroke-width:0.5;" x="435.958142702" xlink:href="#m6b172c1a86" y="13.4563428218"/>
      </g>
     </g>
    </g>
    <g id="xtick_22">
     <g id="line2d_83">
      <g>
       <use style="stroke:#000000;stroke-width:0.5;" x="454.54902671" xlink:href="#m21c0f91790" y="359.056342822"/>
      </g>
     </g>
     <g id="line2d_84">
      <g>
       <use style="stroke:#000000;stroke-width:0.5;" x="454.54902671" xlink:href="#m6b172c1a86" y="13.4563428218"/>
      </g>
     </g>
    </g>
    <g id="xtick_23">
     <g id="line2d_85">
      <g>
       <use style="stroke:#000000;stroke-width:0.5;" x="468.969236645" xlink:href="#m21c0f91790" y="359.056342822"/>
      </g>
     </g>
     <g id="line2d_86">
      <g>
       <use style="stroke:#000000;stroke-width:0.5;" x="468.969236645" xlink:href="#m6b172c1a86" y="13.4563428218"/>
      </g>
     </g>
    </g>
    <g id="xtick_24">
     <g id="line2d_87">
      <g>
       <use style="stroke:#000000;stroke-width:0.5;" x="480.751406057" xlink:href="#m21c0f91790" y="359.056342822"/>
      </g>
     </g>
     <g id="line2d_88">
      <g>
       <use style="stroke:#000000;stroke-width:0.5;" x="480.751406057" xlink:href="#m6b172c1a86" y="13.4563428218"/>
      </g>
     </g>
    </g>
    <g id="xtick_25">
     <g id="line2d_89">
      <g>
       <use style="stroke:#000000;stroke-width:0.5;" x="490.713088354" xlink:href="#m21c0f91790" y="359.056342822"/>
      </g>
     </g>
     <g id="line2d_90">
      <g>
       <use style="stroke:#000000;stroke-width:0.5;" x="490.713088354" xlink:href="#m6b172c1a86" y="13.4563428218"/>
      </g>
     </g>
    </g>
    <g id="xtick_26">
     <g id="line2d_91">
      <g>
       <use style="stroke:#000000;stroke-width:0.5;" x="499.342290064" xlink:href="#m21c0f91790" y="359.056342822"/>
      </g>
     </g>
     <g id="line2d_92">
      <g>
       <use style="stroke:#000000;stroke-width:0.5;" x="499.342290064" xlink:href="#m6b172c1a86" y="13.4563428218"/>
      </g>
     </g>
    </g>
    <g id="xtick_27">
     <g id="line2d_93">
      <g>
       <use style="stroke:#000000;stroke-width:0.5;" x="506.953785405" xlink:href="#m21c0f91790" y="359.056342822"/>
      </g>
     </g>
     <g id="line2d_94">
      <g>
       <use style="stroke:#000000;stroke-width:0.5;" x="506.953785405" xlink:href="#m6b172c1a86" y="13.4563428218"/>
      </g>
     </g>
    </g>
    <g id="text_4">
     <!-- log10 of FEvals / DIM -->
     <defs>
      <path id="BitstreamVeraSans-Roman-20"/>
      <path d="M 31.78125 66.40625 
Q 24.171875 66.40625 20.328125 58.90625 
Q 16.5 51.421875 16.5 36.375 
Q 16.5 21.390625 20.328125 13.890625 
Q 24.171875 6.390625 31.78125 6.390625 
Q 39.453125 6.390625 43.28125 13.890625 
Q 47.125 21.390625 47.125 36.375 
Q 47.125 51.421875 43.28125 58.90625 
Q 39.453125 66.40625 31.78125 66.40625 
M 31.78125 74.21875 
Q 44.046875 74.21875 50.515625 64.515625 
Q 56.984375 54.828125 56.984375 36.375 
Q 56.984375 17.96875 50.515625 8.265625 
Q 44.046875 -1.421875 31.78125 -1.421875 
Q 19.53125 -1.421875 13.0625 8.265625 
Q 6.59375 17.96875 6.59375 36.375 
Q 6.59375 54.828125 13.0625 64.515625 
Q 19.53125 74.21875 31.78125 74.21875 
" id="BitstreamVeraSans-Roman-30"/>
      <path d="M 9.8125 72.90625 
L 24.515625 72.90625 
L 43.109375 23.296875 
L 61.8125 72.90625 
L 76.515625 72.90625 
L 76.515625 0 
L 66.890625 0 
L 66.890625 64.015625 
L 48.09375 14.015625 
L 38.1875 14.015625 
L 19.390625 64.015625 
L 19.390625 0 
L 9.8125 0 
z
" id="BitstreamVeraSans-Roman-4d"/>
      <path d="M 30.609375 48.390625 
Q 23.390625 48.390625 19.1875 42.75 
Q 14.984375 37.109375 14.984375 27.296875 
Q 14.984375 17.484375 19.15625 11.84375 
Q 23.34375 6.203125 30.609375 6.203125 
Q 37.796875 6.203125 41.984375 11.859375 
Q 46.1875 17.53125 46.1875 27.296875 
Q 46.1875 37.015625 41.984375 42.703125 
Q 37.796875 48.390625 30.609375 48.390625 
M 30.609375 56 
Q 42.328125 56 49.015625 48.375 
Q 55.71875 40.765625 55.71875 27.296875 
Q 55.71875 13.875 49.015625 6.21875 
Q 42.328125 -1.421875 30.609375 -1.421875 
Q 18.84375 -1.421875 12.171875 6.21875 
Q 5.515625 13.875 5.515625 27.296875 
Q 5.515625 40.765625 12.171875 48.375 
Q 18.84375 56 30.609375 56 
" id="BitstreamVeraSans-Roman-6f"/>
      <path d="M 9.421875 75.984375 
L 18.40625 75.984375 
L 18.40625 0 
L 9.421875 0 
z
" id="BitstreamVeraSans-Roman-6c"/>
      <path d="M 9.8125 72.90625 
L 51.703125 72.90625 
L 51.703125 64.59375 
L 19.671875 64.59375 
L 19.671875 43.109375 
L 48.578125 43.109375 
L 48.578125 34.8125 
L 19.671875 34.8125 
L 19.671875 0 
L 9.8125 0 
z
" id="BitstreamVeraSans-Roman-46"/>
      <path d="M 9.8125 72.90625 
L 55.90625 72.90625 
L 55.90625 64.59375 
L 19.671875 64.59375 
L 19.671875 43.015625 
L 54.390625 43.015625 
L 54.390625 34.71875 
L 19.671875 34.71875 
L 19.671875 8.296875 
L 56.78125 8.296875 
L 56.78125 0 
L 9.8125 0 
z
" id="BitstreamVeraSans-Roman-45"/>
      <path d="M 19.671875 64.796875 
L 19.671875 8.109375 
L 31.59375 8.109375 
Q 46.6875 8.109375 53.6875 14.9375 
Q 60.6875 21.78125 60.6875 36.53125 
Q 60.6875 51.171875 53.6875 57.984375 
Q 46.6875 64.796875 31.59375 64.796875 
z
M 9.8125 72.90625 
L 30.078125 72.90625 
Q 51.265625 72.90625 61.171875 64.09375 
Q 71.09375 55.28125 71.09375 36.53125 
Q 71.09375 17.671875 61.125 8.828125 
Q 51.171875 0 30.078125 0 
L 9.8125 0 
z
" id="BitstreamVeraSans-Roman-44"/>
      <path d="M 25.390625 72.90625 
L 33.6875 72.90625 
L 8.296875 -9.28125 
L 0 -9.28125 
z
" id="BitstreamVeraSans-Roman-2f"/>
      <path d="M 2.984375 54.6875 
L 12.5 54.6875 
L 29.59375 8.796875 
L 46.6875 54.6875 
L 56.203125 54.6875 
L 35.6875 0 
L 23.484375 0 
z
" id="BitstreamVeraSans-Roman-76"/>
      <path d="M 45.40625 27.984375 
Q 45.40625 37.75 41.375 43.109375 
Q 37.359375 48.484375 30.078125 48.484375 
Q 22.859375 48.484375 18.828125 43.109375 
Q 14.796875 37.75 14.796875 27.984375 
Q 14.796875 18.265625 18.828125 12.890625 
Q 22.859375 7.515625 30.078125 7.515625 
Q 37.359375 7.515625 41.375 12.890625 
Q 45.40625 18.265625 45.40625 27.984375 
M 54.390625 6.78125 
Q 54.390625 -7.171875 48.1875 -13.984375 
Q 42 -20.796875 29.203125 -20.796875 
Q 24.46875 -20.796875 20.265625 -20.09375 
Q 16.0625 -19.390625 12.109375 -17.921875 
L 12.109375 -9.1875 
Q 16.0625 -11.328125 19.921875 -12.34375 
Q 23.78125 -13.375 27.78125 -13.375 
Q 36.625 -13.375 41.015625 -8.765625 
Q 45.40625 -4.15625 45.40625 5.171875 
L 45.40625 9.625 
Q 42.625 4.78125 38.28125 2.390625 
Q 33.9375 0 27.875 0 
Q 17.828125 0 11.671875 7.65625 
Q 5.515625 15.328125 5.515625 27.984375 
Q 5.515625 40.671875 11.671875 48.328125 
Q 17.828125 56 27.875 56 
Q 33.9375 56 38.28125 53.609375 
Q 42.625 51.21875 45.40625 46.390625 
L 45.40625 54.6875 
L 54.390625 54.6875 
z
" id="BitstreamVeraSans-Roman-67"/>
      <path d="M 37.109375 75.984375 
L 37.109375 68.5 
L 28.515625 68.5 
Q 23.6875 68.5 21.796875 66.546875 
Q 19.921875 64.59375 19.921875 59.515625 
L 19.921875 54.6875 
L 34.71875 54.6875 
L 34.71875 47.703125 
L 19.921875 47.703125 
L 19.921875 0 
L 10.890625 0 
L 10.890625 47.703125 
L 2.296875 47.703125 
L 2.296875 54.6875 
L 10.890625 54.6875 
L 10.890625 58.5 
Q 10.890625 67.625 15.140625 71.796875 
Q 19.390625 75.984375 28.609375 75.984375 
z
" id="BitstreamVeraSans-Roman-66"/>
      <path d="M 34.28125 27.484375 
Q 23.390625 27.484375 19.1875 25 
Q 14.984375 22.515625 14.984375 16.5 
Q 14.984375 11.71875 18.140625 8.90625 
Q 21.296875 6.109375 26.703125 6.109375 
Q 34.1875 6.109375 38.703125 11.40625 
Q 43.21875 16.703125 43.21875 25.484375 
L 43.21875 27.484375 
z
M 52.203125 31.203125 
L 52.203125 0 
L 43.21875 0 
L 43.21875 8.296875 
Q 40.140625 3.328125 35.546875 0.953125 
Q 30.953125 -1.421875 24.3125 -1.421875 
Q 15.921875 -1.421875 10.953125 3.296875 
Q 6 8.015625 6 15.921875 
Q 6 25.140625 12.171875 29.828125 
Q 18.359375 34.515625 30.609375 34.515625 
L 43.21875 34.515625 
L 43.21875 35.40625 
Q 43.21875 41.609375 39.140625 45 
Q 35.0625 48.390625 27.6875 48.390625 
Q 23 48.390625 18.546875 47.265625 
Q 14.109375 46.140625 10.015625 43.890625 
L 10.015625 52.203125 
Q 14.9375 54.109375 19.578125 55.046875 
Q 24.21875 56 28.609375 56 
Q 40.484375 56 46.34375 49.84375 
Q 52.203125 43.703125 52.203125 31.203125 
" id="BitstreamVeraSans-Roman-61"/>
      <path d="M 44.28125 53.078125 
L 44.28125 44.578125 
Q 40.484375 46.53125 36.375 47.5 
Q 32.28125 48.484375 27.875 48.484375 
Q 21.1875 48.484375 17.84375 46.4375 
Q 14.5 44.390625 14.5 40.28125 
Q 14.5 37.15625 16.890625 35.375 
Q 19.28125 33.59375 26.515625 31.984375 
L 29.59375 31.296875 
Q 39.15625 29.25 43.1875 25.515625 
Q 47.21875 21.78125 47.21875 15.09375 
Q 47.21875 7.46875 41.1875 3.015625 
Q 35.15625 -1.421875 24.609375 -1.421875 
Q 20.21875 -1.421875 15.453125 -0.5625 
Q 10.6875 0.296875 5.421875 2 
L 5.421875 11.28125 
Q 10.40625 8.6875 15.234375 7.390625 
Q 20.0625 6.109375 24.8125 6.109375 
Q 31.15625 6.109375 34.5625 8.28125 
Q 37.984375 10.453125 37.984375 14.40625 
Q 37.984375 18.0625 35.515625 20.015625 
Q 33.0625 21.96875 24.703125 23.78125 
L 21.578125 24.515625 
Q 13.234375 26.265625 9.515625 29.90625 
Q 5.8125 33.546875 5.8125 39.890625 
Q 5.8125 47.609375 11.28125 51.796875 
Q 16.75 56 26.8125 56 
Q 31.78125 56 36.171875 55.265625 
Q 40.578125 54.546875 44.28125 53.078125 
" id="BitstreamVeraSans-Roman-73"/>
      <path d="M 9.8125 72.90625 
L 19.671875 72.90625 
L 19.671875 0 
L 9.8125 0 
z
" id="BitstreamVeraSans-Roman-49"/>
     </defs>
     <g transform="translate(185.4890625 402.609467822)scale(0.2 -0.2)">
      <use xlink:href="#BitstreamVeraSans-Roman-6c"/>
      <use x="27.783203125" xlink:href="#BitstreamVeraSans-Roman-6f"/>
      <use x="88.96484375" xlink:href="#BitstreamVeraSans-Roman-67"/>
      <use x="152.44140625" xlink:href="#BitstreamVeraSans-Roman-31"/>
      <use x="216.064453125" xlink:href="#BitstreamVeraSans-Roman-30"/>
      <use x="279.6875" xlink:href="#BitstreamVeraSans-Roman-20"/>
      <use x="311.474609375" xlink:href="#BitstreamVeraSans-Roman-6f"/>
      <use x="372.65625" xlink:href="#BitstreamVeraSans-Roman-66"/>
      <use x="407.861328125" xlink:href="#BitstreamVeraSans-Roman-20"/>
      <use x="439.6484375" xlink:href="#BitstreamVeraSans-Roman-46"/>
      <use x="497.16796875" xlink:href="#BitstreamVeraSans-Roman-45"/>
      <use x="560.3515625" xlink:href="#BitstreamVeraSans-Roman-76"/>
      <use x="619.53125" xlink:href="#BitstreamVeraSans-Roman-61"/>
      <use x="680.810546875" xlink:href="#BitstreamVeraSans-Roman-6c"/>
      <use x="708.59375" xlink:href="#BitstreamVeraSans-Roman-73"/>
      <use x="760.693359375" xlink:href="#BitstreamVeraSans-Roman-20"/>
      <use x="792.48046875" xlink:href="#BitstreamVeraSans-Roman-2f"/>
      <use x="826.171875" xlink:href="#BitstreamVeraSans-Roman-20"/>
      <use x="857.958984375" xlink:href="#BitstreamVeraSans-Roman-44"/>
      <use x="934.9609375" xlink:href="#BitstreamVeraSans-Roman-49"/>
      <use x="964.453125" xlink:href="#BitstreamVeraSans-Roman-4d"/>
     </g>
    </g>
   </g>
   <g id="matplotlib.axis_2">
    <g id="ytick_1">
     <g id="line2d_95">
      <path clip-path="url(#pf94b95e14b)" d="M 67.3625 359.056343 
L 513.7625 359.056343 
" style="fill:none;stroke:#000000;stroke-dasharray:1.000000,3.000000;stroke-dashoffset:0.0;stroke-width:0.5;"/>
     </g>
     <g id="line2d_96">
      <defs>
       <path d="M 0 0 
L 4 0 
" id="m7b9e8410c1" style="stroke:#000000;stroke-width:0.5;"/>
      </defs>
      <g>
       <use style="stroke:#000000;stroke-width:0.5;" x="67.3625" xlink:href="#m7b9e8410c1" y="359.056342822"/>
      </g>
     </g>
     <g id="line2d_97">
      <defs>
       <path d="M 0 0 
L -4 0 
" id="mb6472de4b1" style="stroke:#000000;stroke-width:0.5;"/>
      </defs>
      <g>
       <use style="stroke:#000000;stroke-width:0.5;" x="513.7625" xlink:href="#mb6472de4b1" y="359.056342822"/>
      </g>
     </g>
     <g id="text_5">
      <!-- 0.0 -->
      <defs>
       <path d="M 10.6875 12.40625 
L 21 12.40625 
L 21 0 
L 10.6875 0 
z
" id="BitstreamVeraSans-Roman-2e"/>
      </defs>
      <g transform="translate(31.55625 364.575092822)scale(0.2 -0.2)">
       <use xlink:href="#BitstreamVeraSans-Roman-30"/>
       <use x="63.623046875" xlink:href="#BitstreamVeraSans-Roman-2e"/>
       <use x="95.41015625" xlink:href="#BitstreamVeraSans-Roman-30"/>
      </g>
     </g>
    </g>
    <g id="ytick_2">
     <g id="line2d_98">
      <path clip-path="url(#pf94b95e14b)" d="M 67.3625 290.620699 
L 513.7625 290.620699 
" style="fill:none;stroke:#000000;stroke-dasharray:1.000000,3.000000;stroke-dashoffset:0.0;stroke-width:0.5;"/>
     </g>
     <g id="line2d_99">
      <g>
       <use style="stroke:#000000;stroke-width:0.5;" x="67.3625" xlink:href="#m7b9e8410c1" y="290.620699257"/>
      </g>
     </g>
     <g id="line2d_100">
      <g>
       <use style="stroke:#000000;stroke-width:0.5;" x="513.7625" xlink:href="#mb6472de4b1" y="290.620699257"/>
      </g>
     </g>
     <g id="text_6">
      <!-- 0.2 -->
      <g transform="translate(31.55625 296.139449257)scale(0.2 -0.2)">
       <use xlink:href="#BitstreamVeraSans-Roman-30"/>
       <use x="63.623046875" xlink:href="#BitstreamVeraSans-Roman-2e"/>
       <use x="95.41015625" xlink:href="#BitstreamVeraSans-Roman-32"/>
      </g>
     </g>
    </g>
    <g id="ytick_3">
     <g id="line2d_101">
      <path clip-path="url(#pf94b95e14b)" d="M 67.3625 222.185056 
L 513.7625 222.185056 
" style="fill:none;stroke:#000000;stroke-dasharray:1.000000,3.000000;stroke-dashoffset:0.0;stroke-width:0.5;"/>
     </g>
     <g id="line2d_102">
      <g>
       <use style="stroke:#000000;stroke-width:0.5;" x="67.3625" xlink:href="#m7b9e8410c1" y="222.185055693"/>
      </g>
     </g>
     <g id="line2d_103">
      <g>
       <use style="stroke:#000000;stroke-width:0.5;" x="513.7625" xlink:href="#mb6472de4b1" y="222.185055693"/>
      </g>
     </g>
     <g id="text_7">
      <!-- 0.4 -->
      <defs>
       <path d="M 37.796875 64.3125 
L 12.890625 25.390625 
L 37.796875 25.390625 
z
M 35.203125 72.90625 
L 47.609375 72.90625 
L 47.609375 25.390625 
L 58.015625 25.390625 
L 58.015625 17.1875 
L 47.609375 17.1875 
L 47.609375 0 
L 37.796875 0 
L 37.796875 17.1875 
L 4.890625 17.1875 
L 4.890625 26.703125 
z
" id="BitstreamVeraSans-Roman-34"/>
      </defs>
      <g transform="translate(31.55625 227.703805693)scale(0.2 -0.2)">
       <use xlink:href="#BitstreamVeraSans-Roman-30"/>
       <use x="63.623046875" xlink:href="#BitstreamVeraSans-Roman-2e"/>
       <use x="95.41015625" xlink:href="#BitstreamVeraSans-Roman-34"/>
      </g>
     </g>
    </g>
    <g id="ytick_4">
     <g id="line2d_104">
      <path clip-path="url(#pf94b95e14b)" d="M 67.3625 153.749412 
L 513.7625 153.749412 
" style="fill:none;stroke:#000000;stroke-dasharray:1.000000,3.000000;stroke-dashoffset:0.0;stroke-width:0.5;"/>
     </g>
     <g id="line2d_105">
      <g>
       <use style="stroke:#000000;stroke-width:0.5;" x="67.3625" xlink:href="#m7b9e8410c1" y="153.749412129"/>
      </g>
     </g>
     <g id="line2d_106">
      <g>
       <use style="stroke:#000000;stroke-width:0.5;" x="513.7625" xlink:href="#mb6472de4b1" y="153.749412129"/>
      </g>
     </g>
     <g id="text_8">
      <!-- 0.6 -->
      <defs>
       <path d="M 33.015625 40.375 
Q 26.375 40.375 22.484375 35.828125 
Q 18.609375 31.296875 18.609375 23.390625 
Q 18.609375 15.53125 22.484375 10.953125 
Q 26.375 6.390625 33.015625 6.390625 
Q 39.65625 6.390625 43.53125 10.953125 
Q 47.40625 15.53125 47.40625 23.390625 
Q 47.40625 31.296875 43.53125 35.828125 
Q 39.65625 40.375 33.015625 40.375 
M 52.59375 71.296875 
L 52.59375 62.3125 
Q 48.875 64.0625 45.09375 64.984375 
Q 41.3125 65.921875 37.59375 65.921875 
Q 27.828125 65.921875 22.671875 59.328125 
Q 17.53125 52.734375 16.796875 39.40625 
Q 19.671875 43.65625 24.015625 45.921875 
Q 28.375 48.1875 33.59375 48.1875 
Q 44.578125 48.1875 50.953125 41.515625 
Q 57.328125 34.859375 57.328125 23.390625 
Q 57.328125 12.15625 50.6875 5.359375 
Q 44.046875 -1.421875 33.015625 -1.421875 
Q 20.359375 -1.421875 13.671875 8.265625 
Q 6.984375 17.96875 6.984375 36.375 
Q 6.984375 53.65625 15.1875 63.9375 
Q 23.390625 74.21875 37.203125 74.21875 
Q 40.921875 74.21875 44.703125 73.484375 
Q 48.484375 72.75 52.59375 71.296875 
" id="BitstreamVeraSans-Roman-36"/>
      </defs>
      <g transform="translate(31.55625 159.268162129)scale(0.2 -0.2)">
       <use xlink:href="#BitstreamVeraSans-Roman-30"/>
       <use x="63.623046875" xlink:href="#BitstreamVeraSans-Roman-2e"/>
       <use x="95.41015625" xlink:href="#BitstreamVeraSans-Roman-36"/>
      </g>
     </g>
    </g>
    <g id="ytick_5">
     <g id="line2d_107">
      <path clip-path="url(#pf94b95e14b)" d="M 67.3625 85.313769 
L 513.7625 85.313769 
" style="fill:none;stroke:#000000;stroke-dasharray:1.000000,3.000000;stroke-dashoffset:0.0;stroke-width:0.5;"/>
     </g>
     <g id="line2d_108">
      <g>
       <use style="stroke:#000000;stroke-width:0.5;" x="67.3625" xlink:href="#m7b9e8410c1" y="85.3137685644"/>
      </g>
     </g>
     <g id="line2d_109">
      <g>
       <use style="stroke:#000000;stroke-width:0.5;" x="513.7625" xlink:href="#mb6472de4b1" y="85.3137685644"/>
      </g>
     </g>
     <g id="text_9">
      <!-- 0.8 -->
      <defs>
       <path d="M 31.78125 34.625 
Q 24.75 34.625 20.71875 30.859375 
Q 16.703125 27.09375 16.703125 20.515625 
Q 16.703125 13.921875 20.71875 10.15625 
Q 24.75 6.390625 31.78125 6.390625 
Q 38.8125 6.390625 42.859375 10.171875 
Q 46.921875 13.96875 46.921875 20.515625 
Q 46.921875 27.09375 42.890625 30.859375 
Q 38.875 34.625 31.78125 34.625 
M 21.921875 38.8125 
Q 15.578125 40.375 12.03125 44.71875 
Q 8.5 49.078125 8.5 55.328125 
Q 8.5 64.0625 14.71875 69.140625 
Q 20.953125 74.21875 31.78125 74.21875 
Q 42.671875 74.21875 48.875 69.140625 
Q 55.078125 64.0625 55.078125 55.328125 
Q 55.078125 49.078125 51.53125 44.71875 
Q 48 40.375 41.703125 38.8125 
Q 48.828125 37.15625 52.796875 32.3125 
Q 56.78125 27.484375 56.78125 20.515625 
Q 56.78125 9.90625 50.3125 4.234375 
Q 43.84375 -1.421875 31.78125 -1.421875 
Q 19.734375 -1.421875 13.25 4.234375 
Q 6.78125 9.90625 6.78125 20.515625 
Q 6.78125 27.484375 10.78125 32.3125 
Q 14.796875 37.15625 21.921875 38.8125 
M 18.3125 54.390625 
Q 18.3125 48.734375 21.84375 45.5625 
Q 25.390625 42.390625 31.78125 42.390625 
Q 38.140625 42.390625 41.71875 45.5625 
Q 45.3125 48.734375 45.3125 54.390625 
Q 45.3125 60.0625 41.71875 63.234375 
Q 38.140625 66.40625 31.78125 66.40625 
Q 25.390625 66.40625 21.84375 63.234375 
Q 18.3125 60.0625 18.3125 54.390625 
" id="BitstreamVeraSans-Roman-38"/>
      </defs>
      <g transform="translate(31.55625 90.8325185644)scale(0.2 -0.2)">
       <use xlink:href="#BitstreamVeraSans-Roman-30"/>
       <use x="63.623046875" xlink:href="#BitstreamVeraSans-Roman-2e"/>
       <use x="95.41015625" xlink:href="#BitstreamVeraSans-Roman-38"/>
      </g>
     </g>
    </g>
    <g id="ytick_6">
     <g id="line2d_110">
      <path clip-path="url(#pf94b95e14b)" d="M 67.3625 16.878125 
L 513.7625 16.878125 
" style="fill:none;stroke:#000000;stroke-dasharray:1.000000,3.000000;stroke-dashoffset:0.0;stroke-width:0.5;"/>
     </g>
     <g id="line2d_111">
      <g>
       <use style="stroke:#000000;stroke-width:0.5;" x="67.3625" xlink:href="#m7b9e8410c1" y="16.878125"/>
      </g>
     </g>
     <g id="line2d_112">
      <g>
       <use style="stroke:#000000;stroke-width:0.5;" x="513.7625" xlink:href="#mb6472de4b1" y="16.878125"/>
      </g>
     </g>
     <g id="text_10">
      <!-- 1.0 -->
      <g transform="translate(31.55625 22.396875)scale(0.2 -0.2)">
       <use xlink:href="#BitstreamVeraSans-Roman-31"/>
       <use x="63.623046875" xlink:href="#BitstreamVeraSans-Roman-2e"/>
       <use x="95.41015625" xlink:href="#BitstreamVeraSans-Roman-30"/>
      </g>
     </g>
    </g>
    <g id="text_11">
     <!-- proportion of trials -->
     <defs>
      <path d="M 54.890625 33.015625 
L 54.890625 0 
L 45.90625 0 
L 45.90625 32.71875 
Q 45.90625 40.484375 42.875 44.328125 
Q 39.84375 48.1875 33.796875 48.1875 
Q 26.515625 48.1875 22.3125 43.546875 
Q 18.109375 38.921875 18.109375 30.90625 
L 18.109375 0 
L 9.078125 0 
L 9.078125 54.6875 
L 18.109375 54.6875 
L 18.109375 46.1875 
Q 21.34375 51.125 25.703125 53.5625 
Q 30.078125 56 35.796875 56 
Q 45.21875 56 50.046875 50.171875 
Q 54.890625 44.34375 54.890625 33.015625 
" id="BitstreamVeraSans-Roman-6e"/>
      <path d="M 9.421875 54.6875 
L 18.40625 54.6875 
L 18.40625 0 
L 9.421875 0 
z
M 9.421875 75.984375 
L 18.40625 75.984375 
L 18.40625 64.59375 
L 9.421875 64.59375 
z
" id="BitstreamVeraSans-Roman-69"/>
      <path d="M 18.3125 70.21875 
L 18.3125 54.6875 
L 36.8125 54.6875 
L 36.8125 47.703125 
L 18.3125 47.703125 
L 18.3125 18.015625 
Q 18.3125 11.328125 20.140625 9.421875 
Q 21.96875 7.515625 27.59375 7.515625 
L 36.8125 7.515625 
L 36.8125 0 
L 27.59375 0 
Q 17.1875 0 13.234375 3.875 
Q 9.28125 7.765625 9.28125 18.015625 
L 9.28125 47.703125 
L 2.6875 47.703125 
L 2.6875 54.6875 
L 9.28125 54.6875 
L 9.28125 70.21875 
z
" id="BitstreamVeraSans-Roman-74"/>
      <path d="M 41.109375 46.296875 
Q 39.59375 47.171875 37.8125 47.578125 
Q 36.03125 48 33.890625 48 
Q 26.265625 48 22.1875 43.046875 
Q 18.109375 38.09375 18.109375 28.8125 
L 18.109375 0 
L 9.078125 0 
L 9.078125 54.6875 
L 18.109375 54.6875 
L 18.109375 46.1875 
Q 20.953125 51.171875 25.484375 53.578125 
Q 30.03125 56 36.53125 56 
Q 37.453125 56 38.578125 55.875 
Q 39.703125 55.765625 41.0625 55.515625 
z
" id="BitstreamVeraSans-Roman-72"/>
      <path d="M 18.109375 8.203125 
L 18.109375 -20.796875 
L 9.078125 -20.796875 
L 9.078125 54.6875 
L 18.109375 54.6875 
L 18.109375 46.390625 
Q 20.953125 51.265625 25.265625 53.625 
Q 29.59375 56 35.59375 56 
Q 45.5625 56 51.78125 48.09375 
Q 58.015625 40.1875 58.015625 27.296875 
Q 58.015625 14.40625 51.78125 6.484375 
Q 45.5625 -1.421875 35.59375 -1.421875 
Q 29.59375 -1.421875 25.265625 0.953125 
Q 20.953125 3.328125 18.109375 8.203125 
M 48.6875 27.296875 
Q 48.6875 37.203125 44.609375 42.84375 
Q 40.53125 48.484375 33.40625 48.484375 
Q 26.265625 48.484375 22.1875 42.84375 
Q 18.109375 37.203125 18.109375 27.296875 
Q 18.109375 17.390625 22.1875 11.75 
Q 26.265625 6.109375 33.40625 6.109375 
Q 40.53125 6.109375 44.609375 11.75 
Q 48.6875 17.390625 48.6875 27.296875 
" id="BitstreamVeraSans-Roman-70"/>
     </defs>
     <g transform="translate(22.396875 279.484467822)rotate(-90.0)scale(0.2 -0.2)">
      <use xlink:href="#BitstreamVeraSans-Roman-70"/>
      <use x="63.4765625" xlink:href="#BitstreamVeraSans-Roman-72"/>
      <use x="104.55859375" xlink:href="#BitstreamVeraSans-Roman-6f"/>
      <use x="165.740234375" xlink:href="#BitstreamVeraSans-Roman-70"/>
      <use x="229.216796875" xlink:href="#BitstreamVeraSans-Roman-6f"/>
      <use x="290.3984375" xlink:href="#BitstreamVeraSans-Roman-72"/>
      <use x="331.51171875" xlink:href="#BitstreamVeraSans-Roman-74"/>
      <use x="370.720703125" xlink:href="#BitstreamVeraSans-Roman-69"/>
      <use x="398.50390625" xlink:href="#BitstreamVeraSans-Roman-6f"/>
      <use x="459.685546875" xlink:href="#BitstreamVeraSans-Roman-6e"/>
      <use x="523.064453125" xlink:href="#BitstreamVeraSans-Roman-20"/>
      <use x="554.8515625" xlink:href="#BitstreamVeraSans-Roman-6f"/>
      <use x="616.033203125" xlink:href="#BitstreamVeraSans-Roman-66"/>
      <use x="651.23828125" xlink:href="#BitstreamVeraSans-Roman-20"/>
      <use x="683.025390625" xlink:href="#BitstreamVeraSans-Roman-74"/>
      <use x="722.234375" xlink:href="#BitstreamVeraSans-Roman-72"/>
      <use x="763.34765625" xlink:href="#BitstreamVeraSans-Roman-69"/>
      <use x="791.130859375" xlink:href="#BitstreamVeraSans-Roman-61"/>
      <use x="852.41015625" xlink:href="#BitstreamVeraSans-Roman-6c"/>
      <use x="880.193359375" xlink:href="#BitstreamVeraSans-Roman-73"/>
     </g>
    </g>
   </g>
   <g id="text_12">
    <!-- {f6-f9}, 20-D -->
    <defs>
     <path d="M 11.71875 12.40625 
L 22.015625 12.40625 
L 22.015625 4 
L 14.015625 -11.625 
L 7.71875 -11.625 
L 11.71875 4 
z
" id="BitstreamVeraSans-Roman-2c"/>
     <path d="M 12.5 -9.28125 
L 15.921875 -9.28125 
Q 22.75 -9.28125 24.828125 -7.171875 
Q 26.90625 -5.078125 26.90625 1.90625 
L 26.90625 14.015625 
Q 26.90625 21.625 29.09375 25.09375 
Q 31.296875 28.5625 36.71875 29.890625 
Q 31.296875 31.109375 29.09375 34.5625 
Q 26.90625 38.03125 26.90625 45.703125 
L 26.90625 57.8125 
Q 26.90625 64.75 24.828125 66.875 
Q 22.75 69 15.921875 69 
L 12.5 69 
L 12.5 75.984375 
L 15.578125 75.984375 
Q 27.734375 75.984375 31.8125 72.390625 
Q 35.890625 68.796875 35.890625 58.015625 
L 35.890625 46.296875 
Q 35.890625 39.015625 38.515625 36.203125 
Q 41.15625 33.40625 48.09375 33.40625 
L 51.125 33.40625 
L 51.125 26.421875 
L 48.09375 26.421875 
Q 41.15625 26.421875 38.515625 23.578125 
Q 35.890625 20.75 35.890625 13.375 
L 35.890625 1.703125 
Q 35.890625 -9.078125 31.8125 -12.6875 
Q 27.734375 -16.3125 15.578125 -16.3125 
L 12.5 -16.3125 
z
" id="BitstreamVeraSans-Roman-7d"/>
     <path d="M 10.984375 1.515625 
L 10.984375 10.5 
Q 14.703125 8.734375 18.5 7.8125 
Q 22.3125 6.890625 25.984375 6.890625 
Q 35.75 6.890625 40.890625 13.453125 
Q 46.046875 20.015625 46.78125 33.40625 
Q 43.953125 29.203125 39.59375 26.953125 
Q 35.25 24.703125 29.984375 24.703125 
Q 19.046875 24.703125 12.671875 31.3125 
Q 6.296875 37.9375 6.296875 49.421875 
Q 6.296875 60.640625 12.9375 67.421875 
Q 19.578125 74.21875 30.609375 74.21875 
Q 43.265625 74.21875 49.921875 64.515625 
Q 56.59375 54.828125 56.59375 36.375 
Q 56.59375 19.140625 48.40625 8.859375 
Q 40.234375 -1.421875 26.421875 -1.421875 
Q 22.703125 -1.421875 18.890625 -0.6875 
Q 15.09375 0.046875 10.984375 1.515625 
M 30.609375 32.421875 
Q 37.25 32.421875 41.125 36.953125 
Q 45.015625 41.5 45.015625 49.421875 
Q 45.015625 57.28125 41.125 61.84375 
Q 37.25 66.40625 30.609375 66.40625 
Q 23.96875 66.40625 20.09375 61.84375 
Q 16.21875 57.28125 16.21875 49.421875 
Q 16.21875 41.5 20.09375 36.953125 
Q 23.96875 32.421875 30.609375 32.421875 
" id="BitstreamVeraSans-Roman-39"/>
     <path d="M 51.125 -9.28125 
L 51.125 -16.3125 
L 48.09375 -16.3125 
Q 35.9375 -16.3125 31.8125 -12.6875 
Q 27.6875 -9.078125 27.6875 1.703125 
L 27.6875 13.375 
Q 27.6875 20.75 25.046875 23.578125 
Q 22.40625 26.421875 15.484375 26.421875 
L 12.5 26.421875 
L 12.5 33.40625 
L 15.484375 33.40625 
Q 22.46875 33.40625 25.078125 36.203125 
Q 27.6875 39.015625 27.6875 46.296875 
L 27.6875 58.015625 
Q 27.6875 68.796875 31.8125 72.390625 
Q 35.9375 75.984375 48.09375 75.984375 
L 51.125 75.984375 
L 51.125 69 
L 47.796875 69 
Q 40.921875 69 38.8125 66.84375 
Q 36.71875 64.703125 36.71875 57.8125 
L 36.71875 45.703125 
Q 36.71875 38.03125 34.5 34.5625 
Q 32.28125 31.109375 26.90625 29.890625 
Q 32.328125 28.5625 34.515625 25.09375 
Q 36.71875 21.625 36.71875 14.015625 
L 36.71875 1.90625 
Q 36.71875 -4.984375 38.8125 -7.125 
Q 40.921875 -9.28125 47.796875 -9.28125 
z
" id="BitstreamVeraSans-Roman-7b"/>
     <path d="M 4.890625 31.390625 
L 31.203125 31.390625 
L 31.203125 23.390625 
L 4.890625 23.390625 
z
" id="BitstreamVeraSans-Roman-2d"/>
    </defs>
    <g transform="translate(224.075 35.5652178218)scale(0.2 -0.2)">
     <use xlink:href="#BitstreamVeraSans-Roman-7b"/>
     <use x="63.623046875" xlink:href="#BitstreamVeraSans-Roman-66"/>
     <use x="98.828125" xlink:href="#BitstreamVeraSans-Roman-36"/>
     <use x="162.451171875" xlink:href="#BitstreamVeraSans-Roman-2d"/>
     <use x="198.53515625" xlink:href="#BitstreamVeraSans-Roman-66"/>
     <use x="233.740234375" xlink:href="#BitstreamVeraSans-Roman-39"/>
     <use x="297.36328125" xlink:href="#BitstreamVeraSans-Roman-7d"/>
     <use x="360.986328125" xlink:href="#BitstreamVeraSans-Roman-2c"/>
     <use x="392.7734375" xlink:href="#BitstreamVeraSans-Roman-20"/>
     <use x="424.560546875" xlink:href="#BitstreamVeraSans-Roman-32"/>
     <use x="488.18359375" xlink:href="#BitstreamVeraSans-Roman-30"/>
     <use x="551.806640625" xlink:href="#BitstreamVeraSans-Roman-2d"/>
     <use x="587.890625" xlink:href="#BitstreamVeraSans-Roman-44"/>
    </g>
   </g>
   <g id="text_13">
    <!-- absolute targets -->
    <defs>
     <path d="M 56.203125 29.59375 
L 56.203125 25.203125 
L 14.890625 25.203125 
Q 15.484375 15.921875 20.484375 11.0625 
Q 25.484375 6.203125 34.421875 6.203125 
Q 39.59375 6.203125 44.453125 7.46875 
Q 49.3125 8.734375 54.109375 11.28125 
L 54.109375 2.78125 
Q 49.265625 0.734375 44.1875 -0.34375 
Q 39.109375 -1.421875 33.890625 -1.421875 
Q 20.796875 -1.421875 13.15625 6.1875 
Q 5.515625 13.8125 5.515625 26.8125 
Q 5.515625 40.234375 12.765625 48.109375 
Q 20.015625 56 32.328125 56 
Q 43.359375 56 49.78125 48.890625 
Q 56.203125 41.796875 56.203125 29.59375 
M 47.21875 32.234375 
Q 47.125 39.59375 43.09375 43.984375 
Q 39.0625 48.390625 32.421875 48.390625 
Q 24.90625 48.390625 20.390625 44.140625 
Q 15.875 39.890625 15.1875 32.171875 
z
" id="BitstreamVeraSans-Roman-65"/>
     <path d="M 8.5 21.578125 
L 8.5 54.6875 
L 17.484375 54.6875 
L 17.484375 21.921875 
Q 17.484375 14.15625 20.5 10.265625 
Q 23.53125 6.390625 29.59375 6.390625 
Q 36.859375 6.390625 41.078125 11.03125 
Q 45.3125 15.671875 45.3125 23.6875 
L 45.3125 54.6875 
L 54.296875 54.6875 
L 54.296875 0 
L 45.3125 0 
L 45.3125 8.40625 
Q 42.046875 3.421875 37.71875 1 
Q 33.40625 -1.421875 27.6875 -1.421875 
Q 18.265625 -1.421875 13.375 4.4375 
Q 8.5 10.296875 8.5 21.578125 
" id="BitstreamVeraSans-Roman-75"/>
     <path d="M 48.6875 27.296875 
Q 48.6875 37.203125 44.609375 42.84375 
Q 40.53125 48.484375 33.40625 48.484375 
Q 26.265625 48.484375 22.1875 42.84375 
Q 18.109375 37.203125 18.109375 27.296875 
Q 18.109375 17.390625 22.1875 11.75 
Q 26.265625 6.109375 33.40625 6.109375 
Q 40.53125 6.109375 44.609375 11.75 
Q 48.6875 17.390625 48.6875 27.296875 
M 18.109375 46.390625 
Q 20.953125 51.265625 25.265625 53.625 
Q 29.59375 56 35.59375 56 
Q 45.5625 56 51.78125 48.09375 
Q 58.015625 40.1875 58.015625 27.296875 
Q 58.015625 14.40625 51.78125 6.484375 
Q 45.5625 -1.421875 35.59375 -1.421875 
Q 29.59375 -1.421875 25.265625 0.953125 
Q 20.953125 3.328125 18.109375 8.203125 
L 18.109375 0 
L 9.078125 0 
L 9.078125 75.984375 
L 18.109375 75.984375 
z
" id="BitstreamVeraSans-Roman-62"/>
    </defs>
    <g transform="translate(67.3625 359.056342822)scale(0.14 -0.14)">
     <use xlink:href="#BitstreamVeraSans-Roman-61"/>
     <use x="61.279296875" xlink:href="#BitstreamVeraSans-Roman-62"/>
     <use x="124.755859375" xlink:href="#BitstreamVeraSans-Roman-73"/>
     <use x="176.85546875" xlink:href="#BitstreamVeraSans-Roman-6f"/>
     <use x="238.037109375" xlink:href="#BitstreamVeraSans-Roman-6c"/>
     <use x="265.8203125" xlink:href="#BitstreamVeraSans-Roman-75"/>
     <use x="329.19921875" xlink:href="#BitstreamVeraSans-Roman-74"/>
     <use x="368.408203125" xlink:href="#BitstreamVeraSans-Roman-65"/>
     <use x="429.931640625" xlink:href="#BitstreamVeraSans-Roman-20"/>
     <use x="461.71875" xlink:href="#BitstreamVeraSans-Roman-74"/>
     <use x="500.927734375" xlink:href="#BitstreamVeraSans-Roman-61"/>
     <use x="562.20703125" xlink:href="#BitstreamVeraSans-Roman-72"/>
     <use x="603.3046875" xlink:href="#BitstreamVeraSans-Roman-67"/>
     <use x="666.78125" xlink:href="#BitstreamVeraSans-Roman-65"/>
     <use x="728.3046875" xlink:href="#BitstreamVeraSans-Roman-74"/>
     <use x="767.513671875" xlink:href="#BitstreamVeraSans-Roman-73"/>
    </g>
   </g>
   <g id="text_14">
    <!-- 0.0.0 -->
    <g style="fill:#808080;" transform="translate(277.840625 353.520655322)scale(0.1 -0.1)">
     <use xlink:href="#BitstreamVeraSans-Roman-30"/>
     <use x="63.623046875" xlink:href="#BitstreamVeraSans-Roman-2e"/>
     <use x="95.41015625" xlink:href="#BitstreamVeraSans-Roman-30"/>
     <use x="159.033203125" xlink:href="#BitstreamVeraSans-Roman-2e"/>
     <use x="190.8203125" xlink:href="#BitstreamVeraSans-Roman-30"/>
    </g>
   </g>
   <g id="legend_1">
    <g id="patch_7">
     <path d="M 77.3625 146.881343 
L 214.584375 146.881343 
L 214.584375 23.456343 
L 77.3625 23.456343 
z
" style="fill:#ffffff;opacity:0.2;stroke:#000000;stroke-linejoin:miter;"/>
    </g>
    <g id="line2d_113">
     <path d="M 91.3625 39.653218 
L 119.3625 39.653218 
" style="fill:none;stroke:#000000;stroke-linecap:square;"/>
    </g>
    <g id="line2d_114"/>
    <g id="text_15">
     <!-- 1: 2/4 -->
     <defs>
      <path d="M 11.71875 12.40625 
L 22.015625 12.40625 
L 22.015625 0 
L 11.71875 0 
z
M 11.71875 51.703125 
L 22.015625 51.703125 
L 22.015625 39.3125 
L 11.71875 39.3125 
z
" id="BitstreamVeraSans-Roman-3a"/>
     </defs>
     <g transform="translate(141.3625 46.6532178218)scale(0.2 -0.2)">
      <use xlink:href="#BitstreamVeraSans-Roman-31"/>
      <use x="63.623046875" xlink:href="#BitstreamVeraSans-Roman-3a"/>
      <use x="97.314453125" xlink:href="#BitstreamVeraSans-Roman-20"/>
      <use x="129.1015625" xlink:href="#BitstreamVeraSans-Roman-32"/>
      <use x="192.724609375" xlink:href="#BitstreamVeraSans-Roman-2f"/>
      <use x="226.416015625" xlink:href="#BitstreamVeraSans-Roman-34"/>
     </g>
    </g>
    <g id="line2d_115">
     <path d="M 91.3625 69.009468 
L 119.3625 69.009468 
" style="fill:none;stroke:#00bfbf;stroke-linecap:square;"/>
    </g>
    <g id="line2d_116"/>
    <g id="text_16">
     <!-- -1: 1/4 -->
     <g transform="translate(141.3625 76.0094678218)scale(0.2 -0.2)">
      <use xlink:href="#BitstreamVeraSans-Roman-2d"/>
      <use x="36.083984375" xlink:href="#BitstreamVeraSans-Roman-31"/>
      <use x="99.70703125" xlink:href="#BitstreamVeraSans-Roman-3a"/>
      <use x="133.3984375" xlink:href="#BitstreamVeraSans-Roman-20"/>
      <use x="165.185546875" xlink:href="#BitstreamVeraSans-Roman-31"/>
      <use x="228.80859375" xlink:href="#BitstreamVeraSans-Roman-2f"/>
      <use x="262.5" xlink:href="#BitstreamVeraSans-Roman-34"/>
     </g>
    </g>
    <g id="line2d_117">
     <path d="M 91.3625 98.365718 
L 119.3625 98.365718 
" style="fill:none;stroke:#bf00bf;stroke-linecap:square;"/>
    </g>
    <g id="line2d_118"/>
    <g id="text_17">
     <!-- -4: 0/4 -->
     <g transform="translate(141.3625 105.365717822)scale(0.2 -0.2)">
      <use xlink:href="#BitstreamVeraSans-Roman-2d"/>
      <use x="36.083984375" xlink:href="#BitstreamVeraSans-Roman-34"/>
      <use x="99.70703125" xlink:href="#BitstreamVeraSans-Roman-3a"/>
      <use x="133.3984375" xlink:href="#BitstreamVeraSans-Roman-20"/>
      <use x="165.185546875" xlink:href="#BitstreamVeraSans-Roman-30"/>
      <use x="228.80859375" xlink:href="#BitstreamVeraSans-Roman-2f"/>
      <use x="262.5" xlink:href="#BitstreamVeraSans-Roman-34"/>
     </g>
    </g>
    <g id="line2d_119">
     <path d="M 91.3625 127.721968 
L 119.3625 127.721968 
" style="fill:none;stroke:#ff0000;stroke-linecap:square;stroke-width:3.0;"/>
    </g>
    <g id="line2d_120"/>
    <g id="text_18">
     <!-- -8: 0/4 -->
     <g transform="translate(141.3625 134.721967822)scale(0.2 -0.2)">
      <use xlink:href="#BitstreamVeraSans-Roman-2d"/>
      <use x="36.083984375" xlink:href="#BitstreamVeraSans-Roman-38"/>
      <use x="99.70703125" xlink:href="#BitstreamVeraSans-Roman-3a"/>
      <use x="133.3984375" xlink:href="#BitstreamVeraSans-Roman-20"/>
      <use x="165.185546875" xlink:href="#BitstreamVeraSans-Roman-30"/>
      <use x="228.80859375" xlink:href="#BitstreamVeraSans-Roman-2f"/>
      <use x="262.5" xlink:href="#BitstreamVeraSans-Roman-34"/>
     </g>
    </g>
   </g>
  </g>
 </g>
 <defs>
  <clipPath id="pf94b95e14b">
   <rect height="345.6" width="446.4" x="67.3625" y="13.4563428218"/>
  </clipPath>
 </defs>
</svg>
