<?xml version="1.0" encoding="utf-8" standalone="no"?>
<!DOCTYPE svg PUBLIC "-//W3C//DTD SVG 1.1//EN"
  "http://www.w3.org/Graphics/SVG/1.1/DTD/svg11.dtd">
<!-- Created with matplotlib (http://matplotlib.org/) -->
<svg height="407pt" version="1.1" viewBox="0 0 460 407" width="460pt" xmlns="http://www.w3.org/2000/svg" xmlns:xlink="http://www.w3.org/1999/xlink">
 <defs>
  <style type="text/css">
*{stroke-linecap:butt;stroke-linejoin:round;stroke-miterlimit:100000;}
  </style>
 </defs>
 <g id="figure_1">
  <g id="patch_1">
   <path d="M 0 407.7125 
L 460.8 407.7125 
L 460.8 0 
L 0 0 
z
" style="fill:#ffffff;"/>
  </g>
  <g id="axes_1">
   <g id="patch_2">
    <path d="M 7.2 352.8 
L 453.6 352.8 
L 453.6 7.2 
L 7.2 7.2 
z
" style="fill:#ffffff;"/>
   </g>
   <g id="line2d_1">
    <path clip-path="url(#p3743bad045)" d="M 2.011918 352.8 
L 2.011918 347.09703 
L 32.403463 347.09703 
L 32.403463 341.394059 
L 37.176654 341.394059 
L 37.176654 335.691089 
L 53.086735 335.691089 
L 53.086735 329.988119 
L 64.073764 329.988119 
L 64.073764 324.285149 
L 69.456524 324.285149 
L 69.456524 318.582178 
L 86.117751 318.582178 
L 86.117751 312.879208 
L 87.773523 312.879208 
L 87.773523 307.176238 
L 88.850396 307.176238 
L 88.850396 301.473267 
L 99.717034 301.473267 
L 99.717034 295.770297 
L 137.366188 295.770297 
L 137.366188 290.067327 
L 145.402176 290.067327 
L 145.402176 284.364356 
L 147.622956 284.364356 
L 147.622956 278.661386 
L 148.456113 278.661386 
L 148.456113 272.958416 
L 153.756555 272.958416 
L 153.756555 267.255446 
L 161.932026 267.255446 
L 161.932026 261.552475 
L 179.10503 261.552475 
L 179.10503 255.849505 
L 196.665623 255.849505 
L 196.665623 250.146535 
L 197.105251 250.146535 
L 197.105251 244.443564 
L 197.137604 244.443564 
L 197.137604 238.740594 
L 197.953192 238.740594 
L 197.953192 233.037624 
L 199.641355 233.037624 
L 199.641355 227.334653 
L 203.661599 227.334653 
L 203.661599 221.631683 
L 203.740775 221.631683 
L 203.740775 215.928713 
L 204.508978 215.928713 
L 204.508978 210.225743 
L 205.199697 210.225743 
L 205.199697 204.522772 
L 206.077114 204.522772 
L 206.077114 198.819802 
L 206.203506 198.819802 
L 206.203506 193.116832 
L 207.018255 193.116832 
L 207.018255 187.413861 
L 207.375756 187.413861 
L 207.375756 181.710891 
L 207.633207 181.710891 
L 207.633207 176.007921 
L 207.711826 176.007921 
L 207.711826 170.30495 
L 208.647765 170.30495 
L 208.647765 164.60198 
L 210.368218 164.60198 
L 210.368218 158.89901 
L 210.498275 158.89901 
L 210.498275 153.19604 
L 210.619303 153.19604 
L 210.619303 147.493069 
L 211.392285 147.493069 
L 211.392285 141.790099 
L 211.619348 141.790099 
L 211.619348 136.087129 
L 211.800991 136.087129 
L 211.800991 130.384158 
L 211.811781 130.384158 
L 211.811781 124.681188 
L 211.887793 124.681188 
L 211.887793 118.978218 
L 211.967238 118.978218 
L 211.967238 113.275248 
L 212.19137 113.275248 
L 212.19137 107.572277 
L 212.905635 107.572277 
L 212.905635 101.869307 
L 213.905806 101.869307 
L 213.905806 96.166337 
L 214.050599 96.166337 
L 214.050599 90.463366 
L 214.172016 90.463366 
L 214.172016 84.760396 
L 214.94789 84.760396 
L 214.94789 79.057426 
L 216.745133 79.057426 
L 216.745133 73.354455 
L 218.717013 73.354455 
L 218.717013 67.651485 
L 220.615657 67.651485 
L 220.615657 61.948515 
L 220.693709 61.948515 
L 220.693709 56.245545 
L 221.185019 56.245545 
L 221.185019 50.542574 
L 221.310131 50.542574 
L 221.310131 44.839604 
L 221.33786 44.839604 
L 221.33786 39.136634 
L 221.993303 39.136634 
L 221.993303 33.433663 
L 222.056066 33.433663 
L 222.056066 27.730693 
L 222.10902 27.730693 
L 222.10902 22.027723 
L 222.597644 22.027723 
L 222.597644 16.324752 
L 228.161631 16.324752 
L 228.161631 10.621782 
L 228.161631 10.621782 
L 228.161631 10.621782 
L 453.6 10.621782 
" style="fill:none;stroke:#ff0000;stroke-linecap:square;stroke-width:3.0;"/>
   </g>
   <g id="line2d_2">
    <path clip-path="url(#p3743bad045)" d="M 259.92173 352.8 
L 259.92173 347.09703 
L 262.572257 347.09703 
L 262.572257 341.394059 
L 262.785532 341.394059 
L 262.785532 335.691089 
L 263.017549 335.691089 
L 263.017549 329.988119 
L 263.196843 329.988119 
L 263.196843 324.285149 
L 264.602592 324.285149 
L 264.602592 318.582178 
L 269.649051 318.582178 
L 269.649051 312.879208 
L 269.756779 312.879208 
L 269.756779 307.176238 
L 269.86772 307.176238 
L 269.86772 301.473267 
L 270.040311 301.473267 
L 270.040311 295.770297 
L 271.277706 295.770297 
L 271.277706 290.067327 
L 274.772215 290.067327 
L 274.772215 284.364356 
L 277.637014 284.364356 
L 277.637014 278.661386 
L 281.637887 278.661386 
L 281.637887 272.958416 
L 282.359187 272.958416 
L 282.359187 267.255446 
L 283.476826 267.255446 
L 283.476826 261.552475 
L 300.694017 261.552475 
L 300.694017 255.849505 
L 306.096358 255.849505 
L 306.096358 250.146535 
L 307.628104 250.146535 
L 307.628104 244.443564 
L 308.492058 244.443564 
L 308.492058 238.740594 
L 313.776359 238.740594 
L 313.776359 233.037624 
L 314.534068 233.037624 
L 314.534068 227.334653 
L 315.015607 227.334653 
L 315.015607 221.631683 
L 315.214234 221.631683 
L 315.214234 215.928713 
L 316.85059 215.928713 
L 316.85059 210.225743 
L 317.259415 210.225743 
L 317.259415 204.522772 
L 318.012868 204.522772 
L 318.012868 198.819802 
L 319.410748 198.819802 
L 319.410748 193.116832 
L 319.448446 193.116832 
L 319.448446 187.413861 
L 320.000885 187.413861 
L 320.000885 181.710891 
L 320.29082 181.710891 
L 320.29082 176.007921 
L 321.067924 176.007921 
L 321.067924 170.30495 
L 326.538902 170.30495 
L 326.538902 164.60198 
L 326.616513 164.60198 
L 326.616513 158.89901 
L 326.904536 158.89901 
L 326.904536 153.19604 
L 327.514241 153.19604 
L 327.514241 147.493069 
L 328.707163 147.493069 
L 328.707163 141.790099 
L 329.772191 141.790099 
L 329.772191 136.087129 
L 329.911055 136.087129 
L 329.911055 130.384158 
L 330.312073 130.384158 
L 330.312073 124.681188 
L 330.651049 124.681188 
L 330.651049 118.978218 
L 331.595033 118.978218 
L 331.595033 113.275248 
L 331.650808 113.275248 
L 331.650808 107.572277 
L 331.951559 107.572277 
L 331.951559 101.869307 
L 333.385644 101.869307 
L 333.385644 96.166337 
L 334.254098 96.166337 
L 334.254098 90.463366 
L 338.27415 90.463366 
L 338.27415 84.760396 
L 338.516489 84.760396 
L 338.516489 79.057426 
L 340.907669 79.057426 
L 340.907669 73.354455 
L 341.022427 73.354455 
L 341.022427 67.651485 
L 341.460161 67.651485 
L 341.460161 61.948515 
L 344.544384 61.948515 
L 344.544384 56.245545 
L 344.810321 56.245545 
L 344.810321 50.542574 
L 348.687081 50.542574 
L 348.687081 44.839604 
L 348.983694 44.839604 
L 348.983694 39.136634 
L 349.225485 39.136634 
L 349.225485 33.433663 
L 353.350749 33.433663 
L 353.350749 27.730693 
L 354.258255 27.730693 
L 354.258255 22.027723 
L 354.445354 22.027723 
L 354.445354 16.324752 
L 355.116155 16.324752 
L 355.116155 10.621782 
L 355.116155 10.621782 
L 355.116155 10.621782 
L 453.6 10.621782 
" style="fill:none;stroke:#00bfbf;stroke-linecap:square;"/>
   </g>
   <g id="line2d_3">
    <path clip-path="url(#p3743bad045)" d="M 254.397328 352.8 
L 254.397328 347.09703 
L 257.235164 347.09703 
L 257.235164 341.394059 
L 257.552332 341.394059 
L 257.552332 335.691089 
L 259.254883 335.691089 
L 259.254883 329.988119 
L 261.859889 329.988119 
L 261.859889 324.285149 
L 262.785532 324.285149 
L 262.785532 318.582178 
L 263.017549 318.582178 
L 263.017549 312.879208 
L 264.602592 312.879208 
L 264.602592 307.176238 
L 265.801923 307.176238 
L 265.801923 301.473267 
L 267.190932 301.473267 
L 267.190932 295.770297 
L 269.649051 295.770297 
L 269.649051 290.067327 
L 270.040311 290.067327 
L 270.040311 284.364356 
L 271.277706 284.364356 
L 271.277706 278.661386 
L 274.171445 278.661386 
L 274.171445 272.958416 
L 275.823965 272.958416 
L 275.823965 267.255446 
L 278.732769 267.255446 
L 278.732769 261.552475 
L 283.476826 261.552475 
L 283.476826 255.849505 
L 283.845384 255.849505 
L 283.845384 250.146535 
L 288.002137 250.146535 
L 288.002137 244.443564 
L 289.816179 244.443564 
L 289.816179 238.740594 
L 290.11339 238.740594 
L 290.11339 233.037624 
L 290.179264 233.037624 
L 290.179264 227.334653 
L 300.694017 227.334653 
L 300.694017 221.631683 
L 300.922662 221.631683 
L 300.922662 215.928713 
L 301.029729 215.928713 
L 301.029729 210.225743 
L 303.789813 210.225743 
L 303.789813 204.522772 
L 303.907058 204.522772 
L 303.907058 198.819802 
L 307.196539 198.819802 
L 307.196539 193.116832 
L 307.628104 193.116832 
L 307.628104 187.413861 
L 309.302554 187.413861 
L 309.302554 181.710891 
L 311.427732 181.710891 
L 311.427732 176.007921 
L 312.477427 176.007921 
L 312.477427 170.30495 
L 315.015607 170.30495 
L 315.015607 164.60198 
L 315.214234 164.60198 
L 315.214234 158.89901 
L 316.195213 158.89901 
L 316.195213 153.19604 
L 316.970917 153.19604 
L 316.970917 147.493069 
L 318.012868 147.493069 
L 318.012868 141.790099 
L 320.000885 141.790099 
L 320.000885 136.087129 
L 320.29082 136.087129 
L 320.29082 130.384158 
L 323.118585 130.384158 
L 323.118585 124.681188 
L 324.008244 124.681188 
L 324.008244 118.978218 
L 324.631873 118.978218 
L 324.631873 113.275248 
L 326.568294 113.275248 
L 326.568294 107.572277 
L 326.616513 107.572277 
L 326.616513 101.869307 
L 327.514241 101.869307 
L 327.514241 96.166337 
L 329.14666 96.166337 
L 329.14666 90.463366 
L 329.911055 90.463366 
L 329.911055 84.760396 
L 330.651049 84.760396 
L 330.651049 79.057426 
L 331.951559 79.057426 
L 331.951559 73.354455 
L 332.715466 73.354455 
L 332.715466 67.651485 
L 334.254098 67.651485 
L 334.254098 61.948515 
L 337.297041 61.948515 
L 337.297041 56.245545 
L 338.27415 56.245545 
L 338.27415 50.542574 
L 339.886984 50.542574 
L 339.886984 44.839604 
L 340.421451 44.839604 
L 340.421451 39.136634 
L 342.673634 39.136634 
L 342.673634 33.433663 
L 343.973374 33.433663 
L 343.973374 27.730693 
L 346.08739 27.730693 
L 346.08739 22.027723 
L 348.983694 22.027723 
L 348.983694 16.324752 
L 354.445354 16.324752 
L 354.445354 10.621782 
L 354.445354 10.621782 
L 354.445354 10.621782 
L 453.6 10.621782 
" style="fill:none;stroke:#bf00bf;stroke-linecap:square;"/>
   </g>
   <g id="line2d_4">
    <path clip-path="url(#p3743bad045)" d="M 244.161369 352.8 
L 244.161369 347.09703 
L 245.261102 347.09703 
L 245.261102 341.394059 
L 245.561781 341.394059 
L 245.561781 335.691089 
L 248.031725 335.691089 
L 248.031725 329.988119 
L 248.725186 329.988119 
L 248.725186 324.285149 
L 254.397328 324.285149 
L 254.397328 318.582178 
L 257.235164 318.582178 
L 257.235164 312.879208 
L 257.552332 312.879208 
L 257.552332 307.176238 
L 258.473753 307.176238 
L 258.473753 301.473267 
L 260.698366 301.473267 
L 260.698366 295.770297 
L 261.050739 295.770297 
L 261.050739 290.067327 
L 261.859889 290.067327 
L 261.859889 284.364356 
L 262.785532 284.364356 
L 262.785532 278.661386 
L 263.172134 278.661386 
L 263.172134 272.958416 
L 263.51038 272.958416 
L 263.51038 267.255446 
L 265.182248 267.255446 
L 265.182248 261.552475 
L 267.190932 261.552475 
L 267.190932 255.849505 
L 269.649051 255.849505 
L 269.649051 250.146535 
L 271.726392 250.146535 
L 271.726392 244.443564 
L 274.171445 244.443564 
L 274.171445 238.740594 
L 275.823965 238.740594 
L 275.823965 233.037624 
L 277.168816 233.037624 
L 277.168816 227.334653 
L 283.476826 227.334653 
L 283.476826 221.631683 
L 283.845384 221.631683 
L 283.845384 215.928713 
L 288.002137 215.928713 
L 288.002137 210.225743 
L 288.449664 210.225743 
L 288.449664 204.522772 
L 289.816179 204.522772 
L 289.816179 198.819802 
L 290.11339 198.819802 
L 290.11339 193.116832 
L 290.179264 193.116832 
L 290.179264 187.413861 
L 293.243422 187.413861 
L 293.243422 181.710891 
L 295.642031 181.710891 
L 295.642031 176.007921 
L 301.029729 176.007921 
L 301.029729 170.30495 
L 303.789813 170.30495 
L 303.789813 164.60198 
L 305.339278 164.60198 
L 305.339278 158.89901 
L 307.196539 158.89901 
L 307.196539 153.19604 
L 307.628104 153.19604 
L 307.628104 147.493069 
L 309.648746 147.493069 
L 309.648746 141.790099 
L 312.477427 141.790099 
L 312.477427 136.087129 
L 313.861825 136.087129 
L 313.861825 130.384158 
L 314.446701 130.384158 
L 314.446701 124.681188 
L 315.015607 124.681188 
L 315.015607 118.978218 
L 316.195213 118.978218 
L 316.195213 113.275248 
L 318.012868 113.275248 
L 318.012868 107.572277 
L 320.094019 107.572277 
L 320.094019 101.869307 
L 322.040757 101.869307 
L 322.040757 96.166337 
L 322.244848 96.166337 
L 322.244848 90.463366 
L 323.325024 90.463366 
L 323.325024 84.760396 
L 324.631873 84.760396 
L 324.631873 79.057426 
L 327.376882 79.057426 
L 327.376882 73.354455 
L 327.514241 73.354455 
L 327.514241 67.651485 
L 328.573661 67.651485 
L 328.573661 61.948515 
L 330.651049 61.948515 
L 330.651049 56.245545 
L 332.586528 56.245545 
L 332.586528 50.542574 
L 336.669726 50.542574 
L 336.669726 44.839604 
L 338.27415 44.839604 
L 338.27415 39.136634 
L 340.421451 39.136634 
L 340.421451 33.433663 
L 340.538897 33.433663 
L 340.538897 27.730693 
L 341.947852 27.730693 
L 341.947852 22.027723 
L 342.219076 22.027723 
L 342.219076 16.324752 
L 343.973374 16.324752 
L 343.973374 10.621782 
L 343.973374 10.621782 
L 343.973374 10.621782 
L 453.6 10.621782 
" style="fill:none;stroke:#000000;stroke-linecap:square;"/>
   </g>
   <g id="line2d_5">
    <path clip-path="url(#p3743bad045)" d="M 236.438832 352.8 
L 236.438832 347.09703 
L 244.161369 347.09703 
L 244.161369 341.394059 
L 245.261102 341.394059 
L 245.261102 335.691089 
L 245.336753 335.691089 
L 245.336753 329.988119 
L 245.831402 329.988119 
L 245.831402 324.285149 
L 248.031725 324.285149 
L 248.031725 318.582178 
L 248.725186 318.582178 
L 248.725186 312.879208 
L 249.487348 312.879208 
L 249.487348 307.176238 
L 249.650594 307.176238 
L 249.650594 301.473267 
L 249.986172 301.473267 
L 249.986172 295.770297 
L 250.089516 295.770297 
L 250.089516 290.067327 
L 250.365729 290.067327 
L 250.365729 284.364356 
L 254.318122 284.364356 
L 254.318122 278.661386 
L 254.727563 278.661386 
L 254.727563 272.958416 
L 255.587147 272.958416 
L 255.587147 267.255446 
L 257.944355 267.255446 
L 257.944355 261.552475 
L 259.079789 261.552475 
L 259.079789 255.849505 
L 260.182249 255.849505 
L 260.182249 250.146535 
L 260.645677 250.146535 
L 260.645677 244.443564 
L 261.240973 244.443564 
L 261.240973 238.740594 
L 262.985266 238.740594 
L 262.985266 233.037624 
L 263.172134 233.037624 
L 263.172134 227.334653 
L 263.847601 227.334653 
L 263.847601 221.631683 
L 266.402373 221.631683 
L 266.402373 215.928713 
L 266.519849 215.928713 
L 266.519849 210.225743 
L 266.580715 210.225743 
L 266.580715 204.522772 
L 267.190932 204.522772 
L 267.190932 198.819802 
L 267.344314 198.819802 
L 267.344314 193.116832 
L 267.395538 193.116832 
L 267.395538 187.413861 
L 271.815412 187.413861 
L 271.815412 181.710891 
L 275.933199 181.710891 
L 275.933199 176.007921 
L 277.168816 176.007921 
L 277.168816 170.30495 
L 280.142132 170.30495 
L 280.142132 164.60198 
L 280.247587 164.60198 
L 280.247587 158.89901 
L 280.879096 158.89901 
L 280.879096 153.19604 
L 283.845384 153.19604 
L 283.845384 147.493069 
L 284.597928 147.493069 
L 284.597928 141.790099 
L 284.622585 141.790099 
L 284.622585 136.087129 
L 284.991164 136.087129 
L 284.991164 130.384158 
L 285.958692 130.384158 
L 285.958692 124.681188 
L 288.365095 124.681188 
L 288.365095 118.978218 
L 288.449664 118.978218 
L 288.449664 113.275248 
L 289.940181 113.275248 
L 289.940181 107.572277 
L 290.11339 107.572277 
L 290.11339 101.869307 
L 291.409827 101.869307 
L 291.409827 96.166337 
L 291.458431 96.166337 
L 291.458431 90.463366 
L 293.875022 90.463366 
L 293.875022 84.760396 
L 294.370748 84.760396 
L 294.370748 79.057426 
L 295.642031 79.057426 
L 295.642031 73.354455 
L 297.900177 73.354455 
L 297.900177 67.651485 
L 298.239938 67.651485 
L 298.239938 61.948515 
L 299.141171 61.948515 
L 299.141171 56.245545 
L 299.264863 56.245545 
L 299.264863 50.542574 
L 301.652694 50.542574 
L 301.652694 44.839604 
L 303.284617 44.839604 
L 303.284617 39.136634 
L 308.205192 39.136634 
L 308.205192 33.433663 
L 319.746438 33.433663 
L 319.746438 27.730693 
L 321.055784 27.730693 
L 321.055784 22.027723 
L 322.373276 22.027723 
L 322.373276 16.324752 
L 324.522996 16.324752 
L 324.522996 10.621782 
L 324.522996 10.621782 
L 324.522996 10.621782 
L 453.6 10.621782 
" style="fill:none;stroke:#00bfbf;stroke-linecap:square;"/>
   </g>
   <g id="line2d_6">
    <path clip-path="url(#p3743bad045)" d="M 196.439007 352.8 
L 196.439007 347.09703 
L 208.718935 347.09703 
L 208.718935 341.394059 
L 211.914858 341.394059 
L 211.914858 335.691089 
L 213.467914 335.691089 
L 213.467914 329.988119 
L 213.61551 329.988119 
L 213.61551 324.285149 
L 214.363152 324.285149 
L 214.363152 318.582178 
L 215.878251 318.582178 
L 215.878251 312.879208 
L 217.103871 312.879208 
L 217.103871 307.176238 
L 218.006768 307.176238 
L 218.006768 301.473267 
L 218.922238 301.473267 
L 218.922238 295.770297 
L 219.794401 295.770297 
L 219.794401 290.067327 
L 219.887849 290.067327 
L 219.887849 284.364356 
L 220.526369 284.364356 
L 220.526369 278.661386 
L 220.664341 278.661386 
L 220.664341 272.958416 
L 221.227971 272.958416 
L 221.227971 267.255446 
L 222.234452 267.255446 
L 222.234452 261.552475 
L 222.580035 261.552475 
L 222.580035 255.849505 
L 223.37897 255.849505 
L 223.37897 250.146535 
L 223.744306 250.146535 
L 223.744306 244.443564 
L 223.827676 244.443564 
L 223.827676 238.740594 
L 224.259235 238.740594 
L 224.259235 233.037624 
L 225.48817 233.037624 
L 225.48817 227.334653 
L 225.686805 227.334653 
L 225.686805 221.631683 
L 225.866398 221.631683 
L 225.866398 215.928713 
L 225.883093 215.928713 
L 225.883093 210.225743 
L 226.012971 210.225743 
L 226.012971 204.522772 
L 227.391614 204.522772 
L 227.391614 198.819802 
L 227.61402 198.819802 
L 227.61402 193.116832 
L 227.82762 193.116832 
L 227.82762 187.413861 
L 228.161631 187.413861 
L 228.161631 181.710891 
L 229.064633 181.710891 
L 229.064633 176.007921 
L 229.391355 176.007921 
L 229.391355 170.30495 
L 230.076644 170.30495 
L 230.076644 164.60198 
L 230.291662 164.60198 
L 230.291662 158.89901 
L 231.75745 158.89901 
L 231.75745 153.19604 
L 231.958267 153.19604 
L 231.958267 147.493069 
L 232.071319 147.493069 
L 232.071319 141.790099 
L 232.233354 141.790099 
L 232.233354 136.087129 
L 232.391203 136.087129 
L 232.391203 130.384158 
L 232.801115 130.384158 
L 232.801115 124.681188 
L 232.871577 124.681188 
L 232.871577 118.978218 
L 233.462433 118.978218 
L 233.462433 113.275248 
L 235.187043 113.275248 
L 235.187043 107.572277 
L 235.395569 107.572277 
L 235.395569 101.869307 
L 236.191648 101.869307 
L 236.191648 96.166337 
L 237.039114 96.166337 
L 237.039114 90.463366 
L 237.719372 90.463366 
L 237.719372 84.760396 
L 239.443756 84.760396 
L 239.443756 79.057426 
L 240.147903 79.057426 
L 240.147903 73.354455 
L 240.724588 73.354455 
L 240.724588 67.651485 
L 245.776494 67.651485 
L 245.776494 61.948515 
L 246.106379 61.948515 
L 246.106379 56.245545 
L 246.750258 56.245545 
L 246.750258 50.542574 
L 250.430979 50.542574 
L 250.430979 44.839604 
L 251.952652 44.839604 
L 251.952652 39.136634 
L 255.432729 39.136634 
L 255.432729 33.433663 
L 255.466894 33.433663 
L 255.466894 27.730693 
L 258.603546 27.730693 
L 258.603546 22.027723 
L 259.949719 22.027723 
L 259.949719 16.324752 
L 261.25017 16.324752 
L 261.25017 10.621782 
L 261.25017 10.621782 
L 261.25017 10.621782 
L 453.6 10.621782 
" style="fill:none;stroke:#bf00bf;stroke-linecap:square;"/>
   </g>
   <g id="patch_3">
    <path d="M 7.2 7.2 
L 453.6 7.2 
" style="fill:none;stroke:#000000;stroke-linecap:square;stroke-linejoin:miter;"/>
   </g>
   <g id="patch_4">
    <path d="M 453.6 352.8 
L 453.6 7.2 
" style="fill:none;stroke:#000000;stroke-linecap:square;stroke-linejoin:miter;"/>
   </g>
   <g id="patch_5">
    <path d="M 7.2 352.8 
L 453.6 352.8 
" style="fill:none;stroke:#000000;stroke-linecap:square;stroke-linejoin:miter;"/>
   </g>
   <g id="patch_6">
    <path d="M 7.2 352.8 
L 7.2 7.2 
" style="fill:none;stroke:#000000;stroke-linecap:square;stroke-linejoin:miter;"/>
   </g>
   <g id="matplotlib.axis_1">
    <g id="xtick_1"/>
    <g id="xtick_2">
     <g id="line2d_7">
      <path clip-path="url(#p3743bad045)" d="M 56.704715 352.8 
L 56.704715 7.2 
" style="fill:none;stroke:#000000;stroke-dasharray:1.000000,3.000000;stroke-dashoffset:0.0;stroke-width:0.5;"/>
     </g>
     <g id="line2d_8">
      <defs>
       <path d="M 0 0 
L 0 -4 
" id="mf88fcad1ca" style="stroke:#000000;stroke-width:0.5;"/>
      </defs>
      <g>
       <use style="stroke:#000000;stroke-width:0.5;" x="56.70471484" xlink:href="#mf88fcad1ca" y="352.8"/>
      </g>
     </g>
     <g id="line2d_9">
      <defs>
       <path d="M 0 0 
L 0 4 
" id="m173328b82e" style="stroke:#000000;stroke-width:0.5;"/>
      </defs>
      <g>
       <use style="stroke:#000000;stroke-width:0.5;" x="56.70471484" xlink:href="#m173328b82e" y="7.2"/>
      </g>
     </g>
     <g id="text_1">
      <!-- -6 -->
      <defs>
       <path d="M 33.015625 40.375 
Q 26.375 40.375 22.484375 35.828125 
Q 18.609375 31.296875 18.609375 23.390625 
Q 18.609375 15.53125 22.484375 10.953125 
Q 26.375 6.390625 33.015625 6.390625 
Q 39.65625 6.390625 43.53125 10.953125 
Q 47.40625 15.53125 47.40625 23.390625 
Q 47.40625 31.296875 43.53125 35.828125 
Q 39.65625 40.375 33.015625 40.375 
M 52.59375 71.296875 
L 52.59375 62.3125 
Q 48.875 64.0625 45.09375 64.984375 
Q 41.3125 65.921875 37.59375 65.921875 
Q 27.828125 65.921875 22.671875 59.328125 
Q 17.53125 52.734375 16.796875 39.40625 
Q 19.671875 43.65625 24.015625 45.921875 
Q 28.375 48.1875 33.59375 48.1875 
Q 44.578125 48.1875 50.953125 41.515625 
Q 57.328125 34.859375 57.328125 23.390625 
Q 57.328125 12.15625 50.6875 5.359375 
Q 44.046875 -1.421875 33.015625 -1.421875 
Q 20.359375 -1.421875 13.671875 8.265625 
Q 6.984375 17.96875 6.984375 36.375 
Q 6.984375 53.65625 15.1875 63.9375 
Q 23.390625 74.21875 37.203125 74.21875 
Q 40.921875 74.21875 44.703125 73.484375 
Q 48.484375 72.75 52.59375 71.296875 
" id="BitstreamVeraSans-Roman-36"/>
       <path d="M 4.890625 31.390625 
L 31.203125 31.390625 
L 31.203125 23.390625 
L 4.890625 23.390625 
z
" id="BitstreamVeraSans-Roman-2d"/>
      </defs>
      <g transform="translate(46.73440234 371.996875)scale(0.2 -0.2)">
       <use xlink:href="#BitstreamVeraSans-Roman-2d"/>
       <use x="36.083984375" xlink:href="#BitstreamVeraSans-Roman-36"/>
      </g>
     </g>
    </g>
    <g id="xtick_3">
     <g id="line2d_10">
      <path clip-path="url(#p3743bad045)" d="M 106.316625 352.8 
L 106.316625 7.2 
" style="fill:none;stroke:#000000;stroke-dasharray:1.000000,3.000000;stroke-dashoffset:0.0;stroke-width:0.5;"/>
     </g>
     <g id="line2d_11">
      <g>
       <use style="stroke:#000000;stroke-width:0.5;" x="106.316625485" xlink:href="#mf88fcad1ca" y="352.8"/>
      </g>
     </g>
     <g id="line2d_12">
      <g>
       <use style="stroke:#000000;stroke-width:0.5;" x="106.316625485" xlink:href="#m173328b82e" y="7.2"/>
      </g>
     </g>
     <g id="text_2">
      <!-- -4 -->
      <defs>
       <path d="M 37.796875 64.3125 
L 12.890625 25.390625 
L 37.796875 25.390625 
z
M 35.203125 72.90625 
L 47.609375 72.90625 
L 47.609375 25.390625 
L 58.015625 25.390625 
L 58.015625 17.1875 
L 47.609375 17.1875 
L 47.609375 0 
L 37.796875 0 
L 37.796875 17.1875 
L 4.890625 17.1875 
L 4.890625 26.703125 
z
" id="BitstreamVeraSans-Roman-34"/>
      </defs>
      <g transform="translate(96.346312985 371.996875)scale(0.2 -0.2)">
       <use xlink:href="#BitstreamVeraSans-Roman-2d"/>
       <use x="36.083984375" xlink:href="#BitstreamVeraSans-Roman-34"/>
      </g>
     </g>
    </g>
    <g id="xtick_4">
     <g id="line2d_13">
      <path clip-path="url(#p3743bad045)" d="M 155.928536 352.8 
L 155.928536 7.2 
" style="fill:none;stroke:#000000;stroke-dasharray:1.000000,3.000000;stroke-dashoffset:0.0;stroke-width:0.5;"/>
     </g>
     <g id="line2d_14">
      <g>
       <use style="stroke:#000000;stroke-width:0.5;" x="155.92853613" xlink:href="#mf88fcad1ca" y="352.8"/>
      </g>
     </g>
     <g id="line2d_15">
      <g>
       <use style="stroke:#000000;stroke-width:0.5;" x="155.92853613" xlink:href="#m173328b82e" y="7.2"/>
      </g>
     </g>
     <g id="text_3">
      <!-- -2 -->
      <defs>
       <path d="M 19.1875 8.296875 
L 53.609375 8.296875 
L 53.609375 0 
L 7.328125 0 
L 7.328125 8.296875 
Q 12.9375 14.109375 22.625 23.890625 
Q 32.328125 33.6875 34.8125 36.53125 
Q 39.546875 41.84375 41.421875 45.53125 
Q 43.3125 49.21875 43.3125 52.78125 
Q 43.3125 58.59375 39.234375 62.25 
Q 35.15625 65.921875 28.609375 65.921875 
Q 23.96875 65.921875 18.8125 64.3125 
Q 13.671875 62.703125 7.8125 59.421875 
L 7.8125 69.390625 
Q 13.765625 71.78125 18.9375 73 
Q 24.125 74.21875 28.421875 74.21875 
Q 39.75 74.21875 46.484375 68.546875 
Q 53.21875 62.890625 53.21875 53.421875 
Q 53.21875 48.921875 51.53125 44.890625 
Q 49.859375 40.875 45.40625 35.40625 
Q 44.1875 33.984375 37.640625 27.21875 
Q 31.109375 20.453125 19.1875 8.296875 
" id="BitstreamVeraSans-Roman-32"/>
      </defs>
      <g transform="translate(145.95822363 371.996875)scale(0.2 -0.2)">
       <use xlink:href="#BitstreamVeraSans-Roman-2d"/>
       <use x="36.083984375" xlink:href="#BitstreamVeraSans-Roman-32"/>
      </g>
     </g>
    </g>
    <g id="xtick_5">
     <g id="line2d_16">
      <path clip-path="url(#p3743bad045)" d="M 205.540447 352.8 
L 205.540447 7.2 
" style="fill:none;stroke:#000000;stroke-dasharray:1.000000,3.000000;stroke-dashoffset:0.0;stroke-width:0.5;"/>
     </g>
     <g id="line2d_17">
      <g>
       <use style="stroke:#000000;stroke-width:0.5;" x="205.540446775" xlink:href="#mf88fcad1ca" y="352.8"/>
      </g>
     </g>
     <g id="line2d_18">
      <g>
       <use style="stroke:#000000;stroke-width:0.5;" x="205.540446775" xlink:href="#m173328b82e" y="7.2"/>
      </g>
     </g>
     <g id="text_4">
      <!-- 0 -->
      <defs>
       <path d="M 31.78125 66.40625 
Q 24.171875 66.40625 20.328125 58.90625 
Q 16.5 51.421875 16.5 36.375 
Q 16.5 21.390625 20.328125 13.890625 
Q 24.171875 6.390625 31.78125 6.390625 
Q 39.453125 6.390625 43.28125 13.890625 
Q 47.125 21.390625 47.125 36.375 
Q 47.125 51.421875 43.28125 58.90625 
Q 39.453125 66.40625 31.78125 66.40625 
M 31.78125 74.21875 
Q 44.046875 74.21875 50.515625 64.515625 
Q 56.984375 54.828125 56.984375 36.375 
Q 56.984375 17.96875 50.515625 8.265625 
Q 44.046875 -1.421875 31.78125 -1.421875 
Q 19.53125 -1.421875 13.0625 8.265625 
Q 6.59375 17.96875 6.59375 36.375 
Q 6.59375 54.828125 13.0625 64.515625 
Q 19.53125 74.21875 31.78125 74.21875 
" id="BitstreamVeraSans-Roman-30"/>
      </defs>
      <g transform="translate(199.177946775 371.996875)scale(0.2 -0.2)">
       <use xlink:href="#BitstreamVeraSans-Roman-30"/>
      </g>
     </g>
    </g>
    <g id="xtick_6">
     <g id="line2d_19">
      <path clip-path="url(#p3743bad045)" d="M 255.152357 352.8 
L 255.152357 7.2 
" style="fill:none;stroke:#000000;stroke-dasharray:1.000000,3.000000;stroke-dashoffset:0.0;stroke-width:0.5;"/>
     </g>
     <g id="line2d_20">
      <g>
       <use style="stroke:#000000;stroke-width:0.5;" x="255.15235742" xlink:href="#mf88fcad1ca" y="352.8"/>
      </g>
     </g>
     <g id="line2d_21">
      <g>
       <use style="stroke:#000000;stroke-width:0.5;" x="255.15235742" xlink:href="#m173328b82e" y="7.2"/>
      </g>
     </g>
     <g id="text_5">
      <!-- 2 -->
      <g transform="translate(248.78985742 371.996875)scale(0.2 -0.2)">
       <use xlink:href="#BitstreamVeraSans-Roman-32"/>
      </g>
     </g>
    </g>
    <g id="xtick_7">
     <g id="line2d_22">
      <path clip-path="url(#p3743bad045)" d="M 304.764268 352.8 
L 304.764268 7.2 
" style="fill:none;stroke:#000000;stroke-dasharray:1.000000,3.000000;stroke-dashoffset:0.0;stroke-width:0.5;"/>
     </g>
     <g id="line2d_23">
      <g>
       <use style="stroke:#000000;stroke-width:0.5;" x="304.764268065" xlink:href="#mf88fcad1ca" y="352.8"/>
      </g>
     </g>
     <g id="line2d_24">
      <g>
       <use style="stroke:#000000;stroke-width:0.5;" x="304.764268065" xlink:href="#m173328b82e" y="7.2"/>
      </g>
     </g>
     <g id="text_6">
      <!-- 4 -->
      <g transform="translate(298.401768065 371.996875)scale(0.2 -0.2)">
       <use xlink:href="#BitstreamVeraSans-Roman-34"/>
      </g>
     </g>
    </g>
    <g id="xtick_8">
     <g id="line2d_25">
      <path clip-path="url(#p3743bad045)" d="M 354.376179 352.8 
L 354.376179 7.2 
" style="fill:none;stroke:#000000;stroke-dasharray:1.000000,3.000000;stroke-dashoffset:0.0;stroke-width:0.5;"/>
     </g>
     <g id="line2d_26">
      <g>
       <use style="stroke:#000000;stroke-width:0.5;" x="354.37617871" xlink:href="#mf88fcad1ca" y="352.8"/>
      </g>
     </g>
     <g id="line2d_27">
      <g>
       <use style="stroke:#000000;stroke-width:0.5;" x="354.37617871" xlink:href="#m173328b82e" y="7.2"/>
      </g>
     </g>
     <g id="text_7">
      <!-- 6 -->
      <g transform="translate(348.01367871 371.996875)scale(0.2 -0.2)">
       <use xlink:href="#BitstreamVeraSans-Roman-36"/>
      </g>
     </g>
    </g>
    <g id="xtick_9">
     <g id="line2d_28">
      <path clip-path="url(#p3743bad045)" d="M 403.988089 352.8 
L 403.988089 7.2 
" style="fill:none;stroke:#000000;stroke-dasharray:1.000000,3.000000;stroke-dashoffset:0.0;stroke-width:0.5;"/>
     </g>
     <g id="line2d_29">
      <g>
       <use style="stroke:#000000;stroke-width:0.5;" x="403.988089355" xlink:href="#mf88fcad1ca" y="352.8"/>
      </g>
     </g>
     <g id="line2d_30">
      <g>
       <use style="stroke:#000000;stroke-width:0.5;" x="403.988089355" xlink:href="#m173328b82e" y="7.2"/>
      </g>
     </g>
     <g id="text_8">
      <!-- 8 -->
      <defs>
       <path d="M 31.78125 34.625 
Q 24.75 34.625 20.71875 30.859375 
Q 16.703125 27.09375 16.703125 20.515625 
Q 16.703125 13.921875 20.71875 10.15625 
Q 24.75 6.390625 31.78125 6.390625 
Q 38.8125 6.390625 42.859375 10.171875 
Q 46.921875 13.96875 46.921875 20.515625 
Q 46.921875 27.09375 42.890625 30.859375 
Q 38.875 34.625 31.78125 34.625 
M 21.921875 38.8125 
Q 15.578125 40.375 12.03125 44.71875 
Q 8.5 49.078125 8.5 55.328125 
Q 8.5 64.0625 14.71875 69.140625 
Q 20.953125 74.21875 31.78125 74.21875 
Q 42.671875 74.21875 48.875 69.140625 
Q 55.078125 64.0625 55.078125 55.328125 
Q 55.078125 49.078125 51.53125 44.71875 
Q 48 40.375 41.703125 38.8125 
Q 48.828125 37.15625 52.796875 32.3125 
Q 56.78125 27.484375 56.78125 20.515625 
Q 56.78125 9.90625 50.3125 4.234375 
Q 43.84375 -1.421875 31.78125 -1.421875 
Q 19.734375 -1.421875 13.25 4.234375 
Q 6.78125 9.90625 6.78125 20.515625 
Q 6.78125 27.484375 10.78125 32.3125 
Q 14.796875 37.15625 21.921875 38.8125 
M 18.3125 54.390625 
Q 18.3125 48.734375 21.84375 45.5625 
Q 25.390625 42.390625 31.78125 42.390625 
Q 38.140625 42.390625 41.71875 45.5625 
Q 45.3125 48.734375 45.3125 54.390625 
Q 45.3125 60.0625 41.71875 63.234375 
Q 38.140625 66.40625 31.78125 66.40625 
Q 25.390625 66.40625 21.84375 63.234375 
Q 18.3125 60.0625 18.3125 54.390625 
" id="BitstreamVeraSans-Roman-38"/>
      </defs>
      <g transform="translate(397.625589355 371.996875)scale(0.2 -0.2)">
       <use xlink:href="#BitstreamVeraSans-Roman-38"/>
      </g>
     </g>
    </g>
    <g id="xtick_10">
     <g id="line2d_31">
      <path clip-path="url(#p3743bad045)" d="M 453.6 352.8 
L 453.6 7.2 
" style="fill:none;stroke:#000000;stroke-dasharray:1.000000,3.000000;stroke-dashoffset:0.0;stroke-width:0.5;"/>
     </g>
     <g id="line2d_32">
      <g>
       <use style="stroke:#000000;stroke-width:0.5;" x="453.6" xlink:href="#mf88fcad1ca" y="352.8"/>
      </g>
     </g>
     <g id="line2d_33">
      <g>
       <use style="stroke:#000000;stroke-width:0.5;" x="453.6" xlink:href="#m173328b82e" y="7.2"/>
      </g>
     </g>
    </g>
    <g id="xtick_11"/>
    <g id="xtick_12">
     <g id="line2d_34">
      <defs>
       <path d="M 0 0 
L 0 -2 
" id="m4c7277f1e5" style="stroke:#000000;stroke-width:0.5;"/>
      </defs>
      <g>
       <use style="stroke:#000000;stroke-width:0.5;" x="56.70471484" xlink:href="#m4c7277f1e5" y="352.8"/>
      </g>
     </g>
     <g id="line2d_35">
      <defs>
       <path d="M 0 0 
L 0 2 
" id="m511d5af865" style="stroke:#000000;stroke-width:0.5;"/>
      </defs>
      <g>
       <use style="stroke:#000000;stroke-width:0.5;" x="56.70471484" xlink:href="#m511d5af865" y="7.2"/>
      </g>
     </g>
    </g>
    <g id="xtick_13">
     <g id="line2d_36">
      <g>
       <use style="stroke:#000000;stroke-width:0.5;" x="106.316625485" xlink:href="#m4c7277f1e5" y="352.8"/>
      </g>
     </g>
     <g id="line2d_37">
      <g>
       <use style="stroke:#000000;stroke-width:0.5;" x="106.316625485" xlink:href="#m511d5af865" y="7.2"/>
      </g>
     </g>
    </g>
    <g id="xtick_14">
     <g id="line2d_38">
      <g>
       <use style="stroke:#000000;stroke-width:0.5;" x="155.92853613" xlink:href="#m4c7277f1e5" y="352.8"/>
      </g>
     </g>
     <g id="line2d_39">
      <g>
       <use style="stroke:#000000;stroke-width:0.5;" x="155.92853613" xlink:href="#m511d5af865" y="7.2"/>
      </g>
     </g>
    </g>
    <g id="xtick_15">
     <g id="line2d_40">
      <g>
       <use style="stroke:#000000;stroke-width:0.5;" x="205.540446775" xlink:href="#m4c7277f1e5" y="352.8"/>
      </g>
     </g>
     <g id="line2d_41">
      <g>
       <use style="stroke:#000000;stroke-width:0.5;" x="205.540446775" xlink:href="#m511d5af865" y="7.2"/>
      </g>
     </g>
    </g>
    <g id="xtick_16">
     <g id="line2d_42">
      <g>
       <use style="stroke:#000000;stroke-width:0.5;" x="255.15235742" xlink:href="#m4c7277f1e5" y="352.8"/>
      </g>
     </g>
     <g id="line2d_43">
      <g>
       <use style="stroke:#000000;stroke-width:0.5;" x="255.15235742" xlink:href="#m511d5af865" y="7.2"/>
      </g>
     </g>
    </g>
    <g id="xtick_17">
     <g id="line2d_44">
      <g>
       <use style="stroke:#000000;stroke-width:0.5;" x="304.764268065" xlink:href="#m4c7277f1e5" y="352.8"/>
      </g>
     </g>
     <g id="line2d_45">
      <g>
       <use style="stroke:#000000;stroke-width:0.5;" x="304.764268065" xlink:href="#m511d5af865" y="7.2"/>
      </g>
     </g>
    </g>
    <g id="xtick_18">
     <g id="line2d_46">
      <g>
       <use style="stroke:#000000;stroke-width:0.5;" x="354.37617871" xlink:href="#m4c7277f1e5" y="352.8"/>
      </g>
     </g>
     <g id="line2d_47">
      <g>
       <use style="stroke:#000000;stroke-width:0.5;" x="354.37617871" xlink:href="#m511d5af865" y="7.2"/>
      </g>
     </g>
    </g>
    <g id="xtick_19">
     <g id="line2d_48">
      <g>
       <use style="stroke:#000000;stroke-width:0.5;" x="403.988089355" xlink:href="#m4c7277f1e5" y="352.8"/>
      </g>
     </g>
     <g id="line2d_49">
      <g>
       <use style="stroke:#000000;stroke-width:0.5;" x="403.988089355" xlink:href="#m511d5af865" y="7.2"/>
      </g>
     </g>
    </g>
    <g id="xtick_20">
     <g id="line2d_50">
      <g>
       <use style="stroke:#000000;stroke-width:0.5;" x="453.6" xlink:href="#m4c7277f1e5" y="352.8"/>
      </g>
     </g>
     <g id="line2d_51">
      <g>
       <use style="stroke:#000000;stroke-width:0.5;" x="453.6" xlink:href="#m511d5af865" y="7.2"/>
      </g>
     </g>
    </g>
    <g id="text_9">
     <!-- log10 of Df -->
     <defs>
      <path id="BitstreamVeraSans-Roman-20"/>
      <path d="M 12.40625 8.296875 
L 28.515625 8.296875 
L 28.515625 63.921875 
L 10.984375 60.40625 
L 10.984375 69.390625 
L 28.421875 72.90625 
L 38.28125 72.90625 
L 38.28125 8.296875 
L 54.390625 8.296875 
L 54.390625 0 
L 12.40625 0 
z
" id="BitstreamVeraSans-Roman-31"/>
      <path d="M 30.609375 48.390625 
Q 23.390625 48.390625 19.1875 42.75 
Q 14.984375 37.109375 14.984375 27.296875 
Q 14.984375 17.484375 19.15625 11.84375 
Q 23.34375 6.203125 30.609375 6.203125 
Q 37.796875 6.203125 41.984375 11.859375 
Q 46.1875 17.53125 46.1875 27.296875 
Q 46.1875 37.015625 41.984375 42.703125 
Q 37.796875 48.390625 30.609375 48.390625 
M 30.609375 56 
Q 42.328125 56 49.015625 48.375 
Q 55.71875 40.765625 55.71875 27.296875 
Q 55.71875 13.875 49.015625 6.21875 
Q 42.328125 -1.421875 30.609375 -1.421875 
Q 18.84375 -1.421875 12.171875 6.21875 
Q 5.515625 13.875 5.515625 27.296875 
Q 5.515625 40.765625 12.171875 48.375 
Q 18.84375 56 30.609375 56 
" id="BitstreamVeraSans-Roman-6f"/>
      <path d="M 9.421875 75.984375 
L 18.40625 75.984375 
L 18.40625 0 
L 9.421875 0 
z
" id="BitstreamVeraSans-Roman-6c"/>
      <path d="M 19.671875 64.796875 
L 19.671875 8.109375 
L 31.59375 8.109375 
Q 46.6875 8.109375 53.6875 14.9375 
Q 60.6875 21.78125 60.6875 36.53125 
Q 60.6875 51.171875 53.6875 57.984375 
Q 46.6875 64.796875 31.59375 64.796875 
z
M 9.8125 72.90625 
L 30.078125 72.90625 
Q 51.265625 72.90625 61.171875 64.09375 
Q 71.09375 55.28125 71.09375 36.53125 
Q 71.09375 17.671875 61.125 8.828125 
Q 51.171875 0 30.078125 0 
L 9.8125 0 
z
" id="BitstreamVeraSans-Roman-44"/>
      <path d="M 45.40625 27.984375 
Q 45.40625 37.75 41.375 43.109375 
Q 37.359375 48.484375 30.078125 48.484375 
Q 22.859375 48.484375 18.828125 43.109375 
Q 14.796875 37.75 14.796875 27.984375 
Q 14.796875 18.265625 18.828125 12.890625 
Q 22.859375 7.515625 30.078125 7.515625 
Q 37.359375 7.515625 41.375 12.890625 
Q 45.40625 18.265625 45.40625 27.984375 
M 54.390625 6.78125 
Q 54.390625 -7.171875 48.1875 -13.984375 
Q 42 -20.796875 29.203125 -20.796875 
Q 24.46875 -20.796875 20.265625 -20.09375 
Q 16.0625 -19.390625 12.109375 -17.921875 
L 12.109375 -9.1875 
Q 16.0625 -11.328125 19.921875 -12.34375 
Q 23.78125 -13.375 27.78125 -13.375 
Q 36.625 -13.375 41.015625 -8.765625 
Q 45.40625 -4.15625 45.40625 5.171875 
L 45.40625 9.625 
Q 42.625 4.78125 38.28125 2.390625 
Q 33.9375 0 27.875 0 
Q 17.828125 0 11.671875 7.65625 
Q 5.515625 15.328125 5.515625 27.984375 
Q 5.515625 40.671875 11.671875 48.328125 
Q 17.828125 56 27.875 56 
Q 33.9375 56 38.28125 53.609375 
Q 42.625 51.21875 45.40625 46.390625 
L 45.40625 54.6875 
L 54.390625 54.6875 
z
" id="BitstreamVeraSans-Roman-67"/>
      <path d="M 37.109375 75.984375 
L 37.109375 68.5 
L 28.515625 68.5 
Q 23.6875 68.5 21.796875 66.546875 
Q 19.921875 64.59375 19.921875 59.515625 
L 19.921875 54.6875 
L 34.71875 54.6875 
L 34.71875 47.703125 
L 19.921875 47.703125 
L 19.921875 0 
L 10.890625 0 
L 10.890625 47.703125 
L 2.296875 47.703125 
L 2.296875 54.6875 
L 10.890625 54.6875 
L 10.890625 58.5 
Q 10.890625 67.625 15.140625 71.796875 
Q 19.390625 75.984375 28.609375 75.984375 
z
" id="BitstreamVeraSans-Roman-66"/>
     </defs>
     <g transform="translate(175.2140625 396.353125)scale(0.2 -0.2)">
      <use xlink:href="#BitstreamVeraSans-Roman-6c"/>
      <use x="27.783203125" xlink:href="#BitstreamVeraSans-Roman-6f"/>
      <use x="88.96484375" xlink:href="#BitstreamVeraSans-Roman-67"/>
      <use x="152.44140625" xlink:href="#BitstreamVeraSans-Roman-31"/>
      <use x="216.064453125" xlink:href="#BitstreamVeraSans-Roman-30"/>
      <use x="279.6875" xlink:href="#BitstreamVeraSans-Roman-20"/>
      <use x="311.474609375" xlink:href="#BitstreamVeraSans-Roman-6f"/>
      <use x="372.65625" xlink:href="#BitstreamVeraSans-Roman-66"/>
      <use x="407.861328125" xlink:href="#BitstreamVeraSans-Roman-20"/>
      <use x="439.6484375" xlink:href="#BitstreamVeraSans-Roman-44"/>
      <use x="516.650390625" xlink:href="#BitstreamVeraSans-Roman-66"/>
     </g>
    </g>
   </g>
   <g id="matplotlib.axis_2">
    <g id="ytick_1">
     <g id="line2d_52">
      <path clip-path="url(#p3743bad045)" d="M 7.2 352.8 
L 453.6 352.8 
" style="fill:none;stroke:#000000;stroke-dasharray:1.000000,3.000000;stroke-dashoffset:0.0;stroke-width:0.5;"/>
     </g>
     <g id="line2d_53">
      <defs>
       <path d="M 0 0 
L 4 0 
" id="mfe98c75c3e" style="stroke:#000000;stroke-width:0.5;"/>
      </defs>
      <g>
       <use style="stroke:#000000;stroke-width:0.5;" x="7.2" xlink:href="#mfe98c75c3e" y="352.8"/>
      </g>
     </g>
     <g id="line2d_54">
      <defs>
       <path d="M 0 0 
L -4 0 
" id="m298b98ebc0" style="stroke:#000000;stroke-width:0.5;"/>
      </defs>
      <g>
       <use style="stroke:#000000;stroke-width:0.5;" x="453.6" xlink:href="#m298b98ebc0" y="352.8"/>
      </g>
     </g>
    </g>
    <g id="ytick_2">
     <g id="line2d_55">
      <path clip-path="url(#p3743bad045)" d="M 7.2 284.364356 
L 453.6 284.364356 
" style="fill:none;stroke:#000000;stroke-dasharray:1.000000,3.000000;stroke-dashoffset:0.0;stroke-width:0.5;"/>
     </g>
     <g id="line2d_56">
      <g>
       <use style="stroke:#000000;stroke-width:0.5;" x="7.2" xlink:href="#mfe98c75c3e" y="284.364356436"/>
      </g>
     </g>
     <g id="line2d_57">
      <g>
       <use style="stroke:#000000;stroke-width:0.5;" x="453.6" xlink:href="#m298b98ebc0" y="284.364356436"/>
      </g>
     </g>
    </g>
    <g id="ytick_3">
     <g id="line2d_58">
      <path clip-path="url(#p3743bad045)" d="M 7.2 215.928713 
L 453.6 215.928713 
" style="fill:none;stroke:#000000;stroke-dasharray:1.000000,3.000000;stroke-dashoffset:0.0;stroke-width:0.5;"/>
     </g>
     <g id="line2d_59">
      <g>
       <use style="stroke:#000000;stroke-width:0.5;" x="7.2" xlink:href="#mfe98c75c3e" y="215.928712871"/>
      </g>
     </g>
     <g id="line2d_60">
      <g>
       <use style="stroke:#000000;stroke-width:0.5;" x="453.6" xlink:href="#m298b98ebc0" y="215.928712871"/>
      </g>
     </g>
    </g>
    <g id="ytick_4">
     <g id="line2d_61">
      <path clip-path="url(#p3743bad045)" d="M 7.2 147.493069 
L 453.6 147.493069 
" style="fill:none;stroke:#000000;stroke-dasharray:1.000000,3.000000;stroke-dashoffset:0.0;stroke-width:0.5;"/>
     </g>
     <g id="line2d_62">
      <g>
       <use style="stroke:#000000;stroke-width:0.5;" x="7.2" xlink:href="#mfe98c75c3e" y="147.493069307"/>
      </g>
     </g>
     <g id="line2d_63">
      <g>
       <use style="stroke:#000000;stroke-width:0.5;" x="453.6" xlink:href="#m298b98ebc0" y="147.493069307"/>
      </g>
     </g>
    </g>
    <g id="ytick_5">
     <g id="line2d_64">
      <path clip-path="url(#p3743bad045)" d="M 7.2 79.057426 
L 453.6 79.057426 
" style="fill:none;stroke:#000000;stroke-dasharray:1.000000,3.000000;stroke-dashoffset:0.0;stroke-width:0.5;"/>
     </g>
     <g id="line2d_65">
      <g>
       <use style="stroke:#000000;stroke-width:0.5;" x="7.2" xlink:href="#mfe98c75c3e" y="79.0574257426"/>
      </g>
     </g>
     <g id="line2d_66">
      <g>
       <use style="stroke:#000000;stroke-width:0.5;" x="453.6" xlink:href="#m298b98ebc0" y="79.0574257426"/>
      </g>
     </g>
    </g>
    <g id="ytick_6">
     <g id="line2d_67">
      <path clip-path="url(#p3743bad045)" d="M 7.2 10.621782 
L 453.6 10.621782 
" style="fill:none;stroke:#000000;stroke-dasharray:1.000000,3.000000;stroke-dashoffset:0.0;stroke-width:0.5;"/>
     </g>
     <g id="line2d_68">
      <g>
       <use style="stroke:#000000;stroke-width:0.5;" x="7.2" xlink:href="#mfe98c75c3e" y="10.6217821782"/>
      </g>
     </g>
     <g id="line2d_69">
      <g>
       <use style="stroke:#000000;stroke-width:0.5;" x="453.6" xlink:href="#m298b98ebc0" y="10.6217821782"/>
      </g>
     </g>
    </g>
   </g>
   <g id="text_10">
    <!-- {f6-f9}, 5-D -->
    <defs>
     <path d="M 12.5 -9.28125 
L 15.921875 -9.28125 
Q 22.75 -9.28125 24.828125 -7.171875 
Q 26.90625 -5.078125 26.90625 1.90625 
L 26.90625 14.015625 
Q 26.90625 21.625 29.09375 25.09375 
Q 31.296875 28.5625 36.71875 29.890625 
Q 31.296875 31.109375 29.09375 34.5625 
Q 26.90625 38.03125 26.90625 45.703125 
L 26.90625 57.8125 
Q 26.90625 64.75 24.828125 66.875 
Q 22.75 69 15.921875 69 
L 12.5 69 
L 12.5 75.984375 
L 15.578125 75.984375 
Q 27.734375 75.984375 31.8125 72.390625 
Q 35.890625 68.796875 35.890625 58.015625 
L 35.890625 46.296875 
Q 35.890625 39.015625 38.515625 36.203125 
Q 41.15625 33.40625 48.09375 33.40625 
L 51.125 33.40625 
L 51.125 26.421875 
L 48.09375 26.421875 
Q 41.15625 26.421875 38.515625 23.578125 
Q 35.890625 20.75 35.890625 13.375 
L 35.890625 1.703125 
Q 35.890625 -9.078125 31.8125 -12.6875 
Q 27.734375 -16.3125 15.578125 -16.3125 
L 12.5 -16.3125 
z
" id="BitstreamVeraSans-Roman-7d"/>
     <path d="M 10.984375 1.515625 
L 10.984375 10.5 
Q 14.703125 8.734375 18.5 7.8125 
Q 22.3125 6.890625 25.984375 6.890625 
Q 35.75 6.890625 40.890625 13.453125 
Q 46.046875 20.015625 46.78125 33.40625 
Q 43.953125 29.203125 39.59375 26.953125 
Q 35.25 24.703125 29.984375 24.703125 
Q 19.046875 24.703125 12.671875 31.3125 
Q 6.296875 37.9375 6.296875 49.421875 
Q 6.296875 60.640625 12.9375 67.421875 
Q 19.578125 74.21875 30.609375 74.21875 
Q 43.265625 74.21875 49.921875 64.515625 
Q 56.59375 54.828125 56.59375 36.375 
Q 56.59375 19.140625 48.40625 8.859375 
Q 40.234375 -1.421875 26.421875 -1.421875 
Q 22.703125 -1.421875 18.890625 -0.6875 
Q 15.09375 0.046875 10.984375 1.515625 
M 30.609375 32.421875 
Q 37.25 32.421875 41.125 36.953125 
Q 45.015625 41.5 45.015625 49.421875 
Q 45.015625 57.28125 41.125 61.84375 
Q 37.25 66.40625 30.609375 66.40625 
Q 23.96875 66.40625 20.09375 61.84375 
Q 16.21875 57.28125 16.21875 49.421875 
Q 16.21875 41.5 20.09375 36.953125 
Q 23.96875 32.421875 30.609375 32.421875 
" id="BitstreamVeraSans-Roman-39"/>
     <path d="M 51.125 -9.28125 
L 51.125 -16.3125 
L 48.09375 -16.3125 
Q 35.9375 -16.3125 31.8125 -12.6875 
Q 27.6875 -9.078125 27.6875 1.703125 
L 27.6875 13.375 
Q 27.6875 20.75 25.046875 23.578125 
Q 22.40625 26.421875 15.484375 26.421875 
L 12.5 26.421875 
L 12.5 33.40625 
L 15.484375 33.40625 
Q 22.46875 33.40625 25.078125 36.203125 
Q 27.6875 39.015625 27.6875 46.296875 
L 27.6875 58.015625 
Q 27.6875 68.796875 31.8125 72.390625 
Q 35.9375 75.984375 48.09375 75.984375 
L 51.125 75.984375 
L 51.125 69 
L 47.796875 69 
Q 40.921875 69 38.8125 66.84375 
Q 36.71875 64.703125 36.71875 57.8125 
L 36.71875 45.703125 
Q 36.71875 38.03125 34.5 34.5625 
Q 32.28125 31.109375 26.90625 29.890625 
Q 32.328125 28.5625 34.515625 25.09375 
Q 36.71875 21.625 36.71875 14.015625 
L 36.71875 1.90625 
Q 36.71875 -4.984375 38.8125 -7.125 
Q 40.921875 -9.28125 47.796875 -9.28125 
z
" id="BitstreamVeraSans-Roman-7b"/>
     <path d="M 11.71875 12.40625 
L 22.015625 12.40625 
L 22.015625 4 
L 14.015625 -11.625 
L 7.71875 -11.625 
L 11.71875 4 
z
" id="BitstreamVeraSans-Roman-2c"/>
     <path d="M 10.796875 72.90625 
L 49.515625 72.90625 
L 49.515625 64.59375 
L 19.828125 64.59375 
L 19.828125 46.734375 
Q 21.96875 47.46875 24.109375 47.828125 
Q 26.265625 48.1875 28.421875 48.1875 
Q 40.625 48.1875 47.75 41.5 
Q 54.890625 34.8125 54.890625 23.390625 
Q 54.890625 11.625 47.5625 5.09375 
Q 40.234375 -1.421875 26.90625 -1.421875 
Q 22.3125 -1.421875 17.546875 -0.640625 
Q 12.796875 0.140625 7.71875 1.703125 
L 7.71875 11.625 
Q 12.109375 9.234375 16.796875 8.0625 
Q 21.484375 6.890625 26.703125 6.890625 
Q 35.15625 6.890625 40.078125 11.328125 
Q 45.015625 15.765625 45.015625 23.390625 
Q 45.015625 31 40.078125 35.4375 
Q 35.15625 39.890625 26.703125 39.890625 
Q 22.75 39.890625 18.8125 39.015625 
Q 14.890625 38.140625 10.796875 36.28125 
z
" id="BitstreamVeraSans-Roman-35"/>
    </defs>
    <g transform="translate(324.422 345.888)scale(0.2 -0.2)">
     <use xlink:href="#BitstreamVeraSans-Roman-7b"/>
     <use x="63.623046875" xlink:href="#BitstreamVeraSans-Roman-66"/>
     <use x="98.828125" xlink:href="#BitstreamVeraSans-Roman-36"/>
     <use x="162.451171875" xlink:href="#BitstreamVeraSans-Roman-2d"/>
     <use x="198.53515625" xlink:href="#BitstreamVeraSans-Roman-66"/>
     <use x="233.740234375" xlink:href="#BitstreamVeraSans-Roman-39"/>
     <use x="297.36328125" xlink:href="#BitstreamVeraSans-Roman-7d"/>
     <use x="360.986328125" xlink:href="#BitstreamVeraSans-Roman-2c"/>
     <use x="392.7734375" xlink:href="#BitstreamVeraSans-Roman-20"/>
     <use x="424.560546875" xlink:href="#BitstreamVeraSans-Roman-35"/>
     <use x="488.18359375" xlink:href="#BitstreamVeraSans-Roman-2d"/>
     <use x="524.267578125" xlink:href="#BitstreamVeraSans-Roman-44"/>
    </g>
   </g>
   <g id="text_11">
    <!-- 0.0.0 -->
    <defs>
     <path d="M 10.6875 12.40625 
L 21 12.40625 
L 21 0 
L 10.6875 0 
z
" id="BitstreamVeraSans-Roman-2e"/>
    </defs>
    <g style="fill:#808080;" transform="translate(217.678125 347.2643125)scale(0.1 -0.1)">
     <use xlink:href="#BitstreamVeraSans-Roman-30"/>
     <use x="63.623046875" xlink:href="#BitstreamVeraSans-Roman-2e"/>
     <use x="95.41015625" xlink:href="#BitstreamVeraSans-Roman-30"/>
     <use x="159.033203125" xlink:href="#BitstreamVeraSans-Roman-2e"/>
     <use x="190.8203125" xlink:href="#BitstreamVeraSans-Roman-30"/>
    </g>
   </g>
  </g>
 </g>
 <defs>
  <clipPath id="p3743bad045">
   <rect height="345.6" width="446.4" x="7.2" y="7.2"/>
  </clipPath>
 </defs>
</svg>
