<?xml version="1.0" encoding="utf-8" standalone="no"?>
<!DOCTYPE svg PUBLIC "-//W3C//DTD SVG 1.1//EN"
  "http://www.w3.org/Graphics/SVG/1.1/DTD/svg11.dtd">
<!-- Created with matplotlib (http://matplotlib.org/) -->
<svg height="407pt" version="1.1" viewBox="0 0 460 407" width="460pt" xmlns="http://www.w3.org/2000/svg" xmlns:xlink="http://www.w3.org/1999/xlink">
 <defs>
  <style type="text/css">
*{stroke-linecap:butt;stroke-linejoin:round;stroke-miterlimit:100000;}
  </style>
 </defs>
 <g id="figure_1">
  <g id="patch_1">
   <path d="M 0 407.7125 
L 460.8 407.7125 
L 460.8 0 
L 0 0 
z
" style="fill:#ffffff;"/>
  </g>
  <g id="axes_1">
   <g id="patch_2">
    <path d="M 7.2 352.8 
L 453.6 352.8 
L 453.6 7.2 
L 7.2 7.2 
z
" style="fill:#ffffff;"/>
   </g>
   <g id="line2d_1">
    <path clip-path="url(#pc32fcb289c)" d="M -1 334.550495 
L 129.223092 334.550495 
L 129.223092 329.988119 
L 145.041584 329.988119 
L 145.041584 325.425743 
L 162.286335 325.425743 
L 162.286335 320.863366 
L 196.554965 320.863366 
L 196.554965 316.30099 
L 197.862385 316.30099 
L 197.862385 311.738614 
L 201.244638 311.738614 
L 201.244638 307.176238 
L 203.76767 307.176238 
L 203.76767 302.613861 
L 204.248347 302.613861 
L 204.248347 298.051485 
L 204.758606 298.051485 
L 204.758606 293.489109 
L 205.949583 293.489109 
L 205.949583 288.926733 
L 206.51184 288.926733 
L 206.547416 279.80198 
L 207.284378 279.80198 
L 207.394396 270.677228 
L 207.903424 270.677228 
L 207.903424 266.114851 
L 208.262286 266.114851 
L 208.262286 261.552475 
L 208.857672 261.552475 
L 208.857672 256.990099 
L 209.774031 256.990099 
L 209.774031 252.427723 
L 210.130192 252.427723 
L 210.130192 247.865347 
L 210.243634 247.865347 
L 210.351852 234.178218 
L 210.57098 234.178218 
L 210.57098 229.615842 
L 210.884805 229.615842 
L 210.990136 220.491089 
L 211.221521 220.491089 
L 211.221521 215.928713 
L 211.358994 215.928713 
L 211.358994 211.366337 
L 211.750902 211.366337 
L 211.750902 206.80396 
L 211.865236 206.80396 
L 211.865236 202.241584 
L 212.158367 202.241584 
L 212.158367 197.679208 
L 212.413386 197.679208 
L 212.413386 193.116832 
L 212.762614 193.116832 
L 212.762764 183.992079 
L 212.963989 183.992079 
L 212.963989 179.429703 
L 213.651157 179.429703 
L 213.651157 174.867327 
L 213.957349 174.867327 
L 213.957349 170.30495 
L 214.304428 170.30495 
L 214.304428 165.742574 
L 214.432538 165.742574 
L 214.432538 161.180198 
L 214.908139 161.180198 
L 214.908139 156.617822 
L 215.79502 156.617822 
L 215.816656 142.930693 
L 216.547604 142.930693 
L 216.547604 138.368317 
L 217.41266 138.368317 
L 217.41266 133.805941 
L 222.243885 133.805941 
L 222.243885 129.243564 
L 223.0134 129.243564 
L 223.0134 120.118812 
L 223.430928 120.118812 
L 223.43093 110.994059 
L 226.079504 110.994059 
L 226.079504 106.431683 
L 226.254698 106.431683 
L 226.254698 101.869307 
L 226.914045 101.869307 
L 226.981875 88.182178 
L 228.291775 88.182178 
L 228.291775 83.619802 
L 228.615856 83.619802 
L 228.615856 79.057426 
L 228.898927 79.057426 
L 228.898927 74.49505 
L 229.826991 74.49505 
L 229.826991 69.932673 
L 229.985012 69.932673 
L 229.985012 65.370297 
L 231.054588 65.370297 
L 231.061195 56.245545 
L 231.495517 56.245545 
L 231.495517 51.683168 
L 232.871271 51.683168 
L 232.958024 42.558416 
L 233.850087 42.558416 
L 233.918005 28.871287 
L 234.755005 28.871287 
L 234.845492 19.746535 
L 235.031384 19.746535 
L 235.031384 15.184158 
L 236.086189 15.184158 
L 236.086189 10.621782 
L 236.086189 10.621782 
L 453.6 10.621782 
L 453.6 10.621782 
" style="fill:none;stroke:#ff0000;stroke-linecap:square;stroke-width:3.0;"/>
   </g>
   <g id="line2d_2">
    <path clip-path="url(#pc32fcb289c)" d="M 227.005548 352.8 
L 227.005548 348.237624 
L 229.701274 348.237624 
L 229.701274 343.675248 
L 230.115408 343.675248 
L 230.115408 339.112871 
L 232.456125 339.112871 
L 232.456125 334.550495 
L 232.705479 334.550495 
L 232.705479 329.988119 
L 233.879781 329.988119 
L 233.879781 325.425743 
L 235.076001 325.425743 
L 235.076001 320.863366 
L 235.771496 320.863366 
L 235.771496 316.30099 
L 236.438918 316.30099 
L 236.438918 311.738614 
L 238.582666 311.738614 
L 238.582666 307.176238 
L 239.021489 307.176238 
L 239.021489 302.613861 
L 243.314456 302.613861 
L 243.347387 293.489109 
L 244.62866 293.489109 
L 244.62866 288.926733 
L 248.000676 288.926733 
L 248.080556 279.80198 
L 248.157967 279.80198 
L 248.241382 270.677228 
L 248.378113 270.677228 
L 248.378113 266.114851 
L 248.518057 266.114851 
L 248.518057 261.552475 
L 249.772538 261.552475 
L 249.772538 256.990099 
L 249.907618 256.990099 
L 249.907618 252.427723 
L 250.550876 252.427723 
L 250.628142 243.30297 
L 251.19491 243.30297 
L 251.26524 229.615842 
L 251.37653 229.615842 
L 251.421074 215.928713 
L 251.961161 215.928713 
L 251.961161 211.366337 
L 252.115432 211.366337 
L 252.11658 202.241584 
L 252.351105 202.241584 
L 252.351105 197.679208 
L 252.632817 197.679208 
L 252.671995 188.554455 
L 253.110073 188.554455 
L 253.110073 183.992079 
L 253.286456 183.992079 
L 253.286456 179.429703 
L 253.533561 179.429703 
L 253.600874 170.30495 
L 253.765406 170.30495 
L 253.859756 156.617822 
L 254.111852 156.617822 
L 254.111852 152.055446 
L 254.533016 152.055446 
L 254.533016 147.493069 
L 254.688242 147.493069 
L 254.688242 142.930693 
L 255.271688 142.930693 
L 255.271688 138.368317 
L 255.793924 138.368317 
L 255.793924 133.805941 
L 259.607891 133.805941 
L 259.607891 129.243564 
L 262.029324 129.243564 
L 262.029324 124.681188 
L 262.42473 124.681188 
L 262.42473 120.118812 
L 292.775858 120.118812 
L 292.775858 115.556436 
L 295.941454 115.556436 
L 295.941454 110.994059 
L 296.339947 110.994059 
L 296.339947 106.431683 
L 304.426274 106.431683 
L 304.426274 101.869307 
L 313.625858 101.869307 
L 313.625858 97.306931 
L 315.337771 97.306931 
L 315.337771 92.744554 
L 315.807695 92.744554 
L 315.807695 88.182178 
L 316.232967 88.182178 
L 316.232967 83.619802 
L 317.042694 83.619802 
L 317.042694 79.057426 
L 318.062985 79.057426 
L 318.062985 74.49505 
L 318.242875 74.49505 
L 318.242875 69.932673 
L 319.079596 69.932673 
L 319.079596 65.370297 
L 320.105592 65.370297 
L 320.105592 60.807921 
L 321.008753 60.807921 
L 321.008753 56.245545 
L 324.016456 56.245545 
L 324.016456 51.683168 
L 324.300722 51.683168 
L 324.300722 47.120792 
L 325.309905 47.120792 
L 325.309905 42.558416 
L 333.211621 42.558416 
L 333.211621 37.99604 
L 333.76727 37.99604 
L 333.76727 33.433663 
L 335.478192 33.433663 
L 335.478192 28.871287 
L 337.520254 28.871287 
L 337.520254 24.308911 
L 338.823754 24.308911 
L 338.823754 19.746535 
L 340.726074 19.746535 
L 340.726074 15.184158 
L 350.390173 15.184158 
L 350.390173 10.621782 
L 350.390173 10.621782 
L 453.6 10.621782 
L 453.6 10.621782 
" style="fill:none;stroke:#00bfbf;stroke-linecap:square;"/>
   </g>
   <g id="line2d_3">
    <path clip-path="url(#pc32fcb289c)" d="M 222.60183 352.8 
L 222.60183 348.237624 
L 225.555516 348.237624 
L 225.555516 343.675248 
L 227.005548 343.675248 
L 227.005548 339.112871 
L 229.701274 339.112871 
L 229.701274 334.550495 
L 230.073854 334.550495 
L 230.115408 325.425743 
L 231.168223 325.425743 
L 231.168223 320.863366 
L 231.399812 320.863366 
L 231.399812 316.30099 
L 232.456125 316.30099 
L 232.456125 311.738614 
L 232.705479 311.738614 
L 232.705479 307.176238 
L 233.879781 307.176238 
L 233.879781 302.613861 
L 234.334741 302.613861 
L 234.334741 298.051485 
L 234.476899 298.051485 
L 234.476899 293.489109 
L 236.438918 293.489109 
L 236.438918 288.926733 
L 237.34631 288.926733 
L 237.34631 284.364356 
L 238.452751 284.364356 
L 238.452751 279.80198 
L 239.570995 279.80198 
L 239.570995 275.239604 
L 240.129558 275.239604 
L 240.129558 270.677228 
L 240.672098 270.677228 
L 240.672098 266.114851 
L 242.299108 266.114851 
L 242.299108 261.552475 
L 243.555507 261.552475 
L 243.555507 256.990099 
L 247.01906 256.990099 
L 247.01906 252.427723 
L 248.000676 252.427723 
L 248.080556 243.30297 
L 248.157967 243.30297 
L 248.157967 238.740594 
L 248.378113 238.740594 
L 248.378113 234.178218 
L 249.907618 234.178218 
L 249.907618 229.615842 
L 250.228138 229.615842 
L 250.228138 225.053465 
L 250.437054 225.053465 
L 250.437054 220.491089 
L 250.550876 220.491089 
L 250.620151 206.80396 
L 250.891688 206.80396 
L 250.891688 202.241584 
L 251.057402 202.241584 
L 251.057402 197.679208 
L 251.19491 197.679208 
L 251.26524 188.554455 
L 251.523207 188.554455 
L 251.523207 183.992079 
L 251.768144 183.992079 
L 251.842708 174.867327 
L 251.961161 174.867327 
L 252.037215 165.742574 
L 252.351105 165.742574 
L 252.351105 161.180198 
L 252.570108 161.180198 
L 252.632817 152.055446 
L 252.903516 152.055446 
L 252.903516 147.493069 
L 253.109037 147.493069 
L 253.109037 142.930693 
L 253.286456 142.930693 
L 253.286456 138.368317 
L 254.111852 138.368317 
L 254.111852 133.805941 
L 255.189761 133.805941 
L 255.189761 129.243564 
L 255.402777 129.243564 
L 255.402777 124.681188 
L 255.832788 124.681188 
L 255.832788 120.118812 
L 257.271559 120.118812 
L 257.271559 115.556436 
L 261.366697 115.556436 
L 261.366697 110.994059 
L 262.419519 110.994059 
L 262.419519 106.431683 
L 262.871513 106.431683 
L 262.871513 101.869307 
L 265.166089 101.869307 
L 265.166089 97.306931 
L 281.219512 97.306931 
L 281.219512 92.744554 
L 290.281761 92.744554 
L 290.281761 88.182178 
L 294.248787 88.182178 
L 294.248787 83.619802 
L 295.941454 83.619802 
L 295.941454 79.057426 
L 296.339947 79.057426 
L 296.339947 74.49505 
L 298.894756 74.49505 
L 298.894756 69.932673 
L 304.426274 69.932673 
L 304.426274 65.370297 
L 308.998619 65.370297 
L 309.006977 56.245545 
L 313.268259 56.245545 
L 313.268259 51.683168 
L 313.625858 51.683168 
L 313.625858 47.120792 
L 315.807695 47.120792 
L 315.807695 42.558416 
L 316.232967 42.558416 
L 316.232967 37.99604 
L 318.242875 37.99604 
L 318.242875 33.433663 
L 320.006279 33.433663 
L 320.006279 28.871287 
L 322.671131 28.871287 
L 322.671131 24.308911 
L 331.462026 24.308911 
L 331.462026 19.746535 
L 331.77871 19.746535 
L 331.77871 15.184158 
L 334.668577 15.184158 
L 334.668577 10.621782 
L 334.668577 10.621782 
L 453.6 10.621782 
L 453.6 10.621782 
" style="fill:none;stroke:#bf00bf;stroke-linecap:square;"/>
   </g>
   <g id="line2d_4">
    <path clip-path="url(#pc32fcb289c)" d="M 222.60183 352.8 
L 222.60183 348.237624 
L 223.800038 348.237624 
L 223.850089 339.112871 
L 225.555516 339.112871 
L 225.555516 334.550495 
L 227.005548 334.550495 
L 227.086747 325.425743 
L 228.597922 325.425743 
L 228.597922 320.863366 
L 229.691107 320.863366 
L 229.701274 311.738614 
L 230.115408 311.738614 
L 230.115408 307.176238 
L 231.197914 307.176238 
L 231.281101 298.051485 
L 231.399812 298.051485 
L 231.399812 293.489109 
L 232.600584 293.489109 
L 232.600584 288.926733 
L 234.476899 288.926733 
L 234.476899 284.364356 
L 237.34631 284.364356 
L 237.34631 279.80198 
L 238.452751 279.80198 
L 238.452751 275.239604 
L 239.570995 275.239604 
L 239.570995 270.677228 
L 240.672098 270.677228 
L 240.672098 266.114851 
L 240.810794 266.114851 
L 240.810794 261.552475 
L 243.555507 261.552475 
L 243.555507 256.990099 
L 244.180093 256.990099 
L 244.180093 252.427723 
L 244.594114 252.427723 
L 244.594114 247.865347 
L 244.996791 247.865347 
L 244.996791 243.30297 
L 245.538152 243.30297 
L 245.633159 234.178218 
L 245.815704 234.178218 
L 245.815704 229.615842 
L 246.344471 229.615842 
L 246.344471 225.053465 
L 247.559906 225.053465 
L 247.56213 215.928713 
L 247.867642 215.928713 
L 247.867642 211.366337 
L 248.000676 211.366337 
L 248.000676 206.80396 
L 248.157967 206.80396 
L 248.157967 202.241584 
L 248.366415 202.241584 
L 248.366415 197.679208 
L 249.215873 197.679208 
L 249.242798 188.554455 
L 249.681323 188.554455 
L 249.681323 183.992079 
L 249.848564 183.992079 
L 249.907618 174.867327 
L 250.273197 174.867327 
L 250.273197 170.30495 
L 250.620151 170.30495 
L 250.620151 165.742574 
L 250.891688 165.742574 
L 250.891688 161.180198 
L 251.057402 161.180198 
L 251.057402 156.617822 
L 251.671187 156.617822 
L 251.682896 147.493069 
L 251.961161 147.493069 
L 251.961161 142.930693 
L 252.581117 142.930693 
L 252.581117 138.368317 
L 252.903516 138.368317 
L 252.903516 133.805941 
L 253.513114 133.805941 
L 253.513114 129.243564 
L 254.223667 129.243564 
L 254.223667 124.681188 
L 255.189761 124.681188 
L 255.189761 120.118812 
L 255.316914 120.118812 
L 255.402777 106.431683 
L 255.588328 106.431683 
L 255.588328 101.869307 
L 256.332124 101.869307 
L 256.332124 97.306931 
L 257.735747 97.306931 
L 257.735747 92.744554 
L 262.419519 92.744554 
L 262.419519 88.182178 
L 262.712655 88.182178 
L 262.712655 83.619802 
L 279.229092 83.619802 
L 279.229092 79.057426 
L 280.560389 79.057426 
L 280.560389 74.49505 
L 292.232383 74.49505 
L 292.232383 69.932673 
L 294.248787 69.932673 
L 294.248787 65.370297 
L 302.742992 65.370297 
L 302.742992 60.807921 
L 304.426274 60.807921 
L 304.426274 56.245545 
L 307.993872 56.245545 
L 307.993872 51.683168 
L 308.998619 51.683168 
L 309.006977 42.558416 
L 309.398661 42.558416 
L 309.398661 37.99604 
L 313.625858 37.99604 
L 313.625858 33.433663 
L 315.807695 33.433663 
L 315.807695 28.871287 
L 316.232967 28.871287 
L 316.232967 24.308911 
L 318.242875 24.308911 
L 318.242875 19.746535 
L 319.771623 19.746535 
L 319.771623 15.184158 
L 322.671131 15.184158 
L 322.671131 10.621782 
L 322.671131 10.621782 
L 453.6 10.621782 
L 453.6 10.621782 
" style="fill:none;stroke:#000000;stroke-linecap:square;"/>
   </g>
   <g id="line2d_5">
    <path clip-path="url(#pc32fcb289c)" d="M 219.480472 352.8 
L 219.480472 348.237624 
L 219.87815 348.237624 
L 219.87815 343.675248 
L 220.013977 343.675248 
L 220.013977 339.112871 
L 220.80733 339.112871 
L 220.80733 334.550495 
L 221.832684 334.550495 
L 221.901041 325.425743 
L 222.207187 325.425743 
L 222.207187 320.863366 
L 222.434735 320.863366 
L 222.434735 316.30099 
L 222.60183 316.30099 
L 222.60183 311.738614 
L 223.800038 311.738614 
L 223.850089 302.613861 
L 227.086747 302.613861 
L 227.086747 298.051485 
L 227.319677 298.051485 
L 227.319677 293.489109 
L 228.169213 293.489109 
L 228.169213 288.926733 
L 228.597922 288.926733 
L 228.597922 284.364356 
L 228.854777 284.364356 
L 228.854777 279.80198 
L 229.826991 279.80198 
L 229.826991 275.239604 
L 229.94108 275.239604 
L 229.94108 270.677228 
L 230.299628 270.677228 
L 230.299628 266.114851 
L 231.975267 266.114851 
L 231.975267 261.552475 
L 232.948274 261.552475 
L 232.948274 256.990099 
L 233.144306 256.990099 
L 233.144306 252.427723 
L 233.3878 252.427723 
L 233.3878 247.865347 
L 234.872601 247.865347 
L 234.872601 243.30297 
L 236.329644 243.30297 
L 236.329644 238.740594 
L 237.007723 238.740594 
L 237.007723 234.178218 
L 238.452751 234.178218 
L 238.452751 229.615842 
L 238.845844 229.615842 
L 238.845844 225.053465 
L 239.044519 225.053465 
L 239.063167 215.928713 
L 239.393426 215.928713 
L 239.395734 206.80396 
L 239.836451 206.80396 
L 239.836451 202.241584 
L 240.155598 202.241584 
L 240.155598 197.679208 
L 240.44467 197.679208 
L 240.44467 193.116832 
L 240.572967 193.116832 
L 240.672098 183.992079 
L 241.267665 183.992079 
L 241.267665 179.429703 
L 243.419738 179.429703 
L 243.419738 174.867327 
L 243.555507 174.867327 
L 243.555507 170.30495 
L 244.768882 170.30495 
L 244.768882 165.742574 
L 245.538152 165.742574 
L 245.538152 161.180198 
L 246.344471 161.180198 
L 246.344471 156.617822 
L 247.197655 156.617822 
L 247.197655 152.055446 
L 247.867642 152.055446 
L 247.867642 147.493069 
L 248.140637 147.493069 
L 248.140637 142.930693 
L 248.474467 142.930693 
L 248.474467 138.368317 
L 250.191026 138.368317 
L 250.191026 133.805941 
L 250.407706 133.805941 
L 250.407706 129.243564 
L 250.891688 129.243564 
L 250.891688 124.681188 
L 251.025641 124.681188 
L 251.122383 115.556436 
L 251.281724 115.556436 
L 251.281724 110.994059 
L 251.425789 110.994059 
L 251.425789 106.431683 
L 251.682896 106.431683 
L 251.682896 101.869307 
L 252.630218 101.869307 
L 252.632476 92.744554 
L 253.245561 92.744554 
L 253.245561 88.182178 
L 253.565094 88.182178 
L 253.565094 83.619802 
L 253.897381 83.619802 
L 253.940275 74.49505 
L 254.640655 74.49505 
L 254.640655 69.932673 
L 255.560785 69.932673 
L 255.560785 65.370297 
L 259.601479 65.370297 
L 259.601479 60.807921 
L 272.579133 60.807921 
L 272.579133 56.245545 
L 275.200433 56.245545 
L 275.200433 51.683168 
L 283.240949 51.683168 
L 283.240949 47.120792 
L 288.392698 47.120792 
L 288.392698 42.558416 
L 289.232808 42.558416 
L 289.232808 37.99604 
L 291.158175 37.99604 
L 291.158175 33.433663 
L 292.421604 33.433663 
L 292.421604 28.871287 
L 293.38305 28.871287 
L 293.38305 24.308911 
L 307.89703 24.308911 
L 307.89703 19.746535 
L 308.406568 19.746535 
L 308.507116 10.621782 
L 308.507116 10.621782 
L 453.6 10.621782 
L 453.6 10.621782 
" style="fill:none;stroke:#00bfbf;stroke-linecap:square;"/>
   </g>
   <g id="line2d_6">
    <path clip-path="url(#pc32fcb289c)" d="M 171.884116 352.8 
L 171.884116 348.237624 
L 173.057394 348.237624 
L 173.057394 343.675248 
L 200.083277 343.675248 
L 200.083277 339.112871 
L 202.594479 339.112871 
L 202.594479 334.550495 
L 204.959896 334.550495 
L 204.959896 329.988119 
L 208.136741 329.988119 
L 208.136741 325.425743 
L 210.536566 325.425743 
L 210.536566 320.863366 
L 210.859363 320.863366 
L 210.859363 316.30099 
L 211.141042 316.30099 
L 211.141042 311.738614 
L 211.507541 311.738614 
L 211.507541 307.176238 
L 211.964131 307.176238 
L 211.964131 302.613861 
L 212.413386 302.613861 
L 212.413386 298.051485 
L 212.590033 298.051485 
L 212.656357 284.364356 
L 212.863395 284.364356 
L 212.863395 279.80198 
L 212.986255 279.80198 
L 212.986255 275.239604 
L 213.123711 275.239604 
L 213.16743 266.114851 
L 213.413829 266.114851 
L 213.413829 261.552475 
L 213.573862 261.552475 
L 213.573862 256.990099 
L 214.196891 256.990099 
L 214.208324 243.30297 
L 214.66983 243.30297 
L 214.66983 238.740594 
L 214.830497 238.740594 
L 214.830497 234.178218 
L 215.070544 234.178218 
L 215.070544 229.615842 
L 215.463352 229.615842 
L 215.463352 225.053465 
L 215.814302 225.053465 
L 215.814302 220.491089 
L 216.056179 220.491089 
L 216.056179 215.928713 
L 216.273952 215.928713 
L 216.273952 211.366337 
L 216.597673 211.366337 
L 216.597673 206.80396 
L 217.022449 206.80396 
L 217.022449 202.241584 
L 217.264079 202.241584 
L 217.264079 197.679208 
L 217.531293 197.679208 
L 217.531293 193.116832 
L 218.764157 193.116832 
L 218.764157 188.554455 
L 218.893303 188.554455 
L 218.893303 183.992079 
L 219.26705 183.992079 
L 219.26705 179.429703 
L 219.87815 179.429703 
L 219.87815 174.867327 
L 220.013977 174.867327 
L 220.064376 165.742574 
L 220.157561 165.742574 
L 220.157561 161.180198 
L 220.80733 161.180198 
L 220.80733 156.617822 
L 221.303363 156.617822 
L 221.303363 152.055446 
L 222.210551 152.055446 
L 222.210551 147.493069 
L 222.416265 147.493069 
L 222.486349 138.368317 
L 224.64257 138.368317 
L 224.64257 133.805941 
L 224.972786 133.805941 
L 224.972786 129.243564 
L 226.927386 129.243564 
L 226.983046 120.118812 
L 227.562221 120.118812 
L 227.562221 115.556436 
L 228.676579 115.556436 
L 228.676579 110.994059 
L 229.538979 110.994059 
L 229.538979 106.431683 
L 229.826991 106.431683 
L 229.826991 101.869307 
L 229.977039 101.869307 
L 229.977039 97.306931 
L 232.532551 97.306931 
L 232.532551 92.744554 
L 232.829806 92.744554 
L 232.871271 83.619802 
L 233.499053 83.619802 
L 233.499053 79.057426 
L 234.845492 79.057426 
L 234.845492 74.49505 
L 235.554173 74.49505 
L 235.554173 69.932673 
L 235.698338 69.932673 
L 235.698338 65.370297 
L 236.086189 65.370297 
L 236.086189 60.807921 
L 236.972857 60.807921 
L 236.972857 56.245545 
L 237.400837 56.245545 
L 237.400837 51.683168 
L 237.527218 51.683168 
L 237.527218 47.120792 
L 238.165748 47.120792 
L 238.165748 42.558416 
L 238.431197 42.558416 
L 238.431197 37.99604 
L 238.85013 37.99604 
L 238.85013 33.433663 
L 239.517388 33.433663 
L 239.574438 24.308911 
L 240.649308 24.308911 
L 240.649308 19.746535 
L 241.571086 19.746535 
L 241.571086 15.184158 
L 241.918465 15.184158 
L 241.918465 10.621782 
L 241.918465 10.621782 
L 453.6 10.621782 
L 453.6 10.621782 
" style="fill:none;stroke:#bf00bf;stroke-linecap:square;"/>
   </g>
   <g id="patch_3">
    <path d="M 7.2 7.2 
L 453.6 7.2 
" style="fill:none;stroke:#000000;stroke-linecap:square;stroke-linejoin:miter;"/>
   </g>
   <g id="patch_4">
    <path d="M 453.6 352.8 
L 453.6 7.2 
" style="fill:none;stroke:#000000;stroke-linecap:square;stroke-linejoin:miter;"/>
   </g>
   <g id="patch_5">
    <path d="M 7.2 352.8 
L 453.6 352.8 
" style="fill:none;stroke:#000000;stroke-linecap:square;stroke-linejoin:miter;"/>
   </g>
   <g id="patch_6">
    <path d="M 7.2 352.8 
L 7.2 7.2 
" style="fill:none;stroke:#000000;stroke-linecap:square;stroke-linejoin:miter;"/>
   </g>
   <g id="matplotlib.axis_1">
    <g id="xtick_1"/>
    <g id="xtick_2">
     <g id="line2d_7">
      <path clip-path="url(#pc32fcb289c)" d="M 56.704715 352.8 
L 56.704715 7.2 
" style="fill:none;stroke:#000000;stroke-dasharray:1.000000,3.000000;stroke-dashoffset:0.0;stroke-width:0.5;"/>
     </g>
     <g id="line2d_8">
      <defs>
       <path d="M 0 0 
L 0 -4 
" id="mae99871df5" style="stroke:#000000;stroke-width:0.5;"/>
      </defs>
      <g>
       <use style="stroke:#000000;stroke-width:0.5;" x="56.70471484" xlink:href="#mae99871df5" y="352.8"/>
      </g>
     </g>
     <g id="line2d_9">
      <defs>
       <path d="M 0 0 
L 0 4 
" id="m298421a873" style="stroke:#000000;stroke-width:0.5;"/>
      </defs>
      <g>
       <use style="stroke:#000000;stroke-width:0.5;" x="56.70471484" xlink:href="#m298421a873" y="7.2"/>
      </g>
     </g>
     <g id="text_1">
      <!-- -6 -->
      <defs>
       <path d="M 33.015625 40.375 
Q 26.375 40.375 22.484375 35.828125 
Q 18.609375 31.296875 18.609375 23.390625 
Q 18.609375 15.53125 22.484375 10.953125 
Q 26.375 6.390625 33.015625 6.390625 
Q 39.65625 6.390625 43.53125 10.953125 
Q 47.40625 15.53125 47.40625 23.390625 
Q 47.40625 31.296875 43.53125 35.828125 
Q 39.65625 40.375 33.015625 40.375 
M 52.59375 71.296875 
L 52.59375 62.3125 
Q 48.875 64.0625 45.09375 64.984375 
Q 41.3125 65.921875 37.59375 65.921875 
Q 27.828125 65.921875 22.671875 59.328125 
Q 17.53125 52.734375 16.796875 39.40625 
Q 19.671875 43.65625 24.015625 45.921875 
Q 28.375 48.1875 33.59375 48.1875 
Q 44.578125 48.1875 50.953125 41.515625 
Q 57.328125 34.859375 57.328125 23.390625 
Q 57.328125 12.15625 50.6875 5.359375 
Q 44.046875 -1.421875 33.015625 -1.421875 
Q 20.359375 -1.421875 13.671875 8.265625 
Q 6.984375 17.96875 6.984375 36.375 
Q 6.984375 53.65625 15.1875 63.9375 
Q 23.390625 74.21875 37.203125 74.21875 
Q 40.921875 74.21875 44.703125 73.484375 
Q 48.484375 72.75 52.59375 71.296875 
" id="BitstreamVeraSans-Roman-36"/>
       <path d="M 4.890625 31.390625 
L 31.203125 31.390625 
L 31.203125 23.390625 
L 4.890625 23.390625 
z
" id="BitstreamVeraSans-Roman-2d"/>
      </defs>
      <g transform="translate(46.73440234 371.996875)scale(0.2 -0.2)">
       <use xlink:href="#BitstreamVeraSans-Roman-2d"/>
       <use x="36.083984375" xlink:href="#BitstreamVeraSans-Roman-36"/>
      </g>
     </g>
    </g>
    <g id="xtick_3">
     <g id="line2d_10">
      <path clip-path="url(#pc32fcb289c)" d="M 106.316625 352.8 
L 106.316625 7.2 
" style="fill:none;stroke:#000000;stroke-dasharray:1.000000,3.000000;stroke-dashoffset:0.0;stroke-width:0.5;"/>
     </g>
     <g id="line2d_11">
      <g>
       <use style="stroke:#000000;stroke-width:0.5;" x="106.316625485" xlink:href="#mae99871df5" y="352.8"/>
      </g>
     </g>
     <g id="line2d_12">
      <g>
       <use style="stroke:#000000;stroke-width:0.5;" x="106.316625485" xlink:href="#m298421a873" y="7.2"/>
      </g>
     </g>
     <g id="text_2">
      <!-- -4 -->
      <defs>
       <path d="M 37.796875 64.3125 
L 12.890625 25.390625 
L 37.796875 25.390625 
z
M 35.203125 72.90625 
L 47.609375 72.90625 
L 47.609375 25.390625 
L 58.015625 25.390625 
L 58.015625 17.1875 
L 47.609375 17.1875 
L 47.609375 0 
L 37.796875 0 
L 37.796875 17.1875 
L 4.890625 17.1875 
L 4.890625 26.703125 
z
" id="BitstreamVeraSans-Roman-34"/>
      </defs>
      <g transform="translate(96.346312985 371.996875)scale(0.2 -0.2)">
       <use xlink:href="#BitstreamVeraSans-Roman-2d"/>
       <use x="36.083984375" xlink:href="#BitstreamVeraSans-Roman-34"/>
      </g>
     </g>
    </g>
    <g id="xtick_4">
     <g id="line2d_13">
      <path clip-path="url(#pc32fcb289c)" d="M 155.928536 352.8 
L 155.928536 7.2 
" style="fill:none;stroke:#000000;stroke-dasharray:1.000000,3.000000;stroke-dashoffset:0.0;stroke-width:0.5;"/>
     </g>
     <g id="line2d_14">
      <g>
       <use style="stroke:#000000;stroke-width:0.5;" x="155.92853613" xlink:href="#mae99871df5" y="352.8"/>
      </g>
     </g>
     <g id="line2d_15">
      <g>
       <use style="stroke:#000000;stroke-width:0.5;" x="155.92853613" xlink:href="#m298421a873" y="7.2"/>
      </g>
     </g>
     <g id="text_3">
      <!-- -2 -->
      <defs>
       <path d="M 19.1875 8.296875 
L 53.609375 8.296875 
L 53.609375 0 
L 7.328125 0 
L 7.328125 8.296875 
Q 12.9375 14.109375 22.625 23.890625 
Q 32.328125 33.6875 34.8125 36.53125 
Q 39.546875 41.84375 41.421875 45.53125 
Q 43.3125 49.21875 43.3125 52.78125 
Q 43.3125 58.59375 39.234375 62.25 
Q 35.15625 65.921875 28.609375 65.921875 
Q 23.96875 65.921875 18.8125 64.3125 
Q 13.671875 62.703125 7.8125 59.421875 
L 7.8125 69.390625 
Q 13.765625 71.78125 18.9375 73 
Q 24.125 74.21875 28.421875 74.21875 
Q 39.75 74.21875 46.484375 68.546875 
Q 53.21875 62.890625 53.21875 53.421875 
Q 53.21875 48.921875 51.53125 44.890625 
Q 49.859375 40.875 45.40625 35.40625 
Q 44.1875 33.984375 37.640625 27.21875 
Q 31.109375 20.453125 19.1875 8.296875 
" id="BitstreamVeraSans-Roman-32"/>
      </defs>
      <g transform="translate(145.95822363 371.996875)scale(0.2 -0.2)">
       <use xlink:href="#BitstreamVeraSans-Roman-2d"/>
       <use x="36.083984375" xlink:href="#BitstreamVeraSans-Roman-32"/>
      </g>
     </g>
    </g>
    <g id="xtick_5">
     <g id="line2d_16">
      <path clip-path="url(#pc32fcb289c)" d="M 205.540447 352.8 
L 205.540447 7.2 
" style="fill:none;stroke:#000000;stroke-dasharray:1.000000,3.000000;stroke-dashoffset:0.0;stroke-width:0.5;"/>
     </g>
     <g id="line2d_17">
      <g>
       <use style="stroke:#000000;stroke-width:0.5;" x="205.540446775" xlink:href="#mae99871df5" y="352.8"/>
      </g>
     </g>
     <g id="line2d_18">
      <g>
       <use style="stroke:#000000;stroke-width:0.5;" x="205.540446775" xlink:href="#m298421a873" y="7.2"/>
      </g>
     </g>
     <g id="text_4">
      <!-- 0 -->
      <defs>
       <path d="M 31.78125 66.40625 
Q 24.171875 66.40625 20.328125 58.90625 
Q 16.5 51.421875 16.5 36.375 
Q 16.5 21.390625 20.328125 13.890625 
Q 24.171875 6.390625 31.78125 6.390625 
Q 39.453125 6.390625 43.28125 13.890625 
Q 47.125 21.390625 47.125 36.375 
Q 47.125 51.421875 43.28125 58.90625 
Q 39.453125 66.40625 31.78125 66.40625 
M 31.78125 74.21875 
Q 44.046875 74.21875 50.515625 64.515625 
Q 56.984375 54.828125 56.984375 36.375 
Q 56.984375 17.96875 50.515625 8.265625 
Q 44.046875 -1.421875 31.78125 -1.421875 
Q 19.53125 -1.421875 13.0625 8.265625 
Q 6.59375 17.96875 6.59375 36.375 
Q 6.59375 54.828125 13.0625 64.515625 
Q 19.53125 74.21875 31.78125 74.21875 
" id="BitstreamVeraSans-Roman-30"/>
      </defs>
      <g transform="translate(199.177946775 371.996875)scale(0.2 -0.2)">
       <use xlink:href="#BitstreamVeraSans-Roman-30"/>
      </g>
     </g>
    </g>
    <g id="xtick_6">
     <g id="line2d_19">
      <path clip-path="url(#pc32fcb289c)" d="M 255.152357 352.8 
L 255.152357 7.2 
" style="fill:none;stroke:#000000;stroke-dasharray:1.000000,3.000000;stroke-dashoffset:0.0;stroke-width:0.5;"/>
     </g>
     <g id="line2d_20">
      <g>
       <use style="stroke:#000000;stroke-width:0.5;" x="255.15235742" xlink:href="#mae99871df5" y="352.8"/>
      </g>
     </g>
     <g id="line2d_21">
      <g>
       <use style="stroke:#000000;stroke-width:0.5;" x="255.15235742" xlink:href="#m298421a873" y="7.2"/>
      </g>
     </g>
     <g id="text_5">
      <!-- 2 -->
      <g transform="translate(248.78985742 371.996875)scale(0.2 -0.2)">
       <use xlink:href="#BitstreamVeraSans-Roman-32"/>
      </g>
     </g>
    </g>
    <g id="xtick_7">
     <g id="line2d_22">
      <path clip-path="url(#pc32fcb289c)" d="M 304.764268 352.8 
L 304.764268 7.2 
" style="fill:none;stroke:#000000;stroke-dasharray:1.000000,3.000000;stroke-dashoffset:0.0;stroke-width:0.5;"/>
     </g>
     <g id="line2d_23">
      <g>
       <use style="stroke:#000000;stroke-width:0.5;" x="304.764268065" xlink:href="#mae99871df5" y="352.8"/>
      </g>
     </g>
     <g id="line2d_24">
      <g>
       <use style="stroke:#000000;stroke-width:0.5;" x="304.764268065" xlink:href="#m298421a873" y="7.2"/>
      </g>
     </g>
     <g id="text_6">
      <!-- 4 -->
      <g transform="translate(298.401768065 371.996875)scale(0.2 -0.2)">
       <use xlink:href="#BitstreamVeraSans-Roman-34"/>
      </g>
     </g>
    </g>
    <g id="xtick_8">
     <g id="line2d_25">
      <path clip-path="url(#pc32fcb289c)" d="M 354.376179 352.8 
L 354.376179 7.2 
" style="fill:none;stroke:#000000;stroke-dasharray:1.000000,3.000000;stroke-dashoffset:0.0;stroke-width:0.5;"/>
     </g>
     <g id="line2d_26">
      <g>
       <use style="stroke:#000000;stroke-width:0.5;" x="354.37617871" xlink:href="#mae99871df5" y="352.8"/>
      </g>
     </g>
     <g id="line2d_27">
      <g>
       <use style="stroke:#000000;stroke-width:0.5;" x="354.37617871" xlink:href="#m298421a873" y="7.2"/>
      </g>
     </g>
     <g id="text_7">
      <!-- 6 -->
      <g transform="translate(348.01367871 371.996875)scale(0.2 -0.2)">
       <use xlink:href="#BitstreamVeraSans-Roman-36"/>
      </g>
     </g>
    </g>
    <g id="xtick_9">
     <g id="line2d_28">
      <path clip-path="url(#pc32fcb289c)" d="M 403.988089 352.8 
L 403.988089 7.2 
" style="fill:none;stroke:#000000;stroke-dasharray:1.000000,3.000000;stroke-dashoffset:0.0;stroke-width:0.5;"/>
     </g>
     <g id="line2d_29">
      <g>
       <use style="stroke:#000000;stroke-width:0.5;" x="403.988089355" xlink:href="#mae99871df5" y="352.8"/>
      </g>
     </g>
     <g id="line2d_30">
      <g>
       <use style="stroke:#000000;stroke-width:0.5;" x="403.988089355" xlink:href="#m298421a873" y="7.2"/>
      </g>
     </g>
     <g id="text_8">
      <!-- 8 -->
      <defs>
       <path d="M 31.78125 34.625 
Q 24.75 34.625 20.71875 30.859375 
Q 16.703125 27.09375 16.703125 20.515625 
Q 16.703125 13.921875 20.71875 10.15625 
Q 24.75 6.390625 31.78125 6.390625 
Q 38.8125 6.390625 42.859375 10.171875 
Q 46.921875 13.96875 46.921875 20.515625 
Q 46.921875 27.09375 42.890625 30.859375 
Q 38.875 34.625 31.78125 34.625 
M 21.921875 38.8125 
Q 15.578125 40.375 12.03125 44.71875 
Q 8.5 49.078125 8.5 55.328125 
Q 8.5 64.0625 14.71875 69.140625 
Q 20.953125 74.21875 31.78125 74.21875 
Q 42.671875 74.21875 48.875 69.140625 
Q 55.078125 64.0625 55.078125 55.328125 
Q 55.078125 49.078125 51.53125 44.71875 
Q 48 40.375 41.703125 38.8125 
Q 48.828125 37.15625 52.796875 32.3125 
Q 56.78125 27.484375 56.78125 20.515625 
Q 56.78125 9.90625 50.3125 4.234375 
Q 43.84375 -1.421875 31.78125 -1.421875 
Q 19.734375 -1.421875 13.25 4.234375 
Q 6.78125 9.90625 6.78125 20.515625 
Q 6.78125 27.484375 10.78125 32.3125 
Q 14.796875 37.15625 21.921875 38.8125 
M 18.3125 54.390625 
Q 18.3125 48.734375 21.84375 45.5625 
Q 25.390625 42.390625 31.78125 42.390625 
Q 38.140625 42.390625 41.71875 45.5625 
Q 45.3125 48.734375 45.3125 54.390625 
Q 45.3125 60.0625 41.71875 63.234375 
Q 38.140625 66.40625 31.78125 66.40625 
Q 25.390625 66.40625 21.84375 63.234375 
Q 18.3125 60.0625 18.3125 54.390625 
" id="BitstreamVeraSans-Roman-38"/>
      </defs>
      <g transform="translate(397.625589355 371.996875)scale(0.2 -0.2)">
       <use xlink:href="#BitstreamVeraSans-Roman-38"/>
      </g>
     </g>
    </g>
    <g id="xtick_10">
     <g id="line2d_31">
      <path clip-path="url(#pc32fcb289c)" d="M 453.6 352.8 
L 453.6 7.2 
" style="fill:none;stroke:#000000;stroke-dasharray:1.000000,3.000000;stroke-dashoffset:0.0;stroke-width:0.5;"/>
     </g>
     <g id="line2d_32">
      <g>
       <use style="stroke:#000000;stroke-width:0.5;" x="453.6" xlink:href="#mae99871df5" y="352.8"/>
      </g>
     </g>
     <g id="line2d_33">
      <g>
       <use style="stroke:#000000;stroke-width:0.5;" x="453.6" xlink:href="#m298421a873" y="7.2"/>
      </g>
     </g>
    </g>
    <g id="xtick_11"/>
    <g id="xtick_12">
     <g id="line2d_34">
      <defs>
       <path d="M 0 0 
L 0 -2 
" id="ma23f870387" style="stroke:#000000;stroke-width:0.5;"/>
      </defs>
      <g>
       <use style="stroke:#000000;stroke-width:0.5;" x="56.70471484" xlink:href="#ma23f870387" y="352.8"/>
      </g>
     </g>
     <g id="line2d_35">
      <defs>
       <path d="M 0 0 
L 0 2 
" id="m4f5bea476a" style="stroke:#000000;stroke-width:0.5;"/>
      </defs>
      <g>
       <use style="stroke:#000000;stroke-width:0.5;" x="56.70471484" xlink:href="#m4f5bea476a" y="7.2"/>
      </g>
     </g>
    </g>
    <g id="xtick_13">
     <g id="line2d_36">
      <g>
       <use style="stroke:#000000;stroke-width:0.5;" x="106.316625485" xlink:href="#ma23f870387" y="352.8"/>
      </g>
     </g>
     <g id="line2d_37">
      <g>
       <use style="stroke:#000000;stroke-width:0.5;" x="106.316625485" xlink:href="#m4f5bea476a" y="7.2"/>
      </g>
     </g>
    </g>
    <g id="xtick_14">
     <g id="line2d_38">
      <g>
       <use style="stroke:#000000;stroke-width:0.5;" x="155.92853613" xlink:href="#ma23f870387" y="352.8"/>
      </g>
     </g>
     <g id="line2d_39">
      <g>
       <use style="stroke:#000000;stroke-width:0.5;" x="155.92853613" xlink:href="#m4f5bea476a" y="7.2"/>
      </g>
     </g>
    </g>
    <g id="xtick_15">
     <g id="line2d_40">
      <g>
       <use style="stroke:#000000;stroke-width:0.5;" x="205.540446775" xlink:href="#ma23f870387" y="352.8"/>
      </g>
     </g>
     <g id="line2d_41">
      <g>
       <use style="stroke:#000000;stroke-width:0.5;" x="205.540446775" xlink:href="#m4f5bea476a" y="7.2"/>
      </g>
     </g>
    </g>
    <g id="xtick_16">
     <g id="line2d_42">
      <g>
       <use style="stroke:#000000;stroke-width:0.5;" x="255.15235742" xlink:href="#ma23f870387" y="352.8"/>
      </g>
     </g>
     <g id="line2d_43">
      <g>
       <use style="stroke:#000000;stroke-width:0.5;" x="255.15235742" xlink:href="#m4f5bea476a" y="7.2"/>
      </g>
     </g>
    </g>
    <g id="xtick_17">
     <g id="line2d_44">
      <g>
       <use style="stroke:#000000;stroke-width:0.5;" x="304.764268065" xlink:href="#ma23f870387" y="352.8"/>
      </g>
     </g>
     <g id="line2d_45">
      <g>
       <use style="stroke:#000000;stroke-width:0.5;" x="304.764268065" xlink:href="#m4f5bea476a" y="7.2"/>
      </g>
     </g>
    </g>
    <g id="xtick_18">
     <g id="line2d_46">
      <g>
       <use style="stroke:#000000;stroke-width:0.5;" x="354.37617871" xlink:href="#ma23f870387" y="352.8"/>
      </g>
     </g>
     <g id="line2d_47">
      <g>
       <use style="stroke:#000000;stroke-width:0.5;" x="354.37617871" xlink:href="#m4f5bea476a" y="7.2"/>
      </g>
     </g>
    </g>
    <g id="xtick_19">
     <g id="line2d_48">
      <g>
       <use style="stroke:#000000;stroke-width:0.5;" x="403.988089355" xlink:href="#ma23f870387" y="352.8"/>
      </g>
     </g>
     <g id="line2d_49">
      <g>
       <use style="stroke:#000000;stroke-width:0.5;" x="403.988089355" xlink:href="#m4f5bea476a" y="7.2"/>
      </g>
     </g>
    </g>
    <g id="xtick_20">
     <g id="line2d_50">
      <g>
       <use style="stroke:#000000;stroke-width:0.5;" x="453.6" xlink:href="#ma23f870387" y="352.8"/>
      </g>
     </g>
     <g id="line2d_51">
      <g>
       <use style="stroke:#000000;stroke-width:0.5;" x="453.6" xlink:href="#m4f5bea476a" y="7.2"/>
      </g>
     </g>
    </g>
    <g id="text_9">
     <!-- log10 of Df -->
     <defs>
      <path id="BitstreamVeraSans-Roman-20"/>
      <path d="M 12.40625 8.296875 
L 28.515625 8.296875 
L 28.515625 63.921875 
L 10.984375 60.40625 
L 10.984375 69.390625 
L 28.421875 72.90625 
L 38.28125 72.90625 
L 38.28125 8.296875 
L 54.390625 8.296875 
L 54.390625 0 
L 12.40625 0 
z
" id="BitstreamVeraSans-Roman-31"/>
      <path d="M 30.609375 48.390625 
Q 23.390625 48.390625 19.1875 42.75 
Q 14.984375 37.109375 14.984375 27.296875 
Q 14.984375 17.484375 19.15625 11.84375 
Q 23.34375 6.203125 30.609375 6.203125 
Q 37.796875 6.203125 41.984375 11.859375 
Q 46.1875 17.53125 46.1875 27.296875 
Q 46.1875 37.015625 41.984375 42.703125 
Q 37.796875 48.390625 30.609375 48.390625 
M 30.609375 56 
Q 42.328125 56 49.015625 48.375 
Q 55.71875 40.765625 55.71875 27.296875 
Q 55.71875 13.875 49.015625 6.21875 
Q 42.328125 -1.421875 30.609375 -1.421875 
Q 18.84375 -1.421875 12.171875 6.21875 
Q 5.515625 13.875 5.515625 27.296875 
Q 5.515625 40.765625 12.171875 48.375 
Q 18.84375 56 30.609375 56 
" id="BitstreamVeraSans-Roman-6f"/>
      <path d="M 9.421875 75.984375 
L 18.40625 75.984375 
L 18.40625 0 
L 9.421875 0 
z
" id="BitstreamVeraSans-Roman-6c"/>
      <path d="M 19.671875 64.796875 
L 19.671875 8.109375 
L 31.59375 8.109375 
Q 46.6875 8.109375 53.6875 14.9375 
Q 60.6875 21.78125 60.6875 36.53125 
Q 60.6875 51.171875 53.6875 57.984375 
Q 46.6875 64.796875 31.59375 64.796875 
z
M 9.8125 72.90625 
L 30.078125 72.90625 
Q 51.265625 72.90625 61.171875 64.09375 
Q 71.09375 55.28125 71.09375 36.53125 
Q 71.09375 17.671875 61.125 8.828125 
Q 51.171875 0 30.078125 0 
L 9.8125 0 
z
" id="BitstreamVeraSans-Roman-44"/>
      <path d="M 45.40625 27.984375 
Q 45.40625 37.75 41.375 43.109375 
Q 37.359375 48.484375 30.078125 48.484375 
Q 22.859375 48.484375 18.828125 43.109375 
Q 14.796875 37.75 14.796875 27.984375 
Q 14.796875 18.265625 18.828125 12.890625 
Q 22.859375 7.515625 30.078125 7.515625 
Q 37.359375 7.515625 41.375 12.890625 
Q 45.40625 18.265625 45.40625 27.984375 
M 54.390625 6.78125 
Q 54.390625 -7.171875 48.1875 -13.984375 
Q 42 -20.796875 29.203125 -20.796875 
Q 24.46875 -20.796875 20.265625 -20.09375 
Q 16.0625 -19.390625 12.109375 -17.921875 
L 12.109375 -9.1875 
Q 16.0625 -11.328125 19.921875 -12.34375 
Q 23.78125 -13.375 27.78125 -13.375 
Q 36.625 -13.375 41.015625 -8.765625 
Q 45.40625 -4.15625 45.40625 5.171875 
L 45.40625 9.625 
Q 42.625 4.78125 38.28125 2.390625 
Q 33.9375 0 27.875 0 
Q 17.828125 0 11.671875 7.65625 
Q 5.515625 15.328125 5.515625 27.984375 
Q 5.515625 40.671875 11.671875 48.328125 
Q 17.828125 56 27.875 56 
Q 33.9375 56 38.28125 53.609375 
Q 42.625 51.21875 45.40625 46.390625 
L 45.40625 54.6875 
L 54.390625 54.6875 
z
" id="BitstreamVeraSans-Roman-67"/>
      <path d="M 37.109375 75.984375 
L 37.109375 68.5 
L 28.515625 68.5 
Q 23.6875 68.5 21.796875 66.546875 
Q 19.921875 64.59375 19.921875 59.515625 
L 19.921875 54.6875 
L 34.71875 54.6875 
L 34.71875 47.703125 
L 19.921875 47.703125 
L 19.921875 0 
L 10.890625 0 
L 10.890625 47.703125 
L 2.296875 47.703125 
L 2.296875 54.6875 
L 10.890625 54.6875 
L 10.890625 58.5 
Q 10.890625 67.625 15.140625 71.796875 
Q 19.390625 75.984375 28.609375 75.984375 
z
" id="BitstreamVeraSans-Roman-66"/>
     </defs>
     <g transform="translate(175.2140625 396.353125)scale(0.2 -0.2)">
      <use xlink:href="#BitstreamVeraSans-Roman-6c"/>
      <use x="27.783203125" xlink:href="#BitstreamVeraSans-Roman-6f"/>
      <use x="88.96484375" xlink:href="#BitstreamVeraSans-Roman-67"/>
      <use x="152.44140625" xlink:href="#BitstreamVeraSans-Roman-31"/>
      <use x="216.064453125" xlink:href="#BitstreamVeraSans-Roman-30"/>
      <use x="279.6875" xlink:href="#BitstreamVeraSans-Roman-20"/>
      <use x="311.474609375" xlink:href="#BitstreamVeraSans-Roman-6f"/>
      <use x="372.65625" xlink:href="#BitstreamVeraSans-Roman-66"/>
      <use x="407.861328125" xlink:href="#BitstreamVeraSans-Roman-20"/>
      <use x="439.6484375" xlink:href="#BitstreamVeraSans-Roman-44"/>
      <use x="516.650390625" xlink:href="#BitstreamVeraSans-Roman-66"/>
     </g>
    </g>
   </g>
   <g id="matplotlib.axis_2">
    <g id="ytick_1">
     <g id="line2d_52">
      <path clip-path="url(#pc32fcb289c)" d="M 7.2 352.8 
L 453.6 352.8 
" style="fill:none;stroke:#000000;stroke-dasharray:1.000000,3.000000;stroke-dashoffset:0.0;stroke-width:0.5;"/>
     </g>
     <g id="line2d_53">
      <defs>
       <path d="M 0 0 
L 4 0 
" id="m9bb7ac74a8" style="stroke:#000000;stroke-width:0.5;"/>
      </defs>
      <g>
       <use style="stroke:#000000;stroke-width:0.5;" x="7.2" xlink:href="#m9bb7ac74a8" y="352.8"/>
      </g>
     </g>
     <g id="line2d_54">
      <defs>
       <path d="M 0 0 
L -4 0 
" id="m9bd122cd11" style="stroke:#000000;stroke-width:0.5;"/>
      </defs>
      <g>
       <use style="stroke:#000000;stroke-width:0.5;" x="453.6" xlink:href="#m9bd122cd11" y="352.8"/>
      </g>
     </g>
    </g>
    <g id="ytick_2">
     <g id="line2d_55">
      <path clip-path="url(#pc32fcb289c)" d="M 7.2 284.364356 
L 453.6 284.364356 
" style="fill:none;stroke:#000000;stroke-dasharray:1.000000,3.000000;stroke-dashoffset:0.0;stroke-width:0.5;"/>
     </g>
     <g id="line2d_56">
      <g>
       <use style="stroke:#000000;stroke-width:0.5;" x="7.2" xlink:href="#m9bb7ac74a8" y="284.364356436"/>
      </g>
     </g>
     <g id="line2d_57">
      <g>
       <use style="stroke:#000000;stroke-width:0.5;" x="453.6" xlink:href="#m9bd122cd11" y="284.364356436"/>
      </g>
     </g>
    </g>
    <g id="ytick_3">
     <g id="line2d_58">
      <path clip-path="url(#pc32fcb289c)" d="M 7.2 215.928713 
L 453.6 215.928713 
" style="fill:none;stroke:#000000;stroke-dasharray:1.000000,3.000000;stroke-dashoffset:0.0;stroke-width:0.5;"/>
     </g>
     <g id="line2d_59">
      <g>
       <use style="stroke:#000000;stroke-width:0.5;" x="7.2" xlink:href="#m9bb7ac74a8" y="215.928712871"/>
      </g>
     </g>
     <g id="line2d_60">
      <g>
       <use style="stroke:#000000;stroke-width:0.5;" x="453.6" xlink:href="#m9bd122cd11" y="215.928712871"/>
      </g>
     </g>
    </g>
    <g id="ytick_4">
     <g id="line2d_61">
      <path clip-path="url(#pc32fcb289c)" d="M 7.2 147.493069 
L 453.6 147.493069 
" style="fill:none;stroke:#000000;stroke-dasharray:1.000000,3.000000;stroke-dashoffset:0.0;stroke-width:0.5;"/>
     </g>
     <g id="line2d_62">
      <g>
       <use style="stroke:#000000;stroke-width:0.5;" x="7.2" xlink:href="#m9bb7ac74a8" y="147.493069307"/>
      </g>
     </g>
     <g id="line2d_63">
      <g>
       <use style="stroke:#000000;stroke-width:0.5;" x="453.6" xlink:href="#m9bd122cd11" y="147.493069307"/>
      </g>
     </g>
    </g>
    <g id="ytick_5">
     <g id="line2d_64">
      <path clip-path="url(#pc32fcb289c)" d="M 7.2 79.057426 
L 453.6 79.057426 
" style="fill:none;stroke:#000000;stroke-dasharray:1.000000,3.000000;stroke-dashoffset:0.0;stroke-width:0.5;"/>
     </g>
     <g id="line2d_65">
      <g>
       <use style="stroke:#000000;stroke-width:0.5;" x="7.2" xlink:href="#m9bb7ac74a8" y="79.0574257426"/>
      </g>
     </g>
     <g id="line2d_66">
      <g>
       <use style="stroke:#000000;stroke-width:0.5;" x="453.6" xlink:href="#m9bd122cd11" y="79.0574257426"/>
      </g>
     </g>
    </g>
    <g id="ytick_6">
     <g id="line2d_67">
      <path clip-path="url(#pc32fcb289c)" d="M 7.2 10.621782 
L 453.6 10.621782 
" style="fill:none;stroke:#000000;stroke-dasharray:1.000000,3.000000;stroke-dashoffset:0.0;stroke-width:0.5;"/>
     </g>
     <g id="line2d_68">
      <g>
       <use style="stroke:#000000;stroke-width:0.5;" x="7.2" xlink:href="#m9bb7ac74a8" y="10.6217821782"/>
      </g>
     </g>
     <g id="line2d_69">
      <g>
       <use style="stroke:#000000;stroke-width:0.5;" x="453.6" xlink:href="#m9bd122cd11" y="10.6217821782"/>
      </g>
     </g>
    </g>
   </g>
   <g id="text_10">
    <!-- {f20-f24}, 5-D -->
    <defs>
     <path d="M 12.5 -9.28125 
L 15.921875 -9.28125 
Q 22.75 -9.28125 24.828125 -7.171875 
Q 26.90625 -5.078125 26.90625 1.90625 
L 26.90625 14.015625 
Q 26.90625 21.625 29.09375 25.09375 
Q 31.296875 28.5625 36.71875 29.890625 
Q 31.296875 31.109375 29.09375 34.5625 
Q 26.90625 38.03125 26.90625 45.703125 
L 26.90625 57.8125 
Q 26.90625 64.75 24.828125 66.875 
Q 22.75 69 15.921875 69 
L 12.5 69 
L 12.5 75.984375 
L 15.578125 75.984375 
Q 27.734375 75.984375 31.8125 72.390625 
Q 35.890625 68.796875 35.890625 58.015625 
L 35.890625 46.296875 
Q 35.890625 39.015625 38.515625 36.203125 
Q 41.15625 33.40625 48.09375 33.40625 
L 51.125 33.40625 
L 51.125 26.421875 
L 48.09375 26.421875 
Q 41.15625 26.421875 38.515625 23.578125 
Q 35.890625 20.75 35.890625 13.375 
L 35.890625 1.703125 
Q 35.890625 -9.078125 31.8125 -12.6875 
Q 27.734375 -16.3125 15.578125 -16.3125 
L 12.5 -16.3125 
z
" id="BitstreamVeraSans-Roman-7d"/>
     <path d="M 51.125 -9.28125 
L 51.125 -16.3125 
L 48.09375 -16.3125 
Q 35.9375 -16.3125 31.8125 -12.6875 
Q 27.6875 -9.078125 27.6875 1.703125 
L 27.6875 13.375 
Q 27.6875 20.75 25.046875 23.578125 
Q 22.40625 26.421875 15.484375 26.421875 
L 12.5 26.421875 
L 12.5 33.40625 
L 15.484375 33.40625 
Q 22.46875 33.40625 25.078125 36.203125 
Q 27.6875 39.015625 27.6875 46.296875 
L 27.6875 58.015625 
Q 27.6875 68.796875 31.8125 72.390625 
Q 35.9375 75.984375 48.09375 75.984375 
L 51.125 75.984375 
L 51.125 69 
L 47.796875 69 
Q 40.921875 69 38.8125 66.84375 
Q 36.71875 64.703125 36.71875 57.8125 
L 36.71875 45.703125 
Q 36.71875 38.03125 34.5 34.5625 
Q 32.28125 31.109375 26.90625 29.890625 
Q 32.328125 28.5625 34.515625 25.09375 
Q 36.71875 21.625 36.71875 14.015625 
L 36.71875 1.90625 
Q 36.71875 -4.984375 38.8125 -7.125 
Q 40.921875 -9.28125 47.796875 -9.28125 
z
" id="BitstreamVeraSans-Roman-7b"/>
     <path d="M 11.71875 12.40625 
L 22.015625 12.40625 
L 22.015625 4 
L 14.015625 -11.625 
L 7.71875 -11.625 
L 11.71875 4 
z
" id="BitstreamVeraSans-Roman-2c"/>
     <path d="M 10.796875 72.90625 
L 49.515625 72.90625 
L 49.515625 64.59375 
L 19.828125 64.59375 
L 19.828125 46.734375 
Q 21.96875 47.46875 24.109375 47.828125 
Q 26.265625 48.1875 28.421875 48.1875 
Q 40.625 48.1875 47.75 41.5 
Q 54.890625 34.8125 54.890625 23.390625 
Q 54.890625 11.625 47.5625 5.09375 
Q 40.234375 -1.421875 26.90625 -1.421875 
Q 22.3125 -1.421875 17.546875 -0.640625 
Q 12.796875 0.140625 7.71875 1.703125 
L 7.71875 11.625 
Q 12.109375 9.234375 16.796875 8.0625 
Q 21.484375 6.890625 26.703125 6.890625 
Q 35.15625 6.890625 40.078125 11.328125 
Q 45.015625 15.765625 45.015625 23.390625 
Q 45.015625 31 40.078125 35.4375 
Q 35.15625 39.890625 26.703125 39.890625 
Q 22.75 39.890625 18.8125 39.015625 
Q 14.890625 38.140625 10.796875 36.28125 
z
" id="BitstreamVeraSans-Roman-35"/>
    </defs>
    <g transform="translate(298.972 345.888)scale(0.2 -0.2)">
     <use xlink:href="#BitstreamVeraSans-Roman-7b"/>
     <use x="63.623046875" xlink:href="#BitstreamVeraSans-Roman-66"/>
     <use x="98.828125" xlink:href="#BitstreamVeraSans-Roman-32"/>
     <use x="162.451171875" xlink:href="#BitstreamVeraSans-Roman-30"/>
     <use x="226.07421875" xlink:href="#BitstreamVeraSans-Roman-2d"/>
     <use x="262.158203125" xlink:href="#BitstreamVeraSans-Roman-66"/>
     <use x="297.36328125" xlink:href="#BitstreamVeraSans-Roman-32"/>
     <use x="360.986328125" xlink:href="#BitstreamVeraSans-Roman-34"/>
     <use x="424.609375" xlink:href="#BitstreamVeraSans-Roman-7d"/>
     <use x="488.232421875" xlink:href="#BitstreamVeraSans-Roman-2c"/>
     <use x="520.01953125" xlink:href="#BitstreamVeraSans-Roman-20"/>
     <use x="551.806640625" xlink:href="#BitstreamVeraSans-Roman-35"/>
     <use x="615.4296875" xlink:href="#BitstreamVeraSans-Roman-2d"/>
     <use x="651.513671875" xlink:href="#BitstreamVeraSans-Roman-44"/>
    </g>
   </g>
   <g id="text_11">
    <!-- 0.0.0 -->
    <defs>
     <path d="M 10.6875 12.40625 
L 21 12.40625 
L 21 0 
L 10.6875 0 
z
" id="BitstreamVeraSans-Roman-2e"/>
    </defs>
    <g style="fill:#808080;" transform="translate(217.678125 347.2643125)scale(0.1 -0.1)">
     <use xlink:href="#BitstreamVeraSans-Roman-30"/>
     <use x="63.623046875" xlink:href="#BitstreamVeraSans-Roman-2e"/>
     <use x="95.41015625" xlink:href="#BitstreamVeraSans-Roman-30"/>
     <use x="159.033203125" xlink:href="#BitstreamVeraSans-Roman-2e"/>
     <use x="190.8203125" xlink:href="#BitstreamVeraSans-Roman-30"/>
    </g>
   </g>
  </g>
 </g>
 <defs>
  <clipPath id="pc32fcb289c">
   <rect height="345.6" width="446.4" x="7.2" y="7.2"/>
  </clipPath>
 </defs>
</svg>
