<?xml version="1.0" encoding="utf-8" standalone="no"?>
<!DOCTYPE svg PUBLIC "-//W3C//DTD SVG 1.1//EN"
  "http://www.w3.org/Graphics/SVG/1.1/DTD/svg11.dtd">
<!-- Created with matplotlib (http://matplotlib.org/) -->
<svg height="407pt" version="1.1" viewBox="0 0 460 407" width="460pt" xmlns="http://www.w3.org/2000/svg" xmlns:xlink="http://www.w3.org/1999/xlink">
 <defs>
  <style type="text/css">
*{stroke-linecap:butt;stroke-linejoin:round;stroke-miterlimit:100000;}
  </style>
 </defs>
 <g id="figure_1">
  <g id="patch_1">
   <path d="M 0 407.7125 
L 460.8 407.7125 
L 460.8 0 
L 0 0 
z
" style="fill:#ffffff;"/>
  </g>
  <g id="axes_1">
   <g id="patch_2">
    <path d="M 7.2 352.8 
L 453.6 352.8 
L 453.6 7.2 
L 7.2 7.2 
z
" style="fill:#ffffff;"/>
   </g>
   <g id="line2d_1">
    <path clip-path="url(#pfdb019cf50)" d="M 172.856972 352.8 
L 172.856972 347.09703 
L 178.353977 347.09703 
L 178.353977 341.394059 
L 187.264827 341.394059 
L 187.264827 335.691089 
L 190.867827 335.691089 
L 190.867827 329.988119 
L 191.832565 329.988119 
L 191.832565 324.285149 
L 196.217964 324.285149 
L 196.217964 318.582178 
L 197.719669 318.582178 
L 197.719669 312.879208 
L 200.586484 312.879208 
L 200.586484 307.176238 
L 203.611936 307.176238 
L 203.611936 301.473267 
L 203.643774 301.473267 
L 203.643774 295.770297 
L 204.287639 295.770297 
L 204.287639 290.067327 
L 205.126271 290.067327 
L 205.126271 284.364356 
L 205.278951 284.364356 
L 205.278951 278.661386 
L 205.899514 278.661386 
L 205.899514 272.958416 
L 207.35053 272.958416 
L 207.35053 267.255446 
L 211.87922 267.255446 
L 211.87922 261.552475 
L 211.931623 261.552475 
L 211.931623 255.849505 
L 212.250203 255.849505 
L 212.250203 250.146535 
L 212.799569 250.146535 
L 212.799569 244.443564 
L 214.016312 244.443564 
L 214.016312 238.740594 
L 214.143938 238.740594 
L 214.143938 233.037624 
L 215.572855 233.037624 
L 215.572855 227.334653 
L 217.014412 227.334653 
L 217.014412 221.631683 
L 217.555283 221.631683 
L 217.555283 215.928713 
L 220.373664 215.928713 
L 220.373664 210.225743 
L 221.031283 210.225743 
L 221.031283 204.522772 
L 223.203064 204.522772 
L 223.203064 198.819802 
L 223.682672 198.819802 
L 223.682672 193.116832 
L 223.847344 193.116832 
L 223.847344 187.413861 
L 224.113239 187.413861 
L 224.113239 181.710891 
L 224.114778 181.710891 
L 224.114778 176.007921 
L 224.142605 176.007921 
L 224.142605 170.30495 
L 224.172426 170.30495 
L 224.172426 164.60198 
L 224.173831 164.60198 
L 224.173831 158.89901 
L 224.17983 158.89901 
L 224.17983 153.19604 
L 224.184065 153.19604 
L 224.184065 147.493069 
L 224.190667 147.493069 
L 224.190667 141.790099 
L 224.190719 141.790099 
L 224.190719 136.087129 
L 224.20624 136.087129 
L 224.20624 130.384158 
L 224.208546 130.384158 
L 224.208546 124.681188 
L 224.213917 124.681188 
L 224.213917 118.978218 
L 224.228371 118.978218 
L 224.228371 113.275248 
L 224.313906 113.275248 
L 224.313906 107.572277 
L 224.733913 107.572277 
L 224.733913 101.869307 
L 224.768063 101.869307 
L 224.768063 96.166337 
L 224.780104 96.166337 
L 224.780104 90.463366 
L 224.85596 90.463366 
L 224.85596 84.760396 
L 224.873677 84.760396 
L 224.873677 79.057426 
L 224.916571 79.057426 
L 224.916571 73.354455 
L 225.257537 73.354455 
L 225.257537 67.651485 
L 225.302754 67.651485 
L 225.302754 61.948515 
L 225.31793 61.948515 
L 225.31793 56.245545 
L 225.376071 56.245545 
L 225.376071 50.542574 
L 225.399724 50.542574 
L 225.399724 44.839604 
L 225.41671 44.839604 
L 225.41671 39.136634 
L 225.510676 39.136634 
L 225.510676 33.433663 
L 239.536513 33.433663 
L 239.536513 27.730693 
L 239.537734 27.730693 
L 239.537734 22.027723 
L 239.7645 22.027723 
L 239.7645 16.324752 
L 240.527417 16.324752 
L 240.527417 10.621782 
L 240.527417 10.621782 
L 240.527417 10.621782 
L 453.6 10.621782 
" style="fill:none;stroke:#ff0000;stroke-linecap:square;stroke-width:3.0;"/>
   </g>
   <g id="line2d_2">
    <path clip-path="url(#pfdb019cf50)" d="M 262.90554 352.8 
L 262.90554 347.09703 
L 264.700506 347.09703 
L 264.700506 341.394059 
L 267.189919 341.394059 
L 267.189919 335.691089 
L 267.830665 335.691089 
L 267.830665 329.988119 
L 271.904012 329.988119 
L 271.904012 324.285149 
L 271.941328 324.285149 
L 271.941328 318.582178 
L 271.986913 318.582178 
L 271.986913 312.879208 
L 272.166468 312.879208 
L 272.166468 307.176238 
L 272.309021 307.176238 
L 272.309021 301.473267 
L 273.51408 301.473267 
L 273.51408 295.770297 
L 274.029633 295.770297 
L 274.029633 290.067327 
L 274.634439 290.067327 
L 274.634439 284.364356 
L 275.661091 284.364356 
L 275.661091 278.661386 
L 275.774609 278.661386 
L 275.774609 272.958416 
L 278.178947 272.958416 
L 278.178947 267.255446 
L 319.632844 267.255446 
L 319.632844 261.552475 
L 320.5663 261.552475 
L 320.5663 255.849505 
L 320.798692 255.849505 
L 320.798692 250.146535 
L 320.848186 250.146535 
L 320.848186 244.443564 
L 323.774572 244.443564 
L 323.774572 238.740594 
L 323.808258 238.740594 
L 323.808258 233.037624 
L 324.469173 233.037624 
L 324.469173 227.334653 
L 324.632553 227.334653 
L 324.632553 221.631683 
L 325.046991 221.631683 
L 325.046991 215.928713 
L 326.004064 215.928713 
L 326.004064 210.225743 
L 326.03792 210.225743 
L 326.03792 204.522772 
L 326.236188 204.522772 
L 326.236188 198.819802 
L 326.658708 198.819802 
L 326.658708 193.116832 
L 327.12748 193.116832 
L 327.12748 187.413861 
L 327.444745 187.413861 
L 327.444745 181.710891 
L 329.092071 181.710891 
L 329.092071 176.007921 
L 329.332601 176.007921 
L 329.332601 170.30495 
L 329.671604 170.30495 
L 329.671604 164.60198 
L 329.97459 164.60198 
L 329.97459 158.89901 
L 330.210002 158.89901 
L 330.210002 153.19604 
L 330.224723 153.19604 
L 330.224723 147.493069 
L 330.56751 147.493069 
L 330.56751 141.790099 
L 330.805117 141.790099 
L 330.805117 136.087129 
L 331.977718 136.087129 
L 331.977718 130.384158 
L 332.129953 130.384158 
L 332.129953 124.681188 
L 332.212505 124.681188 
L 332.212505 118.978218 
L 332.320618 118.978218 
L 332.320618 113.275248 
L 333.310347 113.275248 
L 333.310347 107.572277 
L 333.466964 107.572277 
L 333.466964 101.869307 
L 334.251637 101.869307 
L 334.251637 96.166337 
L 334.414673 96.166337 
L 334.414673 90.463366 
L 334.690739 90.463366 
L 334.690739 84.760396 
L 336.406407 84.760396 
L 336.406407 79.057426 
L 336.479406 79.057426 
L 336.479406 73.354455 
L 336.480444 73.354455 
L 336.480444 67.651485 
L 336.529467 67.651485 
L 336.529467 61.948515 
L 336.726684 61.948515 
L 336.726684 56.245545 
L 336.742993 56.245545 
L 336.742993 50.542574 
L 336.965921 50.542574 
L 336.965921 44.839604 
L 337.009302 44.839604 
L 337.009302 39.136634 
L 337.053565 39.136634 
L 337.053565 33.433663 
L 337.473319 33.433663 
L 337.473319 27.730693 
L 338.678452 27.730693 
L 338.678452 22.027723 
L 338.793884 22.027723 
L 338.793884 16.324752 
L 344.775796 16.324752 
L 344.775796 10.621782 
L 344.775796 10.621782 
L 344.775796 10.621782 
L 453.6 10.621782 
" style="fill:none;stroke:#00bfbf;stroke-linecap:square;"/>
   </g>
   <g id="line2d_3">
    <path clip-path="url(#pfdb019cf50)" d="M 262.90554 352.8 
L 262.90554 347.09703 
L 263.481704 347.09703 
L 263.481704 341.394059 
L 264.832596 341.394059 
L 264.832596 335.691089 
L 267.127645 335.691089 
L 267.127645 329.988119 
L 267.56122 329.988119 
L 267.56122 324.285149 
L 267.906869 324.285149 
L 267.906869 318.582178 
L 270.523736 318.582178 
L 270.523736 312.879208 
L 271.941328 312.879208 
L 271.941328 307.176238 
L 272.309021 307.176238 
L 272.309021 301.473267 
L 273.51408 301.473267 
L 273.51408 295.770297 
L 274.029633 295.770297 
L 274.029633 290.067327 
L 274.432071 290.067327 
L 274.432071 284.364356 
L 274.634439 284.364356 
L 274.634439 278.661386 
L 275.124203 278.661386 
L 275.124203 272.958416 
L 275.661091 272.958416 
L 275.661091 267.255446 
L 316.870171 267.255446 
L 316.870171 261.552475 
L 319.632844 261.552475 
L 319.632844 255.849505 
L 320.005331 255.849505 
L 320.005331 250.146535 
L 320.5663 250.146535 
L 320.5663 244.443564 
L 320.578574 244.443564 
L 320.578574 238.740594 
L 320.798692 238.740594 
L 320.798692 233.037624 
L 320.848186 233.037624 
L 320.848186 227.334653 
L 320.966343 227.334653 
L 320.966343 221.631683 
L 322.768542 221.631683 
L 322.768542 215.928713 
L 323.206796 215.928713 
L 323.206796 210.225743 
L 323.774572 210.225743 
L 323.774572 204.522772 
L 323.790073 204.522772 
L 323.790073 198.819802 
L 323.808258 198.819802 
L 323.808258 193.116832 
L 324.346084 193.116832 
L 324.346084 187.413861 
L 324.469173 187.413861 
L 324.469173 181.710891 
L 325.046991 181.710891 
L 325.046991 176.007921 
L 325.13282 176.007921 
L 325.13282 170.30495 
L 326.537095 170.30495 
L 326.537095 164.60198 
L 326.658708 164.60198 
L 326.658708 158.89901 
L 326.740877 158.89901 
L 326.740877 153.19604 
L 326.805943 153.19604 
L 326.805943 147.493069 
L 329.092071 147.493069 
L 329.092071 141.790099 
L 329.565569 141.790099 
L 329.565569 136.087129 
L 329.671604 136.087129 
L 329.671604 130.384158 
L 330.224723 130.384158 
L 330.224723 124.681188 
L 330.490535 124.681188 
L 330.490535 118.978218 
L 331.019589 118.978218 
L 331.019589 113.275248 
L 331.543109 113.275248 
L 331.543109 107.572277 
L 331.667252 107.572277 
L 331.667252 101.869307 
L 331.977718 101.869307 
L 331.977718 96.166337 
L 332.129953 96.166337 
L 332.129953 90.463366 
L 332.212505 90.463366 
L 332.212505 84.760396 
L 333.033876 84.760396 
L 333.033876 79.057426 
L 333.269246 79.057426 
L 333.269246 73.354455 
L 333.783994 73.354455 
L 333.783994 67.651485 
L 334.785102 67.651485 
L 334.785102 61.948515 
L 335.780046 61.948515 
L 335.780046 56.245545 
L 336.553356 56.245545 
L 336.553356 50.542574 
L 336.726684 50.542574 
L 336.726684 44.839604 
L 336.965921 44.839604 
L 336.965921 39.136634 
L 336.991591 39.136634 
L 336.991591 33.433663 
L 337.053565 33.433663 
L 337.053565 27.730693 
L 337.473319 27.730693 
L 337.473319 22.027723 
L 338.678452 22.027723 
L 338.678452 16.324752 
L 344.686665 16.324752 
L 344.686665 10.621782 
L 344.686665 10.621782 
L 344.686665 10.621782 
L 453.6 10.621782 
" style="fill:none;stroke:#bf00bf;stroke-linecap:square;"/>
   </g>
   <g id="line2d_4">
    <path clip-path="url(#pfdb019cf50)" d="M 256.77203 352.8 
L 256.77203 347.09703 
L 262.333516 347.09703 
L 262.333516 341.394059 
L 262.90554 341.394059 
L 262.90554 335.691089 
L 263.481704 335.691089 
L 263.481704 329.988119 
L 264.386453 329.988119 
L 264.386453 324.285149 
L 264.651432 324.285149 
L 264.651432 318.582178 
L 265.564096 318.582178 
L 265.564096 312.879208 
L 267.127645 312.879208 
L 267.127645 307.176238 
L 268.338252 307.176238 
L 268.338252 301.473267 
L 269.026695 301.473267 
L 269.026695 295.770297 
L 272.26852 295.770297 
L 272.26852 290.067327 
L 272.309021 290.067327 
L 272.309021 284.364356 
L 273.095631 284.364356 
L 273.095631 278.661386 
L 273.201697 278.661386 
L 273.201697 272.958416 
L 274.373759 272.958416 
L 274.373759 267.255446 
L 316.870171 267.255446 
L 316.870171 261.552475 
L 317.286066 261.552475 
L 317.286066 255.849505 
L 319.611863 255.849505 
L 319.611863 250.146535 
L 319.751063 250.146535 
L 319.751063 244.443564 
L 320.005331 244.443564 
L 320.005331 238.740594 
L 320.386234 238.740594 
L 320.386234 233.037624 
L 320.5663 233.037624 
L 320.5663 227.334653 
L 320.578574 227.334653 
L 320.578574 221.631683 
L 320.798692 221.631683 
L 320.798692 215.928713 
L 320.848186 215.928713 
L 320.848186 210.225743 
L 321.568576 210.225743 
L 321.568576 204.522772 
L 322.480987 204.522772 
L 322.480987 198.819802 
L 322.601744 198.819802 
L 322.601744 193.116832 
L 322.768542 193.116832 
L 322.768542 187.413861 
L 323.774572 187.413861 
L 323.774572 181.710891 
L 323.790073 181.710891 
L 323.790073 176.007921 
L 323.808258 176.007921 
L 323.808258 170.30495 
L 323.903315 170.30495 
L 323.903315 164.60198 
L 324.1428 164.60198 
L 324.1428 158.89901 
L 324.469173 158.89901 
L 324.469173 153.19604 
L 325.018596 153.19604 
L 325.018596 147.493069 
L 326.328648 147.493069 
L 326.328648 141.790099 
L 326.435413 141.790099 
L 326.435413 136.087129 
L 326.658708 136.087129 
L 326.658708 130.384158 
L 326.837066 130.384158 
L 326.837066 124.681188 
L 327.154111 124.681188 
L 327.154111 118.978218 
L 328.121684 118.978218 
L 328.121684 113.275248 
L 329.092071 113.275248 
L 329.092071 107.572277 
L 329.324752 107.572277 
L 329.324752 101.869307 
L 329.807544 101.869307 
L 329.807544 96.166337 
L 330.043202 96.166337 
L 330.043202 90.463366 
L 330.526232 90.463366 
L 330.526232 84.760396 
L 330.686578 84.760396 
L 330.686578 79.057426 
L 330.762003 79.057426 
L 330.762003 73.354455 
L 331.019589 73.354455 
L 331.019589 67.651485 
L 331.667252 67.651485 
L 331.667252 61.948515 
L 331.977718 61.948515 
L 331.977718 56.245545 
L 332.516895 56.245545 
L 332.516895 50.542574 
L 333.033876 50.542574 
L 333.033876 44.839604 
L 333.051376 44.839604 
L 333.051376 39.136634 
L 333.113889 39.136634 
L 333.113889 33.433663 
L 334.785102 33.433663 
L 334.785102 27.730693 
L 336.550427 27.730693 
L 336.550427 22.027723 
L 337.8631 22.027723 
L 337.8631 16.324752 
L 341.973751 16.324752 
L 341.973751 10.621782 
L 341.973751 10.621782 
L 341.973751 10.621782 
L 453.6 10.621782 
" style="fill:none;stroke:#000000;stroke-linecap:square;"/>
   </g>
   <g id="line2d_5">
    <path clip-path="url(#pfdb019cf50)" d="M 256.77203 352.8 
L 256.77203 347.09703 
L 257.386533 347.09703 
L 257.386533 341.394059 
L 257.652854 341.394059 
L 257.652854 335.691089 
L 259.302819 335.691089 
L 259.302819 329.988119 
L 260.307575 329.988119 
L 260.307575 324.285149 
L 261.056014 324.285149 
L 261.056014 318.582178 
L 261.684648 318.582178 
L 261.684648 312.879208 
L 262.436284 312.879208 
L 262.436284 307.176238 
L 263.672526 307.176238 
L 263.672526 301.473267 
L 263.674476 301.473267 
L 263.674476 295.770297 
L 264.077532 295.770297 
L 264.077532 290.067327 
L 265.811431 290.067327 
L 265.811431 284.364356 
L 266.14315 284.364356 
L 266.14315 278.661386 
L 266.39914 278.661386 
L 266.39914 272.958416 
L 270.153648 272.958416 
L 270.153648 267.255446 
L 305.778064 267.255446 
L 305.778064 261.552475 
L 310.073964 261.552475 
L 310.073964 255.849505 
L 312.181171 255.849505 
L 312.181171 250.146535 
L 312.470181 250.146535 
L 312.470181 244.443564 
L 312.580324 244.443564 
L 312.580324 238.740594 
L 312.723456 238.740594 
L 312.723456 233.037624 
L 313.497165 233.037624 
L 313.497165 227.334653 
L 313.818868 227.334653 
L 313.818868 221.631683 
L 314.042179 221.631683 
L 314.042179 215.928713 
L 314.337051 215.928713 
L 314.337051 210.225743 
L 315.153686 210.225743 
L 315.153686 204.522772 
L 315.946173 204.522772 
L 315.946173 198.819802 
L 316.137594 198.819802 
L 316.137594 193.116832 
L 316.335527 193.116832 
L 316.335527 187.413861 
L 316.479798 187.413861 
L 316.479798 181.710891 
L 317.517585 181.710891 
L 317.517585 176.007921 
L 318.130197 176.007921 
L 318.130197 170.30495 
L 318.573739 170.30495 
L 318.573739 164.60198 
L 318.758771 164.60198 
L 318.758771 158.89901 
L 318.843236 158.89901 
L 318.843236 153.19604 
L 319.13687 153.19604 
L 319.13687 147.493069 
L 319.167022 147.493069 
L 319.167022 141.790099 
L 319.167517 141.790099 
L 319.167517 136.087129 
L 319.611116 136.087129 
L 319.611116 130.384158 
L 319.64983 130.384158 
L 319.64983 124.681188 
L 320.005331 124.681188 
L 320.005331 118.978218 
L 320.199407 118.978218 
L 320.199407 113.275248 
L 320.416003 113.275248 
L 320.416003 107.572277 
L 320.636398 107.572277 
L 320.636398 101.869307 
L 322.10463 101.869307 
L 322.10463 96.166337 
L 322.518588 96.166337 
L 322.518588 90.463366 
L 322.601744 90.463366 
L 322.601744 84.760396 
L 323.898019 84.760396 
L 323.898019 79.057426 
L 324.024919 79.057426 
L 324.024919 73.354455 
L 324.215687 73.354455 
L 324.215687 67.651485 
L 324.781456 67.651485 
L 324.781456 61.948515 
L 325.265066 61.948515 
L 325.265066 56.245545 
L 326.139428 56.245545 
L 326.139428 50.542574 
L 326.894657 50.542574 
L 326.894657 44.839604 
L 328.394651 44.839604 
L 328.394651 39.136634 
L 329.158537 39.136634 
L 329.158537 33.433663 
L 329.921527 33.433663 
L 329.921527 27.730693 
L 330.100339 27.730693 
L 330.100339 22.027723 
L 331.090242 22.027723 
L 331.090242 16.324752 
L 333.0322 16.324752 
L 333.0322 10.621782 
L 333.0322 10.621782 
L 333.0322 10.621782 
L 453.6 10.621782 
" style="fill:none;stroke:#00bfbf;stroke-linecap:square;"/>
   </g>
   <g id="line2d_6">
    <path clip-path="url(#pfdb019cf50)" d="M 232.15574 352.8 
L 232.15574 347.09703 
L 232.285742 347.09703 
L 232.285742 341.394059 
L 234.157403 341.394059 
L 234.157403 335.691089 
L 234.5647 335.691089 
L 234.5647 329.988119 
L 235.192542 329.988119 
L 235.192542 324.285149 
L 235.244581 324.285149 
L 235.244581 318.582178 
L 235.364939 318.582178 
L 235.364939 312.879208 
L 237.520535 312.879208 
L 237.520535 307.176238 
L 237.663952 307.176238 
L 237.663952 301.473267 
L 239.233225 301.473267 
L 239.233225 295.770297 
L 239.929733 295.770297 
L 239.929733 290.067327 
L 241.116029 290.067327 
L 241.116029 284.364356 
L 241.397632 284.364356 
L 241.397632 278.661386 
L 241.739563 278.661386 
L 241.739563 272.958416 
L 242.610102 272.958416 
L 242.610102 267.255446 
L 249.535574 267.255446 
L 249.535574 261.552475 
L 250.001865 261.552475 
L 250.001865 255.849505 
L 250.016235 255.849505 
L 250.016235 250.146535 
L 250.738634 250.146535 
L 250.738634 244.443564 
L 252.831261 244.443564 
L 252.831261 238.740594 
L 253.426924 238.740594 
L 253.426924 233.037624 
L 253.490625 233.037624 
L 253.490625 227.334653 
L 254.020349 227.334653 
L 254.020349 221.631683 
L 254.568085 221.631683 
L 254.568085 215.928713 
L 255.072493 215.928713 
L 255.072493 210.225743 
L 255.358302 210.225743 
L 255.358302 204.522772 
L 256.041466 204.522772 
L 256.041466 198.819802 
L 256.193551 198.819802 
L 256.193551 193.116832 
L 256.292614 193.116832 
L 256.292614 187.413861 
L 256.380065 187.413861 
L 256.380065 181.710891 
L 256.382763 181.710891 
L 256.382763 176.007921 
L 256.742929 176.007921 
L 256.742929 170.30495 
L 257.182648 170.30495 
L 257.182648 164.60198 
L 257.421767 164.60198 
L 257.421767 158.89901 
L 257.662324 158.89901 
L 257.662324 153.19604 
L 257.671812 153.19604 
L 257.671812 147.493069 
L 258.04216 147.493069 
L 258.04216 141.790099 
L 258.076215 141.790099 
L 258.076215 136.087129 
L 258.348633 136.087129 
L 258.348633 130.384158 
L 258.369314 130.384158 
L 258.369314 124.681188 
L 258.404883 124.681188 
L 258.404883 118.978218 
L 258.537288 118.978218 
L 258.537288 113.275248 
L 258.855311 113.275248 
L 258.855311 107.572277 
L 259.381379 107.572277 
L 259.381379 101.869307 
L 259.573985 101.869307 
L 259.573985 96.166337 
L 259.650483 96.166337 
L 259.650483 90.463366 
L 259.667503 90.463366 
L 259.667503 84.760396 
L 259.882719 84.760396 
L 259.882719 79.057426 
L 260.188888 79.057426 
L 260.188888 73.354455 
L 260.438476 73.354455 
L 260.438476 67.651485 
L 261.592734 67.651485 
L 261.592734 61.948515 
L 262.687879 61.948515 
L 262.687879 56.245545 
L 264.396415 56.245545 
L 264.396415 50.542574 
L 264.791082 50.542574 
L 264.791082 44.839604 
L 265.322171 44.839604 
L 265.322171 39.136634 
L 265.362698 39.136634 
L 265.362698 33.433663 
L 265.653947 33.433663 
L 265.653947 27.730693 
L 266.088286 27.730693 
L 266.088286 22.027723 
L 269.325324 22.027723 
L 269.325324 16.324752 
L 272.884553 16.324752 
L 272.884553 10.621782 
L 272.884553 10.621782 
L 272.884553 10.621782 
L 453.6 10.621782 
" style="fill:none;stroke:#bf00bf;stroke-linecap:square;"/>
   </g>
   <g id="patch_3">
    <path d="M 7.2 7.2 
L 453.6 7.2 
" style="fill:none;stroke:#000000;stroke-linecap:square;stroke-linejoin:miter;"/>
   </g>
   <g id="patch_4">
    <path d="M 453.6 352.8 
L 453.6 7.2 
" style="fill:none;stroke:#000000;stroke-linecap:square;stroke-linejoin:miter;"/>
   </g>
   <g id="patch_5">
    <path d="M 7.2 352.8 
L 453.6 352.8 
" style="fill:none;stroke:#000000;stroke-linecap:square;stroke-linejoin:miter;"/>
   </g>
   <g id="patch_6">
    <path d="M 7.2 352.8 
L 7.2 7.2 
" style="fill:none;stroke:#000000;stroke-linecap:square;stroke-linejoin:miter;"/>
   </g>
   <g id="matplotlib.axis_1">
    <g id="xtick_1"/>
    <g id="xtick_2">
     <g id="line2d_7">
      <path clip-path="url(#pfdb019cf50)" d="M 54.098611 352.8 
L 54.098611 7.2 
" style="fill:none;stroke:#000000;stroke-dasharray:1.000000,3.000000;stroke-dashoffset:0.0;stroke-width:0.5;"/>
     </g>
     <g id="line2d_8">
      <defs>
       <path d="M 0 0 
L 0 -4 
" id="m6b805989b0" style="stroke:#000000;stroke-width:0.5;"/>
      </defs>
      <g>
       <use style="stroke:#000000;stroke-width:0.5;" x="54.0986107985" xlink:href="#m6b805989b0" y="352.8"/>
      </g>
     </g>
     <g id="line2d_9">
      <defs>
       <path d="M 0 0 
L 0 4 
" id="mb0a0a8cf1b" style="stroke:#000000;stroke-width:0.5;"/>
      </defs>
      <g>
       <use style="stroke:#000000;stroke-width:0.5;" x="54.0986107985" xlink:href="#mb0a0a8cf1b" y="7.2"/>
      </g>
     </g>
     <g id="text_1">
      <!-- -6 -->
      <defs>
       <path d="M 33.015625 40.375 
Q 26.375 40.375 22.484375 35.828125 
Q 18.609375 31.296875 18.609375 23.390625 
Q 18.609375 15.53125 22.484375 10.953125 
Q 26.375 6.390625 33.015625 6.390625 
Q 39.65625 6.390625 43.53125 10.953125 
Q 47.40625 15.53125 47.40625 23.390625 
Q 47.40625 31.296875 43.53125 35.828125 
Q 39.65625 40.375 33.015625 40.375 
M 52.59375 71.296875 
L 52.59375 62.3125 
Q 48.875 64.0625 45.09375 64.984375 
Q 41.3125 65.921875 37.59375 65.921875 
Q 27.828125 65.921875 22.671875 59.328125 
Q 17.53125 52.734375 16.796875 39.40625 
Q 19.671875 43.65625 24.015625 45.921875 
Q 28.375 48.1875 33.59375 48.1875 
Q 44.578125 48.1875 50.953125 41.515625 
Q 57.328125 34.859375 57.328125 23.390625 
Q 57.328125 12.15625 50.6875 5.359375 
Q 44.046875 -1.421875 33.015625 -1.421875 
Q 20.359375 -1.421875 13.671875 8.265625 
Q 6.984375 17.96875 6.984375 36.375 
Q 6.984375 53.65625 15.1875 63.9375 
Q 23.390625 74.21875 37.203125 74.21875 
Q 40.921875 74.21875 44.703125 73.484375 
Q 48.484375 72.75 52.59375 71.296875 
" id="BitstreamVeraSans-Roman-36"/>
       <path d="M 4.890625 31.390625 
L 31.203125 31.390625 
L 31.203125 23.390625 
L 4.890625 23.390625 
z
" id="BitstreamVeraSans-Roman-2d"/>
      </defs>
      <g transform="translate(44.1282982985 371.996875)scale(0.2 -0.2)">
       <use xlink:href="#BitstreamVeraSans-Roman-2d"/>
       <use x="36.083984375" xlink:href="#BitstreamVeraSans-Roman-36"/>
      </g>
     </g>
    </g>
    <g id="xtick_3">
     <g id="line2d_10">
      <path clip-path="url(#pfdb019cf50)" d="M 101.098774 352.8 
L 101.098774 7.2 
" style="fill:none;stroke:#000000;stroke-dasharray:1.000000,3.000000;stroke-dashoffset:0.0;stroke-width:0.5;"/>
     </g>
     <g id="line2d_11">
      <g>
       <use style="stroke:#000000;stroke-width:0.5;" x="101.098774234" xlink:href="#m6b805989b0" y="352.8"/>
      </g>
     </g>
     <g id="line2d_12">
      <g>
       <use style="stroke:#000000;stroke-width:0.5;" x="101.098774234" xlink:href="#mb0a0a8cf1b" y="7.2"/>
      </g>
     </g>
     <g id="text_2">
      <!-- -4 -->
      <defs>
       <path d="M 37.796875 64.3125 
L 12.890625 25.390625 
L 37.796875 25.390625 
z
M 35.203125 72.90625 
L 47.609375 72.90625 
L 47.609375 25.390625 
L 58.015625 25.390625 
L 58.015625 17.1875 
L 47.609375 17.1875 
L 47.609375 0 
L 37.796875 0 
L 37.796875 17.1875 
L 4.890625 17.1875 
L 4.890625 26.703125 
z
" id="BitstreamVeraSans-Roman-34"/>
      </defs>
      <g transform="translate(91.1284617339 371.996875)scale(0.2 -0.2)">
       <use xlink:href="#BitstreamVeraSans-Roman-2d"/>
       <use x="36.083984375" xlink:href="#BitstreamVeraSans-Roman-34"/>
      </g>
     </g>
    </g>
    <g id="xtick_4">
     <g id="line2d_13">
      <path clip-path="url(#pfdb019cf50)" d="M 148.098938 352.8 
L 148.098938 7.2 
" style="fill:none;stroke:#000000;stroke-dasharray:1.000000,3.000000;stroke-dashoffset:0.0;stroke-width:0.5;"/>
     </g>
     <g id="line2d_14">
      <g>
       <use style="stroke:#000000;stroke-width:0.5;" x="148.098937669" xlink:href="#m6b805989b0" y="352.8"/>
      </g>
     </g>
     <g id="line2d_15">
      <g>
       <use style="stroke:#000000;stroke-width:0.5;" x="148.098937669" xlink:href="#mb0a0a8cf1b" y="7.2"/>
      </g>
     </g>
     <g id="text_3">
      <!-- -2 -->
      <defs>
       <path d="M 19.1875 8.296875 
L 53.609375 8.296875 
L 53.609375 0 
L 7.328125 0 
L 7.328125 8.296875 
Q 12.9375 14.109375 22.625 23.890625 
Q 32.328125 33.6875 34.8125 36.53125 
Q 39.546875 41.84375 41.421875 45.53125 
Q 43.3125 49.21875 43.3125 52.78125 
Q 43.3125 58.59375 39.234375 62.25 
Q 35.15625 65.921875 28.609375 65.921875 
Q 23.96875 65.921875 18.8125 64.3125 
Q 13.671875 62.703125 7.8125 59.421875 
L 7.8125 69.390625 
Q 13.765625 71.78125 18.9375 73 
Q 24.125 74.21875 28.421875 74.21875 
Q 39.75 74.21875 46.484375 68.546875 
Q 53.21875 62.890625 53.21875 53.421875 
Q 53.21875 48.921875 51.53125 44.890625 
Q 49.859375 40.875 45.40625 35.40625 
Q 44.1875 33.984375 37.640625 27.21875 
Q 31.109375 20.453125 19.1875 8.296875 
" id="BitstreamVeraSans-Roman-32"/>
      </defs>
      <g transform="translate(138.128625169 371.996875)scale(0.2 -0.2)">
       <use xlink:href="#BitstreamVeraSans-Roman-2d"/>
       <use x="36.083984375" xlink:href="#BitstreamVeraSans-Roman-32"/>
      </g>
     </g>
    </g>
    <g id="xtick_5">
     <g id="line2d_16">
      <path clip-path="url(#pfdb019cf50)" d="M 195.099101 352.8 
L 195.099101 7.2 
" style="fill:none;stroke:#000000;stroke-dasharray:1.000000,3.000000;stroke-dashoffset:0.0;stroke-width:0.5;"/>
     </g>
     <g id="line2d_17">
      <g>
       <use style="stroke:#000000;stroke-width:0.5;" x="195.099101105" xlink:href="#m6b805989b0" y="352.8"/>
      </g>
     </g>
     <g id="line2d_18">
      <g>
       <use style="stroke:#000000;stroke-width:0.5;" x="195.099101105" xlink:href="#mb0a0a8cf1b" y="7.2"/>
      </g>
     </g>
     <g id="text_4">
      <!-- 0 -->
      <defs>
       <path d="M 31.78125 66.40625 
Q 24.171875 66.40625 20.328125 58.90625 
Q 16.5 51.421875 16.5 36.375 
Q 16.5 21.390625 20.328125 13.890625 
Q 24.171875 6.390625 31.78125 6.390625 
Q 39.453125 6.390625 43.28125 13.890625 
Q 47.125 21.390625 47.125 36.375 
Q 47.125 51.421875 43.28125 58.90625 
Q 39.453125 66.40625 31.78125 66.40625 
M 31.78125 74.21875 
Q 44.046875 74.21875 50.515625 64.515625 
Q 56.984375 54.828125 56.984375 36.375 
Q 56.984375 17.96875 50.515625 8.265625 
Q 44.046875 -1.421875 31.78125 -1.421875 
Q 19.53125 -1.421875 13.0625 8.265625 
Q 6.59375 17.96875 6.59375 36.375 
Q 6.59375 54.828125 13.0625 64.515625 
Q 19.53125 74.21875 31.78125 74.21875 
" id="BitstreamVeraSans-Roman-30"/>
      </defs>
      <g transform="translate(188.736601105 371.996875)scale(0.2 -0.2)">
       <use xlink:href="#BitstreamVeraSans-Roman-30"/>
      </g>
     </g>
    </g>
    <g id="xtick_6">
     <g id="line2d_19">
      <path clip-path="url(#pfdb019cf50)" d="M 242.099265 352.8 
L 242.099265 7.2 
" style="fill:none;stroke:#000000;stroke-dasharray:1.000000,3.000000;stroke-dashoffset:0.0;stroke-width:0.5;"/>
     </g>
     <g id="line2d_20">
      <g>
       <use style="stroke:#000000;stroke-width:0.5;" x="242.09926454" xlink:href="#m6b805989b0" y="352.8"/>
      </g>
     </g>
     <g id="line2d_21">
      <g>
       <use style="stroke:#000000;stroke-width:0.5;" x="242.09926454" xlink:href="#mb0a0a8cf1b" y="7.2"/>
      </g>
     </g>
     <g id="text_5">
      <!-- 2 -->
      <g transform="translate(235.73676454 371.996875)scale(0.2 -0.2)">
       <use xlink:href="#BitstreamVeraSans-Roman-32"/>
      </g>
     </g>
    </g>
    <g id="xtick_7">
     <g id="line2d_22">
      <path clip-path="url(#pfdb019cf50)" d="M 289.099428 352.8 
L 289.099428 7.2 
" style="fill:none;stroke:#000000;stroke-dasharray:1.000000,3.000000;stroke-dashoffset:0.0;stroke-width:0.5;"/>
     </g>
     <g id="line2d_23">
      <g>
       <use style="stroke:#000000;stroke-width:0.5;" x="289.099427976" xlink:href="#m6b805989b0" y="352.8"/>
      </g>
     </g>
     <g id="line2d_24">
      <g>
       <use style="stroke:#000000;stroke-width:0.5;" x="289.099427976" xlink:href="#mb0a0a8cf1b" y="7.2"/>
      </g>
     </g>
     <g id="text_6">
      <!-- 4 -->
      <g transform="translate(282.736927976 371.996875)scale(0.2 -0.2)">
       <use xlink:href="#BitstreamVeraSans-Roman-34"/>
      </g>
     </g>
    </g>
    <g id="xtick_8">
     <g id="line2d_25">
      <path clip-path="url(#pfdb019cf50)" d="M 336.099591 352.8 
L 336.099591 7.2 
" style="fill:none;stroke:#000000;stroke-dasharray:1.000000,3.000000;stroke-dashoffset:0.0;stroke-width:0.5;"/>
     </g>
     <g id="line2d_26">
      <g>
       <use style="stroke:#000000;stroke-width:0.5;" x="336.099591411" xlink:href="#m6b805989b0" y="352.8"/>
      </g>
     </g>
     <g id="line2d_27">
      <g>
       <use style="stroke:#000000;stroke-width:0.5;" x="336.099591411" xlink:href="#mb0a0a8cf1b" y="7.2"/>
      </g>
     </g>
     <g id="text_7">
      <!-- 6 -->
      <g transform="translate(329.737091411 371.996875)scale(0.2 -0.2)">
       <use xlink:href="#BitstreamVeraSans-Roman-36"/>
      </g>
     </g>
    </g>
    <g id="xtick_9">
     <g id="line2d_28">
      <path clip-path="url(#pfdb019cf50)" d="M 383.099755 352.8 
L 383.099755 7.2 
" style="fill:none;stroke:#000000;stroke-dasharray:1.000000,3.000000;stroke-dashoffset:0.0;stroke-width:0.5;"/>
     </g>
     <g id="line2d_29">
      <g>
       <use style="stroke:#000000;stroke-width:0.5;" x="383.099754847" xlink:href="#m6b805989b0" y="352.8"/>
      </g>
     </g>
     <g id="line2d_30">
      <g>
       <use style="stroke:#000000;stroke-width:0.5;" x="383.099754847" xlink:href="#mb0a0a8cf1b" y="7.2"/>
      </g>
     </g>
     <g id="text_8">
      <!-- 8 -->
      <defs>
       <path d="M 31.78125 34.625 
Q 24.75 34.625 20.71875 30.859375 
Q 16.703125 27.09375 16.703125 20.515625 
Q 16.703125 13.921875 20.71875 10.15625 
Q 24.75 6.390625 31.78125 6.390625 
Q 38.8125 6.390625 42.859375 10.171875 
Q 46.921875 13.96875 46.921875 20.515625 
Q 46.921875 27.09375 42.890625 30.859375 
Q 38.875 34.625 31.78125 34.625 
M 21.921875 38.8125 
Q 15.578125 40.375 12.03125 44.71875 
Q 8.5 49.078125 8.5 55.328125 
Q 8.5 64.0625 14.71875 69.140625 
Q 20.953125 74.21875 31.78125 74.21875 
Q 42.671875 74.21875 48.875 69.140625 
Q 55.078125 64.0625 55.078125 55.328125 
Q 55.078125 49.078125 51.53125 44.71875 
Q 48 40.375 41.703125 38.8125 
Q 48.828125 37.15625 52.796875 32.3125 
Q 56.78125 27.484375 56.78125 20.515625 
Q 56.78125 9.90625 50.3125 4.234375 
Q 43.84375 -1.421875 31.78125 -1.421875 
Q 19.734375 -1.421875 13.25 4.234375 
Q 6.78125 9.90625 6.78125 20.515625 
Q 6.78125 27.484375 10.78125 32.3125 
Q 14.796875 37.15625 21.921875 38.8125 
M 18.3125 54.390625 
Q 18.3125 48.734375 21.84375 45.5625 
Q 25.390625 42.390625 31.78125 42.390625 
Q 38.140625 42.390625 41.71875 45.5625 
Q 45.3125 48.734375 45.3125 54.390625 
Q 45.3125 60.0625 41.71875 63.234375 
Q 38.140625 66.40625 31.78125 66.40625 
Q 25.390625 66.40625 21.84375 63.234375 
Q 18.3125 60.0625 18.3125 54.390625 
" id="BitstreamVeraSans-Roman-38"/>
      </defs>
      <g transform="translate(376.737254847 371.996875)scale(0.2 -0.2)">
       <use xlink:href="#BitstreamVeraSans-Roman-38"/>
      </g>
     </g>
    </g>
    <g id="xtick_10">
     <g id="line2d_31">
      <path clip-path="url(#pfdb019cf50)" d="M 430.099918 352.8 
L 430.099918 7.2 
" style="fill:none;stroke:#000000;stroke-dasharray:1.000000,3.000000;stroke-dashoffset:0.0;stroke-width:0.5;"/>
     </g>
     <g id="line2d_32">
      <g>
       <use style="stroke:#000000;stroke-width:0.5;" x="430.099918282" xlink:href="#m6b805989b0" y="352.8"/>
      </g>
     </g>
     <g id="line2d_33">
      <g>
       <use style="stroke:#000000;stroke-width:0.5;" x="430.099918282" xlink:href="#mb0a0a8cf1b" y="7.2"/>
      </g>
     </g>
     <g id="text_9">
      <!-- 10 -->
      <defs>
       <path d="M 12.40625 8.296875 
L 28.515625 8.296875 
L 28.515625 63.921875 
L 10.984375 60.40625 
L 10.984375 69.390625 
L 28.421875 72.90625 
L 38.28125 72.90625 
L 38.28125 8.296875 
L 54.390625 8.296875 
L 54.390625 0 
L 12.40625 0 
z
" id="BitstreamVeraSans-Roman-31"/>
      </defs>
      <g transform="translate(417.374918282 371.996875)scale(0.2 -0.2)">
       <use xlink:href="#BitstreamVeraSans-Roman-31"/>
       <use x="63.623046875" xlink:href="#BitstreamVeraSans-Roman-30"/>
      </g>
     </g>
    </g>
    <g id="xtick_11"/>
    <g id="xtick_12">
     <g id="line2d_34">
      <defs>
       <path d="M 0 0 
L 0 -2 
" id="mb03dec6212" style="stroke:#000000;stroke-width:0.5;"/>
      </defs>
      <g>
       <use style="stroke:#000000;stroke-width:0.5;" x="54.0986107985" xlink:href="#mb03dec6212" y="352.8"/>
      </g>
     </g>
     <g id="line2d_35">
      <defs>
       <path d="M 0 0 
L 0 2 
" id="m90aee48060" style="stroke:#000000;stroke-width:0.5;"/>
      </defs>
      <g>
       <use style="stroke:#000000;stroke-width:0.5;" x="54.0986107985" xlink:href="#m90aee48060" y="7.2"/>
      </g>
     </g>
    </g>
    <g id="xtick_13">
     <g id="line2d_36">
      <g>
       <use style="stroke:#000000;stroke-width:0.5;" x="101.098774234" xlink:href="#mb03dec6212" y="352.8"/>
      </g>
     </g>
     <g id="line2d_37">
      <g>
       <use style="stroke:#000000;stroke-width:0.5;" x="101.098774234" xlink:href="#m90aee48060" y="7.2"/>
      </g>
     </g>
    </g>
    <g id="xtick_14">
     <g id="line2d_38">
      <g>
       <use style="stroke:#000000;stroke-width:0.5;" x="148.098937669" xlink:href="#mb03dec6212" y="352.8"/>
      </g>
     </g>
     <g id="line2d_39">
      <g>
       <use style="stroke:#000000;stroke-width:0.5;" x="148.098937669" xlink:href="#m90aee48060" y="7.2"/>
      </g>
     </g>
    </g>
    <g id="xtick_15">
     <g id="line2d_40">
      <g>
       <use style="stroke:#000000;stroke-width:0.5;" x="195.099101105" xlink:href="#mb03dec6212" y="352.8"/>
      </g>
     </g>
     <g id="line2d_41">
      <g>
       <use style="stroke:#000000;stroke-width:0.5;" x="195.099101105" xlink:href="#m90aee48060" y="7.2"/>
      </g>
     </g>
    </g>
    <g id="xtick_16">
     <g id="line2d_42">
      <g>
       <use style="stroke:#000000;stroke-width:0.5;" x="242.09926454" xlink:href="#mb03dec6212" y="352.8"/>
      </g>
     </g>
     <g id="line2d_43">
      <g>
       <use style="stroke:#000000;stroke-width:0.5;" x="242.09926454" xlink:href="#m90aee48060" y="7.2"/>
      </g>
     </g>
    </g>
    <g id="xtick_17">
     <g id="line2d_44">
      <g>
       <use style="stroke:#000000;stroke-width:0.5;" x="289.099427976" xlink:href="#mb03dec6212" y="352.8"/>
      </g>
     </g>
     <g id="line2d_45">
      <g>
       <use style="stroke:#000000;stroke-width:0.5;" x="289.099427976" xlink:href="#m90aee48060" y="7.2"/>
      </g>
     </g>
    </g>
    <g id="xtick_18">
     <g id="line2d_46">
      <g>
       <use style="stroke:#000000;stroke-width:0.5;" x="336.099591411" xlink:href="#mb03dec6212" y="352.8"/>
      </g>
     </g>
     <g id="line2d_47">
      <g>
       <use style="stroke:#000000;stroke-width:0.5;" x="336.099591411" xlink:href="#m90aee48060" y="7.2"/>
      </g>
     </g>
    </g>
    <g id="xtick_19">
     <g id="line2d_48">
      <g>
       <use style="stroke:#000000;stroke-width:0.5;" x="383.099754847" xlink:href="#mb03dec6212" y="352.8"/>
      </g>
     </g>
     <g id="line2d_49">
      <g>
       <use style="stroke:#000000;stroke-width:0.5;" x="383.099754847" xlink:href="#m90aee48060" y="7.2"/>
      </g>
     </g>
    </g>
    <g id="xtick_20">
     <g id="line2d_50">
      <g>
       <use style="stroke:#000000;stroke-width:0.5;" x="430.099918282" xlink:href="#mb03dec6212" y="352.8"/>
      </g>
     </g>
     <g id="line2d_51">
      <g>
       <use style="stroke:#000000;stroke-width:0.5;" x="430.099918282" xlink:href="#m90aee48060" y="7.2"/>
      </g>
     </g>
    </g>
    <g id="text_10">
     <!-- log10 of Df -->
     <defs>
      <path id="BitstreamVeraSans-Roman-20"/>
      <path d="M 30.609375 48.390625 
Q 23.390625 48.390625 19.1875 42.75 
Q 14.984375 37.109375 14.984375 27.296875 
Q 14.984375 17.484375 19.15625 11.84375 
Q 23.34375 6.203125 30.609375 6.203125 
Q 37.796875 6.203125 41.984375 11.859375 
Q 46.1875 17.53125 46.1875 27.296875 
Q 46.1875 37.015625 41.984375 42.703125 
Q 37.796875 48.390625 30.609375 48.390625 
M 30.609375 56 
Q 42.328125 56 49.015625 48.375 
Q 55.71875 40.765625 55.71875 27.296875 
Q 55.71875 13.875 49.015625 6.21875 
Q 42.328125 -1.421875 30.609375 -1.421875 
Q 18.84375 -1.421875 12.171875 6.21875 
Q 5.515625 13.875 5.515625 27.296875 
Q 5.515625 40.765625 12.171875 48.375 
Q 18.84375 56 30.609375 56 
" id="BitstreamVeraSans-Roman-6f"/>
      <path d="M 9.421875 75.984375 
L 18.40625 75.984375 
L 18.40625 0 
L 9.421875 0 
z
" id="BitstreamVeraSans-Roman-6c"/>
      <path d="M 19.671875 64.796875 
L 19.671875 8.109375 
L 31.59375 8.109375 
Q 46.6875 8.109375 53.6875 14.9375 
Q 60.6875 21.78125 60.6875 36.53125 
Q 60.6875 51.171875 53.6875 57.984375 
Q 46.6875 64.796875 31.59375 64.796875 
z
M 9.8125 72.90625 
L 30.078125 72.90625 
Q 51.265625 72.90625 61.171875 64.09375 
Q 71.09375 55.28125 71.09375 36.53125 
Q 71.09375 17.671875 61.125 8.828125 
Q 51.171875 0 30.078125 0 
L 9.8125 0 
z
" id="BitstreamVeraSans-Roman-44"/>
      <path d="M 45.40625 27.984375 
Q 45.40625 37.75 41.375 43.109375 
Q 37.359375 48.484375 30.078125 48.484375 
Q 22.859375 48.484375 18.828125 43.109375 
Q 14.796875 37.75 14.796875 27.984375 
Q 14.796875 18.265625 18.828125 12.890625 
Q 22.859375 7.515625 30.078125 7.515625 
Q 37.359375 7.515625 41.375 12.890625 
Q 45.40625 18.265625 45.40625 27.984375 
M 54.390625 6.78125 
Q 54.390625 -7.171875 48.1875 -13.984375 
Q 42 -20.796875 29.203125 -20.796875 
Q 24.46875 -20.796875 20.265625 -20.09375 
Q 16.0625 -19.390625 12.109375 -17.921875 
L 12.109375 -9.1875 
Q 16.0625 -11.328125 19.921875 -12.34375 
Q 23.78125 -13.375 27.78125 -13.375 
Q 36.625 -13.375 41.015625 -8.765625 
Q 45.40625 -4.15625 45.40625 5.171875 
L 45.40625 9.625 
Q 42.625 4.78125 38.28125 2.390625 
Q 33.9375 0 27.875 0 
Q 17.828125 0 11.671875 7.65625 
Q 5.515625 15.328125 5.515625 27.984375 
Q 5.515625 40.671875 11.671875 48.328125 
Q 17.828125 56 27.875 56 
Q 33.9375 56 38.28125 53.609375 
Q 42.625 51.21875 45.40625 46.390625 
L 45.40625 54.6875 
L 54.390625 54.6875 
z
" id="BitstreamVeraSans-Roman-67"/>
      <path d="M 37.109375 75.984375 
L 37.109375 68.5 
L 28.515625 68.5 
Q 23.6875 68.5 21.796875 66.546875 
Q 19.921875 64.59375 19.921875 59.515625 
L 19.921875 54.6875 
L 34.71875 54.6875 
L 34.71875 47.703125 
L 19.921875 47.703125 
L 19.921875 0 
L 10.890625 0 
L 10.890625 47.703125 
L 2.296875 47.703125 
L 2.296875 54.6875 
L 10.890625 54.6875 
L 10.890625 58.5 
Q 10.890625 67.625 15.140625 71.796875 
Q 19.390625 75.984375 28.609375 75.984375 
z
" id="BitstreamVeraSans-Roman-66"/>
     </defs>
     <g transform="translate(175.2140625 396.353125)scale(0.2 -0.2)">
      <use xlink:href="#BitstreamVeraSans-Roman-6c"/>
      <use x="27.783203125" xlink:href="#BitstreamVeraSans-Roman-6f"/>
      <use x="88.96484375" xlink:href="#BitstreamVeraSans-Roman-67"/>
      <use x="152.44140625" xlink:href="#BitstreamVeraSans-Roman-31"/>
      <use x="216.064453125" xlink:href="#BitstreamVeraSans-Roman-30"/>
      <use x="279.6875" xlink:href="#BitstreamVeraSans-Roman-20"/>
      <use x="311.474609375" xlink:href="#BitstreamVeraSans-Roman-6f"/>
      <use x="372.65625" xlink:href="#BitstreamVeraSans-Roman-66"/>
      <use x="407.861328125" xlink:href="#BitstreamVeraSans-Roman-20"/>
      <use x="439.6484375" xlink:href="#BitstreamVeraSans-Roman-44"/>
      <use x="516.650390625" xlink:href="#BitstreamVeraSans-Roman-66"/>
     </g>
    </g>
   </g>
   <g id="matplotlib.axis_2">
    <g id="ytick_1">
     <g id="line2d_52">
      <path clip-path="url(#pfdb019cf50)" d="M 7.2 352.8 
L 453.6 352.8 
" style="fill:none;stroke:#000000;stroke-dasharray:1.000000,3.000000;stroke-dashoffset:0.0;stroke-width:0.5;"/>
     </g>
     <g id="line2d_53">
      <defs>
       <path d="M 0 0 
L 4 0 
" id="mebe9e62ee5" style="stroke:#000000;stroke-width:0.5;"/>
      </defs>
      <g>
       <use style="stroke:#000000;stroke-width:0.5;" x="7.2" xlink:href="#mebe9e62ee5" y="352.8"/>
      </g>
     </g>
     <g id="line2d_54">
      <defs>
       <path d="M 0 0 
L -4 0 
" id="m7639abf11d" style="stroke:#000000;stroke-width:0.5;"/>
      </defs>
      <g>
       <use style="stroke:#000000;stroke-width:0.5;" x="453.6" xlink:href="#m7639abf11d" y="352.8"/>
      </g>
     </g>
    </g>
    <g id="ytick_2">
     <g id="line2d_55">
      <path clip-path="url(#pfdb019cf50)" d="M 7.2 284.364356 
L 453.6 284.364356 
" style="fill:none;stroke:#000000;stroke-dasharray:1.000000,3.000000;stroke-dashoffset:0.0;stroke-width:0.5;"/>
     </g>
     <g id="line2d_56">
      <g>
       <use style="stroke:#000000;stroke-width:0.5;" x="7.2" xlink:href="#mebe9e62ee5" y="284.364356436"/>
      </g>
     </g>
     <g id="line2d_57">
      <g>
       <use style="stroke:#000000;stroke-width:0.5;" x="453.6" xlink:href="#m7639abf11d" y="284.364356436"/>
      </g>
     </g>
    </g>
    <g id="ytick_3">
     <g id="line2d_58">
      <path clip-path="url(#pfdb019cf50)" d="M 7.2 215.928713 
L 453.6 215.928713 
" style="fill:none;stroke:#000000;stroke-dasharray:1.000000,3.000000;stroke-dashoffset:0.0;stroke-width:0.5;"/>
     </g>
     <g id="line2d_59">
      <g>
       <use style="stroke:#000000;stroke-width:0.5;" x="7.2" xlink:href="#mebe9e62ee5" y="215.928712871"/>
      </g>
     </g>
     <g id="line2d_60">
      <g>
       <use style="stroke:#000000;stroke-width:0.5;" x="453.6" xlink:href="#m7639abf11d" y="215.928712871"/>
      </g>
     </g>
    </g>
    <g id="ytick_4">
     <g id="line2d_61">
      <path clip-path="url(#pfdb019cf50)" d="M 7.2 147.493069 
L 453.6 147.493069 
" style="fill:none;stroke:#000000;stroke-dasharray:1.000000,3.000000;stroke-dashoffset:0.0;stroke-width:0.5;"/>
     </g>
     <g id="line2d_62">
      <g>
       <use style="stroke:#000000;stroke-width:0.5;" x="7.2" xlink:href="#mebe9e62ee5" y="147.493069307"/>
      </g>
     </g>
     <g id="line2d_63">
      <g>
       <use style="stroke:#000000;stroke-width:0.5;" x="453.6" xlink:href="#m7639abf11d" y="147.493069307"/>
      </g>
     </g>
    </g>
    <g id="ytick_5">
     <g id="line2d_64">
      <path clip-path="url(#pfdb019cf50)" d="M 7.2 79.057426 
L 453.6 79.057426 
" style="fill:none;stroke:#000000;stroke-dasharray:1.000000,3.000000;stroke-dashoffset:0.0;stroke-width:0.5;"/>
     </g>
     <g id="line2d_65">
      <g>
       <use style="stroke:#000000;stroke-width:0.5;" x="7.2" xlink:href="#mebe9e62ee5" y="79.0574257426"/>
      </g>
     </g>
     <g id="line2d_66">
      <g>
       <use style="stroke:#000000;stroke-width:0.5;" x="453.6" xlink:href="#m7639abf11d" y="79.0574257426"/>
      </g>
     </g>
    </g>
    <g id="ytick_6">
     <g id="line2d_67">
      <path clip-path="url(#pfdb019cf50)" d="M 7.2 10.621782 
L 453.6 10.621782 
" style="fill:none;stroke:#000000;stroke-dasharray:1.000000,3.000000;stroke-dashoffset:0.0;stroke-width:0.5;"/>
     </g>
     <g id="line2d_68">
      <g>
       <use style="stroke:#000000;stroke-width:0.5;" x="7.2" xlink:href="#mebe9e62ee5" y="10.6217821782"/>
      </g>
     </g>
     <g id="line2d_69">
      <g>
       <use style="stroke:#000000;stroke-width:0.5;" x="453.6" xlink:href="#m7639abf11d" y="10.6217821782"/>
      </g>
     </g>
    </g>
   </g>
   <g id="text_11">
    <!-- {f6-f9}, 20-D -->
    <defs>
     <path d="M 12.5 -9.28125 
L 15.921875 -9.28125 
Q 22.75 -9.28125 24.828125 -7.171875 
Q 26.90625 -5.078125 26.90625 1.90625 
L 26.90625 14.015625 
Q 26.90625 21.625 29.09375 25.09375 
Q 31.296875 28.5625 36.71875 29.890625 
Q 31.296875 31.109375 29.09375 34.5625 
Q 26.90625 38.03125 26.90625 45.703125 
L 26.90625 57.8125 
Q 26.90625 64.75 24.828125 66.875 
Q 22.75 69 15.921875 69 
L 12.5 69 
L 12.5 75.984375 
L 15.578125 75.984375 
Q 27.734375 75.984375 31.8125 72.390625 
Q 35.890625 68.796875 35.890625 58.015625 
L 35.890625 46.296875 
Q 35.890625 39.015625 38.515625 36.203125 
Q 41.15625 33.40625 48.09375 33.40625 
L 51.125 33.40625 
L 51.125 26.421875 
L 48.09375 26.421875 
Q 41.15625 26.421875 38.515625 23.578125 
Q 35.890625 20.75 35.890625 13.375 
L 35.890625 1.703125 
Q 35.890625 -9.078125 31.8125 -12.6875 
Q 27.734375 -16.3125 15.578125 -16.3125 
L 12.5 -16.3125 
z
" id="BitstreamVeraSans-Roman-7d"/>
     <path d="M 10.984375 1.515625 
L 10.984375 10.5 
Q 14.703125 8.734375 18.5 7.8125 
Q 22.3125 6.890625 25.984375 6.890625 
Q 35.75 6.890625 40.890625 13.453125 
Q 46.046875 20.015625 46.78125 33.40625 
Q 43.953125 29.203125 39.59375 26.953125 
Q 35.25 24.703125 29.984375 24.703125 
Q 19.046875 24.703125 12.671875 31.3125 
Q 6.296875 37.9375 6.296875 49.421875 
Q 6.296875 60.640625 12.9375 67.421875 
Q 19.578125 74.21875 30.609375 74.21875 
Q 43.265625 74.21875 49.921875 64.515625 
Q 56.59375 54.828125 56.59375 36.375 
Q 56.59375 19.140625 48.40625 8.859375 
Q 40.234375 -1.421875 26.421875 -1.421875 
Q 22.703125 -1.421875 18.890625 -0.6875 
Q 15.09375 0.046875 10.984375 1.515625 
M 30.609375 32.421875 
Q 37.25 32.421875 41.125 36.953125 
Q 45.015625 41.5 45.015625 49.421875 
Q 45.015625 57.28125 41.125 61.84375 
Q 37.25 66.40625 30.609375 66.40625 
Q 23.96875 66.40625 20.09375 61.84375 
Q 16.21875 57.28125 16.21875 49.421875 
Q 16.21875 41.5 20.09375 36.953125 
Q 23.96875 32.421875 30.609375 32.421875 
" id="BitstreamVeraSans-Roman-39"/>
     <path d="M 51.125 -9.28125 
L 51.125 -16.3125 
L 48.09375 -16.3125 
Q 35.9375 -16.3125 31.8125 -12.6875 
Q 27.6875 -9.078125 27.6875 1.703125 
L 27.6875 13.375 
Q 27.6875 20.75 25.046875 23.578125 
Q 22.40625 26.421875 15.484375 26.421875 
L 12.5 26.421875 
L 12.5 33.40625 
L 15.484375 33.40625 
Q 22.46875 33.40625 25.078125 36.203125 
Q 27.6875 39.015625 27.6875 46.296875 
L 27.6875 58.015625 
Q 27.6875 68.796875 31.8125 72.390625 
Q 35.9375 75.984375 48.09375 75.984375 
L 51.125 75.984375 
L 51.125 69 
L 47.796875 69 
Q 40.921875 69 38.8125 66.84375 
Q 36.71875 64.703125 36.71875 57.8125 
L 36.71875 45.703125 
Q 36.71875 38.03125 34.5 34.5625 
Q 32.28125 31.109375 26.90625 29.890625 
Q 32.328125 28.5625 34.515625 25.09375 
Q 36.71875 21.625 36.71875 14.015625 
L 36.71875 1.90625 
Q 36.71875 -4.984375 38.8125 -7.125 
Q 40.921875 -9.28125 47.796875 -9.28125 
z
" id="BitstreamVeraSans-Roman-7b"/>
     <path d="M 11.71875 12.40625 
L 22.015625 12.40625 
L 22.015625 4 
L 14.015625 -11.625 
L 7.71875 -11.625 
L 11.71875 4 
z
" id="BitstreamVeraSans-Roman-2c"/>
    </defs>
    <g transform="translate(311.697 345.888)scale(0.2 -0.2)">
     <use xlink:href="#BitstreamVeraSans-Roman-7b"/>
     <use x="63.623046875" xlink:href="#BitstreamVeraSans-Roman-66"/>
     <use x="98.828125" xlink:href="#BitstreamVeraSans-Roman-36"/>
     <use x="162.451171875" xlink:href="#BitstreamVeraSans-Roman-2d"/>
     <use x="198.53515625" xlink:href="#BitstreamVeraSans-Roman-66"/>
     <use x="233.740234375" xlink:href="#BitstreamVeraSans-Roman-39"/>
     <use x="297.36328125" xlink:href="#BitstreamVeraSans-Roman-7d"/>
     <use x="360.986328125" xlink:href="#BitstreamVeraSans-Roman-2c"/>
     <use x="392.7734375" xlink:href="#BitstreamVeraSans-Roman-20"/>
     <use x="424.560546875" xlink:href="#BitstreamVeraSans-Roman-32"/>
     <use x="488.18359375" xlink:href="#BitstreamVeraSans-Roman-30"/>
     <use x="551.806640625" xlink:href="#BitstreamVeraSans-Roman-2d"/>
     <use x="587.890625" xlink:href="#BitstreamVeraSans-Roman-44"/>
    </g>
   </g>
   <g id="text_12">
    <!-- 0.0.0 -->
    <defs>
     <path d="M 10.6875 12.40625 
L 21 12.40625 
L 21 0 
L 10.6875 0 
z
" id="BitstreamVeraSans-Roman-2e"/>
    </defs>
    <g style="fill:#808080;" transform="translate(217.678125 347.2643125)scale(0.1 -0.1)">
     <use xlink:href="#BitstreamVeraSans-Roman-30"/>
     <use x="63.623046875" xlink:href="#BitstreamVeraSans-Roman-2e"/>
     <use x="95.41015625" xlink:href="#BitstreamVeraSans-Roman-30"/>
     <use x="159.033203125" xlink:href="#BitstreamVeraSans-Roman-2e"/>
     <use x="190.8203125" xlink:href="#BitstreamVeraSans-Roman-30"/>
    </g>
   </g>
  </g>
 </g>
 <defs>
  <clipPath id="pfdb019cf50">
   <rect height="345.6" width="446.4" x="7.2" y="7.2"/>
  </clipPath>
 </defs>
</svg>
