<?xml version="1.0" encoding="utf-8" standalone="no"?>
<!DOCTYPE svg PUBLIC "-//W3C//DTD SVG 1.1//EN"
  "http://www.w3.org/Graphics/SVG/1.1/DTD/svg11.dtd">
<!-- Created with matplotlib (http://matplotlib.org/) -->
<svg height="407pt" version="1.1" viewBox="0 0 460 407" width="460pt" xmlns="http://www.w3.org/2000/svg" xmlns:xlink="http://www.w3.org/1999/xlink">
 <defs>
  <style type="text/css">
*{stroke-linecap:butt;stroke-linejoin:round;stroke-miterlimit:100000;}
  </style>
 </defs>
 <g id="figure_1">
  <g id="patch_1">
   <path d="M 0 407.7125 
L 460.8 407.7125 
L 460.8 0 
L 0 0 
z
" style="fill:#ffffff;"/>
  </g>
  <g id="axes_1">
   <g id="patch_2">
    <path d="M 7.2 352.8 
L 453.6 352.8 
L 453.6 7.2 
L 7.2 7.2 
z
" style="fill:#ffffff;"/>
   </g>
   <g id="line2d_1">
    <path clip-path="url(#p3059555d66)" d="M -1 284.364356 
L 7.098447 284.364356 
L 7.098447 215.928713 
L 53.648806 215.928713 
L 53.648806 211.366337 
L 59.028141 211.366337 
L 59.028141 206.80396 
L 63.194806 206.80396 
L 63.194806 202.241584 
L 65.209934 202.241584 
L 65.209934 197.679208 
L 69.867145 197.679208 
L 69.867145 193.116832 
L 74.019656 193.116832 
L 74.019656 188.554455 
L 76.695341 188.554455 
L 76.695341 183.992079 
L 78.014485 183.992079 
L 78.014485 179.429703 
L 79.585697 179.429703 
L 79.585697 174.867327 
L 81.093388 174.867327 
L 81.093388 170.30495 
L 89.071897 170.30495 
L 89.071897 165.742574 
L 89.878206 165.742574 
L 89.878206 161.180198 
L 98.509363 161.180198 
L 98.509363 156.617822 
L 101.420882 156.617822 
L 101.420882 152.055446 
L 115.13606 152.055446 
L 115.13606 147.493069 
L 235.717467 147.493069 
L 235.717467 142.930693 
L 236.60403 142.930693 
L 236.60403 138.368317 
L 236.756937 138.368317 
L 236.756937 133.805941 
L 238.622818 133.805941 
L 238.622818 129.243564 
L 238.866751 129.243564 
L 238.883722 120.118812 
L 239.722748 120.118812 
L 239.722748 115.556436 
L 239.83999 115.556436 
L 239.83999 110.994059 
L 240.033013 110.994059 
L 240.033013 106.431683 
L 240.239973 106.431683 
L 240.239973 101.869307 
L 240.492714 101.869307 
L 240.56158 92.744554 
L 241.055626 92.744554 
L 241.055626 88.182178 
L 241.373731 88.182178 
L 241.373731 83.619802 
L 241.568757 83.619802 
L 241.588131 74.49505 
L 241.727241 74.49505 
L 241.727241 69.932673 
L 241.871745 69.932673 
L 241.955889 60.807921 
L 242.19353 60.807921 
L 242.200939 51.683168 
L 242.36302 51.683168 
L 242.431815 37.99604 
L 242.575006 37.99604 
L 242.575006 33.433663 
L 242.880277 33.433663 
L 242.880277 28.871287 
L 243.39101 28.871287 
L 243.397824 19.746535 
L 243.548291 19.746535 
L 243.548291 15.184158 
L 244.157021 15.184158 
L 244.157021 10.621782 
L 244.157021 10.621782 
L 453.6 10.621782 
L 453.6 10.621782 
" style="fill:none;stroke:#ff0000;stroke-linecap:square;stroke-width:3.0;"/>
   </g>
   <g id="line2d_2">
    <path clip-path="url(#p3059555d66)" d="M 246.705897 352.8 
L 246.705897 348.237624 
L 247.277401 348.237624 
L 247.277401 343.675248 
L 248.99112 343.675248 
L 248.99112 339.112871 
L 250.792002 339.112871 
L 250.809813 329.988119 
L 251.319059 329.988119 
L 251.319059 325.425743 
L 251.442793 325.425743 
L 251.455468 316.30099 
L 251.582167 316.30099 
L 251.617033 307.176238 
L 251.723726 307.176238 
L 251.723726 302.613861 
L 252.145679 302.613861 
L 252.195136 293.489109 
L 252.341856 293.489109 
L 252.341856 288.926733 
L 252.900501 288.926733 
L 252.900501 284.364356 
L 253.190376 284.364356 
L 253.210143 275.239604 
L 253.453525 275.239604 
L 253.523895 266.114851 
L 254.024319 266.114851 
L 254.024319 261.552475 
L 254.469029 261.552475 
L 254.469029 256.990099 
L 254.666618 256.990099 
L 254.765331 247.865347 
L 254.898004 247.865347 
L 254.898004 243.30297 
L 255.129181 243.30297 
L 255.129181 238.740594 
L 255.323862 238.740594 
L 255.323862 234.178218 
L 255.748371 234.178218 
L 255.748371 229.615842 
L 256.124181 229.615842 
L 256.156649 220.491089 
L 257.375169 220.491089 
L 257.375169 215.928713 
L 266.378566 215.928713 
L 266.378566 211.366337 
L 267.370515 211.366337 
L 267.370515 206.80396 
L 268.877978 206.80396 
L 268.877978 202.241584 
L 269.468958 202.241584 
L 269.468958 197.679208 
L 269.8628 197.679208 
L 269.8628 193.116832 
L 270.184174 193.116832 
L 270.184174 188.554455 
L 270.598204 188.554455 
L 270.598204 183.992079 
L 270.855951 183.992079 
L 270.962414 174.867327 
L 271.043708 174.867327 
L 271.043708 170.30495 
L 271.213409 170.30495 
L 271.279872 156.617822 
L 271.418518 156.617822 
L 271.418518 152.055446 
L 271.916628 152.055446 
L 271.916628 147.493069 
L 272.411121 147.493069 
L 272.411121 142.930693 
L 272.636614 142.930693 
L 272.636614 138.368317 
L 274.243733 138.368317 
L 274.243733 133.805941 
L 275.534952 133.805941 
L 275.534952 129.243564 
L 275.866276 129.243564 
L 275.866276 124.681188 
L 276.198258 124.681188 
L 276.198258 120.118812 
L 277.97066 120.118812 
L 277.97066 115.556436 
L 278.846741 115.556436 
L 278.846741 110.994059 
L 279.580541 110.994059 
L 279.580541 106.431683 
L 281.856322 106.431683 
L 281.856322 101.869307 
L 282.262719 101.869307 
L 282.262719 97.306931 
L 284.293565 97.306931 
L 284.293565 92.744554 
L 287.695182 92.744554 
L 287.695182 88.182178 
L 288.126249 88.182178 
L 288.126249 83.619802 
L 289.793606 83.619802 
L 289.793606 79.057426 
L 351.929273 79.057426 
L 351.946421 69.932673 
L 353.578923 69.932673 
L 353.578923 65.370297 
L 358.405806 65.370297 
L 358.405806 60.807921 
L 358.76956 60.807921 
L 358.76956 56.245545 
L 359.05422 56.245545 
L 359.089328 47.120792 
L 359.247079 47.120792 
L 359.247079 42.558416 
L 361.296587 42.558416 
L 361.296587 37.99604 
L 361.587813 37.99604 
L 361.587813 33.433663 
L 362.236522 33.433663 
L 362.236522 28.871287 
L 363.677417 28.871287 
L 363.677417 24.308911 
L 364.183372 24.308911 
L 364.183372 19.746535 
L 367.08535 19.746535 
L 367.08535 15.184158 
L 371.499615 15.184158 
L 371.499615 10.621782 
L 371.499615 10.621782 
L 453.6 10.621782 
L 453.6 10.621782 
" style="fill:none;stroke:#00bfbf;stroke-linecap:square;"/>
   </g>
   <g id="line2d_3">
    <path clip-path="url(#p3059555d66)" d="M 245.791636 352.8 
L 245.791636 348.237624 
L 246.40419 348.237624 
L 246.40419 343.675248 
L 246.941552 343.675248 
L 246.941552 339.112871 
L 248.99112 339.112871 
L 248.99112 334.550495 
L 249.252579 334.550495 
L 249.252579 329.988119 
L 249.783771 329.988119 
L 249.783771 325.425743 
L 250.792002 325.425743 
L 250.792002 320.863366 
L 251.180563 320.863366 
L 251.217214 311.738614 
L 251.319059 311.738614 
L 251.319059 307.176238 
L 251.455468 307.176238 
L 251.455468 302.613861 
L 251.582167 302.613861 
L 251.617033 288.926733 
L 251.723726 288.926733 
L 251.723726 284.364356 
L 252.301458 284.364356 
L 252.341856 275.239604 
L 252.777724 275.239604 
L 252.777724 270.677228 
L 252.900501 270.677228 
L 252.900501 266.114851 
L 253.165841 266.114851 
L 253.165841 261.552475 
L 253.453525 261.552475 
L 253.453525 256.990099 
L 253.84442 256.990099 
L 253.8632 247.865347 
L 254.615211 247.865347 
L 254.666618 238.740594 
L 254.765331 238.740594 
L 254.765331 234.178218 
L 255.323862 234.178218 
L 255.323862 229.615842 
L 255.518431 229.615842 
L 255.518431 225.053465 
L 255.823914 225.053465 
L 255.823914 220.491089 
L 256.440241 220.491089 
L 256.440241 215.928713 
L 261.499746 215.928713 
L 261.499746 211.366337 
L 264.848462 211.366337 
L 264.848462 206.80396 
L 265.586929 206.80396 
L 265.586929 202.241584 
L 266.286881 202.241584 
L 266.286881 197.679208 
L 267.370515 197.679208 
L 267.370515 193.116832 
L 268.573911 193.116832 
L 268.573911 188.554455 
L 269.068233 188.554455 
L 269.068233 183.992079 
L 269.416521 183.992079 
L 269.468958 174.867327 
L 269.573177 174.867327 
L 269.583865 165.742574 
L 270.367537 165.742574 
L 270.367537 161.180198 
L 270.654748 161.180198 
L 270.654748 156.617822 
L 270.915616 156.617822 
L 270.915616 152.055446 
L 271.043708 152.055446 
L 271.043708 147.493069 
L 271.220447 147.493069 
L 271.279872 138.368317 
L 271.794558 138.368317 
L 271.794558 133.805941 
L 271.916628 133.805941 
L 271.916628 129.243564 
L 272.411121 129.243564 
L 272.411121 124.681188 
L 272.564666 124.681188 
L 272.564666 120.118812 
L 273.324707 120.118812 
L 273.324707 115.556436 
L 277.97066 115.556436 
L 277.97066 110.994059 
L 279.580541 110.994059 
L 279.580541 106.431683 
L 279.79166 106.431683 
L 279.79166 101.869307 
L 279.998736 101.869307 
L 279.998736 97.306931 
L 280.436999 97.306931 
L 280.436999 92.744554 
L 281.780035 92.744554 
L 281.780035 88.182178 
L 283.705339 88.182178 
L 283.705339 83.619802 
L 287.695182 83.619802 
L 287.695182 79.057426 
L 341.431828 79.057426 
L 341.431828 74.49505 
L 345.981126 74.49505 
L 345.981126 69.932673 
L 347.573362 69.932673 
L 347.573362 65.370297 
L 351.929273 65.370297 
L 351.946421 56.245545 
L 353.002444 56.245545 
L 353.002444 51.683168 
L 353.507013 51.683168 
L 353.507013 47.120792 
L 357.012681 47.120792 
L 357.012681 42.558416 
L 358.76956 42.558416 
L 358.76956 37.99604 
L 359.05422 37.99604 
L 359.05422 33.433663 
L 359.247079 33.433663 
L 359.247079 28.871287 
L 361.524961 28.871287 
L 361.524961 24.308911 
L 362.236522 24.308911 
L 362.236522 19.746535 
L 364.183372 19.746535 
L 364.183372 15.184158 
L 368.495825 15.184158 
L 368.495825 10.621782 
L 368.495825 10.621782 
L 453.6 10.621782 
L 453.6 10.621782 
" style="fill:none;stroke:#bf00bf;stroke-linecap:square;"/>
   </g>
   <g id="line2d_4">
    <path clip-path="url(#p3059555d66)" d="M 245.791636 352.8 
L 245.791636 348.237624 
L 246.40419 348.237624 
L 246.40419 343.675248 
L 246.916533 343.675248 
L 246.941552 334.550495 
L 248.461228 334.550495 
L 248.461228 329.988119 
L 248.817723 329.988119 
L 248.817723 325.425743 
L 248.99112 325.425743 
L 248.99112 320.863366 
L 249.515678 320.863366 
L 249.515678 316.30099 
L 249.636871 316.30099 
L 249.641907 307.176238 
L 249.783771 307.176238 
L 249.783771 302.613861 
L 250.177995 302.613861 
L 250.177995 298.051485 
L 250.951061 298.051485 
L 250.951061 293.489109 
L 251.077637 293.489109 
L 251.148319 284.364356 
L 251.617033 284.364356 
L 251.723726 275.239604 
L 251.943088 275.239604 
L 251.943088 270.677228 
L 252.062168 270.677228 
L 252.062168 266.114851 
L 252.341856 266.114851 
L 252.341856 261.552475 
L 252.485852 261.552475 
L 252.485852 256.990099 
L 252.644406 256.990099 
L 252.644406 252.427723 
L 252.777724 252.427723 
L 252.777724 247.865347 
L 253.165841 247.865347 
L 253.165841 243.30297 
L 253.610993 243.30297 
L 253.610993 238.740594 
L 254.245653 238.740594 
L 254.245653 234.178218 
L 254.412395 234.178218 
L 254.514299 225.053465 
L 254.929992 225.053465 
L 254.929992 220.491089 
L 255.138911 220.491089 
L 255.138911 215.928713 
L 261.499746 215.928713 
L 261.499746 211.366337 
L 263.84887 211.366337 
L 263.84887 206.80396 
L 264.848462 206.80396 
L 264.848462 202.241584 
L 265.586929 202.241584 
L 265.586929 197.679208 
L 266.286881 197.679208 
L 266.286881 193.116832 
L 267.184234 193.116832 
L 267.184234 188.554455 
L 267.359669 188.554455 
L 267.370515 179.429703 
L 267.674419 179.429703 
L 267.674419 174.867327 
L 268.365363 174.867327 
L 268.365363 170.30495 
L 268.726415 170.30495 
L 268.726415 165.742574 
L 268.934559 165.742574 
L 268.975375 156.617822 
L 269.068233 156.617822 
L 269.068233 152.055446 
L 269.416521 152.055446 
L 269.416521 147.493069 
L 269.583865 147.493069 
L 269.583865 142.930693 
L 270.063662 142.930693 
L 270.063662 138.368317 
L 270.654748 138.368317 
L 270.654748 133.805941 
L 270.929288 133.805941 
L 270.929288 129.243564 
L 271.043708 129.243564 
L 271.043708 124.681188 
L 271.220447 124.681188 
L 271.220447 120.118812 
L 271.794558 120.118812 
L 271.794558 115.556436 
L 271.916628 115.556436 
L 271.916628 110.994059 
L 272.27515 110.994059 
L 272.27515 106.431683 
L 272.431639 106.431683 
L 272.431639 101.869307 
L 275.87261 101.869307 
L 275.87261 97.306931 
L 276.391083 97.306931 
L 276.391083 92.744554 
L 277.570921 92.744554 
L 277.570921 88.182178 
L 279.513655 88.182178 
L 279.513655 83.619802 
L 281.098479 83.619802 
L 281.098479 79.057426 
L 341.143048 79.057426 
L 341.143048 74.49505 
L 345.981126 74.49505 
L 345.981126 69.932673 
L 347.573362 69.932673 
L 347.573362 65.370297 
L 349.277847 65.370297 
L 349.277847 60.807921 
L 351.784625 60.807921 
L 351.784625 56.245545 
L 351.929273 56.245545 
L 351.929273 51.683168 
L 353.002444 51.683168 
L 353.002444 47.120792 
L 357.012681 47.120792 
L 357.012681 42.558416 
L 357.439915 42.558416 
L 357.439915 37.99604 
L 357.78071 37.99604 
L 357.78071 33.433663 
L 357.967122 33.433663 
L 357.967122 28.871287 
L 359.247079 28.871287 
L 359.247079 24.308911 
L 360.254107 24.308911 
L 360.254107 19.746535 
L 364.183372 19.746535 
L 364.183372 15.184158 
L 364.993853 15.184158 
L 364.993853 10.621782 
L 364.993853 10.621782 
L 453.6 10.621782 
L 453.6 10.621782 
" style="fill:none;stroke:#000000;stroke-linecap:square;"/>
   </g>
   <g id="line2d_5">
    <path clip-path="url(#p3059555d66)" d="M 238.969279 352.8 
L 238.969279 348.237624 
L 243.177214 348.237624 
L 243.177214 343.675248 
L 243.431981 343.675248 
L 243.431981 339.112871 
L 243.791919 339.112871 
L 243.791919 334.550495 
L 243.955827 334.550495 
L 243.955827 329.988119 
L 244.208699 329.988119 
L 244.208699 325.425743 
L 244.415717 325.425743 
L 244.415717 320.863366 
L 245.622186 320.863366 
L 245.622186 316.30099 
L 245.913091 316.30099 
L 245.913091 311.738614 
L 246.680181 311.738614 
L 246.680181 307.176238 
L 246.899065 307.176238 
L 246.899065 302.613861 
L 247.011315 302.613861 
L 247.011315 298.051485 
L 247.44232 298.051485 
L 247.44232 293.489109 
L 247.715994 293.489109 
L 247.715994 288.926733 
L 247.832028 288.926733 
L 247.832028 284.364356 
L 248.035912 284.364356 
L 248.035912 279.80198 
L 248.270409 279.80198 
L 248.270409 275.239604 
L 248.732538 275.239604 
L 248.732538 270.677228 
L 249.081798 270.677228 
L 249.18786 261.552475 
L 249.433712 261.552475 
L 249.515678 247.865347 
L 249.58671 247.865347 
L 249.58671 243.30297 
L 249.985184 243.30297 
L 249.985184 238.740594 
L 250.965739 238.740594 
L 251.063595 229.615842 
L 251.482617 229.615842 
L 251.498424 220.491089 
L 253.783586 220.491089 
L 253.783586 215.928713 
L 259.743667 215.928713 
L 259.743667 211.366337 
L 260.631061 211.366337 
L 260.631061 206.80396 
L 261.072604 206.80396 
L 261.072604 202.241584 
L 261.402095 202.241584 
L 261.402095 197.679208 
L 262.984677 197.679208 
L 263.076487 183.992079 
L 263.381282 183.992079 
L 263.381282 179.429703 
L 263.501177 179.429703 
L 263.501177 174.867327 
L 264.187889 174.867327 
L 264.187889 170.30495 
L 264.392645 170.30495 
L 264.392645 165.742574 
L 264.819114 165.742574 
L 264.819114 161.180198 
L 265.457087 161.180198 
L 265.457087 156.617822 
L 265.933464 156.617822 
L 265.933464 152.055446 
L 266.391118 152.055446 
L 266.391118 147.493069 
L 266.568155 147.493069 
L 266.59664 138.368317 
L 266.72466 138.368317 
L 266.72466 133.805941 
L 267.472658 133.805941 
L 267.519691 124.681188 
L 268.068801 124.681188 
L 268.068801 120.118812 
L 268.439575 120.118812 
L 268.439575 115.556436 
L 268.887423 115.556436 
L 268.887423 110.994059 
L 270.063662 110.994059 
L 270.063662 106.431683 
L 271.14783 106.431683 
L 271.14783 101.869307 
L 271.385759 101.869307 
L 271.411424 92.744554 
L 271.655182 92.744554 
L 271.655182 88.182178 
L 272.27515 88.182178 
L 272.27515 83.619802 
L 272.75125 83.619802 
L 272.75125 79.057426 
L 337.51795 79.057426 
L 337.51795 74.49505 
L 338.154499 74.49505 
L 338.154499 69.932673 
L 344.091472 69.932673 
L 344.091472 65.370297 
L 344.500219 65.370297 
L 344.500219 60.807921 
L 344.631918 60.807921 
L 344.631918 56.245545 
L 345.166029 56.245545 
L 345.166029 51.683168 
L 346.665451 51.683168 
L 346.665451 47.120792 
L 347.121093 47.120792 
L 347.121093 42.558416 
L 347.518986 42.558416 
L 347.625629 33.433663 
L 348.490943 33.433663 
L 348.490943 28.871287 
L 350.018568 28.871287 
L 350.018568 24.308911 
L 350.301793 24.308911 
L 350.301793 19.746535 
L 350.968077 19.746535 
L 350.968077 15.184158 
L 354.097069 15.184158 
L 354.097069 10.621782 
L 354.097069 10.621782 
L 453.6 10.621782 
L 453.6 10.621782 
" style="fill:none;stroke:#00bfbf;stroke-linecap:square;"/>
   </g>
   <g id="line2d_6">
    <path clip-path="url(#p3059555d66)" d="M 7.098447 352.8 
L 7.098447 348.237624 
L 7.098447 348.237624 
L 7.098447 348.237624 
L 7.098447 343.675248 
L 7.098447 343.675248 
L 7.098447 343.675248 
L 7.098447 339.112871 
L 7.098447 339.112871 
L 7.098447 339.112871 
L 7.098447 334.550495 
L 7.098447 334.550495 
L 7.098447 334.550495 
L 7.098447 329.988119 
L 7.098447 329.988119 
L 7.098447 329.988119 
L 7.098447 325.425743 
L 7.098447 325.425743 
L 7.098447 325.425743 
L 7.098447 320.863366 
L 7.098447 320.863366 
L 7.098447 320.863366 
L 7.098447 316.30099 
L 7.098447 316.30099 
L 7.098447 316.30099 
L 7.098447 311.738614 
L 7.098447 311.738614 
L 7.098447 311.738614 
L 7.098447 307.176238 
L 7.098447 307.176238 
L 7.098447 307.176238 
L 7.098447 302.613861 
L 7.098447 302.613861 
L 7.098447 302.613861 
L 7.098447 298.051485 
L 7.098447 298.051485 
L 7.098447 298.051485 
L 7.098447 293.489109 
L 7.098447 293.489109 
L 7.098447 293.489109 
L 7.098447 288.926733 
L 7.098447 288.926733 
L 7.098447 288.926733 
L 7.098447 284.364356 
L 197.134873 284.364356 
L 197.208541 275.239604 
L 198.598187 275.239604 
L 198.598187 270.677228 
L 199.012878 270.677228 
L 199.012878 266.114851 
L 201.113904 266.114851 
L 201.113904 261.552475 
L 202.263778 261.552475 
L 202.263778 256.990099 
L 204.401242 256.990099 
L 204.401242 252.427723 
L 205.111723 252.427723 
L 205.111723 247.865347 
L 205.454718 247.865347 
L 205.496346 238.740594 
L 206.450405 238.740594 
L 206.450405 234.178218 
L 207.255239 234.178218 
L 207.255239 229.615842 
L 208.077094 229.615842 
L 208.077094 225.053465 
L 209.761692 225.053465 
L 209.761692 220.491089 
L 210.640357 220.491089 
L 210.640357 215.928713 
L 245.965273 215.928713 
L 245.965273 211.366337 
L 246.122324 211.366337 
L 246.156042 202.241584 
L 246.540602 202.241584 
L 246.540602 197.679208 
L 246.817978 197.679208 
L 246.817978 193.116832 
L 247.112358 193.116832 
L 247.193942 179.429703 
L 247.8227 179.429703 
L 247.859569 170.30495 
L 248.053882 170.30495 
L 248.118411 156.617822 
L 248.335592 156.617822 
L 248.335592 152.055446 
L 249.513993 152.055446 
L 249.513993 147.493069 
L 250.208651 147.493069 
L 250.208651 142.930693 
L 251.5956 142.930693 
L 251.682659 129.243564 
L 251.919057 129.243564 
L 251.919057 124.681188 
L 252.061227 124.681188 
L 252.067338 115.556436 
L 252.761503 115.556436 
L 252.790657 106.431683 
L 253.424524 106.431683 
L 253.424524 101.869307 
L 253.727547 101.869307 
L 253.766504 92.744554 
L 254.52243 92.744554 
L 254.52243 88.182178 
L 255.067787 88.182178 
L 255.067787 83.619802 
L 256.161121 83.619802 
L 256.161121 79.057426 
L 305.503826 79.057426 
L 305.503826 74.49505 
L 306.074408 74.49505 
L 306.074408 69.932673 
L 306.282794 69.932673 
L 306.282794 65.370297 
L 306.402415 65.370297 
L 306.402415 60.807921 
L 306.825968 60.807921 
L 306.825968 56.245545 
L 307.018396 56.245545 
L 307.018396 51.683168 
L 307.419145 51.683168 
L 307.419145 47.120792 
L 308.371309 47.120792 
L 308.371309 42.558416 
L 309.743624 42.558416 
L 309.743624 37.99604 
L 310.459581 37.99604 
L 310.459581 33.433663 
L 310.833813 33.433663 
L 310.833813 28.871287 
L 311.180264 28.871287 
L 311.180264 24.308911 
L 312.51784 24.308911 
L 312.51784 19.746535 
L 313.423471 19.746535 
L 313.423471 15.184158 
L 319.516363 15.184158 
L 319.516363 10.621782 
L 319.516363 10.621782 
L 453.6 10.621782 
L 453.6 10.621782 
" style="fill:none;stroke:#bf00bf;stroke-linecap:square;"/>
   </g>
   <g id="patch_3">
    <path d="M 7.2 7.2 
L 453.6 7.2 
" style="fill:none;stroke:#000000;stroke-linecap:square;stroke-linejoin:miter;"/>
   </g>
   <g id="patch_4">
    <path d="M 453.6 352.8 
L 453.6 7.2 
" style="fill:none;stroke:#000000;stroke-linecap:square;stroke-linejoin:miter;"/>
   </g>
   <g id="patch_5">
    <path d="M 7.2 352.8 
L 453.6 352.8 
" style="fill:none;stroke:#000000;stroke-linecap:square;stroke-linejoin:miter;"/>
   </g>
   <g id="patch_6">
    <path d="M 7.2 352.8 
L 7.2 7.2 
" style="fill:none;stroke:#000000;stroke-linecap:square;stroke-linejoin:miter;"/>
   </g>
   <g id="matplotlib.axis_1">
    <g id="xtick_1"/>
    <g id="xtick_2">
     <g id="line2d_7">
      <path clip-path="url(#p3059555d66)" d="M 54.098611 352.8 
L 54.098611 7.2 
" style="fill:none;stroke:#000000;stroke-dasharray:1.000000,3.000000;stroke-dashoffset:0.0;stroke-width:0.5;"/>
     </g>
     <g id="line2d_8">
      <defs>
       <path d="M 0 0 
L 0 -4 
" id="me4b737cb45" style="stroke:#000000;stroke-width:0.5;"/>
      </defs>
      <g>
       <use style="stroke:#000000;stroke-width:0.5;" x="54.0986107985" xlink:href="#me4b737cb45" y="352.8"/>
      </g>
     </g>
     <g id="line2d_9">
      <defs>
       <path d="M 0 0 
L 0 4 
" id="mdc0d3d1c1c" style="stroke:#000000;stroke-width:0.5;"/>
      </defs>
      <g>
       <use style="stroke:#000000;stroke-width:0.5;" x="54.0986107985" xlink:href="#mdc0d3d1c1c" y="7.2"/>
      </g>
     </g>
     <g id="text_1">
      <!-- -6 -->
      <defs>
       <path d="M 33.015625 40.375 
Q 26.375 40.375 22.484375 35.828125 
Q 18.609375 31.296875 18.609375 23.390625 
Q 18.609375 15.53125 22.484375 10.953125 
Q 26.375 6.390625 33.015625 6.390625 
Q 39.65625 6.390625 43.53125 10.953125 
Q 47.40625 15.53125 47.40625 23.390625 
Q 47.40625 31.296875 43.53125 35.828125 
Q 39.65625 40.375 33.015625 40.375 
M 52.59375 71.296875 
L 52.59375 62.3125 
Q 48.875 64.0625 45.09375 64.984375 
Q 41.3125 65.921875 37.59375 65.921875 
Q 27.828125 65.921875 22.671875 59.328125 
Q 17.53125 52.734375 16.796875 39.40625 
Q 19.671875 43.65625 24.015625 45.921875 
Q 28.375 48.1875 33.59375 48.1875 
Q 44.578125 48.1875 50.953125 41.515625 
Q 57.328125 34.859375 57.328125 23.390625 
Q 57.328125 12.15625 50.6875 5.359375 
Q 44.046875 -1.421875 33.015625 -1.421875 
Q 20.359375 -1.421875 13.671875 8.265625 
Q 6.984375 17.96875 6.984375 36.375 
Q 6.984375 53.65625 15.1875 63.9375 
Q 23.390625 74.21875 37.203125 74.21875 
Q 40.921875 74.21875 44.703125 73.484375 
Q 48.484375 72.75 52.59375 71.296875 
" id="BitstreamVeraSans-Roman-36"/>
       <path d="M 4.890625 31.390625 
L 31.203125 31.390625 
L 31.203125 23.390625 
L 4.890625 23.390625 
z
" id="BitstreamVeraSans-Roman-2d"/>
      </defs>
      <g transform="translate(44.1282982985 371.996875)scale(0.2 -0.2)">
       <use xlink:href="#BitstreamVeraSans-Roman-2d"/>
       <use x="36.083984375" xlink:href="#BitstreamVeraSans-Roman-36"/>
      </g>
     </g>
    </g>
    <g id="xtick_3">
     <g id="line2d_10">
      <path clip-path="url(#p3059555d66)" d="M 101.098774 352.8 
L 101.098774 7.2 
" style="fill:none;stroke:#000000;stroke-dasharray:1.000000,3.000000;stroke-dashoffset:0.0;stroke-width:0.5;"/>
     </g>
     <g id="line2d_11">
      <g>
       <use style="stroke:#000000;stroke-width:0.5;" x="101.098774234" xlink:href="#me4b737cb45" y="352.8"/>
      </g>
     </g>
     <g id="line2d_12">
      <g>
       <use style="stroke:#000000;stroke-width:0.5;" x="101.098774234" xlink:href="#mdc0d3d1c1c" y="7.2"/>
      </g>
     </g>
     <g id="text_2">
      <!-- -4 -->
      <defs>
       <path d="M 37.796875 64.3125 
L 12.890625 25.390625 
L 37.796875 25.390625 
z
M 35.203125 72.90625 
L 47.609375 72.90625 
L 47.609375 25.390625 
L 58.015625 25.390625 
L 58.015625 17.1875 
L 47.609375 17.1875 
L 47.609375 0 
L 37.796875 0 
L 37.796875 17.1875 
L 4.890625 17.1875 
L 4.890625 26.703125 
z
" id="BitstreamVeraSans-Roman-34"/>
      </defs>
      <g transform="translate(91.1284617339 371.996875)scale(0.2 -0.2)">
       <use xlink:href="#BitstreamVeraSans-Roman-2d"/>
       <use x="36.083984375" xlink:href="#BitstreamVeraSans-Roman-34"/>
      </g>
     </g>
    </g>
    <g id="xtick_4">
     <g id="line2d_13">
      <path clip-path="url(#p3059555d66)" d="M 148.098938 352.8 
L 148.098938 7.2 
" style="fill:none;stroke:#000000;stroke-dasharray:1.000000,3.000000;stroke-dashoffset:0.0;stroke-width:0.5;"/>
     </g>
     <g id="line2d_14">
      <g>
       <use style="stroke:#000000;stroke-width:0.5;" x="148.098937669" xlink:href="#me4b737cb45" y="352.8"/>
      </g>
     </g>
     <g id="line2d_15">
      <g>
       <use style="stroke:#000000;stroke-width:0.5;" x="148.098937669" xlink:href="#mdc0d3d1c1c" y="7.2"/>
      </g>
     </g>
     <g id="text_3">
      <!-- -2 -->
      <defs>
       <path d="M 19.1875 8.296875 
L 53.609375 8.296875 
L 53.609375 0 
L 7.328125 0 
L 7.328125 8.296875 
Q 12.9375 14.109375 22.625 23.890625 
Q 32.328125 33.6875 34.8125 36.53125 
Q 39.546875 41.84375 41.421875 45.53125 
Q 43.3125 49.21875 43.3125 52.78125 
Q 43.3125 58.59375 39.234375 62.25 
Q 35.15625 65.921875 28.609375 65.921875 
Q 23.96875 65.921875 18.8125 64.3125 
Q 13.671875 62.703125 7.8125 59.421875 
L 7.8125 69.390625 
Q 13.765625 71.78125 18.9375 73 
Q 24.125 74.21875 28.421875 74.21875 
Q 39.75 74.21875 46.484375 68.546875 
Q 53.21875 62.890625 53.21875 53.421875 
Q 53.21875 48.921875 51.53125 44.890625 
Q 49.859375 40.875 45.40625 35.40625 
Q 44.1875 33.984375 37.640625 27.21875 
Q 31.109375 20.453125 19.1875 8.296875 
" id="BitstreamVeraSans-Roman-32"/>
      </defs>
      <g transform="translate(138.128625169 371.996875)scale(0.2 -0.2)">
       <use xlink:href="#BitstreamVeraSans-Roman-2d"/>
       <use x="36.083984375" xlink:href="#BitstreamVeraSans-Roman-32"/>
      </g>
     </g>
    </g>
    <g id="xtick_5">
     <g id="line2d_16">
      <path clip-path="url(#p3059555d66)" d="M 195.099101 352.8 
L 195.099101 7.2 
" style="fill:none;stroke:#000000;stroke-dasharray:1.000000,3.000000;stroke-dashoffset:0.0;stroke-width:0.5;"/>
     </g>
     <g id="line2d_17">
      <g>
       <use style="stroke:#000000;stroke-width:0.5;" x="195.099101105" xlink:href="#me4b737cb45" y="352.8"/>
      </g>
     </g>
     <g id="line2d_18">
      <g>
       <use style="stroke:#000000;stroke-width:0.5;" x="195.099101105" xlink:href="#mdc0d3d1c1c" y="7.2"/>
      </g>
     </g>
     <g id="text_4">
      <!-- 0 -->
      <defs>
       <path d="M 31.78125 66.40625 
Q 24.171875 66.40625 20.328125 58.90625 
Q 16.5 51.421875 16.5 36.375 
Q 16.5 21.390625 20.328125 13.890625 
Q 24.171875 6.390625 31.78125 6.390625 
Q 39.453125 6.390625 43.28125 13.890625 
Q 47.125 21.390625 47.125 36.375 
Q 47.125 51.421875 43.28125 58.90625 
Q 39.453125 66.40625 31.78125 66.40625 
M 31.78125 74.21875 
Q 44.046875 74.21875 50.515625 64.515625 
Q 56.984375 54.828125 56.984375 36.375 
Q 56.984375 17.96875 50.515625 8.265625 
Q 44.046875 -1.421875 31.78125 -1.421875 
Q 19.53125 -1.421875 13.0625 8.265625 
Q 6.59375 17.96875 6.59375 36.375 
Q 6.59375 54.828125 13.0625 64.515625 
Q 19.53125 74.21875 31.78125 74.21875 
" id="BitstreamVeraSans-Roman-30"/>
      </defs>
      <g transform="translate(188.736601105 371.996875)scale(0.2 -0.2)">
       <use xlink:href="#BitstreamVeraSans-Roman-30"/>
      </g>
     </g>
    </g>
    <g id="xtick_6">
     <g id="line2d_19">
      <path clip-path="url(#p3059555d66)" d="M 242.099265 352.8 
L 242.099265 7.2 
" style="fill:none;stroke:#000000;stroke-dasharray:1.000000,3.000000;stroke-dashoffset:0.0;stroke-width:0.5;"/>
     </g>
     <g id="line2d_20">
      <g>
       <use style="stroke:#000000;stroke-width:0.5;" x="242.09926454" xlink:href="#me4b737cb45" y="352.8"/>
      </g>
     </g>
     <g id="line2d_21">
      <g>
       <use style="stroke:#000000;stroke-width:0.5;" x="242.09926454" xlink:href="#mdc0d3d1c1c" y="7.2"/>
      </g>
     </g>
     <g id="text_5">
      <!-- 2 -->
      <g transform="translate(235.73676454 371.996875)scale(0.2 -0.2)">
       <use xlink:href="#BitstreamVeraSans-Roman-32"/>
      </g>
     </g>
    </g>
    <g id="xtick_7">
     <g id="line2d_22">
      <path clip-path="url(#p3059555d66)" d="M 289.099428 352.8 
L 289.099428 7.2 
" style="fill:none;stroke:#000000;stroke-dasharray:1.000000,3.000000;stroke-dashoffset:0.0;stroke-width:0.5;"/>
     </g>
     <g id="line2d_23">
      <g>
       <use style="stroke:#000000;stroke-width:0.5;" x="289.099427976" xlink:href="#me4b737cb45" y="352.8"/>
      </g>
     </g>
     <g id="line2d_24">
      <g>
       <use style="stroke:#000000;stroke-width:0.5;" x="289.099427976" xlink:href="#mdc0d3d1c1c" y="7.2"/>
      </g>
     </g>
     <g id="text_6">
      <!-- 4 -->
      <g transform="translate(282.736927976 371.996875)scale(0.2 -0.2)">
       <use xlink:href="#BitstreamVeraSans-Roman-34"/>
      </g>
     </g>
    </g>
    <g id="xtick_8">
     <g id="line2d_25">
      <path clip-path="url(#p3059555d66)" d="M 336.099591 352.8 
L 336.099591 7.2 
" style="fill:none;stroke:#000000;stroke-dasharray:1.000000,3.000000;stroke-dashoffset:0.0;stroke-width:0.5;"/>
     </g>
     <g id="line2d_26">
      <g>
       <use style="stroke:#000000;stroke-width:0.5;" x="336.099591411" xlink:href="#me4b737cb45" y="352.8"/>
      </g>
     </g>
     <g id="line2d_27">
      <g>
       <use style="stroke:#000000;stroke-width:0.5;" x="336.099591411" xlink:href="#mdc0d3d1c1c" y="7.2"/>
      </g>
     </g>
     <g id="text_7">
      <!-- 6 -->
      <g transform="translate(329.737091411 371.996875)scale(0.2 -0.2)">
       <use xlink:href="#BitstreamVeraSans-Roman-36"/>
      </g>
     </g>
    </g>
    <g id="xtick_9">
     <g id="line2d_28">
      <path clip-path="url(#p3059555d66)" d="M 383.099755 352.8 
L 383.099755 7.2 
" style="fill:none;stroke:#000000;stroke-dasharray:1.000000,3.000000;stroke-dashoffset:0.0;stroke-width:0.5;"/>
     </g>
     <g id="line2d_29">
      <g>
       <use style="stroke:#000000;stroke-width:0.5;" x="383.099754847" xlink:href="#me4b737cb45" y="352.8"/>
      </g>
     </g>
     <g id="line2d_30">
      <g>
       <use style="stroke:#000000;stroke-width:0.5;" x="383.099754847" xlink:href="#mdc0d3d1c1c" y="7.2"/>
      </g>
     </g>
     <g id="text_8">
      <!-- 8 -->
      <defs>
       <path d="M 31.78125 34.625 
Q 24.75 34.625 20.71875 30.859375 
Q 16.703125 27.09375 16.703125 20.515625 
Q 16.703125 13.921875 20.71875 10.15625 
Q 24.75 6.390625 31.78125 6.390625 
Q 38.8125 6.390625 42.859375 10.171875 
Q 46.921875 13.96875 46.921875 20.515625 
Q 46.921875 27.09375 42.890625 30.859375 
Q 38.875 34.625 31.78125 34.625 
M 21.921875 38.8125 
Q 15.578125 40.375 12.03125 44.71875 
Q 8.5 49.078125 8.5 55.328125 
Q 8.5 64.0625 14.71875 69.140625 
Q 20.953125 74.21875 31.78125 74.21875 
Q 42.671875 74.21875 48.875 69.140625 
Q 55.078125 64.0625 55.078125 55.328125 
Q 55.078125 49.078125 51.53125 44.71875 
Q 48 40.375 41.703125 38.8125 
Q 48.828125 37.15625 52.796875 32.3125 
Q 56.78125 27.484375 56.78125 20.515625 
Q 56.78125 9.90625 50.3125 4.234375 
Q 43.84375 -1.421875 31.78125 -1.421875 
Q 19.734375 -1.421875 13.25 4.234375 
Q 6.78125 9.90625 6.78125 20.515625 
Q 6.78125 27.484375 10.78125 32.3125 
Q 14.796875 37.15625 21.921875 38.8125 
M 18.3125 54.390625 
Q 18.3125 48.734375 21.84375 45.5625 
Q 25.390625 42.390625 31.78125 42.390625 
Q 38.140625 42.390625 41.71875 45.5625 
Q 45.3125 48.734375 45.3125 54.390625 
Q 45.3125 60.0625 41.71875 63.234375 
Q 38.140625 66.40625 31.78125 66.40625 
Q 25.390625 66.40625 21.84375 63.234375 
Q 18.3125 60.0625 18.3125 54.390625 
" id="BitstreamVeraSans-Roman-38"/>
      </defs>
      <g transform="translate(376.737254847 371.996875)scale(0.2 -0.2)">
       <use xlink:href="#BitstreamVeraSans-Roman-38"/>
      </g>
     </g>
    </g>
    <g id="xtick_10">
     <g id="line2d_31">
      <path clip-path="url(#p3059555d66)" d="M 430.099918 352.8 
L 430.099918 7.2 
" style="fill:none;stroke:#000000;stroke-dasharray:1.000000,3.000000;stroke-dashoffset:0.0;stroke-width:0.5;"/>
     </g>
     <g id="line2d_32">
      <g>
       <use style="stroke:#000000;stroke-width:0.5;" x="430.099918282" xlink:href="#me4b737cb45" y="352.8"/>
      </g>
     </g>
     <g id="line2d_33">
      <g>
       <use style="stroke:#000000;stroke-width:0.5;" x="430.099918282" xlink:href="#mdc0d3d1c1c" y="7.2"/>
      </g>
     </g>
     <g id="text_9">
      <!-- 10 -->
      <defs>
       <path d="M 12.40625 8.296875 
L 28.515625 8.296875 
L 28.515625 63.921875 
L 10.984375 60.40625 
L 10.984375 69.390625 
L 28.421875 72.90625 
L 38.28125 72.90625 
L 38.28125 8.296875 
L 54.390625 8.296875 
L 54.390625 0 
L 12.40625 0 
z
" id="BitstreamVeraSans-Roman-31"/>
      </defs>
      <g transform="translate(417.374918282 371.996875)scale(0.2 -0.2)">
       <use xlink:href="#BitstreamVeraSans-Roman-31"/>
       <use x="63.623046875" xlink:href="#BitstreamVeraSans-Roman-30"/>
      </g>
     </g>
    </g>
    <g id="xtick_11"/>
    <g id="xtick_12">
     <g id="line2d_34">
      <defs>
       <path d="M 0 0 
L 0 -2 
" id="mf94c477925" style="stroke:#000000;stroke-width:0.5;"/>
      </defs>
      <g>
       <use style="stroke:#000000;stroke-width:0.5;" x="54.0986107985" xlink:href="#mf94c477925" y="352.8"/>
      </g>
     </g>
     <g id="line2d_35">
      <defs>
       <path d="M 0 0 
L 0 2 
" id="mc92d921304" style="stroke:#000000;stroke-width:0.5;"/>
      </defs>
      <g>
       <use style="stroke:#000000;stroke-width:0.5;" x="54.0986107985" xlink:href="#mc92d921304" y="7.2"/>
      </g>
     </g>
    </g>
    <g id="xtick_13">
     <g id="line2d_36">
      <g>
       <use style="stroke:#000000;stroke-width:0.5;" x="101.098774234" xlink:href="#mf94c477925" y="352.8"/>
      </g>
     </g>
     <g id="line2d_37">
      <g>
       <use style="stroke:#000000;stroke-width:0.5;" x="101.098774234" xlink:href="#mc92d921304" y="7.2"/>
      </g>
     </g>
    </g>
    <g id="xtick_14">
     <g id="line2d_38">
      <g>
       <use style="stroke:#000000;stroke-width:0.5;" x="148.098937669" xlink:href="#mf94c477925" y="352.8"/>
      </g>
     </g>
     <g id="line2d_39">
      <g>
       <use style="stroke:#000000;stroke-width:0.5;" x="148.098937669" xlink:href="#mc92d921304" y="7.2"/>
      </g>
     </g>
    </g>
    <g id="xtick_15">
     <g id="line2d_40">
      <g>
       <use style="stroke:#000000;stroke-width:0.5;" x="195.099101105" xlink:href="#mf94c477925" y="352.8"/>
      </g>
     </g>
     <g id="line2d_41">
      <g>
       <use style="stroke:#000000;stroke-width:0.5;" x="195.099101105" xlink:href="#mc92d921304" y="7.2"/>
      </g>
     </g>
    </g>
    <g id="xtick_16">
     <g id="line2d_42">
      <g>
       <use style="stroke:#000000;stroke-width:0.5;" x="242.09926454" xlink:href="#mf94c477925" y="352.8"/>
      </g>
     </g>
     <g id="line2d_43">
      <g>
       <use style="stroke:#000000;stroke-width:0.5;" x="242.09926454" xlink:href="#mc92d921304" y="7.2"/>
      </g>
     </g>
    </g>
    <g id="xtick_17">
     <g id="line2d_44">
      <g>
       <use style="stroke:#000000;stroke-width:0.5;" x="289.099427976" xlink:href="#mf94c477925" y="352.8"/>
      </g>
     </g>
     <g id="line2d_45">
      <g>
       <use style="stroke:#000000;stroke-width:0.5;" x="289.099427976" xlink:href="#mc92d921304" y="7.2"/>
      </g>
     </g>
    </g>
    <g id="xtick_18">
     <g id="line2d_46">
      <g>
       <use style="stroke:#000000;stroke-width:0.5;" x="336.099591411" xlink:href="#mf94c477925" y="352.8"/>
      </g>
     </g>
     <g id="line2d_47">
      <g>
       <use style="stroke:#000000;stroke-width:0.5;" x="336.099591411" xlink:href="#mc92d921304" y="7.2"/>
      </g>
     </g>
    </g>
    <g id="xtick_19">
     <g id="line2d_48">
      <g>
       <use style="stroke:#000000;stroke-width:0.5;" x="383.099754847" xlink:href="#mf94c477925" y="352.8"/>
      </g>
     </g>
     <g id="line2d_49">
      <g>
       <use style="stroke:#000000;stroke-width:0.5;" x="383.099754847" xlink:href="#mc92d921304" y="7.2"/>
      </g>
     </g>
    </g>
    <g id="xtick_20">
     <g id="line2d_50">
      <g>
       <use style="stroke:#000000;stroke-width:0.5;" x="430.099918282" xlink:href="#mf94c477925" y="352.8"/>
      </g>
     </g>
     <g id="line2d_51">
      <g>
       <use style="stroke:#000000;stroke-width:0.5;" x="430.099918282" xlink:href="#mc92d921304" y="7.2"/>
      </g>
     </g>
    </g>
    <g id="text_10">
     <!-- log10 of Df -->
     <defs>
      <path id="BitstreamVeraSans-Roman-20"/>
      <path d="M 30.609375 48.390625 
Q 23.390625 48.390625 19.1875 42.75 
Q 14.984375 37.109375 14.984375 27.296875 
Q 14.984375 17.484375 19.15625 11.84375 
Q 23.34375 6.203125 30.609375 6.203125 
Q 37.796875 6.203125 41.984375 11.859375 
Q 46.1875 17.53125 46.1875 27.296875 
Q 46.1875 37.015625 41.984375 42.703125 
Q 37.796875 48.390625 30.609375 48.390625 
M 30.609375 56 
Q 42.328125 56 49.015625 48.375 
Q 55.71875 40.765625 55.71875 27.296875 
Q 55.71875 13.875 49.015625 6.21875 
Q 42.328125 -1.421875 30.609375 -1.421875 
Q 18.84375 -1.421875 12.171875 6.21875 
Q 5.515625 13.875 5.515625 27.296875 
Q 5.515625 40.765625 12.171875 48.375 
Q 18.84375 56 30.609375 56 
" id="BitstreamVeraSans-Roman-6f"/>
      <path d="M 9.421875 75.984375 
L 18.40625 75.984375 
L 18.40625 0 
L 9.421875 0 
z
" id="BitstreamVeraSans-Roman-6c"/>
      <path d="M 19.671875 64.796875 
L 19.671875 8.109375 
L 31.59375 8.109375 
Q 46.6875 8.109375 53.6875 14.9375 
Q 60.6875 21.78125 60.6875 36.53125 
Q 60.6875 51.171875 53.6875 57.984375 
Q 46.6875 64.796875 31.59375 64.796875 
z
M 9.8125 72.90625 
L 30.078125 72.90625 
Q 51.265625 72.90625 61.171875 64.09375 
Q 71.09375 55.28125 71.09375 36.53125 
Q 71.09375 17.671875 61.125 8.828125 
Q 51.171875 0 30.078125 0 
L 9.8125 0 
z
" id="BitstreamVeraSans-Roman-44"/>
      <path d="M 45.40625 27.984375 
Q 45.40625 37.75 41.375 43.109375 
Q 37.359375 48.484375 30.078125 48.484375 
Q 22.859375 48.484375 18.828125 43.109375 
Q 14.796875 37.75 14.796875 27.984375 
Q 14.796875 18.265625 18.828125 12.890625 
Q 22.859375 7.515625 30.078125 7.515625 
Q 37.359375 7.515625 41.375 12.890625 
Q 45.40625 18.265625 45.40625 27.984375 
M 54.390625 6.78125 
Q 54.390625 -7.171875 48.1875 -13.984375 
Q 42 -20.796875 29.203125 -20.796875 
Q 24.46875 -20.796875 20.265625 -20.09375 
Q 16.0625 -19.390625 12.109375 -17.921875 
L 12.109375 -9.1875 
Q 16.0625 -11.328125 19.921875 -12.34375 
Q 23.78125 -13.375 27.78125 -13.375 
Q 36.625 -13.375 41.015625 -8.765625 
Q 45.40625 -4.15625 45.40625 5.171875 
L 45.40625 9.625 
Q 42.625 4.78125 38.28125 2.390625 
Q 33.9375 0 27.875 0 
Q 17.828125 0 11.671875 7.65625 
Q 5.515625 15.328125 5.515625 27.984375 
Q 5.515625 40.671875 11.671875 48.328125 
Q 17.828125 56 27.875 56 
Q 33.9375 56 38.28125 53.609375 
Q 42.625 51.21875 45.40625 46.390625 
L 45.40625 54.6875 
L 54.390625 54.6875 
z
" id="BitstreamVeraSans-Roman-67"/>
      <path d="M 37.109375 75.984375 
L 37.109375 68.5 
L 28.515625 68.5 
Q 23.6875 68.5 21.796875 66.546875 
Q 19.921875 64.59375 19.921875 59.515625 
L 19.921875 54.6875 
L 34.71875 54.6875 
L 34.71875 47.703125 
L 19.921875 47.703125 
L 19.921875 0 
L 10.890625 0 
L 10.890625 47.703125 
L 2.296875 47.703125 
L 2.296875 54.6875 
L 10.890625 54.6875 
L 10.890625 58.5 
Q 10.890625 67.625 15.140625 71.796875 
Q 19.390625 75.984375 28.609375 75.984375 
z
" id="BitstreamVeraSans-Roman-66"/>
     </defs>
     <g transform="translate(175.2140625 396.353125)scale(0.2 -0.2)">
      <use xlink:href="#BitstreamVeraSans-Roman-6c"/>
      <use x="27.783203125" xlink:href="#BitstreamVeraSans-Roman-6f"/>
      <use x="88.96484375" xlink:href="#BitstreamVeraSans-Roman-67"/>
      <use x="152.44140625" xlink:href="#BitstreamVeraSans-Roman-31"/>
      <use x="216.064453125" xlink:href="#BitstreamVeraSans-Roman-30"/>
      <use x="279.6875" xlink:href="#BitstreamVeraSans-Roman-20"/>
      <use x="311.474609375" xlink:href="#BitstreamVeraSans-Roman-6f"/>
      <use x="372.65625" xlink:href="#BitstreamVeraSans-Roman-66"/>
      <use x="407.861328125" xlink:href="#BitstreamVeraSans-Roman-20"/>
      <use x="439.6484375" xlink:href="#BitstreamVeraSans-Roman-44"/>
      <use x="516.650390625" xlink:href="#BitstreamVeraSans-Roman-66"/>
     </g>
    </g>
   </g>
   <g id="matplotlib.axis_2">
    <g id="ytick_1">
     <g id="line2d_52">
      <path clip-path="url(#p3059555d66)" d="M 7.2 352.8 
L 453.6 352.8 
" style="fill:none;stroke:#000000;stroke-dasharray:1.000000,3.000000;stroke-dashoffset:0.0;stroke-width:0.5;"/>
     </g>
     <g id="line2d_53">
      <defs>
       <path d="M 0 0 
L 4 0 
" id="m5509ae98c6" style="stroke:#000000;stroke-width:0.5;"/>
      </defs>
      <g>
       <use style="stroke:#000000;stroke-width:0.5;" x="7.2" xlink:href="#m5509ae98c6" y="352.8"/>
      </g>
     </g>
     <g id="line2d_54">
      <defs>
       <path d="M 0 0 
L -4 0 
" id="m7f5b5c954d" style="stroke:#000000;stroke-width:0.5;"/>
      </defs>
      <g>
       <use style="stroke:#000000;stroke-width:0.5;" x="453.6" xlink:href="#m7f5b5c954d" y="352.8"/>
      </g>
     </g>
    </g>
    <g id="ytick_2">
     <g id="line2d_55">
      <path clip-path="url(#p3059555d66)" d="M 7.2 284.364356 
L 453.6 284.364356 
" style="fill:none;stroke:#000000;stroke-dasharray:1.000000,3.000000;stroke-dashoffset:0.0;stroke-width:0.5;"/>
     </g>
     <g id="line2d_56">
      <g>
       <use style="stroke:#000000;stroke-width:0.5;" x="7.2" xlink:href="#m5509ae98c6" y="284.364356436"/>
      </g>
     </g>
     <g id="line2d_57">
      <g>
       <use style="stroke:#000000;stroke-width:0.5;" x="453.6" xlink:href="#m7f5b5c954d" y="284.364356436"/>
      </g>
     </g>
    </g>
    <g id="ytick_3">
     <g id="line2d_58">
      <path clip-path="url(#p3059555d66)" d="M 7.2 215.928713 
L 453.6 215.928713 
" style="fill:none;stroke:#000000;stroke-dasharray:1.000000,3.000000;stroke-dashoffset:0.0;stroke-width:0.5;"/>
     </g>
     <g id="line2d_59">
      <g>
       <use style="stroke:#000000;stroke-width:0.5;" x="7.2" xlink:href="#m5509ae98c6" y="215.928712871"/>
      </g>
     </g>
     <g id="line2d_60">
      <g>
       <use style="stroke:#000000;stroke-width:0.5;" x="453.6" xlink:href="#m7f5b5c954d" y="215.928712871"/>
      </g>
     </g>
    </g>
    <g id="ytick_4">
     <g id="line2d_61">
      <path clip-path="url(#p3059555d66)" d="M 7.2 147.493069 
L 453.6 147.493069 
" style="fill:none;stroke:#000000;stroke-dasharray:1.000000,3.000000;stroke-dashoffset:0.0;stroke-width:0.5;"/>
     </g>
     <g id="line2d_62">
      <g>
       <use style="stroke:#000000;stroke-width:0.5;" x="7.2" xlink:href="#m5509ae98c6" y="147.493069307"/>
      </g>
     </g>
     <g id="line2d_63">
      <g>
       <use style="stroke:#000000;stroke-width:0.5;" x="453.6" xlink:href="#m7f5b5c954d" y="147.493069307"/>
      </g>
     </g>
    </g>
    <g id="ytick_5">
     <g id="line2d_64">
      <path clip-path="url(#p3059555d66)" d="M 7.2 79.057426 
L 453.6 79.057426 
" style="fill:none;stroke:#000000;stroke-dasharray:1.000000,3.000000;stroke-dashoffset:0.0;stroke-width:0.5;"/>
     </g>
     <g id="line2d_65">
      <g>
       <use style="stroke:#000000;stroke-width:0.5;" x="7.2" xlink:href="#m5509ae98c6" y="79.0574257426"/>
      </g>
     </g>
     <g id="line2d_66">
      <g>
       <use style="stroke:#000000;stroke-width:0.5;" x="453.6" xlink:href="#m7f5b5c954d" y="79.0574257426"/>
      </g>
     </g>
    </g>
    <g id="ytick_6">
     <g id="line2d_67">
      <path clip-path="url(#p3059555d66)" d="M 7.2 10.621782 
L 453.6 10.621782 
" style="fill:none;stroke:#000000;stroke-dasharray:1.000000,3.000000;stroke-dashoffset:0.0;stroke-width:0.5;"/>
     </g>
     <g id="line2d_68">
      <g>
       <use style="stroke:#000000;stroke-width:0.5;" x="7.2" xlink:href="#m5509ae98c6" y="10.6217821782"/>
      </g>
     </g>
     <g id="line2d_69">
      <g>
       <use style="stroke:#000000;stroke-width:0.5;" x="453.6" xlink:href="#m7f5b5c954d" y="10.6217821782"/>
      </g>
     </g>
    </g>
   </g>
   <g id="text_11">
    <!-- {f1-f5}, 20-D -->
    <defs>
     <path d="M 12.5 -9.28125 
L 15.921875 -9.28125 
Q 22.75 -9.28125 24.828125 -7.171875 
Q 26.90625 -5.078125 26.90625 1.90625 
L 26.90625 14.015625 
Q 26.90625 21.625 29.09375 25.09375 
Q 31.296875 28.5625 36.71875 29.890625 
Q 31.296875 31.109375 29.09375 34.5625 
Q 26.90625 38.03125 26.90625 45.703125 
L 26.90625 57.8125 
Q 26.90625 64.75 24.828125 66.875 
Q 22.75 69 15.921875 69 
L 12.5 69 
L 12.5 75.984375 
L 15.578125 75.984375 
Q 27.734375 75.984375 31.8125 72.390625 
Q 35.890625 68.796875 35.890625 58.015625 
L 35.890625 46.296875 
Q 35.890625 39.015625 38.515625 36.203125 
Q 41.15625 33.40625 48.09375 33.40625 
L 51.125 33.40625 
L 51.125 26.421875 
L 48.09375 26.421875 
Q 41.15625 26.421875 38.515625 23.578125 
Q 35.890625 20.75 35.890625 13.375 
L 35.890625 1.703125 
Q 35.890625 -9.078125 31.8125 -12.6875 
Q 27.734375 -16.3125 15.578125 -16.3125 
L 12.5 -16.3125 
z
" id="BitstreamVeraSans-Roman-7d"/>
     <path d="M 51.125 -9.28125 
L 51.125 -16.3125 
L 48.09375 -16.3125 
Q 35.9375 -16.3125 31.8125 -12.6875 
Q 27.6875 -9.078125 27.6875 1.703125 
L 27.6875 13.375 
Q 27.6875 20.75 25.046875 23.578125 
Q 22.40625 26.421875 15.484375 26.421875 
L 12.5 26.421875 
L 12.5 33.40625 
L 15.484375 33.40625 
Q 22.46875 33.40625 25.078125 36.203125 
Q 27.6875 39.015625 27.6875 46.296875 
L 27.6875 58.015625 
Q 27.6875 68.796875 31.8125 72.390625 
Q 35.9375 75.984375 48.09375 75.984375 
L 51.125 75.984375 
L 51.125 69 
L 47.796875 69 
Q 40.921875 69 38.8125 66.84375 
Q 36.71875 64.703125 36.71875 57.8125 
L 36.71875 45.703125 
Q 36.71875 38.03125 34.5 34.5625 
Q 32.28125 31.109375 26.90625 29.890625 
Q 32.328125 28.5625 34.515625 25.09375 
Q 36.71875 21.625 36.71875 14.015625 
L 36.71875 1.90625 
Q 36.71875 -4.984375 38.8125 -7.125 
Q 40.921875 -9.28125 47.796875 -9.28125 
z
" id="BitstreamVeraSans-Roman-7b"/>
     <path d="M 11.71875 12.40625 
L 22.015625 12.40625 
L 22.015625 4 
L 14.015625 -11.625 
L 7.71875 -11.625 
L 11.71875 4 
z
" id="BitstreamVeraSans-Roman-2c"/>
     <path d="M 10.796875 72.90625 
L 49.515625 72.90625 
L 49.515625 64.59375 
L 19.828125 64.59375 
L 19.828125 46.734375 
Q 21.96875 47.46875 24.109375 47.828125 
Q 26.265625 48.1875 28.421875 48.1875 
Q 40.625 48.1875 47.75 41.5 
Q 54.890625 34.8125 54.890625 23.390625 
Q 54.890625 11.625 47.5625 5.09375 
Q 40.234375 -1.421875 26.90625 -1.421875 
Q 22.3125 -1.421875 17.546875 -0.640625 
Q 12.796875 0.140625 7.71875 1.703125 
L 7.71875 11.625 
Q 12.109375 9.234375 16.796875 8.0625 
Q 21.484375 6.890625 26.703125 6.890625 
Q 35.15625 6.890625 40.078125 11.328125 
Q 45.015625 15.765625 45.015625 23.390625 
Q 45.015625 31 40.078125 35.4375 
Q 35.15625 39.890625 26.703125 39.890625 
Q 22.75 39.890625 18.8125 39.015625 
Q 14.890625 38.140625 10.796875 36.28125 
z
" id="BitstreamVeraSans-Roman-35"/>
    </defs>
    <g transform="translate(311.697 345.888)scale(0.2 -0.2)">
     <use xlink:href="#BitstreamVeraSans-Roman-7b"/>
     <use x="63.623046875" xlink:href="#BitstreamVeraSans-Roman-66"/>
     <use x="98.828125" xlink:href="#BitstreamVeraSans-Roman-31"/>
     <use x="162.451171875" xlink:href="#BitstreamVeraSans-Roman-2d"/>
     <use x="198.53515625" xlink:href="#BitstreamVeraSans-Roman-66"/>
     <use x="233.740234375" xlink:href="#BitstreamVeraSans-Roman-35"/>
     <use x="297.36328125" xlink:href="#BitstreamVeraSans-Roman-7d"/>
     <use x="360.986328125" xlink:href="#BitstreamVeraSans-Roman-2c"/>
     <use x="392.7734375" xlink:href="#BitstreamVeraSans-Roman-20"/>
     <use x="424.560546875" xlink:href="#BitstreamVeraSans-Roman-32"/>
     <use x="488.18359375" xlink:href="#BitstreamVeraSans-Roman-30"/>
     <use x="551.806640625" xlink:href="#BitstreamVeraSans-Roman-2d"/>
     <use x="587.890625" xlink:href="#BitstreamVeraSans-Roman-44"/>
    </g>
   </g>
   <g id="text_12">
    <!-- 0.0.0 -->
    <defs>
     <path d="M 10.6875 12.40625 
L 21 12.40625 
L 21 0 
L 10.6875 0 
z
" id="BitstreamVeraSans-Roman-2e"/>
    </defs>
    <g style="fill:#808080;" transform="translate(217.678125 347.2643125)scale(0.1 -0.1)">
     <use xlink:href="#BitstreamVeraSans-Roman-30"/>
     <use x="63.623046875" xlink:href="#BitstreamVeraSans-Roman-2e"/>
     <use x="95.41015625" xlink:href="#BitstreamVeraSans-Roman-30"/>
     <use x="159.033203125" xlink:href="#BitstreamVeraSans-Roman-2e"/>
     <use x="190.8203125" xlink:href="#BitstreamVeraSans-Roman-30"/>
    </g>
   </g>
  </g>
 </g>
 <defs>
  <clipPath id="p3059555d66">
   <rect height="345.6" width="446.4" x="7.2" y="7.2"/>
  </clipPath>
 </defs>
</svg>
