<?xml version="1.0" encoding="utf-8" standalone="no"?>
<!DOCTYPE svg PUBLIC "-//W3C//DTD SVG 1.1//EN"
  "http://www.w3.org/Graphics/SVG/1.1/DTD/svg11.dtd">
<!-- Created with matplotlib (http://matplotlib.org/) -->
<svg height="407pt" version="1.1" viewBox="0 0 460 407" width="460pt" xmlns="http://www.w3.org/2000/svg" xmlns:xlink="http://www.w3.org/1999/xlink">
 <defs>
  <style type="text/css">
*{stroke-linecap:butt;stroke-linejoin:round;stroke-miterlimit:100000;}
  </style>
 </defs>
 <g id="figure_1">
  <g id="patch_1">
   <path d="M 0 407.7125 
L 460.8 407.7125 
L 460.8 0 
L 0 0 
z
" style="fill:#ffffff;"/>
  </g>
  <g id="axes_1">
   <g id="patch_2">
    <path d="M 7.2 352.8 
L 453.6 352.8 
L 453.6 7.2 
L 7.2 7.2 
z
" style="fill:#ffffff;"/>
   </g>
   <g id="line2d_1">
    <path clip-path="url(#pb5b34b8c06)" d="M 125.519136 352.8 
L 125.519136 348.237624 
L 131.570083 348.237624 
L 131.570083 343.675248 
L 132.170535 343.675248 
L 132.170535 339.112871 
L 133.049889 339.112871 
L 133.049889 334.550495 
L 133.479877 334.550495 
L 133.479877 329.988119 
L 135.299284 329.988119 
L 135.299284 325.425743 
L 135.628884 325.425743 
L 135.628884 320.863366 
L 135.912726 320.863366 
L 135.914768 311.738614 
L 137.805437 311.738614 
L 137.8842 302.613861 
L 138.116371 302.613861 
L 138.116371 298.051485 
L 138.287039 298.051485 
L 138.287039 293.489109 
L 138.555712 293.489109 
L 138.555712 288.926733 
L 138.855708 288.926733 
L 138.855708 284.364356 
L 139.012609 284.364356 
L 139.012609 279.80198 
L 139.501642 279.80198 
L 139.501642 275.239604 
L 182.671867 275.239604 
L 182.671867 270.677228 
L 185.438231 270.677228 
L 185.438231 266.114851 
L 187.30605 266.114851 
L 187.30605 261.552475 
L 189.298077 261.552475 
L 189.298077 256.990099 
L 191.434106 256.990099 
L 191.434106 252.427723 
L 192.187832 252.427723 
L 192.187832 247.865347 
L 193.858807 247.865347 
L 193.858807 243.30297 
L 196.061674 243.30297 
L 196.061674 238.740594 
L 197.483303 238.740594 
L 197.483303 234.178218 
L 200.586062 234.178218 
L 200.586062 229.615842 
L 202.289266 229.615842 
L 202.289266 225.053465 
L 205.666725 225.053465 
L 205.666725 220.491089 
L 206.117514 220.491089 
L 206.132182 211.366337 
L 209.726596 211.366337 
L 209.726596 206.80396 
L 212.6588 206.80396 
L 212.6588 202.241584 
L 213.217684 202.241584 
L 213.217684 197.679208 
L 214.077589 197.679208 
L 214.077589 193.116832 
L 216.130791 193.116832 
L 216.130791 188.554455 
L 216.316583 188.554455 
L 216.316583 183.992079 
L 216.624445 183.992079 
L 216.624445 179.429703 
L 216.962011 179.429703 
L 216.962011 174.867327 
L 219.46361 174.867327 
L 219.46361 170.30495 
L 219.878991 170.30495 
L 219.878991 165.742574 
L 226.969985 165.742574 
L 226.969985 161.180198 
L 229.09905 161.180198 
L 229.09905 156.617822 
L 231.189889 156.617822 
L 231.189889 152.055446 
L 231.769145 152.055446 
L 231.769145 147.493069 
L 253.497157 147.493069 
L 253.497157 142.930693 
L 255.299561 142.930693 
L 255.299561 138.368317 
L 255.558127 138.368317 
L 255.558127 133.805941 
L 256.799437 133.805941 
L 256.799437 129.243564 
L 257.108115 129.243564 
L 257.108115 124.681188 
L 257.350869 124.681188 
L 257.350869 120.118812 
L 257.91453 120.118812 
L 257.975172 110.994059 
L 258.770142 110.994059 
L 258.770142 106.431683 
L 259.356459 106.431683 
L 259.356459 101.869307 
L 260.708788 101.869307 
L 260.708788 97.306931 
L 261.144808 97.306931 
L 261.144808 92.744554 
L 261.653819 92.744554 
L 261.653819 88.182178 
L 262.493864 88.182178 
L 262.590377 79.057426 
L 293.96575 79.057426 
L 293.96575 74.49505 
L 294.533628 74.49505 
L 294.533628 69.932673 
L 297.616662 69.932673 
L 297.616662 65.370297 
L 298.107134 65.370297 
L 298.158115 51.683168 
L 298.293826 51.683168 
L 298.293826 47.120792 
L 299.608518 47.120792 
L 299.608518 42.558416 
L 299.87866 42.558416 
L 299.87866 37.99604 
L 300.375744 37.99604 
L 300.375744 33.433663 
L 300.845373 33.433663 
L 300.845373 28.871287 
L 301.709817 28.871287 
L 301.709817 24.308911 
L 302.207956 24.308911 
L 302.207956 19.746535 
L 302.468944 19.746535 
L 302.468944 15.184158 
L 309.759862 15.184158 
L 309.759862 10.621782 
L 309.759862 10.621782 
L 453.6 10.621782 
L 453.6 10.621782 
" style="fill:none;stroke:#ff0000;stroke-linecap:square;stroke-width:3.0;"/>
   </g>
   <g id="line2d_2">
    <path clip-path="url(#pb5b34b8c06)" d="M 234.184952 352.8 
L 234.184952 348.237624 
L 236.327842 348.237624 
L 236.327842 343.675248 
L 236.715081 343.675248 
L 236.715081 339.112871 
L 237.712025 339.112871 
L 237.744999 329.988119 
L 239.62076 329.988119 
L 239.684952 320.863366 
L 242.93192 320.863366 
L 242.93192 316.30099 
L 243.77037 316.30099 
L 243.77037 311.738614 
L 244.620593 311.738614 
L 244.620593 307.176238 
L 245.18768 307.176238 
L 245.24042 298.051485 
L 246.742215 298.051485 
L 246.742215 293.489109 
L 251.032998 293.489109 
L 251.032998 288.926733 
L 255.299561 288.926733 
L 255.299561 284.364356 
L 256.758579 284.364356 
L 256.758579 279.80198 
L 261.653819 279.80198 
L 261.653819 275.239604 
L 273.752598 275.239604 
L 273.752598 270.677228 
L 274.750806 270.677228 
L 274.750806 266.114851 
L 276.071917 266.114851 
L 276.071917 261.552475 
L 276.569601 261.552475 
L 276.569601 256.990099 
L 276.932951 256.990099 
L 277.039379 247.865347 
L 277.777557 247.865347 
L 277.777557 243.30297 
L 278.239331 243.30297 
L 278.239331 238.740594 
L 278.509001 238.740594 
L 278.510204 229.615842 
L 278.744036 229.615842 
L 278.745258 220.491089 
L 278.951278 220.491089 
L 278.951278 215.928713 
L 279.214718 215.928713 
L 279.214718 211.366337 
L 279.518886 211.366337 
L 279.625903 202.241584 
L 280.630789 202.241584 
L 280.630789 197.679208 
L 283.377989 197.679208 
L 283.377989 193.116832 
L 291.065176 193.116832 
L 291.065176 188.554455 
L 293.694778 188.554455 
L 293.694778 183.992079 
L 306.965878 183.992079 
L 306.965878 179.429703 
L 307.758422 179.429703 
L 307.758422 174.867327 
L 312.36222 174.867327 
L 312.36222 170.30495 
L 317.900981 170.30495 
L 317.900981 165.742574 
L 320.128314 165.742574 
L 320.128314 161.180198 
L 323.585248 161.180198 
L 323.585248 156.617822 
L 336.76868 156.617822 
L 336.76868 152.055446 
L 346.453855 152.055446 
L 346.453855 147.493069 
L 349.433587 147.493069 
L 349.433587 142.930693 
L 352.574952 142.930693 
L 352.574952 138.368317 
L 353.065225 138.368317 
L 353.065225 133.805941 
L 353.323018 133.805941 
L 353.37083 124.681188 
L 354.448233 124.681188 
L 354.448233 120.118812 
L 355.600205 120.118812 
L 355.600205 115.556436 
L 356.046002 115.556436 
L 356.046002 110.994059 
L 356.711798 110.994059 
L 356.711798 106.431683 
L 357.911429 106.431683 
L 357.911429 101.869307 
L 358.847933 101.869307 
L 358.847933 97.306931 
L 359.47175 97.306931 
L 359.47175 92.744554 
L 360.448139 92.744554 
L 360.448139 88.182178 
L 362.621311 88.182178 
L 362.708206 79.057426 
L 388.963703 79.057426 
L 388.963703 74.49505 
L 392.581263 74.49505 
L 392.581263 69.932673 
L 394.737827 69.932673 
L 394.737827 65.370297 
L 395.940626 65.370297 
L 395.940626 60.807921 
L 397.182344 60.807921 
L 397.182344 56.245545 
L 398.028915 56.245545 
L 398.028915 51.683168 
L 399.258958 51.683168 
L 399.258958 47.120792 
L 402.358568 47.120792 
L 402.358568 42.558416 
L 403.341212 42.558416 
L 403.341212 37.99604 
L 404.854693 37.99604 
L 404.854693 33.433663 
L 406.135978 33.433663 
L 406.135978 28.871287 
L 407.52572 28.871287 
L 407.52572 24.308911 
L 407.846241 24.308911 
L 407.846241 19.746535 
L 416.864768 19.746535 
L 416.864768 15.184158 
L 431.105092 15.184158 
L 431.105092 10.621782 
L 431.105092 10.621782 
L 453.6 10.621782 
L 453.6 10.621782 
" style="fill:none;stroke:#00bfbf;stroke-linecap:square;"/>
   </g>
   <g id="line2d_3">
    <path clip-path="url(#pb5b34b8c06)" d="M 232.589633 352.8 
L 232.589633 348.237624 
L 234.184952 348.237624 
L 234.282089 339.112871 
L 234.502994 339.112871 
L 234.502994 334.550495 
L 236.327842 334.550495 
L 236.327842 329.988119 
L 237.712025 329.988119 
L 237.744999 320.863366 
L 239.62076 320.863366 
L 239.62076 316.30099 
L 242.93192 316.30099 
L 242.93192 311.738614 
L 243.77037 311.738614 
L 243.77037 307.176238 
L 244.620593 307.176238 
L 244.620593 302.613861 
L 245.24042 302.613861 
L 245.24042 298.051485 
L 245.461554 298.051485 
L 245.461554 293.489109 
L 246.742215 293.489109 
L 246.742215 288.926733 
L 253.629029 288.926733 
L 253.629029 284.364356 
L 255.299561 284.364356 
L 255.299561 279.80198 
L 257.108115 279.80198 
L 257.108115 275.239604 
L 261.653819 275.239604 
L 261.653819 270.677228 
L 267.242189 270.677228 
L 267.242189 266.114851 
L 273.601863 266.114851 
L 273.601863 261.552475 
L 273.752598 261.552475 
L 273.752598 256.990099 
L 274.750806 256.990099 
L 274.750806 252.427723 
L 275.995712 252.427723 
L 276.071917 243.30297 
L 276.501871 243.30297 
L 276.569601 234.178218 
L 276.932951 234.178218 
L 277.039379 225.053465 
L 277.060571 225.053465 
L 277.060571 220.491089 
L 277.384584 220.491089 
L 277.384584 215.928713 
L 278.239331 215.928713 
L 278.239331 211.366337 
L 278.509001 211.366337 
L 278.509001 206.80396 
L 278.745258 206.80396 
L 278.825808 197.679208 
L 279.518886 197.679208 
L 279.625903 188.554455 
L 280.623677 188.554455 
L 280.623677 183.992079 
L 283.377989 183.992079 
L 283.377989 179.429703 
L 283.980914 179.429703 
L 283.980914 174.867327 
L 289.956463 174.867327 
L 289.956463 170.30495 
L 307.758422 170.30495 
L 307.758422 165.742574 
L 312.36222 165.742574 
L 312.36222 161.180198 
L 323.585248 161.180198 
L 323.585248 156.617822 
L 328.613683 156.617822 
L 328.613683 152.055446 
L 346.453855 152.055446 
L 346.453855 147.493069 
L 349.433587 147.493069 
L 349.433587 142.930693 
L 349.560479 142.930693 
L 349.560479 138.368317 
L 350.511555 138.368317 
L 350.511555 133.805941 
L 350.927334 133.805941 
L 350.927334 129.243564 
L 351.755664 129.243564 
L 351.755664 124.681188 
L 352.23353 124.681188 
L 352.23353 120.118812 
L 353.065225 120.118812 
L 353.065225 115.556436 
L 353.323018 115.556436 
L 353.323018 110.994059 
L 356.046002 110.994059 
L 356.046002 106.431683 
L 356.711798 106.431683 
L 356.711798 101.869307 
L 357.225425 101.869307 
L 357.225425 97.306931 
L 358.844529 97.306931 
L 358.847933 88.182178 
L 359.47175 88.182178 
L 359.47175 83.619802 
L 361.586205 83.619802 
L 361.586205 79.057426 
L 388.963703 79.057426 
L 388.963703 74.49505 
L 392.581263 74.49505 
L 392.581263 69.932673 
L 394.737827 69.932673 
L 394.737827 65.370297 
L 395.645882 65.370297 
L 395.645882 60.807921 
L 395.940626 60.807921 
L 395.940626 56.245545 
L 397.182344 56.245545 
L 397.182344 51.683168 
L 398.028915 51.683168 
L 398.028915 47.120792 
L 400.785023 47.120792 
L 400.785023 42.558416 
L 401.964222 42.558416 
L 401.964222 37.99604 
L 402.273612 37.99604 
L 402.358568 28.871287 
L 403.725293 28.871287 
L 403.725293 24.308911 
L 405.846864 24.308911 
L 405.846864 19.746535 
L 406.043578 19.746535 
L 406.043578 15.184158 
L 431.105092 15.184158 
L 431.105092 10.621782 
L 431.105092 10.621782 
L 453.6 10.621782 
L 453.6 10.621782 
" style="fill:none;stroke:#bf00bf;stroke-linecap:square;"/>
   </g>
   <g id="line2d_4">
    <path clip-path="url(#pb5b34b8c06)" d="M 230.033051 352.8 
L 230.033051 348.237624 
L 232.589633 348.237624 
L 232.589633 343.675248 
L 234.184952 343.675248 
L 234.282089 334.550495 
L 236.327842 334.550495 
L 236.327842 329.988119 
L 237.139694 329.988119 
L 237.139694 325.425743 
L 237.712025 325.425743 
L 237.712025 320.863366 
L 238.752351 320.863366 
L 238.752351 316.30099 
L 239.62076 316.30099 
L 239.62076 311.738614 
L 240.308276 311.738614 
L 240.308276 307.176238 
L 240.985457 307.176238 
L 240.985457 302.613861 
L 241.99931 302.613861 
L 241.99931 298.051485 
L 242.93192 298.051485 
L 242.93192 293.489109 
L 245.24042 293.489109 
L 245.24042 288.926733 
L 253.629029 288.926733 
L 253.629029 284.364356 
L 255.299561 284.364356 
L 255.299561 279.80198 
L 257.108115 279.80198 
L 257.108115 275.239604 
L 257.350869 275.239604 
L 257.350869 270.677228 
L 257.975172 270.677228 
L 257.975172 266.114851 
L 260.763548 266.114851 
L 260.763548 261.552475 
L 261.144808 261.552475 
L 261.144808 256.990099 
L 261.653819 256.990099 
L 261.653819 252.427723 
L 264.462473 252.427723 
L 264.462473 247.865347 
L 267.242189 247.865347 
L 267.242189 243.30297 
L 270.122922 243.30297 
L 270.122922 238.740594 
L 272.623974 238.740594 
L 272.623974 234.178218 
L 273.752598 234.178218 
L 273.752598 229.615842 
L 275.084853 229.615842 
L 275.084853 225.053465 
L 276.071917 225.053465 
L 276.071917 220.491089 
L 276.274415 220.491089 
L 276.274415 215.928713 
L 276.467789 215.928713 
L 276.569601 202.241584 
L 276.626257 202.241584 
L 276.626257 197.679208 
L 277.039379 197.679208 
L 277.060571 188.554455 
L 277.415934 188.554455 
L 277.453974 179.429703 
L 277.687461 179.429703 
L 277.687461 174.867327 
L 278.000821 174.867327 
L 278.000821 170.30495 
L 283.377989 170.30495 
L 283.377989 165.742574 
L 283.980914 165.742574 
L 283.980914 161.180198 
L 305.428687 161.180198 
L 305.428687 156.617822 
L 307.089674 156.617822 
L 307.089674 152.055446 
L 341.975454 152.055446 
L 342.076995 142.930693 
L 346.453855 142.930693 
L 346.453855 138.368317 
L 348.46782 138.368317 
L 348.46782 133.805941 
L 349.433587 133.805941 
L 349.433587 129.243564 
L 349.830411 129.243564 
L 349.830411 124.681188 
L 350.173557 124.681188 
L 350.173557 120.118812 
L 350.927334 120.118812 
L 350.927334 115.556436 
L 352.134691 115.556436 
L 352.134691 110.994059 
L 353.323018 110.994059 
L 353.323018 106.431683 
L 353.911552 106.431683 
L 353.911552 101.869307 
L 354.972081 101.869307 
L 354.972081 97.306931 
L 355.240808 97.306931 
L 355.240808 92.744554 
L 355.815429 92.744554 
L 355.815429 88.182178 
L 356.076279 88.182178 
L 356.076279 83.619802 
L 356.711798 83.619802 
L 356.711798 79.057426 
L 388.963703 79.057426 
L 388.963703 74.49505 
L 391.08493 74.49505 
L 391.08493 69.932673 
L 392.581263 69.932673 
L 392.581263 65.370297 
L 394.373779 65.370297 
L 394.373779 60.807921 
L 394.737827 60.807921 
L 394.737827 56.245545 
L 395.940626 56.245545 
L 395.940626 51.683168 
L 397.182344 51.683168 
L 397.182344 47.120792 
L 398.028915 47.120792 
L 398.028915 42.558416 
L 400.785023 42.558416 
L 400.785023 37.99604 
L 402.273612 37.99604 
L 402.358568 28.871287 
L 402.535299 28.871287 
L 402.535299 24.308911 
L 404.479743 24.308911 
L 404.479743 19.746535 
L 406.043578 19.746535 
L 406.043578 15.184158 
L 422.452096 15.184158 
L 422.452096 10.621782 
L 422.452096 10.621782 
L 453.6 10.621782 
L 453.6 10.621782 
" style="fill:none;stroke:#000000;stroke-linecap:square;"/>
   </g>
   <g id="line2d_5">
    <path clip-path="url(#pb5b34b8c06)" d="M 230.033051 352.8 
L 230.033051 348.237624 
L 230.033051 348.237624 
L 230.033051 348.237624 
L 230.055196 348.237624 
L 230.055196 343.675248 
L 232.589633 343.675248 
L 232.688822 334.550495 
L 233.114198 334.550495 
L 233.21808 325.425743 
L 233.292819 325.425743 
L 233.292819 320.863366 
L 234.184952 320.863366 
L 234.184952 316.30099 
L 236.890854 316.30099 
L 236.890854 311.738614 
L 237.30046 311.738614 
L 237.30046 307.176238 
L 237.437381 307.176238 
L 237.437381 302.613861 
L 238.752351 302.613861 
L 238.752351 298.051485 
L 239.337319 298.051485 
L 239.337319 293.489109 
L 242.695857 293.489109 
L 242.695857 288.926733 
L 244.502127 288.926733 
L 244.502127 284.364356 
L 253.497157 284.364356 
L 253.497157 279.80198 
L 255.299561 279.80198 
L 255.299561 275.239604 
L 257.108115 275.239604 
L 257.108115 270.677228 
L 257.350869 270.677228 
L 257.350869 266.114851 
L 257.975172 266.114851 
L 257.975172 261.552475 
L 258.770142 261.552475 
L 258.770142 256.990099 
L 260.708788 256.990099 
L 260.708788 252.427723 
L 261.144808 252.427723 
L 261.144808 247.865347 
L 261.653819 247.865347 
L 261.653819 243.30297 
L 262.590377 243.30297 
L 262.590377 238.740594 
L 262.990853 238.740594 
L 262.990853 234.178218 
L 264.462473 234.178218 
L 264.462473 229.615842 
L 270.122922 229.615842 
L 270.122922 225.053465 
L 270.834987 225.053465 
L 270.834987 220.491089 
L 271.252864 220.491089 
L 271.252864 215.928713 
L 273.187902 215.928713 
L 273.187902 211.366337 
L 273.921122 211.366337 
L 274.002281 202.241584 
L 274.071735 202.241584 
L 274.156559 193.116832 
L 274.297018 193.116832 
L 274.344288 183.992079 
L 274.62951 183.992079 
L 274.62951 179.429703 
L 275.264486 179.429703 
L 275.364073 165.742574 
L 275.936159 165.742574 
L 275.936159 161.180198 
L 276.310685 161.180198 
L 276.310685 156.617822 
L 277.453974 156.617822 
L 277.453974 152.055446 
L 279.687746 152.055446 
L 279.687746 147.493069 
L 336.736015 147.493069 
L 336.821253 138.368317 
L 338.249747 138.368317 
L 338.28071 129.243564 
L 339.413762 129.243564 
L 339.421165 120.118812 
L 341.915273 120.118812 
L 341.975454 110.994059 
L 344.48256 110.994059 
L 344.48256 106.431683 
L 344.854002 106.431683 
L 344.854002 101.869307 
L 345.340212 101.869307 
L 345.340212 97.306931 
L 348.190255 97.306931 
L 348.190255 92.744554 
L 349.466638 92.744554 
L 349.466638 88.182178 
L 350.25755 88.182178 
L 350.25755 83.619802 
L 352.167004 83.619802 
L 352.167004 79.057426 
L 387.410563 79.057426 
L 387.410563 74.49505 
L 389.813248 74.49505 
L 389.813248 69.932673 
L 390.173058 69.932673 
L 390.173058 65.370297 
L 390.502027 65.370297 
L 390.502027 60.807921 
L 391.08493 60.807921 
L 391.08493 56.245545 
L 391.332537 56.245545 
L 391.332537 51.683168 
L 391.666514 51.683168 
L 391.666514 47.120792 
L 391.899464 47.120792 
L 391.964689 37.99604 
L 392.162104 37.99604 
L 392.162104 33.433663 
L 393.081872 33.433663 
L 393.081872 28.871287 
L 395.863961 28.871287 
L 395.863961 24.308911 
L 396.028908 24.308911 
L 396.028908 19.746535 
L 397.890836 19.746535 
L 397.890836 15.184158 
L 409.600348 15.184158 
L 409.600348 10.621782 
L 409.600348 10.621782 
L 453.6 10.621782 
L 453.6 10.621782 
" style="fill:none;stroke:#00bfbf;stroke-linecap:square;"/>
   </g>
   <g id="line2d_6">
    <path clip-path="url(#pb5b34b8c06)" d="M 202.221569 352.8 
L 202.221569 348.237624 
L 202.221569 348.237624 
L 202.221569 348.237624 
L 202.235849 348.237624 
L 202.235849 343.675248 
L 204.546729 343.675248 
L 204.546729 339.112871 
L 205.688783 339.112871 
L 205.688783 334.550495 
L 208.813937 334.550495 
L 208.813937 329.988119 
L 209.342752 329.988119 
L 209.342752 325.425743 
L 209.8057 325.425743 
L 209.8057 320.863366 
L 211.724046 320.863366 
L 211.724046 316.30099 
L 212.351947 316.30099 
L 212.351947 311.738614 
L 214.315661 311.738614 
L 214.315661 307.176238 
L 217.033156 307.176238 
L 217.050091 298.051485 
L 218.55693 298.051485 
L 218.55693 293.489109 
L 218.699861 293.489109 
L 218.699861 288.926733 
L 219.414153 288.926733 
L 219.414153 284.364356 
L 253.407955 284.364356 
L 253.497157 275.239604 
L 254.890039 275.239604 
L 254.890039 270.677228 
L 255.066633 270.677228 
L 255.100572 261.552475 
L 255.231733 261.552475 
L 255.299561 252.427723 
L 255.374866 252.427723 
L 255.374866 247.865347 
L 255.558127 247.865347 
L 255.558127 243.30297 
L 255.813755 243.30297 
L 255.813755 238.740594 
L 256.799437 238.740594 
L 256.799437 234.178218 
L 257.108115 234.178218 
L 257.108115 229.615842 
L 257.350869 229.615842 
L 257.350869 225.053465 
L 257.575287 225.053465 
L 257.575287 220.491089 
L 257.91453 220.491089 
L 257.975172 206.80396 
L 258.104473 206.80396 
L 258.104473 202.241584 
L 258.228794 202.241584 
L 258.228794 197.679208 
L 258.693953 197.679208 
L 258.770142 188.554455 
L 259.356459 188.554455 
L 259.356459 183.992079 
L 259.715686 183.992079 
L 259.715686 179.429703 
L 260.708788 179.429703 
L 260.708788 174.867327 
L 260.938474 174.867327 
L 260.938474 170.30495 
L 261.144808 170.30495 
L 261.252563 161.180198 
L 261.653819 161.180198 
L 261.653819 156.617822 
L 262.493864 156.617822 
L 262.590377 147.493069 
L 322.231856 147.493069 
L 322.231856 142.930693 
L 325.445007 142.930693 
L 325.445007 138.368317 
L 326.491575 138.368317 
L 326.598417 129.243564 
L 327.060451 129.243564 
L 327.147815 120.118812 
L 327.910095 120.118812 
L 327.993855 110.994059 
L 328.163011 110.994059 
L 328.163011 106.431683 
L 328.305709 106.431683 
L 328.305709 101.869307 
L 328.615339 101.869307 
L 328.615339 97.306931 
L 331.083679 97.306931 
L 331.083679 92.744554 
L 332.22261 92.744554 
L 332.22261 88.182178 
L 333.546052 88.182178 
L 333.546052 83.619802 
L 334.365954 83.619802 
L 334.365954 79.057426 
L 343.603919 79.057426 
L 343.603919 74.49505 
L 347.055671 74.49505 
L 347.055671 69.932673 
L 347.718335 69.932673 
L 347.718335 65.370297 
L 348.610996 65.370297 
L 348.610996 60.807921 
L 350.810488 60.807921 
L 350.810488 56.245545 
L 354.28568 56.245545 
L 354.28568 51.683168 
L 355.395983 51.683168 
L 355.395983 47.120792 
L 355.942234 47.120792 
L 355.942234 42.558416 
L 356.21148 42.558416 
L 356.251873 33.433663 
L 357.708489 33.433663 
L 357.708489 28.871287 
L 358.262595 28.871287 
L 358.262595 24.308911 
L 361.461414 24.308911 
L 361.461414 19.746535 
L 362.154335 19.746535 
L 362.154335 15.184158 
L 363.956844 15.184158 
L 363.956844 10.621782 
L 363.956844 10.621782 
L 453.6 10.621782 
L 453.6 10.621782 
" style="fill:none;stroke:#bf00bf;stroke-linecap:square;"/>
   </g>
   <g id="patch_3">
    <path d="M 7.2 7.2 
L 453.6 7.2 
" style="fill:none;stroke:#000000;stroke-linecap:square;stroke-linejoin:miter;"/>
   </g>
   <g id="patch_4">
    <path d="M 453.6 352.8 
L 453.6 7.2 
" style="fill:none;stroke:#000000;stroke-linecap:square;stroke-linejoin:miter;"/>
   </g>
   <g id="patch_5">
    <path d="M 7.2 352.8 
L 453.6 352.8 
" style="fill:none;stroke:#000000;stroke-linecap:square;stroke-linejoin:miter;"/>
   </g>
   <g id="patch_6">
    <path d="M 7.2 352.8 
L 7.2 7.2 
" style="fill:none;stroke:#000000;stroke-linecap:square;stroke-linejoin:miter;"/>
   </g>
   <g id="matplotlib.axis_1">
    <g id="xtick_1"/>
    <g id="xtick_2">
     <g id="line2d_7">
      <path clip-path="url(#pb5b34b8c06)" d="M 54.098611 352.8 
L 54.098611 7.2 
" style="fill:none;stroke:#000000;stroke-dasharray:1.000000,3.000000;stroke-dashoffset:0.0;stroke-width:0.5;"/>
     </g>
     <g id="line2d_8">
      <defs>
       <path d="M 0 0 
L 0 -4 
" id="mcdb5a65fff" style="stroke:#000000;stroke-width:0.5;"/>
      </defs>
      <g>
       <use style="stroke:#000000;stroke-width:0.5;" x="54.0986107985" xlink:href="#mcdb5a65fff" y="352.8"/>
      </g>
     </g>
     <g id="line2d_9">
      <defs>
       <path d="M 0 0 
L 0 4 
" id="mf74b8f5220" style="stroke:#000000;stroke-width:0.5;"/>
      </defs>
      <g>
       <use style="stroke:#000000;stroke-width:0.5;" x="54.0986107985" xlink:href="#mf74b8f5220" y="7.2"/>
      </g>
     </g>
     <g id="text_1">
      <!-- -6 -->
      <defs>
       <path d="M 33.015625 40.375 
Q 26.375 40.375 22.484375 35.828125 
Q 18.609375 31.296875 18.609375 23.390625 
Q 18.609375 15.53125 22.484375 10.953125 
Q 26.375 6.390625 33.015625 6.390625 
Q 39.65625 6.390625 43.53125 10.953125 
Q 47.40625 15.53125 47.40625 23.390625 
Q 47.40625 31.296875 43.53125 35.828125 
Q 39.65625 40.375 33.015625 40.375 
M 52.59375 71.296875 
L 52.59375 62.3125 
Q 48.875 64.0625 45.09375 64.984375 
Q 41.3125 65.921875 37.59375 65.921875 
Q 27.828125 65.921875 22.671875 59.328125 
Q 17.53125 52.734375 16.796875 39.40625 
Q 19.671875 43.65625 24.015625 45.921875 
Q 28.375 48.1875 33.59375 48.1875 
Q 44.578125 48.1875 50.953125 41.515625 
Q 57.328125 34.859375 57.328125 23.390625 
Q 57.328125 12.15625 50.6875 5.359375 
Q 44.046875 -1.421875 33.015625 -1.421875 
Q 20.359375 -1.421875 13.671875 8.265625 
Q 6.984375 17.96875 6.984375 36.375 
Q 6.984375 53.65625 15.1875 63.9375 
Q 23.390625 74.21875 37.203125 74.21875 
Q 40.921875 74.21875 44.703125 73.484375 
Q 48.484375 72.75 52.59375 71.296875 
" id="BitstreamVeraSans-Roman-36"/>
       <path d="M 4.890625 31.390625 
L 31.203125 31.390625 
L 31.203125 23.390625 
L 4.890625 23.390625 
z
" id="BitstreamVeraSans-Roman-2d"/>
      </defs>
      <g transform="translate(44.1282982985 371.996875)scale(0.2 -0.2)">
       <use xlink:href="#BitstreamVeraSans-Roman-2d"/>
       <use x="36.083984375" xlink:href="#BitstreamVeraSans-Roman-36"/>
      </g>
     </g>
    </g>
    <g id="xtick_3">
     <g id="line2d_10">
      <path clip-path="url(#pb5b34b8c06)" d="M 101.098774 352.8 
L 101.098774 7.2 
" style="fill:none;stroke:#000000;stroke-dasharray:1.000000,3.000000;stroke-dashoffset:0.0;stroke-width:0.5;"/>
     </g>
     <g id="line2d_11">
      <g>
       <use style="stroke:#000000;stroke-width:0.5;" x="101.098774234" xlink:href="#mcdb5a65fff" y="352.8"/>
      </g>
     </g>
     <g id="line2d_12">
      <g>
       <use style="stroke:#000000;stroke-width:0.5;" x="101.098774234" xlink:href="#mf74b8f5220" y="7.2"/>
      </g>
     </g>
     <g id="text_2">
      <!-- -4 -->
      <defs>
       <path d="M 37.796875 64.3125 
L 12.890625 25.390625 
L 37.796875 25.390625 
z
M 35.203125 72.90625 
L 47.609375 72.90625 
L 47.609375 25.390625 
L 58.015625 25.390625 
L 58.015625 17.1875 
L 47.609375 17.1875 
L 47.609375 0 
L 37.796875 0 
L 37.796875 17.1875 
L 4.890625 17.1875 
L 4.890625 26.703125 
z
" id="BitstreamVeraSans-Roman-34"/>
      </defs>
      <g transform="translate(91.1284617339 371.996875)scale(0.2 -0.2)">
       <use xlink:href="#BitstreamVeraSans-Roman-2d"/>
       <use x="36.083984375" xlink:href="#BitstreamVeraSans-Roman-34"/>
      </g>
     </g>
    </g>
    <g id="xtick_4">
     <g id="line2d_13">
      <path clip-path="url(#pb5b34b8c06)" d="M 148.098938 352.8 
L 148.098938 7.2 
" style="fill:none;stroke:#000000;stroke-dasharray:1.000000,3.000000;stroke-dashoffset:0.0;stroke-width:0.5;"/>
     </g>
     <g id="line2d_14">
      <g>
       <use style="stroke:#000000;stroke-width:0.5;" x="148.098937669" xlink:href="#mcdb5a65fff" y="352.8"/>
      </g>
     </g>
     <g id="line2d_15">
      <g>
       <use style="stroke:#000000;stroke-width:0.5;" x="148.098937669" xlink:href="#mf74b8f5220" y="7.2"/>
      </g>
     </g>
     <g id="text_3">
      <!-- -2 -->
      <defs>
       <path d="M 19.1875 8.296875 
L 53.609375 8.296875 
L 53.609375 0 
L 7.328125 0 
L 7.328125 8.296875 
Q 12.9375 14.109375 22.625 23.890625 
Q 32.328125 33.6875 34.8125 36.53125 
Q 39.546875 41.84375 41.421875 45.53125 
Q 43.3125 49.21875 43.3125 52.78125 
Q 43.3125 58.59375 39.234375 62.25 
Q 35.15625 65.921875 28.609375 65.921875 
Q 23.96875 65.921875 18.8125 64.3125 
Q 13.671875 62.703125 7.8125 59.421875 
L 7.8125 69.390625 
Q 13.765625 71.78125 18.9375 73 
Q 24.125 74.21875 28.421875 74.21875 
Q 39.75 74.21875 46.484375 68.546875 
Q 53.21875 62.890625 53.21875 53.421875 
Q 53.21875 48.921875 51.53125 44.890625 
Q 49.859375 40.875 45.40625 35.40625 
Q 44.1875 33.984375 37.640625 27.21875 
Q 31.109375 20.453125 19.1875 8.296875 
" id="BitstreamVeraSans-Roman-32"/>
      </defs>
      <g transform="translate(138.128625169 371.996875)scale(0.2 -0.2)">
       <use xlink:href="#BitstreamVeraSans-Roman-2d"/>
       <use x="36.083984375" xlink:href="#BitstreamVeraSans-Roman-32"/>
      </g>
     </g>
    </g>
    <g id="xtick_5">
     <g id="line2d_16">
      <path clip-path="url(#pb5b34b8c06)" d="M 195.099101 352.8 
L 195.099101 7.2 
" style="fill:none;stroke:#000000;stroke-dasharray:1.000000,3.000000;stroke-dashoffset:0.0;stroke-width:0.5;"/>
     </g>
     <g id="line2d_17">
      <g>
       <use style="stroke:#000000;stroke-width:0.5;" x="195.099101105" xlink:href="#mcdb5a65fff" y="352.8"/>
      </g>
     </g>
     <g id="line2d_18">
      <g>
       <use style="stroke:#000000;stroke-width:0.5;" x="195.099101105" xlink:href="#mf74b8f5220" y="7.2"/>
      </g>
     </g>
     <g id="text_4">
      <!-- 0 -->
      <defs>
       <path d="M 31.78125 66.40625 
Q 24.171875 66.40625 20.328125 58.90625 
Q 16.5 51.421875 16.5 36.375 
Q 16.5 21.390625 20.328125 13.890625 
Q 24.171875 6.390625 31.78125 6.390625 
Q 39.453125 6.390625 43.28125 13.890625 
Q 47.125 21.390625 47.125 36.375 
Q 47.125 51.421875 43.28125 58.90625 
Q 39.453125 66.40625 31.78125 66.40625 
M 31.78125 74.21875 
Q 44.046875 74.21875 50.515625 64.515625 
Q 56.984375 54.828125 56.984375 36.375 
Q 56.984375 17.96875 50.515625 8.265625 
Q 44.046875 -1.421875 31.78125 -1.421875 
Q 19.53125 -1.421875 13.0625 8.265625 
Q 6.59375 17.96875 6.59375 36.375 
Q 6.59375 54.828125 13.0625 64.515625 
Q 19.53125 74.21875 31.78125 74.21875 
" id="BitstreamVeraSans-Roman-30"/>
      </defs>
      <g transform="translate(188.736601105 371.996875)scale(0.2 -0.2)">
       <use xlink:href="#BitstreamVeraSans-Roman-30"/>
      </g>
     </g>
    </g>
    <g id="xtick_6">
     <g id="line2d_19">
      <path clip-path="url(#pb5b34b8c06)" d="M 242.099265 352.8 
L 242.099265 7.2 
" style="fill:none;stroke:#000000;stroke-dasharray:1.000000,3.000000;stroke-dashoffset:0.0;stroke-width:0.5;"/>
     </g>
     <g id="line2d_20">
      <g>
       <use style="stroke:#000000;stroke-width:0.5;" x="242.09926454" xlink:href="#mcdb5a65fff" y="352.8"/>
      </g>
     </g>
     <g id="line2d_21">
      <g>
       <use style="stroke:#000000;stroke-width:0.5;" x="242.09926454" xlink:href="#mf74b8f5220" y="7.2"/>
      </g>
     </g>
     <g id="text_5">
      <!-- 2 -->
      <g transform="translate(235.73676454 371.996875)scale(0.2 -0.2)">
       <use xlink:href="#BitstreamVeraSans-Roman-32"/>
      </g>
     </g>
    </g>
    <g id="xtick_7">
     <g id="line2d_22">
      <path clip-path="url(#pb5b34b8c06)" d="M 289.099428 352.8 
L 289.099428 7.2 
" style="fill:none;stroke:#000000;stroke-dasharray:1.000000,3.000000;stroke-dashoffset:0.0;stroke-width:0.5;"/>
     </g>
     <g id="line2d_23">
      <g>
       <use style="stroke:#000000;stroke-width:0.5;" x="289.099427976" xlink:href="#mcdb5a65fff" y="352.8"/>
      </g>
     </g>
     <g id="line2d_24">
      <g>
       <use style="stroke:#000000;stroke-width:0.5;" x="289.099427976" xlink:href="#mf74b8f5220" y="7.2"/>
      </g>
     </g>
     <g id="text_6">
      <!-- 4 -->
      <g transform="translate(282.736927976 371.996875)scale(0.2 -0.2)">
       <use xlink:href="#BitstreamVeraSans-Roman-34"/>
      </g>
     </g>
    </g>
    <g id="xtick_8">
     <g id="line2d_25">
      <path clip-path="url(#pb5b34b8c06)" d="M 336.099591 352.8 
L 336.099591 7.2 
" style="fill:none;stroke:#000000;stroke-dasharray:1.000000,3.000000;stroke-dashoffset:0.0;stroke-width:0.5;"/>
     </g>
     <g id="line2d_26">
      <g>
       <use style="stroke:#000000;stroke-width:0.5;" x="336.099591411" xlink:href="#mcdb5a65fff" y="352.8"/>
      </g>
     </g>
     <g id="line2d_27">
      <g>
       <use style="stroke:#000000;stroke-width:0.5;" x="336.099591411" xlink:href="#mf74b8f5220" y="7.2"/>
      </g>
     </g>
     <g id="text_7">
      <!-- 6 -->
      <g transform="translate(329.737091411 371.996875)scale(0.2 -0.2)">
       <use xlink:href="#BitstreamVeraSans-Roman-36"/>
      </g>
     </g>
    </g>
    <g id="xtick_9">
     <g id="line2d_28">
      <path clip-path="url(#pb5b34b8c06)" d="M 383.099755 352.8 
L 383.099755 7.2 
" style="fill:none;stroke:#000000;stroke-dasharray:1.000000,3.000000;stroke-dashoffset:0.0;stroke-width:0.5;"/>
     </g>
     <g id="line2d_29">
      <g>
       <use style="stroke:#000000;stroke-width:0.5;" x="383.099754847" xlink:href="#mcdb5a65fff" y="352.8"/>
      </g>
     </g>
     <g id="line2d_30">
      <g>
       <use style="stroke:#000000;stroke-width:0.5;" x="383.099754847" xlink:href="#mf74b8f5220" y="7.2"/>
      </g>
     </g>
     <g id="text_8">
      <!-- 8 -->
      <defs>
       <path d="M 31.78125 34.625 
Q 24.75 34.625 20.71875 30.859375 
Q 16.703125 27.09375 16.703125 20.515625 
Q 16.703125 13.921875 20.71875 10.15625 
Q 24.75 6.390625 31.78125 6.390625 
Q 38.8125 6.390625 42.859375 10.171875 
Q 46.921875 13.96875 46.921875 20.515625 
Q 46.921875 27.09375 42.890625 30.859375 
Q 38.875 34.625 31.78125 34.625 
M 21.921875 38.8125 
Q 15.578125 40.375 12.03125 44.71875 
Q 8.5 49.078125 8.5 55.328125 
Q 8.5 64.0625 14.71875 69.140625 
Q 20.953125 74.21875 31.78125 74.21875 
Q 42.671875 74.21875 48.875 69.140625 
Q 55.078125 64.0625 55.078125 55.328125 
Q 55.078125 49.078125 51.53125 44.71875 
Q 48 40.375 41.703125 38.8125 
Q 48.828125 37.15625 52.796875 32.3125 
Q 56.78125 27.484375 56.78125 20.515625 
Q 56.78125 9.90625 50.3125 4.234375 
Q 43.84375 -1.421875 31.78125 -1.421875 
Q 19.734375 -1.421875 13.25 4.234375 
Q 6.78125 9.90625 6.78125 20.515625 
Q 6.78125 27.484375 10.78125 32.3125 
Q 14.796875 37.15625 21.921875 38.8125 
M 18.3125 54.390625 
Q 18.3125 48.734375 21.84375 45.5625 
Q 25.390625 42.390625 31.78125 42.390625 
Q 38.140625 42.390625 41.71875 45.5625 
Q 45.3125 48.734375 45.3125 54.390625 
Q 45.3125 60.0625 41.71875 63.234375 
Q 38.140625 66.40625 31.78125 66.40625 
Q 25.390625 66.40625 21.84375 63.234375 
Q 18.3125 60.0625 18.3125 54.390625 
" id="BitstreamVeraSans-Roman-38"/>
      </defs>
      <g transform="translate(376.737254847 371.996875)scale(0.2 -0.2)">
       <use xlink:href="#BitstreamVeraSans-Roman-38"/>
      </g>
     </g>
    </g>
    <g id="xtick_10">
     <g id="line2d_31">
      <path clip-path="url(#pb5b34b8c06)" d="M 430.099918 352.8 
L 430.099918 7.2 
" style="fill:none;stroke:#000000;stroke-dasharray:1.000000,3.000000;stroke-dashoffset:0.0;stroke-width:0.5;"/>
     </g>
     <g id="line2d_32">
      <g>
       <use style="stroke:#000000;stroke-width:0.5;" x="430.099918282" xlink:href="#mcdb5a65fff" y="352.8"/>
      </g>
     </g>
     <g id="line2d_33">
      <g>
       <use style="stroke:#000000;stroke-width:0.5;" x="430.099918282" xlink:href="#mf74b8f5220" y="7.2"/>
      </g>
     </g>
     <g id="text_9">
      <!-- 10 -->
      <defs>
       <path d="M 12.40625 8.296875 
L 28.515625 8.296875 
L 28.515625 63.921875 
L 10.984375 60.40625 
L 10.984375 69.390625 
L 28.421875 72.90625 
L 38.28125 72.90625 
L 38.28125 8.296875 
L 54.390625 8.296875 
L 54.390625 0 
L 12.40625 0 
z
" id="BitstreamVeraSans-Roman-31"/>
      </defs>
      <g transform="translate(417.374918282 371.996875)scale(0.2 -0.2)">
       <use xlink:href="#BitstreamVeraSans-Roman-31"/>
       <use x="63.623046875" xlink:href="#BitstreamVeraSans-Roman-30"/>
      </g>
     </g>
    </g>
    <g id="xtick_11"/>
    <g id="xtick_12">
     <g id="line2d_34">
      <defs>
       <path d="M 0 0 
L 0 -2 
" id="m9988a785ea" style="stroke:#000000;stroke-width:0.5;"/>
      </defs>
      <g>
       <use style="stroke:#000000;stroke-width:0.5;" x="54.0986107985" xlink:href="#m9988a785ea" y="352.8"/>
      </g>
     </g>
     <g id="line2d_35">
      <defs>
       <path d="M 0 0 
L 0 2 
" id="m14b937b163" style="stroke:#000000;stroke-width:0.5;"/>
      </defs>
      <g>
       <use style="stroke:#000000;stroke-width:0.5;" x="54.0986107985" xlink:href="#m14b937b163" y="7.2"/>
      </g>
     </g>
    </g>
    <g id="xtick_13">
     <g id="line2d_36">
      <g>
       <use style="stroke:#000000;stroke-width:0.5;" x="101.098774234" xlink:href="#m9988a785ea" y="352.8"/>
      </g>
     </g>
     <g id="line2d_37">
      <g>
       <use style="stroke:#000000;stroke-width:0.5;" x="101.098774234" xlink:href="#m14b937b163" y="7.2"/>
      </g>
     </g>
    </g>
    <g id="xtick_14">
     <g id="line2d_38">
      <g>
       <use style="stroke:#000000;stroke-width:0.5;" x="148.098937669" xlink:href="#m9988a785ea" y="352.8"/>
      </g>
     </g>
     <g id="line2d_39">
      <g>
       <use style="stroke:#000000;stroke-width:0.5;" x="148.098937669" xlink:href="#m14b937b163" y="7.2"/>
      </g>
     </g>
    </g>
    <g id="xtick_15">
     <g id="line2d_40">
      <g>
       <use style="stroke:#000000;stroke-width:0.5;" x="195.099101105" xlink:href="#m9988a785ea" y="352.8"/>
      </g>
     </g>
     <g id="line2d_41">
      <g>
       <use style="stroke:#000000;stroke-width:0.5;" x="195.099101105" xlink:href="#m14b937b163" y="7.2"/>
      </g>
     </g>
    </g>
    <g id="xtick_16">
     <g id="line2d_42">
      <g>
       <use style="stroke:#000000;stroke-width:0.5;" x="242.09926454" xlink:href="#m9988a785ea" y="352.8"/>
      </g>
     </g>
     <g id="line2d_43">
      <g>
       <use style="stroke:#000000;stroke-width:0.5;" x="242.09926454" xlink:href="#m14b937b163" y="7.2"/>
      </g>
     </g>
    </g>
    <g id="xtick_17">
     <g id="line2d_44">
      <g>
       <use style="stroke:#000000;stroke-width:0.5;" x="289.099427976" xlink:href="#m9988a785ea" y="352.8"/>
      </g>
     </g>
     <g id="line2d_45">
      <g>
       <use style="stroke:#000000;stroke-width:0.5;" x="289.099427976" xlink:href="#m14b937b163" y="7.2"/>
      </g>
     </g>
    </g>
    <g id="xtick_18">
     <g id="line2d_46">
      <g>
       <use style="stroke:#000000;stroke-width:0.5;" x="336.099591411" xlink:href="#m9988a785ea" y="352.8"/>
      </g>
     </g>
     <g id="line2d_47">
      <g>
       <use style="stroke:#000000;stroke-width:0.5;" x="336.099591411" xlink:href="#m14b937b163" y="7.2"/>
      </g>
     </g>
    </g>
    <g id="xtick_19">
     <g id="line2d_48">
      <g>
       <use style="stroke:#000000;stroke-width:0.5;" x="383.099754847" xlink:href="#m9988a785ea" y="352.8"/>
      </g>
     </g>
     <g id="line2d_49">
      <g>
       <use style="stroke:#000000;stroke-width:0.5;" x="383.099754847" xlink:href="#m14b937b163" y="7.2"/>
      </g>
     </g>
    </g>
    <g id="xtick_20">
     <g id="line2d_50">
      <g>
       <use style="stroke:#000000;stroke-width:0.5;" x="430.099918282" xlink:href="#m9988a785ea" y="352.8"/>
      </g>
     </g>
     <g id="line2d_51">
      <g>
       <use style="stroke:#000000;stroke-width:0.5;" x="430.099918282" xlink:href="#m14b937b163" y="7.2"/>
      </g>
     </g>
    </g>
    <g id="text_10">
     <!-- log10 of Df -->
     <defs>
      <path id="BitstreamVeraSans-Roman-20"/>
      <path d="M 30.609375 48.390625 
Q 23.390625 48.390625 19.1875 42.75 
Q 14.984375 37.109375 14.984375 27.296875 
Q 14.984375 17.484375 19.15625 11.84375 
Q 23.34375 6.203125 30.609375 6.203125 
Q 37.796875 6.203125 41.984375 11.859375 
Q 46.1875 17.53125 46.1875 27.296875 
Q 46.1875 37.015625 41.984375 42.703125 
Q 37.796875 48.390625 30.609375 48.390625 
M 30.609375 56 
Q 42.328125 56 49.015625 48.375 
Q 55.71875 40.765625 55.71875 27.296875 
Q 55.71875 13.875 49.015625 6.21875 
Q 42.328125 -1.421875 30.609375 -1.421875 
Q 18.84375 -1.421875 12.171875 6.21875 
Q 5.515625 13.875 5.515625 27.296875 
Q 5.515625 40.765625 12.171875 48.375 
Q 18.84375 56 30.609375 56 
" id="BitstreamVeraSans-Roman-6f"/>
      <path d="M 9.421875 75.984375 
L 18.40625 75.984375 
L 18.40625 0 
L 9.421875 0 
z
" id="BitstreamVeraSans-Roman-6c"/>
      <path d="M 19.671875 64.796875 
L 19.671875 8.109375 
L 31.59375 8.109375 
Q 46.6875 8.109375 53.6875 14.9375 
Q 60.6875 21.78125 60.6875 36.53125 
Q 60.6875 51.171875 53.6875 57.984375 
Q 46.6875 64.796875 31.59375 64.796875 
z
M 9.8125 72.90625 
L 30.078125 72.90625 
Q 51.265625 72.90625 61.171875 64.09375 
Q 71.09375 55.28125 71.09375 36.53125 
Q 71.09375 17.671875 61.125 8.828125 
Q 51.171875 0 30.078125 0 
L 9.8125 0 
z
" id="BitstreamVeraSans-Roman-44"/>
      <path d="M 45.40625 27.984375 
Q 45.40625 37.75 41.375 43.109375 
Q 37.359375 48.484375 30.078125 48.484375 
Q 22.859375 48.484375 18.828125 43.109375 
Q 14.796875 37.75 14.796875 27.984375 
Q 14.796875 18.265625 18.828125 12.890625 
Q 22.859375 7.515625 30.078125 7.515625 
Q 37.359375 7.515625 41.375 12.890625 
Q 45.40625 18.265625 45.40625 27.984375 
M 54.390625 6.78125 
Q 54.390625 -7.171875 48.1875 -13.984375 
Q 42 -20.796875 29.203125 -20.796875 
Q 24.46875 -20.796875 20.265625 -20.09375 
Q 16.0625 -19.390625 12.109375 -17.921875 
L 12.109375 -9.1875 
Q 16.0625 -11.328125 19.921875 -12.34375 
Q 23.78125 -13.375 27.78125 -13.375 
Q 36.625 -13.375 41.015625 -8.765625 
Q 45.40625 -4.15625 45.40625 5.171875 
L 45.40625 9.625 
Q 42.625 4.78125 38.28125 2.390625 
Q 33.9375 0 27.875 0 
Q 17.828125 0 11.671875 7.65625 
Q 5.515625 15.328125 5.515625 27.984375 
Q 5.515625 40.671875 11.671875 48.328125 
Q 17.828125 56 27.875 56 
Q 33.9375 56 38.28125 53.609375 
Q 42.625 51.21875 45.40625 46.390625 
L 45.40625 54.6875 
L 54.390625 54.6875 
z
" id="BitstreamVeraSans-Roman-67"/>
      <path d="M 37.109375 75.984375 
L 37.109375 68.5 
L 28.515625 68.5 
Q 23.6875 68.5 21.796875 66.546875 
Q 19.921875 64.59375 19.921875 59.515625 
L 19.921875 54.6875 
L 34.71875 54.6875 
L 34.71875 47.703125 
L 19.921875 47.703125 
L 19.921875 0 
L 10.890625 0 
L 10.890625 47.703125 
L 2.296875 47.703125 
L 2.296875 54.6875 
L 10.890625 54.6875 
L 10.890625 58.5 
Q 10.890625 67.625 15.140625 71.796875 
Q 19.390625 75.984375 28.609375 75.984375 
z
" id="BitstreamVeraSans-Roman-66"/>
     </defs>
     <g transform="translate(175.2140625 396.353125)scale(0.2 -0.2)">
      <use xlink:href="#BitstreamVeraSans-Roman-6c"/>
      <use x="27.783203125" xlink:href="#BitstreamVeraSans-Roman-6f"/>
      <use x="88.96484375" xlink:href="#BitstreamVeraSans-Roman-67"/>
      <use x="152.44140625" xlink:href="#BitstreamVeraSans-Roman-31"/>
      <use x="216.064453125" xlink:href="#BitstreamVeraSans-Roman-30"/>
      <use x="279.6875" xlink:href="#BitstreamVeraSans-Roman-20"/>
      <use x="311.474609375" xlink:href="#BitstreamVeraSans-Roman-6f"/>
      <use x="372.65625" xlink:href="#BitstreamVeraSans-Roman-66"/>
      <use x="407.861328125" xlink:href="#BitstreamVeraSans-Roman-20"/>
      <use x="439.6484375" xlink:href="#BitstreamVeraSans-Roman-44"/>
      <use x="516.650390625" xlink:href="#BitstreamVeraSans-Roman-66"/>
     </g>
    </g>
   </g>
   <g id="matplotlib.axis_2">
    <g id="ytick_1">
     <g id="line2d_52">
      <path clip-path="url(#pb5b34b8c06)" d="M 7.2 352.8 
L 453.6 352.8 
" style="fill:none;stroke:#000000;stroke-dasharray:1.000000,3.000000;stroke-dashoffset:0.0;stroke-width:0.5;"/>
     </g>
     <g id="line2d_53">
      <defs>
       <path d="M 0 0 
L 4 0 
" id="m9e67b882d4" style="stroke:#000000;stroke-width:0.5;"/>
      </defs>
      <g>
       <use style="stroke:#000000;stroke-width:0.5;" x="7.2" xlink:href="#m9e67b882d4" y="352.8"/>
      </g>
     </g>
     <g id="line2d_54">
      <defs>
       <path d="M 0 0 
L -4 0 
" id="m734f25e46a" style="stroke:#000000;stroke-width:0.5;"/>
      </defs>
      <g>
       <use style="stroke:#000000;stroke-width:0.5;" x="453.6" xlink:href="#m734f25e46a" y="352.8"/>
      </g>
     </g>
    </g>
    <g id="ytick_2">
     <g id="line2d_55">
      <path clip-path="url(#pb5b34b8c06)" d="M 7.2 284.364356 
L 453.6 284.364356 
" style="fill:none;stroke:#000000;stroke-dasharray:1.000000,3.000000;stroke-dashoffset:0.0;stroke-width:0.5;"/>
     </g>
     <g id="line2d_56">
      <g>
       <use style="stroke:#000000;stroke-width:0.5;" x="7.2" xlink:href="#m9e67b882d4" y="284.364356436"/>
      </g>
     </g>
     <g id="line2d_57">
      <g>
       <use style="stroke:#000000;stroke-width:0.5;" x="453.6" xlink:href="#m734f25e46a" y="284.364356436"/>
      </g>
     </g>
    </g>
    <g id="ytick_3">
     <g id="line2d_58">
      <path clip-path="url(#pb5b34b8c06)" d="M 7.2 215.928713 
L 453.6 215.928713 
" style="fill:none;stroke:#000000;stroke-dasharray:1.000000,3.000000;stroke-dashoffset:0.0;stroke-width:0.5;"/>
     </g>
     <g id="line2d_59">
      <g>
       <use style="stroke:#000000;stroke-width:0.5;" x="7.2" xlink:href="#m9e67b882d4" y="215.928712871"/>
      </g>
     </g>
     <g id="line2d_60">
      <g>
       <use style="stroke:#000000;stroke-width:0.5;" x="453.6" xlink:href="#m734f25e46a" y="215.928712871"/>
      </g>
     </g>
    </g>
    <g id="ytick_4">
     <g id="line2d_61">
      <path clip-path="url(#pb5b34b8c06)" d="M 7.2 147.493069 
L 453.6 147.493069 
" style="fill:none;stroke:#000000;stroke-dasharray:1.000000,3.000000;stroke-dashoffset:0.0;stroke-width:0.5;"/>
     </g>
     <g id="line2d_62">
      <g>
       <use style="stroke:#000000;stroke-width:0.5;" x="7.2" xlink:href="#m9e67b882d4" y="147.493069307"/>
      </g>
     </g>
     <g id="line2d_63">
      <g>
       <use style="stroke:#000000;stroke-width:0.5;" x="453.6" xlink:href="#m734f25e46a" y="147.493069307"/>
      </g>
     </g>
    </g>
    <g id="ytick_5">
     <g id="line2d_64">
      <path clip-path="url(#pb5b34b8c06)" d="M 7.2 79.057426 
L 453.6 79.057426 
" style="fill:none;stroke:#000000;stroke-dasharray:1.000000,3.000000;stroke-dashoffset:0.0;stroke-width:0.5;"/>
     </g>
     <g id="line2d_65">
      <g>
       <use style="stroke:#000000;stroke-width:0.5;" x="7.2" xlink:href="#m9e67b882d4" y="79.0574257426"/>
      </g>
     </g>
     <g id="line2d_66">
      <g>
       <use style="stroke:#000000;stroke-width:0.5;" x="453.6" xlink:href="#m734f25e46a" y="79.0574257426"/>
      </g>
     </g>
    </g>
    <g id="ytick_6">
     <g id="line2d_67">
      <path clip-path="url(#pb5b34b8c06)" d="M 7.2 10.621782 
L 453.6 10.621782 
" style="fill:none;stroke:#000000;stroke-dasharray:1.000000,3.000000;stroke-dashoffset:0.0;stroke-width:0.5;"/>
     </g>
     <g id="line2d_68">
      <g>
       <use style="stroke:#000000;stroke-width:0.5;" x="7.2" xlink:href="#m9e67b882d4" y="10.6217821782"/>
      </g>
     </g>
     <g id="line2d_69">
      <g>
       <use style="stroke:#000000;stroke-width:0.5;" x="453.6" xlink:href="#m734f25e46a" y="10.6217821782"/>
      </g>
     </g>
    </g>
   </g>
   <g id="text_11">
    <!-- {f10-f14}, 20-D -->
    <defs>
     <path d="M 12.5 -9.28125 
L 15.921875 -9.28125 
Q 22.75 -9.28125 24.828125 -7.171875 
Q 26.90625 -5.078125 26.90625 1.90625 
L 26.90625 14.015625 
Q 26.90625 21.625 29.09375 25.09375 
Q 31.296875 28.5625 36.71875 29.890625 
Q 31.296875 31.109375 29.09375 34.5625 
Q 26.90625 38.03125 26.90625 45.703125 
L 26.90625 57.8125 
Q 26.90625 64.75 24.828125 66.875 
Q 22.75 69 15.921875 69 
L 12.5 69 
L 12.5 75.984375 
L 15.578125 75.984375 
Q 27.734375 75.984375 31.8125 72.390625 
Q 35.890625 68.796875 35.890625 58.015625 
L 35.890625 46.296875 
Q 35.890625 39.015625 38.515625 36.203125 
Q 41.15625 33.40625 48.09375 33.40625 
L 51.125 33.40625 
L 51.125 26.421875 
L 48.09375 26.421875 
Q 41.15625 26.421875 38.515625 23.578125 
Q 35.890625 20.75 35.890625 13.375 
L 35.890625 1.703125 
Q 35.890625 -9.078125 31.8125 -12.6875 
Q 27.734375 -16.3125 15.578125 -16.3125 
L 12.5 -16.3125 
z
" id="BitstreamVeraSans-Roman-7d"/>
     <path d="M 51.125 -9.28125 
L 51.125 -16.3125 
L 48.09375 -16.3125 
Q 35.9375 -16.3125 31.8125 -12.6875 
Q 27.6875 -9.078125 27.6875 1.703125 
L 27.6875 13.375 
Q 27.6875 20.75 25.046875 23.578125 
Q 22.40625 26.421875 15.484375 26.421875 
L 12.5 26.421875 
L 12.5 33.40625 
L 15.484375 33.40625 
Q 22.46875 33.40625 25.078125 36.203125 
Q 27.6875 39.015625 27.6875 46.296875 
L 27.6875 58.015625 
Q 27.6875 68.796875 31.8125 72.390625 
Q 35.9375 75.984375 48.09375 75.984375 
L 51.125 75.984375 
L 51.125 69 
L 47.796875 69 
Q 40.921875 69 38.8125 66.84375 
Q 36.71875 64.703125 36.71875 57.8125 
L 36.71875 45.703125 
Q 36.71875 38.03125 34.5 34.5625 
Q 32.28125 31.109375 26.90625 29.890625 
Q 32.328125 28.5625 34.515625 25.09375 
Q 36.71875 21.625 36.71875 14.015625 
L 36.71875 1.90625 
Q 36.71875 -4.984375 38.8125 -7.125 
Q 40.921875 -9.28125 47.796875 -9.28125 
z
" id="BitstreamVeraSans-Roman-7b"/>
     <path d="M 11.71875 12.40625 
L 22.015625 12.40625 
L 22.015625 4 
L 14.015625 -11.625 
L 7.71875 -11.625 
L 11.71875 4 
z
" id="BitstreamVeraSans-Roman-2c"/>
    </defs>
    <g transform="translate(286.247 345.888)scale(0.2 -0.2)">
     <use xlink:href="#BitstreamVeraSans-Roman-7b"/>
     <use x="63.623046875" xlink:href="#BitstreamVeraSans-Roman-66"/>
     <use x="98.828125" xlink:href="#BitstreamVeraSans-Roman-31"/>
     <use x="162.451171875" xlink:href="#BitstreamVeraSans-Roman-30"/>
     <use x="226.07421875" xlink:href="#BitstreamVeraSans-Roman-2d"/>
     <use x="262.158203125" xlink:href="#BitstreamVeraSans-Roman-66"/>
     <use x="297.36328125" xlink:href="#BitstreamVeraSans-Roman-31"/>
     <use x="360.986328125" xlink:href="#BitstreamVeraSans-Roman-34"/>
     <use x="424.609375" xlink:href="#BitstreamVeraSans-Roman-7d"/>
     <use x="488.232421875" xlink:href="#BitstreamVeraSans-Roman-2c"/>
     <use x="520.01953125" xlink:href="#BitstreamVeraSans-Roman-20"/>
     <use x="551.806640625" xlink:href="#BitstreamVeraSans-Roman-32"/>
     <use x="615.4296875" xlink:href="#BitstreamVeraSans-Roman-30"/>
     <use x="679.052734375" xlink:href="#BitstreamVeraSans-Roman-2d"/>
     <use x="715.13671875" xlink:href="#BitstreamVeraSans-Roman-44"/>
    </g>
   </g>
   <g id="text_12">
    <!-- 0.0.0 -->
    <defs>
     <path d="M 10.6875 12.40625 
L 21 12.40625 
L 21 0 
L 10.6875 0 
z
" id="BitstreamVeraSans-Roman-2e"/>
    </defs>
    <g style="fill:#808080;" transform="translate(217.678125 347.2643125)scale(0.1 -0.1)">
     <use xlink:href="#BitstreamVeraSans-Roman-30"/>
     <use x="63.623046875" xlink:href="#BitstreamVeraSans-Roman-2e"/>
     <use x="95.41015625" xlink:href="#BitstreamVeraSans-Roman-30"/>
     <use x="159.033203125" xlink:href="#BitstreamVeraSans-Roman-2e"/>
     <use x="190.8203125" xlink:href="#BitstreamVeraSans-Roman-30"/>
    </g>
   </g>
  </g>
 </g>
 <defs>
  <clipPath id="pb5b34b8c06">
   <rect height="345.6" width="446.4" x="7.2" y="7.2"/>
  </clipPath>
 </defs>
</svg>
