<?xml version="1.0" encoding="utf-8" standalone="no"?>
<!DOCTYPE svg PUBLIC "-//W3C//DTD SVG 1.1//EN"
  "http://www.w3.org/Graphics/SVG/1.1/DTD/svg11.dtd">
<!-- Created with matplotlib (http://matplotlib.org/) -->
<svg height="407pt" version="1.1" viewBox="0 0 460 407" width="460pt" xmlns="http://www.w3.org/2000/svg" xmlns:xlink="http://www.w3.org/1999/xlink">
 <defs>
  <style type="text/css">
*{stroke-linecap:butt;stroke-linejoin:round;stroke-miterlimit:100000;}
  </style>
 </defs>
 <g id="figure_1">
  <g id="patch_1">
   <path d="M 0 407.7125 
L 460.8 407.7125 
L 460.8 0 
L 0 0 
z
" style="fill:#ffffff;"/>
  </g>
  <g id="axes_1">
   <g id="patch_2">
    <path d="M 7.2 352.8 
L 453.6 352.8 
L 453.6 7.2 
L 7.2 7.2 
z
" style="fill:#ffffff;"/>
   </g>
   <g id="line2d_1">
    <path clip-path="url(#pf927101bae)" d="M 101.911169 352.8 
L 101.911169 348.237624 
L 111.59017 348.237624 
L 111.59017 343.675248 
L 113.814247 343.675248 
L 113.814247 339.112871 
L 114.989853 339.112871 
L 114.989853 334.550495 
L 115.164326 334.550495 
L 115.164326 329.988119 
L 121.018945 329.988119 
L 121.018945 325.425743 
L 126.229938 325.425743 
L 126.229938 320.863366 
L 129.917559 320.863366 
L 129.917559 316.30099 
L 131.837654 316.30099 
L 131.837654 311.738614 
L 132.135215 311.738614 
L 132.135215 307.176238 
L 133.676558 307.176238 
L 133.676558 302.613861 
L 133.999189 302.613861 
L 133.999189 298.051485 
L 136.235863 298.051485 
L 136.235863 293.489109 
L 136.453868 293.489109 
L 136.453868 288.926733 
L 138.131007 288.926733 
L 138.131007 284.364356 
L 171.767764 284.364356 
L 171.767764 279.80198 
L 179.011929 279.80198 
L 179.011929 275.239604 
L 180.621756 275.239604 
L 180.621756 270.677228 
L 199.804516 270.677228 
L 199.804516 266.114851 
L 203.282843 266.114851 
L 203.282843 261.552475 
L 210.752155 261.552475 
L 210.752155 256.990099 
L 214.969712 256.990099 
L 214.969712 252.427723 
L 217.849424 252.427723 
L 217.849424 247.865347 
L 217.978401 247.865347 
L 217.978401 243.30297 
L 222.322779 243.30297 
L 222.322779 238.740594 
L 224.343014 238.740594 
L 224.343014 234.178218 
L 225.280023 234.178218 
L 225.280023 229.615842 
L 225.779242 229.615842 
L 225.779242 225.053465 
L 226.924216 225.053465 
L 226.924216 220.491089 
L 227.176731 220.491089 
L 227.176731 215.928713 
L 228.210431 215.928713 
L 228.210431 211.366337 
L 228.623158 211.366337 
L 228.623158 206.80396 
L 229.524007 206.80396 
L 229.524007 202.241584 
L 229.683209 202.241584 
L 229.711254 193.116832 
L 230.021526 193.116832 
L 230.021526 188.554455 
L 230.393341 188.554455 
L 230.393341 183.992079 
L 233.299918 183.992079 
L 233.299918 179.429703 
L 237.142979 179.429703 
L 237.142979 174.867327 
L 238.840816 174.867327 
L 238.930873 165.742574 
L 239.780067 165.742574 
L 239.780067 161.180198 
L 242.354252 161.180198 
L 242.354252 156.617822 
L 242.884473 156.617822 
L 242.884473 152.055446 
L 246.798025 152.055446 
L 246.798025 147.493069 
L 247.71432 147.493069 
L 247.71432 142.930693 
L 250.38099 142.930693 
L 250.38099 138.368317 
L 250.794572 138.368317 
L 250.794572 133.805941 
L 252.662735 133.805941 
L 252.662735 129.243564 
L 252.80851 129.243564 
L 252.80851 124.681188 
L 253.545107 124.681188 
L 253.545107 120.118812 
L 255.625855 120.118812 
L 255.727915 110.994059 
L 256.515441 110.994059 
L 256.515441 106.431683 
L 257.008239 106.431683 
L 257.008239 101.869307 
L 257.24882 101.869307 
L 257.24882 97.306931 
L 257.54003 97.306931 
L 257.54003 92.744554 
L 260.120126 92.744554 
L 260.120126 88.182178 
L 264.705579 88.182178 
L 264.705579 83.619802 
L 266.681178 83.619802 
L 266.681178 79.057426 
L 267.987322 79.057426 
L 267.987322 74.49505 
L 268.280476 74.49505 
L 268.280476 69.932673 
L 274.385095 69.932673 
L 274.385095 65.370297 
L 279.788237 65.370297 
L 279.788237 60.807921 
L 286.610347 60.807921 
L 286.610347 56.245545 
L 287.28391 56.245545 
L 287.28391 51.683168 
L 288.568208 51.683168 
L 288.568208 47.120792 
L 289.976252 47.120792 
L 289.976252 42.558416 
L 291.444562 42.558416 
L 291.444562 37.99604 
L 292.094556 37.99604 
L 292.094556 33.433663 
L 292.882885 33.433663 
L 292.882885 28.871287 
L 293.818311 28.871287 
L 293.818311 24.308911 
L 294.622819 24.308911 
L 294.622819 19.746535 
L 295.040101 19.746535 
L 295.040101 15.184158 
L 299.778635 15.184158 
L 299.778635 10.621782 
L 299.778635 10.621782 
L 453.6 10.621782 
L 453.6 10.621782 
" style="fill:none;stroke:#ff0000;stroke-linecap:square;stroke-width:3.0;"/>
   </g>
   <g id="line2d_2">
    <path clip-path="url(#pf927101bae)" d="M 232.357192 352.8 
L 232.357192 348.237624 
L 236.793265 348.237624 
L 236.793265 343.675248 
L 236.93892 343.675248 
L 236.93892 339.112871 
L 237.358351 339.112871 
L 237.358351 334.550495 
L 245.918065 334.550495 
L 245.918065 329.988119 
L 246.673847 329.988119 
L 246.673847 325.425743 
L 250.963948 325.425743 
L 250.963948 320.863366 
L 252.442184 320.863366 
L 252.442184 316.30099 
L 254.385517 316.30099 
L 254.385517 311.738614 
L 256.98257 311.738614 
L 256.98257 307.176238 
L 258.690231 307.176238 
L 258.690231 302.613861 
L 259.827905 302.613861 
L 259.827905 298.051485 
L 261.831723 298.051485 
L 261.831723 293.489109 
L 267.22619 293.489109 
L 267.22619 288.926733 
L 267.603471 288.926733 
L 267.603471 284.364356 
L 268.280476 284.364356 
L 268.280476 279.80198 
L 273.87655 279.80198 
L 273.87655 275.239604 
L 280.753613 275.239604 
L 280.753613 270.677228 
L 281.606889 270.677228 
L 281.606889 266.114851 
L 282.901076 266.114851 
L 282.901076 261.552475 
L 283.071887 261.552475 
L 283.071887 256.990099 
L 284.394036 256.990099 
L 284.443869 247.865347 
L 285.347662 247.865347 
L 285.347662 243.30297 
L 285.931999 243.30297 
L 285.931999 238.740594 
L 286.107443 238.740594 
L 286.107443 234.178218 
L 286.905905 234.178218 
L 286.905905 229.615842 
L 287.382429 229.615842 
L 287.382429 225.053465 
L 290.871314 225.053465 
L 290.871314 220.491089 
L 291.606113 220.491089 
L 291.606113 215.928713 
L 292.764651 215.928713 
L 292.764651 211.366337 
L 312.816941 211.366337 
L 312.816941 206.80396 
L 331.618977 206.80396 
L 331.618977 202.241584 
L 335.051859 202.241584 
L 335.051859 197.679208 
L 342.610127 197.679208 
L 342.610127 193.116832 
L 349.950161 193.116832 
L 349.950161 188.554455 
L 350.770666 188.554455 
L 350.770666 183.992079 
L 352.597205 183.992079 
L 352.597205 179.429703 
L 359.428103 179.429703 
L 359.428103 174.867327 
L 362.143325 174.867327 
L 362.143325 170.30495 
L 362.367218 170.30495 
L 362.367218 165.742574 
L 365.330378 165.742574 
L 365.330378 161.180198 
L 366.354444 161.180198 
L 366.354444 156.617822 
L 369.022341 156.617822 
L 369.022341 152.055446 
L 369.418253 152.055446 
L 369.418253 147.493069 
L 372.189996 147.493069 
L 372.189996 142.930693 
L 372.438866 142.930693 
L 372.438866 138.368317 
L 374.813431 138.368317 
L 374.813431 133.805941 
L 374.963393 133.805941 
L 374.963393 129.243564 
L 376.652926 129.243564 
L 376.652926 124.681188 
L 377.401971 124.681188 
L 377.401971 120.118812 
L 377.539733 120.118812 
L 377.539733 115.556436 
L 378.412395 115.556436 
L 378.412395 110.994059 
L 385.103893 110.994059 
L 385.103893 106.431683 
L 386.483773 106.431683 
L 386.483773 101.869307 
L 386.874475 101.869307 
L 386.874475 97.306931 
L 387.000047 97.306931 
L 387.000047 92.744554 
L 388.206821 92.744554 
L 388.206821 88.182178 
L 389.009308 88.182178 
L 389.009308 83.619802 
L 391.615865 83.619802 
L 391.615865 79.057426 
L 391.907365 79.057426 
L 391.907365 74.49505 
L 392.292797 74.49505 
L 392.292797 69.932673 
L 395.087792 69.932673 
L 395.087792 65.370297 
L 399.116436 65.370297 
L 399.116436 60.807921 
L 399.294427 60.807921 
L 399.294427 56.245545 
L 405.504798 56.245545 
L 405.504798 51.683168 
L 406.84559 51.683168 
L 406.84559 47.120792 
L 408.024712 47.120792 
L 408.024712 42.558416 
L 409.146583 42.558416 
L 409.146583 37.99604 
L 410.224338 37.99604 
L 410.224338 33.433663 
L 410.918771 33.433663 
L 410.918771 28.871287 
L 419.453233 28.871287 
L 419.453233 24.308911 
L 436.746597 24.308911 
L 436.746597 19.746535 
L 441.018972 19.746535 
L 441.018972 15.184158 
L 448.227474 15.184158 
L 448.227474 10.621782 
L 448.227474 10.621782 
L 453.6 10.621782 
L 453.6 10.621782 
" style="fill:none;stroke:#00bfbf;stroke-linecap:square;"/>
   </g>
   <g id="line2d_3">
    <path clip-path="url(#pf927101bae)" d="M 231.864474 352.8 
L 231.864474 348.237624 
L 232.357192 348.237624 
L 232.357192 343.675248 
L 232.981546 343.675248 
L 232.981546 339.112871 
L 235.672824 339.112871 
L 235.672824 334.550495 
L 236.793265 334.550495 
L 236.793265 329.988119 
L 237.339161 329.988119 
L 237.358351 320.863366 
L 240.04987 320.863366 
L 240.04987 316.30099 
L 240.998138 316.30099 
L 240.998138 311.738614 
L 246.060668 311.738614 
L 246.060668 307.176238 
L 250.240761 307.176238 
L 250.327107 298.051485 
L 250.963948 298.051485 
L 250.963948 293.489109 
L 254.385517 293.489109 
L 254.385517 288.926733 
L 256.567633 288.926733 
L 256.567633 284.364356 
L 268.280476 284.364356 
L 268.280476 279.80198 
L 273.87655 279.80198 
L 273.87655 275.239604 
L 275.26475 275.239604 
L 275.26475 270.677228 
L 275.549473 270.677228 
L 275.549473 266.114851 
L 277.980712 266.114851 
L 277.980712 261.552475 
L 279.212867 261.552475 
L 279.212867 256.990099 
L 279.762513 256.990099 
L 279.762513 252.427723 
L 281.335349 252.427723 
L 281.335349 247.865347 
L 282.875533 247.865347 
L 282.875533 243.30297 
L 284.158033 243.30297 
L 284.158033 238.740594 
L 284.490886 238.740594 
L 284.490886 234.178218 
L 285.274954 234.178218 
L 285.347662 225.053465 
L 285.430991 225.053465 
L 285.430991 220.491089 
L 285.888527 220.491089 
L 285.888527 215.928713 
L 286.530057 215.928713 
L 286.530057 211.366337 
L 312.816941 211.366337 
L 312.816941 206.80396 
L 329.042482 206.80396 
L 329.042482 202.241584 
L 331.618977 202.241584 
L 331.618977 197.679208 
L 335.051859 197.679208 
L 335.051859 193.116832 
L 337.651416 193.116832 
L 337.651416 188.554455 
L 339.371695 188.554455 
L 339.371695 183.992079 
L 340.629594 183.992079 
L 340.629594 179.429703 
L 342.528661 179.429703 
L 342.610127 170.30495 
L 343.264988 170.30495 
L 343.264988 165.742574 
L 346.121514 165.742574 
L 346.121514 161.180198 
L 347.361756 161.180198 
L 347.361756 156.617822 
L 348.526931 156.617822 
L 348.526931 152.055446 
L 348.919349 152.055446 
L 348.919349 147.493069 
L 349.950161 147.493069 
L 349.950161 142.930693 
L 350.770666 142.930693 
L 350.770666 138.368317 
L 352.071581 138.368317 
L 352.071581 133.805941 
L 355.966189 133.805941 
L 355.966189 129.243564 
L 356.800125 129.243564 
L 356.800125 124.681188 
L 359.194203 124.681188 
L 359.194203 120.118812 
L 361.857999 120.118812 
L 361.857999 115.556436 
L 364.888947 115.556436 
L 364.888947 110.994059 
L 365.330378 110.994059 
L 365.330378 106.431683 
L 369.022341 106.431683 
L 369.022341 101.869307 
L 369.418253 101.869307 
L 369.418253 97.306931 
L 372.438866 97.306931 
L 372.438866 92.744554 
L 374.873563 92.744554 
L 374.873563 88.182178 
L 377.401971 88.182178 
L 377.401971 83.619802 
L 377.573192 83.619802 
L 377.573192 79.057426 
L 383.218667 79.057426 
L 383.218667 74.49505 
L 385.749532 74.49505 
L 385.749532 69.932673 
L 388.206821 69.932673 
L 388.206821 65.370297 
L 389.009308 65.370297 
L 389.009308 60.807921 
L 390.555756 60.807921 
L 390.555756 56.245545 
L 391.907365 56.245545 
L 391.907365 51.683168 
L 395.087792 51.683168 
L 395.087792 47.120792 
L 401.993679 47.120792 
L 401.993679 42.558416 
L 403.340056 42.558416 
L 403.340056 37.99604 
L 405.504798 37.99604 
L 405.504798 33.433663 
L 406.84559 33.433663 
L 406.84559 28.871287 
L 408.024712 28.871287 
L 408.024712 24.308911 
L 411.083422 24.308911 
L 411.083422 19.746535 
L 412.156132 19.746535 
L 412.156132 15.184158 
L 436.746597 15.184158 
L 436.746597 10.621782 
L 436.746597 10.621782 
L 453.6 10.621782 
L 453.6 10.621782 
" style="fill:none;stroke:#bf00bf;stroke-linecap:square;"/>
   </g>
   <g id="line2d_4">
    <path clip-path="url(#pf927101bae)" d="M 225.729669 352.8 
L 225.729669 348.237624 
L 231.402317 348.237624 
L 231.402317 343.675248 
L 231.864474 343.675248 
L 231.864474 339.112871 
L 232.357192 339.112871 
L 232.45788 329.988119 
L 234.944462 329.988119 
L 234.944462 325.425743 
L 235.756078 325.425743 
L 235.756078 320.863366 
L 236.793265 320.863366 
L 236.793265 316.30099 
L 237.339161 316.30099 
L 237.339161 311.738614 
L 238.404779 311.738614 
L 238.404779 307.176238 
L 238.93299 307.176238 
L 238.93299 302.613861 
L 240.04987 302.613861 
L 240.04987 298.051485 
L 240.998138 298.051485 
L 240.998138 293.489109 
L 246.611979 293.489109 
L 246.611979 288.926733 
L 252.505683 288.926733 
L 252.505683 284.364356 
L 256.567633 284.364356 
L 256.567633 279.80198 
L 264.890911 279.80198 
L 264.890911 275.239604 
L 268.280476 275.239604 
L 268.280476 270.677228 
L 271.792396 270.677228 
L 271.792396 266.114851 
L 274.671498 266.114851 
L 274.772683 256.990099 
L 275.549473 256.990099 
L 275.549473 252.427723 
L 275.807346 252.427723 
L 275.807346 247.865347 
L 276.678886 247.865347 
L 276.678886 243.30297 
L 277.307511 243.30297 
L 277.307511 238.740594 
L 278.881155 238.740594 
L 278.881155 234.178218 
L 279.523731 234.178218 
L 279.523731 229.615842 
L 281.578709 229.615842 
L 281.578709 225.053465 
L 281.836153 225.053465 
L 281.836153 220.491089 
L 283.430871 220.491089 
L 283.431819 211.366337 
L 285.097253 211.366337 
L 285.097253 206.80396 
L 285.280928 206.80396 
L 285.280928 202.241584 
L 296.584172 202.241584 
L 296.584172 197.679208 
L 309.869146 197.679208 
L 309.869146 193.116832 
L 310.592618 193.116832 
L 310.592618 188.554455 
L 312.816941 188.554455 
L 312.816941 183.992079 
L 315.492411 183.992079 
L 315.492411 179.429703 
L 316.273182 179.429703 
L 316.273182 174.867327 
L 324.935739 174.867327 
L 324.935739 170.30495 
L 328.482128 170.30495 
L 328.482128 165.742574 
L 329.042482 165.742574 
L 329.042482 161.180198 
L 330.108616 161.180198 
L 330.108616 156.617822 
L 330.314152 156.617822 
L 330.403279 147.493069 
L 335.051859 147.493069 
L 335.051859 142.930693 
L 339.371695 142.930693 
L 339.371695 138.368317 
L 342.610127 138.368317 
L 342.705468 129.243564 
L 342.788702 129.243564 
L 342.788702 124.681188 
L 343.264988 124.681188 
L 343.264988 120.118812 
L 346.372161 120.118812 
L 346.372161 115.556436 
L 348.526931 115.556436 
L 348.526931 110.994059 
L 348.919349 110.994059 
L 348.919349 106.431683 
L 349.649781 106.431683 
L 349.649781 101.869307 
L 353.355237 101.869307 
L 353.355237 97.306931 
L 355.809795 97.306931 
L 355.809795 92.744554 
L 363.312672 92.744554 
L 363.312672 88.182178 
L 364.888947 88.182178 
L 364.888947 83.619802 
L 369.980286 83.619802 
L 369.980286 79.057426 
L 371.672333 79.057426 
L 371.672333 74.49505 
L 377.335818 74.49505 
L 377.335818 69.932673 
L 383.218667 69.932673 
L 383.218667 65.370297 
L 383.652711 65.370297 
L 383.652711 60.807921 
L 385.749532 60.807921 
L 385.749532 56.245545 
L 385.897941 56.245545 
L 385.897941 51.683168 
L 389.565491 51.683168 
L 389.565491 47.120792 
L 391.507481 47.120792 
L 391.507481 42.558416 
L 396.552715 42.558416 
L 396.552715 37.99604 
L 400.266752 37.99604 
L 400.266752 33.433663 
L 400.553104 33.433663 
L 400.553104 28.871287 
L 403.169917 28.871287 
L 403.169917 24.308911 
L 403.340056 24.308911 
L 403.340056 19.746535 
L 406.84559 19.746535 
L 406.84559 15.184158 
L 412.810101 15.184158 
L 412.810101 10.621782 
L 412.810101 10.621782 
L 453.6 10.621782 
L 453.6 10.621782 
" style="fill:none;stroke:#000000;stroke-linecap:square;"/>
   </g>
   <g id="line2d_5">
    <path clip-path="url(#pf927101bae)" d="M 213.844214 352.8 
L 213.844214 348.237624 
L 214.374252 348.237624 
L 214.374252 343.675248 
L 218.269316 343.675248 
L 218.269316 339.112871 
L 222.701162 339.112871 
L 222.701162 334.550495 
L 223.180042 334.550495 
L 223.180042 329.988119 
L 223.933911 329.988119 
L 223.933911 325.425743 
L 224.070994 325.425743 
L 224.070994 320.863366 
L 224.216941 320.863366 
L 224.216941 316.30099 
L 224.92867 316.30099 
L 224.92867 311.738614 
L 227.344485 311.738614 
L 227.344485 307.176238 
L 228.502391 307.176238 
L 228.502391 302.613861 
L 232.098417 302.613861 
L 232.098417 298.051485 
L 234.0526 298.051485 
L 234.0526 293.489109 
L 237.267714 293.489109 
L 237.267714 288.926733 
L 237.638026 288.926733 
L 237.638026 284.364356 
L 252.505683 284.364356 
L 252.505683 279.80198 
L 262.55787 279.80198 
L 262.55787 275.239604 
L 264.30578 275.239604 
L 264.30578 270.677228 
L 268.280476 270.677228 
L 268.280476 266.114851 
L 269.325684 266.114851 
L 269.325684 261.552475 
L 269.677337 261.552475 
L 269.677337 256.990099 
L 270.266591 256.990099 
L 270.266591 252.427723 
L 270.531979 252.427723 
L 270.531979 247.865347 
L 271.017433 247.865347 
L 271.017433 243.30297 
L 271.792396 243.30297 
L 271.792396 238.740594 
L 272.39894 238.740594 
L 272.39894 234.178218 
L 273.160053 234.178218 
L 273.160053 229.615842 
L 273.754272 229.615842 
L 273.836061 215.928713 
L 276.059484 215.928713 
L 276.059484 211.366337 
L 277.307511 211.366337 
L 277.307511 206.80396 
L 278.824687 206.80396 
L 278.824687 202.241584 
L 279.517227 202.241584 
L 279.517227 197.679208 
L 280.623673 197.679208 
L 280.623673 193.116832 
L 280.870152 193.116832 
L 280.870152 188.554455 
L 281.022149 188.554455 
L 281.022149 183.992079 
L 283.724917 183.992079 
L 283.724917 179.429703 
L 288.414502 179.429703 
L 288.414502 174.867327 
L 288.568208 174.867327 
L 288.568208 170.30495 
L 291.518797 170.30495 
L 291.518797 165.742574 
L 296.756573 165.742574 
L 296.756573 161.180198 
L 308.492225 161.180198 
L 308.492225 156.617822 
L 309.759529 156.617822 
L 309.759529 152.055446 
L 312.816941 152.055446 
L 312.816941 147.493069 
L 315.14183 147.493069 
L 315.14183 142.930693 
L 315.492411 142.930693 
L 315.492411 138.368317 
L 319.703646 138.368317 
L 319.703646 133.805941 
L 324.935739 133.805941 
L 324.935739 129.243564 
L 327.157995 129.243564 
L 327.218649 120.118812 
L 329.721559 120.118812 
L 329.721559 115.556436 
L 329.852833 115.556436 
L 329.852833 110.994059 
L 330.108616 110.994059 
L 330.108616 106.431683 
L 330.550231 106.431683 
L 330.550231 101.869307 
L 332.115736 101.869307 
L 332.115736 97.306931 
L 343.264988 97.306931 
L 343.264988 92.744554 
L 347.220868 92.744554 
L 347.220868 88.182178 
L 347.824293 88.182178 
L 347.824293 83.619802 
L 355.099141 83.619802 
L 355.099141 79.057426 
L 366.046499 79.057426 
L 366.046499 74.49505 
L 366.225244 74.49505 
L 366.225244 69.932673 
L 370.642231 69.932673 
L 370.670101 60.807921 
L 371.23153 60.807921 
L 371.23153 56.245545 
L 377.828197 56.245545 
L 377.828197 51.683168 
L 380.779489 51.683168 
L 380.779489 47.120792 
L 381.715233 47.120792 
L 381.715233 42.558416 
L 383.218667 42.558416 
L 383.218667 37.99604 
L 387.351679 37.99604 
L 387.351679 33.433663 
L 387.786503 33.433663 
L 387.786503 28.871287 
L 392.202584 28.871287 
L 392.202584 24.308911 
L 393.785984 24.308911 
L 393.785984 19.746535 
L 399.344407 19.746535 
L 399.344407 15.184158 
L 401.895118 15.184158 
L 401.895118 10.621782 
L 401.895118 10.621782 
L 453.6 10.621782 
L 453.6 10.621782 
" style="fill:none;stroke:#00bfbf;stroke-linecap:square;"/>
   </g>
   <g id="line2d_6">
    <path clip-path="url(#pf927101bae)" d="M 149.858462 352.8 
L 149.858462 348.237624 
L 159.611052 348.237624 
L 159.611052 343.675248 
L 160.278206 343.675248 
L 160.278206 339.112871 
L 169.540999 339.112871 
L 169.540999 334.550495 
L 172.625752 334.550495 
L 172.625752 329.988119 
L 173.016956 329.988119 
L 173.016956 325.425743 
L 176.257885 325.425743 
L 176.257885 320.863366 
L 177.416832 320.863366 
L 177.416832 316.30099 
L 181.301135 316.30099 
L 181.301135 311.738614 
L 183.549618 311.738614 
L 183.549618 307.176238 
L 183.747336 307.176238 
L 183.747336 302.613861 
L 184.006443 302.613861 
L 184.006443 298.051485 
L 184.478961 298.051485 
L 184.478961 293.489109 
L 186.924443 293.489109 
L 186.924443 288.926733 
L 200.075349 288.926733 
L 200.075349 284.364356 
L 233.20035 284.364356 
L 233.20035 279.80198 
L 234.643711 279.80198 
L 234.643711 275.239604 
L 239.342477 275.239604 
L 239.342477 270.677228 
L 241.47806 270.677228 
L 241.47806 266.114851 
L 241.736172 266.114851 
L 241.736172 261.552475 
L 243.460912 261.552475 
L 243.460912 256.990099 
L 245.075381 256.990099 
L 245.075381 252.427723 
L 245.225735 252.427723 
L 245.225735 247.865347 
L 246.012992 247.865347 
L 246.012992 243.30297 
L 246.279494 243.30297 
L 246.279494 238.740594 
L 248.348674 238.740594 
L 248.348674 234.178218 
L 248.91194 234.178218 
L 248.91194 229.615842 
L 250.38099 229.615842 
L 250.38099 225.053465 
L 250.794572 225.053465 
L 250.883082 215.928713 
L 252.456031 215.928713 
L 252.505683 206.80396 
L 252.80851 206.80396 
L 252.80851 202.241584 
L 253.537156 202.241584 
L 253.537156 197.679208 
L 256.515441 197.679208 
L 256.515441 193.116832 
L 257.008239 193.116832 
L 257.008239 188.554455 
L 257.24882 188.554455 
L 257.24882 183.992079 
L 257.697718 183.992079 
L 257.718357 174.867327 
L 258.540136 174.867327 
L 258.540136 170.30495 
L 261.02918 170.30495 
L 261.02918 165.742574 
L 264.705579 165.742574 
L 264.705579 161.180198 
L 268.280476 161.180198 
L 268.280476 156.617822 
L 269.637674 156.617822 
L 269.637674 152.055446 
L 270.294267 152.055446 
L 270.294267 147.493069 
L 270.503763 147.493069 
L 270.503763 142.930693 
L 279.782891 142.930693 
L 279.871507 133.805941 
L 281.969448 133.805941 
L 281.969448 129.243564 
L 284.72069 129.243564 
L 284.72069 124.681188 
L 286.268931 124.681188 
L 286.268931 120.118812 
L 287.948219 120.118812 
L 287.948219 115.556436 
L 288.568208 115.556436 
L 288.568208 110.994059 
L 292.452168 110.994059 
L 292.452168 106.431683 
L 293.818311 106.431683 
L 293.818311 101.869307 
L 294.632219 101.869307 
L 294.632219 97.306931 
L 299.068573 97.306931 
L 299.068573 92.744554 
L 300.658796 92.744554 
L 300.658796 88.182178 
L 301.127398 88.182178 
L 301.127398 83.619802 
L 301.401843 83.619802 
L 301.401843 79.057426 
L 303.188101 79.057426 
L 303.188101 74.49505 
L 305.79788 74.49505 
L 305.79788 69.932673 
L 306.866039 69.932673 
L 306.937051 60.807921 
L 307.491202 60.807921 
L 307.491202 56.245545 
L 308.182647 56.245545 
L 308.182647 51.683168 
L 309.487859 51.683168 
L 309.487859 47.120792 
L 309.833896 47.120792 
L 309.833896 42.558416 
L 311.142517 42.558416 
L 311.142517 37.99604 
L 311.288213 37.99604 
L 311.288213 33.433663 
L 313.654995 33.433663 
L 313.654995 28.871287 
L 317.18209 28.871287 
L 317.18209 24.308911 
L 318.784816 24.308911 
L 318.784816 19.746535 
L 325.973078 19.746535 
L 325.973078 15.184158 
L 339.318921 15.184158 
L 339.318921 10.621782 
L 339.318921 10.621782 
L 453.6 10.621782 
L 453.6 10.621782 
" style="fill:none;stroke:#bf00bf;stroke-linecap:square;"/>
   </g>
   <g id="patch_3">
    <path d="M 7.2 7.2 
L 453.6 7.2 
" style="fill:none;stroke:#000000;stroke-linecap:square;stroke-linejoin:miter;"/>
   </g>
   <g id="patch_4">
    <path d="M 453.6 352.8 
L 453.6 7.2 
" style="fill:none;stroke:#000000;stroke-linecap:square;stroke-linejoin:miter;"/>
   </g>
   <g id="patch_5">
    <path d="M 7.2 352.8 
L 453.6 352.8 
" style="fill:none;stroke:#000000;stroke-linecap:square;stroke-linejoin:miter;"/>
   </g>
   <g id="patch_6">
    <path d="M 7.2 352.8 
L 7.2 7.2 
" style="fill:none;stroke:#000000;stroke-linecap:square;stroke-linejoin:miter;"/>
   </g>
   <g id="matplotlib.axis_1">
    <g id="xtick_1"/>
    <g id="xtick_2">
     <g id="line2d_7">
      <path clip-path="url(#pf927101bae)" d="M 56.704715 352.8 
L 56.704715 7.2 
" style="fill:none;stroke:#000000;stroke-dasharray:1.000000,3.000000;stroke-dashoffset:0.0;stroke-width:0.5;"/>
     </g>
     <g id="line2d_8">
      <defs>
       <path d="M 0 0 
L 0 -4 
" id="mfb6ab59884" style="stroke:#000000;stroke-width:0.5;"/>
      </defs>
      <g>
       <use style="stroke:#000000;stroke-width:0.5;" x="56.70471484" xlink:href="#mfb6ab59884" y="352.8"/>
      </g>
     </g>
     <g id="line2d_9">
      <defs>
       <path d="M 0 0 
L 0 4 
" id="md3a17190f7" style="stroke:#000000;stroke-width:0.5;"/>
      </defs>
      <g>
       <use style="stroke:#000000;stroke-width:0.5;" x="56.70471484" xlink:href="#md3a17190f7" y="7.2"/>
      </g>
     </g>
     <g id="text_1">
      <!-- -6 -->
      <defs>
       <path d="M 33.015625 40.375 
Q 26.375 40.375 22.484375 35.828125 
Q 18.609375 31.296875 18.609375 23.390625 
Q 18.609375 15.53125 22.484375 10.953125 
Q 26.375 6.390625 33.015625 6.390625 
Q 39.65625 6.390625 43.53125 10.953125 
Q 47.40625 15.53125 47.40625 23.390625 
Q 47.40625 31.296875 43.53125 35.828125 
Q 39.65625 40.375 33.015625 40.375 
M 52.59375 71.296875 
L 52.59375 62.3125 
Q 48.875 64.0625 45.09375 64.984375 
Q 41.3125 65.921875 37.59375 65.921875 
Q 27.828125 65.921875 22.671875 59.328125 
Q 17.53125 52.734375 16.796875 39.40625 
Q 19.671875 43.65625 24.015625 45.921875 
Q 28.375 48.1875 33.59375 48.1875 
Q 44.578125 48.1875 50.953125 41.515625 
Q 57.328125 34.859375 57.328125 23.390625 
Q 57.328125 12.15625 50.6875 5.359375 
Q 44.046875 -1.421875 33.015625 -1.421875 
Q 20.359375 -1.421875 13.671875 8.265625 
Q 6.984375 17.96875 6.984375 36.375 
Q 6.984375 53.65625 15.1875 63.9375 
Q 23.390625 74.21875 37.203125 74.21875 
Q 40.921875 74.21875 44.703125 73.484375 
Q 48.484375 72.75 52.59375 71.296875 
" id="BitstreamVeraSans-Roman-36"/>
       <path d="M 4.890625 31.390625 
L 31.203125 31.390625 
L 31.203125 23.390625 
L 4.890625 23.390625 
z
" id="BitstreamVeraSans-Roman-2d"/>
      </defs>
      <g transform="translate(46.73440234 371.996875)scale(0.2 -0.2)">
       <use xlink:href="#BitstreamVeraSans-Roman-2d"/>
       <use x="36.083984375" xlink:href="#BitstreamVeraSans-Roman-36"/>
      </g>
     </g>
    </g>
    <g id="xtick_3">
     <g id="line2d_10">
      <path clip-path="url(#pf927101bae)" d="M 106.316625 352.8 
L 106.316625 7.2 
" style="fill:none;stroke:#000000;stroke-dasharray:1.000000,3.000000;stroke-dashoffset:0.0;stroke-width:0.5;"/>
     </g>
     <g id="line2d_11">
      <g>
       <use style="stroke:#000000;stroke-width:0.5;" x="106.316625485" xlink:href="#mfb6ab59884" y="352.8"/>
      </g>
     </g>
     <g id="line2d_12">
      <g>
       <use style="stroke:#000000;stroke-width:0.5;" x="106.316625485" xlink:href="#md3a17190f7" y="7.2"/>
      </g>
     </g>
     <g id="text_2">
      <!-- -4 -->
      <defs>
       <path d="M 37.796875 64.3125 
L 12.890625 25.390625 
L 37.796875 25.390625 
z
M 35.203125 72.90625 
L 47.609375 72.90625 
L 47.609375 25.390625 
L 58.015625 25.390625 
L 58.015625 17.1875 
L 47.609375 17.1875 
L 47.609375 0 
L 37.796875 0 
L 37.796875 17.1875 
L 4.890625 17.1875 
L 4.890625 26.703125 
z
" id="BitstreamVeraSans-Roman-34"/>
      </defs>
      <g transform="translate(96.346312985 371.996875)scale(0.2 -0.2)">
       <use xlink:href="#BitstreamVeraSans-Roman-2d"/>
       <use x="36.083984375" xlink:href="#BitstreamVeraSans-Roman-34"/>
      </g>
     </g>
    </g>
    <g id="xtick_4">
     <g id="line2d_13">
      <path clip-path="url(#pf927101bae)" d="M 155.928536 352.8 
L 155.928536 7.2 
" style="fill:none;stroke:#000000;stroke-dasharray:1.000000,3.000000;stroke-dashoffset:0.0;stroke-width:0.5;"/>
     </g>
     <g id="line2d_14">
      <g>
       <use style="stroke:#000000;stroke-width:0.5;" x="155.92853613" xlink:href="#mfb6ab59884" y="352.8"/>
      </g>
     </g>
     <g id="line2d_15">
      <g>
       <use style="stroke:#000000;stroke-width:0.5;" x="155.92853613" xlink:href="#md3a17190f7" y="7.2"/>
      </g>
     </g>
     <g id="text_3">
      <!-- -2 -->
      <defs>
       <path d="M 19.1875 8.296875 
L 53.609375 8.296875 
L 53.609375 0 
L 7.328125 0 
L 7.328125 8.296875 
Q 12.9375 14.109375 22.625 23.890625 
Q 32.328125 33.6875 34.8125 36.53125 
Q 39.546875 41.84375 41.421875 45.53125 
Q 43.3125 49.21875 43.3125 52.78125 
Q 43.3125 58.59375 39.234375 62.25 
Q 35.15625 65.921875 28.609375 65.921875 
Q 23.96875 65.921875 18.8125 64.3125 
Q 13.671875 62.703125 7.8125 59.421875 
L 7.8125 69.390625 
Q 13.765625 71.78125 18.9375 73 
Q 24.125 74.21875 28.421875 74.21875 
Q 39.75 74.21875 46.484375 68.546875 
Q 53.21875 62.890625 53.21875 53.421875 
Q 53.21875 48.921875 51.53125 44.890625 
Q 49.859375 40.875 45.40625 35.40625 
Q 44.1875 33.984375 37.640625 27.21875 
Q 31.109375 20.453125 19.1875 8.296875 
" id="BitstreamVeraSans-Roman-32"/>
      </defs>
      <g transform="translate(145.95822363 371.996875)scale(0.2 -0.2)">
       <use xlink:href="#BitstreamVeraSans-Roman-2d"/>
       <use x="36.083984375" xlink:href="#BitstreamVeraSans-Roman-32"/>
      </g>
     </g>
    </g>
    <g id="xtick_5">
     <g id="line2d_16">
      <path clip-path="url(#pf927101bae)" d="M 205.540447 352.8 
L 205.540447 7.2 
" style="fill:none;stroke:#000000;stroke-dasharray:1.000000,3.000000;stroke-dashoffset:0.0;stroke-width:0.5;"/>
     </g>
     <g id="line2d_17">
      <g>
       <use style="stroke:#000000;stroke-width:0.5;" x="205.540446775" xlink:href="#mfb6ab59884" y="352.8"/>
      </g>
     </g>
     <g id="line2d_18">
      <g>
       <use style="stroke:#000000;stroke-width:0.5;" x="205.540446775" xlink:href="#md3a17190f7" y="7.2"/>
      </g>
     </g>
     <g id="text_4">
      <!-- 0 -->
      <defs>
       <path d="M 31.78125 66.40625 
Q 24.171875 66.40625 20.328125 58.90625 
Q 16.5 51.421875 16.5 36.375 
Q 16.5 21.390625 20.328125 13.890625 
Q 24.171875 6.390625 31.78125 6.390625 
Q 39.453125 6.390625 43.28125 13.890625 
Q 47.125 21.390625 47.125 36.375 
Q 47.125 51.421875 43.28125 58.90625 
Q 39.453125 66.40625 31.78125 66.40625 
M 31.78125 74.21875 
Q 44.046875 74.21875 50.515625 64.515625 
Q 56.984375 54.828125 56.984375 36.375 
Q 56.984375 17.96875 50.515625 8.265625 
Q 44.046875 -1.421875 31.78125 -1.421875 
Q 19.53125 -1.421875 13.0625 8.265625 
Q 6.59375 17.96875 6.59375 36.375 
Q 6.59375 54.828125 13.0625 64.515625 
Q 19.53125 74.21875 31.78125 74.21875 
" id="BitstreamVeraSans-Roman-30"/>
      </defs>
      <g transform="translate(199.177946775 371.996875)scale(0.2 -0.2)">
       <use xlink:href="#BitstreamVeraSans-Roman-30"/>
      </g>
     </g>
    </g>
    <g id="xtick_6">
     <g id="line2d_19">
      <path clip-path="url(#pf927101bae)" d="M 255.152357 352.8 
L 255.152357 7.2 
" style="fill:none;stroke:#000000;stroke-dasharray:1.000000,3.000000;stroke-dashoffset:0.0;stroke-width:0.5;"/>
     </g>
     <g id="line2d_20">
      <g>
       <use style="stroke:#000000;stroke-width:0.5;" x="255.15235742" xlink:href="#mfb6ab59884" y="352.8"/>
      </g>
     </g>
     <g id="line2d_21">
      <g>
       <use style="stroke:#000000;stroke-width:0.5;" x="255.15235742" xlink:href="#md3a17190f7" y="7.2"/>
      </g>
     </g>
     <g id="text_5">
      <!-- 2 -->
      <g transform="translate(248.78985742 371.996875)scale(0.2 -0.2)">
       <use xlink:href="#BitstreamVeraSans-Roman-32"/>
      </g>
     </g>
    </g>
    <g id="xtick_7">
     <g id="line2d_22">
      <path clip-path="url(#pf927101bae)" d="M 304.764268 352.8 
L 304.764268 7.2 
" style="fill:none;stroke:#000000;stroke-dasharray:1.000000,3.000000;stroke-dashoffset:0.0;stroke-width:0.5;"/>
     </g>
     <g id="line2d_23">
      <g>
       <use style="stroke:#000000;stroke-width:0.5;" x="304.764268065" xlink:href="#mfb6ab59884" y="352.8"/>
      </g>
     </g>
     <g id="line2d_24">
      <g>
       <use style="stroke:#000000;stroke-width:0.5;" x="304.764268065" xlink:href="#md3a17190f7" y="7.2"/>
      </g>
     </g>
     <g id="text_6">
      <!-- 4 -->
      <g transform="translate(298.401768065 371.996875)scale(0.2 -0.2)">
       <use xlink:href="#BitstreamVeraSans-Roman-34"/>
      </g>
     </g>
    </g>
    <g id="xtick_8">
     <g id="line2d_25">
      <path clip-path="url(#pf927101bae)" d="M 354.376179 352.8 
L 354.376179 7.2 
" style="fill:none;stroke:#000000;stroke-dasharray:1.000000,3.000000;stroke-dashoffset:0.0;stroke-width:0.5;"/>
     </g>
     <g id="line2d_26">
      <g>
       <use style="stroke:#000000;stroke-width:0.5;" x="354.37617871" xlink:href="#mfb6ab59884" y="352.8"/>
      </g>
     </g>
     <g id="line2d_27">
      <g>
       <use style="stroke:#000000;stroke-width:0.5;" x="354.37617871" xlink:href="#md3a17190f7" y="7.2"/>
      </g>
     </g>
     <g id="text_7">
      <!-- 6 -->
      <g transform="translate(348.01367871 371.996875)scale(0.2 -0.2)">
       <use xlink:href="#BitstreamVeraSans-Roman-36"/>
      </g>
     </g>
    </g>
    <g id="xtick_9">
     <g id="line2d_28">
      <path clip-path="url(#pf927101bae)" d="M 403.988089 352.8 
L 403.988089 7.2 
" style="fill:none;stroke:#000000;stroke-dasharray:1.000000,3.000000;stroke-dashoffset:0.0;stroke-width:0.5;"/>
     </g>
     <g id="line2d_29">
      <g>
       <use style="stroke:#000000;stroke-width:0.5;" x="403.988089355" xlink:href="#mfb6ab59884" y="352.8"/>
      </g>
     </g>
     <g id="line2d_30">
      <g>
       <use style="stroke:#000000;stroke-width:0.5;" x="403.988089355" xlink:href="#md3a17190f7" y="7.2"/>
      </g>
     </g>
     <g id="text_8">
      <!-- 8 -->
      <defs>
       <path d="M 31.78125 34.625 
Q 24.75 34.625 20.71875 30.859375 
Q 16.703125 27.09375 16.703125 20.515625 
Q 16.703125 13.921875 20.71875 10.15625 
Q 24.75 6.390625 31.78125 6.390625 
Q 38.8125 6.390625 42.859375 10.171875 
Q 46.921875 13.96875 46.921875 20.515625 
Q 46.921875 27.09375 42.890625 30.859375 
Q 38.875 34.625 31.78125 34.625 
M 21.921875 38.8125 
Q 15.578125 40.375 12.03125 44.71875 
Q 8.5 49.078125 8.5 55.328125 
Q 8.5 64.0625 14.71875 69.140625 
Q 20.953125 74.21875 31.78125 74.21875 
Q 42.671875 74.21875 48.875 69.140625 
Q 55.078125 64.0625 55.078125 55.328125 
Q 55.078125 49.078125 51.53125 44.71875 
Q 48 40.375 41.703125 38.8125 
Q 48.828125 37.15625 52.796875 32.3125 
Q 56.78125 27.484375 56.78125 20.515625 
Q 56.78125 9.90625 50.3125 4.234375 
Q 43.84375 -1.421875 31.78125 -1.421875 
Q 19.734375 -1.421875 13.25 4.234375 
Q 6.78125 9.90625 6.78125 20.515625 
Q 6.78125 27.484375 10.78125 32.3125 
Q 14.796875 37.15625 21.921875 38.8125 
M 18.3125 54.390625 
Q 18.3125 48.734375 21.84375 45.5625 
Q 25.390625 42.390625 31.78125 42.390625 
Q 38.140625 42.390625 41.71875 45.5625 
Q 45.3125 48.734375 45.3125 54.390625 
Q 45.3125 60.0625 41.71875 63.234375 
Q 38.140625 66.40625 31.78125 66.40625 
Q 25.390625 66.40625 21.84375 63.234375 
Q 18.3125 60.0625 18.3125 54.390625 
" id="BitstreamVeraSans-Roman-38"/>
      </defs>
      <g transform="translate(397.625589355 371.996875)scale(0.2 -0.2)">
       <use xlink:href="#BitstreamVeraSans-Roman-38"/>
      </g>
     </g>
    </g>
    <g id="xtick_10">
     <g id="line2d_31">
      <path clip-path="url(#pf927101bae)" d="M 453.6 352.8 
L 453.6 7.2 
" style="fill:none;stroke:#000000;stroke-dasharray:1.000000,3.000000;stroke-dashoffset:0.0;stroke-width:0.5;"/>
     </g>
     <g id="line2d_32">
      <g>
       <use style="stroke:#000000;stroke-width:0.5;" x="453.6" xlink:href="#mfb6ab59884" y="352.8"/>
      </g>
     </g>
     <g id="line2d_33">
      <g>
       <use style="stroke:#000000;stroke-width:0.5;" x="453.6" xlink:href="#md3a17190f7" y="7.2"/>
      </g>
     </g>
    </g>
    <g id="xtick_11"/>
    <g id="xtick_12">
     <g id="line2d_34">
      <defs>
       <path d="M 0 0 
L 0 -2 
" id="mb5862f29a3" style="stroke:#000000;stroke-width:0.5;"/>
      </defs>
      <g>
       <use style="stroke:#000000;stroke-width:0.5;" x="56.70471484" xlink:href="#mb5862f29a3" y="352.8"/>
      </g>
     </g>
     <g id="line2d_35">
      <defs>
       <path d="M 0 0 
L 0 2 
" id="mef4a2c7ad9" style="stroke:#000000;stroke-width:0.5;"/>
      </defs>
      <g>
       <use style="stroke:#000000;stroke-width:0.5;" x="56.70471484" xlink:href="#mef4a2c7ad9" y="7.2"/>
      </g>
     </g>
    </g>
    <g id="xtick_13">
     <g id="line2d_36">
      <g>
       <use style="stroke:#000000;stroke-width:0.5;" x="106.316625485" xlink:href="#mb5862f29a3" y="352.8"/>
      </g>
     </g>
     <g id="line2d_37">
      <g>
       <use style="stroke:#000000;stroke-width:0.5;" x="106.316625485" xlink:href="#mef4a2c7ad9" y="7.2"/>
      </g>
     </g>
    </g>
    <g id="xtick_14">
     <g id="line2d_38">
      <g>
       <use style="stroke:#000000;stroke-width:0.5;" x="155.92853613" xlink:href="#mb5862f29a3" y="352.8"/>
      </g>
     </g>
     <g id="line2d_39">
      <g>
       <use style="stroke:#000000;stroke-width:0.5;" x="155.92853613" xlink:href="#mef4a2c7ad9" y="7.2"/>
      </g>
     </g>
    </g>
    <g id="xtick_15">
     <g id="line2d_40">
      <g>
       <use style="stroke:#000000;stroke-width:0.5;" x="205.540446775" xlink:href="#mb5862f29a3" y="352.8"/>
      </g>
     </g>
     <g id="line2d_41">
      <g>
       <use style="stroke:#000000;stroke-width:0.5;" x="205.540446775" xlink:href="#mef4a2c7ad9" y="7.2"/>
      </g>
     </g>
    </g>
    <g id="xtick_16">
     <g id="line2d_42">
      <g>
       <use style="stroke:#000000;stroke-width:0.5;" x="255.15235742" xlink:href="#mb5862f29a3" y="352.8"/>
      </g>
     </g>
     <g id="line2d_43">
      <g>
       <use style="stroke:#000000;stroke-width:0.5;" x="255.15235742" xlink:href="#mef4a2c7ad9" y="7.2"/>
      </g>
     </g>
    </g>
    <g id="xtick_17">
     <g id="line2d_44">
      <g>
       <use style="stroke:#000000;stroke-width:0.5;" x="304.764268065" xlink:href="#mb5862f29a3" y="352.8"/>
      </g>
     </g>
     <g id="line2d_45">
      <g>
       <use style="stroke:#000000;stroke-width:0.5;" x="304.764268065" xlink:href="#mef4a2c7ad9" y="7.2"/>
      </g>
     </g>
    </g>
    <g id="xtick_18">
     <g id="line2d_46">
      <g>
       <use style="stroke:#000000;stroke-width:0.5;" x="354.37617871" xlink:href="#mb5862f29a3" y="352.8"/>
      </g>
     </g>
     <g id="line2d_47">
      <g>
       <use style="stroke:#000000;stroke-width:0.5;" x="354.37617871" xlink:href="#mef4a2c7ad9" y="7.2"/>
      </g>
     </g>
    </g>
    <g id="xtick_19">
     <g id="line2d_48">
      <g>
       <use style="stroke:#000000;stroke-width:0.5;" x="403.988089355" xlink:href="#mb5862f29a3" y="352.8"/>
      </g>
     </g>
     <g id="line2d_49">
      <g>
       <use style="stroke:#000000;stroke-width:0.5;" x="403.988089355" xlink:href="#mef4a2c7ad9" y="7.2"/>
      </g>
     </g>
    </g>
    <g id="xtick_20">
     <g id="line2d_50">
      <g>
       <use style="stroke:#000000;stroke-width:0.5;" x="453.6" xlink:href="#mb5862f29a3" y="352.8"/>
      </g>
     </g>
     <g id="line2d_51">
      <g>
       <use style="stroke:#000000;stroke-width:0.5;" x="453.6" xlink:href="#mef4a2c7ad9" y="7.2"/>
      </g>
     </g>
    </g>
    <g id="text_9">
     <!-- log10 of Df -->
     <defs>
      <path id="BitstreamVeraSans-Roman-20"/>
      <path d="M 12.40625 8.296875 
L 28.515625 8.296875 
L 28.515625 63.921875 
L 10.984375 60.40625 
L 10.984375 69.390625 
L 28.421875 72.90625 
L 38.28125 72.90625 
L 38.28125 8.296875 
L 54.390625 8.296875 
L 54.390625 0 
L 12.40625 0 
z
" id="BitstreamVeraSans-Roman-31"/>
      <path d="M 30.609375 48.390625 
Q 23.390625 48.390625 19.1875 42.75 
Q 14.984375 37.109375 14.984375 27.296875 
Q 14.984375 17.484375 19.15625 11.84375 
Q 23.34375 6.203125 30.609375 6.203125 
Q 37.796875 6.203125 41.984375 11.859375 
Q 46.1875 17.53125 46.1875 27.296875 
Q 46.1875 37.015625 41.984375 42.703125 
Q 37.796875 48.390625 30.609375 48.390625 
M 30.609375 56 
Q 42.328125 56 49.015625 48.375 
Q 55.71875 40.765625 55.71875 27.296875 
Q 55.71875 13.875 49.015625 6.21875 
Q 42.328125 -1.421875 30.609375 -1.421875 
Q 18.84375 -1.421875 12.171875 6.21875 
Q 5.515625 13.875 5.515625 27.296875 
Q 5.515625 40.765625 12.171875 48.375 
Q 18.84375 56 30.609375 56 
" id="BitstreamVeraSans-Roman-6f"/>
      <path d="M 9.421875 75.984375 
L 18.40625 75.984375 
L 18.40625 0 
L 9.421875 0 
z
" id="BitstreamVeraSans-Roman-6c"/>
      <path d="M 19.671875 64.796875 
L 19.671875 8.109375 
L 31.59375 8.109375 
Q 46.6875 8.109375 53.6875 14.9375 
Q 60.6875 21.78125 60.6875 36.53125 
Q 60.6875 51.171875 53.6875 57.984375 
Q 46.6875 64.796875 31.59375 64.796875 
z
M 9.8125 72.90625 
L 30.078125 72.90625 
Q 51.265625 72.90625 61.171875 64.09375 
Q 71.09375 55.28125 71.09375 36.53125 
Q 71.09375 17.671875 61.125 8.828125 
Q 51.171875 0 30.078125 0 
L 9.8125 0 
z
" id="BitstreamVeraSans-Roman-44"/>
      <path d="M 45.40625 27.984375 
Q 45.40625 37.75 41.375 43.109375 
Q 37.359375 48.484375 30.078125 48.484375 
Q 22.859375 48.484375 18.828125 43.109375 
Q 14.796875 37.75 14.796875 27.984375 
Q 14.796875 18.265625 18.828125 12.890625 
Q 22.859375 7.515625 30.078125 7.515625 
Q 37.359375 7.515625 41.375 12.890625 
Q 45.40625 18.265625 45.40625 27.984375 
M 54.390625 6.78125 
Q 54.390625 -7.171875 48.1875 -13.984375 
Q 42 -20.796875 29.203125 -20.796875 
Q 24.46875 -20.796875 20.265625 -20.09375 
Q 16.0625 -19.390625 12.109375 -17.921875 
L 12.109375 -9.1875 
Q 16.0625 -11.328125 19.921875 -12.34375 
Q 23.78125 -13.375 27.78125 -13.375 
Q 36.625 -13.375 41.015625 -8.765625 
Q 45.40625 -4.15625 45.40625 5.171875 
L 45.40625 9.625 
Q 42.625 4.78125 38.28125 2.390625 
Q 33.9375 0 27.875 0 
Q 17.828125 0 11.671875 7.65625 
Q 5.515625 15.328125 5.515625 27.984375 
Q 5.515625 40.671875 11.671875 48.328125 
Q 17.828125 56 27.875 56 
Q 33.9375 56 38.28125 53.609375 
Q 42.625 51.21875 45.40625 46.390625 
L 45.40625 54.6875 
L 54.390625 54.6875 
z
" id="BitstreamVeraSans-Roman-67"/>
      <path d="M 37.109375 75.984375 
L 37.109375 68.5 
L 28.515625 68.5 
Q 23.6875 68.5 21.796875 66.546875 
Q 19.921875 64.59375 19.921875 59.515625 
L 19.921875 54.6875 
L 34.71875 54.6875 
L 34.71875 47.703125 
L 19.921875 47.703125 
L 19.921875 0 
L 10.890625 0 
L 10.890625 47.703125 
L 2.296875 47.703125 
L 2.296875 54.6875 
L 10.890625 54.6875 
L 10.890625 58.5 
Q 10.890625 67.625 15.140625 71.796875 
Q 19.390625 75.984375 28.609375 75.984375 
z
" id="BitstreamVeraSans-Roman-66"/>
     </defs>
     <g transform="translate(175.2140625 396.353125)scale(0.2 -0.2)">
      <use xlink:href="#BitstreamVeraSans-Roman-6c"/>
      <use x="27.783203125" xlink:href="#BitstreamVeraSans-Roman-6f"/>
      <use x="88.96484375" xlink:href="#BitstreamVeraSans-Roman-67"/>
      <use x="152.44140625" xlink:href="#BitstreamVeraSans-Roman-31"/>
      <use x="216.064453125" xlink:href="#BitstreamVeraSans-Roman-30"/>
      <use x="279.6875" xlink:href="#BitstreamVeraSans-Roman-20"/>
      <use x="311.474609375" xlink:href="#BitstreamVeraSans-Roman-6f"/>
      <use x="372.65625" xlink:href="#BitstreamVeraSans-Roman-66"/>
      <use x="407.861328125" xlink:href="#BitstreamVeraSans-Roman-20"/>
      <use x="439.6484375" xlink:href="#BitstreamVeraSans-Roman-44"/>
      <use x="516.650390625" xlink:href="#BitstreamVeraSans-Roman-66"/>
     </g>
    </g>
   </g>
   <g id="matplotlib.axis_2">
    <g id="ytick_1">
     <g id="line2d_52">
      <path clip-path="url(#pf927101bae)" d="M 7.2 352.8 
L 453.6 352.8 
" style="fill:none;stroke:#000000;stroke-dasharray:1.000000,3.000000;stroke-dashoffset:0.0;stroke-width:0.5;"/>
     </g>
     <g id="line2d_53">
      <defs>
       <path d="M 0 0 
L 4 0 
" id="m93ab7549d4" style="stroke:#000000;stroke-width:0.5;"/>
      </defs>
      <g>
       <use style="stroke:#000000;stroke-width:0.5;" x="7.2" xlink:href="#m93ab7549d4" y="352.8"/>
      </g>
     </g>
     <g id="line2d_54">
      <defs>
       <path d="M 0 0 
L -4 0 
" id="mdb1b7679d7" style="stroke:#000000;stroke-width:0.5;"/>
      </defs>
      <g>
       <use style="stroke:#000000;stroke-width:0.5;" x="453.6" xlink:href="#mdb1b7679d7" y="352.8"/>
      </g>
     </g>
    </g>
    <g id="ytick_2">
     <g id="line2d_55">
      <path clip-path="url(#pf927101bae)" d="M 7.2 284.364356 
L 453.6 284.364356 
" style="fill:none;stroke:#000000;stroke-dasharray:1.000000,3.000000;stroke-dashoffset:0.0;stroke-width:0.5;"/>
     </g>
     <g id="line2d_56">
      <g>
       <use style="stroke:#000000;stroke-width:0.5;" x="7.2" xlink:href="#m93ab7549d4" y="284.364356436"/>
      </g>
     </g>
     <g id="line2d_57">
      <g>
       <use style="stroke:#000000;stroke-width:0.5;" x="453.6" xlink:href="#mdb1b7679d7" y="284.364356436"/>
      </g>
     </g>
    </g>
    <g id="ytick_3">
     <g id="line2d_58">
      <path clip-path="url(#pf927101bae)" d="M 7.2 215.928713 
L 453.6 215.928713 
" style="fill:none;stroke:#000000;stroke-dasharray:1.000000,3.000000;stroke-dashoffset:0.0;stroke-width:0.5;"/>
     </g>
     <g id="line2d_59">
      <g>
       <use style="stroke:#000000;stroke-width:0.5;" x="7.2" xlink:href="#m93ab7549d4" y="215.928712871"/>
      </g>
     </g>
     <g id="line2d_60">
      <g>
       <use style="stroke:#000000;stroke-width:0.5;" x="453.6" xlink:href="#mdb1b7679d7" y="215.928712871"/>
      </g>
     </g>
    </g>
    <g id="ytick_4">
     <g id="line2d_61">
      <path clip-path="url(#pf927101bae)" d="M 7.2 147.493069 
L 453.6 147.493069 
" style="fill:none;stroke:#000000;stroke-dasharray:1.000000,3.000000;stroke-dashoffset:0.0;stroke-width:0.5;"/>
     </g>
     <g id="line2d_62">
      <g>
       <use style="stroke:#000000;stroke-width:0.5;" x="7.2" xlink:href="#m93ab7549d4" y="147.493069307"/>
      </g>
     </g>
     <g id="line2d_63">
      <g>
       <use style="stroke:#000000;stroke-width:0.5;" x="453.6" xlink:href="#mdb1b7679d7" y="147.493069307"/>
      </g>
     </g>
    </g>
    <g id="ytick_5">
     <g id="line2d_64">
      <path clip-path="url(#pf927101bae)" d="M 7.2 79.057426 
L 453.6 79.057426 
" style="fill:none;stroke:#000000;stroke-dasharray:1.000000,3.000000;stroke-dashoffset:0.0;stroke-width:0.5;"/>
     </g>
     <g id="line2d_65">
      <g>
       <use style="stroke:#000000;stroke-width:0.5;" x="7.2" xlink:href="#m93ab7549d4" y="79.0574257426"/>
      </g>
     </g>
     <g id="line2d_66">
      <g>
       <use style="stroke:#000000;stroke-width:0.5;" x="453.6" xlink:href="#mdb1b7679d7" y="79.0574257426"/>
      </g>
     </g>
    </g>
    <g id="ytick_6">
     <g id="line2d_67">
      <path clip-path="url(#pf927101bae)" d="M 7.2 10.621782 
L 453.6 10.621782 
" style="fill:none;stroke:#000000;stroke-dasharray:1.000000,3.000000;stroke-dashoffset:0.0;stroke-width:0.5;"/>
     </g>
     <g id="line2d_68">
      <g>
       <use style="stroke:#000000;stroke-width:0.5;" x="7.2" xlink:href="#m93ab7549d4" y="10.6217821782"/>
      </g>
     </g>
     <g id="line2d_69">
      <g>
       <use style="stroke:#000000;stroke-width:0.5;" x="453.6" xlink:href="#mdb1b7679d7" y="10.6217821782"/>
      </g>
     </g>
    </g>
   </g>
   <g id="text_10">
    <!-- {f10-f14}, 5-D -->
    <defs>
     <path d="M 12.5 -9.28125 
L 15.921875 -9.28125 
Q 22.75 -9.28125 24.828125 -7.171875 
Q 26.90625 -5.078125 26.90625 1.90625 
L 26.90625 14.015625 
Q 26.90625 21.625 29.09375 25.09375 
Q 31.296875 28.5625 36.71875 29.890625 
Q 31.296875 31.109375 29.09375 34.5625 
Q 26.90625 38.03125 26.90625 45.703125 
L 26.90625 57.8125 
Q 26.90625 64.75 24.828125 66.875 
Q 22.75 69 15.921875 69 
L 12.5 69 
L 12.5 75.984375 
L 15.578125 75.984375 
Q 27.734375 75.984375 31.8125 72.390625 
Q 35.890625 68.796875 35.890625 58.015625 
L 35.890625 46.296875 
Q 35.890625 39.015625 38.515625 36.203125 
Q 41.15625 33.40625 48.09375 33.40625 
L 51.125 33.40625 
L 51.125 26.421875 
L 48.09375 26.421875 
Q 41.15625 26.421875 38.515625 23.578125 
Q 35.890625 20.75 35.890625 13.375 
L 35.890625 1.703125 
Q 35.890625 -9.078125 31.8125 -12.6875 
Q 27.734375 -16.3125 15.578125 -16.3125 
L 12.5 -16.3125 
z
" id="BitstreamVeraSans-Roman-7d"/>
     <path d="M 51.125 -9.28125 
L 51.125 -16.3125 
L 48.09375 -16.3125 
Q 35.9375 -16.3125 31.8125 -12.6875 
Q 27.6875 -9.078125 27.6875 1.703125 
L 27.6875 13.375 
Q 27.6875 20.75 25.046875 23.578125 
Q 22.40625 26.421875 15.484375 26.421875 
L 12.5 26.421875 
L 12.5 33.40625 
L 15.484375 33.40625 
Q 22.46875 33.40625 25.078125 36.203125 
Q 27.6875 39.015625 27.6875 46.296875 
L 27.6875 58.015625 
Q 27.6875 68.796875 31.8125 72.390625 
Q 35.9375 75.984375 48.09375 75.984375 
L 51.125 75.984375 
L 51.125 69 
L 47.796875 69 
Q 40.921875 69 38.8125 66.84375 
Q 36.71875 64.703125 36.71875 57.8125 
L 36.71875 45.703125 
Q 36.71875 38.03125 34.5 34.5625 
Q 32.28125 31.109375 26.90625 29.890625 
Q 32.328125 28.5625 34.515625 25.09375 
Q 36.71875 21.625 36.71875 14.015625 
L 36.71875 1.90625 
Q 36.71875 -4.984375 38.8125 -7.125 
Q 40.921875 -9.28125 47.796875 -9.28125 
z
" id="BitstreamVeraSans-Roman-7b"/>
     <path d="M 11.71875 12.40625 
L 22.015625 12.40625 
L 22.015625 4 
L 14.015625 -11.625 
L 7.71875 -11.625 
L 11.71875 4 
z
" id="BitstreamVeraSans-Roman-2c"/>
     <path d="M 10.796875 72.90625 
L 49.515625 72.90625 
L 49.515625 64.59375 
L 19.828125 64.59375 
L 19.828125 46.734375 
Q 21.96875 47.46875 24.109375 47.828125 
Q 26.265625 48.1875 28.421875 48.1875 
Q 40.625 48.1875 47.75 41.5 
Q 54.890625 34.8125 54.890625 23.390625 
Q 54.890625 11.625 47.5625 5.09375 
Q 40.234375 -1.421875 26.90625 -1.421875 
Q 22.3125 -1.421875 17.546875 -0.640625 
Q 12.796875 0.140625 7.71875 1.703125 
L 7.71875 11.625 
Q 12.109375 9.234375 16.796875 8.0625 
Q 21.484375 6.890625 26.703125 6.890625 
Q 35.15625 6.890625 40.078125 11.328125 
Q 45.015625 15.765625 45.015625 23.390625 
Q 45.015625 31 40.078125 35.4375 
Q 35.15625 39.890625 26.703125 39.890625 
Q 22.75 39.890625 18.8125 39.015625 
Q 14.890625 38.140625 10.796875 36.28125 
z
" id="BitstreamVeraSans-Roman-35"/>
    </defs>
    <g transform="translate(298.972 345.888)scale(0.2 -0.2)">
     <use xlink:href="#BitstreamVeraSans-Roman-7b"/>
     <use x="63.623046875" xlink:href="#BitstreamVeraSans-Roman-66"/>
     <use x="98.828125" xlink:href="#BitstreamVeraSans-Roman-31"/>
     <use x="162.451171875" xlink:href="#BitstreamVeraSans-Roman-30"/>
     <use x="226.07421875" xlink:href="#BitstreamVeraSans-Roman-2d"/>
     <use x="262.158203125" xlink:href="#BitstreamVeraSans-Roman-66"/>
     <use x="297.36328125" xlink:href="#BitstreamVeraSans-Roman-31"/>
     <use x="360.986328125" xlink:href="#BitstreamVeraSans-Roman-34"/>
     <use x="424.609375" xlink:href="#BitstreamVeraSans-Roman-7d"/>
     <use x="488.232421875" xlink:href="#BitstreamVeraSans-Roman-2c"/>
     <use x="520.01953125" xlink:href="#BitstreamVeraSans-Roman-20"/>
     <use x="551.806640625" xlink:href="#BitstreamVeraSans-Roman-35"/>
     <use x="615.4296875" xlink:href="#BitstreamVeraSans-Roman-2d"/>
     <use x="651.513671875" xlink:href="#BitstreamVeraSans-Roman-44"/>
    </g>
   </g>
   <g id="text_11">
    <!-- 0.0.0 -->
    <defs>
     <path d="M 10.6875 12.40625 
L 21 12.40625 
L 21 0 
L 10.6875 0 
z
" id="BitstreamVeraSans-Roman-2e"/>
    </defs>
    <g style="fill:#808080;" transform="translate(217.678125 347.2643125)scale(0.1 -0.1)">
     <use xlink:href="#BitstreamVeraSans-Roman-30"/>
     <use x="63.623046875" xlink:href="#BitstreamVeraSans-Roman-2e"/>
     <use x="95.41015625" xlink:href="#BitstreamVeraSans-Roman-30"/>
     <use x="159.033203125" xlink:href="#BitstreamVeraSans-Roman-2e"/>
     <use x="190.8203125" xlink:href="#BitstreamVeraSans-Roman-30"/>
    </g>
   </g>
  </g>
 </g>
 <defs>
  <clipPath id="pf927101bae">
   <rect height="345.6" width="446.4" x="7.2" y="7.2"/>
  </clipPath>
 </defs>
</svg>
