<?xml version="1.0" encoding="utf-8" standalone="no"?>
<!DOCTYPE svg PUBLIC "-//W3C//DTD SVG 1.1//EN"
  "http://www.w3.org/Graphics/SVG/1.1/DTD/svg11.dtd">
<!-- Created with matplotlib (http://matplotlib.org/) -->
<svg height="407pt" version="1.1" viewBox="0 0 460 407" width="460pt" xmlns="http://www.w3.org/2000/svg" xmlns:xlink="http://www.w3.org/1999/xlink">
 <defs>
  <style type="text/css">
*{stroke-linecap:butt;stroke-linejoin:round;stroke-miterlimit:100000;}
  </style>
 </defs>
 <g id="figure_1">
  <g id="patch_1">
   <path d="M 0 407.7125 
L 460.8 407.7125 
L 460.8 0 
L 0 0 
z
" style="fill:#ffffff;"/>
  </g>
  <g id="axes_1">
   <g id="patch_2">
    <path d="M 7.2 352.8 
L 453.6 352.8 
L 453.6 7.2 
L 7.2 7.2 
z
" style="fill:#ffffff;"/>
   </g>
   <g id="line2d_1">
    <path clip-path="url(#pba251bfdcb)" d="M 216.794771 352.8 
L 216.794771 348.237624 
L 223.403113 348.237624 
L 223.403113 343.675248 
L 224.554002 343.675248 
L 224.554002 339.112871 
L 228.614609 339.112871 
L 228.714461 329.988119 
L 229.311895 329.988119 
L 229.311895 325.425743 
L 230.358104 325.425743 
L 230.358104 320.863366 
L 230.844461 320.863366 
L 230.904044 311.738614 
L 230.987994 311.738614 
L 230.987994 307.176238 
L 231.205931 307.176238 
L 231.205931 302.613861 
L 231.994561 302.613861 
L 231.994561 298.051485 
L 234.04856 298.051485 
L 234.125502 288.926733 
L 234.50457 288.926733 
L 234.50457 284.364356 
L 235.183968 284.364356 
L 235.183968 279.80198 
L 235.462912 279.80198 
L 235.462912 275.239604 
L 235.691662 275.239604 
L 235.691662 270.677228 
L 235.869455 270.677228 
L 235.869455 266.114851 
L 236.007746 266.114851 
L 236.007746 261.552475 
L 236.261514 261.552475 
L 236.261514 256.990099 
L 237.444707 256.990099 
L 237.444707 252.427723 
L 237.713281 252.427723 
L 237.713281 247.865347 
L 237.921881 247.865347 
L 237.962855 238.740594 
L 238.216338 238.740594 
L 238.216338 234.178218 
L 238.434997 234.178218 
L 238.434997 229.615842 
L 238.881774 229.615842 
L 238.881774 225.053465 
L 239.651412 225.053465 
L 239.651412 220.491089 
L 240.249531 220.491089 
L 240.249531 215.928713 
L 240.389325 215.928713 
L 240.389325 211.366337 
L 243.712604 211.366337 
L 243.712604 206.80396 
L 244.576982 206.80396 
L 244.576982 202.241584 
L 246.969207 202.241584 
L 246.969207 197.679208 
L 247.573746 197.679208 
L 247.573746 193.116832 
L 248.693322 193.116832 
L 248.693322 188.554455 
L 249.195942 188.554455 
L 249.195942 183.992079 
L 249.890729 183.992079 
L 249.890729 179.429703 
L 251.702691 179.429703 
L 251.702691 174.867327 
L 252.39157 174.867327 
L 252.39157 170.30495 
L 252.588627 170.30495 
L 252.588627 165.742574 
L 253.056079 165.742574 
L 253.056079 161.180198 
L 255.058239 161.180198 
L 255.141999 152.055446 
L 256.005627 152.055446 
L 256.005627 147.493069 
L 256.291177 147.493069 
L 256.291177 142.930693 
L 256.420617 142.930693 
L 256.420617 138.368317 
L 257.239415 138.368317 
L 257.259605 129.243564 
L 257.662728 129.243564 
L 257.662728 124.681188 
L 257.774198 124.681188 
L 257.774198 120.118812 
L 257.919673 120.118812 
L 257.919673 115.556436 
L 258.83487 115.556436 
L 258.83487 110.994059 
L 259.358162 110.994059 
L 259.358162 106.431683 
L 260.071984 106.431683 
L 260.071984 101.869307 
L 260.669691 101.869307 
L 260.669691 97.306931 
L 260.852708 97.306931 
L 260.852708 92.744554 
L 263.195004 92.744554 
L 263.195004 88.182178 
L 264.55283 88.182178 
L 264.55283 83.619802 
L 266.929725 83.619802 
L 266.929725 79.057426 
L 314.462121 79.057426 
L 314.462121 74.49505 
L 316.675867 74.49505 
L 316.675867 69.932673 
L 321.160274 69.932673 
L 321.160274 65.370297 
L 324.362182 65.370297 
L 324.362182 60.807921 
L 326.062705 60.807921 
L 326.062705 56.245545 
L 328.345394 56.245545 
L 328.345394 51.683168 
L 329.652033 51.683168 
L 329.652033 47.120792 
L 338.99982 47.120792 
L 338.99982 42.558416 
L 341.567723 42.558416 
L 341.567723 37.99604 
L 347.001676 37.99604 
L 347.001676 33.433663 
L 349.775864 33.433663 
L 349.775864 28.871287 
L 350.284047 28.871287 
L 350.284047 24.308911 
L 353.271204 24.308911 
L 353.271204 19.746535 
L 355.982355 19.746535 
L 355.982355 15.184158 
L 365.26419 15.184158 
L 365.26419 10.621782 
L 365.26419 10.621782 
L 453.6 10.621782 
L 453.6 10.621782 
" style="fill:none;stroke:#ff0000;stroke-linecap:square;stroke-width:3.0;"/>
   </g>
   <g id="line2d_2">
    <path clip-path="url(#pba251bfdcb)" d="M 227.147611 352.8 
L 227.147611 348.237624 
L 228.797173 348.237624 
L 228.797173 343.675248 
L 229.311895 343.675248 
L 229.311895 339.112871 
L 234.37307 339.112871 
L 234.37307 334.550495 
L 234.50457 334.550495 
L 234.50457 329.988119 
L 236.261514 329.988119 
L 236.261514 325.425743 
L 236.478961 325.425743 
L 236.478961 320.863366 
L 237.067699 320.863366 
L 237.067699 316.30099 
L 237.444707 316.30099 
L 237.444707 311.738614 
L 238.0756 311.738614 
L 238.0756 307.176238 
L 238.622285 307.176238 
L 238.622285 302.613861 
L 238.881774 302.613861 
L 238.881774 298.051485 
L 239.027853 298.051485 
L 239.046197 288.926733 
L 239.434891 288.926733 
L 239.434891 284.364356 
L 240.349455 284.364356 
L 240.457974 275.239604 
L 240.963836 275.239604 
L 240.963836 270.677228 
L 241.676048 270.677228 
L 241.676048 266.114851 
L 241.907208 266.114851 
L 241.992034 256.990099 
L 242.351406 256.990099 
L 242.351406 252.427723 
L 242.878192 252.427723 
L 242.912559 243.30297 
L 243.016919 243.30297 
L 243.016919 238.740594 
L 243.714819 238.740594 
L 243.714819 234.178218 
L 244.523058 234.178218 
L 244.523058 229.615842 
L 244.853965 229.615842 
L 244.853965 225.053465 
L 245.335047 225.053465 
L 245.335047 220.491089 
L 247.311478 220.491089 
L 247.311478 215.928713 
L 248.471613 215.928713 
L 248.471613 211.366337 
L 249.378495 211.366337 
L 249.378495 206.80396 
L 253.611637 206.80396 
L 253.611637 202.241584 
L 253.846442 202.241584 
L 253.846442 197.679208 
L 254.652867 197.679208 
L 254.652867 193.116832 
L 255.084459 193.116832 
L 255.084459 188.554455 
L 256.291177 188.554455 
L 256.291177 183.992079 
L 257.239415 183.992079 
L 257.239415 179.429703 
L 257.774198 179.429703 
L 257.774198 174.867327 
L 257.919673 174.867327 
L 257.919673 170.30495 
L 258.83487 170.30495 
L 258.83487 165.742574 
L 259.116317 165.742574 
L 259.116317 161.180198 
L 260.265526 161.180198 
L 260.265526 156.617822 
L 261.644139 156.617822 
L 261.644139 152.055446 
L 263.195004 152.055446 
L 263.195004 147.493069 
L 264.266795 147.493069 
L 264.266795 142.930693 
L 265.091713 142.930693 
L 265.091713 138.368317 
L 265.660819 138.368317 
L 265.660819 133.805941 
L 268.3671 133.805941 
L 268.3671 129.243564 
L 269.566795 129.243564 
L 269.566795 124.681188 
L 271.687817 124.681188 
L 271.687817 120.118812 
L 272.900109 120.118812 
L 272.900109 115.556436 
L 275.921963 115.556436 
L 275.921963 110.994059 
L 279.347696 110.994059 
L 279.347696 106.431683 
L 280.05547 106.431683 
L 280.05547 101.869307 
L 285.592467 101.869307 
L 285.592467 97.306931 
L 285.710784 97.306931 
L 285.710784 92.744554 
L 286.098494 92.744554 
L 286.098494 88.182178 
L 290.691452 88.182178 
L 290.691452 83.619802 
L 300.239814 83.619802 
L 300.239814 79.057426 
L 314.462121 79.057426 
L 314.462121 74.49505 
L 329.652033 74.49505 
L 329.652033 69.932673 
L 338.99982 69.932673 
L 338.99982 65.370297 
L 340.818069 65.370297 
L 340.818069 60.807921 
L 343.240478 60.807921 
L 343.240478 56.245545 
L 343.717298 56.245545 
L 343.717298 51.683168 
L 348.213422 51.683168 
L 348.213422 47.120792 
L 349.775864 47.120792 
L 349.775864 42.558416 
L 350.284047 42.558416 
L 350.284047 37.99604 
L 354.723242 37.99604 
L 354.723242 33.433663 
L 358.981228 33.433663 
L 358.981228 28.871287 
L 360.322778 28.871287 
L 360.322778 24.308911 
L 365.26419 24.308911 
L 365.26419 19.746535 
L 371.774288 19.746535 
L 371.774288 15.184158 
L 376.736622 15.184158 
L 376.736622 10.621782 
L 376.736622 10.621782 
L 453.6 10.621782 
L 453.6 10.621782 
" style="fill:none;stroke:#00bfbf;stroke-linecap:square;"/>
   </g>
   <g id="line2d_3">
    <path clip-path="url(#pba251bfdcb)" d="M 216.794771 352.8 
L 216.794771 348.237624 
L 224.554002 348.237624 
L 224.554002 343.675248 
L 227.147611 343.675248 
L 227.147611 339.112871 
L 228.614609 339.112871 
L 228.614609 334.550495 
L 229.311895 334.550495 
L 229.311895 329.988119 
L 230.358104 329.988119 
L 230.358104 325.425743 
L 230.844461 325.425743 
L 230.844461 320.863366 
L 231.205931 320.863366 
L 231.205931 316.30099 
L 234.04856 316.30099 
L 234.125502 307.176238 
L 234.50457 307.176238 
L 234.50457 302.613861 
L 235.462912 302.613861 
L 235.462912 298.051485 
L 235.691662 298.051485 
L 235.691662 293.489109 
L 235.869455 293.489109 
L 235.869455 288.926733 
L 236.007746 288.926733 
L 236.007746 284.364356 
L 236.261514 284.364356 
L 236.261514 279.80198 
L 236.908325 279.80198 
L 236.908325 275.239604 
L 237.444707 275.239604 
L 237.444707 270.677228 
L 237.713281 270.677228 
L 237.713281 266.114851 
L 237.921881 266.114851 
L 237.921881 261.552475 
L 238.434997 261.552475 
L 238.456249 252.427723 
L 238.881774 252.427723 
L 238.881774 247.865347 
L 239.550774 247.865347 
L 239.651412 238.740594 
L 239.912446 238.740594 
L 239.912446 234.178218 
L 240.249531 234.178218 
L 240.249531 229.615842 
L 240.457974 229.615842 
L 240.457974 225.053465 
L 240.989999 225.053465 
L 240.989999 220.491089 
L 242.56712 220.491089 
L 242.56712 215.928713 
L 243.712604 215.928713 
L 243.712604 211.366337 
L 244.576982 211.366337 
L 244.576982 206.80396 
L 246.969207 206.80396 
L 246.969207 202.241584 
L 247.544427 202.241584 
L 247.544427 197.679208 
L 248.693322 197.679208 
L 248.693322 193.116832 
L 249.890729 193.116832 
L 249.890729 188.554455 
L 251.101415 188.554455 
L 251.101415 183.992079 
L 252.04942 183.992079 
L 252.04942 179.429703 
L 254.652867 179.429703 
L 254.746481 170.30495 
L 255.058239 170.30495 
L 255.141999 161.180198 
L 256.291177 161.180198 
L 256.291177 156.617822 
L 256.503944 156.617822 
L 256.536174 147.493069 
L 257.239415 147.493069 
L 257.239415 142.930693 
L 257.662728 142.930693 
L 257.662728 138.368317 
L 257.774198 138.368317 
L 257.774198 133.805941 
L 257.919673 133.805941 
L 257.919673 129.243564 
L 258.83487 129.243564 
L 258.83487 124.681188 
L 260.071984 124.681188 
L 260.071984 120.118812 
L 263.159289 120.118812 
L 263.195004 110.994059 
L 263.295351 110.994059 
L 263.295351 106.431683 
L 263.70041 106.431683 
L 263.70041 101.869307 
L 264.967599 101.869307 
L 264.967599 97.306931 
L 265.488624 97.306931 
L 265.488624 92.744554 
L 266.929725 92.744554 
L 266.929725 88.182178 
L 271.687817 88.182178 
L 271.687817 83.619802 
L 279.528528 83.619802 
L 279.528528 79.057426 
L 314.462121 79.057426 
L 314.462121 74.49505 
L 316.675867 74.49505 
L 316.675867 69.932673 
L 321.160274 69.932673 
L 321.160274 65.370297 
L 324.362182 65.370297 
L 324.362182 60.807921 
L 326.062705 60.807921 
L 326.062705 56.245545 
L 328.345394 56.245545 
L 328.345394 51.683168 
L 329.652033 51.683168 
L 329.652033 47.120792 
L 338.99982 47.120792 
L 338.99982 42.558416 
L 348.213422 42.558416 
L 348.213422 37.99604 
L 349.775864 37.99604 
L 349.775864 33.433663 
L 350.284047 33.433663 
L 350.284047 28.871287 
L 355.982355 28.871287 
L 355.982355 24.308911 
L 360.322778 24.308911 
L 360.322778 19.746535 
L 364.233928 19.746535 
L 364.233928 15.184158 
L 365.26419 15.184158 
L 365.26419 10.621782 
L 365.26419 10.621782 
L 453.6 10.621782 
L 453.6 10.621782 
" style="fill:none;stroke:#bf00bf;stroke-linecap:square;"/>
   </g>
   <g id="patch_3">
    <path d="M 7.2 7.2 
L 453.6 7.2 
" style="fill:none;stroke:#000000;stroke-linecap:square;stroke-linejoin:miter;"/>
   </g>
   <g id="patch_4">
    <path d="M 453.6 352.8 
L 453.6 7.2 
" style="fill:none;stroke:#000000;stroke-linecap:square;stroke-linejoin:miter;"/>
   </g>
   <g id="patch_5">
    <path d="M 7.2 352.8 
L 453.6 352.8 
" style="fill:none;stroke:#000000;stroke-linecap:square;stroke-linejoin:miter;"/>
   </g>
   <g id="patch_6">
    <path d="M 7.2 352.8 
L 7.2 7.2 
" style="fill:none;stroke:#000000;stroke-linecap:square;stroke-linejoin:miter;"/>
   </g>
   <g id="matplotlib.axis_1">
    <g id="xtick_1"/>
    <g id="xtick_2">
     <g id="line2d_4">
      <path clip-path="url(#pba251bfdcb)" d="M 54.098611 352.8 
L 54.098611 7.2 
" style="fill:none;stroke:#000000;stroke-dasharray:1.000000,3.000000;stroke-dashoffset:0.0;stroke-width:0.5;"/>
     </g>
     <g id="line2d_5">
      <defs>
       <path d="M 0 0 
L 0 -4 
" id="maec5a525cd" style="stroke:#000000;stroke-width:0.5;"/>
      </defs>
      <g>
       <use style="stroke:#000000;stroke-width:0.5;" x="54.0986107985" xlink:href="#maec5a525cd" y="352.8"/>
      </g>
     </g>
     <g id="line2d_6">
      <defs>
       <path d="M 0 0 
L 0 4 
" id="md55cac3888" style="stroke:#000000;stroke-width:0.5;"/>
      </defs>
      <g>
       <use style="stroke:#000000;stroke-width:0.5;" x="54.0986107985" xlink:href="#md55cac3888" y="7.2"/>
      </g>
     </g>
     <g id="text_1">
      <!-- -6 -->
      <defs>
       <path d="M 33.015625 40.375 
Q 26.375 40.375 22.484375 35.828125 
Q 18.609375 31.296875 18.609375 23.390625 
Q 18.609375 15.53125 22.484375 10.953125 
Q 26.375 6.390625 33.015625 6.390625 
Q 39.65625 6.390625 43.53125 10.953125 
Q 47.40625 15.53125 47.40625 23.390625 
Q 47.40625 31.296875 43.53125 35.828125 
Q 39.65625 40.375 33.015625 40.375 
M 52.59375 71.296875 
L 52.59375 62.3125 
Q 48.875 64.0625 45.09375 64.984375 
Q 41.3125 65.921875 37.59375 65.921875 
Q 27.828125 65.921875 22.671875 59.328125 
Q 17.53125 52.734375 16.796875 39.40625 
Q 19.671875 43.65625 24.015625 45.921875 
Q 28.375 48.1875 33.59375 48.1875 
Q 44.578125 48.1875 50.953125 41.515625 
Q 57.328125 34.859375 57.328125 23.390625 
Q 57.328125 12.15625 50.6875 5.359375 
Q 44.046875 -1.421875 33.015625 -1.421875 
Q 20.359375 -1.421875 13.671875 8.265625 
Q 6.984375 17.96875 6.984375 36.375 
Q 6.984375 53.65625 15.1875 63.9375 
Q 23.390625 74.21875 37.203125 74.21875 
Q 40.921875 74.21875 44.703125 73.484375 
Q 48.484375 72.75 52.59375 71.296875 
" id="BitstreamVeraSans-Roman-36"/>
       <path d="M 4.890625 31.390625 
L 31.203125 31.390625 
L 31.203125 23.390625 
L 4.890625 23.390625 
z
" id="BitstreamVeraSans-Roman-2d"/>
      </defs>
      <g transform="translate(44.1282982985 371.996875)scale(0.2 -0.2)">
       <use xlink:href="#BitstreamVeraSans-Roman-2d"/>
       <use x="36.083984375" xlink:href="#BitstreamVeraSans-Roman-36"/>
      </g>
     </g>
    </g>
    <g id="xtick_3">
     <g id="line2d_7">
      <path clip-path="url(#pba251bfdcb)" d="M 101.098774 352.8 
L 101.098774 7.2 
" style="fill:none;stroke:#000000;stroke-dasharray:1.000000,3.000000;stroke-dashoffset:0.0;stroke-width:0.5;"/>
     </g>
     <g id="line2d_8">
      <g>
       <use style="stroke:#000000;stroke-width:0.5;" x="101.098774234" xlink:href="#maec5a525cd" y="352.8"/>
      </g>
     </g>
     <g id="line2d_9">
      <g>
       <use style="stroke:#000000;stroke-width:0.5;" x="101.098774234" xlink:href="#md55cac3888" y="7.2"/>
      </g>
     </g>
     <g id="text_2">
      <!-- -4 -->
      <defs>
       <path d="M 37.796875 64.3125 
L 12.890625 25.390625 
L 37.796875 25.390625 
z
M 35.203125 72.90625 
L 47.609375 72.90625 
L 47.609375 25.390625 
L 58.015625 25.390625 
L 58.015625 17.1875 
L 47.609375 17.1875 
L 47.609375 0 
L 37.796875 0 
L 37.796875 17.1875 
L 4.890625 17.1875 
L 4.890625 26.703125 
z
" id="BitstreamVeraSans-Roman-34"/>
      </defs>
      <g transform="translate(91.1284617339 371.996875)scale(0.2 -0.2)">
       <use xlink:href="#BitstreamVeraSans-Roman-2d"/>
       <use x="36.083984375" xlink:href="#BitstreamVeraSans-Roman-34"/>
      </g>
     </g>
    </g>
    <g id="xtick_4">
     <g id="line2d_10">
      <path clip-path="url(#pba251bfdcb)" d="M 148.098938 352.8 
L 148.098938 7.2 
" style="fill:none;stroke:#000000;stroke-dasharray:1.000000,3.000000;stroke-dashoffset:0.0;stroke-width:0.5;"/>
     </g>
     <g id="line2d_11">
      <g>
       <use style="stroke:#000000;stroke-width:0.5;" x="148.098937669" xlink:href="#maec5a525cd" y="352.8"/>
      </g>
     </g>
     <g id="line2d_12">
      <g>
       <use style="stroke:#000000;stroke-width:0.5;" x="148.098937669" xlink:href="#md55cac3888" y="7.2"/>
      </g>
     </g>
     <g id="text_3">
      <!-- -2 -->
      <defs>
       <path d="M 19.1875 8.296875 
L 53.609375 8.296875 
L 53.609375 0 
L 7.328125 0 
L 7.328125 8.296875 
Q 12.9375 14.109375 22.625 23.890625 
Q 32.328125 33.6875 34.8125 36.53125 
Q 39.546875 41.84375 41.421875 45.53125 
Q 43.3125 49.21875 43.3125 52.78125 
Q 43.3125 58.59375 39.234375 62.25 
Q 35.15625 65.921875 28.609375 65.921875 
Q 23.96875 65.921875 18.8125 64.3125 
Q 13.671875 62.703125 7.8125 59.421875 
L 7.8125 69.390625 
Q 13.765625 71.78125 18.9375 73 
Q 24.125 74.21875 28.421875 74.21875 
Q 39.75 74.21875 46.484375 68.546875 
Q 53.21875 62.890625 53.21875 53.421875 
Q 53.21875 48.921875 51.53125 44.890625 
Q 49.859375 40.875 45.40625 35.40625 
Q 44.1875 33.984375 37.640625 27.21875 
Q 31.109375 20.453125 19.1875 8.296875 
" id="BitstreamVeraSans-Roman-32"/>
      </defs>
      <g transform="translate(138.128625169 371.996875)scale(0.2 -0.2)">
       <use xlink:href="#BitstreamVeraSans-Roman-2d"/>
       <use x="36.083984375" xlink:href="#BitstreamVeraSans-Roman-32"/>
      </g>
     </g>
    </g>
    <g id="xtick_5">
     <g id="line2d_13">
      <path clip-path="url(#pba251bfdcb)" d="M 195.099101 352.8 
L 195.099101 7.2 
" style="fill:none;stroke:#000000;stroke-dasharray:1.000000,3.000000;stroke-dashoffset:0.0;stroke-width:0.5;"/>
     </g>
     <g id="line2d_14">
      <g>
       <use style="stroke:#000000;stroke-width:0.5;" x="195.099101105" xlink:href="#maec5a525cd" y="352.8"/>
      </g>
     </g>
     <g id="line2d_15">
      <g>
       <use style="stroke:#000000;stroke-width:0.5;" x="195.099101105" xlink:href="#md55cac3888" y="7.2"/>
      </g>
     </g>
     <g id="text_4">
      <!-- 0 -->
      <defs>
       <path d="M 31.78125 66.40625 
Q 24.171875 66.40625 20.328125 58.90625 
Q 16.5 51.421875 16.5 36.375 
Q 16.5 21.390625 20.328125 13.890625 
Q 24.171875 6.390625 31.78125 6.390625 
Q 39.453125 6.390625 43.28125 13.890625 
Q 47.125 21.390625 47.125 36.375 
Q 47.125 51.421875 43.28125 58.90625 
Q 39.453125 66.40625 31.78125 66.40625 
M 31.78125 74.21875 
Q 44.046875 74.21875 50.515625 64.515625 
Q 56.984375 54.828125 56.984375 36.375 
Q 56.984375 17.96875 50.515625 8.265625 
Q 44.046875 -1.421875 31.78125 -1.421875 
Q 19.53125 -1.421875 13.0625 8.265625 
Q 6.59375 17.96875 6.59375 36.375 
Q 6.59375 54.828125 13.0625 64.515625 
Q 19.53125 74.21875 31.78125 74.21875 
" id="BitstreamVeraSans-Roman-30"/>
      </defs>
      <g transform="translate(188.736601105 371.996875)scale(0.2 -0.2)">
       <use xlink:href="#BitstreamVeraSans-Roman-30"/>
      </g>
     </g>
    </g>
    <g id="xtick_6">
     <g id="line2d_16">
      <path clip-path="url(#pba251bfdcb)" d="M 242.099265 352.8 
L 242.099265 7.2 
" style="fill:none;stroke:#000000;stroke-dasharray:1.000000,3.000000;stroke-dashoffset:0.0;stroke-width:0.5;"/>
     </g>
     <g id="line2d_17">
      <g>
       <use style="stroke:#000000;stroke-width:0.5;" x="242.09926454" xlink:href="#maec5a525cd" y="352.8"/>
      </g>
     </g>
     <g id="line2d_18">
      <g>
       <use style="stroke:#000000;stroke-width:0.5;" x="242.09926454" xlink:href="#md55cac3888" y="7.2"/>
      </g>
     </g>
     <g id="text_5">
      <!-- 2 -->
      <g transform="translate(235.73676454 371.996875)scale(0.2 -0.2)">
       <use xlink:href="#BitstreamVeraSans-Roman-32"/>
      </g>
     </g>
    </g>
    <g id="xtick_7">
     <g id="line2d_19">
      <path clip-path="url(#pba251bfdcb)" d="M 289.099428 352.8 
L 289.099428 7.2 
" style="fill:none;stroke:#000000;stroke-dasharray:1.000000,3.000000;stroke-dashoffset:0.0;stroke-width:0.5;"/>
     </g>
     <g id="line2d_20">
      <g>
       <use style="stroke:#000000;stroke-width:0.5;" x="289.099427976" xlink:href="#maec5a525cd" y="352.8"/>
      </g>
     </g>
     <g id="line2d_21">
      <g>
       <use style="stroke:#000000;stroke-width:0.5;" x="289.099427976" xlink:href="#md55cac3888" y="7.2"/>
      </g>
     </g>
     <g id="text_6">
      <!-- 4 -->
      <g transform="translate(282.736927976 371.996875)scale(0.2 -0.2)">
       <use xlink:href="#BitstreamVeraSans-Roman-34"/>
      </g>
     </g>
    </g>
    <g id="xtick_8">
     <g id="line2d_22">
      <path clip-path="url(#pba251bfdcb)" d="M 336.099591 352.8 
L 336.099591 7.2 
" style="fill:none;stroke:#000000;stroke-dasharray:1.000000,3.000000;stroke-dashoffset:0.0;stroke-width:0.5;"/>
     </g>
     <g id="line2d_23">
      <g>
       <use style="stroke:#000000;stroke-width:0.5;" x="336.099591411" xlink:href="#maec5a525cd" y="352.8"/>
      </g>
     </g>
     <g id="line2d_24">
      <g>
       <use style="stroke:#000000;stroke-width:0.5;" x="336.099591411" xlink:href="#md55cac3888" y="7.2"/>
      </g>
     </g>
     <g id="text_7">
      <!-- 6 -->
      <g transform="translate(329.737091411 371.996875)scale(0.2 -0.2)">
       <use xlink:href="#BitstreamVeraSans-Roman-36"/>
      </g>
     </g>
    </g>
    <g id="xtick_9">
     <g id="line2d_25">
      <path clip-path="url(#pba251bfdcb)" d="M 383.099755 352.8 
L 383.099755 7.2 
" style="fill:none;stroke:#000000;stroke-dasharray:1.000000,3.000000;stroke-dashoffset:0.0;stroke-width:0.5;"/>
     </g>
     <g id="line2d_26">
      <g>
       <use style="stroke:#000000;stroke-width:0.5;" x="383.099754847" xlink:href="#maec5a525cd" y="352.8"/>
      </g>
     </g>
     <g id="line2d_27">
      <g>
       <use style="stroke:#000000;stroke-width:0.5;" x="383.099754847" xlink:href="#md55cac3888" y="7.2"/>
      </g>
     </g>
     <g id="text_8">
      <!-- 8 -->
      <defs>
       <path d="M 31.78125 34.625 
Q 24.75 34.625 20.71875 30.859375 
Q 16.703125 27.09375 16.703125 20.515625 
Q 16.703125 13.921875 20.71875 10.15625 
Q 24.75 6.390625 31.78125 6.390625 
Q 38.8125 6.390625 42.859375 10.171875 
Q 46.921875 13.96875 46.921875 20.515625 
Q 46.921875 27.09375 42.890625 30.859375 
Q 38.875 34.625 31.78125 34.625 
M 21.921875 38.8125 
Q 15.578125 40.375 12.03125 44.71875 
Q 8.5 49.078125 8.5 55.328125 
Q 8.5 64.0625 14.71875 69.140625 
Q 20.953125 74.21875 31.78125 74.21875 
Q 42.671875 74.21875 48.875 69.140625 
Q 55.078125 64.0625 55.078125 55.328125 
Q 55.078125 49.078125 51.53125 44.71875 
Q 48 40.375 41.703125 38.8125 
Q 48.828125 37.15625 52.796875 32.3125 
Q 56.78125 27.484375 56.78125 20.515625 
Q 56.78125 9.90625 50.3125 4.234375 
Q 43.84375 -1.421875 31.78125 -1.421875 
Q 19.734375 -1.421875 13.25 4.234375 
Q 6.78125 9.90625 6.78125 20.515625 
Q 6.78125 27.484375 10.78125 32.3125 
Q 14.796875 37.15625 21.921875 38.8125 
M 18.3125 54.390625 
Q 18.3125 48.734375 21.84375 45.5625 
Q 25.390625 42.390625 31.78125 42.390625 
Q 38.140625 42.390625 41.71875 45.5625 
Q 45.3125 48.734375 45.3125 54.390625 
Q 45.3125 60.0625 41.71875 63.234375 
Q 38.140625 66.40625 31.78125 66.40625 
Q 25.390625 66.40625 21.84375 63.234375 
Q 18.3125 60.0625 18.3125 54.390625 
" id="BitstreamVeraSans-Roman-38"/>
      </defs>
      <g transform="translate(376.737254847 371.996875)scale(0.2 -0.2)">
       <use xlink:href="#BitstreamVeraSans-Roman-38"/>
      </g>
     </g>
    </g>
    <g id="xtick_10">
     <g id="line2d_28">
      <path clip-path="url(#pba251bfdcb)" d="M 430.099918 352.8 
L 430.099918 7.2 
" style="fill:none;stroke:#000000;stroke-dasharray:1.000000,3.000000;stroke-dashoffset:0.0;stroke-width:0.5;"/>
     </g>
     <g id="line2d_29">
      <g>
       <use style="stroke:#000000;stroke-width:0.5;" x="430.099918282" xlink:href="#maec5a525cd" y="352.8"/>
      </g>
     </g>
     <g id="line2d_30">
      <g>
       <use style="stroke:#000000;stroke-width:0.5;" x="430.099918282" xlink:href="#md55cac3888" y="7.2"/>
      </g>
     </g>
     <g id="text_9">
      <!-- 10 -->
      <defs>
       <path d="M 12.40625 8.296875 
L 28.515625 8.296875 
L 28.515625 63.921875 
L 10.984375 60.40625 
L 10.984375 69.390625 
L 28.421875 72.90625 
L 38.28125 72.90625 
L 38.28125 8.296875 
L 54.390625 8.296875 
L 54.390625 0 
L 12.40625 0 
z
" id="BitstreamVeraSans-Roman-31"/>
      </defs>
      <g transform="translate(417.374918282 371.996875)scale(0.2 -0.2)">
       <use xlink:href="#BitstreamVeraSans-Roman-31"/>
       <use x="63.623046875" xlink:href="#BitstreamVeraSans-Roman-30"/>
      </g>
     </g>
    </g>
    <g id="xtick_11"/>
    <g id="xtick_12">
     <g id="line2d_31">
      <defs>
       <path d="M 0 0 
L 0 -2 
" id="mcf513badea" style="stroke:#000000;stroke-width:0.5;"/>
      </defs>
      <g>
       <use style="stroke:#000000;stroke-width:0.5;" x="54.0986107985" xlink:href="#mcf513badea" y="352.8"/>
      </g>
     </g>
     <g id="line2d_32">
      <defs>
       <path d="M 0 0 
L 0 2 
" id="m768e1b46a3" style="stroke:#000000;stroke-width:0.5;"/>
      </defs>
      <g>
       <use style="stroke:#000000;stroke-width:0.5;" x="54.0986107985" xlink:href="#m768e1b46a3" y="7.2"/>
      </g>
     </g>
    </g>
    <g id="xtick_13">
     <g id="line2d_33">
      <g>
       <use style="stroke:#000000;stroke-width:0.5;" x="101.098774234" xlink:href="#mcf513badea" y="352.8"/>
      </g>
     </g>
     <g id="line2d_34">
      <g>
       <use style="stroke:#000000;stroke-width:0.5;" x="101.098774234" xlink:href="#m768e1b46a3" y="7.2"/>
      </g>
     </g>
    </g>
    <g id="xtick_14">
     <g id="line2d_35">
      <g>
       <use style="stroke:#000000;stroke-width:0.5;" x="148.098937669" xlink:href="#mcf513badea" y="352.8"/>
      </g>
     </g>
     <g id="line2d_36">
      <g>
       <use style="stroke:#000000;stroke-width:0.5;" x="148.098937669" xlink:href="#m768e1b46a3" y="7.2"/>
      </g>
     </g>
    </g>
    <g id="xtick_15">
     <g id="line2d_37">
      <g>
       <use style="stroke:#000000;stroke-width:0.5;" x="195.099101105" xlink:href="#mcf513badea" y="352.8"/>
      </g>
     </g>
     <g id="line2d_38">
      <g>
       <use style="stroke:#000000;stroke-width:0.5;" x="195.099101105" xlink:href="#m768e1b46a3" y="7.2"/>
      </g>
     </g>
    </g>
    <g id="xtick_16">
     <g id="line2d_39">
      <g>
       <use style="stroke:#000000;stroke-width:0.5;" x="242.09926454" xlink:href="#mcf513badea" y="352.8"/>
      </g>
     </g>
     <g id="line2d_40">
      <g>
       <use style="stroke:#000000;stroke-width:0.5;" x="242.09926454" xlink:href="#m768e1b46a3" y="7.2"/>
      </g>
     </g>
    </g>
    <g id="xtick_17">
     <g id="line2d_41">
      <g>
       <use style="stroke:#000000;stroke-width:0.5;" x="289.099427976" xlink:href="#mcf513badea" y="352.8"/>
      </g>
     </g>
     <g id="line2d_42">
      <g>
       <use style="stroke:#000000;stroke-width:0.5;" x="289.099427976" xlink:href="#m768e1b46a3" y="7.2"/>
      </g>
     </g>
    </g>
    <g id="xtick_18">
     <g id="line2d_43">
      <g>
       <use style="stroke:#000000;stroke-width:0.5;" x="336.099591411" xlink:href="#mcf513badea" y="352.8"/>
      </g>
     </g>
     <g id="line2d_44">
      <g>
       <use style="stroke:#000000;stroke-width:0.5;" x="336.099591411" xlink:href="#m768e1b46a3" y="7.2"/>
      </g>
     </g>
    </g>
    <g id="xtick_19">
     <g id="line2d_45">
      <g>
       <use style="stroke:#000000;stroke-width:0.5;" x="383.099754847" xlink:href="#mcf513badea" y="352.8"/>
      </g>
     </g>
     <g id="line2d_46">
      <g>
       <use style="stroke:#000000;stroke-width:0.5;" x="383.099754847" xlink:href="#m768e1b46a3" y="7.2"/>
      </g>
     </g>
    </g>
    <g id="xtick_20">
     <g id="line2d_47">
      <g>
       <use style="stroke:#000000;stroke-width:0.5;" x="430.099918282" xlink:href="#mcf513badea" y="352.8"/>
      </g>
     </g>
     <g id="line2d_48">
      <g>
       <use style="stroke:#000000;stroke-width:0.5;" x="430.099918282" xlink:href="#m768e1b46a3" y="7.2"/>
      </g>
     </g>
    </g>
    <g id="text_10">
     <!-- log10 of Df -->
     <defs>
      <path id="BitstreamVeraSans-Roman-20"/>
      <path d="M 30.609375 48.390625 
Q 23.390625 48.390625 19.1875 42.75 
Q 14.984375 37.109375 14.984375 27.296875 
Q 14.984375 17.484375 19.15625 11.84375 
Q 23.34375 6.203125 30.609375 6.203125 
Q 37.796875 6.203125 41.984375 11.859375 
Q 46.1875 17.53125 46.1875 27.296875 
Q 46.1875 37.015625 41.984375 42.703125 
Q 37.796875 48.390625 30.609375 48.390625 
M 30.609375 56 
Q 42.328125 56 49.015625 48.375 
Q 55.71875 40.765625 55.71875 27.296875 
Q 55.71875 13.875 49.015625 6.21875 
Q 42.328125 -1.421875 30.609375 -1.421875 
Q 18.84375 -1.421875 12.171875 6.21875 
Q 5.515625 13.875 5.515625 27.296875 
Q 5.515625 40.765625 12.171875 48.375 
Q 18.84375 56 30.609375 56 
" id="BitstreamVeraSans-Roman-6f"/>
      <path d="M 9.421875 75.984375 
L 18.40625 75.984375 
L 18.40625 0 
L 9.421875 0 
z
" id="BitstreamVeraSans-Roman-6c"/>
      <path d="M 19.671875 64.796875 
L 19.671875 8.109375 
L 31.59375 8.109375 
Q 46.6875 8.109375 53.6875 14.9375 
Q 60.6875 21.78125 60.6875 36.53125 
Q 60.6875 51.171875 53.6875 57.984375 
Q 46.6875 64.796875 31.59375 64.796875 
z
M 9.8125 72.90625 
L 30.078125 72.90625 
Q 51.265625 72.90625 61.171875 64.09375 
Q 71.09375 55.28125 71.09375 36.53125 
Q 71.09375 17.671875 61.125 8.828125 
Q 51.171875 0 30.078125 0 
L 9.8125 0 
z
" id="BitstreamVeraSans-Roman-44"/>
      <path d="M 45.40625 27.984375 
Q 45.40625 37.75 41.375 43.109375 
Q 37.359375 48.484375 30.078125 48.484375 
Q 22.859375 48.484375 18.828125 43.109375 
Q 14.796875 37.75 14.796875 27.984375 
Q 14.796875 18.265625 18.828125 12.890625 
Q 22.859375 7.515625 30.078125 7.515625 
Q 37.359375 7.515625 41.375 12.890625 
Q 45.40625 18.265625 45.40625 27.984375 
M 54.390625 6.78125 
Q 54.390625 -7.171875 48.1875 -13.984375 
Q 42 -20.796875 29.203125 -20.796875 
Q 24.46875 -20.796875 20.265625 -20.09375 
Q 16.0625 -19.390625 12.109375 -17.921875 
L 12.109375 -9.1875 
Q 16.0625 -11.328125 19.921875 -12.34375 
Q 23.78125 -13.375 27.78125 -13.375 
Q 36.625 -13.375 41.015625 -8.765625 
Q 45.40625 -4.15625 45.40625 5.171875 
L 45.40625 9.625 
Q 42.625 4.78125 38.28125 2.390625 
Q 33.9375 0 27.875 0 
Q 17.828125 0 11.671875 7.65625 
Q 5.515625 15.328125 5.515625 27.984375 
Q 5.515625 40.671875 11.671875 48.328125 
Q 17.828125 56 27.875 56 
Q 33.9375 56 38.28125 53.609375 
Q 42.625 51.21875 45.40625 46.390625 
L 45.40625 54.6875 
L 54.390625 54.6875 
z
" id="BitstreamVeraSans-Roman-67"/>
      <path d="M 37.109375 75.984375 
L 37.109375 68.5 
L 28.515625 68.5 
Q 23.6875 68.5 21.796875 66.546875 
Q 19.921875 64.59375 19.921875 59.515625 
L 19.921875 54.6875 
L 34.71875 54.6875 
L 34.71875 47.703125 
L 19.921875 47.703125 
L 19.921875 0 
L 10.890625 0 
L 10.890625 47.703125 
L 2.296875 47.703125 
L 2.296875 54.6875 
L 10.890625 54.6875 
L 10.890625 58.5 
Q 10.890625 67.625 15.140625 71.796875 
Q 19.390625 75.984375 28.609375 75.984375 
z
" id="BitstreamVeraSans-Roman-66"/>
     </defs>
     <g transform="translate(175.2140625 396.353125)scale(0.2 -0.2)">
      <use xlink:href="#BitstreamVeraSans-Roman-6c"/>
      <use x="27.783203125" xlink:href="#BitstreamVeraSans-Roman-6f"/>
      <use x="88.96484375" xlink:href="#BitstreamVeraSans-Roman-67"/>
      <use x="152.44140625" xlink:href="#BitstreamVeraSans-Roman-31"/>
      <use x="216.064453125" xlink:href="#BitstreamVeraSans-Roman-30"/>
      <use x="279.6875" xlink:href="#BitstreamVeraSans-Roman-20"/>
      <use x="311.474609375" xlink:href="#BitstreamVeraSans-Roman-6f"/>
      <use x="372.65625" xlink:href="#BitstreamVeraSans-Roman-66"/>
      <use x="407.861328125" xlink:href="#BitstreamVeraSans-Roman-20"/>
      <use x="439.6484375" xlink:href="#BitstreamVeraSans-Roman-44"/>
      <use x="516.650390625" xlink:href="#BitstreamVeraSans-Roman-66"/>
     </g>
    </g>
   </g>
   <g id="matplotlib.axis_2">
    <g id="ytick_1">
     <g id="line2d_49">
      <path clip-path="url(#pba251bfdcb)" d="M 7.2 352.8 
L 453.6 352.8 
" style="fill:none;stroke:#000000;stroke-dasharray:1.000000,3.000000;stroke-dashoffset:0.0;stroke-width:0.5;"/>
     </g>
     <g id="line2d_50">
      <defs>
       <path d="M 0 0 
L 4 0 
" id="mbf728d8e4b" style="stroke:#000000;stroke-width:0.5;"/>
      </defs>
      <g>
       <use style="stroke:#000000;stroke-width:0.5;" x="7.2" xlink:href="#mbf728d8e4b" y="352.8"/>
      </g>
     </g>
     <g id="line2d_51">
      <defs>
       <path d="M 0 0 
L -4 0 
" id="m697c4b7d05" style="stroke:#000000;stroke-width:0.5;"/>
      </defs>
      <g>
       <use style="stroke:#000000;stroke-width:0.5;" x="453.6" xlink:href="#m697c4b7d05" y="352.8"/>
      </g>
     </g>
    </g>
    <g id="ytick_2">
     <g id="line2d_52">
      <path clip-path="url(#pba251bfdcb)" d="M 7.2 284.364356 
L 453.6 284.364356 
" style="fill:none;stroke:#000000;stroke-dasharray:1.000000,3.000000;stroke-dashoffset:0.0;stroke-width:0.5;"/>
     </g>
     <g id="line2d_53">
      <g>
       <use style="stroke:#000000;stroke-width:0.5;" x="7.2" xlink:href="#mbf728d8e4b" y="284.364356436"/>
      </g>
     </g>
     <g id="line2d_54">
      <g>
       <use style="stroke:#000000;stroke-width:0.5;" x="453.6" xlink:href="#m697c4b7d05" y="284.364356436"/>
      </g>
     </g>
    </g>
    <g id="ytick_3">
     <g id="line2d_55">
      <path clip-path="url(#pba251bfdcb)" d="M 7.2 215.928713 
L 453.6 215.928713 
" style="fill:none;stroke:#000000;stroke-dasharray:1.000000,3.000000;stroke-dashoffset:0.0;stroke-width:0.5;"/>
     </g>
     <g id="line2d_56">
      <g>
       <use style="stroke:#000000;stroke-width:0.5;" x="7.2" xlink:href="#mbf728d8e4b" y="215.928712871"/>
      </g>
     </g>
     <g id="line2d_57">
      <g>
       <use style="stroke:#000000;stroke-width:0.5;" x="453.6" xlink:href="#m697c4b7d05" y="215.928712871"/>
      </g>
     </g>
    </g>
    <g id="ytick_4">
     <g id="line2d_58">
      <path clip-path="url(#pba251bfdcb)" d="M 7.2 147.493069 
L 453.6 147.493069 
" style="fill:none;stroke:#000000;stroke-dasharray:1.000000,3.000000;stroke-dashoffset:0.0;stroke-width:0.5;"/>
     </g>
     <g id="line2d_59">
      <g>
       <use style="stroke:#000000;stroke-width:0.5;" x="7.2" xlink:href="#mbf728d8e4b" y="147.493069307"/>
      </g>
     </g>
     <g id="line2d_60">
      <g>
       <use style="stroke:#000000;stroke-width:0.5;" x="453.6" xlink:href="#m697c4b7d05" y="147.493069307"/>
      </g>
     </g>
    </g>
    <g id="ytick_5">
     <g id="line2d_61">
      <path clip-path="url(#pba251bfdcb)" d="M 7.2 79.057426 
L 453.6 79.057426 
" style="fill:none;stroke:#000000;stroke-dasharray:1.000000,3.000000;stroke-dashoffset:0.0;stroke-width:0.5;"/>
     </g>
     <g id="line2d_62">
      <g>
       <use style="stroke:#000000;stroke-width:0.5;" x="7.2" xlink:href="#mbf728d8e4b" y="79.0574257426"/>
      </g>
     </g>
     <g id="line2d_63">
      <g>
       <use style="stroke:#000000;stroke-width:0.5;" x="453.6" xlink:href="#m697c4b7d05" y="79.0574257426"/>
      </g>
     </g>
    </g>
    <g id="ytick_6">
     <g id="line2d_64">
      <path clip-path="url(#pba251bfdcb)" d="M 7.2 10.621782 
L 453.6 10.621782 
" style="fill:none;stroke:#000000;stroke-dasharray:1.000000,3.000000;stroke-dashoffset:0.0;stroke-width:0.5;"/>
     </g>
     <g id="line2d_65">
      <g>
       <use style="stroke:#000000;stroke-width:0.5;" x="7.2" xlink:href="#mbf728d8e4b" y="10.6217821782"/>
      </g>
     </g>
     <g id="line2d_66">
      <g>
       <use style="stroke:#000000;stroke-width:0.5;" x="453.6" xlink:href="#m697c4b7d05" y="10.6217821782"/>
      </g>
     </g>
    </g>
   </g>
   <g id="text_11">
    <!-- {f1-f5}, 5-D -->
    <defs>
     <path d="M 12.5 -9.28125 
L 15.921875 -9.28125 
Q 22.75 -9.28125 24.828125 -7.171875 
Q 26.90625 -5.078125 26.90625 1.90625 
L 26.90625 14.015625 
Q 26.90625 21.625 29.09375 25.09375 
Q 31.296875 28.5625 36.71875 29.890625 
Q 31.296875 31.109375 29.09375 34.5625 
Q 26.90625 38.03125 26.90625 45.703125 
L 26.90625 57.8125 
Q 26.90625 64.75 24.828125 66.875 
Q 22.75 69 15.921875 69 
L 12.5 69 
L 12.5 75.984375 
L 15.578125 75.984375 
Q 27.734375 75.984375 31.8125 72.390625 
Q 35.890625 68.796875 35.890625 58.015625 
L 35.890625 46.296875 
Q 35.890625 39.015625 38.515625 36.203125 
Q 41.15625 33.40625 48.09375 33.40625 
L 51.125 33.40625 
L 51.125 26.421875 
L 48.09375 26.421875 
Q 41.15625 26.421875 38.515625 23.578125 
Q 35.890625 20.75 35.890625 13.375 
L 35.890625 1.703125 
Q 35.890625 -9.078125 31.8125 -12.6875 
Q 27.734375 -16.3125 15.578125 -16.3125 
L 12.5 -16.3125 
z
" id="BitstreamVeraSans-Roman-7d"/>
     <path d="M 51.125 -9.28125 
L 51.125 -16.3125 
L 48.09375 -16.3125 
Q 35.9375 -16.3125 31.8125 -12.6875 
Q 27.6875 -9.078125 27.6875 1.703125 
L 27.6875 13.375 
Q 27.6875 20.75 25.046875 23.578125 
Q 22.40625 26.421875 15.484375 26.421875 
L 12.5 26.421875 
L 12.5 33.40625 
L 15.484375 33.40625 
Q 22.46875 33.40625 25.078125 36.203125 
Q 27.6875 39.015625 27.6875 46.296875 
L 27.6875 58.015625 
Q 27.6875 68.796875 31.8125 72.390625 
Q 35.9375 75.984375 48.09375 75.984375 
L 51.125 75.984375 
L 51.125 69 
L 47.796875 69 
Q 40.921875 69 38.8125 66.84375 
Q 36.71875 64.703125 36.71875 57.8125 
L 36.71875 45.703125 
Q 36.71875 38.03125 34.5 34.5625 
Q 32.28125 31.109375 26.90625 29.890625 
Q 32.328125 28.5625 34.515625 25.09375 
Q 36.71875 21.625 36.71875 14.015625 
L 36.71875 1.90625 
Q 36.71875 -4.984375 38.8125 -7.125 
Q 40.921875 -9.28125 47.796875 -9.28125 
z
" id="BitstreamVeraSans-Roman-7b"/>
     <path d="M 11.71875 12.40625 
L 22.015625 12.40625 
L 22.015625 4 
L 14.015625 -11.625 
L 7.71875 -11.625 
L 11.71875 4 
z
" id="BitstreamVeraSans-Roman-2c"/>
     <path d="M 10.796875 72.90625 
L 49.515625 72.90625 
L 49.515625 64.59375 
L 19.828125 64.59375 
L 19.828125 46.734375 
Q 21.96875 47.46875 24.109375 47.828125 
Q 26.265625 48.1875 28.421875 48.1875 
Q 40.625 48.1875 47.75 41.5 
Q 54.890625 34.8125 54.890625 23.390625 
Q 54.890625 11.625 47.5625 5.09375 
Q 40.234375 -1.421875 26.90625 -1.421875 
Q 22.3125 -1.421875 17.546875 -0.640625 
Q 12.796875 0.140625 7.71875 1.703125 
L 7.71875 11.625 
Q 12.109375 9.234375 16.796875 8.0625 
Q 21.484375 6.890625 26.703125 6.890625 
Q 35.15625 6.890625 40.078125 11.328125 
Q 45.015625 15.765625 45.015625 23.390625 
Q 45.015625 31 40.078125 35.4375 
Q 35.15625 39.890625 26.703125 39.890625 
Q 22.75 39.890625 18.8125 39.015625 
Q 14.890625 38.140625 10.796875 36.28125 
z
" id="BitstreamVeraSans-Roman-35"/>
    </defs>
    <g transform="translate(324.422 345.888)scale(0.2 -0.2)">
     <use xlink:href="#BitstreamVeraSans-Roman-7b"/>
     <use x="63.623046875" xlink:href="#BitstreamVeraSans-Roman-66"/>
     <use x="98.828125" xlink:href="#BitstreamVeraSans-Roman-31"/>
     <use x="162.451171875" xlink:href="#BitstreamVeraSans-Roman-2d"/>
     <use x="198.53515625" xlink:href="#BitstreamVeraSans-Roman-66"/>
     <use x="233.740234375" xlink:href="#BitstreamVeraSans-Roman-35"/>
     <use x="297.36328125" xlink:href="#BitstreamVeraSans-Roman-7d"/>
     <use x="360.986328125" xlink:href="#BitstreamVeraSans-Roman-2c"/>
     <use x="392.7734375" xlink:href="#BitstreamVeraSans-Roman-20"/>
     <use x="424.560546875" xlink:href="#BitstreamVeraSans-Roman-35"/>
     <use x="488.18359375" xlink:href="#BitstreamVeraSans-Roman-2d"/>
     <use x="524.267578125" xlink:href="#BitstreamVeraSans-Roman-44"/>
    </g>
   </g>
   <g id="text_12">
    <!-- 0.0.0 -->
    <defs>
     <path d="M 10.6875 12.40625 
L 21 12.40625 
L 21 0 
L 10.6875 0 
z
" id="BitstreamVeraSans-Roman-2e"/>
    </defs>
    <g style="fill:#808080;" transform="translate(217.678125 347.2643125)scale(0.1 -0.1)">
     <use xlink:href="#BitstreamVeraSans-Roman-30"/>
     <use x="63.623046875" xlink:href="#BitstreamVeraSans-Roman-2e"/>
     <use x="95.41015625" xlink:href="#BitstreamVeraSans-Roman-30"/>
     <use x="159.033203125" xlink:href="#BitstreamVeraSans-Roman-2e"/>
     <use x="190.8203125" xlink:href="#BitstreamVeraSans-Roman-30"/>
    </g>
   </g>
  </g>
 </g>
 <defs>
  <clipPath id="pba251bfdcb">
   <rect height="345.6" width="446.4" x="7.2" y="7.2"/>
  </clipPath>
 </defs>
</svg>
