<?xml version="1.0" encoding="utf-8" standalone="no"?>
<!DOCTYPE svg PUBLIC "-//W3C//DTD SVG 1.1//EN"
  "http://www.w3.org/Graphics/SVG/1.1/DTD/svg11.dtd">
<!-- Created with matplotlib (http://matplotlib.org/) -->
<svg height="407pt" version="1.1" viewBox="0 0 460 407" width="460pt" xmlns="http://www.w3.org/2000/svg" xmlns:xlink="http://www.w3.org/1999/xlink">
 <defs>
  <style type="text/css">
*{stroke-linecap:butt;stroke-linejoin:round;stroke-miterlimit:100000;}
  </style>
 </defs>
 <g id="figure_1">
  <g id="patch_1">
   <path d="M 0 407.7125 
L 460.8 407.7125 
L 460.8 0 
L 0 0 
z
" style="fill:#ffffff;"/>
  </g>
  <g id="axes_1">
   <g id="patch_2">
    <path d="M 7.2 352.8 
L 453.6 352.8 
L 453.6 7.2 
L 7.2 7.2 
z
" style="fill:#ffffff;"/>
   </g>
   <g id="line2d_1">
    <path clip-path="url(#pf6d4a9679b)" d="M 7.098447 352.8 
L 7.098447 351.849505 
L 7.098447 351.849505 
L 7.098447 351.849505 
L 7.098447 350.89901 
L 7.098447 350.89901 
L 7.098447 350.89901 
L 7.098447 349.948515 
L 7.098447 349.948515 
L 7.098447 349.948515 
L 7.098447 348.99802 
L 7.098447 348.99802 
L 7.098447 348.99802 
L 7.098447 348.047525 
L 7.098447 348.047525 
L 7.098447 348.047525 
L 7.098447 347.09703 
L 7.098447 347.09703 
L 7.098447 347.09703 
L 7.098447 346.146535 
L 7.098447 346.146535 
L 7.098447 346.146535 
L 7.098447 345.19604 
L 7.098447 345.19604 
L 7.098447 345.19604 
L 7.098447 344.245545 
L 7.098447 344.245545 
L 7.098447 344.245545 
L 7.098447 343.29505 
L 7.098447 343.29505 
L 7.098447 343.29505 
L 7.098447 342.344554 
L 7.098447 342.344554 
L 7.098447 342.344554 
L 7.098447 341.394059 
L 7.098447 341.394059 
L 7.098447 341.394059 
L 7.098447 340.443564 
L 7.098447 340.443564 
L 7.098447 340.443564 
L 7.098447 339.493069 
L 7.098447 339.493069 
L 7.098447 339.493069 
L 7.098447 338.542574 
L 159.801326 338.542574 
L 159.801326 337.592079 
L 162.952601 337.592079 
L 162.952601 336.641584 
L 166.193521 336.641584 
L 166.193521 335.691089 
L 166.852354 335.691089 
L 166.852354 334.740594 
L 169.337914 334.740594 
L 169.384127 332.839604 
L 170.32735 332.839604 
L 170.380271 330.938614 
L 172.846159 330.938614 
L 172.846159 329.988119 
L 174.225441 329.988119 
L 174.225441 329.037624 
L 175.938525 329.037624 
L 175.938525 328.087129 
L 176.222091 328.087129 
L 176.222091 327.136634 
L 176.466983 327.136634 
L 176.466983 326.186139 
L 176.650965 326.186139 
L 176.650965 325.235644 
L 184.67032 325.235644 
L 184.692371 323.334653 
L 185.388546 323.334653 
L 185.388546 322.384158 
L 186.630201 322.384158 
L 186.630201 321.433663 
L 187.104668 321.433663 
L 187.104668 320.483168 
L 188.37664 320.483168 
L 188.37664 319.532673 
L 188.546586 319.532673 
L 188.546586 318.582178 
L 188.878855 318.582178 
L 188.878855 317.631683 
L 189.143137 317.631683 
L 189.143137 316.681188 
L 193.257398 316.681188 
L 193.257398 315.730693 
L 193.589563 315.730693 
L 193.589563 314.780198 
L 194.031461 314.780198 
L 194.031461 313.829703 
L 194.235367 313.829703 
L 194.235367 312.879208 
L 195.334041 312.879208 
L 195.365948 310.978218 
L 195.773665 310.978218 
L 195.773665 310.027723 
L 195.919203 310.027723 
L 195.919203 309.077228 
L 196.398733 309.077228 
L 196.398733 308.126733 
L 196.971652 308.126733 
L 196.971652 307.176238 
L 197.239279 307.176238 
L 197.270925 305.275248 
L 197.887025 305.275248 
L 197.887025 304.324752 
L 198.125032 304.324752 
L 198.125032 303.374257 
L 198.526807 303.374257 
L 198.526807 302.423762 
L 199.344316 302.423762 
L 199.344316 301.473267 
L 199.552812 301.473267 
L 199.552812 300.522772 
L 199.912962 300.522772 
L 199.912962 299.572277 
L 200.058539 299.572277 
L 200.058539 298.621782 
L 200.76507 298.621782 
L 200.76507 297.671287 
L 200.906448 297.671287 
L 200.906448 296.720792 
L 201.192041 296.720792 
L 201.192041 295.770297 
L 201.550777 295.770297 
L 201.550777 294.819802 
L 201.702744 294.819802 
L 201.702744 293.869307 
L 201.818616 293.869307 
L 201.84279 291.968317 
L 202.096218 291.968317 
L 202.109852 290.067327 
L 202.387359 290.067327 
L 202.387359 289.116832 
L 202.553487 289.116832 
L 202.553487 288.166337 
L 202.78577 288.166337 
L 202.854554 286.265347 
L 202.907389 286.265347 
L 202.943398 284.364356 
L 203.050107 284.364356 
L 203.11058 282.463366 
L 203.256802 282.463366 
L 203.256802 281.512871 
L 203.559975 281.512871 
L 203.581063 279.611881 
L 203.798735 279.611881 
L 203.798735 278.661386 
L 203.943758 278.661386 
L 203.943758 277.710891 
L 204.136104 277.710891 
L 204.239454 274.859406 
L 204.43359 274.859406 
L 204.43359 273.908911 
L 204.660009 273.908911 
L 204.750842 271.057426 
L 204.782777 271.057426 
L 204.782777 270.106931 
L 205.053106 270.106931 
L 205.159263 268.205941 
L 205.280482 268.205941 
L 205.280482 267.255446 
L 205.703595 267.255446 
L 205.703595 266.30495 
L 205.841967 266.30495 
L 205.95117 264.40396 
L 206.081786 264.40396 
L 206.192392 261.552475 
L 206.198348 261.552475 
L 206.198348 260.60198 
L 206.388631 260.60198 
L 206.494788 258.70099 
L 206.726515 258.70099 
L 206.726515 257.750495 
L 206.873298 257.750495 
L 206.873298 256.8 
L 207.123928 256.8 
L 207.123928 255.849505 
L 207.368975 255.849505 
L 207.368975 254.89901 
L 207.49842 254.89901 
L 207.593107 252.047525 
L 207.898765 252.047525 
L 207.919981 249.19604 
L 208.339568 249.19604 
L 208.388216 246.344554 
L 208.466913 246.344554 
L 208.466913 245.394059 
L 208.915756 245.394059 
L 208.915756 244.443564 
L 209.048684 244.443564 
L 209.048684 243.493069 
L 209.659208 243.493069 
L 209.743631 240.641584 
L 209.928137 240.641584 
L 210.031758 238.740594 
L 210.051408 238.740594 
L 210.051408 237.790099 
L 210.409717 237.790099 
L 210.409717 236.839604 
L 210.52381 236.839604 
L 210.549923 234.938614 
L 210.689172 234.938614 
L 210.689172 233.988119 
L 211.200554 233.988119 
L 211.200554 233.037624 
L 211.913046 233.037624 
L 211.913046 232.087129 
L 212.505996 232.087129 
L 212.505996 231.136634 
L 213.53481 231.136634 
L 213.53481 230.186139 
L 213.947958 230.186139 
L 213.947958 229.235644 
L 214.081324 229.235644 
L 214.110253 227.334653 
L 214.323585 227.334653 
L 214.323585 226.384158 
L 214.539945 226.384158 
L 214.539945 225.433663 
L 214.861669 225.433663 
L 214.900995 223.532673 
L 215.279885 223.532673 
L 215.279885 222.582178 
L 215.539615 222.582178 
L 215.578744 219.730693 
L 215.797969 219.730693 
L 215.845108 217.829703 
L 215.992719 217.829703 
L 215.992719 216.879208 
L 216.111703 216.879208 
L 216.111703 215.928713 
L 216.337912 215.928713 
L 216.433944 214.027723 
L 217.183374 214.027723 
L 217.293712 211.176238 
L 218.50456 211.176238 
L 218.564014 209.275248 
L 218.777331 209.275248 
L 218.807503 207.374257 
L 219.008803 207.374257 
L 219.044476 205.473267 
L 219.177963 205.473267 
L 219.177963 204.522772 
L 219.455716 204.522772 
L 219.455716 203.572277 
L 219.629323 203.572277 
L 219.684746 201.671287 
L 219.778488 201.671287 
L 219.778488 200.720792 
L 220.350172 200.720792 
L 220.350172 199.770297 
L 220.510918 199.770297 
L 220.585518 197.869307 
L 220.631396 197.869307 
L 220.653806 195.968317 
L 220.876641 195.968317 
L 220.944966 194.067327 
L 220.988144 194.067327 
L 221.085324 191.215842 
L 221.11944 191.215842 
L 221.151391 189.314851 
L 221.242906 189.314851 
L 221.242906 188.364356 
L 221.49898 188.364356 
L 221.49898 187.413861 
L 221.650651 187.413861 
L 221.706623 185.512871 
L 221.81272 185.512871 
L 221.81272 184.562376 
L 222.059759 184.562376 
L 222.059759 183.611881 
L 222.203708 183.611881 
L 222.255511 181.710891 
L 222.355583 181.710891 
L 222.355583 180.760396 
L 222.61987 180.760396 
L 222.61987 179.809901 
L 222.841889 179.809901 
L 222.916986 176.958416 
L 223.013427 176.958416 
L 223.013427 176.007921 
L 223.272351 176.007921 
L 223.36893 174.106931 
L 223.447434 174.106931 
L 223.506578 172.205941 
L 223.668819 172.205941 
L 223.668819 171.255446 
L 224.183848 171.255446 
L 224.27271 168.40396 
L 224.431292 168.40396 
L 224.431292 167.453465 
L 224.620636 167.453465 
L 224.640683 165.552475 
L 224.839205 165.552475 
L 224.864412 163.651485 
L 225.013629 163.651485 
L 225.08563 161.750495 
L 225.26355 161.750495 
L 225.28986 159.849505 
L 225.487681 159.849505 
L 225.487681 158.89901 
L 225.637017 158.89901 
L 225.655801 156.99802 
L 225.827085 156.99802 
L 225.897204 155.09703 
L 226.261741 155.09703 
L 226.344819 151.29505 
L 226.462597 151.29505 
L 226.469631 149.394059 
L 226.576819 149.394059 
L 226.654122 147.493069 
L 226.841499 147.493069 
L 226.848463 145.592079 
L 226.986687 145.592079 
L 226.986687 144.641584 
L 227.25718 144.641584 
L 227.284543 142.740594 
L 227.870168 142.740594 
L 227.964751 140.839604 
L 228.046711 140.839604 
L 228.046711 139.889109 
L 228.253251 139.889109 
L 228.344644 137.037624 
L 228.517598 137.037624 
L 228.517598 136.087129 
L 228.684431 136.087129 
L 228.743419 133.235644 
L 228.847031 133.235644 
L 228.94799 131.334653 
L 229.104448 131.334653 
L 229.170887 129.433663 
L 229.243778 129.433663 
L 229.243778 128.483168 
L 229.359234 128.483168 
L 229.359234 127.532673 
L 229.499237 127.532673 
L 229.499237 126.582178 
L 229.889941 126.582178 
L 229.961242 124.681188 
L 230.112548 124.681188 
L 230.179382 122.780198 
L 230.270896 122.780198 
L 230.270896 121.829703 
L 230.452111 121.829703 
L 230.531065 119.928713 
L 230.598419 119.928713 
L 230.598419 118.978218 
L 230.928128 118.978218 
L 230.928128 118.027723 
L 231.040903 118.027723 
L 231.040903 117.077228 
L 231.223574 117.077228 
L 231.223574 116.126733 
L 231.504252 116.126733 
L 231.504252 115.176238 
L 231.629684 115.176238 
L 231.629684 114.225743 
L 231.939501 114.225743 
L 231.987305 112.324752 
L 232.254547 112.324752 
L 232.254547 111.374257 
L 232.440874 111.374257 
L 232.440874 110.423762 
L 232.739106 110.423762 
L 232.797679 108.522772 
L 233.030458 108.522772 
L 233.030458 107.572277 
L 233.165702 107.572277 
L 233.201995 105.671287 
L 233.413774 105.671287 
L 233.413774 104.720792 
L 233.688423 104.720792 
L 233.781 102.819802 
L 233.809151 102.819802 
L 233.809151 101.869307 
L 234.365644 101.869307 
L 234.365644 100.918812 
L 234.505267 100.918812 
L 234.505267 99.968317 
L 235.178827 99.968317 
L 235.178827 99.017822 
L 235.321151 99.017822 
L 235.332298 97.116832 
L 235.677341 97.116832 
L 235.727066 95.215842 
L 236.112043 95.215842 
L 236.112043 94.265347 
L 236.625807 94.265347 
L 236.625807 93.314851 
L 236.794771 93.314851 
L 236.859578 91.413861 
L 236.965749 91.413861 
L 236.965749 90.463366 
L 237.223902 90.463366 
L 237.223902 89.512871 
L 238.571743 89.512871 
L 238.571743 88.562376 
L 238.788127 88.562376 
L 238.788127 87.611881 
L 239.151991 87.611881 
L 239.151991 86.661386 
L 239.448475 86.661386 
L 239.448475 85.710891 
L 240.106163 85.710891 
L 240.106163 84.760396 
L 240.615559 84.760396 
L 240.615559 83.809901 
L 241.136509 83.809901 
L 241.136509 82.859406 
L 242.33958 82.859406 
L 242.412946 80.958416 
L 242.540737 80.958416 
L 242.540737 80.007921 
L 243.043936 80.007921 
L 243.043936 79.057426 
L 244.067884 79.057426 
L 244.067884 78.106931 
L 244.648187 78.106931 
L 244.648187 77.156436 
L 244.820974 77.156436 
L 244.820974 76.205941 
L 245.406563 76.205941 
L 245.406563 75.255446 
L 245.628259 75.255446 
L 245.645542 73.354455 
L 245.906373 73.354455 
L 245.906373 72.40396 
L 246.411407 72.40396 
L 246.411407 71.453465 
L 246.833375 71.453465 
L 246.833375 70.50297 
L 247.189064 70.50297 
L 247.189064 69.552475 
L 248.207323 69.552475 
L 248.207323 68.60198 
L 250.090492 68.60198 
L 250.090492 67.651485 
L 250.246541 67.651485 
L 250.246541 66.70099 
L 250.757373 66.70099 
L 250.757373 65.750495 
L 251.175088 65.750495 
L 251.175088 64.8 
L 252.068317 64.8 
L 252.068317 63.849505 
L 252.517036 63.849505 
L 252.517036 62.89901 
L 252.96012 62.89901 
L 252.96012 61.948515 
L 253.175201 61.948515 
L 253.175201 60.99802 
L 254.184111 60.99802 
L 254.184111 60.047525 
L 254.581658 60.047525 
L 254.581658 59.09703 
L 255.301675 59.09703 
L 255.301675 58.146535 
L 256.421934 58.146535 
L 256.421934 57.19604 
L 257.202337 57.19604 
L 257.202337 56.245545 
L 257.544251 56.245545 
L 257.544251 55.29505 
L 259.310441 55.29505 
L 259.310441 54.344554 
L 259.557026 54.344554 
L 259.557026 53.394059 
L 260.525644 53.394059 
L 260.525644 52.443564 
L 262.747065 52.443564 
L 262.747065 51.493069 
L 266.445391 51.493069 
L 266.445391 50.542574 
L 266.819834 50.542574 
L 266.819834 49.592079 
L 267.616493 49.592079 
L 267.616493 48.641584 
L 267.93006 48.641584 
L 267.93006 47.691089 
L 270.712981 47.691089 
L 270.712981 46.740594 
L 273.158218 46.740594 
L 273.158218 45.790099 
L 275.325961 45.790099 
L 275.325961 44.839604 
L 275.715588 44.839604 
L 275.715588 43.889109 
L 277.331794 43.889109 
L 277.331794 42.938614 
L 277.538952 42.938614 
L 277.538952 41.988119 
L 278.000348 41.988119 
L 278.000348 41.037624 
L 280.181715 41.037624 
L 280.181715 40.087129 
L 282.400366 40.087129 
L 282.400366 39.136634 
L 283.884403 39.136634 
L 283.884403 38.186139 
L 284.408402 38.186139 
L 284.408402 37.235644 
L 285.183843 37.235644 
L 285.183843 36.285149 
L 289.758863 36.285149 
L 289.758863 35.334653 
L 290.224155 35.334653 
L 290.224155 34.384158 
L 293.443859 34.384158 
L 293.443859 33.433663 
L 293.678293 33.433663 
L 293.729903 31.532673 
L 294.20586 31.532673 
L 294.20586 30.582178 
L 295.948237 30.582178 
L 295.948237 29.631683 
L 296.623814 29.631683 
L 296.695812 27.730693 
L 300.627878 27.730693 
L 300.627878 26.780198 
L 303.381293 26.780198 
L 303.381293 25.829703 
L 307.220902 25.829703 
L 307.25863 23.928713 
L 309.190211 23.928713 
L 309.190211 22.978218 
L 312.992159 22.978218 
L 312.992159 22.027723 
L 316.731303 22.027723 
L 316.731303 21.077228 
L 317.540284 21.077228 
L 317.540284 20.126733 
L 321.199095 20.126733 
L 321.214275 18.225743 
L 321.382345 18.225743 
L 321.382345 17.275248 
L 322.328422 17.275248 
L 322.328422 16.324752 
L 327.189105 16.324752 
L 327.189105 15.374257 
L 327.43898 15.374257 
L 327.43898 14.423762 
L 334.231 14.423762 
L 334.231 13.473267 
L 335.041876 13.473267 
L 335.041876 12.522772 
L 336.490887 12.522772 
L 336.490887 11.572277 
L 340.850444 11.572277 
L 340.850444 10.621782 
L 340.850444 10.621782 
L 453.6 10.621782 
L 453.6 10.621782 
" style="fill:none;stroke:#ff0000;stroke-linecap:square;stroke-width:3.0;"/>
   </g>
   <g id="line2d_2">
    <path clip-path="url(#pf6d4a9679b)" d="M 211.367784 352.8 
L 211.367784 351.849505 
L 214.648028 351.849505 
L 214.72846 349.948515 
L 216.031443 349.948515 
L 216.031443 348.99802 
L 218.774889 348.99802 
L 218.774889 348.047525 
L 219.335253 348.047525 
L 219.335253 347.09703 
L 219.693087 347.09703 
L 219.693087 346.146535 
L 220.041456 346.146535 
L 220.041456 345.19604 
L 220.848871 345.19604 
L 220.955851 343.29505 
L 221.301056 343.29505 
L 221.301056 342.344554 
L 221.695436 342.344554 
L 221.695436 341.394059 
L 222.404894 341.394059 
L 222.404894 340.443564 
L 222.760609 340.443564 
L 222.792598 338.542574 
L 222.954852 338.542574 
L 222.954852 337.592079 
L 224.274026 337.592079 
L 224.274026 336.641584 
L 225.098608 336.641584 
L 225.113541 334.740594 
L 225.43385 334.740594 
L 225.497416 332.839604 
L 225.625508 332.839604 
L 225.625508 331.889109 
L 225.808994 331.889109 
L 225.808994 330.938614 
L 226.655084 330.938614 
L 226.655084 329.988119 
L 226.828415 329.988119 
L 226.828415 329.037624 
L 226.978313 329.037624 
L 226.997125 327.136634 
L 227.511081 327.136634 
L 227.511081 326.186139 
L 227.868718 326.186139 
L 227.92938 324.285149 
L 227.985586 324.285149 
L 228.031835 322.384158 
L 228.241585 322.384158 
L 228.327347 320.483168 
L 228.511069 320.483168 
L 228.511069 319.532673 
L 229.193307 319.532673 
L 229.231288 317.631683 
L 229.986342 317.631683 
L 229.986342 316.681188 
L 230.393936 316.681188 
L 230.393936 315.730693 
L 230.574189 315.730693 
L 230.574189 314.780198 
L 230.866717 314.780198 
L 230.866717 313.829703 
L 231.987623 313.829703 
L 231.987623 312.879208 
L 232.330336 312.879208 
L 232.433538 310.978218 
L 232.905771 310.978218 
L 233.003943 308.126733 
L 233.285508 308.126733 
L 233.285508 307.176238 
L 233.486551 307.176238 
L 233.573822 305.275248 
L 234.111038 305.275248 
L 234.136777 303.374257 
L 234.223336 303.374257 
L 234.323086 301.473267 
L 234.63414 301.473267 
L 234.694803 299.572277 
L 234.861367 299.572277 
L 234.861367 298.621782 
L 235.061798 298.621782 
L 235.061798 297.671287 
L 235.628654 297.671287 
L 235.628654 296.720792 
L 235.928573 296.720792 
L 235.928573 295.770297 
L 236.218285 295.770297 
L 236.218285 294.819802 
L 236.464688 294.819802 
L 236.464688 293.869307 
L 236.81912 293.869307 
L 236.836435 291.968317 
L 236.935987 291.968317 
L 236.935987 291.017822 
L 237.115689 291.017822 
L 237.115689 290.067327 
L 237.297667 290.067327 
L 237.364963 287.215842 
L 237.434261 287.215842 
L 237.521605 284.364356 
L 237.676585 284.364356 
L 237.676585 283.413861 
L 238.011624 283.413861 
L 238.049448 280.562376 
L 238.166592 280.562376 
L 238.166592 279.611881 
L 238.473807 279.611881 
L 238.487595 277.710891 
L 238.696131 277.710891 
L 238.781527 275.809901 
L 239.031621 275.809901 
L 239.082065 272.007921 
L 239.197715 272.007921 
L 239.197715 271.057426 
L 239.336365 271.057426 
L 239.418907 269.156436 
L 239.841136 269.156436 
L 239.841136 268.205941 
L 240.016001 268.205941 
L 240.125484 264.40396 
L 240.195985 264.40396 
L 240.304389 262.50297 
L 240.372678 262.50297 
L 240.372678 261.552475 
L 240.52219 261.552475 
L 240.626133 259.651485 
L 240.724993 259.651485 
L 240.724993 258.70099 
L 240.898802 258.70099 
L 241.001707 256.8 
L 241.038297 256.8 
L 241.120008 253.948515 
L 241.355724 253.948515 
L 241.41797 252.047525 
L 241.53143 252.047525 
L 241.53143 251.09703 
L 241.662965 251.09703 
L 241.662965 250.146535 
L 241.908215 250.146535 
L 241.908215 249.19604 
L 242.436076 249.19604 
L 242.544308 247.29505 
L 242.712047 247.29505 
L 242.7975 244.443564 
L 242.854949 244.443564 
L 242.878271 242.542574 
L 242.973048 242.542574 
L 242.973048 241.592079 
L 243.436694 241.592079 
L 243.436694 240.641584 
L 243.568765 240.641584 
L 243.664392 238.740594 
L 243.817876 238.740594 
L 243.835056 236.839604 
L 244.160214 236.839604 
L 244.196645 233.988119 
L 244.327755 233.988119 
L 244.327755 233.037624 
L 244.477295 233.037624 
L 244.574022 229.235644 
L 245.390877 229.235644 
L 245.415651 227.334653 
L 246.013995 227.334653 
L 246.052588 225.433663 
L 246.127648 225.433663 
L 246.127648 224.483168 
L 246.443092 224.483168 
L 246.443092 223.532673 
L 246.680604 223.532673 
L 246.680604 222.582178 
L 246.815367 222.582178 
L 246.815367 221.631683 
L 247.059107 221.631683 
L 247.148857 218.780198 
L 247.469591 218.780198 
L 247.562472 216.879208 
L 247.763987 216.879208 
L 247.854205 214.027723 
L 247.992931 214.027723 
L 247.992931 213.077228 
L 248.364122 213.077228 
L 248.364122 212.126733 
L 248.89208 212.126733 
L 248.89208 211.176238 
L 249.583484 211.176238 
L 249.583484 210.225743 
L 249.845436 210.225743 
L 249.845436 209.275248 
L 250.064994 209.275248 
L 250.064994 208.324752 
L 250.364534 208.324752 
L 250.364534 207.374257 
L 251.239974 207.374257 
L 251.277669 205.473267 
L 251.480823 205.473267 
L 251.480823 204.522772 
L 251.809799 204.522772 
L 251.809799 203.572277 
L 252.944775 203.572277 
L 252.944775 202.621782 
L 253.334706 202.621782 
L 253.334706 201.671287 
L 253.582599 201.671287 
L 253.582599 200.720792 
L 253.697509 200.720792 
L 253.697509 199.770297 
L 254.393451 199.770297 
L 254.393451 198.819802 
L 254.711614 198.819802 
L 254.770936 196.918812 
L 254.895674 196.918812 
L 254.923312 195.017822 
L 255.058225 195.017822 
L 255.058225 194.067327 
L 255.396994 194.067327 
L 255.396994 193.116832 
L 255.850054 193.116832 
L 255.850054 192.166337 
L 256.102569 192.166337 
L 256.212137 189.314851 
L 256.516384 189.314851 
L 256.516384 188.364356 
L 256.836896 188.364356 
L 256.836896 187.413861 
L 257.33195 187.413861 
L 257.33195 186.463366 
L 257.528761 186.463366 
L 257.528761 185.512871 
L 257.723606 185.512871 
L 257.723606 184.562376 
L 258.250199 184.562376 
L 258.250199 183.611881 
L 258.390278 183.611881 
L 258.390278 182.661386 
L 258.706239 182.661386 
L 258.706239 181.710891 
L 258.857936 181.710891 
L 258.857936 180.760396 
L 259.26222 180.760396 
L 259.294875 178.859406 
L 259.682649 178.859406 
L 259.74411 176.958416 
L 260.040811 176.958416 
L 260.040811 176.007921 
L 260.354814 176.007921 
L 260.354814 175.057426 
L 261.198802 175.057426 
L 261.198802 174.106931 
L 262.324537 174.106931 
L 262.324537 173.156436 
L 262.782767 173.156436 
L 262.88891 171.255446 
L 263.025892 171.255446 
L 263.025892 170.30495 
L 263.141465 170.30495 
L 263.141465 169.354455 
L 263.33153 169.354455 
L 263.429903 167.453465 
L 264.04436 167.453465 
L 264.078331 165.552475 
L 264.670751 165.552475 
L 264.670751 164.60198 
L 265.023515 164.60198 
L 265.023515 163.651485 
L 265.601933 163.651485 
L 265.601933 162.70099 
L 266.067839 162.70099 
L 266.067839 161.750495 
L 266.284802 161.750495 
L 266.284802 160.8 
L 266.47064 160.8 
L 266.47064 159.849505 
L 266.701283 159.849505 
L 266.798901 156.99802 
L 267.092989 156.99802 
L 267.092989 156.047525 
L 267.68792 156.047525 
L 267.772982 153.19604 
L 269.161853 153.19604 
L 269.161853 152.245545 
L 269.27548 152.245545 
L 269.27548 151.29505 
L 270.176477 151.29505 
L 270.176477 150.344554 
L 270.5182 150.344554 
L 270.542705 148.443564 
L 271.194682 148.443564 
L 271.194682 147.493069 
L 271.39028 147.493069 
L 271.39028 146.542574 
L 271.527857 146.542574 
L 271.527857 145.592079 
L 272.201658 145.592079 
L 272.251455 143.691089 
L 272.847667 143.691089 
L 272.847667 142.740594 
L 272.979229 142.740594 
L 272.979229 141.790099 
L 273.433158 141.790099 
L 273.433158 140.839604 
L 273.8264 140.839604 
L 273.867416 138.938614 
L 274.625722 138.938614 
L 274.625722 137.988119 
L 274.962114 137.988119 
L 274.962114 137.037624 
L 277.525279 137.037624 
L 277.525279 136.087129 
L 277.973308 136.087129 
L 277.973308 135.136634 
L 279.120755 135.136634 
L 279.120755 134.186139 
L 279.8891 134.186139 
L 279.8891 133.235644 
L 280.144363 133.235644 
L 280.144363 132.285149 
L 281.249441 132.285149 
L 281.249441 131.334653 
L 283.057958 131.334653 
L 283.057958 130.384158 
L 283.75117 130.384158 
L 283.75117 129.433663 
L 287.722258 129.433663 
L 287.802293 127.532673 
L 288.850081 127.532673 
L 288.900763 125.631683 
L 292.293278 125.631683 
L 292.293278 124.681188 
L 292.802147 124.681188 
L 292.826106 122.780198 
L 294.014462 122.780198 
L 294.014462 121.829703 
L 298.952198 121.829703 
L 298.952198 120.879208 
L 299.235891 120.879208 
L 299.235891 119.928713 
L 300.163973 119.928713 
L 300.163973 118.978218 
L 300.442595 118.978218 
L 300.442595 118.027723 
L 302.637561 118.027723 
L 302.637561 117.077228 
L 303.367361 117.077228 
L 303.367361 116.126733 
L 303.556338 116.126733 
L 303.556338 115.176238 
L 304.538792 115.176238 
L 304.538792 114.225743 
L 305.025994 114.225743 
L 305.123718 112.324752 
L 305.274597 112.324752 
L 305.346603 110.423762 
L 305.914704 110.423762 
L 305.991624 108.522772 
L 306.125394 108.522772 
L 306.125394 107.572277 
L 306.429333 107.572277 
L 306.429333 106.621782 
L 307.981804 106.621782 
L 307.981804 105.671287 
L 308.273038 105.671287 
L 308.273038 104.720792 
L 308.775667 104.720792 
L 308.775667 103.770297 
L 309.311004 103.770297 
L 309.311004 102.819802 
L 310.753919 102.819802 
L 310.753919 101.869307 
L 312.620216 101.869307 
L 312.664592 99.968317 
L 313.807826 99.968317 
L 313.807826 99.017822 
L 313.97699 99.017822 
L 313.97699 98.067327 
L 314.228103 98.067327 
L 314.228103 97.116832 
L 315.685418 97.116832 
L 315.685418 96.166337 
L 316.068182 96.166337 
L 316.068182 95.215842 
L 317.24466 95.215842 
L 317.338523 93.314851 
L 317.615031 93.314851 
L 317.615031 92.364356 
L 318.007706 92.364356 
L 318.007706 91.413861 
L 319.269621 91.413861 
L 319.349262 88.562376 
L 319.894056 88.562376 
L 319.995515 86.661386 
L 321.243716 86.661386 
L 321.243716 85.710891 
L 321.901233 85.710891 
L 321.901233 84.760396 
L 322.900876 84.760396 
L 322.900876 83.809901 
L 324.136131 83.809901 
L 324.136131 82.859406 
L 324.758956 82.859406 
L 324.758956 81.908911 
L 326.005199 81.908911 
L 326.087685 80.007921 
L 326.556168 80.007921 
L 326.556168 79.057426 
L 326.752224 79.057426 
L 326.752224 78.106931 
L 327.787054 78.106931 
L 327.893104 76.205941 
L 328.228498 76.205941 
L 328.228498 75.255446 
L 328.460994 75.255446 
L 328.460994 74.30495 
L 328.615164 74.30495 
L 328.615164 73.354455 
L 328.77785 73.354455 
L 328.77785 72.40396 
L 329.398504 72.40396 
L 329.398504 71.453465 
L 330.525504 71.453465 
L 330.525504 70.50297 
L 330.807155 70.50297 
L 330.807155 69.552475 
L 331.12233 69.552475 
L 331.12233 68.60198 
L 333.804134 68.60198 
L 333.873786 66.70099 
L 333.962288 66.70099 
L 333.962288 65.750495 
L 334.718215 65.750495 
L 334.807786 62.89901 
L 335.376397 62.89901 
L 335.376397 61.948515 
L 336.187518 61.948515 
L 336.187518 60.99802 
L 336.441867 60.99802 
L 336.441867 60.047525 
L 339.924707 60.047525 
L 339.924707 59.09703 
L 341.429723 59.09703 
L 341.429723 58.146535 
L 342.983575 58.146535 
L 342.983575 57.19604 
L 343.45025 57.19604 
L 343.45025 56.245545 
L 344.19718 56.245545 
L 344.19718 55.29505 
L 344.745106 55.29505 
L 344.847156 53.394059 
L 345.25432 53.394059 
L 345.25432 52.443564 
L 345.899316 52.443564 
L 345.899316 51.493069 
L 347.17995 51.493069 
L 347.17995 50.542574 
L 347.491614 50.542574 
L 347.491614 49.592079 
L 347.913903 49.592079 
L 347.913903 48.641584 
L 348.860233 48.641584 
L 348.860233 47.691089 
L 350.842015 47.691089 
L 350.842015 46.740594 
L 351.875254 46.740594 
L 351.875254 45.790099 
L 352.54103 45.790099 
L 352.54103 44.839604 
L 354.549049 44.839604 
L 354.549049 43.889109 
L 355.042528 43.889109 
L 355.042528 42.938614 
L 356.580136 42.938614 
L 356.580136 41.988119 
L 357.944472 41.988119 
L 357.944472 41.037624 
L 360.320241 41.037624 
L 360.320241 40.087129 
L 361.85244 40.087129 
L 361.85244 39.136634 
L 363.278547 39.136634 
L 363.278547 38.186139 
L 363.569188 38.186139 
L 363.569188 37.235644 
L 364.402958 37.235644 
L 364.402958 36.285149 
L 367.746867 36.285149 
L 367.746867 35.334653 
L 368.412964 35.334653 
L 368.412964 34.384158 
L 368.543064 34.384158 
L 368.543064 33.433663 
L 368.94179 33.433663 
L 368.94179 32.483168 
L 369.270725 32.483168 
L 369.37338 30.582178 
L 370.249115 30.582178 
L 370.249115 29.631683 
L 371.46982 29.631683 
L 371.46982 28.681188 
L 375.619117 28.681188 
L 375.619117 27.730693 
L 376.375495 27.730693 
L 376.375495 26.780198 
L 376.851837 26.780198 
L 376.851837 25.829703 
L 379.251613 25.829703 
L 379.251613 24.879208 
L 379.445889 24.879208 
L 379.537096 22.978218 
L 381.753836 22.978218 
L 381.753836 22.027723 
L 382.412768 22.027723 
L 382.412768 21.077228 
L 386.151713 21.077228 
L 386.151713 20.126733 
L 386.47401 20.126733 
L 386.47401 19.176238 
L 387.058348 19.176238 
L 387.058348 18.225743 
L 387.785716 18.225743 
L 387.785716 17.275248 
L 390.248688 17.275248 
L 390.248688 16.324752 
L 392.76813 16.324752 
L 392.76813 15.374257 
L 393.52349 15.374257 
L 393.52349 14.423762 
L 393.65075 14.423762 
L 393.65075 13.473267 
L 396.98765 13.473267 
L 396.98765 12.522772 
L 430.174326 12.522772 
L 430.174326 11.572277 
L 436.623079 11.572277 
L 436.623079 10.621782 
L 436.623079 10.621782 
L 453.6 10.621782 
L 453.6 10.621782 
" style="fill:none;stroke:#00bfbf;stroke-linecap:square;"/>
   </g>
   <g id="line2d_3">
    <path clip-path="url(#pf6d4a9679b)" d="M 211.367784 352.8 
L 211.367784 351.849505 
L 213.418282 351.849505 
L 213.418282 350.89901 
L 214.435355 350.89901 
L 214.435355 349.948515 
L 214.648028 349.948515 
L 214.72846 348.047525 
L 215.18707 348.047525 
L 215.18707 347.09703 
L 215.81262 347.09703 
L 215.81262 346.146535 
L 216.031443 346.146535 
L 216.131319 344.245545 
L 218.191537 344.245545 
L 218.191537 343.29505 
L 218.4115 343.29505 
L 218.485693 341.394059 
L 218.774889 341.394059 
L 218.774889 340.443564 
L 219.032811 340.443564 
L 219.032811 339.493069 
L 219.174556 339.493069 
L 219.240525 337.592079 
L 219.335253 337.592079 
L 219.335253 336.641584 
L 220.041456 336.641584 
L 220.041456 335.691089 
L 220.55206 335.691089 
L 220.55206 334.740594 
L 220.717872 334.740594 
L 220.717872 333.790099 
L 220.848871 333.790099 
L 220.955851 331.889109 
L 221.301056 331.889109 
L 221.301056 330.938614 
L 221.658375 330.938614 
L 221.695436 329.037624 
L 222.041766 329.037624 
L 222.10724 327.136634 
L 222.206182 327.136634 
L 222.206182 326.186139 
L 222.501919 326.186139 
L 222.501919 325.235644 
L 222.719923 325.235644 
L 222.719923 324.285149 
L 222.954852 324.285149 
L 222.954852 323.334653 
L 223.48324 323.334653 
L 223.48324 322.384158 
L 223.711219 322.384158 
L 223.711219 321.433663 
L 223.975428 321.433663 
L 223.975428 320.483168 
L 224.274026 320.483168 
L 224.274026 319.532673 
L 224.646605 319.532673 
L 224.722519 317.631683 
L 225.276653 317.631683 
L 225.276653 316.681188 
L 225.43385 316.681188 
L 225.497416 314.780198 
L 225.679934 314.780198 
L 225.679934 313.829703 
L 225.808994 313.829703 
L 225.808994 312.879208 
L 226.396983 312.879208 
L 226.396983 311.928713 
L 226.655084 311.928713 
L 226.655084 310.978218 
L 226.978313 310.978218 
L 226.997125 309.077228 
L 227.123752 309.077228 
L 227.123752 308.126733 
L 227.317777 308.126733 
L 227.317777 307.176238 
L 227.511081 307.176238 
L 227.516191 305.275248 
L 227.985586 305.275248 
L 227.985586 304.324752 
L 228.241585 304.324752 
L 228.241585 303.374257 
L 228.511069 303.374257 
L 228.511069 302.423762 
L 228.686896 302.423762 
L 228.686896 301.473267 
L 229.231288 301.473267 
L 229.231288 300.522772 
L 229.388691 300.522772 
L 229.388691 299.572277 
L 230.159255 299.572277 
L 230.219045 296.720792 
L 230.393936 296.720792 
L 230.436121 294.819802 
L 230.574189 294.819802 
L 230.574189 293.869307 
L 230.84311 293.869307 
L 230.866717 291.968317 
L 231.780366 291.968317 
L 231.816775 290.067327 
L 231.96067 290.067327 
L 231.96067 289.116832 
L 232.330336 289.116832 
L 232.433538 287.215842 
L 232.639025 287.215842 
L 232.639025 286.265347 
L 232.890317 286.265347 
L 232.950606 284.364356 
L 233.285508 284.364356 
L 233.316326 282.463366 
L 233.470383 282.463366 
L 233.573822 278.661386 
L 233.669179 278.661386 
L 233.688085 276.760396 
L 233.919693 276.760396 
L 233.976143 274.859406 
L 234.111038 274.859406 
L 234.136777 272.958416 
L 234.223336 272.958416 
L 234.223336 272.007921 
L 234.431221 272.007921 
L 234.431221 271.057426 
L 234.63414 271.057426 
L 234.694803 269.156436 
L 234.841648 269.156436 
L 234.861367 267.255446 
L 234.963899 267.255446 
L 234.963899 266.30495 
L 235.111583 266.30495 
L 235.111583 265.354455 
L 235.628654 265.354455 
L 235.675701 263.453465 
L 235.928573 263.453465 
L 236.017683 261.552475 
L 236.105451 261.552475 
L 236.137149 259.651485 
L 236.747769 259.651485 
L 236.81912 257.750495 
L 237.115689 257.750495 
L 237.183987 253.948515 
L 237.430301 253.948515 
L 237.434261 252.047525 
L 237.590351 252.047525 
L 237.658408 250.146535 
L 238.048244 250.146535 
L 238.049448 248.245545 
L 238.166592 248.245545 
L 238.187682 246.344554 
L 238.321276 246.344554 
L 238.321276 245.394059 
L 238.455659 245.394059 
L 238.473807 243.493069 
L 238.659598 243.493069 
L 238.659598 242.542574 
L 238.781527 242.542574 
L 238.781527 241.592079 
L 238.942255 241.592079 
L 238.942255 240.641584 
L 239.170688 240.641584 
L 239.197715 237.790099 
L 239.313994 237.790099 
L 239.418907 235.889109 
L 239.599089 235.889109 
L 239.676492 233.988119 
L 239.751765 233.988119 
L 239.751765 233.037624 
L 239.927136 233.037624 
L 240.016001 230.186139 
L 240.066655 230.186139 
L 240.139275 227.334653 
L 240.372678 227.334653 
L 240.419434 225.433663 
L 240.781111 225.433663 
L 240.882281 223.532673 
L 240.898802 223.532673 
L 241.001707 220.681188 
L 241.497727 220.681188 
L 241.598861 218.780198 
L 241.662965 218.780198 
L 241.662965 217.829703 
L 242.079202 217.829703 
L 242.165863 215.928713 
L 242.558377 215.928713 
L 242.558377 214.978218 
L 242.763553 214.978218 
L 242.763553 214.027723 
L 242.973048 214.027723 
L 242.973048 213.077228 
L 243.33499 213.077228 
L 243.42274 211.176238 
L 243.568765 211.176238 
L 243.579219 209.275248 
L 243.832519 209.275248 
L 243.934003 205.473267 
L 244.140187 205.473267 
L 244.245907 202.621782 
L 244.327755 202.621782 
L 244.327755 201.671287 
L 244.647679 201.671287 
L 244.651609 199.770297 
L 245.063548 199.770297 
L 245.07203 197.869307 
L 245.46191 197.869307 
L 245.47697 195.968317 
L 245.705637 195.968317 
L 245.705637 195.017822 
L 245.966901 195.017822 
L 246.037002 192.166337 
L 247.059107 192.166337 
L 247.133053 190.265347 
L 247.28553 190.265347 
L 247.28553 189.314851 
L 247.469591 189.314851 
L 247.469591 188.364356 
L 248.019808 188.364356 
L 248.090921 186.463366 
L 248.631365 186.463366 
L 248.631365 185.512871 
L 248.857918 185.512871 
L 248.857918 184.562376 
L 249.035257 184.562376 
L 249.035257 183.611881 
L 250.061062 183.611881 
L 250.064994 181.710891 
L 250.364534 181.710891 
L 250.364534 180.760396 
L 251.239974 180.760396 
L 251.314655 177.908911 
L 251.480823 177.908911 
L 251.531802 176.007921 
L 251.809799 176.007921 
L 251.810351 174.106931 
L 251.973072 174.106931 
L 251.973072 173.156436 
L 252.195988 173.156436 
L 252.195988 172.205941 
L 252.944775 172.205941 
L 252.944775 171.255446 
L 253.117712 171.255446 
L 253.199295 167.453465 
L 253.238789 167.453465 
L 253.238789 166.50297 
L 253.393978 166.50297 
L 253.393978 165.552475 
L 254.481194 165.552475 
L 254.481194 164.60198 
L 254.606013 164.60198 
L 254.606013 163.651485 
L 254.718647 163.651485 
L 254.718647 162.70099 
L 254.847845 162.70099 
L 254.860846 160.8 
L 255.031843 160.8 
L 255.11569 157.948515 
L 255.69605 157.948515 
L 255.77453 156.047525 
L 255.850054 156.047525 
L 255.850054 155.09703 
L 256.178914 155.09703 
L 256.212137 153.19604 
L 256.516384 153.19604 
L 256.516384 152.245545 
L 257.33195 152.245545 
L 257.33195 151.29505 
L 257.528761 151.29505 
L 257.528761 150.344554 
L 257.723606 150.344554 
L 257.723606 149.394059 
L 257.913673 149.394059 
L 257.913673 148.443564 
L 258.221173 148.443564 
L 258.221173 147.493069 
L 258.518609 147.493069 
L 258.518609 146.542574 
L 258.706239 146.542574 
L 258.706239 145.592079 
L 258.930943 145.592079 
L 258.930943 144.641584 
L 259.521693 144.641584 
L 259.521693 143.691089 
L 259.74411 143.691089 
L 259.74411 142.740594 
L 260.098189 142.740594 
L 260.098189 141.790099 
L 260.642482 141.790099 
L 260.642482 140.839604 
L 260.871655 140.839604 
L 260.871655 139.889109 
L 261.313678 139.889109 
L 261.313678 138.938614 
L 262.169047 138.938614 
L 262.169047 137.988119 
L 262.88891 137.988119 
L 262.914966 136.087129 
L 263.429903 136.087129 
L 263.429903 135.136634 
L 264.470422 135.136634 
L 264.470422 134.186139 
L 265.023515 134.186139 
L 265.023515 133.235644 
L 266.091081 133.235644 
L 266.091081 132.285149 
L 267.092989 132.285149 
L 267.145667 130.384158 
L 267.770259 130.384158 
L 267.770259 129.433663 
L 268.40203 129.433663 
L 268.40203 128.483168 
L 269.27548 128.483168 
L 269.27548 127.532673 
L 270.176477 127.532673 
L 270.176477 126.582178 
L 270.5182 126.582178 
L 270.5182 125.631683 
L 270.953689 125.631683 
L 270.953689 124.681188 
L 271.654065 124.681188 
L 271.654065 123.730693 
L 272.201658 123.730693 
L 272.201658 122.780198 
L 272.847667 122.780198 
L 272.847667 121.829703 
L 273.724655 121.829703 
L 273.724655 120.879208 
L 275.388013 120.879208 
L 275.488286 118.978218 
L 276.771316 118.978218 
L 276.771316 118.027723 
L 279.8891 118.027723 
L 279.8891 117.077228 
L 280.144363 117.077228 
L 280.144363 116.126733 
L 282.559174 116.126733 
L 282.559174 115.176238 
L 283.75117 115.176238 
L 283.75117 114.225743 
L 287.722258 114.225743 
L 287.802293 112.324752 
L 288.900763 112.324752 
L 288.900763 111.374257 
L 289.480812 111.374257 
L 289.480812 110.423762 
L 292.826106 110.423762 
L 292.882161 108.522772 
L 294.014462 108.522772 
L 294.014462 107.572277 
L 296.192632 107.572277 
L 296.192632 106.621782 
L 297.077671 106.621782 
L 297.077671 105.671287 
L 297.477248 105.671287 
L 297.477248 104.720792 
L 297.665132 104.720792 
L 297.665132 103.770297 
L 298.305077 103.770297 
L 298.305077 102.819802 
L 298.925155 102.819802 
L 298.952198 100.918812 
L 299.235891 100.918812 
L 299.235891 99.968317 
L 299.394737 99.968317 
L 299.394737 99.017822 
L 299.918755 99.017822 
L 299.918755 98.067327 
L 300.163973 98.067327 
L 300.163973 97.116832 
L 300.442595 97.116832 
L 300.442595 96.166337 
L 301.158071 96.166337 
L 301.158071 95.215842 
L 302.361345 95.215842 
L 302.361345 94.265347 
L 303.367361 94.265347 
L 303.367361 93.314851 
L 303.556338 93.314851 
L 303.556338 92.364356 
L 304.369669 92.364356 
L 304.369669 91.413861 
L 304.538792 91.413861 
L 304.538792 90.463366 
L 304.853882 90.463366 
L 304.853882 89.512871 
L 305.123718 89.512871 
L 305.123718 88.562376 
L 305.816648 88.562376 
L 305.816648 87.611881 
L 305.991624 87.611881 
L 305.991624 86.661386 
L 306.160519 86.661386 
L 306.160519 85.710891 
L 307.360726 85.710891 
L 307.360726 84.760396 
L 307.930713 84.760396 
L 307.981804 82.859406 
L 309.773918 82.859406 
L 309.773918 81.908911 
L 310.753919 81.908911 
L 310.82365 80.007921 
L 311.541605 80.007921 
L 311.541605 79.057426 
L 311.846567 79.057426 
L 311.846567 78.106931 
L 312.98628 78.106931 
L 312.98628 77.156436 
L 314.100976 77.156436 
L 314.100976 76.205941 
L 314.684879 76.205941 
L 314.684879 75.255446 
L 315.52448 75.255446 
L 315.52448 74.30495 
L 315.685418 74.30495 
L 315.685418 73.354455 
L 316.068182 73.354455 
L 316.068182 72.40396 
L 317.24466 72.40396 
L 317.24466 71.453465 
L 317.740291 71.453465 
L 317.753209 69.552475 
L 319.269621 69.552475 
L 319.269621 68.60198 
L 319.894056 68.60198 
L 319.894056 67.651485 
L 323.196181 67.651485 
L 323.196181 66.70099 
L 323.423394 66.70099 
L 323.423394 65.750495 
L 323.715146 65.750495 
L 323.784323 63.849505 
L 324.136131 63.849505 
L 324.136131 62.89901 
L 324.262757 62.89901 
L 324.262757 61.948515 
L 325.968236 61.948515 
L 325.968236 60.99802 
L 326.300381 60.99802 
L 326.300381 60.047525 
L 327.339298 60.047525 
L 327.339298 59.09703 
L 328.615164 59.09703 
L 328.615164 58.146535 
L 330.807155 58.146535 
L 330.807155 57.19604 
L 331.12233 57.19604 
L 331.12233 56.245545 
L 333.679054 56.245545 
L 333.679054 55.29505 
L 333.804134 55.29505 
L 333.873786 53.394059 
L 334.72615 53.394059 
L 334.72615 52.443564 
L 335.061762 52.443564 
L 335.061762 51.493069 
L 335.376397 51.493069 
L 335.376397 50.542574 
L 337.615102 50.542574 
L 337.615102 49.592079 
L 339.684546 49.592079 
L 339.684546 48.641584 
L 339.924707 48.641584 
L 339.924707 47.691089 
L 342.355279 47.691089 
L 342.355279 46.740594 
L 342.548219 46.740594 
L 342.647256 44.839604 
L 342.849299 44.839604 
L 342.849299 43.889109 
L 342.983575 43.889109 
L 342.983575 42.938614 
L 343.828425 42.938614 
L 343.828425 41.988119 
L 344.19718 41.988119 
L 344.19718 41.037624 
L 344.847156 41.037624 
L 344.847156 40.087129 
L 347.17995 40.087129 
L 347.17995 39.136634 
L 348.920607 39.136634 
L 348.920607 38.186139 
L 355.042528 38.186139 
L 355.042528 37.235644 
L 355.524328 37.235644 
L 355.629523 35.334653 
L 358.434119 35.334653 
L 358.543314 33.433663 
L 359.251547 33.433663 
L 359.251547 32.483168 
L 360.342306 32.483168 
L 360.430795 30.582178 
L 363.237743 30.582178 
L 363.237743 29.631683 
L 364.910411 29.631683 
L 364.910411 28.681188 
L 366.45955 28.681188 
L 366.45955 27.730693 
L 366.947993 27.730693 
L 366.947993 26.780198 
L 367.071237 26.780198 
L 367.071237 25.829703 
L 367.561733 25.829703 
L 367.561733 24.879208 
L 367.746867 24.879208 
L 367.746867 23.928713 
L 368.680029 23.928713 
L 368.680029 22.978218 
L 368.94179 22.978218 
L 368.94179 22.027723 
L 374.631943 22.027723 
L 374.631943 21.077228 
L 375.619117 21.077228 
L 375.619117 20.126733 
L 376.8713 20.126733 
L 376.8713 19.176238 
L 380.806069 19.176238 
L 380.806069 18.225743 
L 381.234916 18.225743 
L 381.234916 17.275248 
L 382.412768 17.275248 
L 382.412768 16.324752 
L 383.021193 16.324752 
L 383.021193 15.374257 
L 385.32296 15.374257 
L 385.32296 14.423762 
L 386.326467 14.423762 
L 386.326467 13.473267 
L 387.003016 13.473267 
L 387.003016 12.522772 
L 387.311538 12.522772 
L 387.311538 11.572277 
L 391.931652 11.572277 
L 391.931652 10.621782 
L 391.931652 10.621782 
L 453.6 10.621782 
L 453.6 10.621782 
" style="fill:none;stroke:#bf00bf;stroke-linecap:square;"/>
   </g>
   <g id="line2d_4">
    <path clip-path="url(#pf6d4a9679b)" d="M 209.624657 352.8 
L 209.624657 351.849505 
L 211.367784 351.849505 
L 211.367784 350.89901 
L 211.51328 350.89901 
L 211.51328 349.948515 
L 212.194558 349.948515 
L 212.194558 348.99802 
L 213.348868 348.99802 
L 213.418282 347.09703 
L 214.435355 347.09703 
L 214.435355 346.146535 
L 214.72846 346.146535 
L 214.72846 345.19604 
L 214.935047 345.19604 
L 214.935047 344.245545 
L 215.18707 344.245545 
L 215.18707 343.29505 
L 215.42579 343.29505 
L 215.42579 342.344554 
L 215.769523 342.344554 
L 215.81262 340.443564 
L 215.899094 340.443564 
L 215.899094 339.493069 
L 216.031443 339.493069 
L 216.031443 338.542574 
L 216.691735 338.542574 
L 216.691735 337.592079 
L 217.56709 337.592079 
L 217.56709 336.641584 
L 218.191537 336.641584 
L 218.191537 335.691089 
L 218.4115 335.691089 
L 218.485693 332.839604 
L 219.032811 332.839604 
L 219.100648 330.938614 
L 219.174556 330.938614 
L 219.240525 328.087129 
L 219.404573 328.087129 
L 219.404573 327.136634 
L 219.618813 327.136634 
L 219.721766 325.235644 
L 219.968854 325.235644 
L 219.968854 324.285149 
L 220.55206 324.285149 
L 220.586734 322.384158 
L 220.809498 322.384158 
L 220.809498 321.433663 
L 221.223208 321.433663 
L 221.301056 319.532673 
L 221.695436 319.532673 
L 221.695436 318.582178 
L 222.041766 318.582178 
L 222.10724 315.730693 
L 222.206182 315.730693 
L 222.206182 314.780198 
L 222.954852 314.780198 
L 222.954852 313.829703 
L 223.067093 313.829703 
L 223.067093 312.879208 
L 223.48324 312.879208 
L 223.579048 310.978218 
L 223.72028 310.978218 
L 223.72028 310.027723 
L 223.975428 310.027723 
L 223.975428 309.077228 
L 224.621056 309.077228 
L 224.621056 308.126733 
L 225.43385 308.126733 
L 225.43385 307.176238 
L 225.620499 307.176238 
L 225.620499 306.225743 
L 225.808994 306.225743 
L 225.808994 305.275248 
L 226.059407 305.275248 
L 226.059407 304.324752 
L 226.280999 304.324752 
L 226.280999 303.374257 
L 226.396983 303.374257 
L 226.502629 301.473267 
L 226.544266 301.473267 
L 226.655084 299.572277 
L 226.721838 299.572277 
L 226.721838 298.621782 
L 226.978313 298.621782 
L 226.978313 297.671287 
L 227.123752 297.671287 
L 227.229818 295.770297 
L 227.273255 295.770297 
L 227.317777 293.869307 
L 227.42722 293.869307 
L 227.516191 291.017822 
L 227.985586 291.017822 
L 227.985586 290.067327 
L 228.142029 290.067327 
L 228.207541 288.166337 
L 228.290199 288.166337 
L 228.290199 287.215842 
L 228.662957 287.215842 
L 228.686896 285.314851 
L 229.214179 285.314851 
L 229.214179 284.364356 
L 229.388691 284.364356 
L 229.388691 283.413861 
L 229.668727 283.413861 
L 229.668727 282.463366 
L 229.802347 282.463366 
L 229.802347 281.512871 
L 229.96884 281.512871 
L 229.96884 280.562376 
L 230.159255 280.562376 
L 230.159255 279.611881 
L 230.393936 279.611881 
L 230.393936 278.661386 
L 230.574189 278.661386 
L 230.574189 277.710891 
L 230.687064 277.710891 
L 230.693629 275.809901 
L 230.866717 275.809901 
L 230.866717 274.859406 
L 231.357092 274.859406 
L 231.467179 272.958416 
L 231.572879 272.958416 
L 231.572879 272.007921 
L 231.876872 272.007921 
L 231.876872 271.057426 
L 232.128433 271.057426 
L 232.128433 270.106931 
L 232.314207 270.106931 
L 232.314207 269.156436 
L 232.433538 269.156436 
L 232.433538 268.205941 
L 232.58641 268.205941 
L 232.58641 267.255446 
L 232.81042 267.255446 
L 232.907976 264.40396 
L 232.950606 264.40396 
L 233.050914 262.50297 
L 233.214914 262.50297 
L 233.316326 258.70099 
L 233.3397 258.70099 
L 233.3397 257.750495 
L 233.470383 257.750495 
L 233.573822 253.948515 
L 234.0212 253.948515 
L 234.063046 252.047525 
L 234.231132 252.047525 
L 234.32133 249.19604 
L 234.365585 249.19604 
L 234.456956 247.29505 
L 234.63414 247.29505 
L 234.694803 245.394059 
L 234.861367 245.394059 
L 234.874422 243.493069 
L 235.111583 243.493069 
L 235.111583 242.542574 
L 235.628654 242.542574 
L 235.675701 240.641584 
L 235.90376 240.641584 
L 235.928573 238.740594 
L 236.017683 238.740594 
L 236.118338 236.839604 
L 236.131734 236.839604 
L 236.131734 235.889109 
L 236.58472 235.889109 
L 236.58472 234.938614 
L 236.747769 234.938614 
L 236.81912 233.037624 
L 236.902256 233.037624 
L 236.943798 231.136634 
L 237.219509 231.136634 
L 237.246126 228.285149 
L 237.551421 228.285149 
L 237.658408 226.384158 
L 238.048244 226.384158 
L 238.065357 224.483168 
L 238.166592 224.483168 
L 238.235642 222.582178 
L 238.321276 222.582178 
L 238.34995 220.681188 
L 238.602823 220.681188 
L 238.704084 218.780198 
L 238.781527 218.780198 
L 238.889389 216.879208 
L 238.930514 216.879208 
L 238.969095 214.978218 
L 239.313994 214.978218 
L 239.317502 213.077228 
L 239.676492 213.077228 
L 239.751765 211.176238 
L 239.874602 211.176238 
L 239.96457 209.275248 
L 240.016001 209.275248 
L 240.059579 207.374257 
L 240.150783 207.374257 
L 240.150783 206.423762 
L 240.524189 206.423762 
L 240.603205 204.522772 
L 240.761401 204.522772 
L 240.791984 200.720792 
L 240.873292 200.720792 
L 240.900344 198.819802 
L 241.11267 198.819802 
L 241.214139 196.918812 
L 241.496486 196.918812 
L 241.496486 195.968317 
L 242.079202 195.968317 
L 242.079202 195.017822 
L 242.632683 195.017822 
L 242.72985 193.116832 
L 243.00113 193.116832 
L 243.00113 192.166337 
L 243.176179 192.166337 
L 243.187523 190.265347 
L 243.568765 190.265347 
L 243.620379 187.413861 
L 243.743305 187.413861 
L 243.832519 185.512871 
L 243.861803 185.512871 
L 243.922828 183.611881 
L 244.271126 183.611881 
L 244.271126 182.661386 
L 244.647679 182.661386 
L 244.720912 180.760396 
L 244.845325 180.760396 
L 244.845325 179.809901 
L 245.063548 179.809901 
L 245.136537 177.908911 
L 245.40399 177.908911 
L 245.472943 173.156436 
L 245.986626 173.156436 
L 245.986626 172.205941 
L 246.438126 172.205941 
L 246.438126 171.255446 
L 246.815798 171.255446 
L 246.815798 170.30495 
L 247.857077 170.30495 
L 247.857077 169.354455 
L 248.687006 169.354455 
L 248.687006 168.40396 
L 248.883964 168.40396 
L 248.883964 167.453465 
L 249.364458 167.453465 
L 249.364458 166.50297 
L 249.607373 166.50297 
L 249.679614 164.60198 
L 249.761366 164.60198 
L 249.761366 163.651485 
L 249.944318 163.651485 
L 250.026951 160.8 
L 250.064994 160.8 
L 250.064994 159.849505 
L 250.364534 159.849505 
L 250.467329 157.948515 
L 251.314655 157.948515 
L 251.356514 156.047525 
L 251.434983 156.047525 
L 251.531802 153.19604 
L 251.921879 153.19604 
L 251.921879 152.245545 
L 252.888473 152.245545 
L 252.930065 150.344554 
L 253.095948 150.344554 
L 253.146736 147.493069 
L 253.393978 147.493069 
L 253.393978 146.542574 
L 253.798137 146.542574 
L 253.798137 145.592079 
L 254.718647 145.592079 
L 254.718647 144.641584 
L 254.918541 144.641584 
L 255.014744 142.740594 
L 255.031843 142.740594 
L 255.10081 140.839604 
L 255.429593 140.839604 
L 255.429593 139.889109 
L 255.714024 139.889109 
L 255.714024 138.938614 
L 255.973402 138.938614 
L 255.985249 137.037624 
L 256.526485 137.037624 
L 256.582764 135.136634 
L 257.355409 135.136634 
L 257.445603 133.235644 
L 258.518609 133.235644 
L 258.518609 132.285149 
L 258.706239 132.285149 
L 258.741769 130.384158 
L 258.930943 130.384158 
L 258.930943 129.433663 
L 259.091057 129.433663 
L 259.091057 128.483168 
L 259.74411 128.483168 
L 259.74411 127.532673 
L 260.871655 127.532673 
L 260.871655 126.582178 
L 262.169047 126.582178 
L 262.169047 125.631683 
L 265.066788 125.631683 
L 265.066788 124.681188 
L 266.091081 124.681188 
L 266.091081 123.730693 
L 267.145667 123.730693 
L 267.145667 122.780198 
L 267.770259 122.780198 
L 267.770259 121.829703 
L 268.40203 121.829703 
L 268.40203 120.879208 
L 269.090355 120.879208 
L 269.18395 118.978218 
L 269.231543 118.978218 
L 269.27548 117.077228 
L 270.103937 117.077228 
L 270.176477 115.176238 
L 270.953689 115.176238 
L 270.953689 114.225743 
L 273.295394 114.225743 
L 273.295394 113.275248 
L 274.150003 113.275248 
L 274.150003 112.324752 
L 275.488286 112.324752 
L 275.488286 111.374257 
L 279.8891 111.374257 
L 279.952697 109.473267 
L 281.741115 109.473267 
L 281.741115 108.522772 
L 282.116174 108.522772 
L 282.116174 107.572277 
L 282.559174 107.572277 
L 282.559174 106.621782 
L 283.75117 106.621782 
L 283.75117 105.671287 
L 286.31558 105.671287 
L 286.31558 104.720792 
L 287.802293 104.720792 
L 287.802293 103.770297 
L 288.041357 103.770297 
L 288.041357 102.819802 
L 288.229878 102.819802 
L 288.229878 101.869307 
L 288.900763 101.869307 
L 288.900763 100.918812 
L 289.480812 100.918812 
L 289.480812 99.968317 
L 290.250642 99.968317 
L 290.250642 99.017822 
L 290.697431 99.017822 
L 290.697431 98.067327 
L 291.340397 98.067327 
L 291.340397 97.116832 
L 291.635102 97.116832 
L 291.635102 96.166337 
L 292.882161 96.166337 
L 292.882161 95.215842 
L 293.939711 95.215842 
L 294.014462 93.314851 
L 294.732393 93.314851 
L 294.732393 92.364356 
L 295.342109 92.364356 
L 295.342109 91.413861 
L 296.007092 91.413861 
L 296.007092 90.463366 
L 296.192632 90.463366 
L 296.268773 88.562376 
L 297.077671 88.562376 
L 297.077671 87.611881 
L 297.643497 87.611881 
L 297.643497 86.661386 
L 298.332731 86.661386 
L 298.332731 85.710891 
L 298.499106 85.710891 
L 298.499106 84.760396 
L 300.986694 84.760396 
L 300.986694 83.809901 
L 301.398884 83.809901 
L 301.398884 82.859406 
L 302.303797 82.859406 
L 302.361345 80.958416 
L 303.556338 80.958416 
L 303.556338 80.007921 
L 303.713332 80.007921 
L 303.713332 79.057426 
L 304.298085 79.057426 
L 304.298085 78.106931 
L 304.538792 78.106931 
L 304.538792 77.156436 
L 305.279922 77.156436 
L 305.279922 76.205941 
L 305.991624 76.205941 
L 305.991624 75.255446 
L 307.103307 75.255446 
L 307.103307 74.30495 
L 307.930713 74.30495 
L 307.981804 71.453465 
L 309.427573 71.453465 
L 309.427573 70.50297 
L 309.86257 70.50297 
L 309.86257 69.552475 
L 310.82365 69.552475 
L 310.82365 68.60198 
L 311.541605 68.60198 
L 311.541605 67.651485 
L 311.846567 67.651485 
L 311.846567 66.70099 
L 312.132406 66.70099 
L 312.132406 65.750495 
L 312.334581 65.750495 
L 312.334581 64.8 
L 312.98628 64.8 
L 312.98628 63.849505 
L 313.127113 63.849505 
L 313.127113 62.89901 
L 314.465465 62.89901 
L 314.465465 61.948515 
L 314.684879 61.948515 
L 314.684879 60.99802 
L 317.101413 60.99802 
L 317.101413 60.047525 
L 317.645349 60.047525 
L 317.645349 59.09703 
L 317.834783 59.09703 
L 317.834783 58.146535 
L 318.235851 58.146535 
L 318.235851 57.19604 
L 319.028278 57.19604 
L 319.028278 56.245545 
L 319.269621 56.245545 
L 319.269621 55.29505 
L 320.727816 55.29505 
L 320.727816 54.344554 
L 321.067878 54.344554 
L 321.067878 53.394059 
L 322.168609 53.394059 
L 322.209324 51.493069 
L 322.774932 51.493069 
L 322.774932 50.542574 
L 323.423394 50.542574 
L 323.423394 49.592079 
L 323.809426 49.592079 
L 323.809426 48.641584 
L 324.262757 48.641584 
L 324.262757 47.691089 
L 324.410091 47.691089 
L 324.410091 46.740594 
L 324.9064 46.740594 
L 324.9064 45.790099 
L 326.300381 45.790099 
L 326.300381 44.839604 
L 326.900409 44.839604 
L 326.900409 43.889109 
L 328.923977 43.889109 
L 328.923977 42.938614 
L 330.720282 42.938614 
L 330.720282 41.988119 
L 332.645887 41.988119 
L 332.645887 41.037624 
L 333.320658 41.037624 
L 333.320658 40.087129 
L 333.811217 40.087129 
L 333.811217 39.136634 
L 337.615102 39.136634 
L 337.615102 38.186139 
L 338.027201 38.186139 
L 338.027201 37.235644 
L 338.162605 37.235644 
L 338.162605 36.285149 
L 339.684546 36.285149 
L 339.789509 34.384158 
L 343.175674 34.384158 
L 343.175674 33.433663 
L 343.434784 33.433663 
L 343.434784 32.483168 
L 343.828425 32.483168 
L 343.828425 31.532673 
L 348.261051 31.532673 
L 348.261051 30.582178 
L 348.920607 30.582178 
L 348.920607 29.631683 
L 350.318003 29.631683 
L 350.318003 28.681188 
L 350.787892 28.681188 
L 350.787892 27.730693 
L 355.042528 27.730693 
L 355.042528 26.780198 
L 361.628055 26.780198 
L 361.628055 25.829703 
L 363.237743 25.829703 
L 363.237743 24.879208 
L 364.246863 24.879208 
L 364.246863 23.928713 
L 364.910411 23.928713 
L 364.910411 22.978218 
L 366.45955 22.978218 
L 366.45955 22.027723 
L 367.071237 22.027723 
L 367.071237 21.077228 
L 368.94179 21.077228 
L 368.94179 20.126733 
L 370.430216 20.126733 
L 370.430216 19.176238 
L 373.625356 19.176238 
L 373.625356 18.225743 
L 374.669134 18.225743 
L 374.669134 17.275248 
L 376.03195 17.275248 
L 376.03195 16.324752 
L 378.787649 16.324752 
L 378.787649 15.374257 
L 380.806069 15.374257 
L 380.806069 14.423762 
L 381.234916 14.423762 
L 381.234916 13.473267 
L 381.41208 13.473267 
L 381.41208 12.522772 
L 385.32296 12.522772 
L 385.32296 11.572277 
L 391.931652 11.572277 
L 391.931652 10.621782 
L 391.931652 10.621782 
L 453.6 10.621782 
L 453.6 10.621782 
" style="fill:none;stroke:#000000;stroke-linecap:square;"/>
   </g>
   <g id="line2d_5">
    <path clip-path="url(#pf6d4a9679b)" d="M 7.098447 352.8 
L 7.098447 351.849505 
L 197.724769 351.849505 
L 197.724769 350.89901 
L 201.207934 350.89901 
L 201.207934 349.948515 
L 201.550777 349.948515 
L 201.550777 348.99802 
L 202.68344 348.99802 
L 202.68344 348.047525 
L 203.943758 348.047525 
L 203.943758 347.09703 
L 205.502399 347.09703 
L 205.502399 346.146535 
L 206.654119 346.146535 
L 206.654119 345.19604 
L 206.773825 345.19604 
L 206.773825 344.245545 
L 207.01242 344.245545 
L 207.01242 343.29505 
L 207.367669 343.29505 
L 207.367669 342.344554 
L 207.994735 342.344554 
L 207.994735 341.394059 
L 208.656708 341.394059 
L 208.663927 339.493069 
L 209.37604 339.493069 
L 209.463826 337.592079 
L 209.624657 337.592079 
L 209.624657 336.641584 
L 209.841726 336.641584 
L 209.841726 335.691089 
L 210.00981 335.691089 
L 210.031758 333.790099 
L 210.916619 333.790099 
L 210.916619 332.839604 
L 211.139391 332.839604 
L 211.139391 331.889109 
L 211.51328 331.889109 
L 211.51328 330.938614 
L 212.194558 330.938614 
L 212.194558 329.988119 
L 212.510318 329.988119 
L 212.510318 329.037624 
L 213.132424 329.037624 
L 213.132424 328.087129 
L 213.497145 328.087129 
L 213.520158 326.186139 
L 213.661069 326.186139 
L 213.661069 325.235644 
L 213.790951 325.235644 
L 213.790951 324.285149 
L 214.248286 324.285149 
L 214.248286 323.334653 
L 214.427234 323.334653 
L 214.435355 321.433663 
L 214.910936 321.433663 
L 214.935047 319.532673 
L 215.466566 319.532673 
L 215.571093 317.631683 
L 215.899094 317.631683 
L 215.899094 316.681188 
L 216.448793 316.681188 
L 216.448793 315.730693 
L 216.613241 315.730693 
L 216.653165 313.829703 
L 216.743117 313.829703 
L 216.776656 310.978218 
L 217.046711 310.978218 
L 217.046711 310.027723 
L 217.56709 310.027723 
L 217.56709 309.077228 
L 217.73916 309.077228 
L 217.750281 307.176238 
L 218.191537 307.176238 
L 218.266224 304.324752 
L 218.481239 304.324752 
L 218.521533 301.473267 
L 218.943241 301.473267 
L 219.002084 296.720792 
L 219.240525 296.720792 
L 219.240525 295.770297 
L 219.542016 295.770297 
L 219.623517 293.869307 
L 219.956911 293.869307 
L 219.956911 292.918812 
L 220.327858 292.918812 
L 220.400936 291.017822 
L 220.500572 291.017822 
L 220.607892 288.166337 
L 220.638002 288.166337 
L 220.658736 286.265347 
L 220.809498 286.265347 
L 220.876641 283.413861 
L 220.995837 283.413861 
L 220.995837 282.463366 
L 221.151391 282.463366 
L 221.201353 280.562376 
L 221.301056 280.562376 
L 221.301056 279.611881 
L 221.51099 279.611881 
L 221.51099 278.661386 
L 221.723223 278.661386 
L 221.723223 277.710891 
L 221.934583 277.710891 
L 221.934583 276.760396 
L 222.206182 276.760396 
L 222.206182 275.809901 
L 222.548236 275.809901 
L 222.548236 274.859406 
L 223.911941 274.859406 
L 223.986815 272.958416 
L 224.22508 272.958416 
L 224.235972 271.057426 
L 224.533276 271.057426 
L 224.621056 269.156436 
L 224.864412 269.156436 
L 224.864412 268.205941 
L 225.097579 268.205941 
L 225.097579 267.255446 
L 225.378846 267.255446 
L 225.396089 265.354455 
L 225.517416 265.354455 
L 225.607585 262.50297 
L 225.653573 262.50297 
L 225.653573 261.552475 
L 225.810856 261.552475 
L 225.89561 259.651485 
L 226.059407 259.651485 
L 226.135856 256.8 
L 226.280999 256.8 
L 226.280999 255.849505 
L 226.396983 255.849505 
L 226.396983 254.89901 
L 226.510523 254.89901 
L 226.510523 253.948515 
L 226.652821 253.948515 
L 226.696433 251.09703 
L 226.974078 251.09703 
L 227.000758 249.19604 
L 227.169604 249.19604 
L 227.169604 248.245545 
L 227.317777 248.245545 
L 227.3637 246.344554 
L 227.516191 246.344554 
L 227.55546 244.443564 
L 227.769846 244.443564 
L 227.769846 243.493069 
L 227.893755 243.493069 
L 227.893755 242.542574 
L 228.207072 242.542574 
L 228.237544 240.641584 
L 228.464609 240.641584 
L 228.49102 238.740594 
L 228.801391 238.740594 
L 228.872149 236.839604 
L 229.101688 236.839604 
L 229.101688 235.889109 
L 229.249764 235.889109 
L 229.249764 234.938614 
L 229.432752 234.938614 
L 229.432752 233.988119 
L 229.638176 233.988119 
L 229.668727 232.087129 
L 229.755269 232.087129 
L 229.755269 231.136634 
L 229.96884 231.136634 
L 229.96884 230.186139 
L 230.084553 230.186139 
L 230.084553 229.235644 
L 230.453289 229.235644 
L 230.453289 228.285149 
L 230.574189 228.285149 
L 230.574189 227.334653 
L 230.693629 227.334653 
L 230.729041 225.433663 
L 231.145743 225.433663 
L 231.145743 224.483168 
L 231.262999 224.483168 
L 231.321587 222.582178 
L 231.465313 222.582178 
L 231.465313 221.631683 
L 231.657607 221.631683 
L 231.755452 219.730693 
L 231.876872 219.730693 
L 231.876872 218.780198 
L 232.03838 218.780198 
L 232.03838 217.829703 
L 232.217901 217.829703 
L 232.217901 216.879208 
L 232.359153 216.879208 
L 232.431701 214.978218 
L 232.646004 214.978218 
L 232.6667 213.077228 
L 232.834768 213.077228 
L 232.834768 212.126733 
L 232.952884 212.126733 
L 232.952884 211.176238 
L 233.165702 211.176238 
L 233.165702 210.225743 
L 233.701284 210.225743 
L 233.701284 209.275248 
L 234.042425 209.275248 
L 234.142698 207.374257 
L 234.365585 207.374257 
L 234.365585 206.423762 
L 234.479406 206.423762 
L 234.479406 205.473267 
L 234.63414 205.473267 
L 234.63414 204.522772 
L 234.772857 204.522772 
L 234.772857 203.572277 
L 234.910121 203.572277 
L 234.990254 201.671287 
L 235.204936 201.671287 
L 235.204936 200.720792 
L 235.409349 200.720792 
L 235.409349 199.770297 
L 235.803482 199.770297 
L 235.803482 198.819802 
L 235.977175 198.819802 
L 235.977175 197.869307 
L 236.131734 197.869307 
L 236.131734 196.918812 
L 236.334754 196.918812 
L 236.444998 195.017822 
L 236.917298 195.017822 
L 236.917298 194.067327 
L 237.178916 194.067327 
L 237.178916 193.116832 
L 237.576866 193.116832 
L 237.653196 191.215842 
L 237.762253 191.215842 
L 237.800493 189.314851 
L 237.904072 189.314851 
L 237.904072 188.364356 
L 238.021552 188.364356 
L 238.100224 185.512871 
L 238.232573 185.512871 
L 238.321276 183.611881 
L 238.406027 183.611881 
L 238.428216 181.710891 
L 238.553114 181.710891 
L 238.553114 180.760396 
L 238.705493 180.760396 
L 238.762202 178.859406 
L 239.12813 178.859406 
L 239.12813 177.908911 
L 239.256197 177.908911 
L 239.313994 176.007921 
L 239.744027 176.007921 
L 239.744027 175.057426 
L 239.874602 175.057426 
L 239.874602 174.106931 
L 240.059579 174.106931 
L 240.074445 172.205941 
L 240.203605 172.205941 
L 240.27053 170.30495 
L 240.524189 170.30495 
L 240.603205 168.40396 
L 240.75041 168.40396 
L 240.75041 167.453465 
L 241.11267 167.453465 
L 241.11267 166.50297 
L 241.327989 166.50297 
L 241.380805 164.60198 
L 241.496486 164.60198 
L 241.529329 162.70099 
L 241.701499 162.70099 
L 241.701499 161.750495 
L 242.022365 161.750495 
L 242.080606 158.89901 
L 242.38041 158.89901 
L 242.449082 156.99802 
L 242.713057 156.99802 
L 242.713057 156.047525 
L 242.858682 156.047525 
L 242.929692 154.146535 
L 243.001861 154.146535 
L 243.018307 151.29505 
L 243.172917 151.29505 
L 243.172917 150.344554 
L 243.635309 150.344554 
L 243.635309 149.394059 
L 244.284597 149.394059 
L 244.284597 148.443564 
L 244.819369 148.443564 
L 244.845325 146.542574 
L 244.954586 146.542574 
L 244.954586 145.592079 
L 245.461345 145.592079 
L 245.461345 144.641584 
L 245.644457 144.641584 
L 245.644457 143.691089 
L 246.438126 143.691089 
L 246.438126 142.740594 
L 246.645627 142.740594 
L 246.716318 140.839604 
L 247.241808 140.839604 
L 247.241808 139.889109 
L 247.497389 139.889109 
L 247.497389 138.938614 
L 247.735984 138.938614 
L 247.735984 137.988119 
L 248.38063 137.988119 
L 248.38063 137.037624 
L 248.804329 137.037624 
L 248.852085 135.136634 
L 248.996302 135.136634 
L 249.10554 133.235644 
L 249.374972 133.235644 
L 249.374972 132.285149 
L 250.058952 132.285149 
L 250.058952 131.334653 
L 250.468436 131.334653 
L 250.468436 130.384158 
L 250.712564 130.384158 
L 250.712564 129.433663 
L 251.531802 129.433663 
L 251.531802 128.483168 
L 252.106819 128.483168 
L 252.106819 127.532673 
L 252.930065 127.532673 
L 252.930065 126.582178 
L 253.146736 126.582178 
L 253.189581 124.681188 
L 253.730194 124.681188 
L 253.741865 122.780198 
L 255.324198 122.780198 
L 255.429593 120.879208 
L 256.457428 120.879208 
L 256.457428 119.928713 
L 256.582764 119.928713 
L 256.582764 118.978218 
L 257.086191 118.978218 
L 257.086191 118.027723 
L 258.430939 118.027723 
L 258.518609 116.126733 
L 258.930943 116.126733 
L 258.930943 115.176238 
L 259.091057 115.176238 
L 259.091057 114.225743 
L 260.502445 114.225743 
L 260.502445 113.275248 
L 261.009082 113.275248 
L 261.009082 112.324752 
L 261.737951 112.324752 
L 261.737951 111.374257 
L 262.169047 111.374257 
L 262.267072 108.522772 
L 262.981101 108.522772 
L 262.981101 107.572277 
L 263.189007 107.572277 
L 263.189007 106.621782 
L 263.648412 106.621782 
L 263.648412 105.671287 
L 264.327437 105.671287 
L 264.327437 104.720792 
L 264.548989 104.720792 
L 264.548989 103.770297 
L 264.984923 103.770297 
L 264.984923 102.819802 
L 265.201805 102.819802 
L 265.201805 101.869307 
L 265.355537 101.869307 
L 265.355537 100.918812 
L 265.808744 100.918812 
L 265.878197 99.017822 
L 269.231543 99.017822 
L 269.231543 98.067327 
L 269.707744 98.067327 
L 269.809681 96.166337 
L 270.176477 96.166337 
L 270.236134 94.265347 
L 272.771183 94.265347 
L 272.771183 93.314851 
L 273.33362 93.314851 
L 273.386595 91.413861 
L 273.578747 91.413861 
L 273.578747 90.463366 
L 274.052489 90.463366 
L 274.052489 89.512871 
L 274.322264 89.512871 
L 274.322264 88.562376 
L 278.360139 88.562376 
L 278.360139 87.611881 
L 278.59599 87.611881 
L 278.59599 86.661386 
L 280.054115 86.661386 
L 280.054115 85.710891 
L 280.754292 85.710891 
L 280.832216 83.809901 
L 280.870108 83.809901 
L 280.870108 82.859406 
L 281.472166 82.859406 
L 281.472166 81.908911 
L 281.741115 81.908911 
L 281.741115 80.958416 
L 282.116174 80.958416 
L 282.124418 79.057426 
L 282.566252 79.057426 
L 282.566252 78.106931 
L 282.755494 78.106931 
L 282.755494 77.156436 
L 283.052879 77.156436 
L 283.052879 76.205941 
L 283.75117 76.205941 
L 283.816771 74.30495 
L 285.726289 74.30495 
L 285.726289 73.354455 
L 287.834244 73.354455 
L 287.834244 72.40396 
L 288.260468 72.40396 
L 288.260468 71.453465 
L 288.456004 71.453465 
L 288.456004 70.50297 
L 288.864397 70.50297 
L 288.864397 69.552475 
L 290.498992 69.552475 
L 290.498992 68.60198 
L 291.340397 68.60198 
L 291.340397 67.651485 
L 291.487695 67.651485 
L 291.487695 66.70099 
L 293.166446 66.70099 
L 293.166446 65.750495 
L 294.732393 65.750495 
L 294.732393 64.8 
L 295.007841 64.8 
L 295.007841 63.849505 
L 295.298237 63.849505 
L 295.300984 61.948515 
L 296.198061 61.948515 
L 296.198061 60.99802 
L 297.398589 60.99802 
L 297.398589 60.047525 
L 297.643497 60.047525 
L 297.643497 59.09703 
L 298.023404 59.09703 
L 298.023404 58.146535 
L 298.215892 58.146535 
L 298.215892 57.19604 
L 298.892357 57.19604 
L 298.951426 55.29505 
L 299.154301 55.29505 
L 299.154301 54.344554 
L 299.408568 54.344554 
L 299.408568 53.394059 
L 300.294168 53.394059 
L 300.294168 52.443564 
L 300.986694 52.443564 
L 300.986694 51.493069 
L 301.125344 51.493069 
L 301.125344 50.542574 
L 303.900584 50.542574 
L 303.910251 48.641584 
L 304.896006 48.641584 
L 304.896006 47.691089 
L 305.276126 47.691089 
L 305.276126 46.740594 
L 305.389566 46.740594 
L 305.389566 45.790099 
L 306.555095 45.790099 
L 306.555095 44.839604 
L 308.151861 44.839604 
L 308.151861 43.889109 
L 308.555933 43.889109 
L 308.555933 42.938614 
L 309.86257 42.938614 
L 309.86257 41.988119 
L 310.016312 41.988119 
L 310.016312 41.037624 
L 310.652848 41.037624 
L 310.652848 40.087129 
L 312.68466 40.087129 
L 312.68466 39.136634 
L 313.294836 39.136634 
L 313.294836 38.186139 
L 316.527855 38.186139 
L 316.527855 37.235644 
L 317.273806 37.235644 
L 317.273806 36.285149 
L 320.597037 36.285149 
L 320.597037 35.334653 
L 321.067878 35.334653 
L 321.067878 34.384158 
L 321.316627 34.384158 
L 321.316627 33.433663 
L 321.523275 33.433663 
L 321.523275 32.483168 
L 322.177858 32.483168 
L 322.177858 31.532673 
L 324.25083 31.532673 
L 324.25083 30.582178 
L 327.341477 30.582178 
L 327.341477 29.631683 
L 327.679107 29.631683 
L 327.679107 28.681188 
L 333.092242 28.681188 
L 333.092242 27.730693 
L 338.027201 27.730693 
L 338.027201 26.780198 
L 338.162605 26.780198 
L 338.162605 25.829703 
L 339.250743 25.829703 
L 339.250743 24.879208 
L 339.790283 24.879208 
L 339.790283 23.928713 
L 350.787892 23.928713 
L 350.787892 22.978218 
L 354.280302 22.978218 
L 354.280302 22.027723 
L 357.896545 22.027723 
L 357.896545 21.077228 
L 359.357833 21.077228 
L 359.357833 20.126733 
L 361.334349 20.126733 
L 361.334349 19.176238 
L 364.755239 19.176238 
L 364.755239 18.225743 
L 368.93909 18.225743 
L 368.93909 17.275248 
L 369.150402 17.275248 
L 369.150402 16.324752 
L 370.527776 16.324752 
L 370.527776 15.374257 
L 371.192691 15.374257 
L 371.192691 14.423762 
L 371.469269 14.423762 
L 371.469269 13.473267 
L 372.531396 13.473267 
L 372.531396 12.522772 
L 374.340429 12.522772 
L 374.340429 11.572277 
L 380.806069 11.572277 
L 380.806069 10.621782 
L 380.806069 10.621782 
L 453.6 10.621782 
L 453.6 10.621782 
" style="fill:none;stroke:#00bfbf;stroke-linecap:square;"/>
   </g>
   <g id="patch_3">
    <path d="M 7.2 7.2 
L 453.6 7.2 
" style="fill:none;stroke:#000000;stroke-linecap:square;stroke-linejoin:miter;"/>
   </g>
   <g id="patch_4">
    <path d="M 453.6 352.8 
L 453.6 7.2 
" style="fill:none;stroke:#000000;stroke-linecap:square;stroke-linejoin:miter;"/>
   </g>
   <g id="patch_5">
    <path d="M 7.2 352.8 
L 453.6 352.8 
" style="fill:none;stroke:#000000;stroke-linecap:square;stroke-linejoin:miter;"/>
   </g>
   <g id="patch_6">
    <path d="M 7.2 352.8 
L 7.2 7.2 
" style="fill:none;stroke:#000000;stroke-linecap:square;stroke-linejoin:miter;"/>
   </g>
   <g id="matplotlib.axis_1">
    <g id="xtick_1"/>
    <g id="xtick_2">
     <g id="line2d_6">
      <path clip-path="url(#pf6d4a9679b)" d="M 54.098611 352.8 
L 54.098611 7.2 
" style="fill:none;stroke:#000000;stroke-dasharray:1.000000,3.000000;stroke-dashoffset:0.0;stroke-width:0.5;"/>
     </g>
     <g id="line2d_7">
      <defs>
       <path d="M 0 0 
L 0 -4 
" id="m1bb2a43452" style="stroke:#000000;stroke-width:0.5;"/>
      </defs>
      <g>
       <use style="stroke:#000000;stroke-width:0.5;" x="54.0986107985" xlink:href="#m1bb2a43452" y="352.8"/>
      </g>
     </g>
     <g id="line2d_8">
      <defs>
       <path d="M 0 0 
L 0 4 
" id="m3dc0f8c23f" style="stroke:#000000;stroke-width:0.5;"/>
      </defs>
      <g>
       <use style="stroke:#000000;stroke-width:0.5;" x="54.0986107985" xlink:href="#m3dc0f8c23f" y="7.2"/>
      </g>
     </g>
     <g id="text_1">
      <!-- -6 -->
      <defs>
       <path d="M 33.015625 40.375 
Q 26.375 40.375 22.484375 35.828125 
Q 18.609375 31.296875 18.609375 23.390625 
Q 18.609375 15.53125 22.484375 10.953125 
Q 26.375 6.390625 33.015625 6.390625 
Q 39.65625 6.390625 43.53125 10.953125 
Q 47.40625 15.53125 47.40625 23.390625 
Q 47.40625 31.296875 43.53125 35.828125 
Q 39.65625 40.375 33.015625 40.375 
M 52.59375 71.296875 
L 52.59375 62.3125 
Q 48.875 64.0625 45.09375 64.984375 
Q 41.3125 65.921875 37.59375 65.921875 
Q 27.828125 65.921875 22.671875 59.328125 
Q 17.53125 52.734375 16.796875 39.40625 
Q 19.671875 43.65625 24.015625 45.921875 
Q 28.375 48.1875 33.59375 48.1875 
Q 44.578125 48.1875 50.953125 41.515625 
Q 57.328125 34.859375 57.328125 23.390625 
Q 57.328125 12.15625 50.6875 5.359375 
Q 44.046875 -1.421875 33.015625 -1.421875 
Q 20.359375 -1.421875 13.671875 8.265625 
Q 6.984375 17.96875 6.984375 36.375 
Q 6.984375 53.65625 15.1875 63.9375 
Q 23.390625 74.21875 37.203125 74.21875 
Q 40.921875 74.21875 44.703125 73.484375 
Q 48.484375 72.75 52.59375 71.296875 
" id="BitstreamVeraSans-Roman-36"/>
       <path d="M 4.890625 31.390625 
L 31.203125 31.390625 
L 31.203125 23.390625 
L 4.890625 23.390625 
z
" id="BitstreamVeraSans-Roman-2d"/>
      </defs>
      <g transform="translate(44.1282982985 371.996875)scale(0.2 -0.2)">
       <use xlink:href="#BitstreamVeraSans-Roman-2d"/>
       <use x="36.083984375" xlink:href="#BitstreamVeraSans-Roman-36"/>
      </g>
     </g>
    </g>
    <g id="xtick_3">
     <g id="line2d_9">
      <path clip-path="url(#pf6d4a9679b)" d="M 101.098774 352.8 
L 101.098774 7.2 
" style="fill:none;stroke:#000000;stroke-dasharray:1.000000,3.000000;stroke-dashoffset:0.0;stroke-width:0.5;"/>
     </g>
     <g id="line2d_10">
      <g>
       <use style="stroke:#000000;stroke-width:0.5;" x="101.098774234" xlink:href="#m1bb2a43452" y="352.8"/>
      </g>
     </g>
     <g id="line2d_11">
      <g>
       <use style="stroke:#000000;stroke-width:0.5;" x="101.098774234" xlink:href="#m3dc0f8c23f" y="7.2"/>
      </g>
     </g>
     <g id="text_2">
      <!-- -4 -->
      <defs>
       <path d="M 37.796875 64.3125 
L 12.890625 25.390625 
L 37.796875 25.390625 
z
M 35.203125 72.90625 
L 47.609375 72.90625 
L 47.609375 25.390625 
L 58.015625 25.390625 
L 58.015625 17.1875 
L 47.609375 17.1875 
L 47.609375 0 
L 37.796875 0 
L 37.796875 17.1875 
L 4.890625 17.1875 
L 4.890625 26.703125 
z
" id="BitstreamVeraSans-Roman-34"/>
      </defs>
      <g transform="translate(91.1284617339 371.996875)scale(0.2 -0.2)">
       <use xlink:href="#BitstreamVeraSans-Roman-2d"/>
       <use x="36.083984375" xlink:href="#BitstreamVeraSans-Roman-34"/>
      </g>
     </g>
    </g>
    <g id="xtick_4">
     <g id="line2d_12">
      <path clip-path="url(#pf6d4a9679b)" d="M 148.098938 352.8 
L 148.098938 7.2 
" style="fill:none;stroke:#000000;stroke-dasharray:1.000000,3.000000;stroke-dashoffset:0.0;stroke-width:0.5;"/>
     </g>
     <g id="line2d_13">
      <g>
       <use style="stroke:#000000;stroke-width:0.5;" x="148.098937669" xlink:href="#m1bb2a43452" y="352.8"/>
      </g>
     </g>
     <g id="line2d_14">
      <g>
       <use style="stroke:#000000;stroke-width:0.5;" x="148.098937669" xlink:href="#m3dc0f8c23f" y="7.2"/>
      </g>
     </g>
     <g id="text_3">
      <!-- -2 -->
      <defs>
       <path d="M 19.1875 8.296875 
L 53.609375 8.296875 
L 53.609375 0 
L 7.328125 0 
L 7.328125 8.296875 
Q 12.9375 14.109375 22.625 23.890625 
Q 32.328125 33.6875 34.8125 36.53125 
Q 39.546875 41.84375 41.421875 45.53125 
Q 43.3125 49.21875 43.3125 52.78125 
Q 43.3125 58.59375 39.234375 62.25 
Q 35.15625 65.921875 28.609375 65.921875 
Q 23.96875 65.921875 18.8125 64.3125 
Q 13.671875 62.703125 7.8125 59.421875 
L 7.8125 69.390625 
Q 13.765625 71.78125 18.9375 73 
Q 24.125 74.21875 28.421875 74.21875 
Q 39.75 74.21875 46.484375 68.546875 
Q 53.21875 62.890625 53.21875 53.421875 
Q 53.21875 48.921875 51.53125 44.890625 
Q 49.859375 40.875 45.40625 35.40625 
Q 44.1875 33.984375 37.640625 27.21875 
Q 31.109375 20.453125 19.1875 8.296875 
" id="BitstreamVeraSans-Roman-32"/>
      </defs>
      <g transform="translate(138.128625169 371.996875)scale(0.2 -0.2)">
       <use xlink:href="#BitstreamVeraSans-Roman-2d"/>
       <use x="36.083984375" xlink:href="#BitstreamVeraSans-Roman-32"/>
      </g>
     </g>
    </g>
    <g id="xtick_5">
     <g id="line2d_15">
      <path clip-path="url(#pf6d4a9679b)" d="M 195.099101 352.8 
L 195.099101 7.2 
" style="fill:none;stroke:#000000;stroke-dasharray:1.000000,3.000000;stroke-dashoffset:0.0;stroke-width:0.5;"/>
     </g>
     <g id="line2d_16">
      <g>
       <use style="stroke:#000000;stroke-width:0.5;" x="195.099101105" xlink:href="#m1bb2a43452" y="352.8"/>
      </g>
     </g>
     <g id="line2d_17">
      <g>
       <use style="stroke:#000000;stroke-width:0.5;" x="195.099101105" xlink:href="#m3dc0f8c23f" y="7.2"/>
      </g>
     </g>
     <g id="text_4">
      <!-- 0 -->
      <defs>
       <path d="M 31.78125 66.40625 
Q 24.171875 66.40625 20.328125 58.90625 
Q 16.5 51.421875 16.5 36.375 
Q 16.5 21.390625 20.328125 13.890625 
Q 24.171875 6.390625 31.78125 6.390625 
Q 39.453125 6.390625 43.28125 13.890625 
Q 47.125 21.390625 47.125 36.375 
Q 47.125 51.421875 43.28125 58.90625 
Q 39.453125 66.40625 31.78125 66.40625 
M 31.78125 74.21875 
Q 44.046875 74.21875 50.515625 64.515625 
Q 56.984375 54.828125 56.984375 36.375 
Q 56.984375 17.96875 50.515625 8.265625 
Q 44.046875 -1.421875 31.78125 -1.421875 
Q 19.53125 -1.421875 13.0625 8.265625 
Q 6.59375 17.96875 6.59375 36.375 
Q 6.59375 54.828125 13.0625 64.515625 
Q 19.53125 74.21875 31.78125 74.21875 
" id="BitstreamVeraSans-Roman-30"/>
      </defs>
      <g transform="translate(188.736601105 371.996875)scale(0.2 -0.2)">
       <use xlink:href="#BitstreamVeraSans-Roman-30"/>
      </g>
     </g>
    </g>
    <g id="xtick_6">
     <g id="line2d_18">
      <path clip-path="url(#pf6d4a9679b)" d="M 242.099265 352.8 
L 242.099265 7.2 
" style="fill:none;stroke:#000000;stroke-dasharray:1.000000,3.000000;stroke-dashoffset:0.0;stroke-width:0.5;"/>
     </g>
     <g id="line2d_19">
      <g>
       <use style="stroke:#000000;stroke-width:0.5;" x="242.09926454" xlink:href="#m1bb2a43452" y="352.8"/>
      </g>
     </g>
     <g id="line2d_20">
      <g>
       <use style="stroke:#000000;stroke-width:0.5;" x="242.09926454" xlink:href="#m3dc0f8c23f" y="7.2"/>
      </g>
     </g>
     <g id="text_5">
      <!-- 2 -->
      <g transform="translate(235.73676454 371.996875)scale(0.2 -0.2)">
       <use xlink:href="#BitstreamVeraSans-Roman-32"/>
      </g>
     </g>
    </g>
    <g id="xtick_7">
     <g id="line2d_21">
      <path clip-path="url(#pf6d4a9679b)" d="M 289.099428 352.8 
L 289.099428 7.2 
" style="fill:none;stroke:#000000;stroke-dasharray:1.000000,3.000000;stroke-dashoffset:0.0;stroke-width:0.5;"/>
     </g>
     <g id="line2d_22">
      <g>
       <use style="stroke:#000000;stroke-width:0.5;" x="289.099427976" xlink:href="#m1bb2a43452" y="352.8"/>
      </g>
     </g>
     <g id="line2d_23">
      <g>
       <use style="stroke:#000000;stroke-width:0.5;" x="289.099427976" xlink:href="#m3dc0f8c23f" y="7.2"/>
      </g>
     </g>
     <g id="text_6">
      <!-- 4 -->
      <g transform="translate(282.736927976 371.996875)scale(0.2 -0.2)">
       <use xlink:href="#BitstreamVeraSans-Roman-34"/>
      </g>
     </g>
    </g>
    <g id="xtick_8">
     <g id="line2d_24">
      <path clip-path="url(#pf6d4a9679b)" d="M 336.099591 352.8 
L 336.099591 7.2 
" style="fill:none;stroke:#000000;stroke-dasharray:1.000000,3.000000;stroke-dashoffset:0.0;stroke-width:0.5;"/>
     </g>
     <g id="line2d_25">
      <g>
       <use style="stroke:#000000;stroke-width:0.5;" x="336.099591411" xlink:href="#m1bb2a43452" y="352.8"/>
      </g>
     </g>
     <g id="line2d_26">
      <g>
       <use style="stroke:#000000;stroke-width:0.5;" x="336.099591411" xlink:href="#m3dc0f8c23f" y="7.2"/>
      </g>
     </g>
     <g id="text_7">
      <!-- 6 -->
      <g transform="translate(329.737091411 371.996875)scale(0.2 -0.2)">
       <use xlink:href="#BitstreamVeraSans-Roman-36"/>
      </g>
     </g>
    </g>
    <g id="xtick_9">
     <g id="line2d_27">
      <path clip-path="url(#pf6d4a9679b)" d="M 383.099755 352.8 
L 383.099755 7.2 
" style="fill:none;stroke:#000000;stroke-dasharray:1.000000,3.000000;stroke-dashoffset:0.0;stroke-width:0.5;"/>
     </g>
     <g id="line2d_28">
      <g>
       <use style="stroke:#000000;stroke-width:0.5;" x="383.099754847" xlink:href="#m1bb2a43452" y="352.8"/>
      </g>
     </g>
     <g id="line2d_29">
      <g>
       <use style="stroke:#000000;stroke-width:0.5;" x="383.099754847" xlink:href="#m3dc0f8c23f" y="7.2"/>
      </g>
     </g>
     <g id="text_8">
      <!-- 8 -->
      <defs>
       <path d="M 31.78125 34.625 
Q 24.75 34.625 20.71875 30.859375 
Q 16.703125 27.09375 16.703125 20.515625 
Q 16.703125 13.921875 20.71875 10.15625 
Q 24.75 6.390625 31.78125 6.390625 
Q 38.8125 6.390625 42.859375 10.171875 
Q 46.921875 13.96875 46.921875 20.515625 
Q 46.921875 27.09375 42.890625 30.859375 
Q 38.875 34.625 31.78125 34.625 
M 21.921875 38.8125 
Q 15.578125 40.375 12.03125 44.71875 
Q 8.5 49.078125 8.5 55.328125 
Q 8.5 64.0625 14.71875 69.140625 
Q 20.953125 74.21875 31.78125 74.21875 
Q 42.671875 74.21875 48.875 69.140625 
Q 55.078125 64.0625 55.078125 55.328125 
Q 55.078125 49.078125 51.53125 44.71875 
Q 48 40.375 41.703125 38.8125 
Q 48.828125 37.15625 52.796875 32.3125 
Q 56.78125 27.484375 56.78125 20.515625 
Q 56.78125 9.90625 50.3125 4.234375 
Q 43.84375 -1.421875 31.78125 -1.421875 
Q 19.734375 -1.421875 13.25 4.234375 
Q 6.78125 9.90625 6.78125 20.515625 
Q 6.78125 27.484375 10.78125 32.3125 
Q 14.796875 37.15625 21.921875 38.8125 
M 18.3125 54.390625 
Q 18.3125 48.734375 21.84375 45.5625 
Q 25.390625 42.390625 31.78125 42.390625 
Q 38.140625 42.390625 41.71875 45.5625 
Q 45.3125 48.734375 45.3125 54.390625 
Q 45.3125 60.0625 41.71875 63.234375 
Q 38.140625 66.40625 31.78125 66.40625 
Q 25.390625 66.40625 21.84375 63.234375 
Q 18.3125 60.0625 18.3125 54.390625 
" id="BitstreamVeraSans-Roman-38"/>
      </defs>
      <g transform="translate(376.737254847 371.996875)scale(0.2 -0.2)">
       <use xlink:href="#BitstreamVeraSans-Roman-38"/>
      </g>
     </g>
    </g>
    <g id="xtick_10">
     <g id="line2d_30">
      <path clip-path="url(#pf6d4a9679b)" d="M 430.099918 352.8 
L 430.099918 7.2 
" style="fill:none;stroke:#000000;stroke-dasharray:1.000000,3.000000;stroke-dashoffset:0.0;stroke-width:0.5;"/>
     </g>
     <g id="line2d_31">
      <g>
       <use style="stroke:#000000;stroke-width:0.5;" x="430.099918282" xlink:href="#m1bb2a43452" y="352.8"/>
      </g>
     </g>
     <g id="line2d_32">
      <g>
       <use style="stroke:#000000;stroke-width:0.5;" x="430.099918282" xlink:href="#m3dc0f8c23f" y="7.2"/>
      </g>
     </g>
     <g id="text_9">
      <!-- 10 -->
      <defs>
       <path d="M 12.40625 8.296875 
L 28.515625 8.296875 
L 28.515625 63.921875 
L 10.984375 60.40625 
L 10.984375 69.390625 
L 28.421875 72.90625 
L 38.28125 72.90625 
L 38.28125 8.296875 
L 54.390625 8.296875 
L 54.390625 0 
L 12.40625 0 
z
" id="BitstreamVeraSans-Roman-31"/>
      </defs>
      <g transform="translate(417.374918282 371.996875)scale(0.2 -0.2)">
       <use xlink:href="#BitstreamVeraSans-Roman-31"/>
       <use x="63.623046875" xlink:href="#BitstreamVeraSans-Roman-30"/>
      </g>
     </g>
    </g>
    <g id="xtick_11"/>
    <g id="xtick_12">
     <g id="line2d_33">
      <defs>
       <path d="M 0 0 
L 0 -2 
" id="mc95d94c188" style="stroke:#000000;stroke-width:0.5;"/>
      </defs>
      <g>
       <use style="stroke:#000000;stroke-width:0.5;" x="54.0986107985" xlink:href="#mc95d94c188" y="352.8"/>
      </g>
     </g>
     <g id="line2d_34">
      <defs>
       <path d="M 0 0 
L 0 2 
" id="m069043eb73" style="stroke:#000000;stroke-width:0.5;"/>
      </defs>
      <g>
       <use style="stroke:#000000;stroke-width:0.5;" x="54.0986107985" xlink:href="#m069043eb73" y="7.2"/>
      </g>
     </g>
    </g>
    <g id="xtick_13">
     <g id="line2d_35">
      <g>
       <use style="stroke:#000000;stroke-width:0.5;" x="101.098774234" xlink:href="#mc95d94c188" y="352.8"/>
      </g>
     </g>
     <g id="line2d_36">
      <g>
       <use style="stroke:#000000;stroke-width:0.5;" x="101.098774234" xlink:href="#m069043eb73" y="7.2"/>
      </g>
     </g>
    </g>
    <g id="xtick_14">
     <g id="line2d_37">
      <g>
       <use style="stroke:#000000;stroke-width:0.5;" x="148.098937669" xlink:href="#mc95d94c188" y="352.8"/>
      </g>
     </g>
     <g id="line2d_38">
      <g>
       <use style="stroke:#000000;stroke-width:0.5;" x="148.098937669" xlink:href="#m069043eb73" y="7.2"/>
      </g>
     </g>
    </g>
    <g id="xtick_15">
     <g id="line2d_39">
      <g>
       <use style="stroke:#000000;stroke-width:0.5;" x="195.099101105" xlink:href="#mc95d94c188" y="352.8"/>
      </g>
     </g>
     <g id="line2d_40">
      <g>
       <use style="stroke:#000000;stroke-width:0.5;" x="195.099101105" xlink:href="#m069043eb73" y="7.2"/>
      </g>
     </g>
    </g>
    <g id="xtick_16">
     <g id="line2d_41">
      <g>
       <use style="stroke:#000000;stroke-width:0.5;" x="242.09926454" xlink:href="#mc95d94c188" y="352.8"/>
      </g>
     </g>
     <g id="line2d_42">
      <g>
       <use style="stroke:#000000;stroke-width:0.5;" x="242.09926454" xlink:href="#m069043eb73" y="7.2"/>
      </g>
     </g>
    </g>
    <g id="xtick_17">
     <g id="line2d_43">
      <g>
       <use style="stroke:#000000;stroke-width:0.5;" x="289.099427976" xlink:href="#mc95d94c188" y="352.8"/>
      </g>
     </g>
     <g id="line2d_44">
      <g>
       <use style="stroke:#000000;stroke-width:0.5;" x="289.099427976" xlink:href="#m069043eb73" y="7.2"/>
      </g>
     </g>
    </g>
    <g id="xtick_18">
     <g id="line2d_45">
      <g>
       <use style="stroke:#000000;stroke-width:0.5;" x="336.099591411" xlink:href="#mc95d94c188" y="352.8"/>
      </g>
     </g>
     <g id="line2d_46">
      <g>
       <use style="stroke:#000000;stroke-width:0.5;" x="336.099591411" xlink:href="#m069043eb73" y="7.2"/>
      </g>
     </g>
    </g>
    <g id="xtick_19">
     <g id="line2d_47">
      <g>
       <use style="stroke:#000000;stroke-width:0.5;" x="383.099754847" xlink:href="#mc95d94c188" y="352.8"/>
      </g>
     </g>
     <g id="line2d_48">
      <g>
       <use style="stroke:#000000;stroke-width:0.5;" x="383.099754847" xlink:href="#m069043eb73" y="7.2"/>
      </g>
     </g>
    </g>
    <g id="xtick_20">
     <g id="line2d_49">
      <g>
       <use style="stroke:#000000;stroke-width:0.5;" x="430.099918282" xlink:href="#mc95d94c188" y="352.8"/>
      </g>
     </g>
     <g id="line2d_50">
      <g>
       <use style="stroke:#000000;stroke-width:0.5;" x="430.099918282" xlink:href="#m069043eb73" y="7.2"/>
      </g>
     </g>
    </g>
    <g id="text_10">
     <!-- log10 of Df -->
     <defs>
      <path id="BitstreamVeraSans-Roman-20"/>
      <path d="M 30.609375 48.390625 
Q 23.390625 48.390625 19.1875 42.75 
Q 14.984375 37.109375 14.984375 27.296875 
Q 14.984375 17.484375 19.15625 11.84375 
Q 23.34375 6.203125 30.609375 6.203125 
Q 37.796875 6.203125 41.984375 11.859375 
Q 46.1875 17.53125 46.1875 27.296875 
Q 46.1875 37.015625 41.984375 42.703125 
Q 37.796875 48.390625 30.609375 48.390625 
M 30.609375 56 
Q 42.328125 56 49.015625 48.375 
Q 55.71875 40.765625 55.71875 27.296875 
Q 55.71875 13.875 49.015625 6.21875 
Q 42.328125 -1.421875 30.609375 -1.421875 
Q 18.84375 -1.421875 12.171875 6.21875 
Q 5.515625 13.875 5.515625 27.296875 
Q 5.515625 40.765625 12.171875 48.375 
Q 18.84375 56 30.609375 56 
" id="BitstreamVeraSans-Roman-6f"/>
      <path d="M 9.421875 75.984375 
L 18.40625 75.984375 
L 18.40625 0 
L 9.421875 0 
z
" id="BitstreamVeraSans-Roman-6c"/>
      <path d="M 19.671875 64.796875 
L 19.671875 8.109375 
L 31.59375 8.109375 
Q 46.6875 8.109375 53.6875 14.9375 
Q 60.6875 21.78125 60.6875 36.53125 
Q 60.6875 51.171875 53.6875 57.984375 
Q 46.6875 64.796875 31.59375 64.796875 
z
M 9.8125 72.90625 
L 30.078125 72.90625 
Q 51.265625 72.90625 61.171875 64.09375 
Q 71.09375 55.28125 71.09375 36.53125 
Q 71.09375 17.671875 61.125 8.828125 
Q 51.171875 0 30.078125 0 
L 9.8125 0 
z
" id="BitstreamVeraSans-Roman-44"/>
      <path d="M 45.40625 27.984375 
Q 45.40625 37.75 41.375 43.109375 
Q 37.359375 48.484375 30.078125 48.484375 
Q 22.859375 48.484375 18.828125 43.109375 
Q 14.796875 37.75 14.796875 27.984375 
Q 14.796875 18.265625 18.828125 12.890625 
Q 22.859375 7.515625 30.078125 7.515625 
Q 37.359375 7.515625 41.375 12.890625 
Q 45.40625 18.265625 45.40625 27.984375 
M 54.390625 6.78125 
Q 54.390625 -7.171875 48.1875 -13.984375 
Q 42 -20.796875 29.203125 -20.796875 
Q 24.46875 -20.796875 20.265625 -20.09375 
Q 16.0625 -19.390625 12.109375 -17.921875 
L 12.109375 -9.1875 
Q 16.0625 -11.328125 19.921875 -12.34375 
Q 23.78125 -13.375 27.78125 -13.375 
Q 36.625 -13.375 41.015625 -8.765625 
Q 45.40625 -4.15625 45.40625 5.171875 
L 45.40625 9.625 
Q 42.625 4.78125 38.28125 2.390625 
Q 33.9375 0 27.875 0 
Q 17.828125 0 11.671875 7.65625 
Q 5.515625 15.328125 5.515625 27.984375 
Q 5.515625 40.671875 11.671875 48.328125 
Q 17.828125 56 27.875 56 
Q 33.9375 56 38.28125 53.609375 
Q 42.625 51.21875 45.40625 46.390625 
L 45.40625 54.6875 
L 54.390625 54.6875 
z
" id="BitstreamVeraSans-Roman-67"/>
      <path d="M 37.109375 75.984375 
L 37.109375 68.5 
L 28.515625 68.5 
Q 23.6875 68.5 21.796875 66.546875 
Q 19.921875 64.59375 19.921875 59.515625 
L 19.921875 54.6875 
L 34.71875 54.6875 
L 34.71875 47.703125 
L 19.921875 47.703125 
L 19.921875 0 
L 10.890625 0 
L 10.890625 47.703125 
L 2.296875 47.703125 
L 2.296875 54.6875 
L 10.890625 54.6875 
L 10.890625 58.5 
Q 10.890625 67.625 15.140625 71.796875 
Q 19.390625 75.984375 28.609375 75.984375 
z
" id="BitstreamVeraSans-Roman-66"/>
     </defs>
     <g transform="translate(175.2140625 396.353125)scale(0.2 -0.2)">
      <use xlink:href="#BitstreamVeraSans-Roman-6c"/>
      <use x="27.783203125" xlink:href="#BitstreamVeraSans-Roman-6f"/>
      <use x="88.96484375" xlink:href="#BitstreamVeraSans-Roman-67"/>
      <use x="152.44140625" xlink:href="#BitstreamVeraSans-Roman-31"/>
      <use x="216.064453125" xlink:href="#BitstreamVeraSans-Roman-30"/>
      <use x="279.6875" xlink:href="#BitstreamVeraSans-Roman-20"/>
      <use x="311.474609375" xlink:href="#BitstreamVeraSans-Roman-6f"/>
      <use x="372.65625" xlink:href="#BitstreamVeraSans-Roman-66"/>
      <use x="407.861328125" xlink:href="#BitstreamVeraSans-Roman-20"/>
      <use x="439.6484375" xlink:href="#BitstreamVeraSans-Roman-44"/>
      <use x="516.650390625" xlink:href="#BitstreamVeraSans-Roman-66"/>
     </g>
    </g>
   </g>
   <g id="matplotlib.axis_2">
    <g id="ytick_1">
     <g id="line2d_51">
      <path clip-path="url(#pf6d4a9679b)" d="M 7.2 352.8 
L 453.6 352.8 
" style="fill:none;stroke:#000000;stroke-dasharray:1.000000,3.000000;stroke-dashoffset:0.0;stroke-width:0.5;"/>
     </g>
     <g id="line2d_52">
      <defs>
       <path d="M 0 0 
L 4 0 
" id="mbab7d7eab8" style="stroke:#000000;stroke-width:0.5;"/>
      </defs>
      <g>
       <use style="stroke:#000000;stroke-width:0.5;" x="7.2" xlink:href="#mbab7d7eab8" y="352.8"/>
      </g>
     </g>
     <g id="line2d_53">
      <defs>
       <path d="M 0 0 
L -4 0 
" id="m196df013b1" style="stroke:#000000;stroke-width:0.5;"/>
      </defs>
      <g>
       <use style="stroke:#000000;stroke-width:0.5;" x="453.6" xlink:href="#m196df013b1" y="352.8"/>
      </g>
     </g>
    </g>
    <g id="ytick_2">
     <g id="line2d_54">
      <path clip-path="url(#pf6d4a9679b)" d="M 7.2 284.364356 
L 453.6 284.364356 
" style="fill:none;stroke:#000000;stroke-dasharray:1.000000,3.000000;stroke-dashoffset:0.0;stroke-width:0.5;"/>
     </g>
     <g id="line2d_55">
      <g>
       <use style="stroke:#000000;stroke-width:0.5;" x="7.2" xlink:href="#mbab7d7eab8" y="284.364356436"/>
      </g>
     </g>
     <g id="line2d_56">
      <g>
       <use style="stroke:#000000;stroke-width:0.5;" x="453.6" xlink:href="#m196df013b1" y="284.364356436"/>
      </g>
     </g>
    </g>
    <g id="ytick_3">
     <g id="line2d_57">
      <path clip-path="url(#pf6d4a9679b)" d="M 7.2 215.928713 
L 453.6 215.928713 
" style="fill:none;stroke:#000000;stroke-dasharray:1.000000,3.000000;stroke-dashoffset:0.0;stroke-width:0.5;"/>
     </g>
     <g id="line2d_58">
      <g>
       <use style="stroke:#000000;stroke-width:0.5;" x="7.2" xlink:href="#mbab7d7eab8" y="215.928712871"/>
      </g>
     </g>
     <g id="line2d_59">
      <g>
       <use style="stroke:#000000;stroke-width:0.5;" x="453.6" xlink:href="#m196df013b1" y="215.928712871"/>
      </g>
     </g>
    </g>
    <g id="ytick_4">
     <g id="line2d_60">
      <path clip-path="url(#pf6d4a9679b)" d="M 7.2 147.493069 
L 453.6 147.493069 
" style="fill:none;stroke:#000000;stroke-dasharray:1.000000,3.000000;stroke-dashoffset:0.0;stroke-width:0.5;"/>
     </g>
     <g id="line2d_61">
      <g>
       <use style="stroke:#000000;stroke-width:0.5;" x="7.2" xlink:href="#mbab7d7eab8" y="147.493069307"/>
      </g>
     </g>
     <g id="line2d_62">
      <g>
       <use style="stroke:#000000;stroke-width:0.5;" x="453.6" xlink:href="#m196df013b1" y="147.493069307"/>
      </g>
     </g>
    </g>
    <g id="ytick_5">
     <g id="line2d_63">
      <path clip-path="url(#pf6d4a9679b)" d="M 7.2 79.057426 
L 453.6 79.057426 
" style="fill:none;stroke:#000000;stroke-dasharray:1.000000,3.000000;stroke-dashoffset:0.0;stroke-width:0.5;"/>
     </g>
     <g id="line2d_64">
      <g>
       <use style="stroke:#000000;stroke-width:0.5;" x="7.2" xlink:href="#mbab7d7eab8" y="79.0574257426"/>
      </g>
     </g>
     <g id="line2d_65">
      <g>
       <use style="stroke:#000000;stroke-width:0.5;" x="453.6" xlink:href="#m196df013b1" y="79.0574257426"/>
      </g>
     </g>
    </g>
    <g id="ytick_6">
     <g id="line2d_66">
      <path clip-path="url(#pf6d4a9679b)" d="M 7.2 10.621782 
L 453.6 10.621782 
" style="fill:none;stroke:#000000;stroke-dasharray:1.000000,3.000000;stroke-dashoffset:0.0;stroke-width:0.5;"/>
     </g>
     <g id="line2d_67">
      <g>
       <use style="stroke:#000000;stroke-width:0.5;" x="7.2" xlink:href="#mbab7d7eab8" y="10.6217821782"/>
      </g>
     </g>
     <g id="line2d_68">
      <g>
       <use style="stroke:#000000;stroke-width:0.5;" x="453.6" xlink:href="#m196df013b1" y="10.6217821782"/>
      </g>
     </g>
    </g>
   </g>
   <g id="text_11">
    <!-- {f1-f24}, 5-D -->
    <defs>
     <path d="M 12.5 -9.28125 
L 15.921875 -9.28125 
Q 22.75 -9.28125 24.828125 -7.171875 
Q 26.90625 -5.078125 26.90625 1.90625 
L 26.90625 14.015625 
Q 26.90625 21.625 29.09375 25.09375 
Q 31.296875 28.5625 36.71875 29.890625 
Q 31.296875 31.109375 29.09375 34.5625 
Q 26.90625 38.03125 26.90625 45.703125 
L 26.90625 57.8125 
Q 26.90625 64.75 24.828125 66.875 
Q 22.75 69 15.921875 69 
L 12.5 69 
L 12.5 75.984375 
L 15.578125 75.984375 
Q 27.734375 75.984375 31.8125 72.390625 
Q 35.890625 68.796875 35.890625 58.015625 
L 35.890625 46.296875 
Q 35.890625 39.015625 38.515625 36.203125 
Q 41.15625 33.40625 48.09375 33.40625 
L 51.125 33.40625 
L 51.125 26.421875 
L 48.09375 26.421875 
Q 41.15625 26.421875 38.515625 23.578125 
Q 35.890625 20.75 35.890625 13.375 
L 35.890625 1.703125 
Q 35.890625 -9.078125 31.8125 -12.6875 
Q 27.734375 -16.3125 15.578125 -16.3125 
L 12.5 -16.3125 
z
" id="BitstreamVeraSans-Roman-7d"/>
     <path d="M 51.125 -9.28125 
L 51.125 -16.3125 
L 48.09375 -16.3125 
Q 35.9375 -16.3125 31.8125 -12.6875 
Q 27.6875 -9.078125 27.6875 1.703125 
L 27.6875 13.375 
Q 27.6875 20.75 25.046875 23.578125 
Q 22.40625 26.421875 15.484375 26.421875 
L 12.5 26.421875 
L 12.5 33.40625 
L 15.484375 33.40625 
Q 22.46875 33.40625 25.078125 36.203125 
Q 27.6875 39.015625 27.6875 46.296875 
L 27.6875 58.015625 
Q 27.6875 68.796875 31.8125 72.390625 
Q 35.9375 75.984375 48.09375 75.984375 
L 51.125 75.984375 
L 51.125 69 
L 47.796875 69 
Q 40.921875 69 38.8125 66.84375 
Q 36.71875 64.703125 36.71875 57.8125 
L 36.71875 45.703125 
Q 36.71875 38.03125 34.5 34.5625 
Q 32.28125 31.109375 26.90625 29.890625 
Q 32.328125 28.5625 34.515625 25.09375 
Q 36.71875 21.625 36.71875 14.015625 
L 36.71875 1.90625 
Q 36.71875 -4.984375 38.8125 -7.125 
Q 40.921875 -9.28125 47.796875 -9.28125 
z
" id="BitstreamVeraSans-Roman-7b"/>
     <path d="M 11.71875 12.40625 
L 22.015625 12.40625 
L 22.015625 4 
L 14.015625 -11.625 
L 7.71875 -11.625 
L 11.71875 4 
z
" id="BitstreamVeraSans-Roman-2c"/>
     <path d="M 10.796875 72.90625 
L 49.515625 72.90625 
L 49.515625 64.59375 
L 19.828125 64.59375 
L 19.828125 46.734375 
Q 21.96875 47.46875 24.109375 47.828125 
Q 26.265625 48.1875 28.421875 48.1875 
Q 40.625 48.1875 47.75 41.5 
Q 54.890625 34.8125 54.890625 23.390625 
Q 54.890625 11.625 47.5625 5.09375 
Q 40.234375 -1.421875 26.90625 -1.421875 
Q 22.3125 -1.421875 17.546875 -0.640625 
Q 12.796875 0.140625 7.71875 1.703125 
L 7.71875 11.625 
Q 12.109375 9.234375 16.796875 8.0625 
Q 21.484375 6.890625 26.703125 6.890625 
Q 35.15625 6.890625 40.078125 11.328125 
Q 45.015625 15.765625 45.015625 23.390625 
Q 45.015625 31 40.078125 35.4375 
Q 35.15625 39.890625 26.703125 39.890625 
Q 22.75 39.890625 18.8125 39.015625 
Q 14.890625 38.140625 10.796875 36.28125 
z
" id="BitstreamVeraSans-Roman-35"/>
    </defs>
    <g transform="translate(311.697 345.888)scale(0.2 -0.2)">
     <use xlink:href="#BitstreamVeraSans-Roman-7b"/>
     <use x="63.623046875" xlink:href="#BitstreamVeraSans-Roman-66"/>
     <use x="98.828125" xlink:href="#BitstreamVeraSans-Roman-31"/>
     <use x="162.451171875" xlink:href="#BitstreamVeraSans-Roman-2d"/>
     <use x="198.53515625" xlink:href="#BitstreamVeraSans-Roman-66"/>
     <use x="233.740234375" xlink:href="#BitstreamVeraSans-Roman-32"/>
     <use x="297.36328125" xlink:href="#BitstreamVeraSans-Roman-34"/>
     <use x="360.986328125" xlink:href="#BitstreamVeraSans-Roman-7d"/>
     <use x="424.609375" xlink:href="#BitstreamVeraSans-Roman-2c"/>
     <use x="456.396484375" xlink:href="#BitstreamVeraSans-Roman-20"/>
     <use x="488.18359375" xlink:href="#BitstreamVeraSans-Roman-35"/>
     <use x="551.806640625" xlink:href="#BitstreamVeraSans-Roman-2d"/>
     <use x="587.890625" xlink:href="#BitstreamVeraSans-Roman-44"/>
    </g>
   </g>
   <g id="text_12">
    <!-- 0.0.0 -->
    <defs>
     <path d="M 10.6875 12.40625 
L 21 12.40625 
L 21 0 
L 10.6875 0 
z
" id="BitstreamVeraSans-Roman-2e"/>
    </defs>
    <g style="fill:#808080;" transform="translate(217.678125 347.2643125)scale(0.1 -0.1)">
     <use xlink:href="#BitstreamVeraSans-Roman-30"/>
     <use x="63.623046875" xlink:href="#BitstreamVeraSans-Roman-2e"/>
     <use x="95.41015625" xlink:href="#BitstreamVeraSans-Roman-30"/>
     <use x="159.033203125" xlink:href="#BitstreamVeraSans-Roman-2e"/>
     <use x="190.8203125" xlink:href="#BitstreamVeraSans-Roman-30"/>
    </g>
   </g>
  </g>
 </g>
 <defs>
  <clipPath id="pf6d4a9679b">
   <rect height="345.6" width="446.4" x="7.2" y="7.2"/>
  </clipPath>
 </defs>
</svg>
