<?xml version="1.0" encoding="utf-8" standalone="no"?>
<!DOCTYPE svg PUBLIC "-//W3C//DTD SVG 1.1//EN"
  "http://www.w3.org/Graphics/SVG/1.1/DTD/svg11.dtd">
<!-- Created with matplotlib (http://matplotlib.org/) -->
<svg height="413pt" version="1.1" viewBox="0 0 520 413" width="520pt" xmlns="http://www.w3.org/2000/svg" xmlns:xlink="http://www.w3.org/1999/xlink">
 <defs>
  <style type="text/css">
*{stroke-linecap:butt;stroke-linejoin:round;stroke-miterlimit:100000;}
  </style>
 </defs>
 <g id="figure_1">
  <g id="patch_1">
   <path d="M 0 413.968843 
L 520.9625 413.968843 
L 520.9625 0 
L 0 0 
z
" style="fill:#ffffff;"/>
  </g>
  <g id="axes_1">
   <g id="patch_2">
    <path d="M 67.3625 359.056343 
L 513.7625 359.056343 
L 513.7625 13.456343 
L 67.3625 13.456343 
z
" style="fill:#ffffff;"/>
   </g>
   <g id="line2d_1">
    <path clip-path="url(#p9a3a3e2cb6)" d="M 377.221127 359.056343 
L 377.221127 358.105848 
L 377.221127 358.105848 
L 377.221127 358.105848 
L 377.221127 357.155353 
L 377.221127 357.155353 
L 377.221127 357.155353 
L 377.221127 356.204858 
L 377.221127 356.204858 
L 377.221127 356.204858 
L 377.221127 355.254363 
L 377.221127 355.254363 
L 377.221127 355.254363 
L 377.221127 354.303868 
L 377.221127 354.303868 
L 377.221127 354.303868 
L 377.221127 353.353373 
L 377.221127 353.353373 
L 377.221127 353.353373 
L 377.221127 352.402877 
L 377.221127 352.402877 
L 377.221127 352.402877 
L 377.221127 351.452382 
L 377.221127 351.452382 
L 377.221127 351.452382 
L 377.221127 350.501887 
L 377.221127 350.501887 
L 377.221127 350.501887 
L 377.221127 349.551392 
L 377.221127 349.551392 
L 377.221127 349.551392 
L 377.221127 348.600897 
L 377.221127 348.600897 
L 377.221127 348.600897 
L 377.221127 347.650402 
L 377.221127 347.650402 
L 377.221127 347.650402 
L 377.221127 346.699907 
L 377.221127 346.699907 
L 377.221127 346.699907 
L 377.221127 345.749412 
L 377.221127 345.749412 
L 377.221127 345.749412 
L 377.221127 344.798917 
L 389.815317 344.798917 
L 389.815317 343.848422 
L 395.605798 343.848422 
L 395.605798 341.947432 
L 401.104196 341.947432 
L 401.104196 338.145452 
L 406.338566 338.145452 
L 406.338566 335.293967 
L 411.333108 335.293967 
L 411.333108 331.491986 
L 416.10884 331.491986 
L 416.10884 330.541491 
L 521.9625 330.541491 
L 521.9625 330.541491 
" style="fill:none;stroke:#f5deb3;stroke-linecap:square;"/>
   </g>
   <g id="line2d_2">
    <path clip-path="url(#p9a3a3e2cb6)" d="M 735.436881 359.056343 
" style="fill:none;stroke:#f5deb3;stroke-linecap:square;"/>
   </g>
   <g id="line2d_3">
    <path clip-path="url(#p9a3a3e2cb6)" d="M 335.060702 359.056343 
L 335.060702 358.105848 
L 335.060702 358.105848 
L 335.060702 358.105848 
L 335.060702 357.155353 
L 335.060702 357.155353 
L 335.060702 357.155353 
L 335.060702 356.204858 
L 335.060702 356.204858 
L 335.060702 356.204858 
L 335.060702 355.254363 
L 335.527634 355.254363 
L 335.527634 354.303868 
L 335.992575 354.303868 
L 335.992575 345.749412 
L 336.455541 345.749412 
L 336.455541 344.798917 
L 336.91655 344.798917 
L 336.91655 343.848422 
L 337.832761 343.848422 
L 337.832761 342.897927 
L 342.301765 342.897927 
L 342.301765 341.947432 
L 344.039307 341.947432 
L 344.039307 340.996937 
L 347.433463 340.996937 
L 347.433463 339.095947 
L 348.679516 339.095947 
L 348.679516 338.145452 
L 349.091722 338.145452 
L 349.091722 337.194957 
L 349.502376 337.194957 
L 349.502376 336.244462 
L 351.532759 336.244462 
L 351.532759 335.293967 
L 351.934338 335.293967 
L 351.934338 334.343472 
L 353.130274 334.343472 
L 353.130274 333.392976 
L 356.641332 333.392976 
L 356.641332 332.442481 
L 362.616989 332.442481 
L 362.616989 331.491986 
L 367.242053 331.491986 
L 367.242053 330.541491 
L 521.9625 330.541491 
L 521.9625 330.541491 
" style="fill:none;stroke:#f5deb3;stroke-linecap:square;"/>
   </g>
   <g id="line2d_4">
    <path clip-path="url(#p9a3a3e2cb6)" d="M 256.162203 359.056343 
L 256.162203 358.105848 
L 258.075031 358.105848 
L 258.075031 357.155353 
L 260.882786 357.155353 
L 260.882786 356.204858 
L 264.517404 356.204858 
L 264.517404 355.254363 
L 268.034755 355.254363 
L 268.034755 354.303868 
L 280.298054 354.303868 
L 280.298054 352.402877 
L 281.068576 352.402877 
L 281.068576 351.452382 
L 286.314943 351.452382 
L 286.314943 349.551392 
L 292.709322 349.551392 
L 292.709322 348.600897 
L 300.047338 348.600897 
L 300.047338 347.650402 
L 301.33004 347.650402 
L 301.33004 346.699907 
L 303.851041 346.699907 
L 303.851041 345.749412 
L 347.433463 345.749412 
L 347.433463 344.798917 
L 521.9625 344.798917 
L 521.9625 344.798917 
" style="fill:none;stroke:#f5deb3;stroke-linecap:square;"/>
   </g>
   <g id="line2d_5">
    <path clip-path="url(#p9a3a3e2cb6)" d="M 455.9271 359.056343 
L 455.9271 358.105848 
L 455.9271 358.105848 
L 455.9271 358.105848 
L 455.9271 357.155353 
L 463.531617 357.155353 
L 463.531617 356.204858 
L 466.655041 356.204858 
L 466.655041 355.254363 
L 470.774994 355.254363 
L 470.774994 354.303868 
L 492.014846 354.303868 
L 492.014846 353.353373 
L 502.879245 353.353373 
L 502.979593 351.452382 
L 503.579751 351.452382 
L 503.579751 350.501887 
L 508.170072 350.501887 
L 508.170072 349.551392 
L 515.832438 349.551392 
L 515.832438 348.600897 
L 521.9625 348.600897 
L 521.9625 348.600897 
" style="fill:none;stroke:#f5deb3;stroke-linecap:square;"/>
   </g>
   <g id="line2d_6"/>
   <g id="line2d_7">
    <path clip-path="url(#p9a3a3e2cb6)" d="M 332.695567 359.056343 
L 332.695567 358.105848 
L 355.094803 358.105848 
L 355.094803 357.155353 
L 357.024561 357.155353 
L 357.024561 356.204858 
L 358.544145 356.204858 
L 358.544145 355.254363 
L 358.920755 355.254363 
L 358.920755 354.303868 
L 360.042842 354.303868 
L 360.042842 353.353373 
L 361.887699 353.353373 
L 361.887699 351.452382 
L 362.616989 351.452382 
L 362.616989 350.501887 
L 372.34572 350.501887 
L 372.34572 349.551392 
L 375.620093 349.551392 
L 375.620093 348.600897 
L 378.485239 348.600897 
L 378.485239 347.650402 
L 381.277016 347.650402 
L 381.277016 346.699907 
L 396.674713 346.699907 
L 396.674713 344.798917 
L 521.9625 344.798917 
L 521.9625 344.798917 
" style="fill:none;stroke:#f5deb3;stroke-linecap:square;"/>
   </g>
   <g id="line2d_8">
    <path clip-path="url(#p9a3a3e2cb6)" d="M 769.504469 359.056343 
" style="fill:none;stroke:#f5deb3;stroke-linecap:square;"/>
   </g>
   <g id="line2d_9">
    <path clip-path="url(#p9a3a3e2cb6)" d="M 321.632511 359.056343 
L 321.632511 358.105848 
L 325.275805 358.105848 
L 325.275805 357.155353 
L 332.216321 357.155353 
L 332.216321 356.204858 
L 334.120796 356.204858 
L 334.120796 355.254363 
L 334.591762 355.254363 
L 334.591762 354.303868 
L 335.992575 354.303868 
L 335.992575 353.353373 
L 338.741337 353.353373 
L 338.741337 352.402877 
L 339.192801 352.402877 
L 339.192801 351.452382 
L 341.863019 351.452382 
L 341.863019 350.501887 
L 350.319072 350.501887 
L 350.319072 349.551392 
L 352.334442 349.551392 
L 352.334442 348.600897 
L 360.042842 348.600897 
L 360.042842 347.650402 
L 362.616989 347.650402 
L 362.616989 346.699907 
L 367.242053 346.699907 
L 367.242053 345.749412 
L 371.007931 345.749412 
L 371.007931 344.798917 
L 521.9625 344.798917 
L 521.9625 344.798917 
" style="fill:none;stroke:#f5deb3;stroke-linecap:square;"/>
   </g>
   <g id="line2d_10">
    <path clip-path="url(#p9a3a3e2cb6)" d="M 404.374036 359.056343 
L 404.374036 358.105848 
L 407.789076 358.105848 
L 407.789076 357.155353 
L 422.797151 357.155353 
L 422.797151 355.254363 
L 430.862079 355.254363 
L 430.862079 354.303868 
L 443.50926 354.303868 
L 443.50926 353.353373 
L 452.156288 353.353373 
L 452.156288 352.402877 
L 521.9625 352.402877 
L 521.9625 352.402877 
" style="fill:none;stroke:#f5deb3;stroke-linecap:square;"/>
   </g>
   <g id="line2d_11">
    <path clip-path="url(#p9a3a3e2cb6)" d="M 238.386246 359.056343 
L 238.386246 358.105848 
L 255.193054 358.105848 
L 255.193054 357.155353 
L 258.075031 357.155353 
L 258.075031 356.204858 
L 259.954878 356.204858 
L 259.954878 355.254363 
L 262.71524 355.254363 
L 262.71524 354.303868 
L 265.407437 354.303868 
L 265.407437 353.353373 
L 272.277642 353.353373 
L 272.277642 352.402877 
L 279.522048 352.402877 
L 279.522048 351.452382 
L 280.298054 351.452382 
L 280.298054 350.501887 
L 284.841563 350.501887 
L 284.841563 349.551392 
L 294.080767 349.551392 
L 294.080767 348.600897 
L 303.851041 348.600897 
L 303.851041 347.650402 
L 304.472287 347.650402 
L 304.472287 346.699907 
L 323.208853 346.699907 
L 323.208853 345.749412 
L 339.192801 345.749412 
L 339.192801 344.798917 
L 521.9625 344.798917 
L 521.9625 344.798917 
" style="fill:none;stroke:#f5deb3;stroke-linecap:square;"/>
   </g>
   <g id="line2d_12">
    <path clip-path="url(#p9a3a3e2cb6)" d="M 150.820265 359.056343 
L 150.820265 358.105848 
L 150.820265 358.105848 
L 150.820265 358.105848 
L 150.820265 357.155353 
L 150.820265 357.155353 
L 150.820265 357.155353 
L 150.820265 356.204858 
L 150.820265 356.204858 
L 150.820265 356.204858 
L 150.820265 355.254363 
L 150.820265 355.254363 
L 150.820265 355.254363 
L 150.820265 354.303868 
L 150.820265 354.303868 
L 150.820265 354.303868 
L 150.820265 353.353373 
L 150.820265 353.353373 
L 150.820265 353.353373 
L 150.820265 352.402877 
L 150.820265 352.402877 
L 150.820265 352.402877 
L 150.820265 351.452382 
L 150.820265 351.452382 
L 150.820265 351.452382 
L 150.820265 350.501887 
L 150.820265 350.501887 
L 150.820265 350.501887 
L 150.820265 349.551392 
L 150.820265 349.551392 
L 150.820265 349.551392 
L 150.820265 348.600897 
L 150.820265 348.600897 
L 150.820265 348.600897 
L 150.820265 347.650402 
L 150.820265 347.650402 
L 150.820265 347.650402 
L 150.820265 346.699907 
L 150.820265 346.699907 
L 150.820265 346.699907 
L 150.820265 345.749412 
L 150.820265 345.749412 
L 150.820265 345.749412 
L 150.820265 344.798917 
L 225.117819 344.798917 
L 225.117819 343.848422 
L 249.189973 343.848422 
L 249.189973 335.293967 
L 268.896644 335.293967 
L 268.896644 331.491986 
L 300.047338 331.491986 
L 300.047338 330.541491 
L 521.9625 330.541491 
L 521.9625 330.541491 
" style="fill:none;stroke:#f5deb3;stroke-linecap:square;"/>
   </g>
   <g id="line2d_13">
    <path clip-path="url(#p9a3a3e2cb6)" d="M 561.427453 359.056343 
" style="fill:none;stroke:#f5deb3;stroke-linecap:square;"/>
   </g>
   <g id="line2d_14">
    <path clip-path="url(#p9a3a3e2cb6)" d="M 294.760074 359.056343 
L 294.760074 358.105848 
L 298.094537 358.105848 
L 298.094537 357.155353 
L 300.047338 357.155353 
L 300.047338 356.204858 
L 302.597827 356.204858 
L 302.597827 355.254363 
L 303.226234 355.254363 
L 303.226234 353.353373 
L 303.851041 353.353373 
L 303.851041 352.402877 
L 304.472287 352.402877 
L 304.472287 351.452382 
L 305.70426 351.452382 
L 305.70426 347.650402 
L 306.315065 347.650402 
L 306.315065 346.699907 
L 306.922468 346.699907 
L 306.922468 344.798917 
L 460.316068 344.798917 
L 460.316068 343.848422 
L 462.518738 343.848422 
L 462.518738 342.897927 
L 465.670896 342.897927 
L 465.670896 341.947432 
L 466.794911 341.947432 
L 466.794911 340.996937 
L 467.769007 340.996937 
L 467.769007 340.046442 
L 472.910258 340.046442 
L 472.910258 339.095947 
L 473.306006 339.095947 
L 473.306006 338.145452 
L 473.569042 338.145452 
L 473.569042 337.194957 
L 474.614886 337.194957 
L 474.614886 336.244462 
L 476.16508 336.244462 
L 476.16508 335.293967 
L 476.549209 335.293967 
L 476.549209 334.343472 
L 476.804545 334.343472 
L 476.804545 333.392976 
L 479.450078 333.392976 
L 479.450078 332.442481 
L 480.194303 332.442481 
L 480.194303 331.491986 
L 480.687645 331.491986 
L 480.687645 330.541491 
L 499.721731 330.541491 
L 499.721731 329.590996 
L 506.240315 329.590996 
L 506.240315 328.640501 
L 507.016321 328.640501 
L 507.016321 327.690006 
L 510.160216 327.690006 
L 510.160216 326.739511 
L 511.002139 326.739511 
L 511.002139 325.789016 
L 512.022404 325.789016 
L 512.022404 324.838521 
L 513.7625 324.838521 
L 513.7625 323.888026 
L 515.653995 323.888026 
L 515.653995 322.937531 
L 516.454697 322.937531 
L 516.454697 321.987036 
L 520.799034 321.987036 
L 520.799034 321.036541 
L 521.900769 321.036541 
L 521.900769 320.086046 
L 521.9625 320.086046 
" style="fill:none;stroke:#f5deb3;stroke-linecap:square;"/>
   </g>
   <g id="line2d_15"/>
   <g id="line2d_16">
    <path clip-path="url(#p9a3a3e2cb6)" d="M 584.362716 359.056343 
" style="fill:none;stroke:#f5deb3;stroke-linecap:square;"/>
   </g>
   <g id="line2d_17">
    <path clip-path="url(#p9a3a3e2cb6)" d="M 637.322475 359.056343 
" style="fill:none;stroke:#f5deb3;stroke-linecap:square;"/>
   </g>
   <g id="line2d_18">
    <path clip-path="url(#p9a3a3e2cb6)" d="M 150.820265 359.056343 
L 150.820265 358.105848 
L 150.820265 358.105848 
L 150.820265 358.105848 
L 150.820265 357.155353 
L 150.820265 357.155353 
L 150.820265 357.155353 
L 150.820265 356.204858 
L 150.820265 356.204858 
L 150.820265 356.204858 
L 150.820265 355.254363 
L 150.820265 355.254363 
L 150.820265 355.254363 
L 150.820265 354.303868 
L 150.820265 354.303868 
L 150.820265 354.303868 
L 150.820265 353.353373 
L 150.820265 353.353373 
L 150.820265 353.353373 
L 150.820265 352.402877 
L 150.820265 352.402877 
L 150.820265 352.402877 
L 150.820265 351.452382 
L 153.326776 351.452382 
L 153.326776 345.749412 
L 158.173282 345.749412 
L 158.173282 344.798917 
L 160.51807 344.798917 
L 160.51807 342.897927 
L 167.264249 342.897927 
L 167.264249 341.947432 
L 169.423299 341.947432 
L 169.423299 340.996937 
L 173.617217 340.996937 
L 173.617217 340.046442 
L 185.31003 340.046442 
L 185.31003 339.095947 
L 187.142484 339.095947 
L 187.142484 337.194957 
L 192.461999 337.194957 
L 192.461999 336.244462 
L 214.340812 336.244462 
L 214.340812 335.293967 
L 215.74765 335.293967 
L 215.74765 333.392976 
L 223.827527 333.392976 
L 223.827527 332.442481 
L 226.39302 332.442481 
L 226.39302 331.491986 
L 230.131505 331.491986 
L 230.131505 330.541491 
L 496.788993 330.541491 
L 496.788993 329.590996 
L 521.9625 329.590996 
L 521.9625 329.590996 
" style="fill:none;stroke:#f5deb3;stroke-linecap:square;"/>
   </g>
   <g id="line2d_19">
    <path clip-path="url(#p9a3a3e2cb6)" d="M 738.150545 359.056343 
" style="fill:none;stroke:#f5deb3;stroke-linecap:square;"/>
   </g>
   <g id="line2d_20">
    <path clip-path="url(#p9a3a3e2cb6)" d="M 289.913568 359.056343 
L 289.913568 358.105848 
L 303.851041 358.105848 
L 303.851041 357.155353 
L 305.090014 357.155353 
L 305.090014 356.204858 
L 313.389662 356.204858 
L 313.389662 355.254363 
L 329.295742 355.254363 
L 329.295742 354.303868 
L 335.527634 354.303868 
L 335.527634 353.353373 
L 338.287995 353.353373 
L 338.287995 352.402877 
L 339.642403 352.402877 
L 339.642403 351.452382 
L 351.934338 351.452382 
L 351.934338 350.501887 
L 357.024561 350.501887 
L 357.024561 349.551392 
L 360.414319 349.551392 
L 360.414319 348.600897 
L 365.486324 348.600897 
L 365.486324 347.650402 
L 370.33283 347.650402 
L 370.33283 346.699907 
L 377.855015 346.699907 
L 377.855015 345.749412 
L 396.408465 345.749412 
L 396.408465 344.798917 
L 521.9625 344.798917 
L 521.9625 344.798917 
" style="fill:none;stroke:#f5deb3;stroke-linecap:square;"/>
   </g>
   <g id="line2d_21">
    <path clip-path="url(#p9a3a3e2cb6)" d="M 698.998971 359.056343 
" style="fill:none;stroke:#f5deb3;stroke-linecap:square;"/>
   </g>
   <g id="line2d_22">
    <path clip-path="url(#p9a3a3e2cb6)" d="M 341.422499 359.056343 
L 341.422499 358.105848 
L 349.502376 358.105848 
L 349.502376 357.155353 
L 360.414319 357.155353 
L 360.414319 356.204858 
L 366.893162 356.204858 
L 366.893162 355.254363 
L 374.648065 355.254363 
L 374.648065 354.303868 
L 381.887821 354.303868 
L 381.887821 353.353373 
L 382.191945 353.353373 
L 382.191945 352.402877 
L 383.69997 352.402877 
L 383.69997 351.452382 
L 386.362941 351.452382 
L 386.362941 350.501887 
L 387.236337 350.501887 
L 387.236337 349.551392 
L 395.067385 349.551392 
L 395.067385 348.600897 
L 395.605798 348.600897 
L 395.605798 347.650402 
L 397.469578 347.650402 
L 397.469578 346.699907 
L 406.824217 346.699907 
L 406.824217 345.749412 
L 443.162587 345.749412 
L 443.162587 344.798917 
L 521.9625 344.798917 
L 521.9625 344.798917 
" style="fill:none;stroke:#f5deb3;stroke-linecap:square;"/>
   </g>
   <g id="line2d_23">
    <path clip-path="url(#p9a3a3e2cb6)" d="M 452.475551 359.056343 
L 452.475551 358.105848 
L 471.0442 358.105848 
L 471.0442 357.155353 
L 475.004506 357.155353 
L 475.004506 356.204858 
L 476.931989 356.204858 
L 476.931989 355.254363 
L 480.194303 355.254363 
L 480.194303 354.303868 
L 485.38424 354.303868 
L 485.38424 353.353373 
L 489.547019 353.353373 
L 489.547019 352.402877 
L 513.853319 352.402877 
L 513.853319 351.452382 
L 521.9625 351.452382 
" style="fill:none;stroke:#f5deb3;stroke-linecap:square;"/>
   </g>
   <g id="line2d_24">
    <path clip-path="url(#p9a3a3e2cb6)" d="M 571.080303 359.056343 
" style="fill:none;stroke:#f5deb3;stroke-linecap:square;"/>
   </g>
   <g id="line2d_25">
    <path clip-path="url(#p9a3a3e2cb6)" d="M 464.535173 359.056343 
L 464.535173 358.105848 
L 471.178554 358.105848 
L 471.178554 357.155353 
L 472.513068 357.155353 
L 472.513068 356.204858 
L 474.614886 356.204858 
L 474.614886 355.254363 
L 499.307568 355.254363 
L 499.307568 354.303868 
L 502.073116 354.303868 
L 502.073116 353.353373 
L 502.67827 353.353373 
L 502.67827 352.402877 
L 510.44158 352.402877 
L 510.44158 351.452382 
L 521.9625 351.452382 
L 521.9625 351.452382 
" style="fill:none;stroke:#f5deb3;stroke-linecap:square;"/>
   </g>
   <g id="line2d_26">
    <path clip-path="url(#p9a3a3e2cb6)" d="M 546.616956 359.056343 
" style="fill:none;stroke:#f5deb3;stroke-linecap:square;"/>
   </g>
   <g id="line2d_27">
    <path clip-path="url(#p9a3a3e2cb6)" d="M 714.333756 359.056343 
" style="fill:none;stroke:#f5deb3;stroke-linecap:square;"/>
   </g>
   <g id="line2d_28">
    <path clip-path="url(#p9a3a3e2cb6)" d="M 390.942236 359.056343 
L 390.942236 358.105848 
L 391.222155 358.105848 
L 391.222155 357.155353 
L 391.501357 357.155353 
L 391.501357 356.204858 
L 391.779846 356.204858 
L 391.779846 355.254363 
L 402.373458 355.254363 
L 402.373458 351.452382 
L 402.625547 351.452382 
L 402.625547 350.501887 
L 412.719082 350.501887 
L 412.719082 348.600897 
L 413.405517 348.600897 
L 413.405517 347.650402 
L 423.214885 347.650402 
L 423.214885 346.699907 
L 431.056253 346.699907 
L 431.056253 345.749412 
L 447.084283 345.749412 
L 447.084283 344.798917 
L 521.9625 344.798917 
L 521.9625 344.798917 
" style="fill:none;stroke:#f5deb3;stroke-linecap:square;"/>
   </g>
   <g id="line2d_29">
    <path clip-path="url(#p9a3a3e2cb6)" d="M 142.935256 359.056343 
L 142.935256 358.105848 
L 142.935256 358.105848 
L 142.935256 357.155353 
L 142.935256 357.155353 
L 142.935256 356.204858 
L 142.935256 356.204858 
L 142.935256 355.254363 
L 142.935256 355.254363 
L 142.935256 354.303868 
L 142.935256 354.303868 
L 142.935256 353.353373 
L 145.627453 353.353373 
L 145.627453 352.402877 
L 145.627453 352.402877 
L 145.627453 351.452382 
L 145.627453 351.452382 
L 145.627453 350.501887 
L 145.627453 350.501887 
L 145.627453 349.551392 
L 145.627453 349.551392 
L 145.627453 348.600897 
L 145.627453 348.600897 
L 145.627453 347.650402 
L 145.627453 347.650402 
L 145.627453 346.699907 
L 145.627453 346.699907 
L 145.627453 345.749412 
L 145.627453 345.749412 
L 145.627453 344.798917 
L 197.534004 344.798917 
L 197.534004 343.848422 
L 197.534004 343.848422 
L 197.534004 342.897927 
L 197.534004 342.897927 
L 197.534004 341.947432 
L 379.734862 341.947432 
L 379.734862 340.996937 
L 379.734862 340.996937 
L 379.734862 340.046442 
L 379.734862 340.046442 
L 379.734862 339.095947 
L 381.277016 339.095947 
L 381.277016 338.145452 
L 381.277016 338.145452 
L 381.277016 337.194957 
L 381.277016 337.194957 
L 381.277016 336.244462 
L 382.495223 336.244462 
L 382.495223 335.293967 
L 382.495223 335.293967 
L 382.495223 334.343472 
L 382.495223 334.343472 
L 382.495223 333.392976 
L 383.099261 333.392976 
L 383.099261 332.442481 
L 383.099261 332.442481 
L 383.099261 331.491986 
L 383.099261 331.491986 
L 383.099261 330.541491 
L 521.9625 330.541491 
" style="fill:none;stroke:#f5deb3;stroke-linecap:square;"/>
   </g>
   <g id="line2d_30">
    <path clip-path="url(#p9a3a3e2cb6)" d="M 382.79766 359.056343 
L 382.79766 358.105848 
L 382.79766 358.105848 
L 382.79766 357.155353 
L 384.297387 357.155353 
L 384.297387 356.204858 
L 386.945982 356.204858 
L 386.945982 355.254363 
L 388.102793 355.254363 
L 388.102793 354.303868 
L 388.102793 354.303868 
L 388.102793 353.353373 
L 389.815317 353.353373 
L 389.815317 352.402877 
L 390.380232 352.402877 
L 390.380232 351.452382 
L 390.661596 351.452382 
L 390.661596 350.501887 
L 390.942236 350.501887 
L 390.942236 349.551392 
L 391.779846 349.551392 
L 391.779846 348.600897 
L 393.436007 348.600897 
L 393.436007 347.650402 
L 394.797178 347.650402 
L 394.797178 346.699907 
L 395.067385 346.699907 
L 395.067385 345.749412 
L 397.469578 345.749412 
L 397.469578 344.798917 
L 397.996286 344.798917 
L 397.996286 343.848422 
L 398.781608 343.848422 
L 398.781608 342.897927 
L 400.592324 342.897927 
L 400.592324 341.947432 
L 401.359233 341.947432 
L 401.359233 340.996937 
L 402.373458 340.996937 
L 402.373458 340.046442 
L 404.125962 340.046442 
L 404.125962 339.095947 
L 404.868497 339.095947 
L 404.868497 338.145452 
L 407.307714 338.145452 
L 407.307714 337.194957 
L 409.929289 337.194957 
L 409.929289 336.244462 
L 410.633458 336.244462 
L 410.633458 335.293967 
L 411.10039 335.293967 
L 411.10039 334.343472 
L 412.948374 334.343472 
L 412.948374 333.392976 
L 414.314092 333.392976 
L 414.314092 332.442481 
L 414.765557 332.442481 
L 414.765557 331.491986 
L 438.914188 331.491986 
L 438.914188 330.541491 
L 447.251633 330.541491 
L 447.251633 329.590996 
L 447.251633 329.590996 
L 447.251633 328.640501 
L 447.251633 328.640501 
L 447.251633 327.690006 
L 447.251633 327.690006 
L 447.251633 326.739511 
L 447.251633 326.739511 
L 447.251633 325.789016 
L 447.251633 325.789016 
L 447.251633 324.838521 
L 447.251633 324.838521 
L 447.251633 323.888026 
L 447.251633 323.888026 
L 447.251633 322.937531 
L 447.251633 322.937531 
L 447.251633 321.987036 
L 447.251633 321.987036 
L 447.251633 321.036541 
L 447.251633 321.036541 
L 447.251633 320.086046 
L 447.251633 320.086046 
L 447.251633 319.135551 
L 447.251633 319.135551 
L 447.251633 318.185056 
L 447.251633 318.185056 
L 447.251633 317.234561 
L 447.251633 317.234561 
L 447.251633 316.284066 
L 521.9625 316.284066 
" style="fill:none;stroke:#f5deb3;stroke-linecap:square;"/>
   </g>
   <g id="line2d_31">
    <path clip-path="url(#p9a3a3e2cb6)" d="M -1 354.303868 
L 28.474787 354.303868 
L 28.474787 352.402877 
L 43.033507 352.402877 
L 43.033507 351.452382 
L 67.3625 351.452382 
L 67.3625 350.501887 
L 131.447963 350.501887 
L 131.447963 349.551392 
L 249.189973 349.551392 
L 249.189973 348.600897 
L 255.193054 348.600897 
L 255.193054 347.650402 
L 264.517404 347.650402 
L 264.517404 346.699907 
L 287.768677 346.699907 
L 287.768677 345.749412 
L 320.56881 345.749412 
L 320.56881 344.798917 
L 394.797178 344.798917 
L 394.797178 343.848422 
L 395.067385 343.848422 
L 395.067385 342.897927 
L 424.045582 342.897927 
L 424.045582 341.947432 
L 428.106701 341.947432 
L 428.106701 340.996937 
L 439.991908 340.996937 
L 439.991908 340.046442 
L 440.348794 340.046442 
L 440.348794 339.095947 
L 442.814809 339.095947 
L 442.814809 338.145452 
L 449.075725 338.145452 
L 449.075725 337.194957 
L 449.404125 337.194957 
L 449.404125 336.244462 
L 453.585669 336.244462 
L 453.585669 335.293967 
L 454.840686 335.293967 
L 454.840686 334.343472 
L 456.849772 334.343472 
L 456.849772 333.392976 
L 457.460577 333.392976 
L 457.460577 332.442481 
L 457.916446 332.442481 
L 457.916446 331.491986 
L 458.972785 331.491986 
L 458.972785 330.541491 
L 461.643002 330.541491 
L 461.643002 329.590996 
L 462.664012 329.590996 
L 462.664012 328.640501 
L 462.809093 328.640501 
L 462.809093 327.690006 
L 468.183827 327.690006 
L 468.183827 326.739511 
L 468.459499 326.739511 
L 468.459499 325.789016 
L 469.145647 325.789016 
L 469.145647 324.838521 
L 471.981221 324.838521 
L 471.981221 323.888026 
L 472.114426 323.888026 
L 472.114426 322.937531 
L 472.247469 322.937531 
L 472.247469 321.987036 
L 472.380349 321.987036 
L 472.380349 321.036541 
L 474.874787 321.036541 
L 474.874787 320.086046 
L 478.072331 320.086046 
L 478.072331 319.135551 
L 483.121417 319.135551 
L 483.121417 318.185056 
L 483.241691 318.185056 
L 483.241691 317.234561 
L 483.361832 317.234561 
L 483.361832 316.284066 
L 483.721465 316.284066 
L 483.721465 315.333571 
L 483.841079 315.333571 
L 483.841079 314.383075 
L 484.556022 314.383075 
L 484.556022 313.43258 
L 485.38424 313.43258 
L 485.38424 312.482085 
L 486.905864 312.482085 
L 486.905864 311.53159 
L 487.254012 311.53159 
L 487.254012 310.581095 
L 489.773689 310.581095 
L 489.773689 309.6306 
L 490.563345 309.6306 
L 490.563345 308.680105 
L 490.675688 308.680105 
L 490.675688 307.72961 
L 491.570285 307.72961 
L 491.570285 306.779115 
L 492.788493 306.779115 
L 492.788493 305.82862 
L 494.319509 305.82862 
L 494.319509 304.878125 
L 496.682779 304.878125 
L 496.682779 303.92763 
L 498.265223 303.92763 
L 498.369907 302.02664 
L 500.442753 302.02664 
L 500.442753 301.076145 
L 500.647887 301.076145 
L 500.647887 300.12565 
L 510.160216 300.12565 
L 510.160216 299.175155 
L 510.160216 299.175155 
L 513.7625 299.175155 
L 513.7625 299.175155 
" style="fill:none;stroke:#000000;stroke-linecap:square;"/>
   </g>
   <g id="line2d_32"/>
   <g id="line2d_33">
    <path clip-path="url(#p9a3a3e2cb6)" d="M 489.092259 359.056343 
L 489.092259 358.105848 
L 493.993239 358.105848 
L 493.993239 357.155353 
L 496.788993 357.155353 
L 496.788993 356.204858 
L 504.473839 356.204858 
L 504.473839 355.254363 
L 504.671533 355.254363 
L 504.671533 354.303868 
L 505.947883 354.303868 
L 505.947883 353.353373 
L 507.112935 353.353373 
L 507.112935 352.402877 
L 512.574914 352.402877 
L 512.574914 351.452382 
L 513.580634 351.452382 
L 513.580634 350.501887 
L 513.580634 350.501887 
L 513.580634 350.501887 
L 513.7625 350.501887 
" style="fill:none;stroke:#00bfbf;stroke-linecap:square;"/>
   </g>
   <g id="line2d_34"/>
   <g id="line2d_35">
    <path clip-path="url(#p9a3a3e2cb6)" d="M 489.092259 359.056343 
L 489.092259 358.105848 
L 493.993239 358.105848 
L 493.993239 357.155353 
L 500.647887 357.155353 
L 500.647887 356.204858 
L 504.572731 356.204858 
L 504.572731 355.254363 
L 504.671533 355.254363 
L 504.671533 354.303868 
L 505.947883 354.303868 
L 505.947883 353.353373 
L 507.112935 353.353373 
L 507.112935 352.402877 
L 512.574914 352.402877 
L 512.574914 351.452382 
L 513.580634 351.452382 
L 513.580634 350.501887 
L 513.580634 350.501887 
L 513.580634 350.501887 
L 513.7625 350.501887 
" style="fill:none;stroke:#bf00bf;stroke-linecap:square;"/>
   </g>
   <g id="line2d_36"/>
   <g id="line2d_37">
    <path clip-path="url(#p9a3a3e2cb6)" d="M 489.092259 359.056343 
L 489.092259 358.105848 
L 493.993239 358.105848 
L 493.993239 357.155353 
L 500.647887 357.155353 
L 500.647887 356.204858 
L 504.572731 356.204858 
L 504.572731 355.254363 
L 504.671533 355.254363 
L 504.671533 354.303868 
L 505.947883 354.303868 
L 505.947883 353.353373 
L 507.112935 353.353373 
L 507.112935 352.402877 
L 512.574914 352.402877 
L 512.574914 351.452382 
L 513.580634 351.452382 
L 513.580634 350.501887 
L 513.580634 350.501887 
L 513.580634 350.501887 
L 513.7625 350.501887 
" style="fill:none;stroke:#ff0000;stroke-linecap:square;stroke-width:3.0;"/>
   </g>
   <g id="line2d_38"/>
   <g id="line2d_39">
    <path clip-path="url(#p9a3a3e2cb6)" d="M 513.7625 359.056343 
L 513.7625 13.456343 
" style="fill:none;stroke:#000000;stroke-linecap:square;"/>
   </g>
   <g id="patch_3">
    <path d="M 67.3625 13.456343 
L 513.7625 13.456343 
" style="fill:none;stroke:#000000;stroke-linecap:square;stroke-linejoin:miter;"/>
   </g>
   <g id="patch_4">
    <path d="M 513.7625 359.056343 
L 513.7625 13.456343 
" style="fill:none;stroke:#000000;stroke-linecap:square;stroke-linejoin:miter;"/>
   </g>
   <g id="patch_5">
    <path d="M 67.3625 359.056343 
L 513.7625 359.056343 
" style="fill:none;stroke:#000000;stroke-linecap:square;stroke-linejoin:miter;"/>
   </g>
   <g id="patch_6">
    <path d="M 67.3625 359.056343 
L 67.3625 13.456343 
" style="fill:none;stroke:#000000;stroke-linecap:square;stroke-linejoin:miter;"/>
   </g>
   <g id="matplotlib.axis_1">
    <g id="xtick_1">
     <g id="line2d_40">
      <path clip-path="url(#p9a3a3e2cb6)" d="M 67.3625 359.056343 
L 67.3625 13.456343 
" style="fill:none;stroke:#000000;stroke-dasharray:1.000000,3.000000;stroke-dashoffset:0.0;stroke-width:0.5;"/>
     </g>
     <g id="line2d_41">
      <defs>
       <path d="M 0 0 
L 0 -4 
" id="m3e59429917" style="stroke:#000000;stroke-width:0.5;"/>
      </defs>
      <g>
       <use style="stroke:#000000;stroke-width:0.5;" x="67.3625" xlink:href="#m3e59429917" y="359.056342822"/>
      </g>
     </g>
     <g id="line2d_42">
      <defs>
       <path d="M 0 0 
L 0 4 
" id="mfc195cd980" style="stroke:#000000;stroke-width:0.5;"/>
      </defs>
      <g>
       <use style="stroke:#000000;stroke-width:0.5;" x="67.3625" xlink:href="#mfc195cd980" y="13.4563428218"/>
      </g>
     </g>
     <g id="text_1">
      <!-- 0 -->
      <defs>
       <path d="M 31.78125 66.40625 
Q 24.171875 66.40625 20.328125 58.90625 
Q 16.5 51.421875 16.5 36.375 
Q 16.5 21.390625 20.328125 13.890625 
Q 24.171875 6.390625 31.78125 6.390625 
Q 39.453125 6.390625 43.28125 13.890625 
Q 47.125 21.390625 47.125 36.375 
Q 47.125 51.421875 43.28125 58.90625 
Q 39.453125 66.40625 31.78125 66.40625 
M 31.78125 74.21875 
Q 44.046875 74.21875 50.515625 64.515625 
Q 56.984375 54.828125 56.984375 36.375 
Q 56.984375 17.96875 50.515625 8.265625 
Q 44.046875 -1.421875 31.78125 -1.421875 
Q 19.53125 -1.421875 13.0625 8.265625 
Q 6.59375 17.96875 6.59375 36.375 
Q 6.59375 54.828125 13.0625 64.515625 
Q 19.53125 74.21875 31.78125 74.21875 
" id="BitstreamVeraSans-Roman-30"/>
      </defs>
      <g transform="translate(61.0 378.253217822)scale(0.2 -0.2)">
       <use xlink:href="#BitstreamVeraSans-Roman-30"/>
      </g>
     </g>
    </g>
    <g id="xtick_2">
     <g id="line2d_43">
      <path clip-path="url(#p9a3a3e2cb6)" d="M 318.40976 359.056343 
L 318.40976 13.456343 
" style="fill:none;stroke:#000000;stroke-dasharray:1.000000,3.000000;stroke-dashoffset:0.0;stroke-width:0.5;"/>
     </g>
     <g id="line2d_44">
      <g>
       <use style="stroke:#000000;stroke-width:0.5;" x="318.409760408" xlink:href="#m3e59429917" y="359.056342822"/>
      </g>
     </g>
     <g id="line2d_45">
      <g>
       <use style="stroke:#000000;stroke-width:0.5;" x="318.409760408" xlink:href="#mfc195cd980" y="13.4563428218"/>
      </g>
     </g>
     <g id="text_2">
      <!-- 1 -->
      <defs>
       <path d="M 12.40625 8.296875 
L 28.515625 8.296875 
L 28.515625 63.921875 
L 10.984375 60.40625 
L 10.984375 69.390625 
L 28.421875 72.90625 
L 38.28125 72.90625 
L 38.28125 8.296875 
L 54.390625 8.296875 
L 54.390625 0 
L 12.40625 0 
z
" id="BitstreamVeraSans-Roman-31"/>
      </defs>
      <g transform="translate(312.047260408 378.253217822)scale(0.2 -0.2)">
       <use xlink:href="#BitstreamVeraSans-Roman-31"/>
      </g>
     </g>
    </g>
    <g id="xtick_3">
     <g id="line2d_46">
      <defs>
       <path d="M 0 0 
L 0 -2 
" id="m8a0db01066" style="stroke:#000000;stroke-width:0.5;"/>
      </defs>
      <g>
       <use style="stroke:#000000;stroke-width:0.5;" x="142.935255712" xlink:href="#m8a0db01066" y="359.056342822"/>
      </g>
     </g>
     <g id="line2d_47">
      <defs>
       <path d="M 0 0 
L 0 2 
" id="me904c4f00c" style="stroke:#000000;stroke-width:0.5;"/>
      </defs>
      <g>
       <use style="stroke:#000000;stroke-width:0.5;" x="142.935255712" xlink:href="#me904c4f00c" y="13.4563428218"/>
      </g>
     </g>
    </g>
    <g id="xtick_4">
     <g id="line2d_48">
      <g>
       <use style="stroke:#000000;stroke-width:0.5;" x="187.14248388" xlink:href="#m8a0db01066" y="359.056342822"/>
      </g>
     </g>
     <g id="line2d_49">
      <g>
       <use style="stroke:#000000;stroke-width:0.5;" x="187.14248388" xlink:href="#me904c4f00c" y="13.4563428218"/>
      </g>
     </g>
    </g>
    <g id="xtick_5">
     <g id="line2d_50">
      <g>
       <use style="stroke:#000000;stroke-width:0.5;" x="218.508011424" xlink:href="#m8a0db01066" y="359.056342822"/>
      </g>
     </g>
     <g id="line2d_51">
      <g>
       <use style="stroke:#000000;stroke-width:0.5;" x="218.508011424" xlink:href="#me904c4f00c" y="13.4563428218"/>
      </g>
     </g>
    </g>
    <g id="xtick_6">
     <g id="line2d_52">
      <g>
       <use style="stroke:#000000;stroke-width:0.5;" x="242.837004696" xlink:href="#m8a0db01066" y="359.056342822"/>
      </g>
     </g>
     <g id="line2d_53">
      <g>
       <use style="stroke:#000000;stroke-width:0.5;" x="242.837004696" xlink:href="#me904c4f00c" y="13.4563428218"/>
      </g>
     </g>
    </g>
    <g id="xtick_7">
     <g id="line2d_54">
      <g>
       <use style="stroke:#000000;stroke-width:0.5;" x="262.715239592" xlink:href="#m8a0db01066" y="359.056342822"/>
      </g>
     </g>
     <g id="line2d_55">
      <g>
       <use style="stroke:#000000;stroke-width:0.5;" x="262.715239592" xlink:href="#me904c4f00c" y="13.4563428218"/>
      </g>
     </g>
    </g>
    <g id="xtick_8">
     <g id="line2d_56">
      <g>
       <use style="stroke:#000000;stroke-width:0.5;" x="279.522047722" xlink:href="#m8a0db01066" y="359.056342822"/>
      </g>
     </g>
     <g id="line2d_57">
      <g>
       <use style="stroke:#000000;stroke-width:0.5;" x="279.522047722" xlink:href="#me904c4f00c" y="13.4563428218"/>
      </g>
     </g>
    </g>
    <g id="xtick_9">
     <g id="line2d_58">
      <g>
       <use style="stroke:#000000;stroke-width:0.5;" x="294.080767136" xlink:href="#m8a0db01066" y="359.056342822"/>
      </g>
     </g>
     <g id="line2d_59">
      <g>
       <use style="stroke:#000000;stroke-width:0.5;" x="294.080767136" xlink:href="#me904c4f00c" y="13.4563428218"/>
      </g>
     </g>
    </g>
    <g id="xtick_10">
     <g id="line2d_60">
      <g>
       <use style="stroke:#000000;stroke-width:0.5;" x="306.92246776" xlink:href="#m8a0db01066" y="359.056342822"/>
      </g>
     </g>
     <g id="line2d_61">
      <g>
       <use style="stroke:#000000;stroke-width:0.5;" x="306.92246776" xlink:href="#me904c4f00c" y="13.4563428218"/>
      </g>
     </g>
    </g>
    <g id="xtick_11">
     <g id="line2d_62">
      <g>
       <use style="stroke:#000000;stroke-width:0.5;" x="393.98251612" xlink:href="#m8a0db01066" y="359.056342822"/>
      </g>
     </g>
     <g id="line2d_63">
      <g>
       <use style="stroke:#000000;stroke-width:0.5;" x="393.98251612" xlink:href="#me904c4f00c" y="13.4563428218"/>
      </g>
     </g>
    </g>
    <g id="xtick_12">
     <g id="line2d_64">
      <g>
       <use style="stroke:#000000;stroke-width:0.5;" x="438.189744288" xlink:href="#m8a0db01066" y="359.056342822"/>
      </g>
     </g>
     <g id="line2d_65">
      <g>
       <use style="stroke:#000000;stroke-width:0.5;" x="438.189744288" xlink:href="#me904c4f00c" y="13.4563428218"/>
      </g>
     </g>
    </g>
    <g id="xtick_13">
     <g id="line2d_66">
      <g>
       <use style="stroke:#000000;stroke-width:0.5;" x="469.555271832" xlink:href="#m8a0db01066" y="359.056342822"/>
      </g>
     </g>
     <g id="line2d_67">
      <g>
       <use style="stroke:#000000;stroke-width:0.5;" x="469.555271832" xlink:href="#me904c4f00c" y="13.4563428218"/>
      </g>
     </g>
    </g>
    <g id="xtick_14">
     <g id="line2d_68">
      <g>
       <use style="stroke:#000000;stroke-width:0.5;" x="493.884265104" xlink:href="#m8a0db01066" y="359.056342822"/>
      </g>
     </g>
     <g id="line2d_69">
      <g>
       <use style="stroke:#000000;stroke-width:0.5;" x="493.884265104" xlink:href="#me904c4f00c" y="13.4563428218"/>
      </g>
     </g>
    </g>
    <g id="xtick_15">
     <g id="line2d_70">
      <g>
       <use style="stroke:#000000;stroke-width:0.5;" x="513.7625" xlink:href="#m8a0db01066" y="359.056342822"/>
      </g>
     </g>
     <g id="line2d_71">
      <g>
       <use style="stroke:#000000;stroke-width:0.5;" x="513.7625" xlink:href="#me904c4f00c" y="13.4563428218"/>
      </g>
     </g>
    </g>
    <g id="text_3">
     <!-- log10 of FEvals / DIM -->
     <defs>
      <path id="BitstreamVeraSans-Roman-20"/>
      <path d="M 9.8125 72.90625 
L 24.515625 72.90625 
L 43.109375 23.296875 
L 61.8125 72.90625 
L 76.515625 72.90625 
L 76.515625 0 
L 66.890625 0 
L 66.890625 64.015625 
L 48.09375 14.015625 
L 38.1875 14.015625 
L 19.390625 64.015625 
L 19.390625 0 
L 9.8125 0 
z
" id="BitstreamVeraSans-Roman-4d"/>
      <path d="M 30.609375 48.390625 
Q 23.390625 48.390625 19.1875 42.75 
Q 14.984375 37.109375 14.984375 27.296875 
Q 14.984375 17.484375 19.15625 11.84375 
Q 23.34375 6.203125 30.609375 6.203125 
Q 37.796875 6.203125 41.984375 11.859375 
Q 46.1875 17.53125 46.1875 27.296875 
Q 46.1875 37.015625 41.984375 42.703125 
Q 37.796875 48.390625 30.609375 48.390625 
M 30.609375 56 
Q 42.328125 56 49.015625 48.375 
Q 55.71875 40.765625 55.71875 27.296875 
Q 55.71875 13.875 49.015625 6.21875 
Q 42.328125 -1.421875 30.609375 -1.421875 
Q 18.84375 -1.421875 12.171875 6.21875 
Q 5.515625 13.875 5.515625 27.296875 
Q 5.515625 40.765625 12.171875 48.375 
Q 18.84375 56 30.609375 56 
" id="BitstreamVeraSans-Roman-6f"/>
      <path d="M 9.421875 75.984375 
L 18.40625 75.984375 
L 18.40625 0 
L 9.421875 0 
z
" id="BitstreamVeraSans-Roman-6c"/>
      <path d="M 9.8125 72.90625 
L 51.703125 72.90625 
L 51.703125 64.59375 
L 19.671875 64.59375 
L 19.671875 43.109375 
L 48.578125 43.109375 
L 48.578125 34.8125 
L 19.671875 34.8125 
L 19.671875 0 
L 9.8125 0 
z
" id="BitstreamVeraSans-Roman-46"/>
      <path d="M 9.8125 72.90625 
L 55.90625 72.90625 
L 55.90625 64.59375 
L 19.671875 64.59375 
L 19.671875 43.015625 
L 54.390625 43.015625 
L 54.390625 34.71875 
L 19.671875 34.71875 
L 19.671875 8.296875 
L 56.78125 8.296875 
L 56.78125 0 
L 9.8125 0 
z
" id="BitstreamVeraSans-Roman-45"/>
      <path d="M 19.671875 64.796875 
L 19.671875 8.109375 
L 31.59375 8.109375 
Q 46.6875 8.109375 53.6875 14.9375 
Q 60.6875 21.78125 60.6875 36.53125 
Q 60.6875 51.171875 53.6875 57.984375 
Q 46.6875 64.796875 31.59375 64.796875 
z
M 9.8125 72.90625 
L 30.078125 72.90625 
Q 51.265625 72.90625 61.171875 64.09375 
Q 71.09375 55.28125 71.09375 36.53125 
Q 71.09375 17.671875 61.125 8.828125 
Q 51.171875 0 30.078125 0 
L 9.8125 0 
z
" id="BitstreamVeraSans-Roman-44"/>
      <path d="M 25.390625 72.90625 
L 33.6875 72.90625 
L 8.296875 -9.28125 
L 0 -9.28125 
z
" id="BitstreamVeraSans-Roman-2f"/>
      <path d="M 2.984375 54.6875 
L 12.5 54.6875 
L 29.59375 8.796875 
L 46.6875 54.6875 
L 56.203125 54.6875 
L 35.6875 0 
L 23.484375 0 
z
" id="BitstreamVeraSans-Roman-76"/>
      <path d="M 45.40625 27.984375 
Q 45.40625 37.75 41.375 43.109375 
Q 37.359375 48.484375 30.078125 48.484375 
Q 22.859375 48.484375 18.828125 43.109375 
Q 14.796875 37.75 14.796875 27.984375 
Q 14.796875 18.265625 18.828125 12.890625 
Q 22.859375 7.515625 30.078125 7.515625 
Q 37.359375 7.515625 41.375 12.890625 
Q 45.40625 18.265625 45.40625 27.984375 
M 54.390625 6.78125 
Q 54.390625 -7.171875 48.1875 -13.984375 
Q 42 -20.796875 29.203125 -20.796875 
Q 24.46875 -20.796875 20.265625 -20.09375 
Q 16.0625 -19.390625 12.109375 -17.921875 
L 12.109375 -9.1875 
Q 16.0625 -11.328125 19.921875 -12.34375 
Q 23.78125 -13.375 27.78125 -13.375 
Q 36.625 -13.375 41.015625 -8.765625 
Q 45.40625 -4.15625 45.40625 5.171875 
L 45.40625 9.625 
Q 42.625 4.78125 38.28125 2.390625 
Q 33.9375 0 27.875 0 
Q 17.828125 0 11.671875 7.65625 
Q 5.515625 15.328125 5.515625 27.984375 
Q 5.515625 40.671875 11.671875 48.328125 
Q 17.828125 56 27.875 56 
Q 33.9375 56 38.28125 53.609375 
Q 42.625 51.21875 45.40625 46.390625 
L 45.40625 54.6875 
L 54.390625 54.6875 
z
" id="BitstreamVeraSans-Roman-67"/>
      <path d="M 37.109375 75.984375 
L 37.109375 68.5 
L 28.515625 68.5 
Q 23.6875 68.5 21.796875 66.546875 
Q 19.921875 64.59375 19.921875 59.515625 
L 19.921875 54.6875 
L 34.71875 54.6875 
L 34.71875 47.703125 
L 19.921875 47.703125 
L 19.921875 0 
L 10.890625 0 
L 10.890625 47.703125 
L 2.296875 47.703125 
L 2.296875 54.6875 
L 10.890625 54.6875 
L 10.890625 58.5 
Q 10.890625 67.625 15.140625 71.796875 
Q 19.390625 75.984375 28.609375 75.984375 
z
" id="BitstreamVeraSans-Roman-66"/>
      <path d="M 34.28125 27.484375 
Q 23.390625 27.484375 19.1875 25 
Q 14.984375 22.515625 14.984375 16.5 
Q 14.984375 11.71875 18.140625 8.90625 
Q 21.296875 6.109375 26.703125 6.109375 
Q 34.1875 6.109375 38.703125 11.40625 
Q 43.21875 16.703125 43.21875 25.484375 
L 43.21875 27.484375 
z
M 52.203125 31.203125 
L 52.203125 0 
L 43.21875 0 
L 43.21875 8.296875 
Q 40.140625 3.328125 35.546875 0.953125 
Q 30.953125 -1.421875 24.3125 -1.421875 
Q 15.921875 -1.421875 10.953125 3.296875 
Q 6 8.015625 6 15.921875 
Q 6 25.140625 12.171875 29.828125 
Q 18.359375 34.515625 30.609375 34.515625 
L 43.21875 34.515625 
L 43.21875 35.40625 
Q 43.21875 41.609375 39.140625 45 
Q 35.0625 48.390625 27.6875 48.390625 
Q 23 48.390625 18.546875 47.265625 
Q 14.109375 46.140625 10.015625 43.890625 
L 10.015625 52.203125 
Q 14.9375 54.109375 19.578125 55.046875 
Q 24.21875 56 28.609375 56 
Q 40.484375 56 46.34375 49.84375 
Q 52.203125 43.703125 52.203125 31.203125 
" id="BitstreamVeraSans-Roman-61"/>
      <path d="M 44.28125 53.078125 
L 44.28125 44.578125 
Q 40.484375 46.53125 36.375 47.5 
Q 32.28125 48.484375 27.875 48.484375 
Q 21.1875 48.484375 17.84375 46.4375 
Q 14.5 44.390625 14.5 40.28125 
Q 14.5 37.15625 16.890625 35.375 
Q 19.28125 33.59375 26.515625 31.984375 
L 29.59375 31.296875 
Q 39.15625 29.25 43.1875 25.515625 
Q 47.21875 21.78125 47.21875 15.09375 
Q 47.21875 7.46875 41.1875 3.015625 
Q 35.15625 -1.421875 24.609375 -1.421875 
Q 20.21875 -1.421875 15.453125 -0.5625 
Q 10.6875 0.296875 5.421875 2 
L 5.421875 11.28125 
Q 10.40625 8.6875 15.234375 7.390625 
Q 20.0625 6.109375 24.8125 6.109375 
Q 31.15625 6.109375 34.5625 8.28125 
Q 37.984375 10.453125 37.984375 14.40625 
Q 37.984375 18.0625 35.515625 20.015625 
Q 33.0625 21.96875 24.703125 23.78125 
L 21.578125 24.515625 
Q 13.234375 26.265625 9.515625 29.90625 
Q 5.8125 33.546875 5.8125 39.890625 
Q 5.8125 47.609375 11.28125 51.796875 
Q 16.75 56 26.8125 56 
Q 31.78125 56 36.171875 55.265625 
Q 40.578125 54.546875 44.28125 53.078125 
" id="BitstreamVeraSans-Roman-73"/>
      <path d="M 9.8125 72.90625 
L 19.671875 72.90625 
L 19.671875 0 
L 9.8125 0 
z
" id="BitstreamVeraSans-Roman-49"/>
     </defs>
     <g transform="translate(185.4890625 402.609467822)scale(0.2 -0.2)">
      <use xlink:href="#BitstreamVeraSans-Roman-6c"/>
      <use x="27.783203125" xlink:href="#BitstreamVeraSans-Roman-6f"/>
      <use x="88.96484375" xlink:href="#BitstreamVeraSans-Roman-67"/>
      <use x="152.44140625" xlink:href="#BitstreamVeraSans-Roman-31"/>
      <use x="216.064453125" xlink:href="#BitstreamVeraSans-Roman-30"/>
      <use x="279.6875" xlink:href="#BitstreamVeraSans-Roman-20"/>
      <use x="311.474609375" xlink:href="#BitstreamVeraSans-Roman-6f"/>
      <use x="372.65625" xlink:href="#BitstreamVeraSans-Roman-66"/>
      <use x="407.861328125" xlink:href="#BitstreamVeraSans-Roman-20"/>
      <use x="439.6484375" xlink:href="#BitstreamVeraSans-Roman-46"/>
      <use x="497.16796875" xlink:href="#BitstreamVeraSans-Roman-45"/>
      <use x="560.3515625" xlink:href="#BitstreamVeraSans-Roman-76"/>
      <use x="619.53125" xlink:href="#BitstreamVeraSans-Roman-61"/>
      <use x="680.810546875" xlink:href="#BitstreamVeraSans-Roman-6c"/>
      <use x="708.59375" xlink:href="#BitstreamVeraSans-Roman-73"/>
      <use x="760.693359375" xlink:href="#BitstreamVeraSans-Roman-20"/>
      <use x="792.48046875" xlink:href="#BitstreamVeraSans-Roman-2f"/>
      <use x="826.171875" xlink:href="#BitstreamVeraSans-Roman-20"/>
      <use x="857.958984375" xlink:href="#BitstreamVeraSans-Roman-44"/>
      <use x="934.9609375" xlink:href="#BitstreamVeraSans-Roman-49"/>
      <use x="964.453125" xlink:href="#BitstreamVeraSans-Roman-4d"/>
     </g>
    </g>
   </g>
   <g id="matplotlib.axis_2">
    <g id="ytick_1">
     <g id="line2d_72">
      <path clip-path="url(#p9a3a3e2cb6)" d="M 67.3625 359.056343 
L 513.7625 359.056343 
" style="fill:none;stroke:#000000;stroke-dasharray:1.000000,3.000000;stroke-dashoffset:0.0;stroke-width:0.5;"/>
     </g>
     <g id="line2d_73">
      <defs>
       <path d="M 0 0 
L 4 0 
" id="mb24a38fb40" style="stroke:#000000;stroke-width:0.5;"/>
      </defs>
      <g>
       <use style="stroke:#000000;stroke-width:0.5;" x="67.3625" xlink:href="#mb24a38fb40" y="359.056342822"/>
      </g>
     </g>
     <g id="line2d_74">
      <defs>
       <path d="M 0 0 
L -4 0 
" id="mce6e899268" style="stroke:#000000;stroke-width:0.5;"/>
      </defs>
      <g>
       <use style="stroke:#000000;stroke-width:0.5;" x="513.7625" xlink:href="#mce6e899268" y="359.056342822"/>
      </g>
     </g>
     <g id="text_4">
      <!-- 0.0 -->
      <defs>
       <path d="M 10.6875 12.40625 
L 21 12.40625 
L 21 0 
L 10.6875 0 
z
" id="BitstreamVeraSans-Roman-2e"/>
      </defs>
      <g transform="translate(31.55625 364.575092822)scale(0.2 -0.2)">
       <use xlink:href="#BitstreamVeraSans-Roman-30"/>
       <use x="63.623046875" xlink:href="#BitstreamVeraSans-Roman-2e"/>
       <use x="95.41015625" xlink:href="#BitstreamVeraSans-Roman-30"/>
      </g>
     </g>
    </g>
    <g id="ytick_2">
     <g id="line2d_75">
      <path clip-path="url(#p9a3a3e2cb6)" d="M 67.3625 290.620699 
L 513.7625 290.620699 
" style="fill:none;stroke:#000000;stroke-dasharray:1.000000,3.000000;stroke-dashoffset:0.0;stroke-width:0.5;"/>
     </g>
     <g id="line2d_76">
      <g>
       <use style="stroke:#000000;stroke-width:0.5;" x="67.3625" xlink:href="#mb24a38fb40" y="290.620699257"/>
      </g>
     </g>
     <g id="line2d_77">
      <g>
       <use style="stroke:#000000;stroke-width:0.5;" x="513.7625" xlink:href="#mce6e899268" y="290.620699257"/>
      </g>
     </g>
     <g id="text_5">
      <!-- 0.2 -->
      <defs>
       <path d="M 19.1875 8.296875 
L 53.609375 8.296875 
L 53.609375 0 
L 7.328125 0 
L 7.328125 8.296875 
Q 12.9375 14.109375 22.625 23.890625 
Q 32.328125 33.6875 34.8125 36.53125 
Q 39.546875 41.84375 41.421875 45.53125 
Q 43.3125 49.21875 43.3125 52.78125 
Q 43.3125 58.59375 39.234375 62.25 
Q 35.15625 65.921875 28.609375 65.921875 
Q 23.96875 65.921875 18.8125 64.3125 
Q 13.671875 62.703125 7.8125 59.421875 
L 7.8125 69.390625 
Q 13.765625 71.78125 18.9375 73 
Q 24.125 74.21875 28.421875 74.21875 
Q 39.75 74.21875 46.484375 68.546875 
Q 53.21875 62.890625 53.21875 53.421875 
Q 53.21875 48.921875 51.53125 44.890625 
Q 49.859375 40.875 45.40625 35.40625 
Q 44.1875 33.984375 37.640625 27.21875 
Q 31.109375 20.453125 19.1875 8.296875 
" id="BitstreamVeraSans-Roman-32"/>
      </defs>
      <g transform="translate(31.55625 296.139449257)scale(0.2 -0.2)">
       <use xlink:href="#BitstreamVeraSans-Roman-30"/>
       <use x="63.623046875" xlink:href="#BitstreamVeraSans-Roman-2e"/>
       <use x="95.41015625" xlink:href="#BitstreamVeraSans-Roman-32"/>
      </g>
     </g>
    </g>
    <g id="ytick_3">
     <g id="line2d_78">
      <path clip-path="url(#p9a3a3e2cb6)" d="M 67.3625 222.185056 
L 513.7625 222.185056 
" style="fill:none;stroke:#000000;stroke-dasharray:1.000000,3.000000;stroke-dashoffset:0.0;stroke-width:0.5;"/>
     </g>
     <g id="line2d_79">
      <g>
       <use style="stroke:#000000;stroke-width:0.5;" x="67.3625" xlink:href="#mb24a38fb40" y="222.185055693"/>
      </g>
     </g>
     <g id="line2d_80">
      <g>
       <use style="stroke:#000000;stroke-width:0.5;" x="513.7625" xlink:href="#mce6e899268" y="222.185055693"/>
      </g>
     </g>
     <g id="text_6">
      <!-- 0.4 -->
      <defs>
       <path d="M 37.796875 64.3125 
L 12.890625 25.390625 
L 37.796875 25.390625 
z
M 35.203125 72.90625 
L 47.609375 72.90625 
L 47.609375 25.390625 
L 58.015625 25.390625 
L 58.015625 17.1875 
L 47.609375 17.1875 
L 47.609375 0 
L 37.796875 0 
L 37.796875 17.1875 
L 4.890625 17.1875 
L 4.890625 26.703125 
z
" id="BitstreamVeraSans-Roman-34"/>
      </defs>
      <g transform="translate(31.55625 227.703805693)scale(0.2 -0.2)">
       <use xlink:href="#BitstreamVeraSans-Roman-30"/>
       <use x="63.623046875" xlink:href="#BitstreamVeraSans-Roman-2e"/>
       <use x="95.41015625" xlink:href="#BitstreamVeraSans-Roman-34"/>
      </g>
     </g>
    </g>
    <g id="ytick_4">
     <g id="line2d_81">
      <path clip-path="url(#p9a3a3e2cb6)" d="M 67.3625 153.749412 
L 513.7625 153.749412 
" style="fill:none;stroke:#000000;stroke-dasharray:1.000000,3.000000;stroke-dashoffset:0.0;stroke-width:0.5;"/>
     </g>
     <g id="line2d_82">
      <g>
       <use style="stroke:#000000;stroke-width:0.5;" x="67.3625" xlink:href="#mb24a38fb40" y="153.749412129"/>
      </g>
     </g>
     <g id="line2d_83">
      <g>
       <use style="stroke:#000000;stroke-width:0.5;" x="513.7625" xlink:href="#mce6e899268" y="153.749412129"/>
      </g>
     </g>
     <g id="text_7">
      <!-- 0.6 -->
      <defs>
       <path d="M 33.015625 40.375 
Q 26.375 40.375 22.484375 35.828125 
Q 18.609375 31.296875 18.609375 23.390625 
Q 18.609375 15.53125 22.484375 10.953125 
Q 26.375 6.390625 33.015625 6.390625 
Q 39.65625 6.390625 43.53125 10.953125 
Q 47.40625 15.53125 47.40625 23.390625 
Q 47.40625 31.296875 43.53125 35.828125 
Q 39.65625 40.375 33.015625 40.375 
M 52.59375 71.296875 
L 52.59375 62.3125 
Q 48.875 64.0625 45.09375 64.984375 
Q 41.3125 65.921875 37.59375 65.921875 
Q 27.828125 65.921875 22.671875 59.328125 
Q 17.53125 52.734375 16.796875 39.40625 
Q 19.671875 43.65625 24.015625 45.921875 
Q 28.375 48.1875 33.59375 48.1875 
Q 44.578125 48.1875 50.953125 41.515625 
Q 57.328125 34.859375 57.328125 23.390625 
Q 57.328125 12.15625 50.6875 5.359375 
Q 44.046875 -1.421875 33.015625 -1.421875 
Q 20.359375 -1.421875 13.671875 8.265625 
Q 6.984375 17.96875 6.984375 36.375 
Q 6.984375 53.65625 15.1875 63.9375 
Q 23.390625 74.21875 37.203125 74.21875 
Q 40.921875 74.21875 44.703125 73.484375 
Q 48.484375 72.75 52.59375 71.296875 
" id="BitstreamVeraSans-Roman-36"/>
      </defs>
      <g transform="translate(31.55625 159.268162129)scale(0.2 -0.2)">
       <use xlink:href="#BitstreamVeraSans-Roman-30"/>
       <use x="63.623046875" xlink:href="#BitstreamVeraSans-Roman-2e"/>
       <use x="95.41015625" xlink:href="#BitstreamVeraSans-Roman-36"/>
      </g>
     </g>
    </g>
    <g id="ytick_5">
     <g id="line2d_84">
      <path clip-path="url(#p9a3a3e2cb6)" d="M 67.3625 85.313769 
L 513.7625 85.313769 
" style="fill:none;stroke:#000000;stroke-dasharray:1.000000,3.000000;stroke-dashoffset:0.0;stroke-width:0.5;"/>
     </g>
     <g id="line2d_85">
      <g>
       <use style="stroke:#000000;stroke-width:0.5;" x="67.3625" xlink:href="#mb24a38fb40" y="85.3137685644"/>
      </g>
     </g>
     <g id="line2d_86">
      <g>
       <use style="stroke:#000000;stroke-width:0.5;" x="513.7625" xlink:href="#mce6e899268" y="85.3137685644"/>
      </g>
     </g>
     <g id="text_8">
      <!-- 0.8 -->
      <defs>
       <path d="M 31.78125 34.625 
Q 24.75 34.625 20.71875 30.859375 
Q 16.703125 27.09375 16.703125 20.515625 
Q 16.703125 13.921875 20.71875 10.15625 
Q 24.75 6.390625 31.78125 6.390625 
Q 38.8125 6.390625 42.859375 10.171875 
Q 46.921875 13.96875 46.921875 20.515625 
Q 46.921875 27.09375 42.890625 30.859375 
Q 38.875 34.625 31.78125 34.625 
M 21.921875 38.8125 
Q 15.578125 40.375 12.03125 44.71875 
Q 8.5 49.078125 8.5 55.328125 
Q 8.5 64.0625 14.71875 69.140625 
Q 20.953125 74.21875 31.78125 74.21875 
Q 42.671875 74.21875 48.875 69.140625 
Q 55.078125 64.0625 55.078125 55.328125 
Q 55.078125 49.078125 51.53125 44.71875 
Q 48 40.375 41.703125 38.8125 
Q 48.828125 37.15625 52.796875 32.3125 
Q 56.78125 27.484375 56.78125 20.515625 
Q 56.78125 9.90625 50.3125 4.234375 
Q 43.84375 -1.421875 31.78125 -1.421875 
Q 19.734375 -1.421875 13.25 4.234375 
Q 6.78125 9.90625 6.78125 20.515625 
Q 6.78125 27.484375 10.78125 32.3125 
Q 14.796875 37.15625 21.921875 38.8125 
M 18.3125 54.390625 
Q 18.3125 48.734375 21.84375 45.5625 
Q 25.390625 42.390625 31.78125 42.390625 
Q 38.140625 42.390625 41.71875 45.5625 
Q 45.3125 48.734375 45.3125 54.390625 
Q 45.3125 60.0625 41.71875 63.234375 
Q 38.140625 66.40625 31.78125 66.40625 
Q 25.390625 66.40625 21.84375 63.234375 
Q 18.3125 60.0625 18.3125 54.390625 
" id="BitstreamVeraSans-Roman-38"/>
      </defs>
      <g transform="translate(31.55625 90.8325185644)scale(0.2 -0.2)">
       <use xlink:href="#BitstreamVeraSans-Roman-30"/>
       <use x="63.623046875" xlink:href="#BitstreamVeraSans-Roman-2e"/>
       <use x="95.41015625" xlink:href="#BitstreamVeraSans-Roman-38"/>
      </g>
     </g>
    </g>
    <g id="ytick_6">
     <g id="line2d_87">
      <path clip-path="url(#p9a3a3e2cb6)" d="M 67.3625 16.878125 
L 513.7625 16.878125 
" style="fill:none;stroke:#000000;stroke-dasharray:1.000000,3.000000;stroke-dashoffset:0.0;stroke-width:0.5;"/>
     </g>
     <g id="line2d_88">
      <g>
       <use style="stroke:#000000;stroke-width:0.5;" x="67.3625" xlink:href="#mb24a38fb40" y="16.878125"/>
      </g>
     </g>
     <g id="line2d_89">
      <g>
       <use style="stroke:#000000;stroke-width:0.5;" x="513.7625" xlink:href="#mce6e899268" y="16.878125"/>
      </g>
     </g>
     <g id="text_9">
      <!-- 1.0 -->
      <g transform="translate(31.55625 22.396875)scale(0.2 -0.2)">
       <use xlink:href="#BitstreamVeraSans-Roman-31"/>
       <use x="63.623046875" xlink:href="#BitstreamVeraSans-Roman-2e"/>
       <use x="95.41015625" xlink:href="#BitstreamVeraSans-Roman-30"/>
      </g>
     </g>
    </g>
    <g id="text_10">
     <!-- proportion of trials -->
     <defs>
      <path d="M 54.890625 33.015625 
L 54.890625 0 
L 45.90625 0 
L 45.90625 32.71875 
Q 45.90625 40.484375 42.875 44.328125 
Q 39.84375 48.1875 33.796875 48.1875 
Q 26.515625 48.1875 22.3125 43.546875 
Q 18.109375 38.921875 18.109375 30.90625 
L 18.109375 0 
L 9.078125 0 
L 9.078125 54.6875 
L 18.109375 54.6875 
L 18.109375 46.1875 
Q 21.34375 51.125 25.703125 53.5625 
Q 30.078125 56 35.796875 56 
Q 45.21875 56 50.046875 50.171875 
Q 54.890625 44.34375 54.890625 33.015625 
" id="BitstreamVeraSans-Roman-6e"/>
      <path d="M 9.421875 54.6875 
L 18.40625 54.6875 
L 18.40625 0 
L 9.421875 0 
z
M 9.421875 75.984375 
L 18.40625 75.984375 
L 18.40625 64.59375 
L 9.421875 64.59375 
z
" id="BitstreamVeraSans-Roman-69"/>
      <path d="M 18.3125 70.21875 
L 18.3125 54.6875 
L 36.8125 54.6875 
L 36.8125 47.703125 
L 18.3125 47.703125 
L 18.3125 18.015625 
Q 18.3125 11.328125 20.140625 9.421875 
Q 21.96875 7.515625 27.59375 7.515625 
L 36.8125 7.515625 
L 36.8125 0 
L 27.59375 0 
Q 17.1875 0 13.234375 3.875 
Q 9.28125 7.765625 9.28125 18.015625 
L 9.28125 47.703125 
L 2.6875 47.703125 
L 2.6875 54.6875 
L 9.28125 54.6875 
L 9.28125 70.21875 
z
" id="BitstreamVeraSans-Roman-74"/>
      <path d="M 41.109375 46.296875 
Q 39.59375 47.171875 37.8125 47.578125 
Q 36.03125 48 33.890625 48 
Q 26.265625 48 22.1875 43.046875 
Q 18.109375 38.09375 18.109375 28.8125 
L 18.109375 0 
L 9.078125 0 
L 9.078125 54.6875 
L 18.109375 54.6875 
L 18.109375 46.1875 
Q 20.953125 51.171875 25.484375 53.578125 
Q 30.03125 56 36.53125 56 
Q 37.453125 56 38.578125 55.875 
Q 39.703125 55.765625 41.0625 55.515625 
z
" id="BitstreamVeraSans-Roman-72"/>
      <path d="M 18.109375 8.203125 
L 18.109375 -20.796875 
L 9.078125 -20.796875 
L 9.078125 54.6875 
L 18.109375 54.6875 
L 18.109375 46.390625 
Q 20.953125 51.265625 25.265625 53.625 
Q 29.59375 56 35.59375 56 
Q 45.5625 56 51.78125 48.09375 
Q 58.015625 40.1875 58.015625 27.296875 
Q 58.015625 14.40625 51.78125 6.484375 
Q 45.5625 -1.421875 35.59375 -1.421875 
Q 29.59375 -1.421875 25.265625 0.953125 
Q 20.953125 3.328125 18.109375 8.203125 
M 48.6875 27.296875 
Q 48.6875 37.203125 44.609375 42.84375 
Q 40.53125 48.484375 33.40625 48.484375 
Q 26.265625 48.484375 22.1875 42.84375 
Q 18.109375 37.203125 18.109375 27.296875 
Q 18.109375 17.390625 22.1875 11.75 
Q 26.265625 6.109375 33.40625 6.109375 
Q 40.53125 6.109375 44.609375 11.75 
Q 48.6875 17.390625 48.6875 27.296875 
" id="BitstreamVeraSans-Roman-70"/>
     </defs>
     <g transform="translate(22.396875 279.484467822)rotate(-90.0)scale(0.2 -0.2)">
      <use xlink:href="#BitstreamVeraSans-Roman-70"/>
      <use x="63.4765625" xlink:href="#BitstreamVeraSans-Roman-72"/>
      <use x="104.55859375" xlink:href="#BitstreamVeraSans-Roman-6f"/>
      <use x="165.740234375" xlink:href="#BitstreamVeraSans-Roman-70"/>
      <use x="229.216796875" xlink:href="#BitstreamVeraSans-Roman-6f"/>
      <use x="290.3984375" xlink:href="#BitstreamVeraSans-Roman-72"/>
      <use x="331.51171875" xlink:href="#BitstreamVeraSans-Roman-74"/>
      <use x="370.720703125" xlink:href="#BitstreamVeraSans-Roman-69"/>
      <use x="398.50390625" xlink:href="#BitstreamVeraSans-Roman-6f"/>
      <use x="459.685546875" xlink:href="#BitstreamVeraSans-Roman-6e"/>
      <use x="523.064453125" xlink:href="#BitstreamVeraSans-Roman-20"/>
      <use x="554.8515625" xlink:href="#BitstreamVeraSans-Roman-6f"/>
      <use x="616.033203125" xlink:href="#BitstreamVeraSans-Roman-66"/>
      <use x="651.23828125" xlink:href="#BitstreamVeraSans-Roman-20"/>
      <use x="683.025390625" xlink:href="#BitstreamVeraSans-Roman-74"/>
      <use x="722.234375" xlink:href="#BitstreamVeraSans-Roman-72"/>
      <use x="763.34765625" xlink:href="#BitstreamVeraSans-Roman-69"/>
      <use x="791.130859375" xlink:href="#BitstreamVeraSans-Roman-61"/>
      <use x="852.41015625" xlink:href="#BitstreamVeraSans-Roman-6c"/>
      <use x="880.193359375" xlink:href="#BitstreamVeraSans-Roman-73"/>
     </g>
    </g>
   </g>
   <g id="text_11">
    <!-- {f1-f24}, 20-D -->
    <defs>
     <path d="M 11.71875 12.40625 
L 22.015625 12.40625 
L 22.015625 4 
L 14.015625 -11.625 
L 7.71875 -11.625 
L 11.71875 4 
z
" id="BitstreamVeraSans-Roman-2c"/>
     <path d="M 12.5 -9.28125 
L 15.921875 -9.28125 
Q 22.75 -9.28125 24.828125 -7.171875 
Q 26.90625 -5.078125 26.90625 1.90625 
L 26.90625 14.015625 
Q 26.90625 21.625 29.09375 25.09375 
Q 31.296875 28.5625 36.71875 29.890625 
Q 31.296875 31.109375 29.09375 34.5625 
Q 26.90625 38.03125 26.90625 45.703125 
L 26.90625 57.8125 
Q 26.90625 64.75 24.828125 66.875 
Q 22.75 69 15.921875 69 
L 12.5 69 
L 12.5 75.984375 
L 15.578125 75.984375 
Q 27.734375 75.984375 31.8125 72.390625 
Q 35.890625 68.796875 35.890625 58.015625 
L 35.890625 46.296875 
Q 35.890625 39.015625 38.515625 36.203125 
Q 41.15625 33.40625 48.09375 33.40625 
L 51.125 33.40625 
L 51.125 26.421875 
L 48.09375 26.421875 
Q 41.15625 26.421875 38.515625 23.578125 
Q 35.890625 20.75 35.890625 13.375 
L 35.890625 1.703125 
Q 35.890625 -9.078125 31.8125 -12.6875 
Q 27.734375 -16.3125 15.578125 -16.3125 
L 12.5 -16.3125 
z
" id="BitstreamVeraSans-Roman-7d"/>
     <path d="M 51.125 -9.28125 
L 51.125 -16.3125 
L 48.09375 -16.3125 
Q 35.9375 -16.3125 31.8125 -12.6875 
Q 27.6875 -9.078125 27.6875 1.703125 
L 27.6875 13.375 
Q 27.6875 20.75 25.046875 23.578125 
Q 22.40625 26.421875 15.484375 26.421875 
L 12.5 26.421875 
L 12.5 33.40625 
L 15.484375 33.40625 
Q 22.46875 33.40625 25.078125 36.203125 
Q 27.6875 39.015625 27.6875 46.296875 
L 27.6875 58.015625 
Q 27.6875 68.796875 31.8125 72.390625 
Q 35.9375 75.984375 48.09375 75.984375 
L 51.125 75.984375 
L 51.125 69 
L 47.796875 69 
Q 40.921875 69 38.8125 66.84375 
Q 36.71875 64.703125 36.71875 57.8125 
L 36.71875 45.703125 
Q 36.71875 38.03125 34.5 34.5625 
Q 32.28125 31.109375 26.90625 29.890625 
Q 32.328125 28.5625 34.515625 25.09375 
Q 36.71875 21.625 36.71875 14.015625 
L 36.71875 1.90625 
Q 36.71875 -4.984375 38.8125 -7.125 
Q 40.921875 -9.28125 47.796875 -9.28125 
z
" id="BitstreamVeraSans-Roman-7b"/>
     <path d="M 4.890625 31.390625 
L 31.203125 31.390625 
L 31.203125 23.390625 
L 4.890625 23.390625 
z
" id="BitstreamVeraSans-Roman-2d"/>
    </defs>
    <g transform="translate(217.7125 35.5652178218)scale(0.2 -0.2)">
     <use xlink:href="#BitstreamVeraSans-Roman-7b"/>
     <use x="63.623046875" xlink:href="#BitstreamVeraSans-Roman-66"/>
     <use x="98.828125" xlink:href="#BitstreamVeraSans-Roman-31"/>
     <use x="162.451171875" xlink:href="#BitstreamVeraSans-Roman-2d"/>
     <use x="198.53515625" xlink:href="#BitstreamVeraSans-Roman-66"/>
     <use x="233.740234375" xlink:href="#BitstreamVeraSans-Roman-32"/>
     <use x="297.36328125" xlink:href="#BitstreamVeraSans-Roman-34"/>
     <use x="360.986328125" xlink:href="#BitstreamVeraSans-Roman-7d"/>
     <use x="424.609375" xlink:href="#BitstreamVeraSans-Roman-2c"/>
     <use x="456.396484375" xlink:href="#BitstreamVeraSans-Roman-20"/>
     <use x="488.18359375" xlink:href="#BitstreamVeraSans-Roman-32"/>
     <use x="551.806640625" xlink:href="#BitstreamVeraSans-Roman-30"/>
     <use x="615.4296875" xlink:href="#BitstreamVeraSans-Roman-2d"/>
     <use x="651.513671875" xlink:href="#BitstreamVeraSans-Roman-44"/>
    </g>
   </g>
   <g id="text_12">
    <!-- absolute targets -->
    <defs>
     <path d="M 56.203125 29.59375 
L 56.203125 25.203125 
L 14.890625 25.203125 
Q 15.484375 15.921875 20.484375 11.0625 
Q 25.484375 6.203125 34.421875 6.203125 
Q 39.59375 6.203125 44.453125 7.46875 
Q 49.3125 8.734375 54.109375 11.28125 
L 54.109375 2.78125 
Q 49.265625 0.734375 44.1875 -0.34375 
Q 39.109375 -1.421875 33.890625 -1.421875 
Q 20.796875 -1.421875 13.15625 6.1875 
Q 5.515625 13.8125 5.515625 26.8125 
Q 5.515625 40.234375 12.765625 48.109375 
Q 20.015625 56 32.328125 56 
Q 43.359375 56 49.78125 48.890625 
Q 56.203125 41.796875 56.203125 29.59375 
M 47.21875 32.234375 
Q 47.125 39.59375 43.09375 43.984375 
Q 39.0625 48.390625 32.421875 48.390625 
Q 24.90625 48.390625 20.390625 44.140625 
Q 15.875 39.890625 15.1875 32.171875 
z
" id="BitstreamVeraSans-Roman-65"/>
     <path d="M 8.5 21.578125 
L 8.5 54.6875 
L 17.484375 54.6875 
L 17.484375 21.921875 
Q 17.484375 14.15625 20.5 10.265625 
Q 23.53125 6.390625 29.59375 6.390625 
Q 36.859375 6.390625 41.078125 11.03125 
Q 45.3125 15.671875 45.3125 23.6875 
L 45.3125 54.6875 
L 54.296875 54.6875 
L 54.296875 0 
L 45.3125 0 
L 45.3125 8.40625 
Q 42.046875 3.421875 37.71875 1 
Q 33.40625 -1.421875 27.6875 -1.421875 
Q 18.265625 -1.421875 13.375 4.4375 
Q 8.5 10.296875 8.5 21.578125 
" id="BitstreamVeraSans-Roman-75"/>
     <path d="M 48.6875 27.296875 
Q 48.6875 37.203125 44.609375 42.84375 
Q 40.53125 48.484375 33.40625 48.484375 
Q 26.265625 48.484375 22.1875 42.84375 
Q 18.109375 37.203125 18.109375 27.296875 
Q 18.109375 17.390625 22.1875 11.75 
Q 26.265625 6.109375 33.40625 6.109375 
Q 40.53125 6.109375 44.609375 11.75 
Q 48.6875 17.390625 48.6875 27.296875 
M 18.109375 46.390625 
Q 20.953125 51.265625 25.265625 53.625 
Q 29.59375 56 35.59375 56 
Q 45.5625 56 51.78125 48.09375 
Q 58.015625 40.1875 58.015625 27.296875 
Q 58.015625 14.40625 51.78125 6.484375 
Q 45.5625 -1.421875 35.59375 -1.421875 
Q 29.59375 -1.421875 25.265625 0.953125 
Q 20.953125 3.328125 18.109375 8.203125 
L 18.109375 0 
L 9.078125 0 
L 9.078125 75.984375 
L 18.109375 75.984375 
z
" id="BitstreamVeraSans-Roman-62"/>
    </defs>
    <g transform="translate(67.3625 359.056342822)scale(0.14 -0.14)">
     <use xlink:href="#BitstreamVeraSans-Roman-61"/>
     <use x="61.279296875" xlink:href="#BitstreamVeraSans-Roman-62"/>
     <use x="124.755859375" xlink:href="#BitstreamVeraSans-Roman-73"/>
     <use x="176.85546875" xlink:href="#BitstreamVeraSans-Roman-6f"/>
     <use x="238.037109375" xlink:href="#BitstreamVeraSans-Roman-6c"/>
     <use x="265.8203125" xlink:href="#BitstreamVeraSans-Roman-75"/>
     <use x="329.19921875" xlink:href="#BitstreamVeraSans-Roman-74"/>
     <use x="368.408203125" xlink:href="#BitstreamVeraSans-Roman-65"/>
     <use x="429.931640625" xlink:href="#BitstreamVeraSans-Roman-20"/>
     <use x="461.71875" xlink:href="#BitstreamVeraSans-Roman-74"/>
     <use x="500.927734375" xlink:href="#BitstreamVeraSans-Roman-61"/>
     <use x="562.20703125" xlink:href="#BitstreamVeraSans-Roman-72"/>
     <use x="603.3046875" xlink:href="#BitstreamVeraSans-Roman-67"/>
     <use x="666.78125" xlink:href="#BitstreamVeraSans-Roman-65"/>
     <use x="728.3046875" xlink:href="#BitstreamVeraSans-Roman-74"/>
     <use x="767.513671875" xlink:href="#BitstreamVeraSans-Roman-73"/>
    </g>
   </g>
   <g id="text_13">
    <!-- 0.0.0 -->
    <g style="fill:#808080;" transform="translate(277.840625 353.520655322)scale(0.1 -0.1)">
     <use xlink:href="#BitstreamVeraSans-Roman-30"/>
     <use x="63.623046875" xlink:href="#BitstreamVeraSans-Roman-2e"/>
     <use x="95.41015625" xlink:href="#BitstreamVeraSans-Roman-30"/>
     <use x="159.033203125" xlink:href="#BitstreamVeraSans-Roman-2e"/>
     <use x="190.8203125" xlink:href="#BitstreamVeraSans-Roman-30"/>
    </g>
   </g>
   <g id="legend_1">
    <g id="patch_7">
     <path d="M 353.815625 146.881343 
L 503.7625 146.881343 
L 503.7625 23.456343 
L 353.815625 23.456343 
z
" style="fill:#ffffff;opacity:0.2;stroke:#000000;stroke-linejoin:miter;"/>
    </g>
    <g id="line2d_90">
     <path d="M 367.815625 39.653218 
L 395.815625 39.653218 
" style="fill:none;stroke:#000000;stroke-linecap:square;"/>
    </g>
    <g id="line2d_91"/>
    <g id="text_14">
     <!-- 1: 7/24 -->
     <defs>
      <path d="M 11.71875 12.40625 
L 22.015625 12.40625 
L 22.015625 0 
L 11.71875 0 
z
M 11.71875 51.703125 
L 22.015625 51.703125 
L 22.015625 39.3125 
L 11.71875 39.3125 
z
" id="BitstreamVeraSans-Roman-3a"/>
      <path d="M 8.203125 72.90625 
L 55.078125 72.90625 
L 55.078125 68.703125 
L 28.609375 0 
L 18.3125 0 
L 43.21875 64.59375 
L 8.203125 64.59375 
z
" id="BitstreamVeraSans-Roman-37"/>
     </defs>
     <g transform="translate(417.815625 46.6532178218)scale(0.2 -0.2)">
      <use xlink:href="#BitstreamVeraSans-Roman-31"/>
      <use x="63.623046875" xlink:href="#BitstreamVeraSans-Roman-3a"/>
      <use x="97.314453125" xlink:href="#BitstreamVeraSans-Roman-20"/>
      <use x="129.1015625" xlink:href="#BitstreamVeraSans-Roman-37"/>
      <use x="192.724609375" xlink:href="#BitstreamVeraSans-Roman-2f"/>
      <use x="226.416015625" xlink:href="#BitstreamVeraSans-Roman-32"/>
      <use x="290.0390625" xlink:href="#BitstreamVeraSans-Roman-34"/>
     </g>
    </g>
    <g id="line2d_92">
     <path d="M 367.815625 69.009468 
L 395.815625 69.009468 
" style="fill:none;stroke:#00bfbf;stroke-linecap:square;"/>
    </g>
    <g id="line2d_93"/>
    <g id="text_15">
     <!-- -1: 1/24 -->
     <g transform="translate(417.815625 76.0094678218)scale(0.2 -0.2)">
      <use xlink:href="#BitstreamVeraSans-Roman-2d"/>
      <use x="36.083984375" xlink:href="#BitstreamVeraSans-Roman-31"/>
      <use x="99.70703125" xlink:href="#BitstreamVeraSans-Roman-3a"/>
      <use x="133.3984375" xlink:href="#BitstreamVeraSans-Roman-20"/>
      <use x="165.185546875" xlink:href="#BitstreamVeraSans-Roman-31"/>
      <use x="228.80859375" xlink:href="#BitstreamVeraSans-Roman-2f"/>
      <use x="262.5" xlink:href="#BitstreamVeraSans-Roman-32"/>
      <use x="326.123046875" xlink:href="#BitstreamVeraSans-Roman-34"/>
     </g>
    </g>
    <g id="line2d_94">
     <path d="M 367.815625 98.365718 
L 395.815625 98.365718 
" style="fill:none;stroke:#bf00bf;stroke-linecap:square;"/>
    </g>
    <g id="line2d_95"/>
    <g id="text_16">
     <!-- -4: 1/24 -->
     <g transform="translate(417.815625 105.365717822)scale(0.2 -0.2)">
      <use xlink:href="#BitstreamVeraSans-Roman-2d"/>
      <use x="36.083984375" xlink:href="#BitstreamVeraSans-Roman-34"/>
      <use x="99.70703125" xlink:href="#BitstreamVeraSans-Roman-3a"/>
      <use x="133.3984375" xlink:href="#BitstreamVeraSans-Roman-20"/>
      <use x="165.185546875" xlink:href="#BitstreamVeraSans-Roman-31"/>
      <use x="228.80859375" xlink:href="#BitstreamVeraSans-Roman-2f"/>
      <use x="262.5" xlink:href="#BitstreamVeraSans-Roman-32"/>
      <use x="326.123046875" xlink:href="#BitstreamVeraSans-Roman-34"/>
     </g>
    </g>
    <g id="line2d_96">
     <path d="M 367.815625 127.721968 
L 395.815625 127.721968 
" style="fill:none;stroke:#ff0000;stroke-linecap:square;stroke-width:3.0;"/>
    </g>
    <g id="line2d_97"/>
    <g id="text_17">
     <!-- -8: 1/24 -->
     <g transform="translate(417.815625 134.721967822)scale(0.2 -0.2)">
      <use xlink:href="#BitstreamVeraSans-Roman-2d"/>
      <use x="36.083984375" xlink:href="#BitstreamVeraSans-Roman-38"/>
      <use x="99.70703125" xlink:href="#BitstreamVeraSans-Roman-3a"/>
      <use x="133.3984375" xlink:href="#BitstreamVeraSans-Roman-20"/>
      <use x="165.185546875" xlink:href="#BitstreamVeraSans-Roman-31"/>
      <use x="228.80859375" xlink:href="#BitstreamVeraSans-Roman-2f"/>
      <use x="262.5" xlink:href="#BitstreamVeraSans-Roman-32"/>
      <use x="326.123046875" xlink:href="#BitstreamVeraSans-Roman-34"/>
     </g>
    </g>
   </g>
  </g>
 </g>
 <defs>
  <clipPath id="p9a3a3e2cb6">
   <rect height="345.6" width="446.4" x="67.3625" y="13.4563428218"/>
  </clipPath>
 </defs>
</svg>
