<?xml version="1.0" encoding="utf-8" standalone="no"?>
<!DOCTYPE svg PUBLIC "-//W3C//DTD SVG 1.1//EN"
  "http://www.w3.org/Graphics/SVG/1.1/DTD/svg11.dtd">
<!-- Created with matplotlib (http://matplotlib.org/) -->
<svg height="407pt" version="1.1" viewBox="0 0 460 407" width="460pt" xmlns="http://www.w3.org/2000/svg" xmlns:xlink="http://www.w3.org/1999/xlink">
 <defs>
  <style type="text/css">
*{stroke-linecap:butt;stroke-linejoin:round;stroke-miterlimit:100000;}
  </style>
 </defs>
 <g id="figure_1">
  <g id="patch_1">
   <path d="M 0 407.7125 
L 460.8 407.7125 
L 460.8 0 
L 0 0 
z
" style="fill:#ffffff;"/>
  </g>
  <g id="axes_1">
   <g id="patch_2">
    <path d="M 7.2 352.8 
L 453.6 352.8 
L 453.6 7.2 
L 7.2 7.2 
z
" style="fill:#ffffff;"/>
   </g>
   <g id="line2d_1">
    <path clip-path="url(#pab71059512)" d="M 128.03704 352.8 
L 128.03704 347.09703 
L 148.90393 347.09703 
L 148.90393 341.394059 
L 149.00906 341.394059 
L 149.00906 335.691089 
L 151.859533 335.691089 
L 151.859533 329.988119 
L 156.974396 329.988119 
L 156.974396 324.285149 
L 165.315511 324.285149 
L 165.315511 318.582178 
L 169.87165 318.582178 
L 169.87165 312.879208 
L 177.838901 312.879208 
L 177.838901 307.176238 
L 181.803559 307.176238 
L 181.803559 301.473267 
L 181.916859 301.473267 
L 181.916859 295.770297 
L 183.57755 295.770297 
L 183.57755 290.067327 
L 186.058796 290.067327 
L 186.058796 284.364356 
L 190.100133 284.364356 
L 190.100133 278.661386 
L 191.531789 278.661386 
L 191.531789 272.958416 
L 194.077585 272.958416 
L 194.077585 267.255446 
L 194.563448 267.255446 
L 194.563448 261.552475 
L 194.80044 261.552475 
L 194.80044 255.849505 
L 195.20733 255.849505 
L 195.20733 250.146535 
L 196.745334 250.146535 
L 196.745334 244.443564 
L 197.159187 244.443564 
L 197.159187 238.740594 
L 199.52857 238.740594 
L 199.52857 233.037624 
L 199.788793 233.037624 
L 199.788793 227.334653 
L 201.090037 227.334653 
L 201.090037 221.631683 
L 203.169182 221.631683 
L 203.169182 215.928713 
L 208.250866 215.928713 
L 208.250866 210.225743 
L 209.917623 210.225743 
L 209.917623 204.522772 
L 210.171029 204.522772 
L 210.171029 198.819802 
L 211.241035 198.819802 
L 211.241035 193.116832 
L 211.479525 193.116832 
L 211.479525 187.413861 
L 213.532606 187.413861 
L 213.532606 181.710891 
L 214.031084 181.710891 
L 214.031084 176.007921 
L 214.376765 176.007921 
L 214.376765 170.30495 
L 214.529002 170.30495 
L 214.529002 164.60198 
L 214.594253 164.60198 
L 214.594253 158.89901 
L 214.722907 158.89901 
L 214.722907 153.19604 
L 214.88644 153.19604 
L 214.88644 147.493069 
L 214.927216 147.493069 
L 214.927216 141.790099 
L 215.031016 141.790099 
L 215.031016 136.087129 
L 215.771186 136.087129 
L 215.771186 130.384158 
L 216.673279 130.384158 
L 216.673279 124.681188 
L 216.749277 124.681188 
L 216.749277 118.978218 
L 216.780097 118.978218 
L 216.780097 113.275248 
L 217.058308 113.275248 
L 217.058308 107.572277 
L 217.09169 107.572277 
L 217.09169 101.869307 
L 217.71348 101.869307 
L 217.71348 96.166337 
L 217.752438 96.166337 
L 217.752438 90.463366 
L 217.803689 90.463366 
L 217.803689 84.760396 
L 219.828743 84.760396 
L 219.828743 79.057426 
L 220.312204 79.057426 
L 220.312204 73.354455 
L 220.333336 73.354455 
L 220.333336 67.651485 
L 221.016631 67.651485 
L 221.016631 61.948515 
L 221.456924 61.948515 
L 221.456924 56.245545 
L 221.548063 56.245545 
L 221.548063 50.542574 
L 222.069289 50.542574 
L 222.069289 44.839604 
L 222.149288 44.839604 
L 222.149288 39.136634 
L 222.226325 39.136634 
L 222.226325 33.433663 
L 234.377168 33.433663 
L 234.377168 27.730693 
L 254.457945 27.730693 
L 254.457945 22.027723 
L 259.101203 22.027723 
L 259.101203 16.324752 
L 262.594714 16.324752 
L 262.594714 10.621782 
L 262.594714 10.621782 
L 262.594714 10.621782 
L 453.6 10.621782 
" style="fill:none;stroke:#ff0000;stroke-linecap:square;stroke-width:3.0;"/>
   </g>
   <g id="line2d_2">
    <path clip-path="url(#pab71059512)" d="M 254.380985 352.8 
L 254.380985 347.09703 
L 260.169839 347.09703 
L 260.169839 341.394059 
L 260.907006 341.394059 
L 260.907006 335.691089 
L 263.341724 335.691089 
L 263.341724 329.988119 
L 267.234524 329.988119 
L 267.234524 324.285149 
L 268.141468 324.285149 
L 268.141468 318.582178 
L 269.010234 318.582178 
L 269.010234 312.879208 
L 273.7287 312.879208 
L 273.7287 307.176238 
L 275.081784 307.176238 
L 275.081784 301.473267 
L 275.206764 301.473267 
L 275.206764 295.770297 
L 277.190066 295.770297 
L 277.190066 290.067327 
L 279.253444 290.067327 
L 279.253444 284.364356 
L 279.316639 284.364356 
L 279.316639 278.661386 
L 281.882097 278.661386 
L 281.882097 272.958416 
L 281.915873 272.958416 
L 281.915873 267.255446 
L 283.489059 267.255446 
L 283.489059 261.552475 
L 298.015321 261.552475 
L 298.015321 255.849505 
L 298.134224 255.849505 
L 298.134224 250.146535 
L 303.880953 250.146535 
L 303.880953 244.443564 
L 309.699299 244.443564 
L 309.699299 238.740594 
L 311.133402 238.740594 
L 311.133402 233.037624 
L 311.650934 233.037624 
L 311.650934 227.334653 
L 314.759582 227.334653 
L 314.759582 221.631683 
L 317.452819 221.631683 
L 317.452819 215.928713 
L 319.139892 215.928713 
L 319.139892 210.225743 
L 322.227373 210.225743 
L 322.227373 204.522772 
L 323.246592 204.522772 
L 323.246592 198.819802 
L 323.723996 198.819802 
L 323.723996 193.116832 
L 324.581311 193.116832 
L 324.581311 187.413861 
L 325.825841 187.413861 
L 325.825841 181.710891 
L 326.915785 181.710891 
L 326.915785 176.007921 
L 328.628255 176.007921 
L 328.628255 170.30495 
L 331.80554 170.30495 
L 331.80554 164.60198 
L 332.960989 164.60198 
L 332.960989 158.89901 
L 334.648273 158.89901 
L 334.648273 153.19604 
L 334.962846 153.19604 
L 334.962846 147.493069 
L 335.766887 147.493069 
L 335.766887 141.790099 
L 336.516525 141.790099 
L 336.516525 136.087129 
L 336.884715 136.087129 
L 336.884715 130.384158 
L 336.998174 130.384158 
L 336.998174 124.681188 
L 338.083211 124.681188 
L 338.083211 118.978218 
L 338.17637 118.978218 
L 338.17637 113.275248 
L 339.254343 113.275248 
L 339.254343 107.572277 
L 340.407447 107.572277 
L 340.407447 101.869307 
L 340.896966 101.869307 
L 340.896966 96.166337 
L 341.07648 96.166337 
L 341.07648 90.463366 
L 341.852988 90.463366 
L 341.852988 84.760396 
L 342.963361 84.760396 
L 342.963361 79.057426 
L 343.669633 79.057426 
L 343.669633 73.354455 
L 343.933315 73.354455 
L 343.933315 67.651485 
L 345.093048 67.651485 
L 345.093048 61.948515 
L 345.424681 61.948515 
L 345.424681 56.245545 
L 347.684383 56.245545 
L 347.684383 50.542574 
L 349.062242 50.542574 
L 349.062242 44.839604 
L 351.125831 44.839604 
L 351.125831 39.136634 
L 352.167713 39.136634 
L 352.167713 33.433663 
L 357.120539 33.433663 
L 357.120539 27.730693 
L 359.993846 27.730693 
L 359.993846 22.027723 
L 361.330064 22.027723 
L 361.330064 16.324752 
L 365.358095 16.324752 
L 365.358095 10.621782 
L 365.358095 10.621782 
L 365.358095 10.621782 
L 453.6 10.621782 
" style="fill:none;stroke:#00bfbf;stroke-linecap:square;"/>
   </g>
   <g id="line2d_3">
    <path clip-path="url(#pab71059512)" d="M 246.464934 352.8 
L 246.464934 347.09703 
L 248.804346 347.09703 
L 248.804346 341.394059 
L 254.380985 341.394059 
L 254.380985 335.691089 
L 258.086748 335.691089 
L 258.086748 329.988119 
L 258.997694 329.988119 
L 258.997694 324.285149 
L 259.041658 324.285149 
L 259.041658 318.582178 
L 260.169839 318.582178 
L 260.169839 312.879208 
L 260.907006 312.879208 
L 260.907006 307.176238 
L 262.187595 307.176238 
L 262.187595 301.473267 
L 262.222436 301.473267 
L 262.222436 295.770297 
L 263.475137 295.770297 
L 263.475137 290.067327 
L 264.658269 290.067327 
L 264.658269 284.364356 
L 269.010234 284.364356 
L 269.010234 278.661386 
L 273.716891 278.661386 
L 273.716891 272.958416 
L 279.316639 272.958416 
L 279.316639 267.255446 
L 280.036783 267.255446 
L 280.036783 261.552475 
L 292.040553 261.552475 
L 292.040553 255.849505 
L 294.419807 255.849505 
L 294.419807 250.146535 
L 298.015321 250.146535 
L 298.015321 244.443564 
L 298.134224 244.443564 
L 298.134224 238.740594 
L 300.045539 238.740594 
L 300.045539 233.037624 
L 308.3479 233.037624 
L 308.3479 227.334653 
L 309.699299 227.334653 
L 309.699299 221.631683 
L 311.133402 221.631683 
L 311.133402 215.928713 
L 311.645016 215.928713 
L 311.645016 210.225743 
L 311.650934 210.225743 
L 311.650934 204.522772 
L 312.118431 204.522772 
L 312.118431 198.819802 
L 313.217714 198.819802 
L 313.217714 193.116832 
L 313.414004 193.116832 
L 313.414004 187.413861 
L 315.450176 187.413861 
L 315.450176 181.710891 
L 316.564615 181.710891 
L 316.564615 176.007921 
L 316.855041 176.007921 
L 316.855041 170.30495 
L 318.918838 170.30495 
L 318.918838 164.60198 
L 322.227373 164.60198 
L 322.227373 158.89901 
L 322.837193 158.89901 
L 322.837193 153.19604 
L 323.723996 153.19604 
L 323.723996 147.493069 
L 324.581311 147.493069 
L 324.581311 141.790099 
L 325.014322 141.790099 
L 325.014322 136.087129 
L 325.38329 136.087129 
L 325.38329 130.384158 
L 325.653734 130.384158 
L 325.653734 124.681188 
L 325.688655 124.681188 
L 325.688655 118.978218 
L 325.825841 118.978218 
L 325.825841 113.275248 
L 327.132256 113.275248 
L 327.132256 107.572277 
L 327.754063 107.572277 
L 327.754063 101.869307 
L 328.118945 101.869307 
L 328.118945 96.166337 
L 328.628255 96.166337 
L 328.628255 90.463366 
L 329.23387 90.463366 
L 329.23387 84.760396 
L 331.80554 84.760396 
L 331.80554 79.057426 
L 332.199792 79.057426 
L 332.199792 73.354455 
L 333.414845 73.354455 
L 333.414845 67.651485 
L 336.516525 67.651485 
L 336.516525 61.948515 
L 338.17637 61.948515 
L 338.17637 56.245545 
L 338.266396 56.245545 
L 338.266396 50.542574 
L 339.152839 50.542574 
L 339.152839 44.839604 
L 339.375603 44.839604 
L 339.375603 39.136634 
L 341.641399 39.136634 
L 341.641399 33.433663 
L 343.313348 33.433663 
L 343.313348 27.730693 
L 347.684383 27.730693 
L 347.684383 22.027723 
L 349.062242 22.027723 
L 349.062242 16.324752 
L 355.495287 16.324752 
L 355.495287 10.621782 
L 355.495287 10.621782 
L 355.495287 10.621782 
L 453.6 10.621782 
" style="fill:none;stroke:#bf00bf;stroke-linecap:square;"/>
   </g>
   <g id="line2d_4">
    <path clip-path="url(#pab71059512)" d="M 246.464934 352.8 
L 246.464934 347.09703 
L 248.804346 347.09703 
L 248.804346 341.394059 
L 254.380985 341.394059 
L 254.380985 335.691089 
L 255.843626 335.691089 
L 255.843626 329.988119 
L 256.153478 329.988119 
L 256.153478 324.285149 
L 256.857682 324.285149 
L 256.857682 318.582178 
L 258.086748 318.582178 
L 258.086748 312.879208 
L 258.616698 312.879208 
L 258.616698 307.176238 
L 258.997694 307.176238 
L 258.997694 301.473267 
L 259.041658 301.473267 
L 259.041658 295.770297 
L 259.282649 295.770297 
L 259.282649 290.067327 
L 260.907006 290.067327 
L 260.907006 284.364356 
L 262.995373 284.364356 
L 262.995373 278.661386 
L 263.475137 278.661386 
L 263.475137 272.958416 
L 264.658269 272.958416 
L 264.658269 267.255446 
L 269.010234 267.255446 
L 269.010234 261.552475 
L 271.313343 261.552475 
L 271.313343 255.849505 
L 279.316639 255.849505 
L 279.316639 250.146535 
L 280.036783 250.146535 
L 280.036783 244.443564 
L 284.453669 244.443564 
L 284.453669 238.740594 
L 286.417598 238.740594 
L 286.417598 233.037624 
L 289.080884 233.037624 
L 289.080884 227.334653 
L 291.004293 227.334653 
L 291.004293 221.631683 
L 292.875499 221.631683 
L 292.875499 215.928713 
L 294.419807 215.928713 
L 294.419807 210.225743 
L 296.717977 210.225743 
L 296.717977 204.522772 
L 298.015321 204.522772 
L 298.015321 198.819802 
L 298.134224 198.819802 
L 298.134224 193.116832 
L 298.426059 193.116832 
L 298.426059 187.413861 
L 299.825053 187.413861 
L 299.825053 181.710891 
L 300.045539 181.710891 
L 300.045539 176.007921 
L 300.721219 176.007921 
L 300.721219 170.30495 
L 301.141527 170.30495 
L 301.141527 164.60198 
L 301.961463 164.60198 
L 301.961463 158.89901 
L 307.526864 158.89901 
L 307.526864 153.19604 
L 309.593666 153.19604 
L 309.593666 147.493069 
L 309.899788 147.493069 
L 309.899788 141.790099 
L 311.645016 141.790099 
L 311.645016 136.087129 
L 313.217714 136.087129 
L 313.217714 130.384158 
L 313.414004 130.384158 
L 313.414004 124.681188 
L 313.722445 124.681188 
L 313.722445 118.978218 
L 317.250085 118.978218 
L 317.250085 113.275248 
L 319.611501 113.275248 
L 319.611501 107.572277 
L 322.227373 107.572277 
L 322.227373 101.869307 
L 324.581311 101.869307 
L 324.581311 96.166337 
L 325.635602 96.166337 
L 325.635602 90.463366 
L 325.653734 90.463366 
L 325.653734 84.760396 
L 325.825841 84.760396 
L 325.825841 79.057426 
L 327.030869 79.057426 
L 327.030869 73.354455 
L 327.120253 73.354455 
L 327.120253 67.651485 
L 327.431263 67.651485 
L 327.431263 61.948515 
L 328.118945 61.948515 
L 328.118945 56.245545 
L 328.628255 56.245545 
L 328.628255 50.542574 
L 330.525264 50.542574 
L 330.525264 44.839604 
L 331.026999 44.839604 
L 331.026999 39.136634 
L 331.80554 39.136634 
L 331.80554 33.433663 
L 332.819398 33.433663 
L 332.819398 27.730693 
L 338.694836 27.730693 
L 338.694836 22.027723 
L 339.152839 22.027723 
L 339.152839 16.324752 
L 341.641399 16.324752 
L 341.641399 10.621782 
L 341.641399 10.621782 
L 341.641399 10.621782 
L 453.6 10.621782 
" style="fill:none;stroke:#000000;stroke-linecap:square;"/>
   </g>
   <g id="line2d_5">
    <path clip-path="url(#pab71059512)" d="M 227.442085 352.8 
L 227.442085 347.09703 
L 234.708189 347.09703 
L 234.708189 341.394059 
L 239.243115 341.394059 
L 239.243115 335.691089 
L 241.104389 335.691089 
L 241.104389 329.988119 
L 241.530246 329.988119 
L 241.530246 324.285149 
L 242.585537 324.285149 
L 242.585537 318.582178 
L 242.720562 318.582178 
L 242.720562 312.879208 
L 244.322278 312.879208 
L 244.322278 307.176238 
L 246.430718 307.176238 
L 246.430718 301.473267 
L 246.862173 301.473267 
L 246.862173 295.770297 
L 247.741387 295.770297 
L 247.741387 290.067327 
L 249.773334 290.067327 
L 249.773334 284.364356 
L 252.497278 284.364356 
L 252.497278 278.661386 
L 253.434927 278.661386 
L 253.434927 272.958416 
L 254.736096 272.958416 
L 254.736096 267.255446 
L 256.153478 267.255446 
L 256.153478 261.552475 
L 256.857682 261.552475 
L 256.857682 255.849505 
L 257.394317 255.849505 
L 257.394317 250.146535 
L 258.997694 250.146535 
L 258.997694 244.443564 
L 260.115302 244.443564 
L 260.115302 238.740594 
L 262.995373 238.740594 
L 262.995373 233.037624 
L 267.096605 233.037624 
L 267.096605 227.334653 
L 268.373531 227.334653 
L 268.373531 221.631683 
L 269.010234 221.631683 
L 269.010234 215.928713 
L 269.265949 215.928713 
L 269.265949 210.225743 
L 269.767018 210.225743 
L 269.767018 204.522772 
L 281.121202 204.522772 
L 281.121202 198.819802 
L 281.12837 198.819802 
L 281.12837 193.116832 
L 281.35906 193.116832 
L 281.35906 187.413861 
L 281.450013 187.413861 
L 281.450013 181.710891 
L 283.106119 181.710891 
L 283.106119 176.007921 
L 284.363859 176.007921 
L 284.363859 170.30495 
L 285.752662 170.30495 
L 285.752662 164.60198 
L 286.417598 164.60198 
L 286.417598 158.89901 
L 288.49567 158.89901 
L 288.49567 153.19604 
L 288.86598 153.19604 
L 288.86598 147.493069 
L 290.100273 147.493069 
L 290.100273 141.790099 
L 290.839982 141.790099 
L 290.839982 136.087129 
L 292.035099 136.087129 
L 292.035099 130.384158 
L 292.42142 130.384158 
L 292.42142 124.681188 
L 292.601369 124.681188 
L 292.601369 118.978218 
L 294.419807 118.978218 
L 294.419807 113.275248 
L 294.711058 113.275248 
L 294.711058 107.572277 
L 295.265859 107.572277 
L 295.265859 101.869307 
L 296.404191 101.869307 
L 296.404191 96.166337 
L 298.134224 96.166337 
L 298.134224 90.463366 
L 301.277424 90.463366 
L 301.277424 84.760396 
L 302.47763 84.760396 
L 302.47763 79.057426 
L 305.241662 79.057426 
L 305.241662 73.354455 
L 307.303068 73.354455 
L 307.303068 67.651485 
L 309.080834 67.651485 
L 309.080834 61.948515 
L 311.244649 61.948515 
L 311.244649 56.245545 
L 313.414004 56.245545 
L 313.414004 50.542574 
L 314.177353 50.542574 
L 314.177353 44.839604 
L 314.998607 44.839604 
L 314.998607 39.136634 
L 317.912398 39.136634 
L 317.912398 33.433663 
L 318.089848 33.433663 
L 318.089848 27.730693 
L 322.227373 27.730693 
L 322.227373 22.027723 
L 330.525264 22.027723 
L 330.525264 16.324752 
L 337.481083 16.324752 
L 337.481083 10.621782 
L 337.481083 10.621782 
L 337.481083 10.621782 
L 453.6 10.621782 
" style="fill:none;stroke:#00bfbf;stroke-linecap:square;"/>
   </g>
   <g id="line2d_6">
    <path clip-path="url(#pab71059512)" d="M 188.324341 352.8 
L 188.324341 347.09703 
L 193.305092 347.09703 
L 193.305092 341.394059 
L 200.313512 341.394059 
L 200.313512 335.691089 
L 201.441955 335.691089 
L 201.441955 329.988119 
L 201.917132 329.988119 
L 201.917132 324.285149 
L 203.697844 324.285149 
L 203.697844 318.582178 
L 204.062511 318.582178 
L 204.062511 312.879208 
L 210.843877 312.879208 
L 210.843877 307.176238 
L 213.463008 307.176238 
L 213.463008 301.473267 
L 215.038252 301.473267 
L 215.038252 295.770297 
L 215.830376 295.770297 
L 215.830376 290.067327 
L 218.76437 290.067327 
L 218.76437 284.364356 
L 218.974897 284.364356 
L 218.974897 278.661386 
L 219.930831 278.661386 
L 219.930831 272.958416 
L 220.724434 272.958416 
L 220.724434 267.255446 
L 220.854063 267.255446 
L 220.854063 261.552475 
L 220.947717 261.552475 
L 220.947717 255.849505 
L 221.733975 255.849505 
L 221.733975 250.146535 
L 221.765278 250.146535 
L 221.765278 244.443564 
L 222.149288 244.443564 
L 222.149288 238.740594 
L 222.26756 238.740594 
L 222.26756 233.037624 
L 222.342355 233.037624 
L 222.342355 227.334653 
L 222.718081 227.334653 
L 222.718081 221.631683 
L 222.800113 221.631683 
L 222.800113 215.928713 
L 223.14424 215.928713 
L 223.14424 210.225743 
L 224.526206 210.225743 
L 224.526206 204.522772 
L 225.037881 204.522772 
L 225.037881 198.819802 
L 225.882629 198.819802 
L 225.882629 193.116832 
L 229.108147 193.116832 
L 229.108147 187.413861 
L 229.152439 187.413861 
L 229.152439 181.710891 
L 231.408822 181.710891 
L 231.408822 176.007921 
L 232.254121 176.007921 
L 232.254121 170.30495 
L 232.429567 170.30495 
L 232.429567 164.60198 
L 232.73563 164.60198 
L 232.73563 158.89901 
L 233.880231 158.89901 
L 233.880231 153.19604 
L 234.377168 153.19604 
L 234.377168 147.493069 
L 235.140247 147.493069 
L 235.140247 141.790099 
L 235.522567 141.790099 
L 235.522567 136.087129 
L 236.975169 136.087129 
L 236.975169 130.384158 
L 237.340289 130.384158 
L 237.340289 124.681188 
L 237.827242 124.681188 
L 237.827242 118.978218 
L 237.969911 118.978218 
L 237.969911 113.275248 
L 239.263001 113.275248 
L 239.263001 107.572277 
L 239.392125 107.572277 
L 239.392125 101.869307 
L 242.688396 101.869307 
L 242.688396 96.166337 
L 242.715199 96.166337 
L 242.715199 90.463366 
L 243.240338 90.463366 
L 243.240338 84.760396 
L 243.248741 84.760396 
L 243.248741 79.057426 
L 244.45267 79.057426 
L 244.45267 73.354455 
L 245.298671 73.354455 
L 245.298671 67.651485 
L 246.146629 67.651485 
L 246.146629 61.948515 
L 246.296481 61.948515 
L 246.296481 56.245545 
L 248.389649 56.245545 
L 248.389649 50.542574 
L 248.784457 50.542574 
L 248.784457 44.839604 
L 248.945023 44.839604 
L 248.945023 39.136634 
L 259.101203 39.136634 
L 259.101203 33.433663 
L 261.277303 33.433663 
L 261.277303 27.730693 
L 262.594714 27.730693 
L 262.594714 22.027723 
L 269.729581 22.027723 
L 269.729581 16.324752 
L 272.339459 16.324752 
L 272.339459 10.621782 
L 272.339459 10.621782 
L 272.339459 10.621782 
L 453.6 10.621782 
" style="fill:none;stroke:#bf00bf;stroke-linecap:square;"/>
   </g>
   <g id="patch_3">
    <path d="M 7.2 7.2 
L 453.6 7.2 
" style="fill:none;stroke:#000000;stroke-linecap:square;stroke-linejoin:miter;"/>
   </g>
   <g id="patch_4">
    <path d="M 453.6 352.8 
L 453.6 7.2 
" style="fill:none;stroke:#000000;stroke-linecap:square;stroke-linejoin:miter;"/>
   </g>
   <g id="patch_5">
    <path d="M 7.2 352.8 
L 453.6 352.8 
" style="fill:none;stroke:#000000;stroke-linecap:square;stroke-linejoin:miter;"/>
   </g>
   <g id="patch_6">
    <path d="M 7.2 352.8 
L 7.2 7.2 
" style="fill:none;stroke:#000000;stroke-linecap:square;stroke-linejoin:miter;"/>
   </g>
   <g id="matplotlib.axis_1">
    <g id="xtick_1"/>
    <g id="xtick_2">
     <g id="line2d_7">
      <path clip-path="url(#pab71059512)" d="M 56.704715 352.8 
L 56.704715 7.2 
" style="fill:none;stroke:#000000;stroke-dasharray:1.000000,3.000000;stroke-dashoffset:0.0;stroke-width:0.5;"/>
     </g>
     <g id="line2d_8">
      <defs>
       <path d="M 0 0 
L 0 -4 
" id="mda442fa301" style="stroke:#000000;stroke-width:0.5;"/>
      </defs>
      <g>
       <use style="stroke:#000000;stroke-width:0.5;" x="56.70471484" xlink:href="#mda442fa301" y="352.8"/>
      </g>
     </g>
     <g id="line2d_9">
      <defs>
       <path d="M 0 0 
L 0 4 
" id="m730112970f" style="stroke:#000000;stroke-width:0.5;"/>
      </defs>
      <g>
       <use style="stroke:#000000;stroke-width:0.5;" x="56.70471484" xlink:href="#m730112970f" y="7.2"/>
      </g>
     </g>
     <g id="text_1">
      <!-- -6 -->
      <defs>
       <path d="M 33.015625 40.375 
Q 26.375 40.375 22.484375 35.828125 
Q 18.609375 31.296875 18.609375 23.390625 
Q 18.609375 15.53125 22.484375 10.953125 
Q 26.375 6.390625 33.015625 6.390625 
Q 39.65625 6.390625 43.53125 10.953125 
Q 47.40625 15.53125 47.40625 23.390625 
Q 47.40625 31.296875 43.53125 35.828125 
Q 39.65625 40.375 33.015625 40.375 
M 52.59375 71.296875 
L 52.59375 62.3125 
Q 48.875 64.0625 45.09375 64.984375 
Q 41.3125 65.921875 37.59375 65.921875 
Q 27.828125 65.921875 22.671875 59.328125 
Q 17.53125 52.734375 16.796875 39.40625 
Q 19.671875 43.65625 24.015625 45.921875 
Q 28.375 48.1875 33.59375 48.1875 
Q 44.578125 48.1875 50.953125 41.515625 
Q 57.328125 34.859375 57.328125 23.390625 
Q 57.328125 12.15625 50.6875 5.359375 
Q 44.046875 -1.421875 33.015625 -1.421875 
Q 20.359375 -1.421875 13.671875 8.265625 
Q 6.984375 17.96875 6.984375 36.375 
Q 6.984375 53.65625 15.1875 63.9375 
Q 23.390625 74.21875 37.203125 74.21875 
Q 40.921875 74.21875 44.703125 73.484375 
Q 48.484375 72.75 52.59375 71.296875 
" id="BitstreamVeraSans-Roman-36"/>
       <path d="M 4.890625 31.390625 
L 31.203125 31.390625 
L 31.203125 23.390625 
L 4.890625 23.390625 
z
" id="BitstreamVeraSans-Roman-2d"/>
      </defs>
      <g transform="translate(46.73440234 371.996875)scale(0.2 -0.2)">
       <use xlink:href="#BitstreamVeraSans-Roman-2d"/>
       <use x="36.083984375" xlink:href="#BitstreamVeraSans-Roman-36"/>
      </g>
     </g>
    </g>
    <g id="xtick_3">
     <g id="line2d_10">
      <path clip-path="url(#pab71059512)" d="M 106.316625 352.8 
L 106.316625 7.2 
" style="fill:none;stroke:#000000;stroke-dasharray:1.000000,3.000000;stroke-dashoffset:0.0;stroke-width:0.5;"/>
     </g>
     <g id="line2d_11">
      <g>
       <use style="stroke:#000000;stroke-width:0.5;" x="106.316625485" xlink:href="#mda442fa301" y="352.8"/>
      </g>
     </g>
     <g id="line2d_12">
      <g>
       <use style="stroke:#000000;stroke-width:0.5;" x="106.316625485" xlink:href="#m730112970f" y="7.2"/>
      </g>
     </g>
     <g id="text_2">
      <!-- -4 -->
      <defs>
       <path d="M 37.796875 64.3125 
L 12.890625 25.390625 
L 37.796875 25.390625 
z
M 35.203125 72.90625 
L 47.609375 72.90625 
L 47.609375 25.390625 
L 58.015625 25.390625 
L 58.015625 17.1875 
L 47.609375 17.1875 
L 47.609375 0 
L 37.796875 0 
L 37.796875 17.1875 
L 4.890625 17.1875 
L 4.890625 26.703125 
z
" id="BitstreamVeraSans-Roman-34"/>
      </defs>
      <g transform="translate(96.346312985 371.996875)scale(0.2 -0.2)">
       <use xlink:href="#BitstreamVeraSans-Roman-2d"/>
       <use x="36.083984375" xlink:href="#BitstreamVeraSans-Roman-34"/>
      </g>
     </g>
    </g>
    <g id="xtick_4">
     <g id="line2d_13">
      <path clip-path="url(#pab71059512)" d="M 155.928536 352.8 
L 155.928536 7.2 
" style="fill:none;stroke:#000000;stroke-dasharray:1.000000,3.000000;stroke-dashoffset:0.0;stroke-width:0.5;"/>
     </g>
     <g id="line2d_14">
      <g>
       <use style="stroke:#000000;stroke-width:0.5;" x="155.92853613" xlink:href="#mda442fa301" y="352.8"/>
      </g>
     </g>
     <g id="line2d_15">
      <g>
       <use style="stroke:#000000;stroke-width:0.5;" x="155.92853613" xlink:href="#m730112970f" y="7.2"/>
      </g>
     </g>
     <g id="text_3">
      <!-- -2 -->
      <defs>
       <path d="M 19.1875 8.296875 
L 53.609375 8.296875 
L 53.609375 0 
L 7.328125 0 
L 7.328125 8.296875 
Q 12.9375 14.109375 22.625 23.890625 
Q 32.328125 33.6875 34.8125 36.53125 
Q 39.546875 41.84375 41.421875 45.53125 
Q 43.3125 49.21875 43.3125 52.78125 
Q 43.3125 58.59375 39.234375 62.25 
Q 35.15625 65.921875 28.609375 65.921875 
Q 23.96875 65.921875 18.8125 64.3125 
Q 13.671875 62.703125 7.8125 59.421875 
L 7.8125 69.390625 
Q 13.765625 71.78125 18.9375 73 
Q 24.125 74.21875 28.421875 74.21875 
Q 39.75 74.21875 46.484375 68.546875 
Q 53.21875 62.890625 53.21875 53.421875 
Q 53.21875 48.921875 51.53125 44.890625 
Q 49.859375 40.875 45.40625 35.40625 
Q 44.1875 33.984375 37.640625 27.21875 
Q 31.109375 20.453125 19.1875 8.296875 
" id="BitstreamVeraSans-Roman-32"/>
      </defs>
      <g transform="translate(145.95822363 371.996875)scale(0.2 -0.2)">
       <use xlink:href="#BitstreamVeraSans-Roman-2d"/>
       <use x="36.083984375" xlink:href="#BitstreamVeraSans-Roman-32"/>
      </g>
     </g>
    </g>
    <g id="xtick_5">
     <g id="line2d_16">
      <path clip-path="url(#pab71059512)" d="M 205.540447 352.8 
L 205.540447 7.2 
" style="fill:none;stroke:#000000;stroke-dasharray:1.000000,3.000000;stroke-dashoffset:0.0;stroke-width:0.5;"/>
     </g>
     <g id="line2d_17">
      <g>
       <use style="stroke:#000000;stroke-width:0.5;" x="205.540446775" xlink:href="#mda442fa301" y="352.8"/>
      </g>
     </g>
     <g id="line2d_18">
      <g>
       <use style="stroke:#000000;stroke-width:0.5;" x="205.540446775" xlink:href="#m730112970f" y="7.2"/>
      </g>
     </g>
     <g id="text_4">
      <!-- 0 -->
      <defs>
       <path d="M 31.78125 66.40625 
Q 24.171875 66.40625 20.328125 58.90625 
Q 16.5 51.421875 16.5 36.375 
Q 16.5 21.390625 20.328125 13.890625 
Q 24.171875 6.390625 31.78125 6.390625 
Q 39.453125 6.390625 43.28125 13.890625 
Q 47.125 21.390625 47.125 36.375 
Q 47.125 51.421875 43.28125 58.90625 
Q 39.453125 66.40625 31.78125 66.40625 
M 31.78125 74.21875 
Q 44.046875 74.21875 50.515625 64.515625 
Q 56.984375 54.828125 56.984375 36.375 
Q 56.984375 17.96875 50.515625 8.265625 
Q 44.046875 -1.421875 31.78125 -1.421875 
Q 19.53125 -1.421875 13.0625 8.265625 
Q 6.59375 17.96875 6.59375 36.375 
Q 6.59375 54.828125 13.0625 64.515625 
Q 19.53125 74.21875 31.78125 74.21875 
" id="BitstreamVeraSans-Roman-30"/>
      </defs>
      <g transform="translate(199.177946775 371.996875)scale(0.2 -0.2)">
       <use xlink:href="#BitstreamVeraSans-Roman-30"/>
      </g>
     </g>
    </g>
    <g id="xtick_6">
     <g id="line2d_19">
      <path clip-path="url(#pab71059512)" d="M 255.152357 352.8 
L 255.152357 7.2 
" style="fill:none;stroke:#000000;stroke-dasharray:1.000000,3.000000;stroke-dashoffset:0.0;stroke-width:0.5;"/>
     </g>
     <g id="line2d_20">
      <g>
       <use style="stroke:#000000;stroke-width:0.5;" x="255.15235742" xlink:href="#mda442fa301" y="352.8"/>
      </g>
     </g>
     <g id="line2d_21">
      <g>
       <use style="stroke:#000000;stroke-width:0.5;" x="255.15235742" xlink:href="#m730112970f" y="7.2"/>
      </g>
     </g>
     <g id="text_5">
      <!-- 2 -->
      <g transform="translate(248.78985742 371.996875)scale(0.2 -0.2)">
       <use xlink:href="#BitstreamVeraSans-Roman-32"/>
      </g>
     </g>
    </g>
    <g id="xtick_7">
     <g id="line2d_22">
      <path clip-path="url(#pab71059512)" d="M 304.764268 352.8 
L 304.764268 7.2 
" style="fill:none;stroke:#000000;stroke-dasharray:1.000000,3.000000;stroke-dashoffset:0.0;stroke-width:0.5;"/>
     </g>
     <g id="line2d_23">
      <g>
       <use style="stroke:#000000;stroke-width:0.5;" x="304.764268065" xlink:href="#mda442fa301" y="352.8"/>
      </g>
     </g>
     <g id="line2d_24">
      <g>
       <use style="stroke:#000000;stroke-width:0.5;" x="304.764268065" xlink:href="#m730112970f" y="7.2"/>
      </g>
     </g>
     <g id="text_6">
      <!-- 4 -->
      <g transform="translate(298.401768065 371.996875)scale(0.2 -0.2)">
       <use xlink:href="#BitstreamVeraSans-Roman-34"/>
      </g>
     </g>
    </g>
    <g id="xtick_8">
     <g id="line2d_25">
      <path clip-path="url(#pab71059512)" d="M 354.376179 352.8 
L 354.376179 7.2 
" style="fill:none;stroke:#000000;stroke-dasharray:1.000000,3.000000;stroke-dashoffset:0.0;stroke-width:0.5;"/>
     </g>
     <g id="line2d_26">
      <g>
       <use style="stroke:#000000;stroke-width:0.5;" x="354.37617871" xlink:href="#mda442fa301" y="352.8"/>
      </g>
     </g>
     <g id="line2d_27">
      <g>
       <use style="stroke:#000000;stroke-width:0.5;" x="354.37617871" xlink:href="#m730112970f" y="7.2"/>
      </g>
     </g>
     <g id="text_7">
      <!-- 6 -->
      <g transform="translate(348.01367871 371.996875)scale(0.2 -0.2)">
       <use xlink:href="#BitstreamVeraSans-Roman-36"/>
      </g>
     </g>
    </g>
    <g id="xtick_9">
     <g id="line2d_28">
      <path clip-path="url(#pab71059512)" d="M 403.988089 352.8 
L 403.988089 7.2 
" style="fill:none;stroke:#000000;stroke-dasharray:1.000000,3.000000;stroke-dashoffset:0.0;stroke-width:0.5;"/>
     </g>
     <g id="line2d_29">
      <g>
       <use style="stroke:#000000;stroke-width:0.5;" x="403.988089355" xlink:href="#mda442fa301" y="352.8"/>
      </g>
     </g>
     <g id="line2d_30">
      <g>
       <use style="stroke:#000000;stroke-width:0.5;" x="403.988089355" xlink:href="#m730112970f" y="7.2"/>
      </g>
     </g>
     <g id="text_8">
      <!-- 8 -->
      <defs>
       <path d="M 31.78125 34.625 
Q 24.75 34.625 20.71875 30.859375 
Q 16.703125 27.09375 16.703125 20.515625 
Q 16.703125 13.921875 20.71875 10.15625 
Q 24.75 6.390625 31.78125 6.390625 
Q 38.8125 6.390625 42.859375 10.171875 
Q 46.921875 13.96875 46.921875 20.515625 
Q 46.921875 27.09375 42.890625 30.859375 
Q 38.875 34.625 31.78125 34.625 
M 21.921875 38.8125 
Q 15.578125 40.375 12.03125 44.71875 
Q 8.5 49.078125 8.5 55.328125 
Q 8.5 64.0625 14.71875 69.140625 
Q 20.953125 74.21875 31.78125 74.21875 
Q 42.671875 74.21875 48.875 69.140625 
Q 55.078125 64.0625 55.078125 55.328125 
Q 55.078125 49.078125 51.53125 44.71875 
Q 48 40.375 41.703125 38.8125 
Q 48.828125 37.15625 52.796875 32.3125 
Q 56.78125 27.484375 56.78125 20.515625 
Q 56.78125 9.90625 50.3125 4.234375 
Q 43.84375 -1.421875 31.78125 -1.421875 
Q 19.734375 -1.421875 13.25 4.234375 
Q 6.78125 9.90625 6.78125 20.515625 
Q 6.78125 27.484375 10.78125 32.3125 
Q 14.796875 37.15625 21.921875 38.8125 
M 18.3125 54.390625 
Q 18.3125 48.734375 21.84375 45.5625 
Q 25.390625 42.390625 31.78125 42.390625 
Q 38.140625 42.390625 41.71875 45.5625 
Q 45.3125 48.734375 45.3125 54.390625 
Q 45.3125 60.0625 41.71875 63.234375 
Q 38.140625 66.40625 31.78125 66.40625 
Q 25.390625 66.40625 21.84375 63.234375 
Q 18.3125 60.0625 18.3125 54.390625 
" id="BitstreamVeraSans-Roman-38"/>
      </defs>
      <g transform="translate(397.625589355 371.996875)scale(0.2 -0.2)">
       <use xlink:href="#BitstreamVeraSans-Roman-38"/>
      </g>
     </g>
    </g>
    <g id="xtick_10">
     <g id="line2d_31">
      <path clip-path="url(#pab71059512)" d="M 453.6 352.8 
L 453.6 7.2 
" style="fill:none;stroke:#000000;stroke-dasharray:1.000000,3.000000;stroke-dashoffset:0.0;stroke-width:0.5;"/>
     </g>
     <g id="line2d_32">
      <g>
       <use style="stroke:#000000;stroke-width:0.5;" x="453.6" xlink:href="#mda442fa301" y="352.8"/>
      </g>
     </g>
     <g id="line2d_33">
      <g>
       <use style="stroke:#000000;stroke-width:0.5;" x="453.6" xlink:href="#m730112970f" y="7.2"/>
      </g>
     </g>
    </g>
    <g id="xtick_11"/>
    <g id="xtick_12">
     <g id="line2d_34">
      <defs>
       <path d="M 0 0 
L 0 -2 
" id="m106cc86c0d" style="stroke:#000000;stroke-width:0.5;"/>
      </defs>
      <g>
       <use style="stroke:#000000;stroke-width:0.5;" x="56.70471484" xlink:href="#m106cc86c0d" y="352.8"/>
      </g>
     </g>
     <g id="line2d_35">
      <defs>
       <path d="M 0 0 
L 0 2 
" id="mb5b53655e7" style="stroke:#000000;stroke-width:0.5;"/>
      </defs>
      <g>
       <use style="stroke:#000000;stroke-width:0.5;" x="56.70471484" xlink:href="#mb5b53655e7" y="7.2"/>
      </g>
     </g>
    </g>
    <g id="xtick_13">
     <g id="line2d_36">
      <g>
       <use style="stroke:#000000;stroke-width:0.5;" x="106.316625485" xlink:href="#m106cc86c0d" y="352.8"/>
      </g>
     </g>
     <g id="line2d_37">
      <g>
       <use style="stroke:#000000;stroke-width:0.5;" x="106.316625485" xlink:href="#mb5b53655e7" y="7.2"/>
      </g>
     </g>
    </g>
    <g id="xtick_14">
     <g id="line2d_38">
      <g>
       <use style="stroke:#000000;stroke-width:0.5;" x="155.92853613" xlink:href="#m106cc86c0d" y="352.8"/>
      </g>
     </g>
     <g id="line2d_39">
      <g>
       <use style="stroke:#000000;stroke-width:0.5;" x="155.92853613" xlink:href="#mb5b53655e7" y="7.2"/>
      </g>
     </g>
    </g>
    <g id="xtick_15">
     <g id="line2d_40">
      <g>
       <use style="stroke:#000000;stroke-width:0.5;" x="205.540446775" xlink:href="#m106cc86c0d" y="352.8"/>
      </g>
     </g>
     <g id="line2d_41">
      <g>
       <use style="stroke:#000000;stroke-width:0.5;" x="205.540446775" xlink:href="#mb5b53655e7" y="7.2"/>
      </g>
     </g>
    </g>
    <g id="xtick_16">
     <g id="line2d_42">
      <g>
       <use style="stroke:#000000;stroke-width:0.5;" x="255.15235742" xlink:href="#m106cc86c0d" y="352.8"/>
      </g>
     </g>
     <g id="line2d_43">
      <g>
       <use style="stroke:#000000;stroke-width:0.5;" x="255.15235742" xlink:href="#mb5b53655e7" y="7.2"/>
      </g>
     </g>
    </g>
    <g id="xtick_17">
     <g id="line2d_44">
      <g>
       <use style="stroke:#000000;stroke-width:0.5;" x="304.764268065" xlink:href="#m106cc86c0d" y="352.8"/>
      </g>
     </g>
     <g id="line2d_45">
      <g>
       <use style="stroke:#000000;stroke-width:0.5;" x="304.764268065" xlink:href="#mb5b53655e7" y="7.2"/>
      </g>
     </g>
    </g>
    <g id="xtick_18">
     <g id="line2d_46">
      <g>
       <use style="stroke:#000000;stroke-width:0.5;" x="354.37617871" xlink:href="#m106cc86c0d" y="352.8"/>
      </g>
     </g>
     <g id="line2d_47">
      <g>
       <use style="stroke:#000000;stroke-width:0.5;" x="354.37617871" xlink:href="#mb5b53655e7" y="7.2"/>
      </g>
     </g>
    </g>
    <g id="xtick_19">
     <g id="line2d_48">
      <g>
       <use style="stroke:#000000;stroke-width:0.5;" x="403.988089355" xlink:href="#m106cc86c0d" y="352.8"/>
      </g>
     </g>
     <g id="line2d_49">
      <g>
       <use style="stroke:#000000;stroke-width:0.5;" x="403.988089355" xlink:href="#mb5b53655e7" y="7.2"/>
      </g>
     </g>
    </g>
    <g id="xtick_20">
     <g id="line2d_50">
      <g>
       <use style="stroke:#000000;stroke-width:0.5;" x="453.6" xlink:href="#m106cc86c0d" y="352.8"/>
      </g>
     </g>
     <g id="line2d_51">
      <g>
       <use style="stroke:#000000;stroke-width:0.5;" x="453.6" xlink:href="#mb5b53655e7" y="7.2"/>
      </g>
     </g>
    </g>
    <g id="text_9">
     <!-- log10 of Df -->
     <defs>
      <path id="BitstreamVeraSans-Roman-20"/>
      <path d="M 12.40625 8.296875 
L 28.515625 8.296875 
L 28.515625 63.921875 
L 10.984375 60.40625 
L 10.984375 69.390625 
L 28.421875 72.90625 
L 38.28125 72.90625 
L 38.28125 8.296875 
L 54.390625 8.296875 
L 54.390625 0 
L 12.40625 0 
z
" id="BitstreamVeraSans-Roman-31"/>
      <path d="M 30.609375 48.390625 
Q 23.390625 48.390625 19.1875 42.75 
Q 14.984375 37.109375 14.984375 27.296875 
Q 14.984375 17.484375 19.15625 11.84375 
Q 23.34375 6.203125 30.609375 6.203125 
Q 37.796875 6.203125 41.984375 11.859375 
Q 46.1875 17.53125 46.1875 27.296875 
Q 46.1875 37.015625 41.984375 42.703125 
Q 37.796875 48.390625 30.609375 48.390625 
M 30.609375 56 
Q 42.328125 56 49.015625 48.375 
Q 55.71875 40.765625 55.71875 27.296875 
Q 55.71875 13.875 49.015625 6.21875 
Q 42.328125 -1.421875 30.609375 -1.421875 
Q 18.84375 -1.421875 12.171875 6.21875 
Q 5.515625 13.875 5.515625 27.296875 
Q 5.515625 40.765625 12.171875 48.375 
Q 18.84375 56 30.609375 56 
" id="BitstreamVeraSans-Roman-6f"/>
      <path d="M 9.421875 75.984375 
L 18.40625 75.984375 
L 18.40625 0 
L 9.421875 0 
z
" id="BitstreamVeraSans-Roman-6c"/>
      <path d="M 19.671875 64.796875 
L 19.671875 8.109375 
L 31.59375 8.109375 
Q 46.6875 8.109375 53.6875 14.9375 
Q 60.6875 21.78125 60.6875 36.53125 
Q 60.6875 51.171875 53.6875 57.984375 
Q 46.6875 64.796875 31.59375 64.796875 
z
M 9.8125 72.90625 
L 30.078125 72.90625 
Q 51.265625 72.90625 61.171875 64.09375 
Q 71.09375 55.28125 71.09375 36.53125 
Q 71.09375 17.671875 61.125 8.828125 
Q 51.171875 0 30.078125 0 
L 9.8125 0 
z
" id="BitstreamVeraSans-Roman-44"/>
      <path d="M 45.40625 27.984375 
Q 45.40625 37.75 41.375 43.109375 
Q 37.359375 48.484375 30.078125 48.484375 
Q 22.859375 48.484375 18.828125 43.109375 
Q 14.796875 37.75 14.796875 27.984375 
Q 14.796875 18.265625 18.828125 12.890625 
Q 22.859375 7.515625 30.078125 7.515625 
Q 37.359375 7.515625 41.375 12.890625 
Q 45.40625 18.265625 45.40625 27.984375 
M 54.390625 6.78125 
Q 54.390625 -7.171875 48.1875 -13.984375 
Q 42 -20.796875 29.203125 -20.796875 
Q 24.46875 -20.796875 20.265625 -20.09375 
Q 16.0625 -19.390625 12.109375 -17.921875 
L 12.109375 -9.1875 
Q 16.0625 -11.328125 19.921875 -12.34375 
Q 23.78125 -13.375 27.78125 -13.375 
Q 36.625 -13.375 41.015625 -8.765625 
Q 45.40625 -4.15625 45.40625 5.171875 
L 45.40625 9.625 
Q 42.625 4.78125 38.28125 2.390625 
Q 33.9375 0 27.875 0 
Q 17.828125 0 11.671875 7.65625 
Q 5.515625 15.328125 5.515625 27.984375 
Q 5.515625 40.671875 11.671875 48.328125 
Q 17.828125 56 27.875 56 
Q 33.9375 56 38.28125 53.609375 
Q 42.625 51.21875 45.40625 46.390625 
L 45.40625 54.6875 
L 54.390625 54.6875 
z
" id="BitstreamVeraSans-Roman-67"/>
      <path d="M 37.109375 75.984375 
L 37.109375 68.5 
L 28.515625 68.5 
Q 23.6875 68.5 21.796875 66.546875 
Q 19.921875 64.59375 19.921875 59.515625 
L 19.921875 54.6875 
L 34.71875 54.6875 
L 34.71875 47.703125 
L 19.921875 47.703125 
L 19.921875 0 
L 10.890625 0 
L 10.890625 47.703125 
L 2.296875 47.703125 
L 2.296875 54.6875 
L 10.890625 54.6875 
L 10.890625 58.5 
Q 10.890625 67.625 15.140625 71.796875 
Q 19.390625 75.984375 28.609375 75.984375 
z
" id="BitstreamVeraSans-Roman-66"/>
     </defs>
     <g transform="translate(175.2140625 396.353125)scale(0.2 -0.2)">
      <use xlink:href="#BitstreamVeraSans-Roman-6c"/>
      <use x="27.783203125" xlink:href="#BitstreamVeraSans-Roman-6f"/>
      <use x="88.96484375" xlink:href="#BitstreamVeraSans-Roman-67"/>
      <use x="152.44140625" xlink:href="#BitstreamVeraSans-Roman-31"/>
      <use x="216.064453125" xlink:href="#BitstreamVeraSans-Roman-30"/>
      <use x="279.6875" xlink:href="#BitstreamVeraSans-Roman-20"/>
      <use x="311.474609375" xlink:href="#BitstreamVeraSans-Roman-6f"/>
      <use x="372.65625" xlink:href="#BitstreamVeraSans-Roman-66"/>
      <use x="407.861328125" xlink:href="#BitstreamVeraSans-Roman-20"/>
      <use x="439.6484375" xlink:href="#BitstreamVeraSans-Roman-44"/>
      <use x="516.650390625" xlink:href="#BitstreamVeraSans-Roman-66"/>
     </g>
    </g>
   </g>
   <g id="matplotlib.axis_2">
    <g id="ytick_1">
     <g id="line2d_52">
      <path clip-path="url(#pab71059512)" d="M 7.2 352.8 
L 453.6 352.8 
" style="fill:none;stroke:#000000;stroke-dasharray:1.000000,3.000000;stroke-dashoffset:0.0;stroke-width:0.5;"/>
     </g>
     <g id="line2d_53">
      <defs>
       <path d="M 0 0 
L 4 0 
" id="md011fb7faa" style="stroke:#000000;stroke-width:0.5;"/>
      </defs>
      <g>
       <use style="stroke:#000000;stroke-width:0.5;" x="7.2" xlink:href="#md011fb7faa" y="352.8"/>
      </g>
     </g>
     <g id="line2d_54">
      <defs>
       <path d="M 0 0 
L -4 0 
" id="ma8064e1a68" style="stroke:#000000;stroke-width:0.5;"/>
      </defs>
      <g>
       <use style="stroke:#000000;stroke-width:0.5;" x="453.6" xlink:href="#ma8064e1a68" y="352.8"/>
      </g>
     </g>
    </g>
    <g id="ytick_2">
     <g id="line2d_55">
      <path clip-path="url(#pab71059512)" d="M 7.2 284.364356 
L 453.6 284.364356 
" style="fill:none;stroke:#000000;stroke-dasharray:1.000000,3.000000;stroke-dashoffset:0.0;stroke-width:0.5;"/>
     </g>
     <g id="line2d_56">
      <g>
       <use style="stroke:#000000;stroke-width:0.5;" x="7.2" xlink:href="#md011fb7faa" y="284.364356436"/>
      </g>
     </g>
     <g id="line2d_57">
      <g>
       <use style="stroke:#000000;stroke-width:0.5;" x="453.6" xlink:href="#ma8064e1a68" y="284.364356436"/>
      </g>
     </g>
    </g>
    <g id="ytick_3">
     <g id="line2d_58">
      <path clip-path="url(#pab71059512)" d="M 7.2 215.928713 
L 453.6 215.928713 
" style="fill:none;stroke:#000000;stroke-dasharray:1.000000,3.000000;stroke-dashoffset:0.0;stroke-width:0.5;"/>
     </g>
     <g id="line2d_59">
      <g>
       <use style="stroke:#000000;stroke-width:0.5;" x="7.2" xlink:href="#md011fb7faa" y="215.928712871"/>
      </g>
     </g>
     <g id="line2d_60">
      <g>
       <use style="stroke:#000000;stroke-width:0.5;" x="453.6" xlink:href="#ma8064e1a68" y="215.928712871"/>
      </g>
     </g>
    </g>
    <g id="ytick_4">
     <g id="line2d_61">
      <path clip-path="url(#pab71059512)" d="M 7.2 147.493069 
L 453.6 147.493069 
" style="fill:none;stroke:#000000;stroke-dasharray:1.000000,3.000000;stroke-dashoffset:0.0;stroke-width:0.5;"/>
     </g>
     <g id="line2d_62">
      <g>
       <use style="stroke:#000000;stroke-width:0.5;" x="7.2" xlink:href="#md011fb7faa" y="147.493069307"/>
      </g>
     </g>
     <g id="line2d_63">
      <g>
       <use style="stroke:#000000;stroke-width:0.5;" x="453.6" xlink:href="#ma8064e1a68" y="147.493069307"/>
      </g>
     </g>
    </g>
    <g id="ytick_5">
     <g id="line2d_64">
      <path clip-path="url(#pab71059512)" d="M 7.2 79.057426 
L 453.6 79.057426 
" style="fill:none;stroke:#000000;stroke-dasharray:1.000000,3.000000;stroke-dashoffset:0.0;stroke-width:0.5;"/>
     </g>
     <g id="line2d_65">
      <g>
       <use style="stroke:#000000;stroke-width:0.5;" x="7.2" xlink:href="#md011fb7faa" y="79.0574257426"/>
      </g>
     </g>
     <g id="line2d_66">
      <g>
       <use style="stroke:#000000;stroke-width:0.5;" x="453.6" xlink:href="#ma8064e1a68" y="79.0574257426"/>
      </g>
     </g>
    </g>
    <g id="ytick_6">
     <g id="line2d_67">
      <path clip-path="url(#pab71059512)" d="M 7.2 10.621782 
L 453.6 10.621782 
" style="fill:none;stroke:#000000;stroke-dasharray:1.000000,3.000000;stroke-dashoffset:0.0;stroke-width:0.5;"/>
     </g>
     <g id="line2d_68">
      <g>
       <use style="stroke:#000000;stroke-width:0.5;" x="7.2" xlink:href="#md011fb7faa" y="10.6217821782"/>
      </g>
     </g>
     <g id="line2d_69">
      <g>
       <use style="stroke:#000000;stroke-width:0.5;" x="453.6" xlink:href="#ma8064e1a68" y="10.6217821782"/>
      </g>
     </g>
    </g>
   </g>
   <g id="text_10">
    <!-- {f6-f9}, 5-D -->
    <defs>
     <path d="M 12.5 -9.28125 
L 15.921875 -9.28125 
Q 22.75 -9.28125 24.828125 -7.171875 
Q 26.90625 -5.078125 26.90625 1.90625 
L 26.90625 14.015625 
Q 26.90625 21.625 29.09375 25.09375 
Q 31.296875 28.5625 36.71875 29.890625 
Q 31.296875 31.109375 29.09375 34.5625 
Q 26.90625 38.03125 26.90625 45.703125 
L 26.90625 57.8125 
Q 26.90625 64.75 24.828125 66.875 
Q 22.75 69 15.921875 69 
L 12.5 69 
L 12.5 75.984375 
L 15.578125 75.984375 
Q 27.734375 75.984375 31.8125 72.390625 
Q 35.890625 68.796875 35.890625 58.015625 
L 35.890625 46.296875 
Q 35.890625 39.015625 38.515625 36.203125 
Q 41.15625 33.40625 48.09375 33.40625 
L 51.125 33.40625 
L 51.125 26.421875 
L 48.09375 26.421875 
Q 41.15625 26.421875 38.515625 23.578125 
Q 35.890625 20.75 35.890625 13.375 
L 35.890625 1.703125 
Q 35.890625 -9.078125 31.8125 -12.6875 
Q 27.734375 -16.3125 15.578125 -16.3125 
L 12.5 -16.3125 
z
" id="BitstreamVeraSans-Roman-7d"/>
     <path d="M 10.984375 1.515625 
L 10.984375 10.5 
Q 14.703125 8.734375 18.5 7.8125 
Q 22.3125 6.890625 25.984375 6.890625 
Q 35.75 6.890625 40.890625 13.453125 
Q 46.046875 20.015625 46.78125 33.40625 
Q 43.953125 29.203125 39.59375 26.953125 
Q 35.25 24.703125 29.984375 24.703125 
Q 19.046875 24.703125 12.671875 31.3125 
Q 6.296875 37.9375 6.296875 49.421875 
Q 6.296875 60.640625 12.9375 67.421875 
Q 19.578125 74.21875 30.609375 74.21875 
Q 43.265625 74.21875 49.921875 64.515625 
Q 56.59375 54.828125 56.59375 36.375 
Q 56.59375 19.140625 48.40625 8.859375 
Q 40.234375 -1.421875 26.421875 -1.421875 
Q 22.703125 -1.421875 18.890625 -0.6875 
Q 15.09375 0.046875 10.984375 1.515625 
M 30.609375 32.421875 
Q 37.25 32.421875 41.125 36.953125 
Q 45.015625 41.5 45.015625 49.421875 
Q 45.015625 57.28125 41.125 61.84375 
Q 37.25 66.40625 30.609375 66.40625 
Q 23.96875 66.40625 20.09375 61.84375 
Q 16.21875 57.28125 16.21875 49.421875 
Q 16.21875 41.5 20.09375 36.953125 
Q 23.96875 32.421875 30.609375 32.421875 
" id="BitstreamVeraSans-Roman-39"/>
     <path d="M 51.125 -9.28125 
L 51.125 -16.3125 
L 48.09375 -16.3125 
Q 35.9375 -16.3125 31.8125 -12.6875 
Q 27.6875 -9.078125 27.6875 1.703125 
L 27.6875 13.375 
Q 27.6875 20.75 25.046875 23.578125 
Q 22.40625 26.421875 15.484375 26.421875 
L 12.5 26.421875 
L 12.5 33.40625 
L 15.484375 33.40625 
Q 22.46875 33.40625 25.078125 36.203125 
Q 27.6875 39.015625 27.6875 46.296875 
L 27.6875 58.015625 
Q 27.6875 68.796875 31.8125 72.390625 
Q 35.9375 75.984375 48.09375 75.984375 
L 51.125 75.984375 
L 51.125 69 
L 47.796875 69 
Q 40.921875 69 38.8125 66.84375 
Q 36.71875 64.703125 36.71875 57.8125 
L 36.71875 45.703125 
Q 36.71875 38.03125 34.5 34.5625 
Q 32.28125 31.109375 26.90625 29.890625 
Q 32.328125 28.5625 34.515625 25.09375 
Q 36.71875 21.625 36.71875 14.015625 
L 36.71875 1.90625 
Q 36.71875 -4.984375 38.8125 -7.125 
Q 40.921875 -9.28125 47.796875 -9.28125 
z
" id="BitstreamVeraSans-Roman-7b"/>
     <path d="M 11.71875 12.40625 
L 22.015625 12.40625 
L 22.015625 4 
L 14.015625 -11.625 
L 7.71875 -11.625 
L 11.71875 4 
z
" id="BitstreamVeraSans-Roman-2c"/>
     <path d="M 10.796875 72.90625 
L 49.515625 72.90625 
L 49.515625 64.59375 
L 19.828125 64.59375 
L 19.828125 46.734375 
Q 21.96875 47.46875 24.109375 47.828125 
Q 26.265625 48.1875 28.421875 48.1875 
Q 40.625 48.1875 47.75 41.5 
Q 54.890625 34.8125 54.890625 23.390625 
Q 54.890625 11.625 47.5625 5.09375 
Q 40.234375 -1.421875 26.90625 -1.421875 
Q 22.3125 -1.421875 17.546875 -0.640625 
Q 12.796875 0.140625 7.71875 1.703125 
L 7.71875 11.625 
Q 12.109375 9.234375 16.796875 8.0625 
Q 21.484375 6.890625 26.703125 6.890625 
Q 35.15625 6.890625 40.078125 11.328125 
Q 45.015625 15.765625 45.015625 23.390625 
Q 45.015625 31 40.078125 35.4375 
Q 35.15625 39.890625 26.703125 39.890625 
Q 22.75 39.890625 18.8125 39.015625 
Q 14.890625 38.140625 10.796875 36.28125 
z
" id="BitstreamVeraSans-Roman-35"/>
    </defs>
    <g transform="translate(324.422 345.888)scale(0.2 -0.2)">
     <use xlink:href="#BitstreamVeraSans-Roman-7b"/>
     <use x="63.623046875" xlink:href="#BitstreamVeraSans-Roman-66"/>
     <use x="98.828125" xlink:href="#BitstreamVeraSans-Roman-36"/>
     <use x="162.451171875" xlink:href="#BitstreamVeraSans-Roman-2d"/>
     <use x="198.53515625" xlink:href="#BitstreamVeraSans-Roman-66"/>
     <use x="233.740234375" xlink:href="#BitstreamVeraSans-Roman-39"/>
     <use x="297.36328125" xlink:href="#BitstreamVeraSans-Roman-7d"/>
     <use x="360.986328125" xlink:href="#BitstreamVeraSans-Roman-2c"/>
     <use x="392.7734375" xlink:href="#BitstreamVeraSans-Roman-20"/>
     <use x="424.560546875" xlink:href="#BitstreamVeraSans-Roman-35"/>
     <use x="488.18359375" xlink:href="#BitstreamVeraSans-Roman-2d"/>
     <use x="524.267578125" xlink:href="#BitstreamVeraSans-Roman-44"/>
    </g>
   </g>
   <g id="text_11">
    <!-- 0.0.0 -->
    <defs>
     <path d="M 10.6875 12.40625 
L 21 12.40625 
L 21 0 
L 10.6875 0 
z
" id="BitstreamVeraSans-Roman-2e"/>
    </defs>
    <g style="fill:#808080;" transform="translate(217.678125 347.2643125)scale(0.1 -0.1)">
     <use xlink:href="#BitstreamVeraSans-Roman-30"/>
     <use x="63.623046875" xlink:href="#BitstreamVeraSans-Roman-2e"/>
     <use x="95.41015625" xlink:href="#BitstreamVeraSans-Roman-30"/>
     <use x="159.033203125" xlink:href="#BitstreamVeraSans-Roman-2e"/>
     <use x="190.8203125" xlink:href="#BitstreamVeraSans-Roman-30"/>
    </g>
   </g>
  </g>
 </g>
 <defs>
  <clipPath id="pab71059512">
   <rect height="345.6" width="446.4" x="7.2" y="7.2"/>
  </clipPath>
 </defs>
</svg>
