<?xml version="1.0" encoding="utf-8" standalone="no"?>
<!DOCTYPE svg PUBLIC "-//W3C//DTD SVG 1.1//EN"
  "http://www.w3.org/Graphics/SVG/1.1/DTD/svg11.dtd">
<!-- Created with matplotlib (http://matplotlib.org/) -->
<svg height="415pt" version="1.1" viewBox="0 0 538 415" width="538pt" xmlns="http://www.w3.org/2000/svg" xmlns:xlink="http://www.w3.org/1999/xlink">
 <defs>
  <style type="text/css">
*{stroke-linecap:butt;stroke-linejoin:round;stroke-miterlimit:100000;}
  </style>
 </defs>
 <g id="figure_1">
  <g id="patch_1">
   <path d="M 0 415.456343 
L 538.8 415.456343 
L 538.8 0 
L 0 0 
z
" style="fill:#ffffff;"/>
  </g>
  <g id="axes_1">
   <g id="patch_2">
    <path d="M 85.2 359.056343 
L 531.6 359.056343 
L 531.6 13.456343 
L 85.2 13.456343 
z
" style="fill:#ffffff;"/>
   </g>
   <g id="line2d_1">
    <defs>
     <path d="M 0 1.5 
C 0.397805 1.5 0.77937 1.341951 1.06066 1.06066 
C 1.341951 0.77937 1.5 0.397805 1.5 0 
C 1.5 -0.397805 1.341951 -0.77937 1.06066 -1.06066 
C 0.77937 -1.341951 0.397805 -1.5 0 -1.5 
C -0.397805 -1.5 -0.77937 -1.341951 -1.06066 -1.06066 
C -1.341951 -0.77937 -1.5 -0.397805 -1.5 0 
C -1.5 0.397805 -1.341951 0.77937 -1.06066 1.06066 
C -0.77937 1.341951 -0.397805 1.5 0 1.5 
z
" id="mca267cafa6" style="stroke:#000080;stroke-width:0.5;"/>
    </defs>
    <g>
     <use style="fill:#000080;stroke:#000080;stroke-width:0.5;" x="332.090204077" xlink:href="#mca267cafa6" y="291.962574621"/>
     <use style="fill:#000080;stroke:#000080;stroke-width:0.5;" x="332.090204077" xlink:href="#mca267cafa6" y="291.962574621"/>
    </g>
   </g>
   <g id="line2d_2">
    <path d="M 186.958472 359.056343 
L 186.958472 355.701654 
L 190.428246 355.701654 
L 190.428246 355.030717 
L 190.826388 355.030717 
L 190.826388 354.359779 
L 194.019935 354.359779 
L 194.019935 353.688841 
L 194.359381 353.688841 
L 194.393044 352.346966 
L 194.891988 352.346966 
L 194.924858 351.005091 
L 197.261672 351.005091 
L 197.320759 349.663215 
L 198.017882 349.663215 
L 198.017882 348.992278 
L 198.302047 348.992278 
L 198.302047 348.32134 
L 198.414709 348.32134 
L 198.414709 346.308527 
L 199.079 346.308527 
L 199.18782 342.953838 
L 199.376987 342.953838 
L 199.376987 342.282901 
L 199.511133 342.282901 
L 199.511133 340.270088 
L 199.935063 340.270088 
L 199.935063 338.928212 
L 200.118032 338.928212 
L 200.118032 338.257275 
L 200.607236 338.257275 
L 200.632689 336.915399 
L 201.235022 336.915399 
L 201.28449 335.573524 
L 201.724847 335.573524 
L 201.773244 332.218836 
L 202.696609 332.218836 
L 202.696609 330.206022 
L 203.269043 330.206022 
L 203.269043 328.864147 
L 203.42673 328.864147 
L 203.42673 328.193209 
L 204.797948 328.193209 
L 204.797948 327.522272 
L 205.236931 327.522272 
L 205.236931 326.180396 
L 208.12603 326.180396 
L 208.12603 324.167583 
L 210.208451 324.167583 
L 210.208451 323.496646 
L 242.541185 323.496646 
L 242.618968 321.483833 
L 242.758297 321.483833 
L 242.781434 320.141957 
L 242.873744 320.141957 
L 242.873744 319.47102 
L 243.026751 319.47102 
L 243.099064 318.129144 
L 243.269403 318.129144 
L 243.355966 315.445393 
L 243.59137 315.445393 
L 243.59137 314.774456 
L 243.772762 314.774456 
L 243.861073 313.43258 
L 256.67585 313.43258 
L 256.67585 312.090705 
L 256.986108 312.090705 
L 256.986108 310.74883 
L 257.255857 310.74883 
L 257.255857 310.077892 
L 258.053873 310.077892 
L 258.053873 309.406954 
L 265.265747 309.406954 
L 265.274196 308.065079 
L 265.477416 308.065079 
L 265.477416 306.723204 
L 265.598466 306.723204 
L 265.598466 306.052266 
L 271.481028 306.052266 
L 271.481028 305.381328 
L 271.625579 305.381328 
L 271.625579 304.710391 
L 276.186425 304.710391 
L 276.276936 301.355702 
L 276.316473 301.355702 
L 276.379074 298.671951 
L 283.46452 298.671951 
L 283.543572 297.330076 
L 286.366614 297.330076 
L 286.366614 296.659138 
L 288.96925 296.659138 
L 288.96925 295.988201 
L 293.42395 295.988201 
L 293.42395 295.317263 
L 297.096949 295.317263 
L 297.096949 294.646325 
L 304.276128 294.646325 
L 304.276128 293.975388 
L 312.417715 293.975388 
L 312.417715 293.30445 
L 327.386315 293.30445 
L 327.386315 292.633512 
L 332.090204 292.633512 
L 332.090204 291.962575 
L 445.2 291.962575 
L 445.2 291.962575 
" style="fill:none;stroke:#000080;stroke-linecap:square;stroke-width:1.5;"/>
   </g>
   <g id="line2d_3">
    <defs>
     <path d="M 0 6 
C 1.591219 6 3.117479 5.367802 4.242641 4.242641 
C 5.367802 3.117479 6 1.591219 6 0 
C 6 -1.591219 5.367802 -3.117479 4.242641 -4.242641 
C 3.117479 -5.367802 1.591219 -6 0 -6 
C -1.591219 -6 -3.117479 -5.367802 -4.242641 -4.242641 
C -5.367802 -3.117479 -6 -1.591219 -6 0 
C -6 1.591219 -5.367802 3.117479 -4.242641 4.242641 
C -3.117479 5.367802 -1.591219 6 0 6 
z
" id="mbc665c7133" style="stroke:#000080;stroke-width:1.5;"/>
    </defs>
    <g>
     <use style="fill:none;stroke:#000080;stroke-width:1.5;" x="200.607236007" xlink:href="#mbc665c7133" y="337.586336998"/>
     <use style="fill:none;stroke:#000080;stroke-width:1.5;" x="265.274195839" xlink:href="#mbc665c7133" y="308.06507899"/>
     <use style="fill:none;stroke:#000080;stroke-width:1.5;" x="332.090204077" xlink:href="#mbc665c7133" y="292.633512303"/>
     <use style="fill:none;stroke:#000080;stroke-width:1.5;" x="332.090204077" xlink:href="#mbc665c7133" y="291.962574621"/>
     <use style="fill:none;stroke:#000080;stroke-width:1.5;" x="445.2" xlink:href="#mbc665c7133" y="291.962574621"/>
    </g>
   </g>
   <g id="line2d_4"/>
   <g id="line2d_5">
    <path clip-path="url(#pd538b76e3d)" d="M 239.485714 323.496646 
" style="fill:none;stroke:#000080;stroke-linecap:square;"/>
    <defs>
     <path d="M -12 12 
L 12 -12 
M -12 -12 
L 12 12 
" id="mc6cabd9397" style="stroke:#000080;stroke-width:3.0;"/>
    </defs>
    <g clip-path="url(#pd538b76e3d)">
     <use style="fill:#000080;stroke:#000080;stroke-width:3.0;" x="239.485714286" xlink:href="#mc6cabd9397" y="323.496645676"/>
    </g>
   </g>
   <g id="line2d_6">
    <defs>
     <path d="M 0 1.5 
C 0.397805 1.5 0.77937 1.341951 1.06066 1.06066 
C 1.341951 0.77937 1.5 0.397805 1.5 0 
C 1.5 -0.397805 1.341951 -0.77937 1.06066 -1.06066 
C 0.77937 -1.341951 0.397805 -1.5 0 -1.5 
C -0.397805 -1.5 -0.77937 -1.341951 -1.06066 -1.06066 
C -1.341951 -0.77937 -1.5 -0.397805 -1.5 0 
C -1.5 0.397805 -1.341951 0.77937 -1.06066 1.06066 
C -0.77937 1.341951 -0.397805 1.5 0 1.5 
z
" id="m0856c17657" style="stroke:#ff00ff;stroke-width:0.5;"/>
    </defs>
    <g>
     <use style="fill:#ff00ff;stroke:#ff00ff;stroke-width:0.5;" x="333.48098558" xlink:href="#m0856c17657" y="278.543820981"/>
     <use style="fill:#ff00ff;stroke:#ff00ff;stroke-width:0.5;" x="333.48098558" xlink:href="#m0856c17657" y="278.543820981"/>
    </g>
   </g>
   <g id="line2d_7">
    <path d="M 166.795919 359.056343 
L 166.795919 358.385405 
L 168.14317 358.385405 
L 168.14317 357.714467 
L 172.305957 357.714467 
L 172.305957 356.372592 
L 172.75357 356.372592 
L 172.75357 355.701654 
L 174.459372 355.701654 
L 174.459372 355.030717 
L 176.870021 355.030717 
L 176.870021 354.359779 
L 178.019349 354.359779 
L 178.019349 353.688841 
L 178.57257 353.688841 
L 178.57257 353.017904 
L 180.407572 353.017904 
L 180.407572 352.346966 
L 181.089141 352.346966 
L 181.089141 351.676028 
L 181.331917 351.676028 
L 181.331917 351.005091 
L 182.507722 351.005091 
L 182.507722 350.334153 
L 182.678874 350.334153 
L 182.678874 349.663215 
L 183.128968 349.663215 
L 183.184597 348.32134 
L 183.895445 348.32134 
L 183.895445 346.979465 
L 185.151147 346.979465 
L 185.151147 346.308527 
L 185.504478 346.308527 
L 185.504478 345.637589 
L 187.284538 345.637589 
L 187.284538 344.295714 
L 187.967623 344.295714 
L 187.967623 343.624776 
L 188.630436 343.624776 
L 188.630436 342.953838 
L 189.358587 342.953838 
L 189.358587 342.282901 
L 189.776079 342.282901 
L 189.776079 340.941025 
L 190.428246 340.941025 
L 190.428246 340.270088 
L 191.753932 340.270088 
L 191.753932 339.59915 
L 193.183576 339.59915 
L 193.183576 338.257275 
L 193.60567 338.257275 
L 193.60567 337.586337 
L 193.951422 337.586337 
L 193.951422 336.244462 
L 195.186091 336.244462 
L 195.186091 335.573524 
L 195.699565 335.573524 
L 195.699565 333.560711 
L 195.857635 333.560711 
L 195.857635 332.218836 
L 196.631626 332.218836 
L 196.692402 330.87696 
L 196.783257 330.87696 
L 196.783257 330.206022 
L 197.291235 330.206022 
L 197.291235 329.535085 
L 199.296112 329.535085 
L 199.296112 328.193209 
L 199.484368 328.193209 
L 199.484368 327.522272 
L 200.607236 327.522272 
L 200.607236 326.180396 
L 201.135754 326.180396 
L 201.135754 325.509459 
L 202.904379 325.509459 
L 202.904379 324.838521 
L 203.31421 324.838521 
L 203.31421 324.167583 
L 203.694487 324.167583 
L 203.694487 323.496646 
L 204.670924 323.496646 
L 204.670924 322.825708 
L 204.882232 322.825708 
L 204.882232 320.141957 
L 205.969964 320.141957 
L 205.969964 318.800082 
L 206.582466 318.800082 
L 206.582466 318.129144 
L 208.12603 318.129144 
L 208.12603 317.458207 
L 208.433109 317.458207 
L 208.433109 316.116331 
L 210.008732 316.116331 
L 210.008732 315.445393 
L 211.837611 315.445393 
L 211.837611 314.774456 
L 241.663159 314.774456 
L 241.735978 313.43258 
L 242.152123 313.43258 
L 242.207555 312.090705 
L 242.545081 312.090705 
L 242.564548 309.406954 
L 243.026751 309.406954 
L 243.026751 308.065079 
L 243.174931 308.065079 
L 243.174931 307.394141 
L 243.385997 307.394141 
L 243.385997 306.052266 
L 243.520636 306.052266 
L 243.520636 305.381328 
L 243.75063 305.381328 
L 243.787505 304.039453 
L 244.094874 304.039453 
L 244.094874 303.368515 
L 244.390899 303.368515 
L 244.390899 302.697578 
L 244.612147 302.697578 
L 244.612147 301.355702 
L 244.774894 301.355702 
L 244.774894 300.684764 
L 256.139798 300.684764 
L 256.139798 300.013827 
L 256.756397 300.013827 
L 256.844869 298.001014 
L 257.390522 298.001014 
L 257.48251 296.659138 
L 257.570146 296.659138 
L 257.677231 294.646325 
L 257.991539 294.646325 
L 257.991539 293.975388 
L 265.425735 293.975388 
L 265.425735 293.30445 
L 265.551237 293.30445 
L 265.551237 292.633512 
L 265.66774 292.633512 
L 265.731282 291.291637 
L 265.804271 291.291637 
L 265.804271 290.620699 
L 265.929037 290.620699 
L 265.929037 289.949762 
L 276.518224 289.949762 
L 276.518224 289.278824 
L 280.413113 289.278824 
L 280.445257 287.266011 
L 280.559176 287.266011 
L 280.559176 286.595073 
L 283.695904 286.595073 
L 283.695904 285.924135 
L 286.639279 285.924135 
L 286.639279 285.253198 
L 291.552791 285.253198 
L 291.552791 284.58226 
L 293.543001 284.58226 
L 293.543001 283.911322 
L 298.8373 283.911322 
L 298.8373 283.240385 
L 304.349438 283.240385 
L 304.349438 282.569447 
L 306.672184 282.569447 
L 306.672184 281.898509 
L 308.785001 281.898509 
L 308.785001 281.227572 
L 321.459163 281.227572 
L 321.459163 280.556634 
L 326.972267 280.556634 
L 326.972267 279.885696 
L 328.271221 279.885696 
L 328.271221 279.214759 
L 333.480986 279.214759 
L 333.480986 278.543821 
L 445.2 278.543821 
L 445.2 278.543821 
" style="fill:none;stroke:#ff00ff;stroke-linecap:square;stroke-width:1.5;"/>
   </g>
   <g id="line2d_8">
    <defs>
     <path d="M -0 8.485281 
L 5.091169 0 
L 0 -8.485281 
L -5.091169 -0 
z
" id="m7f6a1fed7e" style="stroke:#ff00ff;stroke-linejoin:miter;stroke-width:1.5;"/>
    </defs>
    <g>
     <use style="fill:none;stroke:#ff00ff;stroke-linejoin:miter;stroke-width:1.5;" x="199.484368096" xlink:href="#m7f6a1fed7e" y="327.522271768"/>
     <use style="fill:none;stroke:#ff00ff;stroke-linejoin:miter;stroke-width:1.5;" x="242.564548478" xlink:href="#m7f6a1fed7e" y="309.406954354"/>
     <use style="fill:none;stroke:#ff00ff;stroke-linejoin:miter;stroke-width:1.5;" x="333.48098558" xlink:href="#m7f6a1fed7e" y="279.214758663"/>
     <use style="fill:none;stroke:#ff00ff;stroke-linejoin:miter;stroke-width:1.5;" x="333.48098558" xlink:href="#m7f6a1fed7e" y="278.543820981"/>
     <use style="fill:none;stroke:#ff00ff;stroke-linejoin:miter;stroke-width:1.5;" x="445.2" xlink:href="#m7f6a1fed7e" y="278.543820981"/>
    </g>
   </g>
   <g id="line2d_9"/>
   <g id="line2d_10">
    <path clip-path="url(#pd538b76e3d)" d="M 239.485714 314.774456 
" style="fill:none;stroke:#ff00ff;stroke-linecap:square;"/>
    <defs>
     <path d="M -12 12 
L 12 -12 
M -12 -12 
L 12 12 
" id="m3b29263002" style="stroke:#ff00ff;stroke-width:3.0;"/>
    </defs>
    <g clip-path="url(#pd538b76e3d)">
     <use style="fill:#ff00ff;stroke:#ff00ff;stroke-width:3.0;" x="239.485714286" xlink:href="#m3b29263002" y="314.77445581"/>
    </g>
   </g>
   <g id="line2d_11">
    <defs>
     <path d="M 0 1.5 
C 0.397805 1.5 0.77937 1.341951 1.06066 1.06066 
C 1.341951 0.77937 1.5 0.397805 1.5 0 
C 1.5 -0.397805 1.341951 -0.77937 1.06066 -1.06066 
C 0.77937 -1.341951 0.397805 -1.5 0 -1.5 
C -0.397805 -1.5 -0.77937 -1.341951 -1.06066 -1.06066 
C -1.341951 -0.77937 -1.5 -0.397805 -1.5 0 
C -1.5 0.397805 -1.341951 0.77937 -1.06066 1.06066 
C -0.77937 1.341951 -0.397805 1.5 0 1.5 
z
" id="m6d11d20f7d" style="stroke:#ffa500;stroke-width:0.5;"/>
    </defs>
    <g>
     <use style="fill:#ffa500;stroke:#ffa500;stroke-width:0.5;" x="327.717805998" xlink:href="#m6d11d20f7d" y="352.346966002"/>
     <use style="fill:#ffa500;stroke:#ffa500;stroke-width:0.5;" x="327.717805998" xlink:href="#m6d11d20f7d" y="352.346966002"/>
    </g>
   </g>
   <g id="line2d_12">
    <path d="M 238.447959 359.056343 
L 238.447959 358.385405 
L 254.454406 358.385405 
L 254.454406 357.714467 
L 263.68279 357.714467 
L 263.68279 356.372592 
L 279.335276 356.372592 
L 279.335276 355.701654 
L 290.812653 355.701654 
L 290.812653 355.030717 
L 296.696092 355.030717 
L 296.696092 354.359779 
L 306.34507 354.359779 
L 306.34507 353.688841 
L 320.108666 353.688841 
L 320.108666 353.017904 
L 327.717806 353.017904 
L 327.717806 352.346966 
L 445.2 352.346966 
" style="fill:none;stroke:#ffa500;stroke-linecap:square;stroke-width:1.5;"/>
   </g>
   <g id="line2d_13">
    <defs>
     <path d="M 0 -6 
L -1.347084 -1.854102 
L -5.706339 -1.854102 
L -2.179628 0.708204 
L -3.526712 4.854102 
L -0 2.291796 
L 3.526712 4.854102 
L 2.179628 0.708204 
L 5.706339 -1.854102 
L 1.347084 -1.854102 
z
" id="m1c64597b4a" style="stroke:#ffa500;stroke-linejoin:bevel;stroke-width:1.5;"/>
    </defs>
    <g>
     <use style="fill:none;stroke:#ffa500;stroke-linejoin:bevel;stroke-width:1.5;" x="279.335276216" xlink:href="#m1c64597b4a" y="356.372592094"/>
     <use style="fill:none;stroke:#ffa500;stroke-linejoin:bevel;stroke-width:1.5;" x="327.717805998" xlink:href="#m1c64597b4a" y="353.017903684"/>
     <use style="fill:none;stroke:#ffa500;stroke-linejoin:bevel;stroke-width:1.5;" x="327.717805998" xlink:href="#m1c64597b4a" y="352.346966002"/>
     <use style="fill:none;stroke:#ffa500;stroke-linejoin:bevel;stroke-width:1.5;" x="445.2" xlink:href="#m1c64597b4a" y="352.346966002"/>
    </g>
   </g>
   <g id="line2d_14"/>
   <g id="line2d_15">
    <path clip-path="url(#pd538b76e3d)" d="M 239.485714 358.385405 
" style="fill:none;stroke:#ffa500;stroke-linecap:square;"/>
    <defs>
     <path d="M -12 12 
L 12 -12 
M -12 -12 
L 12 12 
" id="me4e9ed6715" style="stroke:#ffa500;stroke-width:3.0;"/>
    </defs>
    <g clip-path="url(#pd538b76e3d)">
     <use style="fill:#ffa500;stroke:#ffa500;stroke-width:3.0;" x="239.485714286" xlink:href="#me4e9ed6715" y="358.38540514"/>
    </g>
   </g>
   <g id="line2d_16">
    <defs>
     <path d="M 0 1.5 
C 0.397805 1.5 0.77937 1.341951 1.06066 1.06066 
C 1.341951 0.77937 1.5 0.397805 1.5 0 
C 1.5 -0.397805 1.341951 -0.77937 1.06066 -1.06066 
C 0.77937 -1.341951 0.397805 -1.5 0 -1.5 
C -0.397805 -1.5 -0.77937 -1.341951 -1.06066 -1.06066 
C -1.341951 -0.77937 -1.5 -0.397805 -1.5 0 
C -1.5 0.397805 -1.341951 0.77937 -1.06066 1.06066 
C -0.77937 1.341951 -0.397805 1.5 0 1.5 
z
" id="m5687c3366e" style="stroke:#6495ed;stroke-width:0.5;"/>
    </defs>
    <g>
     <use style="fill:#6495ed;stroke:#6495ed;stroke-width:0.5;" x="308.47967654" xlink:href="#m5687c3366e" y="332.218835542"/>
     <use style="fill:#6495ed;stroke:#6495ed;stroke-width:0.5;" x="308.47967654" xlink:href="#m5687c3366e" y="332.218835542"/>
    </g>
   </g>
   <g id="line2d_17">
    <path d="M 200.273678 359.056343 
L 200.273678 357.714467 
L 212.189112 357.714467 
L 212.189112 356.372592 
L 219.451571 356.372592 
L 219.451571 355.030717 
L 227.172339 355.030717 
L 227.172339 354.359779 
L 239.712379 354.359779 
L 239.712379 353.688841 
L 239.958644 353.688841 
L 239.958644 353.017904 
L 243.923415 353.017904 
L 243.923415 352.346966 
L 245.252688 352.346966 
L 245.252688 351.676028 
L 247.124964 351.676028 
L 247.124964 350.334153 
L 247.922844 350.334153 
L 247.922844 349.663215 
L 249.648582 349.663215 
L 249.648582 347.650402 
L 255.080877 347.650402 
L 255.080877 346.979465 
L 257.296141 346.979465 
L 257.296141 346.308527 
L 260.621807 346.308527 
L 260.621807 344.966651 
L 266.870096 344.966651 
L 266.870096 344.295714 
L 267.203172 344.295714 
L 267.203172 342.953838 
L 270.200622 342.953838 
L 270.200622 342.282901 
L 271.393418 342.282901 
L 271.393418 340.941025 
L 272.617125 340.941025 
L 272.617125 340.270088 
L 272.664706 340.270088 
L 272.664706 339.59915 
L 277.183918 339.59915 
L 277.183918 338.928212 
L 280.308502 338.928212 
L 280.308502 338.257275 
L 280.973603 338.257275 
L 280.973603 337.586337 
L 281.553001 337.586337 
L 281.553001 336.915399 
L 287.040808 336.915399 
L 287.040808 336.244462 
L 287.176407 336.244462 
L 287.176407 334.902586 
L 299.070737 334.902586 
L 299.070737 334.231649 
L 299.904496 334.231649 
L 299.904496 333.560711 
L 304.542954 333.560711 
L 304.542954 332.889773 
L 308.479677 332.889773 
L 308.479677 332.218836 
L 445.2 332.218836 
" style="fill:none;stroke:#6495ed;stroke-linecap:square;stroke-width:1.5;"/>
   </g>
   <g id="line2d_18">
    <defs>
     <path d="M -0 6 
L 6 -6 
L -6 -6 
z
" id="mb633188391" style="stroke:#6495ed;stroke-linejoin:miter;stroke-width:1.5;"/>
    </defs>
    <g>
     <use style="fill:none;stroke:#6495ed;stroke-linejoin:miter;stroke-width:1.5;" x="271.393417871" xlink:href="#mb633188391" y="342.282900772"/>
     <use style="fill:none;stroke:#6495ed;stroke-linejoin:miter;stroke-width:1.5;" x="308.47967654" xlink:href="#mb633188391" y="332.889773224"/>
     <use style="fill:none;stroke:#6495ed;stroke-linejoin:miter;stroke-width:1.5;" x="308.47967654" xlink:href="#mb633188391" y="332.218835542"/>
     <use style="fill:none;stroke:#6495ed;stroke-linejoin:miter;stroke-width:1.5;" x="308.47967654" xlink:href="#mb633188391" y="332.218835542"/>
     <use style="fill:none;stroke:#6495ed;stroke-linejoin:miter;stroke-width:1.5;" x="445.2" xlink:href="#mb633188391" y="332.218835542"/>
    </g>
   </g>
   <g id="line2d_19"/>
   <g id="line2d_20">
    <path clip-path="url(#pd538b76e3d)" d="M 239.485714 354.359779 
" style="fill:none;stroke:#6495ed;stroke-linecap:square;"/>
    <defs>
     <path d="M -12 12 
L 12 -12 
M -12 -12 
L 12 12 
" id="mbe573fa0a5" style="stroke:#6495ed;stroke-width:3.0;"/>
    </defs>
    <g clip-path="url(#pd538b76e3d)">
     <use style="fill:#6495ed;stroke:#6495ed;stroke-width:3.0;" x="239.485714286" xlink:href="#mbe573fa0a5" y="354.359779048"/>
    </g>
   </g>
   <g id="line2d_21">
    <defs>
     <path d="M 0 1.5 
C 0.397805 1.5 0.77937 1.341951 1.06066 1.06066 
C 1.341951 0.77937 1.5 0.397805 1.5 0 
C 1.5 -0.397805 1.341951 -0.77937 1.06066 -1.06066 
C 0.77937 -1.341951 0.397805 -1.5 0 -1.5 
C -0.397805 -1.5 -0.77937 -1.341951 -1.06066 -1.06066 
C -1.341951 -0.77937 -1.5 -0.397805 -1.5 0 
C -1.5 0.397805 -1.341951 0.77937 -1.06066 1.06066 
C -0.77937 1.341951 -0.397805 1.5 0 1.5 
z
" id="md01b634bc1" style="stroke:#ff0000;stroke-width:0.5;"/>
    </defs>
    <g>
     <use style="fill:#ff0000;stroke:#ff0000;stroke-width:0.5;" x="309.903484283" xlink:href="#md01b634bc1" y="151.065661401"/>
     <use style="fill:#ff0000;stroke:#ff0000;stroke-width:0.5;" x="309.903484283" xlink:href="#md01b634bc1" y="151.065661401"/>
    </g>
   </g>
   <g id="line2d_22">
    <path d="M 49.252971 359.056343 
L 49.252971 348.32134 
L 64.734514 348.32134 
L 64.734514 335.573524 
L 73.790636 335.573524 
L 73.790636 334.902586 
L 80.216056 334.902586 
L 80.216056 334.231649 
L 85.2 334.231649 
L 85.2 331.547898 
L 95.697599 331.547898 
L 95.697599 330.206022 
L 98.3283 330.206022 
L 98.3283 328.193209 
L 102.810309 328.193209 
L 102.810309 327.522272 
L 104.753721 327.522272 
L 104.753721 326.851334 
L 106.541486 326.851334 
L 106.541486 324.838521 
L 109.737665 324.838521 
L 109.737665 322.15477 
L 113.809843 322.15477 
L 113.809843 321.483833 
L 117.252821 321.483833 
L 117.252821 319.47102 
L 119.284688 319.47102 
L 119.284688 317.458207 
L 120.235264 317.458207 
L 120.235264 316.787269 
L 121.147029 316.787269 
L 121.147029 316.116331 
L 122.865965 316.116331 
L 122.865965 312.090705 
L 123.678241 312.090705 
L 123.678241 311.419767 
L 128.014744 311.419767 
L 128.014744 310.74883 
L 128.662185 310.74883 
L 128.662185 310.077892 
L 134.275329 310.077892 
L 134.275329 309.406954 
L 137.070866 309.406954 
L 137.070866 308.736017 
L 143.822353 308.736017 
L 143.822353 306.723204 
L 148.741463 306.723204 
L 148.741463 304.710391 
L 152.332356 304.710391 
L 152.332356 302.697578 
L 152.552409 302.697578 
L 152.552409 302.02664 
L 153.199849 302.02664 
L 153.199849 301.355702 
L 154.44101 301.355702 
L 154.44101 300.684764 
L 155.036649 300.684764 
L 155.036649 299.342889 
L 156.551477 299.342889 
L 156.551477 298.671951 
L 157.094058 298.671951 
L 157.094058 298.001014 
L 159.141458 298.001014 
L 159.141458 296.659138 
L 161.166236 296.659138 
L 161.166236 295.988201 
L 162.042236 295.988201 
L 162.042236 295.317263 
L 162.46768 295.317263 
L 162.46768 293.30445 
L 164.481218 293.30445 
L 164.481218 291.962575 
L 165.113984 291.962575 
L 165.113984 291.291637 
L 165.97078 291.291637 
L 165.97078 290.620699 
L 166.32815 290.620699 
L 166.32815 289.949762 
L 167.924196 289.949762 
L 167.924196 289.278824 
L 168.14317 289.278824 
L 168.14317 288.607886 
L 169.516448 288.607886 
L 169.516448 287.266011 
L 169.720423 287.266011 
L 169.720423 286.595073 
L 170.906639 286.595073 
L 170.906639 285.924135 
L 171.193604 285.924135 
L 171.288446 284.58226 
L 172.12437 284.58226 
L 172.12437 283.240385 
L 172.842027 283.240385 
L 172.930134 281.227572 
L 173.017895 281.227572 
L 173.017895 278.543821 
L 173.792602 278.543821 
L 173.877045 275.86007 
L 174.044979 275.86007 
L 174.044979 275.189133 
L 174.541336 275.189133 
L 174.541336 273.847257 
L 174.785438 273.847257 
L 174.785438 273.17632 
L 175.344845 273.17632 
L 175.344845 271.163506 
L 175.502135 271.163506 
L 175.580367 269.821631 
L 177.016963 269.821631 
L 177.016963 269.150693 
L 177.307979 269.150693 
L 177.307979 268.479756 
L 177.666496 268.479756 
L 177.666496 267.13788 
L 178.978675 267.13788 
L 179.045647 265.796005 
L 179.245366 265.796005 
L 179.311544 264.45413 
L 179.769382 264.45413 
L 179.769382 263.783192 
L 180.657829 263.783192 
L 180.657829 262.441317 
L 180.966757 262.441317 
L 180.966757 260.428504 
L 181.150083 260.428504 
L 181.150083 259.757566 
L 181.27147 259.757566 
L 181.27147 259.086628 
L 181.750526 259.086628 
L 181.750526 258.415691 
L 181.868702 258.415691 
L 181.927556 255.061002 
L 182.335249 255.061002 
L 182.335249 254.390064 
L 182.905054 254.390064 
L 182.905054 252.377251 
L 183.295441 252.377251 
L 183.295441 249.693501 
L 183.679122 249.693501 
L 183.787545 248.351625 
L 184.374644 248.351625 
L 184.374644 247.00975 
L 185.049159 247.00975 
L 185.049159 245.667875 
L 185.25267 245.667875 
L 185.25267 244.325999 
L 185.404095 244.325999 
L 185.404095 243.655062 
L 185.852307 243.655062 
L 185.9507 240.971311 
L 186.339994 240.971311 
L 186.339994 240.300373 
L 186.9115 240.300373 
L 187.005345 238.28756 
L 187.330733 238.28756 
L 187.330733 236.945685 
L 188.146305 236.945685 
L 188.146305 236.274747 
L 188.411676 236.274747 
L 188.411676 235.603809 
L 189.316406 235.603809 
L 189.400689 232.920059 
L 189.981934 232.920059 
L 189.981934 231.578183 
L 190.145263 231.578183 
L 190.145263 230.236308 
L 190.983678 230.236308 
L 190.983678 226.881619 
L 191.525632 226.881619 
L 191.525632 226.210682 
L 192.166515 226.210682 
L 192.166515 225.539744 
L 192.789521 225.539744 
L 192.861687 224.197869 
L 193.076794 224.197869 
L 193.076794 222.855993 
L 193.360419 222.855993 
L 193.360419 222.185056 
L 193.500892 222.185056 
L 193.500892 221.514118 
L 193.640487 221.514118 
L 193.640487 220.84318 
L 194.054113 220.84318 
L 194.054113 219.501305 
L 194.224221 219.501305 
L 194.224221 218.830367 
L 194.693746 218.830367 
L 194.760022 216.817554 
L 195.023179 216.817554 
L 195.023179 215.475679 
L 195.31557 215.475679 
L 195.31557 214.804741 
L 195.794541 214.804741 
L 195.794541 214.133804 
L 195.920551 214.133804 
L 195.920551 212.791928 
L 196.294369 212.791928 
L 196.386855 211.450053 
L 196.873743 211.450053 
L 196.873743 210.779115 
L 197.350245 210.779115 
L 197.350245 209.43724 
L 198.498834 209.43724 
L 198.498834 208.095364 
L 198.804609 208.095364 
L 198.804609 206.082551 
L 200.013662 206.082551 
L 200.013662 205.411614 
L 200.247812 205.411614 
L 200.273678 202.727863 
L 201.989741 202.727863 
L 201.989741 198.702237 
L 202.109117 198.702237 
L 202.109117 198.031299 
L 202.463463 198.031299 
L 202.463463 197.360361 
L 203.583311 197.360361 
L 203.605591 196.018486 
L 207.254395 196.018486 
L 207.254395 194.676611 
L 207.592243 194.676611 
L 207.592243 194.005673 
L 210.008732 194.005673 
L 210.108815 191.321922 
L 210.225014 191.321922 
L 210.225014 190.650985 
L 211.511772 190.650985 
L 211.511772 189.309109 
L 211.975815 189.309109 
L 211.991118 187.296296 
L 212.669134 187.296296 
L 212.669134 185.954421 
L 214.710033 185.954421 
L 214.710033 184.612546 
L 217.048372 184.612546 
L 217.048372 183.941608 
L 218.795752 183.941608 
L 218.795752 183.27067 
L 218.9867 183.27067 
L 218.9867 182.599732 
L 222.132118 182.599732 
L 222.132118 181.928795 
L 222.267718 181.928795 
L 222.267718 181.257857 
L 223.815764 181.257857 
L 223.815764 180.586919 
L 226.423428 180.586919 
L 226.423428 179.915982 
L 227.964394 179.915982 
L 227.964394 179.245044 
L 228.143255 179.245044 
L 228.143255 177.903169 
L 234.823305 177.903169 
L 234.823305 177.232231 
L 238.433916 177.232231 
L 238.433916 176.561293 
L 242.38088 176.561293 
L 242.439662 175.219418 
L 243.045804 175.219418 
L 243.045804 173.206605 
L 244.286655 173.206605 
L 244.286655 172.535667 
L 245.204329 172.535667 
L 245.204329 171.86473 
L 245.74749 171.86473 
L 245.74749 171.193792 
L 248.82003 171.193792 
L 248.82003 170.522854 
L 251.533584 170.522854 
L 251.533584 169.851916 
L 251.678971 169.851916 
L 251.678971 168.510041 
L 251.84141 168.510041 
L 251.84141 167.839103 
L 256.818159 167.839103 
L 256.818159 166.497228 
L 259.04874 166.497228 
L 259.04874 165.82629 
L 263.17357 165.82629 
L 263.17357 165.155353 
L 263.678254 165.155353 
L 263.678254 164.484415 
L 263.899448 164.484415 
L 263.899448 163.813477 
L 265.274196 163.813477 
L 265.274196 163.14254 
L 266.096577 163.14254 
L 266.096577 162.471602 
L 266.825484 162.471602 
L 266.825484 161.800664 
L 270.190457 161.800664 
L 270.190457 161.129727 
L 272.069286 161.129727 
L 272.069286 160.458789 
L 272.582642 160.458789 
L 272.582642 159.787851 
L 277.155815 159.787851 
L 277.155815 159.116914 
L 279.333026 159.116914 
L 279.333026 158.445976 
L 285.801544 158.445976 
L 285.801544 157.775038 
L 286.407645 157.775038 
L 286.407645 157.104101 
L 287.022736 157.104101 
L 287.022736 156.433163 
L 289.29581 156.433163 
L 289.29581 155.762225 
L 291.792434 155.762225 
L 291.792434 155.091287 
L 292.949455 155.091287 
L 292.949455 154.42035 
L 303.286674 154.42035 
L 303.286674 153.078474 
L 304.534702 153.078474 
L 304.534702 152.407537 
L 308.699342 152.407537 
L 308.699342 151.736599 
L 309.903484 151.736599 
L 309.903484 151.065661 
L 445.2 151.065661 
L 445.2 151.065661 
" style="fill:none;stroke:#ff0000;stroke-linecap:square;stroke-width:1.5;"/>
   </g>
   <g id="line2d_23">
    <defs>
     <path d="M 0 -6 
L -5.196152 -3 
L -5.196152 3 
L -0 6 
L 5.196152 3 
L 5.196152 -3 
z
" id="mdadaa095ab" style="stroke:#ff0000;stroke-linejoin:miter;stroke-width:1.5;"/>
    </defs>
    <g>
     <use style="fill:none;stroke:#ff0000;stroke-linejoin:miter;stroke-width:1.5;" x="173.017894771" xlink:href="#mdadaa095ab" y="278.543820981"/>
     <use style="fill:none;stroke:#ff0000;stroke-linejoin:miter;stroke-width:1.5;" x="195.315570349" xlink:href="#mdadaa095ab" y="215.475678873"/>
     <use style="fill:none;stroke:#ff0000;stroke-linejoin:miter;stroke-width:1.5;" x="279.333025559" xlink:href="#mdadaa095ab" y="159.116913585"/>
     <use style="fill:none;stroke:#ff0000;stroke-linejoin:miter;stroke-width:1.5;" x="309.903484283" xlink:href="#mdadaa095ab" y="151.065661401"/>
     <use style="fill:none;stroke:#ff0000;stroke-linejoin:miter;stroke-width:1.5;" x="309.903484283" xlink:href="#mdadaa095ab" y="151.065661401"/>
     <use style="fill:none;stroke:#ff0000;stroke-linejoin:miter;stroke-width:1.5;" x="445.2" xlink:href="#mdadaa095ab" y="151.065661401"/>
    </g>
   </g>
   <g id="line2d_24"/>
   <g id="line2d_25">
    <path clip-path="url(#pd538b76e3d)" d="M 239.485714 176.561293 
" style="fill:none;stroke:#ff0000;stroke-linecap:square;"/>
    <defs>
     <path d="M -12 12 
L 12 -12 
M -12 -12 
L 12 12 
" id="me74c004f3a" style="stroke:#ff0000;stroke-width:3.0;"/>
    </defs>
    <g clip-path="url(#pd538b76e3d)">
     <use style="fill:#ff0000;stroke:#ff0000;stroke-width:3.0;" x="239.485714286" xlink:href="#me74c004f3a" y="176.561293317"/>
    </g>
   </g>
   <g id="line2d_26">
    <path d="M 445.2 352.346966 
L 484.8 352.212778 
" style="fill:none;stroke:#ffa500;stroke-linecap:square;stroke-width:1.5;"/>
    <g>
     <use style="fill:none;stroke:#ffa500;stroke-linejoin:bevel;stroke-width:1.5;" x="445.2" xlink:href="#m1c64597b4a" y="352.346966002"/>
     <use style="fill:none;stroke:#ffa500;stroke-linejoin:bevel;stroke-width:1.5;" x="484.8" xlink:href="#m1c64597b4a" y="352.212778465"/>
    </g>
   </g>
   <g id="line2d_27">
    <path d="M 445.2 332.218836 
L 484.8 270.090006 
" style="fill:none;stroke:#6495ed;stroke-linecap:square;stroke-width:1.5;"/>
    <g>
     <use style="fill:none;stroke:#6495ed;stroke-linejoin:miter;stroke-width:1.5;" x="445.2" xlink:href="#mb633188391" y="332.218835542"/>
     <use style="fill:none;stroke:#6495ed;stroke-linejoin:miter;stroke-width:1.5;" x="484.8" xlink:href="#mb633188391" y="270.090006188"/>
    </g>
   </g>
   <g id="line2d_28">
    <path d="M 445.2 291.962575 
L 484.8 187.967234 
" style="fill:none;stroke:#000080;stroke-linecap:square;stroke-width:1.5;"/>
    <g>
     <use style="fill:none;stroke:#000080;stroke-width:1.5;" x="445.2" xlink:href="#mbc665c7133" y="291.962574621"/>
     <use style="fill:none;stroke:#000080;stroke-width:1.5;" x="484.8" xlink:href="#mbc665c7133" y="187.967233911"/>
    </g>
   </g>
   <g id="line2d_29">
    <path d="M 445.2 278.543821 
L 484.8 105.844462 
" style="fill:none;stroke:#ff00ff;stroke-linecap:square;stroke-width:1.5;"/>
    <g>
     <use style="fill:none;stroke:#ff00ff;stroke-linejoin:miter;stroke-width:1.5;" x="445.2" xlink:href="#m7f6a1fed7e" y="278.543820981"/>
     <use style="fill:none;stroke:#ff00ff;stroke-linejoin:miter;stroke-width:1.5;" x="484.8" xlink:href="#m7f6a1fed7e" y="105.844461634"/>
    </g>
   </g>
   <g id="line2d_30">
    <path d="M 445.2 151.065661 
L 484.8 23.721689 
" style="fill:none;stroke:#ff0000;stroke-linecap:square;stroke-width:1.5;"/>
    <g>
     <use style="fill:none;stroke:#ff0000;stroke-linejoin:miter;stroke-width:1.5;" x="445.2" xlink:href="#mdadaa095ab" y="151.065661401"/>
     <use style="fill:none;stroke:#ff0000;stroke-linejoin:miter;stroke-width:1.5;" x="484.8" xlink:href="#mdadaa095ab" y="23.7216893564"/>
    </g>
   </g>
   <g id="line2d_31">
    <path d="M 445.2 359.056343 
L 445.2 16.878125 
" style="fill:none;stroke:#000000;stroke-linecap:square;"/>
   </g>
   <g id="patch_3">
    <path d="M 85.2 13.456343 
L 531.6 13.456343 
" style="fill:none;stroke:#000000;stroke-linecap:square;stroke-linejoin:miter;"/>
   </g>
   <g id="patch_4">
    <path d="M 531.6 359.056343 
L 531.6 13.456343 
" style="fill:none;stroke:#000000;stroke-linecap:square;stroke-linejoin:miter;"/>
   </g>
   <g id="patch_5">
    <path d="M 85.2 359.056343 
L 531.6 359.056343 
" style="fill:none;stroke:#000000;stroke-linecap:square;stroke-linejoin:miter;"/>
   </g>
   <g id="patch_6">
    <path d="M 85.2 359.056343 
L 85.2 13.456343 
" style="fill:none;stroke:#000000;stroke-linecap:square;stroke-linejoin:miter;"/>
   </g>
   <g id="matplotlib.axis_1">
    <g id="xtick_1">
     <g id="line2d_32">
      <path clip-path="url(#pd538b76e3d)" d="M 85.2 359.056343 
L 85.2 13.456343 
" style="fill:none;stroke:#000000;stroke-dasharray:1.000000,3.000000;stroke-dashoffset:0.0;stroke-width:0.5;"/>
     </g>
     <g id="line2d_33">
      <defs>
       <path d="M 0 0 
L 0 -4 
" id="m562656a719" style="stroke:#000000;stroke-width:0.5;"/>
      </defs>
      <g>
       <use style="stroke:#000000;stroke-width:0.5;" x="85.2" xlink:href="#m562656a719" y="359.056342822"/>
      </g>
     </g>
     <g id="line2d_34">
      <defs>
       <path d="M 0 0 
L 0 4 
" id="mea5c25aa05" style="stroke:#000000;stroke-width:0.5;"/>
      </defs>
      <g>
       <use style="stroke:#000000;stroke-width:0.5;" x="85.2" xlink:href="#mea5c25aa05" y="13.4563428218"/>
      </g>
     </g>
     <g id="text_1">
      <!-- 0 -->
      <defs>
       <path d="M 31.78125 66.40625 
Q 24.171875 66.40625 20.328125 58.90625 
Q 16.5 51.421875 16.5 36.375 
Q 16.5 21.390625 20.328125 13.890625 
Q 24.171875 6.390625 31.78125 6.390625 
Q 39.453125 6.390625 43.28125 13.890625 
Q 47.125 21.390625 47.125 36.375 
Q 47.125 51.421875 43.28125 58.90625 
Q 39.453125 66.40625 31.78125 66.40625 
M 31.78125 74.21875 
Q 44.046875 74.21875 50.515625 64.515625 
Q 56.984375 54.828125 56.984375 36.375 
Q 56.984375 17.96875 50.515625 8.265625 
Q 44.046875 -1.421875 31.78125 -1.421875 
Q 19.53125 -1.421875 13.0625 8.265625 
Q 6.59375 17.96875 6.59375 36.375 
Q 6.59375 54.828125 13.0625 64.515625 
Q 19.53125 74.21875 31.78125 74.21875 
" id="BitstreamVeraSans-Roman-30"/>
      </defs>
      <g transform="translate(78.8375 378.253217822)scale(0.2 -0.2)">
       <use xlink:href="#BitstreamVeraSans-Roman-30"/>
      </g>
     </g>
    </g>
    <g id="xtick_2">
     <g id="line2d_35">
      <path clip-path="url(#pd538b76e3d)" d="M 136.628571 359.056343 
L 136.628571 13.456343 
" style="fill:none;stroke:#000000;stroke-dasharray:1.000000,3.000000;stroke-dashoffset:0.0;stroke-width:0.5;"/>
     </g>
     <g id="line2d_36">
      <g>
       <use style="stroke:#000000;stroke-width:0.5;" x="136.628571429" xlink:href="#m562656a719" y="359.056342822"/>
      </g>
     </g>
     <g id="line2d_37">
      <g>
       <use style="stroke:#000000;stroke-width:0.5;" x="136.628571429" xlink:href="#mea5c25aa05" y="13.4563428218"/>
      </g>
     </g>
     <g id="text_2">
      <!-- 1 -->
      <defs>
       <path d="M 12.40625 8.296875 
L 28.515625 8.296875 
L 28.515625 63.921875 
L 10.984375 60.40625 
L 10.984375 69.390625 
L 28.421875 72.90625 
L 38.28125 72.90625 
L 38.28125 8.296875 
L 54.390625 8.296875 
L 54.390625 0 
L 12.40625 0 
z
" id="BitstreamVeraSans-Roman-31"/>
      </defs>
      <g transform="translate(130.266071429 378.253217822)scale(0.2 -0.2)">
       <use xlink:href="#BitstreamVeraSans-Roman-31"/>
      </g>
     </g>
    </g>
    <g id="xtick_3">
     <g id="line2d_38">
      <path clip-path="url(#pd538b76e3d)" d="M 188.057143 359.056343 
L 188.057143 13.456343 
" style="fill:none;stroke:#000000;stroke-dasharray:1.000000,3.000000;stroke-dashoffset:0.0;stroke-width:0.5;"/>
     </g>
     <g id="line2d_39">
      <g>
       <use style="stroke:#000000;stroke-width:0.5;" x="188.057142857" xlink:href="#m562656a719" y="359.056342822"/>
      </g>
     </g>
     <g id="line2d_40">
      <g>
       <use style="stroke:#000000;stroke-width:0.5;" x="188.057142857" xlink:href="#mea5c25aa05" y="13.4563428218"/>
      </g>
     </g>
     <g id="text_3">
      <!-- 2 -->
      <defs>
       <path d="M 19.1875 8.296875 
L 53.609375 8.296875 
L 53.609375 0 
L 7.328125 0 
L 7.328125 8.296875 
Q 12.9375 14.109375 22.625 23.890625 
Q 32.328125 33.6875 34.8125 36.53125 
Q 39.546875 41.84375 41.421875 45.53125 
Q 43.3125 49.21875 43.3125 52.78125 
Q 43.3125 58.59375 39.234375 62.25 
Q 35.15625 65.921875 28.609375 65.921875 
Q 23.96875 65.921875 18.8125 64.3125 
Q 13.671875 62.703125 7.8125 59.421875 
L 7.8125 69.390625 
Q 13.765625 71.78125 18.9375 73 
Q 24.125 74.21875 28.421875 74.21875 
Q 39.75 74.21875 46.484375 68.546875 
Q 53.21875 62.890625 53.21875 53.421875 
Q 53.21875 48.921875 51.53125 44.890625 
Q 49.859375 40.875 45.40625 35.40625 
Q 44.1875 33.984375 37.640625 27.21875 
Q 31.109375 20.453125 19.1875 8.296875 
" id="BitstreamVeraSans-Roman-32"/>
      </defs>
      <g transform="translate(181.694642857 378.253217822)scale(0.2 -0.2)">
       <use xlink:href="#BitstreamVeraSans-Roman-32"/>
      </g>
     </g>
    </g>
    <g id="xtick_4">
     <g id="line2d_41">
      <path clip-path="url(#pd538b76e3d)" d="M 239.485714 359.056343 
L 239.485714 13.456343 
" style="fill:none;stroke:#000000;stroke-dasharray:1.000000,3.000000;stroke-dashoffset:0.0;stroke-width:0.5;"/>
     </g>
     <g id="line2d_42">
      <g>
       <use style="stroke:#000000;stroke-width:0.5;" x="239.485714286" xlink:href="#m562656a719" y="359.056342822"/>
      </g>
     </g>
     <g id="line2d_43">
      <g>
       <use style="stroke:#000000;stroke-width:0.5;" x="239.485714286" xlink:href="#mea5c25aa05" y="13.4563428218"/>
      </g>
     </g>
     <g id="text_4">
      <!-- 3 -->
      <defs>
       <path d="M 40.578125 39.3125 
Q 47.65625 37.796875 51.625 33 
Q 55.609375 28.21875 55.609375 21.1875 
Q 55.609375 10.40625 48.1875 4.484375 
Q 40.765625 -1.421875 27.09375 -1.421875 
Q 22.515625 -1.421875 17.65625 -0.515625 
Q 12.796875 0.390625 7.625 2.203125 
L 7.625 11.71875 
Q 11.71875 9.328125 16.59375 8.109375 
Q 21.484375 6.890625 26.8125 6.890625 
Q 36.078125 6.890625 40.9375 10.546875 
Q 45.796875 14.203125 45.796875 21.1875 
Q 45.796875 27.640625 41.28125 31.265625 
Q 36.765625 34.90625 28.71875 34.90625 
L 20.21875 34.90625 
L 20.21875 43.015625 
L 29.109375 43.015625 
Q 36.375 43.015625 40.234375 45.921875 
Q 44.09375 48.828125 44.09375 54.296875 
Q 44.09375 59.90625 40.109375 62.90625 
Q 36.140625 65.921875 28.71875 65.921875 
Q 24.65625 65.921875 20.015625 65.03125 
Q 15.375 64.15625 9.8125 62.3125 
L 9.8125 71.09375 
Q 15.4375 72.65625 20.34375 73.4375 
Q 25.25 74.21875 29.59375 74.21875 
Q 40.828125 74.21875 47.359375 69.109375 
Q 53.90625 64.015625 53.90625 55.328125 
Q 53.90625 49.265625 50.4375 45.09375 
Q 46.96875 40.921875 40.578125 39.3125 
" id="BitstreamVeraSans-Roman-33"/>
      </defs>
      <g transform="translate(233.123214286 378.253217822)scale(0.2 -0.2)">
       <use xlink:href="#BitstreamVeraSans-Roman-33"/>
      </g>
     </g>
    </g>
    <g id="xtick_5">
     <g id="line2d_44">
      <path clip-path="url(#pd538b76e3d)" d="M 290.914286 359.056343 
L 290.914286 13.456343 
" style="fill:none;stroke:#000000;stroke-dasharray:1.000000,3.000000;stroke-dashoffset:0.0;stroke-width:0.5;"/>
     </g>
     <g id="line2d_45">
      <g>
       <use style="stroke:#000000;stroke-width:0.5;" x="290.914285714" xlink:href="#m562656a719" y="359.056342822"/>
      </g>
     </g>
     <g id="line2d_46">
      <g>
       <use style="stroke:#000000;stroke-width:0.5;" x="290.914285714" xlink:href="#mea5c25aa05" y="13.4563428218"/>
      </g>
     </g>
     <g id="text_5">
      <!-- 4 -->
      <defs>
       <path d="M 37.796875 64.3125 
L 12.890625 25.390625 
L 37.796875 25.390625 
z
M 35.203125 72.90625 
L 47.609375 72.90625 
L 47.609375 25.390625 
L 58.015625 25.390625 
L 58.015625 17.1875 
L 47.609375 17.1875 
L 47.609375 0 
L 37.796875 0 
L 37.796875 17.1875 
L 4.890625 17.1875 
L 4.890625 26.703125 
z
" id="BitstreamVeraSans-Roman-34"/>
      </defs>
      <g transform="translate(284.551785714 378.253217822)scale(0.2 -0.2)">
       <use xlink:href="#BitstreamVeraSans-Roman-34"/>
      </g>
     </g>
    </g>
    <g id="xtick_6">
     <g id="line2d_47">
      <path clip-path="url(#pd538b76e3d)" d="M 342.342857 359.056343 
L 342.342857 13.456343 
" style="fill:none;stroke:#000000;stroke-dasharray:1.000000,3.000000;stroke-dashoffset:0.0;stroke-width:0.5;"/>
     </g>
     <g id="line2d_48">
      <g>
       <use style="stroke:#000000;stroke-width:0.5;" x="342.342857143" xlink:href="#m562656a719" y="359.056342822"/>
      </g>
     </g>
     <g id="line2d_49">
      <g>
       <use style="stroke:#000000;stroke-width:0.5;" x="342.342857143" xlink:href="#mea5c25aa05" y="13.4563428218"/>
      </g>
     </g>
     <g id="text_6">
      <!-- 5 -->
      <defs>
       <path d="M 10.796875 72.90625 
L 49.515625 72.90625 
L 49.515625 64.59375 
L 19.828125 64.59375 
L 19.828125 46.734375 
Q 21.96875 47.46875 24.109375 47.828125 
Q 26.265625 48.1875 28.421875 48.1875 
Q 40.625 48.1875 47.75 41.5 
Q 54.890625 34.8125 54.890625 23.390625 
Q 54.890625 11.625 47.5625 5.09375 
Q 40.234375 -1.421875 26.90625 -1.421875 
Q 22.3125 -1.421875 17.546875 -0.640625 
Q 12.796875 0.140625 7.71875 1.703125 
L 7.71875 11.625 
Q 12.109375 9.234375 16.796875 8.0625 
Q 21.484375 6.890625 26.703125 6.890625 
Q 35.15625 6.890625 40.078125 11.328125 
Q 45.015625 15.765625 45.015625 23.390625 
Q 45.015625 31 40.078125 35.4375 
Q 35.15625 39.890625 26.703125 39.890625 
Q 22.75 39.890625 18.8125 39.015625 
Q 14.890625 38.140625 10.796875 36.28125 
z
" id="BitstreamVeraSans-Roman-35"/>
      </defs>
      <g transform="translate(335.980357143 378.253217822)scale(0.2 -0.2)">
       <use xlink:href="#BitstreamVeraSans-Roman-35"/>
      </g>
     </g>
    </g>
    <g id="xtick_7">
     <g id="line2d_50">
      <path clip-path="url(#pd538b76e3d)" d="M 393.771429 359.056343 
L 393.771429 13.456343 
" style="fill:none;stroke:#000000;stroke-dasharray:1.000000,3.000000;stroke-dashoffset:0.0;stroke-width:0.5;"/>
     </g>
     <g id="line2d_51">
      <g>
       <use style="stroke:#000000;stroke-width:0.5;" x="393.771428571" xlink:href="#m562656a719" y="359.056342822"/>
      </g>
     </g>
     <g id="line2d_52">
      <g>
       <use style="stroke:#000000;stroke-width:0.5;" x="393.771428571" xlink:href="#mea5c25aa05" y="13.4563428218"/>
      </g>
     </g>
     <g id="text_7">
      <!-- 6 -->
      <defs>
       <path d="M 33.015625 40.375 
Q 26.375 40.375 22.484375 35.828125 
Q 18.609375 31.296875 18.609375 23.390625 
Q 18.609375 15.53125 22.484375 10.953125 
Q 26.375 6.390625 33.015625 6.390625 
Q 39.65625 6.390625 43.53125 10.953125 
Q 47.40625 15.53125 47.40625 23.390625 
Q 47.40625 31.296875 43.53125 35.828125 
Q 39.65625 40.375 33.015625 40.375 
M 52.59375 71.296875 
L 52.59375 62.3125 
Q 48.875 64.0625 45.09375 64.984375 
Q 41.3125 65.921875 37.59375 65.921875 
Q 27.828125 65.921875 22.671875 59.328125 
Q 17.53125 52.734375 16.796875 39.40625 
Q 19.671875 43.65625 24.015625 45.921875 
Q 28.375 48.1875 33.59375 48.1875 
Q 44.578125 48.1875 50.953125 41.515625 
Q 57.328125 34.859375 57.328125 23.390625 
Q 57.328125 12.15625 50.6875 5.359375 
Q 44.046875 -1.421875 33.015625 -1.421875 
Q 20.359375 -1.421875 13.671875 8.265625 
Q 6.984375 17.96875 6.984375 36.375 
Q 6.984375 53.65625 15.1875 63.9375 
Q 23.390625 74.21875 37.203125 74.21875 
Q 40.921875 74.21875 44.703125 73.484375 
Q 48.484375 72.75 52.59375 71.296875 
" id="BitstreamVeraSans-Roman-36"/>
      </defs>
      <g transform="translate(387.408928571 378.253217822)scale(0.2 -0.2)">
       <use xlink:href="#BitstreamVeraSans-Roman-36"/>
      </g>
     </g>
    </g>
    <g id="xtick_8">
     <g id="line2d_53">
      <path clip-path="url(#pd538b76e3d)" d="M 445.2 359.056343 
L 445.2 13.456343 
" style="fill:none;stroke:#000000;stroke-dasharray:1.000000,3.000000;stroke-dashoffset:0.0;stroke-width:0.5;"/>
     </g>
     <g id="line2d_54">
      <g>
       <use style="stroke:#000000;stroke-width:0.5;" x="445.2" xlink:href="#m562656a719" y="359.056342822"/>
      </g>
     </g>
     <g id="line2d_55">
      <g>
       <use style="stroke:#000000;stroke-width:0.5;" x="445.2" xlink:href="#mea5c25aa05" y="13.4563428218"/>
      </g>
     </g>
     <g id="text_8">
      <!-- 7 -->
      <defs>
       <path d="M 8.203125 72.90625 
L 55.078125 72.90625 
L 55.078125 68.703125 
L 28.609375 0 
L 18.3125 0 
L 43.21875 64.59375 
L 8.203125 64.59375 
z
" id="BitstreamVeraSans-Roman-37"/>
      </defs>
      <g transform="translate(438.8375 378.253217822)scale(0.2 -0.2)">
       <use xlink:href="#BitstreamVeraSans-Roman-37"/>
      </g>
     </g>
    </g>
    <g id="xtick_9">
     <g id="line2d_56">
      <path clip-path="url(#pd538b76e3d)" d="M 496.628571 359.056343 
L 496.628571 13.456343 
" style="fill:none;stroke:#000000;stroke-dasharray:1.000000,3.000000;stroke-dashoffset:0.0;stroke-width:0.5;"/>
     </g>
     <g id="line2d_57">
      <g>
       <use style="stroke:#000000;stroke-width:0.5;" x="496.628571429" xlink:href="#m562656a719" y="359.056342822"/>
      </g>
     </g>
     <g id="line2d_58">
      <g>
       <use style="stroke:#000000;stroke-width:0.5;" x="496.628571429" xlink:href="#mea5c25aa05" y="13.4563428218"/>
      </g>
     </g>
     <g id="text_9">
      <!-- 8 -->
      <defs>
       <path d="M 31.78125 34.625 
Q 24.75 34.625 20.71875 30.859375 
Q 16.703125 27.09375 16.703125 20.515625 
Q 16.703125 13.921875 20.71875 10.15625 
Q 24.75 6.390625 31.78125 6.390625 
Q 38.8125 6.390625 42.859375 10.171875 
Q 46.921875 13.96875 46.921875 20.515625 
Q 46.921875 27.09375 42.890625 30.859375 
Q 38.875 34.625 31.78125 34.625 
M 21.921875 38.8125 
Q 15.578125 40.375 12.03125 44.71875 
Q 8.5 49.078125 8.5 55.328125 
Q 8.5 64.0625 14.71875 69.140625 
Q 20.953125 74.21875 31.78125 74.21875 
Q 42.671875 74.21875 48.875 69.140625 
Q 55.078125 64.0625 55.078125 55.328125 
Q 55.078125 49.078125 51.53125 44.71875 
Q 48 40.375 41.703125 38.8125 
Q 48.828125 37.15625 52.796875 32.3125 
Q 56.78125 27.484375 56.78125 20.515625 
Q 56.78125 9.90625 50.3125 4.234375 
Q 43.84375 -1.421875 31.78125 -1.421875 
Q 19.734375 -1.421875 13.25 4.234375 
Q 6.78125 9.90625 6.78125 20.515625 
Q 6.78125 27.484375 10.78125 32.3125 
Q 14.796875 37.15625 21.921875 38.8125 
M 18.3125 54.390625 
Q 18.3125 48.734375 21.84375 45.5625 
Q 25.390625 42.390625 31.78125 42.390625 
Q 38.140625 42.390625 41.71875 45.5625 
Q 45.3125 48.734375 45.3125 54.390625 
Q 45.3125 60.0625 41.71875 63.234375 
Q 38.140625 66.40625 31.78125 66.40625 
Q 25.390625 66.40625 21.84375 63.234375 
Q 18.3125 60.0625 18.3125 54.390625 
" id="BitstreamVeraSans-Roman-38"/>
      </defs>
      <g transform="translate(490.266071429 378.253217822)scale(0.2 -0.2)">
       <use xlink:href="#BitstreamVeraSans-Roman-38"/>
      </g>
     </g>
    </g>
    <g id="xtick_10">
     <g id="line2d_59">
      <defs>
       <path d="M 0 0 
L 0 -2 
" id="m4b0935c0a6" style="stroke:#000000;stroke-width:0.5;"/>
      </defs>
      <g>
       <use style="stroke:#000000;stroke-width:0.5;" x="100.681542634" xlink:href="#m4b0935c0a6" y="359.056342822"/>
      </g>
     </g>
     <g id="line2d_60">
      <defs>
       <path d="M 0 0 
L 0 2 
" id="m1ca1d3e02b" style="stroke:#000000;stroke-width:0.5;"/>
      </defs>
      <g>
       <use style="stroke:#000000;stroke-width:0.5;" x="100.681542634" xlink:href="#m1ca1d3e02b" y="13.4563428218"/>
      </g>
     </g>
    </g>
    <g id="xtick_11">
     <g id="line2d_61">
      <g>
       <use style="stroke:#000000;stroke-width:0.5;" x="116.163085268" xlink:href="#m4b0935c0a6" y="359.056342822"/>
      </g>
     </g>
     <g id="line2d_62">
      <g>
       <use style="stroke:#000000;stroke-width:0.5;" x="116.163085268" xlink:href="#m1ca1d3e02b" y="13.4563428218"/>
      </g>
     </g>
    </g>
    <g id="xtick_12">
     <g id="line2d_63">
      <g>
       <use style="stroke:#000000;stroke-width:0.5;" x="125.219207163" xlink:href="#m4b0935c0a6" y="359.056342822"/>
      </g>
     </g>
     <g id="line2d_64">
      <g>
       <use style="stroke:#000000;stroke-width:0.5;" x="125.219207163" xlink:href="#m1ca1d3e02b" y="13.4563428218"/>
      </g>
     </g>
    </g>
    <g id="xtick_13">
     <g id="line2d_65">
      <g>
       <use style="stroke:#000000;stroke-width:0.5;" x="131.644627902" xlink:href="#m4b0935c0a6" y="359.056342822"/>
      </g>
     </g>
     <g id="line2d_66">
      <g>
       <use style="stroke:#000000;stroke-width:0.5;" x="131.644627902" xlink:href="#m1ca1d3e02b" y="13.4563428218"/>
      </g>
     </g>
    </g>
    <g id="xtick_14">
     <g id="line2d_67">
      <g>
       <use style="stroke:#000000;stroke-width:0.5;" x="152.110114063" xlink:href="#m4b0935c0a6" y="359.056342822"/>
      </g>
     </g>
     <g id="line2d_68">
      <g>
       <use style="stroke:#000000;stroke-width:0.5;" x="152.110114063" xlink:href="#m1ca1d3e02b" y="13.4563428218"/>
      </g>
     </g>
    </g>
    <g id="xtick_15">
     <g id="line2d_69">
      <g>
       <use style="stroke:#000000;stroke-width:0.5;" x="167.591656697" xlink:href="#m4b0935c0a6" y="359.056342822"/>
      </g>
     </g>
     <g id="line2d_70">
      <g>
       <use style="stroke:#000000;stroke-width:0.5;" x="167.591656697" xlink:href="#m1ca1d3e02b" y="13.4563428218"/>
      </g>
     </g>
    </g>
    <g id="xtick_16">
     <g id="line2d_71">
      <g>
       <use style="stroke:#000000;stroke-width:0.5;" x="176.647778591" xlink:href="#m4b0935c0a6" y="359.056342822"/>
      </g>
     </g>
     <g id="line2d_72">
      <g>
       <use style="stroke:#000000;stroke-width:0.5;" x="176.647778591" xlink:href="#m1ca1d3e02b" y="13.4563428218"/>
      </g>
     </g>
    </g>
    <g id="xtick_17">
     <g id="line2d_73">
      <g>
       <use style="stroke:#000000;stroke-width:0.5;" x="183.073199331" xlink:href="#m4b0935c0a6" y="359.056342822"/>
      </g>
     </g>
     <g id="line2d_74">
      <g>
       <use style="stroke:#000000;stroke-width:0.5;" x="183.073199331" xlink:href="#m1ca1d3e02b" y="13.4563428218"/>
      </g>
     </g>
    </g>
    <g id="xtick_18">
     <g id="line2d_75">
      <g>
       <use style="stroke:#000000;stroke-width:0.5;" x="203.538685491" xlink:href="#m4b0935c0a6" y="359.056342822"/>
      </g>
     </g>
     <g id="line2d_76">
      <g>
       <use style="stroke:#000000;stroke-width:0.5;" x="203.538685491" xlink:href="#m1ca1d3e02b" y="13.4563428218"/>
      </g>
     </g>
    </g>
    <g id="xtick_19">
     <g id="line2d_77">
      <g>
       <use style="stroke:#000000;stroke-width:0.5;" x="219.020228125" xlink:href="#m4b0935c0a6" y="359.056342822"/>
      </g>
     </g>
     <g id="line2d_78">
      <g>
       <use style="stroke:#000000;stroke-width:0.5;" x="219.020228125" xlink:href="#m1ca1d3e02b" y="13.4563428218"/>
      </g>
     </g>
    </g>
    <g id="xtick_20">
     <g id="line2d_79">
      <g>
       <use style="stroke:#000000;stroke-width:0.5;" x="228.07635002" xlink:href="#m4b0935c0a6" y="359.056342822"/>
      </g>
     </g>
     <g id="line2d_80">
      <g>
       <use style="stroke:#000000;stroke-width:0.5;" x="228.07635002" xlink:href="#m1ca1d3e02b" y="13.4563428218"/>
      </g>
     </g>
    </g>
    <g id="xtick_21">
     <g id="line2d_81">
      <g>
       <use style="stroke:#000000;stroke-width:0.5;" x="234.50177076" xlink:href="#m4b0935c0a6" y="359.056342822"/>
      </g>
     </g>
     <g id="line2d_82">
      <g>
       <use style="stroke:#000000;stroke-width:0.5;" x="234.50177076" xlink:href="#m1ca1d3e02b" y="13.4563428218"/>
      </g>
     </g>
    </g>
    <g id="xtick_22">
     <g id="line2d_83">
      <g>
       <use style="stroke:#000000;stroke-width:0.5;" x="254.96725692" xlink:href="#m4b0935c0a6" y="359.056342822"/>
      </g>
     </g>
     <g id="line2d_84">
      <g>
       <use style="stroke:#000000;stroke-width:0.5;" x="254.96725692" xlink:href="#m1ca1d3e02b" y="13.4563428218"/>
      </g>
     </g>
    </g>
    <g id="xtick_23">
     <g id="line2d_85">
      <g>
       <use style="stroke:#000000;stroke-width:0.5;" x="270.448799554" xlink:href="#m4b0935c0a6" y="359.056342822"/>
      </g>
     </g>
     <g id="line2d_86">
      <g>
       <use style="stroke:#000000;stroke-width:0.5;" x="270.448799554" xlink:href="#m1ca1d3e02b" y="13.4563428218"/>
      </g>
     </g>
    </g>
    <g id="xtick_24">
     <g id="line2d_87">
      <g>
       <use style="stroke:#000000;stroke-width:0.5;" x="279.504921448" xlink:href="#m4b0935c0a6" y="359.056342822"/>
      </g>
     </g>
     <g id="line2d_88">
      <g>
       <use style="stroke:#000000;stroke-width:0.5;" x="279.504921448" xlink:href="#m1ca1d3e02b" y="13.4563428218"/>
      </g>
     </g>
    </g>
    <g id="xtick_25">
     <g id="line2d_89">
      <g>
       <use style="stroke:#000000;stroke-width:0.5;" x="285.930342188" xlink:href="#m4b0935c0a6" y="359.056342822"/>
      </g>
     </g>
     <g id="line2d_90">
      <g>
       <use style="stroke:#000000;stroke-width:0.5;" x="285.930342188" xlink:href="#m1ca1d3e02b" y="13.4563428218"/>
      </g>
     </g>
    </g>
    <g id="xtick_26">
     <g id="line2d_91">
      <g>
       <use style="stroke:#000000;stroke-width:0.5;" x="306.395828348" xlink:href="#m4b0935c0a6" y="359.056342822"/>
      </g>
     </g>
     <g id="line2d_92">
      <g>
       <use style="stroke:#000000;stroke-width:0.5;" x="306.395828348" xlink:href="#m1ca1d3e02b" y="13.4563428218"/>
      </g>
     </g>
    </g>
    <g id="xtick_27">
     <g id="line2d_93">
      <g>
       <use style="stroke:#000000;stroke-width:0.5;" x="321.877370983" xlink:href="#m4b0935c0a6" y="359.056342822"/>
      </g>
     </g>
     <g id="line2d_94">
      <g>
       <use style="stroke:#000000;stroke-width:0.5;" x="321.877370983" xlink:href="#m1ca1d3e02b" y="13.4563428218"/>
      </g>
     </g>
    </g>
    <g id="xtick_28">
     <g id="line2d_95">
      <g>
       <use style="stroke:#000000;stroke-width:0.5;" x="330.933492877" xlink:href="#m4b0935c0a6" y="359.056342822"/>
      </g>
     </g>
     <g id="line2d_96">
      <g>
       <use style="stroke:#000000;stroke-width:0.5;" x="330.933492877" xlink:href="#m1ca1d3e02b" y="13.4563428218"/>
      </g>
     </g>
    </g>
    <g id="xtick_29">
     <g id="line2d_97">
      <g>
       <use style="stroke:#000000;stroke-width:0.5;" x="337.358913617" xlink:href="#m4b0935c0a6" y="359.056342822"/>
      </g>
     </g>
     <g id="line2d_98">
      <g>
       <use style="stroke:#000000;stroke-width:0.5;" x="337.358913617" xlink:href="#m1ca1d3e02b" y="13.4563428218"/>
      </g>
     </g>
    </g>
    <g id="xtick_30">
     <g id="line2d_99">
      <g>
       <use style="stroke:#000000;stroke-width:0.5;" x="357.824399777" xlink:href="#m4b0935c0a6" y="359.056342822"/>
      </g>
     </g>
     <g id="line2d_100">
      <g>
       <use style="stroke:#000000;stroke-width:0.5;" x="357.824399777" xlink:href="#m1ca1d3e02b" y="13.4563428218"/>
      </g>
     </g>
    </g>
    <g id="xtick_31">
     <g id="line2d_101">
      <g>
       <use style="stroke:#000000;stroke-width:0.5;" x="373.305942411" xlink:href="#m4b0935c0a6" y="359.056342822"/>
      </g>
     </g>
     <g id="line2d_102">
      <g>
       <use style="stroke:#000000;stroke-width:0.5;" x="373.305942411" xlink:href="#m1ca1d3e02b" y="13.4563428218"/>
      </g>
     </g>
    </g>
    <g id="xtick_32">
     <g id="line2d_103">
      <g>
       <use style="stroke:#000000;stroke-width:0.5;" x="382.362064305" xlink:href="#m4b0935c0a6" y="359.056342822"/>
      </g>
     </g>
     <g id="line2d_104">
      <g>
       <use style="stroke:#000000;stroke-width:0.5;" x="382.362064305" xlink:href="#m1ca1d3e02b" y="13.4563428218"/>
      </g>
     </g>
    </g>
    <g id="xtick_33">
     <g id="line2d_105">
      <g>
       <use style="stroke:#000000;stroke-width:0.5;" x="388.787485045" xlink:href="#m4b0935c0a6" y="359.056342822"/>
      </g>
     </g>
     <g id="line2d_106">
      <g>
       <use style="stroke:#000000;stroke-width:0.5;" x="388.787485045" xlink:href="#m1ca1d3e02b" y="13.4563428218"/>
      </g>
     </g>
    </g>
    <g id="xtick_34">
     <g id="line2d_107">
      <g>
       <use style="stroke:#000000;stroke-width:0.5;" x="409.252971206" xlink:href="#m4b0935c0a6" y="359.056342822"/>
      </g>
     </g>
     <g id="line2d_108">
      <g>
       <use style="stroke:#000000;stroke-width:0.5;" x="409.252971206" xlink:href="#m1ca1d3e02b" y="13.4563428218"/>
      </g>
     </g>
    </g>
    <g id="xtick_35">
     <g id="line2d_109">
      <g>
       <use style="stroke:#000000;stroke-width:0.5;" x="424.73451384" xlink:href="#m4b0935c0a6" y="359.056342822"/>
      </g>
     </g>
     <g id="line2d_110">
      <g>
       <use style="stroke:#000000;stroke-width:0.5;" x="424.73451384" xlink:href="#m1ca1d3e02b" y="13.4563428218"/>
      </g>
     </g>
    </g>
    <g id="xtick_36">
     <g id="line2d_111">
      <g>
       <use style="stroke:#000000;stroke-width:0.5;" x="433.790635734" xlink:href="#m4b0935c0a6" y="359.056342822"/>
      </g>
     </g>
     <g id="line2d_112">
      <g>
       <use style="stroke:#000000;stroke-width:0.5;" x="433.790635734" xlink:href="#m1ca1d3e02b" y="13.4563428218"/>
      </g>
     </g>
    </g>
    <g id="xtick_37">
     <g id="line2d_113">
      <g>
       <use style="stroke:#000000;stroke-width:0.5;" x="440.216056474" xlink:href="#m4b0935c0a6" y="359.056342822"/>
      </g>
     </g>
     <g id="line2d_114">
      <g>
       <use style="stroke:#000000;stroke-width:0.5;" x="440.216056474" xlink:href="#m1ca1d3e02b" y="13.4563428218"/>
      </g>
     </g>
    </g>
    <g id="xtick_38">
     <g id="line2d_115">
      <g>
       <use style="stroke:#000000;stroke-width:0.5;" x="460.681542634" xlink:href="#m4b0935c0a6" y="359.056342822"/>
      </g>
     </g>
     <g id="line2d_116">
      <g>
       <use style="stroke:#000000;stroke-width:0.5;" x="460.681542634" xlink:href="#m1ca1d3e02b" y="13.4563428218"/>
      </g>
     </g>
    </g>
    <g id="xtick_39">
     <g id="line2d_117">
      <g>
       <use style="stroke:#000000;stroke-width:0.5;" x="476.163085268" xlink:href="#m4b0935c0a6" y="359.056342822"/>
      </g>
     </g>
     <g id="line2d_118">
      <g>
       <use style="stroke:#000000;stroke-width:0.5;" x="476.163085268" xlink:href="#m1ca1d3e02b" y="13.4563428218"/>
      </g>
     </g>
    </g>
    <g id="xtick_40">
     <g id="line2d_119">
      <g>
       <use style="stroke:#000000;stroke-width:0.5;" x="485.219207163" xlink:href="#m4b0935c0a6" y="359.056342822"/>
      </g>
     </g>
     <g id="line2d_120">
      <g>
       <use style="stroke:#000000;stroke-width:0.5;" x="485.219207163" xlink:href="#m1ca1d3e02b" y="13.4563428218"/>
      </g>
     </g>
    </g>
    <g id="xtick_41">
     <g id="line2d_121">
      <g>
       <use style="stroke:#000000;stroke-width:0.5;" x="491.644627902" xlink:href="#m4b0935c0a6" y="359.056342822"/>
      </g>
     </g>
     <g id="line2d_122">
      <g>
       <use style="stroke:#000000;stroke-width:0.5;" x="491.644627902" xlink:href="#m1ca1d3e02b" y="13.4563428218"/>
      </g>
     </g>
    </g>
    <g id="xtick_42">
     <g id="line2d_123">
      <g>
       <use style="stroke:#000000;stroke-width:0.5;" x="512.110114063" xlink:href="#m4b0935c0a6" y="359.056342822"/>
      </g>
     </g>
     <g id="line2d_124">
      <g>
       <use style="stroke:#000000;stroke-width:0.5;" x="512.110114063" xlink:href="#m1ca1d3e02b" y="13.4563428218"/>
      </g>
     </g>
    </g>
    <g id="xtick_43">
     <g id="line2d_125">
      <g>
       <use style="stroke:#000000;stroke-width:0.5;" x="527.591656697" xlink:href="#m4b0935c0a6" y="359.056342822"/>
      </g>
     </g>
     <g id="line2d_126">
      <g>
       <use style="stroke:#000000;stroke-width:0.5;" x="527.591656697" xlink:href="#m1ca1d3e02b" y="13.4563428218"/>
      </g>
     </g>
    </g>
    <g id="text_10">
     <!-- log10 of (# f-evals / dimension) -->
     <defs>
      <path id="BitstreamVeraSans-Roman-20"/>
      <path d="M 51.125 44 
L 36.921875 44 
L 32.8125 27.6875 
L 47.125 27.6875 
z
M 43.796875 71.78125 
L 38.71875 51.515625 
L 52.984375 51.515625 
L 58.109375 71.78125 
L 65.921875 71.78125 
L 60.890625 51.515625 
L 76.125 51.515625 
L 76.125 44 
L 58.984375 44 
L 54.984375 27.6875 
L 70.515625 27.6875 
L 70.515625 20.21875 
L 53.078125 20.21875 
L 48 0 
L 40.1875 0 
L 45.21875 20.21875 
L 30.90625 20.21875 
L 25.875 0 
L 18.015625 0 
L 23.09375 20.21875 
L 7.71875 20.21875 
L 7.71875 27.6875 
L 24.90625 27.6875 
L 29 44 
L 13.28125 44 
L 13.28125 51.515625 
L 30.90625 51.515625 
L 35.890625 71.78125 
z
" id="BitstreamVeraSans-Roman-23"/>
      <path d="M 52 44.1875 
Q 55.375 50.25 60.0625 53.125 
Q 64.75 56 71.09375 56 
Q 79.640625 56 84.28125 50.015625 
Q 88.921875 44.046875 88.921875 33.015625 
L 88.921875 0 
L 79.890625 0 
L 79.890625 32.71875 
Q 79.890625 40.578125 77.09375 44.375 
Q 74.3125 48.1875 68.609375 48.1875 
Q 61.625 48.1875 57.5625 43.546875 
Q 53.515625 38.921875 53.515625 30.90625 
L 53.515625 0 
L 44.484375 0 
L 44.484375 32.71875 
Q 44.484375 40.625 41.703125 44.40625 
Q 38.921875 48.1875 33.109375 48.1875 
Q 26.21875 48.1875 22.15625 43.53125 
Q 18.109375 38.875 18.109375 30.90625 
L 18.109375 0 
L 9.078125 0 
L 9.078125 54.6875 
L 18.109375 54.6875 
L 18.109375 46.1875 
Q 21.1875 51.21875 25.484375 53.609375 
Q 29.78125 56 35.6875 56 
Q 41.65625 56 45.828125 52.96875 
Q 50 49.953125 52 44.1875 
" id="BitstreamVeraSans-Roman-6d"/>
      <path d="M 54.890625 33.015625 
L 54.890625 0 
L 45.90625 0 
L 45.90625 32.71875 
Q 45.90625 40.484375 42.875 44.328125 
Q 39.84375 48.1875 33.796875 48.1875 
Q 26.515625 48.1875 22.3125 43.546875 
Q 18.109375 38.921875 18.109375 30.90625 
L 18.109375 0 
L 9.078125 0 
L 9.078125 54.6875 
L 18.109375 54.6875 
L 18.109375 46.1875 
Q 21.34375 51.125 25.703125 53.5625 
Q 30.078125 56 35.796875 56 
Q 45.21875 56 50.046875 50.171875 
Q 54.890625 44.34375 54.890625 33.015625 
" id="BitstreamVeraSans-Roman-6e"/>
      <path d="M 31 75.875 
Q 24.46875 64.65625 21.28125 53.65625 
Q 18.109375 42.671875 18.109375 31.390625 
Q 18.109375 20.125 21.3125 9.0625 
Q 24.515625 -2 31 -13.1875 
L 23.1875 -13.1875 
Q 15.875 -1.703125 12.234375 9.375 
Q 8.59375 20.453125 8.59375 31.390625 
Q 8.59375 42.28125 12.203125 53.3125 
Q 15.828125 64.359375 23.1875 75.875 
z
" id="BitstreamVeraSans-Roman-28"/>
      <path d="M 30.609375 48.390625 
Q 23.390625 48.390625 19.1875 42.75 
Q 14.984375 37.109375 14.984375 27.296875 
Q 14.984375 17.484375 19.15625 11.84375 
Q 23.34375 6.203125 30.609375 6.203125 
Q 37.796875 6.203125 41.984375 11.859375 
Q 46.1875 17.53125 46.1875 27.296875 
Q 46.1875 37.015625 41.984375 42.703125 
Q 37.796875 48.390625 30.609375 48.390625 
M 30.609375 56 
Q 42.328125 56 49.015625 48.375 
Q 55.71875 40.765625 55.71875 27.296875 
Q 55.71875 13.875 49.015625 6.21875 
Q 42.328125 -1.421875 30.609375 -1.421875 
Q 18.84375 -1.421875 12.171875 6.21875 
Q 5.515625 13.875 5.515625 27.296875 
Q 5.515625 40.765625 12.171875 48.375 
Q 18.84375 56 30.609375 56 
" id="BitstreamVeraSans-Roman-6f"/>
      <path d="M 9.421875 75.984375 
L 18.40625 75.984375 
L 18.40625 0 
L 9.421875 0 
z
" id="BitstreamVeraSans-Roman-6c"/>
      <path d="M 2.984375 54.6875 
L 12.5 54.6875 
L 29.59375 8.796875 
L 46.6875 54.6875 
L 56.203125 54.6875 
L 35.6875 0 
L 23.484375 0 
z
" id="BitstreamVeraSans-Roman-76"/>
      <path d="M 9.421875 54.6875 
L 18.40625 54.6875 
L 18.40625 0 
L 9.421875 0 
z
M 9.421875 75.984375 
L 18.40625 75.984375 
L 18.40625 64.59375 
L 9.421875 64.59375 
z
" id="BitstreamVeraSans-Roman-69"/>
      <path d="M 4.890625 31.390625 
L 31.203125 31.390625 
L 31.203125 23.390625 
L 4.890625 23.390625 
z
" id="BitstreamVeraSans-Roman-2d"/>
      <path d="M 25.390625 72.90625 
L 33.6875 72.90625 
L 8.296875 -9.28125 
L 0 -9.28125 
z
" id="BitstreamVeraSans-Roman-2f"/>
      <path d="M 56.203125 29.59375 
L 56.203125 25.203125 
L 14.890625 25.203125 
Q 15.484375 15.921875 20.484375 11.0625 
Q 25.484375 6.203125 34.421875 6.203125 
Q 39.59375 6.203125 44.453125 7.46875 
Q 49.3125 8.734375 54.109375 11.28125 
L 54.109375 2.78125 
Q 49.265625 0.734375 44.1875 -0.34375 
Q 39.109375 -1.421875 33.890625 -1.421875 
Q 20.796875 -1.421875 13.15625 6.1875 
Q 5.515625 13.8125 5.515625 26.8125 
Q 5.515625 40.234375 12.765625 48.109375 
Q 20.015625 56 32.328125 56 
Q 43.359375 56 49.78125 48.890625 
Q 56.203125 41.796875 56.203125 29.59375 
M 47.21875 32.234375 
Q 47.125 39.59375 43.09375 43.984375 
Q 39.0625 48.390625 32.421875 48.390625 
Q 24.90625 48.390625 20.390625 44.140625 
Q 15.875 39.890625 15.1875 32.171875 
z
" id="BitstreamVeraSans-Roman-65"/>
      <path d="M 45.40625 46.390625 
L 45.40625 75.984375 
L 54.390625 75.984375 
L 54.390625 0 
L 45.40625 0 
L 45.40625 8.203125 
Q 42.578125 3.328125 38.25 0.953125 
Q 33.9375 -1.421875 27.875 -1.421875 
Q 17.96875 -1.421875 11.734375 6.484375 
Q 5.515625 14.40625 5.515625 27.296875 
Q 5.515625 40.1875 11.734375 48.09375 
Q 17.96875 56 27.875 56 
Q 33.9375 56 38.25 53.625 
Q 42.578125 51.265625 45.40625 46.390625 
M 14.796875 27.296875 
Q 14.796875 17.390625 18.875 11.75 
Q 22.953125 6.109375 30.078125 6.109375 
Q 37.203125 6.109375 41.296875 11.75 
Q 45.40625 17.390625 45.40625 27.296875 
Q 45.40625 37.203125 41.296875 42.84375 
Q 37.203125 48.484375 30.078125 48.484375 
Q 22.953125 48.484375 18.875 42.84375 
Q 14.796875 37.203125 14.796875 27.296875 
" id="BitstreamVeraSans-Roman-64"/>
      <path d="M 45.40625 27.984375 
Q 45.40625 37.75 41.375 43.109375 
Q 37.359375 48.484375 30.078125 48.484375 
Q 22.859375 48.484375 18.828125 43.109375 
Q 14.796875 37.75 14.796875 27.984375 
Q 14.796875 18.265625 18.828125 12.890625 
Q 22.859375 7.515625 30.078125 7.515625 
Q 37.359375 7.515625 41.375 12.890625 
Q 45.40625 18.265625 45.40625 27.984375 
M 54.390625 6.78125 
Q 54.390625 -7.171875 48.1875 -13.984375 
Q 42 -20.796875 29.203125 -20.796875 
Q 24.46875 -20.796875 20.265625 -20.09375 
Q 16.0625 -19.390625 12.109375 -17.921875 
L 12.109375 -9.1875 
Q 16.0625 -11.328125 19.921875 -12.34375 
Q 23.78125 -13.375 27.78125 -13.375 
Q 36.625 -13.375 41.015625 -8.765625 
Q 45.40625 -4.15625 45.40625 5.171875 
L 45.40625 9.625 
Q 42.625 4.78125 38.28125 2.390625 
Q 33.9375 0 27.875 0 
Q 17.828125 0 11.671875 7.65625 
Q 5.515625 15.328125 5.515625 27.984375 
Q 5.515625 40.671875 11.671875 48.328125 
Q 17.828125 56 27.875 56 
Q 33.9375 56 38.28125 53.609375 
Q 42.625 51.21875 45.40625 46.390625 
L 45.40625 54.6875 
L 54.390625 54.6875 
z
" id="BitstreamVeraSans-Roman-67"/>
      <path d="M 37.109375 75.984375 
L 37.109375 68.5 
L 28.515625 68.5 
Q 23.6875 68.5 21.796875 66.546875 
Q 19.921875 64.59375 19.921875 59.515625 
L 19.921875 54.6875 
L 34.71875 54.6875 
L 34.71875 47.703125 
L 19.921875 47.703125 
L 19.921875 0 
L 10.890625 0 
L 10.890625 47.703125 
L 2.296875 47.703125 
L 2.296875 54.6875 
L 10.890625 54.6875 
L 10.890625 58.5 
Q 10.890625 67.625 15.140625 71.796875 
Q 19.390625 75.984375 28.609375 75.984375 
z
" id="BitstreamVeraSans-Roman-66"/>
      <path d="M 34.28125 27.484375 
Q 23.390625 27.484375 19.1875 25 
Q 14.984375 22.515625 14.984375 16.5 
Q 14.984375 11.71875 18.140625 8.90625 
Q 21.296875 6.109375 26.703125 6.109375 
Q 34.1875 6.109375 38.703125 11.40625 
Q 43.21875 16.703125 43.21875 25.484375 
L 43.21875 27.484375 
z
M 52.203125 31.203125 
L 52.203125 0 
L 43.21875 0 
L 43.21875 8.296875 
Q 40.140625 3.328125 35.546875 0.953125 
Q 30.953125 -1.421875 24.3125 -1.421875 
Q 15.921875 -1.421875 10.953125 3.296875 
Q 6 8.015625 6 15.921875 
Q 6 25.140625 12.171875 29.828125 
Q 18.359375 34.515625 30.609375 34.515625 
L 43.21875 34.515625 
L 43.21875 35.40625 
Q 43.21875 41.609375 39.140625 45 
Q 35.0625 48.390625 27.6875 48.390625 
Q 23 48.390625 18.546875 47.265625 
Q 14.109375 46.140625 10.015625 43.890625 
L 10.015625 52.203125 
Q 14.9375 54.109375 19.578125 55.046875 
Q 24.21875 56 28.609375 56 
Q 40.484375 56 46.34375 49.84375 
Q 52.203125 43.703125 52.203125 31.203125 
" id="BitstreamVeraSans-Roman-61"/>
      <path d="M 44.28125 53.078125 
L 44.28125 44.578125 
Q 40.484375 46.53125 36.375 47.5 
Q 32.28125 48.484375 27.875 48.484375 
Q 21.1875 48.484375 17.84375 46.4375 
Q 14.5 44.390625 14.5 40.28125 
Q 14.5 37.15625 16.890625 35.375 
Q 19.28125 33.59375 26.515625 31.984375 
L 29.59375 31.296875 
Q 39.15625 29.25 43.1875 25.515625 
Q 47.21875 21.78125 47.21875 15.09375 
Q 47.21875 7.46875 41.1875 3.015625 
Q 35.15625 -1.421875 24.609375 -1.421875 
Q 20.21875 -1.421875 15.453125 -0.5625 
Q 10.6875 0.296875 5.421875 2 
L 5.421875 11.28125 
Q 10.40625 8.6875 15.234375 7.390625 
Q 20.0625 6.109375 24.8125 6.109375 
Q 31.15625 6.109375 34.5625 8.28125 
Q 37.984375 10.453125 37.984375 14.40625 
Q 37.984375 18.0625 35.515625 20.015625 
Q 33.0625 21.96875 24.703125 23.78125 
L 21.578125 24.515625 
Q 13.234375 26.265625 9.515625 29.90625 
Q 5.8125 33.546875 5.8125 39.890625 
Q 5.8125 47.609375 11.28125 51.796875 
Q 16.75 56 26.8125 56 
Q 31.78125 56 36.171875 55.265625 
Q 40.578125 54.546875 44.28125 53.078125 
" id="BitstreamVeraSans-Roman-73"/>
      <path d="M 8.015625 75.875 
L 15.828125 75.875 
Q 23.140625 64.359375 26.78125 53.3125 
Q 30.421875 42.28125 30.421875 31.390625 
Q 30.421875 20.453125 26.78125 9.375 
Q 23.140625 -1.703125 15.828125 -13.1875 
L 8.015625 -13.1875 
Q 14.5 -2 17.703125 9.0625 
Q 20.90625 20.125 20.90625 31.390625 
Q 20.90625 42.671875 17.703125 53.65625 
Q 14.5 64.65625 8.015625 75.875 
" id="BitstreamVeraSans-Roman-29"/>
     </defs>
     <g transform="translate(166.05515625 401.089780322)scale(0.18 -0.18)">
      <use xlink:href="#BitstreamVeraSans-Roman-6c"/>
      <use x="27.783203125" xlink:href="#BitstreamVeraSans-Roman-6f"/>
      <use x="88.96484375" xlink:href="#BitstreamVeraSans-Roman-67"/>
      <use x="152.44140625" xlink:href="#BitstreamVeraSans-Roman-31"/>
      <use x="216.064453125" xlink:href="#BitstreamVeraSans-Roman-30"/>
      <use x="279.6875" xlink:href="#BitstreamVeraSans-Roman-20"/>
      <use x="311.474609375" xlink:href="#BitstreamVeraSans-Roman-6f"/>
      <use x="372.65625" xlink:href="#BitstreamVeraSans-Roman-66"/>
      <use x="407.861328125" xlink:href="#BitstreamVeraSans-Roman-20"/>
      <use x="439.6484375" xlink:href="#BitstreamVeraSans-Roman-28"/>
      <use x="478.662109375" xlink:href="#BitstreamVeraSans-Roman-23"/>
      <use x="562.451171875" xlink:href="#BitstreamVeraSans-Roman-20"/>
      <use x="594.23828125" xlink:href="#BitstreamVeraSans-Roman-66"/>
      <use x="629.365234375" xlink:href="#BitstreamVeraSans-Roman-2d"/>
      <use x="665.44921875" xlink:href="#BitstreamVeraSans-Roman-65"/>
      <use x="726.97265625" xlink:href="#BitstreamVeraSans-Roman-76"/>
      <use x="786.15234375" xlink:href="#BitstreamVeraSans-Roman-61"/>
      <use x="847.431640625" xlink:href="#BitstreamVeraSans-Roman-6c"/>
      <use x="875.21484375" xlink:href="#BitstreamVeraSans-Roman-73"/>
      <use x="927.314453125" xlink:href="#BitstreamVeraSans-Roman-20"/>
      <use x="959.1015625" xlink:href="#BitstreamVeraSans-Roman-2f"/>
      <use x="992.79296875" xlink:href="#BitstreamVeraSans-Roman-20"/>
      <use x="1024.58007812" xlink:href="#BitstreamVeraSans-Roman-64"/>
      <use x="1088.05664062" xlink:href="#BitstreamVeraSans-Roman-69"/>
      <use x="1115.83984375" xlink:href="#BitstreamVeraSans-Roman-6d"/>
      <use x="1213.25195312" xlink:href="#BitstreamVeraSans-Roman-65"/>
      <use x="1274.77539062" xlink:href="#BitstreamVeraSans-Roman-6e"/>
      <use x="1338.15429688" xlink:href="#BitstreamVeraSans-Roman-73"/>
      <use x="1390.25390625" xlink:href="#BitstreamVeraSans-Roman-69"/>
      <use x="1418.03710938" xlink:href="#BitstreamVeraSans-Roman-6f"/>
      <use x="1479.21875" xlink:href="#BitstreamVeraSans-Roman-6e"/>
      <use x="1542.59765625" xlink:href="#BitstreamVeraSans-Roman-29"/>
     </g>
    </g>
   </g>
   <g id="matplotlib.axis_2">
    <g id="ytick_1">
     <g id="line2d_127">
      <path clip-path="url(#pd538b76e3d)" d="M 85.2 359.056343 
L 531.6 359.056343 
" style="fill:none;stroke:#000000;stroke-dasharray:1.000000,3.000000;stroke-dashoffset:0.0;stroke-width:0.5;"/>
     </g>
     <g id="line2d_128">
      <defs>
       <path d="M 0 0 
L 4 0 
" id="mb94da1fde1" style="stroke:#000000;stroke-width:0.5;"/>
      </defs>
      <g>
       <use style="stroke:#000000;stroke-width:0.5;" x="85.2" xlink:href="#mb94da1fde1" y="359.056342822"/>
      </g>
     </g>
     <g id="line2d_129">
      <defs>
       <path d="M 0 0 
L -4 0 
" id="mbf15b55134" style="stroke:#000000;stroke-width:0.5;"/>
      </defs>
      <g>
       <use style="stroke:#000000;stroke-width:0.5;" x="531.6" xlink:href="#mbf15b55134" y="359.056342822"/>
      </g>
     </g>
     <g id="text_11">
      <!-- 0.0 -->
      <defs>
       <path d="M 10.6875 12.40625 
L 21 12.40625 
L 21 0 
L 10.6875 0 
z
" id="BitstreamVeraSans-Roman-2e"/>
      </defs>
      <g transform="translate(49.39375 364.575092822)scale(0.2 -0.2)">
       <use xlink:href="#BitstreamVeraSans-Roman-30"/>
       <use x="63.623046875" xlink:href="#BitstreamVeraSans-Roman-2e"/>
       <use x="95.41015625" xlink:href="#BitstreamVeraSans-Roman-30"/>
      </g>
     </g>
    </g>
    <g id="ytick_2">
     <g id="line2d_130">
      <path clip-path="url(#pd538b76e3d)" d="M 85.2 290.620699 
L 531.6 290.620699 
" style="fill:none;stroke:#000000;stroke-dasharray:1.000000,3.000000;stroke-dashoffset:0.0;stroke-width:0.5;"/>
     </g>
     <g id="line2d_131">
      <g>
       <use style="stroke:#000000;stroke-width:0.5;" x="85.2" xlink:href="#mb94da1fde1" y="290.620699257"/>
      </g>
     </g>
     <g id="line2d_132">
      <g>
       <use style="stroke:#000000;stroke-width:0.5;" x="531.6" xlink:href="#mbf15b55134" y="290.620699257"/>
      </g>
     </g>
     <g id="text_12">
      <!-- 0.2 -->
      <g transform="translate(49.39375 296.139449257)scale(0.2 -0.2)">
       <use xlink:href="#BitstreamVeraSans-Roman-30"/>
       <use x="63.623046875" xlink:href="#BitstreamVeraSans-Roman-2e"/>
       <use x="95.41015625" xlink:href="#BitstreamVeraSans-Roman-32"/>
      </g>
     </g>
    </g>
    <g id="ytick_3">
     <g id="line2d_133">
      <path clip-path="url(#pd538b76e3d)" d="M 85.2 222.185056 
L 531.6 222.185056 
" style="fill:none;stroke:#000000;stroke-dasharray:1.000000,3.000000;stroke-dashoffset:0.0;stroke-width:0.5;"/>
     </g>
     <g id="line2d_134">
      <g>
       <use style="stroke:#000000;stroke-width:0.5;" x="85.2" xlink:href="#mb94da1fde1" y="222.185055693"/>
      </g>
     </g>
     <g id="line2d_135">
      <g>
       <use style="stroke:#000000;stroke-width:0.5;" x="531.6" xlink:href="#mbf15b55134" y="222.185055693"/>
      </g>
     </g>
     <g id="text_13">
      <!-- 0.4 -->
      <g transform="translate(49.39375 227.703805693)scale(0.2 -0.2)">
       <use xlink:href="#BitstreamVeraSans-Roman-30"/>
       <use x="63.623046875" xlink:href="#BitstreamVeraSans-Roman-2e"/>
       <use x="95.41015625" xlink:href="#BitstreamVeraSans-Roman-34"/>
      </g>
     </g>
    </g>
    <g id="ytick_4">
     <g id="line2d_136">
      <path clip-path="url(#pd538b76e3d)" d="M 85.2 153.749412 
L 531.6 153.749412 
" style="fill:none;stroke:#000000;stroke-dasharray:1.000000,3.000000;stroke-dashoffset:0.0;stroke-width:0.5;"/>
     </g>
     <g id="line2d_137">
      <g>
       <use style="stroke:#000000;stroke-width:0.5;" x="85.2" xlink:href="#mb94da1fde1" y="153.749412129"/>
      </g>
     </g>
     <g id="line2d_138">
      <g>
       <use style="stroke:#000000;stroke-width:0.5;" x="531.6" xlink:href="#mbf15b55134" y="153.749412129"/>
      </g>
     </g>
     <g id="text_14">
      <!-- 0.6 -->
      <g transform="translate(49.39375 159.268162129)scale(0.2 -0.2)">
       <use xlink:href="#BitstreamVeraSans-Roman-30"/>
       <use x="63.623046875" xlink:href="#BitstreamVeraSans-Roman-2e"/>
       <use x="95.41015625" xlink:href="#BitstreamVeraSans-Roman-36"/>
      </g>
     </g>
    </g>
    <g id="ytick_5">
     <g id="line2d_139">
      <path clip-path="url(#pd538b76e3d)" d="M 85.2 85.313769 
L 531.6 85.313769 
" style="fill:none;stroke:#000000;stroke-dasharray:1.000000,3.000000;stroke-dashoffset:0.0;stroke-width:0.5;"/>
     </g>
     <g id="line2d_140">
      <g>
       <use style="stroke:#000000;stroke-width:0.5;" x="85.2" xlink:href="#mb94da1fde1" y="85.3137685644"/>
      </g>
     </g>
     <g id="line2d_141">
      <g>
       <use style="stroke:#000000;stroke-width:0.5;" x="531.6" xlink:href="#mbf15b55134" y="85.3137685644"/>
      </g>
     </g>
     <g id="text_15">
      <!-- 0.8 -->
      <g transform="translate(49.39375 90.8325185644)scale(0.2 -0.2)">
       <use xlink:href="#BitstreamVeraSans-Roman-30"/>
       <use x="63.623046875" xlink:href="#BitstreamVeraSans-Roman-2e"/>
       <use x="95.41015625" xlink:href="#BitstreamVeraSans-Roman-38"/>
      </g>
     </g>
    </g>
    <g id="ytick_6">
     <g id="line2d_142">
      <path clip-path="url(#pd538b76e3d)" d="M 85.2 16.878125 
L 531.6 16.878125 
" style="fill:none;stroke:#000000;stroke-dasharray:1.000000,3.000000;stroke-dashoffset:0.0;stroke-width:0.5;"/>
     </g>
     <g id="line2d_143">
      <g>
       <use style="stroke:#000000;stroke-width:0.5;" x="85.2" xlink:href="#mb94da1fde1" y="16.878125"/>
      </g>
     </g>
     <g id="line2d_144">
      <g>
       <use style="stroke:#000000;stroke-width:0.5;" x="531.6" xlink:href="#mbf15b55134" y="16.878125"/>
      </g>
     </g>
     <g id="text_16">
      <!-- 1.0 -->
      <g transform="translate(49.39375 22.396875)scale(0.2 -0.2)">
       <use xlink:href="#BitstreamVeraSans-Roman-31"/>
       <use x="63.623046875" xlink:href="#BitstreamVeraSans-Roman-2e"/>
       <use x="95.41015625" xlink:href="#BitstreamVeraSans-Roman-30"/>
      </g>
     </g>
    </g>
    <g id="text_17">
     <!-- Proportion of function+target pairs -->
     <defs>
      <path d="M 19.671875 64.796875 
L 19.671875 37.40625 
L 32.078125 37.40625 
Q 38.96875 37.40625 42.71875 40.96875 
Q 46.484375 44.53125 46.484375 51.125 
Q 46.484375 57.671875 42.71875 61.234375 
Q 38.96875 64.796875 32.078125 64.796875 
z
M 9.8125 72.90625 
L 32.078125 72.90625 
Q 44.34375 72.90625 50.609375 67.359375 
Q 56.890625 61.8125 56.890625 51.125 
Q 56.890625 40.328125 50.609375 34.8125 
Q 44.34375 29.296875 32.078125 29.296875 
L 19.671875 29.296875 
L 19.671875 0 
L 9.8125 0 
z
" id="BitstreamVeraSans-Roman-50"/>
      <path d="M 46 62.703125 
L 46 35.5 
L 73.1875 35.5 
L 73.1875 27.203125 
L 46 27.203125 
L 46 0 
L 37.796875 0 
L 37.796875 27.203125 
L 10.59375 27.203125 
L 10.59375 35.5 
L 37.796875 35.5 
L 37.796875 62.703125 
z
" id="BitstreamVeraSans-Roman-2b"/>
      <path d="M 18.109375 8.203125 
L 18.109375 -20.796875 
L 9.078125 -20.796875 
L 9.078125 54.6875 
L 18.109375 54.6875 
L 18.109375 46.390625 
Q 20.953125 51.265625 25.265625 53.625 
Q 29.59375 56 35.59375 56 
Q 45.5625 56 51.78125 48.09375 
Q 58.015625 40.1875 58.015625 27.296875 
Q 58.015625 14.40625 51.78125 6.484375 
Q 45.5625 -1.421875 35.59375 -1.421875 
Q 29.59375 -1.421875 25.265625 0.953125 
Q 20.953125 3.328125 18.109375 8.203125 
M 48.6875 27.296875 
Q 48.6875 37.203125 44.609375 42.84375 
Q 40.53125 48.484375 33.40625 48.484375 
Q 26.265625 48.484375 22.1875 42.84375 
Q 18.109375 37.203125 18.109375 27.296875 
Q 18.109375 17.390625 22.1875 11.75 
Q 26.265625 6.109375 33.40625 6.109375 
Q 40.53125 6.109375 44.609375 11.75 
Q 48.6875 17.390625 48.6875 27.296875 
" id="BitstreamVeraSans-Roman-70"/>
      <path d="M 18.3125 70.21875 
L 18.3125 54.6875 
L 36.8125 54.6875 
L 36.8125 47.703125 
L 18.3125 47.703125 
L 18.3125 18.015625 
Q 18.3125 11.328125 20.140625 9.421875 
Q 21.96875 7.515625 27.59375 7.515625 
L 36.8125 7.515625 
L 36.8125 0 
L 27.59375 0 
Q 17.1875 0 13.234375 3.875 
Q 9.28125 7.765625 9.28125 18.015625 
L 9.28125 47.703125 
L 2.6875 47.703125 
L 2.6875 54.6875 
L 9.28125 54.6875 
L 9.28125 70.21875 
z
" id="BitstreamVeraSans-Roman-74"/>
      <path d="M 8.5 21.578125 
L 8.5 54.6875 
L 17.484375 54.6875 
L 17.484375 21.921875 
Q 17.484375 14.15625 20.5 10.265625 
Q 23.53125 6.390625 29.59375 6.390625 
Q 36.859375 6.390625 41.078125 11.03125 
Q 45.3125 15.671875 45.3125 23.6875 
L 45.3125 54.6875 
L 54.296875 54.6875 
L 54.296875 0 
L 45.3125 0 
L 45.3125 8.40625 
Q 42.046875 3.421875 37.71875 1 
Q 33.40625 -1.421875 27.6875 -1.421875 
Q 18.265625 -1.421875 13.375 4.4375 
Q 8.5 10.296875 8.5 21.578125 
" id="BitstreamVeraSans-Roman-75"/>
      <path d="M 41.109375 46.296875 
Q 39.59375 47.171875 37.8125 47.578125 
Q 36.03125 48 33.890625 48 
Q 26.265625 48 22.1875 43.046875 
Q 18.109375 38.09375 18.109375 28.8125 
L 18.109375 0 
L 9.078125 0 
L 9.078125 54.6875 
L 18.109375 54.6875 
L 18.109375 46.1875 
Q 20.953125 51.171875 25.484375 53.578125 
Q 30.03125 56 36.53125 56 
Q 37.453125 56 38.578125 55.875 
Q 39.703125 55.765625 41.0625 55.515625 
z
" id="BitstreamVeraSans-Roman-72"/>
      <path d="M 48.78125 52.59375 
L 48.78125 44.1875 
Q 44.96875 46.296875 41.140625 47.34375 
Q 37.3125 48.390625 33.40625 48.390625 
Q 24.65625 48.390625 19.8125 42.84375 
Q 14.984375 37.3125 14.984375 27.296875 
Q 14.984375 17.28125 19.8125 11.734375 
Q 24.65625 6.203125 33.40625 6.203125 
Q 37.3125 6.203125 41.140625 7.25 
Q 44.96875 8.296875 48.78125 10.40625 
L 48.78125 2.09375 
Q 45.015625 0.34375 40.984375 -0.53125 
Q 36.96875 -1.421875 32.421875 -1.421875 
Q 20.0625 -1.421875 12.78125 6.34375 
Q 5.515625 14.109375 5.515625 27.296875 
Q 5.515625 40.671875 12.859375 48.328125 
Q 20.21875 56 33.015625 56 
Q 37.15625 56 41.109375 55.140625 
Q 45.0625 54.296875 48.78125 52.59375 
" id="BitstreamVeraSans-Roman-63"/>
     </defs>
     <g transform="translate(40.6503125 344.245717822)rotate(-90.0)scale(0.18 -0.18)">
      <use xlink:href="#BitstreamVeraSans-Roman-50"/>
      <use x="60.287109375" xlink:href="#BitstreamVeraSans-Roman-72"/>
      <use x="101.369140625" xlink:href="#BitstreamVeraSans-Roman-6f"/>
      <use x="162.55078125" xlink:href="#BitstreamVeraSans-Roman-70"/>
      <use x="226.02734375" xlink:href="#BitstreamVeraSans-Roman-6f"/>
      <use x="287.208984375" xlink:href="#BitstreamVeraSans-Roman-72"/>
      <use x="328.322265625" xlink:href="#BitstreamVeraSans-Roman-74"/>
      <use x="367.53125" xlink:href="#BitstreamVeraSans-Roman-69"/>
      <use x="395.314453125" xlink:href="#BitstreamVeraSans-Roman-6f"/>
      <use x="456.49609375" xlink:href="#BitstreamVeraSans-Roman-6e"/>
      <use x="519.875" xlink:href="#BitstreamVeraSans-Roman-20"/>
      <use x="551.662109375" xlink:href="#BitstreamVeraSans-Roman-6f"/>
      <use x="612.84375" xlink:href="#BitstreamVeraSans-Roman-66"/>
      <use x="648.048828125" xlink:href="#BitstreamVeraSans-Roman-20"/>
      <use x="679.8359375" xlink:href="#BitstreamVeraSans-Roman-66"/>
      <use x="715.041015625" xlink:href="#BitstreamVeraSans-Roman-75"/>
      <use x="778.419921875" xlink:href="#BitstreamVeraSans-Roman-6e"/>
      <use x="841.798828125" xlink:href="#BitstreamVeraSans-Roman-63"/>
      <use x="896.779296875" xlink:href="#BitstreamVeraSans-Roman-74"/>
      <use x="935.98828125" xlink:href="#BitstreamVeraSans-Roman-69"/>
      <use x="963.771484375" xlink:href="#BitstreamVeraSans-Roman-6f"/>
      <use x="1024.953125" xlink:href="#BitstreamVeraSans-Roman-6e"/>
      <use x="1088.33203125" xlink:href="#BitstreamVeraSans-Roman-2b"/>
      <use x="1172.12109375" xlink:href="#BitstreamVeraSans-Roman-74"/>
      <use x="1211.33007812" xlink:href="#BitstreamVeraSans-Roman-61"/>
      <use x="1272.609375" xlink:href="#BitstreamVeraSans-Roman-72"/>
      <use x="1313.70703125" xlink:href="#BitstreamVeraSans-Roman-67"/>
      <use x="1377.18359375" xlink:href="#BitstreamVeraSans-Roman-65"/>
      <use x="1438.70703125" xlink:href="#BitstreamVeraSans-Roman-74"/>
      <use x="1477.91601562" xlink:href="#BitstreamVeraSans-Roman-20"/>
      <use x="1509.703125" xlink:href="#BitstreamVeraSans-Roman-70"/>
      <use x="1573.1796875" xlink:href="#BitstreamVeraSans-Roman-61"/>
      <use x="1634.45898438" xlink:href="#BitstreamVeraSans-Roman-69"/>
      <use x="1662.2421875" xlink:href="#BitstreamVeraSans-Roman-72"/>
      <use x="1703.35546875" xlink:href="#BitstreamVeraSans-Roman-73"/>
     </g>
    </g>
   </g>
   <g id="text_18">
    <!-- f10 -->
    <g transform="translate(492.0 356.351840965)scale(0.15 -0.15)">
     <use xlink:href="#BitstreamVeraSans-Roman-66"/>
     <use x="35.205078125" xlink:href="#BitstreamVeraSans-Roman-31"/>
     <use x="98.828125" xlink:href="#BitstreamVeraSans-Roman-30"/>
    </g>
   </g>
   <g id="text_19">
    <!-- f11 -->
    <g transform="translate(492.0 274.229068688)scale(0.15 -0.15)">
     <use xlink:href="#BitstreamVeraSans-Roman-66"/>
     <use x="35.205078125" xlink:href="#BitstreamVeraSans-Roman-31"/>
     <use x="98.828125" xlink:href="#BitstreamVeraSans-Roman-31"/>
    </g>
   </g>
   <g id="text_20">
    <!-- f12 -->
    <g transform="translate(492.0 192.106296411)scale(0.15 -0.15)">
     <use xlink:href="#BitstreamVeraSans-Roman-66"/>
     <use x="35.205078125" xlink:href="#BitstreamVeraSans-Roman-31"/>
     <use x="98.828125" xlink:href="#BitstreamVeraSans-Roman-32"/>
    </g>
   </g>
   <g id="text_21">
    <!-- f13 -->
    <g transform="translate(492.0 109.983524134)scale(0.15 -0.15)">
     <use xlink:href="#BitstreamVeraSans-Roman-66"/>
     <use x="35.205078125" xlink:href="#BitstreamVeraSans-Roman-31"/>
     <use x="98.828125" xlink:href="#BitstreamVeraSans-Roman-33"/>
    </g>
   </g>
   <g id="text_22">
    <!-- f14 -->
    <g transform="translate(492.0 27.8607518564)scale(0.15 -0.15)">
     <use xlink:href="#BitstreamVeraSans-Roman-66"/>
     <use x="35.205078125" xlink:href="#BitstreamVeraSans-Roman-31"/>
     <use x="98.828125" xlink:href="#BitstreamVeraSans-Roman-34"/>
    </g>
   </g>
   <g id="text_23">
    <!-- bbob -->
    <defs>
     <path d="M 48.6875 27.296875 
Q 48.6875 37.203125 44.609375 42.84375 
Q 40.53125 48.484375 33.40625 48.484375 
Q 26.265625 48.484375 22.1875 42.84375 
Q 18.109375 37.203125 18.109375 27.296875 
Q 18.109375 17.390625 22.1875 11.75 
Q 26.265625 6.109375 33.40625 6.109375 
Q 40.53125 6.109375 44.609375 11.75 
Q 48.6875 17.390625 48.6875 27.296875 
M 18.109375 46.390625 
Q 20.953125 51.265625 25.265625 53.625 
Q 29.59375 56 35.59375 56 
Q 45.5625 56 51.78125 48.09375 
Q 58.015625 40.1875 58.015625 27.296875 
Q 58.015625 14.40625 51.78125 6.484375 
Q 45.5625 -1.421875 35.59375 -1.421875 
Q 29.59375 -1.421875 25.265625 0.953125 
Q 20.953125 3.328125 18.109375 8.203125 
L 18.109375 0 
L 9.078125 0 
L 9.078125 75.984375 
L 18.109375 75.984375 
z
" id="BitstreamVeraSans-Roman-62"/>
    </defs>
    <g transform="translate(89.664 33.0273396968)scale(0.1666 -0.1666)">
     <use xlink:href="#BitstreamVeraSans-Roman-62"/>
     <use x="63.4765625" xlink:href="#BitstreamVeraSans-Roman-62"/>
     <use x="126.953125" xlink:href="#BitstreamVeraSans-Roman-6f"/>
     <use x="188.134765625" xlink:href="#BitstreamVeraSans-Roman-62"/>
    </g>
    <!-- Ill-conditioned functions, 5-D -->
    <defs>
     <path d="M 11.71875 12.40625 
L 22.015625 12.40625 
L 22.015625 4 
L 14.015625 -11.625 
L 7.71875 -11.625 
L 11.71875 4 
z
" id="BitstreamVeraSans-Roman-2c"/>
     <path d="M 19.671875 64.796875 
L 19.671875 8.109375 
L 31.59375 8.109375 
Q 46.6875 8.109375 53.6875 14.9375 
Q 60.6875 21.78125 60.6875 36.53125 
Q 60.6875 51.171875 53.6875 57.984375 
Q 46.6875 64.796875 31.59375 64.796875 
z
M 9.8125 72.90625 
L 30.078125 72.90625 
Q 51.265625 72.90625 61.171875 64.09375 
Q 71.09375 55.28125 71.09375 36.53125 
Q 71.09375 17.671875 61.125 8.828125 
Q 51.171875 0 30.078125 0 
L 9.8125 0 
z
" id="BitstreamVeraSans-Roman-44"/>
     <path d="M 9.8125 72.90625 
L 19.671875 72.90625 
L 19.671875 0 
L 9.8125 0 
z
" id="BitstreamVeraSans-Roman-49"/>
    </defs>
    <g transform="translate(89.664 51.6828953218)scale(0.1666 -0.1666)">
     <use xlink:href="#BitstreamVeraSans-Roman-49"/>
     <use x="29.4921875" xlink:href="#BitstreamVeraSans-Roman-6c"/>
     <use x="57.275390625" xlink:href="#BitstreamVeraSans-Roman-6c"/>
     <use x="85.05859375" xlink:href="#BitstreamVeraSans-Roman-2d"/>
     <use x="121.142578125" xlink:href="#BitstreamVeraSans-Roman-63"/>
     <use x="176.123046875" xlink:href="#BitstreamVeraSans-Roman-6f"/>
     <use x="237.3046875" xlink:href="#BitstreamVeraSans-Roman-6e"/>
     <use x="300.68359375" xlink:href="#BitstreamVeraSans-Roman-64"/>
     <use x="364.16015625" xlink:href="#BitstreamVeraSans-Roman-69"/>
     <use x="391.943359375" xlink:href="#BitstreamVeraSans-Roman-74"/>
     <use x="431.15234375" xlink:href="#BitstreamVeraSans-Roman-69"/>
     <use x="458.935546875" xlink:href="#BitstreamVeraSans-Roman-6f"/>
     <use x="520.1171875" xlink:href="#BitstreamVeraSans-Roman-6e"/>
     <use x="583.49609375" xlink:href="#BitstreamVeraSans-Roman-65"/>
     <use x="645.01953125" xlink:href="#BitstreamVeraSans-Roman-64"/>
     <use x="708.49609375" xlink:href="#BitstreamVeraSans-Roman-20"/>
     <use x="740.283203125" xlink:href="#BitstreamVeraSans-Roman-66"/>
     <use x="775.48828125" xlink:href="#BitstreamVeraSans-Roman-75"/>
     <use x="838.8671875" xlink:href="#BitstreamVeraSans-Roman-6e"/>
     <use x="902.24609375" xlink:href="#BitstreamVeraSans-Roman-63"/>
     <use x="957.2265625" xlink:href="#BitstreamVeraSans-Roman-74"/>
     <use x="996.435546875" xlink:href="#BitstreamVeraSans-Roman-69"/>
     <use x="1024.21875" xlink:href="#BitstreamVeraSans-Roman-6f"/>
     <use x="1085.40039062" xlink:href="#BitstreamVeraSans-Roman-6e"/>
     <use x="1148.77929688" xlink:href="#BitstreamVeraSans-Roman-73"/>
     <use x="1200.87890625" xlink:href="#BitstreamVeraSans-Roman-2c"/>
     <use x="1232.66601562" xlink:href="#BitstreamVeraSans-Roman-20"/>
     <use x="1264.453125" xlink:href="#BitstreamVeraSans-Roman-35"/>
     <use x="1328.07617188" xlink:href="#BitstreamVeraSans-Roman-2d"/>
     <use x="1364.16015625" xlink:href="#BitstreamVeraSans-Roman-44"/>
    </g>
    <!-- 51 targets in 100..1e-08 -->
    <g transform="translate(89.664 70.3384509468)scale(0.1666 -0.1666)">
     <use xlink:href="#BitstreamVeraSans-Roman-35"/>
     <use x="63.623046875" xlink:href="#BitstreamVeraSans-Roman-31"/>
     <use x="127.24609375" xlink:href="#BitstreamVeraSans-Roman-20"/>
     <use x="159.033203125" xlink:href="#BitstreamVeraSans-Roman-74"/>
     <use x="198.2421875" xlink:href="#BitstreamVeraSans-Roman-61"/>
     <use x="259.521484375" xlink:href="#BitstreamVeraSans-Roman-72"/>
     <use x="300.619140625" xlink:href="#BitstreamVeraSans-Roman-67"/>
     <use x="364.095703125" xlink:href="#BitstreamVeraSans-Roman-65"/>
     <use x="425.619140625" xlink:href="#BitstreamVeraSans-Roman-74"/>
     <use x="464.828125" xlink:href="#BitstreamVeraSans-Roman-73"/>
     <use x="516.927734375" xlink:href="#BitstreamVeraSans-Roman-20"/>
     <use x="548.71484375" xlink:href="#BitstreamVeraSans-Roman-69"/>
     <use x="576.498046875" xlink:href="#BitstreamVeraSans-Roman-6e"/>
     <use x="639.876953125" xlink:href="#BitstreamVeraSans-Roman-20"/>
     <use x="671.6640625" xlink:href="#BitstreamVeraSans-Roman-31"/>
     <use x="735.287109375" xlink:href="#BitstreamVeraSans-Roman-30"/>
     <use x="798.91015625" xlink:href="#BitstreamVeraSans-Roman-30"/>
     <use x="862.533203125" xlink:href="#BitstreamVeraSans-Roman-2e"/>
     <use x="894.3203125" xlink:href="#BitstreamVeraSans-Roman-2e"/>
     <use x="926.107421875" xlink:href="#BitstreamVeraSans-Roman-31"/>
     <use x="989.73046875" xlink:href="#BitstreamVeraSans-Roman-65"/>
     <use x="1051.25390625" xlink:href="#BitstreamVeraSans-Roman-2d"/>
     <use x="1087.33789062" xlink:href="#BitstreamVeraSans-Roman-30"/>
     <use x="1150.9609375" xlink:href="#BitstreamVeraSans-Roman-38"/>
    </g>
    <!-- 15 instances -->
    <g transform="translate(89.664 88.9940065718)scale(0.1666 -0.1666)">
     <use xlink:href="#BitstreamVeraSans-Roman-31"/>
     <use x="63.623046875" xlink:href="#BitstreamVeraSans-Roman-35"/>
     <use x="127.24609375" xlink:href="#BitstreamVeraSans-Roman-20"/>
     <use x="159.033203125" xlink:href="#BitstreamVeraSans-Roman-69"/>
     <use x="186.81640625" xlink:href="#BitstreamVeraSans-Roman-6e"/>
     <use x="250.1953125" xlink:href="#BitstreamVeraSans-Roman-73"/>
     <use x="302.294921875" xlink:href="#BitstreamVeraSans-Roman-74"/>
     <use x="341.50390625" xlink:href="#BitstreamVeraSans-Roman-61"/>
     <use x="402.783203125" xlink:href="#BitstreamVeraSans-Roman-6e"/>
     <use x="466.162109375" xlink:href="#BitstreamVeraSans-Roman-63"/>
     <use x="521.142578125" xlink:href="#BitstreamVeraSans-Roman-65"/>
     <use x="582.666015625" xlink:href="#BitstreamVeraSans-Roman-73"/>
    </g>
   </g>
   <g id="text_24">
    <!-- 0.0.0 -->
    <g style="fill:#808080;" transform="translate(295.678125 353.520655322)scale(0.1 -0.1)">
     <use xlink:href="#BitstreamVeraSans-Roman-30"/>
     <use x="63.623046875" xlink:href="#BitstreamVeraSans-Roman-2e"/>
     <use x="95.41015625" xlink:href="#BitstreamVeraSans-Roman-30"/>
     <use x="159.033203125" xlink:href="#BitstreamVeraSans-Roman-2e"/>
     <use x="190.8203125" xlink:href="#BitstreamVeraSans-Roman-30"/>
    </g>
   </g>
  </g>
 </g>
 <defs>
  <clipPath id="pd538b76e3d">
   <rect height="345.6" width="446.4" x="85.2" y="13.4563428218"/>
  </clipPath>
 </defs>
</svg>
